<?xml version="1.0" encoding="utf-8"?>
<svg xmlns="http://www.w3.org/2000/svg" xmlns:xlink="http://www.w3.org/1999/xlink" width="576" height="384" viewBox="0 0 2304 1536">
<defs>
  <clipPath id="clip740">
    <rect x="0" y="0" width="2304" height="1536"/>
  </clipPath>
</defs>
<path clip-path="url(#clip740)" d="
M0 1536 L2304 1536 L2304 0 L0 0  Z
  " fill="#ffffff" fill-rule="evenodd" fill-opacity="1"/>
<defs>
  <clipPath id="clip741">
    <rect x="460" y="0" width="1614" height="1536"/>
  </clipPath>
</defs>
<path clip-path="url(#clip740)" d="
M168.161 1423.09 L2256.76 1423.09 L2256.76 47.2441 L168.161 47.2441  Z
  " fill="#ffffff" fill-rule="evenodd" fill-opacity="1"/>
<defs>
  <clipPath id="clip742">
    <rect x="168" y="47" width="2090" height="1377"/>
  </clipPath>
</defs>
<polyline clip-path="url(#clip742)" style="stroke:#000000; stroke-linecap:round; stroke-linejoin:round; stroke-width:2; stroke-opacity:0.1; fill:none" points="
  478.705,1423.09 478.705,47.2441 
  "/>
<polyline clip-path="url(#clip742)" style="stroke:#000000; stroke-linecap:round; stroke-linejoin:round; stroke-width:2; stroke-opacity:0.1; fill:none" points="
  967.874,1423.09 967.874,47.2441 
  "/>
<polyline clip-path="url(#clip742)" style="stroke:#000000; stroke-linecap:round; stroke-linejoin:round; stroke-width:2; stroke-opacity:0.1; fill:none" points="
  1457.04,1423.09 1457.04,47.2441 
  "/>
<polyline clip-path="url(#clip742)" style="stroke:#000000; stroke-linecap:round; stroke-linejoin:round; stroke-width:2; stroke-opacity:0.1; fill:none" points="
  1946.21,1423.09 1946.21,47.2441 
  "/>
<polyline clip-path="url(#clip740)" style="stroke:#000000; stroke-linecap:round; stroke-linejoin:round; stroke-width:4; stroke-opacity:1; fill:none" points="
  168.161,1423.09 2256.76,1423.09 
  "/>
<polyline clip-path="url(#clip740)" style="stroke:#000000; stroke-linecap:round; stroke-linejoin:round; stroke-width:4; stroke-opacity:1; fill:none" points="
  478.705,1423.09 478.705,1404.19 
  "/>
<polyline clip-path="url(#clip740)" style="stroke:#000000; stroke-linecap:round; stroke-linejoin:round; stroke-width:4; stroke-opacity:1; fill:none" points="
  967.874,1423.09 967.874,1404.19 
  "/>
<polyline clip-path="url(#clip740)" style="stroke:#000000; stroke-linecap:round; stroke-linejoin:round; stroke-width:4; stroke-opacity:1; fill:none" points="
  1457.04,1423.09 1457.04,1404.19 
  "/>
<polyline clip-path="url(#clip740)" style="stroke:#000000; stroke-linecap:round; stroke-linejoin:round; stroke-width:4; stroke-opacity:1; fill:none" points="
  1946.21,1423.09 1946.21,1404.19 
  "/>
<path clip-path="url(#clip740)" d="M406.75 1450.16 L411.426 1450.16 L411.426 1464.33 L428.416 1464.33 L428.416 1450.16 L433.092 1450.16 L433.092 1484.72 L428.416 1484.72 L428.416 1468.26 L411.426 1468.26 L411.426 1484.72 L406.75 1484.72 L406.75 1450.16 Z" fill="#000000" fill-rule="evenodd" fill-opacity="1" /><path clip-path="url(#clip740)" d="M464.388 1470.69 L464.388 1472.78 L444.805 1472.78 Q445.083 1477.17 447.444 1479.49 Q449.828 1481.78 454.064 1481.78 Q456.518 1481.78 458.81 1481.18 Q461.124 1480.58 463.393 1479.37 L463.393 1483.4 Q461.101 1484.37 458.694 1484.88 Q456.286 1485.39 453.81 1485.39 Q447.606 1485.39 443.972 1481.78 Q440.361 1478.17 440.361 1472.01 Q440.361 1465.65 443.786 1461.92 Q447.236 1458.17 453.069 1458.17 Q458.3 1458.17 461.333 1461.55 Q464.388 1464.91 464.388 1470.69 M460.129 1469.44 Q460.083 1465.95 458.161 1463.86 Q456.263 1461.78 453.115 1461.78 Q449.55 1461.78 447.398 1463.79 Q445.268 1465.81 444.944 1469.47 L460.129 1469.44 Z" fill="#000000" fill-rule="evenodd" fill-opacity="1" /><path clip-path="url(#clip740)" d="M483.161 1471.69 Q477.999 1471.69 476.009 1472.87 Q474.018 1474.05 474.018 1476.9 Q474.018 1479.16 475.499 1480.51 Q477.004 1481.83 479.573 1481.83 Q483.115 1481.83 485.245 1479.33 Q487.397 1476.8 487.397 1472.64 L487.397 1471.69 L483.161 1471.69 M491.657 1469.93 L491.657 1484.72 L487.397 1484.72 L487.397 1480.78 Q485.939 1483.15 483.763 1484.28 Q481.587 1485.39 478.439 1485.39 Q474.458 1485.39 472.097 1483.17 Q469.759 1480.92 469.759 1477.17 Q469.759 1472.8 472.675 1470.58 Q475.615 1468.35 481.425 1468.35 L487.397 1468.35 L487.397 1467.94 Q487.397 1465 485.453 1463.4 Q483.532 1461.78 480.036 1461.78 Q477.814 1461.78 475.708 1462.31 Q473.601 1462.84 471.657 1463.91 L471.657 1459.97 Q473.995 1459.07 476.194 1458.63 Q478.393 1458.17 480.476 1458.17 Q486.101 1458.17 488.879 1461.09 Q491.657 1464 491.657 1469.93 Z" fill="#000000" fill-rule="evenodd" fill-opacity="1" /><path clip-path="url(#clip740)" d="M497.374 1458.79 L501.888 1458.79 L509.99 1480.55 L518.092 1458.79 L522.606 1458.79 L512.883 1484.72 L507.096 1484.72 L497.374 1458.79 Z" fill="#000000" fill-rule="evenodd" fill-opacity="1" /><path clip-path="url(#clip740)" d="M539.272 1487.13 Q537.467 1491.76 535.754 1493.17 Q534.041 1494.58 531.17 1494.58 L527.768 1494.58 L527.768 1491.02 L530.268 1491.02 Q532.027 1491.02 532.999 1490.18 Q533.971 1489.35 535.152 1486.25 L535.916 1484.3 L525.43 1458.79 L529.943 1458.79 L538.045 1479.07 L546.147 1458.79 L550.661 1458.79 L539.272 1487.13 Z" fill="#000000" fill-rule="evenodd" fill-opacity="1" /><path clip-path="url(#clip740)" d="M899.53 1450.16 L905.826 1450.16 L921.15 1479.07 L921.15 1450.16 L925.687 1450.16 L925.687 1484.72 L919.391 1484.72 L904.067 1455.81 L904.067 1484.72 L899.53 1484.72 L899.53 1450.16 Z" fill="#000000" fill-rule="evenodd" fill-opacity="1" /><path clip-path="url(#clip740)" d="M956.983 1470.69 L956.983 1472.78 L937.4 1472.78 Q937.678 1477.17 940.039 1479.49 Q942.423 1481.78 946.659 1481.78 Q949.113 1481.78 951.404 1481.18 Q953.719 1480.58 955.988 1479.37 L955.988 1483.4 Q953.696 1484.37 951.289 1484.88 Q948.881 1485.39 946.404 1485.39 Q940.201 1485.39 936.566 1481.78 Q932.955 1478.17 932.955 1472.01 Q932.955 1465.65 936.381 1461.92 Q939.83 1458.17 945.664 1458.17 Q950.895 1458.17 953.927 1461.55 Q956.983 1464.91 956.983 1470.69 M952.724 1469.44 Q952.677 1465.95 950.756 1463.86 Q948.858 1461.78 945.71 1461.78 Q942.145 1461.78 939.992 1463.79 Q937.863 1465.81 937.539 1469.47 L952.724 1469.44 Z" fill="#000000" fill-rule="evenodd" fill-opacity="1" /><path clip-path="url(#clip740)" d="M960.918 1458.79 L965.432 1458.79 L973.534 1480.55 L981.636 1458.79 L986.15 1458.79 L976.427 1484.72 L970.64 1484.72 L960.918 1458.79 Z" fill="#000000" fill-rule="evenodd" fill-opacity="1" /><path clip-path="url(#clip740)" d="M1014.2 1470.69 L1014.2 1472.78 L994.622 1472.78 Q994.899 1477.17 997.261 1479.49 Q999.645 1481.78 1003.88 1481.78 Q1006.33 1481.78 1008.63 1481.18 Q1010.94 1480.58 1013.21 1479.37 L1013.21 1483.4 Q1010.92 1484.37 1008.51 1484.88 Q1006.1 1485.39 1003.63 1485.39 Q997.423 1485.39 993.788 1481.78 Q990.177 1478.17 990.177 1472.01 Q990.177 1465.65 993.603 1461.92 Q997.052 1458.17 1002.89 1458.17 Q1008.12 1458.17 1011.15 1461.55 Q1014.2 1464.91 1014.2 1470.69 M1009.95 1469.44 Q1009.9 1465.95 1007.98 1463.86 Q1006.08 1461.78 1002.93 1461.78 Q999.367 1461.78 997.214 1463.79 Q995.085 1465.81 994.761 1469.47 L1009.95 1469.44 Z" fill="#000000" fill-rule="evenodd" fill-opacity="1" /><path clip-path="url(#clip740)" d="M1036.22 1462.78 Q1035.5 1462.36 1034.64 1462.17 Q1033.81 1461.97 1032.79 1461.97 Q1029.18 1461.97 1027.24 1464.33 Q1025.32 1466.66 1025.32 1471.06 L1025.32 1484.72 L1021.03 1484.72 L1021.03 1458.79 L1025.32 1458.79 L1025.32 1462.82 Q1026.66 1460.46 1028.81 1459.33 Q1030.96 1458.17 1034.04 1458.17 Q1034.48 1458.17 1035.02 1458.24 Q1035.55 1458.28 1036.2 1458.4 L1036.22 1462.78 Z" fill="#000000" fill-rule="evenodd" fill-opacity="1" /><path clip-path="url(#clip740)" d="M1403.95 1453.33 Q1398.86 1453.33 1395.85 1457.13 Q1392.87 1460.92 1392.87 1467.47 Q1392.87 1474 1395.85 1477.8 Q1398.86 1481.59 1403.95 1481.59 Q1409.05 1481.59 1412.01 1477.8 Q1414.99 1474 1414.99 1467.47 Q1414.99 1460.92 1412.01 1457.13 Q1409.05 1453.33 1403.95 1453.33 M1403.95 1449.53 Q1411.22 1449.53 1415.57 1454.42 Q1419.93 1459.28 1419.93 1467.47 Q1419.93 1475.65 1415.57 1480.53 Q1411.22 1485.39 1403.95 1485.39 Q1396.66 1485.39 1392.29 1480.53 Q1387.93 1475.67 1387.93 1467.47 Q1387.93 1459.28 1392.29 1454.42 Q1396.66 1449.53 1403.95 1449.53 Z" fill="#000000" fill-rule="evenodd" fill-opacity="1" /><path clip-path="url(#clip740)" d="M1445.71 1459.79 L1445.71 1463.77 Q1443.91 1462.78 1442.08 1462.29 Q1440.27 1461.78 1438.42 1461.78 Q1434.28 1461.78 1431.99 1464.42 Q1429.69 1467.03 1429.69 1471.78 Q1429.69 1476.53 1431.99 1479.16 Q1434.28 1481.78 1438.42 1481.78 Q1440.27 1481.78 1442.08 1481.29 Q1443.91 1480.78 1445.71 1479.79 L1445.71 1483.72 Q1443.93 1484.56 1442.01 1484.97 Q1440.11 1485.39 1437.96 1485.39 Q1432.1 1485.39 1428.65 1481.71 Q1425.2 1478.03 1425.2 1471.78 Q1425.2 1465.44 1428.68 1461.8 Q1432.17 1458.17 1438.24 1458.17 Q1440.2 1458.17 1442.08 1458.59 Q1443.95 1458.98 1445.71 1459.79 Z" fill="#000000" fill-rule="evenodd" fill-opacity="1" /><path clip-path="url(#clip740)" d="M1471.78 1459.79 L1471.78 1463.77 Q1469.97 1462.78 1468.14 1462.29 Q1466.34 1461.78 1464.49 1461.78 Q1460.34 1461.78 1458.05 1464.42 Q1455.76 1467.03 1455.76 1471.78 Q1455.76 1476.53 1458.05 1479.16 Q1460.34 1481.78 1464.49 1481.78 Q1466.34 1481.78 1468.14 1481.29 Q1469.97 1480.78 1471.78 1479.79 L1471.78 1483.72 Q1469.99 1484.56 1468.07 1484.97 Q1466.17 1485.39 1464.02 1485.39 Q1458.17 1485.39 1454.72 1481.71 Q1451.27 1478.03 1451.27 1471.78 Q1451.27 1465.44 1454.74 1461.8 Q1458.24 1458.17 1464.3 1458.17 Q1466.27 1458.17 1468.14 1458.59 Q1470.02 1458.98 1471.78 1459.79 Z" fill="#000000" fill-rule="evenodd" fill-opacity="1" /><path clip-path="url(#clip740)" d="M1490.97 1471.69 Q1485.8 1471.69 1483.81 1472.87 Q1481.82 1474.05 1481.82 1476.9 Q1481.82 1479.16 1483.3 1480.51 Q1484.81 1481.83 1487.38 1481.83 Q1490.92 1481.83 1493.05 1479.33 Q1495.2 1476.8 1495.2 1472.64 L1495.2 1471.69 L1490.97 1471.69 M1499.46 1469.93 L1499.46 1484.72 L1495.2 1484.72 L1495.2 1480.78 Q1493.74 1483.15 1491.57 1484.28 Q1489.39 1485.39 1486.24 1485.39 Q1482.26 1485.39 1479.9 1483.17 Q1477.56 1480.92 1477.56 1477.17 Q1477.56 1472.8 1480.48 1470.58 Q1483.42 1468.35 1489.23 1468.35 L1495.2 1468.35 L1495.2 1467.94 Q1495.2 1465 1493.26 1463.4 Q1491.34 1461.78 1487.84 1461.78 Q1485.62 1461.78 1483.51 1462.31 Q1481.41 1462.84 1479.46 1463.91 L1479.46 1459.97 Q1481.8 1459.07 1484 1458.63 Q1486.2 1458.17 1488.28 1458.17 Q1493.91 1458.17 1496.68 1461.09 Q1499.46 1464 1499.46 1469.93 Z" fill="#000000" fill-rule="evenodd" fill-opacity="1" /><path clip-path="url(#clip740)" d="M1524.76 1459.56 L1524.76 1463.59 Q1522.96 1462.66 1521.01 1462.2 Q1519.07 1461.73 1516.98 1461.73 Q1513.81 1461.73 1512.22 1462.71 Q1510.64 1463.68 1510.64 1465.62 Q1510.64 1467.1 1511.78 1467.96 Q1512.91 1468.79 1516.34 1469.56 L1517.8 1469.88 Q1522.33 1470.85 1524.23 1472.64 Q1526.15 1474.4 1526.15 1477.57 Q1526.15 1481.18 1523.28 1483.28 Q1520.43 1485.39 1515.43 1485.39 Q1513.35 1485.39 1511.08 1484.97 Q1508.84 1484.58 1506.34 1483.77 L1506.34 1479.37 Q1508.7 1480.6 1510.99 1481.22 Q1513.28 1481.83 1515.53 1481.83 Q1518.54 1481.83 1520.16 1480.81 Q1521.78 1479.77 1521.78 1477.89 Q1521.78 1476.16 1520.6 1475.23 Q1519.44 1474.3 1515.48 1473.45 L1514 1473.1 Q1510.04 1472.27 1508.28 1470.55 Q1506.52 1468.82 1506.52 1465.81 Q1506.52 1462.15 1509.11 1460.16 Q1511.71 1458.17 1516.48 1458.17 Q1518.84 1458.17 1520.92 1458.52 Q1523 1458.86 1524.76 1459.56 Z" fill="#000000" fill-rule="evenodd" fill-opacity="1" /><path clip-path="url(#clip740)" d="M1900.51 1468.52 Q1902.01 1469.03 1903.42 1470.69 Q1904.86 1472.36 1906.29 1475.28 L1911.04 1484.72 L1906.02 1484.72 L1901.59 1475.85 Q1899.88 1472.38 1898.26 1471.25 Q1896.66 1470.11 1893.89 1470.11 L1888.79 1470.11 L1888.79 1484.72 L1884.12 1484.72 L1884.12 1450.16 L1894.67 1450.16 Q1900.6 1450.16 1903.52 1452.64 Q1906.43 1455.11 1906.43 1460.11 Q1906.43 1463.38 1904.9 1465.53 Q1903.4 1467.68 1900.51 1468.52 M1888.79 1454 L1888.79 1466.27 L1894.67 1466.27 Q1898.05 1466.27 1899.77 1464.72 Q1901.5 1463.15 1901.5 1460.11 Q1901.5 1457.08 1899.77 1455.55 Q1898.05 1454 1894.67 1454 L1888.79 1454 Z" fill="#000000" fill-rule="evenodd" fill-opacity="1" /><path clip-path="url(#clip740)" d="M1936.92 1470.69 L1936.92 1472.78 L1917.33 1472.78 Q1917.61 1477.17 1919.97 1479.49 Q1922.36 1481.78 1926.59 1481.78 Q1929.05 1481.78 1931.34 1481.18 Q1933.65 1480.58 1935.92 1479.37 L1935.92 1483.4 Q1933.63 1484.37 1931.22 1484.88 Q1928.82 1485.39 1926.34 1485.39 Q1920.14 1485.39 1916.5 1481.78 Q1912.89 1478.17 1912.89 1472.01 Q1912.89 1465.65 1916.32 1461.92 Q1919.77 1458.17 1925.6 1458.17 Q1930.83 1458.17 1933.86 1461.55 Q1936.92 1464.91 1936.92 1470.69 M1932.66 1469.44 Q1932.61 1465.95 1930.69 1463.86 Q1928.79 1461.78 1925.64 1461.78 Q1922.08 1461.78 1919.93 1463.79 Q1917.8 1465.81 1917.47 1469.47 L1932.66 1469.44 Z" fill="#000000" fill-rule="evenodd" fill-opacity="1" /><path clip-path="url(#clip740)" d="M1960.97 1471.46 Q1960.97 1466.83 1959.05 1464.28 Q1957.15 1461.73 1953.7 1461.73 Q1950.27 1461.73 1948.35 1464.28 Q1946.45 1466.83 1946.45 1471.46 Q1946.45 1476.06 1948.35 1478.61 Q1950.27 1481.16 1953.7 1481.16 Q1957.15 1481.16 1959.05 1478.61 Q1960.97 1476.06 1960.97 1471.46 M1965.23 1481.5 Q1965.23 1488.12 1962.29 1491.34 Q1959.35 1494.58 1953.28 1494.58 Q1951.04 1494.58 1949.05 1494.23 Q1947.06 1493.91 1945.18 1493.22 L1945.18 1489.07 Q1947.06 1490.09 1948.89 1490.58 Q1950.71 1491.06 1952.61 1491.06 Q1956.8 1491.06 1958.89 1488.86 Q1960.97 1486.69 1960.97 1482.27 L1960.97 1480.16 Q1959.65 1482.45 1957.59 1483.59 Q1955.53 1484.72 1952.66 1484.72 Q1947.89 1484.72 1944.97 1481.09 Q1942.06 1477.45 1942.06 1471.46 Q1942.06 1465.44 1944.97 1461.8 Q1947.89 1458.17 1952.66 1458.17 Q1955.53 1458.17 1957.59 1459.3 Q1959.65 1460.44 1960.97 1462.73 L1960.97 1458.79 L1965.23 1458.79 L1965.23 1481.5 Z" fill="#000000" fill-rule="evenodd" fill-opacity="1" /><path clip-path="url(#clip740)" d="M1973.56 1474.49 L1973.56 1458.79 L1977.82 1458.79 L1977.82 1474.33 Q1977.82 1478.01 1979.26 1479.86 Q1980.69 1481.69 1983.56 1481.69 Q1987.01 1481.69 1989 1479.49 Q1991.01 1477.29 1991.01 1473.49 L1991.01 1458.79 L1995.27 1458.79 L1995.27 1484.72 L1991.01 1484.72 L1991.01 1480.74 Q1989.46 1483.1 1987.4 1484.26 Q1985.37 1485.39 1982.66 1485.39 Q1978.19 1485.39 1975.88 1482.61 Q1973.56 1479.84 1973.56 1474.49 M1984.28 1458.17 L1984.28 1458.17 Z" fill="#000000" fill-rule="evenodd" fill-opacity="1" /><path clip-path="url(#clip740)" d="M2004.05 1448.7 L2008.31 1448.7 L2008.31 1484.72 L2004.05 1484.72 L2004.05 1448.7 Z" fill="#000000" fill-rule="evenodd" fill-opacity="1" /><polyline clip-path="url(#clip742)" style="stroke:#000000; stroke-linecap:round; stroke-linejoin:round; stroke-width:2; stroke-opacity:0.1; fill:none" points="
  168.161,1384.15 2256.76,1384.15 
  "/>
<polyline clip-path="url(#clip742)" style="stroke:#000000; stroke-linecap:round; stroke-linejoin:round; stroke-width:2; stroke-opacity:0.1; fill:none" points="
  168.161,1040.77 2256.76,1040.77 
  "/>
<polyline clip-path="url(#clip742)" style="stroke:#000000; stroke-linecap:round; stroke-linejoin:round; stroke-width:2; stroke-opacity:0.1; fill:none" points="
  168.161,697.394 2256.76,697.394 
  "/>
<polyline clip-path="url(#clip742)" style="stroke:#000000; stroke-linecap:round; stroke-linejoin:round; stroke-width:2; stroke-opacity:0.1; fill:none" points="
  168.161,354.017 2256.76,354.017 
  "/>
<polyline clip-path="url(#clip740)" style="stroke:#000000; stroke-linecap:round; stroke-linejoin:round; stroke-width:4; stroke-opacity:1; fill:none" points="
  168.161,1423.09 168.161,47.2441 
  "/>
<polyline clip-path="url(#clip740)" style="stroke:#000000; stroke-linecap:round; stroke-linejoin:round; stroke-width:4; stroke-opacity:1; fill:none" points="
  168.161,1384.15 187.059,1384.15 
  "/>
<polyline clip-path="url(#clip740)" style="stroke:#000000; stroke-linecap:round; stroke-linejoin:round; stroke-width:4; stroke-opacity:1; fill:none" points="
  168.161,1040.77 187.059,1040.77 
  "/>
<polyline clip-path="url(#clip740)" style="stroke:#000000; stroke-linecap:round; stroke-linejoin:round; stroke-width:4; stroke-opacity:1; fill:none" points="
  168.161,697.394 187.059,697.394 
  "/>
<polyline clip-path="url(#clip740)" style="stroke:#000000; stroke-linecap:round; stroke-linejoin:round; stroke-width:4; stroke-opacity:1; fill:none" points="
  168.161,354.017 187.059,354.017 
  "/>
<path clip-path="url(#clip740)" d="M121.657 1369.95 Q118.046 1369.95 116.217 1373.51 Q114.412 1377.05 114.412 1384.18 Q114.412 1391.29 116.217 1394.85 Q118.046 1398.4 121.657 1398.4 Q125.291 1398.4 127.097 1394.85 Q128.925 1391.29 128.925 1384.18 Q128.925 1377.05 127.097 1373.51 Q125.291 1369.95 121.657 1369.95 M121.657 1366.24 Q127.467 1366.24 130.523 1370.85 Q133.601 1375.43 133.601 1384.18 Q133.601 1392.91 130.523 1397.52 Q127.467 1402.1 121.657 1402.1 Q115.847 1402.1 112.768 1397.52 Q109.713 1392.91 109.713 1384.18 Q109.713 1375.43 112.768 1370.85 Q115.847 1366.24 121.657 1366.24 Z" fill="#000000" fill-rule="evenodd" fill-opacity="1" /><path clip-path="url(#clip740)" d="M81.5414 1023.49 L99.8978 1023.49 L99.8978 1027.43 L85.8238 1027.43 L85.8238 1035.9 Q86.8423 1035.55 87.8608 1035.39 Q88.8793 1035.2 89.8978 1035.2 Q95.6849 1035.2 99.0645 1038.38 Q102.444 1041.55 102.444 1046.96 Q102.444 1052.54 98.9719 1055.64 Q95.4997 1058.72 89.1803 1058.72 Q87.0043 1058.72 84.7358 1058.35 Q82.4905 1057.98 80.0831 1057.24 L80.0831 1052.54 Q82.1664 1053.68 84.3886 1054.23 Q86.6108 1054.79 89.0877 1054.79 Q93.0923 1054.79 95.4302 1052.68 Q97.7682 1050.57 97.7682 1046.96 Q97.7682 1043.35 95.4302 1041.25 Q93.0923 1039.14 89.0877 1039.14 Q87.2127 1039.14 85.3377 1039.56 Q83.4858 1039.97 81.5414 1040.85 L81.5414 1023.49 Z" fill="#000000" fill-rule="evenodd" fill-opacity="1" /><path clip-path="url(#clip740)" d="M121.657 1026.57 Q118.046 1026.57 116.217 1030.14 Q114.412 1033.68 114.412 1040.81 Q114.412 1047.91 116.217 1051.48 Q118.046 1055.02 121.657 1055.02 Q125.291 1055.02 127.097 1051.48 Q128.925 1047.91 128.925 1040.81 Q128.925 1033.68 127.097 1030.14 Q125.291 1026.57 121.657 1026.57 M121.657 1022.87 Q127.467 1022.87 130.523 1027.47 Q133.601 1032.06 133.601 1040.81 Q133.601 1049.53 130.523 1054.14 Q127.467 1058.72 121.657 1058.72 Q115.847 1058.72 112.768 1054.14 Q109.713 1049.53 109.713 1040.81 Q109.713 1032.06 112.768 1027.47 Q115.847 1022.87 121.657 1022.87 Z" fill="#000000" fill-rule="evenodd" fill-opacity="1" /><path clip-path="url(#clip740)" d="M52.1434 710.739 L59.7823 710.739 L59.7823 684.374 L51.4721 686.04 L51.4721 681.781 L59.736 680.114 L64.4119 680.114 L64.4119 710.739 L72.0507 710.739 L72.0507 714.674 L52.1434 714.674 L52.1434 710.739 Z" fill="#000000" fill-rule="evenodd" fill-opacity="1" /><path clip-path="url(#clip740)" d="M91.4951 683.193 Q87.884 683.193 86.0553 686.758 Q84.2497 690.3 84.2497 697.429 Q84.2497 704.536 86.0553 708.1 Q87.884 711.642 91.4951 711.642 Q95.1293 711.642 96.9348 708.1 Q98.7635 704.536 98.7635 697.429 Q98.7635 690.3 96.9348 686.758 Q95.1293 683.193 91.4951 683.193 M91.4951 679.489 Q97.3052 679.489 100.361 684.096 Q103.439 688.679 103.439 697.429 Q103.439 706.156 100.361 710.762 Q97.3052 715.346 91.4951 715.346 Q85.6849 715.346 82.6062 710.762 Q79.5507 706.156 79.5507 697.429 Q79.5507 688.679 82.6062 684.096 Q85.6849 679.489 91.4951 679.489 Z" fill="#000000" fill-rule="evenodd" fill-opacity="1" /><path clip-path="url(#clip740)" d="M121.657 683.193 Q118.046 683.193 116.217 686.758 Q114.412 690.3 114.412 697.429 Q114.412 704.536 116.217 708.1 Q118.046 711.642 121.657 711.642 Q125.291 711.642 127.097 708.1 Q128.925 704.536 128.925 697.429 Q128.925 690.3 127.097 686.758 Q125.291 683.193 121.657 683.193 M121.657 679.489 Q127.467 679.489 130.523 684.096 Q133.601 688.679 133.601 697.429 Q133.601 706.156 130.523 710.762 Q127.467 715.346 121.657 715.346 Q115.847 715.346 112.768 710.762 Q109.713 706.156 109.713 697.429 Q109.713 688.679 112.768 684.096 Q115.847 679.489 121.657 679.489 Z" fill="#000000" fill-rule="evenodd" fill-opacity="1" /><path clip-path="url(#clip740)" d="M52.1434 367.362 L59.7823 367.362 L59.7823 340.997 L51.4721 342.663 L51.4721 338.404 L59.736 336.737 L64.4119 336.737 L64.4119 367.362 L72.0507 367.362 L72.0507 371.297 L52.1434 371.297 L52.1434 367.362 Z" fill="#000000" fill-rule="evenodd" fill-opacity="1" /><path clip-path="url(#clip740)" d="M81.5414 336.737 L99.8978 336.737 L99.8978 340.672 L85.8238 340.672 L85.8238 349.145 Q86.8423 348.797 87.8608 348.635 Q88.8793 348.45 89.8978 348.45 Q95.6849 348.45 99.0645 351.621 Q102.444 354.793 102.444 360.209 Q102.444 365.788 98.9719 368.89 Q95.4997 371.969 89.1803 371.969 Q87.0043 371.969 84.7358 371.598 Q82.4905 371.228 80.0831 370.487 L80.0831 365.788 Q82.1664 366.922 84.3886 367.478 Q86.6108 368.033 89.0877 368.033 Q93.0923 368.033 95.4302 365.927 Q97.7682 363.82 97.7682 360.209 Q97.7682 356.598 95.4302 354.492 Q93.0923 352.385 89.0877 352.385 Q87.2127 352.385 85.3377 352.802 Q83.4858 353.219 81.5414 354.098 L81.5414 336.737 Z" fill="#000000" fill-rule="evenodd" fill-opacity="1" /><path clip-path="url(#clip740)" d="M121.657 339.816 Q118.046 339.816 116.217 343.381 Q114.412 346.922 114.412 354.052 Q114.412 361.158 116.217 364.723 Q118.046 368.265 121.657 368.265 Q125.291 368.265 127.097 364.723 Q128.925 361.158 128.925 354.052 Q128.925 346.922 127.097 343.381 Q125.291 339.816 121.657 339.816 M121.657 336.112 Q127.467 336.112 130.523 340.719 Q133.601 345.302 133.601 354.052 Q133.601 362.779 130.523 367.385 Q127.467 371.969 121.657 371.969 Q115.847 371.969 112.768 367.385 Q109.713 362.779 109.713 354.052 Q109.713 345.302 112.768 340.719 Q115.847 336.112 121.657 336.112 Z" fill="#000000" fill-rule="evenodd" fill-opacity="1" /><path clip-path="url(#clip742)" d="
M283.038 1308.61 L283.038 1384.15 L674.373 1384.15 L674.373 1308.61 L283.038 1308.61 L283.038 1308.61  Z
  " fill="#009af9" fill-rule="evenodd" fill-opacity="1"/>
<polyline clip-path="url(#clip742)" style="stroke:#000000; stroke-linecap:round; stroke-linejoin:round; stroke-width:4; stroke-opacity:1; fill:none" points="
  283.038,1308.61 283.038,1384.15 674.373,1384.15 674.373,1308.61 283.038,1308.61 
  "/>
<path clip-path="url(#clip742)" d="
M772.207 86.1831 L772.207 1384.15 L1163.54 1384.15 L1163.54 86.1831 L772.207 86.1831 L772.207 86.1831  Z
  " fill="#009af9" fill-rule="evenodd" fill-opacity="1"/>
<polyline clip-path="url(#clip742)" style="stroke:#000000; stroke-linecap:round; stroke-linejoin:round; stroke-width:4; stroke-opacity:1; fill:none" points="
  772.207,86.1831 772.207,1384.15 1163.54,1384.15 1163.54,86.1831 772.207,86.1831 
  "/>
<path clip-path="url(#clip742)" d="
M1261.38 1253.67 L1261.38 1384.15 L1652.71 1384.15 L1652.71 1253.67 L1261.38 1253.67 L1261.38 1253.67  Z
  " fill="#009af9" fill-rule="evenodd" fill-opacity="1"/>
<polyline clip-path="url(#clip742)" style="stroke:#000000; stroke-linecap:round; stroke-linejoin:round; stroke-width:4; stroke-opacity:1; fill:none" points="
  1261.38,1253.67 1261.38,1384.15 1652.71,1384.15 1652.71,1253.67 1261.38,1253.67 
  "/>
<path clip-path="url(#clip742)" d="
M1750.54 1267.4 L1750.54 1384.15 L2141.88 1384.15 L2141.88 1267.4 L1750.54 1267.4 L1750.54 1267.4  Z
  " fill="#009af9" fill-rule="evenodd" fill-opacity="1"/>
<polyline clip-path="url(#clip742)" style="stroke:#000000; stroke-linecap:round; stroke-linejoin:round; stroke-width:4; stroke-opacity:1; fill:none" points="
  1750.54,1267.4 1750.54,1384.15 2141.88,1384.15 2141.88,1267.4 1750.54,1267.4 
  "/>
<circle clip-path="url(#clip742)" style="fill:#009af9; stroke:none; fill-opacity:0" cx="478.705" cy="1308.61" r="2"/>
<circle clip-path="url(#clip742)" style="fill:#009af9; stroke:none; fill-opacity:0" cx="967.874" cy="86.1831" r="2"/>
<circle clip-path="url(#clip742)" style="fill:#009af9; stroke:none; fill-opacity:0" cx="1457.04" cy="1253.67" r="2"/>
<circle clip-path="url(#clip742)" style="fill:#009af9; stroke:none; fill-opacity:0" cx="1946.21" cy="1267.4" r="2"/>
</svg>
