<?xml version="1.0" encoding="utf-8"?>
<svg xmlns="http://www.w3.org/2000/svg" xmlns:xlink="http://www.w3.org/1999/xlink" width="672" height="480" viewBox="0 0 2688 1920">
<defs>
  <clipPath id="clip510">
    <rect x="0" y="0" width="2688" height="1920"/>
  </clipPath>
</defs>
<path clip-path="url(#clip510)" d="
M0 1920 L2688 1920 L2688 0 L0 0  Z
  " fill="#ffffff" fill-rule="evenodd" fill-opacity="1"/>
<defs>
  <clipPath id="clip511">
    <rect x="537" y="0" width="1883" height="1883"/>
  </clipPath>
</defs>
<path clip-path="url(#clip510)" d="
M329.983 1872.76 L2640.76 1872.76 L2640.76 240.089 L329.983 240.089  Z
  " fill="#ffffff" fill-rule="evenodd" fill-opacity="1"/>
<defs>
  <clipPath id="clip512">
    <rect x="329" y="240" width="2312" height="1634"/>
  </clipPath>
</defs>
<polyline clip-path="url(#clip512)" style="stroke:#000000; stroke-linecap:round; stroke-linejoin:round; stroke-width:2; stroke-opacity:0.1; fill:none" points="
  890.613,1872.76 890.613,240.089 
  "/>
<polyline clip-path="url(#clip512)" style="stroke:#000000; stroke-linecap:round; stroke-linejoin:round; stroke-width:2; stroke-opacity:0.1; fill:none" points="
  1568.25,1872.76 1568.25,240.089 
  "/>
<polyline clip-path="url(#clip512)" style="stroke:#000000; stroke-linecap:round; stroke-linejoin:round; stroke-width:2; stroke-opacity:0.1; fill:none" points="
  2163,1872.76 2163,240.089 
  "/>
<polyline clip-path="url(#clip510)" style="stroke:#000000; stroke-linecap:round; stroke-linejoin:round; stroke-width:4; stroke-opacity:1; fill:none" points="
  329.983,240.089 2640.76,240.089 
  "/>
<polyline clip-path="url(#clip510)" style="stroke:#000000; stroke-linecap:round; stroke-linejoin:round; stroke-width:4; stroke-opacity:1; fill:none" points="
  890.613,240.089 890.613,258.987 
  "/>
<polyline clip-path="url(#clip510)" style="stroke:#000000; stroke-linecap:round; stroke-linejoin:round; stroke-width:4; stroke-opacity:1; fill:none" points="
  1568.25,240.089 1568.25,258.987 
  "/>
<polyline clip-path="url(#clip510)" style="stroke:#000000; stroke-linecap:round; stroke-linejoin:round; stroke-width:4; stroke-opacity:1; fill:none" points="
  2163,240.089 2163,258.987 
  "/>
<path clip-path="url(#clip510)" d="M837.376 122.582 L851.42 136.626 L848.637 139.408 L837.9 128.671 L830.698 135.873 L840.388 145.563 L837.605 148.345 L827.915 138.656 L816.245 150.326 L812.938 147.02 L837.376 122.582 Z" fill="#000000" fill-rule="evenodd" fill-opacity="1" /><path clip-path="url(#clip510)" d="M855.79 158.837 Q855.577 158.035 855.103 157.299 Q854.661 156.562 853.94 155.842 Q851.387 153.289 848.343 153.583 Q845.331 153.878 842.221 156.988 L832.564 166.645 L829.536 163.617 L847.868 145.285 L850.896 148.313 L848.048 151.161 Q850.667 150.441 852.991 151.161 Q855.332 151.865 857.509 154.042 Q857.82 154.353 858.147 154.778 Q858.491 155.187 858.867 155.728 L855.79 158.837 Z" fill="#000000" fill-rule="evenodd" fill-opacity="1" /><path clip-path="url(#clip510)" d="M868.295 182.538 L866.822 184.012 L852.975 170.164 Q850.061 173.471 850.094 176.777 Q850.159 180.083 853.155 183.079 Q854.89 184.814 856.936 186.009 Q858.998 187.22 861.453 187.973 L858.605 190.821 Q856.297 189.888 854.235 188.546 Q852.173 187.203 850.421 185.452 Q846.035 181.065 846.018 175.942 Q846.018 170.835 850.372 166.481 Q854.873 161.98 859.931 161.767 Q865.022 161.555 869.146 165.679 Q872.846 169.379 872.6 173.912 Q872.387 178.446 868.295 182.538 M866.167 178.643 Q868.606 176.139 868.721 173.307 Q868.852 170.492 866.626 168.265 Q864.105 165.745 861.159 165.647 Q858.229 165.565 855.414 167.922 L866.167 178.643 Z" fill="#000000" fill-rule="evenodd" fill-opacity="1" /><path clip-path="url(#clip510)" d="M874.27 190.051 Q870.947 193.374 870.407 196.631 Q869.899 199.889 872.289 202.278 Q874.679 204.668 877.936 204.161 Q881.21 203.637 884.532 200.314 Q887.855 196.992 888.363 193.734 Q888.886 190.461 886.497 188.071 Q884.107 185.681 880.833 186.205 Q877.592 186.729 874.27 190.051 M878.133 206.714 Q875.546 207.402 873.288 206.747 Q871.062 206.092 869.032 204.063 Q865.709 200.74 866.266 195.993 Q866.839 191.263 871.16 186.942 Q875.481 182.62 880.211 182.047 Q884.958 181.491 888.281 184.814 Q890.31 186.843 890.949 189.086 Q891.62 191.328 890.932 193.914 L893.715 191.132 L896.727 194.143 L871.422 219.449 L868.41 216.437 L878.133 206.714 Z" fill="#000000" fill-rule="evenodd" fill-opacity="1" /><path clip-path="url(#clip510)" d="M1498.08 105.657 L1502.54 110.11 L1492.93 141.389 L1513.37 120.945 L1516.58 124.153 L1492.14 148.591 L1487.69 144.139 L1497.3 112.859 L1476.85 133.303 L1473.65 130.095 L1498.08 105.657 Z" fill="#000000" fill-rule="evenodd" fill-opacity="1" /><path clip-path="url(#clip510)" d="M1521.92 145.923 Q1519.49 143.501 1516.19 143.992 Q1512.9 144.466 1509.61 147.756 Q1506.32 151.046 1505.81 154.336 Q1505.33 157.626 1507.77 160.065 Q1510.18 162.471 1513.49 161.98 Q1516.79 161.489 1520.07 158.215 Q1523.32 154.958 1523.81 151.652 Q1524.32 148.329 1521.92 145.923 M1524.47 143.37 Q1528.4 147.298 1528.09 152.094 Q1527.77 156.89 1523.26 161.407 Q1518.76 165.908 1513.94 166.236 Q1509.15 166.547 1505.22 162.618 Q1501.27 158.674 1501.59 153.878 Q1501.93 149.082 1506.43 144.581 Q1510.95 140.063 1515.73 139.736 Q1520.52 139.425 1524.47 143.37 Z" fill="#000000" fill-rule="evenodd" fill-opacity="1" /><path clip-path="url(#clip510)" d="M1545.4 179.723 L1534.34 190.788 L1531.33 187.776 L1542.29 176.81 Q1544.9 174.207 1545.17 171.899 Q1545.45 169.591 1543.42 167.562 Q1540.98 165.123 1538.02 165.27 Q1535.06 165.417 1532.37 168.102 L1522.01 178.463 L1518.99 175.435 L1537.32 157.102 L1540.35 160.131 L1537.5 162.979 Q1540.23 162.406 1542.51 163.044 Q1544.8 163.699 1546.71 165.614 Q1549.87 168.773 1549.53 172.358 Q1549.2 175.926 1545.4 179.723 Z" fill="#000000" fill-rule="evenodd" fill-opacity="1" /><path clip-path="url(#clip510)" d="M1565.95 202.557 L1564.47 204.03 L1550.62 190.182 Q1547.71 193.489 1547.74 196.795 Q1547.81 200.101 1550.8 203.097 Q1552.54 204.832 1554.59 206.027 Q1556.65 207.238 1559.1 207.991 L1556.26 210.839 Q1553.95 209.906 1551.89 208.564 Q1549.82 207.222 1548.07 205.47 Q1543.68 201.084 1543.67 195.96 Q1543.67 190.854 1548.02 186.5 Q1552.52 181.998 1557.58 181.786 Q1562.67 181.573 1566.8 185.698 Q1570.5 189.397 1570.25 193.931 Q1570.04 198.465 1565.95 202.557 M1563.82 198.661 Q1566.26 196.157 1566.37 193.325 Q1566.5 190.51 1564.28 188.284 Q1561.76 185.763 1558.81 185.665 Q1555.88 185.583 1553.06 187.94 L1563.82 198.661 Z" fill="#000000" fill-rule="evenodd" fill-opacity="1" /><path clip-path="url(#clip510)" d="M2099.08 113.498 L2095.85 116.722 Q2094.87 113.94 2093.64 111.828 Q2092.41 109.717 2090.86 108.162 Q2088.16 105.461 2085.64 105.035 Q2083.13 104.626 2081.2 106.558 Q2079.58 108.178 2079.71 109.979 Q2079.88 111.779 2082.09 115.004 L2083.67 117.41 Q2086.67 121.813 2086.64 125.348 Q2086.64 128.884 2083.66 131.863 Q2080.1 135.415 2075.88 134.858 Q2071.68 134.318 2067.08 129.719 Q2065.34 127.984 2063.77 125.627 Q2062.21 123.286 2060.89 120.421 L2064.29 117.017 Q2065.18 120.16 2066.54 122.664 Q2067.89 125.168 2069.76 127.034 Q2072.59 129.866 2075.24 130.291 Q2077.9 130.717 2079.96 128.655 Q2081.76 126.854 2081.66 124.726 Q2081.58 122.615 2079.56 119.587 L2077.94 117.181 Q2074.98 112.745 2074.9 109.52 Q2074.82 106.296 2077.62 103.497 Q2080.86 100.256 2085 100.665 Q2089.16 101.091 2093.17 105.101 Q2094.89 106.82 2096.36 108.915 Q2097.83 111.01 2099.08 113.498 Z" fill="#000000" fill-rule="evenodd" fill-opacity="1" /><path clip-path="url(#clip510)" d="M2105.26 134.514 Q2102.84 132.092 2099.53 132.583 Q2096.24 133.058 2092.95 136.348 Q2089.66 139.638 2089.16 142.928 Q2088.68 146.218 2091.12 148.656 Q2093.53 151.063 2096.83 150.572 Q2100.14 150.081 2103.41 146.807 Q2106.67 143.55 2107.16 140.243 Q2107.67 136.921 2105.26 134.514 M2107.82 131.961 Q2111.74 135.889 2111.43 140.685 Q2111.12 145.481 2106.6 149.999 Q2102.1 154.5 2097.29 154.827 Q2092.5 155.138 2088.57 151.21 Q2084.62 147.265 2084.93 142.469 Q2085.28 137.673 2089.78 133.172 Q2094.3 128.655 2099.08 128.327 Q2103.87 128.016 2107.82 131.961 Z" fill="#000000" fill-rule="evenodd" fill-opacity="1" /><path clip-path="url(#clip510)" d="M2131.53 163.601 Q2134.69 162.7 2137.23 163.306 Q2139.77 163.912 2141.89 166.039 Q2144.76 168.904 2144.3 172.472 Q2143.86 176.024 2140.16 179.723 L2129.09 190.788 L2126.07 187.76 L2137.03 176.793 Q2139.67 174.158 2140.01 171.948 Q2140.36 169.739 2138.44 167.824 Q2136.1 165.483 2133.19 165.679 Q2130.27 165.876 2127.59 168.56 L2117.23 178.921 L2114.2 175.893 L2125.17 164.926 Q2127.82 162.275 2128.15 160.081 Q2128.49 157.872 2126.54 155.924 Q2124.23 153.616 2121.3 153.829 Q2118.39 154.025 2115.72 156.693 L2105.36 167.054 L2102.33 164.026 L2120.66 145.694 L2123.69 148.722 L2120.84 151.57 Q2123.56 150.915 2125.8 151.554 Q2128.05 152.192 2130.03 154.173 Q2132.02 156.169 2132.4 158.576 Q2132.79 160.998 2131.53 163.601 Z" fill="#000000" fill-rule="evenodd" fill-opacity="1" /><path clip-path="url(#clip510)" d="M2160.7 202.557 L2159.23 204.03 L2145.38 190.182 Q2142.47 193.489 2142.5 196.795 Q2142.57 200.101 2145.56 203.097 Q2147.3 204.832 2149.34 206.027 Q2151.4 207.238 2153.86 207.991 L2151.01 210.839 Q2148.7 209.906 2146.64 208.564 Q2144.58 207.222 2142.83 205.47 Q2138.44 201.084 2138.42 195.96 Q2138.42 190.854 2142.78 186.5 Q2147.28 181.998 2152.34 181.786 Q2157.43 181.573 2161.55 185.698 Q2165.25 189.397 2165.01 193.931 Q2164.79 198.465 2160.7 202.557 M2158.57 198.661 Q2161.01 196.157 2161.13 193.325 Q2161.26 190.51 2159.03 188.284 Q2156.51 185.763 2153.56 185.665 Q2150.63 185.583 2147.82 187.94 L2158.57 198.661 Z" fill="#000000" fill-rule="evenodd" fill-opacity="1" /><path clip-path="url(#clip510)" d="M1354.68 10.2645 L1384.73 10.2645 L1384.73 15.6754 L1361.11 15.6754 L1361.11 29.7436 L1383.74 29.7436 L1383.74 35.1545 L1361.11 35.1545 L1361.11 52.3737 L1385.3 52.3737 L1385.3 57.7845 L1354.68 57.7845 L1354.68 10.2645 Z" fill="#000000" fill-rule="evenodd" fill-opacity="1" /><path clip-path="url(#clip510)" d="M1425.25 22.1366 L1412.35 39.4831 L1425.91 57.7845 L1419.01 57.7845 L1408.63 43.78 L1398.25 57.7845 L1391.35 57.7845 L1405.19 39.133 L1392.53 22.1366 L1399.43 22.1366 L1408.89 34.8362 L1418.34 22.1366 L1425.25 22.1366 Z" fill="#000000" fill-rule="evenodd" fill-opacity="1" /><path clip-path="url(#clip510)" d="M1462.68 38.4964 L1462.68 41.361 L1435.75 41.361 Q1436.13 47.4084 1439.38 50.5913 Q1442.66 53.7423 1448.48 53.7423 Q1451.85 53.7423 1455 52.9148 Q1458.19 52.0872 1461.31 50.4321 L1461.31 55.9703 Q1458.16 57.3071 1454.85 58.0073 Q1451.54 58.7076 1448.13 58.7076 Q1439.6 58.7076 1434.6 53.7423 Q1429.64 48.7771 1429.64 40.3107 Q1429.64 31.5578 1434.35 26.4334 Q1439.09 21.2772 1447.11 21.2772 Q1454.3 21.2772 1458.47 25.9242 Q1462.68 30.5393 1462.68 38.4964 M1456.82 36.7777 Q1456.76 31.9716 1454.11 29.107 Q1451.5 26.2425 1447.18 26.2425 Q1442.27 26.2425 1439.31 29.0115 Q1436.39 31.7806 1435.94 36.8095 L1456.82 36.7777 Z" fill="#000000" fill-rule="evenodd" fill-opacity="1" /><path clip-path="url(#clip510)" d="M1492.94 27.6111 Q1491.96 27.0382 1490.78 26.7835 Q1489.63 26.4971 1488.23 26.4971 Q1483.27 26.4971 1480.59 29.7436 Q1477.95 32.9583 1477.95 39.0057 L1477.95 57.7845 L1472.06 57.7845 L1472.06 22.1366 L1477.95 22.1366 L1477.95 27.6747 Q1479.8 24.4282 1482.76 22.8686 Q1485.72 21.2772 1489.95 21.2772 Q1490.56 21.2772 1491.29 21.3727 Q1492.02 21.4364 1492.91 21.5955 L1492.94 27.6111 Z" fill="#000000" fill-rule="evenodd" fill-opacity="1" /><path clip-path="url(#clip510)" d="M1523.31 23.5052 L1523.31 28.9797 Q1520.83 27.6111 1518.31 26.9427 Q1515.83 26.2425 1513.28 26.2425 Q1507.59 26.2425 1504.43 29.8709 Q1501.28 33.4675 1501.28 39.9924 Q1501.28 46.5172 1504.43 50.1457 Q1507.59 53.7423 1513.28 53.7423 Q1515.83 53.7423 1518.31 53.0739 Q1520.83 52.3737 1523.31 51.0051 L1523.31 56.4159 Q1520.86 57.5617 1518.22 58.1347 Q1515.61 58.7076 1512.65 58.7076 Q1504.59 58.7076 1499.85 53.6468 Q1495.11 48.5861 1495.11 39.9924 Q1495.11 31.2714 1499.88 26.2743 Q1504.69 21.2772 1513.03 21.2772 Q1515.73 21.2772 1518.31 21.8501 Q1520.89 22.3912 1523.31 23.5052 Z" fill="#000000" fill-rule="evenodd" fill-opacity="1" /><path clip-path="url(#clip510)" d="M1533.49 22.1366 L1539.35 22.1366 L1539.35 57.7845 L1533.49 57.7845 L1533.49 22.1366 M1533.49 8.25934 L1539.35 8.25934 L1539.35 15.6754 L1533.49 15.6754 L1533.49 8.25934 Z" fill="#000000" fill-rule="evenodd" fill-opacity="1" /><path clip-path="url(#clip510)" d="M1574.33 23.1869 L1574.33 28.7251 Q1571.85 27.4519 1569.17 26.8154 Q1566.5 26.1788 1563.64 26.1788 Q1559.28 26.1788 1557.08 27.5156 Q1554.91 28.8524 1554.91 31.526 Q1554.91 33.563 1556.47 34.7407 Q1558.03 35.8865 1562.74 36.9369 L1564.75 37.3825 Q1570.99 38.7192 1573.6 41.17 Q1576.24 43.589 1576.24 47.9495 Q1576.24 52.9148 1572.29 55.8112 Q1568.38 58.7076 1561.5 58.7076 Q1558.64 58.7076 1555.52 58.1347 Q1552.43 57.5936 1548.99 56.4796 L1548.99 50.4321 Q1552.24 52.1191 1555.39 52.9784 Q1558.54 53.806 1561.63 53.806 Q1565.77 53.806 1568 52.4055 Q1570.22 50.9732 1570.22 48.3951 Q1570.22 46.008 1568.6 44.7348 Q1567.01 43.4617 1561.57 42.284 L1559.53 41.8066 Q1554.09 40.6608 1551.67 38.3055 Q1549.25 35.9183 1549.25 31.7806 Q1549.25 26.7517 1552.81 24.0145 Q1556.38 21.2772 1562.94 21.2772 Q1566.18 21.2772 1569.05 21.7546 Q1571.91 22.2321 1574.33 23.1869 Z" fill="#000000" fill-rule="evenodd" fill-opacity="1" /><path clip-path="url(#clip510)" d="M1616.06 38.4964 L1616.06 41.361 L1589.13 41.361 Q1589.51 47.4084 1592.76 50.5913 Q1596.04 53.7423 1601.86 53.7423 Q1605.24 53.7423 1608.39 52.9148 Q1611.57 52.0872 1614.69 50.4321 L1614.69 55.9703 Q1611.54 57.3071 1608.23 58.0073 Q1604.92 58.7076 1601.51 58.7076 Q1592.98 58.7076 1587.98 53.7423 Q1583.02 48.7771 1583.02 40.3107 Q1583.02 31.5578 1587.73 26.4334 Q1592.47 21.2772 1600.49 21.2772 Q1607.69 21.2772 1611.86 25.9242 Q1616.06 30.5393 1616.06 38.4964 M1610.2 36.7777 Q1610.14 31.9716 1607.5 29.107 Q1604.89 26.2425 1600.56 26.2425 Q1595.66 26.2425 1592.7 29.0115 Q1589.77 31.7806 1589.32 36.8095 L1610.2 36.7777 Z" fill="#000000" fill-rule="evenodd" fill-opacity="1" /><polyline clip-path="url(#clip512)" style="stroke:#000000; stroke-linecap:round; stroke-linejoin:round; stroke-width:2; stroke-opacity:0.1; fill:none" points="
  329.983,240.798 2640.76,240.798 
  "/>
<polyline clip-path="url(#clip512)" style="stroke:#000000; stroke-linecap:round; stroke-linejoin:round; stroke-width:2; stroke-opacity:0.1; fill:none" points="
  329.983,305.339 2640.76,305.339 
  "/>
<polyline clip-path="url(#clip512)" style="stroke:#000000; stroke-linecap:round; stroke-linejoin:round; stroke-width:2; stroke-opacity:0.1; fill:none" points="
  329.983,454.279 2640.76,454.279 
  "/>
<polyline clip-path="url(#clip512)" style="stroke:#000000; stroke-linecap:round; stroke-linejoin:round; stroke-width:2; stroke-opacity:0.1; fill:none" points="
  329.983,1156.43 2640.76,1156.43 
  "/>
<polyline clip-path="url(#clip512)" style="stroke:#000000; stroke-linecap:round; stroke-linejoin:round; stroke-width:2; stroke-opacity:0.1; fill:none" points="
  329.983,1823.11 2640.76,1823.11 
  "/>
<polyline clip-path="url(#clip510)" style="stroke:#000000; stroke-linecap:round; stroke-linejoin:round; stroke-width:4; stroke-opacity:1; fill:none" points="
  329.983,1872.76 329.983,240.089 
  "/>
<polyline clip-path="url(#clip510)" style="stroke:#000000; stroke-linecap:round; stroke-linejoin:round; stroke-width:4; stroke-opacity:1; fill:none" points="
  329.983,240.798 348.88,240.798 
  "/>
<polyline clip-path="url(#clip510)" style="stroke:#000000; stroke-linecap:round; stroke-linejoin:round; stroke-width:4; stroke-opacity:1; fill:none" points="
  329.983,305.339 348.88,305.339 
  "/>
<polyline clip-path="url(#clip510)" style="stroke:#000000; stroke-linecap:round; stroke-linejoin:round; stroke-width:4; stroke-opacity:1; fill:none" points="
  329.983,454.279 348.88,454.279 
  "/>
<polyline clip-path="url(#clip510)" style="stroke:#000000; stroke-linecap:round; stroke-linejoin:round; stroke-width:4; stroke-opacity:1; fill:none" points="
  329.983,1156.43 348.88,1156.43 
  "/>
<polyline clip-path="url(#clip510)" style="stroke:#000000; stroke-linecap:round; stroke-linejoin:round; stroke-width:4; stroke-opacity:1; fill:none" points="
  329.983,1823.11 348.88,1823.11 
  "/>
<path clip-path="url(#clip510)" d="M136.562 237.129 Q138.159 234.259 140.381 232.893 Q142.603 231.528 145.612 231.528 Q149.663 231.528 151.862 234.375 Q154.061 237.199 154.061 242.43 L154.061 258.078 L149.779 258.078 L149.779 242.569 Q149.779 238.842 148.46 237.037 Q147.14 235.231 144.432 235.231 Q141.122 235.231 139.2 237.43 Q137.279 239.629 137.279 243.426 L137.279 258.078 L132.997 258.078 L132.997 242.569 Q132.997 238.819 131.677 237.037 Q130.358 235.231 127.603 235.231 Q124.339 235.231 122.418 237.454 Q120.497 239.653 120.497 243.426 L120.497 258.078 L116.214 258.078 L116.214 232.153 L120.497 232.153 L120.497 236.18 Q121.955 233.796 123.992 232.662 Q126.029 231.528 128.83 231.528 Q131.654 231.528 133.622 232.963 Q135.612 234.398 136.562 237.129 Z" fill="#000000" fill-rule="evenodd" fill-opacity="1" /><path clip-path="url(#clip510)" d="M162.557 232.153 L166.816 232.153 L166.816 258.078 L162.557 258.078 L162.557 232.153 M162.557 222.06 L166.816 222.06 L166.816 227.454 L162.557 227.454 L162.557 222.06 Z" fill="#000000" fill-rule="evenodd" fill-opacity="1" /><path clip-path="url(#clip510)" d="M192.256 232.917 L192.256 236.944 Q190.45 236.018 188.506 235.555 Q186.561 235.092 184.478 235.092 Q181.307 235.092 179.709 236.065 Q178.135 237.037 178.135 238.981 Q178.135 240.463 179.27 241.319 Q180.404 242.153 183.83 242.916 L185.288 243.241 Q189.825 244.213 191.723 245.995 Q193.645 247.754 193.645 250.926 Q193.645 254.537 190.774 256.643 Q187.927 258.75 182.927 258.75 Q180.844 258.75 178.575 258.333 Q176.33 257.94 173.83 257.129 L173.83 252.731 Q176.191 253.958 178.483 254.583 Q180.774 255.185 183.02 255.185 Q186.029 255.185 187.649 254.166 Q189.27 253.125 189.27 251.25 Q189.27 249.514 188.089 248.588 Q186.932 247.662 182.973 246.805 L181.492 246.458 Q177.534 245.625 175.774 243.912 Q174.015 242.176 174.015 239.167 Q174.015 235.509 176.608 233.518 Q179.2 231.528 183.969 231.528 Q186.33 231.528 188.413 231.875 Q190.496 232.222 192.256 232.917 Z" fill="#000000" fill-rule="evenodd" fill-opacity="1" /><path clip-path="url(#clip510)" d="M216.955 232.917 L216.955 236.944 Q215.149 236.018 213.205 235.555 Q211.26 235.092 209.177 235.092 Q206.006 235.092 204.408 236.065 Q202.834 237.037 202.834 238.981 Q202.834 240.463 203.969 241.319 Q205.103 242.153 208.529 242.916 L209.987 243.241 Q214.524 244.213 216.422 245.995 Q218.344 247.754 218.344 250.926 Q218.344 254.537 215.473 256.643 Q212.626 258.75 207.626 258.75 Q205.543 258.75 203.274 258.333 Q201.029 257.94 198.529 257.129 L198.529 252.731 Q200.89 253.958 203.182 254.583 Q205.473 255.185 207.719 255.185 Q210.728 255.185 212.348 254.166 Q213.969 253.125 213.969 251.25 Q213.969 249.514 212.788 248.588 Q211.631 247.662 207.672 246.805 L206.191 246.458 Q202.233 245.625 200.473 243.912 Q198.714 242.176 198.714 239.167 Q198.714 235.509 201.307 233.518 Q203.899 231.528 208.668 231.528 Q211.029 231.528 213.112 231.875 Q215.195 232.222 216.955 232.917 Z" fill="#000000" fill-rule="evenodd" fill-opacity="1" /><path clip-path="url(#clip510)" d="M225.126 232.153 L229.385 232.153 L229.385 258.078 L225.126 258.078 L225.126 232.153 M225.126 222.06 L229.385 222.06 L229.385 227.454 L225.126 227.454 L225.126 222.06 Z" fill="#000000" fill-rule="evenodd" fill-opacity="1" /><path clip-path="url(#clip510)" d="M259.848 242.43 L259.848 258.078 L255.589 258.078 L255.589 242.569 Q255.589 238.889 254.154 237.06 Q252.718 235.231 249.848 235.231 Q246.399 235.231 244.408 237.43 Q242.417 239.629 242.417 243.426 L242.417 258.078 L238.135 258.078 L238.135 232.153 L242.417 232.153 L242.417 236.18 Q243.945 233.842 246.005 232.685 Q248.089 231.528 250.797 231.528 Q255.265 231.528 257.556 234.305 Q259.848 237.06 259.848 242.43 Z" fill="#000000" fill-rule="evenodd" fill-opacity="1" /><path clip-path="url(#clip510)" d="M285.403 244.815 Q285.403 240.185 283.482 237.639 Q281.584 235.092 278.135 235.092 Q274.709 235.092 272.788 237.639 Q270.89 240.185 270.89 244.815 Q270.89 249.421 272.788 251.967 Q274.709 254.514 278.135 254.514 Q281.584 254.514 283.482 251.967 Q285.403 249.421 285.403 244.815 M289.663 254.861 Q289.663 261.481 286.723 264.699 Q283.783 267.939 277.718 267.939 Q275.473 267.939 273.482 267.592 Q271.491 267.268 269.616 266.574 L269.616 262.43 Q271.491 263.449 273.32 263.935 Q275.149 264.421 277.047 264.421 Q281.237 264.421 283.32 262.222 Q285.403 260.046 285.403 255.625 L285.403 253.518 Q284.084 255.81 282.024 256.944 Q279.964 258.078 277.093 258.078 Q272.325 258.078 269.408 254.444 Q266.491 250.81 266.491 244.815 Q266.491 238.796 269.408 235.162 Q272.325 231.528 277.093 231.528 Q279.964 231.528 282.024 232.662 Q284.084 233.796 285.403 236.088 L285.403 232.153 L289.663 232.153 L289.663 254.861 Z" fill="#000000" fill-rule="evenodd" fill-opacity="1" /><path clip-path="url(#clip510)" d="M181.862 306.416 Q183.367 306.925 184.779 308.591 Q186.214 310.258 187.649 313.175 L192.395 322.619 L187.371 322.619 L182.95 313.753 Q181.237 310.281 179.617 309.147 Q178.02 308.013 175.242 308.013 L170.149 308.013 L170.149 322.619 L165.473 322.619 L165.473 288.059 L176.029 288.059 Q181.955 288.059 184.871 290.536 Q187.788 293.013 187.788 298.013 Q187.788 301.277 186.26 303.429 Q184.756 305.582 181.862 306.416 M170.149 291.902 L170.149 304.17 L176.029 304.17 Q179.409 304.17 181.122 302.619 Q182.858 301.045 182.858 298.013 Q182.858 294.98 181.122 293.453 Q179.409 291.902 176.029 291.902 L170.149 291.902 Z" fill="#000000" fill-rule="evenodd" fill-opacity="1" /><path clip-path="url(#clip510)" d="M218.274 308.591 L218.274 310.675 L198.691 310.675 Q198.969 315.073 201.33 317.388 Q203.714 319.679 207.95 319.679 Q210.404 319.679 212.695 319.077 Q215.01 318.476 217.279 317.272 L217.279 321.3 Q214.987 322.272 212.58 322.781 Q210.172 323.29 207.695 323.29 Q201.492 323.29 197.858 319.679 Q194.246 316.068 194.246 309.911 Q194.246 303.545 197.672 299.818 Q201.121 296.068 206.955 296.068 Q212.186 296.068 215.219 299.448 Q218.274 302.804 218.274 308.591 M214.015 307.341 Q213.969 303.846 212.047 301.763 Q210.149 299.679 207.001 299.679 Q203.436 299.679 201.283 301.693 Q199.154 303.707 198.83 307.365 L214.015 307.341 Z" fill="#000000" fill-rule="evenodd" fill-opacity="1" /><path clip-path="url(#clip510)" d="M242.325 309.355 Q242.325 304.726 240.404 302.179 Q238.505 299.633 235.056 299.633 Q231.63 299.633 229.709 302.179 Q227.811 304.726 227.811 309.355 Q227.811 313.962 229.709 316.508 Q231.63 319.054 235.056 319.054 Q238.505 319.054 240.404 316.508 Q242.325 313.962 242.325 309.355 M246.584 319.402 Q246.584 326.022 243.644 329.239 Q240.705 332.48 234.64 332.48 Q232.394 332.48 230.404 332.133 Q228.413 331.809 226.538 331.114 L226.538 326.971 Q228.413 327.989 230.242 328.476 Q232.07 328.962 233.968 328.962 Q238.158 328.962 240.242 326.763 Q242.325 324.587 242.325 320.165 L242.325 318.059 Q241.005 320.351 238.945 321.485 Q236.885 322.619 234.015 322.619 Q229.246 322.619 226.33 318.985 Q223.413 315.351 223.413 309.355 Q223.413 303.337 226.33 299.703 Q229.246 296.068 234.015 296.068 Q236.885 296.068 238.945 297.203 Q241.005 298.337 242.325 300.629 L242.325 296.693 L246.584 296.693 L246.584 319.402 Z" fill="#000000" fill-rule="evenodd" fill-opacity="1" /><path clip-path="url(#clip510)" d="M254.917 312.388 L254.917 296.693 L259.177 296.693 L259.177 312.226 Q259.177 315.906 260.612 317.758 Q262.047 319.587 264.917 319.587 Q268.366 319.587 270.357 317.388 Q272.371 315.189 272.371 311.392 L272.371 296.693 L276.63 296.693 L276.63 322.619 L272.371 322.619 L272.371 318.638 Q270.82 320.999 268.76 322.156 Q266.723 323.29 264.015 323.29 Q259.547 323.29 257.232 320.513 Q254.917 317.735 254.917 312.388 M265.635 296.068 L265.635 296.068 Z" fill="#000000" fill-rule="evenodd" fill-opacity="1" /><path clip-path="url(#clip510)" d="M285.403 286.601 L289.663 286.601 L289.663 322.619 L285.403 322.619 L285.403 286.601 Z" fill="#000000" fill-rule="evenodd" fill-opacity="1" /><path clip-path="url(#clip510)" d="M167.464 440.17 Q162.372 440.17 159.362 443.967 Q156.376 447.763 156.376 454.314 Q156.376 460.842 159.362 464.638 Q162.372 468.434 167.464 468.434 Q172.557 468.434 175.52 464.638 Q178.506 460.842 178.506 454.314 Q178.506 447.763 175.52 443.967 Q172.557 440.17 167.464 440.17 M167.464 436.374 Q174.733 436.374 179.084 441.258 Q183.436 446.12 183.436 454.314 Q183.436 462.485 179.084 467.369 Q174.733 472.23 167.464 472.23 Q160.173 472.23 155.798 467.369 Q151.446 462.508 151.446 454.314 Q151.446 446.12 155.798 441.258 Q160.173 436.374 167.464 436.374 Z" fill="#000000" fill-rule="evenodd" fill-opacity="1" /><path clip-path="url(#clip510)" d="M209.223 446.629 L209.223 450.61 Q207.418 449.615 205.589 449.129 Q203.783 448.619 201.932 448.619 Q197.788 448.619 195.496 451.258 Q193.205 453.874 193.205 458.619 Q193.205 463.365 195.496 466.004 Q197.788 468.619 201.932 468.619 Q203.783 468.619 205.589 468.133 Q207.418 467.624 209.223 466.629 L209.223 470.564 Q207.441 471.397 205.52 471.814 Q203.621 472.23 201.469 472.23 Q195.612 472.23 192.163 468.55 Q188.714 464.869 188.714 458.619 Q188.714 452.277 192.186 448.643 Q195.682 445.008 201.746 445.008 Q203.714 445.008 205.589 445.425 Q207.464 445.819 209.223 446.629 Z" fill="#000000" fill-rule="evenodd" fill-opacity="1" /><path clip-path="url(#clip510)" d="M235.288 446.629 L235.288 450.61 Q233.482 449.615 231.654 449.129 Q229.848 448.619 227.996 448.619 Q223.853 448.619 221.561 451.258 Q219.269 453.874 219.269 458.619 Q219.269 463.365 221.561 466.004 Q223.853 468.619 227.996 468.619 Q229.848 468.619 231.654 468.133 Q233.482 467.624 235.288 466.629 L235.288 470.564 Q233.505 471.397 231.584 471.814 Q229.686 472.23 227.533 472.23 Q221.677 472.23 218.228 468.55 Q214.779 464.869 214.779 458.619 Q214.779 452.277 218.251 448.643 Q221.746 445.008 227.811 445.008 Q229.779 445.008 231.654 445.425 Q233.529 445.819 235.288 446.629 Z" fill="#000000" fill-rule="evenodd" fill-opacity="1" /><path clip-path="url(#clip510)" d="M254.478 458.527 Q249.316 458.527 247.325 459.707 Q245.334 460.888 245.334 463.735 Q245.334 466.004 246.816 467.346 Q248.32 468.666 250.89 468.666 Q254.431 468.666 256.561 466.166 Q258.714 463.643 258.714 459.476 L258.714 458.527 L254.478 458.527 M262.973 456.768 L262.973 471.559 L258.714 471.559 L258.714 467.624 Q257.255 469.985 255.079 471.119 Q252.904 472.23 249.755 472.23 Q245.774 472.23 243.413 470.008 Q241.075 467.763 241.075 464.013 Q241.075 459.638 243.992 457.416 Q246.931 455.194 252.741 455.194 L258.714 455.194 L258.714 454.777 Q258.714 451.837 256.769 450.24 Q254.848 448.619 251.353 448.619 Q249.13 448.619 247.024 449.152 Q244.917 449.684 242.973 450.749 L242.973 446.814 Q245.311 445.911 247.51 445.471 Q249.709 445.008 251.792 445.008 Q257.417 445.008 260.195 447.925 Q262.973 450.842 262.973 456.768 Z" fill="#000000" fill-rule="evenodd" fill-opacity="1" /><path clip-path="url(#clip510)" d="M288.274 446.397 L288.274 450.425 Q286.468 449.499 284.524 449.036 Q282.579 448.573 280.496 448.573 Q277.325 448.573 275.727 449.545 Q274.153 450.518 274.153 452.462 Q274.153 453.944 275.288 454.8 Q276.422 455.633 279.848 456.397 L281.306 456.721 Q285.843 457.694 287.741 459.476 Q289.663 461.235 289.663 464.406 Q289.663 468.018 286.792 470.124 Q283.945 472.23 278.945 472.23 Q276.862 472.23 274.593 471.814 Q272.348 471.42 269.848 470.61 L269.848 466.212 Q272.209 467.439 274.501 468.064 Q276.792 468.666 279.038 468.666 Q282.047 468.666 283.667 467.647 Q285.288 466.606 285.288 464.731 Q285.288 462.994 284.107 462.068 Q282.95 461.143 278.991 460.286 L277.51 459.939 Q273.552 459.106 271.792 457.393 Q270.033 455.656 270.033 452.647 Q270.033 448.99 272.626 446.999 Q275.218 445.008 279.987 445.008 Q282.348 445.008 284.431 445.356 Q286.514 445.703 288.274 446.397 Z" fill="#000000" fill-rule="evenodd" fill-opacity="1" /><path clip-path="url(#clip510)" d="M152.974 1139.15 L159.27 1139.15 L174.594 1168.06 L174.594 1139.15 L179.131 1139.15 L179.131 1173.71 L172.835 1173.71 L157.511 1144.79 L157.511 1173.71 L152.974 1173.71 L152.974 1139.15 Z" fill="#000000" fill-rule="evenodd" fill-opacity="1" /><path clip-path="url(#clip510)" d="M210.427 1159.68 L210.427 1161.76 L190.844 1161.76 Q191.121 1166.16 193.483 1168.47 Q195.867 1170.77 200.103 1170.77 Q202.557 1170.77 204.848 1170.16 Q207.163 1169.56 209.432 1168.36 L209.432 1172.39 Q207.14 1173.36 204.732 1173.87 Q202.325 1174.38 199.848 1174.38 Q193.645 1174.38 190.01 1170.77 Q186.399 1167.15 186.399 1161 Q186.399 1154.63 189.825 1150.9 Q193.274 1147.15 199.108 1147.15 Q204.339 1147.15 207.371 1150.53 Q210.427 1153.89 210.427 1159.68 M206.168 1158.43 Q206.121 1154.93 204.2 1152.85 Q202.302 1150.77 199.154 1150.77 Q195.589 1150.77 193.436 1152.78 Q191.307 1154.79 190.983 1158.45 L206.168 1158.43 Z" fill="#000000" fill-rule="evenodd" fill-opacity="1" /><path clip-path="url(#clip510)" d="M214.362 1147.78 L218.876 1147.78 L226.978 1169.54 L235.08 1147.78 L239.593 1147.78 L229.871 1173.71 L224.084 1173.71 L214.362 1147.78 Z" fill="#000000" fill-rule="evenodd" fill-opacity="1" /><path clip-path="url(#clip510)" d="M267.649 1159.68 L267.649 1161.76 L248.066 1161.76 Q248.343 1166.16 250.704 1168.47 Q253.089 1170.77 257.325 1170.77 Q259.778 1170.77 262.07 1170.16 Q264.385 1169.56 266.653 1168.36 L266.653 1172.39 Q264.362 1173.36 261.954 1173.87 Q259.547 1174.38 257.07 1174.38 Q250.866 1174.38 247.232 1170.77 Q243.621 1167.15 243.621 1161 Q243.621 1154.63 247.047 1150.9 Q250.496 1147.15 256.329 1147.15 Q261.561 1147.15 264.593 1150.53 Q267.649 1153.89 267.649 1159.68 M263.39 1158.43 Q263.343 1154.93 261.422 1152.85 Q259.524 1150.77 256.376 1150.77 Q252.811 1150.77 250.658 1152.78 Q248.529 1154.79 248.204 1158.45 L263.39 1158.43 Z" fill="#000000" fill-rule="evenodd" fill-opacity="1" /><path clip-path="url(#clip510)" d="M289.663 1151.76 Q288.945 1151.34 288.089 1151.16 Q287.255 1150.95 286.237 1150.95 Q282.626 1150.95 280.681 1153.31 Q278.76 1155.65 278.76 1160.05 L278.76 1173.71 L274.477 1173.71 L274.477 1147.78 L278.76 1147.78 L278.76 1151.81 Q280.102 1149.45 282.255 1148.31 Q284.408 1147.15 287.487 1147.15 Q287.926 1147.15 288.459 1147.22 Q288.991 1147.27 289.639 1147.39 L289.663 1151.76 Z" fill="#000000" fill-rule="evenodd" fill-opacity="1" /><path clip-path="url(#clip510)" d="M145.751 1805.83 L150.427 1805.83 L150.427 1820 L167.418 1820 L167.418 1805.83 L172.094 1805.83 L172.094 1840.39 L167.418 1840.39 L167.418 1823.93 L150.427 1823.93 L150.427 1840.39 L145.751 1840.39 L145.751 1805.83 Z" fill="#000000" fill-rule="evenodd" fill-opacity="1" /><path clip-path="url(#clip510)" d="M203.39 1826.36 L203.39 1828.44 L183.807 1828.44 Q184.084 1832.84 186.446 1835.16 Q188.83 1837.45 193.066 1837.45 Q195.52 1837.45 197.811 1836.85 Q200.126 1836.25 202.395 1835.04 L202.395 1839.07 Q200.103 1840.04 197.695 1840.55 Q195.288 1841.06 192.811 1841.06 Q186.608 1841.06 182.973 1837.45 Q179.362 1833.84 179.362 1827.68 Q179.362 1821.32 182.788 1817.59 Q186.237 1813.84 192.071 1813.84 Q197.302 1813.84 200.334 1817.22 Q203.39 1820.57 203.39 1826.36 M199.131 1825.11 Q199.084 1821.62 197.163 1819.53 Q195.265 1817.45 192.117 1817.45 Q188.552 1817.45 186.399 1819.46 Q184.27 1821.48 183.946 1825.13 L199.131 1825.11 Z" fill="#000000" fill-rule="evenodd" fill-opacity="1" /><path clip-path="url(#clip510)" d="M222.163 1827.36 Q217.001 1827.36 215.01 1828.54 Q213.019 1829.72 213.019 1832.57 Q213.019 1834.83 214.501 1836.18 Q216.006 1837.5 218.575 1837.5 Q222.117 1837.5 224.246 1835 Q226.399 1832.47 226.399 1828.31 L226.399 1827.36 L222.163 1827.36 M230.658 1825.6 L230.658 1840.39 L226.399 1840.39 L226.399 1836.45 Q224.941 1838.82 222.765 1839.95 Q220.589 1841.06 217.441 1841.06 Q213.459 1841.06 211.098 1838.84 Q208.76 1836.59 208.76 1832.84 Q208.76 1828.47 211.677 1826.25 Q214.617 1824.02 220.427 1824.02 L226.399 1824.02 L226.399 1823.61 Q226.399 1820.67 224.455 1819.07 Q222.533 1817.45 219.038 1817.45 Q216.816 1817.45 214.709 1817.98 Q212.603 1818.51 210.658 1819.58 L210.658 1815.64 Q212.996 1814.74 215.195 1814.3 Q217.394 1813.84 219.478 1813.84 Q225.103 1813.84 227.881 1816.76 Q230.658 1819.67 230.658 1825.6 Z" fill="#000000" fill-rule="evenodd" fill-opacity="1" /><path clip-path="url(#clip510)" d="M236.376 1814.46 L240.89 1814.46 L248.992 1836.22 L257.093 1814.46 L261.607 1814.46 L251.885 1840.39 L246.098 1840.39 L236.376 1814.46 Z" fill="#000000" fill-rule="evenodd" fill-opacity="1" /><path clip-path="url(#clip510)" d="M278.274 1842.8 Q276.468 1847.43 274.755 1848.84 Q273.042 1850.25 270.172 1850.25 L266.769 1850.25 L266.769 1846.69 L269.269 1846.69 Q271.028 1846.69 272.001 1845.85 Q272.973 1845.02 274.153 1841.92 L274.917 1839.97 L264.431 1814.46 L268.945 1814.46 L277.047 1834.74 L285.149 1814.46 L289.663 1814.46 L278.274 1842.8 Z" fill="#000000" fill-rule="evenodd" fill-opacity="1" /><path clip-path="url(#clip510)" d="M15.678 1132.09 L21.9483 1132.09 Q20.1977 1135.76 19.3383 1139 Q18.479 1142.25 18.479 1145.27 Q18.479 1150.52 20.516 1153.39 Q22.553 1156.22 26.3088 1156.22 Q29.4598 1156.22 31.0831 1154.34 Q32.6745 1152.43 33.6612 1147.15 L34.4569 1143.27 Q35.8255 1136.07 39.2948 1132.67 Q42.7323 1129.23 48.5251 1129.23 Q55.4319 1129.23 58.9967 1133.88 Q62.5615 1138.49 62.5615 1147.44 Q62.5615 1150.81 61.7976 1154.63 Q61.0337 1158.42 59.5378 1162.49 L52.9174 1162.49 Q55.1136 1158.58 56.2276 1154.82 Q57.3416 1151.06 57.3416 1147.44 Q57.3416 1141.93 55.1773 1138.94 Q53.0129 1135.95 49.0025 1135.95 Q45.5014 1135.95 43.528 1138.11 Q41.5546 1140.24 40.568 1145.14 L39.8041 1149.06 Q38.3718 1156.25 35.3162 1159.47 Q32.2607 1162.68 26.818 1162.68 Q20.516 1162.68 16.8875 1158.26 Q13.2591 1153.8 13.2591 1146 Q13.2591 1142.66 13.8638 1139.19 Q14.4686 1135.72 15.678 1132.09 Z" fill="#000000" fill-rule="evenodd" fill-opacity="1" /><path clip-path="url(#clip510)" d="M32.8336 1091.7 Q28.8869 1089.51 27.009 1086.45 Q25.1311 1083.4 25.1311 1079.26 Q25.1311 1073.69 29.046 1070.67 Q32.9291 1067.64 40.1224 1067.64 L61.6384 1067.64 L61.6384 1073.53 L40.3133 1073.53 Q35.1889 1073.53 32.7063 1075.34 Q30.2237 1077.16 30.2237 1080.88 Q30.2237 1085.43 33.2474 1088.08 Q36.2711 1090.72 41.491 1090.72 L61.6384 1090.72 L61.6384 1096.61 L40.3133 1096.61 Q35.1571 1096.61 32.7063 1098.42 Q30.2237 1100.23 30.2237 1104.02 Q30.2237 1108.51 33.2792 1111.15 Q36.3029 1113.79 41.491 1113.79 L61.6384 1113.79 L61.6384 1119.68 L25.9905 1119.68 L25.9905 1113.79 L31.5287 1113.79 Q28.2503 1111.79 26.6907 1108.99 Q25.1311 1106.19 25.1311 1102.34 Q25.1311 1098.45 27.1045 1095.75 Q29.0779 1093.01 32.8336 1091.7 Z" fill="#000000" fill-rule="evenodd" fill-opacity="1" /><path clip-path="url(#clip510)" d="M30.0964 1042.15 Q30.0964 1046.86 33.7885 1049.6 Q37.4488 1052.33 43.8463 1052.33 Q50.2438 1052.33 53.9359 1049.63 Q57.5962 1046.89 57.5962 1042.15 Q57.5962 1037.47 53.9041 1034.73 Q50.212 1031.99 43.8463 1031.99 Q37.5124 1031.99 33.8203 1034.73 Q30.0964 1037.47 30.0964 1042.15 M25.1311 1042.15 Q25.1311 1034.51 30.0964 1030.15 Q35.0616 1025.79 43.8463 1025.79 Q52.5991 1025.79 57.5962 1030.15 Q62.5615 1034.51 62.5615 1042.15 Q62.5615 1049.82 57.5962 1054.18 Q52.5991 1058.51 43.8463 1058.51 Q35.0616 1058.51 30.0964 1054.18 Q25.1311 1049.82 25.1311 1042.15 Z" fill="#000000" fill-rule="evenodd" fill-opacity="1" /><path clip-path="url(#clip510)" d="M12.1132 1016.3 L12.1132 1010.41 L41.3637 1010.41 L25.9905 992.941 L25.9905 985.461 L42.6686 1004.37 L61.6384 984.665 L61.6384 992.304 L44.2282 1010.41 L61.6384 1010.41 L61.6384 1016.3 L12.1132 1016.3 Z" fill="#000000" fill-rule="evenodd" fill-opacity="1" /><path clip-path="url(#clip510)" d="M42.3504 950.163 L45.2149 950.163 L45.2149 977.09 Q51.2623 976.708 54.4452 973.461 Q57.5962 970.183 57.5962 964.359 Q57.5962 960.985 56.7687 957.834 Q55.9411 954.651 54.2861 951.532 L59.8242 951.532 Q61.161 954.683 61.8612 957.993 Q62.5615 961.303 62.5615 964.709 Q62.5615 973.239 57.5962 978.236 Q52.631 983.201 44.1646 983.201 Q35.4117 983.201 30.2873 978.49 Q25.1311 973.748 25.1311 965.727 Q25.1311 958.534 29.7781 954.364 Q34.3932 950.163 42.3504 950.163 M40.6316 956.019 Q35.8255 956.083 32.9609 958.725 Q30.0964 961.335 30.0964 965.663 Q30.0964 970.565 32.8654 973.525 Q35.6345 976.453 40.6634 976.899 L40.6316 956.019 Z" fill="#000000" fill-rule="evenodd" fill-opacity="1" /><path clip-path="url(#clip512)" d="
M329.983 240.089 L329.983 1872.76 L1451.24 1872.76 L1451.24 240.089 L329.983 240.089 L329.983 240.089  Z
  " fill="#009af9" fill-rule="evenodd" fill-opacity="1"/>
<polyline clip-path="url(#clip512)" style="stroke:#000000; stroke-linecap:round; stroke-linejoin:round; stroke-width:2; stroke-opacity:1; fill:none" points="
  329.983,240.089 329.983,1872.76 1451.24,1872.76 1451.24,240.089 329.983,240.089 
  "/>
<path clip-path="url(#clip512)" d="
M1451.24 240.089 L1451.24 1872.76 L1685.25 1872.76 L1685.25 240.089 L1451.24 240.089 L1451.24 240.089  Z
  " fill="#009af9" fill-rule="evenodd" fill-opacity="1"/>
<polyline clip-path="url(#clip512)" style="stroke:#000000; stroke-linecap:round; stroke-linejoin:round; stroke-width:2; stroke-opacity:1; fill:none" points="
  1451.24,240.089 1451.24,1872.76 1685.25,1872.76 1685.25,240.089 1451.24,240.089 
  "/>
<path clip-path="url(#clip512)" d="
M1685.25 240.089 L1685.25 1872.76 L2640.76 1872.76 L2640.76 240.089 L1685.25 240.089 L1685.25 240.089  Z
  " fill="#009af9" fill-rule="evenodd" fill-opacity="1"/>
<polyline clip-path="url(#clip512)" style="stroke:#000000; stroke-linecap:round; stroke-linejoin:round; stroke-width:2; stroke-opacity:1; fill:none" points="
  1685.25,240.089 1685.25,1872.76 2640.76,1872.76 2640.76,240.089 1685.25,240.089 
  "/>
<circle clip-path="url(#clip512)" style="fill:#009af9; stroke:none; fill-opacity:0" cx="890.613" cy="240.089" r="2"/>
<circle clip-path="url(#clip512)" style="fill:#009af9; stroke:none; fill-opacity:0" cx="1568.25" cy="240.089" r="2"/>
<circle clip-path="url(#clip512)" style="fill:#009af9; stroke:none; fill-opacity:0" cx="2163" cy="240.089" r="2"/>
<path clip-path="url(#clip512)" d="
M329.983 241.508 L329.983 1872.76 L1451.24 1872.76 L1451.24 241.508 L329.983 241.508 L329.983 241.508  Z
  " fill="#e26f46" fill-rule="evenodd" fill-opacity="1"/>
<polyline clip-path="url(#clip512)" style="stroke:#000000; stroke-linecap:round; stroke-linejoin:round; stroke-width:2; stroke-opacity:1; fill:none" points="
  329.983,241.508 329.983,1872.76 1451.24,1872.76 1451.24,241.508 329.983,241.508 
  "/>
<path clip-path="url(#clip512)" d="
M1451.24 308.117 L1451.24 1872.76 L1685.25 1872.76 L1685.25 308.117 L1451.24 308.117 L1451.24 308.117  Z
  " fill="#e26f46" fill-rule="evenodd" fill-opacity="1"/>
<polyline clip-path="url(#clip512)" style="stroke:#000000; stroke-linecap:round; stroke-linejoin:round; stroke-width:2; stroke-opacity:1; fill:none" points="
  1451.24,308.117 1451.24,1872.76 1685.25,1872.76 1685.25,308.117 1451.24,308.117 
  "/>
<path clip-path="url(#clip512)" d="
M1685.25 241.753 L1685.25 1872.76 L2640.76 1872.76 L2640.76 241.753 L1685.25 241.753 L1685.25 241.753  Z
  " fill="#e26f46" fill-rule="evenodd" fill-opacity="1"/>
<polyline clip-path="url(#clip512)" style="stroke:#000000; stroke-linecap:round; stroke-linejoin:round; stroke-width:2; stroke-opacity:1; fill:none" points="
  1685.25,241.753 1685.25,1872.76 2640.76,1872.76 2640.76,241.753 1685.25,241.753 
  "/>
<circle clip-path="url(#clip512)" style="fill:#e26f46; stroke:none; fill-opacity:0" cx="890.613" cy="241.508" r="2"/>
<circle clip-path="url(#clip512)" style="fill:#e26f46; stroke:none; fill-opacity:0" cx="1568.25" cy="308.117" r="2"/>
<circle clip-path="url(#clip512)" style="fill:#e26f46; stroke:none; fill-opacity:0" cx="2163" cy="241.753" r="2"/>
<path clip-path="url(#clip512)" d="
M329.983 369.171 L329.983 1872.76 L1451.24 1872.76 L1451.24 369.171 L329.983 369.171 L329.983 369.171  Z
  " fill="#3da44d" fill-rule="evenodd" fill-opacity="1"/>
<polyline clip-path="url(#clip512)" style="stroke:#000000; stroke-linecap:round; stroke-linejoin:round; stroke-width:2; stroke-opacity:1; fill:none" points="
  329.983,369.171 329.983,1872.76 1451.24,1872.76 1451.24,369.171 329.983,369.171 
  "/>
<path clip-path="url(#clip512)" d="
M1451.24 376.145 L1451.24 1872.76 L1685.25 1872.76 L1685.25 376.145 L1451.24 376.145 L1451.24 376.145  Z
  " fill="#3da44d" fill-rule="evenodd" fill-opacity="1"/>
<polyline clip-path="url(#clip512)" style="stroke:#000000; stroke-linecap:round; stroke-linejoin:round; stroke-width:2; stroke-opacity:1; fill:none" points="
  1451.24,376.145 1451.24,1872.76 1685.25,1872.76 1685.25,376.145 1451.24,376.145 
  "/>
<path clip-path="url(#clip512)" d="
M1685.25 358.254 L1685.25 1872.76 L2640.76 1872.76 L2640.76 358.254 L1685.25 358.254 L1685.25 358.254  Z
  " fill="#3da44d" fill-rule="evenodd" fill-opacity="1"/>
<polyline clip-path="url(#clip512)" style="stroke:#000000; stroke-linecap:round; stroke-linejoin:round; stroke-width:2; stroke-opacity:1; fill:none" points="
  1685.25,358.254 1685.25,1872.76 2640.76,1872.76 2640.76,358.254 1685.25,358.254 
  "/>
<circle clip-path="url(#clip512)" style="fill:#3da44d; stroke:none; fill-opacity:0" cx="890.613" cy="369.171" r="2"/>
<circle clip-path="url(#clip512)" style="fill:#3da44d; stroke:none; fill-opacity:0" cx="1568.25" cy="376.145" r="2"/>
<circle clip-path="url(#clip512)" style="fill:#3da44d; stroke:none; fill-opacity:0" cx="2163" cy="358.254" r="2"/>
<path clip-path="url(#clip512)" d="
M329.983 539.388 L329.983 1872.76 L1451.24 1872.76 L1451.24 539.388 L329.983 539.388 L329.983 539.388  Z
  " fill="#c271d2" fill-rule="evenodd" fill-opacity="1"/>
<polyline clip-path="url(#clip512)" style="stroke:#000000; stroke-linecap:round; stroke-linejoin:round; stroke-width:2; stroke-opacity:1; fill:none" points="
  329.983,539.388 329.983,1872.76 1451.24,1872.76 1451.24,539.388 329.983,539.388 
  "/>
<path clip-path="url(#clip512)" d="
M1451.24 580.228 L1451.24 1872.76 L1685.25 1872.76 L1685.25 580.228 L1451.24 580.228 L1451.24 580.228  Z
  " fill="#c271d2" fill-rule="evenodd" fill-opacity="1"/>
<polyline clip-path="url(#clip512)" style="stroke:#000000; stroke-linecap:round; stroke-linejoin:round; stroke-width:2; stroke-opacity:1; fill:none" points="
  1451.24,580.228 1451.24,1872.76 1685.25,1872.76 1685.25,580.228 1451.24,580.228 
  "/>
<path clip-path="url(#clip512)" d="
M1685.25 424.825 L1685.25 1872.76 L2640.76 1872.76 L2640.76 424.825 L1685.25 424.825 L1685.25 424.825  Z
  " fill="#c271d2" fill-rule="evenodd" fill-opacity="1"/>
<polyline clip-path="url(#clip512)" style="stroke:#000000; stroke-linecap:round; stroke-linejoin:round; stroke-width:2; stroke-opacity:1; fill:none" points="
  1685.25,424.825 1685.25,1872.76 2640.76,1872.76 2640.76,424.825 1685.25,424.825 
  "/>
<circle clip-path="url(#clip512)" style="fill:#c271d2; stroke:none; fill-opacity:0" cx="890.613" cy="539.388" r="2"/>
<circle clip-path="url(#clip512)" style="fill:#c271d2; stroke:none; fill-opacity:0" cx="1568.25" cy="580.228" r="2"/>
<circle clip-path="url(#clip512)" style="fill:#c271d2; stroke:none; fill-opacity:0" cx="2163" cy="424.825" r="2"/>
<path clip-path="url(#clip512)" d="
M329.983 1773.46 L329.983 1872.76 L1451.24 1872.76 L1451.24 1773.46 L329.983 1773.46 L329.983 1773.46  Z
  " fill="#ac8d18" fill-rule="evenodd" fill-opacity="1"/>
<polyline clip-path="url(#clip512)" style="stroke:#000000; stroke-linecap:round; stroke-linejoin:round; stroke-width:2; stroke-opacity:1; fill:none" points="
  329.983,1773.46 329.983,1872.76 1451.24,1872.76 1451.24,1773.46 329.983,1773.46 
  "/>
<path clip-path="url(#clip512)" d="
M1451.24 1804.73 L1451.24 1872.76 L1685.25 1872.76 L1685.25 1804.73 L1451.24 1804.73 L1451.24 1804.73  Z
  " fill="#ac8d18" fill-rule="evenodd" fill-opacity="1"/>
<polyline clip-path="url(#clip512)" style="stroke:#000000; stroke-linecap:round; stroke-linejoin:round; stroke-width:2; stroke-opacity:1; fill:none" points="
  1451.24,1804.73 1451.24,1872.76 1685.25,1872.76 1685.25,1804.73 1451.24,1804.73 
  "/>
<path clip-path="url(#clip512)" d="
M1685.25 1822.83 L1685.25 1872.76 L2640.76 1872.76 L2640.76 1822.83 L1685.25 1822.83 L1685.25 1822.83  Z
  " fill="#ac8d18" fill-rule="evenodd" fill-opacity="1"/>
<polyline clip-path="url(#clip512)" style="stroke:#000000; stroke-linecap:round; stroke-linejoin:round; stroke-width:2; stroke-opacity:1; fill:none" points="
  1685.25,1822.83 1685.25,1872.76 2640.76,1872.76 2640.76,1822.83 1685.25,1822.83 
  "/>
<circle clip-path="url(#clip512)" style="fill:#ac8d18; stroke:none; fill-opacity:0" cx="890.613" cy="1773.46" r="2"/>
<circle clip-path="url(#clip512)" style="fill:#ac8d18; stroke:none; fill-opacity:0" cx="1568.25" cy="1804.73" r="2"/>
<circle clip-path="url(#clip512)" style="fill:#ac8d18; stroke:none; fill-opacity:0" cx="2163" cy="1822.83" r="2"/>
</svg>
