<?xml version="1.0" encoding="utf-8"?>
<svg xmlns="http://www.w3.org/2000/svg" xmlns:xlink="http://www.w3.org/1999/xlink" width="672" height="480" viewBox="0 0 2688 1920">
<defs>
  <clipPath id="clip010">
    <rect x="0" y="0" width="2688" height="1920"/>
  </clipPath>
</defs>
<path clip-path="url(#clip010)" d="
M0 1920 L2688 1920 L2688 0 L0 0  Z
  " fill="#ffffff" fill-rule="evenodd" fill-opacity="1"/>
<defs>
  <clipPath id="clip011">
    <rect x="537" y="0" width="1883" height="1883"/>
  </clipPath>
</defs>
<path clip-path="url(#clip010)" d="
M172.001 1734.12 L1296.76 1734.12 L1296.76 47.2441 L172.001 47.2441  Z
  " fill="#ffffff" fill-rule="evenodd" fill-opacity="1"/>
<defs>
  <clipPath id="clip012">
    <rect x="172" y="47" width="1126" height="1688"/>
  </clipPath>
</defs>
<polyline clip-path="url(#clip012)" style="stroke:#000000; stroke-linecap:round; stroke-linejoin:round; stroke-width:2; stroke-opacity:0.1; fill:none" points="
  450.968,1734.12 450.968,47.2441 
  "/>
<polyline clip-path="url(#clip012)" style="stroke:#000000; stroke-linecap:round; stroke-linejoin:round; stroke-width:2; stroke-opacity:0.1; fill:none" points="
  1017.79,1734.12 1017.79,47.2441 
  "/>
<polyline clip-path="url(#clip010)" style="stroke:#000000; stroke-linecap:round; stroke-linejoin:round; stroke-width:4; stroke-opacity:1; fill:none" points="
  172.001,1734.12 1296.76,1734.12 
  "/>
<polyline clip-path="url(#clip010)" style="stroke:#000000; stroke-linecap:round; stroke-linejoin:round; stroke-width:4; stroke-opacity:1; fill:none" points="
  450.968,1734.12 450.968,1715.22 
  "/>
<polyline clip-path="url(#clip010)" style="stroke:#000000; stroke-linecap:round; stroke-linejoin:round; stroke-width:4; stroke-opacity:1; fill:none" points="
  1017.79,1734.12 1017.79,1715.22 
  "/>
<path clip-path="url(#clip010)" d="M368.85 1764.26 L388.711 1764.26 L388.711 1768.2 L373.526 1768.2 L373.526 1778.38 L387.23 1778.38 L387.23 1782.32 L373.526 1782.32 L373.526 1798.82 L368.85 1798.82 L368.85 1764.26 Z" fill="#000000" fill-rule="evenodd" fill-opacity="1" /><path clip-path="url(#clip010)" d="M415.517 1784.79 L415.517 1786.88 L395.934 1786.88 Q396.211 1791.27 398.572 1793.59 Q400.957 1795.88 405.193 1795.88 Q407.646 1795.88 409.938 1795.28 Q412.253 1794.68 414.521 1793.47 L414.521 1797.5 Q412.23 1798.47 409.822 1798.98 Q407.415 1799.49 404.938 1799.49 Q398.735 1799.49 395.1 1795.88 Q391.489 1792.27 391.489 1786.11 Q391.489 1779.75 394.915 1776.02 Q398.364 1772.27 404.197 1772.27 Q409.429 1772.27 412.461 1775.65 Q415.517 1779.01 415.517 1784.79 M411.258 1783.54 Q411.211 1780.05 409.29 1777.96 Q407.392 1775.88 404.244 1775.88 Q400.679 1775.88 398.526 1777.9 Q396.397 1779.91 396.072 1783.57 L411.258 1783.54 Z" fill="#000000" fill-rule="evenodd" fill-opacity="1" /><path clip-path="url(#clip010)" d="M442.693 1777.87 Q444.29 1775 446.512 1773.64 Q448.734 1772.27 451.743 1772.27 Q455.794 1772.27 457.993 1775.12 Q460.193 1777.94 460.193 1783.17 L460.193 1798.82 L455.91 1798.82 L455.91 1783.31 Q455.91 1779.58 454.591 1777.78 Q453.271 1775.97 450.563 1775.97 Q447.253 1775.97 445.331 1778.17 Q443.41 1780.37 443.41 1784.17 L443.41 1798.82 L439.128 1798.82 L439.128 1783.31 Q439.128 1779.56 437.808 1777.78 Q436.489 1775.97 433.734 1775.97 Q430.47 1775.97 428.549 1778.2 Q426.628 1780.4 426.628 1784.17 L426.628 1798.82 L422.345 1798.82 L422.345 1772.9 L426.628 1772.9 L426.628 1776.92 Q428.086 1774.54 430.123 1773.4 Q432.16 1772.27 434.961 1772.27 Q437.785 1772.27 439.753 1773.71 Q441.744 1775.14 442.693 1777.87 Z" fill="#000000" fill-rule="evenodd" fill-opacity="1" /><path clip-path="url(#clip010)" d="M480.47 1785.79 Q475.308 1785.79 473.317 1786.97 Q471.327 1788.15 471.327 1791 Q471.327 1793.27 472.808 1794.61 Q474.313 1795.93 476.882 1795.93 Q480.424 1795.93 482.554 1793.43 Q484.706 1790.9 484.706 1786.74 L484.706 1785.79 L480.47 1785.79 M488.966 1784.03 L488.966 1798.82 L484.706 1798.82 L484.706 1794.89 Q483.248 1797.25 481.072 1798.38 Q478.896 1799.49 475.748 1799.49 Q471.767 1799.49 469.405 1797.27 Q467.067 1795.02 467.067 1791.27 Q467.067 1786.9 469.984 1784.68 Q472.924 1782.46 478.734 1782.46 L484.706 1782.46 L484.706 1782.04 Q484.706 1779.1 482.762 1777.5 Q480.841 1775.88 477.345 1775.88 Q475.123 1775.88 473.017 1776.41 Q470.91 1776.95 468.966 1778.01 L468.966 1774.08 Q471.304 1773.17 473.503 1772.73 Q475.702 1772.27 477.785 1772.27 Q483.41 1772.27 486.188 1775.19 Q488.966 1778.1 488.966 1784.03 Z" fill="#000000" fill-rule="evenodd" fill-opacity="1" /><path clip-path="url(#clip010)" d="M497.739 1762.8 L501.998 1762.8 L501.998 1798.82 L497.739 1798.82 L497.739 1762.8 Z" fill="#000000" fill-rule="evenodd" fill-opacity="1" /><path clip-path="url(#clip010)" d="M533.086 1784.79 L533.086 1786.88 L513.502 1786.88 Q513.78 1791.27 516.141 1793.59 Q518.526 1795.88 522.762 1795.88 Q525.215 1795.88 527.507 1795.28 Q529.822 1794.68 532.09 1793.47 L532.09 1797.5 Q529.799 1798.47 527.391 1798.98 Q524.984 1799.49 522.507 1799.49 Q516.303 1799.49 512.669 1795.88 Q509.058 1792.27 509.058 1786.11 Q509.058 1779.75 512.484 1776.02 Q515.933 1772.27 521.766 1772.27 Q526.998 1772.27 530.03 1775.65 Q533.086 1779.01 533.086 1784.79 M528.826 1783.54 Q528.78 1780.05 526.859 1777.96 Q524.961 1775.88 521.813 1775.88 Q518.248 1775.88 516.095 1777.9 Q513.965 1779.91 513.641 1783.57 L528.826 1783.54 Z" fill="#000000" fill-rule="evenodd" fill-opacity="1" /><path clip-path="url(#clip010)" d="M965.232 1764.26 L972.199 1764.26 L981.019 1787.78 L989.884 1764.26 L996.852 1764.26 L996.852 1798.82 L992.292 1798.82 L992.292 1768.47 L983.38 1792.18 L978.681 1792.18 L969.769 1768.47 L969.769 1798.82 L965.232 1798.82 L965.232 1764.26 Z" fill="#000000" fill-rule="evenodd" fill-opacity="1" /><path clip-path="url(#clip010)" d="M1017.73 1785.79 Q1012.57 1785.79 1010.58 1786.97 Q1008.59 1788.15 1008.59 1791 Q1008.59 1793.27 1010.07 1794.61 Q1011.57 1795.93 1014.14 1795.93 Q1017.69 1795.93 1019.81 1793.43 Q1021.97 1790.9 1021.97 1786.74 L1021.97 1785.79 L1017.73 1785.79 M1026.23 1784.03 L1026.23 1798.82 L1021.97 1798.82 L1021.97 1794.89 Q1020.51 1797.25 1018.33 1798.38 Q1016.16 1799.49 1013.01 1799.49 Q1009.03 1799.49 1006.67 1797.27 Q1004.33 1795.02 1004.33 1791.27 Q1004.33 1786.9 1007.25 1784.68 Q1010.19 1782.46 1016 1782.46 L1021.97 1782.46 L1021.97 1782.04 Q1021.97 1779.1 1020.02 1777.5 Q1018.1 1775.88 1014.61 1775.88 Q1012.38 1775.88 1010.28 1776.41 Q1008.17 1776.95 1006.23 1778.01 L1006.23 1774.08 Q1008.56 1773.17 1010.76 1772.73 Q1012.96 1772.27 1015.05 1772.27 Q1020.67 1772.27 1023.45 1775.19 Q1026.23 1778.1 1026.23 1784.03 Z" fill="#000000" fill-rule="evenodd" fill-opacity="1" /><path clip-path="url(#clip010)" d="M1035 1762.8 L1039.26 1762.8 L1039.26 1798.82 L1035 1798.82 L1035 1762.8 Z" fill="#000000" fill-rule="evenodd" fill-opacity="1" /><path clip-path="url(#clip010)" d="M1070.35 1784.79 L1070.35 1786.88 L1050.76 1786.88 Q1051.04 1791.27 1053.4 1793.59 Q1055.79 1795.88 1060.02 1795.88 Q1062.48 1795.88 1064.77 1795.28 Q1067.08 1794.68 1069.35 1793.47 L1069.35 1797.5 Q1067.06 1798.47 1064.65 1798.98 Q1062.24 1799.49 1059.77 1799.49 Q1053.56 1799.49 1049.93 1795.88 Q1046.32 1792.27 1046.32 1786.11 Q1046.32 1779.75 1049.75 1776.02 Q1053.19 1772.27 1059.03 1772.27 Q1064.26 1772.27 1067.29 1775.65 Q1070.35 1779.01 1070.35 1784.79 M1066.09 1783.54 Q1066.04 1780.05 1064.12 1777.96 Q1062.22 1775.88 1059.07 1775.88 Q1055.51 1775.88 1053.36 1777.9 Q1051.23 1779.91 1050.9 1783.57 L1066.09 1783.54 Z" fill="#000000" fill-rule="evenodd" fill-opacity="1" /><path clip-path="url(#clip010)" d="M457.566 1835.78 L463.995 1835.78 L463.995 1883.3 L457.566 1883.3 L457.566 1835.78 Z" fill="#000000" fill-rule="evenodd" fill-opacity="1" /><path clip-path="url(#clip010)" d="M499.993 1853.06 L499.993 1833.78 L505.85 1833.78 L505.85 1883.3 L499.993 1883.3 L499.993 1877.95 Q498.147 1881.14 495.314 1882.7 Q492.514 1884.22 488.567 1884.22 Q482.106 1884.22 478.032 1879.07 Q473.989 1873.91 473.989 1865.51 Q473.989 1857.11 478.032 1851.95 Q482.106 1846.79 488.567 1846.79 Q492.514 1846.79 495.314 1848.35 Q498.147 1849.88 499.993 1853.06 M480.037 1865.51 Q480.037 1871.97 482.679 1875.66 Q485.352 1879.32 489.999 1879.32 Q494.646 1879.32 497.32 1875.66 Q499.993 1871.97 499.993 1865.51 Q499.993 1859.05 497.32 1855.39 Q494.646 1851.7 489.999 1851.7 Q485.352 1851.7 482.679 1855.39 Q480.037 1859.05 480.037 1865.51 Z" fill="#000000" fill-rule="evenodd" fill-opacity="1" /><path clip-path="url(#clip010)" d="M548.404 1864.01 L548.404 1866.88 L521.478 1866.88 Q521.859 1872.92 525.106 1876.11 Q528.384 1879.26 534.209 1879.26 Q537.583 1879.26 540.734 1878.43 Q543.917 1877.6 547.036 1875.95 L547.036 1881.49 Q543.885 1882.82 540.575 1883.52 Q537.265 1884.22 533.859 1884.22 Q525.329 1884.22 520.332 1879.26 Q515.366 1874.29 515.366 1865.83 Q515.366 1857.07 520.077 1851.95 Q524.82 1846.79 532.84 1846.79 Q540.034 1846.79 544.203 1851.44 Q548.404 1856.06 548.404 1864.01 M542.548 1862.29 Q542.484 1857.49 539.843 1854.62 Q537.233 1851.76 532.904 1851.76 Q528.002 1851.76 525.042 1854.53 Q522.114 1857.3 521.669 1862.33 L542.548 1862.29 Z" fill="#000000" fill-rule="evenodd" fill-opacity="1" /><path clip-path="url(#clip010)" d="M587.649 1861.78 L587.649 1883.3 L581.793 1883.3 L581.793 1861.98 Q581.793 1856.92 579.819 1854.4 Q577.846 1851.89 573.899 1851.89 Q569.157 1851.89 566.419 1854.91 Q563.682 1857.93 563.682 1863.15 L563.682 1883.3 L557.794 1883.3 L557.794 1847.65 L563.682 1847.65 L563.682 1853.19 Q565.783 1849.98 568.616 1848.39 Q571.48 1846.79 575.204 1846.79 Q581.347 1846.79 584.498 1850.61 Q587.649 1854.4 587.649 1861.78 Z" fill="#000000" fill-rule="evenodd" fill-opacity="1" /><path clip-path="url(#clip010)" d="M605.123 1837.53 L605.123 1847.65 L617.186 1847.65 L617.186 1852.2 L605.123 1852.2 L605.123 1871.56 Q605.123 1875.92 606.301 1877.16 Q607.51 1878.4 611.17 1878.4 L617.186 1878.4 L617.186 1883.3 L611.17 1883.3 Q604.391 1883.3 601.813 1880.79 Q599.235 1878.24 599.235 1871.56 L599.235 1852.2 L594.938 1852.2 L594.938 1847.65 L599.235 1847.65 L599.235 1837.53 L605.123 1837.53 Z" fill="#000000" fill-rule="evenodd" fill-opacity="1" /><path clip-path="url(#clip010)" d="M624.888 1847.65 L630.745 1847.65 L630.745 1883.3 L624.888 1883.3 L624.888 1847.65 M624.888 1833.78 L630.745 1833.78 L630.745 1841.19 L624.888 1841.19 L624.888 1833.78 Z" fill="#000000" fill-rule="evenodd" fill-opacity="1" /><path clip-path="url(#clip010)" d="M661.046 1833.78 L661.046 1838.65 L655.444 1838.65 Q652.293 1838.65 651.052 1839.92 Q649.842 1841.19 649.842 1844.5 L649.842 1847.65 L659.486 1847.65 L659.486 1852.2 L649.842 1852.2 L649.842 1883.3 L643.954 1883.3 L643.954 1852.2 L638.352 1852.2 L638.352 1847.65 L643.954 1847.65 L643.954 1845.17 Q643.954 1839.22 646.723 1836.51 Q649.492 1833.78 655.508 1833.78 L661.046 1833.78 Z" fill="#000000" fill-rule="evenodd" fill-opacity="1" /><path clip-path="url(#clip010)" d="M665.947 1847.65 L671.804 1847.65 L671.804 1883.3 L665.947 1883.3 L665.947 1847.65 M665.947 1833.78 L671.804 1833.78 L671.804 1841.19 L665.947 1841.19 L665.947 1833.78 Z" fill="#000000" fill-rule="evenodd" fill-opacity="1" /><path clip-path="url(#clip010)" d="M714.549 1864.01 L714.549 1866.88 L687.622 1866.88 Q688.004 1872.92 691.251 1876.11 Q694.529 1879.26 700.354 1879.26 Q703.728 1879.26 706.879 1878.43 Q710.062 1877.6 713.181 1875.95 L713.181 1881.49 Q710.03 1882.82 706.72 1883.52 Q703.409 1884.22 700.004 1884.22 Q691.474 1884.22 686.477 1879.26 Q681.511 1874.29 681.511 1865.83 Q681.511 1857.07 686.222 1851.95 Q690.964 1846.79 698.985 1846.79 Q706.179 1846.79 710.348 1851.44 Q714.549 1856.06 714.549 1864.01 M708.693 1862.29 Q708.629 1857.49 705.988 1854.62 Q703.378 1851.76 699.049 1851.76 Q694.147 1851.76 691.187 1854.53 Q688.259 1857.3 687.813 1862.33 L708.693 1862.29 Z" fill="#000000" fill-rule="evenodd" fill-opacity="1" /><path clip-path="url(#clip010)" d="M747.619 1853.06 L747.619 1833.78 L753.476 1833.78 L753.476 1883.3 L747.619 1883.3 L747.619 1877.95 Q745.773 1881.14 742.94 1882.7 Q740.14 1884.22 736.193 1884.22 Q729.732 1884.22 725.658 1879.07 Q721.615 1873.91 721.615 1865.51 Q721.615 1857.11 725.658 1851.95 Q729.732 1846.79 736.193 1846.79 Q740.14 1846.79 742.94 1848.35 Q745.773 1849.88 747.619 1853.06 M727.663 1865.51 Q727.663 1871.97 730.305 1875.66 Q732.978 1879.32 737.625 1879.32 Q742.272 1879.32 744.946 1875.66 Q747.619 1871.97 747.619 1865.51 Q747.619 1859.05 744.946 1855.39 Q742.272 1851.7 737.625 1851.7 Q732.978 1851.7 730.305 1855.39 Q727.663 1859.05 727.663 1865.51 Z" fill="#000000" fill-rule="evenodd" fill-opacity="1" /><path clip-path="url(#clip010)" d="M809.717 1865.06 Q809.717 1858.7 807.075 1855.2 Q804.465 1851.7 799.723 1851.7 Q795.012 1851.7 792.37 1855.2 Q789.76 1858.7 789.76 1865.06 Q789.76 1871.4 792.37 1874.9 Q795.012 1878.4 799.723 1878.4 Q804.465 1878.4 807.075 1874.9 Q809.717 1871.4 809.717 1865.06 M815.573 1878.88 Q815.573 1887.98 811.531 1892.4 Q807.489 1896.86 799.15 1896.86 Q796.062 1896.86 793.325 1896.38 Q790.588 1895.94 788.01 1894.98 L788.01 1889.28 Q790.588 1890.69 793.102 1891.35 Q795.617 1892.02 798.227 1892.02 Q803.988 1892.02 806.852 1889 Q809.717 1886.01 809.717 1879.93 L809.717 1877.03 Q807.903 1880.18 805.07 1881.74 Q802.237 1883.3 798.29 1883.3 Q791.734 1883.3 787.723 1878.3 Q783.713 1873.31 783.713 1865.06 Q783.713 1856.79 787.723 1851.79 Q791.734 1846.79 798.29 1846.79 Q802.237 1846.79 805.07 1848.35 Q807.903 1849.91 809.717 1853.06 L809.717 1847.65 L815.573 1847.65 L815.573 1878.88 Z" fill="#000000" fill-rule="evenodd" fill-opacity="1" /><path clip-path="url(#clip010)" d="M858.128 1864.01 L858.128 1866.88 L831.201 1866.88 Q831.583 1872.92 834.829 1876.11 Q838.108 1879.26 843.932 1879.26 Q847.306 1879.26 850.457 1878.43 Q853.64 1877.6 856.759 1875.95 L856.759 1881.49 Q853.608 1882.82 850.298 1883.52 Q846.988 1884.22 843.582 1884.22 Q835.052 1884.22 830.055 1879.26 Q825.09 1874.29 825.09 1865.83 Q825.09 1857.07 829.801 1851.95 Q834.543 1846.79 842.564 1846.79 Q849.757 1846.79 853.927 1851.44 Q858.128 1856.06 858.128 1864.01 M852.271 1862.29 Q852.208 1857.49 849.566 1854.62 Q846.956 1851.76 842.627 1851.76 Q837.726 1851.76 834.766 1854.53 Q831.838 1857.3 831.392 1862.33 L852.271 1862.29 Z" fill="#000000" fill-rule="evenodd" fill-opacity="1" /><path clip-path="url(#clip010)" d="M897.373 1861.78 L897.373 1883.3 L891.516 1883.3 L891.516 1861.98 Q891.516 1856.92 889.543 1854.4 Q887.569 1851.89 883.623 1851.89 Q878.88 1851.89 876.143 1854.91 Q873.406 1857.93 873.406 1863.15 L873.406 1883.3 L867.517 1883.3 L867.517 1847.65 L873.406 1847.65 L873.406 1853.19 Q875.506 1849.98 878.339 1848.39 Q881.204 1846.79 884.928 1846.79 Q891.07 1846.79 894.222 1850.61 Q897.373 1854.4 897.373 1861.78 Z" fill="#000000" fill-rule="evenodd" fill-opacity="1" /><path clip-path="url(#clip010)" d="M932.511 1853.06 L932.511 1833.78 L938.368 1833.78 L938.368 1883.3 L932.511 1883.3 L932.511 1877.95 Q930.665 1881.14 927.832 1882.7 Q925.032 1884.22 921.085 1884.22 Q914.624 1884.22 910.55 1879.07 Q906.507 1873.91 906.507 1865.51 Q906.507 1857.11 910.55 1851.95 Q914.624 1846.79 921.085 1846.79 Q925.032 1846.79 927.832 1848.35 Q930.665 1849.88 932.511 1853.06 M912.555 1865.51 Q912.555 1871.97 915.197 1875.66 Q917.87 1879.32 922.517 1879.32 Q927.164 1879.32 929.838 1875.66 Q932.511 1871.97 932.511 1865.51 Q932.511 1859.05 929.838 1855.39 Q927.164 1851.7 922.517 1851.7 Q917.87 1851.7 915.197 1855.39 Q912.555 1859.05 912.555 1865.51 Z" fill="#000000" fill-rule="evenodd" fill-opacity="1" /><path clip-path="url(#clip010)" d="M980.922 1864.01 L980.922 1866.88 L953.995 1866.88 Q954.377 1872.92 957.624 1876.11 Q960.902 1879.26 966.727 1879.26 Q970.101 1879.26 973.252 1878.43 Q976.435 1877.6 979.554 1875.95 L979.554 1881.49 Q976.403 1882.82 973.093 1883.52 Q969.782 1884.22 966.377 1884.22 Q957.847 1884.22 952.85 1879.26 Q947.884 1874.29 947.884 1865.83 Q947.884 1857.07 952.595 1851.95 Q957.337 1846.79 965.358 1846.79 Q972.552 1846.79 976.721 1851.44 Q980.922 1856.06 980.922 1864.01 M975.066 1862.29 Q975.002 1857.49 972.361 1854.62 Q969.751 1851.76 965.422 1851.76 Q960.52 1851.76 957.56 1854.53 Q954.632 1857.3 954.186 1862.33 L975.066 1862.29 Z" fill="#000000" fill-rule="evenodd" fill-opacity="1" /><path clip-path="url(#clip010)" d="M1011.19 1853.13 Q1010.2 1852.55 1009.03 1852.3 Q1007.88 1852.01 1006.48 1852.01 Q1001.52 1852.01 998.842 1855.26 Q996.2 1858.47 996.2 1864.52 L996.2 1883.3 L990.312 1883.3 L990.312 1847.65 L996.2 1847.65 L996.2 1853.19 Q998.046 1849.94 1001.01 1848.39 Q1003.97 1846.79 1008.2 1846.79 Q1008.8 1846.79 1009.54 1846.89 Q1010.27 1846.95 1011.16 1847.11 L1011.19 1853.13 Z" fill="#000000" fill-rule="evenodd" fill-opacity="1" /><polyline clip-path="url(#clip012)" style="stroke:#000000; stroke-linecap:round; stroke-linejoin:round; stroke-width:2; stroke-opacity:0.1; fill:none" points="
  172.001,1686.38 1296.76,1686.38 
  "/>
<polyline clip-path="url(#clip012)" style="stroke:#000000; stroke-linecap:round; stroke-linejoin:round; stroke-width:2; stroke-opacity:0.1; fill:none" points="
  172.001,1284.51 1296.76,1284.51 
  "/>
<polyline clip-path="url(#clip012)" style="stroke:#000000; stroke-linecap:round; stroke-linejoin:round; stroke-width:2; stroke-opacity:0.1; fill:none" points="
  172.001,882.643 1296.76,882.643 
  "/>
<polyline clip-path="url(#clip012)" style="stroke:#000000; stroke-linecap:round; stroke-linejoin:round; stroke-width:2; stroke-opacity:0.1; fill:none" points="
  172.001,480.777 1296.76,480.777 
  "/>
<polyline clip-path="url(#clip012)" style="stroke:#000000; stroke-linecap:round; stroke-linejoin:round; stroke-width:2; stroke-opacity:0.1; fill:none" points="
  172.001,78.9111 1296.76,78.9111 
  "/>
<polyline clip-path="url(#clip010)" style="stroke:#000000; stroke-linecap:round; stroke-linejoin:round; stroke-width:4; stroke-opacity:1; fill:none" points="
  172.001,1734.12 172.001,47.2441 
  "/>
<polyline clip-path="url(#clip010)" style="stroke:#000000; stroke-linecap:round; stroke-linejoin:round; stroke-width:4; stroke-opacity:1; fill:none" points="
  172.001,1686.38 190.899,1686.38 
  "/>
<polyline clip-path="url(#clip010)" style="stroke:#000000; stroke-linecap:round; stroke-linejoin:round; stroke-width:4; stroke-opacity:1; fill:none" points="
  172.001,1284.51 190.899,1284.51 
  "/>
<polyline clip-path="url(#clip010)" style="stroke:#000000; stroke-linecap:round; stroke-linejoin:round; stroke-width:4; stroke-opacity:1; fill:none" points="
  172.001,882.643 190.899,882.643 
  "/>
<polyline clip-path="url(#clip010)" style="stroke:#000000; stroke-linecap:round; stroke-linejoin:round; stroke-width:4; stroke-opacity:1; fill:none" points="
  172.001,480.777 190.899,480.777 
  "/>
<polyline clip-path="url(#clip010)" style="stroke:#000000; stroke-linecap:round; stroke-linejoin:round; stroke-width:4; stroke-opacity:1; fill:none" points="
  172.001,78.9111 190.899,78.9111 
  "/>
<path clip-path="url(#clip010)" d="M119.737 1672.17 Q116.126 1672.17 114.297 1675.74 Q112.492 1679.28 112.492 1686.41 Q112.492 1693.52 114.297 1697.08 Q116.126 1700.62 119.737 1700.62 Q123.371 1700.62 125.177 1697.08 Q127.005 1693.52 127.005 1686.41 Q127.005 1679.28 125.177 1675.74 Q123.371 1672.17 119.737 1672.17 M119.737 1668.47 Q125.547 1668.47 128.603 1673.08 Q131.681 1677.66 131.681 1686.41 Q131.681 1695.14 128.603 1699.74 Q125.547 1704.33 119.737 1704.33 Q113.927 1704.33 110.848 1699.74 Q107.793 1695.14 107.793 1686.41 Q107.793 1677.66 110.848 1673.08 Q113.927 1668.47 119.737 1668.47 Z" fill="#000000" fill-rule="evenodd" fill-opacity="1" /><path clip-path="url(#clip010)" d="M84.5982 1297.85 L100.918 1297.85 L100.918 1301.79 L78.9733 1301.79 L78.9733 1297.85 Q81.6353 1295.1 86.2186 1290.47 Q90.8251 1285.82 92.0056 1284.47 Q94.251 1281.95 95.1306 1280.22 Q96.0334 1278.46 96.0334 1276.77 Q96.0334 1274.01 94.0889 1272.28 Q92.1676 1270.54 89.0658 1270.54 Q86.8667 1270.54 84.4131 1271.3 Q81.9825 1272.07 79.2047 1273.62 L79.2047 1268.9 Q82.0288 1267.76 84.4825 1267.18 Q86.9362 1266.6 88.9732 1266.6 Q94.3436 1266.6 97.538 1269.29 Q100.732 1271.97 100.732 1276.47 Q100.732 1278.59 99.9222 1280.52 Q99.1352 1282.41 97.0287 1285.01 Q96.45 1285.68 93.3482 1288.9 Q90.2464 1292.09 84.5982 1297.85 Z" fill="#000000" fill-rule="evenodd" fill-opacity="1" /><path clip-path="url(#clip010)" d="M110.779 1267.23 L129.135 1267.23 L129.135 1271.16 L115.061 1271.16 L115.061 1279.64 Q116.08 1279.29 117.098 1279.13 Q118.117 1278.94 119.135 1278.94 Q124.922 1278.94 128.302 1282.11 Q131.681 1285.28 131.681 1290.7 Q131.681 1296.28 128.209 1299.38 Q124.737 1302.46 118.417 1302.46 Q116.242 1302.46 113.973 1302.09 Q111.728 1301.72 109.32 1300.98 L109.32 1296.28 Q111.404 1297.41 113.626 1297.97 Q115.848 1298.53 118.325 1298.53 Q122.33 1298.53 124.667 1296.42 Q127.005 1294.31 127.005 1290.7 Q127.005 1287.09 124.667 1284.98 Q122.33 1282.88 118.325 1282.88 Q116.45 1282.88 114.575 1283.29 Q112.723 1283.71 110.779 1284.59 L110.779 1267.23 Z" fill="#000000" fill-rule="evenodd" fill-opacity="1" /><path clip-path="url(#clip010)" d="M79.6214 865.363 L97.9778 865.363 L97.9778 869.298 L83.9038 869.298 L83.9038 877.771 Q84.9223 877.423 85.9408 877.261 Q86.9593 877.076 87.9778 877.076 Q93.7649 877.076 97.1445 880.247 Q100.524 883.419 100.524 888.835 Q100.524 894.414 97.0519 897.516 Q93.5797 900.595 87.2603 900.595 Q85.0843 900.595 82.8158 900.224 Q80.5705 899.854 78.1631 899.113 L78.1631 894.414 Q80.2464 895.548 82.4686 896.104 Q84.6908 896.659 87.1677 896.659 Q91.1723 896.659 93.5102 894.553 Q95.8482 892.446 95.8482 888.835 Q95.8482 885.224 93.5102 883.118 Q91.1723 881.011 87.1677 881.011 Q85.2927 881.011 83.4177 881.428 Q81.5658 881.845 79.6214 882.724 L79.6214 865.363 Z" fill="#000000" fill-rule="evenodd" fill-opacity="1" /><path clip-path="url(#clip010)" d="M119.737 868.442 Q116.126 868.442 114.297 872.007 Q112.492 875.548 112.492 882.678 Q112.492 889.784 114.297 893.349 Q116.126 896.891 119.737 896.891 Q123.371 896.891 125.177 893.349 Q127.005 889.784 127.005 882.678 Q127.005 875.548 125.177 872.007 Q123.371 868.442 119.737 868.442 M119.737 864.738 Q125.547 864.738 128.603 869.345 Q131.681 873.928 131.681 882.678 Q131.681 891.405 128.603 896.011 Q125.547 900.595 119.737 900.595 Q113.927 900.595 110.848 896.011 Q107.793 891.405 107.793 882.678 Q107.793 873.928 110.848 869.345 Q113.927 864.738 119.737 864.738 Z" fill="#000000" fill-rule="evenodd" fill-opacity="1" /><path clip-path="url(#clip010)" d="M79.3899 463.497 L101.612 463.497 L101.612 465.488 L89.0658 498.057 L84.1816 498.057 L95.9871 467.432 L79.3899 467.432 L79.3899 463.497 Z" fill="#000000" fill-rule="evenodd" fill-opacity="1" /><path clip-path="url(#clip010)" d="M110.779 463.497 L129.135 463.497 L129.135 467.432 L115.061 467.432 L115.061 475.905 Q116.08 475.557 117.098 475.395 Q118.117 475.21 119.135 475.21 Q124.922 475.21 128.302 478.381 Q131.681 481.553 131.681 486.969 Q131.681 492.548 128.209 495.65 Q124.737 498.728 118.417 498.728 Q116.242 498.728 113.973 498.358 Q111.728 497.988 109.32 497.247 L109.32 492.548 Q111.404 493.682 113.626 494.238 Q115.848 494.793 118.325 494.793 Q122.33 494.793 124.667 492.687 Q127.005 490.58 127.005 486.969 Q127.005 483.358 124.667 481.252 Q122.33 479.145 118.325 479.145 Q116.45 479.145 114.575 479.562 Q112.723 479.979 110.779 480.858 L110.779 463.497 Z" fill="#000000" fill-rule="evenodd" fill-opacity="1" /><path clip-path="url(#clip010)" d="M50.2234 92.256 L57.8623 92.256 L57.8623 65.8904 L49.5521 67.557 L49.5521 63.2978 L57.816 61.6311 L62.4919 61.6311 L62.4919 92.256 L70.1307 92.256 L70.1307 96.1911 L50.2234 96.1911 L50.2234 92.256 Z" fill="#000000" fill-rule="evenodd" fill-opacity="1" /><path clip-path="url(#clip010)" d="M89.5751 64.7098 Q85.964 64.7098 84.1353 68.2746 Q82.3297 71.8163 82.3297 78.9459 Q82.3297 86.0523 84.1353 89.6171 Q85.964 93.1587 89.5751 93.1587 Q93.2093 93.1587 95.0148 89.6171 Q96.8435 86.0523 96.8435 78.9459 Q96.8435 71.8163 95.0148 68.2746 Q93.2093 64.7098 89.5751 64.7098 M89.5751 61.0061 Q95.3852 61.0061 98.4408 65.6126 Q101.519 70.1959 101.519 78.9459 Q101.519 87.6727 98.4408 92.2791 Q95.3852 96.8624 89.5751 96.8624 Q83.7649 96.8624 80.6862 92.2791 Q77.6307 87.6727 77.6307 78.9459 Q77.6307 70.1959 80.6862 65.6126 Q83.7649 61.0061 89.5751 61.0061 Z" fill="#000000" fill-rule="evenodd" fill-opacity="1" /><path clip-path="url(#clip010)" d="M119.737 64.7098 Q116.126 64.7098 114.297 68.2746 Q112.492 71.8163 112.492 78.9459 Q112.492 86.0523 114.297 89.6171 Q116.126 93.1587 119.737 93.1587 Q123.371 93.1587 125.177 89.6171 Q127.005 86.0523 127.005 78.9459 Q127.005 71.8163 125.177 68.2746 Q123.371 64.7098 119.737 64.7098 M119.737 61.0061 Q125.547 61.0061 128.603 65.6126 Q131.681 70.1959 131.681 78.9459 Q131.681 87.6727 128.603 92.2791 Q125.547 96.8624 119.737 96.8624 Q113.927 96.8624 110.848 92.2791 Q107.793 87.6727 107.793 78.9459 Q107.793 70.1959 110.848 65.6126 Q113.927 61.0061 119.737 61.0061 Z" fill="#000000" fill-rule="evenodd" fill-opacity="1" /><path clip-path="url(#clip012)" d="
M224.24 1606 L224.24 1686.38 L337.604 1686.38 L337.604 1606 L224.24 1606 L224.24 1606  Z
  " fill="#009af9" fill-rule="evenodd" fill-opacity="1"/>
<polyline clip-path="url(#clip012)" style="stroke:#000000; stroke-linecap:round; stroke-linejoin:round; stroke-width:4; stroke-opacity:1; fill:none" points="
  224.24,1606 224.24,1686.38 337.604,1686.38 337.604,1606 224.24,1606 
  "/>
<path clip-path="url(#clip012)" d="
M791.061 1589.93 L791.061 1686.38 L904.425 1686.38 L904.425 1589.93 L791.061 1589.93 L791.061 1589.93  Z
  " fill="#009af9" fill-rule="evenodd" fill-opacity="1"/>
<polyline clip-path="url(#clip012)" style="stroke:#000000; stroke-linecap:round; stroke-linejoin:round; stroke-width:4; stroke-opacity:1; fill:none" points="
  791.061,1589.93 791.061,1686.38 904.425,1686.38 904.425,1589.93 791.061,1589.93 
  "/>
<circle clip-path="url(#clip012)" style="fill:#009af9; stroke:none; fill-opacity:0" cx="280.922" cy="1606" r="2"/>
<circle clip-path="url(#clip012)" style="fill:#009af9; stroke:none; fill-opacity:0" cx="847.743" cy="1589.93" r="2"/>
<path clip-path="url(#clip012)" d="
M337.604 94.9858 L337.604 1686.38 L450.968 1686.38 L450.968 94.9858 L337.604 94.9858 L337.604 94.9858  Z
  " fill="#e26f46" fill-rule="evenodd" fill-opacity="1"/>
<polyline clip-path="url(#clip012)" style="stroke:#000000; stroke-linecap:round; stroke-linejoin:round; stroke-width:4; stroke-opacity:1; fill:none" points="
  337.604,94.9858 337.604,1686.38 450.968,1686.38 450.968,94.9858 337.604,94.9858 
  "/>
<path clip-path="url(#clip012)" d="
M904.425 255.732 L904.425 1686.38 L1017.79 1686.38 L1017.79 255.732 L904.425 255.732 L904.425 255.732  Z
  " fill="#e26f46" fill-rule="evenodd" fill-opacity="1"/>
<polyline clip-path="url(#clip012)" style="stroke:#000000; stroke-linecap:round; stroke-linejoin:round; stroke-width:4; stroke-opacity:1; fill:none" points="
  904.425,255.732 904.425,1686.38 1017.79,1686.38 1017.79,255.732 904.425,255.732 
  "/>
<circle clip-path="url(#clip012)" style="fill:#e26f46; stroke:none; fill-opacity:0" cx="394.286" cy="94.9858" r="2"/>
<circle clip-path="url(#clip012)" style="fill:#e26f46; stroke:none; fill-opacity:0" cx="961.107" cy="255.732" r="2"/>
<path clip-path="url(#clip012)" d="
M450.968 1541.7 L450.968 1686.38 L564.332 1686.38 L564.332 1541.7 L450.968 1541.7 L450.968 1541.7  Z
  " fill="#3da44d" fill-rule="evenodd" fill-opacity="1"/>
<polyline clip-path="url(#clip012)" style="stroke:#000000; stroke-linecap:round; stroke-linejoin:round; stroke-width:4; stroke-opacity:1; fill:none" points="
  450.968,1541.7 450.968,1686.38 564.332,1686.38 564.332,1541.7 450.968,1541.7 
  "/>
<path clip-path="url(#clip012)" d="
M1017.79 1525.63 L1017.79 1686.38 L1131.15 1686.38 L1131.15 1525.63 L1017.79 1525.63 L1017.79 1525.63  Z
  " fill="#3da44d" fill-rule="evenodd" fill-opacity="1"/>
<polyline clip-path="url(#clip012)" style="stroke:#000000; stroke-linecap:round; stroke-linejoin:round; stroke-width:4; stroke-opacity:1; fill:none" points="
  1017.79,1525.63 1017.79,1686.38 1131.15,1686.38 1131.15,1525.63 1017.79,1525.63 
  "/>
<circle clip-path="url(#clip012)" style="fill:#3da44d; stroke:none; fill-opacity:0" cx="507.65" cy="1541.7" r="2"/>
<circle clip-path="url(#clip012)" style="fill:#3da44d; stroke:none; fill-opacity:0" cx="1074.47" cy="1525.63" r="2"/>
<path clip-path="url(#clip012)" d="
M564.332 1606 L564.332 1686.38 L677.696 1686.38 L677.696 1606 L564.332 1606 L564.332 1606  Z
  " fill="#c271d2" fill-rule="evenodd" fill-opacity="1"/>
<polyline clip-path="url(#clip012)" style="stroke:#000000; stroke-linecap:round; stroke-linejoin:round; stroke-width:4; stroke-opacity:1; fill:none" points="
  564.332,1606 564.332,1686.38 677.696,1686.38 677.696,1606 564.332,1606 
  "/>
<path clip-path="url(#clip012)" d="
M1131.15 1493.48 L1131.15 1686.38 L1244.52 1686.38 L1244.52 1493.48 L1131.15 1493.48 L1131.15 1493.48  Z
  " fill="#c271d2" fill-rule="evenodd" fill-opacity="1"/>
<polyline clip-path="url(#clip012)" style="stroke:#000000; stroke-linecap:round; stroke-linejoin:round; stroke-width:4; stroke-opacity:1; fill:none" points="
  1131.15,1493.48 1131.15,1686.38 1244.52,1686.38 1244.52,1493.48 1131.15,1493.48 
  "/>
<circle clip-path="url(#clip012)" style="fill:#c271d2; stroke:none; fill-opacity:0" cx="621.014" cy="1606" r="2"/>
<circle clip-path="url(#clip012)" style="fill:#c271d2; stroke:none; fill-opacity:0" cx="1187.84" cy="1493.48" r="2"/>
<path clip-path="url(#clip010)" d="
M1002.88 362.673 L1259.26 362.673 L1259.26 103.473 L1002.88 103.473  Z
  " fill="#ffffff" fill-rule="evenodd" fill-opacity="1"/>
<polyline clip-path="url(#clip010)" style="stroke:#000000; stroke-linecap:round; stroke-linejoin:round; stroke-width:4; stroke-opacity:1; fill:none" points="
  1002.88,362.673 1259.26,362.673 1259.26,103.473 1002.88,103.473 1002.88,362.673 
  "/>
<path clip-path="url(#clip010)" d="
M1015.37 176.049 L1090.36 176.049 L1090.36 134.577 L1015.37 134.577 L1015.37 176.049  Z
  " fill="#009af9" fill-rule="evenodd" fill-opacity="1"/>
<polyline clip-path="url(#clip010)" style="stroke:#000000; stroke-linecap:round; stroke-linejoin:round; stroke-width:4; stroke-opacity:1; fill:none" points="
  1015.37,176.049 1090.36,176.049 1090.36,134.577 1015.37,134.577 1015.37,176.049 
  "/>
<path clip-path="url(#clip010)" d="M1102.86 138.033 L1107.53 138.033 L1107.53 152.2 L1124.52 152.2 L1124.52 138.033 L1129.2 138.033 L1129.2 172.593 L1124.52 172.593 L1124.52 156.135 L1107.53 156.135 L1107.53 172.593 L1102.86 172.593 L1102.86 138.033 Z" fill="#000000" fill-rule="evenodd" fill-opacity="1" /><path clip-path="url(#clip010)" d="M1160.49 158.565 L1160.49 160.649 L1140.91 160.649 Q1141.19 165.047 1143.55 167.362 Q1145.93 169.653 1150.17 169.653 Q1152.62 169.653 1154.92 169.052 Q1157.23 168.45 1159.5 167.246 L1159.5 171.274 Q1157.21 172.246 1154.8 172.755 Q1152.39 173.264 1149.92 173.264 Q1143.71 173.264 1140.08 169.653 Q1136.47 166.042 1136.47 159.885 Q1136.47 153.519 1139.89 149.792 Q1143.34 146.042 1149.17 146.042 Q1154.41 146.042 1157.44 149.422 Q1160.49 152.778 1160.49 158.565 M1156.23 157.315 Q1156.19 153.82 1154.27 151.737 Q1152.37 149.653 1149.22 149.653 Q1145.66 149.653 1143.5 151.667 Q1141.37 153.681 1141.05 157.339 L1156.23 157.315 Z" fill="#000000" fill-rule="evenodd" fill-opacity="1" /><path clip-path="url(#clip010)" d="M1179.27 159.561 Q1174.11 159.561 1172.11 160.741 Q1170.12 161.922 1170.12 164.769 Q1170.12 167.038 1171.61 168.38 Q1173.11 169.7 1175.68 169.7 Q1179.22 169.7 1181.35 167.2 Q1183.5 164.677 1183.5 160.51 L1183.5 159.561 L1179.27 159.561 M1187.76 157.802 L1187.76 172.593 L1183.5 172.593 L1183.5 168.658 Q1182.04 171.019 1179.87 172.153 Q1177.69 173.264 1174.54 173.264 Q1170.56 173.264 1168.2 171.042 Q1165.86 168.797 1165.86 165.047 Q1165.86 160.672 1168.78 158.45 Q1171.72 156.228 1177.53 156.228 L1183.5 156.228 L1183.5 155.811 Q1183.5 152.871 1181.56 151.274 Q1179.64 149.653 1176.14 149.653 Q1173.92 149.653 1171.81 150.186 Q1169.71 150.718 1167.76 151.783 L1167.76 147.848 Q1170.1 146.945 1172.3 146.505 Q1174.5 146.042 1176.58 146.042 Q1182.21 146.042 1184.98 148.959 Q1187.76 151.876 1187.76 157.802 Z" fill="#000000" fill-rule="evenodd" fill-opacity="1" /><path clip-path="url(#clip010)" d="M1193.48 146.667 L1197.99 146.667 L1206.1 168.427 L1214.2 146.667 L1218.71 146.667 L1208.99 172.593 L1203.2 172.593 L1193.48 146.667 Z" fill="#000000" fill-rule="evenodd" fill-opacity="1" /><path clip-path="url(#clip010)" d="M1235.38 175.001 Q1233.57 179.63 1231.86 181.042 Q1230.15 182.454 1227.28 182.454 L1223.87 182.454 L1223.87 178.889 L1226.37 178.889 Q1228.13 178.889 1229.1 178.056 Q1230.08 177.223 1231.26 174.121 L1232.02 172.177 L1221.54 146.667 L1226.05 146.667 L1234.15 166.945 L1242.25 146.667 L1246.77 146.667 L1235.38 175.001 Z" fill="#000000" fill-rule="evenodd" fill-opacity="1" /><path clip-path="url(#clip010)" d="
M1015.37 227.889 L1090.36 227.889 L1090.36 186.417 L1015.37 186.417 L1015.37 227.889  Z
  " fill="#e26f46" fill-rule="evenodd" fill-opacity="1"/>
<polyline clip-path="url(#clip010)" style="stroke:#000000; stroke-linecap:round; stroke-linejoin:round; stroke-width:4; stroke-opacity:1; fill:none" points="
  1015.37,227.889 1090.36,227.889 1090.36,186.417 1015.37,186.417 1015.37,227.889 
  "/>
<path clip-path="url(#clip010)" d="M1102.86 189.873 L1109.15 189.873 L1124.48 218.785 L1124.48 189.873 L1129.01 189.873 L1129.01 224.433 L1122.72 224.433 L1107.39 195.521 L1107.39 224.433 L1102.86 224.433 L1102.86 189.873 Z" fill="#000000" fill-rule="evenodd" fill-opacity="1" /><path clip-path="url(#clip010)" d="M1160.31 210.405 L1160.31 212.489 L1140.73 212.489 Q1141 216.887 1143.36 219.202 Q1145.75 221.493 1149.98 221.493 Q1152.44 221.493 1154.73 220.892 Q1157.05 220.29 1159.31 219.086 L1159.31 223.114 Q1157.02 224.086 1154.61 224.595 Q1152.21 225.104 1149.73 225.104 Q1143.53 225.104 1139.89 221.493 Q1136.28 217.882 1136.28 211.725 Q1136.28 205.359 1139.71 201.632 Q1143.16 197.882 1148.99 197.882 Q1154.22 197.882 1157.25 201.262 Q1160.31 204.618 1160.31 210.405 M1156.05 209.155 Q1156 205.66 1154.08 203.577 Q1152.18 201.493 1149.04 201.493 Q1145.47 201.493 1143.32 203.507 Q1141.19 205.521 1140.86 209.179 L1156.05 209.155 Z" fill="#000000" fill-rule="evenodd" fill-opacity="1" /><path clip-path="url(#clip010)" d="M1164.24 198.507 L1168.76 198.507 L1176.86 220.267 L1184.96 198.507 L1189.48 198.507 L1179.75 224.433 L1173.97 224.433 L1164.24 198.507 Z" fill="#000000" fill-rule="evenodd" fill-opacity="1" /><path clip-path="url(#clip010)" d="M1217.53 210.405 L1217.53 212.489 L1197.95 212.489 Q1198.23 216.887 1200.59 219.202 Q1202.97 221.493 1207.21 221.493 Q1209.66 221.493 1211.95 220.892 Q1214.27 220.29 1216.54 219.086 L1216.54 223.114 Q1214.24 224.086 1211.84 224.595 Q1209.43 225.104 1206.95 225.104 Q1200.75 225.104 1197.11 221.493 Q1193.5 217.882 1193.5 211.725 Q1193.5 205.359 1196.93 201.632 Q1200.38 197.882 1206.21 197.882 Q1211.44 197.882 1214.48 201.262 Q1217.53 204.618 1217.53 210.405 M1213.27 209.155 Q1213.23 205.66 1211.3 203.577 Q1209.41 201.493 1206.26 201.493 Q1202.69 201.493 1200.54 203.507 Q1198.41 205.521 1198.09 209.179 L1213.27 209.155 Z" fill="#000000" fill-rule="evenodd" fill-opacity="1" /><path clip-path="url(#clip010)" d="M1239.54 202.489 Q1238.83 202.072 1237.97 201.887 Q1237.14 201.679 1236.12 201.679 Q1232.51 201.679 1230.56 204.04 Q1228.64 206.378 1228.64 210.776 L1228.64 224.433 L1224.36 224.433 L1224.36 198.507 L1228.64 198.507 L1228.64 202.535 Q1229.98 200.174 1232.14 199.04 Q1234.29 197.882 1237.37 197.882 Q1237.81 197.882 1238.34 197.952 Q1238.87 197.998 1239.52 198.114 L1239.54 202.489 Z" fill="#000000" fill-rule="evenodd" fill-opacity="1" /><path clip-path="url(#clip010)" d="
M1015.37 279.729 L1090.36 279.729 L1090.36 238.257 L1015.37 238.257 L1015.37 279.729  Z
  " fill="#3da44d" fill-rule="evenodd" fill-opacity="1"/>
<polyline clip-path="url(#clip010)" style="stroke:#000000; stroke-linecap:round; stroke-linejoin:round; stroke-width:4; stroke-opacity:1; fill:none" points="
  1015.37,279.729 1090.36,279.729 1090.36,238.257 1015.37,238.257 1015.37,279.729 
  "/>
<path clip-path="url(#clip010)" d="M1118.87 244.884 Q1113.78 244.884 1110.77 248.681 Q1107.79 252.477 1107.79 259.028 Q1107.79 265.556 1110.77 269.352 Q1113.78 273.148 1118.87 273.148 Q1123.97 273.148 1126.93 269.352 Q1129.92 265.556 1129.92 259.028 Q1129.92 252.477 1126.93 248.681 Q1123.97 244.884 1118.87 244.884 M1118.87 241.088 Q1126.14 241.088 1130.49 245.972 Q1134.85 250.834 1134.85 259.028 Q1134.85 267.199 1130.49 272.083 Q1126.14 276.944 1118.87 276.944 Q1111.58 276.944 1107.21 272.083 Q1102.86 267.222 1102.86 259.028 Q1102.86 250.834 1107.21 245.972 Q1111.58 241.088 1118.87 241.088 Z" fill="#000000" fill-rule="evenodd" fill-opacity="1" /><path clip-path="url(#clip010)" d="M1160.63 251.343 L1160.63 255.324 Q1158.83 254.329 1157 253.843 Q1155.19 253.333 1153.34 253.333 Q1149.2 253.333 1146.91 255.972 Q1144.61 258.588 1144.61 263.333 Q1144.61 268.079 1146.91 270.718 Q1149.2 273.333 1153.34 273.333 Q1155.19 273.333 1157 272.847 Q1158.83 272.338 1160.63 271.343 L1160.63 275.278 Q1158.85 276.111 1156.93 276.528 Q1155.03 276.944 1152.88 276.944 Q1147.02 276.944 1143.57 273.264 Q1140.12 269.583 1140.12 263.333 Q1140.12 256.991 1143.6 253.357 Q1147.09 249.722 1153.16 249.722 Q1155.12 249.722 1157 250.139 Q1158.87 250.533 1160.63 251.343 Z" fill="#000000" fill-rule="evenodd" fill-opacity="1" /><path clip-path="url(#clip010)" d="M1186.7 251.343 L1186.7 255.324 Q1184.89 254.329 1183.06 253.843 Q1181.26 253.333 1179.41 253.333 Q1175.26 253.333 1172.97 255.972 Q1170.68 258.588 1170.68 263.333 Q1170.68 268.079 1172.97 270.718 Q1175.26 273.333 1179.41 273.333 Q1181.26 273.333 1183.06 272.847 Q1184.89 272.338 1186.7 271.343 L1186.7 275.278 Q1184.92 276.111 1182.99 276.528 Q1181.1 276.944 1178.94 276.944 Q1173.09 276.944 1169.64 273.264 Q1166.19 269.583 1166.19 263.333 Q1166.19 256.991 1169.66 253.357 Q1173.16 249.722 1179.22 249.722 Q1181.19 249.722 1183.06 250.139 Q1184.94 250.533 1186.7 251.343 Z" fill="#000000" fill-rule="evenodd" fill-opacity="1" /><path clip-path="url(#clip010)" d="M1205.89 263.241 Q1200.73 263.241 1198.73 264.421 Q1196.74 265.602 1196.74 268.449 Q1196.74 270.718 1198.23 272.06 Q1199.73 273.38 1202.3 273.38 Q1205.84 273.38 1207.97 270.88 Q1210.12 268.357 1210.12 264.19 L1210.12 263.241 L1205.89 263.241 M1214.38 261.482 L1214.38 276.273 L1210.12 276.273 L1210.12 272.338 Q1208.67 274.699 1206.49 275.833 Q1204.31 276.944 1201.17 276.944 Q1197.18 276.944 1194.82 274.722 Q1192.48 272.477 1192.48 268.727 Q1192.48 264.352 1195.4 262.13 Q1198.34 259.908 1204.15 259.908 L1210.12 259.908 L1210.12 259.491 Q1210.12 256.551 1208.18 254.954 Q1206.26 253.333 1202.76 253.333 Q1200.54 253.333 1198.43 253.866 Q1196.33 254.398 1194.38 255.463 L1194.38 251.528 Q1196.72 250.625 1198.92 250.185 Q1201.12 249.722 1203.2 249.722 Q1208.83 249.722 1211.6 252.639 Q1214.38 255.556 1214.38 261.482 Z" fill="#000000" fill-rule="evenodd" fill-opacity="1" /><path clip-path="url(#clip010)" d="M1239.68 251.111 L1239.68 255.139 Q1237.88 254.213 1235.93 253.75 Q1233.99 253.287 1231.91 253.287 Q1228.73 253.287 1227.14 254.259 Q1225.56 255.232 1225.56 257.176 Q1225.56 258.658 1226.7 259.514 Q1227.83 260.347 1231.26 261.111 L1232.72 261.435 Q1237.25 262.408 1239.15 264.19 Q1241.07 265.949 1241.07 269.12 Q1241.07 272.732 1238.2 274.838 Q1235.35 276.944 1230.35 276.944 Q1228.27 276.944 1226 276.528 Q1223.76 276.134 1221.26 275.324 L1221.26 270.926 Q1223.62 272.153 1225.91 272.778 Q1228.2 273.38 1230.45 273.38 Q1233.46 273.38 1235.08 272.361 Q1236.7 271.32 1236.7 269.445 Q1236.7 267.708 1235.52 266.783 Q1234.36 265.857 1230.4 265 L1228.92 264.653 Q1224.96 263.82 1223.2 262.107 Q1221.44 260.37 1221.44 257.361 Q1221.44 253.704 1224.04 251.713 Q1226.63 249.722 1231.4 249.722 Q1233.76 249.722 1235.84 250.07 Q1237.92 250.417 1239.68 251.111 Z" fill="#000000" fill-rule="evenodd" fill-opacity="1" /><path clip-path="url(#clip010)" d="
M1015.37 331.569 L1090.36 331.569 L1090.36 290.097 L1015.37 290.097 L1015.37 331.569  Z
  " fill="#c271d2" fill-rule="evenodd" fill-opacity="1"/>
<polyline clip-path="url(#clip010)" style="stroke:#000000; stroke-linecap:round; stroke-linejoin:round; stroke-width:4; stroke-opacity:1; fill:none" points="
  1015.37,331.569 1090.36,331.569 1090.36,290.097 1015.37,290.097 1015.37,331.569 
  "/>
<path clip-path="url(#clip010)" d="M1119.24 311.91 Q1120.75 312.419 1122.16 314.085 Q1123.6 315.752 1125.03 318.669 L1129.78 328.113 L1124.75 328.113 L1120.33 319.247 Q1118.62 315.775 1117 314.641 Q1115.4 313.507 1112.62 313.507 L1107.53 313.507 L1107.53 328.113 L1102.86 328.113 L1102.86 293.553 L1113.41 293.553 Q1119.34 293.553 1122.25 296.03 Q1125.17 298.507 1125.17 303.507 Q1125.17 306.771 1123.64 308.923 Q1122.14 311.076 1119.24 311.91 M1107.53 297.396 L1107.53 309.664 L1113.41 309.664 Q1116.79 309.664 1118.5 308.113 Q1120.24 306.539 1120.24 303.507 Q1120.24 300.474 1118.5 298.947 Q1116.79 297.396 1113.41 297.396 L1107.53 297.396 Z" fill="#000000" fill-rule="evenodd" fill-opacity="1" /><path clip-path="url(#clip010)" d="M1155.66 314.085 L1155.66 316.169 L1136.07 316.169 Q1136.35 320.567 1138.71 322.882 Q1141.1 325.173 1145.33 325.173 Q1147.79 325.173 1150.08 324.572 Q1152.39 323.97 1154.66 322.766 L1154.66 326.794 Q1152.37 327.766 1149.96 328.275 Q1147.55 328.784 1145.08 328.784 Q1138.87 328.784 1135.24 325.173 Q1131.63 321.562 1131.63 315.405 Q1131.63 309.039 1135.05 305.312 Q1138.5 301.562 1144.34 301.562 Q1149.57 301.562 1152.6 304.942 Q1155.66 308.298 1155.66 314.085 M1151.4 312.835 Q1151.35 309.34 1149.43 307.257 Q1147.53 305.173 1144.38 305.173 Q1140.82 305.173 1138.67 307.187 Q1136.54 309.201 1136.21 312.859 L1151.4 312.835 Z" fill="#000000" fill-rule="evenodd" fill-opacity="1" /><path clip-path="url(#clip010)" d="M1179.71 314.849 Q1179.71 310.22 1177.79 307.673 Q1175.89 305.127 1172.44 305.127 Q1169.01 305.127 1167.09 307.673 Q1165.19 310.22 1165.19 314.849 Q1165.19 319.456 1167.09 322.002 Q1169.01 324.548 1172.44 324.548 Q1175.89 324.548 1177.79 322.002 Q1179.71 319.456 1179.71 314.849 M1183.97 324.896 Q1183.97 331.516 1181.03 334.734 Q1178.09 337.974 1172.02 337.974 Q1169.78 337.974 1167.79 337.627 Q1165.8 337.303 1163.92 336.609 L1163.92 332.465 Q1165.8 333.484 1167.62 333.97 Q1169.45 334.456 1171.35 334.456 Q1175.54 334.456 1177.62 332.257 Q1179.71 330.081 1179.71 325.66 L1179.71 323.553 Q1178.39 325.845 1176.33 326.979 Q1174.27 328.113 1171.4 328.113 Q1166.63 328.113 1163.71 324.479 Q1160.8 320.845 1160.8 314.849 Q1160.8 308.831 1163.71 305.197 Q1166.63 301.562 1171.4 301.562 Q1174.27 301.562 1176.33 302.697 Q1178.39 303.831 1179.71 306.123 L1179.71 302.187 L1183.97 302.187 L1183.97 324.896 Z" fill="#000000" fill-rule="evenodd" fill-opacity="1" /><path clip-path="url(#clip010)" d="M1192.3 317.882 L1192.3 302.187 L1196.56 302.187 L1196.56 317.72 Q1196.56 321.4 1197.99 323.252 Q1199.43 325.081 1202.3 325.081 Q1205.75 325.081 1207.74 322.882 Q1209.75 320.683 1209.75 316.886 L1209.75 302.187 L1214.01 302.187 L1214.01 328.113 L1209.75 328.113 L1209.75 324.132 Q1208.2 326.493 1206.14 327.65 Q1204.11 328.784 1201.4 328.784 Q1196.93 328.784 1194.61 326.007 Q1192.3 323.229 1192.3 317.882 M1203.02 301.562 L1203.02 301.562 Z" fill="#000000" fill-rule="evenodd" fill-opacity="1" /><path clip-path="url(#clip010)" d="M1222.79 292.095 L1227.04 292.095 L1227.04 328.113 L1222.79 328.113 L1222.79 292.095 Z" fill="#000000" fill-rule="evenodd" fill-opacity="1" /><path clip-path="url(#clip010)" d="
M1516 1734.12 L2640.76 1734.12 L2640.76 47.2441 L1516 47.2441  Z
  " fill="#ffffff" fill-rule="evenodd" fill-opacity="1"/>
<defs>
  <clipPath id="clip013">
    <rect x="1516" y="47" width="1126" height="1688"/>
  </clipPath>
</defs>
<polyline clip-path="url(#clip013)" style="stroke:#000000; stroke-linecap:round; stroke-linejoin:round; stroke-width:2; stroke-opacity:0.1; fill:none" points="
  1800.32,1734.12 1800.32,47.2441 
  "/>
<polyline clip-path="url(#clip013)" style="stroke:#000000; stroke-linecap:round; stroke-linejoin:round; stroke-width:2; stroke-opacity:0.1; fill:none" points="
  2356.44,1734.12 2356.44,47.2441 
  "/>
<polyline clip-path="url(#clip010)" style="stroke:#000000; stroke-linecap:round; stroke-linejoin:round; stroke-width:4; stroke-opacity:1; fill:none" points="
  1516,1734.12 2640.76,1734.12 
  "/>
<polyline clip-path="url(#clip010)" style="stroke:#000000; stroke-linecap:round; stroke-linejoin:round; stroke-width:4; stroke-opacity:1; fill:none" points="
  1800.32,1734.12 1800.32,1715.22 
  "/>
<polyline clip-path="url(#clip010)" style="stroke:#000000; stroke-linecap:round; stroke-linejoin:round; stroke-width:4; stroke-opacity:1; fill:none" points="
  2356.44,1734.12 2356.44,1715.22 
  "/>
<path clip-path="url(#clip010)" d="M1718.2 1764.26 L1738.06 1764.26 L1738.06 1768.2 L1722.87 1768.2 L1722.87 1778.38 L1736.58 1778.38 L1736.58 1782.32 L1722.87 1782.32 L1722.87 1798.82 L1718.2 1798.82 L1718.2 1764.26 Z" fill="#000000" fill-rule="evenodd" fill-opacity="1" /><path clip-path="url(#clip010)" d="M1764.86 1784.79 L1764.86 1786.88 L1745.28 1786.88 Q1745.56 1791.27 1747.92 1793.59 Q1750.3 1795.88 1754.54 1795.88 Q1756.99 1795.88 1759.29 1795.28 Q1761.6 1794.68 1763.87 1793.47 L1763.87 1797.5 Q1761.58 1798.47 1759.17 1798.98 Q1756.76 1799.49 1754.29 1799.49 Q1748.08 1799.49 1744.45 1795.88 Q1740.84 1792.27 1740.84 1786.11 Q1740.84 1779.75 1744.26 1776.02 Q1747.71 1772.27 1753.54 1772.27 Q1758.78 1772.27 1761.81 1775.65 Q1764.86 1779.01 1764.86 1784.79 M1760.6 1783.54 Q1760.56 1780.05 1758.64 1777.96 Q1756.74 1775.88 1753.59 1775.88 Q1750.03 1775.88 1747.87 1777.9 Q1745.74 1779.91 1745.42 1783.57 L1760.6 1783.54 Z" fill="#000000" fill-rule="evenodd" fill-opacity="1" /><path clip-path="url(#clip010)" d="M1792.04 1777.87 Q1793.64 1775 1795.86 1773.64 Q1798.08 1772.27 1801.09 1772.27 Q1805.14 1772.27 1807.34 1775.12 Q1809.54 1777.94 1809.54 1783.17 L1809.54 1798.82 L1805.26 1798.82 L1805.26 1783.31 Q1805.26 1779.58 1803.94 1777.78 Q1802.62 1775.97 1799.91 1775.97 Q1796.6 1775.97 1794.68 1778.17 Q1792.76 1780.37 1792.76 1784.17 L1792.76 1798.82 L1788.48 1798.82 L1788.48 1783.31 Q1788.48 1779.56 1787.16 1777.78 Q1785.84 1775.97 1783.08 1775.97 Q1779.82 1775.97 1777.9 1778.2 Q1775.98 1780.4 1775.98 1784.17 L1775.98 1798.82 L1771.69 1798.82 L1771.69 1772.9 L1775.98 1772.9 L1775.98 1776.92 Q1777.43 1774.54 1779.47 1773.4 Q1781.51 1772.27 1784.31 1772.27 Q1787.13 1772.27 1789.1 1773.71 Q1791.09 1775.14 1792.04 1777.87 Z" fill="#000000" fill-rule="evenodd" fill-opacity="1" /><path clip-path="url(#clip010)" d="M1829.82 1785.79 Q1824.66 1785.79 1822.66 1786.97 Q1820.67 1788.15 1820.67 1791 Q1820.67 1793.27 1822.16 1794.61 Q1823.66 1795.93 1826.23 1795.93 Q1829.77 1795.93 1831.9 1793.43 Q1834.05 1790.9 1834.05 1786.74 L1834.05 1785.79 L1829.82 1785.79 M1838.31 1784.03 L1838.31 1798.82 L1834.05 1798.82 L1834.05 1794.89 Q1832.6 1797.25 1830.42 1798.38 Q1828.24 1799.49 1825.1 1799.49 Q1821.11 1799.49 1818.75 1797.27 Q1816.41 1795.02 1816.41 1791.27 Q1816.41 1786.9 1819.33 1784.68 Q1822.27 1782.46 1828.08 1782.46 L1834.05 1782.46 L1834.05 1782.04 Q1834.05 1779.1 1832.11 1777.5 Q1830.19 1775.88 1826.69 1775.88 Q1824.47 1775.88 1822.36 1776.41 Q1820.26 1776.95 1818.31 1778.01 L1818.31 1774.08 Q1820.65 1773.17 1822.85 1772.73 Q1825.05 1772.27 1827.13 1772.27 Q1832.76 1772.27 1835.54 1775.19 Q1838.31 1778.1 1838.31 1784.03 Z" fill="#000000" fill-rule="evenodd" fill-opacity="1" /><path clip-path="url(#clip010)" d="M1847.09 1762.8 L1851.35 1762.8 L1851.35 1798.82 L1847.09 1798.82 L1847.09 1762.8 Z" fill="#000000" fill-rule="evenodd" fill-opacity="1" /><path clip-path="url(#clip010)" d="M1882.43 1784.79 L1882.43 1786.88 L1862.85 1786.88 Q1863.13 1791.27 1865.49 1793.59 Q1867.87 1795.88 1872.11 1795.88 Q1874.56 1795.88 1876.85 1795.28 Q1879.17 1794.68 1881.44 1793.47 L1881.44 1797.5 Q1879.15 1798.47 1876.74 1798.98 Q1874.33 1799.49 1871.85 1799.49 Q1865.65 1799.49 1862.02 1795.88 Q1858.41 1792.27 1858.41 1786.11 Q1858.41 1779.75 1861.83 1776.02 Q1865.28 1772.27 1871.11 1772.27 Q1876.35 1772.27 1879.38 1775.65 Q1882.43 1779.01 1882.43 1784.79 M1878.17 1783.54 Q1878.13 1780.05 1876.21 1777.96 Q1874.31 1775.88 1871.16 1775.88 Q1867.6 1775.88 1865.44 1777.9 Q1863.31 1779.91 1862.99 1783.57 L1878.17 1783.54 Z" fill="#000000" fill-rule="evenodd" fill-opacity="1" /><path clip-path="url(#clip010)" d="M2303.88 1764.26 L2310.85 1764.26 L2319.67 1787.78 L2328.54 1764.26 L2335.5 1764.26 L2335.5 1798.82 L2330.94 1798.82 L2330.94 1768.47 L2322.03 1792.18 L2317.33 1792.18 L2308.42 1768.47 L2308.42 1798.82 L2303.88 1798.82 L2303.88 1764.26 Z" fill="#000000" fill-rule="evenodd" fill-opacity="1" /><path clip-path="url(#clip010)" d="M2356.38 1785.79 Q2351.22 1785.79 2349.23 1786.97 Q2347.24 1788.15 2347.24 1791 Q2347.24 1793.27 2348.72 1794.61 Q2350.23 1795.93 2352.8 1795.93 Q2356.34 1795.93 2358.47 1793.43 Q2360.62 1790.9 2360.62 1786.74 L2360.62 1785.79 L2356.38 1785.79 M2364.88 1784.03 L2364.88 1798.82 L2360.62 1798.82 L2360.62 1794.89 Q2359.16 1797.25 2356.99 1798.38 Q2354.81 1799.49 2351.66 1799.49 Q2347.68 1799.49 2345.32 1797.27 Q2342.98 1795.02 2342.98 1791.27 Q2342.98 1786.9 2345.9 1784.68 Q2348.84 1782.46 2354.65 1782.46 L2360.62 1782.46 L2360.62 1782.04 Q2360.62 1779.1 2358.68 1777.5 Q2356.75 1775.88 2353.26 1775.88 Q2351.04 1775.88 2348.93 1776.41 Q2346.82 1776.95 2344.88 1778.01 L2344.88 1774.08 Q2347.22 1773.17 2349.42 1772.73 Q2351.62 1772.27 2353.7 1772.27 Q2359.32 1772.27 2362.1 1775.19 Q2364.88 1778.1 2364.88 1784.03 Z" fill="#000000" fill-rule="evenodd" fill-opacity="1" /><path clip-path="url(#clip010)" d="M2373.65 1762.8 L2377.91 1762.8 L2377.91 1798.82 L2373.65 1798.82 L2373.65 1762.8 Z" fill="#000000" fill-rule="evenodd" fill-opacity="1" /><path clip-path="url(#clip010)" d="M2409 1784.79 L2409 1786.88 L2389.42 1786.88 Q2389.69 1791.27 2392.06 1793.59 Q2394.44 1795.88 2398.68 1795.88 Q2401.13 1795.88 2403.42 1795.28 Q2405.74 1794.68 2408 1793.47 L2408 1797.5 Q2405.71 1798.47 2403.31 1798.98 Q2400.9 1799.49 2398.42 1799.49 Q2392.22 1799.49 2388.58 1795.88 Q2384.97 1792.27 2384.97 1786.11 Q2384.97 1779.75 2388.4 1776.02 Q2391.85 1772.27 2397.68 1772.27 Q2402.91 1772.27 2405.94 1775.65 Q2409 1779.01 2409 1784.79 M2404.74 1783.54 Q2404.69 1780.05 2402.77 1777.96 Q2400.87 1775.88 2397.73 1775.88 Q2394.16 1775.88 2392.01 1777.9 Q2389.88 1779.91 2389.56 1783.57 L2404.74 1783.54 Z" fill="#000000" fill-rule="evenodd" fill-opacity="1" /><path clip-path="url(#clip010)" d="M1801.57 1835.78 L1808 1835.78 L1808 1883.3 L1801.57 1883.3 L1801.57 1835.78 Z" fill="#000000" fill-rule="evenodd" fill-opacity="1" /><path clip-path="url(#clip010)" d="M1843.99 1853.06 L1843.99 1833.78 L1849.85 1833.78 L1849.85 1883.3 L1843.99 1883.3 L1843.99 1877.95 Q1842.15 1881.14 1839.31 1882.7 Q1836.51 1884.22 1832.57 1884.22 Q1826.11 1884.22 1822.03 1879.07 Q1817.99 1873.91 1817.99 1865.51 Q1817.99 1857.11 1822.03 1851.95 Q1826.11 1846.79 1832.57 1846.79 Q1836.51 1846.79 1839.31 1848.35 Q1842.15 1849.88 1843.99 1853.06 M1824.04 1865.51 Q1824.04 1871.97 1826.68 1875.66 Q1829.35 1879.32 1834 1879.32 Q1838.65 1879.32 1841.32 1875.66 Q1843.99 1871.97 1843.99 1865.51 Q1843.99 1859.05 1841.32 1855.39 Q1838.65 1851.7 1834 1851.7 Q1829.35 1851.7 1826.68 1855.39 Q1824.04 1859.05 1824.04 1865.51 Z" fill="#000000" fill-rule="evenodd" fill-opacity="1" /><path clip-path="url(#clip010)" d="M1892.4 1864.01 L1892.4 1866.88 L1865.48 1866.88 Q1865.86 1872.92 1869.11 1876.11 Q1872.38 1879.26 1878.21 1879.26 Q1881.58 1879.26 1884.73 1878.43 Q1887.92 1877.6 1891.04 1875.95 L1891.04 1881.49 Q1887.88 1882.82 1884.57 1883.52 Q1881.26 1884.22 1877.86 1884.22 Q1869.33 1884.22 1864.33 1879.26 Q1859.37 1874.29 1859.37 1865.83 Q1859.37 1857.07 1864.08 1851.95 Q1868.82 1846.79 1876.84 1846.79 Q1884.03 1846.79 1888.2 1851.44 Q1892.4 1856.06 1892.4 1864.01 M1886.55 1862.29 Q1886.48 1857.49 1883.84 1854.62 Q1881.23 1851.76 1876.9 1851.76 Q1872 1851.76 1869.04 1854.53 Q1866.11 1857.3 1865.67 1862.33 L1886.55 1862.29 Z" fill="#000000" fill-rule="evenodd" fill-opacity="1" /><path clip-path="url(#clip010)" d="M1931.65 1861.78 L1931.65 1883.3 L1925.79 1883.3 L1925.79 1861.98 Q1925.79 1856.92 1923.82 1854.4 Q1921.85 1851.89 1917.9 1851.89 Q1913.16 1851.89 1910.42 1854.91 Q1907.68 1857.93 1907.68 1863.15 L1907.68 1883.3 L1901.79 1883.3 L1901.79 1847.65 L1907.68 1847.65 L1907.68 1853.19 Q1909.78 1849.98 1912.62 1848.39 Q1915.48 1846.79 1919.2 1846.79 Q1925.35 1846.79 1928.5 1850.61 Q1931.65 1854.4 1931.65 1861.78 Z" fill="#000000" fill-rule="evenodd" fill-opacity="1" /><path clip-path="url(#clip010)" d="M1949.12 1837.53 L1949.12 1847.65 L1961.19 1847.65 L1961.19 1852.2 L1949.12 1852.2 L1949.12 1871.56 Q1949.12 1875.92 1950.3 1877.16 Q1951.51 1878.4 1955.17 1878.4 L1961.19 1878.4 L1961.19 1883.3 L1955.17 1883.3 Q1948.39 1883.3 1945.81 1880.79 Q1943.23 1878.24 1943.23 1871.56 L1943.23 1852.2 L1938.94 1852.2 L1938.94 1847.65 L1943.23 1847.65 L1943.23 1837.53 L1949.12 1837.53 Z" fill="#000000" fill-rule="evenodd" fill-opacity="1" /><path clip-path="url(#clip010)" d="M1968.89 1847.65 L1974.74 1847.65 L1974.74 1883.3 L1968.89 1883.3 L1968.89 1847.65 M1968.89 1833.78 L1974.74 1833.78 L1974.74 1841.19 L1968.89 1841.19 L1968.89 1833.78 Z" fill="#000000" fill-rule="evenodd" fill-opacity="1" /><path clip-path="url(#clip010)" d="M2005.05 1833.78 L2005.05 1838.65 L1999.44 1838.65 Q1996.29 1838.65 1995.05 1839.92 Q1993.84 1841.19 1993.84 1844.5 L1993.84 1847.65 L2003.49 1847.65 L2003.49 1852.2 L1993.84 1852.2 L1993.84 1883.3 L1987.95 1883.3 L1987.95 1852.2 L1982.35 1852.2 L1982.35 1847.65 L1987.95 1847.65 L1987.95 1845.17 Q1987.95 1839.22 1990.72 1836.51 Q1993.49 1833.78 1999.51 1833.78 L2005.05 1833.78 Z" fill="#000000" fill-rule="evenodd" fill-opacity="1" /><path clip-path="url(#clip010)" d="M2009.95 1847.65 L2015.8 1847.65 L2015.8 1883.3 L2009.95 1883.3 L2009.95 1847.65 M2009.95 1833.78 L2015.8 1833.78 L2015.8 1841.19 L2009.95 1841.19 L2009.95 1833.78 Z" fill="#000000" fill-rule="evenodd" fill-opacity="1" /><path clip-path="url(#clip010)" d="M2058.55 1864.01 L2058.55 1866.88 L2031.62 1866.88 Q2032 1872.92 2035.25 1876.11 Q2038.53 1879.26 2044.35 1879.26 Q2047.73 1879.26 2050.88 1878.43 Q2054.06 1877.6 2057.18 1875.95 L2057.18 1881.49 Q2054.03 1882.82 2050.72 1883.52 Q2047.41 1884.22 2044 1884.22 Q2035.47 1884.22 2030.48 1879.26 Q2025.51 1874.29 2025.51 1865.83 Q2025.51 1857.07 2030.22 1851.95 Q2034.96 1846.79 2042.99 1846.79 Q2050.18 1846.79 2054.35 1851.44 Q2058.55 1856.06 2058.55 1864.01 M2052.69 1862.29 Q2052.63 1857.49 2049.99 1854.62 Q2047.38 1851.76 2043.05 1851.76 Q2038.15 1851.76 2035.19 1854.53 Q2032.26 1857.3 2031.81 1862.33 L2052.69 1862.29 Z" fill="#000000" fill-rule="evenodd" fill-opacity="1" /><path clip-path="url(#clip010)" d="M2091.62 1853.06 L2091.62 1833.78 L2097.48 1833.78 L2097.48 1883.3 L2091.62 1883.3 L2091.62 1877.95 Q2089.77 1881.14 2086.94 1882.7 Q2084.14 1884.22 2080.19 1884.22 Q2073.73 1884.22 2069.66 1879.07 Q2065.62 1873.91 2065.62 1865.51 Q2065.62 1857.11 2069.66 1851.95 Q2073.73 1846.79 2080.19 1846.79 Q2084.14 1846.79 2086.94 1848.35 Q2089.77 1849.88 2091.62 1853.06 M2071.66 1865.51 Q2071.66 1871.97 2074.3 1875.66 Q2076.98 1879.32 2081.63 1879.32 Q2086.27 1879.32 2088.95 1875.66 Q2091.62 1871.97 2091.62 1865.51 Q2091.62 1859.05 2088.95 1855.39 Q2086.27 1851.7 2081.63 1851.7 Q2076.98 1851.7 2074.3 1855.39 Q2071.66 1859.05 2071.66 1865.51 Z" fill="#000000" fill-rule="evenodd" fill-opacity="1" /><path clip-path="url(#clip010)" d="M2153.72 1865.06 Q2153.72 1858.7 2151.07 1855.2 Q2148.47 1851.7 2143.72 1851.7 Q2139.01 1851.7 2136.37 1855.2 Q2133.76 1858.7 2133.76 1865.06 Q2133.76 1871.4 2136.37 1874.9 Q2139.01 1878.4 2143.72 1878.4 Q2148.47 1878.4 2151.07 1874.9 Q2153.72 1871.4 2153.72 1865.06 M2159.57 1878.88 Q2159.57 1887.98 2155.53 1892.4 Q2151.49 1896.86 2143.15 1896.86 Q2140.06 1896.86 2137.33 1896.38 Q2134.59 1895.94 2132.01 1894.98 L2132.01 1889.28 Q2134.59 1890.69 2137.1 1891.35 Q2139.62 1892.02 2142.23 1892.02 Q2147.99 1892.02 2150.85 1889 Q2153.72 1886.01 2153.72 1879.93 L2153.72 1877.03 Q2151.9 1880.18 2149.07 1881.74 Q2146.24 1883.3 2142.29 1883.3 Q2135.73 1883.3 2131.72 1878.3 Q2127.71 1873.31 2127.71 1865.06 Q2127.71 1856.79 2131.72 1851.79 Q2135.73 1846.79 2142.29 1846.79 Q2146.24 1846.79 2149.07 1848.35 Q2151.9 1849.91 2153.72 1853.06 L2153.72 1847.65 L2159.57 1847.65 L2159.57 1878.88 Z" fill="#000000" fill-rule="evenodd" fill-opacity="1" /><path clip-path="url(#clip010)" d="M2202.13 1864.01 L2202.13 1866.88 L2175.2 1866.88 Q2175.58 1872.92 2178.83 1876.11 Q2182.11 1879.26 2187.93 1879.26 Q2191.31 1879.26 2194.46 1878.43 Q2197.64 1877.6 2200.76 1875.95 L2200.76 1881.49 Q2197.61 1882.82 2194.3 1883.52 Q2190.99 1884.22 2187.58 1884.22 Q2179.05 1884.22 2174.06 1879.26 Q2169.09 1874.29 2169.09 1865.83 Q2169.09 1857.07 2173.8 1851.95 Q2178.54 1846.79 2186.56 1846.79 Q2193.76 1846.79 2197.93 1851.44 Q2202.13 1856.06 2202.13 1864.01 M2196.27 1862.29 Q2196.21 1857.49 2193.57 1854.62 Q2190.96 1851.76 2186.63 1851.76 Q2181.73 1851.76 2178.77 1854.53 Q2175.84 1857.3 2175.39 1862.33 L2196.27 1862.29 Z" fill="#000000" fill-rule="evenodd" fill-opacity="1" /><path clip-path="url(#clip010)" d="M2241.37 1861.78 L2241.37 1883.3 L2235.52 1883.3 L2235.52 1861.98 Q2235.52 1856.92 2233.54 1854.4 Q2231.57 1851.89 2227.62 1851.89 Q2222.88 1851.89 2220.14 1854.91 Q2217.41 1857.93 2217.41 1863.15 L2217.41 1883.3 L2211.52 1883.3 L2211.52 1847.65 L2217.41 1847.65 L2217.41 1853.19 Q2219.51 1849.98 2222.34 1848.39 Q2225.2 1846.79 2228.93 1846.79 Q2235.07 1846.79 2238.22 1850.61 Q2241.37 1854.4 2241.37 1861.78 Z" fill="#000000" fill-rule="evenodd" fill-opacity="1" /><path clip-path="url(#clip010)" d="M2276.51 1853.06 L2276.51 1833.78 L2282.37 1833.78 L2282.37 1883.3 L2276.51 1883.3 L2276.51 1877.95 Q2274.67 1881.14 2271.83 1882.7 Q2269.03 1884.22 2265.08 1884.22 Q2258.62 1884.22 2254.55 1879.07 Q2250.51 1873.91 2250.51 1865.51 Q2250.51 1857.11 2254.55 1851.95 Q2258.62 1846.79 2265.08 1846.79 Q2269.03 1846.79 2271.83 1848.35 Q2274.67 1849.88 2276.51 1853.06 M2256.55 1865.51 Q2256.55 1871.97 2259.2 1875.66 Q2261.87 1879.32 2266.52 1879.32 Q2271.16 1879.32 2273.84 1875.66 Q2276.51 1871.97 2276.51 1865.51 Q2276.51 1859.05 2273.84 1855.39 Q2271.16 1851.7 2266.52 1851.7 Q2261.87 1851.7 2259.2 1855.39 Q2256.55 1859.05 2256.55 1865.51 Z" fill="#000000" fill-rule="evenodd" fill-opacity="1" /><path clip-path="url(#clip010)" d="M2324.92 1864.01 L2324.92 1866.88 L2298 1866.88 Q2298.38 1872.92 2301.62 1876.11 Q2304.9 1879.26 2310.73 1879.26 Q2314.1 1879.26 2317.25 1878.43 Q2320.43 1877.6 2323.55 1875.95 L2323.55 1881.49 Q2320.4 1882.82 2317.09 1883.52 Q2313.78 1884.22 2310.38 1884.22 Q2301.85 1884.22 2296.85 1879.26 Q2291.88 1874.29 2291.88 1865.83 Q2291.88 1857.07 2296.6 1851.95 Q2301.34 1846.79 2309.36 1846.79 Q2316.55 1846.79 2320.72 1851.44 Q2324.92 1856.06 2324.92 1864.01 M2319.07 1862.29 Q2319 1857.49 2316.36 1854.62 Q2313.75 1851.76 2309.42 1851.76 Q2304.52 1851.76 2301.56 1854.53 Q2298.63 1857.3 2298.19 1862.33 L2319.07 1862.29 Z" fill="#000000" fill-rule="evenodd" fill-opacity="1" /><path clip-path="url(#clip010)" d="M2355.19 1853.13 Q2354.2 1852.55 2353.03 1852.3 Q2351.88 1852.01 2350.48 1852.01 Q2345.52 1852.01 2342.84 1855.26 Q2340.2 1858.47 2340.2 1864.52 L2340.2 1883.3 L2334.31 1883.3 L2334.31 1847.65 L2340.2 1847.65 L2340.2 1853.19 Q2342.05 1849.94 2345.01 1848.39 Q2347.97 1846.79 2352.2 1846.79 Q2352.8 1846.79 2353.54 1846.89 Q2354.27 1846.95 2355.16 1847.11 L2355.19 1853.13 Z" fill="#000000" fill-rule="evenodd" fill-opacity="1" /><polyline clip-path="url(#clip013)" style="stroke:#000000; stroke-linecap:round; stroke-linejoin:round; stroke-width:2; stroke-opacity:0.1; fill:none" points="
  1516,1686.38 2640.76,1686.38 
  "/>
<polyline clip-path="url(#clip013)" style="stroke:#000000; stroke-linecap:round; stroke-linejoin:round; stroke-width:2; stroke-opacity:0.1; fill:none" points="
  1516,1349.22 2640.76,1349.22 
  "/>
<polyline clip-path="url(#clip013)" style="stroke:#000000; stroke-linecap:round; stroke-linejoin:round; stroke-width:2; stroke-opacity:0.1; fill:none" points="
  1516,1012.06 2640.76,1012.06 
  "/>
<polyline clip-path="url(#clip013)" style="stroke:#000000; stroke-linecap:round; stroke-linejoin:round; stroke-width:2; stroke-opacity:0.1; fill:none" points="
  1516,674.899 2640.76,674.899 
  "/>
<polyline clip-path="url(#clip013)" style="stroke:#000000; stroke-linecap:round; stroke-linejoin:round; stroke-width:2; stroke-opacity:0.1; fill:none" points="
  1516,337.74 2640.76,337.74 
  "/>
<polyline clip-path="url(#clip010)" style="stroke:#000000; stroke-linecap:round; stroke-linejoin:round; stroke-width:4; stroke-opacity:1; fill:none" points="
  1516,1734.12 1516,47.2441 
  "/>
<polyline clip-path="url(#clip010)" style="stroke:#000000; stroke-linecap:round; stroke-linejoin:round; stroke-width:4; stroke-opacity:1; fill:none" points="
  1516,1686.38 1534.9,1686.38 
  "/>
<polyline clip-path="url(#clip010)" style="stroke:#000000; stroke-linecap:round; stroke-linejoin:round; stroke-width:4; stroke-opacity:1; fill:none" points="
  1516,1349.22 1534.9,1349.22 
  "/>
<polyline clip-path="url(#clip010)" style="stroke:#000000; stroke-linecap:round; stroke-linejoin:round; stroke-width:4; stroke-opacity:1; fill:none" points="
  1516,1012.06 1534.9,1012.06 
  "/>
<polyline clip-path="url(#clip010)" style="stroke:#000000; stroke-linecap:round; stroke-linejoin:round; stroke-width:4; stroke-opacity:1; fill:none" points="
  1516,674.899 1534.9,674.899 
  "/>
<polyline clip-path="url(#clip010)" style="stroke:#000000; stroke-linecap:round; stroke-linejoin:round; stroke-width:4; stroke-opacity:1; fill:none" points="
  1516,337.74 1534.9,337.74 
  "/>
<path clip-path="url(#clip010)" d="M1463.74 1672.17 Q1460.13 1672.17 1458.3 1675.74 Q1456.49 1679.28 1456.49 1686.41 Q1456.49 1693.52 1458.3 1697.08 Q1460.13 1700.62 1463.74 1700.62 Q1467.37 1700.62 1469.18 1697.08 Q1471.01 1693.52 1471.01 1686.41 Q1471.01 1679.28 1469.18 1675.74 Q1467.37 1672.17 1463.74 1672.17 M1463.74 1668.47 Q1469.55 1668.47 1472.6 1673.08 Q1475.68 1677.66 1475.68 1686.41 Q1475.68 1695.14 1472.6 1699.74 Q1469.55 1704.33 1463.74 1704.33 Q1457.93 1704.33 1454.85 1699.74 Q1451.79 1695.14 1451.79 1686.41 Q1451.79 1677.66 1454.85 1673.08 Q1457.93 1668.47 1463.74 1668.47 Z" fill="#000000" fill-rule="evenodd" fill-opacity="1" /><path clip-path="url(#clip010)" d="M1428.6 1362.56 L1444.92 1362.56 L1444.92 1366.5 L1422.97 1366.5 L1422.97 1362.56 Q1425.64 1359.81 1430.22 1355.18 Q1434.83 1350.52 1436.01 1349.18 Q1438.25 1346.66 1439.13 1344.92 Q1440.03 1343.16 1440.03 1341.47 Q1440.03 1338.72 1438.09 1336.98 Q1436.17 1335.25 1433.07 1335.25 Q1430.87 1335.25 1428.41 1336.01 Q1425.98 1336.77 1423.2 1338.33 L1423.2 1333.6 Q1426.03 1332.47 1428.48 1331.89 Q1430.94 1331.31 1432.97 1331.31 Q1438.34 1331.31 1441.54 1334 Q1444.73 1336.68 1444.73 1341.17 Q1444.73 1343.3 1443.92 1345.22 Q1443.14 1347.12 1441.03 1349.71 Q1440.45 1350.39 1437.35 1353.6 Q1434.25 1356.8 1428.6 1362.56 Z" fill="#000000" fill-rule="evenodd" fill-opacity="1" /><path clip-path="url(#clip010)" d="M1454.78 1331.94 L1473.14 1331.94 L1473.14 1335.87 L1459.06 1335.87 L1459.06 1344.34 Q1460.08 1344 1461.1 1343.83 Q1462.12 1343.65 1463.14 1343.65 Q1468.92 1343.65 1472.3 1346.82 Q1475.68 1349.99 1475.68 1355.41 Q1475.68 1360.99 1472.21 1364.09 Q1468.74 1367.17 1462.42 1367.17 Q1460.24 1367.17 1457.97 1366.8 Q1455.73 1366.43 1453.32 1365.69 L1453.32 1360.99 Q1455.4 1362.12 1457.63 1362.68 Q1459.85 1363.23 1462.32 1363.23 Q1466.33 1363.23 1468.67 1361.13 Q1471.01 1359.02 1471.01 1355.41 Q1471.01 1351.8 1468.67 1349.69 Q1466.33 1347.58 1462.32 1347.58 Q1460.45 1347.58 1458.57 1348 Q1456.72 1348.42 1454.78 1349.3 L1454.78 1331.94 Z" fill="#000000" fill-rule="evenodd" fill-opacity="1" /><path clip-path="url(#clip010)" d="M1423.62 994.778 L1441.98 994.778 L1441.98 998.713 L1427.9 998.713 L1427.9 1007.19 Q1428.92 1006.84 1429.94 1006.68 Q1430.96 1006.49 1431.98 1006.49 Q1437.76 1006.49 1441.14 1009.66 Q1444.52 1012.83 1444.52 1018.25 Q1444.52 1023.83 1441.05 1026.93 Q1437.58 1030.01 1431.26 1030.01 Q1429.08 1030.01 1426.82 1029.64 Q1424.57 1029.27 1422.16 1028.53 L1422.16 1023.83 Q1424.25 1024.96 1426.47 1025.52 Q1428.69 1026.07 1431.17 1026.07 Q1435.17 1026.07 1437.51 1023.97 Q1439.85 1021.86 1439.85 1018.25 Q1439.85 1014.64 1437.51 1012.53 Q1435.17 1010.43 1431.17 1010.43 Q1429.29 1010.43 1427.42 1010.84 Q1425.57 1011.26 1423.62 1012.14 L1423.62 994.778 Z" fill="#000000" fill-rule="evenodd" fill-opacity="1" /><path clip-path="url(#clip010)" d="M1463.74 997.856 Q1460.13 997.856 1458.3 1001.42 Q1456.49 1004.96 1456.49 1012.09 Q1456.49 1019.2 1458.3 1022.76 Q1460.13 1026.31 1463.74 1026.31 Q1467.37 1026.31 1469.18 1022.76 Q1471.01 1019.2 1471.01 1012.09 Q1471.01 1004.96 1469.18 1001.42 Q1467.37 997.856 1463.74 997.856 M1463.74 994.153 Q1469.55 994.153 1472.6 998.759 Q1475.68 1003.34 1475.68 1012.09 Q1475.68 1020.82 1472.6 1025.43 Q1469.55 1030.01 1463.74 1030.01 Q1457.93 1030.01 1454.85 1025.43 Q1451.79 1020.82 1451.79 1012.09 Q1451.79 1003.34 1454.85 998.759 Q1457.93 994.153 1463.74 994.153 Z" fill="#000000" fill-rule="evenodd" fill-opacity="1" /><path clip-path="url(#clip010)" d="M1423.39 657.619 L1445.61 657.619 L1445.61 659.61 L1433.07 692.179 L1428.18 692.179 L1439.99 661.554 L1423.39 661.554 L1423.39 657.619 Z" fill="#000000" fill-rule="evenodd" fill-opacity="1" /><path clip-path="url(#clip010)" d="M1454.78 657.619 L1473.14 657.619 L1473.14 661.554 L1459.06 661.554 L1459.06 670.026 Q1460.08 669.679 1461.1 669.517 Q1462.12 669.332 1463.14 669.332 Q1468.92 669.332 1472.3 672.503 Q1475.68 675.674 1475.68 681.091 Q1475.68 686.67 1472.21 689.772 Q1468.74 692.85 1462.42 692.85 Q1460.24 692.85 1457.97 692.48 Q1455.73 692.109 1453.32 691.369 L1453.32 686.67 Q1455.4 687.804 1457.63 688.359 Q1459.85 688.915 1462.32 688.915 Q1466.33 688.915 1468.67 686.809 Q1471.01 684.702 1471.01 681.091 Q1471.01 677.48 1468.67 675.373 Q1466.33 673.267 1462.32 673.267 Q1460.45 673.267 1458.57 673.684 Q1456.72 674.1 1454.78 674.98 L1454.78 657.619 Z" fill="#000000" fill-rule="evenodd" fill-opacity="1" /><path clip-path="url(#clip010)" d="M1394.22 351.085 L1401.86 351.085 L1401.86 324.719 L1393.55 326.386 L1393.55 322.127 L1401.82 320.46 L1406.49 320.46 L1406.49 351.085 L1414.13 351.085 L1414.13 355.02 L1394.22 355.02 L1394.22 351.085 Z" fill="#000000" fill-rule="evenodd" fill-opacity="1" /><path clip-path="url(#clip010)" d="M1433.58 323.539 Q1429.96 323.539 1428.14 327.104 Q1426.33 330.645 1426.33 337.775 Q1426.33 344.881 1428.14 348.446 Q1429.96 351.988 1433.58 351.988 Q1437.21 351.988 1439.01 348.446 Q1440.84 344.881 1440.84 337.775 Q1440.84 330.645 1439.01 327.104 Q1437.21 323.539 1433.58 323.539 M1433.58 319.835 Q1439.39 319.835 1442.44 324.442 Q1445.52 329.025 1445.52 337.775 Q1445.52 346.502 1442.44 351.108 Q1439.39 355.691 1433.58 355.691 Q1427.76 355.691 1424.69 351.108 Q1421.63 346.502 1421.63 337.775 Q1421.63 329.025 1424.69 324.442 Q1427.76 319.835 1433.58 319.835 Z" fill="#000000" fill-rule="evenodd" fill-opacity="1" /><path clip-path="url(#clip010)" d="M1463.74 323.539 Q1460.13 323.539 1458.3 327.104 Q1456.49 330.645 1456.49 337.775 Q1456.49 344.881 1458.3 348.446 Q1460.13 351.988 1463.74 351.988 Q1467.37 351.988 1469.18 348.446 Q1471.01 344.881 1471.01 337.775 Q1471.01 330.645 1469.18 327.104 Q1467.37 323.539 1463.74 323.539 M1463.74 319.835 Q1469.55 319.835 1472.6 324.442 Q1475.68 329.025 1475.68 337.775 Q1475.68 346.502 1472.6 351.108 Q1469.55 355.691 1463.74 355.691 Q1457.93 355.691 1454.85 351.108 Q1451.79 346.502 1451.79 337.775 Q1451.79 329.025 1454.85 324.442 Q1457.93 319.835 1463.74 319.835 Z" fill="#000000" fill-rule="evenodd" fill-opacity="1" /><path clip-path="url(#clip013)" d="
M1577.86 94.9858 L1577.86 162.418 L2022.77 162.418 L2022.77 94.9858 L1577.86 94.9858 L1577.86 94.9858  Z
  " fill="#009af9" fill-rule="evenodd" fill-opacity="1"/>
<polyline clip-path="url(#clip013)" style="stroke:#000000; stroke-linecap:round; stroke-linejoin:round; stroke-width:4; stroke-opacity:1; fill:none" points="
  1577.86,94.9858 1577.86,162.418 2022.77,162.418 2022.77,94.9858 1577.86,94.9858 
  "/>
<path clip-path="url(#clip013)" d="
M2133.99 108.472 L2133.99 189.39 L2578.89 189.39 L2578.89 108.472 L2133.99 108.472 L2133.99 108.472  Z
  " fill="#009af9" fill-rule="evenodd" fill-opacity="1"/>
<polyline clip-path="url(#clip013)" style="stroke:#000000; stroke-linecap:round; stroke-linejoin:round; stroke-width:4; stroke-opacity:1; fill:none" points="
  2133.99,108.472 2133.99,189.39 2578.89,189.39 2578.89,108.472 2133.99,108.472 
  "/>
<circle clip-path="url(#clip013)" style="fill:#009af9; stroke:none; fill-opacity:0" cx="1800.32" cy="94.9858" r="2"/>
<circle clip-path="url(#clip013)" style="fill:#009af9; stroke:none; fill-opacity:0" cx="2356.44" cy="108.472" r="2"/>
<path clip-path="url(#clip013)" d="
M1577.86 162.418 L1577.86 1497.57 L2022.77 1497.57 L2022.77 162.418 L1577.86 162.418 L1577.86 162.418  Z
  " fill="#e26f46" fill-rule="evenodd" fill-opacity="1"/>
<polyline clip-path="url(#clip013)" style="stroke:#000000; stroke-linecap:round; stroke-linejoin:round; stroke-width:4; stroke-opacity:1; fill:none" points="
  1577.86,162.418 1577.86,1497.57 2022.77,1497.57 2022.77,162.418 1577.86,162.418 
  "/>
<path clip-path="url(#clip013)" d="
M2133.99 189.39 L2133.99 1389.68 L2578.89 1389.68 L2578.89 189.39 L2133.99 189.39 L2133.99 189.39  Z
  " fill="#e26f46" fill-rule="evenodd" fill-opacity="1"/>
<polyline clip-path="url(#clip013)" style="stroke:#000000; stroke-linecap:round; stroke-linejoin:round; stroke-width:4; stroke-opacity:1; fill:none" points="
  2133.99,189.39 2133.99,1389.68 2578.89,1389.68 2578.89,189.39 2133.99,189.39 
  "/>
<circle clip-path="url(#clip013)" style="fill:#e26f46; stroke:none; fill-opacity:0" cx="1800.32" cy="162.418" r="2"/>
<circle clip-path="url(#clip013)" style="fill:#e26f46; stroke:none; fill-opacity:0" cx="2356.44" cy="189.39" r="2"/>
<path clip-path="url(#clip013)" d="
M1577.86 1497.57 L1577.86 1618.94 L2022.77 1618.94 L2022.77 1497.57 L1577.86 1497.57 L1577.86 1497.57  Z
  " fill="#3da44d" fill-rule="evenodd" fill-opacity="1"/>
<polyline clip-path="url(#clip013)" style="stroke:#000000; stroke-linecap:round; stroke-linejoin:round; stroke-width:4; stroke-opacity:1; fill:none" points="
  1577.86,1497.57 1577.86,1618.94 2022.77,1618.94 2022.77,1497.57 1577.86,1497.57 
  "/>
<path clip-path="url(#clip013)" d="
M2133.99 1389.68 L2133.99 1524.54 L2578.89 1524.54 L2578.89 1389.68 L2133.99 1389.68 L2133.99 1389.68  Z
  " fill="#3da44d" fill-rule="evenodd" fill-opacity="1"/>
<polyline clip-path="url(#clip013)" style="stroke:#000000; stroke-linecap:round; stroke-linejoin:round; stroke-width:4; stroke-opacity:1; fill:none" points="
  2133.99,1389.68 2133.99,1524.54 2578.89,1524.54 2578.89,1389.68 2133.99,1389.68 
  "/>
<circle clip-path="url(#clip013)" style="fill:#3da44d; stroke:none; fill-opacity:0" cx="1800.32" cy="1497.57" r="2"/>
<circle clip-path="url(#clip013)" style="fill:#3da44d; stroke:none; fill-opacity:0" cx="2356.44" cy="1389.68" r="2"/>
<path clip-path="url(#clip013)" d="
M1577.86 1618.94 L1577.86 1686.38 L2022.77 1686.38 L2022.77 1618.94 L1577.86 1618.94 L1577.86 1618.94  Z
  " fill="#c271d2" fill-rule="evenodd" fill-opacity="1"/>
<polyline clip-path="url(#clip013)" style="stroke:#000000; stroke-linecap:round; stroke-linejoin:round; stroke-width:4; stroke-opacity:1; fill:none" points="
  1577.86,1618.94 1577.86,1686.38 2022.77,1686.38 2022.77,1618.94 1577.86,1618.94 
  "/>
<path clip-path="url(#clip013)" d="
M2133.99 1524.54 L2133.99 1686.38 L2578.89 1686.38 L2578.89 1524.54 L2133.99 1524.54 L2133.99 1524.54  Z
  " fill="#c271d2" fill-rule="evenodd" fill-opacity="1"/>
<polyline clip-path="url(#clip013)" style="stroke:#000000; stroke-linecap:round; stroke-linejoin:round; stroke-width:4; stroke-opacity:1; fill:none" points="
  2133.99,1524.54 2133.99,1686.38 2578.89,1686.38 2578.89,1524.54 2133.99,1524.54 
  "/>
<circle clip-path="url(#clip013)" style="fill:#c271d2; stroke:none; fill-opacity:0" cx="1800.32" cy="1618.94" r="2"/>
<circle clip-path="url(#clip013)" style="fill:#c271d2; stroke:none; fill-opacity:0" cx="2356.44" cy="1524.54" r="2"/>
<path clip-path="url(#clip010)" d="
M2346.88 362.673 L2603.26 362.673 L2603.26 103.473 L2346.88 103.473  Z
  " fill="#ffffff" fill-rule="evenodd" fill-opacity="1"/>
<polyline clip-path="url(#clip010)" style="stroke:#000000; stroke-linecap:round; stroke-linejoin:round; stroke-width:4; stroke-opacity:1; fill:none" points="
  2346.88,362.673 2603.26,362.673 2603.26,103.473 2346.88,103.473 2346.88,362.673 
  "/>
<path clip-path="url(#clip010)" d="
M2359.37 176.049 L2434.36 176.049 L2434.36 134.577 L2359.37 134.577 L2359.37 176.049  Z
  " fill="#009af9" fill-rule="evenodd" fill-opacity="1"/>
<polyline clip-path="url(#clip010)" style="stroke:#000000; stroke-linecap:round; stroke-linejoin:round; stroke-width:4; stroke-opacity:1; fill:none" points="
  2359.37,176.049 2434.36,176.049 2434.36,134.577 2359.37,134.577 2359.37,176.049 
  "/>
<path clip-path="url(#clip010)" d="M2446.86 138.033 L2451.53 138.033 L2451.53 152.2 L2468.52 152.2 L2468.52 138.033 L2473.2 138.033 L2473.2 172.593 L2468.52 172.593 L2468.52 156.135 L2451.53 156.135 L2451.53 172.593 L2446.86 172.593 L2446.86 138.033 Z" fill="#000000" fill-rule="evenodd" fill-opacity="1" /><path clip-path="url(#clip010)" d="M2504.49 158.565 L2504.49 160.649 L2484.91 160.649 Q2485.19 165.047 2487.55 167.362 Q2489.93 169.653 2494.17 169.653 Q2496.62 169.653 2498.92 169.052 Q2501.23 168.45 2503.5 167.246 L2503.5 171.274 Q2501.21 172.246 2498.8 172.755 Q2496.39 173.264 2493.92 173.264 Q2487.71 173.264 2484.08 169.653 Q2480.47 166.042 2480.47 159.885 Q2480.47 153.519 2483.89 149.792 Q2487.34 146.042 2493.17 146.042 Q2498.41 146.042 2501.44 149.422 Q2504.49 152.778 2504.49 158.565 M2500.23 157.315 Q2500.19 153.82 2498.27 151.737 Q2496.37 149.653 2493.22 149.653 Q2489.66 149.653 2487.5 151.667 Q2485.37 153.681 2485.05 157.339 L2500.23 157.315 Z" fill="#000000" fill-rule="evenodd" fill-opacity="1" /><path clip-path="url(#clip010)" d="M2523.27 159.561 Q2518.11 159.561 2516.11 160.741 Q2514.12 161.922 2514.12 164.769 Q2514.12 167.038 2515.61 168.38 Q2517.11 169.7 2519.68 169.7 Q2523.22 169.7 2525.35 167.2 Q2527.5 164.677 2527.5 160.51 L2527.5 159.561 L2523.27 159.561 M2531.76 157.802 L2531.76 172.593 L2527.5 172.593 L2527.5 168.658 Q2526.04 171.019 2523.87 172.153 Q2521.69 173.264 2518.54 173.264 Q2514.56 173.264 2512.2 171.042 Q2509.86 168.797 2509.86 165.047 Q2509.86 160.672 2512.78 158.45 Q2515.72 156.228 2521.53 156.228 L2527.5 156.228 L2527.5 155.811 Q2527.5 152.871 2525.56 151.274 Q2523.64 149.653 2520.14 149.653 Q2517.92 149.653 2515.81 150.186 Q2513.71 150.718 2511.76 151.783 L2511.76 147.848 Q2514.1 146.945 2516.3 146.505 Q2518.5 146.042 2520.58 146.042 Q2526.21 146.042 2528.98 148.959 Q2531.76 151.876 2531.76 157.802 Z" fill="#000000" fill-rule="evenodd" fill-opacity="1" /><path clip-path="url(#clip010)" d="M2537.48 146.667 L2541.99 146.667 L2550.1 168.427 L2558.2 146.667 L2562.71 146.667 L2552.99 172.593 L2547.2 172.593 L2537.48 146.667 Z" fill="#000000" fill-rule="evenodd" fill-opacity="1" /><path clip-path="url(#clip010)" d="M2579.38 175.001 Q2577.57 179.63 2575.86 181.042 Q2574.15 182.454 2571.28 182.454 L2567.87 182.454 L2567.87 178.889 L2570.37 178.889 Q2572.13 178.889 2573.1 178.056 Q2574.08 177.223 2575.26 174.121 L2576.02 172.177 L2565.54 146.667 L2570.05 146.667 L2578.15 166.945 L2586.25 146.667 L2590.77 146.667 L2579.38 175.001 Z" fill="#000000" fill-rule="evenodd" fill-opacity="1" /><path clip-path="url(#clip010)" d="
M2359.37 227.889 L2434.36 227.889 L2434.36 186.417 L2359.37 186.417 L2359.37 227.889  Z
  " fill="#e26f46" fill-rule="evenodd" fill-opacity="1"/>
<polyline clip-path="url(#clip010)" style="stroke:#000000; stroke-linecap:round; stroke-linejoin:round; stroke-width:4; stroke-opacity:1; fill:none" points="
  2359.37,227.889 2434.36,227.889 2434.36,186.417 2359.37,186.417 2359.37,227.889 
  "/>
<path clip-path="url(#clip010)" d="M2446.86 189.873 L2453.15 189.873 L2468.48 218.785 L2468.48 189.873 L2473.01 189.873 L2473.01 224.433 L2466.72 224.433 L2451.39 195.521 L2451.39 224.433 L2446.86 224.433 L2446.86 189.873 Z" fill="#000000" fill-rule="evenodd" fill-opacity="1" /><path clip-path="url(#clip010)" d="M2504.31 210.405 L2504.31 212.489 L2484.73 212.489 Q2485 216.887 2487.36 219.202 Q2489.75 221.493 2493.98 221.493 Q2496.44 221.493 2498.73 220.892 Q2501.05 220.29 2503.31 219.086 L2503.31 223.114 Q2501.02 224.086 2498.61 224.595 Q2496.21 225.104 2493.73 225.104 Q2487.53 225.104 2483.89 221.493 Q2480.28 217.882 2480.28 211.725 Q2480.28 205.359 2483.71 201.632 Q2487.16 197.882 2492.99 197.882 Q2498.22 197.882 2501.25 201.262 Q2504.31 204.618 2504.31 210.405 M2500.05 209.155 Q2500 205.66 2498.08 203.577 Q2496.18 201.493 2493.04 201.493 Q2489.47 201.493 2487.32 203.507 Q2485.19 205.521 2484.86 209.179 L2500.05 209.155 Z" fill="#000000" fill-rule="evenodd" fill-opacity="1" /><path clip-path="url(#clip010)" d="M2508.24 198.507 L2512.76 198.507 L2520.86 220.267 L2528.96 198.507 L2533.48 198.507 L2523.75 224.433 L2517.97 224.433 L2508.24 198.507 Z" fill="#000000" fill-rule="evenodd" fill-opacity="1" /><path clip-path="url(#clip010)" d="M2561.53 210.405 L2561.53 212.489 L2541.95 212.489 Q2542.23 216.887 2544.59 219.202 Q2546.97 221.493 2551.21 221.493 Q2553.66 221.493 2555.95 220.892 Q2558.27 220.29 2560.54 219.086 L2560.54 223.114 Q2558.24 224.086 2555.84 224.595 Q2553.43 225.104 2550.95 225.104 Q2544.75 225.104 2541.11 221.493 Q2537.5 217.882 2537.5 211.725 Q2537.5 205.359 2540.93 201.632 Q2544.38 197.882 2550.21 197.882 Q2555.44 197.882 2558.48 201.262 Q2561.53 204.618 2561.53 210.405 M2557.27 209.155 Q2557.23 205.66 2555.3 203.577 Q2553.41 201.493 2550.26 201.493 Q2546.69 201.493 2544.54 203.507 Q2542.41 205.521 2542.09 209.179 L2557.27 209.155 Z" fill="#000000" fill-rule="evenodd" fill-opacity="1" /><path clip-path="url(#clip010)" d="M2583.54 202.489 Q2582.83 202.072 2581.97 201.887 Q2581.14 201.679 2580.12 201.679 Q2576.51 201.679 2574.56 204.04 Q2572.64 206.378 2572.64 210.776 L2572.64 224.433 L2568.36 224.433 L2568.36 198.507 L2572.64 198.507 L2572.64 202.535 Q2573.98 200.174 2576.14 199.04 Q2578.29 197.882 2581.37 197.882 Q2581.81 197.882 2582.34 197.952 Q2582.87 197.998 2583.52 198.114 L2583.54 202.489 Z" fill="#000000" fill-rule="evenodd" fill-opacity="1" /><path clip-path="url(#clip010)" d="
M2359.37 279.729 L2434.36 279.729 L2434.36 238.257 L2359.37 238.257 L2359.37 279.729  Z
  " fill="#3da44d" fill-rule="evenodd" fill-opacity="1"/>
<polyline clip-path="url(#clip010)" style="stroke:#000000; stroke-linecap:round; stroke-linejoin:round; stroke-width:4; stroke-opacity:1; fill:none" points="
  2359.37,279.729 2434.36,279.729 2434.36,238.257 2359.37,238.257 2359.37,279.729 
  "/>
<path clip-path="url(#clip010)" d="M2462.87 244.884 Q2457.78 244.884 2454.77 248.681 Q2451.79 252.477 2451.79 259.028 Q2451.79 265.556 2454.77 269.352 Q2457.78 273.148 2462.87 273.148 Q2467.97 273.148 2470.93 269.352 Q2473.92 265.556 2473.92 259.028 Q2473.92 252.477 2470.93 248.681 Q2467.97 244.884 2462.87 244.884 M2462.87 241.088 Q2470.14 241.088 2474.49 245.972 Q2478.85 250.834 2478.85 259.028 Q2478.85 267.199 2474.49 272.083 Q2470.14 276.944 2462.87 276.944 Q2455.58 276.944 2451.21 272.083 Q2446.86 267.222 2446.86 259.028 Q2446.86 250.834 2451.21 245.972 Q2455.58 241.088 2462.87 241.088 Z" fill="#000000" fill-rule="evenodd" fill-opacity="1" /><path clip-path="url(#clip010)" d="M2504.63 251.343 L2504.63 255.324 Q2502.83 254.329 2501 253.843 Q2499.19 253.333 2497.34 253.333 Q2493.2 253.333 2490.91 255.972 Q2488.61 258.588 2488.61 263.333 Q2488.61 268.079 2490.91 270.718 Q2493.2 273.333 2497.34 273.333 Q2499.19 273.333 2501 272.847 Q2502.83 272.338 2504.63 271.343 L2504.63 275.278 Q2502.85 276.111 2500.93 276.528 Q2499.03 276.944 2496.88 276.944 Q2491.02 276.944 2487.57 273.264 Q2484.12 269.583 2484.12 263.333 Q2484.12 256.991 2487.6 253.357 Q2491.09 249.722 2497.16 249.722 Q2499.12 249.722 2501 250.139 Q2502.87 250.533 2504.63 251.343 Z" fill="#000000" fill-rule="evenodd" fill-opacity="1" /><path clip-path="url(#clip010)" d="M2530.7 251.343 L2530.7 255.324 Q2528.89 254.329 2527.06 253.843 Q2525.26 253.333 2523.41 253.333 Q2519.26 253.333 2516.97 255.972 Q2514.68 258.588 2514.68 263.333 Q2514.68 268.079 2516.97 270.718 Q2519.26 273.333 2523.41 273.333 Q2525.26 273.333 2527.06 272.847 Q2528.89 272.338 2530.7 271.343 L2530.7 275.278 Q2528.92 276.111 2526.99 276.528 Q2525.1 276.944 2522.94 276.944 Q2517.09 276.944 2513.64 273.264 Q2510.19 269.583 2510.19 263.333 Q2510.19 256.991 2513.66 253.357 Q2517.16 249.722 2523.22 249.722 Q2525.19 249.722 2527.06 250.139 Q2528.94 250.533 2530.7 251.343 Z" fill="#000000" fill-rule="evenodd" fill-opacity="1" /><path clip-path="url(#clip010)" d="M2549.89 263.241 Q2544.73 263.241 2542.73 264.421 Q2540.74 265.602 2540.74 268.449 Q2540.74 270.718 2542.23 272.06 Q2543.73 273.38 2546.3 273.38 Q2549.84 273.38 2551.97 270.88 Q2554.12 268.357 2554.12 264.19 L2554.12 263.241 L2549.89 263.241 M2558.38 261.482 L2558.38 276.273 L2554.12 276.273 L2554.12 272.338 Q2552.67 274.699 2550.49 275.833 Q2548.31 276.944 2545.17 276.944 Q2541.18 276.944 2538.82 274.722 Q2536.48 272.477 2536.48 268.727 Q2536.48 264.352 2539.4 262.13 Q2542.34 259.908 2548.15 259.908 L2554.12 259.908 L2554.12 259.491 Q2554.12 256.551 2552.18 254.954 Q2550.26 253.333 2546.76 253.333 Q2544.54 253.333 2542.43 253.866 Q2540.33 254.398 2538.38 255.463 L2538.38 251.528 Q2540.72 250.625 2542.92 250.185 Q2545.12 249.722 2547.2 249.722 Q2552.83 249.722 2555.6 252.639 Q2558.38 255.556 2558.38 261.482 Z" fill="#000000" fill-rule="evenodd" fill-opacity="1" /><path clip-path="url(#clip010)" d="M2583.68 251.111 L2583.68 255.139 Q2581.88 254.213 2579.93 253.75 Q2577.99 253.287 2575.91 253.287 Q2572.73 253.287 2571.14 254.259 Q2569.56 255.232 2569.56 257.176 Q2569.56 258.658 2570.7 259.514 Q2571.83 260.347 2575.26 261.111 L2576.72 261.435 Q2581.25 262.408 2583.15 264.19 Q2585.07 265.949 2585.07 269.12 Q2585.07 272.732 2582.2 274.838 Q2579.35 276.944 2574.35 276.944 Q2572.27 276.944 2570 276.528 Q2567.76 276.134 2565.26 275.324 L2565.26 270.926 Q2567.62 272.153 2569.91 272.778 Q2572.2 273.38 2574.45 273.38 Q2577.46 273.38 2579.08 272.361 Q2580.7 271.32 2580.7 269.445 Q2580.7 267.708 2579.52 266.783 Q2578.36 265.857 2574.4 265 L2572.92 264.653 Q2568.96 263.82 2567.2 262.107 Q2565.44 260.37 2565.44 257.361 Q2565.44 253.704 2568.04 251.713 Q2570.63 249.722 2575.4 249.722 Q2577.76 249.722 2579.84 250.07 Q2581.92 250.417 2583.68 251.111 Z" fill="#000000" fill-rule="evenodd" fill-opacity="1" /><path clip-path="url(#clip010)" d="
M2359.37 331.569 L2434.36 331.569 L2434.36 290.097 L2359.37 290.097 L2359.37 331.569  Z
  " fill="#c271d2" fill-rule="evenodd" fill-opacity="1"/>
<polyline clip-path="url(#clip010)" style="stroke:#000000; stroke-linecap:round; stroke-linejoin:round; stroke-width:4; stroke-opacity:1; fill:none" points="
  2359.37,331.569 2434.36,331.569 2434.36,290.097 2359.37,290.097 2359.37,331.569 
  "/>
<path clip-path="url(#clip010)" d="M2463.24 311.91 Q2464.75 312.419 2466.16 314.085 Q2467.6 315.752 2469.03 318.669 L2473.78 328.113 L2468.75 328.113 L2464.33 319.247 Q2462.62 315.775 2461 314.641 Q2459.4 313.507 2456.62 313.507 L2451.53 313.507 L2451.53 328.113 L2446.86 328.113 L2446.86 293.553 L2457.41 293.553 Q2463.34 293.553 2466.25 296.03 Q2469.17 298.507 2469.17 303.507 Q2469.17 306.771 2467.64 308.923 Q2466.14 311.076 2463.24 311.91 M2451.53 297.396 L2451.53 309.664 L2457.41 309.664 Q2460.79 309.664 2462.5 308.113 Q2464.24 306.539 2464.24 303.507 Q2464.24 300.474 2462.5 298.947 Q2460.79 297.396 2457.41 297.396 L2451.53 297.396 Z" fill="#000000" fill-rule="evenodd" fill-opacity="1" /><path clip-path="url(#clip010)" d="M2499.66 314.085 L2499.66 316.169 L2480.07 316.169 Q2480.35 320.567 2482.71 322.882 Q2485.1 325.173 2489.33 325.173 Q2491.79 325.173 2494.08 324.572 Q2496.39 323.97 2498.66 322.766 L2498.66 326.794 Q2496.37 327.766 2493.96 328.275 Q2491.55 328.784 2489.08 328.784 Q2482.87 328.784 2479.24 325.173 Q2475.63 321.562 2475.63 315.405 Q2475.63 309.039 2479.05 305.312 Q2482.5 301.562 2488.34 301.562 Q2493.57 301.562 2496.6 304.942 Q2499.66 308.298 2499.66 314.085 M2495.4 312.835 Q2495.35 309.34 2493.43 307.257 Q2491.53 305.173 2488.38 305.173 Q2484.82 305.173 2482.67 307.187 Q2480.54 309.201 2480.21 312.859 L2495.4 312.835 Z" fill="#000000" fill-rule="evenodd" fill-opacity="1" /><path clip-path="url(#clip010)" d="M2523.71 314.849 Q2523.71 310.22 2521.79 307.673 Q2519.89 305.127 2516.44 305.127 Q2513.01 305.127 2511.09 307.673 Q2509.19 310.22 2509.19 314.849 Q2509.19 319.456 2511.09 322.002 Q2513.01 324.548 2516.44 324.548 Q2519.89 324.548 2521.79 322.002 Q2523.71 319.456 2523.71 314.849 M2527.97 324.896 Q2527.97 331.516 2525.03 334.734 Q2522.09 337.974 2516.02 337.974 Q2513.78 337.974 2511.79 337.627 Q2509.8 337.303 2507.92 336.609 L2507.92 332.465 Q2509.8 333.484 2511.62 333.97 Q2513.45 334.456 2515.35 334.456 Q2519.54 334.456 2521.62 332.257 Q2523.71 330.081 2523.71 325.66 L2523.71 323.553 Q2522.39 325.845 2520.33 326.979 Q2518.27 328.113 2515.4 328.113 Q2510.63 328.113 2507.71 324.479 Q2504.8 320.845 2504.8 314.849 Q2504.8 308.831 2507.71 305.197 Q2510.63 301.562 2515.4 301.562 Q2518.27 301.562 2520.33 302.697 Q2522.39 303.831 2523.71 306.123 L2523.71 302.187 L2527.97 302.187 L2527.97 324.896 Z" fill="#000000" fill-rule="evenodd" fill-opacity="1" /><path clip-path="url(#clip010)" d="M2536.3 317.882 L2536.3 302.187 L2540.56 302.187 L2540.56 317.72 Q2540.56 321.4 2541.99 323.252 Q2543.43 325.081 2546.3 325.081 Q2549.75 325.081 2551.74 322.882 Q2553.75 320.683 2553.75 316.886 L2553.75 302.187 L2558.01 302.187 L2558.01 328.113 L2553.75 328.113 L2553.75 324.132 Q2552.2 326.493 2550.14 327.65 Q2548.11 328.784 2545.4 328.784 Q2540.93 328.784 2538.61 326.007 Q2536.3 323.229 2536.3 317.882 M2547.02 301.562 L2547.02 301.562 Z" fill="#000000" fill-rule="evenodd" fill-opacity="1" /><path clip-path="url(#clip010)" d="M2566.79 292.095 L2571.04 292.095 L2571.04 328.113 L2566.79 328.113 L2566.79 292.095 Z" fill="#000000" fill-rule="evenodd" fill-opacity="1" /></svg>
