<?xml version="1.0" encoding="utf-8"?>
<svg xmlns="http://www.w3.org/2000/svg" xmlns:xlink="http://www.w3.org/1999/xlink" width="576" height="384" viewBox="0 0 2304 1536">
<defs>
  <clipPath id="clip780">
    <rect x="0" y="0" width="2304" height="1536"/>
  </clipPath>
</defs>
<path clip-path="url(#clip780)" d="
M0 1536 L2304 1536 L2304 0 L0 0  Z
  " fill="#ffffff" fill-rule="evenodd" fill-opacity="1"/>
<defs>
  <clipPath id="clip781">
    <rect x="460" y="0" width="1614" height="1536"/>
  </clipPath>
</defs>
<path clip-path="url(#clip780)" d="
M168.161 1359.82 L1104.76 1359.82 L1104.76 47.2441 L168.161 47.2441  Z
  " fill="#ffffff" fill-rule="evenodd" fill-opacity="1"/>
<defs>
  <clipPath id="clip782">
    <rect x="168" y="47" width="938" height="1314"/>
  </clipPath>
</defs>
<polyline clip-path="url(#clip782)" style="stroke:#000000; stroke-linecap:round; stroke-linejoin:round; stroke-width:2; stroke-opacity:0.1; fill:none" points="
  400.46,1359.82 400.46,47.2441 
  "/>
<polyline clip-path="url(#clip782)" style="stroke:#000000; stroke-linecap:round; stroke-linejoin:round; stroke-width:2; stroke-opacity:0.1; fill:none" points="
  872.457,1359.82 872.457,47.2441 
  "/>
<polyline clip-path="url(#clip780)" style="stroke:#000000; stroke-linecap:round; stroke-linejoin:round; stroke-width:4; stroke-opacity:1; fill:none" points="
  168.161,1359.82 1104.76,1359.82 
  "/>
<polyline clip-path="url(#clip780)" style="stroke:#000000; stroke-linecap:round; stroke-linejoin:round; stroke-width:4; stroke-opacity:1; fill:none" points="
  400.46,1359.82 400.46,1340.92 
  "/>
<polyline clip-path="url(#clip780)" style="stroke:#000000; stroke-linecap:round; stroke-linejoin:round; stroke-width:4; stroke-opacity:1; fill:none" points="
  872.457,1359.82 872.457,1340.92 
  "/>
<path clip-path="url(#clip780)" d="M318.342 1386.89 L338.203 1386.89 L338.203 1390.83 L323.018 1390.83 L323.018 1401.01 L336.722 1401.01 L336.722 1404.95 L323.018 1404.95 L323.018 1421.45 L318.342 1421.45 L318.342 1386.89 Z" fill="#000000" fill-rule="evenodd" fill-opacity="1" /><path clip-path="url(#clip780)" d="M365.009 1407.42 L365.009 1409.51 L345.425 1409.51 Q345.703 1413.91 348.064 1416.22 Q350.448 1418.51 354.685 1418.51 Q357.138 1418.51 359.43 1417.91 Q361.745 1417.31 364.013 1416.1 L364.013 1420.13 Q361.722 1421.1 359.314 1421.61 Q356.907 1422.12 354.43 1422.12 Q348.226 1422.12 344.592 1418.51 Q340.981 1414.9 340.981 1408.74 Q340.981 1402.38 344.407 1398.65 Q347.856 1394.9 353.689 1394.9 Q358.921 1394.9 361.953 1398.28 Q365.009 1401.64 365.009 1407.42 M360.749 1406.17 Q360.703 1402.68 358.782 1400.6 Q356.884 1398.51 353.735 1398.51 Q350.171 1398.51 348.018 1400.53 Q345.888 1402.54 345.564 1406.2 L360.749 1406.17 Z" fill="#000000" fill-rule="evenodd" fill-opacity="1" /><path clip-path="url(#clip780)" d="M392.184 1400.5 Q393.782 1397.63 396.004 1396.27 Q398.226 1394.9 401.235 1394.9 Q405.286 1394.9 407.485 1397.75 Q409.684 1400.57 409.684 1405.8 L409.684 1421.45 L405.402 1421.45 L405.402 1405.94 Q405.402 1402.22 404.082 1400.41 Q402.763 1398.6 400.055 1398.6 Q396.744 1398.6 394.823 1400.8 Q392.902 1403 392.902 1406.8 L392.902 1421.45 L388.62 1421.45 L388.62 1405.94 Q388.62 1402.19 387.3 1400.41 Q385.981 1398.6 383.226 1398.6 Q379.962 1398.6 378.041 1400.83 Q376.12 1403.03 376.12 1406.8 L376.12 1421.45 L371.837 1421.45 L371.837 1395.53 L376.12 1395.53 L376.12 1399.55 Q377.578 1397.17 379.615 1396.04 Q381.652 1394.9 384.453 1394.9 Q387.277 1394.9 389.245 1396.34 Q391.235 1397.77 392.184 1400.5 Z" fill="#000000" fill-rule="evenodd" fill-opacity="1" /><path clip-path="url(#clip780)" d="M429.962 1408.42 Q424.8 1408.42 422.809 1409.6 Q420.818 1410.78 420.818 1413.63 Q420.818 1415.9 422.3 1417.24 Q423.805 1418.56 426.374 1418.56 Q429.916 1418.56 432.045 1416.06 Q434.198 1413.54 434.198 1409.37 L434.198 1408.42 L429.962 1408.42 M438.457 1406.66 L438.457 1421.45 L434.198 1421.45 L434.198 1417.52 Q432.74 1419.88 430.564 1421.01 Q428.388 1422.12 425.24 1422.12 Q421.258 1422.12 418.897 1419.9 Q416.559 1417.66 416.559 1413.91 Q416.559 1409.53 419.476 1407.31 Q422.416 1405.09 428.226 1405.09 L434.198 1405.09 L434.198 1404.67 Q434.198 1401.73 432.254 1400.13 Q430.332 1398.51 426.837 1398.51 Q424.615 1398.51 422.508 1399.04 Q420.402 1399.58 418.457 1400.64 L418.457 1396.71 Q420.795 1395.8 422.994 1395.36 Q425.193 1394.9 427.277 1394.9 Q432.902 1394.9 435.679 1397.82 Q438.457 1400.73 438.457 1406.66 Z" fill="#000000" fill-rule="evenodd" fill-opacity="1" /><path clip-path="url(#clip780)" d="M447.23 1385.43 L451.49 1385.43 L451.49 1421.45 L447.23 1421.45 L447.23 1385.43 Z" fill="#000000" fill-rule="evenodd" fill-opacity="1" /><path clip-path="url(#clip780)" d="M482.577 1407.42 L482.577 1409.51 L462.994 1409.51 Q463.272 1413.91 465.633 1416.22 Q468.017 1418.51 472.253 1418.51 Q474.707 1418.51 476.999 1417.91 Q479.313 1417.31 481.582 1416.1 L481.582 1420.13 Q479.29 1421.1 476.883 1421.61 Q474.476 1422.12 471.999 1422.12 Q465.795 1422.12 462.161 1418.51 Q458.55 1414.9 458.55 1408.74 Q458.55 1402.38 461.976 1398.65 Q465.425 1394.9 471.258 1394.9 Q476.489 1394.9 479.522 1398.28 Q482.577 1401.64 482.577 1407.42 M478.318 1406.17 Q478.272 1402.68 476.351 1400.6 Q474.452 1398.51 471.304 1398.51 Q467.739 1398.51 465.587 1400.53 Q463.457 1402.54 463.133 1406.2 L478.318 1406.17 Z" fill="#000000" fill-rule="evenodd" fill-opacity="1" /><path clip-path="url(#clip780)" d="M819.9 1386.89 L826.867 1386.89 L835.687 1410.41 L844.553 1386.89 L851.52 1386.89 L851.52 1421.45 L846.96 1421.45 L846.96 1391.1 L838.048 1414.81 L833.349 1414.81 L824.437 1391.1 L824.437 1421.45 L819.9 1421.45 L819.9 1386.89 Z" fill="#000000" fill-rule="evenodd" fill-opacity="1" /><path clip-path="url(#clip780)" d="M872.4 1408.42 Q867.238 1408.42 865.247 1409.6 Q863.256 1410.78 863.256 1413.63 Q863.256 1415.9 864.738 1417.24 Q866.242 1418.56 868.812 1418.56 Q872.353 1418.56 874.483 1416.06 Q876.636 1413.54 876.636 1409.37 L876.636 1408.42 L872.4 1408.42 M880.895 1406.66 L880.895 1421.45 L876.636 1421.45 L876.636 1417.52 Q875.177 1419.88 873.001 1421.01 Q870.826 1422.12 867.677 1422.12 Q863.696 1422.12 861.335 1419.9 Q858.997 1417.66 858.997 1413.91 Q858.997 1409.53 861.914 1407.31 Q864.853 1405.09 870.664 1405.09 L876.636 1405.09 L876.636 1404.67 Q876.636 1401.73 874.691 1400.13 Q872.77 1398.51 869.275 1398.51 Q867.052 1398.51 864.946 1399.04 Q862.839 1399.58 860.895 1400.64 L860.895 1396.71 Q863.233 1395.8 865.432 1395.36 Q867.631 1394.9 869.714 1394.9 Q875.339 1394.9 878.117 1397.82 Q880.895 1400.73 880.895 1406.66 Z" fill="#000000" fill-rule="evenodd" fill-opacity="1" /><path clip-path="url(#clip780)" d="M889.668 1385.43 L893.927 1385.43 L893.927 1421.45 L889.668 1421.45 L889.668 1385.43 Z" fill="#000000" fill-rule="evenodd" fill-opacity="1" /><path clip-path="url(#clip780)" d="M925.015 1407.42 L925.015 1409.51 L905.432 1409.51 Q905.71 1413.91 908.071 1416.22 Q910.455 1418.51 914.691 1418.51 Q917.145 1418.51 919.436 1417.91 Q921.751 1417.31 924.02 1416.1 L924.02 1420.13 Q921.728 1421.1 919.321 1421.61 Q916.913 1422.12 914.436 1422.12 Q908.233 1422.12 904.599 1418.51 Q900.987 1414.9 900.987 1408.74 Q900.987 1402.38 904.413 1398.65 Q907.862 1394.9 913.696 1394.9 Q918.927 1394.9 921.96 1398.28 Q925.015 1401.64 925.015 1407.42 M920.756 1406.17 Q920.71 1402.68 918.788 1400.6 Q916.89 1398.51 913.742 1398.51 Q910.177 1398.51 908.024 1400.53 Q905.895 1402.54 905.571 1406.2 L920.756 1406.17 Z" fill="#000000" fill-rule="evenodd" fill-opacity="1" /><path clip-path="url(#clip780)" d="M359.646 1455.72 L366.075 1455.72 L366.075 1503.24 L359.646 1503.24 L359.646 1455.72 Z" fill="#000000" fill-rule="evenodd" fill-opacity="1" /><path clip-path="url(#clip780)" d="M402.073 1473.01 L402.073 1453.72 L407.93 1453.72 L407.93 1503.24 L402.073 1503.24 L402.073 1497.9 Q400.227 1501.08 397.394 1502.64 Q394.594 1504.17 390.647 1504.17 Q384.186 1504.17 380.112 1499.01 Q376.069 1493.85 376.069 1485.45 Q376.069 1477.05 380.112 1471.89 Q384.186 1466.74 390.647 1466.74 Q394.594 1466.74 397.394 1468.3 Q400.227 1469.82 402.073 1473.01 M382.117 1485.45 Q382.117 1491.91 384.759 1495.6 Q387.432 1499.27 392.079 1499.27 Q396.726 1499.27 399.4 1495.6 Q402.073 1491.91 402.073 1485.45 Q402.073 1478.99 399.4 1475.33 Q396.726 1471.64 392.079 1471.64 Q387.432 1471.64 384.759 1475.33 Q382.117 1478.99 382.117 1485.45 Z" fill="#000000" fill-rule="evenodd" fill-opacity="1" /><path clip-path="url(#clip780)" d="M450.484 1483.96 L450.484 1486.82 L423.558 1486.82 Q423.939 1492.87 427.186 1496.05 Q430.464 1499.2 436.289 1499.2 Q439.663 1499.2 442.814 1498.37 Q445.997 1497.55 449.116 1495.89 L449.116 1501.43 Q445.965 1502.77 442.655 1503.47 Q439.345 1504.17 435.939 1504.17 Q427.409 1504.17 422.412 1499.2 Q417.446 1494.24 417.446 1485.77 Q417.446 1477.02 422.157 1471.89 Q426.9 1466.74 434.92 1466.74 Q442.114 1466.74 446.283 1471.38 Q450.484 1476 450.484 1483.96 M444.628 1482.24 Q444.564 1477.43 441.923 1474.57 Q439.313 1471.7 434.984 1471.7 Q430.082 1471.7 427.122 1474.47 Q424.194 1477.24 423.749 1482.27 L444.628 1482.24 Z" fill="#000000" fill-rule="evenodd" fill-opacity="1" /><path clip-path="url(#clip780)" d="M489.729 1481.73 L489.729 1503.24 L483.873 1503.24 L483.873 1481.92 Q483.873 1476.86 481.899 1474.34 Q479.926 1471.83 475.979 1471.83 Q471.237 1471.83 468.499 1474.85 Q465.762 1477.88 465.762 1483.1 L465.762 1503.24 L459.874 1503.24 L459.874 1467.6 L465.762 1467.6 L465.762 1473.13 Q467.863 1469.92 470.696 1468.33 Q473.56 1466.74 477.284 1466.74 Q483.427 1466.74 486.578 1470.56 Q489.729 1474.34 489.729 1481.73 Z" fill="#000000" fill-rule="evenodd" fill-opacity="1" /><path clip-path="url(#clip780)" d="M507.203 1457.47 L507.203 1467.6 L519.266 1467.6 L519.266 1472.15 L507.203 1472.15 L507.203 1491.5 Q507.203 1495.86 508.381 1497.1 Q509.59 1498.34 513.25 1498.34 L519.266 1498.34 L519.266 1503.24 L513.25 1503.24 Q506.471 1503.24 503.893 1500.73 Q501.315 1498.18 501.315 1491.5 L501.315 1472.15 L497.018 1472.15 L497.018 1467.6 L501.315 1467.6 L501.315 1457.47 L507.203 1457.47 Z" fill="#000000" fill-rule="evenodd" fill-opacity="1" /><path clip-path="url(#clip780)" d="M526.968 1467.6 L532.825 1467.6 L532.825 1503.24 L526.968 1503.24 L526.968 1467.6 M526.968 1453.72 L532.825 1453.72 L532.825 1461.13 L526.968 1461.13 L526.968 1453.72 Z" fill="#000000" fill-rule="evenodd" fill-opacity="1" /><path clip-path="url(#clip780)" d="M563.126 1453.72 L563.126 1458.59 L557.524 1458.59 Q554.373 1458.59 553.132 1459.86 Q551.922 1461.13 551.922 1464.44 L551.922 1467.6 L561.566 1467.6 L561.566 1472.15 L551.922 1472.15 L551.922 1503.24 L546.034 1503.24 L546.034 1472.15 L540.432 1472.15 L540.432 1467.6 L546.034 1467.6 L546.034 1465.11 Q546.034 1459.16 548.803 1456.46 Q551.572 1453.72 557.588 1453.72 L563.126 1453.72 Z" fill="#000000" fill-rule="evenodd" fill-opacity="1" /><path clip-path="url(#clip780)" d="M568.027 1467.6 L573.884 1467.6 L573.884 1503.24 L568.027 1503.24 L568.027 1467.6 M568.027 1453.72 L573.884 1453.72 L573.884 1461.13 L568.027 1461.13 L568.027 1453.72 Z" fill="#000000" fill-rule="evenodd" fill-opacity="1" /><path clip-path="url(#clip780)" d="M616.629 1483.96 L616.629 1486.82 L589.702 1486.82 Q590.084 1492.87 593.331 1496.05 Q596.609 1499.2 602.434 1499.2 Q605.808 1499.2 608.959 1498.37 Q612.142 1497.55 615.261 1495.89 L615.261 1501.43 Q612.11 1502.77 608.8 1503.47 Q605.489 1504.17 602.084 1504.17 Q593.554 1504.17 588.557 1499.2 Q583.591 1494.24 583.591 1485.77 Q583.591 1477.02 588.302 1471.89 Q593.044 1466.74 601.065 1466.74 Q608.259 1466.74 612.428 1471.38 Q616.629 1476 616.629 1483.96 M610.773 1482.24 Q610.709 1477.43 608.068 1474.57 Q605.458 1471.7 601.129 1471.7 Q596.227 1471.7 593.267 1474.47 Q590.339 1477.24 589.893 1482.27 L610.773 1482.24 Z" fill="#000000" fill-rule="evenodd" fill-opacity="1" /><path clip-path="url(#clip780)" d="M649.699 1473.01 L649.699 1453.72 L655.556 1453.72 L655.556 1503.24 L649.699 1503.24 L649.699 1497.9 Q647.853 1501.08 645.02 1502.64 Q642.22 1504.17 638.273 1504.17 Q631.812 1504.17 627.738 1499.01 Q623.695 1493.85 623.695 1485.45 Q623.695 1477.05 627.738 1471.89 Q631.812 1466.74 638.273 1466.74 Q642.22 1466.74 645.02 1468.3 Q647.853 1469.82 649.699 1473.01 M629.743 1485.45 Q629.743 1491.91 632.385 1495.6 Q635.058 1499.27 639.705 1499.27 Q644.352 1499.27 647.026 1495.6 Q649.699 1491.91 649.699 1485.45 Q649.699 1478.99 647.026 1475.33 Q644.352 1471.64 639.705 1471.64 Q635.058 1471.64 632.385 1475.33 Q629.743 1478.99 629.743 1485.45 Z" fill="#000000" fill-rule="evenodd" fill-opacity="1" /><path clip-path="url(#clip780)" d="M711.797 1485.01 Q711.797 1478.64 709.155 1475.14 Q706.545 1471.64 701.803 1471.64 Q697.092 1471.64 694.45 1475.14 Q691.84 1478.64 691.84 1485.01 Q691.84 1491.34 694.45 1494.84 Q697.092 1498.34 701.803 1498.34 Q706.545 1498.34 709.155 1494.84 Q711.797 1491.34 711.797 1485.01 M717.653 1498.82 Q717.653 1507.92 713.611 1512.35 Q709.569 1516.8 701.23 1516.8 Q698.142 1516.8 695.405 1516.33 Q692.668 1515.88 690.09 1514.92 L690.09 1509.23 Q692.668 1510.63 695.182 1511.3 Q697.697 1511.96 700.307 1511.96 Q706.068 1511.96 708.932 1508.94 Q711.797 1505.95 711.797 1499.87 L711.797 1496.97 Q709.983 1500.12 707.15 1501.68 Q704.317 1503.24 700.37 1503.24 Q693.814 1503.24 689.803 1498.25 Q685.793 1493.25 685.793 1485.01 Q685.793 1476.73 689.803 1471.73 Q693.814 1466.74 700.37 1466.74 Q704.317 1466.74 707.15 1468.3 Q709.983 1469.86 711.797 1473.01 L711.797 1467.6 L717.653 1467.6 L717.653 1498.82 Z" fill="#000000" fill-rule="evenodd" fill-opacity="1" /><path clip-path="url(#clip780)" d="M760.208 1483.96 L760.208 1486.82 L733.281 1486.82 Q733.663 1492.87 736.909 1496.05 Q740.188 1499.2 746.012 1499.2 Q749.386 1499.2 752.537 1498.37 Q755.72 1497.55 758.839 1495.89 L758.839 1501.43 Q755.688 1502.77 752.378 1503.47 Q749.068 1504.17 745.662 1504.17 Q737.132 1504.17 732.135 1499.2 Q727.17 1494.24 727.17 1485.77 Q727.17 1477.02 731.881 1471.89 Q736.623 1466.74 744.644 1466.74 Q751.837 1466.74 756.007 1471.38 Q760.208 1476 760.208 1483.96 M754.351 1482.24 Q754.288 1477.43 751.646 1474.57 Q749.036 1471.7 744.707 1471.7 Q739.806 1471.7 736.846 1474.47 Q733.918 1477.24 733.472 1482.27 L754.351 1482.24 Z" fill="#000000" fill-rule="evenodd" fill-opacity="1" /><path clip-path="url(#clip780)" d="M799.453 1481.73 L799.453 1503.24 L793.596 1503.24 L793.596 1481.92 Q793.596 1476.86 791.623 1474.34 Q789.649 1471.83 785.703 1471.83 Q780.96 1471.83 778.223 1474.85 Q775.486 1477.88 775.486 1483.1 L775.486 1503.24 L769.597 1503.24 L769.597 1467.6 L775.486 1467.6 L775.486 1473.13 Q777.586 1469.92 780.419 1468.33 Q783.284 1466.74 787.008 1466.74 Q793.15 1466.74 796.302 1470.56 Q799.453 1474.34 799.453 1481.73 Z" fill="#000000" fill-rule="evenodd" fill-opacity="1" /><path clip-path="url(#clip780)" d="M834.591 1473.01 L834.591 1453.72 L840.448 1453.72 L840.448 1503.24 L834.591 1503.24 L834.591 1497.9 Q832.745 1501.08 829.912 1502.64 Q827.112 1504.17 823.165 1504.17 Q816.704 1504.17 812.63 1499.01 Q808.587 1493.85 808.587 1485.45 Q808.587 1477.05 812.63 1471.89 Q816.704 1466.74 823.165 1466.74 Q827.112 1466.74 829.912 1468.3 Q832.745 1469.82 834.591 1473.01 M814.635 1485.45 Q814.635 1491.91 817.277 1495.6 Q819.95 1499.27 824.597 1499.27 Q829.244 1499.27 831.918 1495.6 Q834.591 1491.91 834.591 1485.45 Q834.591 1478.99 831.918 1475.33 Q829.244 1471.64 824.597 1471.64 Q819.95 1471.64 817.277 1475.33 Q814.635 1478.99 814.635 1485.45 Z" fill="#000000" fill-rule="evenodd" fill-opacity="1" /><path clip-path="url(#clip780)" d="M883.002 1483.96 L883.002 1486.82 L856.075 1486.82 Q856.457 1492.87 859.704 1496.05 Q862.982 1499.2 868.807 1499.2 Q872.181 1499.2 875.332 1498.37 Q878.515 1497.55 881.634 1495.89 L881.634 1501.43 Q878.483 1502.77 875.173 1503.47 Q871.862 1504.17 868.457 1504.17 Q859.927 1504.17 854.93 1499.2 Q849.964 1494.24 849.964 1485.77 Q849.964 1477.02 854.675 1471.89 Q859.417 1466.74 867.438 1466.74 Q874.632 1466.74 878.801 1471.38 Q883.002 1476 883.002 1483.96 M877.146 1482.24 Q877.082 1477.43 874.441 1474.57 Q871.831 1471.7 867.502 1471.7 Q862.6 1471.7 859.64 1474.47 Q856.712 1477.24 856.266 1482.27 L877.146 1482.24 Z" fill="#000000" fill-rule="evenodd" fill-opacity="1" /><path clip-path="url(#clip780)" d="M913.271 1473.07 Q912.285 1472.5 911.107 1472.24 Q909.961 1471.96 908.561 1471.96 Q903.595 1471.96 900.922 1475.2 Q898.28 1478.42 898.28 1484.47 L898.28 1503.24 L892.392 1503.24 L892.392 1467.6 L898.28 1467.6 L898.28 1473.13 Q900.126 1469.89 903.086 1468.33 Q906.046 1466.74 910.279 1466.74 Q910.884 1466.74 911.616 1466.83 Q912.348 1466.9 913.24 1467.05 L913.271 1473.07 Z" fill="#000000" fill-rule="evenodd" fill-opacity="1" /><polyline clip-path="url(#clip782)" style="stroke:#000000; stroke-linecap:round; stroke-linejoin:round; stroke-width:2; stroke-opacity:0.1; fill:none" points="
  168.161,1322.67 1104.76,1322.67 
  "/>
<polyline clip-path="url(#clip782)" style="stroke:#000000; stroke-linecap:round; stroke-linejoin:round; stroke-width:2; stroke-opacity:0.1; fill:none" points="
  168.161,1009.97 1104.76,1009.97 
  "/>
<polyline clip-path="url(#clip782)" style="stroke:#000000; stroke-linecap:round; stroke-linejoin:round; stroke-width:2; stroke-opacity:0.1; fill:none" points="
  168.161,697.278 1104.76,697.278 
  "/>
<polyline clip-path="url(#clip782)" style="stroke:#000000; stroke-linecap:round; stroke-linejoin:round; stroke-width:2; stroke-opacity:0.1; fill:none" points="
  168.161,384.581 1104.76,384.581 
  "/>
<polyline clip-path="url(#clip782)" style="stroke:#000000; stroke-linecap:round; stroke-linejoin:round; stroke-width:2; stroke-opacity:0.1; fill:none" points="
  168.161,71.8846 1104.76,71.8846 
  "/>
<polyline clip-path="url(#clip780)" style="stroke:#000000; stroke-linecap:round; stroke-linejoin:round; stroke-width:4; stroke-opacity:1; fill:none" points="
  168.161,1359.82 168.161,47.2441 
  "/>
<polyline clip-path="url(#clip780)" style="stroke:#000000; stroke-linecap:round; stroke-linejoin:round; stroke-width:4; stroke-opacity:1; fill:none" points="
  168.161,1322.67 187.059,1322.67 
  "/>
<polyline clip-path="url(#clip780)" style="stroke:#000000; stroke-linecap:round; stroke-linejoin:round; stroke-width:4; stroke-opacity:1; fill:none" points="
  168.161,1009.97 187.059,1009.97 
  "/>
<polyline clip-path="url(#clip780)" style="stroke:#000000; stroke-linecap:round; stroke-linejoin:round; stroke-width:4; stroke-opacity:1; fill:none" points="
  168.161,697.278 187.059,697.278 
  "/>
<polyline clip-path="url(#clip780)" style="stroke:#000000; stroke-linecap:round; stroke-linejoin:round; stroke-width:4; stroke-opacity:1; fill:none" points="
  168.161,384.581 187.059,384.581 
  "/>
<polyline clip-path="url(#clip780)" style="stroke:#000000; stroke-linecap:round; stroke-linejoin:round; stroke-width:4; stroke-opacity:1; fill:none" points="
  168.161,71.8846 187.059,71.8846 
  "/>
<path clip-path="url(#clip780)" d="M121.657 1308.47 Q118.046 1308.47 116.217 1312.03 Q114.412 1315.58 114.412 1322.71 Q114.412 1329.81 116.217 1333.38 Q118.046 1336.92 121.657 1336.92 Q125.291 1336.92 127.097 1333.38 Q128.925 1329.81 128.925 1322.71 Q128.925 1315.58 127.097 1312.03 Q125.291 1308.47 121.657 1308.47 M121.657 1304.77 Q127.467 1304.77 130.523 1309.37 Q133.601 1313.96 133.601 1322.71 Q133.601 1331.43 130.523 1336.04 Q127.467 1340.62 121.657 1340.62 Q115.847 1340.62 112.768 1336.04 Q109.713 1331.43 109.713 1322.71 Q109.713 1313.96 112.768 1309.37 Q115.847 1304.77 121.657 1304.77 Z" fill="#000000" fill-rule="evenodd" fill-opacity="1" /><path clip-path="url(#clip780)" d="M86.5182 1023.32 L102.838 1023.32 L102.838 1027.25 L80.8933 1027.25 L80.8933 1023.32 Q83.5553 1020.56 88.1386 1015.94 Q92.7451 1011.28 93.9256 1009.94 Q96.171 1007.42 97.0506 1005.68 Q97.9534 1003.92 97.9534 1002.23 Q97.9534 999.477 96.0089 997.741 Q94.0876 996.005 90.9858 996.005 Q88.7867 996.005 86.3331 996.769 Q83.9025 997.533 81.1247 999.084 L81.1247 994.361 Q83.9488 993.227 86.4025 992.648 Q88.8562 992.07 90.8932 992.07 Q96.2636 992.07 99.458 994.755 Q102.652 997.44 102.652 1001.93 Q102.652 1004.06 101.842 1005.98 Q101.055 1007.88 98.9487 1010.47 Q98.37 1011.14 95.2682 1014.36 Q92.1664 1017.56 86.5182 1023.32 Z" fill="#000000" fill-rule="evenodd" fill-opacity="1" /><path clip-path="url(#clip780)" d="M112.699 992.695 L131.055 992.695 L131.055 996.63 L116.981 996.63 L116.981 1005.1 Q118 1004.75 119.018 1004.59 Q120.037 1004.41 121.055 1004.41 Q126.842 1004.41 130.222 1007.58 Q133.601 1010.75 133.601 1016.17 Q133.601 1021.75 130.129 1024.85 Q126.657 1027.93 120.337 1027.93 Q118.162 1027.93 115.893 1027.56 Q113.648 1027.19 111.24 1026.44 L111.24 1021.75 Q113.324 1022.88 115.546 1023.44 Q117.768 1023.99 120.245 1023.99 Q124.25 1023.99 126.587 1021.88 Q128.925 1019.78 128.925 1016.17 Q128.925 1012.56 126.587 1010.45 Q124.25 1008.34 120.245 1008.34 Q118.37 1008.34 116.495 1008.76 Q114.643 1009.18 112.699 1010.06 L112.699 992.695 Z" fill="#000000" fill-rule="evenodd" fill-opacity="1" /><path clip-path="url(#clip780)" d="M81.5414 679.998 L99.8978 679.998 L99.8978 683.933 L85.8238 683.933 L85.8238 692.405 Q86.8423 692.058 87.8608 691.896 Q88.8793 691.711 89.8978 691.711 Q95.6849 691.711 99.0645 694.882 Q102.444 698.053 102.444 703.47 Q102.444 709.049 98.9719 712.151 Q95.4997 715.229 89.1803 715.229 Q87.0043 715.229 84.7358 714.859 Q82.4905 714.489 80.0831 713.748 L80.0831 709.049 Q82.1664 710.183 84.3886 710.739 Q86.6108 711.294 89.0877 711.294 Q93.0923 711.294 95.4302 709.188 Q97.7682 707.081 97.7682 703.47 Q97.7682 699.859 95.4302 697.753 Q93.0923 695.646 89.0877 695.646 Q87.2127 695.646 85.3377 696.063 Q83.4858 696.479 81.5414 697.359 L81.5414 679.998 Z" fill="#000000" fill-rule="evenodd" fill-opacity="1" /><path clip-path="url(#clip780)" d="M121.657 683.077 Q118.046 683.077 116.217 686.642 Q114.412 690.183 114.412 697.313 Q114.412 704.419 116.217 707.984 Q118.046 711.526 121.657 711.526 Q125.291 711.526 127.097 707.984 Q128.925 704.419 128.925 697.313 Q128.925 690.183 127.097 686.642 Q125.291 683.077 121.657 683.077 M121.657 679.373 Q127.467 679.373 130.523 683.979 Q133.601 688.563 133.601 697.313 Q133.601 706.04 130.523 710.646 Q127.467 715.229 121.657 715.229 Q115.847 715.229 112.768 710.646 Q109.713 706.04 109.713 697.313 Q109.713 688.563 112.768 683.979 Q115.847 679.373 121.657 679.373 Z" fill="#000000" fill-rule="evenodd" fill-opacity="1" /><path clip-path="url(#clip780)" d="M81.3099 367.301 L103.532 367.301 L103.532 369.292 L90.9858 401.861 L86.1016 401.861 L97.9071 371.236 L81.3099 371.236 L81.3099 367.301 Z" fill="#000000" fill-rule="evenodd" fill-opacity="1" /><path clip-path="url(#clip780)" d="M112.699 367.301 L131.055 367.301 L131.055 371.236 L116.981 371.236 L116.981 379.709 Q118 379.361 119.018 379.199 Q120.037 379.014 121.055 379.014 Q126.842 379.014 130.222 382.185 Q133.601 385.357 133.601 390.773 Q133.601 396.352 130.129 399.454 Q126.657 402.533 120.337 402.533 Q118.162 402.533 115.893 402.162 Q113.648 401.792 111.24 401.051 L111.24 396.352 Q113.324 397.486 115.546 398.042 Q117.768 398.597 120.245 398.597 Q124.25 398.597 126.587 396.491 Q128.925 394.385 128.925 390.773 Q128.925 387.162 126.587 385.056 Q124.25 382.949 120.245 382.949 Q118.37 382.949 116.495 383.366 Q114.643 383.783 112.699 384.662 L112.699 367.301 Z" fill="#000000" fill-rule="evenodd" fill-opacity="1" /><path clip-path="url(#clip780)" d="M52.1434 85.2294 L59.7823 85.2294 L59.7823 58.8638 L51.4721 60.5305 L51.4721 56.2713 L59.736 54.6046 L64.4119 54.6046 L64.4119 85.2294 L72.0507 85.2294 L72.0507 89.1646 L52.1434 89.1646 L52.1434 85.2294 Z" fill="#000000" fill-rule="evenodd" fill-opacity="1" /><path clip-path="url(#clip780)" d="M91.4951 57.6833 Q87.884 57.6833 86.0553 61.2481 Q84.2497 64.7897 84.2497 71.9193 Q84.2497 79.0258 86.0553 82.5906 Q87.884 86.1322 91.4951 86.1322 Q95.1293 86.1322 96.9348 82.5906 Q98.7635 79.0258 98.7635 71.9193 Q98.7635 64.7897 96.9348 61.2481 Q95.1293 57.6833 91.4951 57.6833 M91.4951 53.9796 Q97.3052 53.9796 100.361 58.5861 Q103.439 63.1694 103.439 71.9193 Q103.439 80.6461 100.361 85.2526 Q97.3052 89.8359 91.4951 89.8359 Q85.6849 89.8359 82.6062 85.2526 Q79.5507 80.6461 79.5507 71.9193 Q79.5507 63.1694 82.6062 58.5861 Q85.6849 53.9796 91.4951 53.9796 Z" fill="#000000" fill-rule="evenodd" fill-opacity="1" /><path clip-path="url(#clip780)" d="M121.657 57.6833 Q118.046 57.6833 116.217 61.2481 Q114.412 64.7897 114.412 71.9193 Q114.412 79.0258 116.217 82.5906 Q118.046 86.1322 121.657 86.1322 Q125.291 86.1322 127.097 82.5906 Q128.925 79.0258 128.925 71.9193 Q128.925 64.7897 127.097 61.2481 Q125.291 57.6833 121.657 57.6833 M121.657 53.9796 Q127.467 53.9796 130.523 58.5861 Q133.601 63.1694 133.601 71.9193 Q133.601 80.6461 130.523 85.2526 Q127.467 89.8359 121.657 89.8359 Q115.847 89.8359 112.768 85.2526 Q109.713 80.6461 109.713 71.9193 Q109.713 63.1694 112.768 58.5861 Q115.847 53.9796 121.657 53.9796 Z" fill="#000000" fill-rule="evenodd" fill-opacity="1" /><path clip-path="url(#clip782)" d="
M211.661 1260.13 L211.661 1322.67 L306.06 1322.67 L306.06 1260.13 L211.661 1260.13 L211.661 1260.13  Z
  " fill="#009af9" fill-rule="evenodd" fill-opacity="1"/>
<polyline clip-path="url(#clip782)" style="stroke:#000000; stroke-linecap:round; stroke-linejoin:round; stroke-width:4; stroke-opacity:1; fill:none" points="
  211.661,1260.13 211.661,1322.67 306.06,1322.67 306.06,1260.13 211.661,1260.13 
  "/>
<path clip-path="url(#clip782)" d="
M683.658 1247.62 L683.658 1322.67 L778.058 1322.67 L778.058 1247.62 L683.658 1247.62 L683.658 1247.62  Z
  " fill="#009af9" fill-rule="evenodd" fill-opacity="1"/>
<polyline clip-path="url(#clip782)" style="stroke:#000000; stroke-linecap:round; stroke-linejoin:round; stroke-width:4; stroke-opacity:1; fill:none" points="
  683.658,1247.62 683.658,1322.67 778.058,1322.67 778.058,1247.62 683.658,1247.62 
  "/>
<circle clip-path="url(#clip782)" style="fill:#009af9; stroke:none; fill-opacity:0" cx="258.86" cy="1260.13" r="2"/>
<circle clip-path="url(#clip782)" style="fill:#009af9; stroke:none; fill-opacity:0" cx="730.858" cy="1247.62" r="2"/>
<path clip-path="url(#clip782)" d="
M306.06 84.3925 L306.06 1322.67 L400.46 1322.67 L400.46 84.3925 L306.06 84.3925 L306.06 84.3925  Z
  " fill="#e26f46" fill-rule="evenodd" fill-opacity="1"/>
<polyline clip-path="url(#clip782)" style="stroke:#000000; stroke-linecap:round; stroke-linejoin:round; stroke-width:4; stroke-opacity:1; fill:none" points="
  306.06,84.3925 306.06,1322.67 400.46,1322.67 400.46,84.3925 306.06,84.3925 
  "/>
<path clip-path="url(#clip782)" d="
M778.058 209.471 L778.058 1322.67 L872.457 1322.67 L872.457 209.471 L778.058 209.471 L778.058 209.471  Z
  " fill="#e26f46" fill-rule="evenodd" fill-opacity="1"/>
<polyline clip-path="url(#clip782)" style="stroke:#000000; stroke-linecap:round; stroke-linejoin:round; stroke-width:4; stroke-opacity:1; fill:none" points="
  778.058,209.471 778.058,1322.67 872.457,1322.67 872.457,209.471 778.058,209.471 
  "/>
<circle clip-path="url(#clip782)" style="fill:#e26f46; stroke:none; fill-opacity:0" cx="353.26" cy="84.3925" r="2"/>
<circle clip-path="url(#clip782)" style="fill:#e26f46; stroke:none; fill-opacity:0" cx="825.258" cy="209.471" r="2"/>
<path clip-path="url(#clip782)" d="
M400.46 1210.1 L400.46 1322.67 L494.859 1322.67 L494.859 1210.1 L400.46 1210.1 L400.46 1210.1  Z
  " fill="#3da44d" fill-rule="evenodd" fill-opacity="1"/>
<polyline clip-path="url(#clip782)" style="stroke:#000000; stroke-linecap:round; stroke-linejoin:round; stroke-width:4; stroke-opacity:1; fill:none" points="
  400.46,1210.1 400.46,1322.67 494.859,1322.67 494.859,1210.1 400.46,1210.1 
  "/>
<path clip-path="url(#clip782)" d="
M872.457 1197.59 L872.457 1322.67 L966.857 1322.67 L966.857 1197.59 L872.457 1197.59 L872.457 1197.59  Z
  " fill="#3da44d" fill-rule="evenodd" fill-opacity="1"/>
<polyline clip-path="url(#clip782)" style="stroke:#000000; stroke-linecap:round; stroke-linejoin:round; stroke-width:4; stroke-opacity:1; fill:none" points="
  872.457,1197.59 872.457,1322.67 966.857,1322.67 966.857,1197.59 872.457,1197.59 
  "/>
<circle clip-path="url(#clip782)" style="fill:#3da44d; stroke:none; fill-opacity:0" cx="447.66" cy="1210.1" r="2"/>
<circle clip-path="url(#clip782)" style="fill:#3da44d; stroke:none; fill-opacity:0" cx="919.657" cy="1197.59" r="2"/>
<path clip-path="url(#clip782)" d="
M494.859 1260.13 L494.859 1322.67 L589.259 1322.67 L589.259 1260.13 L494.859 1260.13 L494.859 1260.13  Z
  " fill="#c271d2" fill-rule="evenodd" fill-opacity="1"/>
<polyline clip-path="url(#clip782)" style="stroke:#000000; stroke-linecap:round; stroke-linejoin:round; stroke-width:4; stroke-opacity:1; fill:none" points="
  494.859,1260.13 494.859,1322.67 589.259,1322.67 589.259,1260.13 494.859,1260.13 
  "/>
<path clip-path="url(#clip782)" d="
M966.857 1172.58 L966.857 1322.67 L1061.26 1322.67 L1061.26 1172.58 L966.857 1172.58 L966.857 1172.58  Z
  " fill="#c271d2" fill-rule="evenodd" fill-opacity="1"/>
<polyline clip-path="url(#clip782)" style="stroke:#000000; stroke-linecap:round; stroke-linejoin:round; stroke-width:4; stroke-opacity:1; fill:none" points="
  966.857,1172.58 966.857,1322.67 1061.26,1322.67 1061.26,1172.58 966.857,1172.58 
  "/>
<circle clip-path="url(#clip782)" style="fill:#c271d2; stroke:none; fill-opacity:0" cx="542.059" cy="1260.13" r="2"/>
<circle clip-path="url(#clip782)" style="fill:#c271d2; stroke:none; fill-opacity:0" cx="1014.06" cy="1172.58" r="2"/>
<path clip-path="url(#clip780)" d="
M835.965 350.197 L1073.54 350.197 L1073.54 90.9966 L835.965 90.9966  Z
  " fill="#ffffff" fill-rule="evenodd" fill-opacity="1"/>
<polyline clip-path="url(#clip780)" style="stroke:#000000; stroke-linecap:round; stroke-linejoin:round; stroke-width:4; stroke-opacity:1; fill:none" points="
  835.965,350.197 1073.54,350.197 1073.54,90.9966 835.965,90.9966 835.965,350.197 
  "/>
<path clip-path="url(#clip780)" d="
M846.372 163.573 L908.812 163.573 L908.812 122.101 L846.372 122.101 L846.372 163.573  Z
  " fill="#009af9" fill-rule="evenodd" fill-opacity="1"/>
<polyline clip-path="url(#clip780)" style="stroke:#000000; stroke-linecap:round; stroke-linejoin:round; stroke-width:4; stroke-opacity:1; fill:none" points="
  846.372,163.573 908.812,163.573 908.812,122.101 846.372,122.101 846.372,163.573 
  "/>
<path clip-path="url(#clip780)" d="M919.218 125.557 L923.894 125.557 L923.894 139.723 L940.885 139.723 L940.885 125.557 L945.561 125.557 L945.561 160.117 L940.885 160.117 L940.885 143.658 L923.894 143.658 L923.894 160.117 L919.218 160.117 L919.218 125.557 Z" fill="#000000" fill-rule="evenodd" fill-opacity="1" /><path clip-path="url(#clip780)" d="M976.857 146.089 L976.857 148.172 L957.274 148.172 Q957.551 152.57 959.912 154.885 Q962.297 157.177 966.533 157.177 Q968.986 157.177 971.278 156.575 Q973.593 155.973 975.861 154.769 L975.861 158.797 Q973.57 159.769 971.162 160.279 Q968.755 160.788 966.278 160.788 Q960.074 160.788 956.44 157.177 Q952.829 153.566 952.829 147.408 Q952.829 141.043 956.255 137.316 Q959.704 133.566 965.537 133.566 Q970.769 133.566 973.801 136.945 Q976.857 140.302 976.857 146.089 M972.598 144.839 Q972.551 141.344 970.63 139.26 Q968.732 137.177 965.584 137.177 Q962.019 137.177 959.866 139.191 Q957.737 141.205 957.412 144.862 L972.598 144.839 Z" fill="#000000" fill-rule="evenodd" fill-opacity="1" /><path clip-path="url(#clip780)" d="M995.63 147.084 Q990.468 147.084 988.477 148.265 Q986.486 149.445 986.486 152.293 Q986.486 154.561 987.968 155.904 Q989.472 157.223 992.042 157.223 Q995.584 157.223 997.713 154.723 Q999.866 152.2 999.866 148.033 L999.866 147.084 L995.63 147.084 M1004.13 145.325 L1004.13 160.117 L999.866 160.117 L999.866 156.181 Q998.408 158.543 996.232 159.677 Q994.056 160.788 990.908 160.788 Q986.926 160.788 984.565 158.566 Q982.227 156.32 982.227 152.57 Q982.227 148.195 985.144 145.973 Q988.084 143.751 993.894 143.751 L999.866 143.751 L999.866 143.334 Q999.866 140.395 997.921 138.797 Q996 137.177 992.505 137.177 Q990.283 137.177 988.176 137.709 Q986.07 138.242 984.125 139.307 L984.125 135.371 Q986.463 134.469 988.662 134.029 Q990.861 133.566 992.945 133.566 Q998.57 133.566 1001.35 136.482 Q1004.13 139.399 1004.13 145.325 Z" fill="#000000" fill-rule="evenodd" fill-opacity="1" /><path clip-path="url(#clip780)" d="M1009.84 134.191 L1014.36 134.191 L1022.46 155.95 L1030.56 134.191 L1035.07 134.191 L1025.35 160.117 L1019.56 160.117 L1009.84 134.191 Z" fill="#000000" fill-rule="evenodd" fill-opacity="1" /><path clip-path="url(#clip780)" d="M1051.74 162.524 Q1049.94 167.154 1048.22 168.566 Q1046.51 169.978 1043.64 169.978 L1040.24 169.978 L1040.24 166.413 L1042.74 166.413 Q1044.5 166.413 1045.47 165.58 Q1046.44 164.746 1047.62 161.644 L1048.38 159.7 L1037.9 134.191 L1042.41 134.191 L1050.51 154.469 L1058.62 134.191 L1063.13 134.191 L1051.74 162.524 Z" fill="#000000" fill-rule="evenodd" fill-opacity="1" /><path clip-path="url(#clip780)" d="
M846.372 215.413 L908.812 215.413 L908.812 173.941 L846.372 173.941 L846.372 215.413  Z
  " fill="#e26f46" fill-rule="evenodd" fill-opacity="1"/>
<polyline clip-path="url(#clip780)" style="stroke:#000000; stroke-linecap:round; stroke-linejoin:round; stroke-width:4; stroke-opacity:1; fill:none" points="
  846.372,215.413 908.812,215.413 908.812,173.941 846.372,173.941 846.372,215.413 
  "/>
<path clip-path="url(#clip780)" d="M919.218 177.397 L925.514 177.397 L940.838 206.309 L940.838 177.397 L945.375 177.397 L945.375 211.957 L939.079 211.957 L923.755 183.045 L923.755 211.957 L919.218 211.957 L919.218 177.397 Z" fill="#000000" fill-rule="evenodd" fill-opacity="1" /><path clip-path="url(#clip780)" d="M976.672 197.929 L976.672 200.012 L957.088 200.012 Q957.366 204.41 959.727 206.725 Q962.112 209.017 966.348 209.017 Q968.801 209.017 971.093 208.415 Q973.408 207.813 975.676 206.609 L975.676 210.637 Q973.385 211.609 970.977 212.119 Q968.57 212.628 966.093 212.628 Q959.889 212.628 956.255 209.017 Q952.644 205.406 952.644 199.248 Q952.644 192.883 956.07 189.156 Q959.519 185.406 965.352 185.406 Q970.584 185.406 973.616 188.785 Q976.672 192.142 976.672 197.929 M972.412 196.679 Q972.366 193.184 970.445 191.1 Q968.547 189.017 965.399 189.017 Q961.834 189.017 959.681 191.031 Q957.551 193.045 957.227 196.702 L972.412 196.679 Z" fill="#000000" fill-rule="evenodd" fill-opacity="1" /><path clip-path="url(#clip780)" d="M980.607 186.031 L985.121 186.031 L993.222 207.79 L1001.32 186.031 L1005.84 186.031 L996.116 211.957 L990.329 211.957 L980.607 186.031 Z" fill="#000000" fill-rule="evenodd" fill-opacity="1" /><path clip-path="url(#clip780)" d="M1033.89 197.929 L1033.89 200.012 L1014.31 200.012 Q1014.59 204.41 1016.95 206.725 Q1019.33 209.017 1023.57 209.017 Q1026.02 209.017 1028.31 208.415 Q1030.63 207.813 1032.9 206.609 L1032.9 210.637 Q1030.61 211.609 1028.2 212.119 Q1025.79 212.628 1023.31 212.628 Q1017.11 212.628 1013.48 209.017 Q1009.87 205.406 1009.87 199.248 Q1009.87 192.883 1013.29 189.156 Q1016.74 185.406 1022.57 185.406 Q1027.81 185.406 1030.84 188.785 Q1033.89 192.142 1033.89 197.929 M1029.63 196.679 Q1029.59 193.184 1027.67 191.1 Q1025.77 189.017 1022.62 189.017 Q1019.06 189.017 1016.9 191.031 Q1014.77 193.045 1014.45 196.702 L1029.63 196.679 Z" fill="#000000" fill-rule="evenodd" fill-opacity="1" /><path clip-path="url(#clip780)" d="M1055.91 190.012 Q1055.19 189.596 1054.33 189.41 Q1053.5 189.202 1052.48 189.202 Q1048.87 189.202 1046.93 191.563 Q1045 193.901 1045 198.299 L1045 211.957 L1040.72 211.957 L1040.72 186.031 L1045 186.031 L1045 190.059 Q1046.35 187.697 1048.5 186.563 Q1050.65 185.406 1053.73 185.406 Q1054.17 185.406 1054.7 185.475 Q1055.24 185.522 1055.88 185.637 L1055.91 190.012 Z" fill="#000000" fill-rule="evenodd" fill-opacity="1" /><path clip-path="url(#clip780)" d="
M846.372 267.253 L908.812 267.253 L908.812 225.781 L846.372 225.781 L846.372 267.253  Z
  " fill="#3da44d" fill-rule="evenodd" fill-opacity="1"/>
<polyline clip-path="url(#clip780)" style="stroke:#000000; stroke-linecap:round; stroke-linejoin:round; stroke-width:4; stroke-opacity:1; fill:none" points="
  846.372,267.253 908.812,267.253 908.812,225.781 846.372,225.781 846.372,267.253 
  "/>
<path clip-path="url(#clip780)" d="M935.237 232.408 Q930.144 232.408 927.135 236.204 Q924.149 240 924.149 246.551 Q924.149 253.079 927.135 256.875 Q930.144 260.672 935.237 260.672 Q940.329 260.672 943.292 256.875 Q946.278 253.079 946.278 246.551 Q946.278 240 943.292 236.204 Q940.329 232.408 935.237 232.408 M935.237 228.612 Q942.505 228.612 946.857 233.496 Q951.209 238.357 951.209 246.551 Q951.209 254.723 946.857 259.607 Q942.505 264.468 935.237 264.468 Q927.945 264.468 923.57 259.607 Q919.218 254.746 919.218 246.551 Q919.218 238.357 923.57 233.496 Q927.945 228.612 935.237 228.612 Z" fill="#000000" fill-rule="evenodd" fill-opacity="1" /><path clip-path="url(#clip780)" d="M976.996 238.866 L976.996 242.848 Q975.19 241.852 973.361 241.366 Q971.556 240.857 969.704 240.857 Q965.561 240.857 963.269 243.496 Q960.977 246.112 960.977 250.857 Q960.977 255.602 963.269 258.241 Q965.561 260.857 969.704 260.857 Q971.556 260.857 973.361 260.371 Q975.19 259.861 976.996 258.866 L976.996 262.801 Q975.213 263.635 973.292 264.051 Q971.394 264.468 969.241 264.468 Q963.385 264.468 959.936 260.787 Q956.487 257.107 956.487 250.857 Q956.487 244.514 959.959 240.88 Q963.454 237.246 969.519 237.246 Q971.486 237.246 973.361 237.663 Q975.236 238.056 976.996 238.866 Z" fill="#000000" fill-rule="evenodd" fill-opacity="1" /><path clip-path="url(#clip780)" d="M1003.06 238.866 L1003.06 242.848 Q1001.25 241.852 999.426 241.366 Q997.621 240.857 995.769 240.857 Q991.625 240.857 989.334 243.496 Q987.042 246.112 987.042 250.857 Q987.042 255.602 989.334 258.241 Q991.625 260.857 995.769 260.857 Q997.621 260.857 999.426 260.371 Q1001.25 259.861 1003.06 258.866 L1003.06 262.801 Q1001.28 263.635 999.357 264.051 Q997.459 264.468 995.306 264.468 Q989.449 264.468 986 260.787 Q982.551 257.107 982.551 250.857 Q982.551 244.514 986.023 240.88 Q989.519 237.246 995.584 237.246 Q997.551 237.246 999.426 237.663 Q1001.3 238.056 1003.06 238.866 Z" fill="#000000" fill-rule="evenodd" fill-opacity="1" /><path clip-path="url(#clip780)" d="M1022.25 250.764 Q1017.09 250.764 1015.1 251.945 Q1013.11 253.125 1013.11 255.973 Q1013.11 258.241 1014.59 259.584 Q1016.09 260.903 1018.66 260.903 Q1022.2 260.903 1024.33 258.403 Q1026.49 255.88 1026.49 251.713 L1026.49 250.764 L1022.25 250.764 M1030.75 249.005 L1030.75 263.797 L1026.49 263.797 L1026.49 259.861 Q1025.03 262.223 1022.85 263.357 Q1020.68 264.468 1017.53 264.468 Q1013.55 264.468 1011.19 262.246 Q1008.85 260 1008.85 256.25 Q1008.85 251.875 1011.76 249.653 Q1014.7 247.431 1020.51 247.431 L1026.49 247.431 L1026.49 247.014 Q1026.49 244.075 1024.54 242.477 Q1022.62 240.857 1019.13 240.857 Q1016.9 240.857 1014.8 241.389 Q1012.69 241.922 1010.75 242.987 L1010.75 239.051 Q1013.08 238.149 1015.28 237.709 Q1017.48 237.246 1019.56 237.246 Q1025.19 237.246 1027.97 240.162 Q1030.75 243.079 1030.75 249.005 Z" fill="#000000" fill-rule="evenodd" fill-opacity="1" /><path clip-path="url(#clip780)" d="M1056.05 238.635 L1056.05 242.662 Q1054.24 241.737 1052.3 241.274 Q1050.35 240.811 1048.27 240.811 Q1045.1 240.811 1043.5 241.783 Q1041.93 242.755 1041.93 244.699 Q1041.93 246.181 1043.06 247.037 Q1044.19 247.871 1047.62 248.635 L1049.08 248.959 Q1053.62 249.931 1055.51 251.713 Q1057.44 253.473 1057.44 256.644 Q1057.44 260.255 1054.56 262.361 Q1051.72 264.468 1046.72 264.468 Q1044.63 264.468 1042.37 264.051 Q1040.12 263.658 1037.62 262.848 L1037.62 258.449 Q1039.98 259.676 1042.27 260.301 Q1044.56 260.903 1046.81 260.903 Q1049.82 260.903 1051.44 259.885 Q1053.06 258.843 1053.06 256.968 Q1053.06 255.232 1051.88 254.306 Q1050.72 253.38 1046.76 252.524 L1045.28 252.176 Q1041.32 251.343 1039.56 249.63 Q1037.81 247.894 1037.81 244.885 Q1037.81 241.227 1040.4 239.237 Q1042.99 237.246 1047.76 237.246 Q1050.12 237.246 1052.2 237.593 Q1054.29 237.94 1056.05 238.635 Z" fill="#000000" fill-rule="evenodd" fill-opacity="1" /><path clip-path="url(#clip780)" d="
M846.372 319.093 L908.812 319.093 L908.812 277.621 L846.372 277.621 L846.372 319.093  Z
  " fill="#c271d2" fill-rule="evenodd" fill-opacity="1"/>
<polyline clip-path="url(#clip780)" style="stroke:#000000; stroke-linecap:round; stroke-linejoin:round; stroke-width:4; stroke-opacity:1; fill:none" points="
  846.372,319.093 908.812,319.093 908.812,277.621 846.372,277.621 846.372,319.093 
  "/>
<path clip-path="url(#clip780)" d="M935.607 299.433 Q937.112 299.942 938.524 301.609 Q939.959 303.276 941.394 306.192 L946.139 315.637 L941.116 315.637 L936.695 306.771 Q934.982 303.299 933.362 302.164 Q931.764 301.03 928.987 301.03 L923.894 301.03 L923.894 315.637 L919.218 315.637 L919.218 281.077 L929.774 281.077 Q935.7 281.077 938.616 283.553 Q941.533 286.03 941.533 291.03 Q941.533 294.294 940.005 296.447 Q938.501 298.6 935.607 299.433 M923.894 284.919 L923.894 297.188 L929.774 297.188 Q933.153 297.188 934.866 295.637 Q936.602 294.063 936.602 291.03 Q936.602 287.998 934.866 286.47 Q933.153 284.919 929.774 284.919 L923.894 284.919 Z" fill="#000000" fill-rule="evenodd" fill-opacity="1" /><path clip-path="url(#clip780)" d="M972.019 301.609 L972.019 303.692 L952.436 303.692 Q952.713 308.09 955.075 310.405 Q957.459 312.697 961.695 312.697 Q964.149 312.697 966.44 312.095 Q968.755 311.493 971.023 310.289 L971.023 314.317 Q968.732 315.289 966.324 315.799 Q963.917 316.308 961.44 316.308 Q955.237 316.308 951.602 312.697 Q947.991 309.086 947.991 302.928 Q947.991 296.563 951.417 292.836 Q954.866 289.086 960.699 289.086 Q965.931 289.086 968.963 292.465 Q972.019 295.822 972.019 301.609 M967.76 300.359 Q967.713 296.864 965.792 294.78 Q963.894 292.697 960.746 292.697 Q957.181 292.697 955.028 294.711 Q952.899 296.725 952.575 300.382 L967.76 300.359 Z" fill="#000000" fill-rule="evenodd" fill-opacity="1" /><path clip-path="url(#clip780)" d="M996.07 302.373 Q996.07 297.743 994.148 295.197 Q992.25 292.651 988.801 292.651 Q985.375 292.651 983.454 295.197 Q981.556 297.743 981.556 302.373 Q981.556 306.979 983.454 309.526 Q985.375 312.072 988.801 312.072 Q992.25 312.072 994.148 309.526 Q996.07 306.979 996.07 302.373 M1000.33 312.419 Q1000.33 319.039 997.389 322.257 Q994.449 325.498 988.385 325.498 Q986.139 325.498 984.148 325.15 Q982.158 324.826 980.283 324.132 L980.283 319.988 Q982.158 321.007 983.986 321.493 Q985.815 321.979 987.713 321.979 Q991.903 321.979 993.986 319.78 Q996.07 317.604 996.07 313.183 L996.07 311.076 Q994.75 313.368 992.69 314.502 Q990.63 315.637 987.76 315.637 Q982.991 315.637 980.074 312.002 Q977.158 308.368 977.158 302.373 Q977.158 296.354 980.074 292.72 Q982.991 289.086 987.76 289.086 Q990.63 289.086 992.69 290.22 Q994.75 291.354 996.07 293.646 L996.07 289.711 L1000.33 289.711 L1000.33 312.419 Z" fill="#000000" fill-rule="evenodd" fill-opacity="1" /><path clip-path="url(#clip780)" d="M1008.66 305.405 L1008.66 289.711 L1012.92 289.711 L1012.92 305.243 Q1012.92 308.924 1014.36 310.776 Q1015.79 312.604 1018.66 312.604 Q1022.11 312.604 1024.1 310.405 Q1026.12 308.206 1026.12 304.41 L1026.12 289.711 L1030.38 289.711 L1030.38 315.637 L1026.12 315.637 L1026.12 311.655 Q1024.56 314.016 1022.5 315.174 Q1020.47 316.308 1017.76 316.308 Q1013.29 316.308 1010.98 313.53 Q1008.66 310.752 1008.66 305.405 M1019.38 289.086 L1019.38 289.086 Z" fill="#000000" fill-rule="evenodd" fill-opacity="1" /><path clip-path="url(#clip780)" d="M1039.15 279.618 L1043.41 279.618 L1043.41 315.637 L1039.15 315.637 L1039.15 279.618 Z" fill="#000000" fill-rule="evenodd" fill-opacity="1" /><path clip-path="url(#clip780)" d="
M1320.16 1359.82 L2256.76 1359.82 L2256.76 47.2441 L1320.16 47.2441  Z
  " fill="#ffffff" fill-rule="evenodd" fill-opacity="1"/>
<defs>
  <clipPath id="clip783">
    <rect x="1320" y="47" width="938" height="1314"/>
  </clipPath>
</defs>
<polyline clip-path="url(#clip783)" style="stroke:#000000; stroke-linecap:round; stroke-linejoin:round; stroke-width:2; stroke-opacity:0.1; fill:none" points="
  1556.91,1359.82 1556.91,47.2441 
  "/>
<polyline clip-path="url(#clip783)" style="stroke:#000000; stroke-linecap:round; stroke-linejoin:round; stroke-width:2; stroke-opacity:0.1; fill:none" points="
  2020,1359.82 2020,47.2441 
  "/>
<polyline clip-path="url(#clip780)" style="stroke:#000000; stroke-linecap:round; stroke-linejoin:round; stroke-width:4; stroke-opacity:1; fill:none" points="
  1320.16,1359.82 2256.76,1359.82 
  "/>
<polyline clip-path="url(#clip780)" style="stroke:#000000; stroke-linecap:round; stroke-linejoin:round; stroke-width:4; stroke-opacity:1; fill:none" points="
  1556.91,1359.82 1556.91,1340.92 
  "/>
<polyline clip-path="url(#clip780)" style="stroke:#000000; stroke-linecap:round; stroke-linejoin:round; stroke-width:4; stroke-opacity:1; fill:none" points="
  2020,1359.82 2020,1340.92 
  "/>
<path clip-path="url(#clip780)" d="M1474.79 1386.89 L1494.66 1386.89 L1494.66 1390.83 L1479.47 1390.83 L1479.47 1401.01 L1493.17 1401.01 L1493.17 1404.95 L1479.47 1404.95 L1479.47 1421.45 L1474.79 1421.45 L1474.79 1386.89 Z" fill="#000000" fill-rule="evenodd" fill-opacity="1" /><path clip-path="url(#clip780)" d="M1521.46 1407.42 L1521.46 1409.51 L1501.88 1409.51 Q1502.16 1413.91 1504.52 1416.22 Q1506.9 1418.51 1511.14 1418.51 Q1513.59 1418.51 1515.88 1417.91 Q1518.2 1417.31 1520.47 1416.1 L1520.47 1420.13 Q1518.17 1421.1 1515.77 1421.61 Q1513.36 1422.12 1510.88 1422.12 Q1504.68 1422.12 1501.04 1418.51 Q1497.43 1414.9 1497.43 1408.74 Q1497.43 1402.38 1500.86 1398.65 Q1504.31 1394.9 1510.14 1394.9 Q1515.37 1394.9 1518.41 1398.28 Q1521.46 1401.64 1521.46 1407.42 M1517.2 1406.17 Q1517.16 1402.68 1515.23 1400.6 Q1513.34 1398.51 1510.19 1398.51 Q1506.62 1398.51 1504.47 1400.53 Q1502.34 1402.54 1502.02 1406.2 L1517.2 1406.17 Z" fill="#000000" fill-rule="evenodd" fill-opacity="1" /><path clip-path="url(#clip780)" d="M1548.64 1400.5 Q1550.23 1397.63 1552.46 1396.27 Q1554.68 1394.9 1557.69 1394.9 Q1561.74 1394.9 1563.94 1397.75 Q1566.14 1400.57 1566.14 1405.8 L1566.14 1421.45 L1561.85 1421.45 L1561.85 1405.94 Q1561.85 1402.22 1560.54 1400.41 Q1559.22 1398.6 1556.51 1398.6 Q1553.2 1398.6 1551.28 1400.8 Q1549.35 1403 1549.35 1406.8 L1549.35 1421.45 L1545.07 1421.45 L1545.07 1405.94 Q1545.07 1402.19 1543.75 1400.41 Q1542.43 1398.6 1539.68 1398.6 Q1536.41 1398.6 1534.49 1400.83 Q1532.57 1403.03 1532.57 1406.8 L1532.57 1421.45 L1528.29 1421.45 L1528.29 1395.53 L1532.57 1395.53 L1532.57 1399.55 Q1534.03 1397.17 1536.07 1396.04 Q1538.1 1394.9 1540.91 1394.9 Q1543.73 1394.9 1545.7 1396.34 Q1547.69 1397.77 1548.64 1400.5 Z" fill="#000000" fill-rule="evenodd" fill-opacity="1" /><path clip-path="url(#clip780)" d="M1586.41 1408.42 Q1581.25 1408.42 1579.26 1409.6 Q1577.27 1410.78 1577.27 1413.63 Q1577.27 1415.9 1578.75 1417.24 Q1580.26 1418.56 1582.83 1418.56 Q1586.37 1418.56 1588.5 1416.06 Q1590.65 1413.54 1590.65 1409.37 L1590.65 1408.42 L1586.41 1408.42 M1594.91 1406.66 L1594.91 1421.45 L1590.65 1421.45 L1590.65 1417.52 Q1589.19 1419.88 1587.02 1421.01 Q1584.84 1422.12 1581.69 1422.12 Q1577.71 1422.12 1575.35 1419.9 Q1573.01 1417.66 1573.01 1413.91 Q1573.01 1409.53 1575.93 1407.31 Q1578.87 1405.09 1584.68 1405.09 L1590.65 1405.09 L1590.65 1404.67 Q1590.65 1401.73 1588.71 1400.13 Q1586.79 1398.51 1583.29 1398.51 Q1581.07 1398.51 1578.96 1399.04 Q1576.85 1399.58 1574.91 1400.64 L1574.91 1396.71 Q1577.25 1395.8 1579.45 1395.36 Q1581.65 1394.9 1583.73 1394.9 Q1589.35 1394.9 1592.13 1397.82 Q1594.91 1400.73 1594.91 1406.66 Z" fill="#000000" fill-rule="evenodd" fill-opacity="1" /><path clip-path="url(#clip780)" d="M1603.68 1385.43 L1607.94 1385.43 L1607.94 1421.45 L1603.68 1421.45 L1603.68 1385.43 Z" fill="#000000" fill-rule="evenodd" fill-opacity="1" /><path clip-path="url(#clip780)" d="M1639.03 1407.42 L1639.03 1409.51 L1619.45 1409.51 Q1619.72 1413.91 1622.09 1416.22 Q1624.47 1418.51 1628.71 1418.51 Q1631.16 1418.51 1633.45 1417.91 Q1635.77 1417.31 1638.03 1416.1 L1638.03 1420.13 Q1635.74 1421.1 1633.34 1421.61 Q1630.93 1422.12 1628.45 1422.12 Q1622.25 1422.12 1618.61 1418.51 Q1615 1414.9 1615 1408.74 Q1615 1402.38 1618.43 1398.65 Q1621.88 1394.9 1627.71 1394.9 Q1632.94 1394.9 1635.97 1398.28 Q1639.03 1401.64 1639.03 1407.42 M1634.77 1406.17 Q1634.72 1402.68 1632.8 1400.6 Q1630.91 1398.51 1627.76 1398.51 Q1624.19 1398.51 1622.04 1400.53 Q1619.91 1402.54 1619.59 1406.2 L1634.77 1406.17 Z" fill="#000000" fill-rule="evenodd" fill-opacity="1" /><path clip-path="url(#clip780)" d="M1967.45 1386.89 L1974.41 1386.89 L1983.23 1410.41 L1992.1 1386.89 L1999.07 1386.89 L1999.07 1421.45 L1994.51 1421.45 L1994.51 1391.1 L1985.6 1414.81 L1980.9 1414.81 L1971.98 1391.1 L1971.98 1421.45 L1967.45 1421.45 L1967.45 1386.89 Z" fill="#000000" fill-rule="evenodd" fill-opacity="1" /><path clip-path="url(#clip780)" d="M2019.95 1408.42 Q2014.78 1408.42 2012.79 1409.6 Q2010.8 1410.78 2010.8 1413.63 Q2010.8 1415.9 2012.28 1417.24 Q2013.79 1418.56 2016.36 1418.56 Q2019.9 1418.56 2022.03 1416.06 Q2024.18 1413.54 2024.18 1409.37 L2024.18 1408.42 L2019.95 1408.42 M2028.44 1406.66 L2028.44 1421.45 L2024.18 1421.45 L2024.18 1417.52 Q2022.72 1419.88 2020.55 1421.01 Q2018.37 1422.12 2015.22 1422.12 Q2011.24 1422.12 2008.88 1419.9 Q2006.54 1417.66 2006.54 1413.91 Q2006.54 1409.53 2009.46 1407.31 Q2012.4 1405.09 2018.21 1405.09 L2024.18 1405.09 L2024.18 1404.67 Q2024.18 1401.73 2022.24 1400.13 Q2020.32 1398.51 2016.82 1398.51 Q2014.6 1398.51 2012.49 1399.04 Q2010.39 1399.58 2008.44 1400.64 L2008.44 1396.71 Q2010.78 1395.8 2012.98 1395.36 Q2015.18 1394.9 2017.26 1394.9 Q2022.89 1394.9 2025.66 1397.82 Q2028.44 1400.73 2028.44 1406.66 Z" fill="#000000" fill-rule="evenodd" fill-opacity="1" /><path clip-path="url(#clip780)" d="M2037.22 1385.43 L2041.47 1385.43 L2041.47 1421.45 L2037.22 1421.45 L2037.22 1385.43 Z" fill="#000000" fill-rule="evenodd" fill-opacity="1" /><path clip-path="url(#clip780)" d="M2072.56 1407.42 L2072.56 1409.51 L2052.98 1409.51 Q2053.26 1413.91 2055.62 1416.22 Q2058 1418.51 2062.24 1418.51 Q2064.69 1418.51 2066.98 1417.91 Q2069.3 1417.31 2071.57 1416.1 L2071.57 1420.13 Q2069.28 1421.1 2066.87 1421.61 Q2064.46 1422.12 2061.98 1422.12 Q2055.78 1422.12 2052.15 1418.51 Q2048.53 1414.9 2048.53 1408.74 Q2048.53 1402.38 2051.96 1398.65 Q2055.41 1394.9 2061.24 1394.9 Q2066.47 1394.9 2069.51 1398.28 Q2072.56 1401.64 2072.56 1407.42 M2068.3 1406.17 Q2068.26 1402.68 2066.34 1400.6 Q2064.44 1398.51 2061.29 1398.51 Q2057.72 1398.51 2055.57 1400.53 Q2053.44 1402.54 2053.12 1406.2 L2068.3 1406.17 Z" fill="#000000" fill-rule="evenodd" fill-opacity="1" /><path clip-path="url(#clip780)" d="M1511.65 1455.72 L1518.08 1455.72 L1518.08 1503.24 L1511.65 1503.24 L1511.65 1455.72 Z" fill="#000000" fill-rule="evenodd" fill-opacity="1" /><path clip-path="url(#clip780)" d="M1554.07 1473.01 L1554.07 1453.72 L1559.93 1453.72 L1559.93 1503.24 L1554.07 1503.24 L1554.07 1497.9 Q1552.23 1501.08 1549.39 1502.64 Q1546.59 1504.17 1542.65 1504.17 Q1536.19 1504.17 1532.11 1499.01 Q1528.07 1493.85 1528.07 1485.45 Q1528.07 1477.05 1532.11 1471.89 Q1536.19 1466.74 1542.65 1466.74 Q1546.59 1466.74 1549.39 1468.3 Q1552.23 1469.82 1554.07 1473.01 M1534.12 1485.45 Q1534.12 1491.91 1536.76 1495.6 Q1539.43 1499.27 1544.08 1499.27 Q1548.73 1499.27 1551.4 1495.6 Q1554.07 1491.91 1554.07 1485.45 Q1554.07 1478.99 1551.4 1475.33 Q1548.73 1471.64 1544.08 1471.64 Q1539.43 1471.64 1536.76 1475.33 Q1534.12 1478.99 1534.12 1485.45 Z" fill="#000000" fill-rule="evenodd" fill-opacity="1" /><path clip-path="url(#clip780)" d="M1602.48 1483.96 L1602.48 1486.82 L1575.56 1486.82 Q1575.94 1492.87 1579.19 1496.05 Q1582.46 1499.2 1588.29 1499.2 Q1591.66 1499.2 1594.81 1498.37 Q1598 1497.55 1601.12 1495.89 L1601.12 1501.43 Q1597.96 1502.77 1594.65 1503.47 Q1591.34 1504.17 1587.94 1504.17 Q1579.41 1504.17 1574.41 1499.2 Q1569.45 1494.24 1569.45 1485.77 Q1569.45 1477.02 1574.16 1471.89 Q1578.9 1466.74 1586.92 1466.74 Q1594.11 1466.74 1598.28 1471.38 Q1602.48 1476 1602.48 1483.96 M1596.63 1482.24 Q1596.56 1477.43 1593.92 1474.57 Q1591.31 1471.7 1586.98 1471.7 Q1582.08 1471.7 1579.12 1474.47 Q1576.19 1477.24 1575.75 1482.27 L1596.63 1482.24 Z" fill="#000000" fill-rule="evenodd" fill-opacity="1" /><path clip-path="url(#clip780)" d="M1641.73 1481.73 L1641.73 1503.24 L1635.87 1503.24 L1635.87 1481.92 Q1635.87 1476.86 1633.9 1474.34 Q1631.93 1471.83 1627.98 1471.83 Q1623.24 1471.83 1620.5 1474.85 Q1617.76 1477.88 1617.76 1483.1 L1617.76 1503.24 L1611.87 1503.24 L1611.87 1467.6 L1617.76 1467.6 L1617.76 1473.13 Q1619.86 1469.92 1622.7 1468.33 Q1625.56 1466.74 1629.28 1466.74 Q1635.43 1466.74 1638.58 1470.56 Q1641.73 1474.34 1641.73 1481.73 Z" fill="#000000" fill-rule="evenodd" fill-opacity="1" /><path clip-path="url(#clip780)" d="M1659.2 1457.47 L1659.2 1467.6 L1671.27 1467.6 L1671.27 1472.15 L1659.2 1472.15 L1659.2 1491.5 Q1659.2 1495.86 1660.38 1497.1 Q1661.59 1498.34 1665.25 1498.34 L1671.27 1498.34 L1671.27 1503.24 L1665.25 1503.24 Q1658.47 1503.24 1655.89 1500.73 Q1653.31 1498.18 1653.31 1491.5 L1653.31 1472.15 L1649.02 1472.15 L1649.02 1467.6 L1653.31 1467.6 L1653.31 1457.47 L1659.2 1457.47 Z" fill="#000000" fill-rule="evenodd" fill-opacity="1" /><path clip-path="url(#clip780)" d="M1678.97 1467.6 L1684.82 1467.6 L1684.82 1503.24 L1678.97 1503.24 L1678.97 1467.6 M1678.97 1453.72 L1684.82 1453.72 L1684.82 1461.13 L1678.97 1461.13 L1678.97 1453.72 Z" fill="#000000" fill-rule="evenodd" fill-opacity="1" /><path clip-path="url(#clip780)" d="M1715.13 1453.72 L1715.13 1458.59 L1709.52 1458.59 Q1706.37 1458.59 1705.13 1459.86 Q1703.92 1461.13 1703.92 1464.44 L1703.92 1467.6 L1713.57 1467.6 L1713.57 1472.15 L1703.92 1472.15 L1703.92 1503.24 L1698.03 1503.24 L1698.03 1472.15 L1692.43 1472.15 L1692.43 1467.6 L1698.03 1467.6 L1698.03 1465.11 Q1698.03 1459.16 1700.8 1456.46 Q1703.57 1453.72 1709.59 1453.72 L1715.13 1453.72 Z" fill="#000000" fill-rule="evenodd" fill-opacity="1" /><path clip-path="url(#clip780)" d="M1720.03 1467.6 L1725.88 1467.6 L1725.88 1503.24 L1720.03 1503.24 L1720.03 1467.6 M1720.03 1453.72 L1725.88 1453.72 L1725.88 1461.13 L1720.03 1461.13 L1720.03 1453.72 Z" fill="#000000" fill-rule="evenodd" fill-opacity="1" /><path clip-path="url(#clip780)" d="M1768.63 1483.96 L1768.63 1486.82 L1741.7 1486.82 Q1742.08 1492.87 1745.33 1496.05 Q1748.61 1499.2 1754.43 1499.2 Q1757.81 1499.2 1760.96 1498.37 Q1764.14 1497.55 1767.26 1495.89 L1767.26 1501.43 Q1764.11 1502.77 1760.8 1503.47 Q1757.49 1504.17 1754.08 1504.17 Q1745.55 1504.17 1740.56 1499.2 Q1735.59 1494.24 1735.59 1485.77 Q1735.59 1477.02 1740.3 1471.89 Q1745.04 1466.74 1753.07 1466.74 Q1760.26 1466.74 1764.43 1471.38 Q1768.63 1476 1768.63 1483.96 M1762.77 1482.24 Q1762.71 1477.43 1760.07 1474.57 Q1757.46 1471.7 1753.13 1471.7 Q1748.23 1471.7 1745.27 1474.47 Q1742.34 1477.24 1741.89 1482.27 L1762.77 1482.24 Z" fill="#000000" fill-rule="evenodd" fill-opacity="1" /><path clip-path="url(#clip780)" d="M1801.7 1473.01 L1801.7 1453.72 L1807.56 1453.72 L1807.56 1503.24 L1801.7 1503.24 L1801.7 1497.9 Q1799.85 1501.08 1797.02 1502.64 Q1794.22 1504.17 1790.27 1504.17 Q1783.81 1504.17 1779.74 1499.01 Q1775.7 1493.85 1775.7 1485.45 Q1775.7 1477.05 1779.74 1471.89 Q1783.81 1466.74 1790.27 1466.74 Q1794.22 1466.74 1797.02 1468.3 Q1799.85 1469.82 1801.7 1473.01 M1781.74 1485.45 Q1781.74 1491.91 1784.38 1495.6 Q1787.06 1499.27 1791.71 1499.27 Q1796.35 1499.27 1799.03 1495.6 Q1801.7 1491.91 1801.7 1485.45 Q1801.7 1478.99 1799.03 1475.33 Q1796.35 1471.64 1791.71 1471.64 Q1787.06 1471.64 1784.38 1475.33 Q1781.74 1478.99 1781.74 1485.45 Z" fill="#000000" fill-rule="evenodd" fill-opacity="1" /><path clip-path="url(#clip780)" d="M1863.8 1485.01 Q1863.8 1478.64 1861.15 1475.14 Q1858.55 1471.64 1853.8 1471.64 Q1849.09 1471.64 1846.45 1475.14 Q1843.84 1478.64 1843.84 1485.01 Q1843.84 1491.34 1846.45 1494.84 Q1849.09 1498.34 1853.8 1498.34 Q1858.55 1498.34 1861.15 1494.84 Q1863.8 1491.34 1863.8 1485.01 M1869.65 1498.82 Q1869.65 1507.92 1865.61 1512.35 Q1861.57 1516.8 1853.23 1516.8 Q1850.14 1516.8 1847.41 1516.33 Q1844.67 1515.88 1842.09 1514.92 L1842.09 1509.23 Q1844.67 1510.63 1847.18 1511.3 Q1849.7 1511.96 1852.31 1511.96 Q1858.07 1511.96 1860.93 1508.94 Q1863.8 1505.95 1863.8 1499.87 L1863.8 1496.97 Q1861.98 1500.12 1859.15 1501.68 Q1856.32 1503.24 1852.37 1503.24 Q1845.81 1503.24 1841.8 1498.25 Q1837.79 1493.25 1837.79 1485.01 Q1837.79 1476.73 1841.8 1471.73 Q1845.81 1466.74 1852.37 1466.74 Q1856.32 1466.74 1859.15 1468.3 Q1861.98 1469.86 1863.8 1473.01 L1863.8 1467.6 L1869.65 1467.6 L1869.65 1498.82 Z" fill="#000000" fill-rule="evenodd" fill-opacity="1" /><path clip-path="url(#clip780)" d="M1912.21 1483.96 L1912.21 1486.82 L1885.28 1486.82 Q1885.66 1492.87 1888.91 1496.05 Q1892.19 1499.2 1898.01 1499.2 Q1901.39 1499.2 1904.54 1498.37 Q1907.72 1497.55 1910.84 1495.89 L1910.84 1501.43 Q1907.69 1502.77 1904.38 1503.47 Q1901.07 1504.17 1897.66 1504.17 Q1889.13 1504.17 1884.14 1499.2 Q1879.17 1494.24 1879.17 1485.77 Q1879.17 1477.02 1883.88 1471.89 Q1888.62 1466.74 1896.64 1466.74 Q1903.84 1466.74 1908.01 1471.38 Q1912.21 1476 1912.21 1483.96 M1906.35 1482.24 Q1906.29 1477.43 1903.65 1474.57 Q1901.04 1471.7 1896.71 1471.7 Q1891.81 1471.7 1888.85 1474.47 Q1885.92 1477.24 1885.47 1482.27 L1906.35 1482.24 Z" fill="#000000" fill-rule="evenodd" fill-opacity="1" /><path clip-path="url(#clip780)" d="M1951.45 1481.73 L1951.45 1503.24 L1945.6 1503.24 L1945.6 1481.92 Q1945.6 1476.86 1943.62 1474.34 Q1941.65 1471.83 1937.7 1471.83 Q1932.96 1471.83 1930.22 1474.85 Q1927.49 1477.88 1927.49 1483.1 L1927.49 1503.24 L1921.6 1503.24 L1921.6 1467.6 L1927.49 1467.6 L1927.49 1473.13 Q1929.59 1469.92 1932.42 1468.33 Q1935.28 1466.74 1939.01 1466.74 Q1945.15 1466.74 1948.3 1470.56 Q1951.45 1474.34 1951.45 1481.73 Z" fill="#000000" fill-rule="evenodd" fill-opacity="1" /><path clip-path="url(#clip780)" d="M1986.59 1473.01 L1986.59 1453.72 L1992.45 1453.72 L1992.45 1503.24 L1986.59 1503.24 L1986.59 1497.9 Q1984.75 1501.08 1981.91 1502.64 Q1979.11 1504.17 1975.16 1504.17 Q1968.7 1504.17 1964.63 1499.01 Q1960.59 1493.85 1960.59 1485.45 Q1960.59 1477.05 1964.63 1471.89 Q1968.7 1466.74 1975.16 1466.74 Q1979.11 1466.74 1981.91 1468.3 Q1984.75 1469.82 1986.59 1473.01 M1966.63 1485.45 Q1966.63 1491.91 1969.28 1495.6 Q1971.95 1499.27 1976.6 1499.27 Q1981.24 1499.27 1983.92 1495.6 Q1986.59 1491.91 1986.59 1485.45 Q1986.59 1478.99 1983.92 1475.33 Q1981.24 1471.64 1976.6 1471.64 Q1971.95 1471.64 1969.28 1475.33 Q1966.63 1478.99 1966.63 1485.45 Z" fill="#000000" fill-rule="evenodd" fill-opacity="1" /><path clip-path="url(#clip780)" d="M2035 1483.96 L2035 1486.82 L2008.08 1486.82 Q2008.46 1492.87 2011.7 1496.05 Q2014.98 1499.2 2020.81 1499.2 Q2024.18 1499.2 2027.33 1498.37 Q2030.51 1497.55 2033.63 1495.89 L2033.63 1501.43 Q2030.48 1502.77 2027.17 1503.47 Q2023.86 1504.17 2020.46 1504.17 Q2011.93 1504.17 2006.93 1499.2 Q2001.96 1494.24 2001.96 1485.77 Q2001.96 1477.02 2006.68 1471.89 Q2011.42 1466.74 2019.44 1466.74 Q2026.63 1466.74 2030.8 1471.38 Q2035 1476 2035 1483.96 M2029.15 1482.24 Q2029.08 1477.43 2026.44 1474.57 Q2023.83 1471.7 2019.5 1471.7 Q2014.6 1471.7 2011.64 1474.47 Q2008.71 1477.24 2008.27 1482.27 L2029.15 1482.24 Z" fill="#000000" fill-rule="evenodd" fill-opacity="1" /><path clip-path="url(#clip780)" d="M2065.27 1473.07 Q2064.28 1472.5 2063.11 1472.24 Q2061.96 1471.96 2060.56 1471.96 Q2055.6 1471.96 2052.92 1475.2 Q2050.28 1478.42 2050.28 1484.47 L2050.28 1503.24 L2044.39 1503.24 L2044.39 1467.6 L2050.28 1467.6 L2050.28 1473.13 Q2052.13 1469.89 2055.09 1468.33 Q2058.05 1466.74 2062.28 1466.74 Q2062.88 1466.74 2063.62 1466.83 Q2064.35 1466.9 2065.24 1467.05 L2065.27 1473.07 Z" fill="#000000" fill-rule="evenodd" fill-opacity="1" /><polyline clip-path="url(#clip783)" style="stroke:#000000; stroke-linecap:round; stroke-linejoin:round; stroke-width:2; stroke-opacity:0.1; fill:none" points="
  1320.16,1322.67 2256.76,1322.67 
  "/>
<polyline clip-path="url(#clip783)" style="stroke:#000000; stroke-linecap:round; stroke-linejoin:round; stroke-width:2; stroke-opacity:0.1; fill:none" points="
  1320.16,1060.32 2256.76,1060.32 
  "/>
<polyline clip-path="url(#clip783)" style="stroke:#000000; stroke-linecap:round; stroke-linejoin:round; stroke-width:2; stroke-opacity:0.1; fill:none" points="
  1320.16,797.977 2256.76,797.977 
  "/>
<polyline clip-path="url(#clip783)" style="stroke:#000000; stroke-linecap:round; stroke-linejoin:round; stroke-width:2; stroke-opacity:0.1; fill:none" points="
  1320.16,535.63 2256.76,535.63 
  "/>
<polyline clip-path="url(#clip783)" style="stroke:#000000; stroke-linecap:round; stroke-linejoin:round; stroke-width:2; stroke-opacity:0.1; fill:none" points="
  1320.16,273.282 2256.76,273.282 
  "/>
<polyline clip-path="url(#clip780)" style="stroke:#000000; stroke-linecap:round; stroke-linejoin:round; stroke-width:4; stroke-opacity:1; fill:none" points="
  1320.16,1359.82 1320.16,47.2441 
  "/>
<polyline clip-path="url(#clip780)" style="stroke:#000000; stroke-linecap:round; stroke-linejoin:round; stroke-width:4; stroke-opacity:1; fill:none" points="
  1320.16,1322.67 1339.06,1322.67 
  "/>
<polyline clip-path="url(#clip780)" style="stroke:#000000; stroke-linecap:round; stroke-linejoin:round; stroke-width:4; stroke-opacity:1; fill:none" points="
  1320.16,1060.32 1339.06,1060.32 
  "/>
<polyline clip-path="url(#clip780)" style="stroke:#000000; stroke-linecap:round; stroke-linejoin:round; stroke-width:4; stroke-opacity:1; fill:none" points="
  1320.16,797.977 1339.06,797.977 
  "/>
<polyline clip-path="url(#clip780)" style="stroke:#000000; stroke-linecap:round; stroke-linejoin:round; stroke-width:4; stroke-opacity:1; fill:none" points="
  1320.16,535.63 1339.06,535.63 
  "/>
<polyline clip-path="url(#clip780)" style="stroke:#000000; stroke-linecap:round; stroke-linejoin:round; stroke-width:4; stroke-opacity:1; fill:none" points="
  1320.16,273.282 1339.06,273.282 
  "/>
<path clip-path="url(#clip780)" d="M1273.66 1308.47 Q1270.05 1308.47 1268.22 1312.03 Q1266.41 1315.58 1266.41 1322.71 Q1266.41 1329.81 1268.22 1333.38 Q1270.05 1336.92 1273.66 1336.92 Q1277.29 1336.92 1279.1 1333.38 Q1280.93 1329.81 1280.93 1322.71 Q1280.93 1315.58 1279.1 1312.03 Q1277.29 1308.47 1273.66 1308.47 M1273.66 1304.77 Q1279.47 1304.77 1282.52 1309.37 Q1285.6 1313.96 1285.6 1322.71 Q1285.6 1331.43 1282.52 1336.04 Q1279.47 1340.62 1273.66 1340.62 Q1267.85 1340.62 1264.77 1336.04 Q1261.71 1331.43 1261.71 1322.71 Q1261.71 1313.96 1264.77 1309.37 Q1267.85 1304.77 1273.66 1304.77 Z" fill="#000000" fill-rule="evenodd" fill-opacity="1" /><path clip-path="url(#clip780)" d="M1238.52 1073.67 L1254.84 1073.67 L1254.84 1077.6 L1232.89 1077.6 L1232.89 1073.67 Q1235.56 1070.91 1240.14 1066.28 Q1244.75 1061.63 1245.93 1060.29 Q1248.17 1057.77 1249.05 1056.03 Q1249.95 1054.27 1249.95 1052.58 Q1249.95 1049.83 1248.01 1048.09 Q1246.09 1046.35 1242.99 1046.35 Q1240.79 1046.35 1238.33 1047.12 Q1235.9 1047.88 1233.12 1049.43 L1233.12 1044.71 Q1235.95 1043.58 1238.4 1043 Q1240.86 1042.42 1242.89 1042.42 Q1248.26 1042.42 1251.46 1045.1 Q1254.65 1047.79 1254.65 1052.28 Q1254.65 1054.41 1253.84 1056.33 Q1253.06 1058.23 1250.95 1060.82 Q1250.37 1061.49 1247.27 1064.71 Q1244.17 1067.91 1238.52 1073.67 Z" fill="#000000" fill-rule="evenodd" fill-opacity="1" /><path clip-path="url(#clip780)" d="M1264.7 1043.04 L1283.06 1043.04 L1283.06 1046.98 L1268.98 1046.98 L1268.98 1055.45 Q1270 1055.1 1271.02 1054.94 Q1272.04 1054.76 1273.06 1054.76 Q1278.84 1054.76 1282.22 1057.93 Q1285.6 1061.1 1285.6 1066.52 Q1285.6 1072.09 1282.13 1075.2 Q1278.66 1078.28 1272.34 1078.28 Q1270.16 1078.28 1267.89 1077.91 Q1265.65 1077.53 1263.24 1076.79 L1263.24 1072.09 Q1265.32 1073.23 1267.55 1073.78 Q1269.77 1074.34 1272.24 1074.34 Q1276.25 1074.34 1278.59 1072.23 Q1280.93 1070.13 1280.93 1066.52 Q1280.93 1062.91 1278.59 1060.8 Q1276.25 1058.69 1272.24 1058.69 Q1270.37 1058.69 1268.49 1059.11 Q1266.64 1059.53 1264.7 1060.41 L1264.7 1043.04 Z" fill="#000000" fill-rule="evenodd" fill-opacity="1" /><path clip-path="url(#clip780)" d="M1233.54 780.697 L1251.9 780.697 L1251.9 784.632 L1237.82 784.632 L1237.82 793.104 Q1238.84 792.757 1239.86 792.595 Q1240.88 792.41 1241.9 792.41 Q1247.68 792.41 1251.06 795.581 Q1254.44 798.752 1254.44 804.169 Q1254.44 809.748 1250.97 812.85 Q1247.5 815.928 1241.18 815.928 Q1239 815.928 1236.74 815.558 Q1234.49 815.188 1232.08 814.447 L1232.08 809.748 Q1234.17 810.882 1236.39 811.438 Q1238.61 811.993 1241.09 811.993 Q1245.09 811.993 1247.43 809.887 Q1249.77 807.78 1249.77 804.169 Q1249.77 800.558 1247.43 798.452 Q1245.09 796.345 1241.09 796.345 Q1239.21 796.345 1237.34 796.762 Q1235.49 797.178 1233.54 798.058 L1233.54 780.697 Z" fill="#000000" fill-rule="evenodd" fill-opacity="1" /><path clip-path="url(#clip780)" d="M1273.66 783.776 Q1270.05 783.776 1268.22 787.34 Q1266.41 790.882 1266.41 798.012 Q1266.41 805.118 1268.22 808.683 Q1270.05 812.225 1273.66 812.225 Q1277.29 812.225 1279.1 808.683 Q1280.93 805.118 1280.93 798.012 Q1280.93 790.882 1279.1 787.34 Q1277.29 783.776 1273.66 783.776 M1273.66 780.072 Q1279.47 780.072 1282.52 784.678 Q1285.6 789.262 1285.6 798.012 Q1285.6 806.739 1282.52 811.345 Q1279.47 815.928 1273.66 815.928 Q1267.85 815.928 1264.77 811.345 Q1261.71 806.739 1261.71 798.012 Q1261.71 789.262 1264.77 784.678 Q1267.85 780.072 1273.66 780.072 Z" fill="#000000" fill-rule="evenodd" fill-opacity="1" /><path clip-path="url(#clip780)" d="M1233.31 518.35 L1255.53 518.35 L1255.53 520.34 L1242.99 552.91 L1238.1 552.91 L1249.91 522.285 L1233.31 522.285 L1233.31 518.35 Z" fill="#000000" fill-rule="evenodd" fill-opacity="1" /><path clip-path="url(#clip780)" d="M1264.7 518.35 L1283.06 518.35 L1283.06 522.285 L1268.98 522.285 L1268.98 530.757 Q1270 530.41 1271.02 530.248 Q1272.04 530.063 1273.06 530.063 Q1278.84 530.063 1282.22 533.234 Q1285.6 536.405 1285.6 541.822 Q1285.6 547.401 1282.13 550.502 Q1278.66 553.581 1272.34 553.581 Q1270.16 553.581 1267.89 553.211 Q1265.65 552.84 1263.24 552.1 L1263.24 547.401 Q1265.32 548.535 1267.55 549.09 Q1269.77 549.646 1272.24 549.646 Q1276.25 549.646 1278.59 547.539 Q1280.93 545.433 1280.93 541.822 Q1280.93 538.211 1278.59 536.104 Q1276.25 533.998 1272.24 533.998 Q1270.37 533.998 1268.49 534.414 Q1266.64 534.831 1264.7 535.711 L1264.7 518.35 Z" fill="#000000" fill-rule="evenodd" fill-opacity="1" /><path clip-path="url(#clip780)" d="M1204.14 286.627 L1211.78 286.627 L1211.78 260.262 L1203.47 261.928 L1203.47 257.669 L1211.74 256.002 L1216.41 256.002 L1216.41 286.627 L1224.05 286.627 L1224.05 290.562 L1204.14 290.562 L1204.14 286.627 Z" fill="#000000" fill-rule="evenodd" fill-opacity="1" /><path clip-path="url(#clip780)" d="M1243.5 259.081 Q1239.88 259.081 1238.06 262.646 Q1236.25 266.188 1236.25 273.317 Q1236.25 280.424 1238.06 283.988 Q1239.88 287.53 1243.5 287.53 Q1247.13 287.53 1248.93 283.988 Q1250.76 280.424 1250.76 273.317 Q1250.76 266.188 1248.93 262.646 Q1247.13 259.081 1243.5 259.081 M1243.5 255.377 Q1249.31 255.377 1252.36 259.984 Q1255.44 264.567 1255.44 273.317 Q1255.44 282.044 1252.36 286.65 Q1249.31 291.234 1243.5 291.234 Q1237.68 291.234 1234.61 286.65 Q1231.55 282.044 1231.55 273.317 Q1231.55 264.567 1234.61 259.984 Q1237.68 255.377 1243.5 255.377 Z" fill="#000000" fill-rule="evenodd" fill-opacity="1" /><path clip-path="url(#clip780)" d="M1273.66 259.081 Q1270.05 259.081 1268.22 262.646 Q1266.41 266.188 1266.41 273.317 Q1266.41 280.424 1268.22 283.988 Q1270.05 287.53 1273.66 287.53 Q1277.29 287.53 1279.1 283.988 Q1280.93 280.424 1280.93 273.317 Q1280.93 266.188 1279.1 262.646 Q1277.29 259.081 1273.66 259.081 M1273.66 255.377 Q1279.47 255.377 1282.52 259.984 Q1285.6 264.567 1285.6 273.317 Q1285.6 282.044 1282.52 286.65 Q1279.47 291.234 1273.66 291.234 Q1267.85 291.234 1264.77 286.65 Q1261.71 282.044 1261.71 273.317 Q1261.71 264.567 1264.77 259.984 Q1267.85 255.377 1273.66 255.377 Z" fill="#000000" fill-rule="evenodd" fill-opacity="1" /><path clip-path="url(#clip783)" d="
M1371.68 84.3925 L1371.68 136.862 L1742.15 136.862 L1742.15 84.3925 L1371.68 84.3925 L1371.68 84.3925  Z
  " fill="#009af9" fill-rule="evenodd" fill-opacity="1"/>
<polyline clip-path="url(#clip783)" style="stroke:#000000; stroke-linecap:round; stroke-linejoin:round; stroke-width:4; stroke-opacity:1; fill:none" points="
  1371.68,84.3925 1371.68,136.862 1742.15,136.862 1742.15,84.3925 1371.68,84.3925 
  "/>
<path clip-path="url(#clip783)" d="
M1834.77 94.8864 L1834.77 157.85 L2205.24 157.85 L2205.24 94.8864 L1834.77 94.8864 L1834.77 94.8864  Z
  " fill="#009af9" fill-rule="evenodd" fill-opacity="1"/>
<polyline clip-path="url(#clip783)" style="stroke:#000000; stroke-linecap:round; stroke-linejoin:round; stroke-width:4; stroke-opacity:1; fill:none" points="
  1834.77,94.8864 1834.77,157.85 2205.24,157.85 2205.24,94.8864 1834.77,94.8864 
  "/>
<circle clip-path="url(#clip783)" style="fill:#009af9; stroke:none; fill-opacity:0" cx="1556.91" cy="84.3925" r="2"/>
<circle clip-path="url(#clip783)" style="fill:#009af9; stroke:none; fill-opacity:0" cx="2020" cy="94.8864" r="2"/>
<path clip-path="url(#clip783)" d="
M1371.68 136.862 L1371.68 1175.76 L1742.15 1175.76 L1742.15 136.862 L1371.68 136.862 L1371.68 136.862  Z
  " fill="#e26f46" fill-rule="evenodd" fill-opacity="1"/>
<polyline clip-path="url(#clip783)" style="stroke:#000000; stroke-linecap:round; stroke-linejoin:round; stroke-width:4; stroke-opacity:1; fill:none" points="
  1371.68,136.862 1371.68,1175.76 1742.15,1175.76 1742.15,136.862 1371.68,136.862 
  "/>
<path clip-path="url(#clip783)" d="
M1834.77 157.85 L1834.77 1091.81 L2205.24 1091.81 L2205.24 157.85 L1834.77 157.85 L1834.77 157.85  Z
  " fill="#e26f46" fill-rule="evenodd" fill-opacity="1"/>
<polyline clip-path="url(#clip783)" style="stroke:#000000; stroke-linecap:round; stroke-linejoin:round; stroke-width:4; stroke-opacity:1; fill:none" points="
  1834.77,157.85 1834.77,1091.81 2205.24,1091.81 2205.24,157.85 1834.77,157.85 
  "/>
<circle clip-path="url(#clip783)" style="fill:#e26f46; stroke:none; fill-opacity:0" cx="1556.91" cy="136.862" r="2"/>
<circle clip-path="url(#clip783)" style="fill:#e26f46; stroke:none; fill-opacity:0" cx="2020" cy="157.85" r="2"/>
<path clip-path="url(#clip783)" d="
M1371.68 1175.76 L1371.68 1270.2 L1742.15 1270.2 L1742.15 1175.76 L1371.68 1175.76 L1371.68 1175.76  Z
  " fill="#3da44d" fill-rule="evenodd" fill-opacity="1"/>
<polyline clip-path="url(#clip783)" style="stroke:#000000; stroke-linecap:round; stroke-linejoin:round; stroke-width:4; stroke-opacity:1; fill:none" points="
  1371.68,1175.76 1371.68,1270.2 1742.15,1270.2 1742.15,1175.76 1371.68,1175.76 
  "/>
<path clip-path="url(#clip783)" d="
M1834.77 1091.81 L1834.77 1196.74 L2205.24 1196.74 L2205.24 1091.81 L1834.77 1091.81 L1834.77 1091.81  Z
  " fill="#3da44d" fill-rule="evenodd" fill-opacity="1"/>
<polyline clip-path="url(#clip783)" style="stroke:#000000; stroke-linecap:round; stroke-linejoin:round; stroke-width:4; stroke-opacity:1; fill:none" points="
  1834.77,1091.81 1834.77,1196.74 2205.24,1196.74 2205.24,1091.81 1834.77,1091.81 
  "/>
<circle clip-path="url(#clip783)" style="fill:#3da44d; stroke:none; fill-opacity:0" cx="1556.91" cy="1175.76" r="2"/>
<circle clip-path="url(#clip783)" style="fill:#3da44d; stroke:none; fill-opacity:0" cx="2020" cy="1091.81" r="2"/>
<path clip-path="url(#clip783)" d="
M1371.68 1270.2 L1371.68 1322.67 L1742.15 1322.67 L1742.15 1270.2 L1371.68 1270.2 L1371.68 1270.2  Z
  " fill="#c271d2" fill-rule="evenodd" fill-opacity="1"/>
<polyline clip-path="url(#clip783)" style="stroke:#000000; stroke-linecap:round; stroke-linejoin:round; stroke-width:4; stroke-opacity:1; fill:none" points="
  1371.68,1270.2 1371.68,1322.67 1742.15,1322.67 1742.15,1270.2 1371.68,1270.2 
  "/>
<path clip-path="url(#clip783)" d="
M1834.77 1196.74 L1834.77 1322.67 L2205.24 1322.67 L2205.24 1196.74 L1834.77 1196.74 L1834.77 1196.74  Z
  " fill="#c271d2" fill-rule="evenodd" fill-opacity="1"/>
<polyline clip-path="url(#clip783)" style="stroke:#000000; stroke-linecap:round; stroke-linejoin:round; stroke-width:4; stroke-opacity:1; fill:none" points="
  1834.77,1196.74 1834.77,1322.67 2205.24,1322.67 2205.24,1196.74 1834.77,1196.74 
  "/>
<circle clip-path="url(#clip783)" style="fill:#c271d2; stroke:none; fill-opacity:0" cx="1556.91" cy="1270.2" r="2"/>
<circle clip-path="url(#clip783)" style="fill:#c271d2; stroke:none; fill-opacity:0" cx="2020" cy="1196.74" r="2"/>
<path clip-path="url(#clip780)" d="
M1987.97 350.197 L2225.54 350.197 L2225.54 90.9966 L1987.97 90.9966  Z
  " fill="#ffffff" fill-rule="evenodd" fill-opacity="1"/>
<polyline clip-path="url(#clip780)" style="stroke:#000000; stroke-linecap:round; stroke-linejoin:round; stroke-width:4; stroke-opacity:1; fill:none" points="
  1987.97,350.197 2225.54,350.197 2225.54,90.9966 1987.97,90.9966 1987.97,350.197 
  "/>
<path clip-path="url(#clip780)" d="
M1998.37 163.573 L2060.81 163.573 L2060.81 122.101 L1998.37 122.101 L1998.37 163.573  Z
  " fill="#009af9" fill-rule="evenodd" fill-opacity="1"/>
<polyline clip-path="url(#clip780)" style="stroke:#000000; stroke-linecap:round; stroke-linejoin:round; stroke-width:4; stroke-opacity:1; fill:none" points="
  1998.37,163.573 2060.81,163.573 2060.81,122.101 1998.37,122.101 1998.37,163.573 
  "/>
<path clip-path="url(#clip780)" d="M2071.22 125.557 L2075.89 125.557 L2075.89 139.723 L2092.88 139.723 L2092.88 125.557 L2097.56 125.557 L2097.56 160.117 L2092.88 160.117 L2092.88 143.658 L2075.89 143.658 L2075.89 160.117 L2071.22 160.117 L2071.22 125.557 Z" fill="#000000" fill-rule="evenodd" fill-opacity="1" /><path clip-path="url(#clip780)" d="M2128.86 146.089 L2128.86 148.172 L2109.27 148.172 Q2109.55 152.57 2111.91 154.885 Q2114.3 157.177 2118.53 157.177 Q2120.99 157.177 2123.28 156.575 Q2125.59 155.973 2127.86 154.769 L2127.86 158.797 Q2125.57 159.769 2123.16 160.279 Q2120.75 160.788 2118.28 160.788 Q2112.07 160.788 2108.44 157.177 Q2104.83 153.566 2104.83 147.408 Q2104.83 141.043 2108.26 137.316 Q2111.7 133.566 2117.54 133.566 Q2122.77 133.566 2125.8 136.945 Q2128.86 140.302 2128.86 146.089 M2124.6 144.839 Q2124.55 141.344 2122.63 139.26 Q2120.73 137.177 2117.58 137.177 Q2114.02 137.177 2111.87 139.191 Q2109.74 141.205 2109.41 144.862 L2124.6 144.839 Z" fill="#000000" fill-rule="evenodd" fill-opacity="1" /><path clip-path="url(#clip780)" d="M2147.63 147.084 Q2142.47 147.084 2140.48 148.265 Q2138.49 149.445 2138.49 152.293 Q2138.49 154.561 2139.97 155.904 Q2141.47 157.223 2144.04 157.223 Q2147.58 157.223 2149.71 154.723 Q2151.87 152.2 2151.87 148.033 L2151.87 147.084 L2147.63 147.084 M2156.13 145.325 L2156.13 160.117 L2151.87 160.117 L2151.87 156.181 Q2150.41 158.543 2148.23 159.677 Q2146.06 160.788 2142.91 160.788 Q2138.93 160.788 2136.57 158.566 Q2134.23 156.32 2134.23 152.57 Q2134.23 148.195 2137.14 145.973 Q2140.08 143.751 2145.89 143.751 L2151.87 143.751 L2151.87 143.334 Q2151.87 140.395 2149.92 138.797 Q2148 137.177 2144.5 137.177 Q2142.28 137.177 2140.18 137.709 Q2138.07 138.242 2136.13 139.307 L2136.13 135.371 Q2138.46 134.469 2140.66 134.029 Q2142.86 133.566 2144.94 133.566 Q2150.57 133.566 2153.35 136.482 Q2156.13 139.399 2156.13 145.325 Z" fill="#000000" fill-rule="evenodd" fill-opacity="1" /><path clip-path="url(#clip780)" d="M2161.84 134.191 L2166.36 134.191 L2174.46 155.95 L2182.56 134.191 L2187.07 134.191 L2177.35 160.117 L2171.56 160.117 L2161.84 134.191 Z" fill="#000000" fill-rule="evenodd" fill-opacity="1" /><path clip-path="url(#clip780)" d="M2203.74 162.524 Q2201.94 167.154 2200.22 168.566 Q2198.51 169.978 2195.64 169.978 L2192.24 169.978 L2192.24 166.413 L2194.74 166.413 Q2196.5 166.413 2197.47 165.58 Q2198.44 164.746 2199.62 161.644 L2200.38 159.7 L2189.9 134.191 L2194.41 134.191 L2202.51 154.469 L2210.62 134.191 L2215.13 134.191 L2203.74 162.524 Z" fill="#000000" fill-rule="evenodd" fill-opacity="1" /><path clip-path="url(#clip780)" d="
M1998.37 215.413 L2060.81 215.413 L2060.81 173.941 L1998.37 173.941 L1998.37 215.413  Z
  " fill="#e26f46" fill-rule="evenodd" fill-opacity="1"/>
<polyline clip-path="url(#clip780)" style="stroke:#000000; stroke-linecap:round; stroke-linejoin:round; stroke-width:4; stroke-opacity:1; fill:none" points="
  1998.37,215.413 2060.81,215.413 2060.81,173.941 1998.37,173.941 1998.37,215.413 
  "/>
<path clip-path="url(#clip780)" d="M2071.22 177.397 L2077.51 177.397 L2092.84 206.309 L2092.84 177.397 L2097.38 177.397 L2097.38 211.957 L2091.08 211.957 L2075.76 183.045 L2075.76 211.957 L2071.22 211.957 L2071.22 177.397 Z" fill="#000000" fill-rule="evenodd" fill-opacity="1" /><path clip-path="url(#clip780)" d="M2128.67 197.929 L2128.67 200.012 L2109.09 200.012 Q2109.37 204.41 2111.73 206.725 Q2114.11 209.017 2118.35 209.017 Q2120.8 209.017 2123.09 208.415 Q2125.41 207.813 2127.68 206.609 L2127.68 210.637 Q2125.38 211.609 2122.98 212.119 Q2120.57 212.628 2118.09 212.628 Q2111.89 212.628 2108.26 209.017 Q2104.64 205.406 2104.64 199.248 Q2104.64 192.883 2108.07 189.156 Q2111.52 185.406 2117.35 185.406 Q2122.58 185.406 2125.62 188.785 Q2128.67 192.142 2128.67 197.929 M2124.41 196.679 Q2124.37 193.184 2122.44 191.1 Q2120.55 189.017 2117.4 189.017 Q2113.83 189.017 2111.68 191.031 Q2109.55 193.045 2109.23 196.702 L2124.41 196.679 Z" fill="#000000" fill-rule="evenodd" fill-opacity="1" /><path clip-path="url(#clip780)" d="M2132.61 186.031 L2137.12 186.031 L2145.22 207.79 L2153.32 186.031 L2157.84 186.031 L2148.12 211.957 L2142.33 211.957 L2132.61 186.031 Z" fill="#000000" fill-rule="evenodd" fill-opacity="1" /><path clip-path="url(#clip780)" d="M2185.89 197.929 L2185.89 200.012 L2166.31 200.012 Q2166.59 204.41 2168.95 206.725 Q2171.33 209.017 2175.57 209.017 Q2178.02 209.017 2180.31 208.415 Q2182.63 207.813 2184.9 206.609 L2184.9 210.637 Q2182.61 211.609 2180.2 212.119 Q2177.79 212.628 2175.31 212.628 Q2169.11 212.628 2165.48 209.017 Q2161.87 205.406 2161.87 199.248 Q2161.87 192.883 2165.29 189.156 Q2168.74 185.406 2174.57 185.406 Q2179.81 185.406 2182.84 188.785 Q2185.89 192.142 2185.89 197.929 M2181.63 196.679 Q2181.59 193.184 2179.67 191.1 Q2177.77 189.017 2174.62 189.017 Q2171.06 189.017 2168.9 191.031 Q2166.77 193.045 2166.45 196.702 L2181.63 196.679 Z" fill="#000000" fill-rule="evenodd" fill-opacity="1" /><path clip-path="url(#clip780)" d="M2207.91 190.012 Q2207.19 189.596 2206.33 189.41 Q2205.5 189.202 2204.48 189.202 Q2200.87 189.202 2198.93 191.563 Q2197 193.901 2197 198.299 L2197 211.957 L2192.72 211.957 L2192.72 186.031 L2197 186.031 L2197 190.059 Q2198.35 187.697 2200.5 186.563 Q2202.65 185.406 2205.73 185.406 Q2206.17 185.406 2206.7 185.475 Q2207.24 185.522 2207.88 185.637 L2207.91 190.012 Z" fill="#000000" fill-rule="evenodd" fill-opacity="1" /><path clip-path="url(#clip780)" d="
M1998.37 267.253 L2060.81 267.253 L2060.81 225.781 L1998.37 225.781 L1998.37 267.253  Z
  " fill="#3da44d" fill-rule="evenodd" fill-opacity="1"/>
<polyline clip-path="url(#clip780)" style="stroke:#000000; stroke-linecap:round; stroke-linejoin:round; stroke-width:4; stroke-opacity:1; fill:none" points="
  1998.37,267.253 2060.81,267.253 2060.81,225.781 1998.37,225.781 1998.37,267.253 
  "/>
<path clip-path="url(#clip780)" d="M2087.24 232.408 Q2082.14 232.408 2079.13 236.204 Q2076.15 240 2076.15 246.551 Q2076.15 253.079 2079.13 256.875 Q2082.14 260.672 2087.24 260.672 Q2092.33 260.672 2095.29 256.875 Q2098.28 253.079 2098.28 246.551 Q2098.28 240 2095.29 236.204 Q2092.33 232.408 2087.24 232.408 M2087.24 228.612 Q2094.51 228.612 2098.86 233.496 Q2103.21 238.357 2103.21 246.551 Q2103.21 254.723 2098.86 259.607 Q2094.51 264.468 2087.24 264.468 Q2079.95 264.468 2075.57 259.607 Q2071.22 254.746 2071.22 246.551 Q2071.22 238.357 2075.57 233.496 Q2079.95 228.612 2087.24 228.612 Z" fill="#000000" fill-rule="evenodd" fill-opacity="1" /><path clip-path="url(#clip780)" d="M2129 238.866 L2129 242.848 Q2127.19 241.852 2125.36 241.366 Q2123.56 240.857 2121.7 240.857 Q2117.56 240.857 2115.27 243.496 Q2112.98 246.112 2112.98 250.857 Q2112.98 255.602 2115.27 258.241 Q2117.56 260.857 2121.7 260.857 Q2123.56 260.857 2125.36 260.371 Q2127.19 259.861 2129 258.866 L2129 262.801 Q2127.21 263.635 2125.29 264.051 Q2123.39 264.468 2121.24 264.468 Q2115.38 264.468 2111.94 260.787 Q2108.49 257.107 2108.49 250.857 Q2108.49 244.514 2111.96 240.88 Q2115.45 237.246 2121.52 237.246 Q2123.49 237.246 2125.36 237.663 Q2127.24 238.056 2129 238.866 Z" fill="#000000" fill-rule="evenodd" fill-opacity="1" /><path clip-path="url(#clip780)" d="M2155.06 238.866 L2155.06 242.848 Q2153.25 241.852 2151.43 241.366 Q2149.62 240.857 2147.77 240.857 Q2143.63 240.857 2141.33 243.496 Q2139.04 246.112 2139.04 250.857 Q2139.04 255.602 2141.33 258.241 Q2143.63 260.857 2147.77 260.857 Q2149.62 260.857 2151.43 260.371 Q2153.25 259.861 2155.06 258.866 L2155.06 262.801 Q2153.28 263.635 2151.36 264.051 Q2149.46 264.468 2147.31 264.468 Q2141.45 264.468 2138 260.787 Q2134.55 257.107 2134.55 250.857 Q2134.55 244.514 2138.02 240.88 Q2141.52 237.246 2147.58 237.246 Q2149.55 237.246 2151.43 237.663 Q2153.3 238.056 2155.06 238.866 Z" fill="#000000" fill-rule="evenodd" fill-opacity="1" /><path clip-path="url(#clip780)" d="M2174.25 250.764 Q2169.09 250.764 2167.1 251.945 Q2165.11 253.125 2165.11 255.973 Q2165.11 258.241 2166.59 259.584 Q2168.09 260.903 2170.66 260.903 Q2174.2 260.903 2176.33 258.403 Q2178.49 255.88 2178.49 251.713 L2178.49 250.764 L2174.25 250.764 M2182.75 249.005 L2182.75 263.797 L2178.49 263.797 L2178.49 259.861 Q2177.03 262.223 2174.85 263.357 Q2172.68 264.468 2169.53 264.468 Q2165.55 264.468 2163.19 262.246 Q2160.85 260 2160.85 256.25 Q2160.85 251.875 2163.76 249.653 Q2166.7 247.431 2172.51 247.431 L2178.49 247.431 L2178.49 247.014 Q2178.49 244.075 2176.54 242.477 Q2174.62 240.857 2171.13 240.857 Q2168.9 240.857 2166.8 241.389 Q2164.69 241.922 2162.75 242.987 L2162.75 239.051 Q2165.08 238.149 2167.28 237.709 Q2169.48 237.246 2171.56 237.246 Q2177.19 237.246 2179.97 240.162 Q2182.75 243.079 2182.75 249.005 Z" fill="#000000" fill-rule="evenodd" fill-opacity="1" /><path clip-path="url(#clip780)" d="M2208.05 238.635 L2208.05 242.662 Q2206.24 241.737 2204.3 241.274 Q2202.35 240.811 2200.27 240.811 Q2197.1 240.811 2195.5 241.783 Q2193.93 242.755 2193.93 244.699 Q2193.93 246.181 2195.06 247.037 Q2196.19 247.871 2199.62 248.635 L2201.08 248.959 Q2205.62 249.931 2207.51 251.713 Q2209.44 253.473 2209.44 256.644 Q2209.44 260.255 2206.56 262.361 Q2203.72 264.468 2198.72 264.468 Q2196.63 264.468 2194.37 264.051 Q2192.12 263.658 2189.62 262.848 L2189.62 258.449 Q2191.98 259.676 2194.27 260.301 Q2196.56 260.903 2198.81 260.903 Q2201.82 260.903 2203.44 259.885 Q2205.06 258.843 2205.06 256.968 Q2205.06 255.232 2203.88 254.306 Q2202.72 253.38 2198.76 252.524 L2197.28 252.176 Q2193.32 251.343 2191.56 249.63 Q2189.81 247.894 2189.81 244.885 Q2189.81 241.227 2192.4 239.237 Q2194.99 237.246 2199.76 237.246 Q2202.12 237.246 2204.2 237.593 Q2206.29 237.94 2208.05 238.635 Z" fill="#000000" fill-rule="evenodd" fill-opacity="1" /><path clip-path="url(#clip780)" d="
M1998.37 319.093 L2060.81 319.093 L2060.81 277.621 L1998.37 277.621 L1998.37 319.093  Z
  " fill="#c271d2" fill-rule="evenodd" fill-opacity="1"/>
<polyline clip-path="url(#clip780)" style="stroke:#000000; stroke-linecap:round; stroke-linejoin:round; stroke-width:4; stroke-opacity:1; fill:none" points="
  1998.37,319.093 2060.81,319.093 2060.81,277.621 1998.37,277.621 1998.37,319.093 
  "/>
<path clip-path="url(#clip780)" d="M2087.61 299.433 Q2089.11 299.942 2090.52 301.609 Q2091.96 303.276 2093.39 306.192 L2098.14 315.637 L2093.12 315.637 L2088.69 306.771 Q2086.98 303.299 2085.36 302.164 Q2083.76 301.03 2080.99 301.03 L2075.89 301.03 L2075.89 315.637 L2071.22 315.637 L2071.22 281.077 L2081.77 281.077 Q2087.7 281.077 2090.62 283.553 Q2093.53 286.03 2093.53 291.03 Q2093.53 294.294 2092.01 296.447 Q2090.5 298.6 2087.61 299.433 M2075.89 284.919 L2075.89 297.188 L2081.77 297.188 Q2085.15 297.188 2086.87 295.637 Q2088.6 294.063 2088.6 291.03 Q2088.6 287.998 2086.87 286.47 Q2085.15 284.919 2081.77 284.919 L2075.89 284.919 Z" fill="#000000" fill-rule="evenodd" fill-opacity="1" /><path clip-path="url(#clip780)" d="M2124.02 301.609 L2124.02 303.692 L2104.44 303.692 Q2104.71 308.09 2107.07 310.405 Q2109.46 312.697 2113.69 312.697 Q2116.15 312.697 2118.44 312.095 Q2120.75 311.493 2123.02 310.289 L2123.02 314.317 Q2120.73 315.289 2118.32 315.799 Q2115.92 316.308 2113.44 316.308 Q2107.24 316.308 2103.6 312.697 Q2099.99 309.086 2099.99 302.928 Q2099.99 296.563 2103.42 292.836 Q2106.87 289.086 2112.7 289.086 Q2117.93 289.086 2120.96 292.465 Q2124.02 295.822 2124.02 301.609 M2119.76 300.359 Q2119.71 296.864 2117.79 294.78 Q2115.89 292.697 2112.75 292.697 Q2109.18 292.697 2107.03 294.711 Q2104.9 296.725 2104.57 300.382 L2119.76 300.359 Z" fill="#000000" fill-rule="evenodd" fill-opacity="1" /><path clip-path="url(#clip780)" d="M2148.07 302.373 Q2148.07 297.743 2146.15 295.197 Q2144.25 292.651 2140.8 292.651 Q2137.38 292.651 2135.45 295.197 Q2133.56 297.743 2133.56 302.373 Q2133.56 306.979 2135.45 309.526 Q2137.38 312.072 2140.8 312.072 Q2144.25 312.072 2146.15 309.526 Q2148.07 306.979 2148.07 302.373 M2152.33 312.419 Q2152.33 319.039 2149.39 322.257 Q2146.45 325.498 2140.38 325.498 Q2138.14 325.498 2136.15 325.15 Q2134.16 324.826 2132.28 324.132 L2132.28 319.988 Q2134.16 321.007 2135.99 321.493 Q2137.82 321.979 2139.71 321.979 Q2143.9 321.979 2145.99 319.78 Q2148.07 317.604 2148.07 313.183 L2148.07 311.076 Q2146.75 313.368 2144.69 314.502 Q2142.63 315.637 2139.76 315.637 Q2134.99 315.637 2132.07 312.002 Q2129.16 308.368 2129.16 302.373 Q2129.16 296.354 2132.07 292.72 Q2134.99 289.086 2139.76 289.086 Q2142.63 289.086 2144.69 290.22 Q2146.75 291.354 2148.07 293.646 L2148.07 289.711 L2152.33 289.711 L2152.33 312.419 Z" fill="#000000" fill-rule="evenodd" fill-opacity="1" /><path clip-path="url(#clip780)" d="M2160.66 305.405 L2160.66 289.711 L2164.92 289.711 L2164.92 305.243 Q2164.92 308.924 2166.36 310.776 Q2167.79 312.604 2170.66 312.604 Q2174.11 312.604 2176.1 310.405 Q2178.12 308.206 2178.12 304.41 L2178.12 289.711 L2182.38 289.711 L2182.38 315.637 L2178.12 315.637 L2178.12 311.655 Q2176.56 314.016 2174.5 315.174 Q2172.47 316.308 2169.76 316.308 Q2165.29 316.308 2162.98 313.53 Q2160.66 310.752 2160.66 305.405 M2171.38 289.086 L2171.38 289.086 Z" fill="#000000" fill-rule="evenodd" fill-opacity="1" /><path clip-path="url(#clip780)" d="M2191.15 279.618 L2195.41 279.618 L2195.41 315.637 L2191.15 315.637 L2191.15 279.618 Z" fill="#000000" fill-rule="evenodd" fill-opacity="1" /></svg>
