<?xml version="1.0" encoding="utf-8"?>
<svg xmlns="http://www.w3.org/2000/svg" xmlns:xlink="http://www.w3.org/1999/xlink" width="672" height="480" viewBox="0 0 2688 1920">
<defs>
  <clipPath id="clip390">
    <rect x="0" y="0" width="2688" height="1920"/>
  </clipPath>
</defs>
<path clip-path="url(#clip390)" d="
M0 1920 L2688 1920 L2688 0 L0 0  Z
  " fill="#ffffff" fill-rule="evenodd" fill-opacity="1"/>
<defs>
  <clipPath id="clip391">
    <rect x="537" y="0" width="1883" height="1883"/>
  </clipPath>
</defs>
<path clip-path="url(#clip390)" d="
M172.001 1800.78 L2640.76 1800.78 L2640.76 47.2441 L172.001 47.2441  Z
  " fill="#ffffff" fill-rule="evenodd" fill-opacity="1"/>
<defs>
  <clipPath id="clip392">
    <rect x="172" y="47" width="2470" height="1755"/>
  </clipPath>
</defs>
<polyline clip-path="url(#clip392)" style="stroke:#000000; stroke-linecap:round; stroke-linejoin:round; stroke-width:2; stroke-opacity:0.1; fill:none" points="
  539.07,1800.78 539.07,47.2441 
  "/>
<polyline clip-path="url(#clip392)" style="stroke:#000000; stroke-linecap:round; stroke-linejoin:round; stroke-width:2; stroke-opacity:0.1; fill:none" points="
  1117.28,1800.78 1117.28,47.2441 
  "/>
<polyline clip-path="url(#clip392)" style="stroke:#000000; stroke-linecap:round; stroke-linejoin:round; stroke-width:2; stroke-opacity:0.1; fill:none" points="
  1695.48,1800.78 1695.48,47.2441 
  "/>
<polyline clip-path="url(#clip392)" style="stroke:#000000; stroke-linecap:round; stroke-linejoin:round; stroke-width:2; stroke-opacity:0.1; fill:none" points="
  2273.69,1800.78 2273.69,47.2441 
  "/>
<polyline clip-path="url(#clip390)" style="stroke:#000000; stroke-linecap:round; stroke-linejoin:round; stroke-width:4; stroke-opacity:1; fill:none" points="
  172.001,1800.78 2640.76,1800.78 
  "/>
<polyline clip-path="url(#clip390)" style="stroke:#000000; stroke-linecap:round; stroke-linejoin:round; stroke-width:4; stroke-opacity:1; fill:none" points="
  539.07,1800.78 539.07,1781.88 
  "/>
<polyline clip-path="url(#clip390)" style="stroke:#000000; stroke-linecap:round; stroke-linejoin:round; stroke-width:4; stroke-opacity:1; fill:none" points="
  1117.28,1800.78 1117.28,1781.88 
  "/>
<polyline clip-path="url(#clip390)" style="stroke:#000000; stroke-linecap:round; stroke-linejoin:round; stroke-width:4; stroke-opacity:1; fill:none" points="
  1695.48,1800.78 1695.48,1781.88 
  "/>
<polyline clip-path="url(#clip390)" style="stroke:#000000; stroke-linecap:round; stroke-linejoin:round; stroke-width:4; stroke-opacity:1; fill:none" points="
  2273.69,1800.78 2273.69,1781.88 
  "/>
<path clip-path="url(#clip390)" d="M467.114 1830.92 L471.79 1830.92 L471.79 1845.09 L488.781 1845.09 L488.781 1830.92 L493.456 1830.92 L493.456 1865.48 L488.781 1865.48 L488.781 1849.03 L471.79 1849.03 L471.79 1865.48 L467.114 1865.48 L467.114 1830.92 Z" fill="#000000" fill-rule="evenodd" fill-opacity="1" /><path clip-path="url(#clip390)" d="M524.753 1851.46 L524.753 1853.54 L505.169 1853.54 Q505.447 1857.94 507.808 1860.25 Q510.192 1862.54 514.429 1862.54 Q516.882 1862.54 519.174 1861.94 Q521.489 1861.34 523.757 1860.14 L523.757 1864.16 Q521.466 1865.14 519.058 1865.65 Q516.651 1866.15 514.174 1866.15 Q507.97 1866.15 504.336 1862.54 Q500.725 1858.93 500.725 1852.78 Q500.725 1846.41 504.151 1842.68 Q507.6 1838.93 513.433 1838.93 Q518.665 1838.93 521.697 1842.31 Q524.753 1845.67 524.753 1851.46 M520.493 1850.21 Q520.447 1846.71 518.526 1844.63 Q516.628 1842.54 513.479 1842.54 Q509.915 1842.54 507.762 1844.56 Q505.632 1846.57 505.308 1850.23 L520.493 1850.21 Z" fill="#000000" fill-rule="evenodd" fill-opacity="1" /><path clip-path="url(#clip390)" d="M543.526 1852.45 Q538.364 1852.45 536.373 1853.63 Q534.382 1854.81 534.382 1857.66 Q534.382 1859.93 535.864 1861.27 Q537.368 1862.59 539.938 1862.59 Q543.479 1862.59 545.609 1860.09 Q547.762 1857.57 547.762 1853.4 L547.762 1852.45 L543.526 1852.45 M552.021 1850.69 L552.021 1865.48 L547.762 1865.48 L547.762 1861.55 Q546.303 1863.91 544.127 1865.04 Q541.952 1866.15 538.803 1866.15 Q534.822 1866.15 532.461 1863.93 Q530.123 1861.69 530.123 1857.94 Q530.123 1853.56 533.04 1851.34 Q535.979 1849.12 541.79 1849.12 L547.762 1849.12 L547.762 1848.7 Q547.762 1845.76 545.817 1844.16 Q543.896 1842.54 540.401 1842.54 Q538.178 1842.54 536.072 1843.08 Q533.965 1843.61 532.021 1844.67 L532.021 1840.74 Q534.359 1839.84 536.558 1839.4 Q538.757 1838.93 540.84 1838.93 Q546.465 1838.93 549.243 1841.85 Q552.021 1844.77 552.021 1850.69 Z" fill="#000000" fill-rule="evenodd" fill-opacity="1" /><path clip-path="url(#clip390)" d="M557.738 1839.56 L562.252 1839.56 L570.354 1861.32 L578.456 1839.56 L582.97 1839.56 L573.248 1865.48 L567.461 1865.48 L557.738 1839.56 Z" fill="#000000" fill-rule="evenodd" fill-opacity="1" /><path clip-path="url(#clip390)" d="M599.636 1867.89 Q597.831 1872.52 596.118 1873.93 Q594.405 1875.34 591.535 1875.34 L588.132 1875.34 L588.132 1871.78 L590.632 1871.78 Q592.391 1871.78 593.363 1870.95 Q594.336 1870.11 595.516 1867.01 L596.28 1865.07 L585.794 1839.56 L590.308 1839.56 L598.41 1859.84 L606.511 1839.56 L611.025 1839.56 L599.636 1867.89 Z" fill="#000000" fill-rule="evenodd" fill-opacity="1" /><path clip-path="url(#clip390)" d="M1048.93 1830.92 L1055.23 1830.92 L1070.55 1859.84 L1070.55 1830.92 L1075.09 1830.92 L1075.09 1865.48 L1068.79 1865.48 L1053.47 1836.57 L1053.47 1865.48 L1048.93 1865.48 L1048.93 1830.92 Z" fill="#000000" fill-rule="evenodd" fill-opacity="1" /><path clip-path="url(#clip390)" d="M1106.38 1851.46 L1106.38 1853.54 L1086.8 1853.54 Q1087.08 1857.94 1089.44 1860.25 Q1091.82 1862.54 1096.06 1862.54 Q1098.51 1862.54 1100.81 1861.94 Q1103.12 1861.34 1105.39 1860.14 L1105.39 1864.16 Q1103.1 1865.14 1100.69 1865.65 Q1098.28 1866.15 1095.81 1866.15 Q1089.6 1866.15 1085.97 1862.54 Q1082.36 1858.93 1082.36 1852.78 Q1082.36 1846.41 1085.78 1842.68 Q1089.23 1838.93 1095.07 1838.93 Q1100.3 1838.93 1103.33 1842.31 Q1106.38 1845.67 1106.38 1851.46 M1102.13 1850.21 Q1102.08 1846.71 1100.16 1844.63 Q1098.26 1842.54 1095.11 1842.54 Q1091.55 1842.54 1089.39 1844.56 Q1087.26 1846.57 1086.94 1850.23 L1102.13 1850.21 Z" fill="#000000" fill-rule="evenodd" fill-opacity="1" /><path clip-path="url(#clip390)" d="M1110.32 1839.56 L1114.83 1839.56 L1122.94 1861.32 L1131.04 1839.56 L1135.55 1839.56 L1125.83 1865.48 L1120.04 1865.48 L1110.32 1839.56 Z" fill="#000000" fill-rule="evenodd" fill-opacity="1" /><path clip-path="url(#clip390)" d="M1163.61 1851.46 L1163.61 1853.54 L1144.02 1853.54 Q1144.3 1857.94 1146.66 1860.25 Q1149.05 1862.54 1153.28 1862.54 Q1155.74 1862.54 1158.03 1861.94 Q1160.34 1861.34 1162.61 1860.14 L1162.61 1864.16 Q1160.32 1865.14 1157.91 1865.65 Q1155.5 1866.15 1153.03 1866.15 Q1146.82 1866.15 1143.19 1862.54 Q1139.58 1858.93 1139.58 1852.78 Q1139.58 1846.41 1143 1842.68 Q1146.45 1838.93 1152.29 1838.93 Q1157.52 1838.93 1160.55 1842.31 Q1163.61 1845.67 1163.61 1851.46 M1159.35 1850.21 Q1159.3 1846.71 1157.38 1844.63 Q1155.48 1842.54 1152.33 1842.54 Q1148.77 1842.54 1146.62 1844.56 Q1144.49 1846.57 1144.16 1850.23 L1159.35 1850.21 Z" fill="#000000" fill-rule="evenodd" fill-opacity="1" /><path clip-path="url(#clip390)" d="M1185.62 1843.54 Q1184.9 1843.12 1184.05 1842.94 Q1183.21 1842.73 1182.19 1842.73 Q1178.58 1842.73 1176.64 1845.09 Q1174.72 1847.43 1174.72 1851.83 L1174.72 1865.48 L1170.44 1865.48 L1170.44 1839.56 L1174.72 1839.56 L1174.72 1843.59 Q1176.06 1841.22 1178.21 1840.09 Q1180.37 1838.93 1183.44 1838.93 Q1183.88 1838.93 1184.42 1839 Q1184.95 1839.05 1185.6 1839.16 L1185.62 1843.54 Z" fill="#000000" fill-rule="evenodd" fill-opacity="1" /><path clip-path="url(#clip390)" d="M1642.39 1834.09 Q1637.3 1834.09 1634.29 1837.89 Q1631.3 1841.69 1631.3 1848.24 Q1631.3 1854.77 1634.29 1858.56 Q1637.3 1862.36 1642.39 1862.36 Q1647.48 1862.36 1650.45 1858.56 Q1653.43 1854.77 1653.43 1848.24 Q1653.43 1841.69 1650.45 1837.89 Q1647.48 1834.09 1642.39 1834.09 M1642.39 1830.3 Q1649.66 1830.3 1654.01 1835.18 Q1658.36 1840.04 1658.36 1848.24 Q1658.36 1856.41 1654.01 1861.29 Q1649.66 1866.15 1642.39 1866.15 Q1635.1 1866.15 1630.73 1861.29 Q1626.37 1856.43 1626.37 1848.24 Q1626.37 1840.04 1630.73 1835.18 Q1635.1 1830.3 1642.39 1830.3 Z" fill="#000000" fill-rule="evenodd" fill-opacity="1" /><path clip-path="url(#clip390)" d="M1684.15 1840.55 L1684.15 1844.53 Q1682.35 1843.54 1680.52 1843.05 Q1678.71 1842.54 1676.86 1842.54 Q1672.72 1842.54 1670.42 1845.18 Q1668.13 1847.8 1668.13 1852.54 Q1668.13 1857.29 1670.42 1859.93 Q1672.72 1862.54 1676.86 1862.54 Q1678.71 1862.54 1680.52 1862.06 Q1682.35 1861.55 1684.15 1860.55 L1684.15 1864.49 Q1682.37 1865.32 1680.45 1865.74 Q1678.55 1866.15 1676.4 1866.15 Q1670.54 1866.15 1667.09 1862.47 Q1663.64 1858.79 1663.64 1852.54 Q1663.64 1846.2 1667.11 1842.57 Q1670.61 1838.93 1676.67 1838.93 Q1678.64 1838.93 1680.52 1839.35 Q1682.39 1839.74 1684.15 1840.55 Z" fill="#000000" fill-rule="evenodd" fill-opacity="1" /><path clip-path="url(#clip390)" d="M1710.22 1840.55 L1710.22 1844.53 Q1708.41 1843.54 1706.58 1843.05 Q1704.78 1842.54 1702.92 1842.54 Q1698.78 1842.54 1696.49 1845.18 Q1694.2 1847.8 1694.2 1852.54 Q1694.2 1857.29 1696.49 1859.93 Q1698.78 1862.54 1702.92 1862.54 Q1704.78 1862.54 1706.58 1862.06 Q1708.41 1861.55 1710.22 1860.55 L1710.22 1864.49 Q1708.43 1865.32 1706.51 1865.74 Q1704.61 1866.15 1702.46 1866.15 Q1696.6 1866.15 1693.16 1862.47 Q1689.71 1858.79 1689.71 1852.54 Q1689.71 1846.2 1693.18 1842.57 Q1696.67 1838.93 1702.74 1838.93 Q1704.71 1838.93 1706.58 1839.35 Q1708.46 1839.74 1710.22 1840.55 Z" fill="#000000" fill-rule="evenodd" fill-opacity="1" /><path clip-path="url(#clip390)" d="M1729.41 1852.45 Q1724.24 1852.45 1722.25 1853.63 Q1720.26 1854.81 1720.26 1857.66 Q1720.26 1859.93 1721.74 1861.27 Q1723.25 1862.59 1725.82 1862.59 Q1729.36 1862.59 1731.49 1860.09 Q1733.64 1857.57 1733.64 1853.4 L1733.64 1852.45 L1729.41 1852.45 M1737.9 1850.69 L1737.9 1865.48 L1733.64 1865.48 L1733.64 1861.55 Q1732.18 1863.91 1730.01 1865.04 Q1727.83 1866.15 1724.68 1866.15 Q1720.7 1866.15 1718.34 1863.93 Q1716 1861.69 1716 1857.94 Q1716 1853.56 1718.92 1851.34 Q1721.86 1849.12 1727.67 1849.12 L1733.64 1849.12 L1733.64 1848.7 Q1733.64 1845.76 1731.7 1844.16 Q1729.78 1842.54 1726.28 1842.54 Q1724.06 1842.54 1721.95 1843.08 Q1719.84 1843.61 1717.9 1844.67 L1717.9 1840.74 Q1720.24 1839.84 1722.44 1839.4 Q1724.64 1838.93 1726.72 1838.93 Q1732.34 1838.93 1735.12 1841.85 Q1737.9 1844.77 1737.9 1850.69 Z" fill="#000000" fill-rule="evenodd" fill-opacity="1" /><path clip-path="url(#clip390)" d="M1763.2 1840.32 L1763.2 1844.35 Q1761.4 1843.42 1759.45 1842.96 Q1757.51 1842.5 1755.42 1842.5 Q1752.25 1842.5 1750.65 1843.47 Q1749.08 1844.44 1749.08 1846.39 Q1749.08 1847.87 1750.22 1848.72 Q1751.35 1849.56 1754.78 1850.32 L1756.23 1850.65 Q1760.77 1851.62 1762.67 1853.4 Q1764.59 1855.16 1764.59 1858.33 Q1764.59 1861.94 1761.72 1864.05 Q1758.87 1866.15 1753.87 1866.15 Q1751.79 1866.15 1749.52 1865.74 Q1747.28 1865.34 1744.78 1864.53 L1744.78 1860.14 Q1747.14 1861.36 1749.43 1861.99 Q1751.72 1862.59 1753.97 1862.59 Q1756.97 1862.59 1758.59 1861.57 Q1760.22 1860.53 1760.22 1858.65 Q1760.22 1856.92 1759.03 1855.99 Q1757.88 1855.07 1753.92 1854.21 L1752.44 1853.86 Q1748.48 1853.03 1746.72 1851.32 Q1744.96 1849.58 1744.96 1846.57 Q1744.96 1842.91 1747.55 1840.92 Q1750.15 1838.93 1754.91 1838.93 Q1757.28 1838.93 1759.36 1839.28 Q1761.44 1839.63 1763.2 1840.32 Z" fill="#000000" fill-rule="evenodd" fill-opacity="1" /><path clip-path="url(#clip390)" d="M2227.98 1849.28 Q2229.49 1849.79 2230.9 1851.46 Q2232.33 1853.12 2233.77 1856.04 L2238.51 1865.48 L2233.49 1865.48 L2229.07 1856.62 Q2227.36 1853.15 2225.74 1852.01 Q2224.14 1850.88 2221.36 1850.88 L2216.27 1850.88 L2216.27 1865.48 L2211.59 1865.48 L2211.59 1830.92 L2222.15 1830.92 Q2228.07 1830.92 2230.99 1833.4 Q2233.91 1835.88 2233.91 1840.88 Q2233.91 1844.14 2232.38 1846.29 Q2230.88 1848.45 2227.98 1849.28 M2216.27 1834.77 L2216.27 1847.03 L2222.15 1847.03 Q2225.53 1847.03 2227.24 1845.48 Q2228.98 1843.91 2228.98 1840.88 Q2228.98 1837.84 2227.24 1836.32 Q2225.53 1834.77 2222.15 1834.77 L2216.27 1834.77 Z" fill="#000000" fill-rule="evenodd" fill-opacity="1" /><path clip-path="url(#clip390)" d="M2264.39 1851.46 L2264.39 1853.54 L2244.81 1853.54 Q2245.09 1857.94 2247.45 1860.25 Q2249.83 1862.54 2254.07 1862.54 Q2256.52 1862.54 2258.82 1861.94 Q2261.13 1861.34 2263.4 1860.14 L2263.4 1864.16 Q2261.11 1865.14 2258.7 1865.65 Q2256.29 1866.15 2253.82 1866.15 Q2247.61 1866.15 2243.98 1862.54 Q2240.37 1858.93 2240.37 1852.78 Q2240.37 1846.41 2243.79 1842.68 Q2247.24 1838.93 2253.07 1838.93 Q2258.31 1838.93 2261.34 1842.31 Q2264.39 1845.67 2264.39 1851.46 M2260.13 1850.21 Q2260.09 1846.71 2258.17 1844.63 Q2256.27 1842.54 2253.12 1842.54 Q2249.56 1842.54 2247.4 1844.56 Q2245.27 1846.57 2244.95 1850.23 L2260.13 1850.21 Z" fill="#000000" fill-rule="evenodd" fill-opacity="1" /><path clip-path="url(#clip390)" d="M2288.44 1852.22 Q2288.44 1847.59 2286.52 1845.04 Q2284.63 1842.5 2281.18 1842.5 Q2277.75 1842.5 2275.83 1845.04 Q2273.93 1847.59 2273.93 1852.22 Q2273.93 1856.83 2275.83 1859.37 Q2277.75 1861.92 2281.18 1861.92 Q2284.63 1861.92 2286.52 1859.37 Q2288.44 1856.83 2288.44 1852.22 M2292.7 1862.27 Q2292.7 1868.89 2289.76 1872.1 Q2286.82 1875.34 2280.76 1875.34 Q2278.51 1875.34 2276.52 1875 Q2274.53 1874.67 2272.66 1873.98 L2272.66 1869.84 Q2274.53 1870.85 2276.36 1871.34 Q2278.19 1871.83 2280.09 1871.83 Q2284.28 1871.83 2286.36 1869.63 Q2288.44 1867.45 2288.44 1863.03 L2288.44 1860.92 Q2287.13 1863.21 2285.06 1864.35 Q2283 1865.48 2280.13 1865.48 Q2275.37 1865.48 2272.45 1861.85 Q2269.53 1858.21 2269.53 1852.22 Q2269.53 1846.2 2272.45 1842.57 Q2275.37 1838.93 2280.13 1838.93 Q2283 1838.93 2285.06 1840.07 Q2287.13 1841.2 2288.44 1843.49 L2288.44 1839.56 L2292.7 1839.56 L2292.7 1862.27 Z" fill="#000000" fill-rule="evenodd" fill-opacity="1" /><path clip-path="url(#clip390)" d="M2301.04 1855.25 L2301.04 1839.56 L2305.3 1839.56 L2305.3 1855.09 Q2305.3 1858.77 2306.73 1860.62 Q2308.17 1862.45 2311.04 1862.45 Q2314.49 1862.45 2316.48 1860.25 Q2318.49 1858.05 2318.49 1854.26 L2318.49 1839.56 L2322.75 1839.56 L2322.75 1865.48 L2318.49 1865.48 L2318.49 1861.5 Q2316.94 1863.86 2314.88 1865.02 Q2312.84 1866.15 2310.13 1866.15 Q2305.67 1866.15 2303.35 1863.38 Q2301.04 1860.6 2301.04 1855.25 M2311.75 1838.93 L2311.75 1838.93 Z" fill="#000000" fill-rule="evenodd" fill-opacity="1" /><path clip-path="url(#clip390)" d="M2331.52 1829.46 L2335.78 1829.46 L2335.78 1865.48 L2331.52 1865.48 L2331.52 1829.46 Z" fill="#000000" fill-rule="evenodd" fill-opacity="1" /><polyline clip-path="url(#clip392)" style="stroke:#000000; stroke-linecap:round; stroke-linejoin:round; stroke-width:2; stroke-opacity:0.1; fill:none" points="
  172.001,1751.15 2640.76,1751.15 
  "/>
<polyline clip-path="url(#clip392)" style="stroke:#000000; stroke-linecap:round; stroke-linejoin:round; stroke-width:2; stroke-opacity:0.1; fill:none" points="
  172.001,1313.51 2640.76,1313.51 
  "/>
<polyline clip-path="url(#clip392)" style="stroke:#000000; stroke-linecap:round; stroke-linejoin:round; stroke-width:2; stroke-opacity:0.1; fill:none" points="
  172.001,875.871 2640.76,875.871 
  "/>
<polyline clip-path="url(#clip392)" style="stroke:#000000; stroke-linecap:round; stroke-linejoin:round; stroke-width:2; stroke-opacity:0.1; fill:none" points="
  172.001,438.232 2640.76,438.232 
  "/>
<polyline clip-path="url(#clip390)" style="stroke:#000000; stroke-linecap:round; stroke-linejoin:round; stroke-width:4; stroke-opacity:1; fill:none" points="
  172.001,1800.78 172.001,47.2441 
  "/>
<polyline clip-path="url(#clip390)" style="stroke:#000000; stroke-linecap:round; stroke-linejoin:round; stroke-width:4; stroke-opacity:1; fill:none" points="
  172.001,1751.15 190.899,1751.15 
  "/>
<polyline clip-path="url(#clip390)" style="stroke:#000000; stroke-linecap:round; stroke-linejoin:round; stroke-width:4; stroke-opacity:1; fill:none" points="
  172.001,1313.51 190.899,1313.51 
  "/>
<polyline clip-path="url(#clip390)" style="stroke:#000000; stroke-linecap:round; stroke-linejoin:round; stroke-width:4; stroke-opacity:1; fill:none" points="
  172.001,875.871 190.899,875.871 
  "/>
<polyline clip-path="url(#clip390)" style="stroke:#000000; stroke-linecap:round; stroke-linejoin:round; stroke-width:4; stroke-opacity:1; fill:none" points="
  172.001,438.232 190.899,438.232 
  "/>
<path clip-path="url(#clip390)" d="M119.737 1736.95 Q116.126 1736.95 114.297 1740.51 Q112.492 1744.06 112.492 1751.19 Q112.492 1758.29 114.297 1761.86 Q116.126 1765.4 119.737 1765.4 Q123.371 1765.4 125.177 1761.86 Q127.005 1758.29 127.005 1751.19 Q127.005 1744.06 125.177 1740.51 Q123.371 1736.95 119.737 1736.95 M119.737 1733.25 Q125.547 1733.25 128.603 1737.85 Q131.681 1742.44 131.681 1751.19 Q131.681 1759.91 128.603 1764.52 Q125.547 1769.1 119.737 1769.1 Q113.927 1769.1 110.848 1764.52 Q107.793 1759.91 107.793 1751.19 Q107.793 1742.44 110.848 1737.85 Q113.927 1733.25 119.737 1733.25 Z" fill="#000000" fill-rule="evenodd" fill-opacity="1" /><path clip-path="url(#clip390)" d="M79.6214 1296.23 L97.9778 1296.23 L97.9778 1300.17 L83.9038 1300.17 L83.9038 1308.64 Q84.9223 1308.29 85.9408 1308.13 Q86.9593 1307.94 87.9778 1307.94 Q93.7649 1307.94 97.1445 1311.12 Q100.524 1314.29 100.524 1319.7 Q100.524 1325.28 97.0519 1328.38 Q93.5797 1331.46 87.2603 1331.46 Q85.0843 1331.46 82.8158 1331.09 Q80.5705 1330.72 78.1631 1329.98 L78.1631 1325.28 Q80.2464 1326.42 82.4686 1326.97 Q84.6908 1327.53 87.1677 1327.53 Q91.1723 1327.53 93.5102 1325.42 Q95.8482 1323.31 95.8482 1319.7 Q95.8482 1316.09 93.5102 1313.99 Q91.1723 1311.88 87.1677 1311.88 Q85.2927 1311.88 83.4177 1312.3 Q81.5658 1312.71 79.6214 1313.59 L79.6214 1296.23 Z" fill="#000000" fill-rule="evenodd" fill-opacity="1" /><path clip-path="url(#clip390)" d="M119.737 1299.31 Q116.126 1299.31 114.297 1302.87 Q112.492 1306.42 112.492 1313.55 Q112.492 1320.65 114.297 1324.22 Q116.126 1327.76 119.737 1327.76 Q123.371 1327.76 125.177 1324.22 Q127.005 1320.65 127.005 1313.55 Q127.005 1306.42 125.177 1302.87 Q123.371 1299.31 119.737 1299.31 M119.737 1295.61 Q125.547 1295.61 128.603 1300.21 Q131.681 1304.8 131.681 1313.55 Q131.681 1322.27 128.603 1326.88 Q125.547 1331.46 119.737 1331.46 Q113.927 1331.46 110.848 1326.88 Q107.793 1322.27 107.793 1313.55 Q107.793 1304.8 110.848 1300.21 Q113.927 1295.61 119.737 1295.61 Z" fill="#000000" fill-rule="evenodd" fill-opacity="1" /><path clip-path="url(#clip390)" d="M50.2234 889.216 L57.8623 889.216 L57.8623 862.851 L49.5521 864.517 L49.5521 860.258 L57.816 858.591 L62.4919 858.591 L62.4919 889.216 L70.1307 889.216 L70.1307 893.151 L50.2234 893.151 L50.2234 889.216 Z" fill="#000000" fill-rule="evenodd" fill-opacity="1" /><path clip-path="url(#clip390)" d="M89.5751 861.67 Q85.964 861.67 84.1353 865.235 Q82.3297 868.776 82.3297 875.906 Q82.3297 883.012 84.1353 886.577 Q85.964 890.119 89.5751 890.119 Q93.2093 890.119 95.0148 886.577 Q96.8435 883.012 96.8435 875.906 Q96.8435 868.776 95.0148 865.235 Q93.2093 861.67 89.5751 861.67 M89.5751 857.966 Q95.3852 857.966 98.4408 862.573 Q101.519 867.156 101.519 875.906 Q101.519 884.633 98.4408 889.239 Q95.3852 893.823 89.5751 893.823 Q83.7649 893.823 80.6862 889.239 Q77.6307 884.633 77.6307 875.906 Q77.6307 867.156 80.6862 862.573 Q83.7649 857.966 89.5751 857.966 Z" fill="#000000" fill-rule="evenodd" fill-opacity="1" /><path clip-path="url(#clip390)" d="M119.737 861.67 Q116.126 861.67 114.297 865.235 Q112.492 868.776 112.492 875.906 Q112.492 883.012 114.297 886.577 Q116.126 890.119 119.737 890.119 Q123.371 890.119 125.177 886.577 Q127.005 883.012 127.005 875.906 Q127.005 868.776 125.177 865.235 Q123.371 861.67 119.737 861.67 M119.737 857.966 Q125.547 857.966 128.603 862.573 Q131.681 867.156 131.681 875.906 Q131.681 884.633 128.603 889.239 Q125.547 893.823 119.737 893.823 Q113.927 893.823 110.848 889.239 Q107.793 884.633 107.793 875.906 Q107.793 867.156 110.848 862.573 Q113.927 857.966 119.737 857.966 Z" fill="#000000" fill-rule="evenodd" fill-opacity="1" /><path clip-path="url(#clip390)" d="M50.2234 451.576 L57.8623 451.576 L57.8623 425.211 L49.5521 426.877 L49.5521 422.618 L57.816 420.952 L62.4919 420.952 L62.4919 451.576 L70.1307 451.576 L70.1307 455.512 L50.2234 455.512 L50.2234 451.576 Z" fill="#000000" fill-rule="evenodd" fill-opacity="1" /><path clip-path="url(#clip390)" d="M79.6214 420.952 L97.9778 420.952 L97.9778 424.887 L83.9038 424.887 L83.9038 433.359 Q84.9223 433.012 85.9408 432.85 Q86.9593 432.664 87.9778 432.664 Q93.7649 432.664 97.1445 435.836 Q100.524 439.007 100.524 444.424 Q100.524 450.002 97.0519 453.104 Q93.5797 456.183 87.2603 456.183 Q85.0843 456.183 82.8158 455.812 Q80.5705 455.442 78.1631 454.701 L78.1631 450.002 Q80.2464 451.137 82.4686 451.692 Q84.6908 452.248 87.1677 452.248 Q91.1723 452.248 93.5102 450.141 Q95.8482 448.035 95.8482 444.424 Q95.8482 440.813 93.5102 438.706 Q91.1723 436.6 87.1677 436.6 Q85.2927 436.6 83.4177 437.016 Q81.5658 437.433 79.6214 438.313 L79.6214 420.952 Z" fill="#000000" fill-rule="evenodd" fill-opacity="1" /><path clip-path="url(#clip390)" d="M119.737 424.03 Q116.126 424.03 114.297 427.595 Q112.492 431.137 112.492 438.266 Q112.492 445.373 114.297 448.937 Q116.126 452.479 119.737 452.479 Q123.371 452.479 125.177 448.937 Q127.005 445.373 127.005 438.266 Q127.005 431.137 125.177 427.595 Q123.371 424.03 119.737 424.03 M119.737 420.327 Q125.547 420.327 128.603 424.933 Q131.681 429.516 131.681 438.266 Q131.681 446.993 128.603 451.599 Q125.547 456.183 119.737 456.183 Q113.927 456.183 110.848 451.599 Q107.793 446.993 107.793 438.266 Q107.793 429.516 110.848 424.933 Q113.927 420.327 119.737 420.327 Z" fill="#000000" fill-rule="evenodd" fill-opacity="1" /><path clip-path="url(#clip392)" d="
M307.787 1654.87 L307.787 1751.15 L770.352 1751.15 L770.352 1654.87 L307.787 1654.87 L307.787 1654.87  Z
  " fill="#009af9" fill-rule="evenodd" fill-opacity="1"/>
<polyline clip-path="url(#clip392)" style="stroke:#000000; stroke-linecap:round; stroke-linejoin:round; stroke-width:4; stroke-opacity:1; fill:none" points="
  307.787,1654.87 307.787,1751.15 770.352,1751.15 770.352,1654.87 307.787,1654.87 
  "/>
<path clip-path="url(#clip392)" d="
M885.993 96.8724 L885.993 1751.15 L1348.56 1751.15 L1348.56 96.8724 L885.993 96.8724 L885.993 96.8724  Z
  " fill="#009af9" fill-rule="evenodd" fill-opacity="1"/>
<polyline clip-path="url(#clip392)" style="stroke:#000000; stroke-linecap:round; stroke-linejoin:round; stroke-width:4; stroke-opacity:1; fill:none" points="
  885.993,96.8724 885.993,1751.15 1348.56,1751.15 1348.56,96.8724 885.993,96.8724 
  "/>
<path clip-path="url(#clip392)" d="
M1464.2 1584.85 L1464.2 1751.15 L1926.76 1751.15 L1926.76 1584.85 L1464.2 1584.85 L1464.2 1584.85  Z
  " fill="#009af9" fill-rule="evenodd" fill-opacity="1"/>
<polyline clip-path="url(#clip392)" style="stroke:#000000; stroke-linecap:round; stroke-linejoin:round; stroke-width:4; stroke-opacity:1; fill:none" points="
  1464.2,1584.85 1464.2,1751.15 1926.76,1751.15 1926.76,1584.85 1464.2,1584.85 
  "/>
<path clip-path="url(#clip392)" d="
M2042.41 1602.35 L2042.41 1751.15 L2504.97 1751.15 L2504.97 1602.35 L2042.41 1602.35 L2042.41 1602.35  Z
  " fill="#009af9" fill-rule="evenodd" fill-opacity="1"/>
<polyline clip-path="url(#clip392)" style="stroke:#000000; stroke-linecap:round; stroke-linejoin:round; stroke-width:4; stroke-opacity:1; fill:none" points="
  2042.41,1602.35 2042.41,1751.15 2504.97,1751.15 2504.97,1602.35 2042.41,1602.35 
  "/>
<circle clip-path="url(#clip392)" style="fill:#009af9; stroke:none; fill-opacity:0" cx="539.07" cy="1654.87" r="2"/>
<circle clip-path="url(#clip392)" style="fill:#009af9; stroke:none; fill-opacity:0" cx="1117.28" cy="96.8724" r="2"/>
<circle clip-path="url(#clip392)" style="fill:#009af9; stroke:none; fill-opacity:0" cx="1695.48" cy="1584.85" r="2"/>
<circle clip-path="url(#clip392)" style="fill:#009af9; stroke:none; fill-opacity:0" cx="2273.69" cy="1602.35" r="2"/>
</svg>
