<?xml version="1.0" encoding="utf-8"?>
<svg xmlns="http://www.w3.org/2000/svg" xmlns:xlink="http://www.w3.org/1999/xlink" width="576" height="384" viewBox="0 0 2304 1536">
<defs>
  <clipPath id="clip450">
    <rect x="0" y="0" width="2304" height="1536"/>
  </clipPath>
</defs>
<path clip-path="url(#clip450)" d="
M0 1536 L2304 1536 L2304 0 L0 0  Z
  " fill="#ffffff" fill-rule="evenodd" fill-opacity="1"/>
<defs>
  <clipPath id="clip451">
    <rect x="460" y="0" width="1614" height="1536"/>
  </clipPath>
</defs>
<path clip-path="url(#clip450)" d="
M322.748 1488.76 L2256.76 1488.76 L2256.76 226.773 L322.748 226.773  Z
  " fill="#ffffff" fill-rule="evenodd" fill-opacity="1"/>
<defs>
  <clipPath id="clip452">
    <rect x="322" y="226" width="1935" height="1263"/>
  </clipPath>
</defs>
<polyline clip-path="url(#clip452)" style="stroke:#000000; stroke-linecap:round; stroke-linejoin:round; stroke-width:2; stroke-opacity:0.1; fill:none" points="
  791.97,1488.76 791.97,226.773 
  "/>
<polyline clip-path="url(#clip452)" style="stroke:#000000; stroke-linecap:round; stroke-linejoin:round; stroke-width:2; stroke-opacity:0.1; fill:none" points="
  1359.12,1488.76 1359.12,226.773 
  "/>
<polyline clip-path="url(#clip452)" style="stroke:#000000; stroke-linecap:round; stroke-linejoin:round; stroke-width:2; stroke-opacity:0.1; fill:none" points="
  1856.9,1488.76 1856.9,226.773 
  "/>
<polyline clip-path="url(#clip450)" style="stroke:#000000; stroke-linecap:round; stroke-linejoin:round; stroke-width:4; stroke-opacity:1; fill:none" points="
  322.748,226.773 2256.76,226.773 
  "/>
<polyline clip-path="url(#clip450)" style="stroke:#000000; stroke-linecap:round; stroke-linejoin:round; stroke-width:4; stroke-opacity:1; fill:none" points="
  791.97,226.773 791.97,245.67 
  "/>
<polyline clip-path="url(#clip450)" style="stroke:#000000; stroke-linecap:round; stroke-linejoin:round; stroke-width:4; stroke-opacity:1; fill:none" points="
  1359.12,226.773 1359.12,245.67 
  "/>
<polyline clip-path="url(#clip450)" style="stroke:#000000; stroke-linecap:round; stroke-linejoin:round; stroke-width:4; stroke-opacity:1; fill:none" points="
  1856.9,226.773 1856.9,245.67 
  "/>
<path clip-path="url(#clip450)" d="M738.732 112.337 L752.776 126.381 L749.994 129.164 L739.256 118.426 L732.054 125.628 L741.744 135.318 L738.961 138.101 L729.271 128.411 L717.601 140.081 L714.295 136.775 L738.732 112.337 Z" fill="#000000" fill-rule="evenodd" fill-opacity="1" /><path clip-path="url(#clip450)" d="M757.146 148.593 Q756.934 147.791 756.459 147.054 Q756.017 146.318 755.297 145.597 Q752.743 143.044 749.699 143.339 Q746.687 143.633 743.577 146.743 L733.92 156.4 L730.892 153.372 L749.224 135.04 L752.252 138.068 L749.404 140.916 Q752.023 140.196 754.347 140.916 Q756.688 141.62 758.865 143.797 Q759.176 144.108 759.503 144.534 Q759.847 144.943 760.224 145.483 L757.146 148.593 Z" fill="#000000" fill-rule="evenodd" fill-opacity="1" /><path clip-path="url(#clip450)" d="M769.652 172.294 L768.178 173.767 L754.331 159.92 Q751.418 163.226 751.45 166.532 Q751.516 169.839 754.511 172.834 Q756.246 174.569 758.292 175.764 Q760.355 176.975 762.81 177.728 L759.962 180.576 Q757.654 179.643 755.591 178.301 Q753.529 176.959 751.778 175.207 Q747.391 170.821 747.375 165.698 Q747.375 160.591 751.729 156.237 Q756.23 151.736 761.288 151.523 Q766.378 151.31 770.503 155.435 Q774.202 159.134 773.956 163.668 Q773.744 168.202 769.652 172.294 M767.524 168.398 Q769.963 165.894 770.077 163.062 Q770.208 160.247 767.982 158.021 Q765.461 155.5 762.515 155.402 Q759.585 155.32 756.77 157.677 L767.524 168.398 Z" fill="#000000" fill-rule="evenodd" fill-opacity="1" /><path clip-path="url(#clip450)" d="M775.626 179.807 Q772.303 183.13 771.763 186.387 Q771.256 189.644 773.645 192.034 Q776.035 194.424 779.292 193.916 Q782.566 193.392 785.889 190.07 Q789.212 186.747 789.719 183.49 Q790.243 180.216 787.853 177.826 Q785.463 175.437 782.19 175.96 Q778.949 176.484 775.626 179.807 M779.489 196.47 Q776.903 197.157 774.644 196.502 Q772.418 195.848 770.388 193.818 Q767.065 190.495 767.622 185.748 Q768.195 181.018 772.516 176.697 Q776.837 172.376 781.568 171.803 Q786.314 171.246 789.637 174.569 Q791.667 176.599 792.305 178.841 Q792.976 181.084 792.289 183.67 L795.071 180.887 L798.083 183.899 L772.778 209.204 L769.766 206.192 L779.489 196.47 Z" fill="#000000" fill-rule="evenodd" fill-opacity="1" /><path clip-path="url(#clip450)" d="M1288.95 95.4128 L1293.41 99.8649 L1283.8 131.144 L1304.24 110.701 L1307.45 113.909 L1283.01 138.346 L1278.56 133.894 L1288.17 102.615 L1267.72 123.059 L1264.52 119.85 L1288.95 95.4128 Z" fill="#000000" fill-rule="evenodd" fill-opacity="1" /><path clip-path="url(#clip450)" d="M1312.79 135.678 Q1310.36 133.256 1307.06 133.747 Q1303.77 134.222 1300.48 137.512 Q1297.19 140.802 1296.68 144.092 Q1296.2 147.382 1298.64 149.82 Q1301.05 152.227 1304.36 151.736 Q1307.66 151.244 1310.94 147.971 Q1314.19 144.714 1314.68 141.407 Q1315.19 138.085 1312.79 135.678 M1315.34 133.125 Q1319.27 137.053 1318.96 141.849 Q1318.65 146.645 1314.13 151.163 Q1309.63 155.664 1304.81 155.991 Q1300.02 156.302 1296.09 152.374 Q1292.15 148.429 1292.46 143.633 Q1292.8 138.837 1297.3 134.336 Q1301.82 129.819 1306.6 129.491 Q1311.39 129.18 1315.34 133.125 Z" fill="#000000" fill-rule="evenodd" fill-opacity="1" /><path clip-path="url(#clip450)" d="M1336.27 169.479 L1325.21 180.543 L1322.2 177.532 L1333.16 166.565 Q1335.77 163.963 1336.04 161.655 Q1336.32 159.347 1334.29 157.317 Q1331.85 154.878 1328.89 155.026 Q1325.93 155.173 1323.24 157.857 L1312.88 168.218 L1309.86 165.19 L1328.19 146.858 L1331.22 149.886 L1328.37 152.734 Q1331.1 152.161 1333.38 152.799 Q1335.67 153.454 1337.58 155.369 Q1340.74 158.528 1340.4 162.113 Q1340.07 165.681 1336.27 169.479 Z" fill="#000000" fill-rule="evenodd" fill-opacity="1" /><path clip-path="url(#clip450)" d="M1356.82 192.312 L1355.34 193.785 L1341.49 179.938 Q1338.58 183.244 1338.61 186.551 Q1338.68 189.857 1341.68 192.852 Q1343.41 194.587 1345.46 195.782 Q1347.52 196.993 1349.97 197.746 L1347.13 200.594 Q1344.82 199.661 1342.76 198.319 Q1340.69 196.977 1338.94 195.226 Q1334.55 190.839 1334.54 185.716 Q1334.54 180.609 1338.89 176.255 Q1343.39 171.754 1348.45 171.541 Q1353.54 171.328 1357.67 175.453 Q1361.37 179.152 1361.12 183.686 Q1360.91 188.22 1356.82 192.312 M1354.69 188.416 Q1357.13 185.912 1357.24 183.08 Q1357.37 180.265 1355.15 178.039 Q1352.63 175.518 1349.68 175.42 Q1346.75 175.338 1343.93 177.695 L1354.69 188.416 Z" fill="#000000" fill-rule="evenodd" fill-opacity="1" /><path clip-path="url(#clip450)" d="M1792.97 103.253 L1789.75 106.478 Q1788.77 103.695 1787.54 101.584 Q1786.31 99.4721 1784.76 97.9171 Q1782.05 95.2164 1779.53 94.7908 Q1777.03 94.3816 1775.1 96.3131 Q1773.48 97.9335 1773.61 99.734 Q1773.77 101.534 1775.98 104.759 L1777.57 107.165 Q1780.57 111.568 1780.53 115.104 Q1780.53 118.639 1777.55 121.618 Q1774 125.17 1769.78 124.614 Q1765.57 124.073 1760.97 119.474 Q1759.24 117.739 1757.67 115.382 Q1756.11 113.041 1754.79 110.177 L1758.19 106.772 Q1759.07 109.915 1760.43 112.419 Q1761.79 114.924 1763.66 116.79 Q1766.49 119.621 1769.14 120.047 Q1771.79 120.472 1773.85 118.41 Q1775.65 116.61 1775.56 114.482 Q1775.47 112.37 1773.46 109.342 L1771.84 106.936 Q1768.88 102.5 1768.8 99.2757 Q1768.71 96.0512 1771.51 93.2522 Q1774.75 90.0113 1778.9 90.4205 Q1783.05 90.8461 1787.06 94.8563 Q1788.78 96.575 1790.25 98.6701 Q1791.73 100.765 1792.97 103.253 Z" fill="#000000" fill-rule="evenodd" fill-opacity="1" /><path clip-path="url(#clip450)" d="M1799.16 124.27 Q1796.74 121.847 1793.43 122.338 Q1790.14 122.813 1786.85 126.103 Q1783.56 129.393 1783.05 132.683 Q1782.58 135.973 1785.02 138.412 Q1787.42 140.818 1790.73 140.327 Q1794.04 139.836 1797.31 136.562 Q1800.57 133.305 1801.06 129.999 Q1801.57 126.676 1799.16 124.27 M1801.71 121.716 Q1805.64 125.645 1805.33 130.441 Q1805.02 135.236 1800.5 139.754 Q1796 144.255 1791.19 144.583 Q1786.39 144.894 1782.46 140.965 Q1778.52 137.021 1778.83 132.225 Q1779.17 127.429 1783.67 122.928 Q1788.19 118.41 1792.97 118.083 Q1797.77 117.772 1801.71 121.716 Z" fill="#000000" fill-rule="evenodd" fill-opacity="1" /><path clip-path="url(#clip450)" d="M1825.43 153.356 Q1828.59 152.456 1831.13 153.061 Q1833.66 153.667 1835.79 155.795 Q1838.66 158.659 1838.2 162.227 Q1837.76 165.779 1834.06 169.479 L1822.99 180.543 L1819.96 177.515 L1830.93 166.549 Q1833.57 163.913 1833.91 161.704 Q1834.25 159.494 1832.34 157.579 Q1830 155.238 1827.08 155.435 Q1824.17 155.631 1821.49 158.316 L1811.12 168.677 L1808.1 165.648 L1819.06 154.682 Q1821.71 152.03 1822.04 149.837 Q1822.39 147.627 1820.44 145.679 Q1818.13 143.371 1815.2 143.584 Q1812.29 143.781 1809.62 146.449 L1799.26 156.81 L1796.23 153.782 L1814.56 135.449 L1817.59 138.477 L1814.74 141.325 Q1817.46 140.671 1819.7 141.309 Q1821.94 141.947 1823.92 143.928 Q1825.92 145.925 1826.3 148.331 Q1826.69 150.753 1825.43 153.356 Z" fill="#000000" fill-rule="evenodd" fill-opacity="1" /><path clip-path="url(#clip450)" d="M1854.6 192.312 L1853.12 193.785 L1839.28 179.938 Q1836.36 183.244 1836.4 186.551 Q1836.46 189.857 1839.46 192.852 Q1841.19 194.587 1843.24 195.782 Q1845.3 196.993 1847.76 197.746 L1844.91 200.594 Q1842.6 199.661 1840.54 198.319 Q1838.48 196.977 1836.72 195.226 Q1832.34 190.839 1832.32 185.716 Q1832.32 180.609 1836.67 176.255 Q1841.18 171.754 1846.23 171.541 Q1851.32 171.328 1855.45 175.453 Q1859.15 179.152 1858.9 183.686 Q1858.69 188.22 1854.6 192.312 M1852.47 188.416 Q1854.91 185.912 1855.02 183.08 Q1855.15 180.265 1852.93 178.039 Q1850.41 175.518 1847.46 175.42 Q1844.53 175.338 1841.72 177.695 L1852.47 188.416 Z" fill="#000000" fill-rule="evenodd" fill-opacity="1" /><path clip-path="url(#clip450)" d="M1159.06 2.70794 L1189.11 2.70794 L1189.11 8.11879 L1165.49 8.11879 L1165.49 22.187 L1188.12 22.187 L1188.12 27.5978 L1165.49 27.5978 L1165.49 44.8171 L1189.68 44.8171 L1189.68 50.2279 L1159.06 50.2279 L1159.06 2.70794 Z" fill="#000000" fill-rule="evenodd" fill-opacity="1" /><path clip-path="url(#clip450)" d="M1229.63 14.58 L1216.74 31.9265 L1230.3 50.2279 L1223.39 50.2279 L1213.01 36.2234 L1202.64 50.2279 L1195.73 50.2279 L1209.58 31.5764 L1196.91 14.58 L1203.82 14.58 L1213.27 27.2796 L1222.72 14.58 L1229.63 14.58 Z" fill="#000000" fill-rule="evenodd" fill-opacity="1" /><path clip-path="url(#clip450)" d="M1267.06 30.9398 L1267.06 33.8044 L1240.13 33.8044 Q1240.51 39.8518 1243.76 43.0347 Q1247.04 46.1857 1252.86 46.1857 Q1256.24 46.1857 1259.39 45.3582 Q1262.57 44.5306 1265.69 42.8755 L1265.69 48.4137 Q1262.54 49.7505 1259.23 50.4507 Q1255.92 51.151 1252.51 51.151 Q1243.98 51.151 1238.99 46.1857 Q1234.02 41.2205 1234.02 32.7541 Q1234.02 24.0012 1238.73 18.8768 Q1243.47 13.7206 1251.49 13.7206 Q1258.69 13.7206 1262.86 18.3676 Q1267.06 22.9827 1267.06 30.9398 M1261.2 29.2211 Q1261.14 24.415 1258.5 21.5504 Q1255.89 18.6859 1251.56 18.6859 Q1246.66 18.6859 1243.7 21.4549 Q1240.77 24.224 1240.32 29.2529 L1261.2 29.2211 Z" fill="#000000" fill-rule="evenodd" fill-opacity="1" /><path clip-path="url(#clip450)" d="M1297.33 20.0545 Q1296.34 19.4816 1295.16 19.2269 Q1294.02 18.9405 1292.62 18.9405 Q1287.65 18.9405 1284.98 22.187 Q1282.34 25.4017 1282.34 31.4491 L1282.34 50.2279 L1276.45 50.2279 L1276.45 14.58 L1282.34 14.58 L1282.34 20.1181 Q1284.18 16.8716 1287.14 15.312 Q1290.1 13.7206 1294.34 13.7206 Q1294.94 13.7206 1295.67 13.8161 Q1296.4 13.8798 1297.3 14.0389 L1297.33 20.0545 Z" fill="#000000" fill-rule="evenodd" fill-opacity="1" /><path clip-path="url(#clip450)" d="M1327.69 15.9486 L1327.69 21.4231 Q1325.21 20.0545 1322.69 19.3861 Q1320.21 18.6859 1317.67 18.6859 Q1311.97 18.6859 1308.82 22.3143 Q1305.67 25.9109 1305.67 32.4358 Q1305.67 38.9606 1308.82 42.5891 Q1311.97 46.1857 1317.67 46.1857 Q1320.21 46.1857 1322.69 45.5173 Q1325.21 44.8171 1327.69 43.4485 L1327.69 48.8593 Q1325.24 50.0051 1322.6 50.5781 Q1319.99 51.151 1317.03 51.151 Q1308.98 51.151 1304.23 46.0902 Q1299.49 41.0295 1299.49 32.4358 Q1299.49 23.7148 1304.27 18.7177 Q1309.07 13.7206 1317.41 13.7206 Q1320.12 13.7206 1322.69 14.2935 Q1325.27 14.8346 1327.69 15.9486 Z" fill="#000000" fill-rule="evenodd" fill-opacity="1" /><path clip-path="url(#clip450)" d="M1337.88 14.58 L1343.73 14.58 L1343.73 50.2279 L1337.88 50.2279 L1337.88 14.58 M1337.88 0.702739 L1343.73 0.702739 L1343.73 8.11879 L1337.88 8.11879 L1337.88 0.702739 Z" fill="#000000" fill-rule="evenodd" fill-opacity="1" /><path clip-path="url(#clip450)" d="M1378.71 15.6303 L1378.71 21.1685 Q1376.23 19.8953 1373.56 19.2588 Q1370.88 18.6222 1368.02 18.6222 Q1363.66 18.6222 1361.46 19.959 Q1359.3 21.2958 1359.3 23.9694 Q1359.3 26.0064 1360.86 27.1841 Q1362.42 28.3299 1367.13 29.3802 L1369.13 29.8258 Q1375.37 31.1626 1377.98 33.6134 Q1380.62 36.0324 1380.62 40.3929 Q1380.62 45.3582 1376.68 48.2546 Q1372.76 51.151 1365.89 51.151 Q1363.02 51.151 1359.9 50.5781 Q1356.81 50.037 1353.38 48.923 L1353.38 42.8755 Q1356.62 44.5625 1359.77 45.4218 Q1362.93 46.2494 1366.01 46.2494 Q1370.15 46.2494 1372.38 44.8489 Q1374.61 43.4166 1374.61 40.8385 Q1374.61 38.4514 1372.98 37.1782 Q1371.39 35.9051 1365.95 34.7274 L1363.91 34.25 Q1358.47 33.1042 1356.05 30.7489 Q1353.63 28.3617 1353.63 24.224 Q1353.63 19.1951 1357.2 16.4579 Q1360.76 13.7206 1367.32 13.7206 Q1370.56 13.7206 1373.43 14.198 Q1376.29 14.6755 1378.71 15.6303 Z" fill="#000000" fill-rule="evenodd" fill-opacity="1" /><path clip-path="url(#clip450)" d="M1420.44 30.9398 L1420.44 33.8044 L1393.51 33.8044 Q1393.9 39.8518 1397.14 43.0347 Q1400.42 46.1857 1406.24 46.1857 Q1409.62 46.1857 1412.77 45.3582 Q1415.95 44.5306 1419.07 42.8755 L1419.07 48.4137 Q1415.92 49.7505 1412.61 50.4507 Q1409.3 51.151 1405.89 51.151 Q1397.36 51.151 1392.37 46.1857 Q1387.4 41.2205 1387.4 32.7541 Q1387.4 24.0012 1392.11 18.8768 Q1396.86 13.7206 1404.88 13.7206 Q1412.07 13.7206 1416.24 18.3676 Q1420.44 22.9827 1420.44 30.9398 M1414.58 29.2211 Q1414.52 24.415 1411.88 21.5504 Q1409.27 18.6859 1404.94 18.6859 Q1400.04 18.6859 1397.08 21.4549 Q1394.15 24.224 1393.7 29.2529 L1414.58 29.2211 Z" fill="#000000" fill-rule="evenodd" fill-opacity="1" /><polyline clip-path="url(#clip452)" style="stroke:#000000; stroke-linecap:round; stroke-linejoin:round; stroke-width:2; stroke-opacity:0.1; fill:none" points="
  322.748,227.321 2256.76,227.321 
  "/>
<polyline clip-path="url(#clip452)" style="stroke:#000000; stroke-linecap:round; stroke-linejoin:round; stroke-width:2; stroke-opacity:0.1; fill:none" points="
  322.748,277.208 2256.76,277.208 
  "/>
<polyline clip-path="url(#clip452)" style="stroke:#000000; stroke-linecap:round; stroke-linejoin:round; stroke-width:2; stroke-opacity:0.1; fill:none" points="
  322.748,392.333 2256.76,392.333 
  "/>
<polyline clip-path="url(#clip452)" style="stroke:#000000; stroke-linecap:round; stroke-linejoin:round; stroke-width:2; stroke-opacity:0.1; fill:none" points="
  322.748,935.062 2256.76,935.062 
  "/>
<polyline clip-path="url(#clip452)" style="stroke:#000000; stroke-linecap:round; stroke-linejoin:round; stroke-width:2; stroke-opacity:0.1; fill:none" points="
  322.748,1450.38 2256.76,1450.38 
  "/>
<polyline clip-path="url(#clip450)" style="stroke:#000000; stroke-linecap:round; stroke-linejoin:round; stroke-width:4; stroke-opacity:1; fill:none" points="
  322.748,1488.76 322.748,226.773 
  "/>
<polyline clip-path="url(#clip450)" style="stroke:#000000; stroke-linecap:round; stroke-linejoin:round; stroke-width:4; stroke-opacity:1; fill:none" points="
  322.748,227.321 341.646,227.321 
  "/>
<polyline clip-path="url(#clip450)" style="stroke:#000000; stroke-linecap:round; stroke-linejoin:round; stroke-width:4; stroke-opacity:1; fill:none" points="
  322.748,277.208 341.646,277.208 
  "/>
<polyline clip-path="url(#clip450)" style="stroke:#000000; stroke-linecap:round; stroke-linejoin:round; stroke-width:4; stroke-opacity:1; fill:none" points="
  322.748,392.333 341.646,392.333 
  "/>
<polyline clip-path="url(#clip450)" style="stroke:#000000; stroke-linecap:round; stroke-linejoin:round; stroke-width:4; stroke-opacity:1; fill:none" points="
  322.748,935.062 341.646,935.062 
  "/>
<polyline clip-path="url(#clip450)" style="stroke:#000000; stroke-linecap:round; stroke-linejoin:round; stroke-width:4; stroke-opacity:1; fill:none" points="
  322.748,1450.38 341.646,1450.38 
  "/>
<path clip-path="url(#clip450)" d="M135.087 223.652 Q136.684 220.781 138.907 219.416 Q141.129 218.05 144.138 218.05 Q148.189 218.05 150.388 220.897 Q152.587 223.721 152.587 228.953 L152.587 244.601 L148.305 244.601 L148.305 229.092 Q148.305 225.365 146.985 223.559 Q145.666 221.754 142.958 221.754 Q139.647 221.754 137.726 223.953 Q135.805 226.152 135.805 229.948 L135.805 244.601 L131.522 244.601 L131.522 229.092 Q131.522 225.342 130.203 223.559 Q128.884 221.754 126.129 221.754 Q122.865 221.754 120.944 223.976 Q119.023 226.175 119.023 229.948 L119.023 244.601 L114.74 244.601 L114.74 218.675 L119.023 218.675 L119.023 222.703 Q120.481 220.319 122.518 219.184 Q124.555 218.05 127.356 218.05 Q130.18 218.05 132.147 219.485 Q134.138 220.92 135.087 223.652 Z" fill="#000000" fill-rule="evenodd" fill-opacity="1" /><path clip-path="url(#clip450)" d="M161.083 218.675 L165.342 218.675 L165.342 244.601 L161.083 244.601 L161.083 218.675 M161.083 208.582 L165.342 208.582 L165.342 213.976 L161.083 213.976 L161.083 208.582 Z" fill="#000000" fill-rule="evenodd" fill-opacity="1" /><path clip-path="url(#clip450)" d="M190.781 219.439 L190.781 223.467 Q188.976 222.541 187.031 222.078 Q185.087 221.615 183.004 221.615 Q179.832 221.615 178.235 222.587 Q176.661 223.559 176.661 225.504 Q176.661 226.985 177.795 227.842 Q178.93 228.675 182.356 229.439 L183.814 229.763 Q188.351 230.735 190.249 232.518 Q192.17 234.277 192.17 237.448 Q192.17 241.059 189.3 243.166 Q186.453 245.272 181.453 245.272 Q179.369 245.272 177.101 244.855 Q174.856 244.462 172.356 243.652 L172.356 239.254 Q174.717 240.48 177.008 241.105 Q179.3 241.707 181.545 241.707 Q184.555 241.707 186.175 240.689 Q187.795 239.647 187.795 237.772 Q187.795 236.036 186.615 235.11 Q185.457 234.184 181.499 233.328 L180.018 232.981 Q176.059 232.147 174.3 230.434 Q172.541 228.698 172.541 225.689 Q172.541 222.031 175.133 220.041 Q177.726 218.05 182.494 218.05 Q184.856 218.05 186.939 218.397 Q189.022 218.744 190.781 219.439 Z" fill="#000000" fill-rule="evenodd" fill-opacity="1" /><path clip-path="url(#clip450)" d="M215.48 219.439 L215.48 223.467 Q213.675 222.541 211.73 222.078 Q209.786 221.615 207.703 221.615 Q204.531 221.615 202.934 222.587 Q201.36 223.559 201.36 225.504 Q201.36 226.985 202.494 227.842 Q203.629 228.675 207.054 229.439 L208.513 229.763 Q213.05 230.735 214.948 232.518 Q216.869 234.277 216.869 237.448 Q216.869 241.059 213.999 243.166 Q211.152 245.272 206.152 245.272 Q204.068 245.272 201.8 244.855 Q199.555 244.462 197.055 243.652 L197.055 239.254 Q199.416 240.48 201.707 241.105 Q203.999 241.707 206.244 241.707 Q209.254 241.707 210.874 240.689 Q212.494 239.647 212.494 237.772 Q212.494 236.036 211.314 235.11 Q210.156 234.184 206.198 233.328 L204.717 232.981 Q200.758 232.147 198.999 230.434 Q197.24 228.698 197.24 225.689 Q197.24 222.031 199.832 220.041 Q202.425 218.05 207.193 218.05 Q209.554 218.05 211.638 218.397 Q213.721 218.744 215.48 219.439 Z" fill="#000000" fill-rule="evenodd" fill-opacity="1" /><path clip-path="url(#clip450)" d="M223.652 218.675 L227.911 218.675 L227.911 244.601 L223.652 244.601 L223.652 218.675 M223.652 208.582 L227.911 208.582 L227.911 213.976 L223.652 213.976 L223.652 208.582 Z" fill="#000000" fill-rule="evenodd" fill-opacity="1" /><path clip-path="url(#clip450)" d="M258.374 228.953 L258.374 244.601 L254.114 244.601 L254.114 229.092 Q254.114 225.411 252.679 223.582 Q251.244 221.754 248.374 221.754 Q244.925 221.754 242.934 223.953 Q240.943 226.152 240.943 229.948 L240.943 244.601 L236.661 244.601 L236.661 218.675 L240.943 218.675 L240.943 222.703 Q242.471 220.365 244.531 219.207 Q246.614 218.05 249.323 218.05 Q253.79 218.05 256.082 220.828 Q258.374 223.582 258.374 228.953 Z" fill="#000000" fill-rule="evenodd" fill-opacity="1" /><path clip-path="url(#clip450)" d="M283.929 231.337 Q283.929 226.707 282.008 224.161 Q280.11 221.615 276.661 221.615 Q273.235 221.615 271.313 224.161 Q269.415 226.707 269.415 231.337 Q269.415 235.943 271.313 238.49 Q273.235 241.036 276.661 241.036 Q280.11 241.036 282.008 238.49 Q283.929 235.943 283.929 231.337 M288.188 241.383 Q288.188 248.004 285.249 251.221 Q282.309 254.462 276.244 254.462 Q273.999 254.462 272.008 254.115 Q270.017 253.791 268.142 253.096 L268.142 248.953 Q270.017 249.971 271.846 250.457 Q273.674 250.943 275.573 250.943 Q279.762 250.943 281.846 248.744 Q283.929 246.568 283.929 242.147 L283.929 240.041 Q282.61 242.332 280.549 243.467 Q278.489 244.601 275.619 244.601 Q270.85 244.601 267.934 240.967 Q265.017 237.332 265.017 231.337 Q265.017 225.319 267.934 221.684 Q270.85 218.05 275.619 218.05 Q278.489 218.05 280.549 219.184 Q282.61 220.319 283.929 222.61 L283.929 218.675 L288.188 218.675 L288.188 241.383 Z" fill="#000000" fill-rule="evenodd" fill-opacity="1" /><path clip-path="url(#clip450)" d="M180.388 278.284 Q181.893 278.794 183.305 280.46 Q184.74 282.127 186.175 285.044 L190.92 294.488 L185.897 294.488 L181.476 285.622 Q179.763 282.15 178.143 281.016 Q176.545 279.882 173.768 279.882 L168.675 279.882 L168.675 294.488 L163.999 294.488 L163.999 259.928 L174.555 259.928 Q180.481 259.928 183.397 262.405 Q186.314 264.882 186.314 269.882 Q186.314 273.146 184.786 275.298 Q183.281 277.451 180.388 278.284 M168.675 263.771 L168.675 276.039 L174.555 276.039 Q177.934 276.039 179.647 274.488 Q181.383 272.914 181.383 269.882 Q181.383 266.849 179.647 265.322 Q177.934 263.771 174.555 263.771 L168.675 263.771 Z" fill="#000000" fill-rule="evenodd" fill-opacity="1" /><path clip-path="url(#clip450)" d="M216.8 280.46 L216.8 282.544 L197.217 282.544 Q197.494 286.942 199.855 289.257 Q202.24 291.548 206.476 291.548 Q208.929 291.548 211.221 290.946 Q213.536 290.345 215.804 289.141 L215.804 293.169 Q213.513 294.141 211.105 294.65 Q208.698 295.159 206.221 295.159 Q200.017 295.159 196.383 291.548 Q192.772 287.937 192.772 281.78 Q192.772 275.414 196.198 271.687 Q199.647 267.937 205.48 267.937 Q210.712 267.937 213.744 271.317 Q216.8 274.673 216.8 280.46 M212.541 279.21 Q212.494 275.715 210.573 273.632 Q208.675 271.548 205.527 271.548 Q201.962 271.548 199.809 273.562 Q197.68 275.576 197.355 279.234 L212.541 279.21 Z" fill="#000000" fill-rule="evenodd" fill-opacity="1" /><path clip-path="url(#clip450)" d="M240.851 281.224 Q240.851 276.595 238.929 274.048 Q237.031 271.502 233.582 271.502 Q230.156 271.502 228.235 274.048 Q226.337 276.595 226.337 281.224 Q226.337 285.831 228.235 288.377 Q230.156 290.923 233.582 290.923 Q237.031 290.923 238.929 288.377 Q240.851 285.831 240.851 281.224 M245.11 291.27 Q245.11 297.891 242.17 301.108 Q239.23 304.349 233.165 304.349 Q230.92 304.349 228.929 304.002 Q226.939 303.678 225.064 302.983 L225.064 298.84 Q226.939 299.858 228.767 300.345 Q230.596 300.831 232.494 300.831 Q236.684 300.831 238.767 298.632 Q240.851 296.456 240.851 292.034 L240.851 289.928 Q239.531 292.22 237.471 293.354 Q235.411 294.488 232.54 294.488 Q227.772 294.488 224.855 290.854 Q221.939 287.22 221.939 281.224 Q221.939 275.206 224.855 271.572 Q227.772 267.937 232.54 267.937 Q235.411 267.937 237.471 269.072 Q239.531 270.206 240.851 272.497 L240.851 268.562 L245.11 268.562 L245.11 291.27 Z" fill="#000000" fill-rule="evenodd" fill-opacity="1" /><path clip-path="url(#clip450)" d="M253.443 284.257 L253.443 268.562 L257.702 268.562 L257.702 284.095 Q257.702 287.775 259.138 289.627 Q260.573 291.456 263.443 291.456 Q266.892 291.456 268.883 289.257 Q270.897 287.058 270.897 283.261 L270.897 268.562 L275.156 268.562 L275.156 294.488 L270.897 294.488 L270.897 290.507 Q269.346 292.868 267.286 294.025 Q265.249 295.159 262.54 295.159 Q258.073 295.159 255.758 292.382 Q253.443 289.604 253.443 284.257 M264.161 267.937 L264.161 267.937 Z" fill="#000000" fill-rule="evenodd" fill-opacity="1" /><path clip-path="url(#clip450)" d="M283.929 258.47 L288.188 258.47 L288.188 294.488 L283.929 294.488 L283.929 258.47 Z" fill="#000000" fill-rule="evenodd" fill-opacity="1" /><path clip-path="url(#clip450)" d="M165.99 378.224 Q160.897 378.224 157.888 382.02 Q154.902 385.816 154.902 392.367 Q154.902 398.895 157.888 402.691 Q160.897 406.488 165.99 406.488 Q171.082 406.488 174.045 402.691 Q177.031 398.895 177.031 392.367 Q177.031 385.816 174.045 382.02 Q171.082 378.224 165.99 378.224 M165.99 374.428 Q173.258 374.428 177.61 379.312 Q181.962 384.173 181.962 392.367 Q181.962 400.539 177.61 405.423 Q173.258 410.284 165.99 410.284 Q158.698 410.284 154.323 405.423 Q149.971 400.562 149.971 392.367 Q149.971 384.173 154.323 379.312 Q158.698 374.428 165.99 374.428 Z" fill="#000000" fill-rule="evenodd" fill-opacity="1" /><path clip-path="url(#clip450)" d="M207.749 384.682 L207.749 388.664 Q205.943 387.668 204.115 387.182 Q202.309 386.673 200.457 386.673 Q196.314 386.673 194.022 389.312 Q191.73 391.927 191.73 396.673 Q191.73 401.418 194.022 404.057 Q196.314 406.673 200.457 406.673 Q202.309 406.673 204.115 406.187 Q205.943 405.677 207.749 404.682 L207.749 408.617 Q205.967 409.45 204.045 409.867 Q202.147 410.284 199.994 410.284 Q194.138 410.284 190.689 406.603 Q187.24 402.923 187.24 396.673 Q187.24 390.33 190.712 386.696 Q194.207 383.062 200.272 383.062 Q202.24 383.062 204.115 383.478 Q205.99 383.872 207.749 384.682 Z" fill="#000000" fill-rule="evenodd" fill-opacity="1" /><path clip-path="url(#clip450)" d="M233.814 384.682 L233.814 388.664 Q232.008 387.668 230.179 387.182 Q228.374 386.673 226.522 386.673 Q222.378 386.673 220.087 389.312 Q217.795 391.927 217.795 396.673 Q217.795 401.418 220.087 404.057 Q222.378 406.673 226.522 406.673 Q228.374 406.673 230.179 406.187 Q232.008 405.677 233.814 404.682 L233.814 408.617 Q232.031 409.45 230.11 409.867 Q228.212 410.284 226.059 410.284 Q220.203 410.284 216.753 406.603 Q213.304 402.923 213.304 396.673 Q213.304 390.33 216.777 386.696 Q220.272 383.062 226.337 383.062 Q228.304 383.062 230.179 383.478 Q232.054 383.872 233.814 384.682 Z" fill="#000000" fill-rule="evenodd" fill-opacity="1" /><path clip-path="url(#clip450)" d="M253.003 396.58 Q247.841 396.58 245.851 397.761 Q243.86 398.941 243.86 401.788 Q243.86 404.057 245.341 405.4 Q246.846 406.719 249.415 406.719 Q252.957 406.719 255.087 404.219 Q257.239 401.696 257.239 397.529 L257.239 396.58 L253.003 396.58 M261.499 394.821 L261.499 409.613 L257.239 409.613 L257.239 405.677 Q255.781 408.038 253.605 409.173 Q251.429 410.284 248.281 410.284 Q244.3 410.284 241.939 408.062 Q239.601 405.816 239.601 402.066 Q239.601 397.691 242.517 395.469 Q245.457 393.247 251.267 393.247 L257.239 393.247 L257.239 392.83 Q257.239 389.89 255.295 388.293 Q253.374 386.673 249.878 386.673 Q247.656 386.673 245.55 387.205 Q243.443 387.738 241.499 388.802 L241.499 384.867 Q243.837 383.965 246.036 383.525 Q248.235 383.062 250.318 383.062 Q255.943 383.062 258.721 385.978 Q261.499 388.895 261.499 394.821 Z" fill="#000000" fill-rule="evenodd" fill-opacity="1" /><path clip-path="url(#clip450)" d="M286.799 384.451 L286.799 388.478 Q284.994 387.552 283.049 387.09 Q281.105 386.627 279.022 386.627 Q275.85 386.627 274.253 387.599 Q272.679 388.571 272.679 390.515 Q272.679 391.997 273.813 392.853 Q274.948 393.687 278.374 394.451 L279.832 394.775 Q284.369 395.747 286.267 397.529 Q288.188 399.289 288.188 402.46 Q288.188 406.071 285.318 408.177 Q282.471 410.284 277.471 410.284 Q275.387 410.284 273.119 409.867 Q270.874 409.474 268.374 408.663 L268.374 404.265 Q270.735 405.492 273.026 406.117 Q275.318 406.719 277.563 406.719 Q280.573 406.719 282.193 405.701 Q283.813 404.659 283.813 402.784 Q283.813 401.048 282.633 400.122 Q281.475 399.196 277.517 398.339 L276.036 397.992 Q272.077 397.159 270.318 395.446 Q268.559 393.71 268.559 390.701 Q268.559 387.043 271.151 385.052 Q273.744 383.062 278.512 383.062 Q280.874 383.062 282.957 383.409 Q285.04 383.756 286.799 384.451 Z" fill="#000000" fill-rule="evenodd" fill-opacity="1" /><path clip-path="url(#clip450)" d="M151.499 917.782 L157.795 917.782 L173.119 946.694 L173.119 917.782 L177.656 917.782 L177.656 952.342 L171.36 952.342 L156.036 923.43 L156.036 952.342 L151.499 952.342 L151.499 917.782 Z" fill="#000000" fill-rule="evenodd" fill-opacity="1" /><path clip-path="url(#clip450)" d="M208.953 938.314 L208.953 940.398 L189.369 940.398 Q189.647 944.796 192.008 947.111 Q194.393 949.402 198.629 949.402 Q201.082 949.402 203.374 948.8 Q205.689 948.199 207.957 946.995 L207.957 951.023 Q205.666 951.995 203.258 952.504 Q200.851 953.013 198.374 953.013 Q192.17 953.013 188.536 949.402 Q184.925 945.791 184.925 939.634 Q184.925 933.268 188.351 929.541 Q191.8 925.791 197.633 925.791 Q202.865 925.791 205.897 929.171 Q208.953 932.527 208.953 938.314 M204.693 937.064 Q204.647 933.569 202.726 931.486 Q200.828 929.402 197.68 929.402 Q194.115 929.402 191.962 931.416 Q189.832 933.43 189.508 937.088 L204.693 937.064 Z" fill="#000000" fill-rule="evenodd" fill-opacity="1" /><path clip-path="url(#clip450)" d="M212.888 926.416 L217.402 926.416 L225.503 948.175 L233.605 926.416 L238.119 926.416 L228.397 952.342 L222.61 952.342 L212.888 926.416 Z" fill="#000000" fill-rule="evenodd" fill-opacity="1" /><path clip-path="url(#clip450)" d="M266.175 938.314 L266.175 940.398 L246.591 940.398 Q246.869 944.796 249.23 947.111 Q251.614 949.402 255.851 949.402 Q258.304 949.402 260.596 948.8 Q262.911 948.199 265.179 946.995 L265.179 951.023 Q262.888 951.995 260.48 952.504 Q258.073 953.013 255.596 953.013 Q249.392 953.013 245.758 949.402 Q242.147 945.791 242.147 939.634 Q242.147 933.268 245.573 929.541 Q249.022 925.791 254.855 925.791 Q260.087 925.791 263.119 929.171 Q266.175 932.527 266.175 938.314 M261.915 937.064 Q261.869 933.569 259.948 931.486 Q258.05 929.402 254.901 929.402 Q251.337 929.402 249.184 931.416 Q247.054 933.43 246.73 937.088 L261.915 937.064 Z" fill="#000000" fill-rule="evenodd" fill-opacity="1" /><path clip-path="url(#clip450)" d="M288.188 930.398 Q287.471 929.981 286.614 929.796 Q285.781 929.588 284.762 929.588 Q281.151 929.588 279.207 931.949 Q277.286 934.287 277.286 938.685 L277.286 952.342 L273.003 952.342 L273.003 926.416 L277.286 926.416 L277.286 930.444 Q278.628 928.083 280.781 926.949 Q282.934 925.791 286.012 925.791 Q286.452 925.791 286.985 925.861 Q287.517 925.907 288.165 926.023 L288.188 930.398 Z" fill="#000000" fill-rule="evenodd" fill-opacity="1" /><path clip-path="url(#clip450)" d="M144.277 1433.1 L148.953 1433.1 L148.953 1447.27 L165.944 1447.27 L165.944 1433.1 L170.619 1433.1 L170.619 1467.66 L165.944 1467.66 L165.944 1451.2 L148.953 1451.2 L148.953 1467.66 L144.277 1467.66 L144.277 1433.1 Z" fill="#000000" fill-rule="evenodd" fill-opacity="1" /><path clip-path="url(#clip450)" d="M201.916 1453.63 L201.916 1455.72 L182.332 1455.72 Q182.61 1460.11 184.971 1462.43 Q187.356 1464.72 191.592 1464.72 Q194.045 1464.72 196.337 1464.12 Q198.652 1463.52 200.92 1462.31 L200.92 1466.34 Q198.629 1467.31 196.221 1467.82 Q193.814 1468.33 191.337 1468.33 Q185.133 1468.33 181.499 1464.72 Q177.888 1461.11 177.888 1454.95 Q177.888 1448.59 181.314 1444.86 Q184.763 1441.11 190.596 1441.11 Q195.828 1441.11 198.86 1444.49 Q201.916 1447.85 201.916 1453.63 M197.656 1452.38 Q197.61 1448.89 195.689 1446.8 Q193.791 1444.72 190.643 1444.72 Q187.078 1444.72 184.925 1446.74 Q182.795 1448.75 182.471 1452.41 L197.656 1452.38 Z" fill="#000000" fill-rule="evenodd" fill-opacity="1" /><path clip-path="url(#clip450)" d="M220.689 1454.63 Q215.527 1454.63 213.536 1455.81 Q211.545 1456.99 211.545 1459.84 Q211.545 1462.11 213.027 1463.45 Q214.531 1464.77 217.101 1464.77 Q220.642 1464.77 222.772 1462.27 Q224.925 1459.74 224.925 1455.58 L224.925 1454.63 L220.689 1454.63 M229.184 1452.87 L229.184 1467.66 L224.925 1467.66 L224.925 1463.73 Q223.466 1466.09 221.291 1467.22 Q219.115 1468.33 215.966 1468.33 Q211.985 1468.33 209.624 1466.11 Q207.286 1463.86 207.286 1460.11 Q207.286 1455.74 210.203 1453.52 Q213.142 1451.3 218.953 1451.3 L224.925 1451.3 L224.925 1450.88 Q224.925 1447.94 222.98 1446.34 Q221.059 1444.72 217.564 1444.72 Q215.341 1444.72 213.235 1445.25 Q211.129 1445.79 209.184 1446.85 L209.184 1442.92 Q211.522 1442.01 213.721 1441.57 Q215.92 1441.11 218.003 1441.11 Q223.628 1441.11 226.406 1444.03 Q229.184 1446.94 229.184 1452.87 Z" fill="#000000" fill-rule="evenodd" fill-opacity="1" /><path clip-path="url(#clip450)" d="M234.902 1441.74 L239.415 1441.74 L247.517 1463.49 L255.619 1441.74 L260.133 1441.74 L250.411 1467.66 L244.624 1467.66 L234.902 1441.74 Z" fill="#000000" fill-rule="evenodd" fill-opacity="1" /><path clip-path="url(#clip450)" d="M276.799 1470.07 Q274.994 1474.7 273.281 1476.11 Q271.568 1477.52 268.698 1477.52 L265.295 1477.52 L265.295 1473.96 L267.795 1473.96 Q269.554 1473.96 270.526 1473.12 Q271.499 1472.29 272.679 1469.19 L273.443 1467.24 L262.957 1441.74 L267.471 1441.74 L275.573 1462.01 L283.674 1441.74 L288.188 1441.74 L276.799 1470.07 Z" fill="#000000" fill-rule="evenodd" fill-opacity="1" /><path clip-path="url(#clip450)" d="M19.9638 933.437 L26.234 933.437 Q24.4834 937.097 23.624 940.343 Q22.7647 943.59 22.7647 946.614 Q22.7647 951.865 24.8017 954.73 Q26.8387 957.563 30.5945 957.563 Q33.7455 957.563 35.3688 955.685 Q36.9602 953.775 37.9469 948.491 L38.7426 944.608 Q40.1112 937.415 43.5805 934.01 Q47.018 930.572 52.8108 930.572 Q59.7176 930.572 63.2824 935.219 Q66.8472 939.834 66.8472 948.778 Q66.8472 952.152 66.0833 955.971 Q65.3194 959.759 63.8235 963.833 L57.2031 963.833 Q59.3993 959.918 60.5133 956.162 Q61.6273 952.406 61.6273 948.778 Q61.6273 943.272 59.463 940.28 Q57.2986 937.288 53.2882 937.288 Q49.7871 937.288 47.8137 939.452 Q45.8404 941.585 44.8537 946.486 L44.0898 950.401 Q42.6575 957.594 39.602 960.809 Q36.5464 964.024 31.1037 964.024 Q24.8017 964.024 21.1732 959.6 Q17.5448 955.144 17.5448 947.346 Q17.5448 944.004 18.1495 940.534 Q18.7543 937.065 19.9638 933.437 Z" fill="#000000" fill-rule="evenodd" fill-opacity="1" /><path clip-path="url(#clip450)" d="M37.1193 893.046 Q33.1726 890.85 31.2947 887.794 Q29.4168 884.739 29.4168 880.601 Q29.4168 875.031 33.3317 872.008 Q37.2148 868.984 44.4081 868.984 L65.9242 868.984 L65.9242 874.872 L44.599 874.872 Q39.4746 874.872 36.992 876.686 Q34.5094 878.501 34.5094 882.224 Q34.5094 886.776 37.5331 889.418 Q40.5568 892.059 45.7767 892.059 L65.9242 892.059 L65.9242 897.948 L44.599 897.948 Q39.4428 897.948 36.992 899.762 Q34.5094 901.576 34.5094 905.364 Q34.5094 909.852 37.5649 912.493 Q40.5886 915.135 45.7767 915.135 L65.9242 915.135 L65.9242 921.023 L30.2762 921.023 L30.2762 915.135 L35.8144 915.135 Q32.536 913.13 30.9764 910.329 Q29.4168 907.528 29.4168 903.677 Q29.4168 899.794 31.3902 897.088 Q33.3636 894.351 37.1193 893.046 Z" fill="#000000" fill-rule="evenodd" fill-opacity="1" /><path clip-path="url(#clip450)" d="M34.3821 843.489 Q34.3821 848.2 38.0742 850.937 Q41.7345 853.674 48.132 853.674 Q54.5295 853.674 58.2217 850.969 Q61.8819 848.232 61.8819 843.489 Q61.8819 838.81 58.1898 836.073 Q54.4977 833.336 48.132 833.336 Q41.7981 833.336 38.106 836.073 Q34.3821 838.81 34.3821 843.489 M29.4168 843.489 Q29.4168 835.85 34.3821 831.49 Q39.3473 827.129 48.132 827.129 Q56.8849 827.129 61.8819 831.49 Q66.8472 835.85 66.8472 843.489 Q66.8472 851.16 61.8819 855.52 Q56.8849 859.849 48.132 859.849 Q39.3473 859.849 34.3821 855.52 Q29.4168 851.16 29.4168 843.489 Z" fill="#000000" fill-rule="evenodd" fill-opacity="1" /><path clip-path="url(#clip450)" d="M16.399 817.644 L16.399 811.756 L45.6494 811.756 L30.2762 794.282 L30.2762 786.803 L46.9544 805.709 L65.9242 786.007 L65.9242 793.646 L48.5139 811.756 L65.9242 811.756 L65.9242 817.644 L16.399 817.644 Z" fill="#000000" fill-rule="evenodd" fill-opacity="1" /><path clip-path="url(#clip450)" d="M46.6361 751.505 L49.5006 751.505 L49.5006 778.432 Q55.5481 778.05 58.7309 774.803 Q61.8819 771.525 61.8819 765.7 Q61.8819 762.326 61.0544 759.175 Q60.2269 755.993 58.5718 752.873 L64.1099 752.873 Q65.4467 756.024 66.147 759.335 Q66.8472 762.645 66.8472 766.05 Q66.8472 774.58 61.8819 779.577 Q56.9167 784.543 48.4503 784.543 Q39.6974 784.543 34.5731 779.832 Q29.4168 775.09 29.4168 767.069 Q29.4168 759.876 34.0638 755.706 Q38.6789 751.505 46.6361 751.505 M44.9173 757.361 Q40.1112 757.425 37.2466 760.067 Q34.3821 762.677 34.3821 767.005 Q34.3821 771.907 37.1512 774.867 Q39.9202 777.795 44.9492 778.241 L44.9173 757.361 Z" fill="#000000" fill-rule="evenodd" fill-opacity="1" /><path clip-path="url(#clip452)" d="
M322.748 226.773 L322.748 1488.76 L1261.19 1488.76 L1261.19 226.773 L322.748 226.773 L322.748 226.773  Z
  " fill="#009af9" fill-rule="evenodd" fill-opacity="1"/>
<polyline clip-path="url(#clip452)" style="stroke:#000000; stroke-linecap:round; stroke-linejoin:round; stroke-width:2; stroke-opacity:1; fill:none" points="
  322.748,226.773 322.748,1488.76 1261.19,1488.76 1261.19,226.773 322.748,226.773 
  "/>
<path clip-path="url(#clip452)" d="
M1261.19 226.773 L1261.19 1488.76 L1457.04 1488.76 L1457.04 226.773 L1261.19 226.773 L1261.19 226.773  Z
  " fill="#009af9" fill-rule="evenodd" fill-opacity="1"/>
<polyline clip-path="url(#clip452)" style="stroke:#000000; stroke-linecap:round; stroke-linejoin:round; stroke-width:2; stroke-opacity:1; fill:none" points="
  1261.19,226.773 1261.19,1488.76 1457.04,1488.76 1457.04,226.773 1261.19,226.773 
  "/>
<path clip-path="url(#clip452)" d="
M1457.04 226.773 L1457.04 1488.76 L2256.76 1488.76 L2256.76 226.773 L1457.04 226.773 L1457.04 226.773  Z
  " fill="#009af9" fill-rule="evenodd" fill-opacity="1"/>
<polyline clip-path="url(#clip452)" style="stroke:#000000; stroke-linecap:round; stroke-linejoin:round; stroke-width:2; stroke-opacity:1; fill:none" points="
  1457.04,226.773 1457.04,1488.76 2256.76,1488.76 2256.76,226.773 1457.04,226.773 
  "/>
<circle clip-path="url(#clip452)" style="fill:#009af9; stroke:none; fill-opacity:0" cx="791.97" cy="226.773" r="2"/>
<circle clip-path="url(#clip452)" style="fill:#009af9; stroke:none; fill-opacity:0" cx="1359.12" cy="226.773" r="2"/>
<circle clip-path="url(#clip452)" style="fill:#009af9; stroke:none; fill-opacity:0" cx="1856.9" cy="226.773" r="2"/>
<path clip-path="url(#clip452)" d="
M322.748 227.869 L322.748 1488.76 L1261.19 1488.76 L1261.19 227.869 L322.748 227.869 L322.748 227.869  Z
  " fill="#e26f46" fill-rule="evenodd" fill-opacity="1"/>
<polyline clip-path="url(#clip452)" style="stroke:#000000; stroke-linecap:round; stroke-linejoin:round; stroke-width:2; stroke-opacity:1; fill:none" points="
  322.748,227.869 322.748,1488.76 1261.19,1488.76 1261.19,227.869 322.748,227.869 
  "/>
<path clip-path="url(#clip452)" d="
M1261.19 279.355 L1261.19 1488.76 L1457.04 1488.76 L1457.04 279.355 L1261.19 279.355 L1261.19 279.355  Z
  " fill="#e26f46" fill-rule="evenodd" fill-opacity="1"/>
<polyline clip-path="url(#clip452)" style="stroke:#000000; stroke-linecap:round; stroke-linejoin:round; stroke-width:2; stroke-opacity:1; fill:none" points="
  1261.19,279.355 1261.19,1488.76 1457.04,1488.76 1457.04,279.355 1261.19,279.355 
  "/>
<path clip-path="url(#clip452)" d="
M1457.04 228.059 L1457.04 1488.76 L2256.76 1488.76 L2256.76 228.059 L1457.04 228.059 L1457.04 228.059  Z
  " fill="#e26f46" fill-rule="evenodd" fill-opacity="1"/>
<polyline clip-path="url(#clip452)" style="stroke:#000000; stroke-linecap:round; stroke-linejoin:round; stroke-width:2; stroke-opacity:1; fill:none" points="
  1457.04,228.059 1457.04,1488.76 2256.76,1488.76 2256.76,228.059 1457.04,228.059 
  "/>
<circle clip-path="url(#clip452)" style="fill:#e26f46; stroke:none; fill-opacity:0" cx="791.97" cy="227.869" r="2"/>
<circle clip-path="url(#clip452)" style="fill:#e26f46; stroke:none; fill-opacity:0" cx="1359.12" cy="279.355" r="2"/>
<circle clip-path="url(#clip452)" style="fill:#e26f46; stroke:none; fill-opacity:0" cx="1856.9" cy="228.059" r="2"/>
<path clip-path="url(#clip452)" d="
M322.748 326.547 L322.748 1488.76 L1261.19 1488.76 L1261.19 326.547 L322.748 326.547 L322.748 326.547  Z
  " fill="#3da44d" fill-rule="evenodd" fill-opacity="1"/>
<polyline clip-path="url(#clip452)" style="stroke:#000000; stroke-linecap:round; stroke-linejoin:round; stroke-width:2; stroke-opacity:1; fill:none" points="
  322.748,326.547 322.748,1488.76 1261.19,1488.76 1261.19,326.547 322.748,326.547 
  "/>
<path clip-path="url(#clip452)" d="
M1261.19 331.938 L1261.19 1488.76 L1457.04 1488.76 L1457.04 331.938 L1261.19 331.938 L1261.19 331.938  Z
  " fill="#3da44d" fill-rule="evenodd" fill-opacity="1"/>
<polyline clip-path="url(#clip452)" style="stroke:#000000; stroke-linecap:round; stroke-linejoin:round; stroke-width:2; stroke-opacity:1; fill:none" points="
  1261.19,331.938 1261.19,1488.76 1457.04,1488.76 1457.04,331.938 1261.19,331.938 
  "/>
<path clip-path="url(#clip452)" d="
M1457.04 318.109 L1457.04 1488.76 L2256.76 1488.76 L2256.76 318.109 L1457.04 318.109 L1457.04 318.109  Z
  " fill="#3da44d" fill-rule="evenodd" fill-opacity="1"/>
<polyline clip-path="url(#clip452)" style="stroke:#000000; stroke-linecap:round; stroke-linejoin:round; stroke-width:2; stroke-opacity:1; fill:none" points="
  1457.04,318.109 1457.04,1488.76 2256.76,1488.76 2256.76,318.109 1457.04,318.109 
  "/>
<circle clip-path="url(#clip452)" style="fill:#3da44d; stroke:none; fill-opacity:0" cx="791.97" cy="326.547" r="2"/>
<circle clip-path="url(#clip452)" style="fill:#3da44d; stroke:none; fill-opacity:0" cx="1359.12" cy="331.938" r="2"/>
<circle clip-path="url(#clip452)" style="fill:#3da44d; stroke:none; fill-opacity:0" cx="1856.9" cy="318.109" r="2"/>
<path clip-path="url(#clip452)" d="
M322.748 458.118 L322.748 1488.76 L1261.19 1488.76 L1261.19 458.118 L322.748 458.118 L322.748 458.118  Z
  " fill="#c271d2" fill-rule="evenodd" fill-opacity="1"/>
<polyline clip-path="url(#clip452)" style="stroke:#000000; stroke-linecap:round; stroke-linejoin:round; stroke-width:2; stroke-opacity:1; fill:none" points="
  322.748,458.118 322.748,1488.76 1261.19,1488.76 1261.19,458.118 322.748,458.118 
  "/>
<path clip-path="url(#clip452)" d="
M1261.19 489.686 L1261.19 1488.76 L1457.04 1488.76 L1457.04 489.686 L1261.19 489.686 L1261.19 489.686  Z
  " fill="#c271d2" fill-rule="evenodd" fill-opacity="1"/>
<polyline clip-path="url(#clip452)" style="stroke:#000000; stroke-linecap:round; stroke-linejoin:round; stroke-width:2; stroke-opacity:1; fill:none" points="
  1261.19,489.686 1261.19,1488.76 1457.04,1488.76 1457.04,489.686 1261.19,489.686 
  "/>
<path clip-path="url(#clip452)" d="
M1457.04 369.566 L1457.04 1488.76 L2256.76 1488.76 L2256.76 369.566 L1457.04 369.566 L1457.04 369.566  Z
  " fill="#c271d2" fill-rule="evenodd" fill-opacity="1"/>
<polyline clip-path="url(#clip452)" style="stroke:#000000; stroke-linecap:round; stroke-linejoin:round; stroke-width:2; stroke-opacity:1; fill:none" points="
  1457.04,369.566 1457.04,1488.76 2256.76,1488.76 2256.76,369.566 1457.04,369.566 
  "/>
<circle clip-path="url(#clip452)" style="fill:#c271d2; stroke:none; fill-opacity:0" cx="791.97" cy="458.118" r="2"/>
<circle clip-path="url(#clip452)" style="fill:#c271d2; stroke:none; fill-opacity:0" cx="1359.12" cy="489.686" r="2"/>
<circle clip-path="url(#clip452)" style="fill:#c271d2; stroke:none; fill-opacity:0" cx="1856.9" cy="369.566" r="2"/>
<path clip-path="url(#clip452)" d="
M322.748 1412.01 L322.748 1488.76 L1261.19 1488.76 L1261.19 1412.01 L322.748 1412.01 L322.748 1412.01  Z
  " fill="#ac8d18" fill-rule="evenodd" fill-opacity="1"/>
<polyline clip-path="url(#clip452)" style="stroke:#000000; stroke-linecap:round; stroke-linejoin:round; stroke-width:2; stroke-opacity:1; fill:none" points="
  322.748,1412.01 322.748,1488.76 1261.19,1488.76 1261.19,1412.01 322.748,1412.01 
  "/>
<path clip-path="url(#clip452)" d="
M1261.19 1436.17 L1261.19 1488.76 L1457.04 1488.76 L1457.04 1436.17 L1261.19 1436.17 L1261.19 1436.17  Z
  " fill="#ac8d18" fill-rule="evenodd" fill-opacity="1"/>
<polyline clip-path="url(#clip452)" style="stroke:#000000; stroke-linecap:round; stroke-linejoin:round; stroke-width:2; stroke-opacity:1; fill:none" points="
  1261.19,1436.17 1261.19,1488.76 1457.04,1488.76 1457.04,1436.17 1261.19,1436.17 
  "/>
<path clip-path="url(#clip452)" d="
M1457.04 1450.16 L1457.04 1488.76 L2256.76 1488.76 L2256.76 1450.16 L1457.04 1450.16 L1457.04 1450.16  Z
  " fill="#ac8d18" fill-rule="evenodd" fill-opacity="1"/>
<polyline clip-path="url(#clip452)" style="stroke:#000000; stroke-linecap:round; stroke-linejoin:round; stroke-width:2; stroke-opacity:1; fill:none" points="
  1457.04,1450.16 1457.04,1488.76 2256.76,1488.76 2256.76,1450.16 1457.04,1450.16 
  "/>
<circle clip-path="url(#clip452)" style="fill:#ac8d18; stroke:none; fill-opacity:0" cx="791.97" cy="1412.01" r="2"/>
<circle clip-path="url(#clip452)" style="fill:#ac8d18; stroke:none; fill-opacity:0" cx="1359.12" cy="1436.17" r="2"/>
<circle clip-path="url(#clip452)" style="fill:#ac8d18; stroke:none; fill-opacity:0" cx="1856.9" cy="1450.16" r="2"/>
</svg>
