<svg height="240" viewBox="-0.7098958333333333 -0.8848958333333334 11.548218791412857 5.494791666666667" width="515.4165895619119" preserveAspectRatio="xMidYMid meet"><polygon points="-0.6 -0.5 0.4 -0.5 0.4 0.5 -0.6 0.5 " style="vector-effect: non-scaling-stroke; stroke: black; fill: red; stroke-width: 3; fill-opacity: 0.25; " transform="scale(1,-1)" /><text x="-0.1" style="font-family: Helvetica; text-anchor: middle; vector-effect: non-scaling-stroke; font-size: 0.25pt; " transform="translate(0 0.25) rotate(-0.0, -0.1, -0.125)" y="-0.125">:A</text><polygon points="0.39999999999999997 -0.5 1.4 -0.5 1.4 0.5 0.39999999999999997 0.5 " style="vector-effect: non-scaling-stroke; stroke: black; fill: red; stroke-width: 3; fill-opacity: 0.25; " transform="scale(1,-1)" /><text x="0.8999999999999999" style="font-family: Helvetica; text-anchor: middle; vector-effect: non-scaling-stroke; font-size: 0.2499999999999999pt; " transform="translate(0 0.25) rotate(-0.0, 0.8999999999999999, -0.125)" y="-0.125">:B</text><polygon points="1.4 -0.5 2.4 -0.5 2.4 0.5 1.4 0.5 " style="vector-effect: non-scaling-stroke; stroke: black; fill: red; stroke-width: 3; fill-opacity: 0.25; " transform="scale(1,-1)" /><text x="1.9" style="font-family: Helvetica; text-anchor: middle; vector-effect: non-scaling-stroke; font-size: 0.25pt; " transform="translate(0 0.25) rotate(-0.0, 1.9, -0.125)" y="-0.125">:C</text><polygon points="2.4 -0.5 3.4 -0.5 3.4 0.5 2.4 0.5 " style="vector-effect: non-scaling-stroke; stroke: black; fill: red; stroke-width: 3; fill-opacity: 0.25; " transform="scale(1,-1)" /><text x="2.9" style="font-family: Helvetica; text-anchor: middle; vector-effect: non-scaling-stroke; font-size: 0.25pt; " transform="translate(0 0.25) rotate(-0.0, 2.9, -0.125)" y="-0.125">:D</text><path style="vector-effect: non-scaling-stroke; stroke: black; fill: none; " transform="scale(1,-1)" d="M1.5 0.5500000000000002 Q 1.55625 0.6625000000000002, 1.6124999999999998 0.6625000000000002 2.4 0.6625000000000002 2.2875 0.6625000000000002 2.34375 0.6625000000000002 2.4 0.7750000000000001 " /><path style="vector-effect: non-scaling-stroke; stroke: black; fill: none; " transform="scale(1,-1)" d="M3.3 0.55 Q 3.24375 0.6625000000000001, 3.1875 0.6625000000000001 2.4 0.6625000000000002 2.5124999999999997 0.6625000000000001 2.45625 0.6625000000000001 2.4 0.7750000000000001 " /><polygon points="-0.6 -1.5 0.4 -1.5 0.4 -0.5 -0.6 -0.5 " style="vector-effect: non-scaling-stroke; stroke: black; fill: yellow; stroke-width: 3; fill-opacity: 0.25; " transform="scale(1,-1)" /><text x="-0.1" style="font-family: Helvetica; text-anchor: middle; vector-effect: non-scaling-stroke; font-size: 0.25pt; " transform="translate(0 2.25) rotate(-0.0, -0.1, -1.125)" y="-1.125">A</text><polygon points="0.39999999999999997 -1.5 1.4 -1.5 1.4 -0.5 0.39999999999999997 -0.5 " style="vector-effect: non-scaling-stroke; stroke: black; fill: yellow; stroke-width: 3; fill-opacity: 0.25; " transform="scale(1,-1)" /><text x="0.8999999999999999" style="font-family: Helvetica; text-anchor: middle; vector-effect: non-scaling-stroke; font-size: 0.2499999999999999pt; " transform="translate(0 2.25) rotate(-0.0, 0.8999999999999999, -1.125)" y="-1.125">a</text><polygon points="1.4 -1.5 2.4 -1.5 2.4 -0.5 1.4 -0.5 " style="vector-effect: non-scaling-stroke; stroke: black; fill: blue; stroke-width: 3; fill-opacity: 0.25; " transform="scale(1,-1)" /><text x="1.9" style="font-family: Helvetica; text-anchor: middle; vector-effect: non-scaling-stroke; font-size: 0.25pt; " transform="translate(0 2.25) rotate(-0.0, 1.9, -1.125)" y="-1.125">c1</text><polygon points="2.4 -1.5 3.4 -1.5 3.4 -0.5 2.4 -0.5 " style="vector-effect: non-scaling-stroke; stroke: black; fill: blue; stroke-width: 3; fill-opacity: 0.25; " transform="scale(1,-1)" /><text x="2.9" style="font-family: Helvetica; text-anchor: middle; vector-effect: non-scaling-stroke; font-size: 0.25pt; " transform="translate(0 2.25) rotate(-0.0, 2.9, -1.125)" y="-1.125">d1</text><polygon points="-0.6 -2.5 0.4 -2.5 0.4 -1.5 -0.6 -1.5 " style="vector-effect: non-scaling-stroke; stroke: black; fill: yellow; stroke-width: 3; fill-opacity: 0.25; " transform="scale(1,-1)" /><text x="-0.1" style="font-family: Helvetica; text-anchor: middle; vector-effect: non-scaling-stroke; font-size: 0.25pt; " transform="translate(0 4.25) rotate(-0.0, -0.1, -2.125)" y="-2.125">B</text><polygon points="0.39999999999999997 -2.5 1.4 -2.5 1.4 -1.5 0.39999999999999997 -1.5 " style="vector-effect: non-scaling-stroke; stroke: black; fill: yellow; stroke-width: 3; fill-opacity: 0.25; " transform="scale(1,-1)" /><text x="0.8999999999999999" style="font-family: Helvetica; text-anchor: middle; vector-effect: non-scaling-stroke; font-size: 0.2499999999999999pt; " transform="translate(0 4.25) rotate(-0.0, 0.8999999999999999, -2.125)" y="-2.125">b</text><polygon points="1.4 -2.5 2.4 -2.5 2.4 -1.5 1.4 -1.5 " style="vector-effect: non-scaling-stroke; stroke: black; fill: blue; stroke-width: 3; fill-opacity: 0.25; " transform="scale(1,-1)" /><text x="1.9" style="font-family: Helvetica; text-anchor: middle; vector-effect: non-scaling-stroke; font-size: 0.25pt; " transform="translate(0 4.25) rotate(-0.0, 1.9, -2.125)" y="-2.125">c2</text><polygon points="2.4 -2.5 3.4 -2.5 3.4 -1.5 2.4 -1.5 " style="vector-effect: non-scaling-stroke; stroke: black; fill: blue; stroke-width: 3; fill-opacity: 0.25; " transform="scale(1,-1)" /><text x="2.9" style="font-family: Helvetica; text-anchor: middle; vector-effect: non-scaling-stroke; font-size: 0.25pt; " transform="translate(0 4.25) rotate(-0.0, 2.9, -2.125)" y="-2.125">d2</text><polyline points="5.064213562373095 0.0 3.65 1.1102230246251565e-16 " style="vector-effect: non-scaling-stroke; stroke: black; fill: none; " transform="scale(1,-1)" /><polygon points="3.5 1.7415399241597571e-16 3.65 -0.08660254037844413 3.6500000000000004 0.08660254037844373 " style="vector-effect: non-scaling-stroke; " transform="scale(1,-1)" /><polyline points="5.064213562373095 0.0 6.47842712474619 1.1102230246251565e-16 " style="vector-effect: non-scaling-stroke; stroke: black; fill: none; " transform="scale(1,-1)" /><polygon points="6.62842712474619 1.69309011255337e-16 6.47842712474619 0.086602540378444 6.47842712474619 -0.08660254037844309 " style="vector-effect: non-scaling-stroke; " transform="scale(1,-1)" /><polygon points="6.72842712474619 -0.5 7.72842712474619 -0.5 7.72842712474619 0.5 6.72842712474619 0.5 " style="vector-effect: non-scaling-stroke; stroke: black; fill: red; stroke-width: 3; fill-opacity: 0.25; " transform="scale(1,-1)" /><text x="7.22842712474619" style="font-family: Helvetica; text-anchor: middle; vector-effect: non-scaling-stroke; font-size: 0.25pt; " transform="translate(0 0.25) rotate(-0.0, 7.22842712474619, -0.125)" y="-0.125">:A</text><polygon points="7.72842712474619 -0.5 8.72842712474619 -0.5 8.72842712474619 0.5 7.72842712474619 0.5 " style="vector-effect: non-scaling-stroke; stroke: black; fill: red; stroke-width: 3; fill-opacity: 0.25; " transform="scale(1,-1)" /><text x="8.22842712474619" style="font-family: Helvetica; text-anchor: middle; vector-effect: non-scaling-stroke; font-size: 0.25pt; " transform="translate(0 0.25) rotate(-0.0, 8.22842712474619, -0.125)" y="-0.125">:B</text><polygon points="8.72842712474619 -0.5 9.72842712474619 -0.5 9.72842712474619 0.5 8.72842712474619 0.5 " style="vector-effect: non-scaling-stroke; stroke: black; fill: red; stroke-width: 3; fill-opacity: 0.25; " transform="scale(1,-1)" /><text x="9.22842712474619" style="font-family: Helvetica; text-anchor: middle; vector-effect: non-scaling-stroke; font-size: 0.25pt; " transform="translate(0 0.25) rotate(-0.0, 9.22842712474619, -0.125)" y="-0.125">:var</text><polygon points="9.72842712474619 -0.5 10.72842712474619 -0.5 10.72842712474619 0.5 9.72842712474619 0.5 " style="vector-effect: non-scaling-stroke; stroke: black; fill: red; stroke-width: 3; fill-opacity: 0.25; " transform="scale(1,-1)" /><text x="10.22842712474619" style="font-family: Helvetica; text-anchor: middle; vector-effect: non-scaling-stroke; font-size: 0.25pt; " transform="translate(0 0.25) rotate(-0.0, 10.22842712474619, -0.125)" y="-0.125">:value</text><polygon points="6.72842712474619 -1.5 7.72842712474619 -1.5 7.72842712474619 -0.5 6.72842712474619 -0.5 " style="vector-effect: non-scaling-stroke; stroke: black; fill: yellow; stroke-width: 3; fill-opacity: 0.25; " transform="scale(1,-1)" /><text x="7.22842712474619" style="font-family: Helvetica; text-anchor: middle; vector-effect: non-scaling-stroke; font-size: 0.25pt; " transform="translate(0 2.25) rotate(-0.0, 7.22842712474619, -1.125)" y="-1.125">A</text><polygon points="7.72842712474619 -1.5 8.72842712474619 -1.5 8.72842712474619 -0.5 7.72842712474619 -0.5 " style="vector-effect: non-scaling-stroke; stroke: black; fill: yellow; stroke-width: 3; fill-opacity: 0.25; " transform="scale(1,-1)" /><text x="8.22842712474619" style="font-family: Helvetica; text-anchor: middle; vector-effect: non-scaling-stroke; font-size: 0.25pt; " transform="translate(0 2.25) rotate(-0.0, 8.22842712474619, -1.125)" y="-1.125">a</text><polygon points="8.72842712474619 -1.5 9.72842712474619 -1.5 9.72842712474619 -0.5 8.72842712474619 -0.5 " style="vector-effect: non-scaling-stroke; stroke: black; fill: red; stroke-width: 3; fill-opacity: 0.25; " transform="scale(1,-1)" /><text x="9.22842712474619" style="font-family: Helvetica; text-anchor: middle; vector-effect: non-scaling-stroke; font-size: 0.25pt; " transform="translate(0 2.25) rotate(-0.0, 9.22842712474619, -1.125)" y="-1.125">C</text><polygon points="9.72842712474619 -1.5 10.72842712474619 -1.5 10.72842712474619 -0.5 9.72842712474619 -0.5 " style="vector-effect: non-scaling-stroke; stroke: black; fill: blue; stroke-width: 3; fill-opacity: 0.25; " transform="scale(1,-1)" /><text x="10.22842712474619" style="font-family: Helvetica; text-anchor: middle; vector-effect: non-scaling-stroke; font-size: 0.25pt; " transform="translate(0 2.25) rotate(-0.0, 10.22842712474619, -1.125)" y="-1.125">c1</text><polygon points="6.72842712474619 -2.5 7.72842712474619 -2.5 7.72842712474619 -1.5 6.72842712474619 -1.5 " style="vector-effect: non-scaling-stroke; stroke: black; fill: yellow; stroke-width: 3; fill-opacity: 0.25; " transform="scale(1,-1)" /><text x="7.22842712474619" style="font-family: Helvetica; text-anchor: middle; vector-effect: non-scaling-stroke; font-size: 0.25pt; " transform="translate(0 4.25) rotate(-0.0, 7.22842712474619, -2.125)" y="-2.125">B</text><polygon points="7.72842712474619 -2.5 8.72842712474619 -2.5 8.72842712474619 -1.5 7.72842712474619 -1.5 " style="vector-effect: non-scaling-stroke; stroke: black; fill: yellow; stroke-width: 3; fill-opacity: 0.25; " transform="scale(1,-1)" /><text x="8.22842712474619" style="font-family: Helvetica; text-anchor: middle; vector-effect: non-scaling-stroke; font-size: 0.25pt; " transform="translate(0 4.25) rotate(-0.0, 8.22842712474619, -2.125)" y="-2.125">b</text><polygon points="8.72842712474619 -2.5 9.72842712474619 -2.5 9.72842712474619 -1.5 8.72842712474619 -1.5 " style="vector-effect: non-scaling-stroke; stroke: black; fill: red; stroke-width: 3; fill-opacity: 0.25; " transform="scale(1,-1)" /><text x="9.22842712474619" style="font-family: Helvetica; text-anchor: middle; vector-effect: non-scaling-stroke; font-size: 0.25pt; " transform="translate(0 4.25) rotate(-0.0, 9.22842712474619, -2.125)" y="-2.125">C</text><polygon points="9.72842712474619 -2.5 10.72842712474619 -2.5 10.72842712474619 -1.5 9.72842712474619 -1.5 " style="vector-effect: non-scaling-stroke; stroke: black; fill: blue; stroke-width: 3; fill-opacity: 0.25; " transform="scale(1,-1)" /><text x="10.22842712474619" style="font-family: Helvetica; text-anchor: middle; vector-effect: non-scaling-stroke; font-size: 0.25pt; " transform="translate(0 4.25) rotate(-0.0, 10.22842712474619, -2.125)" y="-2.125">c2</text><polygon points="6.72842712474619 -3.5 7.72842712474619 -3.5 7.72842712474619 -2.5 6.72842712474619 -2.5 " style="vector-effect: non-scaling-stroke; stroke: black; fill: yellow; stroke-width: 3; fill-opacity: 0.25; " transform="scale(1,-1)" /><text x="7.22842712474619" style="font-family: Helvetica; text-anchor: middle; vector-effect: non-scaling-stroke; font-size: 0.25pt; " transform="translate(0 6.25) rotate(-0.0, 7.22842712474619, -3.125)" y="-3.125">A</text><polygon points="7.72842712474619 -3.5 8.72842712474619 -3.5 8.72842712474619 -2.5 7.72842712474619 -2.5 " style="vector-effect: non-scaling-stroke; stroke: black; fill: yellow; stroke-width: 3; fill-opacity: 0.25; " transform="scale(1,-1)" /><text x="8.22842712474619" style="font-family: Helvetica; text-anchor: middle; vector-effect: non-scaling-stroke; font-size: 0.25pt; " transform="translate(0 6.25) rotate(-0.0, 8.22842712474619, -3.125)" y="-3.125">a</text><polygon points="8.72842712474619 -3.5 9.72842712474619 -3.5 9.72842712474619 -2.5 8.72842712474619 -2.5 " style="vector-effect: non-scaling-stroke; stroke: black; fill: red; stroke-width: 3; fill-opacity: 0.25; " transform="scale(1,-1)" /><text x="9.22842712474619" style="font-family: Helvetica; text-anchor: middle; vector-effect: non-scaling-stroke; font-size: 0.25pt; " transform="translate(0 6.25) rotate(-0.0, 9.22842712474619, -3.125)" y="-3.125">D</text><polygon points="9.72842712474619 -3.5 10.72842712474619 -3.5 10.72842712474619 -2.5 9.72842712474619 -2.5 " style="vector-effect: non-scaling-stroke; stroke: black; fill: blue; stroke-width: 3; fill-opacity: 0.25; " transform="scale(1,-1)" /><text x="10.22842712474619" style="font-family: Helvetica; text-anchor: middle; vector-effect: non-scaling-stroke; font-size: 0.25pt; " transform="translate(0 6.25) rotate(-0.0, 10.22842712474619, -3.125)" y="-3.125">d1</text><polygon points="6.72842712474619 -4.5 7.72842712474619 -4.5 7.72842712474619 -3.5 6.72842712474619 -3.5 " style="vector-effect: non-scaling-stroke; stroke: black; fill: yellow; stroke-width: 3; fill-opacity: 0.25; " transform="scale(1,-1)" /><text x="7.22842712474619" style="font-family: Helvetica; text-anchor: middle; vector-effect: non-scaling-stroke; font-size: 0.25pt; " transform="translate(0 8.25) rotate(-0.0, 7.22842712474619, -4.125)" y="-4.125">B</text><polygon points="7.72842712474619 -4.5 8.72842712474619 -4.5 8.72842712474619 -3.5 7.72842712474619 -3.5 " style="vector-effect: non-scaling-stroke; stroke: black; fill: yellow; stroke-width: 3; fill-opacity: 0.25; " transform="scale(1,-1)" /><text x="8.22842712474619" style="font-family: Helvetica; text-anchor: middle; vector-effect: non-scaling-stroke; font-size: 0.25pt; " transform="translate(0 8.25) rotate(-0.0, 8.22842712474619, -4.125)" y="-4.125">b</text><polygon points="8.72842712474619 -4.5 9.72842712474619 -4.5 9.72842712474619 -3.5 8.72842712474619 -3.5 " style="vector-effect: non-scaling-stroke; stroke: black; fill: red; stroke-width: 3; fill-opacity: 0.25; " transform="scale(1,-1)" /><text x="9.22842712474619" style="font-family: Helvetica; text-anchor: middle; vector-effect: non-scaling-stroke; font-size: 0.25pt; " transform="translate(0 8.25) rotate(-0.0, 9.22842712474619, -4.125)" y="-4.125">D</text><polygon points="9.72842712474619 -4.5 10.72842712474619 -4.5 10.72842712474619 -3.5 9.72842712474619 -3.5 " style="vector-effect: non-scaling-stroke; stroke: black; fill: blue; stroke-width: 3; fill-opacity: 0.25; " transform="scale(1,-1)" /><text x="10.22842712474619" style="font-family: Helvetica; text-anchor: middle; vector-effect: non-scaling-stroke; font-size: 0.25pt; " transform="translate(0 8.25) rotate(-0.0, 10.22842712474619, -4.125)" y="-4.125">d2</text></svg>