<?xml version="1.0" encoding="utf-8"?>
<svg xmlns="http://www.w3.org/2000/svg" xmlns:xlink="http://www.w3.org/1999/xlink" width="576" height="384" viewBox="0 0 2304 1536">
<defs>
  <clipPath id="clip770">
    <rect x="0" y="0" width="2304" height="1536"/>
  </clipPath>
</defs>
<path clip-path="url(#clip770)" d="
M0 1536 L2304 1536 L2304 0 L0 0  Z
  " fill="#ffffff" fill-rule="evenodd" fill-opacity="1"/>
<defs>
  <clipPath id="clip771">
    <rect x="460" y="0" width="1614" height="1536"/>
  </clipPath>
</defs>
<path clip-path="url(#clip770)" d="
M111.217 1423.09 L2256.76 1423.09 L2256.76 47.2441 L111.217 47.2441  Z
  " fill="#ffffff" fill-rule="evenodd" fill-opacity="1"/>
<defs>
  <clipPath id="clip772">
    <rect x="111" y="47" width="2147" height="1377"/>
  </clipPath>
</defs>
<polyline clip-path="url(#clip772)" style="stroke:#000000; stroke-linecap:round; stroke-linejoin:round; stroke-width:2; stroke-opacity:0.1; fill:none" points="
  229.226,1423.09 229.226,47.2441 
  "/>
<polyline clip-path="url(#clip772)" style="stroke:#000000; stroke-linecap:round; stroke-linejoin:round; stroke-width:2; stroke-opacity:0.1; fill:none" points="
  611.13,1423.09 611.13,47.2441 
  "/>
<polyline clip-path="url(#clip772)" style="stroke:#000000; stroke-linecap:round; stroke-linejoin:round; stroke-width:2; stroke-opacity:0.1; fill:none" points="
  993.034,1423.09 993.034,47.2441 
  "/>
<polyline clip-path="url(#clip772)" style="stroke:#000000; stroke-linecap:round; stroke-linejoin:round; stroke-width:2; stroke-opacity:0.1; fill:none" points="
  1374.94,1423.09 1374.94,47.2441 
  "/>
<polyline clip-path="url(#clip772)" style="stroke:#000000; stroke-linecap:round; stroke-linejoin:round; stroke-width:2; stroke-opacity:0.1; fill:none" points="
  1756.84,1423.09 1756.84,47.2441 
  "/>
<polyline clip-path="url(#clip772)" style="stroke:#000000; stroke-linecap:round; stroke-linejoin:round; stroke-width:2; stroke-opacity:0.1; fill:none" points="
  2138.75,1423.09 2138.75,47.2441 
  "/>
<polyline clip-path="url(#clip770)" style="stroke:#000000; stroke-linecap:round; stroke-linejoin:round; stroke-width:4; stroke-opacity:1; fill:none" points="
  111.217,1423.09 2256.76,1423.09 
  "/>
<polyline clip-path="url(#clip770)" style="stroke:#000000; stroke-linecap:round; stroke-linejoin:round; stroke-width:4; stroke-opacity:1; fill:none" points="
  229.226,1423.09 229.226,1404.19 
  "/>
<polyline clip-path="url(#clip770)" style="stroke:#000000; stroke-linecap:round; stroke-linejoin:round; stroke-width:4; stroke-opacity:1; fill:none" points="
  611.13,1423.09 611.13,1404.19 
  "/>
<polyline clip-path="url(#clip770)" style="stroke:#000000; stroke-linecap:round; stroke-linejoin:round; stroke-width:4; stroke-opacity:1; fill:none" points="
  993.034,1423.09 993.034,1404.19 
  "/>
<polyline clip-path="url(#clip770)" style="stroke:#000000; stroke-linecap:round; stroke-linejoin:round; stroke-width:4; stroke-opacity:1; fill:none" points="
  1374.94,1423.09 1374.94,1404.19 
  "/>
<polyline clip-path="url(#clip770)" style="stroke:#000000; stroke-linecap:round; stroke-linejoin:round; stroke-width:4; stroke-opacity:1; fill:none" points="
  1756.84,1423.09 1756.84,1404.19 
  "/>
<polyline clip-path="url(#clip770)" style="stroke:#000000; stroke-linecap:round; stroke-linejoin:round; stroke-width:4; stroke-opacity:1; fill:none" points="
  2138.75,1423.09 2138.75,1404.19 
  "/>
<path clip-path="url(#clip770)" d="M203.925 1450.16 L222.281 1450.16 L222.281 1454.1 L208.207 1454.1 L208.207 1462.57 Q209.226 1462.22 210.244 1462.06 Q211.263 1461.87 212.281 1461.87 Q218.068 1461.87 221.448 1465.04 Q224.828 1468.22 224.828 1473.63 Q224.828 1479.21 221.355 1482.31 Q217.883 1485.39 211.564 1485.39 Q209.388 1485.39 207.119 1485.02 Q204.874 1484.65 202.467 1483.91 L202.467 1479.21 Q204.55 1480.34 206.772 1480.9 Q208.994 1481.46 211.471 1481.46 Q215.476 1481.46 217.814 1479.35 Q220.152 1477.24 220.152 1473.63 Q220.152 1470.02 217.814 1467.91 Q215.476 1465.81 211.471 1465.81 Q209.596 1465.81 207.721 1466.22 Q205.869 1466.64 203.925 1467.52 L203.925 1450.16 Z" fill="#000000" fill-rule="evenodd" fill-opacity="1" /><path clip-path="url(#clip770)" d="M244.04 1453.24 Q240.429 1453.24 238.601 1456.8 Q236.795 1460.35 236.795 1467.47 Q236.795 1474.58 238.601 1478.15 Q240.429 1481.69 244.04 1481.69 Q247.675 1481.69 249.48 1478.15 Q251.309 1474.58 251.309 1467.47 Q251.309 1460.35 249.48 1456.8 Q247.675 1453.24 244.04 1453.24 M244.04 1449.53 Q249.851 1449.53 252.906 1454.14 Q255.985 1458.72 255.985 1467.47 Q255.985 1476.2 252.906 1480.81 Q249.851 1485.39 244.04 1485.39 Q238.23 1485.39 235.152 1480.81 Q232.096 1476.2 232.096 1467.47 Q232.096 1458.72 235.152 1454.14 Q238.23 1449.53 244.04 1449.53 Z" fill="#000000" fill-rule="evenodd" fill-opacity="1" /><path clip-path="url(#clip770)" d="M570.737 1480.78 L578.376 1480.78 L578.376 1454.42 L570.065 1456.09 L570.065 1451.83 L578.329 1450.16 L583.005 1450.16 L583.005 1480.78 L590.644 1480.78 L590.644 1484.72 L570.737 1484.72 L570.737 1480.78 Z" fill="#000000" fill-rule="evenodd" fill-opacity="1" /><path clip-path="url(#clip770)" d="M610.088 1453.24 Q606.477 1453.24 604.649 1456.8 Q602.843 1460.35 602.843 1467.47 Q602.843 1474.58 604.649 1478.15 Q606.477 1481.69 610.088 1481.69 Q613.723 1481.69 615.528 1478.15 Q617.357 1474.58 617.357 1467.47 Q617.357 1460.35 615.528 1456.8 Q613.723 1453.24 610.088 1453.24 M610.088 1449.53 Q615.898 1449.53 618.954 1454.14 Q622.033 1458.72 622.033 1467.47 Q622.033 1476.2 618.954 1480.81 Q615.898 1485.39 610.088 1485.39 Q604.278 1485.39 601.199 1480.81 Q598.144 1476.2 598.144 1467.47 Q598.144 1458.72 601.199 1454.14 Q604.278 1449.53 610.088 1449.53 Z" fill="#000000" fill-rule="evenodd" fill-opacity="1" /><path clip-path="url(#clip770)" d="M640.25 1453.24 Q636.639 1453.24 634.81 1456.8 Q633.005 1460.35 633.005 1467.47 Q633.005 1474.58 634.81 1478.15 Q636.639 1481.69 640.25 1481.69 Q643.884 1481.69 645.69 1478.15 Q647.519 1474.58 647.519 1467.47 Q647.519 1460.35 645.69 1456.8 Q643.884 1453.24 640.25 1453.24 M640.25 1449.53 Q646.06 1449.53 649.116 1454.14 Q652.195 1458.72 652.195 1467.47 Q652.195 1476.2 649.116 1480.81 Q646.06 1485.39 640.25 1485.39 Q634.44 1485.39 631.361 1480.81 Q628.306 1476.2 628.306 1467.47 Q628.306 1458.72 631.361 1454.14 Q634.44 1449.53 640.25 1449.53 Z" fill="#000000" fill-rule="evenodd" fill-opacity="1" /><path clip-path="url(#clip770)" d="M952.641 1480.78 L960.28 1480.78 L960.28 1454.42 L951.97 1456.09 L951.97 1451.83 L960.234 1450.16 L964.91 1450.16 L964.91 1480.78 L972.548 1480.78 L972.548 1484.72 L952.641 1484.72 L952.641 1480.78 Z" fill="#000000" fill-rule="evenodd" fill-opacity="1" /><path clip-path="url(#clip770)" d="M982.039 1450.16 L1000.4 1450.16 L1000.4 1454.1 L986.321 1454.1 L986.321 1462.57 Q987.34 1462.22 988.358 1462.06 Q989.377 1461.87 990.395 1461.87 Q996.182 1461.87 999.562 1465.04 Q1002.94 1468.22 1002.94 1473.63 Q1002.94 1479.21 999.47 1482.31 Q995.997 1485.39 989.678 1485.39 Q987.502 1485.39 985.233 1485.02 Q982.988 1484.65 980.581 1483.91 L980.581 1479.21 Q982.664 1480.34 984.886 1480.9 Q987.108 1481.46 989.585 1481.46 Q993.59 1481.46 995.928 1479.35 Q998.266 1477.24 998.266 1473.63 Q998.266 1470.02 995.928 1467.91 Q993.59 1465.81 989.585 1465.81 Q987.71 1465.81 985.835 1466.22 Q983.983 1466.64 982.039 1467.52 L982.039 1450.16 Z" fill="#000000" fill-rule="evenodd" fill-opacity="1" /><path clip-path="url(#clip770)" d="M1022.15 1453.24 Q1018.54 1453.24 1016.71 1456.8 Q1014.91 1460.35 1014.91 1467.47 Q1014.91 1474.58 1016.71 1478.15 Q1018.54 1481.69 1022.15 1481.69 Q1025.79 1481.69 1027.59 1478.15 Q1029.42 1474.58 1029.42 1467.47 Q1029.42 1460.35 1027.59 1456.8 Q1025.79 1453.24 1022.15 1453.24 M1022.15 1449.53 Q1027.96 1449.53 1031.02 1454.14 Q1034.1 1458.72 1034.1 1467.47 Q1034.1 1476.2 1031.02 1480.81 Q1027.96 1485.39 1022.15 1485.39 Q1016.34 1485.39 1013.27 1480.81 Q1010.21 1476.2 1010.21 1467.47 Q1010.21 1458.72 1013.27 1454.14 Q1016.34 1449.53 1022.15 1449.53 Z" fill="#000000" fill-rule="evenodd" fill-opacity="1" /><path clip-path="url(#clip770)" d="M1338.63 1480.78 L1354.95 1480.78 L1354.95 1484.72 L1333.01 1484.72 L1333.01 1480.78 Q1335.67 1478.03 1340.25 1473.4 Q1344.86 1468.75 1346.04 1467.41 Q1348.28 1464.88 1349.16 1463.15 Q1350.07 1461.39 1350.07 1459.7 Q1350.07 1456.94 1348.12 1455.21 Q1346.2 1453.47 1343.1 1453.47 Q1340.9 1453.47 1338.45 1454.23 Q1336.02 1455 1333.24 1456.55 L1333.24 1451.83 Q1336.06 1450.69 1338.52 1450.11 Q1340.97 1449.53 1343.01 1449.53 Q1348.38 1449.53 1351.57 1452.22 Q1354.77 1454.91 1354.77 1459.4 Q1354.77 1461.53 1353.96 1463.45 Q1353.17 1465.34 1351.06 1467.94 Q1350.48 1468.61 1347.38 1471.83 Q1344.28 1475.02 1338.63 1480.78 Z" fill="#000000" fill-rule="evenodd" fill-opacity="1" /><path clip-path="url(#clip770)" d="M1374.77 1453.24 Q1371.15 1453.24 1369.33 1456.8 Q1367.52 1460.35 1367.52 1467.47 Q1367.52 1474.58 1369.33 1478.15 Q1371.15 1481.69 1374.77 1481.69 Q1378.4 1481.69 1380.2 1478.15 Q1382.03 1474.58 1382.03 1467.47 Q1382.03 1460.35 1380.2 1456.8 Q1378.4 1453.24 1374.77 1453.24 M1374.77 1449.53 Q1380.58 1449.53 1383.63 1454.14 Q1386.71 1458.72 1386.71 1467.47 Q1386.71 1476.2 1383.63 1480.81 Q1380.58 1485.39 1374.77 1485.39 Q1368.95 1485.39 1365.88 1480.81 Q1362.82 1476.2 1362.82 1467.47 Q1362.82 1458.72 1365.88 1454.14 Q1368.95 1449.53 1374.77 1449.53 Z" fill="#000000" fill-rule="evenodd" fill-opacity="1" /><path clip-path="url(#clip770)" d="M1404.93 1453.24 Q1401.32 1453.24 1399.49 1456.8 Q1397.68 1460.35 1397.68 1467.47 Q1397.68 1474.58 1399.49 1478.15 Q1401.32 1481.69 1404.93 1481.69 Q1408.56 1481.69 1410.37 1478.15 Q1412.2 1474.58 1412.2 1467.47 Q1412.2 1460.35 1410.37 1456.8 Q1408.56 1453.24 1404.93 1453.24 M1404.93 1449.53 Q1410.74 1449.53 1413.79 1454.14 Q1416.87 1458.72 1416.87 1467.47 Q1416.87 1476.2 1413.79 1480.81 Q1410.74 1485.39 1404.93 1485.39 Q1399.12 1485.39 1396.04 1480.81 Q1392.98 1476.2 1392.98 1467.47 Q1392.98 1458.72 1396.04 1454.14 Q1399.12 1449.53 1404.93 1449.53 Z" fill="#000000" fill-rule="evenodd" fill-opacity="1" /><path clip-path="url(#clip770)" d="M1720.54 1480.78 L1736.85 1480.78 L1736.85 1484.72 L1714.91 1484.72 L1714.91 1480.78 Q1717.57 1478.03 1722.16 1473.4 Q1726.76 1468.75 1727.94 1467.41 Q1730.19 1464.88 1731.07 1463.15 Q1731.97 1461.39 1731.97 1459.7 Q1731.97 1456.94 1730.03 1455.21 Q1728.1 1453.47 1725 1453.47 Q1722.8 1453.47 1720.35 1454.23 Q1717.92 1455 1715.14 1456.55 L1715.14 1451.83 Q1717.97 1450.69 1720.42 1450.11 Q1722.87 1449.53 1724.91 1449.53 Q1730.28 1449.53 1733.48 1452.22 Q1736.67 1454.91 1736.67 1459.4 Q1736.67 1461.53 1735.86 1463.45 Q1735.07 1465.34 1732.97 1467.94 Q1732.39 1468.61 1729.29 1471.83 Q1726.18 1475.02 1720.54 1480.78 Z" fill="#000000" fill-rule="evenodd" fill-opacity="1" /><path clip-path="url(#clip770)" d="M1746.72 1450.16 L1765.07 1450.16 L1765.07 1454.1 L1751 1454.1 L1751 1462.57 Q1752.02 1462.22 1753.04 1462.06 Q1754.05 1461.87 1755.07 1461.87 Q1760.86 1461.87 1764.24 1465.04 Q1767.62 1468.22 1767.62 1473.63 Q1767.62 1479.21 1764.15 1482.31 Q1760.67 1485.39 1754.35 1485.39 Q1752.18 1485.39 1749.91 1485.02 Q1747.66 1484.65 1745.26 1483.91 L1745.26 1479.21 Q1747.34 1480.34 1749.56 1480.9 Q1751.79 1481.46 1754.26 1481.46 Q1758.27 1481.46 1760.6 1479.35 Q1762.94 1477.24 1762.94 1473.63 Q1762.94 1470.02 1760.6 1467.91 Q1758.27 1465.81 1754.26 1465.81 Q1752.39 1465.81 1750.51 1466.22 Q1748.66 1466.64 1746.72 1467.52 L1746.72 1450.16 Z" fill="#000000" fill-rule="evenodd" fill-opacity="1" /><path clip-path="url(#clip770)" d="M1786.83 1453.24 Q1783.22 1453.24 1781.39 1456.8 Q1779.59 1460.35 1779.59 1467.47 Q1779.59 1474.58 1781.39 1478.15 Q1783.22 1481.69 1786.83 1481.69 Q1790.47 1481.69 1792.27 1478.15 Q1794.1 1474.58 1794.1 1467.47 Q1794.1 1460.35 1792.27 1456.8 Q1790.47 1453.24 1786.83 1453.24 M1786.83 1449.53 Q1792.64 1449.53 1795.7 1454.14 Q1798.78 1458.72 1798.78 1467.47 Q1798.78 1476.2 1795.7 1480.81 Q1792.64 1485.39 1786.83 1485.39 Q1781.02 1485.39 1777.94 1480.81 Q1774.89 1476.2 1774.89 1467.47 Q1774.89 1458.72 1777.94 1454.14 Q1781.02 1449.53 1786.83 1449.53 Z" fill="#000000" fill-rule="evenodd" fill-opacity="1" /><path clip-path="url(#clip770)" d="M2112.51 1466.09 Q2115.87 1466.8 2117.74 1469.07 Q2119.64 1471.34 2119.64 1474.67 Q2119.64 1479.79 2116.12 1482.59 Q2112.6 1485.39 2106.12 1485.39 Q2103.94 1485.39 2101.63 1484.95 Q2099.34 1484.53 2096.88 1483.68 L2096.88 1479.16 Q2098.83 1480.3 2101.14 1480.88 Q2103.46 1481.46 2105.98 1481.46 Q2110.38 1481.46 2112.67 1479.72 Q2114.99 1477.98 2114.99 1474.67 Q2114.99 1471.62 2112.83 1469.91 Q2110.7 1468.17 2106.88 1468.17 L2102.86 1468.17 L2102.86 1464.33 L2107.07 1464.33 Q2110.52 1464.33 2112.35 1462.96 Q2114.18 1461.57 2114.18 1458.98 Q2114.18 1456.32 2112.28 1454.91 Q2110.4 1453.47 2106.88 1453.47 Q2104.96 1453.47 2102.76 1453.89 Q2100.56 1454.3 2097.93 1455.18 L2097.93 1451.02 Q2100.59 1450.28 2102.9 1449.91 Q2105.24 1449.53 2107.3 1449.53 Q2112.62 1449.53 2115.73 1451.97 Q2118.83 1454.37 2118.83 1458.49 Q2118.83 1461.36 2117.19 1463.35 Q2115.54 1465.32 2112.51 1466.09 Z" fill="#000000" fill-rule="evenodd" fill-opacity="1" /><path clip-path="url(#clip770)" d="M2138.5 1453.24 Q2134.89 1453.24 2133.06 1456.8 Q2131.26 1460.35 2131.26 1467.47 Q2131.26 1474.58 2133.06 1478.15 Q2134.89 1481.69 2138.5 1481.69 Q2142.14 1481.69 2143.94 1478.15 Q2145.77 1474.58 2145.77 1467.47 Q2145.77 1460.35 2143.94 1456.8 Q2142.14 1453.24 2138.5 1453.24 M2138.5 1449.53 Q2144.31 1449.53 2147.37 1454.14 Q2150.45 1458.72 2150.45 1467.47 Q2150.45 1476.2 2147.37 1480.81 Q2144.31 1485.39 2138.5 1485.39 Q2132.69 1485.39 2129.62 1480.81 Q2126.56 1476.2 2126.56 1467.47 Q2126.56 1458.72 2129.62 1454.14 Q2132.69 1449.53 2138.5 1449.53 Z" fill="#000000" fill-rule="evenodd" fill-opacity="1" /><path clip-path="url(#clip770)" d="M2168.67 1453.24 Q2165.06 1453.24 2163.23 1456.8 Q2161.42 1460.35 2161.42 1467.47 Q2161.42 1474.58 2163.23 1478.15 Q2165.06 1481.69 2168.67 1481.69 Q2172.3 1481.69 2174.11 1478.15 Q2175.93 1474.58 2175.93 1467.47 Q2175.93 1460.35 2174.11 1456.8 Q2172.3 1453.24 2168.67 1453.24 M2168.67 1449.53 Q2174.48 1449.53 2177.53 1454.14 Q2180.61 1458.72 2180.61 1467.47 Q2180.61 1476.2 2177.53 1480.81 Q2174.48 1485.39 2168.67 1485.39 Q2162.86 1485.39 2159.78 1480.81 Q2156.72 1476.2 2156.72 1467.47 Q2156.72 1458.72 2159.78 1454.14 Q2162.86 1449.53 2168.67 1449.53 Z" fill="#000000" fill-rule="evenodd" fill-opacity="1" /><polyline clip-path="url(#clip772)" style="stroke:#000000; stroke-linecap:round; stroke-linejoin:round; stroke-width:2; stroke-opacity:0.1; fill:none" points="
  111.217,1384.15 2256.76,1384.15 
  "/>
<polyline clip-path="url(#clip772)" style="stroke:#000000; stroke-linecap:round; stroke-linejoin:round; stroke-width:2; stroke-opacity:0.1; fill:none" points="
  111.217,1059.66 2256.76,1059.66 
  "/>
<polyline clip-path="url(#clip772)" style="stroke:#000000; stroke-linecap:round; stroke-linejoin:round; stroke-width:2; stroke-opacity:0.1; fill:none" points="
  111.217,735.166 2256.76,735.166 
  "/>
<polyline clip-path="url(#clip772)" style="stroke:#000000; stroke-linecap:round; stroke-linejoin:round; stroke-width:2; stroke-opacity:0.1; fill:none" points="
  111.217,410.675 2256.76,410.675 
  "/>
<polyline clip-path="url(#clip772)" style="stroke:#000000; stroke-linecap:round; stroke-linejoin:round; stroke-width:2; stroke-opacity:0.1; fill:none" points="
  111.217,86.1831 2256.76,86.1831 
  "/>
<polyline clip-path="url(#clip770)" style="stroke:#000000; stroke-linecap:round; stroke-linejoin:round; stroke-width:4; stroke-opacity:1; fill:none" points="
  111.217,1423.09 111.217,47.2441 
  "/>
<polyline clip-path="url(#clip770)" style="stroke:#000000; stroke-linecap:round; stroke-linejoin:round; stroke-width:4; stroke-opacity:1; fill:none" points="
  111.217,1384.15 130.115,1384.15 
  "/>
<polyline clip-path="url(#clip770)" style="stroke:#000000; stroke-linecap:round; stroke-linejoin:round; stroke-width:4; stroke-opacity:1; fill:none" points="
  111.217,1059.66 130.115,1059.66 
  "/>
<polyline clip-path="url(#clip770)" style="stroke:#000000; stroke-linecap:round; stroke-linejoin:round; stroke-width:4; stroke-opacity:1; fill:none" points="
  111.217,735.166 130.115,735.166 
  "/>
<polyline clip-path="url(#clip770)" style="stroke:#000000; stroke-linecap:round; stroke-linejoin:round; stroke-width:4; stroke-opacity:1; fill:none" points="
  111.217,410.675 130.115,410.675 
  "/>
<polyline clip-path="url(#clip770)" style="stroke:#000000; stroke-linecap:round; stroke-linejoin:round; stroke-width:4; stroke-opacity:1; fill:none" points="
  111.217,86.1831 130.115,86.1831 
  "/>
<path clip-path="url(#clip770)" d="M64.7128 1369.95 Q61.1017 1369.95 59.273 1373.51 Q57.4675 1377.05 57.4675 1384.18 Q57.4675 1391.29 59.273 1394.85 Q61.1017 1398.4 64.7128 1398.4 Q68.347 1398.4 70.1526 1394.85 Q71.9813 1391.29 71.9813 1384.18 Q71.9813 1377.05 70.1526 1373.51 Q68.347 1369.95 64.7128 1369.95 M64.7128 1366.24 Q70.5229 1366.24 73.5785 1370.85 Q76.6572 1375.43 76.6572 1384.18 Q76.6572 1392.91 73.5785 1397.52 Q70.5229 1402.1 64.7128 1402.1 Q58.9026 1402.1 55.824 1397.52 Q52.7684 1392.91 52.7684 1384.18 Q52.7684 1375.43 55.824 1370.85 Q58.9026 1366.24 64.7128 1366.24 Z" fill="#000000" fill-rule="evenodd" fill-opacity="1" /><path clip-path="url(#clip770)" d="M56.7499 1073 L64.3887 1073 L64.3887 1046.64 L56.0786 1048.3 L56.0786 1044.04 L64.3424 1042.38 L69.0183 1042.38 L69.0183 1073 L76.6572 1073 L76.6572 1076.94 L56.7499 1076.94 L56.7499 1073 Z" fill="#000000" fill-rule="evenodd" fill-opacity="1" /><path clip-path="url(#clip770)" d="M60.3378 748.511 L76.6572 748.511 L76.6572 752.446 L54.7128 752.446 L54.7128 748.511 Q57.3749 745.756 61.9582 741.127 Q66.5646 736.474 67.7452 735.131 Q69.9905 732.608 70.8702 730.872 Q71.7729 729.113 71.7729 727.423 Q71.7729 724.668 69.8285 722.932 Q67.9072 721.196 64.8054 721.196 Q62.6063 721.196 60.1526 721.96 Q57.7221 722.724 54.9443 724.275 L54.9443 719.553 Q57.7684 718.418 60.2221 717.84 Q62.6758 717.261 64.7128 717.261 Q70.0831 717.261 73.2776 719.946 Q76.472 722.631 76.472 727.122 Q76.472 729.252 75.6618 731.173 Q74.8748 733.071 72.7683 735.664 Q72.1896 736.335 69.0878 739.553 Q65.9859 742.747 60.3378 748.511 Z" fill="#000000" fill-rule="evenodd" fill-opacity="1" /><path clip-path="url(#clip770)" d="M69.5276 409.32 Q72.884 410.038 74.759 412.306 Q76.6572 414.575 76.6572 417.908 Q76.6572 423.024 73.1387 425.825 Q69.6202 428.626 63.1387 428.626 Q60.9628 428.626 58.648 428.186 Q56.3564 427.769 53.9027 426.913 L53.9027 422.399 Q55.8471 423.533 58.1619 424.112 Q60.4767 424.691 62.9998 424.691 Q67.398 424.691 69.6896 422.955 Q72.0044 421.218 72.0044 417.908 Q72.0044 414.853 69.8517 413.14 Q67.722 411.404 63.9026 411.404 L59.8749 411.404 L59.8749 407.561 L64.0878 407.561 Q67.5369 407.561 69.3655 406.195 Q71.1942 404.807 71.1942 402.214 Q71.1942 399.552 69.2961 398.14 Q67.4211 396.705 63.9026 396.705 Q61.9813 396.705 59.7823 397.121 Q57.5832 397.538 54.9443 398.418 L54.9443 394.251 Q57.6064 393.51 59.9212 393.14 Q62.2591 392.77 64.3193 392.77 Q69.6433 392.77 72.7452 395.2 Q75.847 397.607 75.847 401.728 Q75.847 404.598 74.2035 406.589 Q72.56 408.556 69.5276 409.32 Z" fill="#000000" fill-rule="evenodd" fill-opacity="1" /><path clip-path="url(#clip770)" d="M67.0739 72.9771 L55.2684 91.4261 L67.0739 91.4261 L67.0739 72.9771 M65.847 68.9031 L71.7266 68.9031 L71.7266 91.4261 L76.6572 91.4261 L76.6572 95.315 L71.7266 95.315 L71.7266 103.463 L67.0739 103.463 L67.0739 95.315 L51.4721 95.315 L51.4721 90.8011 L65.847 68.9031 Z" fill="#000000" fill-rule="evenodd" fill-opacity="1" /><path clip-path="url(#clip772)" d="
M229.226 735.166 L229.226 1384.15 L611.13 1384.15 L611.13 735.166 L229.226 735.166 L229.226 735.166  Z
  " fill="#009af9" fill-rule="evenodd" fill-opacity="1"/>
<polyline clip-path="url(#clip772)" style="stroke:#000000; stroke-linecap:round; stroke-linejoin:round; stroke-width:4; stroke-opacity:1; fill:none" points="
  229.226,735.166 229.226,1384.15 611.13,1384.15 611.13,735.166 229.226,735.166 
  "/>
<path clip-path="url(#clip772)" d="
M611.13 86.1831 L611.13 1384.15 L993.034 1384.15 L993.034 86.1831 L611.13 86.1831 L611.13 86.1831  Z
  " fill="#009af9" fill-rule="evenodd" fill-opacity="1"/>
<polyline clip-path="url(#clip772)" style="stroke:#000000; stroke-linecap:round; stroke-linejoin:round; stroke-width:4; stroke-opacity:1; fill:none" points="
  611.13,86.1831 611.13,1384.15 993.034,1384.15 993.034,86.1831 611.13,86.1831 
  "/>
<path clip-path="url(#clip772)" d="
M993.034 1059.66 L993.034 1384.15 L1374.94 1384.15 L1374.94 1059.66 L993.034 1059.66 L993.034 1059.66  Z
  " fill="#009af9" fill-rule="evenodd" fill-opacity="1"/>
<polyline clip-path="url(#clip772)" style="stroke:#000000; stroke-linecap:round; stroke-linejoin:round; stroke-width:4; stroke-opacity:1; fill:none" points="
  993.034,1059.66 993.034,1384.15 1374.94,1384.15 1374.94,1059.66 993.034,1059.66 
  "/>
<path clip-path="url(#clip772)" d="
M1374.94 735.166 L1374.94 1384.15 L1756.84 1384.15 L1756.84 735.166 L1374.94 735.166 L1374.94 735.166  Z
  " fill="#009af9" fill-rule="evenodd" fill-opacity="1"/>
<polyline clip-path="url(#clip772)" style="stroke:#000000; stroke-linecap:round; stroke-linejoin:round; stroke-width:4; stroke-opacity:1; fill:none" points="
  1374.94,735.166 1374.94,1384.15 1756.84,1384.15 1756.84,735.166 1374.94,735.166 
  "/>
<path clip-path="url(#clip772)" d="
M1756.84 1059.66 L1756.84 1384.15 L2138.75 1384.15 L2138.75 1059.66 L1756.84 1059.66 L1756.84 1059.66  Z
  " fill="#009af9" fill-rule="evenodd" fill-opacity="1"/>
<polyline clip-path="url(#clip772)" style="stroke:#000000; stroke-linecap:round; stroke-linejoin:round; stroke-width:4; stroke-opacity:1; fill:none" points="
  1756.84,1059.66 1756.84,1384.15 2138.75,1384.15 2138.75,1059.66 1756.84,1059.66 
  "/>
<circle clip-path="url(#clip772)" style="fill:#009af9; stroke:none; fill-opacity:0" cx="420.178" cy="735.166" r="2"/>
<circle clip-path="url(#clip772)" style="fill:#009af9; stroke:none; fill-opacity:0" cx="802.082" cy="86.1831" r="2"/>
<circle clip-path="url(#clip772)" style="fill:#009af9; stroke:none; fill-opacity:0" cx="1183.99" cy="1059.66" r="2"/>
<circle clip-path="url(#clip772)" style="fill:#009af9; stroke:none; fill-opacity:0" cx="1565.89" cy="735.166" r="2"/>
<circle clip-path="url(#clip772)" style="fill:#009af9; stroke:none; fill-opacity:0" cx="1947.8" cy="1059.66" r="2"/>
<circle clip-path="url(#clip772)" cx="411.966" cy="1319.25" r="36" fill="#e26f46" fill-rule="evenodd" fill-opacity="1" stroke="#000000" stroke-opacity="1" stroke-width="3.072"/>
<circle clip-path="url(#clip772)" cx="446.401" cy="1319.25" r="36" fill="#e26f46" fill-rule="evenodd" fill-opacity="1" stroke="#000000" stroke-opacity="1" stroke-width="3.072"/>
<circle clip-path="url(#clip772)" cx="694.388" cy="1319.25" r="36" fill="#e26f46" fill-rule="evenodd" fill-opacity="1" stroke="#000000" stroke-opacity="1" stroke-width="3.072"/>
<circle clip-path="url(#clip772)" cx="698.746" cy="1319.25" r="36" fill="#e26f46" fill-rule="evenodd" fill-opacity="1" stroke="#000000" stroke-opacity="1" stroke-width="3.072"/>
<circle clip-path="url(#clip772)" cx="777.142" cy="1319.25" r="36" fill="#e26f46" fill-rule="evenodd" fill-opacity="1" stroke="#000000" stroke-opacity="1" stroke-width="3.072"/>
<circle clip-path="url(#clip772)" cx="865.544" cy="1319.25" r="36" fill="#e26f46" fill-rule="evenodd" fill-opacity="1" stroke="#000000" stroke-opacity="1" stroke-width="3.072"/>
<circle clip-path="url(#clip772)" cx="1042.82" cy="1319.25" r="36" fill="#e26f46" fill-rule="evenodd" fill-opacity="1" stroke="#000000" stroke-opacity="1" stroke-width="3.072"/>
<circle clip-path="url(#clip772)" cx="1458.55" cy="1319.25" r="36" fill="#e26f46" fill-rule="evenodd" fill-opacity="1" stroke="#000000" stroke-opacity="1" stroke-width="3.072"/>
<circle clip-path="url(#clip772)" cx="1644.36" cy="1319.25" r="36" fill="#e26f46" fill-rule="evenodd" fill-opacity="1" stroke="#000000" stroke-opacity="1" stroke-width="3.072"/>
<circle clip-path="url(#clip772)" cx="2078.56" cy="1319.25" r="36" fill="#e26f46" fill-rule="evenodd" fill-opacity="1" stroke="#000000" stroke-opacity="1" stroke-width="3.072"/>
</svg>
