<?xml version="1.0" encoding="utf-8"?>
<svg xmlns="http://www.w3.org/2000/svg" xmlns:xlink="http://www.w3.org/1999/xlink" width="576" height="384" viewBox="0 0 2304 1536">
<defs>
  <clipPath id="clip690">
    <rect x="0" y="0" width="2304" height="1536"/>
  </clipPath>
</defs>
<path clip-path="url(#clip690)" d="
M0 1536 L2304 1536 L2304 0 L0 0  Z
  " fill="#ffffff" fill-rule="evenodd" fill-opacity="1"/>
<defs>
  <clipPath id="clip691">
    <rect x="460" y="0" width="1614" height="1536"/>
  </clipPath>
</defs>
<path clip-path="url(#clip690)" d="
M184.967 1423.09 L2256.76 1423.09 L2256.76 47.2441 L184.967 47.2441  Z
  " fill="#ffffff" fill-rule="evenodd" fill-opacity="1"/>
<defs>
  <clipPath id="clip692">
    <rect x="184" y="47" width="2073" height="1377"/>
  </clipPath>
</defs>
<polyline clip-path="url(#clip692)" style="stroke:#000000; stroke-linecap:round; stroke-linejoin:round; stroke-width:2; stroke-opacity:0.1; fill:none" points="
  478.501,1423.09 478.501,47.2441 
  "/>
<polyline clip-path="url(#clip692)" style="stroke:#000000; stroke-linecap:round; stroke-linejoin:round; stroke-width:2; stroke-opacity:0.1; fill:none" points="
  924.766,1423.09 924.766,47.2441 
  "/>
<polyline clip-path="url(#clip692)" style="stroke:#000000; stroke-linecap:round; stroke-linejoin:round; stroke-width:2; stroke-opacity:0.1; fill:none" points="
  1371.03,1423.09 1371.03,47.2441 
  "/>
<polyline clip-path="url(#clip692)" style="stroke:#000000; stroke-linecap:round; stroke-linejoin:round; stroke-width:2; stroke-opacity:0.1; fill:none" points="
  1817.3,1423.09 1817.3,47.2441 
  "/>
<polyline clip-path="url(#clip690)" style="stroke:#000000; stroke-linecap:round; stroke-linejoin:round; stroke-width:4; stroke-opacity:1; fill:none" points="
  184.967,1423.09 2256.76,1423.09 
  "/>
<polyline clip-path="url(#clip690)" style="stroke:#000000; stroke-linecap:round; stroke-linejoin:round; stroke-width:4; stroke-opacity:1; fill:none" points="
  478.501,1423.09 478.501,1404.19 
  "/>
<polyline clip-path="url(#clip690)" style="stroke:#000000; stroke-linecap:round; stroke-linejoin:round; stroke-width:4; stroke-opacity:1; fill:none" points="
  924.766,1423.09 924.766,1404.19 
  "/>
<polyline clip-path="url(#clip690)" style="stroke:#000000; stroke-linecap:round; stroke-linejoin:round; stroke-width:4; stroke-opacity:1; fill:none" points="
  1371.03,1423.09 1371.03,1404.19 
  "/>
<polyline clip-path="url(#clip690)" style="stroke:#000000; stroke-linecap:round; stroke-linejoin:round; stroke-width:4; stroke-opacity:1; fill:none" points="
  1817.3,1423.09 1817.3,1404.19 
  "/>
<path clip-path="url(#clip690)" d="M438.108 1480.78 L445.747 1480.78 L445.747 1454.42 L437.437 1456.09 L437.437 1451.83 L445.701 1450.16 L450.377 1450.16 L450.377 1480.78 L458.015 1480.78 L458.015 1484.72 L438.108 1484.72 L438.108 1480.78 Z" fill="#000000" fill-rule="evenodd" fill-opacity="1" /><path clip-path="url(#clip690)" d="M477.46 1453.24 Q473.849 1453.24 472.02 1456.8 Q470.214 1460.35 470.214 1467.47 Q470.214 1474.58 472.02 1478.15 Q473.849 1481.69 477.46 1481.69 Q481.094 1481.69 482.9 1478.15 Q484.728 1474.58 484.728 1467.47 Q484.728 1460.35 482.9 1456.8 Q481.094 1453.24 477.46 1453.24 M477.46 1449.53 Q483.27 1449.53 486.325 1454.14 Q489.404 1458.72 489.404 1467.47 Q489.404 1476.2 486.325 1480.81 Q483.27 1485.39 477.46 1485.39 Q471.65 1485.39 468.571 1480.81 Q465.515 1476.2 465.515 1467.47 Q465.515 1458.72 468.571 1454.14 Q471.65 1449.53 477.46 1449.53 Z" fill="#000000" fill-rule="evenodd" fill-opacity="1" /><path clip-path="url(#clip690)" d="M507.622 1453.24 Q504.011 1453.24 502.182 1456.8 Q500.376 1460.35 500.376 1467.47 Q500.376 1474.58 502.182 1478.15 Q504.011 1481.69 507.622 1481.69 Q511.256 1481.69 513.061 1478.15 Q514.89 1474.58 514.89 1467.47 Q514.89 1460.35 513.061 1456.8 Q511.256 1453.24 507.622 1453.24 M507.622 1449.53 Q513.432 1449.53 516.487 1454.14 Q519.566 1458.72 519.566 1467.47 Q519.566 1476.2 516.487 1480.81 Q513.432 1485.39 507.622 1485.39 Q501.811 1485.39 498.733 1480.81 Q495.677 1476.2 495.677 1467.47 Q495.677 1458.72 498.733 1454.14 Q501.811 1449.53 507.622 1449.53 Z" fill="#000000" fill-rule="evenodd" fill-opacity="1" /><path clip-path="url(#clip690)" d="M884.373 1480.78 L892.012 1480.78 L892.012 1454.42 L883.702 1456.09 L883.702 1451.83 L891.966 1450.16 L896.642 1450.16 L896.642 1480.78 L904.28 1480.78 L904.28 1484.72 L884.373 1484.72 L884.373 1480.78 Z" fill="#000000" fill-rule="evenodd" fill-opacity="1" /><path clip-path="url(#clip690)" d="M913.771 1450.16 L932.128 1450.16 L932.128 1454.1 L918.054 1454.1 L918.054 1462.57 Q919.072 1462.22 920.091 1462.06 Q921.109 1461.87 922.128 1461.87 Q927.915 1461.87 931.294 1465.04 Q934.674 1468.22 934.674 1473.63 Q934.674 1479.21 931.202 1482.31 Q927.729 1485.39 921.41 1485.39 Q919.234 1485.39 916.966 1485.02 Q914.72 1484.65 912.313 1483.91 L912.313 1479.21 Q914.396 1480.34 916.618 1480.9 Q918.841 1481.46 921.317 1481.46 Q925.322 1481.46 927.66 1479.35 Q929.998 1477.24 929.998 1473.63 Q929.998 1470.02 927.66 1467.91 Q925.322 1465.81 921.317 1465.81 Q919.442 1465.81 917.567 1466.22 Q915.716 1466.64 913.771 1467.52 L913.771 1450.16 Z" fill="#000000" fill-rule="evenodd" fill-opacity="1" /><path clip-path="url(#clip690)" d="M953.887 1453.24 Q950.276 1453.24 948.447 1456.8 Q946.641 1460.35 946.641 1467.47 Q946.641 1474.58 948.447 1478.15 Q950.276 1481.69 953.887 1481.69 Q957.521 1481.69 959.326 1478.15 Q961.155 1474.58 961.155 1467.47 Q961.155 1460.35 959.326 1456.8 Q957.521 1453.24 953.887 1453.24 M953.887 1449.53 Q959.697 1449.53 962.752 1454.14 Q965.831 1458.72 965.831 1467.47 Q965.831 1476.2 962.752 1480.81 Q959.697 1485.39 953.887 1485.39 Q948.077 1485.39 944.998 1480.81 Q941.942 1476.2 941.942 1467.47 Q941.942 1458.72 944.998 1454.14 Q948.077 1449.53 953.887 1449.53 Z" fill="#000000" fill-rule="evenodd" fill-opacity="1" /><path clip-path="url(#clip690)" d="M1334.72 1480.78 L1351.04 1480.78 L1351.04 1484.72 L1329.1 1484.72 L1329.1 1480.78 Q1331.76 1478.03 1336.34 1473.4 Q1340.95 1468.75 1342.13 1467.41 Q1344.38 1464.88 1345.26 1463.15 Q1346.16 1461.39 1346.16 1459.7 Q1346.16 1456.94 1344.21 1455.21 Q1342.29 1453.47 1339.19 1453.47 Q1336.99 1453.47 1334.54 1454.23 Q1332.11 1455 1329.33 1456.55 L1329.33 1451.83 Q1332.15 1450.69 1334.61 1450.11 Q1337.06 1449.53 1339.1 1449.53 Q1344.47 1449.53 1347.66 1452.22 Q1350.86 1454.91 1350.86 1459.4 Q1350.86 1461.53 1350.05 1463.45 Q1349.26 1465.34 1347.15 1467.94 Q1346.58 1468.61 1343.47 1471.83 Q1340.37 1475.02 1334.72 1480.78 Z" fill="#000000" fill-rule="evenodd" fill-opacity="1" /><path clip-path="url(#clip690)" d="M1370.86 1453.24 Q1367.25 1453.24 1365.42 1456.8 Q1363.61 1460.35 1363.61 1467.47 Q1363.61 1474.58 1365.42 1478.15 Q1367.25 1481.69 1370.86 1481.69 Q1374.49 1481.69 1376.3 1478.15 Q1378.13 1474.58 1378.13 1467.47 Q1378.13 1460.35 1376.3 1456.8 Q1374.49 1453.24 1370.86 1453.24 M1370.86 1449.53 Q1376.67 1449.53 1379.72 1454.14 Q1382.8 1458.72 1382.8 1467.47 Q1382.8 1476.2 1379.72 1480.81 Q1376.67 1485.39 1370.86 1485.39 Q1365.05 1485.39 1361.97 1480.81 Q1358.91 1476.2 1358.91 1467.47 Q1358.91 1458.72 1361.97 1454.14 Q1365.05 1449.53 1370.86 1449.53 Z" fill="#000000" fill-rule="evenodd" fill-opacity="1" /><path clip-path="url(#clip690)" d="M1401.02 1453.24 Q1397.41 1453.24 1395.58 1456.8 Q1393.77 1460.35 1393.77 1467.47 Q1393.77 1474.58 1395.58 1478.15 Q1397.41 1481.69 1401.02 1481.69 Q1404.65 1481.69 1406.46 1478.15 Q1408.29 1474.58 1408.29 1467.47 Q1408.29 1460.35 1406.46 1456.8 Q1404.65 1453.24 1401.02 1453.24 M1401.02 1449.53 Q1406.83 1449.53 1409.89 1454.14 Q1412.96 1458.72 1412.96 1467.47 Q1412.96 1476.2 1409.89 1480.81 Q1406.83 1485.39 1401.02 1485.39 Q1395.21 1485.39 1392.13 1480.81 Q1389.08 1476.2 1389.08 1467.47 Q1389.08 1458.72 1392.13 1454.14 Q1395.21 1449.53 1401.02 1449.53 Z" fill="#000000" fill-rule="evenodd" fill-opacity="1" /><path clip-path="url(#clip690)" d="M1780.99 1480.78 L1797.31 1480.78 L1797.31 1484.72 L1775.36 1484.72 L1775.36 1480.78 Q1778.03 1478.03 1782.61 1473.4 Q1787.22 1468.75 1788.4 1467.41 Q1790.64 1464.88 1791.52 1463.15 Q1792.42 1461.39 1792.42 1459.7 Q1792.42 1456.94 1790.48 1455.21 Q1788.56 1453.47 1785.46 1453.47 Q1783.26 1453.47 1780.8 1454.23 Q1778.37 1455 1775.6 1456.55 L1775.6 1451.83 Q1778.42 1450.69 1780.87 1450.11 Q1783.33 1449.53 1785.36 1449.53 Q1790.73 1449.53 1793.93 1452.22 Q1797.12 1454.91 1797.12 1459.4 Q1797.12 1461.53 1796.31 1463.45 Q1795.53 1465.34 1793.42 1467.94 Q1792.84 1468.61 1789.74 1471.83 Q1786.64 1475.02 1780.99 1480.78 Z" fill="#000000" fill-rule="evenodd" fill-opacity="1" /><path clip-path="url(#clip690)" d="M1807.17 1450.16 L1825.53 1450.16 L1825.53 1454.1 L1811.45 1454.1 L1811.45 1462.57 Q1812.47 1462.22 1813.49 1462.06 Q1814.51 1461.87 1815.53 1461.87 Q1821.31 1461.87 1824.69 1465.04 Q1828.07 1468.22 1828.07 1473.63 Q1828.07 1479.21 1824.6 1482.31 Q1821.13 1485.39 1814.81 1485.39 Q1812.63 1485.39 1810.36 1485.02 Q1808.12 1484.65 1805.71 1483.91 L1805.71 1479.21 Q1807.79 1480.34 1810.02 1480.9 Q1812.24 1481.46 1814.72 1481.46 Q1818.72 1481.46 1821.06 1479.35 Q1823.4 1477.24 1823.4 1473.63 Q1823.4 1470.02 1821.06 1467.91 Q1818.72 1465.81 1814.72 1465.81 Q1812.84 1465.81 1810.97 1466.22 Q1809.11 1466.64 1807.17 1467.52 L1807.17 1450.16 Z" fill="#000000" fill-rule="evenodd" fill-opacity="1" /><path clip-path="url(#clip690)" d="M1847.28 1453.24 Q1843.67 1453.24 1841.84 1456.8 Q1840.04 1460.35 1840.04 1467.47 Q1840.04 1474.58 1841.84 1478.15 Q1843.67 1481.69 1847.28 1481.69 Q1850.92 1481.69 1852.72 1478.15 Q1854.55 1474.58 1854.55 1467.47 Q1854.55 1460.35 1852.72 1456.8 Q1850.92 1453.24 1847.28 1453.24 M1847.28 1449.53 Q1853.09 1449.53 1856.15 1454.14 Q1859.23 1458.72 1859.23 1467.47 Q1859.23 1476.2 1856.15 1480.81 Q1853.09 1485.39 1847.28 1485.39 Q1841.47 1485.39 1838.4 1480.81 Q1835.34 1476.2 1835.34 1467.47 Q1835.34 1458.72 1838.4 1454.14 Q1841.47 1449.53 1847.28 1449.53 Z" fill="#000000" fill-rule="evenodd" fill-opacity="1" /><polyline clip-path="url(#clip692)" style="stroke:#000000; stroke-linecap:round; stroke-linejoin:round; stroke-width:2; stroke-opacity:0.1; fill:none" points="
  184.967,1384.15 2256.76,1384.15 
  "/>
<polyline clip-path="url(#clip692)" style="stroke:#000000; stroke-linecap:round; stroke-linejoin:round; stroke-width:2; stroke-opacity:0.1; fill:none" points="
  184.967,1059.66 2256.76,1059.66 
  "/>
<polyline clip-path="url(#clip692)" style="stroke:#000000; stroke-linecap:round; stroke-linejoin:round; stroke-width:2; stroke-opacity:0.1; fill:none" points="
  184.967,735.166 2256.76,735.166 
  "/>
<polyline clip-path="url(#clip692)" style="stroke:#000000; stroke-linecap:round; stroke-linejoin:round; stroke-width:2; stroke-opacity:0.1; fill:none" points="
  184.967,410.675 2256.76,410.675 
  "/>
<polyline clip-path="url(#clip692)" style="stroke:#000000; stroke-linecap:round; stroke-linejoin:round; stroke-width:2; stroke-opacity:0.1; fill:none" points="
  184.967,86.1831 2256.76,86.1831 
  "/>
<polyline clip-path="url(#clip690)" style="stroke:#000000; stroke-linecap:round; stroke-linejoin:round; stroke-width:4; stroke-opacity:1; fill:none" points="
  184.967,1423.09 184.967,47.2441 
  "/>
<polyline clip-path="url(#clip690)" style="stroke:#000000; stroke-linecap:round; stroke-linejoin:round; stroke-width:4; stroke-opacity:1; fill:none" points="
  184.967,1384.15 203.864,1384.15 
  "/>
<polyline clip-path="url(#clip690)" style="stroke:#000000; stroke-linecap:round; stroke-linejoin:round; stroke-width:4; stroke-opacity:1; fill:none" points="
  184.967,1059.66 203.864,1059.66 
  "/>
<polyline clip-path="url(#clip690)" style="stroke:#000000; stroke-linecap:round; stroke-linejoin:round; stroke-width:4; stroke-opacity:1; fill:none" points="
  184.967,735.166 203.864,735.166 
  "/>
<polyline clip-path="url(#clip690)" style="stroke:#000000; stroke-linecap:round; stroke-linejoin:round; stroke-width:4; stroke-opacity:1; fill:none" points="
  184.967,410.675 203.864,410.675 
  "/>
<polyline clip-path="url(#clip690)" style="stroke:#000000; stroke-linecap:round; stroke-linejoin:round; stroke-width:4; stroke-opacity:1; fill:none" points="
  184.967,86.1831 203.864,86.1831 
  "/>
<path clip-path="url(#clip690)" d="M53.8795 1397.49 L61.5184 1397.49 L61.5184 1371.13 L53.2082 1372.79 L53.2082 1368.54 L61.4721 1366.87 L66.148 1366.87 L66.148 1397.49 L73.7868 1397.49 L73.7868 1401.43 L53.8795 1401.43 L53.8795 1397.49 Z" fill="#000000" fill-rule="evenodd" fill-opacity="1" /><path clip-path="url(#clip690)" d="M83.2312 1395.55 L88.1154 1395.55 L88.1154 1401.43 L83.2312 1401.43 L83.2312 1395.55 Z" fill="#000000" fill-rule="evenodd" fill-opacity="1" /><path clip-path="url(#clip690)" d="M108.301 1369.95 Q104.689 1369.95 102.861 1373.51 Q101.055 1377.05 101.055 1384.18 Q101.055 1391.29 102.861 1394.85 Q104.689 1398.4 108.301 1398.4 Q111.935 1398.4 113.74 1394.85 Q115.569 1391.29 115.569 1384.18 Q115.569 1377.05 113.74 1373.51 Q111.935 1369.95 108.301 1369.95 M108.301 1366.24 Q114.111 1366.24 117.166 1370.85 Q120.245 1375.43 120.245 1384.18 Q120.245 1392.91 117.166 1397.52 Q114.111 1402.1 108.301 1402.1 Q102.49 1402.1 99.4117 1397.52 Q96.3561 1392.91 96.3561 1384.18 Q96.3561 1375.43 99.4117 1370.85 Q102.49 1366.24 108.301 1366.24 Z" fill="#000000" fill-rule="evenodd" fill-opacity="1" /><path clip-path="url(#clip690)" d="M138.462 1369.95 Q134.851 1369.95 133.023 1373.51 Q131.217 1377.05 131.217 1384.18 Q131.217 1391.29 133.023 1394.85 Q134.851 1398.4 138.462 1398.4 Q142.097 1398.4 143.902 1394.85 Q145.731 1391.29 145.731 1384.18 Q145.731 1377.05 143.902 1373.51 Q142.097 1369.95 138.462 1369.95 M138.462 1366.24 Q144.273 1366.24 147.328 1370.85 Q150.407 1375.43 150.407 1384.18 Q150.407 1392.91 147.328 1397.52 Q144.273 1402.1 138.462 1402.1 Q132.652 1402.1 129.574 1397.52 Q126.518 1392.91 126.518 1384.18 Q126.518 1375.43 129.574 1370.85 Q132.652 1366.24 138.462 1366.24 Z" fill="#000000" fill-rule="evenodd" fill-opacity="1" /><path clip-path="url(#clip690)" d="M54.8749 1073 L62.5137 1073 L62.5137 1046.64 L54.2036 1048.3 L54.2036 1044.04 L62.4674 1042.38 L67.1433 1042.38 L67.1433 1073 L74.7822 1073 L74.7822 1076.94 L54.8749 1076.94 L54.8749 1073 Z" fill="#000000" fill-rule="evenodd" fill-opacity="1" /><path clip-path="url(#clip690)" d="M84.2266 1071.06 L89.1108 1071.06 L89.1108 1076.94 L84.2266 1076.94 L84.2266 1071.06 Z" fill="#000000" fill-rule="evenodd" fill-opacity="1" /><path clip-path="url(#clip690)" d="M103.324 1073 L119.643 1073 L119.643 1076.94 L97.6987 1076.94 L97.6987 1073 Q100.361 1070.25 104.944 1065.62 Q109.551 1060.97 110.731 1059.62 Q112.976 1057.1 113.856 1055.36 Q114.759 1053.6 114.759 1051.91 Q114.759 1049.16 112.814 1047.42 Q110.893 1045.69 107.791 1045.69 Q105.592 1045.69 103.139 1046.45 Q100.708 1047.22 97.9302 1048.77 L97.9302 1044.04 Q100.754 1042.91 103.208 1042.33 Q105.662 1041.75 107.699 1041.75 Q113.069 1041.75 116.263 1044.44 Q119.458 1047.12 119.458 1051.61 Q119.458 1053.74 118.648 1055.66 Q117.861 1057.56 115.754 1060.16 Q115.175 1060.83 112.074 1064.04 Q108.972 1067.24 103.324 1073 Z" fill="#000000" fill-rule="evenodd" fill-opacity="1" /><path clip-path="url(#clip690)" d="M129.504 1042.38 L147.86 1042.38 L147.86 1046.31 L133.786 1046.31 L133.786 1054.78 Q134.805 1054.44 135.824 1054.28 Q136.842 1054.09 137.861 1054.09 Q143.648 1054.09 147.027 1057.26 Q150.407 1060.43 150.407 1065.85 Q150.407 1071.43 146.935 1074.53 Q143.462 1077.61 137.143 1077.61 Q134.967 1077.61 132.699 1077.24 Q130.453 1076.87 128.046 1076.13 L128.046 1071.43 Q130.129 1072.56 132.351 1073.12 Q134.574 1073.67 137.05 1073.67 Q141.055 1073.67 143.393 1071.57 Q145.731 1069.46 145.731 1065.85 Q145.731 1062.24 143.393 1060.13 Q141.055 1058.03 137.05 1058.03 Q135.175 1058.03 133.3 1058.44 Q131.449 1058.86 129.504 1059.74 L129.504 1042.38 Z" fill="#000000" fill-rule="evenodd" fill-opacity="1" /><path clip-path="url(#clip690)" d="M53.8795 748.511 L61.5184 748.511 L61.5184 722.145 L53.2082 723.812 L53.2082 719.553 L61.4721 717.886 L66.148 717.886 L66.148 748.511 L73.7868 748.511 L73.7868 752.446 L53.8795 752.446 L53.8795 748.511 Z" fill="#000000" fill-rule="evenodd" fill-opacity="1" /><path clip-path="url(#clip690)" d="M83.2312 746.566 L88.1154 746.566 L88.1154 752.446 L83.2312 752.446 L83.2312 746.566 Z" fill="#000000" fill-rule="evenodd" fill-opacity="1" /><path clip-path="url(#clip690)" d="M98.3469 717.886 L116.703 717.886 L116.703 721.821 L102.629 721.821 L102.629 730.293 Q103.648 729.946 104.666 729.784 Q105.685 729.599 106.703 729.599 Q112.49 729.599 115.87 732.77 Q119.25 735.941 119.25 741.358 Q119.25 746.937 115.777 750.039 Q112.305 753.117 105.986 753.117 Q103.81 753.117 101.541 752.747 Q99.2959 752.377 96.8885 751.636 L96.8885 746.937 Q98.9719 748.071 101.194 748.627 Q103.416 749.182 105.893 749.182 Q109.898 749.182 112.236 747.076 Q114.574 744.969 114.574 741.358 Q114.574 737.747 112.236 735.641 Q109.898 733.534 105.893 733.534 Q104.018 733.534 102.143 733.951 Q100.291 734.367 98.3469 735.247 L98.3469 717.886 Z" fill="#000000" fill-rule="evenodd" fill-opacity="1" /><path clip-path="url(#clip690)" d="M138.462 720.965 Q134.851 720.965 133.023 724.529 Q131.217 728.071 131.217 735.201 Q131.217 742.307 133.023 745.872 Q134.851 749.414 138.462 749.414 Q142.097 749.414 143.902 745.872 Q145.731 742.307 145.731 735.201 Q145.731 728.071 143.902 724.529 Q142.097 720.965 138.462 720.965 M138.462 717.261 Q144.273 717.261 147.328 721.867 Q150.407 726.451 150.407 735.201 Q150.407 743.928 147.328 748.534 Q144.273 753.117 138.462 753.117 Q132.652 753.117 129.574 748.534 Q126.518 743.928 126.518 735.201 Q126.518 726.451 129.574 721.867 Q132.652 717.261 138.462 717.261 Z" fill="#000000" fill-rule="evenodd" fill-opacity="1" /><path clip-path="url(#clip690)" d="M54.8749 424.019 L62.5137 424.019 L62.5137 397.654 L54.2036 399.32 L54.2036 395.061 L62.4674 393.395 L67.1433 393.395 L67.1433 424.019 L74.7822 424.019 L74.7822 427.955 L54.8749 427.955 L54.8749 424.019 Z" fill="#000000" fill-rule="evenodd" fill-opacity="1" /><path clip-path="url(#clip690)" d="M84.2266 422.075 L89.1108 422.075 L89.1108 427.955 L84.2266 427.955 L84.2266 422.075 Z" fill="#000000" fill-rule="evenodd" fill-opacity="1" /><path clip-path="url(#clip690)" d="M98.1154 393.395 L120.337 393.395 L120.337 395.385 L107.791 427.955 L102.907 427.955 L114.713 397.33 L98.1154 397.33 L98.1154 393.395 Z" fill="#000000" fill-rule="evenodd" fill-opacity="1" /><path clip-path="url(#clip690)" d="M129.504 393.395 L147.86 393.395 L147.86 397.33 L133.786 397.33 L133.786 405.802 Q134.805 405.455 135.824 405.293 Q136.842 405.107 137.861 405.107 Q143.648 405.107 147.027 408.279 Q150.407 411.45 150.407 416.867 Q150.407 422.445 146.935 425.547 Q143.462 428.626 137.143 428.626 Q134.967 428.626 132.699 428.255 Q130.453 427.885 128.046 427.144 L128.046 422.445 Q130.129 423.58 132.351 424.135 Q134.574 424.691 137.05 424.691 Q141.055 424.691 143.393 422.584 Q145.731 420.478 145.731 416.867 Q145.731 413.256 143.393 411.149 Q141.055 409.043 137.05 409.043 Q135.175 409.043 133.3 409.459 Q131.449 409.876 129.504 410.756 L129.504 393.395 Z" fill="#000000" fill-rule="evenodd" fill-opacity="1" /><path clip-path="url(#clip690)" d="M57.0971 99.5279 L73.4165 99.5279 L73.4165 103.463 L51.4721 103.463 L51.4721 99.5279 Q54.1341 96.7733 58.7175 92.1437 Q63.3239 87.4909 64.5045 86.1483 Q66.7498 83.6252 67.6294 81.8891 Q68.5322 80.1299 68.5322 78.4401 Q68.5322 75.6854 66.5878 73.9493 Q64.6665 72.2132 61.5647 72.2132 Q59.3656 72.2132 56.9119 72.9771 Q54.4814 73.741 51.7036 75.2919 L51.7036 70.5697 Q54.5277 69.4355 56.9814 68.8568 Q59.435 68.2781 61.4721 68.2781 Q66.8424 68.2781 70.0368 70.9632 Q73.2313 73.6484 73.2313 78.1391 Q73.2313 80.2687 72.4211 82.19 Q71.6341 84.0882 69.5276 86.6808 Q68.9489 87.352 65.847 90.5696 Q62.7452 93.764 57.0971 99.5279 Z" fill="#000000" fill-rule="evenodd" fill-opacity="1" /><path clip-path="url(#clip690)" d="M83.2312 97.5835 L88.1154 97.5835 L88.1154 103.463 L83.2312 103.463 L83.2312 97.5835 Z" fill="#000000" fill-rule="evenodd" fill-opacity="1" /><path clip-path="url(#clip690)" d="M108.301 71.9818 Q104.689 71.9818 102.861 75.5466 Q101.055 79.0882 101.055 86.2178 Q101.055 93.3242 102.861 96.889 Q104.689 100.431 108.301 100.431 Q111.935 100.431 113.74 96.889 Q115.569 93.3242 115.569 86.2178 Q115.569 79.0882 113.74 75.5466 Q111.935 71.9818 108.301 71.9818 M108.301 68.2781 Q114.111 68.2781 117.166 72.8845 Q120.245 77.4678 120.245 86.2178 Q120.245 94.9446 117.166 99.5511 Q114.111 104.134 108.301 104.134 Q102.49 104.134 99.4117 99.5511 Q96.3561 94.9446 96.3561 86.2178 Q96.3561 77.4678 99.4117 72.8845 Q102.49 68.2781 108.301 68.2781 Z" fill="#000000" fill-rule="evenodd" fill-opacity="1" /><path clip-path="url(#clip690)" d="M138.462 71.9818 Q134.851 71.9818 133.023 75.5466 Q131.217 79.0882 131.217 86.2178 Q131.217 93.3242 133.023 96.889 Q134.851 100.431 138.462 100.431 Q142.097 100.431 143.902 96.889 Q145.731 93.3242 145.731 86.2178 Q145.731 79.0882 143.902 75.5466 Q142.097 71.9818 138.462 71.9818 M138.462 68.2781 Q144.273 68.2781 147.328 72.8845 Q150.407 77.4678 150.407 86.2178 Q150.407 94.9446 147.328 99.5511 Q144.273 104.134 138.462 104.134 Q132.652 104.134 129.574 99.5511 Q126.518 94.9446 126.518 86.2178 Q126.518 77.4678 129.574 72.8845 Q132.652 68.2781 138.462 68.2781 Z" fill="#000000" fill-rule="evenodd" fill-opacity="1" /><circle clip-path="url(#clip692)" cx="243.602" cy="1384.15" r="14.4" fill="#009af9" fill-rule="evenodd" fill-opacity="1" stroke="#000000" stroke-opacity="1" stroke-width="3.072"/>
<circle clip-path="url(#clip692)" cx="287.994" cy="1384.15" r="14.4" fill="#009af9" fill-rule="evenodd" fill-opacity="1" stroke="#000000" stroke-opacity="1" stroke-width="3.072"/>
<circle clip-path="url(#clip692)" cx="575.255" cy="1384.15" r="14.4" fill="#009af9" fill-rule="evenodd" fill-opacity="1" stroke="#000000" stroke-opacity="1" stroke-width="3.072"/>
<circle clip-path="url(#clip692)" cx="578.591" cy="1384.15" r="14.4" fill="#009af9" fill-rule="evenodd" fill-opacity="1" stroke="#000000" stroke-opacity="1" stroke-width="3.072"/>
<circle clip-path="url(#clip692)" cx="670.075" cy="1384.15" r="14.4" fill="#009af9" fill-rule="evenodd" fill-opacity="1" stroke="#000000" stroke-opacity="1" stroke-width="3.072"/>
<circle clip-path="url(#clip692)" cx="777.509" cy="1384.15" r="14.4" fill="#009af9" fill-rule="evenodd" fill-opacity="1" stroke="#000000" stroke-opacity="1" stroke-width="3.072"/>
<circle clip-path="url(#clip692)" cx="980.862" cy="1384.15" r="14.4" fill="#009af9" fill-rule="evenodd" fill-opacity="1" stroke="#000000" stroke-opacity="1" stroke-width="3.072"/>
<circle clip-path="url(#clip692)" cx="1474.51" cy="1384.15" r="14.4" fill="#009af9" fill-rule="evenodd" fill-opacity="1" stroke="#000000" stroke-opacity="1" stroke-width="3.072"/>
<circle clip-path="url(#clip692)" cx="1675" cy="1384.15" r="14.4" fill="#009af9" fill-rule="evenodd" fill-opacity="1" stroke="#000000" stroke-opacity="1" stroke-width="3.072"/>
<circle clip-path="url(#clip692)" cx="2198.12" cy="1384.15" r="14.4" fill="#009af9" fill-rule="evenodd" fill-opacity="1" stroke="#000000" stroke-opacity="1" stroke-width="3.072"/>
</svg>
