<?xml version="1.0" encoding="utf-8"?>
<svg xmlns="http://www.w3.org/2000/svg" xmlns:xlink="http://www.w3.org/1999/xlink" width="576" height="384" viewBox="0 0 2304 1536">
<defs>
  <clipPath id="clip480">
    <rect x="0" y="0" width="2304" height="1536"/>
  </clipPath>
</defs>
<path clip-path="url(#clip480)" d="
M0 1536 L2304 1536 L2304 0 L0 0  Z
  " fill="#ffffff" fill-rule="evenodd" fill-opacity="1"/>
<defs>
  <clipPath id="clip481">
    <rect x="460" y="0" width="1614" height="1536"/>
  </clipPath>
</defs>
<path clip-path="url(#clip480)" d="
M184.967 1423.09 L2256.76 1423.09 L2256.76 47.2441 L184.967 47.2441  Z
  " fill="#ffffff" fill-rule="evenodd" fill-opacity="1"/>
<defs>
  <clipPath id="clip482">
    <rect x="184" y="47" width="2073" height="1377"/>
  </clipPath>
</defs>
<polyline clip-path="url(#clip482)" style="stroke:#000000; stroke-linecap:round; stroke-linejoin:round; stroke-width:2; stroke-opacity:0.1; fill:none" points="
  480.956,1423.09 480.956,47.2441 
  "/>
<polyline clip-path="url(#clip482)" style="stroke:#000000; stroke-linecap:round; stroke-linejoin:round; stroke-width:2; stroke-opacity:0.1; fill:none" points="
  928.318,1423.09 928.318,47.2441 
  "/>
<polyline clip-path="url(#clip482)" style="stroke:#000000; stroke-linecap:round; stroke-linejoin:round; stroke-width:2; stroke-opacity:0.1; fill:none" points="
  1375.68,1423.09 1375.68,47.2441 
  "/>
<polyline clip-path="url(#clip482)" style="stroke:#000000; stroke-linecap:round; stroke-linejoin:round; stroke-width:2; stroke-opacity:0.1; fill:none" points="
  1823.04,1423.09 1823.04,47.2441 
  "/>
<polyline clip-path="url(#clip480)" style="stroke:#000000; stroke-linecap:round; stroke-linejoin:round; stroke-width:4; stroke-opacity:1; fill:none" points="
  184.967,1423.09 2256.76,1423.09 
  "/>
<polyline clip-path="url(#clip480)" style="stroke:#000000; stroke-linecap:round; stroke-linejoin:round; stroke-width:4; stroke-opacity:1; fill:none" points="
  480.956,1423.09 480.956,1404.19 
  "/>
<polyline clip-path="url(#clip480)" style="stroke:#000000; stroke-linecap:round; stroke-linejoin:round; stroke-width:4; stroke-opacity:1; fill:none" points="
  928.318,1423.09 928.318,1404.19 
  "/>
<polyline clip-path="url(#clip480)" style="stroke:#000000; stroke-linecap:round; stroke-linejoin:round; stroke-width:4; stroke-opacity:1; fill:none" points="
  1375.68,1423.09 1375.68,1404.19 
  "/>
<polyline clip-path="url(#clip480)" style="stroke:#000000; stroke-linecap:round; stroke-linejoin:round; stroke-width:4; stroke-opacity:1; fill:none" points="
  1823.04,1423.09 1823.04,1404.19 
  "/>
<path clip-path="url(#clip480)" d="M440.563 1480.78 L448.202 1480.78 L448.202 1454.42 L439.892 1456.09 L439.892 1451.83 L448.156 1450.16 L452.831 1450.16 L452.831 1480.78 L460.47 1480.78 L460.47 1484.72 L440.563 1484.72 L440.563 1480.78 Z" fill="#000000" fill-rule="evenodd" fill-opacity="1" /><path clip-path="url(#clip480)" d="M479.915 1453.24 Q476.304 1453.24 474.475 1456.8 Q472.669 1460.35 472.669 1467.47 Q472.669 1474.58 474.475 1478.15 Q476.304 1481.69 479.915 1481.69 Q483.549 1481.69 485.354 1478.15 Q487.183 1474.58 487.183 1467.47 Q487.183 1460.35 485.354 1456.8 Q483.549 1453.24 479.915 1453.24 M479.915 1449.53 Q485.725 1449.53 488.78 1454.14 Q491.859 1458.72 491.859 1467.47 Q491.859 1476.2 488.78 1480.81 Q485.725 1485.39 479.915 1485.39 Q474.104 1485.39 471.026 1480.81 Q467.97 1476.2 467.97 1467.47 Q467.97 1458.72 471.026 1454.14 Q474.104 1449.53 479.915 1449.53 Z" fill="#000000" fill-rule="evenodd" fill-opacity="1" /><path clip-path="url(#clip480)" d="M510.077 1453.24 Q506.465 1453.24 504.637 1456.8 Q502.831 1460.35 502.831 1467.47 Q502.831 1474.58 504.637 1478.15 Q506.465 1481.69 510.077 1481.69 Q513.711 1481.69 515.516 1478.15 Q517.345 1474.58 517.345 1467.47 Q517.345 1460.35 515.516 1456.8 Q513.711 1453.24 510.077 1453.24 M510.077 1449.53 Q515.887 1449.53 518.942 1454.14 Q522.021 1458.72 522.021 1467.47 Q522.021 1476.2 518.942 1480.81 Q515.887 1485.39 510.077 1485.39 Q504.266 1485.39 501.188 1480.81 Q498.132 1476.2 498.132 1467.47 Q498.132 1458.72 501.188 1454.14 Q504.266 1449.53 510.077 1449.53 Z" fill="#000000" fill-rule="evenodd" fill-opacity="1" /><path clip-path="url(#clip480)" d="M887.925 1480.78 L895.563 1480.78 L895.563 1454.42 L887.253 1456.09 L887.253 1451.83 L895.517 1450.16 L900.193 1450.16 L900.193 1480.78 L907.832 1480.78 L907.832 1484.72 L887.925 1484.72 L887.925 1480.78 Z" fill="#000000" fill-rule="evenodd" fill-opacity="1" /><path clip-path="url(#clip480)" d="M917.323 1450.16 L935.679 1450.16 L935.679 1454.1 L921.605 1454.1 L921.605 1462.57 Q922.623 1462.22 923.642 1462.06 Q924.661 1461.87 925.679 1461.87 Q931.466 1461.87 934.846 1465.04 Q938.225 1468.22 938.225 1473.63 Q938.225 1479.21 934.753 1482.31 Q931.281 1485.39 924.961 1485.39 Q922.786 1485.39 920.517 1485.02 Q918.272 1484.65 915.864 1483.91 L915.864 1479.21 Q917.948 1480.34 920.17 1480.9 Q922.392 1481.46 924.869 1481.46 Q928.873 1481.46 931.211 1479.35 Q933.549 1477.24 933.549 1473.63 Q933.549 1470.02 931.211 1467.91 Q928.873 1465.81 924.869 1465.81 Q922.994 1465.81 921.119 1466.22 Q919.267 1466.64 917.323 1467.52 L917.323 1450.16 Z" fill="#000000" fill-rule="evenodd" fill-opacity="1" /><path clip-path="url(#clip480)" d="M957.438 1453.24 Q953.827 1453.24 951.998 1456.8 Q950.193 1460.35 950.193 1467.47 Q950.193 1474.58 951.998 1478.15 Q953.827 1481.69 957.438 1481.69 Q961.072 1481.69 962.878 1478.15 Q964.707 1474.58 964.707 1467.47 Q964.707 1460.35 962.878 1456.8 Q961.072 1453.24 957.438 1453.24 M957.438 1449.53 Q963.248 1449.53 966.304 1454.14 Q969.382 1458.72 969.382 1467.47 Q969.382 1476.2 966.304 1480.81 Q963.248 1485.39 957.438 1485.39 Q951.628 1485.39 948.549 1480.81 Q945.494 1476.2 945.494 1467.47 Q945.494 1458.72 948.549 1454.14 Q951.628 1449.53 957.438 1449.53 Z" fill="#000000" fill-rule="evenodd" fill-opacity="1" /><path clip-path="url(#clip480)" d="M1339.37 1480.78 L1355.69 1480.78 L1355.69 1484.72 L1333.75 1484.72 L1333.75 1480.78 Q1336.41 1478.03 1340.99 1473.4 Q1345.6 1468.75 1346.78 1467.41 Q1349.02 1464.88 1349.9 1463.15 Q1350.81 1461.39 1350.81 1459.7 Q1350.81 1456.94 1348.86 1455.21 Q1346.94 1453.47 1343.84 1453.47 Q1341.64 1453.47 1339.19 1454.23 Q1336.76 1455 1333.98 1456.55 L1333.98 1451.83 Q1336.8 1450.69 1339.26 1450.11 Q1341.71 1449.53 1343.75 1449.53 Q1349.12 1449.53 1352.31 1452.22 Q1355.51 1454.91 1355.51 1459.4 Q1355.51 1461.53 1354.7 1463.45 Q1353.91 1465.34 1351.8 1467.94 Q1351.22 1468.61 1348.12 1471.83 Q1345.02 1475.02 1339.37 1480.78 Z" fill="#000000" fill-rule="evenodd" fill-opacity="1" /><path clip-path="url(#clip480)" d="M1375.51 1453.24 Q1371.89 1453.24 1370.07 1456.8 Q1368.26 1460.35 1368.26 1467.47 Q1368.26 1474.58 1370.07 1478.15 Q1371.89 1481.69 1375.51 1481.69 Q1379.14 1481.69 1380.95 1478.15 Q1382.77 1474.58 1382.77 1467.47 Q1382.77 1460.35 1380.95 1456.8 Q1379.14 1453.24 1375.51 1453.24 M1375.51 1449.53 Q1381.32 1449.53 1384.37 1454.14 Q1387.45 1458.72 1387.45 1467.47 Q1387.45 1476.2 1384.37 1480.81 Q1381.32 1485.39 1375.51 1485.39 Q1369.7 1485.39 1366.62 1480.81 Q1363.56 1476.2 1363.56 1467.47 Q1363.56 1458.72 1366.62 1454.14 Q1369.7 1449.53 1375.51 1449.53 Z" fill="#000000" fill-rule="evenodd" fill-opacity="1" /><path clip-path="url(#clip480)" d="M1405.67 1453.24 Q1402.06 1453.24 1400.23 1456.8 Q1398.42 1460.35 1398.42 1467.47 Q1398.42 1474.58 1400.23 1478.15 Q1402.06 1481.69 1405.67 1481.69 Q1409.3 1481.69 1411.11 1478.15 Q1412.94 1474.58 1412.94 1467.47 Q1412.94 1460.35 1411.11 1456.8 Q1409.3 1453.24 1405.67 1453.24 M1405.67 1449.53 Q1411.48 1449.53 1414.53 1454.14 Q1417.61 1458.72 1417.61 1467.47 Q1417.61 1476.2 1414.53 1480.81 Q1411.48 1485.39 1405.67 1485.39 Q1399.86 1485.39 1396.78 1480.81 Q1393.72 1476.2 1393.72 1467.47 Q1393.72 1458.72 1396.78 1454.14 Q1399.86 1449.53 1405.67 1449.53 Z" fill="#000000" fill-rule="evenodd" fill-opacity="1" /><path clip-path="url(#clip480)" d="M1786.73 1480.78 L1803.05 1480.78 L1803.05 1484.72 L1781.11 1484.72 L1781.11 1480.78 Q1783.77 1478.03 1788.35 1473.4 Q1792.96 1468.75 1794.14 1467.41 Q1796.39 1464.88 1797.27 1463.15 Q1798.17 1461.39 1798.17 1459.7 Q1798.17 1456.94 1796.22 1455.21 Q1794.3 1453.47 1791.2 1453.47 Q1789 1453.47 1786.55 1454.23 Q1784.12 1455 1781.34 1456.55 L1781.34 1451.83 Q1784.16 1450.69 1786.62 1450.11 Q1789.07 1449.53 1791.11 1449.53 Q1796.48 1449.53 1799.67 1452.22 Q1802.87 1454.91 1802.87 1459.4 Q1802.87 1461.53 1802.06 1463.45 Q1801.27 1465.34 1799.16 1467.94 Q1798.59 1468.61 1795.48 1471.83 Q1792.38 1475.02 1786.73 1480.78 Z" fill="#000000" fill-rule="evenodd" fill-opacity="1" /><path clip-path="url(#clip480)" d="M1812.91 1450.16 L1831.27 1450.16 L1831.27 1454.1 L1817.2 1454.1 L1817.2 1462.57 Q1818.21 1462.22 1819.23 1462.06 Q1820.25 1461.87 1821.27 1461.87 Q1827.06 1461.87 1830.44 1465.04 Q1833.82 1468.22 1833.82 1473.63 Q1833.82 1479.21 1830.34 1482.31 Q1826.87 1485.39 1820.55 1485.39 Q1818.38 1485.39 1816.11 1485.02 Q1813.86 1484.65 1811.46 1483.91 L1811.46 1479.21 Q1813.54 1480.34 1815.76 1480.9 Q1817.98 1481.46 1820.46 1481.46 Q1824.46 1481.46 1826.8 1479.35 Q1829.14 1477.24 1829.14 1473.63 Q1829.14 1470.02 1826.8 1467.91 Q1824.46 1465.81 1820.46 1465.81 Q1818.59 1465.81 1816.71 1466.22 Q1814.86 1466.64 1812.91 1467.52 L1812.91 1450.16 Z" fill="#000000" fill-rule="evenodd" fill-opacity="1" /><path clip-path="url(#clip480)" d="M1853.03 1453.24 Q1849.42 1453.24 1847.59 1456.8 Q1845.78 1460.35 1845.78 1467.47 Q1845.78 1474.58 1847.59 1478.15 Q1849.42 1481.69 1853.03 1481.69 Q1856.66 1481.69 1858.47 1478.15 Q1860.3 1474.58 1860.3 1467.47 Q1860.3 1460.35 1858.47 1456.8 Q1856.66 1453.24 1853.03 1453.24 M1853.03 1449.53 Q1858.84 1449.53 1861.9 1454.14 Q1864.97 1458.72 1864.97 1467.47 Q1864.97 1476.2 1861.9 1480.81 Q1858.84 1485.39 1853.03 1485.39 Q1847.22 1485.39 1844.14 1480.81 Q1841.08 1476.2 1841.08 1467.47 Q1841.08 1458.72 1844.14 1454.14 Q1847.22 1449.53 1853.03 1449.53 Z" fill="#000000" fill-rule="evenodd" fill-opacity="1" /><polyline clip-path="url(#clip482)" style="stroke:#000000; stroke-linecap:round; stroke-linejoin:round; stroke-width:2; stroke-opacity:0.1; fill:none" points="
  184.967,1384.15 2256.76,1384.15 
  "/>
<polyline clip-path="url(#clip482)" style="stroke:#000000; stroke-linecap:round; stroke-linejoin:round; stroke-width:2; stroke-opacity:0.1; fill:none" points="
  184.967,1059.66 2256.76,1059.66 
  "/>
<polyline clip-path="url(#clip482)" style="stroke:#000000; stroke-linecap:round; stroke-linejoin:round; stroke-width:2; stroke-opacity:0.1; fill:none" points="
  184.967,735.166 2256.76,735.166 
  "/>
<polyline clip-path="url(#clip482)" style="stroke:#000000; stroke-linecap:round; stroke-linejoin:round; stroke-width:2; stroke-opacity:0.1; fill:none" points="
  184.967,410.675 2256.76,410.675 
  "/>
<polyline clip-path="url(#clip482)" style="stroke:#000000; stroke-linecap:round; stroke-linejoin:round; stroke-width:2; stroke-opacity:0.1; fill:none" points="
  184.967,86.1831 2256.76,86.1831 
  "/>
<polyline clip-path="url(#clip480)" style="stroke:#000000; stroke-linecap:round; stroke-linejoin:round; stroke-width:4; stroke-opacity:1; fill:none" points="
  184.967,1423.09 184.967,47.2441 
  "/>
<polyline clip-path="url(#clip480)" style="stroke:#000000; stroke-linecap:round; stroke-linejoin:round; stroke-width:4; stroke-opacity:1; fill:none" points="
  184.967,1384.15 203.864,1384.15 
  "/>
<polyline clip-path="url(#clip480)" style="stroke:#000000; stroke-linecap:round; stroke-linejoin:round; stroke-width:4; stroke-opacity:1; fill:none" points="
  184.967,1059.66 203.864,1059.66 
  "/>
<polyline clip-path="url(#clip480)" style="stroke:#000000; stroke-linecap:round; stroke-linejoin:round; stroke-width:4; stroke-opacity:1; fill:none" points="
  184.967,735.166 203.864,735.166 
  "/>
<polyline clip-path="url(#clip480)" style="stroke:#000000; stroke-linecap:round; stroke-linejoin:round; stroke-width:4; stroke-opacity:1; fill:none" points="
  184.967,410.675 203.864,410.675 
  "/>
<polyline clip-path="url(#clip480)" style="stroke:#000000; stroke-linecap:round; stroke-linejoin:round; stroke-width:4; stroke-opacity:1; fill:none" points="
  184.967,86.1831 203.864,86.1831 
  "/>
<path clip-path="url(#clip480)" d="M53.8795 1397.49 L61.5184 1397.49 L61.5184 1371.13 L53.2082 1372.79 L53.2082 1368.54 L61.4721 1366.87 L66.148 1366.87 L66.148 1397.49 L73.7868 1397.49 L73.7868 1401.43 L53.8795 1401.43 L53.8795 1397.49 Z" fill="#000000" fill-rule="evenodd" fill-opacity="1" /><path clip-path="url(#clip480)" d="M83.2312 1395.55 L88.1154 1395.55 L88.1154 1401.43 L83.2312 1401.43 L83.2312 1395.55 Z" fill="#000000" fill-rule="evenodd" fill-opacity="1" /><path clip-path="url(#clip480)" d="M108.301 1369.95 Q104.689 1369.95 102.861 1373.51 Q101.055 1377.05 101.055 1384.18 Q101.055 1391.29 102.861 1394.85 Q104.689 1398.4 108.301 1398.4 Q111.935 1398.4 113.74 1394.85 Q115.569 1391.29 115.569 1384.18 Q115.569 1377.05 113.74 1373.51 Q111.935 1369.95 108.301 1369.95 M108.301 1366.24 Q114.111 1366.24 117.166 1370.85 Q120.245 1375.43 120.245 1384.18 Q120.245 1392.91 117.166 1397.52 Q114.111 1402.1 108.301 1402.1 Q102.49 1402.1 99.4117 1397.52 Q96.3561 1392.91 96.3561 1384.18 Q96.3561 1375.43 99.4117 1370.85 Q102.49 1366.24 108.301 1366.24 Z" fill="#000000" fill-rule="evenodd" fill-opacity="1" /><path clip-path="url(#clip480)" d="M138.462 1369.95 Q134.851 1369.95 133.023 1373.51 Q131.217 1377.05 131.217 1384.18 Q131.217 1391.29 133.023 1394.85 Q134.851 1398.4 138.462 1398.4 Q142.097 1398.4 143.902 1394.85 Q145.731 1391.29 145.731 1384.18 Q145.731 1377.05 143.902 1373.51 Q142.097 1369.95 138.462 1369.95 M138.462 1366.24 Q144.273 1366.24 147.328 1370.85 Q150.407 1375.43 150.407 1384.18 Q150.407 1392.91 147.328 1397.52 Q144.273 1402.1 138.462 1402.1 Q132.652 1402.1 129.574 1397.52 Q126.518 1392.91 126.518 1384.18 Q126.518 1375.43 129.574 1370.85 Q132.652 1366.24 138.462 1366.24 Z" fill="#000000" fill-rule="evenodd" fill-opacity="1" /><path clip-path="url(#clip480)" d="M54.8749 1073 L62.5137 1073 L62.5137 1046.64 L54.2036 1048.3 L54.2036 1044.04 L62.4674 1042.38 L67.1433 1042.38 L67.1433 1073 L74.7822 1073 L74.7822 1076.94 L54.8749 1076.94 L54.8749 1073 Z" fill="#000000" fill-rule="evenodd" fill-opacity="1" /><path clip-path="url(#clip480)" d="M84.2266 1071.06 L89.1108 1071.06 L89.1108 1076.94 L84.2266 1076.94 L84.2266 1071.06 Z" fill="#000000" fill-rule="evenodd" fill-opacity="1" /><path clip-path="url(#clip480)" d="M103.324 1073 L119.643 1073 L119.643 1076.94 L97.6987 1076.94 L97.6987 1073 Q100.361 1070.25 104.944 1065.62 Q109.551 1060.97 110.731 1059.62 Q112.976 1057.1 113.856 1055.36 Q114.759 1053.6 114.759 1051.91 Q114.759 1049.16 112.814 1047.42 Q110.893 1045.69 107.791 1045.69 Q105.592 1045.69 103.139 1046.45 Q100.708 1047.22 97.9302 1048.77 L97.9302 1044.04 Q100.754 1042.91 103.208 1042.33 Q105.662 1041.75 107.699 1041.75 Q113.069 1041.75 116.263 1044.44 Q119.458 1047.12 119.458 1051.61 Q119.458 1053.74 118.648 1055.66 Q117.861 1057.56 115.754 1060.16 Q115.175 1060.83 112.074 1064.04 Q108.972 1067.24 103.324 1073 Z" fill="#000000" fill-rule="evenodd" fill-opacity="1" /><path clip-path="url(#clip480)" d="M129.504 1042.38 L147.86 1042.38 L147.86 1046.31 L133.786 1046.31 L133.786 1054.78 Q134.805 1054.44 135.824 1054.28 Q136.842 1054.09 137.861 1054.09 Q143.648 1054.09 147.027 1057.26 Q150.407 1060.43 150.407 1065.85 Q150.407 1071.43 146.935 1074.53 Q143.462 1077.61 137.143 1077.61 Q134.967 1077.61 132.699 1077.24 Q130.453 1076.87 128.046 1076.13 L128.046 1071.43 Q130.129 1072.56 132.351 1073.12 Q134.574 1073.67 137.05 1073.67 Q141.055 1073.67 143.393 1071.57 Q145.731 1069.46 145.731 1065.85 Q145.731 1062.24 143.393 1060.13 Q141.055 1058.03 137.05 1058.03 Q135.175 1058.03 133.3 1058.44 Q131.449 1058.86 129.504 1059.74 L129.504 1042.38 Z" fill="#000000" fill-rule="evenodd" fill-opacity="1" /><path clip-path="url(#clip480)" d="M53.8795 748.511 L61.5184 748.511 L61.5184 722.145 L53.2082 723.812 L53.2082 719.553 L61.4721 717.886 L66.148 717.886 L66.148 748.511 L73.7868 748.511 L73.7868 752.446 L53.8795 752.446 L53.8795 748.511 Z" fill="#000000" fill-rule="evenodd" fill-opacity="1" /><path clip-path="url(#clip480)" d="M83.2312 746.566 L88.1154 746.566 L88.1154 752.446 L83.2312 752.446 L83.2312 746.566 Z" fill="#000000" fill-rule="evenodd" fill-opacity="1" /><path clip-path="url(#clip480)" d="M98.3469 717.886 L116.703 717.886 L116.703 721.821 L102.629 721.821 L102.629 730.293 Q103.648 729.946 104.666 729.784 Q105.685 729.599 106.703 729.599 Q112.49 729.599 115.87 732.77 Q119.25 735.941 119.25 741.358 Q119.25 746.937 115.777 750.039 Q112.305 753.117 105.986 753.117 Q103.81 753.117 101.541 752.747 Q99.2959 752.377 96.8885 751.636 L96.8885 746.937 Q98.9719 748.071 101.194 748.627 Q103.416 749.182 105.893 749.182 Q109.898 749.182 112.236 747.076 Q114.574 744.969 114.574 741.358 Q114.574 737.747 112.236 735.641 Q109.898 733.534 105.893 733.534 Q104.018 733.534 102.143 733.951 Q100.291 734.367 98.3469 735.247 L98.3469 717.886 Z" fill="#000000" fill-rule="evenodd" fill-opacity="1" /><path clip-path="url(#clip480)" d="M138.462 720.965 Q134.851 720.965 133.023 724.529 Q131.217 728.071 131.217 735.201 Q131.217 742.307 133.023 745.872 Q134.851 749.414 138.462 749.414 Q142.097 749.414 143.902 745.872 Q145.731 742.307 145.731 735.201 Q145.731 728.071 143.902 724.529 Q142.097 720.965 138.462 720.965 M138.462 717.261 Q144.273 717.261 147.328 721.867 Q150.407 726.451 150.407 735.201 Q150.407 743.928 147.328 748.534 Q144.273 753.117 138.462 753.117 Q132.652 753.117 129.574 748.534 Q126.518 743.928 126.518 735.201 Q126.518 726.451 129.574 721.867 Q132.652 717.261 138.462 717.261 Z" fill="#000000" fill-rule="evenodd" fill-opacity="1" /><path clip-path="url(#clip480)" d="M54.8749 424.019 L62.5137 424.019 L62.5137 397.654 L54.2036 399.32 L54.2036 395.061 L62.4674 393.395 L67.1433 393.395 L67.1433 424.019 L74.7822 424.019 L74.7822 427.955 L54.8749 427.955 L54.8749 424.019 Z" fill="#000000" fill-rule="evenodd" fill-opacity="1" /><path clip-path="url(#clip480)" d="M84.2266 422.075 L89.1108 422.075 L89.1108 427.955 L84.2266 427.955 L84.2266 422.075 Z" fill="#000000" fill-rule="evenodd" fill-opacity="1" /><path clip-path="url(#clip480)" d="M98.1154 393.395 L120.337 393.395 L120.337 395.385 L107.791 427.955 L102.907 427.955 L114.713 397.33 L98.1154 397.33 L98.1154 393.395 Z" fill="#000000" fill-rule="evenodd" fill-opacity="1" /><path clip-path="url(#clip480)" d="M129.504 393.395 L147.86 393.395 L147.86 397.33 L133.786 397.33 L133.786 405.802 Q134.805 405.455 135.824 405.293 Q136.842 405.107 137.861 405.107 Q143.648 405.107 147.027 408.279 Q150.407 411.45 150.407 416.867 Q150.407 422.445 146.935 425.547 Q143.462 428.626 137.143 428.626 Q134.967 428.626 132.699 428.255 Q130.453 427.885 128.046 427.144 L128.046 422.445 Q130.129 423.58 132.351 424.135 Q134.574 424.691 137.05 424.691 Q141.055 424.691 143.393 422.584 Q145.731 420.478 145.731 416.867 Q145.731 413.256 143.393 411.149 Q141.055 409.043 137.05 409.043 Q135.175 409.043 133.3 409.459 Q131.449 409.876 129.504 410.756 L129.504 393.395 Z" fill="#000000" fill-rule="evenodd" fill-opacity="1" /><path clip-path="url(#clip480)" d="M57.0971 99.5279 L73.4165 99.5279 L73.4165 103.463 L51.4721 103.463 L51.4721 99.5279 Q54.1341 96.7733 58.7175 92.1437 Q63.3239 87.4909 64.5045 86.1483 Q66.7498 83.6252 67.6294 81.8891 Q68.5322 80.1299 68.5322 78.4401 Q68.5322 75.6854 66.5878 73.9493 Q64.6665 72.2132 61.5647 72.2132 Q59.3656 72.2132 56.9119 72.9771 Q54.4814 73.741 51.7036 75.2919 L51.7036 70.5697 Q54.5277 69.4355 56.9814 68.8568 Q59.435 68.2781 61.4721 68.2781 Q66.8424 68.2781 70.0368 70.9632 Q73.2313 73.6484 73.2313 78.1391 Q73.2313 80.2687 72.4211 82.19 Q71.6341 84.0882 69.5276 86.6808 Q68.9489 87.352 65.847 90.5696 Q62.7452 93.764 57.0971 99.5279 Z" fill="#000000" fill-rule="evenodd" fill-opacity="1" /><path clip-path="url(#clip480)" d="M83.2312 97.5835 L88.1154 97.5835 L88.1154 103.463 L83.2312 103.463 L83.2312 97.5835 Z" fill="#000000" fill-rule="evenodd" fill-opacity="1" /><path clip-path="url(#clip480)" d="M108.301 71.9818 Q104.689 71.9818 102.861 75.5466 Q101.055 79.0882 101.055 86.2178 Q101.055 93.3242 102.861 96.889 Q104.689 100.431 108.301 100.431 Q111.935 100.431 113.74 96.889 Q115.569 93.3242 115.569 86.2178 Q115.569 79.0882 113.74 75.5466 Q111.935 71.9818 108.301 71.9818 M108.301 68.2781 Q114.111 68.2781 117.166 72.8845 Q120.245 77.4678 120.245 86.2178 Q120.245 94.9446 117.166 99.5511 Q114.111 104.134 108.301 104.134 Q102.49 104.134 99.4117 99.5511 Q96.3561 94.9446 96.3561 86.2178 Q96.3561 77.4678 99.4117 72.8845 Q102.49 68.2781 108.301 68.2781 Z" fill="#000000" fill-rule="evenodd" fill-opacity="1" /><path clip-path="url(#clip480)" d="M138.462 71.9818 Q134.851 71.9818 133.023 75.5466 Q131.217 79.0882 131.217 86.2178 Q131.217 93.3242 133.023 96.889 Q134.851 100.431 138.462 100.431 Q142.097 100.431 143.902 96.889 Q145.731 93.3242 145.731 86.2178 Q145.731 79.0882 143.902 75.5466 Q142.097 71.9818 138.462 71.9818 M138.462 68.2781 Q144.273 68.2781 147.328 72.8845 Q150.407 77.4678 150.407 86.2178 Q150.407 94.9446 147.328 99.5511 Q144.273 104.134 138.462 104.134 Q132.652 104.134 129.574 99.5511 Q126.518 94.9446 126.518 86.2178 Q126.518 77.4678 129.574 72.8845 Q132.652 68.2781 138.462 68.2781 Z" fill="#000000" fill-rule="evenodd" fill-opacity="1" /><circle clip-path="url(#clip482)" cx="243.602" cy="1384.15" r="14.4" fill="#009af9" fill-rule="evenodd" fill-opacity="1" stroke="#000000" stroke-opacity="1" stroke-width="3.072"/>
<circle clip-path="url(#clip482)" cx="287.794" cy="1384.15" r="14.4" fill="#009af9" fill-rule="evenodd" fill-opacity="1" stroke="#000000" stroke-opacity="1" stroke-width="3.072"/>
<circle clip-path="url(#clip482)" cx="577.79" cy="1384.15" r="14.4" fill="#009af9" fill-rule="evenodd" fill-opacity="1" stroke="#000000" stroke-opacity="1" stroke-width="3.072"/>
<circle clip-path="url(#clip482)" cx="578.289" cy="1384.15" r="14.4" fill="#009af9" fill-rule="evenodd" fill-opacity="1" stroke="#000000" stroke-opacity="1" stroke-width="3.072"/>
<circle clip-path="url(#clip482)" cx="672.624" cy="1384.15" r="14.4" fill="#009af9" fill-rule="evenodd" fill-opacity="1" stroke="#000000" stroke-opacity="1" stroke-width="3.072"/>
<circle clip-path="url(#clip482)" cx="777.029" cy="1384.15" r="14.4" fill="#009af9" fill-rule="evenodd" fill-opacity="1" stroke="#000000" stroke-opacity="1" stroke-width="3.072"/>
<circle clip-path="url(#clip482)" cx="980.995" cy="1384.15" r="14.4" fill="#009af9" fill-rule="evenodd" fill-opacity="1" stroke="#000000" stroke-opacity="1" stroke-width="3.072"/>
<circle clip-path="url(#clip482)" cx="1475.8" cy="1384.15" r="14.4" fill="#009af9" fill-rule="evenodd" fill-opacity="1" stroke="#000000" stroke-opacity="1" stroke-width="3.072"/>
<circle clip-path="url(#clip482)" cx="1688.91" cy="1384.15" r="14.4" fill="#009af9" fill-rule="evenodd" fill-opacity="1" stroke="#000000" stroke-opacity="1" stroke-width="3.072"/>
<circle clip-path="url(#clip482)" cx="2198.12" cy="1384.15" r="14.4" fill="#009af9" fill-rule="evenodd" fill-opacity="1" stroke="#000000" stroke-opacity="1" stroke-width="3.072"/>
</svg>
