<?xml version="1.0" encoding="utf-8"?>
<svg xmlns="http://www.w3.org/2000/svg" xmlns:xlink="http://www.w3.org/1999/xlink" width="576" height="384" viewBox="0 0 2304 1536">
<defs>
  <clipPath id="clip170">
    <rect x="0" y="0" width="2304" height="1536"/>
  </clipPath>
</defs>
<path clip-path="url(#clip170)" d="
M0 1536 L2304 1536 L2304 0 L0 0  Z
  " fill="#ffffff" fill-rule="evenodd" fill-opacity="1"/>
<defs>
  <clipPath id="clip171">
    <rect x="460" y="0" width="1614" height="1536"/>
  </clipPath>
</defs>
<path clip-path="url(#clip170)" d="
M155.314 1423.09 L2256.76 1423.09 L2256.76 47.2441 L155.314 47.2441  Z
  " fill="#ffffff" fill-rule="evenodd" fill-opacity="1"/>
<defs>
  <clipPath id="clip172">
    <rect x="155" y="47" width="2102" height="1377"/>
  </clipPath>
</defs>
<polyline clip-path="url(#clip172)" style="stroke:#000000; stroke-linecap:round; stroke-linejoin:round; stroke-width:2; stroke-opacity:0.1; fill:none" points="
  451.233,1423.09 451.233,47.2441 
  "/>
<polyline clip-path="url(#clip172)" style="stroke:#000000; stroke-linecap:round; stroke-linejoin:round; stroke-width:2; stroke-opacity:0.1; fill:none" points="
  905.933,1423.09 905.933,47.2441 
  "/>
<polyline clip-path="url(#clip172)" style="stroke:#000000; stroke-linecap:round; stroke-linejoin:round; stroke-width:2; stroke-opacity:0.1; fill:none" points="
  1360.63,1423.09 1360.63,47.2441 
  "/>
<polyline clip-path="url(#clip172)" style="stroke:#000000; stroke-linecap:round; stroke-linejoin:round; stroke-width:2; stroke-opacity:0.1; fill:none" points="
  1815.33,1423.09 1815.33,47.2441 
  "/>
<polyline clip-path="url(#clip170)" style="stroke:#000000; stroke-linecap:round; stroke-linejoin:round; stroke-width:4; stroke-opacity:1; fill:none" points="
  155.314,1423.09 2256.76,1423.09 
  "/>
<polyline clip-path="url(#clip170)" style="stroke:#000000; stroke-linecap:round; stroke-linejoin:round; stroke-width:4; stroke-opacity:1; fill:none" points="
  451.233,1423.09 451.233,1404.19 
  "/>
<polyline clip-path="url(#clip170)" style="stroke:#000000; stroke-linecap:round; stroke-linejoin:round; stroke-width:4; stroke-opacity:1; fill:none" points="
  905.933,1423.09 905.933,1404.19 
  "/>
<polyline clip-path="url(#clip170)" style="stroke:#000000; stroke-linecap:round; stroke-linejoin:round; stroke-width:4; stroke-opacity:1; fill:none" points="
  1360.63,1423.09 1360.63,1404.19 
  "/>
<polyline clip-path="url(#clip170)" style="stroke:#000000; stroke-linecap:round; stroke-linejoin:round; stroke-width:4; stroke-opacity:1; fill:none" points="
  1815.33,1423.09 1815.33,1404.19 
  "/>
<path clip-path="url(#clip170)" d="M410.84 1480.78 L418.478 1480.78 L418.478 1454.42 L410.168 1456.09 L410.168 1451.83 L418.432 1450.16 L423.108 1450.16 L423.108 1480.78 L430.747 1480.78 L430.747 1484.72 L410.84 1484.72 L410.84 1480.78 Z" fill="#000000" fill-rule="evenodd" fill-opacity="1" /><path clip-path="url(#clip170)" d="M450.191 1453.24 Q446.58 1453.24 444.752 1456.8 Q442.946 1460.35 442.946 1467.47 Q442.946 1474.58 444.752 1478.15 Q446.58 1481.69 450.191 1481.69 Q453.826 1481.69 455.631 1478.15 Q457.46 1474.58 457.46 1467.47 Q457.46 1460.35 455.631 1456.8 Q453.826 1453.24 450.191 1453.24 M450.191 1449.53 Q456.001 1449.53 459.057 1454.14 Q462.136 1458.72 462.136 1467.47 Q462.136 1476.2 459.057 1480.81 Q456.001 1485.39 450.191 1485.39 Q444.381 1485.39 441.302 1480.81 Q438.247 1476.2 438.247 1467.47 Q438.247 1458.72 441.302 1454.14 Q444.381 1449.53 450.191 1449.53 Z" fill="#000000" fill-rule="evenodd" fill-opacity="1" /><path clip-path="url(#clip170)" d="M480.353 1453.24 Q476.742 1453.24 474.913 1456.8 Q473.108 1460.35 473.108 1467.47 Q473.108 1474.58 474.913 1478.15 Q476.742 1481.69 480.353 1481.69 Q483.987 1481.69 485.793 1478.15 Q487.622 1474.58 487.622 1467.47 Q487.622 1460.35 485.793 1456.8 Q483.987 1453.24 480.353 1453.24 M480.353 1449.53 Q486.163 1449.53 489.219 1454.14 Q492.298 1458.72 492.298 1467.47 Q492.298 1476.2 489.219 1480.81 Q486.163 1485.39 480.353 1485.39 Q474.543 1485.39 471.464 1480.81 Q468.409 1476.2 468.409 1467.47 Q468.409 1458.72 471.464 1454.14 Q474.543 1449.53 480.353 1449.53 Z" fill="#000000" fill-rule="evenodd" fill-opacity="1" /><path clip-path="url(#clip170)" d="M865.54 1480.78 L873.179 1480.78 L873.179 1454.42 L864.868 1456.09 L864.868 1451.83 L873.132 1450.16 L877.808 1450.16 L877.808 1480.78 L885.447 1480.78 L885.447 1484.72 L865.54 1484.72 L865.54 1480.78 Z" fill="#000000" fill-rule="evenodd" fill-opacity="1" /><path clip-path="url(#clip170)" d="M894.938 1450.16 L913.294 1450.16 L913.294 1454.1 L899.22 1454.1 L899.22 1462.57 Q900.239 1462.22 901.257 1462.06 Q902.276 1461.87 903.294 1461.87 Q909.081 1461.87 912.461 1465.04 Q915.84 1468.22 915.84 1473.63 Q915.84 1479.21 912.368 1482.31 Q908.896 1485.39 902.577 1485.39 Q900.401 1485.39 898.132 1485.02 Q895.887 1484.65 893.479 1483.91 L893.479 1479.21 Q895.563 1480.34 897.785 1480.9 Q900.007 1481.46 902.484 1481.46 Q906.489 1481.46 908.827 1479.35 Q911.164 1477.24 911.164 1473.63 Q911.164 1470.02 908.827 1467.91 Q906.489 1465.81 902.484 1465.81 Q900.609 1465.81 898.734 1466.22 Q896.882 1466.64 894.938 1467.52 L894.938 1450.16 Z" fill="#000000" fill-rule="evenodd" fill-opacity="1" /><path clip-path="url(#clip170)" d="M935.053 1453.24 Q931.442 1453.24 929.613 1456.8 Q927.808 1460.35 927.808 1467.47 Q927.808 1474.58 929.613 1478.15 Q931.442 1481.69 935.053 1481.69 Q938.687 1481.69 940.493 1478.15 Q942.322 1474.58 942.322 1467.47 Q942.322 1460.35 940.493 1456.8 Q938.687 1453.24 935.053 1453.24 M935.053 1449.53 Q940.863 1449.53 943.919 1454.14 Q946.998 1458.72 946.998 1467.47 Q946.998 1476.2 943.919 1480.81 Q940.863 1485.39 935.053 1485.39 Q929.243 1485.39 926.164 1480.81 Q923.109 1476.2 923.109 1467.47 Q923.109 1458.72 926.164 1454.14 Q929.243 1449.53 935.053 1449.53 Z" fill="#000000" fill-rule="evenodd" fill-opacity="1" /><path clip-path="url(#clip170)" d="M1324.33 1480.78 L1340.64 1480.78 L1340.64 1484.72 L1318.7 1484.72 L1318.7 1480.78 Q1321.36 1478.03 1325.95 1473.4 Q1330.55 1468.75 1331.73 1467.41 Q1333.98 1464.88 1334.86 1463.15 Q1335.76 1461.39 1335.76 1459.7 Q1335.76 1456.94 1333.82 1455.21 Q1331.89 1453.47 1328.79 1453.47 Q1326.59 1453.47 1324.14 1454.23 Q1321.71 1455 1318.93 1456.55 L1318.93 1451.83 Q1321.76 1450.69 1324.21 1450.11 Q1326.66 1449.53 1328.7 1449.53 Q1334.07 1449.53 1337.27 1452.22 Q1340.46 1454.91 1340.46 1459.4 Q1340.46 1461.53 1339.65 1463.45 Q1338.86 1465.34 1336.76 1467.94 Q1336.18 1468.61 1333.08 1471.83 Q1329.97 1475.02 1324.33 1480.78 Z" fill="#000000" fill-rule="evenodd" fill-opacity="1" /><path clip-path="url(#clip170)" d="M1360.46 1453.24 Q1356.85 1453.24 1355.02 1456.8 Q1353.21 1460.35 1353.21 1467.47 Q1353.21 1474.58 1355.02 1478.15 Q1356.85 1481.69 1360.46 1481.69 Q1364.09 1481.69 1365.9 1478.15 Q1367.73 1474.58 1367.73 1467.47 Q1367.73 1460.35 1365.9 1456.8 Q1364.09 1453.24 1360.46 1453.24 M1360.46 1449.53 Q1366.27 1449.53 1369.33 1454.14 Q1372.4 1458.72 1372.4 1467.47 Q1372.4 1476.2 1369.33 1480.81 Q1366.27 1485.39 1360.46 1485.39 Q1354.65 1485.39 1351.57 1480.81 Q1348.52 1476.2 1348.52 1467.47 Q1348.52 1458.72 1351.57 1454.14 Q1354.65 1449.53 1360.46 1449.53 Z" fill="#000000" fill-rule="evenodd" fill-opacity="1" /><path clip-path="url(#clip170)" d="M1390.62 1453.24 Q1387.01 1453.24 1385.18 1456.8 Q1383.38 1460.35 1383.38 1467.47 Q1383.38 1474.58 1385.18 1478.15 Q1387.01 1481.69 1390.62 1481.69 Q1394.26 1481.69 1396.06 1478.15 Q1397.89 1474.58 1397.89 1467.47 Q1397.89 1460.35 1396.06 1456.8 Q1394.26 1453.24 1390.62 1453.24 M1390.62 1449.53 Q1396.43 1449.53 1399.49 1454.14 Q1402.57 1458.72 1402.57 1467.47 Q1402.57 1476.2 1399.49 1480.81 Q1396.43 1485.39 1390.62 1485.39 Q1384.81 1485.39 1381.73 1480.81 Q1378.68 1476.2 1378.68 1467.47 Q1378.68 1458.72 1381.73 1454.14 Q1384.81 1449.53 1390.62 1449.53 Z" fill="#000000" fill-rule="evenodd" fill-opacity="1" /><path clip-path="url(#clip170)" d="M1779.03 1480.78 L1795.34 1480.78 L1795.34 1484.72 L1773.4 1484.72 L1773.4 1480.78 Q1776.06 1478.03 1780.65 1473.4 Q1785.25 1468.75 1786.43 1467.41 Q1788.68 1464.88 1789.56 1463.15 Q1790.46 1461.39 1790.46 1459.7 Q1790.46 1456.94 1788.52 1455.21 Q1786.59 1453.47 1783.49 1453.47 Q1781.29 1453.47 1778.84 1454.23 Q1776.41 1455 1773.63 1456.55 L1773.63 1451.83 Q1776.46 1450.69 1778.91 1450.11 Q1781.36 1449.53 1783.4 1449.53 Q1788.77 1449.53 1791.97 1452.22 Q1795.16 1454.91 1795.16 1459.4 Q1795.16 1461.53 1794.35 1463.45 Q1793.56 1465.34 1791.46 1467.94 Q1790.88 1468.61 1787.78 1471.83 Q1784.67 1475.02 1779.03 1480.78 Z" fill="#000000" fill-rule="evenodd" fill-opacity="1" /><path clip-path="url(#clip170)" d="M1805.21 1450.16 L1823.56 1450.16 L1823.56 1454.1 L1809.49 1454.1 L1809.49 1462.57 Q1810.51 1462.22 1811.53 1462.06 Q1812.54 1461.87 1813.56 1461.87 Q1819.35 1461.87 1822.73 1465.04 Q1826.11 1468.22 1826.11 1473.63 Q1826.11 1479.21 1822.64 1482.31 Q1819.16 1485.39 1812.84 1485.39 Q1810.67 1485.39 1808.4 1485.02 Q1806.15 1484.65 1803.75 1483.91 L1803.75 1479.21 Q1805.83 1480.34 1808.05 1480.9 Q1810.28 1481.46 1812.75 1481.46 Q1816.76 1481.46 1819.09 1479.35 Q1821.43 1477.24 1821.43 1473.63 Q1821.43 1470.02 1819.09 1467.91 Q1816.76 1465.81 1812.75 1465.81 Q1810.88 1465.81 1809 1466.22 Q1807.15 1466.64 1805.21 1467.52 L1805.21 1450.16 Z" fill="#000000" fill-rule="evenodd" fill-opacity="1" /><path clip-path="url(#clip170)" d="M1845.32 1453.24 Q1841.71 1453.24 1839.88 1456.8 Q1838.08 1460.35 1838.08 1467.47 Q1838.08 1474.58 1839.88 1478.15 Q1841.71 1481.69 1845.32 1481.69 Q1848.96 1481.69 1850.76 1478.15 Q1852.59 1474.58 1852.59 1467.47 Q1852.59 1460.35 1850.76 1456.8 Q1848.96 1453.24 1845.32 1453.24 M1845.32 1449.53 Q1851.13 1449.53 1854.19 1454.14 Q1857.27 1458.72 1857.27 1467.47 Q1857.27 1476.2 1854.19 1480.81 Q1851.13 1485.39 1845.32 1485.39 Q1839.51 1485.39 1836.43 1480.81 Q1833.38 1476.2 1833.38 1467.47 Q1833.38 1458.72 1836.43 1454.14 Q1839.51 1449.53 1845.32 1449.53 Z" fill="#000000" fill-rule="evenodd" fill-opacity="1" /><polyline clip-path="url(#clip172)" style="stroke:#000000; stroke-linecap:round; stroke-linejoin:round; stroke-width:2; stroke-opacity:0.1; fill:none" points="
  155.314,1239.93 2256.76,1239.93 
  "/>
<polyline clip-path="url(#clip172)" style="stroke:#000000; stroke-linecap:round; stroke-linejoin:round; stroke-width:2; stroke-opacity:0.1; fill:none" points="
  155.314,951.494 2256.76,951.494 
  "/>
<polyline clip-path="url(#clip172)" style="stroke:#000000; stroke-linecap:round; stroke-linejoin:round; stroke-width:2; stroke-opacity:0.1; fill:none" points="
  155.314,663.057 2256.76,663.057 
  "/>
<polyline clip-path="url(#clip172)" style="stroke:#000000; stroke-linecap:round; stroke-linejoin:round; stroke-width:2; stroke-opacity:0.1; fill:none" points="
  155.314,374.62 2256.76,374.62 
  "/>
<polyline clip-path="url(#clip172)" style="stroke:#000000; stroke-linecap:round; stroke-linejoin:round; stroke-width:2; stroke-opacity:0.1; fill:none" points="
  155.314,86.1831 2256.76,86.1831 
  "/>
<polyline clip-path="url(#clip170)" style="stroke:#000000; stroke-linecap:round; stroke-linejoin:round; stroke-width:4; stroke-opacity:1; fill:none" points="
  155.314,1423.09 155.314,47.2441 
  "/>
<polyline clip-path="url(#clip170)" style="stroke:#000000; stroke-linecap:round; stroke-linejoin:round; stroke-width:4; stroke-opacity:1; fill:none" points="
  155.314,1239.93 174.212,1239.93 
  "/>
<polyline clip-path="url(#clip170)" style="stroke:#000000; stroke-linecap:round; stroke-linejoin:round; stroke-width:4; stroke-opacity:1; fill:none" points="
  155.314,951.494 174.212,951.494 
  "/>
<polyline clip-path="url(#clip170)" style="stroke:#000000; stroke-linecap:round; stroke-linejoin:round; stroke-width:4; stroke-opacity:1; fill:none" points="
  155.314,663.057 174.212,663.057 
  "/>
<polyline clip-path="url(#clip170)" style="stroke:#000000; stroke-linecap:round; stroke-linejoin:round; stroke-width:4; stroke-opacity:1; fill:none" points="
  155.314,374.62 174.212,374.62 
  "/>
<polyline clip-path="url(#clip170)" style="stroke:#000000; stroke-linecap:round; stroke-linejoin:round; stroke-width:4; stroke-opacity:1; fill:none" points="
  155.314,86.1831 174.212,86.1831 
  "/>
<path clip-path="url(#clip170)" d="M63.4165 1225.73 Q59.8054 1225.73 57.9767 1229.29 Q56.1712 1232.84 56.1712 1239.97 Q56.1712 1247.07 57.9767 1250.64 Q59.8054 1254.18 63.4165 1254.18 Q67.0507 1254.18 68.8563 1250.64 Q70.685 1247.07 70.685 1239.97 Q70.685 1232.84 68.8563 1229.29 Q67.0507 1225.73 63.4165 1225.73 M63.4165 1222.03 Q69.2267 1222.03 72.2822 1226.63 Q75.3609 1231.22 75.3609 1239.97 Q75.3609 1248.69 72.2822 1253.3 Q69.2267 1257.88 63.4165 1257.88 Q57.6064 1257.88 54.5277 1253.3 Q51.4721 1248.69 51.4721 1239.97 Q51.4721 1231.22 54.5277 1226.63 Q57.6064 1222.03 63.4165 1222.03 Z" fill="#000000" fill-rule="evenodd" fill-opacity="1" /><path clip-path="url(#clip170)" d="M83.5784 1251.33 L88.4627 1251.33 L88.4627 1257.21 L83.5784 1257.21 L83.5784 1251.33 Z" fill="#000000" fill-rule="evenodd" fill-opacity="1" /><path clip-path="url(#clip170)" d="M109.226 1238.07 Q106.078 1238.07 104.226 1240.22 Q102.398 1242.37 102.398 1246.12 Q102.398 1249.85 104.226 1252.03 Q106.078 1254.18 109.226 1254.18 Q112.375 1254.18 114.203 1252.03 Q116.055 1249.85 116.055 1246.12 Q116.055 1242.37 114.203 1240.22 Q112.375 1238.07 109.226 1238.07 M118.509 1223.41 L118.509 1227.67 Q116.75 1226.84 114.944 1226.4 Q113.162 1225.96 111.402 1225.96 Q106.773 1225.96 104.319 1229.09 Q101.889 1232.21 101.541 1238.53 Q102.907 1236.52 104.967 1235.45 Q107.027 1234.36 109.504 1234.36 Q114.713 1234.36 117.722 1237.53 Q120.754 1240.68 120.754 1246.12 Q120.754 1251.45 117.606 1254.66 Q114.458 1257.88 109.226 1257.88 Q103.231 1257.88 100.06 1253.3 Q96.8885 1248.69 96.8885 1239.97 Q96.8885 1231.77 100.777 1226.91 Q104.666 1222.03 111.217 1222.03 Q112.976 1222.03 114.759 1222.37 Q116.564 1222.72 118.509 1223.41 Z" fill="#000000" fill-rule="evenodd" fill-opacity="1" /><path clip-path="url(#clip170)" d="M63.6711 937.292 Q60.06 937.292 58.2313 940.857 Q56.4258 944.399 56.4258 951.528 Q56.4258 958.635 58.2313 962.2 Q60.06 965.741 63.6711 965.741 Q67.3054 965.741 69.1109 962.2 Q70.9396 958.635 70.9396 951.528 Q70.9396 944.399 69.1109 940.857 Q67.3054 937.292 63.6711 937.292 M63.6711 933.589 Q69.4813 933.589 72.5368 938.195 Q75.6155 942.778 75.6155 951.528 Q75.6155 960.255 72.5368 964.862 Q69.4813 969.445 63.6711 969.445 Q57.861 969.445 54.7823 964.862 Q51.7268 960.255 51.7268 951.528 Q51.7268 942.778 54.7823 938.195 Q57.861 933.589 63.6711 933.589 Z" fill="#000000" fill-rule="evenodd" fill-opacity="1" /><path clip-path="url(#clip170)" d="M83.8331 962.894 L88.7173 962.894 L88.7173 968.774 L83.8331 968.774 L83.8331 962.894 Z" fill="#000000" fill-rule="evenodd" fill-opacity="1" /><path clip-path="url(#clip170)" d="M108.902 952.362 Q105.569 952.362 103.648 954.144 Q101.75 955.926 101.75 959.051 Q101.75 962.176 103.648 963.959 Q105.569 965.741 108.902 965.741 Q112.236 965.741 114.157 963.959 Q116.078 962.153 116.078 959.051 Q116.078 955.926 114.157 954.144 Q112.259 952.362 108.902 952.362 M104.226 950.371 Q101.217 949.63 99.5274 947.57 Q97.8608 945.51 97.8608 942.547 Q97.8608 938.403 100.801 935.996 Q103.764 933.589 108.902 933.589 Q114.064 933.589 117.004 935.996 Q119.944 938.403 119.944 942.547 Q119.944 945.51 118.254 947.57 Q116.588 949.63 113.601 950.371 Q116.981 951.158 118.856 953.45 Q120.754 955.741 120.754 959.051 Q120.754 964.075 117.675 966.76 Q114.62 969.445 108.902 969.445 Q103.185 969.445 100.106 966.76 Q97.0506 964.075 97.0506 959.051 Q97.0506 955.741 98.9487 953.45 Q100.847 951.158 104.226 950.371 M102.514 942.987 Q102.514 945.672 104.18 947.177 Q105.87 948.681 108.902 948.681 Q111.912 948.681 113.601 947.177 Q115.314 945.672 115.314 942.987 Q115.314 940.302 113.601 938.797 Q111.912 937.292 108.902 937.292 Q105.87 937.292 104.18 938.797 Q102.514 940.302 102.514 942.987 Z" fill="#000000" fill-rule="evenodd" fill-opacity="1" /><path clip-path="url(#clip170)" d="M54.3888 676.402 L62.0276 676.402 L62.0276 650.036 L53.7175 651.703 L53.7175 647.443 L61.9813 645.777 L66.6572 645.777 L66.6572 676.402 L74.2961 676.402 L74.2961 680.337 L54.3888 680.337 L54.3888 676.402 Z" fill="#000000" fill-rule="evenodd" fill-opacity="1" /><path clip-path="url(#clip170)" d="M83.7405 674.457 L88.6247 674.457 L88.6247 680.337 L83.7405 680.337 L83.7405 674.457 Z" fill="#000000" fill-rule="evenodd" fill-opacity="1" /><path clip-path="url(#clip170)" d="M108.81 648.855 Q105.199 648.855 103.37 652.42 Q101.564 655.962 101.564 663.091 Q101.564 670.198 103.37 673.763 Q105.199 677.304 108.81 677.304 Q112.444 677.304 114.25 673.763 Q116.078 670.198 116.078 663.091 Q116.078 655.962 114.25 652.42 Q112.444 648.855 108.81 648.855 M108.81 645.152 Q114.62 645.152 117.675 649.758 Q120.754 654.342 120.754 663.091 Q120.754 671.818 117.675 676.425 Q114.62 681.008 108.81 681.008 Q103 681.008 99.9209 676.425 Q96.8654 671.818 96.8654 663.091 Q96.8654 654.342 99.9209 649.758 Q103 645.152 108.81 645.152 Z" fill="#000000" fill-rule="evenodd" fill-opacity="1" /><path clip-path="url(#clip170)" d="M55.986 387.965 L63.6248 387.965 L63.6248 361.599 L55.3147 363.266 L55.3147 359.007 L63.5785 357.34 L68.2544 357.34 L68.2544 387.965 L75.8933 387.965 L75.8933 391.9 L55.986 391.9 L55.986 387.965 Z" fill="#000000" fill-rule="evenodd" fill-opacity="1" /><path clip-path="url(#clip170)" d="M85.3377 386.02 L90.2219 386.02 L90.2219 391.9 L85.3377 391.9 L85.3377 386.02 Z" fill="#000000" fill-rule="evenodd" fill-opacity="1" /><path clip-path="url(#clip170)" d="M104.435 387.965 L120.754 387.965 L120.754 391.9 L98.8098 391.9 L98.8098 387.965 Q101.472 385.21 106.055 380.581 Q110.662 375.928 111.842 374.585 Q114.088 372.062 114.967 370.326 Q115.87 368.567 115.87 366.877 Q115.87 364.122 113.925 362.386 Q112.004 360.65 108.902 360.65 Q106.703 360.65 104.25 361.414 Q101.819 362.178 99.0413 363.729 L99.0413 359.007 Q101.865 357.872 104.319 357.294 Q106.773 356.715 108.81 356.715 Q114.18 356.715 117.375 359.4 Q120.569 362.085 120.569 366.576 Q120.569 368.706 119.759 370.627 Q118.972 372.525 116.865 375.118 Q116.287 375.789 113.185 379.006 Q110.083 382.201 104.435 387.965 Z" fill="#000000" fill-rule="evenodd" fill-opacity="1" /><path clip-path="url(#clip170)" d="M53.9027 99.5279 L61.5415 99.5279 L61.5415 73.1623 L53.2314 74.829 L53.2314 70.5697 L61.4952 68.9031 L66.1711 68.9031 L66.1711 99.5279 L73.81 99.5279 L73.81 103.463 L53.9027 103.463 L53.9027 99.5279 Z" fill="#000000" fill-rule="evenodd" fill-opacity="1" /><path clip-path="url(#clip170)" d="M83.2544 97.5835 L88.1386 97.5835 L88.1386 103.463 L83.2544 103.463 L83.2544 97.5835 Z" fill="#000000" fill-rule="evenodd" fill-opacity="1" /><path clip-path="url(#clip170)" d="M111.171 72.9771 L99.3654 91.4261 L111.171 91.4261 L111.171 72.9771 M109.944 68.9031 L115.824 68.9031 L115.824 91.4261 L120.754 91.4261 L120.754 95.315 L115.824 95.315 L115.824 103.463 L111.171 103.463 L111.171 95.315 L95.5691 95.315 L95.5691 90.8011 L109.944 68.9031 Z" fill="#000000" fill-rule="evenodd" fill-opacity="1" /><path clip-path="url(#clip172)" d="
M214.789 663.057 L214.789 951.494 L214.789 374.62 L214.789 663.057 L551.267 663.057 L214.789 663.057  Z
  " fill="#009af9" fill-rule="evenodd" fill-opacity="1"/>
<polyline clip-path="url(#clip172)" style="stroke:#000000; stroke-linecap:round; stroke-linejoin:round; stroke-width:4; stroke-opacity:1; fill:none" points="
  214.789,663.057 214.789,951.494 214.789,374.62 214.789,663.057 551.267,663.057 214.789,663.057 
  "/>
<path clip-path="url(#clip172)" d="
M551.267 86.1831 L701.318 86.1831 L701.318 1239.93 L551.267 1239.93 L551.267 86.1831 L701.318 86.1831 L551.267 86.1831  Z
  " fill="#009af9" fill-rule="evenodd" fill-opacity="1"/>
<polyline clip-path="url(#clip172)" style="stroke:#000000; stroke-linecap:round; stroke-linejoin:round; stroke-width:4; stroke-opacity:1; fill:none" points="
  551.267,86.1831 701.318,86.1831 701.318,1239.93 551.267,1239.93 551.267,86.1831 701.318,86.1831 551.267,86.1831 
  "/>
<path clip-path="url(#clip172)" d="
M1335.62 86.1831 L1335.62 1239.93 L701.318 1239.93 L701.318 86.1831 L1335.62 86.1831 L1335.62 663.057 L1335.62 86.1831  Z
  " fill="#009af9" fill-rule="evenodd" fill-opacity="1"/>
<polyline clip-path="url(#clip172)" style="stroke:#000000; stroke-linecap:round; stroke-linejoin:round; stroke-width:4; stroke-opacity:1; fill:none" points="
  1335.62,86.1831 1335.62,1239.93 701.318,1239.93 701.318,86.1831 1335.62,86.1831 1335.62,663.057 1335.62,86.1831 
  "/>
<path clip-path="url(#clip172)" d="
M2197.28 663.057 L2197.28 951.494 L2197.28 374.62 L2197.28 663.057 L1335.62 663.057 L2197.28 663.057  Z
  " fill="#009af9" fill-rule="evenodd" fill-opacity="1"/>
<polyline clip-path="url(#clip172)" style="stroke:#000000; stroke-linecap:round; stroke-linejoin:round; stroke-width:4; stroke-opacity:1; fill:none" points="
  2197.28,663.057 2197.28,951.494 2197.28,374.62 2197.28,663.057 1335.62,663.057 2197.28,663.057 
  "/>
<polyline clip-path="url(#clip172)" style="stroke:#009af9; stroke-linecap:round; stroke-linejoin:round; stroke-width:0; stroke-opacity:1; fill:none" points="
  214.789,663.057 214.789,951.494 214.789,374.62 214.789,663.057 551.267,663.057 
  "/>
<polyline clip-path="url(#clip172)" style="stroke:#009af9; stroke-linecap:round; stroke-linejoin:round; stroke-width:0; stroke-opacity:1; fill:none" points="
  551.267,86.1831 701.318,86.1831 701.318,1239.93 551.267,1239.93 551.267,86.1831 701.318,86.1831 
  "/>
<polyline clip-path="url(#clip172)" style="stroke:#009af9; stroke-linecap:round; stroke-linejoin:round; stroke-width:0; stroke-opacity:1; fill:none" points="
  1335.62,86.1831 1335.62,1239.93 701.318,1239.93 701.318,86.1831 1335.62,86.1831 1335.62,663.057 
  "/>
<polyline clip-path="url(#clip172)" style="stroke:#009af9; stroke-linecap:round; stroke-linejoin:round; stroke-width:0; stroke-opacity:1; fill:none" points="
  2197.28,663.057 2197.28,951.494 2197.28,374.62 2197.28,663.057 1335.62,663.057 
  "/>
<circle clip-path="url(#clip172)" cx="217.029" cy="1384.15" r="14.4" fill="#ff0000" fill-rule="evenodd" fill-opacity="1" stroke="#000000" stroke-opacity="1" stroke-width="3.072"/>
<circle clip-path="url(#clip172)" cx="258.423" cy="1384.15" r="14.4" fill="#ff0000" fill-rule="evenodd" fill-opacity="1" stroke="#000000" stroke-opacity="1" stroke-width="3.072"/>
<circle clip-path="url(#clip172)" cx="546.055" cy="1384.15" r="14.4" fill="#ff0000" fill-rule="evenodd" fill-opacity="1" stroke="#000000" stroke-opacity="1" stroke-width="3.072"/>
<circle clip-path="url(#clip172)" cx="554.055" cy="1384.15" r="14.4" fill="#ffff00" fill-rule="evenodd" fill-opacity="1" stroke="#000000" stroke-opacity="1" stroke-width="3.072"/>
<circle clip-path="url(#clip172)" cx="656.18" cy="1384.15" r="14.4" fill="#ffff00" fill-rule="evenodd" fill-opacity="1" stroke="#000000" stroke-opacity="1" stroke-width="3.072"/>
<circle clip-path="url(#clip172)" cx="754.103" cy="1384.15" r="14.4" fill="#0000ff" fill-rule="evenodd" fill-opacity="1" stroke="#000000" stroke-opacity="1" stroke-width="3.072"/>
<circle clip-path="url(#clip172)" cx="965.941" cy="1384.15" r="14.4" fill="#0000ff" fill-rule="evenodd" fill-opacity="1" stroke="#000000" stroke-opacity="1" stroke-width="3.072"/>
<circle clip-path="url(#clip172)" cx="1460.77" cy="1384.15" r="14.4" fill="#ffc0cb" fill-rule="evenodd" fill-opacity="1" stroke="#000000" stroke-opacity="1" stroke-width="3.072"/>
<circle clip-path="url(#clip172)" cx="1673.17" cy="1384.15" r="14.4" fill="#ffc0cb" fill-rule="evenodd" fill-opacity="1" stroke="#000000" stroke-opacity="1" stroke-width="3.072"/>
<circle clip-path="url(#clip172)" cx="2196.41" cy="1384.15" r="14.4" fill="#ffc0cb" fill-rule="evenodd" fill-opacity="1" stroke="#000000" stroke-opacity="1" stroke-width="3.072"/>
</svg>
