<?xml version="1.0" encoding="utf-8"?>
<svg xmlns="http://www.w3.org/2000/svg" xmlns:xlink="http://www.w3.org/1999/xlink" width="576" height="384" viewBox="0 0 2304 1536">
<defs>
  <clipPath id="clip250">
    <rect x="0" y="0" width="2304" height="1536"/>
  </clipPath>
</defs>
<path clip-path="url(#clip250)" d="
M0 1536 L2304 1536 L2304 0 L0 0  Z
  " fill="#ffffff" fill-rule="evenodd" fill-opacity="1"/>
<defs>
  <clipPath id="clip251">
    <rect x="460" y="0" width="1614" height="1536"/>
  </clipPath>
</defs>
<path clip-path="url(#clip250)" d="
M215.962 1423.09 L2256.76 1423.09 L2256.76 47.2441 L215.962 47.2441  Z
  " fill="#ffffff" fill-rule="evenodd" fill-opacity="1"/>
<defs>
  <clipPath id="clip252">
    <rect x="215" y="47" width="2042" height="1377"/>
  </clipPath>
</defs>
<polyline clip-path="url(#clip252)" style="stroke:#000000; stroke-linecap:round; stroke-linejoin:round; stroke-width:2; stroke-opacity:0.1; fill:none" points="
  546.074,1423.09 546.074,47.2441 
  "/>
<polyline clip-path="url(#clip252)" style="stroke:#000000; stroke-linecap:round; stroke-linejoin:round; stroke-width:2; stroke-opacity:0.1; fill:none" points="
  923.279,1423.09 923.279,47.2441 
  "/>
<polyline clip-path="url(#clip252)" style="stroke:#000000; stroke-linecap:round; stroke-linejoin:round; stroke-width:2; stroke-opacity:0.1; fill:none" points="
  1300.48,1423.09 1300.48,47.2441 
  "/>
<polyline clip-path="url(#clip252)" style="stroke:#000000; stroke-linecap:round; stroke-linejoin:round; stroke-width:2; stroke-opacity:0.1; fill:none" points="
  1677.69,1423.09 1677.69,47.2441 
  "/>
<polyline clip-path="url(#clip252)" style="stroke:#000000; stroke-linecap:round; stroke-linejoin:round; stroke-width:2; stroke-opacity:0.1; fill:none" points="
  2054.89,1423.09 2054.89,47.2441 
  "/>
<polyline clip-path="url(#clip250)" style="stroke:#000000; stroke-linecap:round; stroke-linejoin:round; stroke-width:4; stroke-opacity:1; fill:none" points="
  215.962,1423.09 2256.76,1423.09 
  "/>
<polyline clip-path="url(#clip250)" style="stroke:#000000; stroke-linecap:round; stroke-linejoin:round; stroke-width:4; stroke-opacity:1; fill:none" points="
  546.074,1423.09 546.074,1404.19 
  "/>
<polyline clip-path="url(#clip250)" style="stroke:#000000; stroke-linecap:round; stroke-linejoin:round; stroke-width:4; stroke-opacity:1; fill:none" points="
  923.279,1423.09 923.279,1404.19 
  "/>
<polyline clip-path="url(#clip250)" style="stroke:#000000; stroke-linecap:round; stroke-linejoin:round; stroke-width:4; stroke-opacity:1; fill:none" points="
  1300.48,1423.09 1300.48,1404.19 
  "/>
<polyline clip-path="url(#clip250)" style="stroke:#000000; stroke-linecap:round; stroke-linejoin:round; stroke-width:4; stroke-opacity:1; fill:none" points="
  1677.69,1423.09 1677.69,1404.19 
  "/>
<polyline clip-path="url(#clip250)" style="stroke:#000000; stroke-linecap:round; stroke-linejoin:round; stroke-width:4; stroke-opacity:1; fill:none" points="
  2054.89,1423.09 2054.89,1404.19 
  "/>
<path clip-path="url(#clip250)" d="M546.074 1453.24 Q542.463 1453.24 540.634 1456.8 Q538.829 1460.35 538.829 1467.47 Q538.829 1474.58 540.634 1478.15 Q542.463 1481.69 546.074 1481.69 Q549.708 1481.69 551.514 1478.15 Q553.343 1474.58 553.343 1467.47 Q553.343 1460.35 551.514 1456.8 Q549.708 1453.24 546.074 1453.24 M546.074 1449.53 Q551.884 1449.53 554.94 1454.14 Q558.019 1458.72 558.019 1467.47 Q558.019 1476.2 554.94 1480.81 Q551.884 1485.39 546.074 1485.39 Q540.264 1485.39 537.185 1480.81 Q534.13 1476.2 534.13 1467.47 Q534.13 1458.72 537.185 1454.14 Q540.264 1449.53 546.074 1449.53 Z" fill="#000000" fill-rule="evenodd" fill-opacity="1" /><path clip-path="url(#clip250)" d="M882.886 1480.78 L890.525 1480.78 L890.525 1454.42 L882.214 1456.09 L882.214 1451.83 L890.478 1450.16 L895.154 1450.16 L895.154 1480.78 L902.793 1480.78 L902.793 1484.72 L882.886 1484.72 L882.886 1480.78 Z" fill="#000000" fill-rule="evenodd" fill-opacity="1" /><path clip-path="url(#clip250)" d="M922.237 1453.24 Q918.626 1453.24 916.798 1456.8 Q914.992 1460.35 914.992 1467.47 Q914.992 1474.58 916.798 1478.15 Q918.626 1481.69 922.237 1481.69 Q925.872 1481.69 927.677 1478.15 Q929.506 1474.58 929.506 1467.47 Q929.506 1460.35 927.677 1456.8 Q925.872 1453.24 922.237 1453.24 M922.237 1449.53 Q928.047 1449.53 931.103 1454.14 Q934.182 1458.72 934.182 1467.47 Q934.182 1476.2 931.103 1480.81 Q928.047 1485.39 922.237 1485.39 Q916.427 1485.39 913.348 1480.81 Q910.293 1476.2 910.293 1467.47 Q910.293 1458.72 913.348 1454.14 Q916.427 1449.53 922.237 1449.53 Z" fill="#000000" fill-rule="evenodd" fill-opacity="1" /><path clip-path="url(#clip250)" d="M952.399 1453.24 Q948.788 1453.24 946.959 1456.8 Q945.154 1460.35 945.154 1467.47 Q945.154 1474.58 946.959 1478.15 Q948.788 1481.69 952.399 1481.69 Q956.033 1481.69 957.839 1478.15 Q959.668 1474.58 959.668 1467.47 Q959.668 1460.35 957.839 1456.8 Q956.033 1453.24 952.399 1453.24 M952.399 1449.53 Q958.209 1449.53 961.265 1454.14 Q964.344 1458.72 964.344 1467.47 Q964.344 1476.2 961.265 1480.81 Q958.209 1485.39 952.399 1485.39 Q946.589 1485.39 943.51 1480.81 Q940.455 1476.2 940.455 1467.47 Q940.455 1458.72 943.51 1454.14 Q946.589 1449.53 952.399 1449.53 Z" fill="#000000" fill-rule="evenodd" fill-opacity="1" /><path clip-path="url(#clip250)" d="M1264.18 1480.78 L1280.5 1480.78 L1280.5 1484.72 L1258.55 1484.72 L1258.55 1480.78 Q1261.21 1478.03 1265.8 1473.4 Q1270.4 1468.75 1271.58 1467.41 Q1273.83 1464.88 1274.71 1463.15 Q1275.61 1461.39 1275.61 1459.7 Q1275.61 1456.94 1273.67 1455.21 Q1271.75 1453.47 1268.64 1453.47 Q1266.44 1453.47 1263.99 1454.23 Q1261.56 1455 1258.78 1456.55 L1258.78 1451.83 Q1261.61 1450.69 1264.06 1450.11 Q1266.51 1449.53 1268.55 1449.53 Q1273.92 1449.53 1277.12 1452.22 Q1280.31 1454.91 1280.31 1459.4 Q1280.31 1461.53 1279.5 1463.45 Q1278.71 1465.34 1276.61 1467.94 Q1276.03 1468.61 1272.93 1471.83 Q1269.82 1475.02 1264.18 1480.78 Z" fill="#000000" fill-rule="evenodd" fill-opacity="1" /><path clip-path="url(#clip250)" d="M1300.31 1453.24 Q1296.7 1453.24 1294.87 1456.8 Q1293.06 1460.35 1293.06 1467.47 Q1293.06 1474.58 1294.87 1478.15 Q1296.7 1481.69 1300.31 1481.69 Q1303.94 1481.69 1305.75 1478.15 Q1307.58 1474.58 1307.58 1467.47 Q1307.58 1460.35 1305.75 1456.8 Q1303.94 1453.24 1300.31 1453.24 M1300.31 1449.53 Q1306.12 1449.53 1309.18 1454.14 Q1312.25 1458.72 1312.25 1467.47 Q1312.25 1476.2 1309.18 1480.81 Q1306.12 1485.39 1300.31 1485.39 Q1294.5 1485.39 1291.42 1480.81 Q1288.37 1476.2 1288.37 1467.47 Q1288.37 1458.72 1291.42 1454.14 Q1294.5 1449.53 1300.31 1449.53 Z" fill="#000000" fill-rule="evenodd" fill-opacity="1" /><path clip-path="url(#clip250)" d="M1330.47 1453.24 Q1326.86 1453.24 1325.03 1456.8 Q1323.23 1460.35 1323.23 1467.47 Q1323.23 1474.58 1325.03 1478.15 Q1326.86 1481.69 1330.47 1481.69 Q1334.11 1481.69 1335.91 1478.15 Q1337.74 1474.58 1337.74 1467.47 Q1337.74 1460.35 1335.91 1456.8 Q1334.11 1453.24 1330.47 1453.24 M1330.47 1449.53 Q1336.28 1449.53 1339.34 1454.14 Q1342.42 1458.72 1342.42 1467.47 Q1342.42 1476.2 1339.34 1480.81 Q1336.28 1485.39 1330.47 1485.39 Q1324.66 1485.39 1321.58 1480.81 Q1318.53 1476.2 1318.53 1467.47 Q1318.53 1458.72 1321.58 1454.14 Q1324.66 1449.53 1330.47 1449.53 Z" fill="#000000" fill-rule="evenodd" fill-opacity="1" /><path clip-path="url(#clip250)" d="M1651.45 1466.09 Q1654.81 1466.8 1656.68 1469.07 Q1658.58 1471.34 1658.58 1474.67 Q1658.58 1479.79 1655.06 1482.59 Q1651.54 1485.39 1645.06 1485.39 Q1642.89 1485.39 1640.57 1484.95 Q1638.28 1484.53 1635.83 1483.68 L1635.83 1479.16 Q1637.77 1480.3 1640.08 1480.88 Q1642.4 1481.46 1644.92 1481.46 Q1649.32 1481.46 1651.61 1479.72 Q1653.93 1477.98 1653.93 1474.67 Q1653.93 1471.62 1651.77 1469.91 Q1649.64 1468.17 1645.83 1468.17 L1641.8 1468.17 L1641.8 1464.33 L1646.01 1464.33 Q1649.46 1464.33 1651.29 1462.96 Q1653.12 1461.57 1653.12 1458.98 Q1653.12 1456.32 1651.22 1454.91 Q1649.34 1453.47 1645.83 1453.47 Q1643.9 1453.47 1641.7 1453.89 Q1639.51 1454.3 1636.87 1455.18 L1636.87 1451.02 Q1639.53 1450.28 1641.84 1449.91 Q1644.18 1449.53 1646.24 1449.53 Q1651.57 1449.53 1654.67 1451.97 Q1657.77 1454.37 1657.77 1458.49 Q1657.77 1461.36 1656.13 1463.35 Q1654.48 1465.32 1651.45 1466.09 Z" fill="#000000" fill-rule="evenodd" fill-opacity="1" /><path clip-path="url(#clip250)" d="M1677.45 1453.24 Q1673.83 1453.24 1672.01 1456.8 Q1670.2 1460.35 1670.2 1467.47 Q1670.2 1474.58 1672.01 1478.15 Q1673.83 1481.69 1677.45 1481.69 Q1681.08 1481.69 1682.89 1478.15 Q1684.71 1474.58 1684.71 1467.47 Q1684.71 1460.35 1682.89 1456.8 Q1681.08 1453.24 1677.45 1453.24 M1677.45 1449.53 Q1683.26 1449.53 1686.31 1454.14 Q1689.39 1458.72 1689.39 1467.47 Q1689.39 1476.2 1686.31 1480.81 Q1683.26 1485.39 1677.45 1485.39 Q1671.64 1485.39 1668.56 1480.81 Q1665.5 1476.2 1665.5 1467.47 Q1665.5 1458.72 1668.56 1454.14 Q1671.64 1449.53 1677.45 1449.53 Z" fill="#000000" fill-rule="evenodd" fill-opacity="1" /><path clip-path="url(#clip250)" d="M1707.61 1453.24 Q1704 1453.24 1702.17 1456.8 Q1700.36 1460.35 1700.36 1467.47 Q1700.36 1474.58 1702.17 1478.15 Q1704 1481.69 1707.61 1481.69 Q1711.24 1481.69 1713.05 1478.15 Q1714.88 1474.58 1714.88 1467.47 Q1714.88 1460.35 1713.05 1456.8 Q1711.24 1453.24 1707.61 1453.24 M1707.61 1449.53 Q1713.42 1449.53 1716.47 1454.14 Q1719.55 1458.72 1719.55 1467.47 Q1719.55 1476.2 1716.47 1480.81 Q1713.42 1485.39 1707.61 1485.39 Q1701.8 1485.39 1698.72 1480.81 Q1695.66 1476.2 1695.66 1467.47 Q1695.66 1458.72 1698.72 1454.14 Q1701.8 1449.53 1707.61 1449.53 Z" fill="#000000" fill-rule="evenodd" fill-opacity="1" /><path clip-path="url(#clip250)" d="M2027.98 1454.23 L2016.18 1472.68 L2027.98 1472.68 L2027.98 1454.23 M2026.76 1450.16 L2032.64 1450.16 L2032.64 1472.68 L2037.57 1472.68 L2037.57 1476.57 L2032.64 1476.57 L2032.64 1484.72 L2027.98 1484.72 L2027.98 1476.57 L2012.38 1476.57 L2012.38 1472.06 L2026.76 1450.16 Z" fill="#000000" fill-rule="evenodd" fill-opacity="1" /><path clip-path="url(#clip250)" d="M2055.3 1453.24 Q2051.69 1453.24 2049.86 1456.8 Q2048.05 1460.35 2048.05 1467.47 Q2048.05 1474.58 2049.86 1478.15 Q2051.69 1481.69 2055.3 1481.69 Q2058.93 1481.69 2060.74 1478.15 Q2062.57 1474.58 2062.57 1467.47 Q2062.57 1460.35 2060.74 1456.8 Q2058.93 1453.24 2055.3 1453.24 M2055.3 1449.53 Q2061.11 1449.53 2064.16 1454.14 Q2067.24 1458.72 2067.24 1467.47 Q2067.24 1476.2 2064.16 1480.81 Q2061.11 1485.39 2055.3 1485.39 Q2049.49 1485.39 2046.41 1480.81 Q2043.35 1476.2 2043.35 1467.47 Q2043.35 1458.72 2046.41 1454.14 Q2049.49 1449.53 2055.3 1449.53 Z" fill="#000000" fill-rule="evenodd" fill-opacity="1" /><path clip-path="url(#clip250)" d="M2085.46 1453.24 Q2081.85 1453.24 2080.02 1456.8 Q2078.22 1460.35 2078.22 1467.47 Q2078.22 1474.58 2080.02 1478.15 Q2081.85 1481.69 2085.46 1481.69 Q2089.09 1481.69 2090.9 1478.15 Q2092.73 1474.58 2092.73 1467.47 Q2092.73 1460.35 2090.9 1456.8 Q2089.09 1453.24 2085.46 1453.24 M2085.46 1449.53 Q2091.27 1449.53 2094.33 1454.14 Q2097.4 1458.72 2097.4 1467.47 Q2097.4 1476.2 2094.33 1480.81 Q2091.27 1485.39 2085.46 1485.39 Q2079.65 1485.39 2076.57 1480.81 Q2073.52 1476.2 2073.52 1467.47 Q2073.52 1458.72 2076.57 1454.14 Q2079.65 1449.53 2085.46 1449.53 Z" fill="#000000" fill-rule="evenodd" fill-opacity="1" /><polyline clip-path="url(#clip252)" style="stroke:#000000; stroke-linecap:round; stroke-linejoin:round; stroke-width:2; stroke-opacity:0.1; fill:none" points="
  215.962,1384.15 2256.76,1384.15 
  "/>
<polyline clip-path="url(#clip252)" style="stroke:#000000; stroke-linecap:round; stroke-linejoin:round; stroke-width:2; stroke-opacity:0.1; fill:none" points="
  215.962,1059.66 2256.76,1059.66 
  "/>
<polyline clip-path="url(#clip252)" style="stroke:#000000; stroke-linecap:round; stroke-linejoin:round; stroke-width:2; stroke-opacity:0.1; fill:none" points="
  215.962,735.166 2256.76,735.166 
  "/>
<polyline clip-path="url(#clip252)" style="stroke:#000000; stroke-linecap:round; stroke-linejoin:round; stroke-width:2; stroke-opacity:0.1; fill:none" points="
  215.962,410.675 2256.76,410.675 
  "/>
<polyline clip-path="url(#clip252)" style="stroke:#000000; stroke-linecap:round; stroke-linejoin:round; stroke-width:2; stroke-opacity:0.1; fill:none" points="
  215.962,86.1831 2256.76,86.1831 
  "/>
<polyline clip-path="url(#clip250)" style="stroke:#000000; stroke-linecap:round; stroke-linejoin:round; stroke-width:4; stroke-opacity:1; fill:none" points="
  215.962,1423.09 215.962,47.2441 
  "/>
<polyline clip-path="url(#clip250)" style="stroke:#000000; stroke-linecap:round; stroke-linejoin:round; stroke-width:4; stroke-opacity:1; fill:none" points="
  215.962,1384.15 234.86,1384.15 
  "/>
<polyline clip-path="url(#clip250)" style="stroke:#000000; stroke-linecap:round; stroke-linejoin:round; stroke-width:4; stroke-opacity:1; fill:none" points="
  215.962,1059.66 234.86,1059.66 
  "/>
<polyline clip-path="url(#clip250)" style="stroke:#000000; stroke-linecap:round; stroke-linejoin:round; stroke-width:4; stroke-opacity:1; fill:none" points="
  215.962,735.166 234.86,735.166 
  "/>
<polyline clip-path="url(#clip250)" style="stroke:#000000; stroke-linecap:round; stroke-linejoin:round; stroke-width:4; stroke-opacity:1; fill:none" points="
  215.962,410.675 234.86,410.675 
  "/>
<polyline clip-path="url(#clip250)" style="stroke:#000000; stroke-linecap:round; stroke-linejoin:round; stroke-width:4; stroke-opacity:1; fill:none" points="
  215.962,86.1831 234.86,86.1831 
  "/>
<path clip-path="url(#clip250)" d="M63.9026 1369.95 Q60.2915 1369.95 58.4628 1373.51 Q56.6573 1377.05 56.6573 1384.18 Q56.6573 1391.29 58.4628 1394.85 Q60.2915 1398.4 63.9026 1398.4 Q67.5369 1398.4 69.3424 1394.85 Q71.1711 1391.29 71.1711 1384.18 Q71.1711 1377.05 69.3424 1373.51 Q67.5369 1369.95 63.9026 1369.95 M63.9026 1366.24 Q69.7128 1366.24 72.7683 1370.85 Q75.847 1375.43 75.847 1384.18 Q75.847 1392.91 72.7683 1397.52 Q69.7128 1402.1 63.9026 1402.1 Q58.0925 1402.1 55.0138 1397.52 Q51.9582 1392.91 51.9582 1384.18 Q51.9582 1375.43 55.0138 1370.85 Q58.0925 1366.24 63.9026 1366.24 Z" fill="#000000" fill-rule="evenodd" fill-opacity="1" /><path clip-path="url(#clip250)" d="M84.0645 1395.55 L88.9488 1395.55 L88.9488 1401.43 L84.0645 1401.43 L84.0645 1395.55 Z" fill="#000000" fill-rule="evenodd" fill-opacity="1" /><path clip-path="url(#clip250)" d="M109.134 1369.95 Q105.523 1369.95 103.694 1373.51 Q101.889 1377.05 101.889 1384.18 Q101.889 1391.29 103.694 1394.85 Q105.523 1398.4 109.134 1398.4 Q112.768 1398.4 114.574 1394.85 Q116.402 1391.29 116.402 1384.18 Q116.402 1377.05 114.574 1373.51 Q112.768 1369.95 109.134 1369.95 M109.134 1366.24 Q114.944 1366.24 118 1370.85 Q121.078 1375.43 121.078 1384.18 Q121.078 1392.91 118 1397.52 Q114.944 1402.1 109.134 1402.1 Q103.324 1402.1 100.245 1397.52 Q97.1895 1392.91 97.1895 1384.18 Q97.1895 1375.43 100.245 1370.85 Q103.324 1366.24 109.134 1366.24 Z" fill="#000000" fill-rule="evenodd" fill-opacity="1" /><path clip-path="url(#clip250)" d="M139.296 1369.95 Q135.685 1369.95 133.856 1373.51 Q132.05 1377.05 132.05 1384.18 Q132.05 1391.29 133.856 1394.85 Q135.685 1398.4 139.296 1398.4 Q142.93 1398.4 144.736 1394.85 Q146.564 1391.29 146.564 1384.18 Q146.564 1377.05 144.736 1373.51 Q142.93 1369.95 139.296 1369.95 M139.296 1366.24 Q145.106 1366.24 148.161 1370.85 Q151.24 1375.43 151.24 1384.18 Q151.24 1392.91 148.161 1397.52 Q145.106 1402.1 139.296 1402.1 Q133.486 1402.1 130.407 1397.52 Q127.351 1392.91 127.351 1384.18 Q127.351 1375.43 130.407 1370.85 Q133.486 1366.24 139.296 1366.24 Z" fill="#000000" fill-rule="evenodd" fill-opacity="1" /><path clip-path="url(#clip250)" d="M169.458 1369.95 Q165.847 1369.95 164.018 1373.51 Q162.212 1377.05 162.212 1384.18 Q162.212 1391.29 164.018 1394.85 Q165.847 1398.4 169.458 1398.4 Q173.092 1398.4 174.897 1394.85 Q176.726 1391.29 176.726 1384.18 Q176.726 1377.05 174.897 1373.51 Q173.092 1369.95 169.458 1369.95 M169.458 1366.24 Q175.268 1366.24 178.323 1370.85 Q181.402 1375.43 181.402 1384.18 Q181.402 1392.91 178.323 1397.52 Q175.268 1402.1 169.458 1402.1 Q163.647 1402.1 160.569 1397.52 Q157.513 1392.91 157.513 1384.18 Q157.513 1375.43 160.569 1370.85 Q163.647 1366.24 169.458 1366.24 Z" fill="#000000" fill-rule="evenodd" fill-opacity="1" /><path clip-path="url(#clip250)" d="M65.4998 1045.46 Q61.8887 1045.46 60.06 1049.02 Q58.2545 1052.56 58.2545 1059.69 Q58.2545 1066.8 60.06 1070.36 Q61.8887 1073.91 65.4998 1073.91 Q69.1341 1073.91 70.9396 1070.36 Q72.7683 1066.8 72.7683 1059.69 Q72.7683 1052.56 70.9396 1049.02 Q69.1341 1045.46 65.4998 1045.46 M65.4998 1041.75 Q71.31 1041.75 74.3655 1046.36 Q77.4442 1050.94 77.4442 1059.69 Q77.4442 1068.42 74.3655 1073.03 Q71.31 1077.61 65.4998 1077.61 Q59.6897 1077.61 56.611 1073.03 Q53.5554 1068.42 53.5554 1059.69 Q53.5554 1050.94 56.611 1046.36 Q59.6897 1041.75 65.4998 1041.75 Z" fill="#000000" fill-rule="evenodd" fill-opacity="1" /><path clip-path="url(#clip250)" d="M85.6618 1071.06 L90.546 1071.06 L90.546 1076.94 L85.6618 1076.94 L85.6618 1071.06 Z" fill="#000000" fill-rule="evenodd" fill-opacity="1" /><path clip-path="url(#clip250)" d="M110.731 1045.46 Q107.12 1045.46 105.291 1049.02 Q103.486 1052.56 103.486 1059.69 Q103.486 1066.8 105.291 1070.36 Q107.12 1073.91 110.731 1073.91 Q114.365 1073.91 116.171 1070.36 Q118 1066.8 118 1059.69 Q118 1052.56 116.171 1049.02 Q114.365 1045.46 110.731 1045.46 M110.731 1041.75 Q116.541 1041.75 119.597 1046.36 Q122.675 1050.94 122.675 1059.69 Q122.675 1068.42 119.597 1073.03 Q116.541 1077.61 110.731 1077.61 Q104.921 1077.61 101.842 1073.03 Q98.7867 1068.42 98.7867 1059.69 Q98.7867 1050.94 101.842 1046.36 Q104.921 1041.75 110.731 1041.75 Z" fill="#000000" fill-rule="evenodd" fill-opacity="1" /><path clip-path="url(#clip250)" d="M140.893 1045.46 Q137.282 1045.46 135.453 1049.02 Q133.648 1052.56 133.648 1059.69 Q133.648 1066.8 135.453 1070.36 Q137.282 1073.91 140.893 1073.91 Q144.527 1073.91 146.333 1070.36 Q148.161 1066.8 148.161 1059.69 Q148.161 1052.56 146.333 1049.02 Q144.527 1045.46 140.893 1045.46 M140.893 1041.75 Q146.703 1041.75 149.759 1046.36 Q152.837 1050.94 152.837 1059.69 Q152.837 1068.42 149.759 1073.03 Q146.703 1077.61 140.893 1077.61 Q135.083 1077.61 132.004 1073.03 Q128.949 1068.42 128.949 1059.69 Q128.949 1050.94 132.004 1046.36 Q135.083 1041.75 140.893 1041.75 Z" fill="#000000" fill-rule="evenodd" fill-opacity="1" /><path clip-path="url(#clip250)" d="M165.083 1073 L181.402 1073 L181.402 1076.94 L159.458 1076.94 L159.458 1073 Q162.12 1070.25 166.703 1065.62 Q171.309 1060.97 172.49 1059.62 Q174.735 1057.1 175.615 1055.36 Q176.518 1053.6 176.518 1051.91 Q176.518 1049.16 174.573 1047.42 Q172.652 1045.69 169.55 1045.69 Q167.351 1045.69 164.897 1046.45 Q162.467 1047.22 159.689 1048.77 L159.689 1044.04 Q162.513 1042.91 164.967 1042.33 Q167.421 1041.75 169.458 1041.75 Q174.828 1041.75 178.022 1044.44 Q181.217 1047.12 181.217 1051.61 Q181.217 1053.74 180.407 1055.66 Q179.62 1057.56 177.513 1060.16 Q176.934 1060.83 173.833 1064.04 Q170.731 1067.24 165.083 1073 Z" fill="#000000" fill-rule="evenodd" fill-opacity="1" /><path clip-path="url(#clip250)" d="M63.4165 720.965 Q59.8054 720.965 57.9767 724.529 Q56.1712 728.071 56.1712 735.201 Q56.1712 742.307 57.9767 745.872 Q59.8054 749.414 63.4165 749.414 Q67.0507 749.414 68.8563 745.872 Q70.685 742.307 70.685 735.201 Q70.685 728.071 68.8563 724.529 Q67.0507 720.965 63.4165 720.965 M63.4165 717.261 Q69.2267 717.261 72.2822 721.867 Q75.3609 726.451 75.3609 735.201 Q75.3609 743.928 72.2822 748.534 Q69.2267 753.117 63.4165 753.117 Q57.6064 753.117 54.5277 748.534 Q51.4721 743.928 51.4721 735.201 Q51.4721 726.451 54.5277 721.867 Q57.6064 717.261 63.4165 717.261 Z" fill="#000000" fill-rule="evenodd" fill-opacity="1" /><path clip-path="url(#clip250)" d="M83.5784 746.566 L88.4627 746.566 L88.4627 752.446 L83.5784 752.446 L83.5784 746.566 Z" fill="#000000" fill-rule="evenodd" fill-opacity="1" /><path clip-path="url(#clip250)" d="M108.648 720.965 Q105.037 720.965 103.208 724.529 Q101.402 728.071 101.402 735.201 Q101.402 742.307 103.208 745.872 Q105.037 749.414 108.648 749.414 Q112.282 749.414 114.088 745.872 Q115.916 742.307 115.916 735.201 Q115.916 728.071 114.088 724.529 Q112.282 720.965 108.648 720.965 M108.648 717.261 Q114.458 717.261 117.513 721.867 Q120.592 726.451 120.592 735.201 Q120.592 743.928 117.513 748.534 Q114.458 753.117 108.648 753.117 Q102.838 753.117 99.7589 748.534 Q96.7034 743.928 96.7034 735.201 Q96.7034 726.451 99.7589 721.867 Q102.838 717.261 108.648 717.261 Z" fill="#000000" fill-rule="evenodd" fill-opacity="1" /><path clip-path="url(#clip250)" d="M138.81 720.965 Q135.199 720.965 133.37 724.529 Q131.564 728.071 131.564 735.201 Q131.564 742.307 133.37 745.872 Q135.199 749.414 138.81 749.414 Q142.444 749.414 144.249 745.872 Q146.078 742.307 146.078 735.201 Q146.078 728.071 144.249 724.529 Q142.444 720.965 138.81 720.965 M138.81 717.261 Q144.62 717.261 147.675 721.867 Q150.754 726.451 150.754 735.201 Q150.754 743.928 147.675 748.534 Q144.62 753.117 138.81 753.117 Q132.999 753.117 129.921 748.534 Q126.865 743.928 126.865 735.201 Q126.865 726.451 129.921 721.867 Q132.999 717.261 138.81 717.261 Z" fill="#000000" fill-rule="evenodd" fill-opacity="1" /><path clip-path="url(#clip250)" d="M171.819 721.96 L160.013 740.409 L171.819 740.409 L171.819 721.96 M170.592 717.886 L176.471 717.886 L176.471 740.409 L181.402 740.409 L181.402 744.298 L176.471 744.298 L176.471 752.446 L171.819 752.446 L171.819 744.298 L156.217 744.298 L156.217 739.784 L170.592 717.886 Z" fill="#000000" fill-rule="evenodd" fill-opacity="1" /><path clip-path="url(#clip250)" d="M63.7406 396.473 Q60.1295 396.473 58.3008 400.038 Q56.4952 403.58 56.4952 410.709 Q56.4952 417.816 58.3008 421.38 Q60.1295 424.922 63.7406 424.922 Q67.3748 424.922 69.1804 421.38 Q71.0091 417.816 71.0091 410.709 Q71.0091 403.58 69.1804 400.038 Q67.3748 396.473 63.7406 396.473 M63.7406 392.77 Q69.5507 392.77 72.6063 397.376 Q75.685 401.959 75.685 410.709 Q75.685 419.436 72.6063 424.043 Q69.5507 428.626 63.7406 428.626 Q57.9304 428.626 54.8517 424.043 Q51.7962 419.436 51.7962 410.709 Q51.7962 401.959 54.8517 397.376 Q57.9304 392.77 63.7406 392.77 Z" fill="#000000" fill-rule="evenodd" fill-opacity="1" /><path clip-path="url(#clip250)" d="M83.9025 422.075 L88.7867 422.075 L88.7867 427.955 L83.9025 427.955 L83.9025 422.075 Z" fill="#000000" fill-rule="evenodd" fill-opacity="1" /><path clip-path="url(#clip250)" d="M108.972 396.473 Q105.361 396.473 103.532 400.038 Q101.726 403.58 101.726 410.709 Q101.726 417.816 103.532 421.38 Q105.361 424.922 108.972 424.922 Q112.606 424.922 114.412 421.38 Q116.24 417.816 116.24 410.709 Q116.24 403.58 114.412 400.038 Q112.606 396.473 108.972 396.473 M108.972 392.77 Q114.782 392.77 117.838 397.376 Q120.916 401.959 120.916 410.709 Q120.916 419.436 117.838 424.043 Q114.782 428.626 108.972 428.626 Q103.162 428.626 100.083 424.043 Q97.0274 419.436 97.0274 410.709 Q97.0274 401.959 100.083 397.376 Q103.162 392.77 108.972 392.77 Z" fill="#000000" fill-rule="evenodd" fill-opacity="1" /><path clip-path="url(#clip250)" d="M139.134 396.473 Q135.523 396.473 133.694 400.038 Q131.888 403.58 131.888 410.709 Q131.888 417.816 133.694 421.38 Q135.523 424.922 139.134 424.922 Q142.768 424.922 144.573 421.38 Q146.402 417.816 146.402 410.709 Q146.402 403.58 144.573 400.038 Q142.768 396.473 139.134 396.473 M139.134 392.77 Q144.944 392.77 147.999 397.376 Q151.078 401.959 151.078 410.709 Q151.078 419.436 147.999 424.043 Q144.944 428.626 139.134 428.626 Q133.324 428.626 130.245 424.043 Q127.189 419.436 127.189 410.709 Q127.189 401.959 130.245 397.376 Q133.324 392.77 139.134 392.77 Z" fill="#000000" fill-rule="evenodd" fill-opacity="1" /><path clip-path="url(#clip250)" d="M169.874 408.811 Q166.726 408.811 164.874 410.964 Q163.046 413.117 163.046 416.867 Q163.046 420.593 164.874 422.769 Q166.726 424.922 169.874 424.922 Q173.022 424.922 174.851 422.769 Q176.703 420.593 176.703 416.867 Q176.703 413.117 174.851 410.964 Q173.022 408.811 169.874 408.811 M179.157 394.158 L179.157 398.418 Q177.397 397.584 175.592 397.145 Q173.809 396.705 172.05 396.705 Q167.421 396.705 164.967 399.83 Q162.536 402.955 162.189 409.274 Q163.555 407.26 165.615 406.195 Q167.675 405.107 170.152 405.107 Q175.36 405.107 178.37 408.279 Q181.402 411.427 181.402 416.867 Q181.402 422.191 178.254 425.408 Q175.106 428.626 169.874 428.626 Q163.879 428.626 160.708 424.043 Q157.536 419.436 157.536 410.709 Q157.536 402.515 161.425 397.654 Q165.314 392.77 171.865 392.77 Q173.624 392.77 175.407 393.117 Q177.212 393.464 179.157 394.158 Z" fill="#000000" fill-rule="evenodd" fill-opacity="1" /><path clip-path="url(#clip250)" d="M63.9952 71.9818 Q60.3841 71.9818 58.5554 75.5466 Q56.7499 79.0882 56.7499 86.2178 Q56.7499 93.3242 58.5554 96.889 Q60.3841 100.431 63.9952 100.431 Q67.6294 100.431 69.435 96.889 Q71.2637 93.3242 71.2637 86.2178 Q71.2637 79.0882 69.435 75.5466 Q67.6294 71.9818 63.9952 71.9818 M63.9952 68.2781 Q69.8054 68.2781 72.8609 72.8845 Q75.9396 77.4678 75.9396 86.2178 Q75.9396 94.9446 72.8609 99.5511 Q69.8054 104.134 63.9952 104.134 Q58.1851 104.134 55.1064 99.5511 Q52.0508 94.9446 52.0508 86.2178 Q52.0508 77.4678 55.1064 72.8845 Q58.1851 68.2781 63.9952 68.2781 Z" fill="#000000" fill-rule="evenodd" fill-opacity="1" /><path clip-path="url(#clip250)" d="M84.1571 97.5835 L89.0414 97.5835 L89.0414 103.463 L84.1571 103.463 L84.1571 97.5835 Z" fill="#000000" fill-rule="evenodd" fill-opacity="1" /><path clip-path="url(#clip250)" d="M109.226 71.9818 Q105.615 71.9818 103.787 75.5466 Q101.981 79.0882 101.981 86.2178 Q101.981 93.3242 103.787 96.889 Q105.615 100.431 109.226 100.431 Q112.861 100.431 114.666 96.889 Q116.495 93.3242 116.495 86.2178 Q116.495 79.0882 114.666 75.5466 Q112.861 71.9818 109.226 71.9818 M109.226 68.2781 Q115.037 68.2781 118.092 72.8845 Q121.171 77.4678 121.171 86.2178 Q121.171 94.9446 118.092 99.5511 Q115.037 104.134 109.226 104.134 Q103.416 104.134 100.338 99.5511 Q97.2821 94.9446 97.2821 86.2178 Q97.2821 77.4678 100.338 72.8845 Q103.416 68.2781 109.226 68.2781 Z" fill="#000000" fill-rule="evenodd" fill-opacity="1" /><path clip-path="url(#clip250)" d="M139.388 71.9818 Q135.777 71.9818 133.949 75.5466 Q132.143 79.0882 132.143 86.2178 Q132.143 93.3242 133.949 96.889 Q135.777 100.431 139.388 100.431 Q143.023 100.431 144.828 96.889 Q146.657 93.3242 146.657 86.2178 Q146.657 79.0882 144.828 75.5466 Q143.023 71.9818 139.388 71.9818 M139.388 68.2781 Q145.198 68.2781 148.254 72.8845 Q151.333 77.4678 151.333 86.2178 Q151.333 94.9446 148.254 99.5511 Q145.198 104.134 139.388 104.134 Q133.578 104.134 130.499 99.5511 Q127.444 94.9446 127.444 86.2178 Q127.444 77.4678 130.499 72.8845 Q133.578 68.2781 139.388 68.2781 Z" fill="#000000" fill-rule="evenodd" fill-opacity="1" /><path clip-path="url(#clip250)" d="M169.55 87.0511 Q166.217 87.0511 164.296 88.8335 Q162.397 90.6159 162.397 93.7409 Q162.397 96.8659 164.296 98.6483 Q166.217 100.431 169.55 100.431 Q172.884 100.431 174.805 98.6483 Q176.726 96.8427 176.726 93.7409 Q176.726 90.6159 174.805 88.8335 Q172.907 87.0511 169.55 87.0511 M164.874 85.0604 Q161.865 84.3197 160.175 82.2595 Q158.509 80.1993 158.509 77.2364 Q158.509 73.0929 161.448 70.6855 Q164.411 68.2781 169.55 68.2781 Q174.712 68.2781 177.652 70.6855 Q180.592 73.0929 180.592 77.2364 Q180.592 80.1993 178.902 82.2595 Q177.235 84.3197 174.249 85.0604 Q177.629 85.8474 179.504 88.1391 Q181.402 90.4307 181.402 93.7409 Q181.402 98.764 178.323 101.449 Q175.268 104.134 169.55 104.134 Q163.833 104.134 160.754 101.449 Q157.698 98.764 157.698 93.7409 Q157.698 90.4307 159.597 88.1391 Q161.495 85.8474 164.874 85.0604 M163.161 77.6762 Q163.161 80.3613 164.828 81.866 Q166.518 83.3706 169.55 83.3706 Q172.559 83.3706 174.249 81.866 Q175.962 80.3613 175.962 77.6762 Q175.962 74.991 174.249 73.4864 Q172.559 71.9818 169.55 71.9818 Q166.518 71.9818 164.828 73.4864 Q163.161 74.991 163.161 77.6762 Z" fill="#000000" fill-rule="evenodd" fill-opacity="1" /><polyline clip-path="url(#clip252)" style="stroke:#009af9; stroke-linecap:round; stroke-linejoin:round; stroke-width:4; stroke-opacity:0.75; fill:none" points="
  734.677,1384.15 734.677,735.166 923.279,735.166 923.279,86.1831 1111.88,86.1831 1111.88,1059.66 1300.48,1059.66 1300.48,735.166 1489.09,735.166 1489.09,1059.66 
  1677.69,1059.66 1677.69,1384.15 
  "/>
<polyline clip-path="url(#clip252)" style="stroke:#e26f46; stroke-linecap:round; stroke-linejoin:round; stroke-width:20; stroke-opacity:1; fill:none" points="
  273.72,1384.01 283.395,1383.99 293.07,1383.96 302.745,1383.91 312.419,1383.85 322.094,1383.77 331.769,1383.66 341.444,1383.52 351.118,1383.35 360.793,1383.13 
  370.468,1382.85 380.143,1382.51 389.817,1382.09 399.492,1381.57 409.167,1380.93 418.842,1380.16 428.516,1379.22 438.191,1378.09 447.866,1376.73 457.541,1375.11 
  467.216,1373.19 476.89,1370.93 486.565,1368.27 496.24,1365.16 505.915,1361.54 515.589,1357.36 525.264,1352.54 534.939,1347.03 544.614,1340.75 554.288,1333.63 
  563.963,1325.6 573.638,1316.58 583.313,1306.51 592.987,1295.33 602.662,1282.96 612.337,1269.35 622.012,1254.46 631.686,1238.23 641.361,1220.64 651.036,1201.67 
  660.711,1181.3 670.385,1159.54 680.06,1136.4 689.735,1111.93 699.41,1086.17 709.085,1059.18 718.759,1031.03 728.434,1001.83 738.109,971.691 747.784,940.724 
  757.458,909.071 767.133,876.883 776.808,844.32 786.483,811.553 796.157,778.763 805.832,746.137 815.507,713.868 825.182,682.152 834.856,651.189 844.531,621.179 
  854.206,592.32 863.881,564.806 873.555,538.827 883.23,514.566 892.905,492.196 902.58,471.879 912.254,453.763 921.929,437.981 931.604,424.651 941.279,413.868 
  950.954,405.709 960.628,400.227 970.303,397.451 979.978,397.386 989.653,400.011 999.327,405.276 1009,413.108 1018.68,423.406 1028.35,436.043 1038.03,450.869 
  1047.7,467.709 1057.38,486.372 1067.05,506.643 1076.73,528.298 1086.4,551.096 1096.07,574.791 1105.75,599.131 1115.42,623.864 1125.1,648.741 1134.77,673.52 
  1144.45,697.97 1154.12,721.875 1163.8,745.036 1173.47,767.276 1183.15,788.439 1192.82,808.397 1202.5,827.048 1212.17,844.317 1221.85,860.156 1231.52,874.548 
  1241.2,887.5 1250.87,899.046 1260.55,909.243 1270.22,918.17 1279.9,925.923 1289.57,932.614 1299.24,938.367 1308.92,943.314 1318.59,947.593 1328.27,951.341 
  1337.94,954.694 1347.62,957.782 1357.29,960.729 1366.97,963.644 1376.64,966.628 1386.32,969.765 1395.99,973.125 1405.67,976.76 1415.34,980.709 1425.02,984.997 
  1434.69,989.63 1444.37,994.608 1454.04,999.915 1463.72,1005.53 1473.39,1011.42 1483.07,1017.56 1492.74,1023.91 1502.41,1030.43 1512.09,1037.09 1521.76,1043.87 
  1531.44,1050.73 1541.11,1057.66 1550.79,1064.65 1560.46,1071.69 1570.14,1078.79 1579.81,1085.94 1589.49,1093.17 1599.16,1100.49 1608.84,1107.92 1618.51,1115.48 
  1628.19,1123.19 1637.86,1131.07 1647.54,1139.13 1657.21,1147.39 1666.89,1155.86 1676.56,1164.52 1686.24,1173.38 1695.91,1182.43 1705.58,1191.63 1715.26,1200.97 
  1724.93,1210.42 1734.61,1219.92 1744.28,1229.44 1753.96,1238.94 1763.63,1248.36 1773.31,1257.66 1782.98,1266.78 1792.66,1275.69 1802.33,1284.34 1812.01,1292.68 
  1821.68,1300.69 1831.36,1308.32 1841.03,1315.56 1850.71,1322.39 1860.38,1328.79 1870.06,1334.75 1879.73,1340.27 1889.41,1345.35 1899.08,1350 1908.75,1354.24 
  1918.43,1358.07 1928.1,1361.52 1937.78,1364.61 1947.45,1367.36 1957.13,1369.79 1966.8,1371.92 1976.48,1373.79 1986.15,1375.42 1995.83,1376.82 2005.5,1378.03 
  2015.18,1379.07 2024.85,1379.95 2034.53,1380.69 2044.2,1381.32 2053.88,1381.84 2063.55,1382.28 2073.23,1382.64 2082.9,1382.93 2092.58,1383.18 2102.25,1383.38 
  2111.92,1383.53 2121.6,1383.66 2131.27,1383.76 2140.95,1383.84 2150.62,1383.91 2160.3,1383.95 2169.97,1383.98 2179.65,1384.01 2189.32,1384.02 2199,1384.02 
  
  "/>
</svg>
