<?xml version="1.0" encoding="utf-8"?>
<svg xmlns="http://www.w3.org/2000/svg" xmlns:xlink="http://www.w3.org/1999/xlink" width="672" height="480" viewBox="0 0 2688 1920">
<defs>
  <clipPath id="clip130">
    <rect x="0" y="0" width="2688" height="1920"/>
  </clipPath>
</defs>
<path clip-path="url(#clip130)" d="
M0 1920 L2688 1920 L2688 0 L0 0  Z
  " fill="#ffffff" fill-rule="evenodd" fill-opacity="1"/>
<defs>
  <clipPath id="clip131">
    <rect x="537" y="0" width="1883" height="1883"/>
  </clipPath>
</defs>
<path clip-path="url(#clip130)" d="
M188.807 1800.78 L2640.76 1800.78 L2640.76 47.2441 L188.807 47.2441  Z
  " fill="#ffffff" fill-rule="evenodd" fill-opacity="1"/>
<defs>
  <clipPath id="clip132">
    <rect x="188" y="47" width="2453" height="1755"/>
  </clipPath>
</defs>
<polyline clip-path="url(#clip132)" style="stroke:#000000; stroke-linecap:round; stroke-linejoin:round; stroke-width:2; stroke-opacity:0.1; fill:none" points="
  537.33,1800.78 537.33,47.2441 
  "/>
<polyline clip-path="url(#clip132)" style="stroke:#000000; stroke-linecap:round; stroke-linejoin:round; stroke-width:2; stroke-opacity:0.1; fill:none" points="
  1069.66,1800.78 1069.66,47.2441 
  "/>
<polyline clip-path="url(#clip132)" style="stroke:#000000; stroke-linecap:round; stroke-linejoin:round; stroke-width:2; stroke-opacity:0.1; fill:none" points="
  1601.98,1800.78 1601.98,47.2441 
  "/>
<polyline clip-path="url(#clip132)" style="stroke:#000000; stroke-linecap:round; stroke-linejoin:round; stroke-width:2; stroke-opacity:0.1; fill:none" points="
  2134.31,1800.78 2134.31,47.2441 
  "/>
<polyline clip-path="url(#clip130)" style="stroke:#000000; stroke-linecap:round; stroke-linejoin:round; stroke-width:4; stroke-opacity:1; fill:none" points="
  188.807,1800.78 2640.76,1800.78 
  "/>
<polyline clip-path="url(#clip130)" style="stroke:#000000; stroke-linecap:round; stroke-linejoin:round; stroke-width:4; stroke-opacity:1; fill:none" points="
  537.33,1800.78 537.33,1781.88 
  "/>
<polyline clip-path="url(#clip130)" style="stroke:#000000; stroke-linecap:round; stroke-linejoin:round; stroke-width:4; stroke-opacity:1; fill:none" points="
  1069.66,1800.78 1069.66,1781.88 
  "/>
<polyline clip-path="url(#clip130)" style="stroke:#000000; stroke-linecap:round; stroke-linejoin:round; stroke-width:4; stroke-opacity:1; fill:none" points="
  1601.98,1800.78 1601.98,1781.88 
  "/>
<polyline clip-path="url(#clip130)" style="stroke:#000000; stroke-linecap:round; stroke-linejoin:round; stroke-width:4; stroke-opacity:1; fill:none" points="
  2134.31,1800.78 2134.31,1781.88 
  "/>
<path clip-path="url(#clip130)" d="M496.937 1861.55 L504.575 1861.55 L504.575 1835.18 L496.265 1836.85 L496.265 1832.59 L504.529 1830.92 L509.205 1830.92 L509.205 1861.55 L516.844 1861.55 L516.844 1865.48 L496.937 1865.48 L496.937 1861.55 Z" fill="#000000" fill-rule="evenodd" fill-opacity="1" /><path clip-path="url(#clip130)" d="M536.288 1834 Q532.677 1834 530.848 1837.57 Q529.043 1841.11 529.043 1848.24 Q529.043 1855.34 530.848 1858.91 Q532.677 1862.45 536.288 1862.45 Q539.922 1862.45 541.728 1858.91 Q543.557 1855.34 543.557 1848.24 Q543.557 1841.11 541.728 1837.57 Q539.922 1834 536.288 1834 M536.288 1830.3 Q542.098 1830.3 545.154 1834.9 Q548.233 1839.49 548.233 1848.24 Q548.233 1856.96 545.154 1861.57 Q542.098 1866.15 536.288 1866.15 Q530.478 1866.15 527.399 1861.57 Q524.344 1856.96 524.344 1848.24 Q524.344 1839.49 527.399 1834.9 Q530.478 1830.3 536.288 1830.3 Z" fill="#000000" fill-rule="evenodd" fill-opacity="1" /><path clip-path="url(#clip130)" d="M566.45 1834 Q562.839 1834 561.01 1837.57 Q559.205 1841.11 559.205 1848.24 Q559.205 1855.34 561.01 1858.91 Q562.839 1862.45 566.45 1862.45 Q570.084 1862.45 571.89 1858.91 Q573.719 1855.34 573.719 1848.24 Q573.719 1841.11 571.89 1837.57 Q570.084 1834 566.45 1834 M566.45 1830.3 Q572.26 1830.3 575.316 1834.9 Q578.395 1839.49 578.395 1848.24 Q578.395 1856.96 575.316 1861.57 Q572.26 1866.15 566.45 1866.15 Q560.64 1866.15 557.561 1861.57 Q554.506 1856.96 554.506 1848.24 Q554.506 1839.49 557.561 1834.9 Q560.64 1830.3 566.45 1830.3 Z" fill="#000000" fill-rule="evenodd" fill-opacity="1" /><path clip-path="url(#clip130)" d="M1029.26 1861.55 L1036.9 1861.55 L1036.9 1835.18 L1028.59 1836.85 L1028.59 1832.59 L1036.85 1830.92 L1041.53 1830.92 L1041.53 1861.55 L1049.17 1861.55 L1049.17 1865.48 L1029.26 1865.48 L1029.26 1861.55 Z" fill="#000000" fill-rule="evenodd" fill-opacity="1" /><path clip-path="url(#clip130)" d="M1058.66 1830.92 L1077.02 1830.92 L1077.02 1834.86 L1062.94 1834.86 L1062.94 1843.33 Q1063.96 1842.98 1064.98 1842.82 Q1066 1842.64 1067.02 1842.64 Q1072.8 1842.64 1076.18 1845.81 Q1079.56 1848.98 1079.56 1854.4 Q1079.56 1859.97 1076.09 1863.08 Q1072.62 1866.15 1066.3 1866.15 Q1064.12 1866.15 1061.85 1865.78 Q1059.61 1865.41 1057.2 1864.67 L1057.2 1859.97 Q1059.29 1861.11 1061.51 1861.66 Q1063.73 1862.22 1066.21 1862.22 Q1070.21 1862.22 1072.55 1860.11 Q1074.89 1858.01 1074.89 1854.4 Q1074.89 1850.78 1072.55 1848.68 Q1070.21 1846.57 1066.21 1846.57 Q1064.33 1846.57 1062.46 1846.99 Q1060.6 1847.4 1058.66 1848.28 L1058.66 1830.92 Z" fill="#000000" fill-rule="evenodd" fill-opacity="1" /><path clip-path="url(#clip130)" d="M1098.78 1834 Q1095.16 1834 1093.34 1837.57 Q1091.53 1841.11 1091.53 1848.24 Q1091.53 1855.34 1093.34 1858.91 Q1095.16 1862.45 1098.78 1862.45 Q1102.41 1862.45 1104.22 1858.91 Q1106.04 1855.34 1106.04 1848.24 Q1106.04 1841.11 1104.22 1837.57 Q1102.41 1834 1098.78 1834 M1098.78 1830.3 Q1104.59 1830.3 1107.64 1834.9 Q1110.72 1839.49 1110.72 1848.24 Q1110.72 1856.96 1107.64 1861.57 Q1104.59 1866.15 1098.78 1866.15 Q1092.97 1866.15 1089.89 1861.57 Q1086.83 1856.96 1086.83 1848.24 Q1086.83 1839.49 1089.89 1834.9 Q1092.97 1830.3 1098.78 1830.3 Z" fill="#000000" fill-rule="evenodd" fill-opacity="1" /><path clip-path="url(#clip130)" d="M1565.67 1861.55 L1581.99 1861.55 L1581.99 1865.48 L1560.05 1865.48 L1560.05 1861.55 Q1562.71 1858.79 1567.29 1854.16 Q1571.9 1849.51 1573.08 1848.17 Q1575.33 1845.65 1576.21 1843.91 Q1577.11 1842.15 1577.11 1840.46 Q1577.11 1837.71 1575.16 1835.97 Q1573.24 1834.23 1570.14 1834.23 Q1567.94 1834.23 1565.49 1835 Q1563.06 1835.76 1560.28 1837.31 L1560.28 1832.59 Q1563.1 1831.46 1565.56 1830.88 Q1568.01 1830.3 1570.05 1830.3 Q1575.42 1830.3 1578.61 1832.98 Q1581.81 1835.67 1581.81 1840.16 Q1581.81 1842.29 1581 1844.21 Q1580.21 1846.11 1578.1 1848.7 Q1577.53 1849.37 1574.42 1852.59 Q1571.32 1855.78 1565.67 1861.55 Z" fill="#000000" fill-rule="evenodd" fill-opacity="1" /><path clip-path="url(#clip130)" d="M1601.81 1834 Q1598.2 1834 1596.37 1837.57 Q1594.56 1841.11 1594.56 1848.24 Q1594.56 1855.34 1596.37 1858.91 Q1598.2 1862.45 1601.81 1862.45 Q1605.44 1862.45 1607.25 1858.91 Q1609.08 1855.34 1609.08 1848.24 Q1609.08 1841.11 1607.25 1837.57 Q1605.44 1834 1601.81 1834 M1601.81 1830.3 Q1607.62 1830.3 1610.67 1834.9 Q1613.75 1839.49 1613.75 1848.24 Q1613.75 1856.96 1610.67 1861.57 Q1607.62 1866.15 1601.81 1866.15 Q1596 1866.15 1592.92 1861.57 Q1589.86 1856.96 1589.86 1848.24 Q1589.86 1839.49 1592.92 1834.9 Q1596 1830.3 1601.81 1830.3 Z" fill="#000000" fill-rule="evenodd" fill-opacity="1" /><path clip-path="url(#clip130)" d="M1631.97 1834 Q1628.36 1834 1626.53 1837.57 Q1624.72 1841.11 1624.72 1848.24 Q1624.72 1855.34 1626.53 1858.91 Q1628.36 1862.45 1631.97 1862.45 Q1635.6 1862.45 1637.41 1858.91 Q1639.24 1855.34 1639.24 1848.24 Q1639.24 1841.11 1637.41 1837.57 Q1635.6 1834 1631.97 1834 M1631.97 1830.3 Q1637.78 1830.3 1640.84 1834.9 Q1643.91 1839.49 1643.91 1848.24 Q1643.91 1856.96 1640.84 1861.57 Q1637.78 1866.15 1631.97 1866.15 Q1626.16 1866.15 1623.08 1861.57 Q1620.03 1856.96 1620.03 1848.24 Q1620.03 1839.49 1623.08 1834.9 Q1626.16 1830.3 1631.97 1830.3 Z" fill="#000000" fill-rule="evenodd" fill-opacity="1" /><path clip-path="url(#clip130)" d="M2098 1861.55 L2114.32 1861.55 L2114.32 1865.48 L2092.37 1865.48 L2092.37 1861.55 Q2095.04 1858.79 2099.62 1854.16 Q2104.23 1849.51 2105.41 1848.17 Q2107.65 1845.65 2108.53 1843.91 Q2109.43 1842.15 2109.43 1840.46 Q2109.43 1837.71 2107.49 1835.97 Q2105.57 1834.23 2102.47 1834.23 Q2100.27 1834.23 2097.81 1835 Q2095.38 1835.76 2092.61 1837.31 L2092.61 1832.59 Q2095.43 1831.46 2097.88 1830.88 Q2100.34 1830.3 2102.37 1830.3 Q2107.74 1830.3 2110.94 1832.98 Q2114.13 1835.67 2114.13 1840.16 Q2114.13 1842.29 2113.32 1844.21 Q2112.54 1846.11 2110.43 1848.7 Q2109.85 1849.37 2106.75 1852.59 Q2103.65 1855.78 2098 1861.55 Z" fill="#000000" fill-rule="evenodd" fill-opacity="1" /><path clip-path="url(#clip130)" d="M2124.18 1830.92 L2142.54 1830.92 L2142.54 1834.86 L2128.46 1834.86 L2128.46 1843.33 Q2129.48 1842.98 2130.5 1842.82 Q2131.52 1842.64 2132.54 1842.64 Q2138.32 1842.64 2141.7 1845.81 Q2145.08 1848.98 2145.08 1854.4 Q2145.08 1859.97 2141.61 1863.08 Q2138.14 1866.15 2131.82 1866.15 Q2129.64 1866.15 2127.37 1865.78 Q2125.13 1865.41 2122.72 1864.67 L2122.72 1859.97 Q2124.8 1861.11 2127.03 1861.66 Q2129.25 1862.22 2131.73 1862.22 Q2135.73 1862.22 2138.07 1860.11 Q2140.41 1858.01 2140.41 1854.4 Q2140.41 1850.78 2138.07 1848.68 Q2135.73 1846.57 2131.73 1846.57 Q2129.85 1846.57 2127.98 1846.99 Q2126.12 1847.4 2124.18 1848.28 L2124.18 1830.92 Z" fill="#000000" fill-rule="evenodd" fill-opacity="1" /><path clip-path="url(#clip130)" d="M2164.3 1834 Q2160.68 1834 2158.86 1837.57 Q2157.05 1841.11 2157.05 1848.24 Q2157.05 1855.34 2158.86 1858.91 Q2160.68 1862.45 2164.3 1862.45 Q2167.93 1862.45 2169.74 1858.91 Q2171.56 1855.34 2171.56 1848.24 Q2171.56 1841.11 2169.74 1837.57 Q2167.93 1834 2164.3 1834 M2164.3 1830.3 Q2170.11 1830.3 2173.16 1834.9 Q2176.24 1839.49 2176.24 1848.24 Q2176.24 1856.96 2173.16 1861.57 Q2170.11 1866.15 2164.3 1866.15 Q2158.49 1866.15 2155.41 1861.57 Q2152.35 1856.96 2152.35 1848.24 Q2152.35 1839.49 2155.41 1834.9 Q2158.49 1830.3 2164.3 1830.3 Z" fill="#000000" fill-rule="evenodd" fill-opacity="1" /><polyline clip-path="url(#clip132)" style="stroke:#000000; stroke-linecap:round; stroke-linejoin:round; stroke-width:2; stroke-opacity:0.1; fill:none" points="
  188.807,1751.15 2640.76,1751.15 
  "/>
<polyline clip-path="url(#clip132)" style="stroke:#000000; stroke-linecap:round; stroke-linejoin:round; stroke-width:2; stroke-opacity:0.1; fill:none" points="
  188.807,1337.58 2640.76,1337.58 
  "/>
<polyline clip-path="url(#clip132)" style="stroke:#000000; stroke-linecap:round; stroke-linejoin:round; stroke-width:2; stroke-opacity:0.1; fill:none" points="
  188.807,924.012 2640.76,924.012 
  "/>
<polyline clip-path="url(#clip132)" style="stroke:#000000; stroke-linecap:round; stroke-linejoin:round; stroke-width:2; stroke-opacity:0.1; fill:none" points="
  188.807,510.442 2640.76,510.442 
  "/>
<polyline clip-path="url(#clip132)" style="stroke:#000000; stroke-linecap:round; stroke-linejoin:round; stroke-width:2; stroke-opacity:0.1; fill:none" points="
  188.807,96.8724 2640.76,96.8724 
  "/>
<polyline clip-path="url(#clip130)" style="stroke:#000000; stroke-linecap:round; stroke-linejoin:round; stroke-width:4; stroke-opacity:1; fill:none" points="
  188.807,1800.78 188.807,47.2441 
  "/>
<polyline clip-path="url(#clip130)" style="stroke:#000000; stroke-linecap:round; stroke-linejoin:round; stroke-width:4; stroke-opacity:1; fill:none" points="
  188.807,1751.15 207.704,1751.15 
  "/>
<polyline clip-path="url(#clip130)" style="stroke:#000000; stroke-linecap:round; stroke-linejoin:round; stroke-width:4; stroke-opacity:1; fill:none" points="
  188.807,1337.58 207.704,1337.58 
  "/>
<polyline clip-path="url(#clip130)" style="stroke:#000000; stroke-linecap:round; stroke-linejoin:round; stroke-width:4; stroke-opacity:1; fill:none" points="
  188.807,924.012 207.704,924.012 
  "/>
<polyline clip-path="url(#clip130)" style="stroke:#000000; stroke-linecap:round; stroke-linejoin:round; stroke-width:4; stroke-opacity:1; fill:none" points="
  188.807,510.442 207.704,510.442 
  "/>
<polyline clip-path="url(#clip130)" style="stroke:#000000; stroke-linecap:round; stroke-linejoin:round; stroke-width:4; stroke-opacity:1; fill:none" points="
  188.807,96.8724 207.704,96.8724 
  "/>
<path clip-path="url(#clip130)" d="M51.9595 1764.5 L59.5984 1764.5 L59.5984 1738.13 L51.2882 1739.8 L51.2882 1735.54 L59.5521 1733.87 L64.228 1733.87 L64.228 1764.5 L71.8668 1764.5 L71.8668 1768.43 L51.9595 1768.43 L51.9595 1764.5 Z" fill="#000000" fill-rule="evenodd" fill-opacity="1" /><path clip-path="url(#clip130)" d="M81.3112 1762.55 L86.1954 1762.55 L86.1954 1768.43 L81.3112 1768.43 L81.3112 1762.55 Z" fill="#000000" fill-rule="evenodd" fill-opacity="1" /><path clip-path="url(#clip130)" d="M106.381 1736.95 Q102.769 1736.95 100.941 1740.51 Q99.1352 1744.06 99.1352 1751.19 Q99.1352 1758.29 100.941 1761.86 Q102.769 1765.4 106.381 1765.4 Q110.015 1765.4 111.82 1761.86 Q113.649 1758.29 113.649 1751.19 Q113.649 1744.06 111.82 1740.51 Q110.015 1736.95 106.381 1736.95 M106.381 1733.25 Q112.191 1733.25 115.246 1737.85 Q118.325 1742.44 118.325 1751.19 Q118.325 1759.91 115.246 1764.52 Q112.191 1769.1 106.381 1769.1 Q100.57 1769.1 97.4917 1764.52 Q94.4361 1759.91 94.4361 1751.19 Q94.4361 1742.44 97.4917 1737.85 Q100.57 1733.25 106.381 1733.25 Z" fill="#000000" fill-rule="evenodd" fill-opacity="1" /><path clip-path="url(#clip130)" d="M136.542 1736.95 Q132.931 1736.95 131.103 1740.51 Q129.297 1744.06 129.297 1751.19 Q129.297 1758.29 131.103 1761.86 Q132.931 1765.4 136.542 1765.4 Q140.177 1765.4 141.982 1761.86 Q143.811 1758.29 143.811 1751.19 Q143.811 1744.06 141.982 1740.51 Q140.177 1736.95 136.542 1736.95 M136.542 1733.25 Q142.353 1733.25 145.408 1737.85 Q148.487 1742.44 148.487 1751.19 Q148.487 1759.91 145.408 1764.52 Q142.353 1769.1 136.542 1769.1 Q130.732 1769.1 127.654 1764.52 Q124.598 1759.91 124.598 1751.19 Q124.598 1742.44 127.654 1737.85 Q130.732 1733.25 136.542 1733.25 Z" fill="#000000" fill-rule="evenodd" fill-opacity="1" /><path clip-path="url(#clip130)" d="M52.9549 1350.93 L60.5937 1350.93 L60.5937 1324.56 L52.2836 1326.23 L52.2836 1321.97 L60.5474 1320.3 L65.2233 1320.3 L65.2233 1350.93 L72.8622 1350.93 L72.8622 1354.86 L52.9549 1354.86 L52.9549 1350.93 Z" fill="#000000" fill-rule="evenodd" fill-opacity="1" /><path clip-path="url(#clip130)" d="M82.3066 1348.98 L87.1908 1348.98 L87.1908 1354.86 L82.3066 1354.86 L82.3066 1348.98 Z" fill="#000000" fill-rule="evenodd" fill-opacity="1" /><path clip-path="url(#clip130)" d="M101.404 1350.93 L117.723 1350.93 L117.723 1354.86 L95.7787 1354.86 L95.7787 1350.93 Q98.4408 1348.17 103.024 1343.54 Q107.631 1338.89 108.811 1337.55 Q111.056 1335.02 111.936 1333.29 Q112.839 1331.53 112.839 1329.84 Q112.839 1327.08 110.894 1325.35 Q108.973 1323.61 105.871 1323.61 Q103.672 1323.61 101.219 1324.38 Q98.788 1325.14 96.0102 1326.69 L96.0102 1321.97 Q98.8343 1320.83 101.288 1320.26 Q103.742 1319.68 105.779 1319.68 Q111.149 1319.68 114.343 1322.36 Q117.538 1325.05 117.538 1329.54 Q117.538 1331.67 116.728 1333.59 Q115.941 1335.49 113.834 1338.08 Q113.255 1338.75 110.154 1341.97 Q107.052 1345.16 101.404 1350.93 Z" fill="#000000" fill-rule="evenodd" fill-opacity="1" /><path clip-path="url(#clip130)" d="M127.584 1320.3 L145.94 1320.3 L145.94 1324.24 L131.866 1324.24 L131.866 1332.71 Q132.885 1332.36 133.904 1332.2 Q134.922 1332.01 135.941 1332.01 Q141.728 1332.01 145.107 1335.19 Q148.487 1338.36 148.487 1343.77 Q148.487 1349.35 145.015 1352.45 Q141.542 1355.53 135.223 1355.53 Q133.047 1355.53 130.779 1355.16 Q128.533 1354.79 126.126 1354.05 L126.126 1349.35 Q128.209 1350.49 130.431 1351.04 Q132.654 1351.6 135.13 1351.6 Q139.135 1351.6 141.473 1349.49 Q143.811 1347.38 143.811 1343.77 Q143.811 1340.16 141.473 1338.06 Q139.135 1335.95 135.13 1335.95 Q133.255 1335.95 131.38 1336.37 Q129.529 1336.78 127.584 1337.66 L127.584 1320.3 Z" fill="#000000" fill-rule="evenodd" fill-opacity="1" /><path clip-path="url(#clip130)" d="M51.9595 937.357 L59.5984 937.357 L59.5984 910.991 L51.2882 912.658 L51.2882 908.398 L59.5521 906.732 L64.228 906.732 L64.228 937.357 L71.8668 937.357 L71.8668 941.292 L51.9595 941.292 L51.9595 937.357 Z" fill="#000000" fill-rule="evenodd" fill-opacity="1" /><path clip-path="url(#clip130)" d="M81.3112 935.412 L86.1954 935.412 L86.1954 941.292 L81.3112 941.292 L81.3112 935.412 Z" fill="#000000" fill-rule="evenodd" fill-opacity="1" /><path clip-path="url(#clip130)" d="M96.4269 906.732 L114.783 906.732 L114.783 910.667 L100.709 910.667 L100.709 919.139 Q101.728 918.792 102.746 918.63 Q103.765 918.445 104.783 918.445 Q110.57 918.445 113.95 921.616 Q117.33 924.787 117.33 930.204 Q117.33 935.782 113.857 938.884 Q110.385 941.963 104.066 941.963 Q101.89 941.963 99.6213 941.593 Q97.3759 941.222 94.9685 940.482 L94.9685 935.782 Q97.0519 936.917 99.2741 937.472 Q101.496 938.028 103.973 938.028 Q107.978 938.028 110.316 935.921 Q112.654 933.815 112.654 930.204 Q112.654 926.593 110.316 924.486 Q107.978 922.38 103.973 922.38 Q102.098 922.38 100.223 922.796 Q98.3713 923.213 96.4269 924.093 L96.4269 906.732 Z" fill="#000000" fill-rule="evenodd" fill-opacity="1" /><path clip-path="url(#clip130)" d="M136.542 909.81 Q132.931 909.81 131.103 913.375 Q129.297 916.917 129.297 924.046 Q129.297 931.153 131.103 934.718 Q132.931 938.259 136.542 938.259 Q140.177 938.259 141.982 934.718 Q143.811 931.153 143.811 924.046 Q143.811 916.917 141.982 913.375 Q140.177 909.81 136.542 909.81 M136.542 906.107 Q142.353 906.107 145.408 910.713 Q148.487 915.296 148.487 924.046 Q148.487 932.773 145.408 937.38 Q142.353 941.963 136.542 941.963 Q130.732 941.963 127.654 937.38 Q124.598 932.773 124.598 924.046 Q124.598 915.296 127.654 910.713 Q130.732 906.107 136.542 906.107 Z" fill="#000000" fill-rule="evenodd" fill-opacity="1" /><path clip-path="url(#clip130)" d="M52.9549 523.787 L60.5937 523.787 L60.5937 497.421 L52.2836 499.088 L52.2836 494.829 L60.5474 493.162 L65.2233 493.162 L65.2233 523.787 L72.8622 523.787 L72.8622 527.722 L52.9549 527.722 L52.9549 523.787 Z" fill="#000000" fill-rule="evenodd" fill-opacity="1" /><path clip-path="url(#clip130)" d="M82.3066 521.842 L87.1908 521.842 L87.1908 527.722 L82.3066 527.722 L82.3066 521.842 Z" fill="#000000" fill-rule="evenodd" fill-opacity="1" /><path clip-path="url(#clip130)" d="M96.1954 493.162 L118.417 493.162 L118.417 495.153 L105.871 527.722 L100.987 527.722 L112.793 497.097 L96.1954 497.097 L96.1954 493.162 Z" fill="#000000" fill-rule="evenodd" fill-opacity="1" /><path clip-path="url(#clip130)" d="M127.584 493.162 L145.94 493.162 L145.94 497.097 L131.866 497.097 L131.866 505.569 Q132.885 505.222 133.904 505.06 Q134.922 504.875 135.941 504.875 Q141.728 504.875 145.107 508.046 Q148.487 511.218 148.487 516.634 Q148.487 522.213 145.015 525.315 Q141.542 528.393 135.223 528.393 Q133.047 528.393 130.779 528.023 Q128.533 527.653 126.126 526.912 L126.126 522.213 Q128.209 523.347 130.431 523.903 Q132.654 524.458 135.13 524.458 Q139.135 524.458 141.473 522.352 Q143.811 520.245 143.811 516.634 Q143.811 513.023 141.473 510.917 Q139.135 508.81 135.13 508.81 Q133.255 508.81 131.38 509.227 Q129.529 509.643 127.584 510.523 L127.584 493.162 Z" fill="#000000" fill-rule="evenodd" fill-opacity="1" /><path clip-path="url(#clip130)" d="M55.1771 110.217 L71.4965 110.217 L71.4965 114.152 L49.5521 114.152 L49.5521 110.217 Q52.2141 107.463 56.7975 102.833 Q61.4039 98.1803 62.5845 96.8377 Q64.8298 94.3146 65.7094 92.5785 Q66.6122 90.8192 66.6122 89.1294 Q66.6122 86.3748 64.6678 84.6387 Q62.7465 82.9026 59.6447 82.9026 Q57.4456 82.9026 54.9919 83.6665 Q52.5614 84.4304 49.7836 85.9813 L49.7836 81.2591 Q52.6077 80.1249 55.0614 79.5462 Q57.515 78.9675 59.5521 78.9675 Q64.9224 78.9675 68.1168 81.6526 Q71.3113 84.3378 71.3113 88.8285 Q71.3113 90.9581 70.5011 92.8794 Q69.7141 94.7776 67.6076 97.3701 Q67.0289 98.0414 63.927 101.259 Q60.8252 104.453 55.1771 110.217 Z" fill="#000000" fill-rule="evenodd" fill-opacity="1" /><path clip-path="url(#clip130)" d="M81.3112 108.273 L86.1954 108.273 L86.1954 114.152 L81.3112 114.152 L81.3112 108.273 Z" fill="#000000" fill-rule="evenodd" fill-opacity="1" /><path clip-path="url(#clip130)" d="M106.381 82.6711 Q102.769 82.6711 100.941 86.2359 Q99.1352 89.7776 99.1352 96.9072 Q99.1352 104.014 100.941 107.578 Q102.769 111.12 106.381 111.12 Q110.015 111.12 111.82 107.578 Q113.649 104.014 113.649 96.9072 Q113.649 89.7776 111.82 86.2359 Q110.015 82.6711 106.381 82.6711 M106.381 78.9675 Q112.191 78.9675 115.246 83.5739 Q118.325 88.1572 118.325 96.9072 Q118.325 105.634 115.246 110.24 Q112.191 114.824 106.381 114.824 Q100.57 114.824 97.4917 110.24 Q94.4361 105.634 94.4361 96.9072 Q94.4361 88.1572 97.4917 83.5739 Q100.57 78.9675 106.381 78.9675 Z" fill="#000000" fill-rule="evenodd" fill-opacity="1" /><path clip-path="url(#clip130)" d="M136.542 82.6711 Q132.931 82.6711 131.103 86.2359 Q129.297 89.7776 129.297 96.9072 Q129.297 104.014 131.103 107.578 Q132.931 111.12 136.542 111.12 Q140.177 111.12 141.982 107.578 Q143.811 104.014 143.811 96.9072 Q143.811 89.7776 141.982 86.2359 Q140.177 82.6711 136.542 82.6711 M136.542 78.9675 Q142.353 78.9675 145.408 83.5739 Q148.487 88.1572 148.487 96.9072 Q148.487 105.634 145.408 110.24 Q142.353 114.824 136.542 114.824 Q130.732 114.824 127.654 110.24 Q124.598 105.634 124.598 96.9072 Q124.598 88.1572 127.654 83.5739 Q130.732 78.9675 136.542 78.9675 Z" fill="#000000" fill-rule="evenodd" fill-opacity="1" /><circle clip-path="url(#clip132)" cx="258.202" cy="1751.15" r="14.4" fill="#009af9" fill-rule="evenodd" fill-opacity="1" stroke="#000000" stroke-opacity="1" stroke-width="3.84"/>
<circle clip-path="url(#clip132)" cx="316.58" cy="1751.15" r="14.4" fill="#009af9" fill-rule="evenodd" fill-opacity="1" stroke="#000000" stroke-opacity="1" stroke-width="3.84"/>
<circle clip-path="url(#clip132)" cx="652.981" cy="1751.15" r="14.4" fill="#009af9" fill-rule="evenodd" fill-opacity="1" stroke="#000000" stroke-opacity="1" stroke-width="3.84"/>
<circle clip-path="url(#clip132)" cx="650.673" cy="1751.15" r="14.4" fill="#009af9" fill-rule="evenodd" fill-opacity="1" stroke="#000000" stroke-opacity="1" stroke-width="3.84"/>
<circle clip-path="url(#clip132)" cx="775.903" cy="1751.15" r="14.4" fill="#009af9" fill-rule="evenodd" fill-opacity="1" stroke="#000000" stroke-opacity="1" stroke-width="3.84"/>
<circle clip-path="url(#clip132)" cx="888.914" cy="1751.15" r="14.4" fill="#009af9" fill-rule="evenodd" fill-opacity="1" stroke="#000000" stroke-opacity="1" stroke-width="3.84"/>
<circle clip-path="url(#clip132)" cx="1136.08" cy="1751.15" r="14.4" fill="#009af9" fill-rule="evenodd" fill-opacity="1" stroke="#000000" stroke-opacity="1" stroke-width="3.84"/>
<circle clip-path="url(#clip132)" cx="1721.89" cy="1751.15" r="14.4" fill="#009af9" fill-rule="evenodd" fill-opacity="1" stroke="#000000" stroke-opacity="1" stroke-width="3.84"/>
<circle clip-path="url(#clip132)" cx="1972.46" cy="1751.15" r="14.4" fill="#009af9" fill-rule="evenodd" fill-opacity="1" stroke="#000000" stroke-opacity="1" stroke-width="3.84"/>
<circle clip-path="url(#clip132)" cx="2571.36" cy="1751.15" r="14.4" fill="#009af9" fill-rule="evenodd" fill-opacity="1" stroke="#000000" stroke-opacity="1" stroke-width="3.84"/>
</svg>
