<?xml version="1.0" encoding="utf-8"?>
<svg xmlns="http://www.w3.org/2000/svg" xmlns:xlink="http://www.w3.org/1999/xlink" width="672" height="480" viewBox="0 0 2688 1920">
<defs>
  <clipPath id="clip930">
    <rect x="0" y="0" width="2688" height="1920"/>
  </clipPath>
</defs>
<path clip-path="url(#clip930)" d="
M0 1920 L2688 1920 L2688 0 L0 0  Z
  " fill="#ffffff" fill-rule="evenodd" fill-opacity="1"/>
<defs>
  <clipPath id="clip931">
    <rect x="537" y="0" width="1883" height="1883"/>
  </clipPath>
</defs>
<path clip-path="url(#clip930)" d="
M159.154 1800.78 L2640.76 1800.78 L2640.76 47.2441 L159.154 47.2441  Z
  " fill="#ffffff" fill-rule="evenodd" fill-opacity="1"/>
<defs>
  <clipPath id="clip932">
    <rect x="159" y="47" width="2483" height="1755"/>
  </clipPath>
</defs>
<polyline clip-path="url(#clip932)" style="stroke:#000000; stroke-linecap:round; stroke-linejoin:round; stroke-width:2; stroke-opacity:0.1; fill:none" points="
  508.474,1800.78 508.474,47.2441 
  "/>
<polyline clip-path="url(#clip932)" style="stroke:#000000; stroke-linecap:round; stroke-linejoin:round; stroke-width:2; stroke-opacity:0.1; fill:none" points="
  1045.18,1800.78 1045.18,47.2441 
  "/>
<polyline clip-path="url(#clip932)" style="stroke:#000000; stroke-linecap:round; stroke-linejoin:round; stroke-width:2; stroke-opacity:0.1; fill:none" points="
  1581.88,1800.78 1581.88,47.2441 
  "/>
<polyline clip-path="url(#clip932)" style="stroke:#000000; stroke-linecap:round; stroke-linejoin:round; stroke-width:2; stroke-opacity:0.1; fill:none" points="
  2118.58,1800.78 2118.58,47.2441 
  "/>
<polyline clip-path="url(#clip930)" style="stroke:#000000; stroke-linecap:round; stroke-linejoin:round; stroke-width:4; stroke-opacity:1; fill:none" points="
  159.154,1800.78 2640.76,1800.78 
  "/>
<polyline clip-path="url(#clip930)" style="stroke:#000000; stroke-linecap:round; stroke-linejoin:round; stroke-width:4; stroke-opacity:1; fill:none" points="
  508.474,1800.78 508.474,1781.88 
  "/>
<polyline clip-path="url(#clip930)" style="stroke:#000000; stroke-linecap:round; stroke-linejoin:round; stroke-width:4; stroke-opacity:1; fill:none" points="
  1045.18,1800.78 1045.18,1781.88 
  "/>
<polyline clip-path="url(#clip930)" style="stroke:#000000; stroke-linecap:round; stroke-linejoin:round; stroke-width:4; stroke-opacity:1; fill:none" points="
  1581.88,1800.78 1581.88,1781.88 
  "/>
<polyline clip-path="url(#clip930)" style="stroke:#000000; stroke-linecap:round; stroke-linejoin:round; stroke-width:4; stroke-opacity:1; fill:none" points="
  2118.58,1800.78 2118.58,1781.88 
  "/>
<path clip-path="url(#clip930)" d="M468.081 1861.55 L475.719 1861.55 L475.719 1835.18 L467.409 1836.85 L467.409 1832.59 L475.673 1830.92 L480.349 1830.92 L480.349 1861.55 L487.988 1861.55 L487.988 1865.48 L468.081 1865.48 L468.081 1861.55 Z" fill="#000000" fill-rule="evenodd" fill-opacity="1" /><path clip-path="url(#clip930)" d="M507.432 1834 Q503.821 1834 501.992 1837.57 Q500.187 1841.11 500.187 1848.24 Q500.187 1855.34 501.992 1858.91 Q503.821 1862.45 507.432 1862.45 Q511.066 1862.45 512.872 1858.91 Q514.701 1855.34 514.701 1848.24 Q514.701 1841.11 512.872 1837.57 Q511.066 1834 507.432 1834 M507.432 1830.3 Q513.242 1830.3 516.298 1834.9 Q519.377 1839.49 519.377 1848.24 Q519.377 1856.96 516.298 1861.57 Q513.242 1866.15 507.432 1866.15 Q501.622 1866.15 498.543 1861.57 Q495.488 1856.96 495.488 1848.24 Q495.488 1839.49 498.543 1834.9 Q501.622 1830.3 507.432 1830.3 Z" fill="#000000" fill-rule="evenodd" fill-opacity="1" /><path clip-path="url(#clip930)" d="M537.594 1834 Q533.983 1834 532.154 1837.57 Q530.349 1841.11 530.349 1848.24 Q530.349 1855.34 532.154 1858.91 Q533.983 1862.45 537.594 1862.45 Q541.228 1862.45 543.034 1858.91 Q544.863 1855.34 544.863 1848.24 Q544.863 1841.11 543.034 1837.57 Q541.228 1834 537.594 1834 M537.594 1830.3 Q543.404 1830.3 546.46 1834.9 Q549.538 1839.49 549.538 1848.24 Q549.538 1856.96 546.46 1861.57 Q543.404 1866.15 537.594 1866.15 Q531.784 1866.15 528.705 1861.57 Q525.65 1856.96 525.65 1848.24 Q525.65 1839.49 528.705 1834.9 Q531.784 1830.3 537.594 1830.3 Z" fill="#000000" fill-rule="evenodd" fill-opacity="1" /><path clip-path="url(#clip930)" d="M1004.78 1861.55 L1012.42 1861.55 L1012.42 1835.18 L1004.11 1836.85 L1004.11 1832.59 L1012.38 1830.92 L1017.05 1830.92 L1017.05 1861.55 L1024.69 1861.55 L1024.69 1865.48 L1004.78 1865.48 L1004.78 1861.55 Z" fill="#000000" fill-rule="evenodd" fill-opacity="1" /><path clip-path="url(#clip930)" d="M1034.18 1830.92 L1052.54 1830.92 L1052.54 1834.86 L1038.46 1834.86 L1038.46 1843.33 Q1039.48 1842.98 1040.5 1842.82 Q1041.52 1842.64 1042.54 1842.64 Q1048.33 1842.64 1051.7 1845.81 Q1055.08 1848.98 1055.08 1854.4 Q1055.08 1859.97 1051.61 1863.08 Q1048.14 1866.15 1041.82 1866.15 Q1039.64 1866.15 1037.38 1865.78 Q1035.13 1865.41 1032.72 1864.67 L1032.72 1859.97 Q1034.81 1861.11 1037.03 1861.66 Q1039.25 1862.22 1041.73 1862.22 Q1045.73 1862.22 1048.07 1860.11 Q1050.41 1858.01 1050.41 1854.4 Q1050.41 1850.78 1048.07 1848.68 Q1045.73 1846.57 1041.73 1846.57 Q1039.85 1846.57 1037.98 1846.99 Q1036.13 1847.4 1034.18 1848.28 L1034.18 1830.92 Z" fill="#000000" fill-rule="evenodd" fill-opacity="1" /><path clip-path="url(#clip930)" d="M1074.3 1834 Q1070.69 1834 1068.86 1837.57 Q1067.05 1841.11 1067.05 1848.24 Q1067.05 1855.34 1068.86 1858.91 Q1070.69 1862.45 1074.3 1862.45 Q1077.93 1862.45 1079.74 1858.91 Q1081.57 1855.34 1081.57 1848.24 Q1081.57 1841.11 1079.74 1837.57 Q1077.93 1834 1074.3 1834 M1074.3 1830.3 Q1080.11 1830.3 1083.16 1834.9 Q1086.24 1839.49 1086.24 1848.24 Q1086.24 1856.96 1083.16 1861.57 Q1080.11 1866.15 1074.3 1866.15 Q1068.49 1866.15 1065.41 1861.57 Q1062.35 1856.96 1062.35 1848.24 Q1062.35 1839.49 1065.41 1834.9 Q1068.49 1830.3 1074.3 1830.3 Z" fill="#000000" fill-rule="evenodd" fill-opacity="1" /><path clip-path="url(#clip930)" d="M1545.57 1861.55 L1561.89 1861.55 L1561.89 1865.48 L1539.95 1865.48 L1539.95 1861.55 Q1542.61 1858.79 1547.19 1854.16 Q1551.8 1849.51 1552.98 1848.17 Q1555.23 1845.65 1556.1 1843.91 Q1557.01 1842.15 1557.01 1840.46 Q1557.01 1837.71 1555.06 1835.97 Q1553.14 1834.23 1550.04 1834.23 Q1547.84 1834.23 1545.39 1835 Q1542.96 1835.76 1540.18 1837.31 L1540.18 1832.59 Q1543 1831.46 1545.46 1830.88 Q1547.91 1830.3 1549.95 1830.3 Q1555.32 1830.3 1558.51 1832.98 Q1561.71 1835.67 1561.71 1840.16 Q1561.71 1842.29 1560.9 1844.21 Q1560.11 1846.11 1558 1848.7 Q1557.42 1849.37 1554.32 1852.59 Q1551.22 1855.78 1545.57 1861.55 Z" fill="#000000" fill-rule="evenodd" fill-opacity="1" /><path clip-path="url(#clip930)" d="M1581.71 1834 Q1578.1 1834 1576.27 1837.57 Q1574.46 1841.11 1574.46 1848.24 Q1574.46 1855.34 1576.27 1858.91 Q1578.1 1862.45 1581.71 1862.45 Q1585.34 1862.45 1587.15 1858.91 Q1588.98 1855.34 1588.98 1848.24 Q1588.98 1841.11 1587.15 1837.57 Q1585.34 1834 1581.71 1834 M1581.71 1830.3 Q1587.52 1830.3 1590.57 1834.9 Q1593.65 1839.49 1593.65 1848.24 Q1593.65 1856.96 1590.57 1861.57 Q1587.52 1866.15 1581.71 1866.15 Q1575.9 1866.15 1572.82 1861.57 Q1569.76 1856.96 1569.76 1848.24 Q1569.76 1839.49 1572.82 1834.9 Q1575.9 1830.3 1581.71 1830.3 Z" fill="#000000" fill-rule="evenodd" fill-opacity="1" /><path clip-path="url(#clip930)" d="M1611.87 1834 Q1608.26 1834 1606.43 1837.57 Q1604.62 1841.11 1604.62 1848.24 Q1604.62 1855.34 1606.43 1858.91 Q1608.26 1862.45 1611.87 1862.45 Q1615.5 1862.45 1617.31 1858.91 Q1619.14 1855.34 1619.14 1848.24 Q1619.14 1841.11 1617.31 1837.57 Q1615.5 1834 1611.87 1834 M1611.87 1830.3 Q1617.68 1830.3 1620.73 1834.9 Q1623.81 1839.49 1623.81 1848.24 Q1623.81 1856.96 1620.73 1861.57 Q1617.68 1866.15 1611.87 1866.15 Q1606.06 1866.15 1602.98 1861.57 Q1599.92 1856.96 1599.92 1848.24 Q1599.92 1839.49 1602.98 1834.9 Q1606.06 1830.3 1611.87 1830.3 Z" fill="#000000" fill-rule="evenodd" fill-opacity="1" /><path clip-path="url(#clip930)" d="M2082.28 1861.55 L2098.6 1861.55 L2098.6 1865.48 L2076.65 1865.48 L2076.65 1861.55 Q2079.31 1858.79 2083.9 1854.16 Q2088.5 1849.51 2089.68 1848.17 Q2091.93 1845.65 2092.81 1843.91 Q2093.71 1842.15 2093.71 1840.46 Q2093.71 1837.71 2091.77 1835.97 Q2089.85 1834.23 2086.74 1834.23 Q2084.54 1834.23 2082.09 1835 Q2079.66 1835.76 2076.88 1837.31 L2076.88 1832.59 Q2079.71 1831.46 2082.16 1830.88 Q2084.61 1830.3 2086.65 1830.3 Q2092.02 1830.3 2095.22 1832.98 Q2098.41 1835.67 2098.41 1840.16 Q2098.41 1842.29 2097.6 1844.21 Q2096.81 1846.11 2094.71 1848.7 Q2094.13 1849.37 2091.03 1852.59 Q2087.92 1855.78 2082.28 1861.55 Z" fill="#000000" fill-rule="evenodd" fill-opacity="1" /><path clip-path="url(#clip930)" d="M2108.46 1830.92 L2126.81 1830.92 L2126.81 1834.86 L2112.74 1834.86 L2112.74 1843.33 Q2113.76 1842.98 2114.78 1842.82 Q2115.79 1842.64 2116.81 1842.64 Q2122.6 1842.64 2125.98 1845.81 Q2129.36 1848.98 2129.36 1854.4 Q2129.36 1859.97 2125.89 1863.08 Q2122.41 1866.15 2116.1 1866.15 Q2113.92 1866.15 2111.65 1865.78 Q2109.41 1865.41 2107 1864.67 L2107 1859.97 Q2109.08 1861.11 2111.3 1861.66 Q2113.53 1862.22 2116 1862.22 Q2120.01 1862.22 2122.35 1860.11 Q2124.68 1858.01 2124.68 1854.4 Q2124.68 1850.78 2122.35 1848.68 Q2120.01 1846.57 2116 1846.57 Q2114.13 1846.57 2112.25 1846.99 Q2110.4 1847.4 2108.46 1848.28 L2108.46 1830.92 Z" fill="#000000" fill-rule="evenodd" fill-opacity="1" /><path clip-path="url(#clip930)" d="M2148.57 1834 Q2144.96 1834 2143.13 1837.57 Q2141.33 1841.11 2141.33 1848.24 Q2141.33 1855.34 2143.13 1858.91 Q2144.96 1862.45 2148.57 1862.45 Q2152.21 1862.45 2154.01 1858.91 Q2155.84 1855.34 2155.84 1848.24 Q2155.84 1841.11 2154.01 1837.57 Q2152.21 1834 2148.57 1834 M2148.57 1830.3 Q2154.38 1830.3 2157.44 1834.9 Q2160.52 1839.49 2160.52 1848.24 Q2160.52 1856.96 2157.44 1861.57 Q2154.38 1866.15 2148.57 1866.15 Q2142.76 1866.15 2139.68 1861.57 Q2136.63 1856.96 2136.63 1848.24 Q2136.63 1839.49 2139.68 1834.9 Q2142.76 1830.3 2148.57 1830.3 Z" fill="#000000" fill-rule="evenodd" fill-opacity="1" /><polyline clip-path="url(#clip932)" style="stroke:#000000; stroke-linecap:round; stroke-linejoin:round; stroke-width:2; stroke-opacity:0.1; fill:none" points="
  159.154,1567.34 2640.76,1567.34 
  "/>
<polyline clip-path="url(#clip932)" style="stroke:#000000; stroke-linecap:round; stroke-linejoin:round; stroke-width:2; stroke-opacity:0.1; fill:none" points="
  159.154,1199.72 2640.76,1199.72 
  "/>
<polyline clip-path="url(#clip932)" style="stroke:#000000; stroke-linecap:round; stroke-linejoin:round; stroke-width:2; stroke-opacity:0.1; fill:none" points="
  159.154,832.107 2640.76,832.107 
  "/>
<polyline clip-path="url(#clip932)" style="stroke:#000000; stroke-linecap:round; stroke-linejoin:round; stroke-width:2; stroke-opacity:0.1; fill:none" points="
  159.154,464.49 2640.76,464.49 
  "/>
<polyline clip-path="url(#clip932)" style="stroke:#000000; stroke-linecap:round; stroke-linejoin:round; stroke-width:2; stroke-opacity:0.1; fill:none" points="
  159.154,96.8724 2640.76,96.8724 
  "/>
<polyline clip-path="url(#clip930)" style="stroke:#000000; stroke-linecap:round; stroke-linejoin:round; stroke-width:4; stroke-opacity:1; fill:none" points="
  159.154,1800.78 159.154,47.2441 
  "/>
<polyline clip-path="url(#clip930)" style="stroke:#000000; stroke-linecap:round; stroke-linejoin:round; stroke-width:4; stroke-opacity:1; fill:none" points="
  159.154,1567.34 178.052,1567.34 
  "/>
<polyline clip-path="url(#clip930)" style="stroke:#000000; stroke-linecap:round; stroke-linejoin:round; stroke-width:4; stroke-opacity:1; fill:none" points="
  159.154,1199.72 178.052,1199.72 
  "/>
<polyline clip-path="url(#clip930)" style="stroke:#000000; stroke-linecap:round; stroke-linejoin:round; stroke-width:4; stroke-opacity:1; fill:none" points="
  159.154,832.107 178.052,832.107 
  "/>
<polyline clip-path="url(#clip930)" style="stroke:#000000; stroke-linecap:round; stroke-linejoin:round; stroke-width:4; stroke-opacity:1; fill:none" points="
  159.154,464.49 178.052,464.49 
  "/>
<polyline clip-path="url(#clip930)" style="stroke:#000000; stroke-linecap:round; stroke-linejoin:round; stroke-width:4; stroke-opacity:1; fill:none" points="
  159.154,96.8724 178.052,96.8724 
  "/>
<path clip-path="url(#clip930)" d="M61.4965 1553.14 Q57.8854 1553.14 56.0567 1556.71 Q54.2512 1560.25 54.2512 1567.38 Q54.2512 1574.48 56.0567 1578.05 Q57.8854 1581.59 61.4965 1581.59 Q65.1307 1581.59 66.9363 1578.05 Q68.765 1574.48 68.765 1567.38 Q68.765 1560.25 66.9363 1556.71 Q65.1307 1553.14 61.4965 1553.14 M61.4965 1549.44 Q67.3067 1549.44 70.3622 1554.04 Q73.4409 1558.63 73.4409 1567.38 Q73.4409 1576.1 70.3622 1580.71 Q67.3067 1585.29 61.4965 1585.29 Q55.6864 1585.29 52.6077 1580.71 Q49.5521 1576.1 49.5521 1567.38 Q49.5521 1558.63 52.6077 1554.04 Q55.6864 1549.44 61.4965 1549.44 Z" fill="#000000" fill-rule="evenodd" fill-opacity="1" /><path clip-path="url(#clip930)" d="M81.6584 1578.74 L86.5427 1578.74 L86.5427 1584.62 L81.6584 1584.62 L81.6584 1578.74 Z" fill="#000000" fill-rule="evenodd" fill-opacity="1" /><path clip-path="url(#clip930)" d="M107.306 1565.48 Q104.158 1565.48 102.306 1567.63 Q100.478 1569.78 100.478 1573.53 Q100.478 1577.26 102.306 1579.44 Q104.158 1581.59 107.306 1581.59 Q110.455 1581.59 112.283 1579.44 Q114.135 1577.26 114.135 1573.53 Q114.135 1569.78 112.283 1567.63 Q110.455 1565.48 107.306 1565.48 M116.589 1550.83 L116.589 1555.09 Q114.83 1554.25 113.024 1553.81 Q111.242 1553.37 109.482 1553.37 Q104.853 1553.37 102.399 1556.5 Q99.9685 1559.62 99.6213 1565.94 Q100.987 1563.93 103.047 1562.86 Q105.107 1561.78 107.584 1561.78 Q112.793 1561.78 115.802 1564.95 Q118.834 1568.09 118.834 1573.53 Q118.834 1578.86 115.686 1582.08 Q112.538 1585.29 107.306 1585.29 Q101.311 1585.29 98.1398 1580.71 Q94.9685 1576.1 94.9685 1567.38 Q94.9685 1559.18 98.8574 1554.32 Q102.746 1549.44 109.297 1549.44 Q111.056 1549.44 112.839 1549.78 Q114.644 1550.13 116.589 1550.83 Z" fill="#000000" fill-rule="evenodd" fill-opacity="1" /><path clip-path="url(#clip930)" d="M61.7511 1185.52 Q58.14 1185.52 56.3113 1189.09 Q54.5058 1192.63 54.5058 1199.76 Q54.5058 1206.87 56.3113 1210.43 Q58.14 1213.97 61.7511 1213.97 Q65.3854 1213.97 67.1909 1210.43 Q69.0196 1206.87 69.0196 1199.76 Q69.0196 1192.63 67.1909 1189.09 Q65.3854 1185.52 61.7511 1185.52 M61.7511 1181.82 Q67.5613 1181.82 70.6168 1186.43 Q73.6955 1191.01 73.6955 1199.76 Q73.6955 1208.49 70.6168 1213.09 Q67.5613 1217.68 61.7511 1217.68 Q55.941 1217.68 52.8623 1213.09 Q49.8068 1208.49 49.8068 1199.76 Q49.8068 1191.01 52.8623 1186.43 Q55.941 1181.82 61.7511 1181.82 Z" fill="#000000" fill-rule="evenodd" fill-opacity="1" /><path clip-path="url(#clip930)" d="M81.9131 1211.13 L86.7973 1211.13 L86.7973 1217 L81.9131 1217 L81.9131 1211.13 Z" fill="#000000" fill-rule="evenodd" fill-opacity="1" /><path clip-path="url(#clip930)" d="M106.982 1200.59 Q103.649 1200.59 101.728 1202.38 Q99.8296 1204.16 99.8296 1207.28 Q99.8296 1210.41 101.728 1212.19 Q103.649 1213.97 106.982 1213.97 Q110.316 1213.97 112.237 1212.19 Q114.158 1210.38 114.158 1207.28 Q114.158 1204.16 112.237 1202.38 Q110.339 1200.59 106.982 1200.59 M102.306 1198.6 Q99.2972 1197.86 97.6074 1195.8 Q95.9408 1193.74 95.9408 1190.78 Q95.9408 1186.63 98.8806 1184.23 Q101.844 1181.82 106.982 1181.82 Q112.144 1181.82 115.084 1184.23 Q118.024 1186.63 118.024 1190.78 Q118.024 1193.74 116.334 1195.8 Q114.668 1197.86 111.681 1198.6 Q115.061 1199.39 116.936 1201.68 Q118.834 1203.97 118.834 1207.28 Q118.834 1212.31 115.755 1214.99 Q112.7 1217.68 106.982 1217.68 Q101.265 1217.68 98.1861 1214.99 Q95.1306 1212.31 95.1306 1207.28 Q95.1306 1203.97 97.0287 1201.68 Q98.9269 1199.39 102.306 1198.6 M100.594 1191.22 Q100.594 1193.9 102.26 1195.41 Q103.95 1196.91 106.982 1196.91 Q109.992 1196.91 111.681 1195.41 Q113.394 1193.9 113.394 1191.22 Q113.394 1188.53 111.681 1187.03 Q109.992 1185.52 106.982 1185.52 Q103.95 1185.52 102.26 1187.03 Q100.594 1188.53 100.594 1191.22 Z" fill="#000000" fill-rule="evenodd" fill-opacity="1" /><path clip-path="url(#clip930)" d="M52.4688 845.452 L60.1076 845.452 L60.1076 819.087 L51.7975 820.753 L51.7975 816.494 L60.0613 814.827 L64.7372 814.827 L64.7372 845.452 L72.3761 845.452 L72.3761 849.387 L52.4688 849.387 L52.4688 845.452 Z" fill="#000000" fill-rule="evenodd" fill-opacity="1" /><path clip-path="url(#clip930)" d="M81.8205 843.508 L86.7047 843.508 L86.7047 849.387 L81.8205 849.387 L81.8205 843.508 Z" fill="#000000" fill-rule="evenodd" fill-opacity="1" /><path clip-path="url(#clip930)" d="M106.89 817.906 Q103.279 817.906 101.45 821.471 Q99.6445 825.012 99.6445 832.142 Q99.6445 839.249 101.45 842.813 Q103.279 846.355 106.89 846.355 Q110.524 846.355 112.33 842.813 Q114.158 839.249 114.158 832.142 Q114.158 825.012 112.33 821.471 Q110.524 817.906 106.89 817.906 M106.89 814.202 Q112.7 814.202 115.755 818.809 Q118.834 823.392 118.834 832.142 Q118.834 840.869 115.755 845.475 Q112.7 850.059 106.89 850.059 Q101.08 850.059 98.0009 845.475 Q94.9454 840.869 94.9454 832.142 Q94.9454 823.392 98.0009 818.809 Q101.08 814.202 106.89 814.202 Z" fill="#000000" fill-rule="evenodd" fill-opacity="1" /><path clip-path="url(#clip930)" d="M54.066 477.835 L61.7048 477.835 L61.7048 451.469 L53.3947 453.136 L53.3947 448.877 L61.6585 447.21 L66.3344 447.21 L66.3344 477.835 L73.9733 477.835 L73.9733 481.77 L54.066 481.77 L54.066 477.835 Z" fill="#000000" fill-rule="evenodd" fill-opacity="1" /><path clip-path="url(#clip930)" d="M83.4177 475.89 L88.3019 475.89 L88.3019 481.77 L83.4177 481.77 L83.4177 475.89 Z" fill="#000000" fill-rule="evenodd" fill-opacity="1" /><path clip-path="url(#clip930)" d="M102.515 477.835 L118.834 477.835 L118.834 481.77 L96.8898 481.77 L96.8898 477.835 Q99.5519 475.08 104.135 470.451 Q108.742 465.798 109.922 464.455 Q112.168 461.932 113.047 460.196 Q113.95 458.437 113.95 456.747 Q113.95 453.992 112.005 452.256 Q110.084 450.52 106.982 450.52 Q104.783 450.52 102.33 451.284 Q99.8991 452.048 97.1213 453.599 L97.1213 448.877 Q99.9454 447.742 102.399 447.164 Q104.853 446.585 106.89 446.585 Q112.26 446.585 115.455 449.27 Q118.649 451.955 118.649 456.446 Q118.649 458.576 117.839 460.497 Q117.052 462.395 114.945 464.988 Q114.367 465.659 111.265 468.876 Q108.163 472.071 102.515 477.835 Z" fill="#000000" fill-rule="evenodd" fill-opacity="1" /><path clip-path="url(#clip930)" d="M51.9827 110.217 L59.6215 110.217 L59.6215 83.8517 L51.3114 85.5183 L51.3114 81.2591 L59.5752 79.5924 L64.2511 79.5924 L64.2511 110.217 L71.89 110.217 L71.89 114.152 L51.9827 114.152 L51.9827 110.217 Z" fill="#000000" fill-rule="evenodd" fill-opacity="1" /><path clip-path="url(#clip930)" d="M81.3344 108.273 L86.2186 108.273 L86.2186 114.152 L81.3344 114.152 L81.3344 108.273 Z" fill="#000000" fill-rule="evenodd" fill-opacity="1" /><path clip-path="url(#clip930)" d="M109.251 83.6665 L97.4454 102.115 L109.251 102.115 L109.251 83.6665 M108.024 79.5924 L113.904 79.5924 L113.904 102.115 L118.834 102.115 L118.834 106.004 L113.904 106.004 L113.904 114.152 L109.251 114.152 L109.251 106.004 L93.6491 106.004 L93.6491 101.49 L108.024 79.5924 Z" fill="#000000" fill-rule="evenodd" fill-opacity="1" /><path clip-path="url(#clip932)" d="
M229.388 832.107 L229.388 1199.72 L229.388 464.49 L229.388 832.107 L626.549 832.107 L229.388 832.107  Z
  " fill="#009af9" fill-rule="evenodd" fill-opacity="1"/>
<polyline clip-path="url(#clip932)" style="stroke:#000000; stroke-linecap:round; stroke-linejoin:round; stroke-width:4; stroke-opacity:1; fill:none" points="
  229.388,832.107 229.388,1199.72 229.388,464.49 229.388,832.107 626.549,832.107 229.388,832.107 
  "/>
<path clip-path="url(#clip932)" d="
M626.549 96.8724 L803.661 96.8724 L803.661 1567.34 L626.549 1567.34 L626.549 96.8724 L803.661 96.8724 L626.549 96.8724  Z
  " fill="#009af9" fill-rule="evenodd" fill-opacity="1"/>
<polyline clip-path="url(#clip932)" style="stroke:#000000; stroke-linecap:round; stroke-linejoin:round; stroke-width:4; stroke-opacity:1; fill:none" points="
  626.549,96.8724 803.661,96.8724 803.661,1567.34 626.549,1567.34 626.549,96.8724 803.661,96.8724 626.549,96.8724 
  "/>
<path clip-path="url(#clip932)" d="
M1552.36 96.8724 L1552.36 1567.34 L803.661 1567.34 L803.661 96.8724 L1552.36 96.8724 L1552.36 832.107 L1552.36 96.8724  Z
  " fill="#009af9" fill-rule="evenodd" fill-opacity="1"/>
<polyline clip-path="url(#clip932)" style="stroke:#000000; stroke-linecap:round; stroke-linejoin:round; stroke-width:4; stroke-opacity:1; fill:none" points="
  1552.36,96.8724 1552.36,1567.34 803.661,1567.34 803.661,96.8724 1552.36,96.8724 1552.36,832.107 1552.36,96.8724 
  "/>
<path clip-path="url(#clip932)" d="
M2569.41 832.107 L2569.41 1199.72 L2569.41 464.49 L2569.41 832.107 L1552.36 832.107 L2569.41 832.107  Z
  " fill="#009af9" fill-rule="evenodd" fill-opacity="1"/>
<polyline clip-path="url(#clip932)" style="stroke:#000000; stroke-linecap:round; stroke-linejoin:round; stroke-width:4; stroke-opacity:1; fill:none" points="
  2569.41,832.107 2569.41,1199.72 2569.41,464.49 2569.41,832.107 1552.36,832.107 2569.41,832.107 
  "/>
<polyline clip-path="url(#clip932)" style="stroke:#009af9; stroke-linecap:round; stroke-linejoin:round; stroke-width:0; stroke-opacity:1; fill:none" points="
  229.388,832.107 229.388,1199.72 229.388,464.49 229.388,832.107 626.549,832.107 
  "/>
<polyline clip-path="url(#clip932)" style="stroke:#009af9; stroke-linecap:round; stroke-linejoin:round; stroke-width:0; stroke-opacity:1; fill:none" points="
  626.549,96.8724 803.661,96.8724 803.661,1567.34 626.549,1567.34 626.549,96.8724 803.661,96.8724 
  "/>
<polyline clip-path="url(#clip932)" style="stroke:#009af9; stroke-linecap:round; stroke-linejoin:round; stroke-width:0; stroke-opacity:1; fill:none" points="
  1552.36,96.8724 1552.36,1567.34 803.661,1567.34 803.661,96.8724 1552.36,96.8724 1552.36,832.107 
  "/>
<polyline clip-path="url(#clip932)" style="stroke:#009af9; stroke-linecap:round; stroke-linejoin:round; stroke-width:0; stroke-opacity:1; fill:none" points="
  2569.41,832.107 2569.41,1199.72 2569.41,464.49 2569.41,832.107 1552.36,832.107 
  "/>
<circle clip-path="url(#clip932)" cx="230.157" cy="1751.15" r="14.4" fill="#ff0000" fill-rule="evenodd" fill-opacity="1" stroke="#000000" stroke-opacity="1" stroke-width="3.84"/>
<circle clip-path="url(#clip932)" cx="283.988" cy="1751.15" r="14.4" fill="#ff0000" fill-rule="evenodd" fill-opacity="1" stroke="#000000" stroke-opacity="1" stroke-width="3.84"/>
<circle clip-path="url(#clip932)" cx="625.294" cy="1751.15" r="14.4" fill="#ffff00" fill-rule="evenodd" fill-opacity="1" stroke="#000000" stroke-opacity="1" stroke-width="3.84"/>
<circle clip-path="url(#clip932)" cx="624.769" cy="1751.15" r="14.4" fill="#ff0000" fill-rule="evenodd" fill-opacity="1" stroke="#000000" stroke-opacity="1" stroke-width="3.84"/>
<circle clip-path="url(#clip932)" cx="745.922" cy="1751.15" r="14.4" fill="#ffff00" fill-rule="evenodd" fill-opacity="1" stroke="#000000" stroke-opacity="1" stroke-width="3.84"/>
<circle clip-path="url(#clip932)" cx="855.568" cy="1751.15" r="14.4" fill="#0000ff" fill-rule="evenodd" fill-opacity="1" stroke="#000000" stroke-opacity="1" stroke-width="3.84"/>
<circle clip-path="url(#clip932)" cx="1108.93" cy="1751.15" r="14.4" fill="#0000ff" fill-rule="evenodd" fill-opacity="1" stroke="#000000" stroke-opacity="1" stroke-width="3.84"/>
<circle clip-path="url(#clip932)" cx="1699.32" cy="1751.15" r="14.4" fill="#ffc0cb" fill-rule="evenodd" fill-opacity="1" stroke="#000000" stroke-opacity="1" stroke-width="3.84"/>
<circle clip-path="url(#clip932)" cx="1959.52" cy="1751.15" r="14.4" fill="#ffc0cb" fill-rule="evenodd" fill-opacity="1" stroke="#000000" stroke-opacity="1" stroke-width="3.84"/>
<circle clip-path="url(#clip932)" cx="2570.52" cy="1751.15" r="14.4" fill="#ffc0cb" fill-rule="evenodd" fill-opacity="1" stroke="#000000" stroke-opacity="1" stroke-width="3.84"/>
</svg>
