<?xml version="1.0" encoding="utf-8"?>
<svg xmlns="http://www.w3.org/2000/svg" xmlns:xlink="http://www.w3.org/1999/xlink" width="672" height="480" viewBox="0 0 2688 1920">
<defs>
  <clipPath id="clip890">
    <rect x="0" y="0" width="2688" height="1920"/>
  </clipPath>
</defs>
<path clip-path="url(#clip890)" d="
M0 1920 L2688 1920 L2688 0 L0 0  Z
  " fill="#ffffff" fill-rule="evenodd" fill-opacity="1"/>
<defs>
  <clipPath id="clip891">
    <rect x="537" y="0" width="1883" height="1883"/>
  </clipPath>
</defs>
<path clip-path="url(#clip890)" d="
M188.807 1800.78 L2640.76 1800.78 L2640.76 47.2441 L188.807 47.2441  Z
  " fill="#ffffff" fill-rule="evenodd" fill-opacity="1"/>
<defs>
  <clipPath id="clip892">
    <rect x="188" y="47" width="2453" height="1755"/>
  </clipPath>
</defs>
<polyline clip-path="url(#clip892)" style="stroke:#000000; stroke-linecap:round; stroke-linejoin:round; stroke-width:2; stroke-opacity:0.1; fill:none" points="
  534.388,1800.78 534.388,47.2441 
  "/>
<polyline clip-path="url(#clip892)" style="stroke:#000000; stroke-linecap:round; stroke-linejoin:round; stroke-width:2; stroke-opacity:0.1; fill:none" points="
  1064,1800.78 1064,47.2441 
  "/>
<polyline clip-path="url(#clip892)" style="stroke:#000000; stroke-linecap:round; stroke-linejoin:round; stroke-width:2; stroke-opacity:0.1; fill:none" points="
  1593.61,1800.78 1593.61,47.2441 
  "/>
<polyline clip-path="url(#clip892)" style="stroke:#000000; stroke-linecap:round; stroke-linejoin:round; stroke-width:2; stroke-opacity:0.1; fill:none" points="
  2123.23,1800.78 2123.23,47.2441 
  "/>
<polyline clip-path="url(#clip890)" style="stroke:#000000; stroke-linecap:round; stroke-linejoin:round; stroke-width:4; stroke-opacity:1; fill:none" points="
  188.807,1800.78 2640.76,1800.78 
  "/>
<polyline clip-path="url(#clip890)" style="stroke:#000000; stroke-linecap:round; stroke-linejoin:round; stroke-width:4; stroke-opacity:1; fill:none" points="
  534.388,1800.78 534.388,1781.88 
  "/>
<polyline clip-path="url(#clip890)" style="stroke:#000000; stroke-linecap:round; stroke-linejoin:round; stroke-width:4; stroke-opacity:1; fill:none" points="
  1064,1800.78 1064,1781.88 
  "/>
<polyline clip-path="url(#clip890)" style="stroke:#000000; stroke-linecap:round; stroke-linejoin:round; stroke-width:4; stroke-opacity:1; fill:none" points="
  1593.61,1800.78 1593.61,1781.88 
  "/>
<polyline clip-path="url(#clip890)" style="stroke:#000000; stroke-linecap:round; stroke-linejoin:round; stroke-width:4; stroke-opacity:1; fill:none" points="
  2123.23,1800.78 2123.23,1781.88 
  "/>
<path clip-path="url(#clip890)" d="M493.994 1861.55 L501.633 1861.55 L501.633 1835.18 L493.323 1836.85 L493.323 1832.59 L501.587 1830.92 L506.263 1830.92 L506.263 1861.55 L513.902 1861.55 L513.902 1865.48 L493.994 1865.48 L493.994 1861.55 Z" fill="#000000" fill-rule="evenodd" fill-opacity="1" /><path clip-path="url(#clip890)" d="M533.346 1834 Q529.735 1834 527.906 1837.57 Q526.101 1841.11 526.101 1848.24 Q526.101 1855.34 527.906 1858.91 Q529.735 1862.45 533.346 1862.45 Q536.98 1862.45 538.786 1858.91 Q540.615 1855.34 540.615 1848.24 Q540.615 1841.11 538.786 1837.57 Q536.98 1834 533.346 1834 M533.346 1830.3 Q539.156 1830.3 542.212 1834.9 Q545.29 1839.49 545.29 1848.24 Q545.29 1856.96 542.212 1861.57 Q539.156 1866.15 533.346 1866.15 Q527.536 1866.15 524.457 1861.57 Q521.402 1856.96 521.402 1848.24 Q521.402 1839.49 524.457 1834.9 Q527.536 1830.3 533.346 1830.3 Z" fill="#000000" fill-rule="evenodd" fill-opacity="1" /><path clip-path="url(#clip890)" d="M563.508 1834 Q559.897 1834 558.068 1837.57 Q556.263 1841.11 556.263 1848.24 Q556.263 1855.34 558.068 1858.91 Q559.897 1862.45 563.508 1862.45 Q567.142 1862.45 568.948 1858.91 Q570.776 1855.34 570.776 1848.24 Q570.776 1841.11 568.948 1837.57 Q567.142 1834 563.508 1834 M563.508 1830.3 Q569.318 1830.3 572.374 1834.9 Q575.452 1839.49 575.452 1848.24 Q575.452 1856.96 572.374 1861.57 Q569.318 1866.15 563.508 1866.15 Q557.698 1866.15 554.619 1861.57 Q551.564 1856.96 551.564 1848.24 Q551.564 1839.49 554.619 1834.9 Q557.698 1830.3 563.508 1830.3 Z" fill="#000000" fill-rule="evenodd" fill-opacity="1" /><path clip-path="url(#clip890)" d="M1023.61 1861.55 L1031.25 1861.55 L1031.25 1835.18 L1022.94 1836.85 L1022.94 1832.59 L1031.2 1830.92 L1035.88 1830.92 L1035.88 1861.55 L1043.52 1861.55 L1043.52 1865.48 L1023.61 1865.48 L1023.61 1861.55 Z" fill="#000000" fill-rule="evenodd" fill-opacity="1" /><path clip-path="url(#clip890)" d="M1053.01 1830.92 L1071.36 1830.92 L1071.36 1834.86 L1057.29 1834.86 L1057.29 1843.33 Q1058.31 1842.98 1059.33 1842.82 Q1060.34 1842.64 1061.36 1842.64 Q1067.15 1842.64 1070.53 1845.81 Q1073.91 1848.98 1073.91 1854.4 Q1073.91 1859.97 1070.44 1863.08 Q1066.96 1866.15 1060.64 1866.15 Q1058.47 1866.15 1056.2 1865.78 Q1053.95 1865.41 1051.55 1864.67 L1051.55 1859.97 Q1053.63 1861.11 1055.85 1861.66 Q1058.08 1862.22 1060.55 1862.22 Q1064.56 1862.22 1066.89 1860.11 Q1069.23 1858.01 1069.23 1854.4 Q1069.23 1850.78 1066.89 1848.68 Q1064.56 1846.57 1060.55 1846.57 Q1058.68 1846.57 1056.8 1846.99 Q1054.95 1847.4 1053.01 1848.28 L1053.01 1830.92 Z" fill="#000000" fill-rule="evenodd" fill-opacity="1" /><path clip-path="url(#clip890)" d="M1093.12 1834 Q1089.51 1834 1087.68 1837.57 Q1085.88 1841.11 1085.88 1848.24 Q1085.88 1855.34 1087.68 1858.91 Q1089.51 1862.45 1093.12 1862.45 Q1096.76 1862.45 1098.56 1858.91 Q1100.39 1855.34 1100.39 1848.24 Q1100.39 1841.11 1098.56 1837.57 Q1096.76 1834 1093.12 1834 M1093.12 1830.3 Q1098.93 1830.3 1101.99 1834.9 Q1105.07 1839.49 1105.07 1848.24 Q1105.07 1856.96 1101.99 1861.57 Q1098.93 1866.15 1093.12 1866.15 Q1087.31 1866.15 1084.23 1861.57 Q1081.18 1856.96 1081.18 1848.24 Q1081.18 1839.49 1084.23 1834.9 Q1087.31 1830.3 1093.12 1830.3 Z" fill="#000000" fill-rule="evenodd" fill-opacity="1" /><path clip-path="url(#clip890)" d="M1557.31 1861.55 L1573.63 1861.55 L1573.63 1865.48 L1551.68 1865.48 L1551.68 1861.55 Q1554.34 1858.79 1558.93 1854.16 Q1563.53 1849.51 1564.71 1848.17 Q1566.96 1845.65 1567.84 1843.91 Q1568.74 1842.15 1568.74 1840.46 Q1568.74 1837.71 1566.8 1835.97 Q1564.88 1834.23 1561.77 1834.23 Q1559.58 1834.23 1557.12 1835 Q1554.69 1835.76 1551.91 1837.31 L1551.91 1832.59 Q1554.74 1831.46 1557.19 1830.88 Q1559.64 1830.3 1561.68 1830.3 Q1567.05 1830.3 1570.25 1832.98 Q1573.44 1835.67 1573.44 1840.16 Q1573.44 1842.29 1572.63 1844.21 Q1571.84 1846.11 1569.74 1848.7 Q1569.16 1849.37 1566.06 1852.59 Q1562.96 1855.78 1557.31 1861.55 Z" fill="#000000" fill-rule="evenodd" fill-opacity="1" /><path clip-path="url(#clip890)" d="M1593.44 1834 Q1589.83 1834 1588 1837.57 Q1586.2 1841.11 1586.2 1848.24 Q1586.2 1855.34 1588 1858.91 Q1589.83 1862.45 1593.44 1862.45 Q1597.08 1862.45 1598.88 1858.91 Q1600.71 1855.34 1600.71 1848.24 Q1600.71 1841.11 1598.88 1837.57 Q1597.08 1834 1593.44 1834 M1593.44 1830.3 Q1599.25 1830.3 1602.31 1834.9 Q1605.39 1839.49 1605.39 1848.24 Q1605.39 1856.96 1602.31 1861.57 Q1599.25 1866.15 1593.44 1866.15 Q1587.63 1866.15 1584.55 1861.57 Q1581.5 1856.96 1581.5 1848.24 Q1581.5 1839.49 1584.55 1834.9 Q1587.63 1830.3 1593.44 1830.3 Z" fill="#000000" fill-rule="evenodd" fill-opacity="1" /><path clip-path="url(#clip890)" d="M1623.6 1834 Q1619.99 1834 1618.16 1837.57 Q1616.36 1841.11 1616.36 1848.24 Q1616.36 1855.34 1618.16 1858.91 Q1619.99 1862.45 1623.6 1862.45 Q1627.24 1862.45 1629.04 1858.91 Q1630.87 1855.34 1630.87 1848.24 Q1630.87 1841.11 1629.04 1837.57 Q1627.24 1834 1623.6 1834 M1623.6 1830.3 Q1629.41 1830.3 1632.47 1834.9 Q1635.55 1839.49 1635.55 1848.24 Q1635.55 1856.96 1632.47 1861.57 Q1629.41 1866.15 1623.6 1866.15 Q1617.79 1866.15 1614.71 1861.57 Q1611.66 1856.96 1611.66 1848.24 Q1611.66 1839.49 1614.71 1834.9 Q1617.79 1830.3 1623.6 1830.3 Z" fill="#000000" fill-rule="evenodd" fill-opacity="1" /><path clip-path="url(#clip890)" d="M2086.92 1861.55 L2103.24 1861.55 L2103.24 1865.48 L2081.3 1865.48 L2081.3 1861.55 Q2083.96 1858.79 2088.54 1854.16 Q2093.15 1849.51 2094.33 1848.17 Q2096.57 1845.65 2097.45 1843.91 Q2098.36 1842.15 2098.36 1840.46 Q2098.36 1837.71 2096.41 1835.97 Q2094.49 1834.23 2091.39 1834.23 Q2089.19 1834.23 2086.74 1835 Q2084.3 1835.76 2081.53 1837.31 L2081.53 1832.59 Q2084.35 1831.46 2086.8 1830.88 Q2089.26 1830.3 2091.3 1830.3 Q2096.67 1830.3 2099.86 1832.98 Q2103.05 1835.67 2103.05 1840.16 Q2103.05 1842.29 2102.24 1844.21 Q2101.46 1846.11 2099.35 1848.7 Q2098.77 1849.37 2095.67 1852.59 Q2092.57 1855.78 2086.92 1861.55 Z" fill="#000000" fill-rule="evenodd" fill-opacity="1" /><path clip-path="url(#clip890)" d="M2113.1 1830.92 L2131.46 1830.92 L2131.46 1834.86 L2117.38 1834.86 L2117.38 1843.33 Q2118.4 1842.98 2119.42 1842.82 Q2120.44 1842.64 2121.46 1842.64 Q2127.24 1842.64 2130.62 1845.81 Q2134 1848.98 2134 1854.4 Q2134 1859.97 2130.53 1863.08 Q2127.06 1866.15 2120.74 1866.15 Q2118.56 1866.15 2116.3 1865.78 Q2114.05 1865.41 2111.64 1864.67 L2111.64 1859.97 Q2113.73 1861.11 2115.95 1861.66 Q2118.17 1862.22 2120.65 1862.22 Q2124.65 1862.22 2126.99 1860.11 Q2129.33 1858.01 2129.33 1854.4 Q2129.33 1850.78 2126.99 1848.68 Q2124.65 1846.57 2120.65 1846.57 Q2118.77 1846.57 2116.9 1846.99 Q2115.05 1847.4 2113.1 1848.28 L2113.1 1830.92 Z" fill="#000000" fill-rule="evenodd" fill-opacity="1" /><path clip-path="url(#clip890)" d="M2153.22 1834 Q2149.61 1834 2147.78 1837.57 Q2145.97 1841.11 2145.97 1848.24 Q2145.97 1855.34 2147.78 1858.91 Q2149.61 1862.45 2153.22 1862.45 Q2156.85 1862.45 2158.66 1858.91 Q2160.48 1855.34 2160.48 1848.24 Q2160.48 1841.11 2158.66 1837.57 Q2156.85 1834 2153.22 1834 M2153.22 1830.3 Q2159.03 1830.3 2162.08 1834.9 Q2165.16 1839.49 2165.16 1848.24 Q2165.16 1856.96 2162.08 1861.57 Q2159.03 1866.15 2153.22 1866.15 Q2147.41 1866.15 2144.33 1861.57 Q2141.27 1856.96 2141.27 1848.24 Q2141.27 1839.49 2144.33 1834.9 Q2147.41 1830.3 2153.22 1830.3 Z" fill="#000000" fill-rule="evenodd" fill-opacity="1" /><polyline clip-path="url(#clip892)" style="stroke:#000000; stroke-linecap:round; stroke-linejoin:round; stroke-width:2; stroke-opacity:0.1; fill:none" points="
  188.807,1751.15 2640.76,1751.15 
  "/>
<polyline clip-path="url(#clip892)" style="stroke:#000000; stroke-linecap:round; stroke-linejoin:round; stroke-width:2; stroke-opacity:0.1; fill:none" points="
  188.807,1337.58 2640.76,1337.58 
  "/>
<polyline clip-path="url(#clip892)" style="stroke:#000000; stroke-linecap:round; stroke-linejoin:round; stroke-width:2; stroke-opacity:0.1; fill:none" points="
  188.807,924.012 2640.76,924.012 
  "/>
<polyline clip-path="url(#clip892)" style="stroke:#000000; stroke-linecap:round; stroke-linejoin:round; stroke-width:2; stroke-opacity:0.1; fill:none" points="
  188.807,510.442 2640.76,510.442 
  "/>
<polyline clip-path="url(#clip892)" style="stroke:#000000; stroke-linecap:round; stroke-linejoin:round; stroke-width:2; stroke-opacity:0.1; fill:none" points="
  188.807,96.8724 2640.76,96.8724 
  "/>
<polyline clip-path="url(#clip890)" style="stroke:#000000; stroke-linecap:round; stroke-linejoin:round; stroke-width:4; stroke-opacity:1; fill:none" points="
  188.807,1800.78 188.807,47.2441 
  "/>
<polyline clip-path="url(#clip890)" style="stroke:#000000; stroke-linecap:round; stroke-linejoin:round; stroke-width:4; stroke-opacity:1; fill:none" points="
  188.807,1751.15 207.704,1751.15 
  "/>
<polyline clip-path="url(#clip890)" style="stroke:#000000; stroke-linecap:round; stroke-linejoin:round; stroke-width:4; stroke-opacity:1; fill:none" points="
  188.807,1337.58 207.704,1337.58 
  "/>
<polyline clip-path="url(#clip890)" style="stroke:#000000; stroke-linecap:round; stroke-linejoin:round; stroke-width:4; stroke-opacity:1; fill:none" points="
  188.807,924.012 207.704,924.012 
  "/>
<polyline clip-path="url(#clip890)" style="stroke:#000000; stroke-linecap:round; stroke-linejoin:round; stroke-width:4; stroke-opacity:1; fill:none" points="
  188.807,510.442 207.704,510.442 
  "/>
<polyline clip-path="url(#clip890)" style="stroke:#000000; stroke-linecap:round; stroke-linejoin:round; stroke-width:4; stroke-opacity:1; fill:none" points="
  188.807,96.8724 207.704,96.8724 
  "/>
<path clip-path="url(#clip890)" d="M51.9595 1764.5 L59.5984 1764.5 L59.5984 1738.13 L51.2882 1739.8 L51.2882 1735.54 L59.5521 1733.87 L64.228 1733.87 L64.228 1764.5 L71.8668 1764.5 L71.8668 1768.43 L51.9595 1768.43 L51.9595 1764.5 Z" fill="#000000" fill-rule="evenodd" fill-opacity="1" /><path clip-path="url(#clip890)" d="M81.3112 1762.55 L86.1954 1762.55 L86.1954 1768.43 L81.3112 1768.43 L81.3112 1762.55 Z" fill="#000000" fill-rule="evenodd" fill-opacity="1" /><path clip-path="url(#clip890)" d="M106.381 1736.95 Q102.769 1736.95 100.941 1740.51 Q99.1352 1744.06 99.1352 1751.19 Q99.1352 1758.29 100.941 1761.86 Q102.769 1765.4 106.381 1765.4 Q110.015 1765.4 111.82 1761.86 Q113.649 1758.29 113.649 1751.19 Q113.649 1744.06 111.82 1740.51 Q110.015 1736.95 106.381 1736.95 M106.381 1733.25 Q112.191 1733.25 115.246 1737.85 Q118.325 1742.44 118.325 1751.19 Q118.325 1759.91 115.246 1764.52 Q112.191 1769.1 106.381 1769.1 Q100.57 1769.1 97.4917 1764.52 Q94.4361 1759.91 94.4361 1751.19 Q94.4361 1742.44 97.4917 1737.85 Q100.57 1733.25 106.381 1733.25 Z" fill="#000000" fill-rule="evenodd" fill-opacity="1" /><path clip-path="url(#clip890)" d="M136.542 1736.95 Q132.931 1736.95 131.103 1740.51 Q129.297 1744.06 129.297 1751.19 Q129.297 1758.29 131.103 1761.86 Q132.931 1765.4 136.542 1765.4 Q140.177 1765.4 141.982 1761.86 Q143.811 1758.29 143.811 1751.19 Q143.811 1744.06 141.982 1740.51 Q140.177 1736.95 136.542 1736.95 M136.542 1733.25 Q142.353 1733.25 145.408 1737.85 Q148.487 1742.44 148.487 1751.19 Q148.487 1759.91 145.408 1764.52 Q142.353 1769.1 136.542 1769.1 Q130.732 1769.1 127.654 1764.52 Q124.598 1759.91 124.598 1751.19 Q124.598 1742.44 127.654 1737.85 Q130.732 1733.25 136.542 1733.25 Z" fill="#000000" fill-rule="evenodd" fill-opacity="1" /><path clip-path="url(#clip890)" d="M52.9549 1350.93 L60.5937 1350.93 L60.5937 1324.56 L52.2836 1326.23 L52.2836 1321.97 L60.5474 1320.3 L65.2233 1320.3 L65.2233 1350.93 L72.8622 1350.93 L72.8622 1354.86 L52.9549 1354.86 L52.9549 1350.93 Z" fill="#000000" fill-rule="evenodd" fill-opacity="1" /><path clip-path="url(#clip890)" d="M82.3066 1348.98 L87.1908 1348.98 L87.1908 1354.86 L82.3066 1354.86 L82.3066 1348.98 Z" fill="#000000" fill-rule="evenodd" fill-opacity="1" /><path clip-path="url(#clip890)" d="M101.404 1350.93 L117.723 1350.93 L117.723 1354.86 L95.7787 1354.86 L95.7787 1350.93 Q98.4408 1348.17 103.024 1343.54 Q107.631 1338.89 108.811 1337.55 Q111.056 1335.02 111.936 1333.29 Q112.839 1331.53 112.839 1329.84 Q112.839 1327.08 110.894 1325.35 Q108.973 1323.61 105.871 1323.61 Q103.672 1323.61 101.219 1324.38 Q98.788 1325.14 96.0102 1326.69 L96.0102 1321.97 Q98.8343 1320.83 101.288 1320.26 Q103.742 1319.68 105.779 1319.68 Q111.149 1319.68 114.343 1322.36 Q117.538 1325.05 117.538 1329.54 Q117.538 1331.67 116.728 1333.59 Q115.941 1335.49 113.834 1338.08 Q113.255 1338.75 110.154 1341.97 Q107.052 1345.16 101.404 1350.93 Z" fill="#000000" fill-rule="evenodd" fill-opacity="1" /><path clip-path="url(#clip890)" d="M127.584 1320.3 L145.94 1320.3 L145.94 1324.24 L131.866 1324.24 L131.866 1332.71 Q132.885 1332.36 133.904 1332.2 Q134.922 1332.01 135.941 1332.01 Q141.728 1332.01 145.107 1335.19 Q148.487 1338.36 148.487 1343.77 Q148.487 1349.35 145.015 1352.45 Q141.542 1355.53 135.223 1355.53 Q133.047 1355.53 130.779 1355.16 Q128.533 1354.79 126.126 1354.05 L126.126 1349.35 Q128.209 1350.49 130.431 1351.04 Q132.654 1351.6 135.13 1351.6 Q139.135 1351.6 141.473 1349.49 Q143.811 1347.38 143.811 1343.77 Q143.811 1340.16 141.473 1338.06 Q139.135 1335.95 135.13 1335.95 Q133.255 1335.95 131.38 1336.37 Q129.529 1336.78 127.584 1337.66 L127.584 1320.3 Z" fill="#000000" fill-rule="evenodd" fill-opacity="1" /><path clip-path="url(#clip890)" d="M51.9595 937.357 L59.5984 937.357 L59.5984 910.991 L51.2882 912.658 L51.2882 908.398 L59.5521 906.732 L64.228 906.732 L64.228 937.357 L71.8668 937.357 L71.8668 941.292 L51.9595 941.292 L51.9595 937.357 Z" fill="#000000" fill-rule="evenodd" fill-opacity="1" /><path clip-path="url(#clip890)" d="M81.3112 935.412 L86.1954 935.412 L86.1954 941.292 L81.3112 941.292 L81.3112 935.412 Z" fill="#000000" fill-rule="evenodd" fill-opacity="1" /><path clip-path="url(#clip890)" d="M96.4269 906.732 L114.783 906.732 L114.783 910.667 L100.709 910.667 L100.709 919.139 Q101.728 918.792 102.746 918.63 Q103.765 918.445 104.783 918.445 Q110.57 918.445 113.95 921.616 Q117.33 924.787 117.33 930.204 Q117.33 935.782 113.857 938.884 Q110.385 941.963 104.066 941.963 Q101.89 941.963 99.6213 941.593 Q97.3759 941.222 94.9685 940.482 L94.9685 935.782 Q97.0519 936.917 99.2741 937.472 Q101.496 938.028 103.973 938.028 Q107.978 938.028 110.316 935.921 Q112.654 933.815 112.654 930.204 Q112.654 926.593 110.316 924.486 Q107.978 922.38 103.973 922.38 Q102.098 922.38 100.223 922.796 Q98.3713 923.213 96.4269 924.093 L96.4269 906.732 Z" fill="#000000" fill-rule="evenodd" fill-opacity="1" /><path clip-path="url(#clip890)" d="M136.542 909.81 Q132.931 909.81 131.103 913.375 Q129.297 916.917 129.297 924.046 Q129.297 931.153 131.103 934.718 Q132.931 938.259 136.542 938.259 Q140.177 938.259 141.982 934.718 Q143.811 931.153 143.811 924.046 Q143.811 916.917 141.982 913.375 Q140.177 909.81 136.542 909.81 M136.542 906.107 Q142.353 906.107 145.408 910.713 Q148.487 915.296 148.487 924.046 Q148.487 932.773 145.408 937.38 Q142.353 941.963 136.542 941.963 Q130.732 941.963 127.654 937.38 Q124.598 932.773 124.598 924.046 Q124.598 915.296 127.654 910.713 Q130.732 906.107 136.542 906.107 Z" fill="#000000" fill-rule="evenodd" fill-opacity="1" /><path clip-path="url(#clip890)" d="M52.9549 523.787 L60.5937 523.787 L60.5937 497.421 L52.2836 499.088 L52.2836 494.829 L60.5474 493.162 L65.2233 493.162 L65.2233 523.787 L72.8622 523.787 L72.8622 527.722 L52.9549 527.722 L52.9549 523.787 Z" fill="#000000" fill-rule="evenodd" fill-opacity="1" /><path clip-path="url(#clip890)" d="M82.3066 521.842 L87.1908 521.842 L87.1908 527.722 L82.3066 527.722 L82.3066 521.842 Z" fill="#000000" fill-rule="evenodd" fill-opacity="1" /><path clip-path="url(#clip890)" d="M96.1954 493.162 L118.417 493.162 L118.417 495.153 L105.871 527.722 L100.987 527.722 L112.793 497.097 L96.1954 497.097 L96.1954 493.162 Z" fill="#000000" fill-rule="evenodd" fill-opacity="1" /><path clip-path="url(#clip890)" d="M127.584 493.162 L145.94 493.162 L145.94 497.097 L131.866 497.097 L131.866 505.569 Q132.885 505.222 133.904 505.06 Q134.922 504.875 135.941 504.875 Q141.728 504.875 145.107 508.046 Q148.487 511.218 148.487 516.634 Q148.487 522.213 145.015 525.315 Q141.542 528.393 135.223 528.393 Q133.047 528.393 130.779 528.023 Q128.533 527.653 126.126 526.912 L126.126 522.213 Q128.209 523.347 130.431 523.903 Q132.654 524.458 135.13 524.458 Q139.135 524.458 141.473 522.352 Q143.811 520.245 143.811 516.634 Q143.811 513.023 141.473 510.917 Q139.135 508.81 135.13 508.81 Q133.255 508.81 131.38 509.227 Q129.529 509.643 127.584 510.523 L127.584 493.162 Z" fill="#000000" fill-rule="evenodd" fill-opacity="1" /><path clip-path="url(#clip890)" d="M55.1771 110.217 L71.4965 110.217 L71.4965 114.152 L49.5521 114.152 L49.5521 110.217 Q52.2141 107.463 56.7975 102.833 Q61.4039 98.1803 62.5845 96.8377 Q64.8298 94.3146 65.7094 92.5785 Q66.6122 90.8192 66.6122 89.1294 Q66.6122 86.3748 64.6678 84.6387 Q62.7465 82.9026 59.6447 82.9026 Q57.4456 82.9026 54.9919 83.6665 Q52.5614 84.4304 49.7836 85.9813 L49.7836 81.2591 Q52.6077 80.1249 55.0614 79.5462 Q57.515 78.9675 59.5521 78.9675 Q64.9224 78.9675 68.1168 81.6526 Q71.3113 84.3378 71.3113 88.8285 Q71.3113 90.9581 70.5011 92.8794 Q69.7141 94.7776 67.6076 97.3701 Q67.0289 98.0414 63.927 101.259 Q60.8252 104.453 55.1771 110.217 Z" fill="#000000" fill-rule="evenodd" fill-opacity="1" /><path clip-path="url(#clip890)" d="M81.3112 108.273 L86.1954 108.273 L86.1954 114.152 L81.3112 114.152 L81.3112 108.273 Z" fill="#000000" fill-rule="evenodd" fill-opacity="1" /><path clip-path="url(#clip890)" d="M106.381 82.6711 Q102.769 82.6711 100.941 86.2359 Q99.1352 89.7776 99.1352 96.9072 Q99.1352 104.014 100.941 107.578 Q102.769 111.12 106.381 111.12 Q110.015 111.12 111.82 107.578 Q113.649 104.014 113.649 96.9072 Q113.649 89.7776 111.82 86.2359 Q110.015 82.6711 106.381 82.6711 M106.381 78.9675 Q112.191 78.9675 115.246 83.5739 Q118.325 88.1572 118.325 96.9072 Q118.325 105.634 115.246 110.24 Q112.191 114.824 106.381 114.824 Q100.57 114.824 97.4917 110.24 Q94.4361 105.634 94.4361 96.9072 Q94.4361 88.1572 97.4917 83.5739 Q100.57 78.9675 106.381 78.9675 Z" fill="#000000" fill-rule="evenodd" fill-opacity="1" /><path clip-path="url(#clip890)" d="M136.542 82.6711 Q132.931 82.6711 131.103 86.2359 Q129.297 89.7776 129.297 96.9072 Q129.297 104.014 131.103 107.578 Q132.931 111.12 136.542 111.12 Q140.177 111.12 141.982 107.578 Q143.811 104.014 143.811 96.9072 Q143.811 89.7776 141.982 86.2359 Q140.177 82.6711 136.542 82.6711 M136.542 78.9675 Q142.353 78.9675 145.408 83.5739 Q148.487 88.1572 148.487 96.9072 Q148.487 105.634 145.408 110.24 Q142.353 114.824 136.542 114.824 Q130.732 114.824 127.654 110.24 Q124.598 105.634 124.598 96.9072 Q124.598 88.1572 127.654 83.5739 Q130.732 78.9675 136.542 78.9675 Z" fill="#000000" fill-rule="evenodd" fill-opacity="1" /><circle clip-path="url(#clip892)" cx="258.202" cy="1751.15" r="14.4" fill="#009af9" fill-rule="evenodd" fill-opacity="1" stroke="#000000" stroke-opacity="1" stroke-width="3.84"/>
<circle clip-path="url(#clip892)" cx="314.814" cy="1751.15" r="14.4" fill="#009af9" fill-rule="evenodd" fill-opacity="1" stroke="#000000" stroke-opacity="1" stroke-width="3.84"/>
<circle clip-path="url(#clip892)" cx="651.832" cy="1751.15" r="14.4" fill="#009af9" fill-rule="evenodd" fill-opacity="1" stroke="#000000" stroke-opacity="1" stroke-width="3.84"/>
<circle clip-path="url(#clip892)" cx="653.725" cy="1751.15" r="14.4" fill="#009af9" fill-rule="evenodd" fill-opacity="1" stroke="#000000" stroke-opacity="1" stroke-width="3.84"/>
<circle clip-path="url(#clip892)" cx="765.528" cy="1751.15" r="14.4" fill="#009af9" fill-rule="evenodd" fill-opacity="1" stroke="#000000" stroke-opacity="1" stroke-width="3.84"/>
<circle clip-path="url(#clip892)" cx="893.317" cy="1751.15" r="14.4" fill="#009af9" fill-rule="evenodd" fill-opacity="1" stroke="#000000" stroke-opacity="1" stroke-width="3.84"/>
<circle clip-path="url(#clip892)" cx="1130.56" cy="1751.15" r="14.4" fill="#009af9" fill-rule="evenodd" fill-opacity="1" stroke="#000000" stroke-opacity="1" stroke-width="3.84"/>
<circle clip-path="url(#clip892)" cx="1709.1" cy="1751.15" r="14.4" fill="#009af9" fill-rule="evenodd" fill-opacity="1" stroke="#000000" stroke-opacity="1" stroke-width="3.84"/>
<circle clip-path="url(#clip892)" cx="1960.58" cy="1751.15" r="14.4" fill="#009af9" fill-rule="evenodd" fill-opacity="1" stroke="#000000" stroke-opacity="1" stroke-width="3.84"/>
<circle clip-path="url(#clip892)" cx="2571.36" cy="1751.15" r="14.4" fill="#009af9" fill-rule="evenodd" fill-opacity="1" stroke="#000000" stroke-opacity="1" stroke-width="3.84"/>
</svg>
