<?xml version="1.0" encoding="utf-8"?>
<svg xmlns="http://www.w3.org/2000/svg" xmlns:xlink="http://www.w3.org/1999/xlink" width="672" height="480" viewBox="0 0 2688 1920">
<defs>
  <clipPath id="clip670">
    <rect x="0" y="0" width="2688" height="1920"/>
  </clipPath>
</defs>
<path clip-path="url(#clip670)" d="
M0 1920 L2688 1920 L2688 0 L0 0  Z
  " fill="#ffffff" fill-rule="evenodd" fill-opacity="1"/>
<defs>
  <clipPath id="clip671">
    <rect x="537" y="0" width="1883" height="1883"/>
  </clipPath>
</defs>
<path clip-path="url(#clip670)" d="
M159.154 1800.78 L2640.76 1800.78 L2640.76 47.2441 L159.154 47.2441  Z
  " fill="#ffffff" fill-rule="evenodd" fill-opacity="1"/>
<defs>
  <clipPath id="clip672">
    <rect x="159" y="47" width="2483" height="1755"/>
  </clipPath>
</defs>
<polyline clip-path="url(#clip672)" style="stroke:#000000; stroke-linecap:round; stroke-linejoin:round; stroke-width:2; stroke-opacity:0.1; fill:none" points="
  510.634,1800.78 510.634,47.2441 
  "/>
<polyline clip-path="url(#clip672)" style="stroke:#000000; stroke-linecap:round; stroke-linejoin:round; stroke-width:2; stroke-opacity:0.1; fill:none" points="
  1047.06,1800.78 1047.06,47.2441 
  "/>
<polyline clip-path="url(#clip672)" style="stroke:#000000; stroke-linecap:round; stroke-linejoin:round; stroke-width:2; stroke-opacity:0.1; fill:none" points="
  1583.49,1800.78 1583.49,47.2441 
  "/>
<polyline clip-path="url(#clip672)" style="stroke:#000000; stroke-linecap:round; stroke-linejoin:round; stroke-width:2; stroke-opacity:0.1; fill:none" points="
  2119.92,1800.78 2119.92,47.2441 
  "/>
<polyline clip-path="url(#clip670)" style="stroke:#000000; stroke-linecap:round; stroke-linejoin:round; stroke-width:4; stroke-opacity:1; fill:none" points="
  159.154,1800.78 2640.76,1800.78 
  "/>
<polyline clip-path="url(#clip670)" style="stroke:#000000; stroke-linecap:round; stroke-linejoin:round; stroke-width:4; stroke-opacity:1; fill:none" points="
  510.634,1800.78 510.634,1781.88 
  "/>
<polyline clip-path="url(#clip670)" style="stroke:#000000; stroke-linecap:round; stroke-linejoin:round; stroke-width:4; stroke-opacity:1; fill:none" points="
  1047.06,1800.78 1047.06,1781.88 
  "/>
<polyline clip-path="url(#clip670)" style="stroke:#000000; stroke-linecap:round; stroke-linejoin:round; stroke-width:4; stroke-opacity:1; fill:none" points="
  1583.49,1800.78 1583.49,1781.88 
  "/>
<polyline clip-path="url(#clip670)" style="stroke:#000000; stroke-linecap:round; stroke-linejoin:round; stroke-width:4; stroke-opacity:1; fill:none" points="
  2119.92,1800.78 2119.92,1781.88 
  "/>
<path clip-path="url(#clip670)" d="M470.24 1861.55 L477.879 1861.55 L477.879 1835.18 L469.569 1836.85 L469.569 1832.59 L477.833 1830.92 L482.509 1830.92 L482.509 1861.55 L490.148 1861.55 L490.148 1865.48 L470.24 1865.48 L470.24 1861.55 Z" fill="#000000" fill-rule="evenodd" fill-opacity="1" /><path clip-path="url(#clip670)" d="M509.592 1834 Q505.981 1834 504.152 1837.57 Q502.347 1841.11 502.347 1848.24 Q502.347 1855.34 504.152 1858.91 Q505.981 1862.45 509.592 1862.45 Q513.226 1862.45 515.032 1858.91 Q516.861 1855.34 516.861 1848.24 Q516.861 1841.11 515.032 1837.57 Q513.226 1834 509.592 1834 M509.592 1830.3 Q515.402 1830.3 518.458 1834.9 Q521.536 1839.49 521.536 1848.24 Q521.536 1856.96 518.458 1861.57 Q515.402 1866.15 509.592 1866.15 Q503.782 1866.15 500.703 1861.57 Q497.648 1856.96 497.648 1848.24 Q497.648 1839.49 500.703 1834.9 Q503.782 1830.3 509.592 1830.3 Z" fill="#000000" fill-rule="evenodd" fill-opacity="1" /><path clip-path="url(#clip670)" d="M539.754 1834 Q536.143 1834 534.314 1837.57 Q532.509 1841.11 532.509 1848.24 Q532.509 1855.34 534.314 1858.91 Q536.143 1862.45 539.754 1862.45 Q543.388 1862.45 545.194 1858.91 Q547.022 1855.34 547.022 1848.24 Q547.022 1841.11 545.194 1837.57 Q543.388 1834 539.754 1834 M539.754 1830.3 Q545.564 1830.3 548.62 1834.9 Q551.698 1839.49 551.698 1848.24 Q551.698 1856.96 548.62 1861.57 Q545.564 1866.15 539.754 1866.15 Q533.944 1866.15 530.865 1861.57 Q527.81 1856.96 527.81 1848.24 Q527.81 1839.49 530.865 1834.9 Q533.944 1830.3 539.754 1830.3 Z" fill="#000000" fill-rule="evenodd" fill-opacity="1" /><path clip-path="url(#clip670)" d="M1006.67 1861.55 L1014.31 1861.55 L1014.31 1835.18 L1006 1836.85 L1006 1832.59 L1014.26 1830.92 L1018.94 1830.92 L1018.94 1861.55 L1026.58 1861.55 L1026.58 1865.48 L1006.67 1865.48 L1006.67 1861.55 Z" fill="#000000" fill-rule="evenodd" fill-opacity="1" /><path clip-path="url(#clip670)" d="M1036.07 1830.92 L1054.42 1830.92 L1054.42 1834.86 L1040.35 1834.86 L1040.35 1843.33 Q1041.37 1842.98 1042.39 1842.82 Q1043.41 1842.64 1044.42 1842.64 Q1050.21 1842.64 1053.59 1845.81 Q1056.97 1848.98 1056.97 1854.4 Q1056.97 1859.97 1053.5 1863.08 Q1050.03 1866.15 1043.71 1866.15 Q1041.53 1866.15 1039.26 1865.78 Q1037.02 1865.41 1034.61 1864.67 L1034.61 1859.97 Q1036.69 1861.11 1038.91 1861.66 Q1041.14 1862.22 1043.61 1862.22 Q1047.62 1862.22 1049.96 1860.11 Q1052.29 1858.01 1052.29 1854.4 Q1052.29 1850.78 1049.96 1848.68 Q1047.62 1846.57 1043.61 1846.57 Q1041.74 1846.57 1039.86 1846.99 Q1038.01 1847.4 1036.07 1848.28 L1036.07 1830.92 Z" fill="#000000" fill-rule="evenodd" fill-opacity="1" /><path clip-path="url(#clip670)" d="M1076.18 1834 Q1072.57 1834 1070.74 1837.57 Q1068.94 1841.11 1068.94 1848.24 Q1068.94 1855.34 1070.74 1858.91 Q1072.57 1862.45 1076.18 1862.45 Q1079.82 1862.45 1081.62 1858.91 Q1083.45 1855.34 1083.45 1848.24 Q1083.45 1841.11 1081.62 1837.57 Q1079.82 1834 1076.18 1834 M1076.18 1830.3 Q1081.99 1830.3 1085.05 1834.9 Q1088.13 1839.49 1088.13 1848.24 Q1088.13 1856.96 1085.05 1861.57 Q1081.99 1866.15 1076.18 1866.15 Q1070.37 1866.15 1067.29 1861.57 Q1064.24 1856.96 1064.24 1848.24 Q1064.24 1839.49 1067.29 1834.9 Q1070.37 1830.3 1076.18 1830.3 Z" fill="#000000" fill-rule="evenodd" fill-opacity="1" /><path clip-path="url(#clip670)" d="M1547.18 1861.55 L1563.5 1861.55 L1563.5 1865.48 L1541.56 1865.48 L1541.56 1861.55 Q1544.22 1858.79 1548.8 1854.16 Q1553.41 1849.51 1554.59 1848.17 Q1556.84 1845.65 1557.72 1843.91 Q1558.62 1842.15 1558.62 1840.46 Q1558.62 1837.71 1556.68 1835.97 Q1554.75 1834.23 1551.65 1834.23 Q1549.45 1834.23 1547 1835 Q1544.57 1835.76 1541.79 1837.31 L1541.79 1832.59 Q1544.62 1831.46 1547.07 1830.88 Q1549.52 1830.3 1551.56 1830.3 Q1556.93 1830.3 1560.12 1832.98 Q1563.32 1835.67 1563.32 1840.16 Q1563.32 1842.29 1562.51 1844.21 Q1561.72 1846.11 1559.61 1848.7 Q1559.04 1849.37 1555.93 1852.59 Q1552.83 1855.78 1547.18 1861.55 Z" fill="#000000" fill-rule="evenodd" fill-opacity="1" /><path clip-path="url(#clip670)" d="M1583.32 1834 Q1579.71 1834 1577.88 1837.57 Q1576.07 1841.11 1576.07 1848.24 Q1576.07 1855.34 1577.88 1858.91 Q1579.71 1862.45 1583.32 1862.45 Q1586.95 1862.45 1588.76 1858.91 Q1590.59 1855.34 1590.59 1848.24 Q1590.59 1841.11 1588.76 1837.57 Q1586.95 1834 1583.32 1834 M1583.32 1830.3 Q1589.13 1830.3 1592.18 1834.9 Q1595.26 1839.49 1595.26 1848.24 Q1595.26 1856.96 1592.18 1861.57 Q1589.13 1866.15 1583.32 1866.15 Q1577.51 1866.15 1574.43 1861.57 Q1571.37 1856.96 1571.37 1848.24 Q1571.37 1839.49 1574.43 1834.9 Q1577.51 1830.3 1583.32 1830.3 Z" fill="#000000" fill-rule="evenodd" fill-opacity="1" /><path clip-path="url(#clip670)" d="M1613.48 1834 Q1609.87 1834 1608.04 1837.57 Q1606.24 1841.11 1606.24 1848.24 Q1606.24 1855.34 1608.04 1858.91 Q1609.87 1862.45 1613.48 1862.45 Q1617.11 1862.45 1618.92 1858.91 Q1620.75 1855.34 1620.75 1848.24 Q1620.75 1841.11 1618.92 1837.57 Q1617.11 1834 1613.48 1834 M1613.48 1830.3 Q1619.29 1830.3 1622.35 1834.9 Q1625.42 1839.49 1625.42 1848.24 Q1625.42 1856.96 1622.35 1861.57 Q1619.29 1866.15 1613.48 1866.15 Q1607.67 1866.15 1604.59 1861.57 Q1601.54 1856.96 1601.54 1848.24 Q1601.54 1839.49 1604.59 1834.9 Q1607.67 1830.3 1613.48 1830.3 Z" fill="#000000" fill-rule="evenodd" fill-opacity="1" /><path clip-path="url(#clip670)" d="M2083.61 1861.55 L2099.93 1861.55 L2099.93 1865.48 L2077.99 1865.48 L2077.99 1861.55 Q2080.65 1858.79 2085.23 1854.16 Q2089.84 1849.51 2091.02 1848.17 Q2093.27 1845.65 2094.15 1843.91 Q2095.05 1842.15 2095.05 1840.46 Q2095.05 1837.71 2093.1 1835.97 Q2091.18 1834.23 2088.08 1834.23 Q2085.88 1834.23 2083.43 1835 Q2081 1835.76 2078.22 1837.31 L2078.22 1832.59 Q2081.04 1831.46 2083.5 1830.88 Q2085.95 1830.3 2087.99 1830.3 Q2093.36 1830.3 2096.55 1832.98 Q2099.75 1835.67 2099.75 1840.16 Q2099.75 1842.29 2098.94 1844.21 Q2098.15 1846.11 2096.04 1848.7 Q2095.47 1849.37 2092.36 1852.59 Q2089.26 1855.78 2083.61 1861.55 Z" fill="#000000" fill-rule="evenodd" fill-opacity="1" /><path clip-path="url(#clip670)" d="M2109.79 1830.92 L2128.15 1830.92 L2128.15 1834.86 L2114.08 1834.86 L2114.08 1843.33 Q2115.09 1842.98 2116.11 1842.82 Q2117.13 1842.64 2118.15 1842.64 Q2123.94 1842.64 2127.32 1845.81 Q2130.7 1848.98 2130.7 1854.4 Q2130.7 1859.97 2127.22 1863.08 Q2123.75 1866.15 2117.43 1866.15 Q2115.26 1866.15 2112.99 1865.78 Q2110.74 1865.41 2108.34 1864.67 L2108.34 1859.97 Q2110.42 1861.11 2112.64 1861.66 Q2114.86 1862.22 2117.34 1862.22 Q2121.34 1862.22 2123.68 1860.11 Q2126.02 1858.01 2126.02 1854.4 Q2126.02 1850.78 2123.68 1848.68 Q2121.34 1846.57 2117.34 1846.57 Q2115.47 1846.57 2113.59 1846.99 Q2111.74 1847.4 2109.79 1848.28 L2109.79 1830.92 Z" fill="#000000" fill-rule="evenodd" fill-opacity="1" /><path clip-path="url(#clip670)" d="M2149.91 1834 Q2146.3 1834 2144.47 1837.57 Q2142.66 1841.11 2142.66 1848.24 Q2142.66 1855.34 2144.47 1858.91 Q2146.3 1862.45 2149.91 1862.45 Q2153.54 1862.45 2155.35 1858.91 Q2157.18 1855.34 2157.18 1848.24 Q2157.18 1841.11 2155.35 1837.57 Q2153.54 1834 2149.91 1834 M2149.91 1830.3 Q2155.72 1830.3 2158.78 1834.9 Q2161.85 1839.49 2161.85 1848.24 Q2161.85 1856.96 2158.78 1861.57 Q2155.72 1866.15 2149.91 1866.15 Q2144.1 1866.15 2141.02 1861.57 Q2137.97 1856.96 2137.97 1848.24 Q2137.97 1839.49 2141.02 1834.9 Q2144.1 1830.3 2149.91 1830.3 Z" fill="#000000" fill-rule="evenodd" fill-opacity="1" /><polyline clip-path="url(#clip672)" style="stroke:#000000; stroke-linecap:round; stroke-linejoin:round; stroke-width:2; stroke-opacity:0.1; fill:none" points="
  159.154,1567.34 2640.76,1567.34 
  "/>
<polyline clip-path="url(#clip672)" style="stroke:#000000; stroke-linecap:round; stroke-linejoin:round; stroke-width:2; stroke-opacity:0.1; fill:none" points="
  159.154,1199.72 2640.76,1199.72 
  "/>
<polyline clip-path="url(#clip672)" style="stroke:#000000; stroke-linecap:round; stroke-linejoin:round; stroke-width:2; stroke-opacity:0.1; fill:none" points="
  159.154,832.107 2640.76,832.107 
  "/>
<polyline clip-path="url(#clip672)" style="stroke:#000000; stroke-linecap:round; stroke-linejoin:round; stroke-width:2; stroke-opacity:0.1; fill:none" points="
  159.154,464.49 2640.76,464.49 
  "/>
<polyline clip-path="url(#clip672)" style="stroke:#000000; stroke-linecap:round; stroke-linejoin:round; stroke-width:2; stroke-opacity:0.1; fill:none" points="
  159.154,96.8724 2640.76,96.8724 
  "/>
<polyline clip-path="url(#clip670)" style="stroke:#000000; stroke-linecap:round; stroke-linejoin:round; stroke-width:4; stroke-opacity:1; fill:none" points="
  159.154,1800.78 159.154,47.2441 
  "/>
<polyline clip-path="url(#clip670)" style="stroke:#000000; stroke-linecap:round; stroke-linejoin:round; stroke-width:4; stroke-opacity:1; fill:none" points="
  159.154,1567.34 178.052,1567.34 
  "/>
<polyline clip-path="url(#clip670)" style="stroke:#000000; stroke-linecap:round; stroke-linejoin:round; stroke-width:4; stroke-opacity:1; fill:none" points="
  159.154,1199.72 178.052,1199.72 
  "/>
<polyline clip-path="url(#clip670)" style="stroke:#000000; stroke-linecap:round; stroke-linejoin:round; stroke-width:4; stroke-opacity:1; fill:none" points="
  159.154,832.107 178.052,832.107 
  "/>
<polyline clip-path="url(#clip670)" style="stroke:#000000; stroke-linecap:round; stroke-linejoin:round; stroke-width:4; stroke-opacity:1; fill:none" points="
  159.154,464.49 178.052,464.49 
  "/>
<polyline clip-path="url(#clip670)" style="stroke:#000000; stroke-linecap:round; stroke-linejoin:round; stroke-width:4; stroke-opacity:1; fill:none" points="
  159.154,96.8724 178.052,96.8724 
  "/>
<path clip-path="url(#clip670)" d="M61.4965 1553.14 Q57.8854 1553.14 56.0567 1556.71 Q54.2512 1560.25 54.2512 1567.38 Q54.2512 1574.48 56.0567 1578.05 Q57.8854 1581.59 61.4965 1581.59 Q65.1307 1581.59 66.9363 1578.05 Q68.765 1574.48 68.765 1567.38 Q68.765 1560.25 66.9363 1556.71 Q65.1307 1553.14 61.4965 1553.14 M61.4965 1549.44 Q67.3067 1549.44 70.3622 1554.04 Q73.4409 1558.63 73.4409 1567.38 Q73.4409 1576.1 70.3622 1580.71 Q67.3067 1585.29 61.4965 1585.29 Q55.6864 1585.29 52.6077 1580.71 Q49.5521 1576.1 49.5521 1567.38 Q49.5521 1558.63 52.6077 1554.04 Q55.6864 1549.44 61.4965 1549.44 Z" fill="#000000" fill-rule="evenodd" fill-opacity="1" /><path clip-path="url(#clip670)" d="M81.6584 1578.74 L86.5427 1578.74 L86.5427 1584.62 L81.6584 1584.62 L81.6584 1578.74 Z" fill="#000000" fill-rule="evenodd" fill-opacity="1" /><path clip-path="url(#clip670)" d="M107.306 1565.48 Q104.158 1565.48 102.306 1567.63 Q100.478 1569.78 100.478 1573.53 Q100.478 1577.26 102.306 1579.44 Q104.158 1581.59 107.306 1581.59 Q110.455 1581.59 112.283 1579.44 Q114.135 1577.26 114.135 1573.53 Q114.135 1569.78 112.283 1567.63 Q110.455 1565.48 107.306 1565.48 M116.589 1550.83 L116.589 1555.09 Q114.83 1554.25 113.024 1553.81 Q111.242 1553.37 109.482 1553.37 Q104.853 1553.37 102.399 1556.5 Q99.9685 1559.62 99.6213 1565.94 Q100.987 1563.93 103.047 1562.86 Q105.107 1561.78 107.584 1561.78 Q112.793 1561.78 115.802 1564.95 Q118.834 1568.09 118.834 1573.53 Q118.834 1578.86 115.686 1582.08 Q112.538 1585.29 107.306 1585.29 Q101.311 1585.29 98.1398 1580.71 Q94.9685 1576.1 94.9685 1567.38 Q94.9685 1559.18 98.8574 1554.32 Q102.746 1549.44 109.297 1549.44 Q111.056 1549.44 112.839 1549.78 Q114.644 1550.13 116.589 1550.83 Z" fill="#000000" fill-rule="evenodd" fill-opacity="1" /><path clip-path="url(#clip670)" d="M61.7511 1185.52 Q58.14 1185.52 56.3113 1189.09 Q54.5058 1192.63 54.5058 1199.76 Q54.5058 1206.87 56.3113 1210.43 Q58.14 1213.97 61.7511 1213.97 Q65.3854 1213.97 67.1909 1210.43 Q69.0196 1206.87 69.0196 1199.76 Q69.0196 1192.63 67.1909 1189.09 Q65.3854 1185.52 61.7511 1185.52 M61.7511 1181.82 Q67.5613 1181.82 70.6168 1186.43 Q73.6955 1191.01 73.6955 1199.76 Q73.6955 1208.49 70.6168 1213.09 Q67.5613 1217.68 61.7511 1217.68 Q55.941 1217.68 52.8623 1213.09 Q49.8068 1208.49 49.8068 1199.76 Q49.8068 1191.01 52.8623 1186.43 Q55.941 1181.82 61.7511 1181.82 Z" fill="#000000" fill-rule="evenodd" fill-opacity="1" /><path clip-path="url(#clip670)" d="M81.9131 1211.13 L86.7973 1211.13 L86.7973 1217 L81.9131 1217 L81.9131 1211.13 Z" fill="#000000" fill-rule="evenodd" fill-opacity="1" /><path clip-path="url(#clip670)" d="M106.982 1200.59 Q103.649 1200.59 101.728 1202.38 Q99.8296 1204.16 99.8296 1207.28 Q99.8296 1210.41 101.728 1212.19 Q103.649 1213.97 106.982 1213.97 Q110.316 1213.97 112.237 1212.19 Q114.158 1210.38 114.158 1207.28 Q114.158 1204.16 112.237 1202.38 Q110.339 1200.59 106.982 1200.59 M102.306 1198.6 Q99.2972 1197.86 97.6074 1195.8 Q95.9408 1193.74 95.9408 1190.78 Q95.9408 1186.63 98.8806 1184.23 Q101.844 1181.82 106.982 1181.82 Q112.144 1181.82 115.084 1184.23 Q118.024 1186.63 118.024 1190.78 Q118.024 1193.74 116.334 1195.8 Q114.668 1197.86 111.681 1198.6 Q115.061 1199.39 116.936 1201.68 Q118.834 1203.97 118.834 1207.28 Q118.834 1212.31 115.755 1214.99 Q112.7 1217.68 106.982 1217.68 Q101.265 1217.68 98.1861 1214.99 Q95.1306 1212.31 95.1306 1207.28 Q95.1306 1203.97 97.0287 1201.68 Q98.9269 1199.39 102.306 1198.6 M100.594 1191.22 Q100.594 1193.9 102.26 1195.41 Q103.95 1196.91 106.982 1196.91 Q109.992 1196.91 111.681 1195.41 Q113.394 1193.9 113.394 1191.22 Q113.394 1188.53 111.681 1187.03 Q109.992 1185.52 106.982 1185.52 Q103.95 1185.52 102.26 1187.03 Q100.594 1188.53 100.594 1191.22 Z" fill="#000000" fill-rule="evenodd" fill-opacity="1" /><path clip-path="url(#clip670)" d="M52.4688 845.452 L60.1076 845.452 L60.1076 819.087 L51.7975 820.753 L51.7975 816.494 L60.0613 814.827 L64.7372 814.827 L64.7372 845.452 L72.3761 845.452 L72.3761 849.387 L52.4688 849.387 L52.4688 845.452 Z" fill="#000000" fill-rule="evenodd" fill-opacity="1" /><path clip-path="url(#clip670)" d="M81.8205 843.508 L86.7047 843.508 L86.7047 849.387 L81.8205 849.387 L81.8205 843.508 Z" fill="#000000" fill-rule="evenodd" fill-opacity="1" /><path clip-path="url(#clip670)" d="M106.89 817.906 Q103.279 817.906 101.45 821.471 Q99.6445 825.012 99.6445 832.142 Q99.6445 839.249 101.45 842.813 Q103.279 846.355 106.89 846.355 Q110.524 846.355 112.33 842.813 Q114.158 839.249 114.158 832.142 Q114.158 825.012 112.33 821.471 Q110.524 817.906 106.89 817.906 M106.89 814.202 Q112.7 814.202 115.755 818.809 Q118.834 823.392 118.834 832.142 Q118.834 840.869 115.755 845.475 Q112.7 850.059 106.89 850.059 Q101.08 850.059 98.0009 845.475 Q94.9454 840.869 94.9454 832.142 Q94.9454 823.392 98.0009 818.809 Q101.08 814.202 106.89 814.202 Z" fill="#000000" fill-rule="evenodd" fill-opacity="1" /><path clip-path="url(#clip670)" d="M54.066 477.835 L61.7048 477.835 L61.7048 451.469 L53.3947 453.136 L53.3947 448.877 L61.6585 447.21 L66.3344 447.21 L66.3344 477.835 L73.9733 477.835 L73.9733 481.77 L54.066 481.77 L54.066 477.835 Z" fill="#000000" fill-rule="evenodd" fill-opacity="1" /><path clip-path="url(#clip670)" d="M83.4177 475.89 L88.3019 475.89 L88.3019 481.77 L83.4177 481.77 L83.4177 475.89 Z" fill="#000000" fill-rule="evenodd" fill-opacity="1" /><path clip-path="url(#clip670)" d="M102.515 477.835 L118.834 477.835 L118.834 481.77 L96.8898 481.77 L96.8898 477.835 Q99.5519 475.08 104.135 470.451 Q108.742 465.798 109.922 464.455 Q112.168 461.932 113.047 460.196 Q113.95 458.437 113.95 456.747 Q113.95 453.992 112.005 452.256 Q110.084 450.52 106.982 450.52 Q104.783 450.52 102.33 451.284 Q99.8991 452.048 97.1213 453.599 L97.1213 448.877 Q99.9454 447.742 102.399 447.164 Q104.853 446.585 106.89 446.585 Q112.26 446.585 115.455 449.27 Q118.649 451.955 118.649 456.446 Q118.649 458.576 117.839 460.497 Q117.052 462.395 114.945 464.988 Q114.367 465.659 111.265 468.876 Q108.163 472.071 102.515 477.835 Z" fill="#000000" fill-rule="evenodd" fill-opacity="1" /><path clip-path="url(#clip670)" d="M51.9827 110.217 L59.6215 110.217 L59.6215 83.8517 L51.3114 85.5183 L51.3114 81.2591 L59.5752 79.5924 L64.2511 79.5924 L64.2511 110.217 L71.89 110.217 L71.89 114.152 L51.9827 114.152 L51.9827 110.217 Z" fill="#000000" fill-rule="evenodd" fill-opacity="1" /><path clip-path="url(#clip670)" d="M81.3344 108.273 L86.2186 108.273 L86.2186 114.152 L81.3344 114.152 L81.3344 108.273 Z" fill="#000000" fill-rule="evenodd" fill-opacity="1" /><path clip-path="url(#clip670)" d="M109.251 83.6665 L97.4454 102.115 L109.251 102.115 L109.251 83.6665 M108.024 79.5924 L113.904 79.5924 L113.904 102.115 L118.834 102.115 L118.834 106.004 L113.904 106.004 L113.904 114.152 L109.251 114.152 L109.251 106.004 L93.6491 106.004 L93.6491 101.49 L108.024 79.5924 Z" fill="#000000" fill-rule="evenodd" fill-opacity="1" /><path clip-path="url(#clip672)" d="
M231.691 832.107 L231.691 1199.72 L231.691 464.49 L231.691 832.107 L628.648 832.107 L231.691 832.107  Z
  " fill="#009af9" fill-rule="evenodd" fill-opacity="1"/>
<polyline clip-path="url(#clip672)" style="stroke:#000000; stroke-linecap:round; stroke-linejoin:round; stroke-width:4; stroke-opacity:1; fill:none" points="
  231.691,832.107 231.691,1199.72 231.691,464.49 231.691,832.107 628.648,832.107 231.691,832.107 
  "/>
<path clip-path="url(#clip672)" d="
M628.648 96.8724 L805.67 96.8724 L805.67 1567.34 L628.648 1567.34 L628.648 96.8724 L805.67 96.8724 L628.648 96.8724  Z
  " fill="#009af9" fill-rule="evenodd" fill-opacity="1"/>
<polyline clip-path="url(#clip672)" style="stroke:#000000; stroke-linecap:round; stroke-linejoin:round; stroke-width:4; stroke-opacity:1; fill:none" points="
  628.648,96.8724 805.67,96.8724 805.67,1567.34 628.648,1567.34 628.648,96.8724 805.67,96.8724 628.648,96.8724 
  "/>
<path clip-path="url(#clip672)" d="
M1553.99 96.8724 L1553.99 1567.34 L805.67 1567.34 L805.67 96.8724 L1553.99 96.8724 L1553.99 832.107 L1553.99 96.8724  Z
  " fill="#009af9" fill-rule="evenodd" fill-opacity="1"/>
<polyline clip-path="url(#clip672)" style="stroke:#000000; stroke-linecap:round; stroke-linejoin:round; stroke-width:4; stroke-opacity:1; fill:none" points="
  1553.99,96.8724 1553.99,1567.34 805.67,1567.34 805.67,96.8724 1553.99,96.8724 1553.99,832.107 1553.99,96.8724 
  "/>
<path clip-path="url(#clip672)" d="
M2570.52 832.107 L2570.52 1199.72 L2570.52 464.49 L2570.52 832.107 L1553.99 832.107 L2570.52 832.107  Z
  " fill="#009af9" fill-rule="evenodd" fill-opacity="1"/>
<polyline clip-path="url(#clip672)" style="stroke:#000000; stroke-linecap:round; stroke-linejoin:round; stroke-width:4; stroke-opacity:1; fill:none" points="
  2570.52,832.107 2570.52,1199.72 2570.52,464.49 2570.52,832.107 1553.99,832.107 2570.52,832.107 
  "/>
<polyline clip-path="url(#clip672)" style="stroke:#009af9; stroke-linecap:round; stroke-linejoin:round; stroke-width:0; stroke-opacity:1; fill:none" points="
  231.691,832.107 231.691,1199.72 231.691,464.49 231.691,832.107 628.648,832.107 
  "/>
<polyline clip-path="url(#clip672)" style="stroke:#009af9; stroke-linecap:round; stroke-linejoin:round; stroke-width:0; stroke-opacity:1; fill:none" points="
  628.648,96.8724 805.67,96.8724 805.67,1567.34 628.648,1567.34 628.648,96.8724 805.67,96.8724 
  "/>
<polyline clip-path="url(#clip672)" style="stroke:#009af9; stroke-linecap:round; stroke-linejoin:round; stroke-width:0; stroke-opacity:1; fill:none" points="
  1553.99,96.8724 1553.99,1567.34 805.67,1567.34 805.67,96.8724 1553.99,96.8724 1553.99,832.107 
  "/>
<polyline clip-path="url(#clip672)" style="stroke:#009af9; stroke-linecap:round; stroke-linejoin:round; stroke-width:0; stroke-opacity:1; fill:none" points="
  2570.52,832.107 2570.52,1199.72 2570.52,464.49 2570.52,832.107 1553.99,832.107 
  "/>
<circle clip-path="url(#clip672)" cx="229.388" cy="1751.15" r="14.4" fill="#ff0000" fill-rule="evenodd" fill-opacity="1" stroke="#000000" stroke-opacity="1" stroke-width="3.84"/>
<circle clip-path="url(#clip672)" cx="288.854" cy="1751.15" r="14.4" fill="#ff0000" fill-rule="evenodd" fill-opacity="1" stroke="#000000" stroke-opacity="1" stroke-width="3.84"/>
<circle clip-path="url(#clip672)" cx="628.73" cy="1751.15" r="14.4" fill="#ff0000" fill-rule="evenodd" fill-opacity="1" stroke="#000000" stroke-opacity="1" stroke-width="3.84"/>
<circle clip-path="url(#clip672)" cx="632.102" cy="1751.15" r="14.4" fill="#ff0000" fill-rule="evenodd" fill-opacity="1" stroke="#000000" stroke-opacity="1" stroke-width="3.84"/>
<circle clip-path="url(#clip672)" cx="752.295" cy="1751.15" r="14.4" fill="#ffff00" fill-rule="evenodd" fill-opacity="1" stroke="#000000" stroke-opacity="1" stroke-width="3.84"/>
<circle clip-path="url(#clip672)" cx="860.952" cy="1751.15" r="14.4" fill="#0000ff" fill-rule="evenodd" fill-opacity="1" stroke="#000000" stroke-opacity="1" stroke-width="3.84"/>
<circle clip-path="url(#clip672)" cx="1109.99" cy="1751.15" r="14.4" fill="#0000ff" fill-rule="evenodd" fill-opacity="1" stroke="#000000" stroke-opacity="1" stroke-width="3.84"/>
<circle clip-path="url(#clip672)" cx="1698.18" cy="1751.15" r="14.4" fill="#ffc0cb" fill-rule="evenodd" fill-opacity="1" stroke="#000000" stroke-opacity="1" stroke-width="3.84"/>
<circle clip-path="url(#clip672)" cx="1954.04" cy="1751.15" r="14.4" fill="#ffc0cb" fill-rule="evenodd" fill-opacity="1" stroke="#000000" stroke-opacity="1" stroke-width="3.84"/>
<circle clip-path="url(#clip672)" cx="2569.16" cy="1751.15" r="14.4" fill="#ffc0cb" fill-rule="evenodd" fill-opacity="1" stroke="#000000" stroke-opacity="1" stroke-width="3.84"/>
</svg>
