<?xml version="1.0" encoding="utf-8"?>
<svg xmlns="http://www.w3.org/2000/svg" xmlns:xlink="http://www.w3.org/1999/xlink" width="672" height="480" viewBox="0 0 2688 1920">
<defs>
  <clipPath id="clip630">
    <rect x="0" y="0" width="2688" height="1920"/>
  </clipPath>
</defs>
<path clip-path="url(#clip630)" d="
M0 1920 L2688 1920 L2688 0 L0 0  Z
  " fill="#ffffff" fill-rule="evenodd" fill-opacity="1"/>
<defs>
  <clipPath id="clip631">
    <rect x="537" y="0" width="1883" height="1883"/>
  </clipPath>
</defs>
<path clip-path="url(#clip630)" d="
M188.807 1800.78 L2640.76 1800.78 L2640.76 47.2441 L188.807 47.2441  Z
  " fill="#ffffff" fill-rule="evenodd" fill-opacity="1"/>
<defs>
  <clipPath id="clip632">
    <rect x="188" y="47" width="2453" height="1755"/>
  </clipPath>
</defs>
<polyline clip-path="url(#clip632)" style="stroke:#000000; stroke-linecap:round; stroke-linejoin:round; stroke-width:2; stroke-opacity:0.1; fill:none" points="
  536.81,1800.78 536.81,47.2441 
  "/>
<polyline clip-path="url(#clip632)" style="stroke:#000000; stroke-linecap:round; stroke-linejoin:round; stroke-width:2; stroke-opacity:0.1; fill:none" points="
  1066.4,1800.78 1066.4,47.2441 
  "/>
<polyline clip-path="url(#clip632)" style="stroke:#000000; stroke-linecap:round; stroke-linejoin:round; stroke-width:2; stroke-opacity:0.1; fill:none" points="
  1595.98,1800.78 1595.98,47.2441 
  "/>
<polyline clip-path="url(#clip632)" style="stroke:#000000; stroke-linecap:round; stroke-linejoin:round; stroke-width:2; stroke-opacity:0.1; fill:none" points="
  2125.57,1800.78 2125.57,47.2441 
  "/>
<polyline clip-path="url(#clip630)" style="stroke:#000000; stroke-linecap:round; stroke-linejoin:round; stroke-width:4; stroke-opacity:1; fill:none" points="
  188.807,1800.78 2640.76,1800.78 
  "/>
<polyline clip-path="url(#clip630)" style="stroke:#000000; stroke-linecap:round; stroke-linejoin:round; stroke-width:4; stroke-opacity:1; fill:none" points="
  536.81,1800.78 536.81,1781.88 
  "/>
<polyline clip-path="url(#clip630)" style="stroke:#000000; stroke-linecap:round; stroke-linejoin:round; stroke-width:4; stroke-opacity:1; fill:none" points="
  1066.4,1800.78 1066.4,1781.88 
  "/>
<polyline clip-path="url(#clip630)" style="stroke:#000000; stroke-linecap:round; stroke-linejoin:round; stroke-width:4; stroke-opacity:1; fill:none" points="
  1595.98,1800.78 1595.98,1781.88 
  "/>
<polyline clip-path="url(#clip630)" style="stroke:#000000; stroke-linecap:round; stroke-linejoin:round; stroke-width:4; stroke-opacity:1; fill:none" points="
  2125.57,1800.78 2125.57,1781.88 
  "/>
<path clip-path="url(#clip630)" d="M496.417 1861.55 L504.056 1861.55 L504.056 1835.18 L495.745 1836.85 L495.745 1832.59 L504.009 1830.92 L508.685 1830.92 L508.685 1861.55 L516.324 1861.55 L516.324 1865.48 L496.417 1865.48 L496.417 1861.55 Z" fill="#000000" fill-rule="evenodd" fill-opacity="1" /><path clip-path="url(#clip630)" d="M535.768 1834 Q532.157 1834 530.329 1837.57 Q528.523 1841.11 528.523 1848.24 Q528.523 1855.34 530.329 1858.91 Q532.157 1862.45 535.768 1862.45 Q539.403 1862.45 541.208 1858.91 Q543.037 1855.34 543.037 1848.24 Q543.037 1841.11 541.208 1837.57 Q539.403 1834 535.768 1834 M535.768 1830.3 Q541.578 1830.3 544.634 1834.9 Q547.713 1839.49 547.713 1848.24 Q547.713 1856.96 544.634 1861.57 Q541.578 1866.15 535.768 1866.15 Q529.958 1866.15 526.879 1861.57 Q523.824 1856.96 523.824 1848.24 Q523.824 1839.49 526.879 1834.9 Q529.958 1830.3 535.768 1830.3 Z" fill="#000000" fill-rule="evenodd" fill-opacity="1" /><path clip-path="url(#clip630)" d="M565.93 1834 Q562.319 1834 560.49 1837.57 Q558.685 1841.11 558.685 1848.24 Q558.685 1855.34 560.49 1858.91 Q562.319 1862.45 565.93 1862.45 Q569.564 1862.45 571.37 1858.91 Q573.199 1855.34 573.199 1848.24 Q573.199 1841.11 571.37 1837.57 Q569.564 1834 565.93 1834 M565.93 1830.3 Q571.74 1830.3 574.796 1834.9 Q577.875 1839.49 577.875 1848.24 Q577.875 1856.96 574.796 1861.57 Q571.74 1866.15 565.93 1866.15 Q560.12 1866.15 557.041 1861.57 Q553.986 1856.96 553.986 1848.24 Q553.986 1839.49 557.041 1834.9 Q560.12 1830.3 565.93 1830.3 Z" fill="#000000" fill-rule="evenodd" fill-opacity="1" /><path clip-path="url(#clip630)" d="M1026 1861.55 L1033.64 1861.55 L1033.64 1835.18 L1025.33 1836.85 L1025.33 1832.59 L1033.6 1830.92 L1038.27 1830.92 L1038.27 1861.55 L1045.91 1861.55 L1045.91 1865.48 L1026 1865.48 L1026 1861.55 Z" fill="#000000" fill-rule="evenodd" fill-opacity="1" /><path clip-path="url(#clip630)" d="M1055.4 1830.92 L1073.76 1830.92 L1073.76 1834.86 L1059.68 1834.86 L1059.68 1843.33 Q1060.7 1842.98 1061.72 1842.82 Q1062.74 1842.64 1063.76 1842.64 Q1069.54 1842.64 1072.92 1845.81 Q1076.3 1848.98 1076.3 1854.4 Q1076.3 1859.97 1072.83 1863.08 Q1069.36 1866.15 1063.04 1866.15 Q1060.86 1866.15 1058.6 1865.78 Q1056.35 1865.41 1053.94 1864.67 L1053.94 1859.97 Q1056.03 1861.11 1058.25 1861.66 Q1060.47 1862.22 1062.95 1862.22 Q1066.95 1862.22 1069.29 1860.11 Q1071.63 1858.01 1071.63 1854.4 Q1071.63 1850.78 1069.29 1848.68 Q1066.95 1846.57 1062.95 1846.57 Q1061.07 1846.57 1059.2 1846.99 Q1057.35 1847.4 1055.4 1848.28 L1055.4 1830.92 Z" fill="#000000" fill-rule="evenodd" fill-opacity="1" /><path clip-path="url(#clip630)" d="M1095.52 1834 Q1091.91 1834 1090.08 1837.57 Q1088.27 1841.11 1088.27 1848.24 Q1088.27 1855.34 1090.08 1858.91 Q1091.91 1862.45 1095.52 1862.45 Q1099.15 1862.45 1100.96 1858.91 Q1102.79 1855.34 1102.79 1848.24 Q1102.79 1841.11 1100.96 1837.57 Q1099.15 1834 1095.52 1834 M1095.52 1830.3 Q1101.33 1830.3 1104.38 1834.9 Q1107.46 1839.49 1107.46 1848.24 Q1107.46 1856.96 1104.38 1861.57 Q1101.33 1866.15 1095.52 1866.15 Q1089.71 1866.15 1086.63 1861.57 Q1083.57 1856.96 1083.57 1848.24 Q1083.57 1839.49 1086.63 1834.9 Q1089.71 1830.3 1095.52 1830.3 Z" fill="#000000" fill-rule="evenodd" fill-opacity="1" /><path clip-path="url(#clip630)" d="M1559.68 1861.55 L1575.99 1861.55 L1575.99 1865.48 L1554.05 1865.48 L1554.05 1861.55 Q1556.71 1858.79 1561.3 1854.16 Q1565.9 1849.51 1567.08 1848.17 Q1569.33 1845.65 1570.21 1843.91 Q1571.11 1842.15 1571.11 1840.46 Q1571.11 1837.71 1569.17 1835.97 Q1567.24 1834.23 1564.14 1834.23 Q1561.94 1834.23 1559.49 1835 Q1557.06 1835.76 1554.28 1837.31 L1554.28 1832.59 Q1557.11 1831.46 1559.56 1830.88 Q1562.01 1830.3 1564.05 1830.3 Q1569.42 1830.3 1572.62 1832.98 Q1575.81 1835.67 1575.81 1840.16 Q1575.81 1842.29 1575 1844.21 Q1574.21 1846.11 1572.11 1848.7 Q1571.53 1849.37 1568.43 1852.59 Q1565.32 1855.78 1559.68 1861.55 Z" fill="#000000" fill-rule="evenodd" fill-opacity="1" /><path clip-path="url(#clip630)" d="M1595.81 1834 Q1592.2 1834 1590.37 1837.57 Q1588.56 1841.11 1588.56 1848.24 Q1588.56 1855.34 1590.37 1858.91 Q1592.2 1862.45 1595.81 1862.45 Q1599.44 1862.45 1601.25 1858.91 Q1603.08 1855.34 1603.08 1848.24 Q1603.08 1841.11 1601.25 1837.57 Q1599.44 1834 1595.81 1834 M1595.81 1830.3 Q1601.62 1830.3 1604.68 1834.9 Q1607.75 1839.49 1607.75 1848.24 Q1607.75 1856.96 1604.68 1861.57 Q1601.62 1866.15 1595.81 1866.15 Q1590 1866.15 1586.92 1861.57 Q1583.87 1856.96 1583.87 1848.24 Q1583.87 1839.49 1586.92 1834.9 Q1590 1830.3 1595.81 1830.3 Z" fill="#000000" fill-rule="evenodd" fill-opacity="1" /><path clip-path="url(#clip630)" d="M1625.97 1834 Q1622.36 1834 1620.53 1837.57 Q1618.73 1841.11 1618.73 1848.24 Q1618.73 1855.34 1620.53 1858.91 Q1622.36 1862.45 1625.97 1862.45 Q1629.61 1862.45 1631.41 1858.91 Q1633.24 1855.34 1633.24 1848.24 Q1633.24 1841.11 1631.41 1837.57 Q1629.61 1834 1625.97 1834 M1625.97 1830.3 Q1631.78 1830.3 1634.84 1834.9 Q1637.92 1839.49 1637.92 1848.24 Q1637.92 1856.96 1634.84 1861.57 Q1631.78 1866.15 1625.97 1866.15 Q1620.16 1866.15 1617.08 1861.57 Q1614.03 1856.96 1614.03 1848.24 Q1614.03 1839.49 1617.08 1834.9 Q1620.16 1830.3 1625.97 1830.3 Z" fill="#000000" fill-rule="evenodd" fill-opacity="1" /><path clip-path="url(#clip630)" d="M2089.26 1861.55 L2105.58 1861.55 L2105.58 1865.48 L2083.64 1865.48 L2083.64 1861.55 Q2086.3 1858.79 2090.88 1854.16 Q2095.49 1849.51 2096.67 1848.17 Q2098.91 1845.65 2099.79 1843.91 Q2100.7 1842.15 2100.7 1840.46 Q2100.7 1837.71 2098.75 1835.97 Q2096.83 1834.23 2093.73 1834.23 Q2091.53 1834.23 2089.08 1835 Q2086.65 1835.76 2083.87 1837.31 L2083.87 1832.59 Q2086.69 1831.46 2089.15 1830.88 Q2091.6 1830.3 2093.64 1830.3 Q2099.01 1830.3 2102.2 1832.98 Q2105.4 1835.67 2105.4 1840.16 Q2105.4 1842.29 2104.59 1844.21 Q2103.8 1846.11 2101.69 1848.7 Q2101.11 1849.37 2098.01 1852.59 Q2094.91 1855.78 2089.26 1861.55 Z" fill="#000000" fill-rule="evenodd" fill-opacity="1" /><path clip-path="url(#clip630)" d="M2115.44 1830.92 L2133.8 1830.92 L2133.8 1834.86 L2119.72 1834.86 L2119.72 1843.33 Q2120.74 1842.98 2121.76 1842.82 Q2122.78 1842.64 2123.8 1842.64 Q2129.59 1842.64 2132.97 1845.81 Q2136.35 1848.98 2136.35 1854.4 Q2136.35 1859.97 2132.87 1863.08 Q2129.4 1866.15 2123.08 1866.15 Q2120.91 1866.15 2118.64 1865.78 Q2116.39 1865.41 2113.98 1864.67 L2113.98 1859.97 Q2116.07 1861.11 2118.29 1861.66 Q2120.51 1862.22 2122.99 1862.22 Q2126.99 1862.22 2129.33 1860.11 Q2131.67 1858.01 2131.67 1854.4 Q2131.67 1850.78 2129.33 1848.68 Q2126.99 1846.57 2122.99 1846.57 Q2121.11 1846.57 2119.24 1846.99 Q2117.39 1847.4 2115.44 1848.28 L2115.44 1830.92 Z" fill="#000000" fill-rule="evenodd" fill-opacity="1" /><path clip-path="url(#clip630)" d="M2155.56 1834 Q2151.95 1834 2150.12 1837.57 Q2148.31 1841.11 2148.31 1848.24 Q2148.31 1855.34 2150.12 1858.91 Q2151.95 1862.45 2155.56 1862.45 Q2159.19 1862.45 2161 1858.91 Q2162.83 1855.34 2162.83 1848.24 Q2162.83 1841.11 2161 1837.57 Q2159.19 1834 2155.56 1834 M2155.56 1830.3 Q2161.37 1830.3 2164.42 1834.9 Q2167.5 1839.49 2167.5 1848.24 Q2167.5 1856.96 2164.42 1861.57 Q2161.37 1866.15 2155.56 1866.15 Q2149.75 1866.15 2146.67 1861.57 Q2143.61 1856.96 2143.61 1848.24 Q2143.61 1839.49 2146.67 1834.9 Q2149.75 1830.3 2155.56 1830.3 Z" fill="#000000" fill-rule="evenodd" fill-opacity="1" /><polyline clip-path="url(#clip632)" style="stroke:#000000; stroke-linecap:round; stroke-linejoin:round; stroke-width:2; stroke-opacity:0.1; fill:none" points="
  188.807,1751.15 2640.76,1751.15 
  "/>
<polyline clip-path="url(#clip632)" style="stroke:#000000; stroke-linecap:round; stroke-linejoin:round; stroke-width:2; stroke-opacity:0.1; fill:none" points="
  188.807,1337.58 2640.76,1337.58 
  "/>
<polyline clip-path="url(#clip632)" style="stroke:#000000; stroke-linecap:round; stroke-linejoin:round; stroke-width:2; stroke-opacity:0.1; fill:none" points="
  188.807,924.012 2640.76,924.012 
  "/>
<polyline clip-path="url(#clip632)" style="stroke:#000000; stroke-linecap:round; stroke-linejoin:round; stroke-width:2; stroke-opacity:0.1; fill:none" points="
  188.807,510.442 2640.76,510.442 
  "/>
<polyline clip-path="url(#clip632)" style="stroke:#000000; stroke-linecap:round; stroke-linejoin:round; stroke-width:2; stroke-opacity:0.1; fill:none" points="
  188.807,96.8724 2640.76,96.8724 
  "/>
<polyline clip-path="url(#clip630)" style="stroke:#000000; stroke-linecap:round; stroke-linejoin:round; stroke-width:4; stroke-opacity:1; fill:none" points="
  188.807,1800.78 188.807,47.2441 
  "/>
<polyline clip-path="url(#clip630)" style="stroke:#000000; stroke-linecap:round; stroke-linejoin:round; stroke-width:4; stroke-opacity:1; fill:none" points="
  188.807,1751.15 207.704,1751.15 
  "/>
<polyline clip-path="url(#clip630)" style="stroke:#000000; stroke-linecap:round; stroke-linejoin:round; stroke-width:4; stroke-opacity:1; fill:none" points="
  188.807,1337.58 207.704,1337.58 
  "/>
<polyline clip-path="url(#clip630)" style="stroke:#000000; stroke-linecap:round; stroke-linejoin:round; stroke-width:4; stroke-opacity:1; fill:none" points="
  188.807,924.012 207.704,924.012 
  "/>
<polyline clip-path="url(#clip630)" style="stroke:#000000; stroke-linecap:round; stroke-linejoin:round; stroke-width:4; stroke-opacity:1; fill:none" points="
  188.807,510.442 207.704,510.442 
  "/>
<polyline clip-path="url(#clip630)" style="stroke:#000000; stroke-linecap:round; stroke-linejoin:round; stroke-width:4; stroke-opacity:1; fill:none" points="
  188.807,96.8724 207.704,96.8724 
  "/>
<path clip-path="url(#clip630)" d="M51.9595 1764.5 L59.5984 1764.5 L59.5984 1738.13 L51.2882 1739.8 L51.2882 1735.54 L59.5521 1733.87 L64.228 1733.87 L64.228 1764.5 L71.8668 1764.5 L71.8668 1768.43 L51.9595 1768.43 L51.9595 1764.5 Z" fill="#000000" fill-rule="evenodd" fill-opacity="1" /><path clip-path="url(#clip630)" d="M81.3112 1762.55 L86.1954 1762.55 L86.1954 1768.43 L81.3112 1768.43 L81.3112 1762.55 Z" fill="#000000" fill-rule="evenodd" fill-opacity="1" /><path clip-path="url(#clip630)" d="M106.381 1736.95 Q102.769 1736.95 100.941 1740.51 Q99.1352 1744.06 99.1352 1751.19 Q99.1352 1758.29 100.941 1761.86 Q102.769 1765.4 106.381 1765.4 Q110.015 1765.4 111.82 1761.86 Q113.649 1758.29 113.649 1751.19 Q113.649 1744.06 111.82 1740.51 Q110.015 1736.95 106.381 1736.95 M106.381 1733.25 Q112.191 1733.25 115.246 1737.85 Q118.325 1742.44 118.325 1751.19 Q118.325 1759.91 115.246 1764.52 Q112.191 1769.1 106.381 1769.1 Q100.57 1769.1 97.4917 1764.52 Q94.4361 1759.91 94.4361 1751.19 Q94.4361 1742.44 97.4917 1737.85 Q100.57 1733.25 106.381 1733.25 Z" fill="#000000" fill-rule="evenodd" fill-opacity="1" /><path clip-path="url(#clip630)" d="M136.542 1736.95 Q132.931 1736.95 131.103 1740.51 Q129.297 1744.06 129.297 1751.19 Q129.297 1758.29 131.103 1761.86 Q132.931 1765.4 136.542 1765.4 Q140.177 1765.4 141.982 1761.86 Q143.811 1758.29 143.811 1751.19 Q143.811 1744.06 141.982 1740.51 Q140.177 1736.95 136.542 1736.95 M136.542 1733.25 Q142.353 1733.25 145.408 1737.85 Q148.487 1742.44 148.487 1751.19 Q148.487 1759.91 145.408 1764.52 Q142.353 1769.1 136.542 1769.1 Q130.732 1769.1 127.654 1764.52 Q124.598 1759.91 124.598 1751.19 Q124.598 1742.44 127.654 1737.85 Q130.732 1733.25 136.542 1733.25 Z" fill="#000000" fill-rule="evenodd" fill-opacity="1" /><path clip-path="url(#clip630)" d="M52.9549 1350.93 L60.5937 1350.93 L60.5937 1324.56 L52.2836 1326.23 L52.2836 1321.97 L60.5474 1320.3 L65.2233 1320.3 L65.2233 1350.93 L72.8622 1350.93 L72.8622 1354.86 L52.9549 1354.86 L52.9549 1350.93 Z" fill="#000000" fill-rule="evenodd" fill-opacity="1" /><path clip-path="url(#clip630)" d="M82.3066 1348.98 L87.1908 1348.98 L87.1908 1354.86 L82.3066 1354.86 L82.3066 1348.98 Z" fill="#000000" fill-rule="evenodd" fill-opacity="1" /><path clip-path="url(#clip630)" d="M101.404 1350.93 L117.723 1350.93 L117.723 1354.86 L95.7787 1354.86 L95.7787 1350.93 Q98.4408 1348.17 103.024 1343.54 Q107.631 1338.89 108.811 1337.55 Q111.056 1335.02 111.936 1333.29 Q112.839 1331.53 112.839 1329.84 Q112.839 1327.08 110.894 1325.35 Q108.973 1323.61 105.871 1323.61 Q103.672 1323.61 101.219 1324.38 Q98.788 1325.14 96.0102 1326.69 L96.0102 1321.97 Q98.8343 1320.83 101.288 1320.26 Q103.742 1319.68 105.779 1319.68 Q111.149 1319.68 114.343 1322.36 Q117.538 1325.05 117.538 1329.54 Q117.538 1331.67 116.728 1333.59 Q115.941 1335.49 113.834 1338.08 Q113.255 1338.75 110.154 1341.97 Q107.052 1345.16 101.404 1350.93 Z" fill="#000000" fill-rule="evenodd" fill-opacity="1" /><path clip-path="url(#clip630)" d="M127.584 1320.3 L145.94 1320.3 L145.94 1324.24 L131.866 1324.24 L131.866 1332.71 Q132.885 1332.36 133.904 1332.2 Q134.922 1332.01 135.941 1332.01 Q141.728 1332.01 145.107 1335.19 Q148.487 1338.36 148.487 1343.77 Q148.487 1349.35 145.015 1352.45 Q141.542 1355.53 135.223 1355.53 Q133.047 1355.53 130.779 1355.16 Q128.533 1354.79 126.126 1354.05 L126.126 1349.35 Q128.209 1350.49 130.431 1351.04 Q132.654 1351.6 135.13 1351.6 Q139.135 1351.6 141.473 1349.49 Q143.811 1347.38 143.811 1343.77 Q143.811 1340.16 141.473 1338.06 Q139.135 1335.95 135.13 1335.95 Q133.255 1335.95 131.38 1336.37 Q129.529 1336.78 127.584 1337.66 L127.584 1320.3 Z" fill="#000000" fill-rule="evenodd" fill-opacity="1" /><path clip-path="url(#clip630)" d="M51.9595 937.357 L59.5984 937.357 L59.5984 910.991 L51.2882 912.658 L51.2882 908.398 L59.5521 906.732 L64.228 906.732 L64.228 937.357 L71.8668 937.357 L71.8668 941.292 L51.9595 941.292 L51.9595 937.357 Z" fill="#000000" fill-rule="evenodd" fill-opacity="1" /><path clip-path="url(#clip630)" d="M81.3112 935.412 L86.1954 935.412 L86.1954 941.292 L81.3112 941.292 L81.3112 935.412 Z" fill="#000000" fill-rule="evenodd" fill-opacity="1" /><path clip-path="url(#clip630)" d="M96.4269 906.732 L114.783 906.732 L114.783 910.667 L100.709 910.667 L100.709 919.139 Q101.728 918.792 102.746 918.63 Q103.765 918.445 104.783 918.445 Q110.57 918.445 113.95 921.616 Q117.33 924.787 117.33 930.204 Q117.33 935.782 113.857 938.884 Q110.385 941.963 104.066 941.963 Q101.89 941.963 99.6213 941.593 Q97.3759 941.222 94.9685 940.482 L94.9685 935.782 Q97.0519 936.917 99.2741 937.472 Q101.496 938.028 103.973 938.028 Q107.978 938.028 110.316 935.921 Q112.654 933.815 112.654 930.204 Q112.654 926.593 110.316 924.486 Q107.978 922.38 103.973 922.38 Q102.098 922.38 100.223 922.796 Q98.3713 923.213 96.4269 924.093 L96.4269 906.732 Z" fill="#000000" fill-rule="evenodd" fill-opacity="1" /><path clip-path="url(#clip630)" d="M136.542 909.81 Q132.931 909.81 131.103 913.375 Q129.297 916.917 129.297 924.046 Q129.297 931.153 131.103 934.718 Q132.931 938.259 136.542 938.259 Q140.177 938.259 141.982 934.718 Q143.811 931.153 143.811 924.046 Q143.811 916.917 141.982 913.375 Q140.177 909.81 136.542 909.81 M136.542 906.107 Q142.353 906.107 145.408 910.713 Q148.487 915.296 148.487 924.046 Q148.487 932.773 145.408 937.38 Q142.353 941.963 136.542 941.963 Q130.732 941.963 127.654 937.38 Q124.598 932.773 124.598 924.046 Q124.598 915.296 127.654 910.713 Q130.732 906.107 136.542 906.107 Z" fill="#000000" fill-rule="evenodd" fill-opacity="1" /><path clip-path="url(#clip630)" d="M52.9549 523.787 L60.5937 523.787 L60.5937 497.421 L52.2836 499.088 L52.2836 494.829 L60.5474 493.162 L65.2233 493.162 L65.2233 523.787 L72.8622 523.787 L72.8622 527.722 L52.9549 527.722 L52.9549 523.787 Z" fill="#000000" fill-rule="evenodd" fill-opacity="1" /><path clip-path="url(#clip630)" d="M82.3066 521.842 L87.1908 521.842 L87.1908 527.722 L82.3066 527.722 L82.3066 521.842 Z" fill="#000000" fill-rule="evenodd" fill-opacity="1" /><path clip-path="url(#clip630)" d="M96.1954 493.162 L118.417 493.162 L118.417 495.153 L105.871 527.722 L100.987 527.722 L112.793 497.097 L96.1954 497.097 L96.1954 493.162 Z" fill="#000000" fill-rule="evenodd" fill-opacity="1" /><path clip-path="url(#clip630)" d="M127.584 493.162 L145.94 493.162 L145.94 497.097 L131.866 497.097 L131.866 505.569 Q132.885 505.222 133.904 505.06 Q134.922 504.875 135.941 504.875 Q141.728 504.875 145.107 508.046 Q148.487 511.218 148.487 516.634 Q148.487 522.213 145.015 525.315 Q141.542 528.393 135.223 528.393 Q133.047 528.393 130.779 528.023 Q128.533 527.653 126.126 526.912 L126.126 522.213 Q128.209 523.347 130.431 523.903 Q132.654 524.458 135.13 524.458 Q139.135 524.458 141.473 522.352 Q143.811 520.245 143.811 516.634 Q143.811 513.023 141.473 510.917 Q139.135 508.81 135.13 508.81 Q133.255 508.81 131.38 509.227 Q129.529 509.643 127.584 510.523 L127.584 493.162 Z" fill="#000000" fill-rule="evenodd" fill-opacity="1" /><path clip-path="url(#clip630)" d="M55.1771 110.217 L71.4965 110.217 L71.4965 114.152 L49.5521 114.152 L49.5521 110.217 Q52.2141 107.463 56.7975 102.833 Q61.4039 98.1803 62.5845 96.8377 Q64.8298 94.3146 65.7094 92.5785 Q66.6122 90.8192 66.6122 89.1294 Q66.6122 86.3748 64.6678 84.6387 Q62.7465 82.9026 59.6447 82.9026 Q57.4456 82.9026 54.9919 83.6665 Q52.5614 84.4304 49.7836 85.9813 L49.7836 81.2591 Q52.6077 80.1249 55.0614 79.5462 Q57.515 78.9675 59.5521 78.9675 Q64.9224 78.9675 68.1168 81.6526 Q71.3113 84.3378 71.3113 88.8285 Q71.3113 90.9581 70.5011 92.8794 Q69.7141 94.7776 67.6076 97.3701 Q67.0289 98.0414 63.927 101.259 Q60.8252 104.453 55.1771 110.217 Z" fill="#000000" fill-rule="evenodd" fill-opacity="1" /><path clip-path="url(#clip630)" d="M81.3112 108.273 L86.1954 108.273 L86.1954 114.152 L81.3112 114.152 L81.3112 108.273 Z" fill="#000000" fill-rule="evenodd" fill-opacity="1" /><path clip-path="url(#clip630)" d="M106.381 82.6711 Q102.769 82.6711 100.941 86.2359 Q99.1352 89.7776 99.1352 96.9072 Q99.1352 104.014 100.941 107.578 Q102.769 111.12 106.381 111.12 Q110.015 111.12 111.82 107.578 Q113.649 104.014 113.649 96.9072 Q113.649 89.7776 111.82 86.2359 Q110.015 82.6711 106.381 82.6711 M106.381 78.9675 Q112.191 78.9675 115.246 83.5739 Q118.325 88.1572 118.325 96.9072 Q118.325 105.634 115.246 110.24 Q112.191 114.824 106.381 114.824 Q100.57 114.824 97.4917 110.24 Q94.4361 105.634 94.4361 96.9072 Q94.4361 88.1572 97.4917 83.5739 Q100.57 78.9675 106.381 78.9675 Z" fill="#000000" fill-rule="evenodd" fill-opacity="1" /><path clip-path="url(#clip630)" d="M136.542 82.6711 Q132.931 82.6711 131.103 86.2359 Q129.297 89.7776 129.297 96.9072 Q129.297 104.014 131.103 107.578 Q132.931 111.12 136.542 111.12 Q140.177 111.12 141.982 107.578 Q143.811 104.014 143.811 96.9072 Q143.811 89.7776 141.982 86.2359 Q140.177 82.6711 136.542 82.6711 M136.542 78.9675 Q142.353 78.9675 145.408 83.5739 Q148.487 88.1572 148.487 96.9072 Q148.487 105.634 145.408 110.24 Q142.353 114.824 136.542 114.824 Q130.732 114.824 127.654 110.24 Q124.598 105.634 124.598 96.9072 Q124.598 88.1572 127.654 83.5739 Q130.732 78.9675 136.542 78.9675 Z" fill="#000000" fill-rule="evenodd" fill-opacity="1" /><circle clip-path="url(#clip632)" cx="258.202" cy="1751.15" r="14.4" fill="#009af9" fill-rule="evenodd" fill-opacity="1" stroke="#000000" stroke-opacity="1" stroke-width="3.84"/>
<circle clip-path="url(#clip632)" cx="314.803" cy="1751.15" r="14.4" fill="#009af9" fill-rule="evenodd" fill-opacity="1" stroke="#000000" stroke-opacity="1" stroke-width="3.84"/>
<circle clip-path="url(#clip632)" cx="658.546" cy="1751.15" r="14.4" fill="#009af9" fill-rule="evenodd" fill-opacity="1" stroke="#000000" stroke-opacity="1" stroke-width="3.84"/>
<circle clip-path="url(#clip632)" cx="659.872" cy="1751.15" r="14.4" fill="#009af9" fill-rule="evenodd" fill-opacity="1" stroke="#000000" stroke-opacity="1" stroke-width="3.84"/>
<circle clip-path="url(#clip632)" cx="769.519" cy="1751.15" r="14.4" fill="#009af9" fill-rule="evenodd" fill-opacity="1" stroke="#000000" stroke-opacity="1" stroke-width="3.84"/>
<circle clip-path="url(#clip632)" cx="884.12" cy="1751.15" r="14.4" fill="#009af9" fill-rule="evenodd" fill-opacity="1" stroke="#000000" stroke-opacity="1" stroke-width="3.84"/>
<circle clip-path="url(#clip632)" cx="1133.12" cy="1751.15" r="14.4" fill="#009af9" fill-rule="evenodd" fill-opacity="1" stroke="#000000" stroke-opacity="1" stroke-width="3.84"/>
<circle clip-path="url(#clip632)" cx="1711.9" cy="1751.15" r="14.4" fill="#009af9" fill-rule="evenodd" fill-opacity="1" stroke="#000000" stroke-opacity="1" stroke-width="3.84"/>
<circle clip-path="url(#clip632)" cx="1966.81" cy="1751.15" r="14.4" fill="#009af9" fill-rule="evenodd" fill-opacity="1" stroke="#000000" stroke-opacity="1" stroke-width="3.84"/>
<circle clip-path="url(#clip632)" cx="2571.36" cy="1751.15" r="14.4" fill="#009af9" fill-rule="evenodd" fill-opacity="1" stroke="#000000" stroke-opacity="1" stroke-width="3.84"/>
</svg>
