<?xml version="1.0" encoding="utf-8"?>
<svg xmlns="http://www.w3.org/2000/svg" xmlns:xlink="http://www.w3.org/1999/xlink" width="672" height="480" viewBox="0 0 2688 1920">
<defs>
  <clipPath id="clip310">
    <rect x="0" y="0" width="2688" height="1920"/>
  </clipPath>
</defs>
<path clip-path="url(#clip310)" d="
M0 1920 L2688 1920 L2688 0 L0 0  Z
  " fill="#ffffff" fill-rule="evenodd" fill-opacity="1"/>
<defs>
  <clipPath id="clip311">
    <rect x="537" y="0" width="1883" height="1883"/>
  </clipPath>
</defs>
<path clip-path="url(#clip310)" d="
M219.802 1800.78 L2640.76 1800.78 L2640.76 47.2441 L219.802 47.2441  Z
  " fill="#ffffff" fill-rule="evenodd" fill-opacity="1"/>
<defs>
  <clipPath id="clip312">
    <rect x="219" y="47" width="2422" height="1755"/>
  </clipPath>
</defs>
<polyline clip-path="url(#clip312)" style="stroke:#000000; stroke-linecap:round; stroke-linejoin:round; stroke-width:2; stroke-opacity:0.1; fill:none" points="
  611.408,1800.78 611.408,47.2441 
  "/>
<polyline clip-path="url(#clip312)" style="stroke:#000000; stroke-linecap:round; stroke-linejoin:round; stroke-width:2; stroke-opacity:0.1; fill:none" points="
  1058.88,1800.78 1058.88,47.2441 
  "/>
<polyline clip-path="url(#clip312)" style="stroke:#000000; stroke-linecap:round; stroke-linejoin:round; stroke-width:2; stroke-opacity:0.1; fill:none" points="
  1506.35,1800.78 1506.35,47.2441 
  "/>
<polyline clip-path="url(#clip312)" style="stroke:#000000; stroke-linecap:round; stroke-linejoin:round; stroke-width:2; stroke-opacity:0.1; fill:none" points="
  1953.82,1800.78 1953.82,47.2441 
  "/>
<polyline clip-path="url(#clip312)" style="stroke:#000000; stroke-linecap:round; stroke-linejoin:round; stroke-width:2; stroke-opacity:0.1; fill:none" points="
  2401.29,1800.78 2401.29,47.2441 
  "/>
<polyline clip-path="url(#clip310)" style="stroke:#000000; stroke-linecap:round; stroke-linejoin:round; stroke-width:4; stroke-opacity:1; fill:none" points="
  219.802,1800.78 2640.76,1800.78 
  "/>
<polyline clip-path="url(#clip310)" style="stroke:#000000; stroke-linecap:round; stroke-linejoin:round; stroke-width:4; stroke-opacity:1; fill:none" points="
  611.408,1800.78 611.408,1781.88 
  "/>
<polyline clip-path="url(#clip310)" style="stroke:#000000; stroke-linecap:round; stroke-linejoin:round; stroke-width:4; stroke-opacity:1; fill:none" points="
  1058.88,1800.78 1058.88,1781.88 
  "/>
<polyline clip-path="url(#clip310)" style="stroke:#000000; stroke-linecap:round; stroke-linejoin:round; stroke-width:4; stroke-opacity:1; fill:none" points="
  1506.35,1800.78 1506.35,1781.88 
  "/>
<polyline clip-path="url(#clip310)" style="stroke:#000000; stroke-linecap:round; stroke-linejoin:round; stroke-width:4; stroke-opacity:1; fill:none" points="
  1953.82,1800.78 1953.82,1781.88 
  "/>
<polyline clip-path="url(#clip310)" style="stroke:#000000; stroke-linecap:round; stroke-linejoin:round; stroke-width:4; stroke-opacity:1; fill:none" points="
  2401.29,1800.78 2401.29,1781.88 
  "/>
<path clip-path="url(#clip310)" d="M611.408 1834 Q607.797 1834 605.968 1837.57 Q604.162 1841.11 604.162 1848.24 Q604.162 1855.34 605.968 1858.91 Q607.797 1862.45 611.408 1862.45 Q615.042 1862.45 616.847 1858.91 Q618.676 1855.34 618.676 1848.24 Q618.676 1841.11 616.847 1837.57 Q615.042 1834 611.408 1834 M611.408 1830.3 Q617.218 1830.3 620.273 1834.9 Q623.352 1839.49 623.352 1848.24 Q623.352 1856.96 620.273 1861.57 Q617.218 1866.15 611.408 1866.15 Q605.597 1866.15 602.519 1861.57 Q599.463 1856.96 599.463 1848.24 Q599.463 1839.49 602.519 1834.9 Q605.597 1830.3 611.408 1830.3 Z" fill="#000000" fill-rule="evenodd" fill-opacity="1" /><path clip-path="url(#clip310)" d="M1018.48 1861.55 L1026.12 1861.55 L1026.12 1835.18 L1017.81 1836.85 L1017.81 1832.59 L1026.08 1830.92 L1030.75 1830.92 L1030.75 1861.55 L1038.39 1861.55 L1038.39 1865.48 L1018.48 1865.48 L1018.48 1861.55 Z" fill="#000000" fill-rule="evenodd" fill-opacity="1" /><path clip-path="url(#clip310)" d="M1057.84 1834 Q1054.23 1834 1052.4 1837.57 Q1050.59 1841.11 1050.59 1848.24 Q1050.59 1855.34 1052.4 1858.91 Q1054.23 1862.45 1057.84 1862.45 Q1061.47 1862.45 1063.28 1858.91 Q1065.11 1855.34 1065.11 1848.24 Q1065.11 1841.11 1063.28 1837.57 Q1061.47 1834 1057.84 1834 M1057.84 1830.3 Q1063.65 1830.3 1066.7 1834.9 Q1069.78 1839.49 1069.78 1848.24 Q1069.78 1856.96 1066.7 1861.57 Q1063.65 1866.15 1057.84 1866.15 Q1052.03 1866.15 1048.95 1861.57 Q1045.89 1856.96 1045.89 1848.24 Q1045.89 1839.49 1048.95 1834.9 Q1052.03 1830.3 1057.84 1830.3 Z" fill="#000000" fill-rule="evenodd" fill-opacity="1" /><path clip-path="url(#clip310)" d="M1088 1834 Q1084.39 1834 1082.56 1837.57 Q1080.75 1841.11 1080.75 1848.24 Q1080.75 1855.34 1082.56 1858.91 Q1084.39 1862.45 1088 1862.45 Q1091.63 1862.45 1093.44 1858.91 Q1095.27 1855.34 1095.27 1848.24 Q1095.27 1841.11 1093.44 1837.57 Q1091.63 1834 1088 1834 M1088 1830.3 Q1093.81 1830.3 1096.86 1834.9 Q1099.94 1839.49 1099.94 1848.24 Q1099.94 1856.96 1096.86 1861.57 Q1093.81 1866.15 1088 1866.15 Q1082.19 1866.15 1079.11 1861.57 Q1076.05 1856.96 1076.05 1848.24 Q1076.05 1839.49 1079.11 1834.9 Q1082.19 1830.3 1088 1830.3 Z" fill="#000000" fill-rule="evenodd" fill-opacity="1" /><path clip-path="url(#clip310)" d="M1470.04 1861.55 L1486.36 1861.55 L1486.36 1865.48 L1464.42 1865.48 L1464.42 1861.55 Q1467.08 1858.79 1471.66 1854.16 Q1476.27 1849.51 1477.45 1848.17 Q1479.69 1845.65 1480.57 1843.91 Q1481.48 1842.15 1481.48 1840.46 Q1481.48 1837.71 1479.53 1835.97 Q1477.61 1834.23 1474.51 1834.23 Q1472.31 1834.23 1469.86 1835 Q1467.43 1835.76 1464.65 1837.31 L1464.65 1832.59 Q1467.47 1831.46 1469.93 1830.88 Q1472.38 1830.3 1474.42 1830.3 Q1479.79 1830.3 1482.98 1832.98 Q1486.18 1835.67 1486.18 1840.16 Q1486.18 1842.29 1485.37 1844.21 Q1484.58 1846.11 1482.47 1848.7 Q1481.89 1849.37 1478.79 1852.59 Q1475.69 1855.78 1470.04 1861.55 Z" fill="#000000" fill-rule="evenodd" fill-opacity="1" /><path clip-path="url(#clip310)" d="M1506.18 1834 Q1502.56 1834 1500.74 1837.57 Q1498.93 1841.11 1498.93 1848.24 Q1498.93 1855.34 1500.74 1858.91 Q1502.56 1862.45 1506.18 1862.45 Q1509.81 1862.45 1511.62 1858.91 Q1513.44 1855.34 1513.44 1848.24 Q1513.44 1841.11 1511.62 1837.57 Q1509.81 1834 1506.18 1834 M1506.18 1830.3 Q1511.99 1830.3 1515.04 1834.9 Q1518.12 1839.49 1518.12 1848.24 Q1518.12 1856.96 1515.04 1861.57 Q1511.99 1866.15 1506.18 1866.15 Q1500.37 1866.15 1497.29 1861.57 Q1494.23 1856.96 1494.23 1848.24 Q1494.23 1839.49 1497.29 1834.9 Q1500.37 1830.3 1506.18 1830.3 Z" fill="#000000" fill-rule="evenodd" fill-opacity="1" /><path clip-path="url(#clip310)" d="M1536.34 1834 Q1532.73 1834 1530.9 1837.57 Q1529.09 1841.11 1529.09 1848.24 Q1529.09 1855.34 1530.9 1858.91 Q1532.73 1862.45 1536.34 1862.45 Q1539.97 1862.45 1541.78 1858.91 Q1543.61 1855.34 1543.61 1848.24 Q1543.61 1841.11 1541.78 1837.57 Q1539.97 1834 1536.34 1834 M1536.34 1830.3 Q1542.15 1830.3 1545.2 1834.9 Q1548.28 1839.49 1548.28 1848.24 Q1548.28 1856.96 1545.2 1861.57 Q1542.15 1866.15 1536.34 1866.15 Q1530.53 1866.15 1527.45 1861.57 Q1524.39 1856.96 1524.39 1848.24 Q1524.39 1839.49 1527.45 1834.9 Q1530.53 1830.3 1536.34 1830.3 Z" fill="#000000" fill-rule="evenodd" fill-opacity="1" /><path clip-path="url(#clip310)" d="M1927.58 1846.85 Q1930.94 1847.57 1932.81 1849.84 Q1934.71 1852.1 1934.71 1855.44 Q1934.71 1860.55 1931.19 1863.35 Q1927.67 1866.15 1921.19 1866.15 Q1919.02 1866.15 1916.7 1865.71 Q1914.41 1865.3 1911.96 1864.44 L1911.96 1859.93 Q1913.9 1861.06 1916.22 1861.64 Q1918.53 1862.22 1921.05 1862.22 Q1925.45 1862.22 1927.74 1860.48 Q1930.06 1858.75 1930.06 1855.44 Q1930.06 1852.38 1927.91 1850.67 Q1925.78 1848.93 1921.96 1848.93 L1917.93 1848.93 L1917.93 1845.09 L1922.14 1845.09 Q1925.59 1845.09 1927.42 1843.72 Q1929.25 1842.34 1929.25 1839.74 Q1929.25 1837.08 1927.35 1835.67 Q1925.47 1834.23 1921.96 1834.23 Q1920.04 1834.23 1917.84 1834.65 Q1915.64 1835.07 1913 1835.95 L1913 1831.78 Q1915.66 1831.04 1917.97 1830.67 Q1920.31 1830.3 1922.37 1830.3 Q1927.7 1830.3 1930.8 1832.73 Q1933.9 1835.14 1933.9 1839.26 Q1933.9 1842.13 1932.26 1844.12 Q1930.61 1846.09 1927.58 1846.85 Z" fill="#000000" fill-rule="evenodd" fill-opacity="1" /><path clip-path="url(#clip310)" d="M1953.58 1834 Q1949.97 1834 1948.14 1837.57 Q1946.33 1841.11 1946.33 1848.24 Q1946.33 1855.34 1948.14 1858.91 Q1949.97 1862.45 1953.58 1862.45 Q1957.21 1862.45 1959.02 1858.91 Q1960.85 1855.34 1960.85 1848.24 Q1960.85 1841.11 1959.02 1837.57 Q1957.21 1834 1953.58 1834 M1953.58 1830.3 Q1959.39 1830.3 1962.44 1834.9 Q1965.52 1839.49 1965.52 1848.24 Q1965.52 1856.96 1962.44 1861.57 Q1959.39 1866.15 1953.58 1866.15 Q1947.77 1866.15 1944.69 1861.57 Q1941.63 1856.96 1941.63 1848.24 Q1941.63 1839.49 1944.69 1834.9 Q1947.77 1830.3 1953.58 1830.3 Z" fill="#000000" fill-rule="evenodd" fill-opacity="1" /><path clip-path="url(#clip310)" d="M1983.74 1834 Q1980.13 1834 1978.3 1837.57 Q1976.49 1841.11 1976.49 1848.24 Q1976.49 1855.34 1978.3 1858.91 Q1980.13 1862.45 1983.74 1862.45 Q1987.37 1862.45 1989.18 1858.91 Q1991.01 1855.34 1991.01 1848.24 Q1991.01 1841.11 1989.18 1837.57 Q1987.37 1834 1983.74 1834 M1983.74 1830.3 Q1989.55 1830.3 1992.6 1834.9 Q1995.68 1839.49 1995.68 1848.24 Q1995.68 1856.96 1992.6 1861.57 Q1989.55 1866.15 1983.74 1866.15 Q1977.93 1866.15 1974.85 1861.57 Q1971.79 1856.96 1971.79 1848.24 Q1971.79 1839.49 1974.85 1834.9 Q1977.93 1830.3 1983.74 1830.3 Z" fill="#000000" fill-rule="evenodd" fill-opacity="1" /><path clip-path="url(#clip310)" d="M2374.38 1835 L2362.58 1853.45 L2374.38 1853.45 L2374.38 1835 M2373.15 1830.92 L2379.03 1830.92 L2379.03 1853.45 L2383.96 1853.45 L2383.96 1857.34 L2379.03 1857.34 L2379.03 1865.48 L2374.38 1865.48 L2374.38 1857.34 L2358.78 1857.34 L2358.78 1852.82 L2373.15 1830.92 Z" fill="#000000" fill-rule="evenodd" fill-opacity="1" /><path clip-path="url(#clip310)" d="M2401.7 1834 Q2398.08 1834 2396.26 1837.57 Q2394.45 1841.11 2394.45 1848.24 Q2394.45 1855.34 2396.26 1858.91 Q2398.08 1862.45 2401.7 1862.45 Q2405.33 1862.45 2407.14 1858.91 Q2408.96 1855.34 2408.96 1848.24 Q2408.96 1841.11 2407.14 1837.57 Q2405.33 1834 2401.7 1834 M2401.7 1830.3 Q2407.51 1830.3 2410.56 1834.9 Q2413.64 1839.49 2413.64 1848.24 Q2413.64 1856.96 2410.56 1861.57 Q2407.51 1866.15 2401.7 1866.15 Q2395.89 1866.15 2392.81 1861.57 Q2389.75 1856.96 2389.75 1848.24 Q2389.75 1839.49 2392.81 1834.9 Q2395.89 1830.3 2401.7 1830.3 Z" fill="#000000" fill-rule="evenodd" fill-opacity="1" /><path clip-path="url(#clip310)" d="M2431.86 1834 Q2428.25 1834 2426.42 1837.57 Q2424.61 1841.11 2424.61 1848.24 Q2424.61 1855.34 2426.42 1858.91 Q2428.25 1862.45 2431.86 1862.45 Q2435.49 1862.45 2437.3 1858.91 Q2439.13 1855.34 2439.13 1848.24 Q2439.13 1841.11 2437.3 1837.57 Q2435.49 1834 2431.86 1834 M2431.86 1830.3 Q2437.67 1830.3 2440.72 1834.9 Q2443.8 1839.49 2443.8 1848.24 Q2443.8 1856.96 2440.72 1861.57 Q2437.67 1866.15 2431.86 1866.15 Q2426.05 1866.15 2422.97 1861.57 Q2419.91 1856.96 2419.91 1848.24 Q2419.91 1839.49 2422.97 1834.9 Q2426.05 1830.3 2431.86 1830.3 Z" fill="#000000" fill-rule="evenodd" fill-opacity="1" /><polyline clip-path="url(#clip312)" style="stroke:#000000; stroke-linecap:round; stroke-linejoin:round; stroke-width:2; stroke-opacity:0.1; fill:none" points="
  219.802,1751.15 2640.76,1751.15 
  "/>
<polyline clip-path="url(#clip312)" style="stroke:#000000; stroke-linecap:round; stroke-linejoin:round; stroke-width:2; stroke-opacity:0.1; fill:none" points="
  219.802,1337.58 2640.76,1337.58 
  "/>
<polyline clip-path="url(#clip312)" style="stroke:#000000; stroke-linecap:round; stroke-linejoin:round; stroke-width:2; stroke-opacity:0.1; fill:none" points="
  219.802,924.012 2640.76,924.012 
  "/>
<polyline clip-path="url(#clip312)" style="stroke:#000000; stroke-linecap:round; stroke-linejoin:round; stroke-width:2; stroke-opacity:0.1; fill:none" points="
  219.802,510.442 2640.76,510.442 
  "/>
<polyline clip-path="url(#clip312)" style="stroke:#000000; stroke-linecap:round; stroke-linejoin:round; stroke-width:2; stroke-opacity:0.1; fill:none" points="
  219.802,96.8724 2640.76,96.8724 
  "/>
<polyline clip-path="url(#clip310)" style="stroke:#000000; stroke-linecap:round; stroke-linejoin:round; stroke-width:4; stroke-opacity:1; fill:none" points="
  219.802,1800.78 219.802,47.2441 
  "/>
<polyline clip-path="url(#clip310)" style="stroke:#000000; stroke-linecap:round; stroke-linejoin:round; stroke-width:4; stroke-opacity:1; fill:none" points="
  219.802,1751.15 238.7,1751.15 
  "/>
<polyline clip-path="url(#clip310)" style="stroke:#000000; stroke-linecap:round; stroke-linejoin:round; stroke-width:4; stroke-opacity:1; fill:none" points="
  219.802,1337.58 238.7,1337.58 
  "/>
<polyline clip-path="url(#clip310)" style="stroke:#000000; stroke-linecap:round; stroke-linejoin:round; stroke-width:4; stroke-opacity:1; fill:none" points="
  219.802,924.012 238.7,924.012 
  "/>
<polyline clip-path="url(#clip310)" style="stroke:#000000; stroke-linecap:round; stroke-linejoin:round; stroke-width:4; stroke-opacity:1; fill:none" points="
  219.802,510.442 238.7,510.442 
  "/>
<polyline clip-path="url(#clip310)" style="stroke:#000000; stroke-linecap:round; stroke-linejoin:round; stroke-width:4; stroke-opacity:1; fill:none" points="
  219.802,96.8724 238.7,96.8724 
  "/>
<path clip-path="url(#clip310)" d="M61.9826 1736.95 Q58.3715 1736.95 56.5428 1740.51 Q54.7373 1744.06 54.7373 1751.19 Q54.7373 1758.29 56.5428 1761.86 Q58.3715 1765.4 61.9826 1765.4 Q65.6169 1765.4 67.4224 1761.86 Q69.2511 1758.29 69.2511 1751.19 Q69.2511 1744.06 67.4224 1740.51 Q65.6169 1736.95 61.9826 1736.95 M61.9826 1733.25 Q67.7928 1733.25 70.8483 1737.85 Q73.927 1742.44 73.927 1751.19 Q73.927 1759.91 70.8483 1764.52 Q67.7928 1769.1 61.9826 1769.1 Q56.1725 1769.1 53.0938 1764.52 Q50.0382 1759.91 50.0382 1751.19 Q50.0382 1742.44 53.0938 1737.85 Q56.1725 1733.25 61.9826 1733.25 Z" fill="#000000" fill-rule="evenodd" fill-opacity="1" /><path clip-path="url(#clip310)" d="M82.1445 1762.55 L87.0288 1762.55 L87.0288 1768.43 L82.1445 1768.43 L82.1445 1762.55 Z" fill="#000000" fill-rule="evenodd" fill-opacity="1" /><path clip-path="url(#clip310)" d="M107.214 1736.95 Q103.603 1736.95 101.774 1740.51 Q99.9685 1744.06 99.9685 1751.19 Q99.9685 1758.29 101.774 1761.86 Q103.603 1765.4 107.214 1765.4 Q110.848 1765.4 112.654 1761.86 Q114.482 1758.29 114.482 1751.19 Q114.482 1744.06 112.654 1740.51 Q110.848 1736.95 107.214 1736.95 M107.214 1733.25 Q113.024 1733.25 116.08 1737.85 Q119.158 1742.44 119.158 1751.19 Q119.158 1759.91 116.08 1764.52 Q113.024 1769.1 107.214 1769.1 Q101.404 1769.1 98.325 1764.52 Q95.2695 1759.91 95.2695 1751.19 Q95.2695 1742.44 98.325 1737.85 Q101.404 1733.25 107.214 1733.25 Z" fill="#000000" fill-rule="evenodd" fill-opacity="1" /><path clip-path="url(#clip310)" d="M137.376 1736.95 Q133.765 1736.95 131.936 1740.51 Q130.13 1744.06 130.13 1751.19 Q130.13 1758.29 131.936 1761.86 Q133.765 1765.4 137.376 1765.4 Q141.01 1765.4 142.816 1761.86 Q144.644 1758.29 144.644 1751.19 Q144.644 1744.06 142.816 1740.51 Q141.01 1736.95 137.376 1736.95 M137.376 1733.25 Q143.186 1733.25 146.241 1737.85 Q149.32 1742.44 149.32 1751.19 Q149.32 1759.91 146.241 1764.52 Q143.186 1769.1 137.376 1769.1 Q131.566 1769.1 128.487 1764.52 Q125.431 1759.91 125.431 1751.19 Q125.431 1742.44 128.487 1737.85 Q131.566 1733.25 137.376 1733.25 Z" fill="#000000" fill-rule="evenodd" fill-opacity="1" /><path clip-path="url(#clip310)" d="M167.538 1736.95 Q163.927 1736.95 162.098 1740.51 Q160.292 1744.06 160.292 1751.19 Q160.292 1758.29 162.098 1761.86 Q163.927 1765.4 167.538 1765.4 Q171.172 1765.4 172.977 1761.86 Q174.806 1758.29 174.806 1751.19 Q174.806 1744.06 172.977 1740.51 Q171.172 1736.95 167.538 1736.95 M167.538 1733.25 Q173.348 1733.25 176.403 1737.85 Q179.482 1742.44 179.482 1751.19 Q179.482 1759.91 176.403 1764.52 Q173.348 1769.1 167.538 1769.1 Q161.727 1769.1 158.649 1764.52 Q155.593 1759.91 155.593 1751.19 Q155.593 1742.44 158.649 1737.85 Q161.727 1733.25 167.538 1733.25 Z" fill="#000000" fill-rule="evenodd" fill-opacity="1" /><path clip-path="url(#clip310)" d="M63.5798 1323.38 Q59.9687 1323.38 58.14 1326.94 Q56.3345 1330.49 56.3345 1337.62 Q56.3345 1344.72 58.14 1348.29 Q59.9687 1351.83 63.5798 1351.83 Q67.2141 1351.83 69.0196 1348.29 Q70.8483 1344.72 70.8483 1337.62 Q70.8483 1330.49 69.0196 1326.94 Q67.2141 1323.38 63.5798 1323.38 M63.5798 1319.68 Q69.39 1319.68 72.4455 1324.28 Q75.5242 1328.87 75.5242 1337.62 Q75.5242 1346.34 72.4455 1350.95 Q69.39 1355.53 63.5798 1355.53 Q57.7697 1355.53 54.691 1350.95 Q51.6354 1346.34 51.6354 1337.62 Q51.6354 1328.87 54.691 1324.28 Q57.7697 1319.68 63.5798 1319.68 Z" fill="#000000" fill-rule="evenodd" fill-opacity="1" /><path clip-path="url(#clip310)" d="M83.7418 1348.98 L88.626 1348.98 L88.626 1354.86 L83.7418 1354.86 L83.7418 1348.98 Z" fill="#000000" fill-rule="evenodd" fill-opacity="1" /><path clip-path="url(#clip310)" d="M108.811 1323.38 Q105.2 1323.38 103.371 1326.94 Q101.566 1330.49 101.566 1337.62 Q101.566 1344.72 103.371 1348.29 Q105.2 1351.83 108.811 1351.83 Q112.445 1351.83 114.251 1348.29 Q116.08 1344.72 116.08 1337.62 Q116.08 1330.49 114.251 1326.94 Q112.445 1323.38 108.811 1323.38 M108.811 1319.68 Q114.621 1319.68 117.677 1324.28 Q120.755 1328.87 120.755 1337.62 Q120.755 1346.34 117.677 1350.95 Q114.621 1355.53 108.811 1355.53 Q103.001 1355.53 99.9222 1350.95 Q96.8667 1346.34 96.8667 1337.62 Q96.8667 1328.87 99.9222 1324.28 Q103.001 1319.68 108.811 1319.68 Z" fill="#000000" fill-rule="evenodd" fill-opacity="1" /><path clip-path="url(#clip310)" d="M138.973 1323.38 Q135.362 1323.38 133.533 1326.94 Q131.728 1330.49 131.728 1337.62 Q131.728 1344.72 133.533 1348.29 Q135.362 1351.83 138.973 1351.83 Q142.607 1351.83 144.413 1348.29 Q146.241 1344.72 146.241 1337.62 Q146.241 1330.49 144.413 1326.94 Q142.607 1323.38 138.973 1323.38 M138.973 1319.68 Q144.783 1319.68 147.839 1324.28 Q150.917 1328.87 150.917 1337.62 Q150.917 1346.34 147.839 1350.95 Q144.783 1355.53 138.973 1355.53 Q133.163 1355.53 130.084 1350.95 Q127.029 1346.34 127.029 1337.62 Q127.029 1328.87 130.084 1324.28 Q133.163 1319.68 138.973 1319.68 Z" fill="#000000" fill-rule="evenodd" fill-opacity="1" /><path clip-path="url(#clip310)" d="M163.163 1350.93 L179.482 1350.93 L179.482 1354.86 L157.538 1354.86 L157.538 1350.93 Q160.2 1348.17 164.783 1343.54 Q169.389 1338.89 170.57 1337.55 Q172.815 1335.02 173.695 1333.29 Q174.598 1331.53 174.598 1329.84 Q174.598 1327.08 172.653 1325.35 Q170.732 1323.61 167.63 1323.61 Q165.431 1323.61 162.977 1324.38 Q160.547 1325.14 157.769 1326.69 L157.769 1321.97 Q160.593 1320.83 163.047 1320.26 Q165.501 1319.68 167.538 1319.68 Q172.908 1319.68 176.102 1322.36 Q179.297 1325.05 179.297 1329.54 Q179.297 1331.67 178.487 1333.59 Q177.7 1335.49 175.593 1338.08 Q175.014 1338.75 171.913 1341.97 Q168.811 1345.16 163.163 1350.93 Z" fill="#000000" fill-rule="evenodd" fill-opacity="1" /><path clip-path="url(#clip310)" d="M61.4965 909.81 Q57.8854 909.81 56.0567 913.375 Q54.2512 916.917 54.2512 924.046 Q54.2512 931.153 56.0567 934.718 Q57.8854 938.259 61.4965 938.259 Q65.1307 938.259 66.9363 934.718 Q68.765 931.153 68.765 924.046 Q68.765 916.917 66.9363 913.375 Q65.1307 909.81 61.4965 909.81 M61.4965 906.107 Q67.3067 906.107 70.3622 910.713 Q73.4409 915.296 73.4409 924.046 Q73.4409 932.773 70.3622 937.38 Q67.3067 941.963 61.4965 941.963 Q55.6864 941.963 52.6077 937.38 Q49.5521 932.773 49.5521 924.046 Q49.5521 915.296 52.6077 910.713 Q55.6864 906.107 61.4965 906.107 Z" fill="#000000" fill-rule="evenodd" fill-opacity="1" /><path clip-path="url(#clip310)" d="M81.6584 935.412 L86.5427 935.412 L86.5427 941.292 L81.6584 941.292 L81.6584 935.412 Z" fill="#000000" fill-rule="evenodd" fill-opacity="1" /><path clip-path="url(#clip310)" d="M106.728 909.81 Q103.117 909.81 101.288 913.375 Q99.4824 916.917 99.4824 924.046 Q99.4824 931.153 101.288 934.718 Q103.117 938.259 106.728 938.259 Q110.362 938.259 112.168 934.718 Q113.996 931.153 113.996 924.046 Q113.996 916.917 112.168 913.375 Q110.362 909.81 106.728 909.81 M106.728 906.107 Q112.538 906.107 115.593 910.713 Q118.672 915.296 118.672 924.046 Q118.672 932.773 115.593 937.38 Q112.538 941.963 106.728 941.963 Q100.918 941.963 97.8389 937.38 Q94.7834 932.773 94.7834 924.046 Q94.7834 915.296 97.8389 910.713 Q100.918 906.107 106.728 906.107 Z" fill="#000000" fill-rule="evenodd" fill-opacity="1" /><path clip-path="url(#clip310)" d="M136.89 909.81 Q133.279 909.81 131.45 913.375 Q129.644 916.917 129.644 924.046 Q129.644 931.153 131.45 934.718 Q133.279 938.259 136.89 938.259 Q140.524 938.259 142.329 934.718 Q144.158 931.153 144.158 924.046 Q144.158 916.917 142.329 913.375 Q140.524 909.81 136.89 909.81 M136.89 906.107 Q142.7 906.107 145.755 910.713 Q148.834 915.296 148.834 924.046 Q148.834 932.773 145.755 937.38 Q142.7 941.963 136.89 941.963 Q131.079 941.963 128.001 937.38 Q124.945 932.773 124.945 924.046 Q124.945 915.296 128.001 910.713 Q131.079 906.107 136.89 906.107 Z" fill="#000000" fill-rule="evenodd" fill-opacity="1" /><path clip-path="url(#clip310)" d="M169.899 910.806 L158.093 929.255 L169.899 929.255 L169.899 910.806 M168.672 906.732 L174.551 906.732 L174.551 929.255 L179.482 929.255 L179.482 933.144 L174.551 933.144 L174.551 941.292 L169.899 941.292 L169.899 933.144 L154.297 933.144 L154.297 928.63 L168.672 906.732 Z" fill="#000000" fill-rule="evenodd" fill-opacity="1" /><path clip-path="url(#clip310)" d="M61.8206 496.241 Q58.2095 496.241 56.3808 499.806 Q54.5752 503.347 54.5752 510.477 Q54.5752 517.583 56.3808 521.148 Q58.2095 524.69 61.8206 524.69 Q65.4548 524.69 67.2604 521.148 Q69.0891 517.583 69.0891 510.477 Q69.0891 503.347 67.2604 499.806 Q65.4548 496.241 61.8206 496.241 M61.8206 492.537 Q67.6307 492.537 70.6863 497.144 Q73.765 501.727 73.765 510.477 Q73.765 519.204 70.6863 523.81 Q67.6307 528.393 61.8206 528.393 Q56.0104 528.393 52.9317 523.81 Q49.8762 519.204 49.8762 510.477 Q49.8762 501.727 52.9317 497.144 Q56.0104 492.537 61.8206 492.537 Z" fill="#000000" fill-rule="evenodd" fill-opacity="1" /><path clip-path="url(#clip310)" d="M81.9825 521.842 L86.8667 521.842 L86.8667 527.722 L81.9825 527.722 L81.9825 521.842 Z" fill="#000000" fill-rule="evenodd" fill-opacity="1" /><path clip-path="url(#clip310)" d="M107.052 496.241 Q103.441 496.241 101.612 499.806 Q99.8065 503.347 99.8065 510.477 Q99.8065 517.583 101.612 521.148 Q103.441 524.69 107.052 524.69 Q110.686 524.69 112.492 521.148 Q114.32 517.583 114.32 510.477 Q114.32 503.347 112.492 499.806 Q110.686 496.241 107.052 496.241 M107.052 492.537 Q112.862 492.537 115.918 497.144 Q118.996 501.727 118.996 510.477 Q118.996 519.204 115.918 523.81 Q112.862 528.393 107.052 528.393 Q101.242 528.393 98.163 523.81 Q95.1074 519.204 95.1074 510.477 Q95.1074 501.727 98.163 497.144 Q101.242 492.537 107.052 492.537 Z" fill="#000000" fill-rule="evenodd" fill-opacity="1" /><path clip-path="url(#clip310)" d="M137.214 496.241 Q133.603 496.241 131.774 499.806 Q129.968 503.347 129.968 510.477 Q129.968 517.583 131.774 521.148 Q133.603 524.69 137.214 524.69 Q140.848 524.69 142.653 521.148 Q144.482 517.583 144.482 510.477 Q144.482 503.347 142.653 499.806 Q140.848 496.241 137.214 496.241 M137.214 492.537 Q143.024 492.537 146.079 497.144 Q149.158 501.727 149.158 510.477 Q149.158 519.204 146.079 523.81 Q143.024 528.393 137.214 528.393 Q131.404 528.393 128.325 523.81 Q125.269 519.204 125.269 510.477 Q125.269 501.727 128.325 497.144 Q131.404 492.537 137.214 492.537 Z" fill="#000000" fill-rule="evenodd" fill-opacity="1" /><path clip-path="url(#clip310)" d="M167.954 508.579 Q164.806 508.579 162.954 510.731 Q161.126 512.884 161.126 516.634 Q161.126 520.361 162.954 522.537 Q164.806 524.69 167.954 524.69 Q171.102 524.69 172.931 522.537 Q174.783 520.361 174.783 516.634 Q174.783 512.884 172.931 510.731 Q171.102 508.579 167.954 508.579 M177.237 493.926 L177.237 498.185 Q175.477 497.352 173.672 496.912 Q171.889 496.472 170.13 496.472 Q165.501 496.472 163.047 499.597 Q160.616 502.722 160.269 509.042 Q161.635 507.028 163.695 505.963 Q165.755 504.875 168.232 504.875 Q173.44 504.875 176.45 508.046 Q179.482 511.194 179.482 516.634 Q179.482 521.958 176.334 525.176 Q173.186 528.393 167.954 528.393 Q161.959 528.393 158.788 523.81 Q155.616 519.204 155.616 510.477 Q155.616 502.282 159.505 497.421 Q163.394 492.537 169.945 492.537 Q171.704 492.537 173.487 492.884 Q175.292 493.232 177.237 493.926 Z" fill="#000000" fill-rule="evenodd" fill-opacity="1" /><path clip-path="url(#clip310)" d="M62.0752 82.6711 Q58.4641 82.6711 56.6354 86.2359 Q54.8299 89.7776 54.8299 96.9072 Q54.8299 104.014 56.6354 107.578 Q58.4641 111.12 62.0752 111.12 Q65.7094 111.12 67.515 107.578 Q69.3437 104.014 69.3437 96.9072 Q69.3437 89.7776 67.515 86.2359 Q65.7094 82.6711 62.0752 82.6711 M62.0752 78.9675 Q67.8854 78.9675 70.9409 83.5739 Q74.0196 88.1572 74.0196 96.9072 Q74.0196 105.634 70.9409 110.24 Q67.8854 114.824 62.0752 114.824 Q56.2651 114.824 53.1864 110.24 Q50.1308 105.634 50.1308 96.9072 Q50.1308 88.1572 53.1864 83.5739 Q56.2651 78.9675 62.0752 78.9675 Z" fill="#000000" fill-rule="evenodd" fill-opacity="1" /><path clip-path="url(#clip310)" d="M82.2371 108.273 L87.1214 108.273 L87.1214 114.152 L82.2371 114.152 L82.2371 108.273 Z" fill="#000000" fill-rule="evenodd" fill-opacity="1" /><path clip-path="url(#clip310)" d="M107.306 82.6711 Q103.695 82.6711 101.867 86.2359 Q100.061 89.7776 100.061 96.9072 Q100.061 104.014 101.867 107.578 Q103.695 111.12 107.306 111.12 Q110.941 111.12 112.746 107.578 Q114.575 104.014 114.575 96.9072 Q114.575 89.7776 112.746 86.2359 Q110.941 82.6711 107.306 82.6711 M107.306 78.9675 Q113.117 78.9675 116.172 83.5739 Q119.251 88.1572 119.251 96.9072 Q119.251 105.634 116.172 110.24 Q113.117 114.824 107.306 114.824 Q101.496 114.824 98.4176 110.24 Q95.3621 105.634 95.3621 96.9072 Q95.3621 88.1572 98.4176 83.5739 Q101.496 78.9675 107.306 78.9675 Z" fill="#000000" fill-rule="evenodd" fill-opacity="1" /><path clip-path="url(#clip310)" d="M137.468 82.6711 Q133.857 82.6711 132.029 86.2359 Q130.223 89.7776 130.223 96.9072 Q130.223 104.014 132.029 107.578 Q133.857 111.12 137.468 111.12 Q141.103 111.12 142.908 107.578 Q144.737 104.014 144.737 96.9072 Q144.737 89.7776 142.908 86.2359 Q141.103 82.6711 137.468 82.6711 M137.468 78.9675 Q143.278 78.9675 146.334 83.5739 Q149.413 88.1572 149.413 96.9072 Q149.413 105.634 146.334 110.24 Q143.278 114.824 137.468 114.824 Q131.658 114.824 128.579 110.24 Q125.524 105.634 125.524 96.9072 Q125.524 88.1572 128.579 83.5739 Q131.658 78.9675 137.468 78.9675 Z" fill="#000000" fill-rule="evenodd" fill-opacity="1" /><path clip-path="url(#clip310)" d="M167.63 97.7405 Q164.297 97.7405 162.376 99.5229 Q160.477 101.305 160.477 104.43 Q160.477 107.555 162.376 109.338 Q164.297 111.12 167.63 111.12 Q170.964 111.12 172.885 109.338 Q174.806 107.532 174.806 104.43 Q174.806 101.305 172.885 99.5229 Q170.987 97.7405 167.63 97.7405 M162.954 95.7498 Q159.945 95.009 158.255 92.9489 Q156.589 90.8887 156.589 87.9257 Q156.589 83.7822 159.528 81.3748 Q162.491 78.9675 167.63 78.9675 Q172.792 78.9675 175.732 81.3748 Q178.672 83.7822 178.672 87.9257 Q178.672 90.8887 176.982 92.9489 Q175.315 95.009 172.329 95.7498 Q175.709 96.5368 177.584 98.8285 Q179.482 101.12 179.482 104.43 Q179.482 109.453 176.403 112.139 Q173.348 114.824 167.63 114.824 Q161.913 114.824 158.834 112.139 Q155.778 109.453 155.778 104.43 Q155.778 101.12 157.677 98.8285 Q159.575 96.5368 162.954 95.7498 M161.241 88.3656 Q161.241 91.0507 162.908 92.5553 Q164.598 94.06 167.63 94.06 Q170.639 94.06 172.329 92.5553 Q174.042 91.0507 174.042 88.3656 Q174.042 85.6804 172.329 84.1758 Q170.639 82.6711 167.63 82.6711 Q164.598 82.6711 162.908 84.1758 Q161.241 85.6804 161.241 88.3656 Z" fill="#000000" fill-rule="evenodd" fill-opacity="1" /><polyline clip-path="url(#clip312)" style="stroke:#009af9; stroke-linecap:round; stroke-linejoin:round; stroke-width:4; stroke-opacity:0.75; fill:none" points="
  835.143,1751.15 835.143,924.012 1058.88,924.012 1058.88,96.8724 1282.61,96.8724 1282.61,1337.58 1506.35,1337.58 1506.35,924.012 1730.08,924.012 1730.08,1337.58 
  1953.82,1337.58 1953.82,1751.15 
  "/>
<polyline clip-path="url(#clip312)" style="stroke:#e26f46; stroke-linecap:round; stroke-linejoin:round; stroke-width:20; stroke-opacity:1; fill:none" points="
  288.32,1750.97 299.797,1750.95 311.274,1750.91 322.75,1750.85 334.227,1750.77 345.704,1750.66 357.181,1750.53 368.658,1750.35 380.135,1750.13 391.612,1749.85 
  403.089,1749.5 414.566,1749.06 426.043,1748.53 437.52,1747.86 448.997,1747.05 460.474,1746.06 471.951,1744.87 483.428,1743.43 494.905,1741.7 506.382,1739.64 
  517.859,1737.19 529.336,1734.3 540.813,1730.91 552.29,1726.95 563.767,1722.34 575.244,1717.01 586.721,1710.87 598.198,1703.84 609.675,1695.84 621.152,1686.76 
  632.629,1676.52 644.106,1665.03 655.583,1652.2 667.06,1637.95 678.537,1622.18 690.014,1604.84 701.491,1585.86 712.968,1565.18 724.445,1542.76 735.922,1518.57 
  747.399,1492.61 758.876,1464.88 770.353,1435.4 781.83,1404.21 793.307,1371.37 804.784,1336.97 816.261,1301.1 827.738,1263.89 839.215,1225.47 850.692,1186 
  862.168,1145.66 873.645,1104.63 885.122,1063.13 896.599,1021.37 908.076,979.577 919.553,937.994 931.03,896.867 942.507,856.445 953.984,816.982 965.461,778.734 
  976.938,741.952 988.415,706.885 999.892,673.775 1011.37,642.854 1022.85,614.342 1034.32,588.448 1045.8,565.358 1057.28,545.245 1068.75,528.255 1080.23,514.512 
  1091.71,504.113 1103.19,497.126 1114.66,493.589 1126.14,493.506 1137.62,496.851 1149.09,503.562 1160.57,513.544 1172.05,526.669 1183.52,542.775 1195,561.67 
  1206.48,583.134 1217.95,606.919 1229.43,632.756 1240.91,660.355 1252.39,689.412 1263.86,719.611 1275.34,750.633 1286.82,782.156 1298.29,813.862 1309.77,845.443 
  1321.25,876.605 1332.72,907.072 1344.2,936.591 1355.68,964.936 1367.16,991.909 1378.63,1017.35 1390.11,1041.12 1401.59,1063.13 1413.06,1083.31 1424.54,1101.66 
  1436.02,1118.16 1447.49,1132.88 1458.97,1145.88 1470.45,1157.25 1481.93,1167.13 1493.4,1175.66 1504.88,1182.99 1516.36,1189.3 1527.83,1194.75 1539.31,1199.53 
  1550.79,1203.8 1562.26,1207.74 1573.74,1211.49 1585.22,1215.21 1596.7,1219.01 1608.17,1223.01 1619.65,1227.29 1631.13,1231.93 1642.6,1236.96 1654.08,1242.42 
  1665.56,1248.33 1677.03,1254.67 1688.51,1261.44 1699.99,1268.59 1711.46,1276.11 1722.94,1283.93 1734.42,1292.02 1745.9,1300.33 1757.37,1308.82 1768.85,1317.46 
  1780.33,1326.21 1791.8,1335.04 1803.28,1343.95 1814.76,1352.92 1826.23,1361.96 1837.71,1371.08 1849.19,1380.3 1860.67,1389.63 1872.14,1399.09 1883.62,1408.73 
  1895.1,1418.55 1906.57,1428.6 1918.05,1438.87 1929.53,1449.4 1941,1460.19 1952.48,1471.23 1963.96,1482.53 1975.44,1494.06 1986.91,1505.79 1998.39,1517.69 
  2009.87,1529.72 2021.34,1541.84 2032.82,1553.97 2044.3,1566.08 2055.77,1578.08 2067.25,1589.94 2078.73,1601.57 2090.21,1612.92 2101.68,1623.94 2113.16,1634.58 
  2124.64,1644.78 2136.11,1654.51 2147.59,1663.74 2159.07,1672.44 2170.54,1680.59 2182.02,1688.19 2193.5,1695.22 2204.98,1701.7 2216.45,1707.63 2227.93,1713.03 
  2239.41,1717.92 2250.88,1722.32 2262.36,1726.25 2273.84,1729.75 2285.31,1732.85 2296.79,1735.57 2308.27,1737.95 2319.74,1740.02 2331.22,1741.81 2342.7,1743.35 
  2354.18,1744.67 2365.65,1745.79 2377.13,1746.74 2388.61,1747.54 2400.08,1748.21 2411.56,1748.77 2423.04,1749.23 2434.51,1749.6 2445.99,1749.91 2457.47,1750.17 
  2468.95,1750.37 2480.42,1750.53 2491.9,1750.66 2503.38,1750.76 2514.85,1750.84 2526.33,1750.9 2537.81,1750.94 2549.28,1750.97 2560.76,1750.98 2572.24,1750.98 
  
  "/>
</svg>
