<?xml version="1.0" encoding="utf-8"?>
<svg xmlns="http://www.w3.org/2000/svg" xmlns:xlink="http://www.w3.org/1999/xlink" width="672" height="480" viewBox="0 0 2688 1920">
<defs>
  <clipPath id="clip710">
    <rect x="0" y="0" width="2688" height="1920"/>
  </clipPath>
</defs>
<path clip-path="url(#clip710)" d="
M0 1920 L2688 1920 L2688 0 L0 0  Z
  " fill="#ffffff" fill-rule="evenodd" fill-opacity="1"/>
<defs>
  <clipPath id="clip711">
    <rect x="537" y="0" width="1883" height="1883"/>
  </clipPath>
</defs>
<path clip-path="url(#clip710)" d="
M115.057 1800.78 L2640.76 1800.78 L2640.76 47.2441 L115.057 47.2441  Z
  " fill="#ffffff" fill-rule="evenodd" fill-opacity="1"/>
<defs>
  <clipPath id="clip712">
    <rect x="115" y="47" width="2527" height="1755"/>
  </clipPath>
</defs>
<polyline clip-path="url(#clip712)" style="stroke:#000000; stroke-linecap:round; stroke-linejoin:round; stroke-width:2; stroke-opacity:0.1; fill:none" points="
  253.975,1800.78 253.975,47.2441 
  "/>
<polyline clip-path="url(#clip712)" style="stroke:#000000; stroke-linecap:round; stroke-linejoin:round; stroke-width:2; stroke-opacity:0.1; fill:none" points="
  703.548,1800.78 703.548,47.2441 
  "/>
<polyline clip-path="url(#clip712)" style="stroke:#000000; stroke-linecap:round; stroke-linejoin:round; stroke-width:2; stroke-opacity:0.1; fill:none" points="
  1153.12,1800.78 1153.12,47.2441 
  "/>
<polyline clip-path="url(#clip712)" style="stroke:#000000; stroke-linecap:round; stroke-linejoin:round; stroke-width:2; stroke-opacity:0.1; fill:none" points="
  1602.69,1800.78 1602.69,47.2441 
  "/>
<polyline clip-path="url(#clip712)" style="stroke:#000000; stroke-linecap:round; stroke-linejoin:round; stroke-width:2; stroke-opacity:0.1; fill:none" points="
  2052.27,1800.78 2052.27,47.2441 
  "/>
<polyline clip-path="url(#clip712)" style="stroke:#000000; stroke-linecap:round; stroke-linejoin:round; stroke-width:2; stroke-opacity:0.1; fill:none" points="
  2501.84,1800.78 2501.84,47.2441 
  "/>
<polyline clip-path="url(#clip710)" style="stroke:#000000; stroke-linecap:round; stroke-linejoin:round; stroke-width:4; stroke-opacity:1; fill:none" points="
  115.057,1800.78 2640.76,1800.78 
  "/>
<polyline clip-path="url(#clip710)" style="stroke:#000000; stroke-linecap:round; stroke-linejoin:round; stroke-width:4; stroke-opacity:1; fill:none" points="
  253.975,1800.78 253.975,1781.88 
  "/>
<polyline clip-path="url(#clip710)" style="stroke:#000000; stroke-linecap:round; stroke-linejoin:round; stroke-width:4; stroke-opacity:1; fill:none" points="
  703.548,1800.78 703.548,1781.88 
  "/>
<polyline clip-path="url(#clip710)" style="stroke:#000000; stroke-linecap:round; stroke-linejoin:round; stroke-width:4; stroke-opacity:1; fill:none" points="
  1153.12,1800.78 1153.12,1781.88 
  "/>
<polyline clip-path="url(#clip710)" style="stroke:#000000; stroke-linecap:round; stroke-linejoin:round; stroke-width:4; stroke-opacity:1; fill:none" points="
  1602.69,1800.78 1602.69,1781.88 
  "/>
<polyline clip-path="url(#clip710)" style="stroke:#000000; stroke-linecap:round; stroke-linejoin:round; stroke-width:4; stroke-opacity:1; fill:none" points="
  2052.27,1800.78 2052.27,1781.88 
  "/>
<polyline clip-path="url(#clip710)" style="stroke:#000000; stroke-linecap:round; stroke-linejoin:round; stroke-width:4; stroke-opacity:1; fill:none" points="
  2501.84,1800.78 2501.84,1781.88 
  "/>
<path clip-path="url(#clip710)" d="M228.674 1830.92 L247.031 1830.92 L247.031 1834.86 L232.957 1834.86 L232.957 1843.33 Q233.975 1842.98 234.994 1842.82 Q236.012 1842.64 237.031 1842.64 Q242.818 1842.64 246.197 1845.81 Q249.577 1848.98 249.577 1854.4 Q249.577 1859.97 246.105 1863.08 Q242.633 1866.15 236.313 1866.15 Q234.137 1866.15 231.869 1865.78 Q229.623 1865.41 227.216 1864.67 L227.216 1859.97 Q229.299 1861.11 231.522 1861.66 Q233.744 1862.22 236.221 1862.22 Q240.225 1862.22 242.563 1860.11 Q244.901 1858.01 244.901 1854.4 Q244.901 1850.78 242.563 1848.68 Q240.225 1846.57 236.221 1846.57 Q234.346 1846.57 232.471 1846.99 Q230.619 1847.4 228.674 1848.28 L228.674 1830.92 Z" fill="#000000" fill-rule="evenodd" fill-opacity="1" /><path clip-path="url(#clip710)" d="M268.79 1834 Q265.179 1834 263.35 1837.57 Q261.545 1841.11 261.545 1848.24 Q261.545 1855.34 263.35 1858.91 Q265.179 1862.45 268.79 1862.45 Q272.424 1862.45 274.23 1858.91 Q276.058 1855.34 276.058 1848.24 Q276.058 1841.11 274.23 1837.57 Q272.424 1834 268.79 1834 M268.79 1830.3 Q274.6 1830.3 277.656 1834.9 Q280.734 1839.49 280.734 1848.24 Q280.734 1856.96 277.656 1861.57 Q274.6 1866.15 268.79 1866.15 Q262.98 1866.15 259.901 1861.57 Q256.845 1856.96 256.845 1848.24 Q256.845 1839.49 259.901 1834.9 Q262.98 1830.3 268.79 1830.3 Z" fill="#000000" fill-rule="evenodd" fill-opacity="1" /><path clip-path="url(#clip710)" d="M663.154 1861.55 L670.793 1861.55 L670.793 1835.18 L662.483 1836.85 L662.483 1832.59 L670.747 1830.92 L675.423 1830.92 L675.423 1861.55 L683.062 1861.55 L683.062 1865.48 L663.154 1865.48 L663.154 1861.55 Z" fill="#000000" fill-rule="evenodd" fill-opacity="1" /><path clip-path="url(#clip710)" d="M702.506 1834 Q698.895 1834 697.066 1837.57 Q695.261 1841.11 695.261 1848.24 Q695.261 1855.34 697.066 1858.91 Q698.895 1862.45 702.506 1862.45 Q706.14 1862.45 707.946 1858.91 Q709.774 1855.34 709.774 1848.24 Q709.774 1841.11 707.946 1837.57 Q706.14 1834 702.506 1834 M702.506 1830.3 Q708.316 1830.3 711.372 1834.9 Q714.45 1839.49 714.45 1848.24 Q714.45 1856.96 711.372 1861.57 Q708.316 1866.15 702.506 1866.15 Q696.696 1866.15 693.617 1861.57 Q690.562 1856.96 690.562 1848.24 Q690.562 1839.49 693.617 1834.9 Q696.696 1830.3 702.506 1830.3 Z" fill="#000000" fill-rule="evenodd" fill-opacity="1" /><path clip-path="url(#clip710)" d="M732.668 1834 Q729.057 1834 727.228 1837.57 Q725.423 1841.11 725.423 1848.24 Q725.423 1855.34 727.228 1858.91 Q729.057 1862.45 732.668 1862.45 Q736.302 1862.45 738.108 1858.91 Q739.936 1855.34 739.936 1848.24 Q739.936 1841.11 738.108 1837.57 Q736.302 1834 732.668 1834 M732.668 1830.3 Q738.478 1830.3 741.534 1834.9 Q744.612 1839.49 744.612 1848.24 Q744.612 1856.96 741.534 1861.57 Q738.478 1866.15 732.668 1866.15 Q726.858 1866.15 723.779 1861.57 Q720.724 1856.96 720.724 1848.24 Q720.724 1839.49 723.779 1834.9 Q726.858 1830.3 732.668 1830.3 Z" fill="#000000" fill-rule="evenodd" fill-opacity="1" /><path clip-path="url(#clip710)" d="M1112.73 1861.55 L1120.37 1861.55 L1120.37 1835.18 L1112.06 1836.85 L1112.06 1832.59 L1120.32 1830.92 L1125 1830.92 L1125 1861.55 L1132.63 1861.55 L1132.63 1865.48 L1112.73 1865.48 L1112.73 1861.55 Z" fill="#000000" fill-rule="evenodd" fill-opacity="1" /><path clip-path="url(#clip710)" d="M1142.12 1830.92 L1160.48 1830.92 L1160.48 1834.86 L1146.41 1834.86 L1146.41 1843.33 Q1147.43 1842.98 1148.44 1842.82 Q1149.46 1842.64 1150.48 1842.64 Q1156.27 1842.64 1159.65 1845.81 Q1163.03 1848.98 1163.03 1854.4 Q1163.03 1859.97 1159.56 1863.08 Q1156.08 1866.15 1149.76 1866.15 Q1147.59 1866.15 1145.32 1865.78 Q1143.07 1865.41 1140.67 1864.67 L1140.67 1859.97 Q1142.75 1861.11 1144.97 1861.66 Q1147.19 1862.22 1149.67 1862.22 Q1153.68 1862.22 1156.01 1860.11 Q1158.35 1858.01 1158.35 1854.4 Q1158.35 1850.78 1156.01 1848.68 Q1153.68 1846.57 1149.67 1846.57 Q1147.8 1846.57 1145.92 1846.99 Q1144.07 1847.4 1142.12 1848.28 L1142.12 1830.92 Z" fill="#000000" fill-rule="evenodd" fill-opacity="1" /><path clip-path="url(#clip710)" d="M1182.24 1834 Q1178.63 1834 1176.8 1837.57 Q1175 1841.11 1175 1848.24 Q1175 1855.34 1176.8 1858.91 Q1178.63 1862.45 1182.24 1862.45 Q1185.87 1862.45 1187.68 1858.91 Q1189.51 1855.34 1189.51 1848.24 Q1189.51 1841.11 1187.68 1837.57 Q1185.87 1834 1182.24 1834 M1182.24 1830.3 Q1188.05 1830.3 1191.11 1834.9 Q1194.18 1839.49 1194.18 1848.24 Q1194.18 1856.96 1191.11 1861.57 Q1188.05 1866.15 1182.24 1866.15 Q1176.43 1866.15 1173.35 1861.57 Q1170.3 1856.96 1170.3 1848.24 Q1170.3 1839.49 1173.35 1834.9 Q1176.43 1830.3 1182.24 1830.3 Z" fill="#000000" fill-rule="evenodd" fill-opacity="1" /><path clip-path="url(#clip710)" d="M1566.39 1861.55 L1582.7 1861.55 L1582.7 1865.48 L1560.76 1865.48 L1560.76 1861.55 Q1563.42 1858.79 1568.01 1854.16 Q1572.61 1849.51 1573.79 1848.17 Q1576.04 1845.65 1576.92 1843.91 Q1577.82 1842.15 1577.82 1840.46 Q1577.82 1837.71 1575.88 1835.97 Q1573.95 1834.23 1570.85 1834.23 Q1568.65 1834.23 1566.2 1835 Q1563.77 1835.76 1560.99 1837.31 L1560.99 1832.59 Q1563.82 1831.46 1566.27 1830.88 Q1568.72 1830.3 1570.76 1830.3 Q1576.13 1830.3 1579.32 1832.98 Q1582.52 1835.67 1582.52 1840.16 Q1582.52 1842.29 1581.71 1844.21 Q1580.92 1846.11 1578.82 1848.7 Q1578.24 1849.37 1575.14 1852.59 Q1572.03 1855.78 1566.39 1861.55 Z" fill="#000000" fill-rule="evenodd" fill-opacity="1" /><path clip-path="url(#clip710)" d="M1602.52 1834 Q1598.91 1834 1597.08 1837.57 Q1595.27 1841.11 1595.27 1848.24 Q1595.27 1855.34 1597.08 1858.91 Q1598.91 1862.45 1602.52 1862.45 Q1606.15 1862.45 1607.96 1858.91 Q1609.79 1855.34 1609.79 1848.24 Q1609.79 1841.11 1607.96 1837.57 Q1606.15 1834 1602.52 1834 M1602.52 1830.3 Q1608.33 1830.3 1611.38 1834.9 Q1614.46 1839.49 1614.46 1848.24 Q1614.46 1856.96 1611.38 1861.57 Q1608.33 1866.15 1602.52 1866.15 Q1596.71 1866.15 1593.63 1861.57 Q1590.57 1856.96 1590.57 1848.24 Q1590.57 1839.49 1593.63 1834.9 Q1596.71 1830.3 1602.52 1830.3 Z" fill="#000000" fill-rule="evenodd" fill-opacity="1" /><path clip-path="url(#clip710)" d="M1632.68 1834 Q1629.07 1834 1627.24 1837.57 Q1625.44 1841.11 1625.44 1848.24 Q1625.44 1855.34 1627.24 1858.91 Q1629.07 1862.45 1632.68 1862.45 Q1636.32 1862.45 1638.12 1858.91 Q1639.95 1855.34 1639.95 1848.24 Q1639.95 1841.11 1638.12 1837.57 Q1636.32 1834 1632.68 1834 M1632.68 1830.3 Q1638.49 1830.3 1641.55 1834.9 Q1644.63 1839.49 1644.63 1848.24 Q1644.63 1856.96 1641.55 1861.57 Q1638.49 1866.15 1632.68 1866.15 Q1626.87 1866.15 1623.79 1861.57 Q1620.74 1856.96 1620.74 1848.24 Q1620.74 1839.49 1623.79 1834.9 Q1626.87 1830.3 1632.68 1830.3 Z" fill="#000000" fill-rule="evenodd" fill-opacity="1" /><path clip-path="url(#clip710)" d="M2015.96 1861.55 L2032.28 1861.55 L2032.28 1865.48 L2010.33 1865.48 L2010.33 1861.55 Q2012.99 1858.79 2017.58 1854.16 Q2022.18 1849.51 2023.37 1848.17 Q2025.61 1845.65 2026.49 1843.91 Q2027.39 1842.15 2027.39 1840.46 Q2027.39 1837.71 2025.45 1835.97 Q2023.53 1834.23 2020.43 1834.23 Q2018.23 1834.23 2015.77 1835 Q2013.34 1835.76 2010.56 1837.31 L2010.56 1832.59 Q2013.39 1831.46 2015.84 1830.88 Q2018.3 1830.3 2020.33 1830.3 Q2025.7 1830.3 2028.9 1832.98 Q2032.09 1835.67 2032.09 1840.16 Q2032.09 1842.29 2031.28 1844.21 Q2030.49 1846.11 2028.39 1848.7 Q2027.81 1849.37 2024.71 1852.59 Q2021.61 1855.78 2015.96 1861.55 Z" fill="#000000" fill-rule="evenodd" fill-opacity="1" /><path clip-path="url(#clip710)" d="M2042.14 1830.92 L2060.49 1830.92 L2060.49 1834.86 L2046.42 1834.86 L2046.42 1843.33 Q2047.44 1842.98 2048.46 1842.82 Q2049.48 1842.64 2050.49 1842.64 Q2056.28 1842.64 2059.66 1845.81 Q2063.04 1848.98 2063.04 1854.4 Q2063.04 1859.97 2059.57 1863.08 Q2056.1 1866.15 2049.78 1866.15 Q2047.6 1866.15 2045.33 1865.78 Q2043.09 1865.41 2040.68 1864.67 L2040.68 1859.97 Q2042.76 1861.11 2044.99 1861.66 Q2047.21 1862.22 2049.68 1862.22 Q2053.69 1862.22 2056.03 1860.11 Q2058.36 1858.01 2058.36 1854.4 Q2058.36 1850.78 2056.03 1848.68 Q2053.69 1846.57 2049.68 1846.57 Q2047.81 1846.57 2045.93 1846.99 Q2044.08 1847.4 2042.14 1848.28 L2042.14 1830.92 Z" fill="#000000" fill-rule="evenodd" fill-opacity="1" /><path clip-path="url(#clip710)" d="M2082.25 1834 Q2078.64 1834 2076.81 1837.57 Q2075.01 1841.11 2075.01 1848.24 Q2075.01 1855.34 2076.81 1858.91 Q2078.64 1862.45 2082.25 1862.45 Q2085.89 1862.45 2087.69 1858.91 Q2089.52 1855.34 2089.52 1848.24 Q2089.52 1841.11 2087.69 1837.57 Q2085.89 1834 2082.25 1834 M2082.25 1830.3 Q2088.06 1830.3 2091.12 1834.9 Q2094.2 1839.49 2094.2 1848.24 Q2094.2 1856.96 2091.12 1861.57 Q2088.06 1866.15 2082.25 1866.15 Q2076.44 1866.15 2073.36 1861.57 Q2070.31 1856.96 2070.31 1848.24 Q2070.31 1839.49 2073.36 1834.9 Q2076.44 1830.3 2082.25 1830.3 Z" fill="#000000" fill-rule="evenodd" fill-opacity="1" /><path clip-path="url(#clip710)" d="M2475.6 1846.85 Q2478.96 1847.57 2480.83 1849.84 Q2482.73 1852.1 2482.73 1855.44 Q2482.73 1860.55 2479.21 1863.35 Q2475.69 1866.15 2469.21 1866.15 Q2467.03 1866.15 2464.72 1865.71 Q2462.43 1865.3 2459.97 1864.44 L2459.97 1859.93 Q2461.92 1861.06 2464.23 1861.64 Q2466.55 1862.22 2469.07 1862.22 Q2473.47 1862.22 2475.76 1860.48 Q2478.08 1858.75 2478.08 1855.44 Q2478.08 1852.38 2475.92 1850.67 Q2473.79 1848.93 2469.97 1848.93 L2465.95 1848.93 L2465.95 1845.09 L2470.16 1845.09 Q2473.61 1845.09 2475.44 1843.72 Q2477.27 1842.34 2477.27 1839.74 Q2477.27 1837.08 2475.37 1835.67 Q2473.49 1834.23 2469.97 1834.23 Q2468.05 1834.23 2465.85 1834.65 Q2463.66 1835.07 2461.02 1835.95 L2461.02 1831.78 Q2463.68 1831.04 2465.99 1830.67 Q2468.33 1830.3 2470.39 1830.3 Q2475.72 1830.3 2478.82 1832.73 Q2481.92 1835.14 2481.92 1839.26 Q2481.92 1842.13 2480.28 1844.12 Q2478.63 1846.09 2475.6 1846.85 Z" fill="#000000" fill-rule="evenodd" fill-opacity="1" /><path clip-path="url(#clip710)" d="M2501.59 1834 Q2497.98 1834 2496.16 1837.57 Q2494.35 1841.11 2494.35 1848.24 Q2494.35 1855.34 2496.16 1858.91 Q2497.98 1862.45 2501.59 1862.45 Q2505.23 1862.45 2507.03 1858.91 Q2508.86 1855.34 2508.86 1848.24 Q2508.86 1841.11 2507.03 1837.57 Q2505.23 1834 2501.59 1834 M2501.59 1830.3 Q2507.41 1830.3 2510.46 1834.9 Q2513.54 1839.49 2513.54 1848.24 Q2513.54 1856.96 2510.46 1861.57 Q2507.41 1866.15 2501.59 1866.15 Q2495.78 1866.15 2492.71 1861.57 Q2489.65 1856.96 2489.65 1848.24 Q2489.65 1839.49 2492.71 1834.9 Q2495.78 1830.3 2501.59 1830.3 Z" fill="#000000" fill-rule="evenodd" fill-opacity="1" /><path clip-path="url(#clip710)" d="M2531.76 1834 Q2528.15 1834 2526.32 1837.57 Q2524.51 1841.11 2524.51 1848.24 Q2524.51 1855.34 2526.32 1858.91 Q2528.15 1862.45 2531.76 1862.45 Q2535.39 1862.45 2537.2 1858.91 Q2539.03 1855.34 2539.03 1848.24 Q2539.03 1841.11 2537.2 1837.57 Q2535.39 1834 2531.76 1834 M2531.76 1830.3 Q2537.57 1830.3 2540.62 1834.9 Q2543.7 1839.49 2543.7 1848.24 Q2543.7 1856.96 2540.62 1861.57 Q2537.57 1866.15 2531.76 1866.15 Q2525.95 1866.15 2522.87 1861.57 Q2519.81 1856.96 2519.81 1848.24 Q2519.81 1839.49 2522.87 1834.9 Q2525.95 1830.3 2531.76 1830.3 Z" fill="#000000" fill-rule="evenodd" fill-opacity="1" /><polyline clip-path="url(#clip712)" style="stroke:#000000; stroke-linecap:round; stroke-linejoin:round; stroke-width:2; stroke-opacity:0.1; fill:none" points="
  115.057,1751.15 2640.76,1751.15 
  "/>
<polyline clip-path="url(#clip712)" style="stroke:#000000; stroke-linecap:round; stroke-linejoin:round; stroke-width:2; stroke-opacity:0.1; fill:none" points="
  115.057,1337.58 2640.76,1337.58 
  "/>
<polyline clip-path="url(#clip712)" style="stroke:#000000; stroke-linecap:round; stroke-linejoin:round; stroke-width:2; stroke-opacity:0.1; fill:none" points="
  115.057,924.012 2640.76,924.012 
  "/>
<polyline clip-path="url(#clip712)" style="stroke:#000000; stroke-linecap:round; stroke-linejoin:round; stroke-width:2; stroke-opacity:0.1; fill:none" points="
  115.057,510.442 2640.76,510.442 
  "/>
<polyline clip-path="url(#clip712)" style="stroke:#000000; stroke-linecap:round; stroke-linejoin:round; stroke-width:2; stroke-opacity:0.1; fill:none" points="
  115.057,96.8724 2640.76,96.8724 
  "/>
<polyline clip-path="url(#clip710)" style="stroke:#000000; stroke-linecap:round; stroke-linejoin:round; stroke-width:4; stroke-opacity:1; fill:none" points="
  115.057,1800.78 115.057,47.2441 
  "/>
<polyline clip-path="url(#clip710)" style="stroke:#000000; stroke-linecap:round; stroke-linejoin:round; stroke-width:4; stroke-opacity:1; fill:none" points="
  115.057,1751.15 133.955,1751.15 
  "/>
<polyline clip-path="url(#clip710)" style="stroke:#000000; stroke-linecap:round; stroke-linejoin:round; stroke-width:4; stroke-opacity:1; fill:none" points="
  115.057,1337.58 133.955,1337.58 
  "/>
<polyline clip-path="url(#clip710)" style="stroke:#000000; stroke-linecap:round; stroke-linejoin:round; stroke-width:4; stroke-opacity:1; fill:none" points="
  115.057,924.012 133.955,924.012 
  "/>
<polyline clip-path="url(#clip710)" style="stroke:#000000; stroke-linecap:round; stroke-linejoin:round; stroke-width:4; stroke-opacity:1; fill:none" points="
  115.057,510.442 133.955,510.442 
  "/>
<polyline clip-path="url(#clip710)" style="stroke:#000000; stroke-linecap:round; stroke-linejoin:round; stroke-width:4; stroke-opacity:1; fill:none" points="
  115.057,96.8724 133.955,96.8724 
  "/>
<path clip-path="url(#clip710)" d="M62.7928 1736.95 Q59.1817 1736.95 57.353 1740.51 Q55.5475 1744.06 55.5475 1751.19 Q55.5475 1758.29 57.353 1761.86 Q59.1817 1765.4 62.7928 1765.4 Q66.427 1765.4 68.2326 1761.86 Q70.0613 1758.29 70.0613 1751.19 Q70.0613 1744.06 68.2326 1740.51 Q66.427 1736.95 62.7928 1736.95 M62.7928 1733.25 Q68.6029 1733.25 71.6585 1737.85 Q74.7372 1742.44 74.7372 1751.19 Q74.7372 1759.91 71.6585 1764.52 Q68.6029 1769.1 62.7928 1769.1 Q56.9826 1769.1 53.904 1764.52 Q50.8484 1759.91 50.8484 1751.19 Q50.8484 1742.44 53.904 1737.85 Q56.9826 1733.25 62.7928 1733.25 Z" fill="#000000" fill-rule="evenodd" fill-opacity="1" /><path clip-path="url(#clip710)" d="M54.8299 1350.93 L62.4687 1350.93 L62.4687 1324.56 L54.1586 1326.23 L54.1586 1321.97 L62.4224 1320.3 L67.0983 1320.3 L67.0983 1350.93 L74.7372 1350.93 L74.7372 1354.86 L54.8299 1354.86 L54.8299 1350.93 Z" fill="#000000" fill-rule="evenodd" fill-opacity="1" /><path clip-path="url(#clip710)" d="M58.4178 937.357 L74.7372 937.357 L74.7372 941.292 L52.7928 941.292 L52.7928 937.357 Q55.4549 934.602 60.0382 929.972 Q64.6446 925.32 65.8252 923.977 Q68.0705 921.454 68.9502 919.718 Q69.8529 917.958 69.8529 916.269 Q69.8529 913.514 67.9085 911.778 Q65.9872 910.042 62.8854 910.042 Q60.6863 910.042 58.2326 910.806 Q55.8021 911.57 53.0243 913.121 L53.0243 908.398 Q55.8484 907.264 58.3021 906.685 Q60.7558 906.107 62.7928 906.107 Q68.1631 906.107 71.3576 908.792 Q74.552 911.477 74.552 915.968 Q74.552 918.097 73.7418 920.019 Q72.9548 921.917 70.8483 924.509 Q70.2696 925.181 67.1678 928.398 Q64.0659 931.593 58.4178 937.357 Z" fill="#000000" fill-rule="evenodd" fill-opacity="1" /><path clip-path="url(#clip710)" d="M67.6076 509.088 Q70.964 509.806 72.839 512.074 Q74.7372 514.343 74.7372 517.676 Q74.7372 522.792 71.2187 525.592 Q67.7002 528.393 61.2187 528.393 Q59.0428 528.393 56.728 527.954 Q54.4364 527.537 51.9827 526.68 L51.9827 522.167 Q53.9271 523.301 56.2419 523.88 Q58.5567 524.458 61.0798 524.458 Q65.478 524.458 67.7696 522.722 Q70.0844 520.986 70.0844 517.676 Q70.0844 514.62 67.9317 512.907 Q65.802 511.171 61.9826 511.171 L57.9549 511.171 L57.9549 507.329 L62.1678 507.329 Q65.6169 507.329 67.4455 505.963 Q69.2742 504.574 69.2742 501.981 Q69.2742 499.319 67.3761 497.907 Q65.5011 496.472 61.9826 496.472 Q60.0613 496.472 57.8623 496.889 Q55.6632 497.306 53.0243 498.185 L53.0243 494.019 Q55.6864 493.278 58.0012 492.907 Q60.3391 492.537 62.3993 492.537 Q67.7233 492.537 70.8252 494.968 Q73.927 497.375 73.927 501.495 Q73.927 504.366 72.2835 506.356 Q70.64 508.324 67.6076 509.088 Z" fill="#000000" fill-rule="evenodd" fill-opacity="1" /><path clip-path="url(#clip710)" d="M65.1539 83.6665 L53.3484 102.115 L65.1539 102.115 L65.1539 83.6665 M63.927 79.5924 L69.8066 79.5924 L69.8066 102.115 L74.7372 102.115 L74.7372 106.004 L69.8066 106.004 L69.8066 114.152 L65.1539 114.152 L65.1539 106.004 L49.5521 106.004 L49.5521 101.49 L63.927 79.5924 Z" fill="#000000" fill-rule="evenodd" fill-opacity="1" /><path clip-path="url(#clip712)" d="
M253.975 924.012 L253.975 1751.15 L703.548 1751.15 L703.548 924.012 L253.975 924.012 L253.975 924.012  Z
  " fill="#009af9" fill-rule="evenodd" fill-opacity="1"/>
<polyline clip-path="url(#clip712)" style="stroke:#000000; stroke-linecap:round; stroke-linejoin:round; stroke-width:4; stroke-opacity:1; fill:none" points="
  253.975,924.012 253.975,1751.15 703.548,1751.15 703.548,924.012 253.975,924.012 
  "/>
<path clip-path="url(#clip712)" d="
M703.548 96.8724 L703.548 1751.15 L1153.12 1751.15 L1153.12 96.8724 L703.548 96.8724 L703.548 96.8724  Z
  " fill="#009af9" fill-rule="evenodd" fill-opacity="1"/>
<polyline clip-path="url(#clip712)" style="stroke:#000000; stroke-linecap:round; stroke-linejoin:round; stroke-width:4; stroke-opacity:1; fill:none" points="
  703.548,96.8724 703.548,1751.15 1153.12,1751.15 1153.12,96.8724 703.548,96.8724 
  "/>
<path clip-path="url(#clip712)" d="
M1153.12 1337.58 L1153.12 1751.15 L1602.69 1751.15 L1602.69 1337.58 L1153.12 1337.58 L1153.12 1337.58  Z
  " fill="#009af9" fill-rule="evenodd" fill-opacity="1"/>
<polyline clip-path="url(#clip712)" style="stroke:#000000; stroke-linecap:round; stroke-linejoin:round; stroke-width:4; stroke-opacity:1; fill:none" points="
  1153.12,1337.58 1153.12,1751.15 1602.69,1751.15 1602.69,1337.58 1153.12,1337.58 
  "/>
<path clip-path="url(#clip712)" d="
M1602.69 924.012 L1602.69 1751.15 L2052.27 1751.15 L2052.27 924.012 L1602.69 924.012 L1602.69 924.012  Z
  " fill="#009af9" fill-rule="evenodd" fill-opacity="1"/>
<polyline clip-path="url(#clip712)" style="stroke:#000000; stroke-linecap:round; stroke-linejoin:round; stroke-width:4; stroke-opacity:1; fill:none" points="
  1602.69,924.012 1602.69,1751.15 2052.27,1751.15 2052.27,924.012 1602.69,924.012 
  "/>
<path clip-path="url(#clip712)" d="
M2052.27 1337.58 L2052.27 1751.15 L2501.84 1751.15 L2501.84 1337.58 L2052.27 1337.58 L2052.27 1337.58  Z
  " fill="#009af9" fill-rule="evenodd" fill-opacity="1"/>
<polyline clip-path="url(#clip712)" style="stroke:#000000; stroke-linecap:round; stroke-linejoin:round; stroke-width:4; stroke-opacity:1; fill:none" points="
  2052.27,1337.58 2052.27,1751.15 2501.84,1751.15 2501.84,1337.58 2052.27,1337.58 
  "/>
<circle clip-path="url(#clip712)" style="fill:#009af9; stroke:none; fill-opacity:0" cx="478.761" cy="924.012" r="2"/>
<circle clip-path="url(#clip712)" style="fill:#009af9; stroke:none; fill-opacity:0" cx="928.334" cy="96.8724" r="2"/>
<circle clip-path="url(#clip712)" style="fill:#009af9; stroke:none; fill-opacity:0" cx="1377.91" cy="1337.58" r="2"/>
<circle clip-path="url(#clip712)" style="fill:#009af9; stroke:none; fill-opacity:0" cx="1827.48" cy="924.012" r="2"/>
<circle clip-path="url(#clip712)" style="fill:#009af9; stroke:none; fill-opacity:0" cx="2277.05" cy="1337.58" r="2"/>
<circle clip-path="url(#clip712)" cx="466.719" cy="1668.44" r="36" fill="#e26f46" fill-rule="evenodd" fill-opacity="1" stroke="#000000" stroke-opacity="1" stroke-width="3.84"/>
<circle clip-path="url(#clip712)" cx="519.017" cy="1668.44" r="36" fill="#e26f46" fill-rule="evenodd" fill-opacity="1" stroke="#000000" stroke-opacity="1" stroke-width="3.84"/>
<circle clip-path="url(#clip712)" cx="799.839" cy="1668.44" r="36" fill="#e26f46" fill-rule="evenodd" fill-opacity="1" stroke="#000000" stroke-opacity="1" stroke-width="3.84"/>
<circle clip-path="url(#clip712)" cx="802.146" cy="1668.44" r="36" fill="#e26f46" fill-rule="evenodd" fill-opacity="1" stroke="#000000" stroke-opacity="1" stroke-width="3.84"/>
<circle clip-path="url(#clip712)" cx="901.902" cy="1668.44" r="36" fill="#e26f46" fill-rule="evenodd" fill-opacity="1" stroke="#000000" stroke-opacity="1" stroke-width="3.84"/>
<circle clip-path="url(#clip712)" cx="996.92" cy="1668.44" r="36" fill="#e26f46" fill-rule="evenodd" fill-opacity="1" stroke="#000000" stroke-opacity="1" stroke-width="3.84"/>
<circle clip-path="url(#clip712)" cx="1207.81" cy="1668.44" r="36" fill="#e26f46" fill-rule="evenodd" fill-opacity="1" stroke="#000000" stroke-opacity="1" stroke-width="3.84"/>
<circle clip-path="url(#clip712)" cx="1700.55" cy="1668.44" r="36" fill="#e26f46" fill-rule="evenodd" fill-opacity="1" stroke="#000000" stroke-opacity="1" stroke-width="3.84"/>
<circle clip-path="url(#clip712)" cx="1921.43" cy="1668.44" r="36" fill="#e26f46" fill-rule="evenodd" fill-opacity="1" stroke="#000000" stroke-opacity="1" stroke-width="3.84"/>
<circle clip-path="url(#clip712)" cx="2432.11" cy="1668.44" r="36" fill="#e26f46" fill-rule="evenodd" fill-opacity="1" stroke="#000000" stroke-opacity="1" stroke-width="3.84"/>
</svg>
