<?xml version="1.0" encoding="utf-8"?>
<svg xmlns="http://www.w3.org/2000/svg" xmlns:xlink="http://www.w3.org/1999/xlink" width="576" height="384" viewBox="0 0 2304 1536">
<defs>
  <clipPath id="clip250">
    <rect x="0" y="0" width="2304" height="1536"/>
  </clipPath>
</defs>
<path clip-path="url(#clip250)" d="
M0 1536 L2304 1536 L2304 0 L0 0  Z
  " fill="#ffffff" fill-rule="evenodd" fill-opacity="1"/>
<defs>
  <clipPath id="clip251">
    <rect x="460" y="0" width="1614" height="1536"/>
  </clipPath>
</defs>
<path clip-path="url(#clip250)" d="
M215.962 1423.09 L1127.79 1423.09 L1127.79 47.2441 L215.962 47.2441  Z
  " fill="#ffffff" fill-rule="evenodd" fill-opacity="1"/>
<defs>
  <clipPath id="clip252">
    <rect x="215" y="47" width="913" height="1377"/>
  </clipPath>
</defs>
<polyline clip-path="url(#clip252)" style="stroke:#000000; stroke-linecap:round; stroke-linejoin:round; stroke-width:2; stroke-opacity:0.1; fill:none" points="
  363.456,1423.09 363.456,47.2441 
  "/>
<polyline clip-path="url(#clip252)" style="stroke:#000000; stroke-linecap:round; stroke-linejoin:round; stroke-width:2; stroke-opacity:0.1; fill:none" points="
  531.991,1423.09 531.991,47.2441 
  "/>
<polyline clip-path="url(#clip252)" style="stroke:#000000; stroke-linecap:round; stroke-linejoin:round; stroke-width:2; stroke-opacity:0.1; fill:none" points="
  700.526,1423.09 700.526,47.2441 
  "/>
<polyline clip-path="url(#clip252)" style="stroke:#000000; stroke-linecap:round; stroke-linejoin:round; stroke-width:2; stroke-opacity:0.1; fill:none" points="
  869.061,1423.09 869.061,47.2441 
  "/>
<polyline clip-path="url(#clip252)" style="stroke:#000000; stroke-linecap:round; stroke-linejoin:round; stroke-width:2; stroke-opacity:0.1; fill:none" points="
  1037.6,1423.09 1037.6,47.2441 
  "/>
<polyline clip-path="url(#clip250)" style="stroke:#000000; stroke-linecap:round; stroke-linejoin:round; stroke-width:4; stroke-opacity:1; fill:none" points="
  215.962,1423.09 1127.79,1423.09 
  "/>
<polyline clip-path="url(#clip250)" style="stroke:#000000; stroke-linecap:round; stroke-linejoin:round; stroke-width:4; stroke-opacity:1; fill:none" points="
  363.456,1423.09 363.456,1404.19 
  "/>
<polyline clip-path="url(#clip250)" style="stroke:#000000; stroke-linecap:round; stroke-linejoin:round; stroke-width:4; stroke-opacity:1; fill:none" points="
  531.991,1423.09 531.991,1404.19 
  "/>
<polyline clip-path="url(#clip250)" style="stroke:#000000; stroke-linecap:round; stroke-linejoin:round; stroke-width:4; stroke-opacity:1; fill:none" points="
  700.526,1423.09 700.526,1404.19 
  "/>
<polyline clip-path="url(#clip250)" style="stroke:#000000; stroke-linecap:round; stroke-linejoin:round; stroke-width:4; stroke-opacity:1; fill:none" points="
  869.061,1423.09 869.061,1404.19 
  "/>
<polyline clip-path="url(#clip250)" style="stroke:#000000; stroke-linecap:round; stroke-linejoin:round; stroke-width:4; stroke-opacity:1; fill:none" points="
  1037.6,1423.09 1037.6,1404.19 
  "/>
<path clip-path="url(#clip250)" d="M363.456 1453.24 Q359.845 1453.24 358.016 1456.8 Q356.211 1460.35 356.211 1467.47 Q356.211 1474.58 358.016 1478.15 Q359.845 1481.69 363.456 1481.69 Q367.09 1481.69 368.896 1478.15 Q370.724 1474.58 370.724 1467.47 Q370.724 1460.35 368.896 1456.8 Q367.09 1453.24 363.456 1453.24 M363.456 1449.53 Q369.266 1449.53 372.322 1454.14 Q375.4 1458.72 375.4 1467.47 Q375.4 1476.2 372.322 1480.81 Q369.266 1485.39 363.456 1485.39 Q357.646 1485.39 354.567 1480.81 Q351.512 1476.2 351.512 1467.47 Q351.512 1458.72 354.567 1454.14 Q357.646 1449.53 363.456 1449.53 Z" fill="#000000" fill-rule="evenodd" fill-opacity="1" /><path clip-path="url(#clip250)" d="M491.598 1480.78 L499.237 1480.78 L499.237 1454.42 L490.926 1456.09 L490.926 1451.83 L499.19 1450.16 L503.866 1450.16 L503.866 1480.78 L511.505 1480.78 L511.505 1484.72 L491.598 1484.72 L491.598 1480.78 Z" fill="#000000" fill-rule="evenodd" fill-opacity="1" /><path clip-path="url(#clip250)" d="M530.949 1453.24 Q527.338 1453.24 525.51 1456.8 Q523.704 1460.35 523.704 1467.47 Q523.704 1474.58 525.51 1478.15 Q527.338 1481.69 530.949 1481.69 Q534.584 1481.69 536.389 1478.15 Q538.218 1474.58 538.218 1467.47 Q538.218 1460.35 536.389 1456.8 Q534.584 1453.24 530.949 1453.24 M530.949 1449.53 Q536.76 1449.53 539.815 1454.14 Q542.894 1458.72 542.894 1467.47 Q542.894 1476.2 539.815 1480.81 Q536.76 1485.39 530.949 1485.39 Q525.139 1485.39 522.061 1480.81 Q519.005 1476.2 519.005 1467.47 Q519.005 1458.72 522.061 1454.14 Q525.139 1449.53 530.949 1449.53 Z" fill="#000000" fill-rule="evenodd" fill-opacity="1" /><path clip-path="url(#clip250)" d="M561.111 1453.24 Q557.5 1453.24 555.671 1456.8 Q553.866 1460.35 553.866 1467.47 Q553.866 1474.58 555.671 1478.15 Q557.5 1481.69 561.111 1481.69 Q564.745 1481.69 566.551 1478.15 Q568.38 1474.58 568.38 1467.47 Q568.38 1460.35 566.551 1456.8 Q564.745 1453.24 561.111 1453.24 M561.111 1449.53 Q566.921 1449.53 569.977 1454.14 Q573.056 1458.72 573.056 1467.47 Q573.056 1476.2 569.977 1480.81 Q566.921 1485.39 561.111 1485.39 Q555.301 1485.39 552.222 1480.81 Q549.167 1476.2 549.167 1467.47 Q549.167 1458.72 552.222 1454.14 Q555.301 1449.53 561.111 1449.53 Z" fill="#000000" fill-rule="evenodd" fill-opacity="1" /><path clip-path="url(#clip250)" d="M664.218 1480.78 L680.538 1480.78 L680.538 1484.72 L658.593 1484.72 L658.593 1480.78 Q661.255 1478.03 665.839 1473.4 Q670.445 1468.75 671.626 1467.41 Q673.871 1464.88 674.751 1463.15 Q675.653 1461.39 675.653 1459.7 Q675.653 1456.94 673.709 1455.21 Q671.788 1453.47 668.686 1453.47 Q666.487 1453.47 664.033 1454.23 Q661.603 1455 658.825 1456.55 L658.825 1451.83 Q661.649 1450.69 664.103 1450.11 Q666.556 1449.53 668.593 1449.53 Q673.964 1449.53 677.158 1452.22 Q680.353 1454.91 680.353 1459.4 Q680.353 1461.53 679.542 1463.45 Q678.755 1465.34 676.649 1467.94 Q676.07 1468.61 672.968 1471.83 Q669.866 1475.02 664.218 1480.78 Z" fill="#000000" fill-rule="evenodd" fill-opacity="1" /><path clip-path="url(#clip250)" d="M700.352 1453.24 Q696.741 1453.24 694.913 1456.8 Q693.107 1460.35 693.107 1467.47 Q693.107 1474.58 694.913 1478.15 Q696.741 1481.69 700.352 1481.69 Q703.987 1481.69 705.792 1478.15 Q707.621 1474.58 707.621 1467.47 Q707.621 1460.35 705.792 1456.8 Q703.987 1453.24 700.352 1453.24 M700.352 1449.53 Q706.163 1449.53 709.218 1454.14 Q712.297 1458.72 712.297 1467.47 Q712.297 1476.2 709.218 1480.81 Q706.163 1485.39 700.352 1485.39 Q694.542 1485.39 691.464 1480.81 Q688.408 1476.2 688.408 1467.47 Q688.408 1458.72 691.464 1454.14 Q694.542 1449.53 700.352 1449.53 Z" fill="#000000" fill-rule="evenodd" fill-opacity="1" /><path clip-path="url(#clip250)" d="M730.514 1453.24 Q726.903 1453.24 725.075 1456.8 Q723.269 1460.35 723.269 1467.47 Q723.269 1474.58 725.075 1478.15 Q726.903 1481.69 730.514 1481.69 Q734.149 1481.69 735.954 1478.15 Q737.783 1474.58 737.783 1467.47 Q737.783 1460.35 735.954 1456.8 Q734.149 1453.24 730.514 1453.24 M730.514 1449.53 Q736.324 1449.53 739.38 1454.14 Q742.459 1458.72 742.459 1467.47 Q742.459 1476.2 739.38 1480.81 Q736.324 1485.39 730.514 1485.39 Q724.704 1485.39 721.625 1480.81 Q718.57 1476.2 718.57 1467.47 Q718.57 1458.72 721.625 1454.14 Q724.704 1449.53 730.514 1449.53 Z" fill="#000000" fill-rule="evenodd" fill-opacity="1" /><path clip-path="url(#clip250)" d="M842.823 1466.09 Q846.179 1466.8 848.054 1469.07 Q849.952 1471.34 849.952 1474.67 Q849.952 1479.79 846.434 1482.59 Q842.915 1485.39 836.434 1485.39 Q834.258 1485.39 831.943 1484.95 Q829.652 1484.53 827.198 1483.68 L827.198 1479.16 Q829.142 1480.3 831.457 1480.88 Q833.772 1481.46 836.295 1481.46 Q840.693 1481.46 842.985 1479.72 Q845.3 1477.98 845.3 1474.67 Q845.3 1471.62 843.147 1469.91 Q841.017 1468.17 837.198 1468.17 L833.17 1468.17 L833.17 1464.33 L837.383 1464.33 Q840.832 1464.33 842.661 1462.96 Q844.489 1461.57 844.489 1458.98 Q844.489 1456.32 842.591 1454.91 Q840.716 1453.47 837.198 1453.47 Q835.277 1453.47 833.077 1453.89 Q830.878 1454.3 828.24 1455.18 L828.24 1451.02 Q830.902 1450.28 833.216 1449.91 Q835.554 1449.53 837.614 1449.53 Q842.939 1449.53 846.04 1451.97 Q849.142 1454.37 849.142 1458.49 Q849.142 1461.36 847.499 1463.35 Q845.855 1465.32 842.823 1466.09 Z" fill="#000000" fill-rule="evenodd" fill-opacity="1" /><path clip-path="url(#clip250)" d="M868.818 1453.24 Q865.207 1453.24 863.378 1456.8 Q861.573 1460.35 861.573 1467.47 Q861.573 1474.58 863.378 1478.15 Q865.207 1481.69 868.818 1481.69 Q872.452 1481.69 874.258 1478.15 Q876.086 1474.58 876.086 1467.47 Q876.086 1460.35 874.258 1456.8 Q872.452 1453.24 868.818 1453.24 M868.818 1449.53 Q874.628 1449.53 877.684 1454.14 Q880.762 1458.72 880.762 1467.47 Q880.762 1476.2 877.684 1480.81 Q874.628 1485.39 868.818 1485.39 Q863.008 1485.39 859.929 1480.81 Q856.874 1476.2 856.874 1467.47 Q856.874 1458.72 859.929 1454.14 Q863.008 1449.53 868.818 1449.53 Z" fill="#000000" fill-rule="evenodd" fill-opacity="1" /><path clip-path="url(#clip250)" d="M898.98 1453.24 Q895.369 1453.24 893.54 1456.8 Q891.735 1460.35 891.735 1467.47 Q891.735 1474.58 893.54 1478.15 Q895.369 1481.69 898.98 1481.69 Q902.614 1481.69 904.42 1478.15 Q906.248 1474.58 906.248 1467.47 Q906.248 1460.35 904.42 1456.8 Q902.614 1453.24 898.98 1453.24 M898.98 1449.53 Q904.79 1449.53 907.846 1454.14 Q910.924 1458.72 910.924 1467.47 Q910.924 1476.2 907.846 1480.81 Q904.79 1485.39 898.98 1485.39 Q893.17 1485.39 890.091 1480.81 Q887.035 1476.2 887.035 1467.47 Q887.035 1458.72 890.091 1454.14 Q893.17 1449.53 898.98 1449.53 Z" fill="#000000" fill-rule="evenodd" fill-opacity="1" /><path clip-path="url(#clip250)" d="M1010.69 1454.23 L998.881 1472.68 L1010.69 1472.68 L1010.69 1454.23 M1009.46 1450.16 L1015.34 1450.16 L1015.34 1472.68 L1020.27 1472.68 L1020.27 1476.57 L1015.34 1476.57 L1015.34 1484.72 L1010.69 1484.72 L1010.69 1476.57 L995.085 1476.57 L995.085 1472.06 L1009.46 1450.16 Z" fill="#000000" fill-rule="evenodd" fill-opacity="1" /><path clip-path="url(#clip250)" d="M1038 1453.24 Q1034.39 1453.24 1032.56 1456.8 Q1030.76 1460.35 1030.76 1467.47 Q1030.76 1474.58 1032.56 1478.15 Q1034.39 1481.69 1038 1481.69 Q1041.64 1481.69 1043.44 1478.15 Q1045.27 1474.58 1045.27 1467.47 Q1045.27 1460.35 1043.44 1456.8 Q1041.64 1453.24 1038 1453.24 M1038 1449.53 Q1043.81 1449.53 1046.87 1454.14 Q1049.95 1458.72 1049.95 1467.47 Q1049.95 1476.2 1046.87 1480.81 Q1043.81 1485.39 1038 1485.39 Q1032.19 1485.39 1029.11 1480.81 Q1026.06 1476.2 1026.06 1467.47 Q1026.06 1458.72 1029.11 1454.14 Q1032.19 1449.53 1038 1449.53 Z" fill="#000000" fill-rule="evenodd" fill-opacity="1" /><path clip-path="url(#clip250)" d="M1068.16 1453.24 Q1064.55 1453.24 1062.72 1456.8 Q1060.92 1460.35 1060.92 1467.47 Q1060.92 1474.58 1062.72 1478.15 Q1064.55 1481.69 1068.16 1481.69 Q1071.8 1481.69 1073.6 1478.15 Q1075.43 1474.58 1075.43 1467.47 Q1075.43 1460.35 1073.6 1456.8 Q1071.8 1453.24 1068.16 1453.24 M1068.16 1449.53 Q1073.97 1449.53 1077.03 1454.14 Q1080.11 1458.72 1080.11 1467.47 Q1080.11 1476.2 1077.03 1480.81 Q1073.97 1485.39 1068.16 1485.39 Q1062.35 1485.39 1059.27 1480.81 Q1056.22 1476.2 1056.22 1467.47 Q1056.22 1458.72 1059.27 1454.14 Q1062.35 1449.53 1068.16 1449.53 Z" fill="#000000" fill-rule="evenodd" fill-opacity="1" /><polyline clip-path="url(#clip252)" style="stroke:#000000; stroke-linecap:round; stroke-linejoin:round; stroke-width:2; stroke-opacity:0.1; fill:none" points="
  215.962,1384.15 1127.79,1384.15 
  "/>
<polyline clip-path="url(#clip252)" style="stroke:#000000; stroke-linecap:round; stroke-linejoin:round; stroke-width:2; stroke-opacity:0.1; fill:none" points="
  215.962,1170.73 1127.79,1170.73 
  "/>
<polyline clip-path="url(#clip252)" style="stroke:#000000; stroke-linecap:round; stroke-linejoin:round; stroke-width:2; stroke-opacity:0.1; fill:none" points="
  215.962,957.32 1127.79,957.32 
  "/>
<polyline clip-path="url(#clip252)" style="stroke:#000000; stroke-linecap:round; stroke-linejoin:round; stroke-width:2; stroke-opacity:0.1; fill:none" points="
  215.962,743.905 1127.79,743.905 
  "/>
<polyline clip-path="url(#clip252)" style="stroke:#000000; stroke-linecap:round; stroke-linejoin:round; stroke-width:2; stroke-opacity:0.1; fill:none" points="
  215.962,530.491 1127.79,530.491 
  "/>
<polyline clip-path="url(#clip252)" style="stroke:#000000; stroke-linecap:round; stroke-linejoin:round; stroke-width:2; stroke-opacity:0.1; fill:none" points="
  215.962,317.076 1127.79,317.076 
  "/>
<polyline clip-path="url(#clip252)" style="stroke:#000000; stroke-linecap:round; stroke-linejoin:round; stroke-width:2; stroke-opacity:0.1; fill:none" points="
  215.962,103.662 1127.79,103.662 
  "/>
<polyline clip-path="url(#clip250)" style="stroke:#000000; stroke-linecap:round; stroke-linejoin:round; stroke-width:4; stroke-opacity:1; fill:none" points="
  215.962,1423.09 215.962,47.2441 
  "/>
<polyline clip-path="url(#clip250)" style="stroke:#000000; stroke-linecap:round; stroke-linejoin:round; stroke-width:4; stroke-opacity:1; fill:none" points="
  215.962,1384.15 234.86,1384.15 
  "/>
<polyline clip-path="url(#clip250)" style="stroke:#000000; stroke-linecap:round; stroke-linejoin:round; stroke-width:4; stroke-opacity:1; fill:none" points="
  215.962,1170.73 234.86,1170.73 
  "/>
<polyline clip-path="url(#clip250)" style="stroke:#000000; stroke-linecap:round; stroke-linejoin:round; stroke-width:4; stroke-opacity:1; fill:none" points="
  215.962,957.32 234.86,957.32 
  "/>
<polyline clip-path="url(#clip250)" style="stroke:#000000; stroke-linecap:round; stroke-linejoin:round; stroke-width:4; stroke-opacity:1; fill:none" points="
  215.962,743.905 234.86,743.905 
  "/>
<polyline clip-path="url(#clip250)" style="stroke:#000000; stroke-linecap:round; stroke-linejoin:round; stroke-width:4; stroke-opacity:1; fill:none" points="
  215.962,530.491 234.86,530.491 
  "/>
<polyline clip-path="url(#clip250)" style="stroke:#000000; stroke-linecap:round; stroke-linejoin:round; stroke-width:4; stroke-opacity:1; fill:none" points="
  215.962,317.076 234.86,317.076 
  "/>
<polyline clip-path="url(#clip250)" style="stroke:#000000; stroke-linecap:round; stroke-linejoin:round; stroke-width:4; stroke-opacity:1; fill:none" points="
  215.962,103.662 234.86,103.662 
  "/>
<path clip-path="url(#clip250)" d="M63.9026 1369.95 Q60.2915 1369.95 58.4628 1373.51 Q56.6573 1377.05 56.6573 1384.18 Q56.6573 1391.29 58.4628 1394.85 Q60.2915 1398.4 63.9026 1398.4 Q67.5369 1398.4 69.3424 1394.85 Q71.1711 1391.29 71.1711 1384.18 Q71.1711 1377.05 69.3424 1373.51 Q67.5369 1369.95 63.9026 1369.95 M63.9026 1366.24 Q69.7128 1366.24 72.7683 1370.85 Q75.847 1375.43 75.847 1384.18 Q75.847 1392.91 72.7683 1397.52 Q69.7128 1402.1 63.9026 1402.1 Q58.0925 1402.1 55.0138 1397.52 Q51.9582 1392.91 51.9582 1384.18 Q51.9582 1375.43 55.0138 1370.85 Q58.0925 1366.24 63.9026 1366.24 Z" fill="#000000" fill-rule="evenodd" fill-opacity="1" /><path clip-path="url(#clip250)" d="M84.0645 1395.55 L88.9488 1395.55 L88.9488 1401.43 L84.0645 1401.43 L84.0645 1395.55 Z" fill="#000000" fill-rule="evenodd" fill-opacity="1" /><path clip-path="url(#clip250)" d="M109.134 1369.95 Q105.523 1369.95 103.694 1373.51 Q101.889 1377.05 101.889 1384.18 Q101.889 1391.29 103.694 1394.85 Q105.523 1398.4 109.134 1398.4 Q112.768 1398.4 114.574 1394.85 Q116.402 1391.29 116.402 1384.18 Q116.402 1377.05 114.574 1373.51 Q112.768 1369.95 109.134 1369.95 M109.134 1366.24 Q114.944 1366.24 118 1370.85 Q121.078 1375.43 121.078 1384.18 Q121.078 1392.91 118 1397.52 Q114.944 1402.1 109.134 1402.1 Q103.324 1402.1 100.245 1397.52 Q97.1895 1392.91 97.1895 1384.18 Q97.1895 1375.43 100.245 1370.85 Q103.324 1366.24 109.134 1366.24 Z" fill="#000000" fill-rule="evenodd" fill-opacity="1" /><path clip-path="url(#clip250)" d="M139.296 1369.95 Q135.685 1369.95 133.856 1373.51 Q132.05 1377.05 132.05 1384.18 Q132.05 1391.29 133.856 1394.85 Q135.685 1398.4 139.296 1398.4 Q142.93 1398.4 144.736 1394.85 Q146.564 1391.29 146.564 1384.18 Q146.564 1377.05 144.736 1373.51 Q142.93 1369.95 139.296 1369.95 M139.296 1366.24 Q145.106 1366.24 148.161 1370.85 Q151.24 1375.43 151.24 1384.18 Q151.24 1392.91 148.161 1397.52 Q145.106 1402.1 139.296 1402.1 Q133.486 1402.1 130.407 1397.52 Q127.351 1392.91 127.351 1384.18 Q127.351 1375.43 130.407 1370.85 Q133.486 1366.24 139.296 1366.24 Z" fill="#000000" fill-rule="evenodd" fill-opacity="1" /><path clip-path="url(#clip250)" d="M169.458 1369.95 Q165.847 1369.95 164.018 1373.51 Q162.212 1377.05 162.212 1384.18 Q162.212 1391.29 164.018 1394.85 Q165.847 1398.4 169.458 1398.4 Q173.092 1398.4 174.897 1394.85 Q176.726 1391.29 176.726 1384.18 Q176.726 1377.05 174.897 1373.51 Q173.092 1369.95 169.458 1369.95 M169.458 1366.24 Q175.268 1366.24 178.323 1370.85 Q181.402 1375.43 181.402 1384.18 Q181.402 1392.91 178.323 1397.52 Q175.268 1402.1 169.458 1402.1 Q163.647 1402.1 160.569 1397.52 Q157.513 1392.91 157.513 1384.18 Q157.513 1375.43 160.569 1370.85 Q163.647 1366.24 169.458 1366.24 Z" fill="#000000" fill-rule="evenodd" fill-opacity="1" /><path clip-path="url(#clip250)" d="M65.1295 1156.53 Q61.5184 1156.53 59.6897 1160.1 Q57.8841 1163.64 57.8841 1170.77 Q57.8841 1177.88 59.6897 1181.44 Q61.5184 1184.98 65.1295 1184.98 Q68.7637 1184.98 70.5692 1181.44 Q72.3979 1177.88 72.3979 1170.77 Q72.3979 1163.64 70.5692 1160.1 Q68.7637 1156.53 65.1295 1156.53 M65.1295 1152.83 Q70.9396 1152.83 73.9952 1157.44 Q77.0738 1162.02 77.0738 1170.77 Q77.0738 1179.5 73.9952 1184.1 Q70.9396 1188.69 65.1295 1188.69 Q59.3193 1188.69 56.2406 1184.1 Q53.1851 1179.5 53.1851 1170.77 Q53.1851 1162.02 56.2406 1157.44 Q59.3193 1152.83 65.1295 1152.83 Z" fill="#000000" fill-rule="evenodd" fill-opacity="1" /><path clip-path="url(#clip250)" d="M85.2914 1182.13 L90.1756 1182.13 L90.1756 1188.01 L85.2914 1188.01 L85.2914 1182.13 Z" fill="#000000" fill-rule="evenodd" fill-opacity="1" /><path clip-path="url(#clip250)" d="M110.361 1156.53 Q106.75 1156.53 104.921 1160.1 Q103.115 1163.64 103.115 1170.77 Q103.115 1177.88 104.921 1181.44 Q106.75 1184.98 110.361 1184.98 Q113.995 1184.98 115.8 1181.44 Q117.629 1177.88 117.629 1170.77 Q117.629 1163.64 115.8 1160.1 Q113.995 1156.53 110.361 1156.53 M110.361 1152.83 Q116.171 1152.83 119.226 1157.44 Q122.305 1162.02 122.305 1170.77 Q122.305 1179.5 119.226 1184.1 Q116.171 1188.69 110.361 1188.69 Q104.551 1188.69 101.472 1184.1 Q98.4163 1179.5 98.4163 1170.77 Q98.4163 1162.02 101.472 1157.44 Q104.551 1152.83 110.361 1152.83 Z" fill="#000000" fill-rule="evenodd" fill-opacity="1" /><path clip-path="url(#clip250)" d="M140.523 1156.53 Q136.911 1156.53 135.083 1160.1 Q133.277 1163.64 133.277 1170.77 Q133.277 1177.88 135.083 1181.44 Q136.911 1184.98 140.523 1184.98 Q144.157 1184.98 145.962 1181.44 Q147.791 1177.88 147.791 1170.77 Q147.791 1163.64 145.962 1160.1 Q144.157 1156.53 140.523 1156.53 M140.523 1152.83 Q146.333 1152.83 149.388 1157.44 Q152.467 1162.02 152.467 1170.77 Q152.467 1179.5 149.388 1184.1 Q146.333 1188.69 140.523 1188.69 Q134.712 1188.69 131.634 1184.1 Q128.578 1179.5 128.578 1170.77 Q128.578 1162.02 131.634 1157.44 Q134.712 1152.83 140.523 1152.83 Z" fill="#000000" fill-rule="evenodd" fill-opacity="1" /><path clip-path="url(#clip250)" d="M161.495 1184.08 L169.134 1184.08 L169.134 1157.71 L160.823 1159.38 L160.823 1155.12 L169.087 1153.45 L173.763 1153.45 L173.763 1184.08 L181.402 1184.08 L181.402 1188.01 L161.495 1188.01 L161.495 1184.08 Z" fill="#000000" fill-rule="evenodd" fill-opacity="1" /><path clip-path="url(#clip250)" d="M65.4998 943.119 Q61.8887 943.119 60.06 946.683 Q58.2545 950.225 58.2545 957.355 Q58.2545 964.461 60.06 968.026 Q61.8887 971.568 65.4998 971.568 Q69.1341 971.568 70.9396 968.026 Q72.7683 964.461 72.7683 957.355 Q72.7683 950.225 70.9396 946.683 Q69.1341 943.119 65.4998 943.119 M65.4998 939.415 Q71.31 939.415 74.3655 944.021 Q77.4442 948.605 77.4442 957.355 Q77.4442 966.081 74.3655 970.688 Q71.31 975.271 65.4998 975.271 Q59.6897 975.271 56.611 970.688 Q53.5554 966.081 53.5554 957.355 Q53.5554 948.605 56.611 944.021 Q59.6897 939.415 65.4998 939.415 Z" fill="#000000" fill-rule="evenodd" fill-opacity="1" /><path clip-path="url(#clip250)" d="M85.6618 968.72 L90.546 968.72 L90.546 974.6 L85.6618 974.6 L85.6618 968.72 Z" fill="#000000" fill-rule="evenodd" fill-opacity="1" /><path clip-path="url(#clip250)" d="M110.731 943.119 Q107.12 943.119 105.291 946.683 Q103.486 950.225 103.486 957.355 Q103.486 964.461 105.291 968.026 Q107.12 971.568 110.731 971.568 Q114.365 971.568 116.171 968.026 Q118 964.461 118 957.355 Q118 950.225 116.171 946.683 Q114.365 943.119 110.731 943.119 M110.731 939.415 Q116.541 939.415 119.597 944.021 Q122.675 948.605 122.675 957.355 Q122.675 966.081 119.597 970.688 Q116.541 975.271 110.731 975.271 Q104.921 975.271 101.842 970.688 Q98.7867 966.081 98.7867 957.355 Q98.7867 948.605 101.842 944.021 Q104.921 939.415 110.731 939.415 Z" fill="#000000" fill-rule="evenodd" fill-opacity="1" /><path clip-path="url(#clip250)" d="M140.893 943.119 Q137.282 943.119 135.453 946.683 Q133.648 950.225 133.648 957.355 Q133.648 964.461 135.453 968.026 Q137.282 971.568 140.893 971.568 Q144.527 971.568 146.333 968.026 Q148.161 964.461 148.161 957.355 Q148.161 950.225 146.333 946.683 Q144.527 943.119 140.893 943.119 M140.893 939.415 Q146.703 939.415 149.759 944.021 Q152.837 948.605 152.837 957.355 Q152.837 966.081 149.759 970.688 Q146.703 975.271 140.893 975.271 Q135.083 975.271 132.004 970.688 Q128.949 966.081 128.949 957.355 Q128.949 948.605 132.004 944.021 Q135.083 939.415 140.893 939.415 Z" fill="#000000" fill-rule="evenodd" fill-opacity="1" /><path clip-path="url(#clip250)" d="M165.083 970.665 L181.402 970.665 L181.402 974.6 L159.458 974.6 L159.458 970.665 Q162.12 967.91 166.703 963.281 Q171.309 958.628 172.49 957.285 Q174.735 954.762 175.615 953.026 Q176.518 951.267 176.518 949.577 Q176.518 946.822 174.573 945.086 Q172.652 943.35 169.55 943.35 Q167.351 943.35 164.897 944.114 Q162.467 944.878 159.689 946.429 L159.689 941.707 Q162.513 940.572 164.967 939.994 Q167.421 939.415 169.458 939.415 Q174.828 939.415 178.022 942.1 Q181.217 944.785 181.217 949.276 Q181.217 951.406 180.407 953.327 Q179.62 955.225 177.513 957.818 Q176.934 958.489 173.833 961.706 Q170.731 964.901 165.083 970.665 Z" fill="#000000" fill-rule="evenodd" fill-opacity="1" /><path clip-path="url(#clip250)" d="M64.5508 729.704 Q60.9397 729.704 59.111 733.269 Q57.3054 736.811 57.3054 743.94 Q57.3054 751.047 59.111 754.611 Q60.9397 758.153 64.5508 758.153 Q68.185 758.153 69.9905 754.611 Q71.8192 751.047 71.8192 743.94 Q71.8192 736.811 69.9905 733.269 Q68.185 729.704 64.5508 729.704 M64.5508 726 Q70.3609 726 73.4165 730.607 Q76.4951 735.19 76.4951 743.94 Q76.4951 752.667 73.4165 757.273 Q70.3609 761.857 64.5508 761.857 Q58.7406 761.857 55.6619 757.273 Q52.6064 752.667 52.6064 743.94 Q52.6064 735.19 55.6619 730.607 Q58.7406 726 64.5508 726 Z" fill="#000000" fill-rule="evenodd" fill-opacity="1" /><path clip-path="url(#clip250)" d="M84.7127 755.306 L89.5969 755.306 L89.5969 761.185 L84.7127 761.185 L84.7127 755.306 Z" fill="#000000" fill-rule="evenodd" fill-opacity="1" /><path clip-path="url(#clip250)" d="M109.782 729.704 Q106.171 729.704 104.342 733.269 Q102.537 736.811 102.537 743.94 Q102.537 751.047 104.342 754.611 Q106.171 758.153 109.782 758.153 Q113.416 758.153 115.222 754.611 Q117.05 751.047 117.05 743.94 Q117.05 736.811 115.222 733.269 Q113.416 729.704 109.782 729.704 M109.782 726 Q115.592 726 118.648 730.607 Q121.726 735.19 121.726 743.94 Q121.726 752.667 118.648 757.273 Q115.592 761.857 109.782 761.857 Q103.972 761.857 100.893 757.273 Q97.8376 752.667 97.8376 743.94 Q97.8376 735.19 100.893 730.607 Q103.972 726 109.782 726 Z" fill="#000000" fill-rule="evenodd" fill-opacity="1" /><path clip-path="url(#clip250)" d="M139.944 729.704 Q136.333 729.704 134.504 733.269 Q132.699 736.811 132.699 743.94 Q132.699 751.047 134.504 754.611 Q136.333 758.153 139.944 758.153 Q143.578 758.153 145.384 754.611 Q147.212 751.047 147.212 743.94 Q147.212 736.811 145.384 733.269 Q143.578 729.704 139.944 729.704 M139.944 726 Q145.754 726 148.81 730.607 Q151.888 735.19 151.888 743.94 Q151.888 752.667 148.81 757.273 Q145.754 761.857 139.944 761.857 Q134.134 761.857 131.055 757.273 Q127.999 752.667 127.999 743.94 Q127.999 735.19 131.055 730.607 Q134.134 726 139.944 726 Z" fill="#000000" fill-rule="evenodd" fill-opacity="1" /><path clip-path="url(#clip250)" d="M174.272 742.551 Q177.629 743.269 179.504 745.537 Q181.402 747.806 181.402 751.139 Q181.402 756.255 177.883 759.056 Q174.365 761.857 167.884 761.857 Q165.708 761.857 163.393 761.417 Q161.101 761 158.647 760.144 L158.647 755.63 Q160.592 756.764 162.907 757.343 Q165.222 757.922 167.745 757.922 Q172.143 757.922 174.434 756.185 Q176.749 754.449 176.749 751.139 Q176.749 748.084 174.596 746.371 Q172.467 744.635 168.647 744.635 L164.62 744.635 L164.62 740.792 L168.833 740.792 Q172.282 740.792 174.11 739.426 Q175.939 738.037 175.939 735.445 Q175.939 732.783 174.041 731.371 Q172.166 729.936 168.647 729.936 Q166.726 729.936 164.527 730.352 Q162.328 730.769 159.689 731.649 L159.689 727.482 Q162.351 726.741 164.666 726.371 Q167.004 726 169.064 726 Q174.388 726 177.49 728.431 Q180.592 730.838 180.592 734.959 Q180.592 737.829 178.948 739.82 Q177.305 741.787 174.272 742.551 Z" fill="#000000" fill-rule="evenodd" fill-opacity="1" /><path clip-path="url(#clip250)" d="M63.4165 516.29 Q59.8054 516.29 57.9767 519.854 Q56.1712 523.396 56.1712 530.526 Q56.1712 537.632 57.9767 541.197 Q59.8054 544.739 63.4165 544.739 Q67.0507 544.739 68.8563 541.197 Q70.685 537.632 70.685 530.526 Q70.685 523.396 68.8563 519.854 Q67.0507 516.29 63.4165 516.29 M63.4165 512.586 Q69.2267 512.586 72.2822 517.192 Q75.3609 521.776 75.3609 530.526 Q75.3609 539.252 72.2822 543.859 Q69.2267 548.442 63.4165 548.442 Q57.6064 548.442 54.5277 543.859 Q51.4721 539.252 51.4721 530.526 Q51.4721 521.776 54.5277 517.192 Q57.6064 512.586 63.4165 512.586 Z" fill="#000000" fill-rule="evenodd" fill-opacity="1" /><path clip-path="url(#clip250)" d="M83.5784 541.891 L88.4627 541.891 L88.4627 547.771 L83.5784 547.771 L83.5784 541.891 Z" fill="#000000" fill-rule="evenodd" fill-opacity="1" /><path clip-path="url(#clip250)" d="M108.648 516.29 Q105.037 516.29 103.208 519.854 Q101.402 523.396 101.402 530.526 Q101.402 537.632 103.208 541.197 Q105.037 544.739 108.648 544.739 Q112.282 544.739 114.088 541.197 Q115.916 537.632 115.916 530.526 Q115.916 523.396 114.088 519.854 Q112.282 516.29 108.648 516.29 M108.648 512.586 Q114.458 512.586 117.513 517.192 Q120.592 521.776 120.592 530.526 Q120.592 539.252 117.513 543.859 Q114.458 548.442 108.648 548.442 Q102.838 548.442 99.7589 543.859 Q96.7034 539.252 96.7034 530.526 Q96.7034 521.776 99.7589 517.192 Q102.838 512.586 108.648 512.586 Z" fill="#000000" fill-rule="evenodd" fill-opacity="1" /><path clip-path="url(#clip250)" d="M138.81 516.29 Q135.199 516.29 133.37 519.854 Q131.564 523.396 131.564 530.526 Q131.564 537.632 133.37 541.197 Q135.199 544.739 138.81 544.739 Q142.444 544.739 144.249 541.197 Q146.078 537.632 146.078 530.526 Q146.078 523.396 144.249 519.854 Q142.444 516.29 138.81 516.29 M138.81 512.586 Q144.62 512.586 147.675 517.192 Q150.754 521.776 150.754 530.526 Q150.754 539.252 147.675 543.859 Q144.62 548.442 138.81 548.442 Q132.999 548.442 129.921 543.859 Q126.865 539.252 126.865 530.526 Q126.865 521.776 129.921 517.192 Q132.999 512.586 138.81 512.586 Z" fill="#000000" fill-rule="evenodd" fill-opacity="1" /><path clip-path="url(#clip250)" d="M171.819 517.285 L160.013 535.734 L171.819 535.734 L171.819 517.285 M170.592 513.211 L176.471 513.211 L176.471 535.734 L181.402 535.734 L181.402 539.623 L176.471 539.623 L176.471 547.771 L171.819 547.771 L171.819 539.623 L156.217 539.623 L156.217 535.109 L170.592 513.211 Z" fill="#000000" fill-rule="evenodd" fill-opacity="1" /><path clip-path="url(#clip250)" d="M64.898 302.875 Q61.2869 302.875 59.4582 306.44 Q57.6526 309.982 57.6526 317.111 Q57.6526 324.218 59.4582 327.782 Q61.2869 331.324 64.898 331.324 Q68.5322 331.324 70.3378 327.782 Q72.1665 324.218 72.1665 317.111 Q72.1665 309.982 70.3378 306.44 Q68.5322 302.875 64.898 302.875 M64.898 299.171 Q70.7081 299.171 73.7637 303.778 Q76.8424 308.361 76.8424 317.111 Q76.8424 325.838 73.7637 330.444 Q70.7081 335.028 64.898 335.028 Q59.0878 335.028 56.0091 330.444 Q52.9536 325.838 52.9536 317.111 Q52.9536 308.361 56.0091 303.778 Q59.0878 299.171 64.898 299.171 Z" fill="#000000" fill-rule="evenodd" fill-opacity="1" /><path clip-path="url(#clip250)" d="M85.0599 328.477 L89.9441 328.477 L89.9441 334.356 L85.0599 334.356 L85.0599 328.477 Z" fill="#000000" fill-rule="evenodd" fill-opacity="1" /><path clip-path="url(#clip250)" d="M110.129 302.875 Q106.518 302.875 104.689 306.44 Q102.884 309.982 102.884 317.111 Q102.884 324.218 104.689 327.782 Q106.518 331.324 110.129 331.324 Q113.763 331.324 115.569 327.782 Q117.398 324.218 117.398 317.111 Q117.398 309.982 115.569 306.44 Q113.763 302.875 110.129 302.875 M110.129 299.171 Q115.939 299.171 118.995 303.778 Q122.074 308.361 122.074 317.111 Q122.074 325.838 118.995 330.444 Q115.939 335.028 110.129 335.028 Q104.319 335.028 101.24 330.444 Q98.1848 325.838 98.1848 317.111 Q98.1848 308.361 101.24 303.778 Q104.319 299.171 110.129 299.171 Z" fill="#000000" fill-rule="evenodd" fill-opacity="1" /><path clip-path="url(#clip250)" d="M140.291 302.875 Q136.68 302.875 134.851 306.44 Q133.046 309.982 133.046 317.111 Q133.046 324.218 134.851 327.782 Q136.68 331.324 140.291 331.324 Q143.925 331.324 145.731 327.782 Q147.56 324.218 147.56 317.111 Q147.56 309.982 145.731 306.44 Q143.925 302.875 140.291 302.875 M140.291 299.171 Q146.101 299.171 149.157 303.778 Q152.235 308.361 152.235 317.111 Q152.235 325.838 149.157 330.444 Q146.101 335.028 140.291 335.028 Q134.481 335.028 131.402 330.444 Q128.347 325.838 128.347 317.111 Q128.347 308.361 131.402 303.778 Q134.481 299.171 140.291 299.171 Z" fill="#000000" fill-rule="evenodd" fill-opacity="1" /><path clip-path="url(#clip250)" d="M160.499 299.796 L178.856 299.796 L178.856 303.732 L164.782 303.732 L164.782 312.204 Q165.8 311.857 166.819 311.695 Q167.837 311.509 168.856 311.509 Q174.643 311.509 178.022 314.681 Q181.402 317.852 181.402 323.269 Q181.402 328.847 177.93 331.949 Q174.458 335.028 168.138 335.028 Q165.962 335.028 163.694 334.657 Q161.448 334.287 159.041 333.546 L159.041 328.847 Q161.124 329.981 163.347 330.537 Q165.569 331.093 168.046 331.093 Q172.05 331.093 174.388 328.986 Q176.726 326.88 176.726 323.269 Q176.726 319.657 174.388 317.551 Q172.05 315.445 168.046 315.445 Q166.171 315.445 164.296 315.861 Q162.444 316.278 160.499 317.157 L160.499 299.796 Z" fill="#000000" fill-rule="evenodd" fill-opacity="1" /><path clip-path="url(#clip250)" d="M63.7406 89.4607 Q60.1295 89.4607 58.3008 93.0255 Q56.4952 96.5671 56.4952 103.697 Q56.4952 110.803 58.3008 114.368 Q60.1295 117.91 63.7406 117.91 Q67.3748 117.91 69.1804 114.368 Q71.0091 110.803 71.0091 103.697 Q71.0091 96.5671 69.1804 93.0255 Q67.3748 89.4607 63.7406 89.4607 M63.7406 85.757 Q69.5507 85.757 72.6063 90.3634 Q75.685 94.9468 75.685 103.697 Q75.685 112.424 72.6063 117.03 Q69.5507 121.613 63.7406 121.613 Q57.9304 121.613 54.8517 117.03 Q51.7962 112.424 51.7962 103.697 Q51.7962 94.9468 54.8517 90.3634 Q57.9304 85.757 63.7406 85.757 Z" fill="#000000" fill-rule="evenodd" fill-opacity="1" /><path clip-path="url(#clip250)" d="M83.9025 115.062 L88.7867 115.062 L88.7867 120.942 L83.9025 120.942 L83.9025 115.062 Z" fill="#000000" fill-rule="evenodd" fill-opacity="1" /><path clip-path="url(#clip250)" d="M108.972 89.4607 Q105.361 89.4607 103.532 93.0255 Q101.726 96.5671 101.726 103.697 Q101.726 110.803 103.532 114.368 Q105.361 117.91 108.972 117.91 Q112.606 117.91 114.412 114.368 Q116.24 110.803 116.24 103.697 Q116.24 96.5671 114.412 93.0255 Q112.606 89.4607 108.972 89.4607 M108.972 85.757 Q114.782 85.757 117.838 90.3634 Q120.916 94.9468 120.916 103.697 Q120.916 112.424 117.838 117.03 Q114.782 121.613 108.972 121.613 Q103.162 121.613 100.083 117.03 Q97.0274 112.424 97.0274 103.697 Q97.0274 94.9468 100.083 90.3634 Q103.162 85.757 108.972 85.757 Z" fill="#000000" fill-rule="evenodd" fill-opacity="1" /><path clip-path="url(#clip250)" d="M139.134 89.4607 Q135.523 89.4607 133.694 93.0255 Q131.888 96.5671 131.888 103.697 Q131.888 110.803 133.694 114.368 Q135.523 117.91 139.134 117.91 Q142.768 117.91 144.573 114.368 Q146.402 110.803 146.402 103.697 Q146.402 96.5671 144.573 93.0255 Q142.768 89.4607 139.134 89.4607 M139.134 85.757 Q144.944 85.757 147.999 90.3634 Q151.078 94.9468 151.078 103.697 Q151.078 112.424 147.999 117.03 Q144.944 121.613 139.134 121.613 Q133.324 121.613 130.245 117.03 Q127.189 112.424 127.189 103.697 Q127.189 94.9468 130.245 90.3634 Q133.324 85.757 139.134 85.757 Z" fill="#000000" fill-rule="evenodd" fill-opacity="1" /><path clip-path="url(#clip250)" d="M169.874 101.799 Q166.726 101.799 164.874 103.951 Q163.046 106.104 163.046 109.854 Q163.046 113.581 164.874 115.757 Q166.726 117.91 169.874 117.91 Q173.022 117.91 174.851 115.757 Q176.703 113.581 176.703 109.854 Q176.703 106.104 174.851 103.951 Q173.022 101.799 169.874 101.799 M179.157 87.1459 L179.157 91.4051 Q177.397 90.5718 175.592 90.132 Q173.809 89.6922 172.05 89.6922 Q167.421 89.6922 164.967 92.8171 Q162.536 95.9421 162.189 102.262 Q163.555 100.248 165.615 99.1828 Q167.675 98.0949 170.152 98.0949 Q175.36 98.0949 178.37 101.266 Q181.402 104.414 181.402 109.854 Q181.402 115.178 178.254 118.396 Q175.106 121.613 169.874 121.613 Q163.879 121.613 160.708 117.03 Q157.536 112.424 157.536 103.697 Q157.536 95.5023 161.425 90.6412 Q165.314 85.757 171.865 85.757 Q173.624 85.757 175.407 86.1042 Q177.212 86.4514 179.157 87.1459 Z" fill="#000000" fill-rule="evenodd" fill-opacity="1" /><path clip-path="url(#clip252)" d="
M363.456 957.32 L363.456 1384.15 L531.991 1384.15 L531.991 957.32 L363.456 957.32 L363.456 957.32  Z
  " fill="#009af9" fill-rule="evenodd" fill-opacity="1"/>
<polyline clip-path="url(#clip252)" style="stroke:#000000; stroke-linecap:round; stroke-linejoin:round; stroke-width:4; stroke-opacity:1; fill:none" points="
  363.456,957.32 363.456,1384.15 531.991,1384.15 531.991,957.32 363.456,957.32 
  "/>
<path clip-path="url(#clip252)" d="
M531.991 317.076 L531.991 1384.15 L700.526 1384.15 L700.526 317.076 L531.991 317.076 L531.991 317.076  Z
  " fill="#009af9" fill-rule="evenodd" fill-opacity="1"/>
<polyline clip-path="url(#clip252)" style="stroke:#000000; stroke-linecap:round; stroke-linejoin:round; stroke-width:4; stroke-opacity:1; fill:none" points="
  531.991,317.076 531.991,1384.15 700.526,1384.15 700.526,317.076 531.991,317.076 
  "/>
<path clip-path="url(#clip252)" d="
M700.526 743.905 L700.526 1384.15 L869.061 1384.15 L869.061 743.905 L700.526 743.905 L700.526 743.905  Z
  " fill="#009af9" fill-rule="evenodd" fill-opacity="1"/>
<polyline clip-path="url(#clip252)" style="stroke:#000000; stroke-linecap:round; stroke-linejoin:round; stroke-width:4; stroke-opacity:1; fill:none" points="
  700.526,743.905 700.526,1384.15 869.061,1384.15 869.061,743.905 700.526,743.905 
  "/>
<circle clip-path="url(#clip252)" style="fill:#009af9; stroke:none; fill-opacity:0" cx="447.724" cy="957.32" r="2"/>
<circle clip-path="url(#clip252)" style="fill:#009af9; stroke:none; fill-opacity:0" cx="616.259" cy="317.076" r="2"/>
<circle clip-path="url(#clip252)" style="fill:#009af9; stroke:none; fill-opacity:0" cx="784.794" cy="743.905" r="2"/>
<polyline clip-path="url(#clip252)" style="stroke:#e26f46; stroke-linecap:round; stroke-linejoin:round; stroke-width:12; stroke-opacity:1; fill:none" points="
  241.768,1383.97 246.091,1383.94 250.414,1383.9 254.736,1383.84 259.059,1383.75 263.382,1383.65 267.704,1383.51 272.027,1383.32 276.35,1383.1 280.673,1382.81 
  284.995,1382.45 289.318,1382 293.641,1381.44 297.963,1380.76 302.286,1379.92 306.609,1378.9 310.931,1377.66 315.254,1376.18 319.577,1374.39 323.899,1372.26 
  328.222,1369.74 332.545,1366.76 336.867,1363.26 341.19,1359.17 345.513,1354.41 349.835,1348.91 354.158,1342.58 358.481,1335.32 362.803,1327.06 367.126,1317.7 
  371.449,1307.13 375.771,1295.27 380.094,1282.03 384.417,1267.32 388.74,1251.05 393.062,1233.15 397.385,1213.56 401.708,1192.21 406.03,1169.07 410.353,1144.11 
  414.676,1117.32 418.998,1088.7 423.321,1058.27 427.644,1026.08 431.966,992.191 436.289,956.685 440.612,919.668 444.934,881.262 449.257,841.611 453.58,800.877 
  457.902,759.242 462.225,716.903 466.548,674.07 470.87,630.969 475.193,587.838 479.516,544.922 483.838,502.476 488.161,460.758 492.484,420.03 496.807,380.555 
  501.129,342.594 505.452,306.403 509.775,272.231 514.097,240.319 518.42,210.894 522.743,184.168 527.065,160.339 531.388,139.581 535.711,122.046 540.033,107.863 
  544.356,97.1304 548.679,89.9193 553.001,86.2683 557.324,86.1831 561.647,89.6351 565.969,96.5613 570.292,106.863 574.615,120.409 578.937,137.031 583.26,156.532 
  587.583,178.684 591.905,203.232 596.228,229.897 600.551,258.381 604.874,288.369 609.196,319.537 613.519,351.554 617.842,384.087 622.164,416.81 626.487,449.403 
  630.81,481.564 635.132,513.008 639.455,543.474 643.778,572.727 648.1,600.565 652.423,626.818 656.746,651.351 661.068,674.066 665.391,694.901 669.714,713.831 
  674.036,730.868 678.359,746.055 682.682,759.468 687.004,771.21 691.327,781.408 695.65,790.209 699.973,797.777 704.295,804.285 708.618,809.912 712.941,814.842 
  717.263,819.253 721.586,823.315 725.909,827.191 730.231,831.026 734.554,834.952 738.877,839.078 743.199,843.497 747.522,848.278 751.845,853.473 756.167,859.113 
  760.49,865.208 764.813,871.755 769.135,878.736 773.458,886.122 777.781,893.873 782.103,901.946 786.426,910.296 790.749,918.875 795.071,927.64 799.394,936.552 
  803.717,945.579 808.04,954.698 812.362,963.891 816.685,973.153 821.008,982.485 825.33,991.897 829.653,1001.41 833.976,1011.03 838.298,1020.8 842.621,1030.75 
  846.944,1040.89 851.266,1051.25 855.589,1061.86 859.912,1072.73 864.234,1083.86 868.557,1095.26 872.88,1106.91 877.202,1118.81 881.525,1130.92 885.848,1143.21 
  890.17,1155.62 894.493,1168.12 898.816,1180.65 903.138,1193.14 907.461,1205.53 911.784,1217.77 916.107,1229.77 920.429,1241.49 924.752,1252.86 929.075,1263.84 
  933.397,1274.37 937.72,1284.41 942.043,1293.93 946.365,1302.91 950.688,1311.33 955.011,1319.17 959.333,1326.43 963.656,1333.11 967.979,1339.24 972.301,1344.81 
  976.624,1349.85 980.947,1354.39 985.269,1358.45 989.592,1362.06 993.915,1365.26 998.237,1368.07 1002.56,1370.52 1006.88,1372.66 1011.21,1374.51 1015.53,1376.1 
  1019.85,1377.46 1024.17,1378.62 1028.5,1379.6 1032.82,1380.42 1037.14,1381.11 1041.46,1381.69 1045.79,1382.16 1050.11,1382.55 1054.43,1382.87 1058.75,1383.13 
  1063.08,1383.34 1067.4,1383.51 1071.72,1383.64 1076.05,1383.75 1080.37,1383.83 1084.69,1383.89 1089.01,1383.93 1093.34,1383.96 1097.66,1383.98 1101.98,1383.98 
  
  "/>
<path clip-path="url(#clip250)" d="
M1344.93 1423.09 L2256.76 1423.09 L2256.76 47.2441 L1344.93 47.2441  Z
  " fill="#ffffff" fill-rule="evenodd" fill-opacity="1"/>
<defs>
  <clipPath id="clip253">
    <rect x="1344" y="47" width="913" height="1377"/>
  </clipPath>
</defs>
<polyline clip-path="url(#clip253)" style="stroke:#000000; stroke-linecap:round; stroke-linejoin:round; stroke-width:2; stroke-opacity:0.1; fill:none" points="
  1445.64,1423.09 1445.64,47.2441 
  "/>
<polyline clip-path="url(#clip253)" style="stroke:#000000; stroke-linecap:round; stroke-linejoin:round; stroke-width:2; stroke-opacity:0.1; fill:none" points="
  1570.48,1423.09 1570.48,47.2441 
  "/>
<polyline clip-path="url(#clip253)" style="stroke:#000000; stroke-linecap:round; stroke-linejoin:round; stroke-width:2; stroke-opacity:0.1; fill:none" points="
  1695.32,1423.09 1695.32,47.2441 
  "/>
<polyline clip-path="url(#clip253)" style="stroke:#000000; stroke-linecap:round; stroke-linejoin:round; stroke-width:2; stroke-opacity:0.1; fill:none" points="
  1820.16,1423.09 1820.16,47.2441 
  "/>
<polyline clip-path="url(#clip253)" style="stroke:#000000; stroke-linecap:round; stroke-linejoin:round; stroke-width:2; stroke-opacity:0.1; fill:none" points="
  1945,1423.09 1945,47.2441 
  "/>
<polyline clip-path="url(#clip253)" style="stroke:#000000; stroke-linecap:round; stroke-linejoin:round; stroke-width:2; stroke-opacity:0.1; fill:none" points="
  2069.84,1423.09 2069.84,47.2441 
  "/>
<polyline clip-path="url(#clip253)" style="stroke:#000000; stroke-linecap:round; stroke-linejoin:round; stroke-width:2; stroke-opacity:0.1; fill:none" points="
  2194.68,1423.09 2194.68,47.2441 
  "/>
<polyline clip-path="url(#clip250)" style="stroke:#000000; stroke-linecap:round; stroke-linejoin:round; stroke-width:4; stroke-opacity:1; fill:none" points="
  1344.93,1423.09 2256.76,1423.09 
  "/>
<polyline clip-path="url(#clip250)" style="stroke:#000000; stroke-linecap:round; stroke-linejoin:round; stroke-width:4; stroke-opacity:1; fill:none" points="
  1445.64,1423.09 1445.64,1404.19 
  "/>
<polyline clip-path="url(#clip250)" style="stroke:#000000; stroke-linecap:round; stroke-linejoin:round; stroke-width:4; stroke-opacity:1; fill:none" points="
  1570.48,1423.09 1570.48,1404.19 
  "/>
<polyline clip-path="url(#clip250)" style="stroke:#000000; stroke-linecap:round; stroke-linejoin:round; stroke-width:4; stroke-opacity:1; fill:none" points="
  1695.32,1423.09 1695.32,1404.19 
  "/>
<polyline clip-path="url(#clip250)" style="stroke:#000000; stroke-linecap:round; stroke-linejoin:round; stroke-width:4; stroke-opacity:1; fill:none" points="
  1820.16,1423.09 1820.16,1404.19 
  "/>
<polyline clip-path="url(#clip250)" style="stroke:#000000; stroke-linecap:round; stroke-linejoin:round; stroke-width:4; stroke-opacity:1; fill:none" points="
  1945,1423.09 1945,1404.19 
  "/>
<polyline clip-path="url(#clip250)" style="stroke:#000000; stroke-linecap:round; stroke-linejoin:round; stroke-width:4; stroke-opacity:1; fill:none" points="
  2069.84,1423.09 2069.84,1404.19 
  "/>
<polyline clip-path="url(#clip250)" style="stroke:#000000; stroke-linecap:round; stroke-linejoin:round; stroke-width:4; stroke-opacity:1; fill:none" points="
  2194.68,1423.09 2194.68,1404.19 
  "/>
<path clip-path="url(#clip250)" d="M1408.44 1453.24 Q1404.83 1453.24 1403 1456.8 Q1401.2 1460.35 1401.2 1467.47 Q1401.2 1474.58 1403 1478.15 Q1404.83 1481.69 1408.44 1481.69 Q1412.08 1481.69 1413.88 1478.15 Q1415.71 1474.58 1415.71 1467.47 Q1415.71 1460.35 1413.88 1456.8 Q1412.08 1453.24 1408.44 1453.24 M1408.44 1449.53 Q1414.25 1449.53 1417.31 1454.14 Q1420.39 1458.72 1420.39 1467.47 Q1420.39 1476.2 1417.31 1480.81 Q1414.25 1485.39 1408.44 1485.39 Q1402.63 1485.39 1399.55 1480.81 Q1396.5 1476.2 1396.5 1467.47 Q1396.5 1458.72 1399.55 1454.14 Q1402.63 1449.53 1408.44 1449.53 Z" fill="#000000" fill-rule="evenodd" fill-opacity="1" /><path clip-path="url(#clip250)" d="M1428.6 1478.84 L1433.49 1478.84 L1433.49 1484.72 L1428.6 1484.72 L1428.6 1478.84 Z" fill="#000000" fill-rule="evenodd" fill-opacity="1" /><path clip-path="url(#clip250)" d="M1442.49 1450.16 L1464.71 1450.16 L1464.71 1452.15 L1452.17 1484.72 L1447.28 1484.72 L1459.09 1454.1 L1442.49 1454.1 L1442.49 1450.16 Z" fill="#000000" fill-rule="evenodd" fill-opacity="1" /><path clip-path="url(#clip250)" d="M1473.88 1450.16 L1492.24 1450.16 L1492.24 1454.1 L1478.16 1454.1 L1478.16 1462.57 Q1479.18 1462.22 1480.2 1462.06 Q1481.22 1461.87 1482.24 1461.87 Q1488.02 1461.87 1491.4 1465.04 Q1494.78 1468.22 1494.78 1473.63 Q1494.78 1479.21 1491.31 1482.31 Q1487.84 1485.39 1481.52 1485.39 Q1479.34 1485.39 1477.08 1485.02 Q1474.83 1484.65 1472.42 1483.91 L1472.42 1479.21 Q1474.51 1480.34 1476.73 1480.9 Q1478.95 1481.46 1481.43 1481.46 Q1485.43 1481.46 1487.77 1479.35 Q1490.11 1477.24 1490.11 1473.63 Q1490.11 1470.02 1487.77 1467.91 Q1485.43 1465.81 1481.43 1465.81 Q1479.55 1465.81 1477.68 1466.22 Q1475.83 1466.64 1473.88 1467.52 L1473.88 1450.16 Z" fill="#000000" fill-rule="evenodd" fill-opacity="1" /><path clip-path="url(#clip250)" d="M1522.55 1480.78 L1530.19 1480.78 L1530.19 1454.42 L1521.88 1456.09 L1521.88 1451.83 L1530.14 1450.16 L1534.82 1450.16 L1534.82 1480.78 L1542.46 1480.78 L1542.46 1484.72 L1522.55 1484.72 L1522.55 1480.78 Z" fill="#000000" fill-rule="evenodd" fill-opacity="1" /><path clip-path="url(#clip250)" d="M1551.9 1478.84 L1556.79 1478.84 L1556.79 1484.72 L1551.9 1484.72 L1551.9 1478.84 Z" fill="#000000" fill-rule="evenodd" fill-opacity="1" /><path clip-path="url(#clip250)" d="M1576.97 1453.24 Q1573.36 1453.24 1571.53 1456.8 Q1569.73 1460.35 1569.73 1467.47 Q1569.73 1474.58 1571.53 1478.15 Q1573.36 1481.69 1576.97 1481.69 Q1580.61 1481.69 1582.41 1478.15 Q1584.24 1474.58 1584.24 1467.47 Q1584.24 1460.35 1582.41 1456.8 Q1580.61 1453.24 1576.97 1453.24 M1576.97 1449.53 Q1582.78 1449.53 1585.84 1454.14 Q1588.92 1458.72 1588.92 1467.47 Q1588.92 1476.2 1585.84 1480.81 Q1582.78 1485.39 1576.97 1485.39 Q1571.16 1485.39 1568.08 1480.81 Q1565.03 1476.2 1565.03 1467.47 Q1565.03 1458.72 1568.08 1454.14 Q1571.16 1449.53 1576.97 1449.53 Z" fill="#000000" fill-rule="evenodd" fill-opacity="1" /><path clip-path="url(#clip250)" d="M1607.13 1453.24 Q1603.52 1453.24 1601.69 1456.8 Q1599.89 1460.35 1599.89 1467.47 Q1599.89 1474.58 1601.69 1478.15 Q1603.52 1481.69 1607.13 1481.69 Q1610.77 1481.69 1612.57 1478.15 Q1614.4 1474.58 1614.4 1467.47 Q1614.4 1460.35 1612.57 1456.8 Q1610.77 1453.24 1607.13 1453.24 M1607.13 1449.53 Q1612.94 1449.53 1616 1454.14 Q1619.08 1458.72 1619.08 1467.47 Q1619.08 1476.2 1616 1480.81 Q1612.94 1485.39 1607.13 1485.39 Q1601.32 1485.39 1598.25 1480.81 Q1595.19 1476.2 1595.19 1467.47 Q1595.19 1458.72 1598.25 1454.14 Q1601.32 1449.53 1607.13 1449.53 Z" fill="#000000" fill-rule="evenodd" fill-opacity="1" /><path clip-path="url(#clip250)" d="M1647.89 1480.78 L1655.53 1480.78 L1655.53 1454.42 L1647.22 1456.09 L1647.22 1451.83 L1655.48 1450.16 L1660.16 1450.16 L1660.16 1480.78 L1667.8 1480.78 L1667.8 1484.72 L1647.89 1484.72 L1647.89 1480.78 Z" fill="#000000" fill-rule="evenodd" fill-opacity="1" /><path clip-path="url(#clip250)" d="M1677.24 1478.84 L1682.13 1478.84 L1682.13 1484.72 L1677.24 1484.72 L1677.24 1478.84 Z" fill="#000000" fill-rule="evenodd" fill-opacity="1" /><path clip-path="url(#clip250)" d="M1696.34 1480.78 L1712.66 1480.78 L1712.66 1484.72 L1690.71 1484.72 L1690.71 1480.78 Q1693.38 1478.03 1697.96 1473.4 Q1702.57 1468.75 1703.75 1467.41 Q1705.99 1464.88 1706.87 1463.15 Q1707.77 1461.39 1707.77 1459.7 Q1707.77 1456.94 1705.83 1455.21 Q1703.91 1453.47 1700.81 1453.47 Q1698.61 1453.47 1696.15 1454.23 Q1693.72 1455 1690.94 1456.55 L1690.94 1451.83 Q1693.77 1450.69 1696.22 1450.11 Q1698.68 1449.53 1700.71 1449.53 Q1706.08 1449.53 1709.28 1452.22 Q1712.47 1454.91 1712.47 1459.4 Q1712.47 1461.53 1711.66 1463.45 Q1710.88 1465.34 1708.77 1467.94 Q1708.19 1468.61 1705.09 1471.83 Q1701.99 1475.02 1696.34 1480.78 Z" fill="#000000" fill-rule="evenodd" fill-opacity="1" /><path clip-path="url(#clip250)" d="M1722.52 1450.16 L1740.88 1450.16 L1740.88 1454.1 L1726.8 1454.1 L1726.8 1462.57 Q1727.82 1462.22 1728.84 1462.06 Q1729.86 1461.87 1730.88 1461.87 Q1736.66 1461.87 1740.04 1465.04 Q1743.42 1468.22 1743.42 1473.63 Q1743.42 1479.21 1739.95 1482.31 Q1736.48 1485.39 1730.16 1485.39 Q1727.98 1485.39 1725.71 1485.02 Q1723.47 1484.65 1721.06 1483.91 L1721.06 1479.21 Q1723.14 1480.34 1725.37 1480.9 Q1727.59 1481.46 1730.06 1481.46 Q1734.07 1481.46 1736.41 1479.35 Q1738.75 1477.24 1738.75 1473.63 Q1738.75 1470.02 1736.41 1467.91 Q1734.07 1465.81 1730.06 1465.81 Q1728.19 1465.81 1726.31 1466.22 Q1724.46 1466.64 1722.52 1467.52 L1722.52 1450.16 Z" fill="#000000" fill-rule="evenodd" fill-opacity="1" /><path clip-path="url(#clip250)" d="M1772.23 1480.78 L1779.87 1480.78 L1779.87 1454.42 L1771.56 1456.09 L1771.56 1451.83 L1779.82 1450.16 L1784.5 1450.16 L1784.5 1480.78 L1792.14 1480.78 L1792.14 1484.72 L1772.23 1484.72 L1772.23 1480.78 Z" fill="#000000" fill-rule="evenodd" fill-opacity="1" /><path clip-path="url(#clip250)" d="M1801.58 1478.84 L1806.47 1478.84 L1806.47 1484.72 L1801.58 1484.72 L1801.58 1478.84 Z" fill="#000000" fill-rule="evenodd" fill-opacity="1" /><path clip-path="url(#clip250)" d="M1816.7 1450.16 L1835.06 1450.16 L1835.06 1454.1 L1820.98 1454.1 L1820.98 1462.57 Q1822 1462.22 1823.02 1462.06 Q1824.04 1461.87 1825.06 1461.87 Q1830.84 1461.87 1834.22 1465.04 Q1837.6 1468.22 1837.6 1473.63 Q1837.6 1479.21 1834.13 1482.31 Q1830.66 1485.39 1824.34 1485.39 Q1822.16 1485.39 1819.89 1485.02 Q1817.65 1484.65 1815.24 1483.91 L1815.24 1479.21 Q1817.32 1480.34 1819.55 1480.9 Q1821.77 1481.46 1824.25 1481.46 Q1828.25 1481.46 1830.59 1479.35 Q1832.93 1477.24 1832.93 1473.63 Q1832.93 1470.02 1830.59 1467.91 Q1828.25 1465.81 1824.25 1465.81 Q1822.37 1465.81 1820.5 1466.22 Q1818.64 1466.64 1816.7 1467.52 L1816.7 1450.16 Z" fill="#000000" fill-rule="evenodd" fill-opacity="1" /><path clip-path="url(#clip250)" d="M1856.81 1453.24 Q1853.2 1453.24 1851.37 1456.8 Q1849.57 1460.35 1849.57 1467.47 Q1849.57 1474.58 1851.37 1478.15 Q1853.2 1481.69 1856.81 1481.69 Q1860.45 1481.69 1862.25 1478.15 Q1864.08 1474.58 1864.08 1467.47 Q1864.08 1460.35 1862.25 1456.8 Q1860.45 1453.24 1856.81 1453.24 M1856.81 1449.53 Q1862.62 1449.53 1865.68 1454.14 Q1868.76 1458.72 1868.76 1467.47 Q1868.76 1476.2 1865.68 1480.81 Q1862.62 1485.39 1856.81 1485.39 Q1851 1485.39 1847.93 1480.81 Q1844.87 1476.2 1844.87 1467.47 Q1844.87 1458.72 1847.93 1454.14 Q1851 1449.53 1856.81 1449.53 Z" fill="#000000" fill-rule="evenodd" fill-opacity="1" /><path clip-path="url(#clip250)" d="M1897.57 1480.78 L1905.21 1480.78 L1905.21 1454.42 L1896.9 1456.09 L1896.9 1451.83 L1905.16 1450.16 L1909.84 1450.16 L1909.84 1480.78 L1917.48 1480.78 L1917.48 1484.72 L1897.57 1484.72 L1897.57 1480.78 Z" fill="#000000" fill-rule="evenodd" fill-opacity="1" /><path clip-path="url(#clip250)" d="M1926.92 1478.84 L1931.81 1478.84 L1931.81 1484.72 L1926.92 1484.72 L1926.92 1478.84 Z" fill="#000000" fill-rule="evenodd" fill-opacity="1" /><path clip-path="url(#clip250)" d="M1940.81 1450.16 L1963.03 1450.16 L1963.03 1452.15 L1950.49 1484.72 L1945.6 1484.72 L1957.41 1454.1 L1940.81 1454.1 L1940.81 1450.16 Z" fill="#000000" fill-rule="evenodd" fill-opacity="1" /><path clip-path="url(#clip250)" d="M1972.2 1450.16 L1990.55 1450.16 L1990.55 1454.1 L1976.48 1454.1 L1976.48 1462.57 Q1977.5 1462.22 1978.52 1462.06 Q1979.54 1461.87 1980.55 1461.87 Q1986.34 1461.87 1989.72 1465.04 Q1993.1 1468.22 1993.1 1473.63 Q1993.1 1479.21 1989.63 1482.31 Q1986.16 1485.39 1979.84 1485.39 Q1977.66 1485.39 1975.39 1485.02 Q1973.15 1484.65 1970.74 1483.91 L1970.74 1479.21 Q1972.82 1480.34 1975.05 1480.9 Q1977.27 1481.46 1979.74 1481.46 Q1983.75 1481.46 1986.09 1479.35 Q1988.43 1477.24 1988.43 1473.63 Q1988.43 1470.02 1986.09 1467.91 Q1983.75 1465.81 1979.74 1465.81 Q1977.87 1465.81 1975.99 1466.22 Q1974.14 1466.64 1972.2 1467.52 L1972.2 1450.16 Z" fill="#000000" fill-rule="evenodd" fill-opacity="1" /><path clip-path="url(#clip250)" d="M2026 1480.78 L2042.32 1480.78 L2042.32 1484.72 L2020.37 1484.72 L2020.37 1480.78 Q2023.03 1478.03 2027.62 1473.4 Q2032.22 1468.75 2033.4 1467.41 Q2035.65 1464.88 2036.53 1463.15 Q2037.43 1461.39 2037.43 1459.7 Q2037.43 1456.94 2035.49 1455.21 Q2033.57 1453.47 2030.46 1453.47 Q2028.27 1453.47 2025.81 1454.23 Q2023.38 1455 2020.6 1456.55 L2020.6 1451.83 Q2023.43 1450.69 2025.88 1450.11 Q2028.33 1449.53 2030.37 1449.53 Q2035.74 1449.53 2038.94 1452.22 Q2042.13 1454.91 2042.13 1459.4 Q2042.13 1461.53 2041.32 1463.45 Q2040.53 1465.34 2038.43 1467.94 Q2037.85 1468.61 2034.75 1471.83 Q2031.65 1475.02 2026 1480.78 Z" fill="#000000" fill-rule="evenodd" fill-opacity="1" /><path clip-path="url(#clip250)" d="M2052.13 1478.84 L2057.02 1478.84 L2057.02 1484.72 L2052.13 1484.72 L2052.13 1478.84 Z" fill="#000000" fill-rule="evenodd" fill-opacity="1" /><path clip-path="url(#clip250)" d="M2077.2 1453.24 Q2073.59 1453.24 2071.76 1456.8 Q2069.96 1460.35 2069.96 1467.47 Q2069.96 1474.58 2071.76 1478.15 Q2073.59 1481.69 2077.2 1481.69 Q2080.83 1481.69 2082.64 1478.15 Q2084.47 1474.58 2084.47 1467.47 Q2084.47 1460.35 2082.64 1456.8 Q2080.83 1453.24 2077.2 1453.24 M2077.2 1449.53 Q2083.01 1449.53 2086.07 1454.14 Q2089.14 1458.72 2089.14 1467.47 Q2089.14 1476.2 2086.07 1480.81 Q2083.01 1485.39 2077.2 1485.39 Q2071.39 1485.39 2068.31 1480.81 Q2065.26 1476.2 2065.26 1467.47 Q2065.26 1458.72 2068.31 1454.14 Q2071.39 1449.53 2077.2 1449.53 Z" fill="#000000" fill-rule="evenodd" fill-opacity="1" /><path clip-path="url(#clip250)" d="M2107.36 1453.24 Q2103.75 1453.24 2101.92 1456.8 Q2100.12 1460.35 2100.12 1467.47 Q2100.12 1474.58 2101.92 1478.15 Q2103.75 1481.69 2107.36 1481.69 Q2111 1481.69 2112.8 1478.15 Q2114.63 1474.58 2114.63 1467.47 Q2114.63 1460.35 2112.8 1456.8 Q2111 1453.24 2107.36 1453.24 M2107.36 1449.53 Q2113.17 1449.53 2116.23 1454.14 Q2119.31 1458.72 2119.31 1467.47 Q2119.31 1476.2 2116.23 1480.81 Q2113.17 1485.39 2107.36 1485.39 Q2101.55 1485.39 2098.47 1480.81 Q2095.42 1476.2 2095.42 1467.47 Q2095.42 1458.72 2098.47 1454.14 Q2101.55 1449.53 2107.36 1449.53 Z" fill="#000000" fill-rule="evenodd" fill-opacity="1" /><path clip-path="url(#clip250)" d="M2151.33 1480.78 L2167.65 1480.78 L2167.65 1484.72 L2145.71 1484.72 L2145.71 1480.78 Q2148.37 1478.03 2152.95 1473.4 Q2157.56 1468.75 2158.74 1467.41 Q2160.99 1464.88 2161.87 1463.15 Q2162.77 1461.39 2162.77 1459.7 Q2162.77 1456.94 2160.83 1455.21 Q2158.9 1453.47 2155.8 1453.47 Q2153.6 1453.47 2151.15 1454.23 Q2148.72 1455 2145.94 1456.55 L2145.94 1451.83 Q2148.77 1450.69 2151.22 1450.11 Q2153.67 1449.53 2155.71 1449.53 Q2161.08 1449.53 2164.27 1452.22 Q2167.47 1454.91 2167.47 1459.4 Q2167.47 1461.53 2166.66 1463.45 Q2165.87 1465.34 2163.76 1467.94 Q2163.19 1468.61 2160.08 1471.83 Q2156.98 1475.02 2151.33 1480.78 Z" fill="#000000" fill-rule="evenodd" fill-opacity="1" /><path clip-path="url(#clip250)" d="M2177.47 1478.84 L2182.35 1478.84 L2182.35 1484.72 L2177.47 1484.72 L2177.47 1478.84 Z" fill="#000000" fill-rule="evenodd" fill-opacity="1" /><path clip-path="url(#clip250)" d="M2196.57 1480.78 L2212.89 1480.78 L2212.89 1484.72 L2190.94 1484.72 L2190.94 1480.78 Q2193.6 1478.03 2198.19 1473.4 Q2202.79 1468.75 2203.97 1467.41 Q2206.22 1464.88 2207.1 1463.15 Q2208 1461.39 2208 1459.7 Q2208 1456.94 2206.06 1455.21 Q2204.14 1453.47 2201.03 1453.47 Q2198.83 1453.47 2196.38 1454.23 Q2193.95 1455 2191.17 1456.55 L2191.17 1451.83 Q2194 1450.69 2196.45 1450.11 Q2198.9 1449.53 2200.94 1449.53 Q2206.31 1449.53 2209.51 1452.22 Q2212.7 1454.91 2212.7 1459.4 Q2212.7 1461.53 2211.89 1463.45 Q2211.1 1465.34 2209 1467.94 Q2208.42 1468.61 2205.32 1471.83 Q2202.21 1475.02 2196.57 1480.78 Z" fill="#000000" fill-rule="evenodd" fill-opacity="1" /><path clip-path="url(#clip250)" d="M2222.75 1450.16 L2241.1 1450.16 L2241.1 1454.1 L2227.03 1454.1 L2227.03 1462.57 Q2228.05 1462.22 2229.07 1462.06 Q2230.08 1461.87 2231.1 1461.87 Q2236.89 1461.87 2240.27 1465.04 Q2243.65 1468.22 2243.65 1473.63 Q2243.65 1479.21 2240.18 1482.31 Q2236.7 1485.39 2230.38 1485.39 Q2228.21 1485.39 2225.94 1485.02 Q2223.7 1484.65 2221.29 1483.91 L2221.29 1479.21 Q2223.37 1480.34 2225.59 1480.9 Q2227.82 1481.46 2230.29 1481.46 Q2234.3 1481.46 2236.63 1479.35 Q2238.97 1477.24 2238.97 1473.63 Q2238.97 1470.02 2236.63 1467.91 Q2234.3 1465.81 2230.29 1465.81 Q2228.42 1465.81 2226.54 1466.22 Q2224.69 1466.64 2222.75 1467.52 L2222.75 1450.16 Z" fill="#000000" fill-rule="evenodd" fill-opacity="1" /><polyline clip-path="url(#clip253)" style="stroke:#000000; stroke-linecap:round; stroke-linejoin:round; stroke-width:2; stroke-opacity:0.1; fill:none" points="
  1344.93,1229.35 2256.76,1229.35 
  "/>
<polyline clip-path="url(#clip253)" style="stroke:#000000; stroke-linecap:round; stroke-linejoin:round; stroke-width:2; stroke-opacity:0.1; fill:none" points="
  1344.93,931.647 2256.76,931.647 
  "/>
<polyline clip-path="url(#clip253)" style="stroke:#000000; stroke-linecap:round; stroke-linejoin:round; stroke-width:2; stroke-opacity:0.1; fill:none" points="
  1344.93,633.948 2256.76,633.948 
  "/>
<polyline clip-path="url(#clip253)" style="stroke:#000000; stroke-linecap:round; stroke-linejoin:round; stroke-width:2; stroke-opacity:0.1; fill:none" points="
  1344.93,336.25 2256.76,336.25 
  "/>
<polyline clip-path="url(#clip250)" style="stroke:#000000; stroke-linecap:round; stroke-linejoin:round; stroke-width:4; stroke-opacity:1; fill:none" points="
  1344.93,1423.09 1344.93,47.2441 
  "/>
<polyline clip-path="url(#clip250)" style="stroke:#000000; stroke-linecap:round; stroke-linejoin:round; stroke-width:4; stroke-opacity:1; fill:none" points="
  1344.93,1229.35 1363.83,1229.35 
  "/>
<polyline clip-path="url(#clip250)" style="stroke:#000000; stroke-linecap:round; stroke-linejoin:round; stroke-width:4; stroke-opacity:1; fill:none" points="
  1344.93,931.647 1363.83,931.647 
  "/>
<polyline clip-path="url(#clip250)" style="stroke:#000000; stroke-linecap:round; stroke-linejoin:round; stroke-width:4; stroke-opacity:1; fill:none" points="
  1344.93,633.948 1363.83,633.948 
  "/>
<polyline clip-path="url(#clip250)" style="stroke:#000000; stroke-linecap:round; stroke-linejoin:round; stroke-width:4; stroke-opacity:1; fill:none" points="
  1344.93,336.25 1363.83,336.25 
  "/>
<path clip-path="url(#clip250)" d="M1228.91 1242.69 L1236.55 1242.69 L1236.55 1216.32 L1228.24 1217.99 L1228.24 1213.73 L1236.5 1212.07 L1241.18 1212.07 L1241.18 1242.69 L1248.82 1242.69 L1248.82 1246.63 L1228.91 1246.63 L1228.91 1242.69 Z" fill="#000000" fill-rule="evenodd" fill-opacity="1" /><path clip-path="url(#clip250)" d="M1268.26 1215.14 Q1264.65 1215.14 1262.82 1218.71 Q1261.02 1222.25 1261.02 1229.38 Q1261.02 1236.49 1262.82 1240.05 Q1264.65 1243.59 1268.26 1243.59 Q1271.9 1243.59 1273.7 1240.05 Q1275.53 1236.49 1275.53 1229.38 Q1275.53 1222.25 1273.7 1218.71 Q1271.9 1215.14 1268.26 1215.14 M1268.26 1211.44 Q1274.07 1211.44 1277.13 1216.05 Q1280.21 1220.63 1280.21 1229.38 Q1280.21 1238.11 1277.13 1242.71 Q1274.07 1247.3 1268.26 1247.3 Q1262.45 1247.3 1259.37 1242.71 Q1256.32 1238.11 1256.32 1229.38 Q1256.32 1220.63 1259.37 1216.05 Q1262.45 1211.44 1268.26 1211.44 Z" fill="#000000" fill-rule="evenodd" fill-opacity="1" /><path clip-path="url(#clip250)" d="M1298.43 1215.14 Q1294.81 1215.14 1292.99 1218.71 Q1291.18 1222.25 1291.18 1229.38 Q1291.18 1236.49 1292.99 1240.05 Q1294.81 1243.59 1298.43 1243.59 Q1302.06 1243.59 1303.87 1240.05 Q1305.69 1236.49 1305.69 1229.38 Q1305.69 1222.25 1303.87 1218.71 Q1302.06 1215.14 1298.43 1215.14 M1298.43 1211.44 Q1304.24 1211.44 1307.29 1216.05 Q1310.37 1220.63 1310.37 1229.38 Q1310.37 1238.11 1307.29 1242.71 Q1304.24 1247.3 1298.43 1247.3 Q1292.62 1247.3 1289.54 1242.71 Q1286.48 1238.11 1286.48 1229.38 Q1286.48 1220.63 1289.54 1216.05 Q1292.62 1211.44 1298.43 1211.44 Z" fill="#000000" fill-rule="evenodd" fill-opacity="1" /><path clip-path="url(#clip250)" d="M1228.91 944.992 L1236.55 944.992 L1236.55 918.626 L1228.24 920.293 L1228.24 916.034 L1236.5 914.367 L1241.18 914.367 L1241.18 944.992 L1248.82 944.992 L1248.82 948.927 L1228.91 948.927 L1228.91 944.992 Z" fill="#000000" fill-rule="evenodd" fill-opacity="1" /><path clip-path="url(#clip250)" d="M1258.31 914.367 L1276.67 914.367 L1276.67 918.302 L1262.59 918.302 L1262.59 926.774 Q1263.61 926.427 1264.63 926.265 Q1265.65 926.08 1266.67 926.08 Q1272.45 926.08 1275.83 929.251 Q1279.21 932.423 1279.21 937.839 Q1279.21 943.418 1275.74 946.52 Q1272.27 949.598 1265.95 949.598 Q1263.77 949.598 1261.5 949.228 Q1259.26 948.858 1256.85 948.117 L1256.85 943.418 Q1258.93 944.552 1261.16 945.108 Q1263.38 945.663 1265.86 945.663 Q1269.86 945.663 1272.2 943.557 Q1274.54 941.45 1274.54 937.839 Q1274.54 934.228 1272.2 932.122 Q1269.86 930.015 1265.86 930.015 Q1263.98 930.015 1262.11 930.432 Q1260.25 930.848 1258.31 931.728 L1258.31 914.367 Z" fill="#000000" fill-rule="evenodd" fill-opacity="1" /><path clip-path="url(#clip250)" d="M1298.43 917.446 Q1294.81 917.446 1292.99 921.011 Q1291.18 924.552 1291.18 931.682 Q1291.18 938.788 1292.99 942.353 Q1294.81 945.895 1298.43 945.895 Q1302.06 945.895 1303.87 942.353 Q1305.69 938.788 1305.69 931.682 Q1305.69 924.552 1303.87 921.011 Q1302.06 917.446 1298.43 917.446 M1298.43 913.742 Q1304.24 913.742 1307.29 918.349 Q1310.37 922.932 1310.37 931.682 Q1310.37 940.409 1307.29 945.015 Q1304.24 949.598 1298.43 949.598 Q1292.62 949.598 1289.54 945.015 Q1286.48 940.409 1286.48 931.682 Q1286.48 922.932 1289.54 918.349 Q1292.62 913.742 1298.43 913.742 Z" fill="#000000" fill-rule="evenodd" fill-opacity="1" /><path clip-path="url(#clip250)" d="M1232.13 647.293 L1248.45 647.293 L1248.45 651.228 L1226.5 651.228 L1226.5 647.293 Q1229.17 644.539 1233.75 639.909 Q1238.36 635.256 1239.54 633.914 Q1241.78 631.391 1242.66 629.655 Q1243.56 627.895 1243.56 626.205 Q1243.56 623.451 1241.62 621.715 Q1239.7 619.979 1236.6 619.979 Q1234.4 619.979 1231.94 620.743 Q1229.51 621.506 1226.74 623.057 L1226.74 618.335 Q1229.56 617.201 1232.01 616.622 Q1234.47 616.043 1236.5 616.043 Q1241.87 616.043 1245.07 618.729 Q1248.26 621.414 1248.26 625.905 Q1248.26 628.034 1247.45 629.955 Q1246.67 631.854 1244.56 634.446 Q1243.98 635.117 1240.88 638.335 Q1237.78 641.529 1232.13 647.293 Z" fill="#000000" fill-rule="evenodd" fill-opacity="1" /><path clip-path="url(#clip250)" d="M1268.26 619.747 Q1264.65 619.747 1262.82 623.312 Q1261.02 626.854 1261.02 633.983 Q1261.02 641.09 1262.82 644.654 Q1264.65 648.196 1268.26 648.196 Q1271.9 648.196 1273.7 644.654 Q1275.53 641.09 1275.53 633.983 Q1275.53 626.854 1273.7 623.312 Q1271.9 619.747 1268.26 619.747 M1268.26 616.043 Q1274.07 616.043 1277.13 620.65 Q1280.21 625.233 1280.21 633.983 Q1280.21 642.71 1277.13 647.316 Q1274.07 651.9 1268.26 651.9 Q1262.45 651.9 1259.37 647.316 Q1256.32 642.71 1256.32 633.983 Q1256.32 625.233 1259.37 620.65 Q1262.45 616.043 1268.26 616.043 Z" fill="#000000" fill-rule="evenodd" fill-opacity="1" /><path clip-path="url(#clip250)" d="M1298.43 619.747 Q1294.81 619.747 1292.99 623.312 Q1291.18 626.854 1291.18 633.983 Q1291.18 641.09 1292.99 644.654 Q1294.81 648.196 1298.43 648.196 Q1302.06 648.196 1303.87 644.654 Q1305.69 641.09 1305.69 633.983 Q1305.69 626.854 1303.87 623.312 Q1302.06 619.747 1298.43 619.747 M1298.43 616.043 Q1304.24 616.043 1307.29 620.65 Q1310.37 625.233 1310.37 633.983 Q1310.37 642.71 1307.29 647.316 Q1304.24 651.9 1298.43 651.9 Q1292.62 651.9 1289.54 647.316 Q1286.48 642.71 1286.48 633.983 Q1286.48 625.233 1289.54 620.65 Q1292.62 616.043 1298.43 616.043 Z" fill="#000000" fill-rule="evenodd" fill-opacity="1" /><path clip-path="url(#clip250)" d="M1232.13 349.595 L1248.45 349.595 L1248.45 353.53 L1226.5 353.53 L1226.5 349.595 Q1229.17 346.84 1233.75 342.21 Q1238.36 337.558 1239.54 336.215 Q1241.78 333.692 1242.66 331.956 Q1243.56 330.197 1243.56 328.507 Q1243.56 325.752 1241.62 324.016 Q1239.7 322.28 1236.6 322.28 Q1234.4 322.28 1231.94 323.044 Q1229.51 323.808 1226.74 325.359 L1226.74 320.637 Q1229.56 319.502 1232.01 318.924 Q1234.47 318.345 1236.5 318.345 Q1241.87 318.345 1245.07 321.03 Q1248.26 323.715 1248.26 328.206 Q1248.26 330.336 1247.45 332.257 Q1246.67 334.155 1244.56 336.748 Q1243.98 337.419 1240.88 340.636 Q1237.78 343.831 1232.13 349.595 Z" fill="#000000" fill-rule="evenodd" fill-opacity="1" /><path clip-path="url(#clip250)" d="M1258.31 318.97 L1276.67 318.97 L1276.67 322.905 L1262.59 322.905 L1262.59 331.377 Q1263.61 331.03 1264.63 330.868 Q1265.65 330.683 1266.67 330.683 Q1272.45 330.683 1275.83 333.854 Q1279.21 337.025 1279.21 342.442 Q1279.21 348.021 1275.74 351.122 Q1272.27 354.201 1265.95 354.201 Q1263.77 354.201 1261.5 353.831 Q1259.26 353.46 1256.85 352.72 L1256.85 348.021 Q1258.93 349.155 1261.16 349.71 Q1263.38 350.266 1265.86 350.266 Q1269.86 350.266 1272.2 348.16 Q1274.54 346.053 1274.54 342.442 Q1274.54 338.831 1272.2 336.724 Q1269.86 334.618 1265.86 334.618 Q1263.98 334.618 1262.11 335.035 Q1260.25 335.451 1258.31 336.331 L1258.31 318.97 Z" fill="#000000" fill-rule="evenodd" fill-opacity="1" /><path clip-path="url(#clip250)" d="M1298.43 322.049 Q1294.81 322.049 1292.99 325.613 Q1291.18 329.155 1291.18 336.285 Q1291.18 343.391 1292.99 346.956 Q1294.81 350.497 1298.43 350.497 Q1302.06 350.497 1303.87 346.956 Q1305.69 343.391 1305.69 336.285 Q1305.69 329.155 1303.87 325.613 Q1302.06 322.049 1298.43 322.049 M1298.43 318.345 Q1304.24 318.345 1307.29 322.951 Q1310.37 327.535 1310.37 336.285 Q1310.37 345.011 1307.29 349.618 Q1304.24 354.201 1298.43 354.201 Q1292.62 354.201 1289.54 349.618 Q1286.48 345.011 1286.48 336.285 Q1286.48 327.535 1289.54 322.951 Q1292.62 318.345 1298.43 318.345 Z" fill="#000000" fill-rule="evenodd" fill-opacity="1" /><path clip-path="url(#clip253)" d="
M1570.48 1384.15 L1470.61 1384.15 L1670.35 1384.15 L1570.48 1384.15 L1570.48 1163.85 L1570.48 1384.15  Z
  " fill="#009af9" fill-rule="evenodd" fill-opacity="1"/>
<polyline clip-path="url(#clip253)" style="stroke:#000000; stroke-linecap:round; stroke-linejoin:round; stroke-width:4; stroke-opacity:1; fill:none" points="
  1570.48,1384.15 1470.61,1384.15 1670.35,1384.15 1570.48,1384.15 1570.48,1163.85 1570.48,1384.15 
  "/>
<path clip-path="url(#clip253)" d="
M1770.22 1163.85 L1770.22 1065.61 L1370.74 1065.61 L1370.74 1163.85 L1770.22 1163.85 L1770.22 1065.61 L1770.22 1163.85  Z
  " fill="#009af9" fill-rule="evenodd" fill-opacity="1"/>
<polyline clip-path="url(#clip253)" style="stroke:#000000; stroke-linecap:round; stroke-linejoin:round; stroke-width:4; stroke-opacity:1; fill:none" points="
  1770.22,1163.85 1770.22,1065.61 1370.74,1065.61 1370.74,1163.85 1770.22,1163.85 1770.22,1065.61 1770.22,1163.85 
  "/>
<path clip-path="url(#clip253)" d="
M1770.22 650.322 L1370.74 650.322 L1370.74 1065.61 L1770.22 1065.61 L1770.22 650.322 L1570.48 650.322 L1770.22 650.322  Z
  " fill="#009af9" fill-rule="evenodd" fill-opacity="1"/>
<polyline clip-path="url(#clip253)" style="stroke:#000000; stroke-linecap:round; stroke-linejoin:round; stroke-width:4; stroke-opacity:1; fill:none" points="
  1770.22,650.322 1370.74,650.322 1370.74,1065.61 1770.22,1065.61 1770.22,650.322 1570.48,650.322 1770.22,650.322 
  "/>
<path clip-path="url(#clip253)" d="
M1570.48 86.1831 L1470.61 86.1831 L1670.35 86.1831 L1570.48 86.1831 L1570.48 650.322 L1570.48 86.1831  Z
  " fill="#009af9" fill-rule="evenodd" fill-opacity="1"/>
<polyline clip-path="url(#clip253)" style="stroke:#000000; stroke-linecap:round; stroke-linejoin:round; stroke-width:4; stroke-opacity:1; fill:none" points="
  1570.48,86.1831 1470.61,86.1831 1670.35,86.1831 1570.48,86.1831 1570.48,650.322 1570.48,86.1831 
  "/>
<polyline clip-path="url(#clip253)" style="stroke:#009af9; stroke-linecap:round; stroke-linejoin:round; stroke-width:0; stroke-opacity:1; fill:none" points="
  1570.48,1384.15 1470.61,1384.15 1670.35,1384.15 1570.48,1384.15 1570.48,1163.85 
  "/>
<polyline clip-path="url(#clip253)" style="stroke:#009af9; stroke-linecap:round; stroke-linejoin:round; stroke-width:0; stroke-opacity:1; fill:none" points="
  1770.22,1163.85 1770.22,1065.61 1370.74,1065.61 1370.74,1163.85 1770.22,1163.85 1770.22,1065.61 
  "/>
<polyline clip-path="url(#clip253)" style="stroke:#009af9; stroke-linecap:round; stroke-linejoin:round; stroke-width:0; stroke-opacity:1; fill:none" points="
  1770.22,650.322 1370.74,650.322 1370.74,1065.61 1770.22,1065.61 1770.22,650.322 1570.48,650.322 
  "/>
<polyline clip-path="url(#clip253)" style="stroke:#009af9; stroke-linecap:round; stroke-linejoin:round; stroke-width:0; stroke-opacity:1; fill:none" points="
  1570.48,86.1831 1470.61,86.1831 1670.35,86.1831 1570.48,86.1831 1570.48,650.322 
  "/>
<circle clip-path="url(#clip253)" cx="1997.09" cy="1384.15" r="14.4" fill="#e26f46" fill-rule="evenodd" fill-opacity="1" stroke="#000000" stroke-opacity="1" stroke-width="3.072"/>
<circle clip-path="url(#clip253)" cx="2230.95" cy="1098.36" r="14.4" fill="#e26f46" fill-rule="evenodd" fill-opacity="1" stroke="#000000" stroke-opacity="1" stroke-width="3.072"/>
<circle clip-path="url(#clip253)" cx="2000.03" cy="425.559" r="14.4" fill="#e26f46" fill-rule="evenodd" fill-opacity="1" stroke="#000000" stroke-opacity="1" stroke-width="3.072"/>
<circle clip-path="url(#clip253)" cx="2191.54" cy="1163.85" r="14.4" fill="#e26f46" fill-rule="evenodd" fill-opacity="1" stroke="#000000" stroke-opacity="1" stroke-width="3.072"/>
<circle clip-path="url(#clip253)" cx="2062.46" cy="86.1831" r="14.4" fill="#e26f46" fill-rule="evenodd" fill-opacity="1" stroke="#000000" stroke-opacity="1" stroke-width="3.072"/>
<circle clip-path="url(#clip253)" cx="2174.69" cy="1163.85" r="14.4" fill="#e26f46" fill-rule="evenodd" fill-opacity="1" stroke="#000000" stroke-opacity="1" stroke-width="3.072"/>
<circle clip-path="url(#clip253)" cx="2032.19" cy="568.455" r="14.4" fill="#e26f46" fill-rule="evenodd" fill-opacity="1" stroke="#000000" stroke-opacity="1" stroke-width="3.072"/>
<circle clip-path="url(#clip253)" cx="2086.94" cy="1032.86" r="14.4" fill="#e26f46" fill-rule="evenodd" fill-opacity="1" stroke="#000000" stroke-opacity="1" stroke-width="3.072"/>
<circle clip-path="url(#clip253)" cx="1927.46" cy="895.923" r="14.4" fill="#e26f46" fill-rule="evenodd" fill-opacity="1" stroke="#000000" stroke-opacity="1" stroke-width="3.072"/>
<circle clip-path="url(#clip253)" cx="2073.65" cy="1354.38" r="14.4" fill="#e26f46" fill-rule="evenodd" fill-opacity="1" stroke="#000000" stroke-opacity="1" stroke-width="3.072"/>
</svg>
