<?xml version="1.0" encoding="utf-8"?>
<svg xmlns="http://www.w3.org/2000/svg" xmlns:xlink="http://www.w3.org/1999/xlink" width="576" height="384" viewBox="0 0 2304 1536">
<defs>
  <clipPath id="clip290">
    <rect x="0" y="0" width="2304" height="1536"/>
  </clipPath>
</defs>
<path clip-path="url(#clip290)" d="
M0 1536 L2304 1536 L2304 0 L0 0  Z
  " fill="#ffffff" fill-rule="evenodd" fill-opacity="1"/>
<defs>
  <clipPath id="clip291">
    <rect x="460" y="0" width="1614" height="1536"/>
  </clipPath>
</defs>
<path clip-path="url(#clip290)" d="
M169.897 1423.09 L2256.76 1423.09 L2256.76 47.2441 L169.897 47.2441  Z
  " fill="#ffffff" fill-rule="evenodd" fill-opacity="1"/>
<defs>
  <clipPath id="clip292">
    <rect x="169" y="47" width="2088" height="1377"/>
  </clipPath>
</defs>
<polyline clip-path="url(#clip292)" style="stroke:#000000; stroke-linecap:round; stroke-linejoin:round; stroke-width:2; stroke-opacity:0.1; fill:none" points="
  293.226,1423.09 293.226,47.2441 
  "/>
<polyline clip-path="url(#clip292)" style="stroke:#000000; stroke-linecap:round; stroke-linejoin:round; stroke-width:2; stroke-opacity:0.1; fill:none" points="
  590.416,1423.09 590.416,47.2441 
  "/>
<polyline clip-path="url(#clip292)" style="stroke:#000000; stroke-linecap:round; stroke-linejoin:round; stroke-width:2; stroke-opacity:0.1; fill:none" points="
  887.606,1423.09 887.606,47.2441 
  "/>
<polyline clip-path="url(#clip292)" style="stroke:#000000; stroke-linecap:round; stroke-linejoin:round; stroke-width:2; stroke-opacity:0.1; fill:none" points="
  1184.8,1423.09 1184.8,47.2441 
  "/>
<polyline clip-path="url(#clip292)" style="stroke:#000000; stroke-linecap:round; stroke-linejoin:round; stroke-width:2; stroke-opacity:0.1; fill:none" points="
  1481.99,1423.09 1481.99,47.2441 
  "/>
<polyline clip-path="url(#clip292)" style="stroke:#000000; stroke-linecap:round; stroke-linejoin:round; stroke-width:2; stroke-opacity:0.1; fill:none" points="
  1779.18,1423.09 1779.18,47.2441 
  "/>
<polyline clip-path="url(#clip292)" style="stroke:#000000; stroke-linecap:round; stroke-linejoin:round; stroke-width:2; stroke-opacity:0.1; fill:none" points="
  2076.37,1423.09 2076.37,47.2441 
  "/>
<polyline clip-path="url(#clip290)" style="stroke:#000000; stroke-linecap:round; stroke-linejoin:round; stroke-width:4; stroke-opacity:1; fill:none" points="
  169.897,1423.09 2256.76,1423.09 
  "/>
<polyline clip-path="url(#clip290)" style="stroke:#000000; stroke-linecap:round; stroke-linejoin:round; stroke-width:4; stroke-opacity:1; fill:none" points="
  293.226,1423.09 293.226,1404.19 
  "/>
<polyline clip-path="url(#clip290)" style="stroke:#000000; stroke-linecap:round; stroke-linejoin:round; stroke-width:4; stroke-opacity:1; fill:none" points="
  590.416,1423.09 590.416,1404.19 
  "/>
<polyline clip-path="url(#clip290)" style="stroke:#000000; stroke-linecap:round; stroke-linejoin:round; stroke-width:4; stroke-opacity:1; fill:none" points="
  887.606,1423.09 887.606,1404.19 
  "/>
<polyline clip-path="url(#clip290)" style="stroke:#000000; stroke-linecap:round; stroke-linejoin:round; stroke-width:4; stroke-opacity:1; fill:none" points="
  1184.8,1423.09 1184.8,1404.19 
  "/>
<polyline clip-path="url(#clip290)" style="stroke:#000000; stroke-linecap:round; stroke-linejoin:round; stroke-width:4; stroke-opacity:1; fill:none" points="
  1481.99,1423.09 1481.99,1404.19 
  "/>
<polyline clip-path="url(#clip290)" style="stroke:#000000; stroke-linecap:round; stroke-linejoin:round; stroke-width:4; stroke-opacity:1; fill:none" points="
  1779.18,1423.09 1779.18,1404.19 
  "/>
<polyline clip-path="url(#clip290)" style="stroke:#000000; stroke-linecap:round; stroke-linejoin:round; stroke-width:4; stroke-opacity:1; fill:none" points="
  2076.37,1423.09 2076.37,1404.19 
  "/>
<path clip-path="url(#clip290)" d="M267.081 1450.16 L289.303 1450.16 L289.303 1452.15 L276.757 1484.72 L271.872 1484.72 L283.678 1454.1 L267.081 1454.1 L267.081 1450.16 Z" fill="#000000" fill-rule="evenodd" fill-opacity="1" /><path clip-path="url(#clip290)" d="M298.469 1450.16 L316.826 1450.16 L316.826 1454.1 L302.752 1454.1 L302.752 1462.57 Q303.77 1462.22 304.789 1462.06 Q305.807 1461.87 306.826 1461.87 Q312.613 1461.87 315.992 1465.04 Q319.372 1468.22 319.372 1473.63 Q319.372 1479.21 315.9 1482.31 Q312.428 1485.39 306.108 1485.39 Q303.932 1485.39 301.664 1485.02 Q299.418 1484.65 297.011 1483.91 L297.011 1479.21 Q299.094 1480.34 301.317 1480.9 Q303.539 1481.46 306.016 1481.46 Q310.02 1481.46 312.358 1479.35 Q314.696 1477.24 314.696 1473.63 Q314.696 1470.02 312.358 1467.91 Q310.02 1465.81 306.016 1465.81 Q304.141 1465.81 302.266 1466.22 Q300.414 1466.64 298.469 1467.52 L298.469 1450.16 Z" fill="#000000" fill-rule="evenodd" fill-opacity="1" /><path clip-path="url(#clip290)" d="M550.023 1480.78 L557.662 1480.78 L557.662 1454.42 L549.352 1456.09 L549.352 1451.83 L557.616 1450.16 L562.292 1450.16 L562.292 1480.78 L569.93 1480.78 L569.93 1484.72 L550.023 1484.72 L550.023 1480.78 Z" fill="#000000" fill-rule="evenodd" fill-opacity="1" /><path clip-path="url(#clip290)" d="M589.375 1453.24 Q585.764 1453.24 583.935 1456.8 Q582.129 1460.35 582.129 1467.47 Q582.129 1474.58 583.935 1478.15 Q585.764 1481.69 589.375 1481.69 Q593.009 1481.69 594.814 1478.15 Q596.643 1474.58 596.643 1467.47 Q596.643 1460.35 594.814 1456.8 Q593.009 1453.24 589.375 1453.24 M589.375 1449.53 Q595.185 1449.53 598.24 1454.14 Q601.319 1458.72 601.319 1467.47 Q601.319 1476.2 598.24 1480.81 Q595.185 1485.39 589.375 1485.39 Q583.565 1485.39 580.486 1480.81 Q577.43 1476.2 577.43 1467.47 Q577.43 1458.72 580.486 1454.14 Q583.565 1449.53 589.375 1449.53 Z" fill="#000000" fill-rule="evenodd" fill-opacity="1" /><path clip-path="url(#clip290)" d="M619.537 1453.24 Q615.925 1453.24 614.097 1456.8 Q612.291 1460.35 612.291 1467.47 Q612.291 1474.58 614.097 1478.15 Q615.925 1481.69 619.537 1481.69 Q623.171 1481.69 624.976 1478.15 Q626.805 1474.58 626.805 1467.47 Q626.805 1460.35 624.976 1456.8 Q623.171 1453.24 619.537 1453.24 M619.537 1449.53 Q625.347 1449.53 628.402 1454.14 Q631.481 1458.72 631.481 1467.47 Q631.481 1476.2 628.402 1480.81 Q625.347 1485.39 619.537 1485.39 Q613.726 1485.39 610.648 1480.81 Q607.592 1476.2 607.592 1467.47 Q607.592 1458.72 610.648 1454.14 Q613.726 1449.53 619.537 1449.53 Z" fill="#000000" fill-rule="evenodd" fill-opacity="1" /><path clip-path="url(#clip290)" d="M847.711 1480.78 L855.35 1480.78 L855.35 1454.42 L847.039 1456.09 L847.039 1451.83 L855.303 1450.16 L859.979 1450.16 L859.979 1480.78 L867.618 1480.78 L867.618 1484.72 L847.711 1484.72 L847.711 1480.78 Z" fill="#000000" fill-rule="evenodd" fill-opacity="1" /><path clip-path="url(#clip290)" d="M881.09 1480.78 L897.41 1480.78 L897.41 1484.72 L875.465 1484.72 L875.465 1480.78 Q878.127 1478.03 882.711 1473.4 Q887.317 1468.75 888.498 1467.41 Q890.743 1464.88 891.623 1463.15 Q892.525 1461.39 892.525 1459.7 Q892.525 1456.94 890.581 1455.21 Q888.66 1453.47 885.558 1453.47 Q883.359 1453.47 880.905 1454.23 Q878.474 1455 875.697 1456.55 L875.697 1451.83 Q878.521 1450.69 880.974 1450.11 Q883.428 1449.53 885.465 1449.53 Q890.836 1449.53 894.03 1452.22 Q897.224 1454.91 897.224 1459.4 Q897.224 1461.53 896.414 1463.45 Q895.627 1465.34 893.521 1467.94 Q892.942 1468.61 889.84 1471.83 Q886.738 1475.02 881.09 1480.78 Z" fill="#000000" fill-rule="evenodd" fill-opacity="1" /><path clip-path="url(#clip290)" d="M907.271 1450.16 L925.627 1450.16 L925.627 1454.1 L911.553 1454.1 L911.553 1462.57 Q912.572 1462.22 913.59 1462.06 Q914.609 1461.87 915.627 1461.87 Q921.414 1461.87 924.794 1465.04 Q928.173 1468.22 928.173 1473.63 Q928.173 1479.21 924.701 1482.31 Q921.229 1485.39 914.909 1485.39 Q912.734 1485.39 910.465 1485.02 Q908.22 1484.65 905.812 1483.91 L905.812 1479.21 Q907.896 1480.34 910.118 1480.9 Q912.34 1481.46 914.817 1481.46 Q918.822 1481.46 921.159 1479.35 Q923.497 1477.24 923.497 1473.63 Q923.497 1470.02 921.159 1467.91 Q918.822 1465.81 914.817 1465.81 Q912.942 1465.81 911.067 1466.22 Q909.215 1466.64 907.271 1467.52 L907.271 1450.16 Z" fill="#000000" fill-rule="evenodd" fill-opacity="1" /><path clip-path="url(#clip290)" d="M1144.4 1480.78 L1152.04 1480.78 L1152.04 1454.42 L1143.73 1456.09 L1143.73 1451.83 L1152 1450.16 L1156.67 1450.16 L1156.67 1480.78 L1164.31 1480.78 L1164.31 1484.72 L1144.4 1484.72 L1144.4 1480.78 Z" fill="#000000" fill-rule="evenodd" fill-opacity="1" /><path clip-path="url(#clip290)" d="M1173.8 1450.16 L1192.16 1450.16 L1192.16 1454.1 L1178.08 1454.1 L1178.08 1462.57 Q1179.1 1462.22 1180.12 1462.06 Q1181.14 1461.87 1182.16 1461.87 Q1187.94 1461.87 1191.32 1465.04 Q1194.7 1468.22 1194.7 1473.63 Q1194.7 1479.21 1191.23 1482.31 Q1187.76 1485.39 1181.44 1485.39 Q1179.26 1485.39 1177 1485.02 Q1174.75 1484.65 1172.34 1483.91 L1172.34 1479.21 Q1174.43 1480.34 1176.65 1480.9 Q1178.87 1481.46 1181.35 1481.46 Q1185.35 1481.46 1187.69 1479.35 Q1190.03 1477.24 1190.03 1473.63 Q1190.03 1470.02 1187.69 1467.91 Q1185.35 1465.81 1181.35 1465.81 Q1179.47 1465.81 1177.6 1466.22 Q1175.75 1466.64 1173.8 1467.52 L1173.8 1450.16 Z" fill="#000000" fill-rule="evenodd" fill-opacity="1" /><path clip-path="url(#clip290)" d="M1213.92 1453.24 Q1210.31 1453.24 1208.48 1456.8 Q1206.67 1460.35 1206.67 1467.47 Q1206.67 1474.58 1208.48 1478.15 Q1210.31 1481.69 1213.92 1481.69 Q1217.55 1481.69 1219.36 1478.15 Q1221.19 1474.58 1221.19 1467.47 Q1221.19 1460.35 1219.36 1456.8 Q1217.55 1453.24 1213.92 1453.24 M1213.92 1449.53 Q1219.73 1449.53 1222.78 1454.14 Q1225.86 1458.72 1225.86 1467.47 Q1225.86 1476.2 1222.78 1480.81 Q1219.73 1485.39 1213.92 1485.39 Q1208.11 1485.39 1205.03 1480.81 Q1201.97 1476.2 1201.97 1467.47 Q1201.97 1458.72 1205.03 1454.14 Q1208.11 1449.53 1213.92 1449.53 Z" fill="#000000" fill-rule="evenodd" fill-opacity="1" /><path clip-path="url(#clip290)" d="M1442.09 1480.78 L1449.73 1480.78 L1449.73 1454.42 L1441.42 1456.09 L1441.42 1451.83 L1449.68 1450.16 L1454.36 1450.16 L1454.36 1480.78 L1462 1480.78 L1462 1484.72 L1442.09 1484.72 L1442.09 1480.78 Z" fill="#000000" fill-rule="evenodd" fill-opacity="1" /><path clip-path="url(#clip290)" d="M1470.26 1450.16 L1492.48 1450.16 L1492.48 1452.15 L1479.94 1484.72 L1475.05 1484.72 L1486.86 1454.1 L1470.26 1454.1 L1470.26 1450.16 Z" fill="#000000" fill-rule="evenodd" fill-opacity="1" /><path clip-path="url(#clip290)" d="M1501.65 1450.16 L1520.01 1450.16 L1520.01 1454.1 L1505.93 1454.1 L1505.93 1462.57 Q1506.95 1462.22 1507.97 1462.06 Q1508.99 1461.87 1510.01 1461.87 Q1515.79 1461.87 1519.17 1465.04 Q1522.55 1468.22 1522.55 1473.63 Q1522.55 1479.21 1519.08 1482.31 Q1515.61 1485.39 1509.29 1485.39 Q1507.11 1485.39 1504.85 1485.02 Q1502.6 1484.65 1500.19 1483.91 L1500.19 1479.21 Q1502.28 1480.34 1504.5 1480.9 Q1506.72 1481.46 1509.2 1481.46 Q1513.2 1481.46 1515.54 1479.35 Q1517.88 1477.24 1517.88 1473.63 Q1517.88 1470.02 1515.54 1467.91 Q1513.2 1465.81 1509.2 1465.81 Q1507.32 1465.81 1505.45 1466.22 Q1503.6 1466.64 1501.65 1467.52 L1501.65 1450.16 Z" fill="#000000" fill-rule="evenodd" fill-opacity="1" /><path clip-path="url(#clip290)" d="M1742.87 1480.78 L1759.19 1480.78 L1759.19 1484.72 L1737.24 1484.72 L1737.24 1480.78 Q1739.91 1478.03 1744.49 1473.4 Q1749.1 1468.75 1750.28 1467.41 Q1752.52 1464.88 1753.4 1463.15 Q1754.3 1461.39 1754.3 1459.7 Q1754.3 1456.94 1752.36 1455.21 Q1750.44 1453.47 1747.34 1453.47 Q1745.14 1453.47 1742.68 1454.23 Q1740.25 1455 1737.48 1456.55 L1737.48 1451.83 Q1740.3 1450.69 1742.75 1450.11 Q1745.21 1449.53 1747.24 1449.53 Q1752.61 1449.53 1755.81 1452.22 Q1759 1454.91 1759 1459.4 Q1759 1461.53 1758.19 1463.45 Q1757.41 1465.34 1755.3 1467.94 Q1754.72 1468.61 1751.62 1471.83 Q1748.52 1475.02 1742.87 1480.78 Z" fill="#000000" fill-rule="evenodd" fill-opacity="1" /><path clip-path="url(#clip290)" d="M1779 1453.24 Q1775.39 1453.24 1773.56 1456.8 Q1771.76 1460.35 1771.76 1467.47 Q1771.76 1474.58 1773.56 1478.15 Q1775.39 1481.69 1779 1481.69 Q1782.64 1481.69 1784.44 1478.15 Q1786.27 1474.58 1786.27 1467.47 Q1786.27 1460.35 1784.44 1456.8 Q1782.64 1453.24 1779 1453.24 M1779 1449.53 Q1784.81 1449.53 1787.87 1454.14 Q1790.95 1458.72 1790.95 1467.47 Q1790.95 1476.2 1787.87 1480.81 Q1784.81 1485.39 1779 1485.39 Q1773.19 1485.39 1770.11 1480.81 Q1767.06 1476.2 1767.06 1467.47 Q1767.06 1458.72 1770.11 1454.14 Q1773.19 1449.53 1779 1449.53 Z" fill="#000000" fill-rule="evenodd" fill-opacity="1" /><path clip-path="url(#clip290)" d="M1809.16 1453.24 Q1805.55 1453.24 1803.72 1456.8 Q1801.92 1460.35 1801.92 1467.47 Q1801.92 1474.58 1803.72 1478.15 Q1805.55 1481.69 1809.16 1481.69 Q1812.8 1481.69 1814.6 1478.15 Q1816.43 1474.58 1816.43 1467.47 Q1816.43 1460.35 1814.6 1456.8 Q1812.8 1453.24 1809.16 1453.24 M1809.16 1449.53 Q1814.97 1449.53 1818.03 1454.14 Q1821.11 1458.72 1821.11 1467.47 Q1821.11 1476.2 1818.03 1480.81 Q1814.97 1485.39 1809.16 1485.39 Q1803.35 1485.39 1800.28 1480.81 Q1797.22 1476.2 1797.22 1467.47 Q1797.22 1458.72 1800.28 1454.14 Q1803.35 1449.53 1809.16 1449.53 Z" fill="#000000" fill-rule="evenodd" fill-opacity="1" /><path clip-path="url(#clip290)" d="M2040.56 1480.78 L2056.88 1480.78 L2056.88 1484.72 L2034.93 1484.72 L2034.93 1480.78 Q2037.59 1478.03 2042.18 1473.4 Q2046.78 1468.75 2047.96 1467.41 Q2050.21 1464.88 2051.09 1463.15 Q2051.99 1461.39 2051.99 1459.7 Q2051.99 1456.94 2050.05 1455.21 Q2048.13 1453.47 2045.02 1453.47 Q2042.83 1453.47 2040.37 1454.23 Q2037.94 1455 2035.16 1456.55 L2035.16 1451.83 Q2037.99 1450.69 2040.44 1450.11 Q2042.89 1449.53 2044.93 1449.53 Q2050.3 1449.53 2053.5 1452.22 Q2056.69 1454.91 2056.69 1459.4 Q2056.69 1461.53 2055.88 1463.45 Q2055.09 1465.34 2052.99 1467.94 Q2052.41 1468.61 2049.31 1471.83 Q2046.2 1475.02 2040.56 1480.78 Z" fill="#000000" fill-rule="evenodd" fill-opacity="1" /><path clip-path="url(#clip290)" d="M2070.72 1480.78 L2087.04 1480.78 L2087.04 1484.72 L2065.09 1484.72 L2065.09 1480.78 Q2067.76 1478.03 2072.34 1473.4 Q2076.95 1468.75 2078.13 1467.41 Q2080.37 1464.88 2081.25 1463.15 Q2082.15 1461.39 2082.15 1459.7 Q2082.15 1456.94 2080.21 1455.21 Q2078.29 1453.47 2075.19 1453.47 Q2072.99 1453.47 2070.53 1454.23 Q2068.1 1455 2065.32 1456.55 L2065.32 1451.83 Q2068.15 1450.69 2070.6 1450.11 Q2073.06 1449.53 2075.09 1449.53 Q2080.46 1449.53 2083.66 1452.22 Q2086.85 1454.91 2086.85 1459.4 Q2086.85 1461.53 2086.04 1463.45 Q2085.26 1465.34 2083.15 1467.94 Q2082.57 1468.61 2079.47 1471.83 Q2076.37 1475.02 2070.72 1480.78 Z" fill="#000000" fill-rule="evenodd" fill-opacity="1" /><path clip-path="url(#clip290)" d="M2096.9 1450.16 L2115.26 1450.16 L2115.26 1454.1 L2101.18 1454.1 L2101.18 1462.57 Q2102.2 1462.22 2103.22 1462.06 Q2104.24 1461.87 2105.26 1461.87 Q2111.04 1461.87 2114.42 1465.04 Q2117.8 1468.22 2117.8 1473.63 Q2117.8 1479.21 2114.33 1482.31 Q2110.86 1485.39 2104.54 1485.39 Q2102.36 1485.39 2100.09 1485.02 Q2097.85 1484.65 2095.44 1483.91 L2095.44 1479.21 Q2097.52 1480.34 2099.75 1480.9 Q2101.97 1481.46 2104.45 1481.46 Q2108.45 1481.46 2110.79 1479.35 Q2113.13 1477.24 2113.13 1473.63 Q2113.13 1470.02 2110.79 1467.91 Q2108.45 1465.81 2104.45 1465.81 Q2102.57 1465.81 2100.7 1466.22 Q2098.84 1466.64 2096.9 1467.52 L2096.9 1450.16 Z" fill="#000000" fill-rule="evenodd" fill-opacity="1" /><polyline clip-path="url(#clip292)" style="stroke:#000000; stroke-linecap:round; stroke-linejoin:round; stroke-width:2; stroke-opacity:0.1; fill:none" points="
  169.897,1341.78 2256.76,1341.78 
  "/>
<polyline clip-path="url(#clip292)" style="stroke:#000000; stroke-linecap:round; stroke-linejoin:round; stroke-width:2; stroke-opacity:0.1; fill:none" points="
  169.897,1145.84 2256.76,1145.84 
  "/>
<polyline clip-path="url(#clip292)" style="stroke:#000000; stroke-linecap:round; stroke-linejoin:round; stroke-width:2; stroke-opacity:0.1; fill:none" points="
  169.897,949.91 2256.76,949.91 
  "/>
<polyline clip-path="url(#clip292)" style="stroke:#000000; stroke-linecap:round; stroke-linejoin:round; stroke-width:2; stroke-opacity:0.1; fill:none" points="
  169.897,753.976 2256.76,753.976 
  "/>
<polyline clip-path="url(#clip292)" style="stroke:#000000; stroke-linecap:round; stroke-linejoin:round; stroke-width:2; stroke-opacity:0.1; fill:none" points="
  169.897,558.041 2256.76,558.041 
  "/>
<polyline clip-path="url(#clip292)" style="stroke:#000000; stroke-linecap:round; stroke-linejoin:round; stroke-width:2; stroke-opacity:0.1; fill:none" points="
  169.897,362.107 2256.76,362.107 
  "/>
<polyline clip-path="url(#clip292)" style="stroke:#000000; stroke-linecap:round; stroke-linejoin:round; stroke-width:2; stroke-opacity:0.1; fill:none" points="
  169.897,166.173 2256.76,166.173 
  "/>
<polyline clip-path="url(#clip290)" style="stroke:#000000; stroke-linecap:round; stroke-linejoin:round; stroke-width:4; stroke-opacity:1; fill:none" points="
  169.897,1423.09 169.897,47.2441 
  "/>
<polyline clip-path="url(#clip290)" style="stroke:#000000; stroke-linecap:round; stroke-linejoin:round; stroke-width:4; stroke-opacity:1; fill:none" points="
  169.897,1341.78 188.795,1341.78 
  "/>
<polyline clip-path="url(#clip290)" style="stroke:#000000; stroke-linecap:round; stroke-linejoin:round; stroke-width:4; stroke-opacity:1; fill:none" points="
  169.897,1145.84 188.795,1145.84 
  "/>
<polyline clip-path="url(#clip290)" style="stroke:#000000; stroke-linecap:round; stroke-linejoin:round; stroke-width:4; stroke-opacity:1; fill:none" points="
  169.897,949.91 188.795,949.91 
  "/>
<polyline clip-path="url(#clip290)" style="stroke:#000000; stroke-linecap:round; stroke-linejoin:round; stroke-width:4; stroke-opacity:1; fill:none" points="
  169.897,753.976 188.795,753.976 
  "/>
<polyline clip-path="url(#clip290)" style="stroke:#000000; stroke-linecap:round; stroke-linejoin:round; stroke-width:4; stroke-opacity:1; fill:none" points="
  169.897,558.041 188.795,558.041 
  "/>
<polyline clip-path="url(#clip290)" style="stroke:#000000; stroke-linecap:round; stroke-linejoin:round; stroke-width:4; stroke-opacity:1; fill:none" points="
  169.897,362.107 188.795,362.107 
  "/>
<polyline clip-path="url(#clip290)" style="stroke:#000000; stroke-linecap:round; stroke-linejoin:round; stroke-width:4; stroke-opacity:1; fill:none" points="
  169.897,166.173 188.795,166.173 
  "/>
<path clip-path="url(#clip290)" d="M83.046 1324.5 L105.268 1324.5 L105.268 1326.49 L92.7219 1359.06 L87.8377 1359.06 L99.6432 1328.43 L83.046 1328.43 L83.046 1324.5 Z" fill="#000000" fill-rule="evenodd" fill-opacity="1" /><path clip-path="url(#clip290)" d="M114.435 1324.5 L132.791 1324.5 L132.791 1328.43 L118.717 1328.43 L118.717 1336.91 Q119.736 1336.56 120.754 1336.4 Q121.773 1336.21 122.791 1336.21 Q128.578 1336.21 131.958 1339.38 Q135.337 1342.55 135.337 1347.97 Q135.337 1353.55 131.865 1356.65 Q128.393 1359.73 122.074 1359.73 Q119.898 1359.73 117.629 1359.36 Q115.384 1358.99 112.976 1358.25 L112.976 1353.55 Q115.06 1354.68 117.282 1355.24 Q119.504 1355.79 121.981 1355.79 Q125.986 1355.79 128.324 1353.69 Q130.662 1351.58 130.662 1347.97 Q130.662 1344.36 128.324 1342.25 Q125.986 1340.15 121.981 1340.15 Q120.106 1340.15 118.231 1340.56 Q116.379 1340.98 114.435 1341.86 L114.435 1324.5 Z" fill="#000000" fill-rule="evenodd" fill-opacity="1" /><path clip-path="url(#clip290)" d="M53.8795 1159.19 L61.5184 1159.19 L61.5184 1132.82 L53.2082 1134.49 L53.2082 1130.23 L61.4721 1128.56 L66.148 1128.56 L66.148 1159.19 L73.7868 1159.19 L73.7868 1163.12 L53.8795 1163.12 L53.8795 1159.19 Z" fill="#000000" fill-rule="evenodd" fill-opacity="1" /><path clip-path="url(#clip290)" d="M93.2312 1131.64 Q89.6201 1131.64 87.7914 1135.21 Q85.9858 1138.75 85.9858 1145.88 Q85.9858 1152.99 87.7914 1156.55 Q89.6201 1160.09 93.2312 1160.09 Q96.8654 1160.09 98.6709 1156.55 Q100.5 1152.99 100.5 1145.88 Q100.5 1138.75 98.6709 1135.21 Q96.8654 1131.64 93.2312 1131.64 M93.2312 1127.94 Q99.0413 1127.94 102.097 1132.55 Q105.176 1137.13 105.176 1145.88 Q105.176 1154.61 102.097 1159.21 Q99.0413 1163.8 93.2312 1163.8 Q87.421 1163.8 84.3423 1159.21 Q81.2868 1154.61 81.2868 1145.88 Q81.2868 1137.13 84.3423 1132.55 Q87.421 1127.94 93.2312 1127.94 Z" fill="#000000" fill-rule="evenodd" fill-opacity="1" /><path clip-path="url(#clip290)" d="M123.393 1131.64 Q119.782 1131.64 117.953 1135.21 Q116.148 1138.75 116.148 1145.88 Q116.148 1152.99 117.953 1156.55 Q119.782 1160.09 123.393 1160.09 Q127.027 1160.09 128.833 1156.55 Q130.662 1152.99 130.662 1145.88 Q130.662 1138.75 128.833 1135.21 Q127.027 1131.64 123.393 1131.64 M123.393 1127.94 Q129.203 1127.94 132.259 1132.55 Q135.337 1137.13 135.337 1145.88 Q135.337 1154.61 132.259 1159.21 Q129.203 1163.8 123.393 1163.8 Q117.583 1163.8 114.504 1159.21 Q111.449 1154.61 111.449 1145.88 Q111.449 1137.13 114.504 1132.55 Q117.583 1127.94 123.393 1127.94 Z" fill="#000000" fill-rule="evenodd" fill-opacity="1" /><path clip-path="url(#clip290)" d="M54.8749 963.255 L62.5137 963.255 L62.5137 936.889 L54.2036 938.556 L54.2036 934.297 L62.4674 932.63 L67.1433 932.63 L67.1433 963.255 L74.7822 963.255 L74.7822 967.19 L54.8749 967.19 L54.8749 963.255 Z" fill="#000000" fill-rule="evenodd" fill-opacity="1" /><path clip-path="url(#clip290)" d="M88.2543 963.255 L104.574 963.255 L104.574 967.19 L82.6294 967.19 L82.6294 963.255 Q85.2914 960.5 89.8747 955.871 Q94.4812 951.218 95.6617 949.875 Q97.9071 947.352 98.7867 945.616 Q99.6895 943.857 99.6895 942.167 Q99.6895 939.412 97.745 937.676 Q95.8237 935.94 92.7219 935.94 Q90.5228 935.94 88.0692 936.704 Q85.6386 937.468 82.8608 939.019 L82.8608 934.297 Q85.6849 933.162 88.1386 932.584 Q90.5923 932.005 92.6293 932.005 Q97.9997 932.005 101.194 934.69 Q104.389 937.375 104.389 941.866 Q104.389 943.996 103.578 945.917 Q102.791 947.815 100.685 950.408 Q100.106 951.079 97.0043 954.296 Q93.9025 957.491 88.2543 963.255 Z" fill="#000000" fill-rule="evenodd" fill-opacity="1" /><path clip-path="url(#clip290)" d="M114.435 932.63 L132.791 932.63 L132.791 936.565 L118.717 936.565 L118.717 945.037 Q119.736 944.69 120.754 944.528 Q121.773 944.343 122.791 944.343 Q128.578 944.343 131.958 947.514 Q135.337 950.685 135.337 956.102 Q135.337 961.681 131.865 964.783 Q128.393 967.861 122.074 967.861 Q119.898 967.861 117.629 967.491 Q115.384 967.12 112.976 966.38 L112.976 961.681 Q115.06 962.815 117.282 963.37 Q119.504 963.926 121.981 963.926 Q125.986 963.926 128.324 961.82 Q130.662 959.713 130.662 956.102 Q130.662 952.491 128.324 950.384 Q125.986 948.278 121.981 948.278 Q120.106 948.278 118.231 948.695 Q116.379 949.111 114.435 949.991 L114.435 932.63 Z" fill="#000000" fill-rule="evenodd" fill-opacity="1" /><path clip-path="url(#clip290)" d="M53.8795 767.321 L61.5184 767.321 L61.5184 740.955 L53.2082 742.622 L53.2082 738.362 L61.4721 736.696 L66.148 736.696 L66.148 767.321 L73.7868 767.321 L73.7868 771.256 L53.8795 771.256 L53.8795 767.321 Z" fill="#000000" fill-rule="evenodd" fill-opacity="1" /><path clip-path="url(#clip290)" d="M83.2775 736.696 L101.634 736.696 L101.634 740.631 L87.5599 740.631 L87.5599 749.103 Q88.5784 748.756 89.5969 748.594 Q90.6154 748.409 91.6339 748.409 Q97.421 748.409 100.801 751.58 Q104.18 754.751 104.18 760.168 Q104.18 765.746 100.708 768.848 Q97.2358 771.927 90.9164 771.927 Q88.7404 771.927 86.4719 771.557 Q84.2266 771.186 81.8192 770.445 L81.8192 765.746 Q83.9025 766.881 86.1247 767.436 Q88.3469 767.992 90.8238 767.992 Q94.8284 767.992 97.1663 765.885 Q99.5043 763.779 99.5043 760.168 Q99.5043 756.557 97.1663 754.45 Q94.8284 752.344 90.8238 752.344 Q88.9488 752.344 87.0738 752.76 Q85.2219 753.177 83.2775 754.057 L83.2775 736.696 Z" fill="#000000" fill-rule="evenodd" fill-opacity="1" /><path clip-path="url(#clip290)" d="M123.393 739.774 Q119.782 739.774 117.953 743.339 Q116.148 746.881 116.148 754.01 Q116.148 761.117 117.953 764.682 Q119.782 768.223 123.393 768.223 Q127.027 768.223 128.833 764.682 Q130.662 761.117 130.662 754.01 Q130.662 746.881 128.833 743.339 Q127.027 739.774 123.393 739.774 M123.393 736.071 Q129.203 736.071 132.259 740.677 Q135.337 745.26 135.337 754.01 Q135.337 762.737 132.259 767.344 Q129.203 771.927 123.393 771.927 Q117.583 771.927 114.504 767.344 Q111.449 762.737 111.449 754.01 Q111.449 745.26 114.504 740.677 Q117.583 736.071 123.393 736.071 Z" fill="#000000" fill-rule="evenodd" fill-opacity="1" /><path clip-path="url(#clip290)" d="M54.8749 571.386 L62.5137 571.386 L62.5137 545.021 L54.2036 546.687 L54.2036 542.428 L62.4674 540.761 L67.1433 540.761 L67.1433 571.386 L74.7822 571.386 L74.7822 575.321 L54.8749 575.321 L54.8749 571.386 Z" fill="#000000" fill-rule="evenodd" fill-opacity="1" /><path clip-path="url(#clip290)" d="M83.046 540.761 L105.268 540.761 L105.268 542.752 L92.7219 575.321 L87.8377 575.321 L99.6432 544.697 L83.046 544.697 L83.046 540.761 Z" fill="#000000" fill-rule="evenodd" fill-opacity="1" /><path clip-path="url(#clip290)" d="M114.435 540.761 L132.791 540.761 L132.791 544.697 L118.717 544.697 L118.717 553.169 Q119.736 552.822 120.754 552.66 Q121.773 552.474 122.791 552.474 Q128.578 552.474 131.958 555.646 Q135.337 558.817 135.337 564.234 Q135.337 569.812 131.865 572.914 Q128.393 575.993 122.074 575.993 Q119.898 575.993 117.629 575.622 Q115.384 575.252 112.976 574.511 L112.976 569.812 Q115.06 570.946 117.282 571.502 Q119.504 572.058 121.981 572.058 Q125.986 572.058 128.324 569.951 Q130.662 567.845 130.662 564.234 Q130.662 560.622 128.324 558.516 Q125.986 556.409 121.981 556.409 Q120.106 556.409 118.231 556.826 Q116.379 557.243 114.435 558.122 L114.435 540.761 Z" fill="#000000" fill-rule="evenodd" fill-opacity="1" /><path clip-path="url(#clip290)" d="M57.0971 375.452 L73.4165 375.452 L73.4165 379.387 L51.4721 379.387 L51.4721 375.452 Q54.1341 372.697 58.7175 368.068 Q63.3239 363.415 64.5045 362.072 Q66.7498 359.549 67.6294 357.813 Q68.5322 356.054 68.5322 354.364 Q68.5322 351.61 66.5878 349.873 Q64.6665 348.137 61.5647 348.137 Q59.3656 348.137 56.9119 348.901 Q54.4814 349.665 51.7036 351.216 L51.7036 346.494 Q54.5277 345.36 56.9814 344.781 Q59.435 344.202 61.4721 344.202 Q66.8424 344.202 70.0368 346.887 Q73.2313 349.573 73.2313 354.063 Q73.2313 356.193 72.4211 358.114 Q71.6341 360.012 69.5276 362.605 Q68.9489 363.276 65.847 366.494 Q62.7452 369.688 57.0971 375.452 Z" fill="#000000" fill-rule="evenodd" fill-opacity="1" /><path clip-path="url(#clip290)" d="M93.2312 347.906 Q89.6201 347.906 87.7914 351.471 Q85.9858 355.012 85.9858 362.142 Q85.9858 369.248 87.7914 372.813 Q89.6201 376.355 93.2312 376.355 Q96.8654 376.355 98.6709 372.813 Q100.5 369.248 100.5 362.142 Q100.5 355.012 98.6709 351.471 Q96.8654 347.906 93.2312 347.906 M93.2312 344.202 Q99.0413 344.202 102.097 348.809 Q105.176 353.392 105.176 362.142 Q105.176 370.869 102.097 375.475 Q99.0413 380.058 93.2312 380.058 Q87.421 380.058 84.3423 375.475 Q81.2868 370.869 81.2868 362.142 Q81.2868 353.392 84.3423 348.809 Q87.421 344.202 93.2312 344.202 Z" fill="#000000" fill-rule="evenodd" fill-opacity="1" /><path clip-path="url(#clip290)" d="M123.393 347.906 Q119.782 347.906 117.953 351.471 Q116.148 355.012 116.148 362.142 Q116.148 369.248 117.953 372.813 Q119.782 376.355 123.393 376.355 Q127.027 376.355 128.833 372.813 Q130.662 369.248 130.662 362.142 Q130.662 355.012 128.833 351.471 Q127.027 347.906 123.393 347.906 M123.393 344.202 Q129.203 344.202 132.259 348.809 Q135.337 353.392 135.337 362.142 Q135.337 370.869 132.259 375.475 Q129.203 380.058 123.393 380.058 Q117.583 380.058 114.504 375.475 Q111.449 370.869 111.449 362.142 Q111.449 353.392 114.504 348.809 Q117.583 344.202 123.393 344.202 Z" fill="#000000" fill-rule="evenodd" fill-opacity="1" /><path clip-path="url(#clip290)" d="M58.0925 179.518 L74.4118 179.518 L74.4118 183.453 L52.4675 183.453 L52.4675 179.518 Q55.1295 176.763 59.7128 172.134 Q64.3193 167.481 65.4998 166.138 Q67.7452 163.615 68.6248 161.879 Q69.5276 160.12 69.5276 158.43 Q69.5276 155.675 67.5832 153.939 Q65.6619 152.203 62.56 152.203 Q60.361 152.203 57.9073 152.967 Q55.4767 153.731 52.699 155.282 L52.699 150.56 Q55.523 149.425 57.9767 148.847 Q60.4304 148.268 62.4674 148.268 Q67.8378 148.268 71.0322 150.953 Q74.2266 153.638 74.2266 158.129 Q74.2266 160.259 73.4165 162.18 Q72.6294 164.078 70.5229 166.671 Q69.9442 167.342 66.8424 170.559 Q63.7406 173.754 58.0925 179.518 Z" fill="#000000" fill-rule="evenodd" fill-opacity="1" /><path clip-path="url(#clip290)" d="M88.2543 179.518 L104.574 179.518 L104.574 183.453 L82.6294 183.453 L82.6294 179.518 Q85.2914 176.763 89.8747 172.134 Q94.4812 167.481 95.6617 166.138 Q97.9071 163.615 98.7867 161.879 Q99.6895 160.12 99.6895 158.43 Q99.6895 155.675 97.745 153.939 Q95.8237 152.203 92.7219 152.203 Q90.5228 152.203 88.0692 152.967 Q85.6386 153.731 82.8608 155.282 L82.8608 150.56 Q85.6849 149.425 88.1386 148.847 Q90.5923 148.268 92.6293 148.268 Q97.9997 148.268 101.194 150.953 Q104.389 153.638 104.389 158.129 Q104.389 160.259 103.578 162.18 Q102.791 164.078 100.685 166.671 Q100.106 167.342 97.0043 170.559 Q93.9025 173.754 88.2543 179.518 Z" fill="#000000" fill-rule="evenodd" fill-opacity="1" /><path clip-path="url(#clip290)" d="M114.435 148.893 L132.791 148.893 L132.791 152.828 L118.717 152.828 L118.717 161.3 Q119.736 160.953 120.754 160.791 Q121.773 160.606 122.791 160.606 Q128.578 160.606 131.958 163.777 Q135.337 166.948 135.337 172.365 Q135.337 177.944 131.865 181.046 Q128.393 184.124 122.074 184.124 Q119.898 184.124 117.629 183.754 Q115.384 183.383 112.976 182.643 L112.976 177.944 Q115.06 179.078 117.282 179.634 Q119.504 180.189 121.981 180.189 Q125.986 180.189 128.324 178.083 Q130.662 175.976 130.662 172.365 Q130.662 168.754 128.324 166.647 Q125.986 164.541 121.981 164.541 Q120.106 164.541 118.231 164.958 Q116.379 165.374 114.435 166.254 L114.435 148.893 Z" fill="#000000" fill-rule="evenodd" fill-opacity="1" /><polyline clip-path="url(#clip292)" style="stroke:#6b9e32; stroke-linecap:round; stroke-linejoin:round; stroke-width:4; stroke-opacity:1; fill:none" points="
  228.959,1384.15 2197.69,86.1831 
  "/>
<circle clip-path="url(#clip292)" cx="228.959" cy="1310.43" r="14.4" fill="#009af9" fill-rule="evenodd" fill-opacity="1" stroke="#000000" stroke-opacity="1" stroke-width="3.072"/>
<circle clip-path="url(#clip292)" cx="596.638" cy="1059.63" r="14.4" fill="#009af9" fill-rule="evenodd" fill-opacity="1" stroke="#000000" stroke-opacity="1" stroke-width="3.072"/>
<circle clip-path="url(#clip292)" cx="865.973" cy="1059.63" r="14.4" fill="#009af9" fill-rule="evenodd" fill-opacity="1" stroke="#000000" stroke-opacity="1" stroke-width="3.072"/>
<circle clip-path="url(#clip292)" cx="1100.66" cy="973.422" r="14.4" fill="#009af9" fill-rule="evenodd" fill-opacity="1" stroke="#000000" stroke-opacity="1" stroke-width="3.072"/>
<circle clip-path="url(#clip292)" cx="1325.99" cy="887.211" r="14.4" fill="#009af9" fill-rule="evenodd" fill-opacity="1" stroke="#000000" stroke-opacity="1" stroke-width="3.072"/>
<circle clip-path="url(#clip292)" cx="1560.68" cy="706.951" r="14.4" fill="#009af9" fill-rule="evenodd" fill-opacity="1" stroke="#000000" stroke-opacity="1" stroke-width="3.072"/>
<circle clip-path="url(#clip292)" cx="1830.02" cy="275.896" r="14.4" fill="#009af9" fill-rule="evenodd" fill-opacity="1" stroke="#000000" stroke-opacity="1" stroke-width="3.072"/>
<circle clip-path="url(#clip292)" cx="2197.69" cy="87.7992" r="14.4" fill="#009af9" fill-rule="evenodd" fill-opacity="1" stroke="#000000" stroke-opacity="1" stroke-width="3.072"/>
</svg>
