<?xml version="1.0" encoding="utf-8"?>
<svg xmlns="http://www.w3.org/2000/svg" xmlns:xlink="http://www.w3.org/1999/xlink" width="672" height="480" viewBox="0 0 2688 1920">
<defs>
  <clipPath id="clip050">
    <rect x="0" y="0" width="2688" height="1920"/>
  </clipPath>
</defs>
<path clip-path="url(#clip050)" d="
M0 1920 L2688 1920 L2688 0 L0 0  Z
  " fill="#ffffff" fill-rule="evenodd" fill-opacity="1"/>
<defs>
  <clipPath id="clip051">
    <rect x="537" y="0" width="1883" height="1883"/>
  </clipPath>
</defs>
<path clip-path="url(#clip050)" d="
M173.737 1800.78 L2640.76 1800.78 L2640.76 47.2441 L173.737 47.2441  Z
  " fill="#ffffff" fill-rule="evenodd" fill-opacity="1"/>
<defs>
  <clipPath id="clip052">
    <rect x="173" y="47" width="2468" height="1755"/>
  </clipPath>
</defs>
<polyline clip-path="url(#clip052)" style="stroke:#000000; stroke-linecap:round; stroke-linejoin:round; stroke-width:2; stroke-opacity:0.1; fill:none" points="
  319.533,1800.78 319.533,47.2441 
  "/>
<polyline clip-path="url(#clip052)" style="stroke:#000000; stroke-linecap:round; stroke-linejoin:round; stroke-width:2; stroke-opacity:0.1; fill:none" points="
  670.862,1800.78 670.862,47.2441 
  "/>
<polyline clip-path="url(#clip052)" style="stroke:#000000; stroke-linecap:round; stroke-linejoin:round; stroke-width:2; stroke-opacity:0.1; fill:none" points="
  1022.19,1800.78 1022.19,47.2441 
  "/>
<polyline clip-path="url(#clip052)" style="stroke:#000000; stroke-linecap:round; stroke-linejoin:round; stroke-width:2; stroke-opacity:0.1; fill:none" points="
  1373.52,1800.78 1373.52,47.2441 
  "/>
<polyline clip-path="url(#clip052)" style="stroke:#000000; stroke-linecap:round; stroke-linejoin:round; stroke-width:2; stroke-opacity:0.1; fill:none" points="
  1724.85,1800.78 1724.85,47.2441 
  "/>
<polyline clip-path="url(#clip052)" style="stroke:#000000; stroke-linecap:round; stroke-linejoin:round; stroke-width:2; stroke-opacity:0.1; fill:none" points="
  2076.18,1800.78 2076.18,47.2441 
  "/>
<polyline clip-path="url(#clip052)" style="stroke:#000000; stroke-linecap:round; stroke-linejoin:round; stroke-width:2; stroke-opacity:0.1; fill:none" points="
  2427.51,1800.78 2427.51,47.2441 
  "/>
<polyline clip-path="url(#clip050)" style="stroke:#000000; stroke-linecap:round; stroke-linejoin:round; stroke-width:4; stroke-opacity:1; fill:none" points="
  173.737,1800.78 2640.76,1800.78 
  "/>
<polyline clip-path="url(#clip050)" style="stroke:#000000; stroke-linecap:round; stroke-linejoin:round; stroke-width:4; stroke-opacity:1; fill:none" points="
  319.533,1800.78 319.533,1781.88 
  "/>
<polyline clip-path="url(#clip050)" style="stroke:#000000; stroke-linecap:round; stroke-linejoin:round; stroke-width:4; stroke-opacity:1; fill:none" points="
  670.862,1800.78 670.862,1781.88 
  "/>
<polyline clip-path="url(#clip050)" style="stroke:#000000; stroke-linecap:round; stroke-linejoin:round; stroke-width:4; stroke-opacity:1; fill:none" points="
  1022.19,1800.78 1022.19,1781.88 
  "/>
<polyline clip-path="url(#clip050)" style="stroke:#000000; stroke-linecap:round; stroke-linejoin:round; stroke-width:4; stroke-opacity:1; fill:none" points="
  1373.52,1800.78 1373.52,1781.88 
  "/>
<polyline clip-path="url(#clip050)" style="stroke:#000000; stroke-linecap:round; stroke-linejoin:round; stroke-width:4; stroke-opacity:1; fill:none" points="
  1724.85,1800.78 1724.85,1781.88 
  "/>
<polyline clip-path="url(#clip050)" style="stroke:#000000; stroke-linecap:round; stroke-linejoin:round; stroke-width:4; stroke-opacity:1; fill:none" points="
  2076.18,1800.78 2076.18,1781.88 
  "/>
<polyline clip-path="url(#clip050)" style="stroke:#000000; stroke-linecap:round; stroke-linejoin:round; stroke-width:4; stroke-opacity:1; fill:none" points="
  2427.51,1800.78 2427.51,1781.88 
  "/>
<path clip-path="url(#clip050)" d="M293.387 1830.92 L315.609 1830.92 L315.609 1832.91 L303.063 1865.48 L298.179 1865.48 L309.984 1834.86 L293.387 1834.86 L293.387 1830.92 Z" fill="#000000" fill-rule="evenodd" fill-opacity="1" /><path clip-path="url(#clip050)" d="M324.776 1830.92 L343.132 1830.92 L343.132 1834.86 L329.058 1834.86 L329.058 1843.33 Q330.077 1842.98 331.095 1842.82 Q332.114 1842.64 333.132 1842.64 Q338.919 1842.64 342.299 1845.81 Q345.679 1848.98 345.679 1854.4 Q345.679 1859.97 342.206 1863.08 Q338.734 1866.15 332.415 1866.15 Q330.239 1866.15 327.97 1865.78 Q325.725 1865.41 323.318 1864.67 L323.318 1859.97 Q325.401 1861.11 327.623 1861.66 Q329.845 1862.22 332.322 1862.22 Q336.327 1862.22 338.665 1860.11 Q341.003 1858.01 341.003 1854.4 Q341.003 1850.78 338.665 1848.68 Q336.327 1846.57 332.322 1846.57 Q330.447 1846.57 328.572 1846.99 Q326.72 1847.4 324.776 1848.28 L324.776 1830.92 Z" fill="#000000" fill-rule="evenodd" fill-opacity="1" /><path clip-path="url(#clip050)" d="M630.468 1861.55 L638.107 1861.55 L638.107 1835.18 L629.797 1836.85 L629.797 1832.59 L638.061 1830.92 L642.737 1830.92 L642.737 1861.55 L650.376 1861.55 L650.376 1865.48 L630.468 1865.48 L630.468 1861.55 Z" fill="#000000" fill-rule="evenodd" fill-opacity="1" /><path clip-path="url(#clip050)" d="M669.82 1834 Q666.209 1834 664.38 1837.57 Q662.575 1841.11 662.575 1848.24 Q662.575 1855.34 664.38 1858.91 Q666.209 1862.45 669.82 1862.45 Q673.454 1862.45 675.26 1858.91 Q677.089 1855.34 677.089 1848.24 Q677.089 1841.11 675.26 1837.57 Q673.454 1834 669.82 1834 M669.82 1830.3 Q675.63 1830.3 678.686 1834.9 Q681.764 1839.49 681.764 1848.24 Q681.764 1856.96 678.686 1861.57 Q675.63 1866.15 669.82 1866.15 Q664.01 1866.15 660.931 1861.57 Q657.876 1856.96 657.876 1848.24 Q657.876 1839.49 660.931 1834.9 Q664.01 1830.3 669.82 1830.3 Z" fill="#000000" fill-rule="evenodd" fill-opacity="1" /><path clip-path="url(#clip050)" d="M699.982 1834 Q696.371 1834 694.542 1837.57 Q692.737 1841.11 692.737 1848.24 Q692.737 1855.34 694.542 1858.91 Q696.371 1862.45 699.982 1862.45 Q703.616 1862.45 705.422 1858.91 Q707.25 1855.34 707.25 1848.24 Q707.25 1841.11 705.422 1837.57 Q703.616 1834 699.982 1834 M699.982 1830.3 Q705.792 1830.3 708.848 1834.9 Q711.926 1839.49 711.926 1848.24 Q711.926 1856.96 708.848 1861.57 Q705.792 1866.15 699.982 1866.15 Q694.172 1866.15 691.093 1861.57 Q688.038 1856.96 688.038 1848.24 Q688.038 1839.49 691.093 1834.9 Q694.172 1830.3 699.982 1830.3 Z" fill="#000000" fill-rule="evenodd" fill-opacity="1" /><path clip-path="url(#clip050)" d="M982.295 1861.55 L989.934 1861.55 L989.934 1835.18 L981.623 1836.85 L981.623 1832.59 L989.887 1830.92 L994.563 1830.92 L994.563 1861.55 L1002.2 1861.55 L1002.2 1865.48 L982.295 1865.48 L982.295 1861.55 Z" fill="#000000" fill-rule="evenodd" fill-opacity="1" /><path clip-path="url(#clip050)" d="M1015.67 1861.55 L1031.99 1861.55 L1031.99 1865.48 L1010.05 1865.48 L1010.05 1861.55 Q1012.71 1858.79 1017.29 1854.16 Q1021.9 1849.51 1023.08 1848.17 Q1025.33 1845.65 1026.21 1843.91 Q1027.11 1842.15 1027.11 1840.46 Q1027.11 1837.71 1025.16 1835.97 Q1023.24 1834.23 1020.14 1834.23 Q1017.94 1834.23 1015.49 1835 Q1013.06 1835.76 1010.28 1837.31 L1010.28 1832.59 Q1013.1 1831.46 1015.56 1830.88 Q1018.01 1830.3 1020.05 1830.3 Q1025.42 1830.3 1028.61 1832.98 Q1031.81 1835.67 1031.81 1840.16 Q1031.81 1842.29 1031 1844.21 Q1030.21 1846.11 1028.1 1848.7 Q1027.53 1849.37 1024.42 1852.59 Q1021.32 1855.78 1015.67 1861.55 Z" fill="#000000" fill-rule="evenodd" fill-opacity="1" /><path clip-path="url(#clip050)" d="M1041.85 1830.92 L1060.21 1830.92 L1060.21 1834.86 L1046.14 1834.86 L1046.14 1843.33 Q1047.16 1842.98 1048.17 1842.82 Q1049.19 1842.64 1050.21 1842.64 Q1056 1842.64 1059.38 1845.81 Q1062.76 1848.98 1062.76 1854.4 Q1062.76 1859.97 1059.29 1863.08 Q1055.81 1866.15 1049.49 1866.15 Q1047.32 1866.15 1045.05 1865.78 Q1042.8 1865.41 1040.4 1864.67 L1040.4 1859.97 Q1042.48 1861.11 1044.7 1861.66 Q1046.92 1862.22 1049.4 1862.22 Q1053.41 1862.22 1055.74 1860.11 Q1058.08 1858.01 1058.08 1854.4 Q1058.08 1850.78 1055.74 1848.68 Q1053.41 1846.57 1049.4 1846.57 Q1047.53 1846.57 1045.65 1846.99 Q1043.8 1847.4 1041.85 1848.28 L1041.85 1830.92 Z" fill="#000000" fill-rule="evenodd" fill-opacity="1" /><path clip-path="url(#clip050)" d="M1333.13 1861.55 L1340.76 1861.55 L1340.76 1835.18 L1332.45 1836.85 L1332.45 1832.59 L1340.72 1830.92 L1345.39 1830.92 L1345.39 1861.55 L1353.03 1861.55 L1353.03 1865.48 L1333.13 1865.48 L1333.13 1861.55 Z" fill="#000000" fill-rule="evenodd" fill-opacity="1" /><path clip-path="url(#clip050)" d="M1362.52 1830.92 L1380.88 1830.92 L1380.88 1834.86 L1366.81 1834.86 L1366.81 1843.33 Q1367.82 1842.98 1368.84 1842.82 Q1369.86 1842.64 1370.88 1842.64 Q1376.67 1842.64 1380.05 1845.81 Q1383.43 1848.98 1383.43 1854.4 Q1383.43 1859.97 1379.95 1863.08 Q1376.48 1866.15 1370.16 1866.15 Q1367.99 1866.15 1365.72 1865.78 Q1363.47 1865.41 1361.07 1864.67 L1361.07 1859.97 Q1363.15 1861.11 1365.37 1861.66 Q1367.59 1862.22 1370.07 1862.22 Q1374.07 1862.22 1376.41 1860.11 Q1378.75 1858.01 1378.75 1854.4 Q1378.75 1850.78 1376.41 1848.68 Q1374.07 1846.57 1370.07 1846.57 Q1368.2 1846.57 1366.32 1846.99 Q1364.47 1847.4 1362.52 1848.28 L1362.52 1830.92 Z" fill="#000000" fill-rule="evenodd" fill-opacity="1" /><path clip-path="url(#clip050)" d="M1402.64 1834 Q1399.03 1834 1397.2 1837.57 Q1395.39 1841.11 1395.39 1848.24 Q1395.39 1855.34 1397.2 1858.91 Q1399.03 1862.45 1402.64 1862.45 Q1406.27 1862.45 1408.08 1858.91 Q1409.91 1855.34 1409.91 1848.24 Q1409.91 1841.11 1408.08 1837.57 Q1406.27 1834 1402.64 1834 M1402.64 1830.3 Q1408.45 1830.3 1411.51 1834.9 Q1414.58 1839.49 1414.58 1848.24 Q1414.58 1856.96 1411.51 1861.57 Q1408.45 1866.15 1402.64 1866.15 Q1396.83 1866.15 1393.75 1861.57 Q1390.69 1856.96 1390.69 1848.24 Q1390.69 1839.49 1393.75 1834.9 Q1396.83 1830.3 1402.64 1830.3 Z" fill="#000000" fill-rule="evenodd" fill-opacity="1" /><path clip-path="url(#clip050)" d="M1684.95 1861.55 L1692.59 1861.55 L1692.59 1835.18 L1684.28 1836.85 L1684.28 1832.59 L1692.54 1830.92 L1697.22 1830.92 L1697.22 1861.55 L1704.86 1861.55 L1704.86 1865.48 L1684.95 1865.48 L1684.95 1861.55 Z" fill="#000000" fill-rule="evenodd" fill-opacity="1" /><path clip-path="url(#clip050)" d="M1713.12 1830.92 L1735.35 1830.92 L1735.35 1832.91 L1722.8 1865.48 L1717.91 1865.48 L1729.72 1834.86 L1713.12 1834.86 L1713.12 1830.92 Z" fill="#000000" fill-rule="evenodd" fill-opacity="1" /><path clip-path="url(#clip050)" d="M1744.51 1830.92 L1762.87 1830.92 L1762.87 1834.86 L1748.79 1834.86 L1748.79 1843.33 Q1749.81 1842.98 1750.83 1842.82 Q1751.85 1842.64 1752.87 1842.64 Q1758.66 1842.64 1762.04 1845.81 Q1765.41 1848.98 1765.41 1854.4 Q1765.41 1859.97 1761.94 1863.08 Q1758.47 1866.15 1752.15 1866.15 Q1749.97 1866.15 1747.71 1865.78 Q1745.46 1865.41 1743.05 1864.67 L1743.05 1859.97 Q1745.14 1861.11 1747.36 1861.66 Q1749.58 1862.22 1752.06 1862.22 Q1756.06 1862.22 1758.4 1860.11 Q1760.74 1858.01 1760.74 1854.4 Q1760.74 1850.78 1758.4 1848.68 Q1756.06 1846.57 1752.06 1846.57 Q1750.18 1846.57 1748.31 1846.99 Q1746.46 1847.4 1744.51 1848.28 L1744.51 1830.92 Z" fill="#000000" fill-rule="evenodd" fill-opacity="1" /><path clip-path="url(#clip050)" d="M2039.87 1861.55 L2056.19 1861.55 L2056.19 1865.48 L2034.24 1865.48 L2034.24 1861.55 Q2036.91 1858.79 2041.49 1854.16 Q2046.1 1849.51 2047.28 1848.17 Q2049.52 1845.65 2050.4 1843.91 Q2051.3 1842.15 2051.3 1840.46 Q2051.3 1837.71 2049.36 1835.97 Q2047.44 1834.23 2044.34 1834.23 Q2042.14 1834.23 2039.68 1835 Q2037.25 1835.76 2034.48 1837.31 L2034.48 1832.59 Q2037.3 1831.46 2039.75 1830.88 Q2042.21 1830.3 2044.24 1830.3 Q2049.61 1830.3 2052.81 1832.98 Q2056 1835.67 2056 1840.16 Q2056 1842.29 2055.19 1844.21 Q2054.41 1846.11 2052.3 1848.7 Q2051.72 1849.37 2048.62 1852.59 Q2045.52 1855.78 2039.87 1861.55 Z" fill="#000000" fill-rule="evenodd" fill-opacity="1" /><path clip-path="url(#clip050)" d="M2076 1834 Q2072.39 1834 2070.56 1837.57 Q2068.76 1841.11 2068.76 1848.24 Q2068.76 1855.34 2070.56 1858.91 Q2072.39 1862.45 2076 1862.45 Q2079.64 1862.45 2081.44 1858.91 Q2083.27 1855.34 2083.27 1848.24 Q2083.27 1841.11 2081.44 1837.57 Q2079.64 1834 2076 1834 M2076 1830.3 Q2081.81 1830.3 2084.87 1834.9 Q2087.95 1839.49 2087.95 1848.24 Q2087.95 1856.96 2084.87 1861.57 Q2081.81 1866.15 2076 1866.15 Q2070.19 1866.15 2067.11 1861.57 Q2064.06 1856.96 2064.06 1848.24 Q2064.06 1839.49 2067.11 1834.9 Q2070.19 1830.3 2076 1830.3 Z" fill="#000000" fill-rule="evenodd" fill-opacity="1" /><path clip-path="url(#clip050)" d="M2106.16 1834 Q2102.55 1834 2100.72 1837.57 Q2098.92 1841.11 2098.92 1848.24 Q2098.92 1855.34 2100.72 1858.91 Q2102.55 1862.45 2106.16 1862.45 Q2109.8 1862.45 2111.6 1858.91 Q2113.43 1855.34 2113.43 1848.24 Q2113.43 1841.11 2111.6 1837.57 Q2109.8 1834 2106.16 1834 M2106.16 1830.3 Q2111.97 1830.3 2115.03 1834.9 Q2118.11 1839.49 2118.11 1848.24 Q2118.11 1856.96 2115.03 1861.57 Q2111.97 1866.15 2106.16 1866.15 Q2100.35 1866.15 2097.28 1861.57 Q2094.22 1856.96 2094.22 1848.24 Q2094.22 1839.49 2097.28 1834.9 Q2100.35 1830.3 2106.16 1830.3 Z" fill="#000000" fill-rule="evenodd" fill-opacity="1" /><path clip-path="url(#clip050)" d="M2391.7 1861.55 L2408.01 1861.55 L2408.01 1865.48 L2386.07 1865.48 L2386.07 1861.55 Q2388.73 1858.79 2393.32 1854.16 Q2397.92 1849.51 2399.1 1848.17 Q2401.35 1845.65 2402.23 1843.91 Q2403.13 1842.15 2403.13 1840.46 Q2403.13 1837.71 2401.19 1835.97 Q2399.26 1834.23 2396.16 1834.23 Q2393.96 1834.23 2391.51 1835 Q2389.08 1835.76 2386.3 1837.31 L2386.3 1832.59 Q2389.13 1831.46 2391.58 1830.88 Q2394.03 1830.3 2396.07 1830.3 Q2401.44 1830.3 2404.63 1832.98 Q2407.83 1835.67 2407.83 1840.16 Q2407.83 1842.29 2407.02 1844.21 Q2406.23 1846.11 2404.13 1848.7 Q2403.55 1849.37 2400.45 1852.59 Q2397.34 1855.78 2391.7 1861.55 Z" fill="#000000" fill-rule="evenodd" fill-opacity="1" /><path clip-path="url(#clip050)" d="M2421.86 1861.55 L2438.18 1861.55 L2438.18 1865.48 L2416.23 1865.48 L2416.23 1861.55 Q2418.89 1858.79 2423.48 1854.16 Q2428.08 1849.51 2429.26 1848.17 Q2431.51 1845.65 2432.39 1843.91 Q2433.29 1842.15 2433.29 1840.46 Q2433.29 1837.71 2431.35 1835.97 Q2429.43 1834.23 2426.32 1834.23 Q2424.13 1834.23 2421.67 1835 Q2419.24 1835.76 2416.46 1837.31 L2416.46 1832.59 Q2419.29 1831.46 2421.74 1830.88 Q2424.2 1830.3 2426.23 1830.3 Q2431.6 1830.3 2434.8 1832.98 Q2437.99 1835.67 2437.99 1840.16 Q2437.99 1842.29 2437.18 1844.21 Q2436.39 1846.11 2434.29 1848.7 Q2433.71 1849.37 2430.61 1852.59 Q2427.51 1855.78 2421.86 1861.55 Z" fill="#000000" fill-rule="evenodd" fill-opacity="1" /><path clip-path="url(#clip050)" d="M2448.04 1830.92 L2466.39 1830.92 L2466.39 1834.86 L2452.32 1834.86 L2452.32 1843.33 Q2453.34 1842.98 2454.36 1842.82 Q2455.38 1842.64 2456.39 1842.64 Q2462.18 1842.64 2465.56 1845.81 Q2468.94 1848.98 2468.94 1854.4 Q2468.94 1859.97 2465.47 1863.08 Q2462 1866.15 2455.68 1866.15 Q2453.5 1866.15 2451.23 1865.78 Q2448.99 1865.41 2446.58 1864.67 L2446.58 1859.97 Q2448.66 1861.11 2450.88 1861.66 Q2453.11 1862.22 2455.58 1862.22 Q2459.59 1862.22 2461.93 1860.11 Q2464.26 1858.01 2464.26 1854.4 Q2464.26 1850.78 2461.93 1848.68 Q2459.59 1846.57 2455.58 1846.57 Q2453.71 1846.57 2451.83 1846.99 Q2449.98 1847.4 2448.04 1848.28 L2448.04 1830.92 Z" fill="#000000" fill-rule="evenodd" fill-opacity="1" /><polyline clip-path="url(#clip052)" style="stroke:#000000; stroke-linecap:round; stroke-linejoin:round; stroke-width:2; stroke-opacity:0.1; fill:none" points="
  173.737,1697.15 2640.76,1697.15 
  "/>
<polyline clip-path="url(#clip052)" style="stroke:#000000; stroke-linecap:round; stroke-linejoin:round; stroke-width:2; stroke-opacity:0.1; fill:none" points="
  173.737,1447.43 2640.76,1447.43 
  "/>
<polyline clip-path="url(#clip052)" style="stroke:#000000; stroke-linecap:round; stroke-linejoin:round; stroke-width:2; stroke-opacity:0.1; fill:none" points="
  173.737,1197.71 2640.76,1197.71 
  "/>
<polyline clip-path="url(#clip052)" style="stroke:#000000; stroke-linecap:round; stroke-linejoin:round; stroke-width:2; stroke-opacity:0.1; fill:none" points="
  173.737,947.985 2640.76,947.985 
  "/>
<polyline clip-path="url(#clip052)" style="stroke:#000000; stroke-linecap:round; stroke-linejoin:round; stroke-width:2; stroke-opacity:0.1; fill:none" points="
  173.737,698.264 2640.76,698.264 
  "/>
<polyline clip-path="url(#clip052)" style="stroke:#000000; stroke-linecap:round; stroke-linejoin:round; stroke-width:2; stroke-opacity:0.1; fill:none" points="
  173.737,448.542 2640.76,448.542 
  "/>
<polyline clip-path="url(#clip052)" style="stroke:#000000; stroke-linecap:round; stroke-linejoin:round; stroke-width:2; stroke-opacity:0.1; fill:none" points="
  173.737,198.821 2640.76,198.821 
  "/>
<polyline clip-path="url(#clip050)" style="stroke:#000000; stroke-linecap:round; stroke-linejoin:round; stroke-width:4; stroke-opacity:1; fill:none" points="
  173.737,1800.78 173.737,47.2441 
  "/>
<polyline clip-path="url(#clip050)" style="stroke:#000000; stroke-linecap:round; stroke-linejoin:round; stroke-width:4; stroke-opacity:1; fill:none" points="
  173.737,1697.15 192.635,1697.15 
  "/>
<polyline clip-path="url(#clip050)" style="stroke:#000000; stroke-linecap:round; stroke-linejoin:round; stroke-width:4; stroke-opacity:1; fill:none" points="
  173.737,1447.43 192.635,1447.43 
  "/>
<polyline clip-path="url(#clip050)" style="stroke:#000000; stroke-linecap:round; stroke-linejoin:round; stroke-width:4; stroke-opacity:1; fill:none" points="
  173.737,1197.71 192.635,1197.71 
  "/>
<polyline clip-path="url(#clip050)" style="stroke:#000000; stroke-linecap:round; stroke-linejoin:round; stroke-width:4; stroke-opacity:1; fill:none" points="
  173.737,947.985 192.635,947.985 
  "/>
<polyline clip-path="url(#clip050)" style="stroke:#000000; stroke-linecap:round; stroke-linejoin:round; stroke-width:4; stroke-opacity:1; fill:none" points="
  173.737,698.264 192.635,698.264 
  "/>
<polyline clip-path="url(#clip050)" style="stroke:#000000; stroke-linecap:round; stroke-linejoin:round; stroke-width:4; stroke-opacity:1; fill:none" points="
  173.737,448.542 192.635,448.542 
  "/>
<polyline clip-path="url(#clip050)" style="stroke:#000000; stroke-linecap:round; stroke-linejoin:round; stroke-width:4; stroke-opacity:1; fill:none" points="
  173.737,198.821 192.635,198.821 
  "/>
<path clip-path="url(#clip050)" d="M81.126 1679.87 L103.348 1679.87 L103.348 1681.86 L90.8019 1714.43 L85.9177 1714.43 L97.7232 1683.8 L81.126 1683.8 L81.126 1679.87 Z" fill="#000000" fill-rule="evenodd" fill-opacity="1" /><path clip-path="url(#clip050)" d="M112.515 1679.87 L130.871 1679.87 L130.871 1683.8 L116.797 1683.8 L116.797 1692.28 Q117.816 1691.93 118.834 1691.77 Q119.853 1691.58 120.871 1691.58 Q126.658 1691.58 130.038 1694.75 Q133.417 1697.92 133.417 1703.34 Q133.417 1708.92 129.945 1712.02 Q126.473 1715.1 120.154 1715.1 Q117.978 1715.1 115.709 1714.73 Q113.464 1714.36 111.056 1713.62 L111.056 1708.92 Q113.14 1710.05 115.362 1710.61 Q117.584 1711.17 120.061 1711.17 Q124.066 1711.17 126.404 1709.06 Q128.742 1706.95 128.742 1703.34 Q128.742 1699.73 126.404 1697.62 Q124.066 1695.52 120.061 1695.52 Q118.186 1695.52 116.311 1695.93 Q114.459 1696.35 112.515 1697.23 L112.515 1679.87 Z" fill="#000000" fill-rule="evenodd" fill-opacity="1" /><path clip-path="url(#clip050)" d="M51.9595 1460.77 L59.5984 1460.77 L59.5984 1434.41 L51.2882 1436.07 L51.2882 1431.81 L59.5521 1430.15 L64.228 1430.15 L64.228 1460.77 L71.8668 1460.77 L71.8668 1464.71 L51.9595 1464.71 L51.9595 1460.77 Z" fill="#000000" fill-rule="evenodd" fill-opacity="1" /><path clip-path="url(#clip050)" d="M91.3112 1433.23 Q87.7001 1433.23 85.8714 1436.79 Q84.0658 1440.33 84.0658 1447.46 Q84.0658 1454.57 85.8714 1458.13 Q87.7001 1461.68 91.3112 1461.68 Q94.9454 1461.68 96.7509 1458.13 Q98.5796 1454.57 98.5796 1447.46 Q98.5796 1440.33 96.7509 1436.79 Q94.9454 1433.23 91.3112 1433.23 M91.3112 1429.52 Q97.1213 1429.52 100.177 1434.13 Q103.256 1438.71 103.256 1447.46 Q103.256 1456.19 100.177 1460.8 Q97.1213 1465.38 91.3112 1465.38 Q85.501 1465.38 82.4223 1460.8 Q79.3668 1456.19 79.3668 1447.46 Q79.3668 1438.71 82.4223 1434.13 Q85.501 1429.52 91.3112 1429.52 Z" fill="#000000" fill-rule="evenodd" fill-opacity="1" /><path clip-path="url(#clip050)" d="M121.473 1433.23 Q117.862 1433.23 116.033 1436.79 Q114.228 1440.33 114.228 1447.46 Q114.228 1454.57 116.033 1458.13 Q117.862 1461.68 121.473 1461.68 Q125.107 1461.68 126.913 1458.13 Q128.742 1454.57 128.742 1447.46 Q128.742 1440.33 126.913 1436.79 Q125.107 1433.23 121.473 1433.23 M121.473 1429.52 Q127.283 1429.52 130.339 1434.13 Q133.417 1438.71 133.417 1447.46 Q133.417 1456.19 130.339 1460.8 Q127.283 1465.38 121.473 1465.38 Q115.663 1465.38 112.584 1460.8 Q109.529 1456.19 109.529 1447.46 Q109.529 1438.71 112.584 1434.13 Q115.663 1429.52 121.473 1429.52 Z" fill="#000000" fill-rule="evenodd" fill-opacity="1" /><path clip-path="url(#clip050)" d="M52.9549 1211.05 L60.5937 1211.05 L60.5937 1184.69 L52.2836 1186.35 L52.2836 1182.09 L60.5474 1180.43 L65.2233 1180.43 L65.2233 1211.05 L72.8622 1211.05 L72.8622 1214.99 L52.9549 1214.99 L52.9549 1211.05 Z" fill="#000000" fill-rule="evenodd" fill-opacity="1" /><path clip-path="url(#clip050)" d="M86.3343 1211.05 L102.654 1211.05 L102.654 1214.99 L80.7094 1214.99 L80.7094 1211.05 Q83.3714 1208.3 87.9547 1203.67 Q92.5612 1199.01 93.7417 1197.67 Q95.9871 1195.15 96.8667 1193.41 Q97.7695 1191.65 97.7695 1189.96 Q97.7695 1187.21 95.825 1185.47 Q93.9037 1183.74 90.8019 1183.74 Q88.6028 1183.74 86.1492 1184.5 Q83.7186 1185.26 80.9408 1186.82 L80.9408 1182.09 Q83.7649 1180.96 86.2186 1180.38 Q88.6723 1179.8 90.7093 1179.8 Q96.0797 1179.8 99.2741 1182.49 Q102.469 1185.17 102.469 1189.66 Q102.469 1191.79 101.658 1193.71 Q100.871 1195.61 98.7648 1198.2 Q98.1861 1198.88 95.0843 1202.09 Q91.9825 1205.29 86.3343 1211.05 Z" fill="#000000" fill-rule="evenodd" fill-opacity="1" /><path clip-path="url(#clip050)" d="M112.515 1180.43 L130.871 1180.43 L130.871 1184.36 L116.797 1184.36 L116.797 1192.83 Q117.816 1192.49 118.834 1192.32 Q119.853 1192.14 120.871 1192.14 Q126.658 1192.14 130.038 1195.31 Q133.417 1198.48 133.417 1203.9 Q133.417 1209.48 129.945 1212.58 Q126.473 1215.66 120.154 1215.66 Q117.978 1215.66 115.709 1215.29 Q113.464 1214.92 111.056 1214.18 L111.056 1209.48 Q113.14 1210.61 115.362 1211.17 Q117.584 1211.72 120.061 1211.72 Q124.066 1211.72 126.404 1209.62 Q128.742 1207.51 128.742 1203.9 Q128.742 1200.29 126.404 1198.18 Q124.066 1196.07 120.061 1196.07 Q118.186 1196.07 116.311 1196.49 Q114.459 1196.91 112.515 1197.79 L112.515 1180.43 Z" fill="#000000" fill-rule="evenodd" fill-opacity="1" /><path clip-path="url(#clip050)" d="M51.9595 961.33 L59.5984 961.33 L59.5984 934.964 L51.2882 936.631 L51.2882 932.372 L59.5521 930.705 L64.228 930.705 L64.228 961.33 L71.8668 961.33 L71.8668 965.265 L51.9595 965.265 L51.9595 961.33 Z" fill="#000000" fill-rule="evenodd" fill-opacity="1" /><path clip-path="url(#clip050)" d="M81.3575 930.705 L99.7139 930.705 L99.7139 934.64 L85.6399 934.64 L85.6399 943.112 Q86.6584 942.765 87.6769 942.603 Q88.6954 942.418 89.7139 942.418 Q95.501 942.418 98.8806 945.589 Q102.26 948.76 102.26 954.177 Q102.26 959.756 98.788 962.858 Q95.3158 965.936 88.9964 965.936 Q86.8204 965.936 84.5519 965.566 Q82.3066 965.196 79.8992 964.455 L79.8992 959.756 Q81.9825 960.89 84.2047 961.446 Q86.4269 962.001 88.9038 962.001 Q92.9084 962.001 95.2463 959.895 Q97.5843 957.788 97.5843 954.177 Q97.5843 950.566 95.2463 948.459 Q92.9084 946.353 88.9038 946.353 Q87.0288 946.353 85.1538 946.77 Q83.3019 947.186 81.3575 948.066 L81.3575 930.705 Z" fill="#000000" fill-rule="evenodd" fill-opacity="1" /><path clip-path="url(#clip050)" d="M121.473 933.784 Q117.862 933.784 116.033 937.348 Q114.228 940.89 114.228 948.02 Q114.228 955.126 116.033 958.691 Q117.862 962.233 121.473 962.233 Q125.107 962.233 126.913 958.691 Q128.742 955.126 128.742 948.02 Q128.742 940.89 126.913 937.348 Q125.107 933.784 121.473 933.784 M121.473 930.08 Q127.283 930.08 130.339 934.686 Q133.417 939.27 133.417 948.02 Q133.417 956.746 130.339 961.353 Q127.283 965.936 121.473 965.936 Q115.663 965.936 112.584 961.353 Q109.529 956.746 109.529 948.02 Q109.529 939.27 112.584 934.686 Q115.663 930.08 121.473 930.08 Z" fill="#000000" fill-rule="evenodd" fill-opacity="1" /><path clip-path="url(#clip050)" d="M52.9549 711.608 L60.5937 711.608 L60.5937 685.243 L52.2836 686.909 L52.2836 682.65 L60.5474 680.984 L65.2233 680.984 L65.2233 711.608 L72.8622 711.608 L72.8622 715.544 L52.9549 715.544 L52.9549 711.608 Z" fill="#000000" fill-rule="evenodd" fill-opacity="1" /><path clip-path="url(#clip050)" d="M81.126 680.984 L103.348 680.984 L103.348 682.974 L90.8019 715.544 L85.9177 715.544 L97.7232 684.919 L81.126 684.919 L81.126 680.984 Z" fill="#000000" fill-rule="evenodd" fill-opacity="1" /><path clip-path="url(#clip050)" d="M112.515 680.984 L130.871 680.984 L130.871 684.919 L116.797 684.919 L116.797 693.391 Q117.816 693.044 118.834 692.882 Q119.853 692.696 120.871 692.696 Q126.658 692.696 130.038 695.868 Q133.417 699.039 133.417 704.456 Q133.417 710.034 129.945 713.136 Q126.473 716.215 120.154 716.215 Q117.978 716.215 115.709 715.844 Q113.464 715.474 111.056 714.733 L111.056 710.034 Q113.14 711.169 115.362 711.724 Q117.584 712.28 120.061 712.28 Q124.066 712.28 126.404 710.173 Q128.742 708.067 128.742 704.456 Q128.742 700.845 126.404 698.738 Q124.066 696.632 120.061 696.632 Q118.186 696.632 116.311 697.048 Q114.459 697.465 112.515 698.345 L112.515 680.984 Z" fill="#000000" fill-rule="evenodd" fill-opacity="1" /><path clip-path="url(#clip050)" d="M55.1771 461.887 L71.4965 461.887 L71.4965 465.822 L49.5521 465.822 L49.5521 461.887 Q52.2141 459.132 56.7975 454.503 Q61.4039 449.85 62.5845 448.507 Q64.8298 445.984 65.7094 444.248 Q66.6122 442.489 66.6122 440.799 Q66.6122 438.045 64.6678 436.308 Q62.7465 434.572 59.6447 434.572 Q57.4456 434.572 54.9919 435.336 Q52.5614 436.1 49.7836 437.651 L49.7836 432.929 Q52.6077 431.795 55.0614 431.216 Q57.515 430.637 59.5521 430.637 Q64.9224 430.637 68.1168 433.322 Q71.3113 436.008 71.3113 440.498 Q71.3113 442.628 70.5011 444.549 Q69.7141 446.447 67.6076 449.04 Q67.0289 449.711 63.927 452.929 Q60.8252 456.123 55.1771 461.887 Z" fill="#000000" fill-rule="evenodd" fill-opacity="1" /><path clip-path="url(#clip050)" d="M91.3112 434.341 Q87.7001 434.341 85.8714 437.906 Q84.0658 441.447 84.0658 448.577 Q84.0658 455.683 85.8714 459.248 Q87.7001 462.79 91.3112 462.79 Q94.9454 462.79 96.7509 459.248 Q98.5796 455.683 98.5796 448.577 Q98.5796 441.447 96.7509 437.906 Q94.9454 434.341 91.3112 434.341 M91.3112 430.637 Q97.1213 430.637 100.177 435.244 Q103.256 439.827 103.256 448.577 Q103.256 457.304 100.177 461.91 Q97.1213 466.493 91.3112 466.493 Q85.501 466.493 82.4223 461.91 Q79.3668 457.304 79.3668 448.577 Q79.3668 439.827 82.4223 435.244 Q85.501 430.637 91.3112 430.637 Z" fill="#000000" fill-rule="evenodd" fill-opacity="1" /><path clip-path="url(#clip050)" d="M121.473 434.341 Q117.862 434.341 116.033 437.906 Q114.228 441.447 114.228 448.577 Q114.228 455.683 116.033 459.248 Q117.862 462.79 121.473 462.79 Q125.107 462.79 126.913 459.248 Q128.742 455.683 128.742 448.577 Q128.742 441.447 126.913 437.906 Q125.107 434.341 121.473 434.341 M121.473 430.637 Q127.283 430.637 130.339 435.244 Q133.417 439.827 133.417 448.577 Q133.417 457.304 130.339 461.91 Q127.283 466.493 121.473 466.493 Q115.663 466.493 112.584 461.91 Q109.529 457.304 109.529 448.577 Q109.529 439.827 112.584 435.244 Q115.663 430.637 121.473 430.637 Z" fill="#000000" fill-rule="evenodd" fill-opacity="1" /><path clip-path="url(#clip050)" d="M56.1725 212.166 L72.4918 212.166 L72.4918 216.101 L50.5475 216.101 L50.5475 212.166 Q53.2095 209.411 57.7928 204.781 Q62.3993 200.129 63.5798 198.786 Q65.8252 196.263 66.7048 194.527 Q67.6076 192.768 67.6076 191.078 Q67.6076 188.323 65.6632 186.587 Q63.7419 184.851 60.64 184.851 Q58.441 184.851 55.9873 185.615 Q53.5567 186.379 50.779 187.93 L50.779 183.207 Q53.603 182.073 56.0567 181.495 Q58.5104 180.916 60.5474 180.916 Q65.9178 180.916 69.1122 183.601 Q72.3066 186.286 72.3066 190.777 Q72.3066 192.906 71.4965 194.828 Q70.7094 196.726 68.6029 199.319 Q68.0242 199.99 64.9224 203.207 Q61.8206 206.402 56.1725 212.166 Z" fill="#000000" fill-rule="evenodd" fill-opacity="1" /><path clip-path="url(#clip050)" d="M86.3343 212.166 L102.654 212.166 L102.654 216.101 L80.7094 216.101 L80.7094 212.166 Q83.3714 209.411 87.9547 204.781 Q92.5612 200.129 93.7417 198.786 Q95.9871 196.263 96.8667 194.527 Q97.7695 192.768 97.7695 191.078 Q97.7695 188.323 95.825 186.587 Q93.9037 184.851 90.8019 184.851 Q88.6028 184.851 86.1492 185.615 Q83.7186 186.379 80.9408 187.93 L80.9408 183.207 Q83.7649 182.073 86.2186 181.495 Q88.6723 180.916 90.7093 180.916 Q96.0797 180.916 99.2741 183.601 Q102.469 186.286 102.469 190.777 Q102.469 192.906 101.658 194.828 Q100.871 196.726 98.7648 199.319 Q98.1861 199.99 95.0843 203.207 Q91.9825 206.402 86.3343 212.166 Z" fill="#000000" fill-rule="evenodd" fill-opacity="1" /><path clip-path="url(#clip050)" d="M112.515 181.541 L130.871 181.541 L130.871 185.476 L116.797 185.476 L116.797 193.948 Q117.816 193.601 118.834 193.439 Q119.853 193.254 120.871 193.254 Q126.658 193.254 130.038 196.425 Q133.417 199.596 133.417 205.013 Q133.417 210.592 129.945 213.693 Q126.473 216.772 120.154 216.772 Q117.978 216.772 115.709 216.402 Q113.464 216.031 111.056 215.291 L111.056 210.592 Q113.14 211.726 115.362 212.281 Q117.584 212.837 120.061 212.837 Q124.066 212.837 126.404 210.73 Q128.742 208.624 128.742 205.013 Q128.742 201.402 126.404 199.295 Q124.066 197.189 120.061 197.189 Q118.186 197.189 116.311 197.606 Q114.459 198.022 112.515 198.902 L112.515 181.541 Z" fill="#000000" fill-rule="evenodd" fill-opacity="1" /><polyline clip-path="url(#clip052)" style="stroke:#6b9e32; stroke-linecap:round; stroke-linejoin:round; stroke-width:4; stroke-opacity:1; fill:none" points="
  243.559,1751.15 2570.93,96.8724 
  "/>
<circle clip-path="url(#clip052)" cx="243.559" cy="1657.19" r="14.4" fill="#009af9" fill-rule="evenodd" fill-opacity="1" stroke="#000000" stroke-opacity="1" stroke-width="3.84"/>
<circle clip-path="url(#clip052)" cx="678.217" cy="1337.55" r="14.4" fill="#009af9" fill-rule="evenodd" fill-opacity="1" stroke="#000000" stroke-opacity="1" stroke-width="3.84"/>
<circle clip-path="url(#clip052)" cx="996.616" cy="1337.55" r="14.4" fill="#009af9" fill-rule="evenodd" fill-opacity="1" stroke="#000000" stroke-opacity="1" stroke-width="3.84"/>
<circle clip-path="url(#clip052)" cx="1274.05" cy="1227.67" r="14.4" fill="#009af9" fill-rule="evenodd" fill-opacity="1" stroke="#000000" stroke-opacity="1" stroke-width="3.84"/>
<circle clip-path="url(#clip052)" cx="1540.44" cy="1117.8" r="14.4" fill="#009af9" fill-rule="evenodd" fill-opacity="1" stroke="#000000" stroke-opacity="1" stroke-width="3.84"/>
<circle clip-path="url(#clip052)" cx="1817.88" cy="888.052" r="14.4" fill="#009af9" fill-rule="evenodd" fill-opacity="1" stroke="#000000" stroke-opacity="1" stroke-width="3.84"/>
<circle clip-path="url(#clip052)" cx="2136.28" cy="338.665" r="14.4" fill="#009af9" fill-rule="evenodd" fill-opacity="1" stroke="#000000" stroke-opacity="1" stroke-width="3.84"/>
<circle clip-path="url(#clip052)" cx="2570.93" cy="98.9323" r="14.4" fill="#009af9" fill-rule="evenodd" fill-opacity="1" stroke="#000000" stroke-opacity="1" stroke-width="3.84"/>
</svg>
