<?xml version="1.0" encoding="utf-8"?>
<svg xmlns="http://www.w3.org/2000/svg" xmlns:xlink="http://www.w3.org/1999/xlink" width="288" height="192" viewBox="0 0 1152 768">
<defs>
  <clipPath id="clip170">
    <rect x="0" y="0" width="1152" height="768"/>
  </clipPath>
</defs>
<path clip-path="url(#clip170)" d="
M0 768 L1152 768 L1152 0 L0 0  Z
  " fill="#ffffff" fill-rule="evenodd" fill-opacity="1"/>
<defs>
  <clipPath id="clip171">
    <rect x="230" y="0" width="807" height="768"/>
  </clipPath>
</defs>
<path clip-path="url(#clip170)" d="
M211.618 662.768 L1104.76 662.768 L1104.76 47.2441 L211.618 47.2441  Z
  " fill="#ffffff" fill-rule="evenodd" fill-opacity="1"/>
<defs>
  <clipPath id="clip172">
    <rect x="211" y="47" width="894" height="617"/>
  </clipPath>
</defs>
<polyline clip-path="url(#clip172)" style="stroke:#000000; stroke-linecap:round; stroke-linejoin:round; stroke-width:2; stroke-opacity:0.1; fill:none" points="
  308.144,662.768 308.144,47.2441 
  "/>
<polyline clip-path="url(#clip172)" style="stroke:#000000; stroke-linecap:round; stroke-linejoin:round; stroke-width:2; stroke-opacity:0.1; fill:none" points="
  445.333,662.768 445.333,47.2441 
  "/>
<polyline clip-path="url(#clip172)" style="stroke:#000000; stroke-linecap:round; stroke-linejoin:round; stroke-width:2; stroke-opacity:0.1; fill:none" points="
  582.521,662.768 582.521,47.2441 
  "/>
<polyline clip-path="url(#clip172)" style="stroke:#000000; stroke-linecap:round; stroke-linejoin:round; stroke-width:2; stroke-opacity:0.1; fill:none" points="
  719.709,662.768 719.709,47.2441 
  "/>
<polyline clip-path="url(#clip172)" style="stroke:#000000; stroke-linecap:round; stroke-linejoin:round; stroke-width:2; stroke-opacity:0.1; fill:none" points="
  856.897,662.768 856.897,47.2441 
  "/>
<polyline clip-path="url(#clip172)" style="stroke:#000000; stroke-linecap:round; stroke-linejoin:round; stroke-width:2; stroke-opacity:0.1; fill:none" points="
  994.086,662.768 994.086,47.2441 
  "/>
<polyline clip-path="url(#clip170)" style="stroke:#000000; stroke-linecap:round; stroke-linejoin:round; stroke-width:4; stroke-opacity:1; fill:none" points="
  211.618,662.768 1104.76,662.768 
  "/>
<polyline clip-path="url(#clip170)" style="stroke:#000000; stroke-linecap:round; stroke-linejoin:round; stroke-width:4; stroke-opacity:1; fill:none" points="
  308.144,662.768 308.144,643.87 
  "/>
<polyline clip-path="url(#clip170)" style="stroke:#000000; stroke-linecap:round; stroke-linejoin:round; stroke-width:4; stroke-opacity:1; fill:none" points="
  445.333,662.768 445.333,643.87 
  "/>
<polyline clip-path="url(#clip170)" style="stroke:#000000; stroke-linecap:round; stroke-linejoin:round; stroke-width:4; stroke-opacity:1; fill:none" points="
  582.521,662.768 582.521,643.87 
  "/>
<polyline clip-path="url(#clip170)" style="stroke:#000000; stroke-linecap:round; stroke-linejoin:round; stroke-width:4; stroke-opacity:1; fill:none" points="
  719.709,662.768 719.709,643.87 
  "/>
<polyline clip-path="url(#clip170)" style="stroke:#000000; stroke-linecap:round; stroke-linejoin:round; stroke-width:4; stroke-opacity:1; fill:none" points="
  856.897,662.768 856.897,643.87 
  "/>
<polyline clip-path="url(#clip170)" style="stroke:#000000; stroke-linecap:round; stroke-linejoin:round; stroke-width:4; stroke-opacity:1; fill:none" points="
  994.086,662.768 994.086,643.87 
  "/>
<path clip-path="url(#clip170)" d="M270.946 683.703 Q267.334 683.703 265.506 687.267 Q263.7 690.809 263.7 697.939 Q263.7 705.045 265.506 708.61 Q267.334 712.151 270.946 712.151 Q274.58 712.151 276.385 708.61 Q278.214 705.045 278.214 697.939 Q278.214 690.809 276.385 687.267 Q274.58 683.703 270.946 683.703 M270.946 679.999 Q276.756 679.999 279.811 684.605 Q282.89 689.189 282.89 697.939 Q282.89 706.665 279.811 711.272 Q276.756 715.855 270.946 715.855 Q265.135 715.855 262.057 711.272 Q259.001 706.665 259.001 697.939 Q259.001 689.189 262.057 684.605 Q265.135 679.999 270.946 679.999 Z" fill="#000000" fill-rule="evenodd" fill-opacity="1" /><path clip-path="url(#clip170)" d="M291.107 709.304 L295.992 709.304 L295.992 715.184 L291.107 715.184 L291.107 709.304 Z" fill="#000000" fill-rule="evenodd" fill-opacity="1" /><path clip-path="url(#clip170)" d="M304.996 680.624 L327.218 680.624 L327.218 682.615 L314.672 715.184 L309.788 715.184 L321.593 684.559 L304.996 684.559 L304.996 680.624 Z" fill="#000000" fill-rule="evenodd" fill-opacity="1" /><path clip-path="url(#clip170)" d="M336.385 680.624 L354.741 680.624 L354.741 684.559 L340.667 684.559 L340.667 693.031 Q341.686 692.684 342.704 692.522 Q343.723 692.337 344.741 692.337 Q350.528 692.337 353.908 695.508 Q357.288 698.679 357.288 704.096 Q357.288 709.675 353.815 712.776 Q350.343 715.855 344.024 715.855 Q341.848 715.855 339.579 715.485 Q337.334 715.114 334.927 714.374 L334.927 709.675 Q337.01 710.809 339.232 711.364 Q341.454 711.92 343.931 711.92 Q347.936 711.92 350.274 709.814 Q352.612 707.707 352.612 704.096 Q352.612 700.485 350.274 698.378 Q347.936 696.272 343.931 696.272 Q342.056 696.272 340.181 696.689 Q338.329 697.105 336.385 697.985 L336.385 680.624 Z" fill="#000000" fill-rule="evenodd" fill-opacity="1" /><path clip-path="url(#clip170)" d="M397.405 711.249 L405.044 711.249 L405.044 684.883 L396.733 686.55 L396.733 682.291 L404.997 680.624 L409.673 680.624 L409.673 711.249 L417.312 711.249 L417.312 715.184 L397.405 715.184 L397.405 711.249 Z" fill="#000000" fill-rule="evenodd" fill-opacity="1" /><path clip-path="url(#clip170)" d="M426.756 709.304 L431.641 709.304 L431.641 715.184 L426.756 715.184 L426.756 709.304 Z" fill="#000000" fill-rule="evenodd" fill-opacity="1" /><path clip-path="url(#clip170)" d="M451.826 683.703 Q448.215 683.703 446.386 687.267 Q444.58 690.809 444.58 697.939 Q444.58 705.045 446.386 708.61 Q448.215 712.151 451.826 712.151 Q455.46 712.151 457.265 708.61 Q459.094 705.045 459.094 697.939 Q459.094 690.809 457.265 687.267 Q455.46 683.703 451.826 683.703 M451.826 679.999 Q457.636 679.999 460.691 684.605 Q463.77 689.189 463.77 697.939 Q463.77 706.665 460.691 711.272 Q457.636 715.855 451.826 715.855 Q446.016 715.855 442.937 711.272 Q439.881 706.665 439.881 697.939 Q439.881 689.189 442.937 684.605 Q446.016 679.999 451.826 679.999 Z" fill="#000000" fill-rule="evenodd" fill-opacity="1" /><path clip-path="url(#clip170)" d="M481.988 683.703 Q478.376 683.703 476.548 687.267 Q474.742 690.809 474.742 697.939 Q474.742 705.045 476.548 708.61 Q478.376 712.151 481.988 712.151 Q485.622 712.151 487.427 708.61 Q489.256 705.045 489.256 697.939 Q489.256 690.809 487.427 687.267 Q485.622 683.703 481.988 683.703 M481.988 679.999 Q487.798 679.999 490.853 684.605 Q493.932 689.189 493.932 697.939 Q493.932 706.665 490.853 711.272 Q487.798 715.855 481.988 715.855 Q476.177 715.855 473.099 711.272 Q470.043 706.665 470.043 697.939 Q470.043 689.189 473.099 684.605 Q476.177 679.999 481.988 679.999 Z" fill="#000000" fill-rule="evenodd" fill-opacity="1" /><path clip-path="url(#clip170)" d="M535.091 711.249 L542.729 711.249 L542.729 684.883 L534.419 686.55 L534.419 682.291 L542.683 680.624 L547.359 680.624 L547.359 711.249 L554.998 711.249 L554.998 715.184 L535.091 715.184 L535.091 711.249 Z" fill="#000000" fill-rule="evenodd" fill-opacity="1" /><path clip-path="url(#clip170)" d="M564.442 709.304 L569.327 709.304 L569.327 715.184 L564.442 715.184 L564.442 709.304 Z" fill="#000000" fill-rule="evenodd" fill-opacity="1" /><path clip-path="url(#clip170)" d="M583.539 711.249 L599.859 711.249 L599.859 715.184 L577.914 715.184 L577.914 711.249 Q580.576 708.494 585.16 703.864 Q589.766 699.212 590.947 697.869 Q593.192 695.346 594.072 693.61 Q594.975 691.851 594.975 690.161 Q594.975 687.406 593.03 685.67 Q591.109 683.934 588.007 683.934 Q585.808 683.934 583.354 684.698 Q580.924 685.462 578.146 687.013 L578.146 682.291 Q580.97 681.156 583.424 680.578 Q585.877 679.999 587.914 679.999 Q593.285 679.999 596.479 682.684 Q599.674 685.369 599.674 689.86 Q599.674 691.99 598.863 693.911 Q598.076 695.809 595.97 698.402 Q595.391 699.073 592.289 702.29 Q589.188 705.485 583.539 711.249 Z" fill="#000000" fill-rule="evenodd" fill-opacity="1" /><path clip-path="url(#clip170)" d="M609.72 680.624 L628.076 680.624 L628.076 684.559 L614.002 684.559 L614.002 693.031 Q615.021 692.684 616.039 692.522 Q617.058 692.337 618.076 692.337 Q623.863 692.337 627.243 695.508 Q630.623 698.679 630.623 704.096 Q630.623 709.675 627.15 712.776 Q623.678 715.855 617.359 715.855 Q615.183 715.855 612.914 715.485 Q610.669 715.114 608.262 714.374 L608.262 709.675 Q610.345 710.809 612.567 711.364 Q614.789 711.92 617.266 711.92 Q621.271 711.92 623.609 709.814 Q625.947 707.707 625.947 704.096 Q625.947 700.485 623.609 698.378 Q621.271 696.272 617.266 696.272 Q615.391 696.272 613.516 696.689 Q611.664 697.105 609.72 697.985 L609.72 680.624 Z" fill="#000000" fill-rule="evenodd" fill-opacity="1" /><path clip-path="url(#clip170)" d="M671.781 711.249 L679.42 711.249 L679.42 684.883 L671.11 686.55 L671.11 682.291 L679.374 680.624 L684.05 680.624 L684.05 711.249 L691.688 711.249 L691.688 715.184 L671.781 715.184 L671.781 711.249 Z" fill="#000000" fill-rule="evenodd" fill-opacity="1" /><path clip-path="url(#clip170)" d="M701.133 709.304 L706.017 709.304 L706.017 715.184 L701.133 715.184 L701.133 709.304 Z" fill="#000000" fill-rule="evenodd" fill-opacity="1" /><path clip-path="url(#clip170)" d="M716.249 680.624 L734.605 680.624 L734.605 684.559 L720.531 684.559 L720.531 693.031 Q721.549 692.684 722.568 692.522 Q723.586 692.337 724.605 692.337 Q730.392 692.337 733.772 695.508 Q737.151 698.679 737.151 704.096 Q737.151 709.675 733.679 712.776 Q730.207 715.855 723.887 715.855 Q721.711 715.855 719.443 715.485 Q717.198 715.114 714.79 714.374 L714.79 709.675 Q716.874 710.809 719.096 711.364 Q721.318 711.92 723.795 711.92 Q727.799 711.92 730.137 709.814 Q732.475 707.707 732.475 704.096 Q732.475 700.485 730.137 698.378 Q727.799 696.272 723.795 696.272 Q721.92 696.272 720.045 696.689 Q718.193 697.105 716.249 697.985 L716.249 680.624 Z" fill="#000000" fill-rule="evenodd" fill-opacity="1" /><path clip-path="url(#clip170)" d="M756.364 683.703 Q752.753 683.703 750.924 687.267 Q749.119 690.809 749.119 697.939 Q749.119 705.045 750.924 708.61 Q752.753 712.151 756.364 712.151 Q759.998 712.151 761.804 708.61 Q763.633 705.045 763.633 697.939 Q763.633 690.809 761.804 687.267 Q759.998 683.703 756.364 683.703 M756.364 679.999 Q762.174 679.999 765.23 684.605 Q768.308 689.189 768.308 697.939 Q768.308 706.665 765.23 711.272 Q762.174 715.855 756.364 715.855 Q750.554 715.855 747.475 711.272 Q744.42 706.665 744.42 697.939 Q744.42 689.189 747.475 684.605 Q750.554 679.999 756.364 679.999 Z" fill="#000000" fill-rule="evenodd" fill-opacity="1" /><path clip-path="url(#clip170)" d="M809.467 711.249 L817.106 711.249 L817.106 684.883 L808.796 686.55 L808.796 682.291 L817.06 680.624 L821.736 680.624 L821.736 711.249 L829.374 711.249 L829.374 715.184 L809.467 715.184 L809.467 711.249 Z" fill="#000000" fill-rule="evenodd" fill-opacity="1" /><path clip-path="url(#clip170)" d="M838.819 709.304 L843.703 709.304 L843.703 715.184 L838.819 715.184 L838.819 709.304 Z" fill="#000000" fill-rule="evenodd" fill-opacity="1" /><path clip-path="url(#clip170)" d="M852.708 680.624 L874.93 680.624 L874.93 682.615 L862.383 715.184 L857.499 715.184 L869.305 684.559 L852.708 684.559 L852.708 680.624 Z" fill="#000000" fill-rule="evenodd" fill-opacity="1" /><path clip-path="url(#clip170)" d="M884.096 680.624 L902.453 680.624 L902.453 684.559 L888.379 684.559 L888.379 693.031 Q889.397 692.684 890.416 692.522 Q891.434 692.337 892.453 692.337 Q898.24 692.337 901.619 695.508 Q904.999 698.679 904.999 704.096 Q904.999 709.675 901.527 712.776 Q898.055 715.855 891.735 715.855 Q889.559 715.855 887.291 715.485 Q885.045 715.114 882.638 714.374 L882.638 709.675 Q884.721 710.809 886.944 711.364 Q889.166 711.92 891.643 711.92 Q895.647 711.92 897.985 709.814 Q900.323 707.707 900.323 704.096 Q900.323 700.485 897.985 698.378 Q895.647 696.272 891.643 696.272 Q889.768 696.272 887.893 696.689 Q886.041 697.105 884.096 697.985 L884.096 680.624 Z" fill="#000000" fill-rule="evenodd" fill-opacity="1" /><path clip-path="url(#clip170)" d="M950.243 711.249 L966.563 711.249 L966.563 715.184 L944.618 715.184 L944.618 711.249 Q947.28 708.494 951.864 703.864 Q956.47 699.212 957.651 697.869 Q959.896 695.346 960.776 693.61 Q961.678 691.851 961.678 690.161 Q961.678 687.406 959.734 685.67 Q957.813 683.934 954.711 683.934 Q952.512 683.934 950.058 684.698 Q947.628 685.462 944.85 687.013 L944.85 682.291 Q947.674 681.156 950.128 680.578 Q952.581 679.999 954.618 679.999 Q959.989 679.999 963.183 682.684 Q966.377 685.369 966.377 689.86 Q966.377 691.99 965.567 693.911 Q964.78 695.809 962.674 698.402 Q962.095 699.073 958.993 702.29 Q955.891 705.485 950.243 711.249 Z" fill="#000000" fill-rule="evenodd" fill-opacity="1" /><path clip-path="url(#clip170)" d="M976.377 709.304 L981.262 709.304 L981.262 715.184 L976.377 715.184 L976.377 709.304 Z" fill="#000000" fill-rule="evenodd" fill-opacity="1" /><path clip-path="url(#clip170)" d="M1001.45 683.703 Q997.836 683.703 996.007 687.267 Q994.201 690.809 994.201 697.939 Q994.201 705.045 996.007 708.61 Q997.836 712.151 1001.45 712.151 Q1005.08 712.151 1006.89 708.61 Q1008.72 705.045 1008.72 697.939 Q1008.72 690.809 1006.89 687.267 Q1005.08 683.703 1001.45 683.703 M1001.45 679.999 Q1007.26 679.999 1010.31 684.605 Q1013.39 689.189 1013.39 697.939 Q1013.39 706.665 1010.31 711.272 Q1007.26 715.855 1001.45 715.855 Q995.637 715.855 992.558 711.272 Q989.502 706.665 989.502 697.939 Q989.502 689.189 992.558 684.605 Q995.637 679.999 1001.45 679.999 Z" fill="#000000" fill-rule="evenodd" fill-opacity="1" /><path clip-path="url(#clip170)" d="M1031.61 683.703 Q1028 683.703 1026.17 687.267 Q1024.36 690.809 1024.36 697.939 Q1024.36 705.045 1026.17 708.61 Q1028 712.151 1031.61 712.151 Q1035.24 712.151 1037.05 708.61 Q1038.88 705.045 1038.88 697.939 Q1038.88 690.809 1037.05 687.267 Q1035.24 683.703 1031.61 683.703 M1031.61 679.999 Q1037.42 679.999 1040.47 684.605 Q1043.55 689.189 1043.55 697.939 Q1043.55 706.665 1040.47 711.272 Q1037.42 715.855 1031.61 715.855 Q1025.8 715.855 1022.72 711.272 Q1019.66 706.665 1019.66 697.939 Q1019.66 689.189 1022.72 684.605 Q1025.8 679.999 1031.61 679.999 Z" fill="#000000" fill-rule="evenodd" fill-opacity="1" /><polyline clip-path="url(#clip172)" style="stroke:#000000; stroke-linecap:round; stroke-linejoin:round; stroke-width:2; stroke-opacity:0.1; fill:none" points="
  211.618,632.865 1104.76,632.865 
  "/>
<polyline clip-path="url(#clip172)" style="stroke:#000000; stroke-linecap:round; stroke-linejoin:round; stroke-width:2; stroke-opacity:0.1; fill:none" points="
  211.618,510.456 1104.76,510.456 
  "/>
<polyline clip-path="url(#clip172)" style="stroke:#000000; stroke-linecap:round; stroke-linejoin:round; stroke-width:2; stroke-opacity:0.1; fill:none" points="
  211.618,388.048 1104.76,388.048 
  "/>
<polyline clip-path="url(#clip172)" style="stroke:#000000; stroke-linecap:round; stroke-linejoin:round; stroke-width:2; stroke-opacity:0.1; fill:none" points="
  211.618,265.64 1104.76,265.64 
  "/>
<polyline clip-path="url(#clip172)" style="stroke:#000000; stroke-linecap:round; stroke-linejoin:round; stroke-width:2; stroke-opacity:0.1; fill:none" points="
  211.618,143.232 1104.76,143.232 
  "/>
<polyline clip-path="url(#clip170)" style="stroke:#000000; stroke-linecap:round; stroke-linejoin:round; stroke-width:4; stroke-opacity:1; fill:none" points="
  211.618,662.768 211.618,47.2441 
  "/>
<polyline clip-path="url(#clip170)" style="stroke:#000000; stroke-linecap:round; stroke-linejoin:round; stroke-width:4; stroke-opacity:1; fill:none" points="
  211.618,632.865 230.516,632.865 
  "/>
<polyline clip-path="url(#clip170)" style="stroke:#000000; stroke-linecap:round; stroke-linejoin:round; stroke-width:4; stroke-opacity:1; fill:none" points="
  211.618,510.456 230.516,510.456 
  "/>
<polyline clip-path="url(#clip170)" style="stroke:#000000; stroke-linecap:round; stroke-linejoin:round; stroke-width:4; stroke-opacity:1; fill:none" points="
  211.618,388.048 230.516,388.048 
  "/>
<polyline clip-path="url(#clip170)" style="stroke:#000000; stroke-linecap:round; stroke-linejoin:round; stroke-width:4; stroke-opacity:1; fill:none" points="
  211.618,265.64 230.516,265.64 
  "/>
<polyline clip-path="url(#clip170)" style="stroke:#000000; stroke-linecap:round; stroke-linejoin:round; stroke-width:4; stroke-opacity:1; fill:none" points="
  211.618,143.232 230.516,143.232 
  "/>
<path clip-path="url(#clip170)" d="M57.2321 633.316 L86.9079 633.316 L86.9079 637.251 L57.2321 637.251 L57.2321 633.316 Z" fill="#000000" fill-rule="evenodd" fill-opacity="1" /><path clip-path="url(#clip170)" d="M107 618.663 Q103.389 618.663 101.561 622.228 Q99.755 625.77 99.755 632.899 Q99.755 640.006 101.561 643.571 Q103.389 647.112 107 647.112 Q110.635 647.112 112.44 643.571 Q114.269 640.006 114.269 632.899 Q114.269 625.77 112.44 622.228 Q110.635 618.663 107 618.663 M107 614.96 Q112.811 614.96 115.866 619.566 Q118.945 624.149 118.945 632.899 Q118.945 641.626 115.866 646.233 Q112.811 650.816 107 650.816 Q101.19 650.816 98.1115 646.233 Q95.056 641.626 95.056 632.899 Q95.056 624.149 98.1115 619.566 Q101.19 614.96 107 614.96 Z" fill="#000000" fill-rule="evenodd" fill-opacity="1" /><path clip-path="url(#clip170)" d="M127.162 644.265 L132.047 644.265 L132.047 650.145 L127.162 650.145 L127.162 644.265 Z" fill="#000000" fill-rule="evenodd" fill-opacity="1" /><path clip-path="url(#clip170)" d="M142.278 615.585 L160.634 615.585 L160.634 619.52 L146.56 619.52 L146.56 627.992 Q147.579 627.645 148.597 627.483 Q149.616 627.298 150.634 627.298 Q156.421 627.298 159.801 630.469 Q163.181 633.64 163.181 639.057 Q163.181 644.635 159.708 647.737 Q156.236 650.816 149.917 650.816 Q147.741 650.816 145.472 650.446 Q143.227 650.075 140.82 649.335 L140.82 644.635 Q142.903 645.77 145.125 646.325 Q147.347 646.881 149.824 646.881 Q153.829 646.881 156.167 644.774 Q158.505 642.668 158.505 639.057 Q158.505 635.446 156.167 633.339 Q153.829 631.233 149.824 631.233 Q147.949 631.233 146.074 631.649 Q144.222 632.066 142.278 632.946 L142.278 615.585 Z" fill="#000000" fill-rule="evenodd" fill-opacity="1" /><path clip-path="url(#clip170)" d="M182.393 618.663 Q178.782 618.663 176.954 622.228 Q175.148 625.77 175.148 632.899 Q175.148 640.006 176.954 643.571 Q178.782 647.112 182.393 647.112 Q186.028 647.112 187.833 643.571 Q189.662 640.006 189.662 632.899 Q189.662 625.77 187.833 622.228 Q186.028 618.663 182.393 618.663 M182.393 614.96 Q188.204 614.96 191.259 619.566 Q194.338 624.149 194.338 632.899 Q194.338 641.626 191.259 646.233 Q188.204 650.816 182.393 650.816 Q176.583 650.816 173.505 646.233 Q170.449 641.626 170.449 632.899 Q170.449 624.149 173.505 619.566 Q176.583 614.96 182.393 614.96 Z" fill="#000000" fill-rule="evenodd" fill-opacity="1" /><path clip-path="url(#clip170)" d="M58.2275 510.908 L87.9033 510.908 L87.9033 514.843 L58.2275 514.843 L58.2275 510.908 Z" fill="#000000" fill-rule="evenodd" fill-opacity="1" /><path clip-path="url(#clip170)" d="M107.996 496.255 Q104.385 496.255 102.556 499.82 Q100.75 503.362 100.75 510.491 Q100.75 517.598 102.556 521.162 Q104.385 524.704 107.996 524.704 Q111.63 524.704 113.436 521.162 Q115.264 517.598 115.264 510.491 Q115.264 503.362 113.436 499.82 Q111.63 496.255 107.996 496.255 M107.996 492.551 Q113.806 492.551 116.861 497.158 Q119.94 501.741 119.94 510.491 Q119.94 519.218 116.861 523.824 Q113.806 528.408 107.996 528.408 Q102.186 528.408 99.1069 523.824 Q96.0514 519.218 96.0514 510.491 Q96.0514 501.741 99.1069 497.158 Q102.186 492.551 107.996 492.551 Z" fill="#000000" fill-rule="evenodd" fill-opacity="1" /><path clip-path="url(#clip170)" d="M128.158 521.857 L133.042 521.857 L133.042 527.736 L128.158 527.736 L128.158 521.857 Z" fill="#000000" fill-rule="evenodd" fill-opacity="1" /><path clip-path="url(#clip170)" d="M147.255 523.801 L163.574 523.801 L163.574 527.736 L141.63 527.736 L141.63 523.801 Q144.292 521.047 148.875 516.417 Q153.482 511.764 154.662 510.422 Q156.908 507.899 157.787 506.162 Q158.69 504.403 158.69 502.713 Q158.69 499.959 156.745 498.223 Q154.824 496.487 151.722 496.487 Q149.523 496.487 147.07 497.25 Q144.639 498.014 141.861 499.565 L141.861 494.843 Q144.685 493.709 147.139 493.13 Q149.593 492.551 151.63 492.551 Q157 492.551 160.195 495.237 Q163.389 497.922 163.389 502.412 Q163.389 504.542 162.579 506.463 Q161.792 508.362 159.685 510.954 Q159.107 511.625 156.005 514.843 Q152.903 518.037 147.255 523.801 Z" fill="#000000" fill-rule="evenodd" fill-opacity="1" /><path clip-path="url(#clip170)" d="M173.435 493.176 L191.792 493.176 L191.792 497.112 L177.718 497.112 L177.718 505.584 Q178.736 505.237 179.755 505.075 Q180.773 504.889 181.792 504.889 Q187.579 504.889 190.958 508.061 Q194.338 511.232 194.338 516.649 Q194.338 522.227 190.866 525.329 Q187.393 528.408 181.074 528.408 Q178.898 528.408 176.63 528.037 Q174.384 527.667 171.977 526.926 L171.977 522.227 Q174.06 523.361 176.282 523.917 Q178.505 524.473 180.981 524.473 Q184.986 524.473 187.324 522.366 Q189.662 520.26 189.662 516.649 Q189.662 513.037 187.324 510.931 Q184.986 508.824 180.981 508.824 Q179.106 508.824 177.231 509.241 Q175.38 509.658 173.435 510.537 L173.435 493.176 Z" fill="#000000" fill-rule="evenodd" fill-opacity="1" /><path clip-path="url(#clip170)" d="M107 373.847 Q103.389 373.847 101.561 377.412 Q99.755 380.953 99.755 388.083 Q99.755 395.189 101.561 398.754 Q103.389 402.296 107 402.296 Q110.635 402.296 112.44 398.754 Q114.269 395.189 114.269 388.083 Q114.269 380.953 112.44 377.412 Q110.635 373.847 107 373.847 M107 370.143 Q112.811 370.143 115.866 374.75 Q118.945 379.333 118.945 388.083 Q118.945 396.81 115.866 401.416 Q112.811 405.999 107 405.999 Q101.19 405.999 98.1115 401.416 Q95.056 396.81 95.056 388.083 Q95.056 379.333 98.1115 374.75 Q101.19 370.143 107 370.143 Z" fill="#000000" fill-rule="evenodd" fill-opacity="1" /><path clip-path="url(#clip170)" d="M127.162 399.449 L132.047 399.449 L132.047 405.328 L127.162 405.328 L127.162 399.449 Z" fill="#000000" fill-rule="evenodd" fill-opacity="1" /><path clip-path="url(#clip170)" d="M152.232 373.847 Q148.621 373.847 146.792 377.412 Q144.986 380.953 144.986 388.083 Q144.986 395.189 146.792 398.754 Q148.621 402.296 152.232 402.296 Q155.866 402.296 157.671 398.754 Q159.5 395.189 159.5 388.083 Q159.5 380.953 157.671 377.412 Q155.866 373.847 152.232 373.847 M152.232 370.143 Q158.042 370.143 161.097 374.75 Q164.176 379.333 164.176 388.083 Q164.176 396.81 161.097 401.416 Q158.042 405.999 152.232 405.999 Q146.421 405.999 143.343 401.416 Q140.287 396.81 140.287 388.083 Q140.287 379.333 143.343 374.75 Q146.421 370.143 152.232 370.143 Z" fill="#000000" fill-rule="evenodd" fill-opacity="1" /><path clip-path="url(#clip170)" d="M182.393 373.847 Q178.782 373.847 176.954 377.412 Q175.148 380.953 175.148 388.083 Q175.148 395.189 176.954 398.754 Q178.782 402.296 182.393 402.296 Q186.028 402.296 187.833 398.754 Q189.662 395.189 189.662 388.083 Q189.662 380.953 187.833 377.412 Q186.028 373.847 182.393 373.847 M182.393 370.143 Q188.204 370.143 191.259 374.75 Q194.338 379.333 194.338 388.083 Q194.338 396.81 191.259 401.416 Q188.204 405.999 182.393 405.999 Q176.583 405.999 173.505 401.416 Q170.449 396.81 170.449 388.083 Q170.449 379.333 173.505 374.75 Q176.583 370.143 182.393 370.143 Z" fill="#000000" fill-rule="evenodd" fill-opacity="1" /><path clip-path="url(#clip170)" d="M107.996 251.439 Q104.385 251.439 102.556 255.003 Q100.75 258.545 100.75 265.675 Q100.75 272.781 102.556 276.346 Q104.385 279.887 107.996 279.887 Q111.63 279.887 113.436 276.346 Q115.264 272.781 115.264 265.675 Q115.264 258.545 113.436 255.003 Q111.63 251.439 107.996 251.439 M107.996 247.735 Q113.806 247.735 116.861 252.341 Q119.94 256.925 119.94 265.675 Q119.94 274.401 116.861 279.008 Q113.806 283.591 107.996 283.591 Q102.186 283.591 99.1069 279.008 Q96.0514 274.401 96.0514 265.675 Q96.0514 256.925 99.1069 252.341 Q102.186 247.735 107.996 247.735 Z" fill="#000000" fill-rule="evenodd" fill-opacity="1" /><path clip-path="url(#clip170)" d="M128.158 277.04 L133.042 277.04 L133.042 282.92 L128.158 282.92 L128.158 277.04 Z" fill="#000000" fill-rule="evenodd" fill-opacity="1" /><path clip-path="url(#clip170)" d="M147.255 278.985 L163.574 278.985 L163.574 282.92 L141.63 282.92 L141.63 278.985 Q144.292 276.23 148.875 271.6 Q153.482 266.948 154.662 265.605 Q156.908 263.082 157.787 261.346 Q158.69 259.587 158.69 257.897 Q158.69 255.142 156.745 253.406 Q154.824 251.67 151.722 251.67 Q149.523 251.67 147.07 252.434 Q144.639 253.198 141.861 254.749 L141.861 250.027 Q144.685 248.892 147.139 248.314 Q149.593 247.735 151.63 247.735 Q157 247.735 160.195 250.42 Q163.389 253.105 163.389 257.596 Q163.389 259.726 162.579 261.647 Q161.792 263.545 159.685 266.138 Q159.107 266.809 156.005 270.026 Q152.903 273.221 147.255 278.985 Z" fill="#000000" fill-rule="evenodd" fill-opacity="1" /><path clip-path="url(#clip170)" d="M173.435 248.36 L191.792 248.36 L191.792 252.295 L177.718 252.295 L177.718 260.767 Q178.736 260.42 179.755 260.258 Q180.773 260.073 181.792 260.073 Q187.579 260.073 190.958 263.244 Q194.338 266.415 194.338 271.832 Q194.338 277.411 190.866 280.512 Q187.393 283.591 181.074 283.591 Q178.898 283.591 176.63 283.221 Q174.384 282.85 171.977 282.11 L171.977 277.411 Q174.06 278.545 176.282 279.1 Q178.505 279.656 180.981 279.656 Q184.986 279.656 187.324 277.55 Q189.662 275.443 189.662 271.832 Q189.662 268.221 187.324 266.114 Q184.986 264.008 180.981 264.008 Q179.106 264.008 177.231 264.425 Q175.38 264.841 173.435 265.721 L173.435 248.36 Z" fill="#000000" fill-rule="evenodd" fill-opacity="1" /><path clip-path="url(#clip170)" d="M107 129.03 Q103.389 129.03 101.561 132.595 Q99.755 136.137 99.755 143.266 Q99.755 150.373 101.561 153.938 Q103.389 157.479 107 157.479 Q110.635 157.479 112.44 153.938 Q114.269 150.373 114.269 143.266 Q114.269 136.137 112.44 132.595 Q110.635 129.03 107 129.03 M107 125.327 Q112.811 125.327 115.866 129.933 Q118.945 134.516 118.945 143.266 Q118.945 151.993 115.866 156.6 Q112.811 161.183 107 161.183 Q101.19 161.183 98.1115 156.6 Q95.056 151.993 95.056 143.266 Q95.056 134.516 98.1115 129.933 Q101.19 125.327 107 125.327 Z" fill="#000000" fill-rule="evenodd" fill-opacity="1" /><path clip-path="url(#clip170)" d="M127.162 154.632 L132.047 154.632 L132.047 160.512 L127.162 160.512 L127.162 154.632 Z" fill="#000000" fill-rule="evenodd" fill-opacity="1" /><path clip-path="url(#clip170)" d="M142.278 125.952 L160.634 125.952 L160.634 129.887 L146.56 129.887 L146.56 138.359 Q147.579 138.012 148.597 137.85 Q149.616 137.664 150.634 137.664 Q156.421 137.664 159.801 140.836 Q163.181 144.007 163.181 149.424 Q163.181 155.002 159.708 158.104 Q156.236 161.183 149.917 161.183 Q147.741 161.183 145.472 160.812 Q143.227 160.442 140.82 159.701 L140.82 155.002 Q142.903 156.137 145.125 156.692 Q147.347 157.248 149.824 157.248 Q153.829 157.248 156.167 155.141 Q158.505 153.035 158.505 149.424 Q158.505 145.813 156.167 143.706 Q153.829 141.6 149.824 141.6 Q147.949 141.6 146.074 142.016 Q144.222 142.433 142.278 143.313 L142.278 125.952 Z" fill="#000000" fill-rule="evenodd" fill-opacity="1" /><path clip-path="url(#clip170)" d="M182.393 129.03 Q178.782 129.03 176.954 132.595 Q175.148 136.137 175.148 143.266 Q175.148 150.373 176.954 153.938 Q178.782 157.479 182.393 157.479 Q186.028 157.479 187.833 153.938 Q189.662 150.373 189.662 143.266 Q189.662 136.137 187.833 132.595 Q186.028 129.03 182.393 129.03 M182.393 125.327 Q188.204 125.327 191.259 129.933 Q194.338 134.516 194.338 143.266 Q194.338 151.993 191.259 156.6 Q188.204 161.183 182.393 161.183 Q176.583 161.183 173.505 156.6 Q170.449 151.993 170.449 143.266 Q170.449 134.516 173.505 129.933 Q176.583 125.327 182.393 125.327 Z" fill="#000000" fill-rule="evenodd" fill-opacity="1" /><circle clip-path="url(#clip172)" cx="975.791" cy="282.404" r="14.4" fill="#009af9" fill-rule="evenodd" fill-opacity="1" stroke="#000000" stroke-opacity="1" stroke-width="1.536"/>
<circle clip-path="url(#clip172)" cx="596.494" cy="364.839" r="14.4" fill="#009af9" fill-rule="evenodd" fill-opacity="1" stroke="#000000" stroke-opacity="1" stroke-width="1.536"/>
<circle clip-path="url(#clip172)" cx="516.827" cy="306.437" r="14.4" fill="#009af9" fill-rule="evenodd" fill-opacity="1" stroke="#000000" stroke-opacity="1" stroke-width="1.536"/>
<circle clip-path="url(#clip172)" cx="990.422" cy="289.391" r="14.4" fill="#009af9" fill-rule="evenodd" fill-opacity="1" stroke="#000000" stroke-opacity="1" stroke-width="1.536"/>
<circle clip-path="url(#clip172)" cx="613.981" cy="311.857" r="14.4" fill="#009af9" fill-rule="evenodd" fill-opacity="1" stroke="#000000" stroke-opacity="1" stroke-width="1.536"/>
<circle clip-path="url(#clip172)" cx="920.612" cy="264.225" r="14.4" fill="#009af9" fill-rule="evenodd" fill-opacity="1" stroke="#000000" stroke-opacity="1" stroke-width="1.536"/>
<circle clip-path="url(#clip172)" cx="735.422" cy="222.435" r="14.4" fill="#009af9" fill-rule="evenodd" fill-opacity="1" stroke="#000000" stroke-opacity="1" stroke-width="1.536"/>
<circle clip-path="url(#clip172)" cx="590.405" cy="585.782" r="14.4" fill="#009af9" fill-rule="evenodd" fill-opacity="1" stroke="#000000" stroke-opacity="1" stroke-width="1.536"/>
<circle clip-path="url(#clip172)" cx="663.304" cy="234.823" r="14.4" fill="#009af9" fill-rule="evenodd" fill-opacity="1" stroke="#000000" stroke-opacity="1" stroke-width="1.536"/>
<circle clip-path="url(#clip172)" cx="708.569" cy="308.568" r="14.4" fill="#009af9" fill-rule="evenodd" fill-opacity="1" stroke="#000000" stroke-opacity="1" stroke-width="1.536"/>
<circle clip-path="url(#clip172)" cx="708.358" cy="249.146" r="14.4" fill="#009af9" fill-rule="evenodd" fill-opacity="1" stroke="#000000" stroke-opacity="1" stroke-width="1.536"/>
<circle clip-path="url(#clip172)" cx="1079.48" cy="93.7592" r="14.4" fill="#009af9" fill-rule="evenodd" fill-opacity="1" stroke="#000000" stroke-opacity="1" stroke-width="1.536"/>
<circle clip-path="url(#clip172)" cx="702.858" cy="260.968" r="14.4" fill="#009af9" fill-rule="evenodd" fill-opacity="1" stroke="#000000" stroke-opacity="1" stroke-width="1.536"/>
<circle clip-path="url(#clip172)" cx="430.801" cy="618.876" r="14.4" fill="#009af9" fill-rule="evenodd" fill-opacity="1" stroke="#000000" stroke-opacity="1" stroke-width="1.536"/>
<circle clip-path="url(#clip172)" cx="675.92" cy="315.592" r="14.4" fill="#009af9" fill-rule="evenodd" fill-opacity="1" stroke="#000000" stroke-opacity="1" stroke-width="1.536"/>
<circle clip-path="url(#clip172)" cx="651.066" cy="96.2224" r="14.4" fill="#009af9" fill-rule="evenodd" fill-opacity="1" stroke="#000000" stroke-opacity="1" stroke-width="1.536"/>
<circle clip-path="url(#clip172)" cx="580.418" cy="161.569" r="14.4" fill="#009af9" fill-rule="evenodd" fill-opacity="1" stroke="#000000" stroke-opacity="1" stroke-width="1.536"/>
<circle clip-path="url(#clip172)" cx="744.076" cy="260.509" r="14.4" fill="#009af9" fill-rule="evenodd" fill-opacity="1" stroke="#000000" stroke-opacity="1" stroke-width="1.536"/>
<circle clip-path="url(#clip172)" cx="934.418" cy="271.231" r="14.4" fill="#009af9" fill-rule="evenodd" fill-opacity="1" stroke="#000000" stroke-opacity="1" stroke-width="1.536"/>
<circle clip-path="url(#clip172)" cx="702.691" cy="121.373" r="14.4" fill="#009af9" fill-rule="evenodd" fill-opacity="1" stroke="#000000" stroke-opacity="1" stroke-width="1.536"/>
<circle clip-path="url(#clip172)" cx="668.128" cy="295.437" r="14.4" fill="#009af9" fill-rule="evenodd" fill-opacity="1" stroke="#000000" stroke-opacity="1" stroke-width="1.536"/>
<circle clip-path="url(#clip172)" cx="650.967" cy="327.328" r="14.4" fill="#009af9" fill-rule="evenodd" fill-opacity="1" stroke="#000000" stroke-opacity="1" stroke-width="1.536"/>
<circle clip-path="url(#clip172)" cx="510.204" cy="279.083" r="14.4" fill="#009af9" fill-rule="evenodd" fill-opacity="1" stroke="#000000" stroke-opacity="1" stroke-width="1.536"/>
<circle clip-path="url(#clip172)" cx="562.316" cy="221.912" r="14.4" fill="#009af9" fill-rule="evenodd" fill-opacity="1" stroke="#000000" stroke-opacity="1" stroke-width="1.536"/>
<circle clip-path="url(#clip172)" cx="753.709" cy="300.277" r="14.4" fill="#009af9" fill-rule="evenodd" fill-opacity="1" stroke="#000000" stroke-opacity="1" stroke-width="1.536"/>
<circle clip-path="url(#clip172)" cx="534.463" cy="204.447" r="14.4" fill="#009af9" fill-rule="evenodd" fill-opacity="1" stroke="#000000" stroke-opacity="1" stroke-width="1.536"/>
<circle clip-path="url(#clip172)" cx="777.395" cy="282.539" r="14.4" fill="#009af9" fill-rule="evenodd" fill-opacity="1" stroke="#000000" stroke-opacity="1" stroke-width="1.536"/>
<circle clip-path="url(#clip172)" cx="846.695" cy="454.423" r="14.4" fill="#009af9" fill-rule="evenodd" fill-opacity="1" stroke="#000000" stroke-opacity="1" stroke-width="1.536"/>
<circle clip-path="url(#clip172)" cx="498.362" cy="133.916" r="14.4" fill="#009af9" fill-rule="evenodd" fill-opacity="1" stroke="#000000" stroke-opacity="1" stroke-width="1.536"/>
<circle clip-path="url(#clip172)" cx="817.784" cy="645.347" r="14.4" fill="#009af9" fill-rule="evenodd" fill-opacity="1" stroke="#000000" stroke-opacity="1" stroke-width="1.536"/>
<circle clip-path="url(#clip172)" cx="783.905" cy="508.165" r="14.4" fill="#009af9" fill-rule="evenodd" fill-opacity="1" stroke="#000000" stroke-opacity="1" stroke-width="1.536"/>
<circle clip-path="url(#clip172)" cx="829.044" cy="210.186" r="14.4" fill="#009af9" fill-rule="evenodd" fill-opacity="1" stroke="#000000" stroke-opacity="1" stroke-width="1.536"/>
<circle clip-path="url(#clip172)" cx="462.585" cy="283.39" r="14.4" fill="#009af9" fill-rule="evenodd" fill-opacity="1" stroke="#000000" stroke-opacity="1" stroke-width="1.536"/>
<circle clip-path="url(#clip172)" cx="571.283" cy="549.334" r="14.4" fill="#009af9" fill-rule="evenodd" fill-opacity="1" stroke="#000000" stroke-opacity="1" stroke-width="1.536"/>
<circle clip-path="url(#clip172)" cx="648.405" cy="292.881" r="14.4" fill="#009af9" fill-rule="evenodd" fill-opacity="1" stroke="#000000" stroke-opacity="1" stroke-width="1.536"/>
<circle clip-path="url(#clip172)" cx="845.265" cy="250.947" r="14.4" fill="#009af9" fill-rule="evenodd" fill-opacity="1" stroke="#000000" stroke-opacity="1" stroke-width="1.536"/>
<circle clip-path="url(#clip172)" cx="658.907" cy="285.723" r="14.4" fill="#009af9" fill-rule="evenodd" fill-opacity="1" stroke="#000000" stroke-opacity="1" stroke-width="1.536"/>
<circle clip-path="url(#clip172)" cx="640.529" cy="374.265" r="14.4" fill="#009af9" fill-rule="evenodd" fill-opacity="1" stroke="#000000" stroke-opacity="1" stroke-width="1.536"/>
<circle clip-path="url(#clip172)" cx="257.824" cy="245.573" r="14.4" fill="#009af9" fill-rule="evenodd" fill-opacity="1" stroke="#000000" stroke-opacity="1" stroke-width="1.536"/>
<circle clip-path="url(#clip172)" cx="528.043" cy="109.67" r="14.4" fill="#009af9" fill-rule="evenodd" fill-opacity="1" stroke="#000000" stroke-opacity="1" stroke-width="1.536"/>
<circle clip-path="url(#clip172)" cx="556.689" cy="405.272" r="14.4" fill="#009af9" fill-rule="evenodd" fill-opacity="1" stroke="#000000" stroke-opacity="1" stroke-width="1.536"/>
<circle clip-path="url(#clip172)" cx="670.744" cy="318.948" r="14.4" fill="#009af9" fill-rule="evenodd" fill-opacity="1" stroke="#000000" stroke-opacity="1" stroke-width="1.536"/>
<circle clip-path="url(#clip172)" cx="236.895" cy="177.608" r="14.4" fill="#009af9" fill-rule="evenodd" fill-opacity="1" stroke="#000000" stroke-opacity="1" stroke-width="1.536"/>
<circle clip-path="url(#clip172)" cx="778.791" cy="64.6646" r="14.4" fill="#009af9" fill-rule="evenodd" fill-opacity="1" stroke="#000000" stroke-opacity="1" stroke-width="1.536"/>
<circle clip-path="url(#clip172)" cx="840.311" cy="257.358" r="14.4" fill="#009af9" fill-rule="evenodd" fill-opacity="1" stroke="#000000" stroke-opacity="1" stroke-width="1.536"/>
<circle clip-path="url(#clip172)" cx="419.91" cy="375.273" r="14.4" fill="#009af9" fill-rule="evenodd" fill-opacity="1" stroke="#000000" stroke-opacity="1" stroke-width="1.536"/>
<circle clip-path="url(#clip172)" cx="907.025" cy="431.397" r="14.4" fill="#009af9" fill-rule="evenodd" fill-opacity="1" stroke="#000000" stroke-opacity="1" stroke-width="1.536"/>
<circle clip-path="url(#clip172)" cx="749.666" cy="208.445" r="14.4" fill="#009af9" fill-rule="evenodd" fill-opacity="1" stroke="#000000" stroke-opacity="1" stroke-width="1.536"/>
<circle clip-path="url(#clip172)" cx="635.864" cy="423.119" r="14.4" fill="#009af9" fill-rule="evenodd" fill-opacity="1" stroke="#000000" stroke-opacity="1" stroke-width="1.536"/>
<circle clip-path="url(#clip172)" cx="338.087" cy="415.721" r="14.4" fill="#009af9" fill-rule="evenodd" fill-opacity="1" stroke="#000000" stroke-opacity="1" stroke-width="1.536"/>
<polyline clip-path="url(#clip172)" style="stroke:#e26f46; stroke-linecap:round; stroke-linejoin:round; stroke-width:4; stroke-opacity:1; fill:none" points="
  236.895,350.55 242.381,349.565 293.104,340.457 323.586,334.983 349.359,330.356 377.355,325.328 403.165,320.694 430.836,315.725 462.896,309.968 491.386,304.853 
  516.37,300.366 543.609,295.475 571.01,290.555 601.306,285.115 630.131,279.939 660.102,274.557 685.332,270.027 716.134,264.496 744.352,259.429 770.412,254.75 
  796.811,250.009 826.396,244.697 853.205,239.883 883.9,234.371 912.321,229.268 940.34,224.237 967.544,219.352 995.432,214.344 1025.99,208.858 1070.37,200.887 
  1079.48,199.252 
  "/>
<path clip-path="url(#clip170)" d="
M933.241 642.25 L1074.98 642.25 L1074.98 486.73 L933.241 486.73  Z
  " fill="#ffffff" fill-rule="evenodd" fill-opacity="1"/>
<polyline clip-path="url(#clip170)" style="stroke:#000000; stroke-linecap:round; stroke-linejoin:round; stroke-width:4; stroke-opacity:1; fill:none" points="
  933.241,642.25 1074.98,642.25 1074.98,486.73 933.241,486.73 933.241,642.25 
  "/>
<circle clip-path="url(#clip170)" cx="972.936" cy="538.57" r="23.04" fill="#009af9" fill-rule="evenodd" fill-opacity="1" stroke="#000000" stroke-opacity="1" stroke-width="2.4576"/>
<path clip-path="url(#clip170)" d="M1026.47 558.258 Q1024.67 562.887 1022.95 564.299 Q1021.24 565.711 1018.37 565.711 L1014.97 565.711 L1014.97 562.147 L1017.47 562.147 Q1019.23 562.147 1020.2 561.313 Q1021.17 560.48 1022.35 557.378 L1023.12 555.434 L1012.63 529.925 L1017.14 529.925 L1025.25 550.202 L1033.35 529.925 L1037.86 529.925 L1026.47 558.258 Z" fill="#000000" fill-rule="evenodd" fill-opacity="1" /><path clip-path="url(#clip170)" d="M1045.15 551.915 L1052.79 551.915 L1052.79 525.55 L1044.48 527.216 L1044.48 522.957 L1052.75 521.29 L1057.42 521.29 L1057.42 551.915 L1065.06 551.915 L1065.06 555.85 L1045.15 555.85 L1045.15 551.915 Z" fill="#000000" fill-rule="evenodd" fill-opacity="1" /><polyline clip-path="url(#clip170)" style="stroke:#e26f46; stroke-linecap:round; stroke-linejoin:round; stroke-width:4; stroke-opacity:1; fill:none" points="
  943.164,590.41 1002.71,590.41 
  "/>
<path clip-path="url(#clip170)" d="M1026.47 610.098 Q1024.67 614.727 1022.95 616.139 Q1021.24 617.551 1018.37 617.551 L1014.97 617.551 L1014.97 613.987 L1017.47 613.987 Q1019.23 613.987 1020.2 613.153 Q1021.17 612.32 1022.35 609.218 L1023.12 607.274 L1012.63 581.765 L1017.14 581.765 L1025.25 602.042 L1033.35 581.765 L1037.86 581.765 L1026.47 610.098 Z" fill="#000000" fill-rule="evenodd" fill-opacity="1" /><path clip-path="url(#clip170)" d="M1048.37 603.755 L1064.69 603.755 L1064.69 607.69 L1042.75 607.69 L1042.75 603.755 Q1045.41 601.001 1049.99 596.371 Q1054.6 591.718 1055.78 590.376 Q1058.02 587.853 1058.9 586.116 Q1059.81 584.357 1059.81 582.667 Q1059.81 579.913 1057.86 578.177 Q1055.94 576.441 1052.84 576.441 Q1050.64 576.441 1048.19 577.204 Q1045.76 577.968 1042.98 579.519 L1042.98 574.797 Q1045.8 573.663 1048.26 573.084 Q1050.71 572.505 1052.75 572.505 Q1058.12 572.505 1061.31 575.191 Q1064.51 577.876 1064.51 582.366 Q1064.51 584.496 1063.7 586.417 Q1062.91 588.316 1060.8 590.908 Q1060.22 591.579 1057.12 594.797 Q1054.02 597.991 1048.37 603.755 Z" fill="#000000" fill-rule="evenodd" fill-opacity="1" /></svg>
