<?xml version="1.0" encoding="utf-8"?>
<svg xmlns="http://www.w3.org/2000/svg" xmlns:xlink="http://www.w3.org/1999/xlink" width="288" height="192" viewBox="0 0 1152 768">
<defs>
  <clipPath id="clip790">
    <rect x="0" y="0" width="1152" height="768"/>
  </clipPath>
</defs>
<path clip-path="url(#clip790)" d="
M0 768 L1152 768 L1152 0 L0 0  Z
  " fill="#ffffff" fill-rule="evenodd" fill-opacity="1"/>
<defs>
  <clipPath id="clip791">
    <rect x="230" y="0" width="807" height="768"/>
  </clipPath>
</defs>
<path clip-path="url(#clip790)" d="
M181.942 662.768 L1104.76 662.768 L1104.76 47.2441 L181.942 47.2441  Z
  " fill="#ffffff" fill-rule="evenodd" fill-opacity="1"/>
<defs>
  <clipPath id="clip792">
    <rect x="181" y="47" width="924" height="617"/>
  </clipPath>
</defs>
<polyline clip-path="url(#clip792)" style="stroke:#000000; stroke-linecap:round; stroke-linejoin:round; stroke-width:2; stroke-opacity:0.1; fill:none" points="
  325.32,662.768 325.32,47.2441 
  "/>
<polyline clip-path="url(#clip792)" style="stroke:#000000; stroke-linecap:round; stroke-linejoin:round; stroke-width:2; stroke-opacity:0.1; fill:none" points="
  495.828,662.768 495.828,47.2441 
  "/>
<polyline clip-path="url(#clip792)" style="stroke:#000000; stroke-linecap:round; stroke-linejoin:round; stroke-width:2; stroke-opacity:0.1; fill:none" points="
  666.337,662.768 666.337,47.2441 
  "/>
<polyline clip-path="url(#clip792)" style="stroke:#000000; stroke-linecap:round; stroke-linejoin:round; stroke-width:2; stroke-opacity:0.1; fill:none" points="
  836.845,662.768 836.845,47.2441 
  "/>
<polyline clip-path="url(#clip792)" style="stroke:#000000; stroke-linecap:round; stroke-linejoin:round; stroke-width:2; stroke-opacity:0.1; fill:none" points="
  1007.35,662.768 1007.35,47.2441 
  "/>
<polyline clip-path="url(#clip790)" style="stroke:#000000; stroke-linecap:round; stroke-linejoin:round; stroke-width:4; stroke-opacity:1; fill:none" points="
  181.942,662.768 1104.76,662.768 
  "/>
<polyline clip-path="url(#clip790)" style="stroke:#000000; stroke-linecap:round; stroke-linejoin:round; stroke-width:4; stroke-opacity:1; fill:none" points="
  325.32,662.768 325.32,643.87 
  "/>
<polyline clip-path="url(#clip790)" style="stroke:#000000; stroke-linecap:round; stroke-linejoin:round; stroke-width:4; stroke-opacity:1; fill:none" points="
  495.828,662.768 495.828,643.87 
  "/>
<polyline clip-path="url(#clip790)" style="stroke:#000000; stroke-linecap:round; stroke-linejoin:round; stroke-width:4; stroke-opacity:1; fill:none" points="
  666.337,662.768 666.337,643.87 
  "/>
<polyline clip-path="url(#clip790)" style="stroke:#000000; stroke-linecap:round; stroke-linejoin:round; stroke-width:4; stroke-opacity:1; fill:none" points="
  836.845,662.768 836.845,643.87 
  "/>
<polyline clip-path="url(#clip790)" style="stroke:#000000; stroke-linecap:round; stroke-linejoin:round; stroke-width:4; stroke-opacity:1; fill:none" points="
  1007.35,662.768 1007.35,643.87 
  "/>
<path clip-path="url(#clip790)" d="M277.392 711.249 L285.031 711.249 L285.031 684.883 L276.721 686.55 L276.721 682.291 L284.985 680.624 L289.66 680.624 L289.66 711.249 L297.299 711.249 L297.299 715.184 L277.392 715.184 L277.392 711.249 Z" fill="#000000" fill-rule="evenodd" fill-opacity="1" /><path clip-path="url(#clip790)" d="M306.744 709.304 L311.628 709.304 L311.628 715.184 L306.744 715.184 L306.744 709.304 Z" fill="#000000" fill-rule="evenodd" fill-opacity="1" /><path clip-path="url(#clip790)" d="M331.813 683.703 Q328.202 683.703 326.373 687.267 Q324.568 690.809 324.568 697.939 Q324.568 705.045 326.373 708.61 Q328.202 712.151 331.813 712.151 Q335.447 712.151 337.253 708.61 Q339.081 705.045 339.081 697.939 Q339.081 690.809 337.253 687.267 Q335.447 683.703 331.813 683.703 M331.813 679.999 Q337.623 679.999 340.679 684.605 Q343.757 689.189 343.757 697.939 Q343.757 706.665 340.679 711.272 Q337.623 715.855 331.813 715.855 Q326.003 715.855 322.924 711.272 Q319.869 706.665 319.869 697.939 Q319.869 689.189 322.924 684.605 Q326.003 679.999 331.813 679.999 Z" fill="#000000" fill-rule="evenodd" fill-opacity="1" /><path clip-path="url(#clip790)" d="M361.975 683.703 Q358.364 683.703 356.535 687.267 Q354.73 690.809 354.73 697.939 Q354.73 705.045 356.535 708.61 Q358.364 712.151 361.975 712.151 Q365.609 712.151 367.415 708.61 Q369.243 705.045 369.243 697.939 Q369.243 690.809 367.415 687.267 Q365.609 683.703 361.975 683.703 M361.975 679.999 Q367.785 679.999 370.841 684.605 Q373.919 689.189 373.919 697.939 Q373.919 706.665 370.841 711.272 Q367.785 715.855 361.975 715.855 Q356.165 715.855 353.086 711.272 Q350.03 706.665 350.03 697.939 Q350.03 689.189 353.086 684.605 Q356.165 679.999 361.975 679.999 Z" fill="#000000" fill-rule="evenodd" fill-opacity="1" /><path clip-path="url(#clip790)" d="M448.398 711.249 L456.037 711.249 L456.037 684.883 L447.727 686.55 L447.727 682.291 L455.991 680.624 L460.667 680.624 L460.667 711.249 L468.305 711.249 L468.305 715.184 L448.398 715.184 L448.398 711.249 Z" fill="#000000" fill-rule="evenodd" fill-opacity="1" /><path clip-path="url(#clip790)" d="M477.75 709.304 L482.634 709.304 L482.634 715.184 L477.75 715.184 L477.75 709.304 Z" fill="#000000" fill-rule="evenodd" fill-opacity="1" /><path clip-path="url(#clip790)" d="M496.847 711.249 L513.166 711.249 L513.166 715.184 L491.222 715.184 L491.222 711.249 Q493.884 708.494 498.467 703.864 Q503.074 699.212 504.254 697.869 Q506.5 695.346 507.379 693.61 Q508.282 691.851 508.282 690.161 Q508.282 687.406 506.338 685.67 Q504.416 683.934 501.314 683.934 Q499.115 683.934 496.662 684.698 Q494.231 685.462 491.453 687.013 L491.453 682.291 Q494.277 681.156 496.731 680.578 Q499.185 679.999 501.222 679.999 Q506.592 679.999 509.787 682.684 Q512.981 685.369 512.981 689.86 Q512.981 691.99 512.171 693.911 Q511.384 695.809 509.277 698.402 Q508.699 699.073 505.597 702.29 Q502.495 705.485 496.847 711.249 Z" fill="#000000" fill-rule="evenodd" fill-opacity="1" /><path clip-path="url(#clip790)" d="M523.027 680.624 L541.384 680.624 L541.384 684.559 L527.31 684.559 L527.31 693.031 Q528.328 692.684 529.347 692.522 Q530.365 692.337 531.384 692.337 Q537.171 692.337 540.55 695.508 Q543.93 698.679 543.93 704.096 Q543.93 709.675 540.458 712.776 Q536.986 715.855 530.666 715.855 Q528.49 715.855 526.222 715.485 Q523.976 715.114 521.569 714.374 L521.569 709.675 Q523.652 710.809 525.875 711.364 Q528.097 711.92 530.574 711.92 Q534.578 711.92 536.916 709.814 Q539.254 707.707 539.254 704.096 Q539.254 700.485 536.916 698.378 Q534.578 696.272 530.574 696.272 Q528.699 696.272 526.824 696.689 Q524.972 697.105 523.027 697.985 L523.027 680.624 Z" fill="#000000" fill-rule="evenodd" fill-opacity="1" /><path clip-path="url(#clip790)" d="M618.409 711.249 L626.048 711.249 L626.048 684.883 L617.738 686.55 L617.738 682.291 L626.001 680.624 L630.677 680.624 L630.677 711.249 L638.316 711.249 L638.316 715.184 L618.409 715.184 L618.409 711.249 Z" fill="#000000" fill-rule="evenodd" fill-opacity="1" /><path clip-path="url(#clip790)" d="M647.761 709.304 L652.645 709.304 L652.645 715.184 L647.761 715.184 L647.761 709.304 Z" fill="#000000" fill-rule="evenodd" fill-opacity="1" /><path clip-path="url(#clip790)" d="M662.876 680.624 L681.233 680.624 L681.233 684.559 L667.159 684.559 L667.159 693.031 Q668.177 692.684 669.196 692.522 Q670.214 692.337 671.233 692.337 Q677.02 692.337 680.399 695.508 Q683.779 698.679 683.779 704.096 Q683.779 709.675 680.307 712.776 Q676.834 715.855 670.515 715.855 Q668.339 715.855 666.071 715.485 Q663.825 715.114 661.418 714.374 L661.418 709.675 Q663.501 710.809 665.723 711.364 Q667.946 711.92 670.422 711.92 Q674.427 711.92 676.765 709.814 Q679.103 707.707 679.103 704.096 Q679.103 700.485 676.765 698.378 Q674.427 696.272 670.422 696.272 Q668.547 696.272 666.672 696.689 Q664.821 697.105 662.876 697.985 L662.876 680.624 Z" fill="#000000" fill-rule="evenodd" fill-opacity="1" /><path clip-path="url(#clip790)" d="M702.992 683.703 Q699.381 683.703 697.552 687.267 Q695.746 690.809 695.746 697.939 Q695.746 705.045 697.552 708.61 Q699.381 712.151 702.992 712.151 Q706.626 712.151 708.432 708.61 Q710.26 705.045 710.26 697.939 Q710.26 690.809 708.432 687.267 Q706.626 683.703 702.992 683.703 M702.992 679.999 Q708.802 679.999 711.857 684.605 Q714.936 689.189 714.936 697.939 Q714.936 706.665 711.857 711.272 Q708.802 715.855 702.992 715.855 Q697.182 715.855 694.103 711.272 Q691.047 706.665 691.047 697.939 Q691.047 689.189 694.103 684.605 Q697.182 679.999 702.992 679.999 Z" fill="#000000" fill-rule="evenodd" fill-opacity="1" /><path clip-path="url(#clip790)" d="M789.415 711.249 L797.054 711.249 L797.054 684.883 L788.744 686.55 L788.744 682.291 L797.008 680.624 L801.683 680.624 L801.683 711.249 L809.322 711.249 L809.322 715.184 L789.415 715.184 L789.415 711.249 Z" fill="#000000" fill-rule="evenodd" fill-opacity="1" /><path clip-path="url(#clip790)" d="M818.767 709.304 L823.651 709.304 L823.651 715.184 L818.767 715.184 L818.767 709.304 Z" fill="#000000" fill-rule="evenodd" fill-opacity="1" /><path clip-path="url(#clip790)" d="M832.655 680.624 L854.878 680.624 L854.878 682.615 L842.331 715.184 L837.447 715.184 L849.253 684.559 L832.655 684.559 L832.655 680.624 Z" fill="#000000" fill-rule="evenodd" fill-opacity="1" /><path clip-path="url(#clip790)" d="M864.044 680.624 L882.401 680.624 L882.401 684.559 L868.327 684.559 L868.327 693.031 Q869.345 692.684 870.364 692.522 Q871.382 692.337 872.401 692.337 Q878.188 692.337 881.567 695.508 Q884.947 698.679 884.947 704.096 Q884.947 709.675 881.475 712.776 Q878.002 715.855 871.683 715.855 Q869.507 715.855 867.239 715.485 Q864.993 715.114 862.586 714.374 L862.586 709.675 Q864.669 710.809 866.891 711.364 Q869.114 711.92 871.59 711.92 Q875.595 711.92 877.933 709.814 Q880.271 707.707 880.271 704.096 Q880.271 700.485 877.933 698.378 Q875.595 696.272 871.59 696.272 Q869.715 696.272 867.84 696.689 Q865.989 697.105 864.044 697.985 L864.044 680.624 Z" fill="#000000" fill-rule="evenodd" fill-opacity="1" /><path clip-path="url(#clip790)" d="M963.511 711.249 L979.831 711.249 L979.831 715.184 L957.886 715.184 L957.886 711.249 Q960.548 708.494 965.132 703.864 Q969.738 699.212 970.919 697.869 Q973.164 695.346 974.044 693.61 Q974.946 691.851 974.946 690.161 Q974.946 687.406 973.002 685.67 Q971.081 683.934 967.979 683.934 Q965.78 683.934 963.326 684.698 Q960.896 685.462 958.118 687.013 L958.118 682.291 Q960.942 681.156 963.396 680.578 Q965.849 679.999 967.886 679.999 Q973.257 679.999 976.451 682.684 Q979.646 685.369 979.646 689.86 Q979.646 691.99 978.835 693.911 Q978.048 695.809 975.942 698.402 Q975.363 699.073 972.261 702.29 Q969.159 705.485 963.511 711.249 Z" fill="#000000" fill-rule="evenodd" fill-opacity="1" /><path clip-path="url(#clip790)" d="M989.645 709.304 L994.53 709.304 L994.53 715.184 L989.645 715.184 L989.645 709.304 Z" fill="#000000" fill-rule="evenodd" fill-opacity="1" /><path clip-path="url(#clip790)" d="M1014.71 683.703 Q1011.1 683.703 1009.27 687.267 Q1007.47 690.809 1007.47 697.939 Q1007.47 705.045 1009.27 708.61 Q1011.1 712.151 1014.71 712.151 Q1018.35 712.151 1020.15 708.61 Q1021.98 705.045 1021.98 697.939 Q1021.98 690.809 1020.15 687.267 Q1018.35 683.703 1014.71 683.703 M1014.71 679.999 Q1020.52 679.999 1023.58 684.605 Q1026.66 689.189 1026.66 697.939 Q1026.66 706.665 1023.58 711.272 Q1020.52 715.855 1014.71 715.855 Q1008.9 715.855 1005.83 711.272 Q1002.77 706.665 1002.77 697.939 Q1002.77 689.189 1005.83 684.605 Q1008.9 679.999 1014.71 679.999 Z" fill="#000000" fill-rule="evenodd" fill-opacity="1" /><path clip-path="url(#clip790)" d="M1044.88 683.703 Q1041.27 683.703 1039.44 687.267 Q1037.63 690.809 1037.63 697.939 Q1037.63 705.045 1039.44 708.61 Q1041.27 712.151 1044.88 712.151 Q1048.51 712.151 1050.32 708.61 Q1052.15 705.045 1052.15 697.939 Q1052.15 690.809 1050.32 687.267 Q1048.51 683.703 1044.88 683.703 M1044.88 679.999 Q1050.69 679.999 1053.74 684.605 Q1056.82 689.189 1056.82 697.939 Q1056.82 706.665 1053.74 711.272 Q1050.69 715.855 1044.88 715.855 Q1039.07 715.855 1035.99 711.272 Q1032.93 706.665 1032.93 697.939 Q1032.93 689.189 1035.99 684.605 Q1039.07 679.999 1044.88 679.999 Z" fill="#000000" fill-rule="evenodd" fill-opacity="1" /><polyline clip-path="url(#clip792)" style="stroke:#000000; stroke-linecap:round; stroke-linejoin:round; stroke-width:2; stroke-opacity:0.1; fill:none" points="
  181.942,610.962 1104.76,610.962 
  "/>
<polyline clip-path="url(#clip792)" style="stroke:#000000; stroke-linecap:round; stroke-linejoin:round; stroke-width:2; stroke-opacity:0.1; fill:none" points="
  181.942,526.817 1104.76,526.817 
  "/>
<polyline clip-path="url(#clip792)" style="stroke:#000000; stroke-linecap:round; stroke-linejoin:round; stroke-width:2; stroke-opacity:0.1; fill:none" points="
  181.942,442.672 1104.76,442.672 
  "/>
<polyline clip-path="url(#clip792)" style="stroke:#000000; stroke-linecap:round; stroke-linejoin:round; stroke-width:2; stroke-opacity:0.1; fill:none" points="
  181.942,358.527 1104.76,358.527 
  "/>
<polyline clip-path="url(#clip792)" style="stroke:#000000; stroke-linecap:round; stroke-linejoin:round; stroke-width:2; stroke-opacity:0.1; fill:none" points="
  181.942,274.382 1104.76,274.382 
  "/>
<polyline clip-path="url(#clip792)" style="stroke:#000000; stroke-linecap:round; stroke-linejoin:round; stroke-width:2; stroke-opacity:0.1; fill:none" points="
  181.942,190.237 1104.76,190.237 
  "/>
<polyline clip-path="url(#clip792)" style="stroke:#000000; stroke-linecap:round; stroke-linejoin:round; stroke-width:2; stroke-opacity:0.1; fill:none" points="
  181.942,106.091 1104.76,106.091 
  "/>
<polyline clip-path="url(#clip790)" style="stroke:#000000; stroke-linecap:round; stroke-linejoin:round; stroke-width:4; stroke-opacity:1; fill:none" points="
  181.942,662.768 181.942,47.2441 
  "/>
<polyline clip-path="url(#clip790)" style="stroke:#000000; stroke-linecap:round; stroke-linejoin:round; stroke-width:4; stroke-opacity:1; fill:none" points="
  181.942,610.962 200.84,610.962 
  "/>
<polyline clip-path="url(#clip790)" style="stroke:#000000; stroke-linecap:round; stroke-linejoin:round; stroke-width:4; stroke-opacity:1; fill:none" points="
  181.942,526.817 200.84,526.817 
  "/>
<polyline clip-path="url(#clip790)" style="stroke:#000000; stroke-linecap:round; stroke-linejoin:round; stroke-width:4; stroke-opacity:1; fill:none" points="
  181.942,442.672 200.84,442.672 
  "/>
<polyline clip-path="url(#clip790)" style="stroke:#000000; stroke-linecap:round; stroke-linejoin:round; stroke-width:4; stroke-opacity:1; fill:none" points="
  181.942,358.527 200.84,358.527 
  "/>
<polyline clip-path="url(#clip790)" style="stroke:#000000; stroke-linecap:round; stroke-linejoin:round; stroke-width:4; stroke-opacity:1; fill:none" points="
  181.942,274.382 200.84,274.382 
  "/>
<polyline clip-path="url(#clip790)" style="stroke:#000000; stroke-linecap:round; stroke-linejoin:round; stroke-width:4; stroke-opacity:1; fill:none" points="
  181.942,190.237 200.84,190.237 
  "/>
<polyline clip-path="url(#clip790)" style="stroke:#000000; stroke-linecap:round; stroke-linejoin:round; stroke-width:4; stroke-opacity:1; fill:none" points="
  181.942,106.091 200.84,106.091 
  "/>
<path clip-path="url(#clip790)" d="M57.2321 611.414 L86.9079 611.414 L86.9079 615.349 L57.2321 615.349 L57.2321 611.414 Z" fill="#000000" fill-rule="evenodd" fill-opacity="1" /><path clip-path="url(#clip790)" d="M107 596.761 Q103.389 596.761 101.561 600.326 Q99.755 603.867 99.755 610.997 Q99.755 618.103 101.561 621.668 Q103.389 625.21 107 625.21 Q110.635 625.21 112.44 621.668 Q114.269 618.103 114.269 610.997 Q114.269 603.867 112.44 600.326 Q110.635 596.761 107 596.761 M107 593.057 Q112.811 593.057 115.866 597.664 Q118.945 602.247 118.945 610.997 Q118.945 619.724 115.866 624.33 Q112.811 628.914 107 628.914 Q101.19 628.914 98.1115 624.33 Q95.056 619.724 95.056 610.997 Q95.056 602.247 98.1115 597.664 Q101.19 593.057 107 593.057 Z" fill="#000000" fill-rule="evenodd" fill-opacity="1" /><path clip-path="url(#clip790)" d="M127.162 622.363 L132.047 622.363 L132.047 628.242 L127.162 628.242 L127.162 622.363 Z" fill="#000000" fill-rule="evenodd" fill-opacity="1" /><path clip-path="url(#clip790)" d="M155.079 597.756 L143.273 616.205 L155.079 616.205 L155.079 597.756 M153.852 593.682 L159.732 593.682 L159.732 616.205 L164.662 616.205 L164.662 620.094 L159.732 620.094 L159.732 628.242 L155.079 628.242 L155.079 620.094 L139.477 620.094 L139.477 615.58 L153.852 593.682 Z" fill="#000000" fill-rule="evenodd" fill-opacity="1" /><path clip-path="url(#clip790)" d="M59.3154 527.269 L88.9912 527.269 L88.9912 531.204 L59.3154 531.204 L59.3154 527.269 Z" fill="#000000" fill-rule="evenodd" fill-opacity="1" /><path clip-path="url(#clip790)" d="M109.084 512.616 Q105.473 512.616 103.644 516.181 Q101.838 519.722 101.838 526.852 Q101.838 533.958 103.644 537.523 Q105.473 541.065 109.084 541.065 Q112.718 541.065 114.523 537.523 Q116.352 533.958 116.352 526.852 Q116.352 519.722 114.523 516.181 Q112.718 512.616 109.084 512.616 M109.084 508.912 Q114.894 508.912 117.949 513.519 Q121.028 518.102 121.028 526.852 Q121.028 535.579 117.949 540.185 Q114.894 544.768 109.084 544.768 Q103.274 544.768 100.195 540.185 Q97.1393 535.579 97.1393 526.852 Q97.1393 518.102 100.195 513.519 Q103.274 508.912 109.084 508.912 Z" fill="#000000" fill-rule="evenodd" fill-opacity="1" /><path clip-path="url(#clip790)" d="M129.246 538.218 L134.13 538.218 L134.13 544.097 L129.246 544.097 L129.246 538.218 Z" fill="#000000" fill-rule="evenodd" fill-opacity="1" /><path clip-path="url(#clip790)" d="M148.343 540.162 L164.662 540.162 L164.662 544.097 L142.718 544.097 L142.718 540.162 Q145.38 537.407 149.963 532.778 Q154.57 528.125 155.75 526.782 Q157.995 524.259 158.875 522.523 Q159.778 520.764 159.778 519.074 Q159.778 516.32 157.833 514.583 Q155.912 512.847 152.81 512.847 Q150.611 512.847 148.158 513.611 Q145.727 514.375 142.949 515.926 L142.949 511.204 Q145.773 510.07 148.227 509.491 Q150.681 508.912 152.718 508.912 Q158.088 508.912 161.282 511.597 Q164.477 514.283 164.477 518.773 Q164.477 520.903 163.667 522.824 Q162.88 524.722 160.773 527.315 Q160.195 527.986 157.093 531.204 Q153.991 534.398 148.343 540.162 Z" fill="#000000" fill-rule="evenodd" fill-opacity="1" /><path clip-path="url(#clip790)" d="M107.486 428.471 Q103.875 428.471 102.047 432.036 Q100.241 435.577 100.241 442.707 Q100.241 449.813 102.047 453.378 Q103.875 456.92 107.486 456.92 Q111.121 456.92 112.926 453.378 Q114.755 449.813 114.755 442.707 Q114.755 435.577 112.926 432.036 Q111.121 428.471 107.486 428.471 M107.486 424.767 Q113.297 424.767 116.352 429.373 Q119.431 433.957 119.431 442.707 Q119.431 451.434 116.352 456.04 Q113.297 460.623 107.486 460.623 Q101.676 460.623 98.5976 456.04 Q95.5421 451.434 95.5421 442.707 Q95.5421 433.957 98.5976 429.373 Q101.676 424.767 107.486 424.767 Z" fill="#000000" fill-rule="evenodd" fill-opacity="1" /><path clip-path="url(#clip790)" d="M127.648 454.072 L132.533 454.072 L132.533 459.952 L127.648 459.952 L127.648 454.072 Z" fill="#000000" fill-rule="evenodd" fill-opacity="1" /><path clip-path="url(#clip790)" d="M152.718 428.471 Q149.107 428.471 147.278 432.036 Q145.472 435.577 145.472 442.707 Q145.472 449.813 147.278 453.378 Q149.107 456.92 152.718 456.92 Q156.352 456.92 158.158 453.378 Q159.986 449.813 159.986 442.707 Q159.986 435.577 158.158 432.036 Q156.352 428.471 152.718 428.471 M152.718 424.767 Q158.528 424.767 161.583 429.373 Q164.662 433.957 164.662 442.707 Q164.662 451.434 161.583 456.04 Q158.528 460.623 152.718 460.623 Q146.908 460.623 143.829 456.04 Q140.773 451.434 140.773 442.707 Q140.773 433.957 143.829 429.373 Q146.908 424.767 152.718 424.767 Z" fill="#000000" fill-rule="evenodd" fill-opacity="1" /><path clip-path="url(#clip790)" d="M109.084 344.326 Q105.473 344.326 103.644 347.89 Q101.838 351.432 101.838 358.562 Q101.838 365.668 103.644 369.233 Q105.473 372.774 109.084 372.774 Q112.718 372.774 114.523 369.233 Q116.352 365.668 116.352 358.562 Q116.352 351.432 114.523 347.89 Q112.718 344.326 109.084 344.326 M109.084 340.622 Q114.894 340.622 117.949 345.228 Q121.028 349.812 121.028 358.562 Q121.028 367.288 117.949 371.895 Q114.894 376.478 109.084 376.478 Q103.274 376.478 100.195 371.895 Q97.1393 367.288 97.1393 358.562 Q97.1393 349.812 100.195 345.228 Q103.274 340.622 109.084 340.622 Z" fill="#000000" fill-rule="evenodd" fill-opacity="1" /><path clip-path="url(#clip790)" d="M129.246 369.927 L134.13 369.927 L134.13 375.807 L129.246 375.807 L129.246 369.927 Z" fill="#000000" fill-rule="evenodd" fill-opacity="1" /><path clip-path="url(#clip790)" d="M148.343 371.872 L164.662 371.872 L164.662 375.807 L142.718 375.807 L142.718 371.872 Q145.38 369.117 149.963 364.487 Q154.57 359.835 155.75 358.492 Q157.995 355.969 158.875 354.233 Q159.778 352.474 159.778 350.784 Q159.778 348.029 157.833 346.293 Q155.912 344.557 152.81 344.557 Q150.611 344.557 148.158 345.321 Q145.727 346.085 142.949 347.636 L142.949 342.914 Q145.773 341.779 148.227 341.201 Q150.681 340.622 152.718 340.622 Q158.088 340.622 161.282 343.307 Q164.477 345.992 164.477 350.483 Q164.477 352.613 163.667 354.534 Q162.88 356.432 160.773 359.025 Q160.195 359.696 157.093 362.913 Q153.991 366.108 148.343 371.872 Z" fill="#000000" fill-rule="evenodd" fill-opacity="1" /><path clip-path="url(#clip790)" d="M107 260.18 Q103.389 260.18 101.561 263.745 Q99.755 267.287 99.755 274.416 Q99.755 281.523 101.561 285.088 Q103.389 288.629 107 288.629 Q110.635 288.629 112.44 285.088 Q114.269 281.523 114.269 274.416 Q114.269 267.287 112.44 263.745 Q110.635 260.18 107 260.18 M107 256.477 Q112.811 256.477 115.866 261.083 Q118.945 265.666 118.945 274.416 Q118.945 283.143 115.866 287.75 Q112.811 292.333 107 292.333 Q101.19 292.333 98.1115 287.75 Q95.056 283.143 95.056 274.416 Q95.056 265.666 98.1115 261.083 Q101.19 256.477 107 256.477 Z" fill="#000000" fill-rule="evenodd" fill-opacity="1" /><path clip-path="url(#clip790)" d="M127.162 285.782 L132.047 285.782 L132.047 291.662 L127.162 291.662 L127.162 285.782 Z" fill="#000000" fill-rule="evenodd" fill-opacity="1" /><path clip-path="url(#clip790)" d="M155.079 261.176 L143.273 279.625 L155.079 279.625 L155.079 261.176 M153.852 257.102 L159.732 257.102 L159.732 279.625 L164.662 279.625 L164.662 283.514 L159.732 283.514 L159.732 291.662 L155.079 291.662 L155.079 283.514 L139.477 283.514 L139.477 279 L153.852 257.102 Z" fill="#000000" fill-rule="evenodd" fill-opacity="1" /><path clip-path="url(#clip790)" d="M107.324 176.035 Q103.713 176.035 101.885 179.6 Q100.079 183.142 100.079 190.271 Q100.079 197.378 101.885 200.943 Q103.713 204.484 107.324 204.484 Q110.959 204.484 112.764 200.943 Q114.593 197.378 114.593 190.271 Q114.593 183.142 112.764 179.6 Q110.959 176.035 107.324 176.035 M107.324 172.332 Q113.135 172.332 116.19 176.938 Q119.269 181.521 119.269 190.271 Q119.269 198.998 116.19 203.605 Q113.135 208.188 107.324 208.188 Q101.514 208.188 98.4356 203.605 Q95.3801 198.998 95.3801 190.271 Q95.3801 181.521 98.4356 176.938 Q101.514 172.332 107.324 172.332 Z" fill="#000000" fill-rule="evenodd" fill-opacity="1" /><path clip-path="url(#clip790)" d="M127.486 201.637 L132.371 201.637 L132.371 207.517 L127.486 207.517 L127.486 201.637 Z" fill="#000000" fill-rule="evenodd" fill-opacity="1" /><path clip-path="url(#clip790)" d="M153.134 188.373 Q149.986 188.373 148.134 190.526 Q146.306 192.679 146.306 196.429 Q146.306 200.155 148.134 202.331 Q149.986 204.484 153.134 204.484 Q156.283 204.484 158.111 202.331 Q159.963 200.155 159.963 196.429 Q159.963 192.679 158.111 190.526 Q156.283 188.373 153.134 188.373 M162.417 173.72 L162.417 177.98 Q160.657 177.146 158.852 176.707 Q157.07 176.267 155.31 176.267 Q150.681 176.267 148.227 179.392 Q145.796 182.517 145.449 188.836 Q146.815 186.822 148.875 185.757 Q150.935 184.669 153.412 184.669 Q158.62 184.669 161.63 187.841 Q164.662 190.989 164.662 196.429 Q164.662 201.753 161.514 204.97 Q158.366 208.188 153.134 208.188 Q147.139 208.188 143.968 203.605 Q140.796 198.998 140.796 190.271 Q140.796 182.077 144.685 177.216 Q148.574 172.332 155.125 172.332 Q156.884 172.332 158.667 172.679 Q160.472 173.026 162.417 173.72 Z" fill="#000000" fill-rule="evenodd" fill-opacity="1" /><path clip-path="url(#clip790)" d="M107.579 91.8901 Q103.968 91.8901 102.139 95.4549 Q100.334 98.9965 100.334 106.126 Q100.334 113.233 102.139 116.797 Q103.968 120.339 107.579 120.339 Q111.213 120.339 113.019 116.797 Q114.848 113.233 114.848 106.126 Q114.848 98.9965 113.019 95.4549 Q111.213 91.8901 107.579 91.8901 M107.579 88.1864 Q113.389 88.1864 116.445 92.7929 Q119.523 97.3762 119.523 106.126 Q119.523 114.853 116.445 119.459 Q113.389 124.043 107.579 124.043 Q101.769 124.043 98.6902 119.459 Q95.6347 114.853 95.6347 106.126 Q95.6347 97.3762 98.6902 92.7929 Q101.769 88.1864 107.579 88.1864 Z" fill="#000000" fill-rule="evenodd" fill-opacity="1" /><path clip-path="url(#clip790)" d="M127.741 117.492 L132.625 117.492 L132.625 123.371 L127.741 123.371 L127.741 117.492 Z" fill="#000000" fill-rule="evenodd" fill-opacity="1" /><path clip-path="url(#clip790)" d="M152.81 106.959 Q149.477 106.959 147.556 108.742 Q145.658 110.524 145.658 113.649 Q145.658 116.774 147.556 118.557 Q149.477 120.339 152.81 120.339 Q156.144 120.339 158.065 118.557 Q159.986 116.751 159.986 113.649 Q159.986 110.524 158.065 108.742 Q156.167 106.959 152.81 106.959 M148.134 104.969 Q145.125 104.228 143.435 102.168 Q141.769 100.108 141.769 97.1447 Q141.769 93.0012 144.709 90.5938 Q147.671 88.1864 152.81 88.1864 Q157.972 88.1864 160.912 90.5938 Q163.852 93.0012 163.852 97.1447 Q163.852 100.108 162.162 102.168 Q160.495 104.228 157.509 104.969 Q160.889 105.756 162.764 108.047 Q164.662 110.339 164.662 113.649 Q164.662 118.672 161.583 121.358 Q158.528 124.043 152.81 124.043 Q147.093 124.043 144.014 121.358 Q140.959 118.672 140.959 113.649 Q140.959 110.339 142.857 108.047 Q144.755 105.756 148.134 104.969 M146.421 97.5845 Q146.421 100.27 148.088 101.774 Q149.778 103.279 152.81 103.279 Q155.82 103.279 157.509 101.774 Q159.222 100.27 159.222 97.5845 Q159.222 94.8993 157.509 93.3947 Q155.82 91.8901 152.81 91.8901 Q149.778 91.8901 148.088 93.3947 Q146.421 94.8993 146.421 97.5845 Z" fill="#000000" fill-rule="evenodd" fill-opacity="1" /><circle clip-path="url(#clip792)" cx="574.87" cy="322.395" r="14.4" fill="#009af9" fill-rule="evenodd" fill-opacity="1" stroke="#000000" stroke-opacity="1" stroke-width="1.536"/>
<circle clip-path="url(#clip792)" cx="615.502" cy="407.54" r="14.4" fill="#009af9" fill-rule="evenodd" fill-opacity="1" stroke="#000000" stroke-opacity="1" stroke-width="1.536"/>
<circle clip-path="url(#clip792)" cx="621.574" cy="213.234" r="14.4" fill="#009af9" fill-rule="evenodd" fill-opacity="1" stroke="#000000" stroke-opacity="1" stroke-width="1.536"/>
<circle clip-path="url(#clip792)" cx="395.707" cy="318.499" r="14.4" fill="#009af9" fill-rule="evenodd" fill-opacity="1" stroke="#000000" stroke-opacity="1" stroke-width="1.536"/>
<circle clip-path="url(#clip792)" cx="738.155" cy="475.359" r="14.4" fill="#009af9" fill-rule="evenodd" fill-opacity="1" stroke="#000000" stroke-opacity="1" stroke-width="1.536"/>
<circle clip-path="url(#clip792)" cx="817.571" cy="99.0333" r="14.4" fill="#009af9" fill-rule="evenodd" fill-opacity="1" stroke="#000000" stroke-opacity="1" stroke-width="1.536"/>
<circle clip-path="url(#clip792)" cx="655.53" cy="384.955" r="14.4" fill="#009af9" fill-rule="evenodd" fill-opacity="1" stroke="#000000" stroke-opacity="1" stroke-width="1.536"/>
<circle clip-path="url(#clip792)" cx="789.6" cy="397.318" r="14.4" fill="#009af9" fill-rule="evenodd" fill-opacity="1" stroke="#000000" stroke-opacity="1" stroke-width="1.536"/>
<circle clip-path="url(#clip792)" cx="482.146" cy="210.731" r="14.4" fill="#009af9" fill-rule="evenodd" fill-opacity="1" stroke="#000000" stroke-opacity="1" stroke-width="1.536"/>
<circle clip-path="url(#clip792)" cx="704.571" cy="431.749" r="14.4" fill="#009af9" fill-rule="evenodd" fill-opacity="1" stroke="#000000" stroke-opacity="1" stroke-width="1.536"/>
<circle clip-path="url(#clip792)" cx="641.232" cy="315.323" r="14.4" fill="#009af9" fill-rule="evenodd" fill-opacity="1" stroke="#000000" stroke-opacity="1" stroke-width="1.536"/>
<circle clip-path="url(#clip792)" cx="575.082" cy="416.364" r="14.4" fill="#009af9" fill-rule="evenodd" fill-opacity="1" stroke="#000000" stroke-opacity="1" stroke-width="1.536"/>
<circle clip-path="url(#clip792)" cx="533.94" cy="429.302" r="14.4" fill="#009af9" fill-rule="evenodd" fill-opacity="1" stroke="#000000" stroke-opacity="1" stroke-width="1.536"/>
<circle clip-path="url(#clip792)" cx="677.644" cy="453.199" r="14.4" fill="#009af9" fill-rule="evenodd" fill-opacity="1" stroke="#000000" stroke-opacity="1" stroke-width="1.536"/>
<circle clip-path="url(#clip792)" cx="208.059" cy="524.817" r="14.4" fill="#009af9" fill-rule="evenodd" fill-opacity="1" stroke="#000000" stroke-opacity="1" stroke-width="1.536"/>
<circle clip-path="url(#clip792)" cx="504.127" cy="267.186" r="14.4" fill="#009af9" fill-rule="evenodd" fill-opacity="1" stroke="#000000" stroke-opacity="1" stroke-width="1.536"/>
<circle clip-path="url(#clip792)" cx="569.242" cy="289.391" r="14.4" fill="#009af9" fill-rule="evenodd" fill-opacity="1" stroke="#000000" stroke-opacity="1" stroke-width="1.536"/>
<circle clip-path="url(#clip792)" cx="624.97" cy="297.185" r="14.4" fill="#009af9" fill-rule="evenodd" fill-opacity="1" stroke="#000000" stroke-opacity="1" stroke-width="1.536"/>
<circle clip-path="url(#clip792)" cx="992.166" cy="78.9112" r="14.4" fill="#009af9" fill-rule="evenodd" fill-opacity="1" stroke="#000000" stroke-opacity="1" stroke-width="1.536"/>
<circle clip-path="url(#clip792)" cx="702.237" cy="645.347" r="14.4" fill="#009af9" fill-rule="evenodd" fill-opacity="1" stroke="#000000" stroke-opacity="1" stroke-width="1.536"/>
<circle clip-path="url(#clip792)" cx="1078.64" cy="309.609" r="14.4" fill="#009af9" fill-rule="evenodd" fill-opacity="1" stroke="#000000" stroke-opacity="1" stroke-width="1.536"/>
<circle clip-path="url(#clip792)" cx="628.032" cy="197.488" r="14.4" fill="#009af9" fill-rule="evenodd" fill-opacity="1" stroke="#000000" stroke-opacity="1" stroke-width="1.536"/>
<circle clip-path="url(#clip792)" cx="363.626" cy="405.958" r="14.4" fill="#009af9" fill-rule="evenodd" fill-opacity="1" stroke="#000000" stroke-opacity="1" stroke-width="1.536"/>
<circle clip-path="url(#clip792)" cx="908.79" cy="64.6646" r="14.4" fill="#009af9" fill-rule="evenodd" fill-opacity="1" stroke="#000000" stroke-opacity="1" stroke-width="1.536"/>
<circle clip-path="url(#clip792)" cx="1076.72" cy="267.302" r="14.4" fill="#009af9" fill-rule="evenodd" fill-opacity="1" stroke="#000000" stroke-opacity="1" stroke-width="1.536"/>
<circle clip-path="url(#clip792)" cx="712.744" cy="190.61" r="14.4" fill="#009af9" fill-rule="evenodd" fill-opacity="1" stroke="#000000" stroke-opacity="1" stroke-width="1.536"/>
<circle clip-path="url(#clip792)" cx="528.168" cy="381.285" r="14.4" fill="#009af9" fill-rule="evenodd" fill-opacity="1" stroke="#000000" stroke-opacity="1" stroke-width="1.536"/>
<circle clip-path="url(#clip792)" cx="713.376" cy="397.747" r="14.4" fill="#009af9" fill-rule="evenodd" fill-opacity="1" stroke="#000000" stroke-opacity="1" stroke-width="1.536"/>
<circle clip-path="url(#clip792)" cx="559.44" cy="286.973" r="14.4" fill="#009af9" fill-rule="evenodd" fill-opacity="1" stroke="#000000" stroke-opacity="1" stroke-width="1.536"/>
<circle clip-path="url(#clip792)" cx="557.582" cy="308.062" r="14.4" fill="#009af9" fill-rule="evenodd" fill-opacity="1" stroke="#000000" stroke-opacity="1" stroke-width="1.536"/>
<circle clip-path="url(#clip792)" cx="749.976" cy="554.218" r="14.4" fill="#009af9" fill-rule="evenodd" fill-opacity="1" stroke="#000000" stroke-opacity="1" stroke-width="1.536"/>
<circle clip-path="url(#clip792)" cx="841.093" cy="145.563" r="14.4" fill="#009af9" fill-rule="evenodd" fill-opacity="1" stroke="#000000" stroke-opacity="1" stroke-width="1.536"/>
<circle clip-path="url(#clip792)" cx="700.625" cy="383.985" r="14.4" fill="#009af9" fill-rule="evenodd" fill-opacity="1" stroke="#000000" stroke-opacity="1" stroke-width="1.536"/>
<circle clip-path="url(#clip792)" cx="776.497" cy="346.931" r="14.4" fill="#009af9" fill-rule="evenodd" fill-opacity="1" stroke="#000000" stroke-opacity="1" stroke-width="1.536"/>
<circle clip-path="url(#clip792)" cx="790.814" cy="239.363" r="14.4" fill="#009af9" fill-rule="evenodd" fill-opacity="1" stroke="#000000" stroke-opacity="1" stroke-width="1.536"/>
<circle clip-path="url(#clip792)" cx="527.439" cy="234.063" r="14.4" fill="#009af9" fill-rule="evenodd" fill-opacity="1" stroke="#000000" stroke-opacity="1" stroke-width="1.536"/>
<circle clip-path="url(#clip792)" cx="735.548" cy="391.067" r="14.4" fill="#009af9" fill-rule="evenodd" fill-opacity="1" stroke="#000000" stroke-opacity="1" stroke-width="1.536"/>
<circle clip-path="url(#clip792)" cx="509.833" cy="259.25" r="14.4" fill="#009af9" fill-rule="evenodd" fill-opacity="1" stroke="#000000" stroke-opacity="1" stroke-width="1.536"/>
<circle clip-path="url(#clip792)" cx="290.163" cy="221.182" r="14.4" fill="#009af9" fill-rule="evenodd" fill-opacity="1" stroke="#000000" stroke-opacity="1" stroke-width="1.536"/>
<circle clip-path="url(#clip792)" cx="599.441" cy="524.962" r="14.4" fill="#009af9" fill-rule="evenodd" fill-opacity="1" stroke="#000000" stroke-opacity="1" stroke-width="1.536"/>
<circle clip-path="url(#clip792)" cx="515.579" cy="129.321" r="14.4" fill="#009af9" fill-rule="evenodd" fill-opacity="1" stroke="#000000" stroke-opacity="1" stroke-width="1.536"/>
<circle clip-path="url(#clip792)" cx="487.961" cy="182.348" r="14.4" fill="#009af9" fill-rule="evenodd" fill-opacity="1" stroke="#000000" stroke-opacity="1" stroke-width="1.536"/>
<circle clip-path="url(#clip792)" cx="492.594" cy="342.805" r="14.4" fill="#009af9" fill-rule="evenodd" fill-opacity="1" stroke="#000000" stroke-opacity="1" stroke-width="1.536"/>
<circle clip-path="url(#clip792)" cx="776.18" cy="78.7646" r="14.4" fill="#009af9" fill-rule="evenodd" fill-opacity="1" stroke="#000000" stroke-opacity="1" stroke-width="1.536"/>
<circle clip-path="url(#clip792)" cx="660.411" cy="312.499" r="14.4" fill="#009af9" fill-rule="evenodd" fill-opacity="1" stroke="#000000" stroke-opacity="1" stroke-width="1.536"/>
<circle clip-path="url(#clip792)" cx="600.734" cy="353.297" r="14.4" fill="#009af9" fill-rule="evenodd" fill-opacity="1" stroke="#000000" stroke-opacity="1" stroke-width="1.536"/>
<circle clip-path="url(#clip792)" cx="547.032" cy="508.105" r="14.4" fill="#009af9" fill-rule="evenodd" fill-opacity="1" stroke="#000000" stroke-opacity="1" stroke-width="1.536"/>
<circle clip-path="url(#clip792)" cx="553.836" cy="524.527" r="14.4" fill="#009af9" fill-rule="evenodd" fill-opacity="1" stroke="#000000" stroke-opacity="1" stroke-width="1.536"/>
<circle clip-path="url(#clip792)" cx="469.949" cy="419.228" r="14.4" fill="#009af9" fill-rule="evenodd" fill-opacity="1" stroke="#000000" stroke-opacity="1" stroke-width="1.536"/>
<circle clip-path="url(#clip792)" cx="501.155" cy="349.322" r="14.4" fill="#009af9" fill-rule="evenodd" fill-opacity="1" stroke="#000000" stroke-opacity="1" stroke-width="1.536"/>
<polyline clip-path="url(#clip792)" style="stroke:#e26f46; stroke-linecap:round; stroke-linejoin:round; stroke-width:4; stroke-opacity:1; fill:none" points="
  208.059,392.848 213.727,392.144 266.136,385.638 297.631,381.728 324.26,378.422 353.186,374.831 379.854,371.521 408.444,367.971 441.569,363.859 471.006,360.205 
  496.82,357 524.964,353.506 553.276,349.992 584.578,346.106 614.361,342.408 645.328,338.564 671.396,335.328 703.222,331.377 732.377,327.758 759.303,324.415 
  786.579,321.029 817.147,317.234 844.847,313.795 876.562,309.858 905.927,306.213 934.877,302.619 962.985,299.13 991.8,295.552 1023.37,291.633 1069.23,285.94 
  1078.64,284.772 
  "/>
<path clip-path="url(#clip790)" d="
M929.284 642.25 L1074 642.25 L1074 486.73 L929.284 486.73  Z
  " fill="#ffffff" fill-rule="evenodd" fill-opacity="1"/>
<polyline clip-path="url(#clip790)" style="stroke:#000000; stroke-linecap:round; stroke-linejoin:round; stroke-width:4; stroke-opacity:1; fill:none" points="
  929.284,642.25 1074,642.25 1074,486.73 929.284,486.73 929.284,642.25 
  "/>
<circle clip-path="url(#clip790)" cx="970.298" cy="538.57" r="23.04" fill="#009af9" fill-rule="evenodd" fill-opacity="1" stroke="#000000" stroke-opacity="1" stroke-width="2.4576"/>
<path clip-path="url(#clip790)" d="M1025.15 558.258 Q1023.35 562.887 1021.64 564.299 Q1019.92 565.711 1017.05 565.711 L1013.65 565.711 L1013.65 562.147 L1016.15 562.147 Q1017.91 562.147 1018.88 561.313 Q1019.85 560.48 1021.03 557.378 L1021.8 555.434 L1011.31 529.925 L1015.83 529.925 L1023.93 550.202 L1032.03 529.925 L1036.54 529.925 L1025.15 558.258 Z" fill="#000000" fill-rule="evenodd" fill-opacity="1" /><path clip-path="url(#clip790)" d="M1043.83 551.915 L1051.47 551.915 L1051.47 525.55 L1043.16 527.216 L1043.16 522.957 L1051.43 521.29 L1056.1 521.29 L1056.1 551.915 L1063.74 551.915 L1063.74 555.85 L1043.83 555.85 L1043.83 551.915 Z" fill="#000000" fill-rule="evenodd" fill-opacity="1" /><polyline clip-path="url(#clip790)" style="stroke:#e26f46; stroke-linecap:round; stroke-linejoin:round; stroke-width:4; stroke-opacity:1; fill:none" points="
  939.537,590.41 1001.06,590.41 
  "/>
<path clip-path="url(#clip790)" d="M1025.15 610.098 Q1023.35 614.727 1021.64 616.139 Q1019.92 617.551 1017.05 617.551 L1013.65 617.551 L1013.65 613.987 L1016.15 613.987 Q1017.91 613.987 1018.88 613.153 Q1019.85 612.32 1021.03 609.218 L1021.8 607.274 L1011.31 581.765 L1015.83 581.765 L1023.93 602.042 L1032.03 581.765 L1036.54 581.765 L1025.15 610.098 Z" fill="#000000" fill-rule="evenodd" fill-opacity="1" /><path clip-path="url(#clip790)" d="M1047.05 603.755 L1063.37 603.755 L1063.37 607.69 L1041.43 607.69 L1041.43 603.755 Q1044.09 601.001 1048.67 596.371 Q1053.28 591.718 1054.46 590.376 Q1056.7 587.853 1057.58 586.116 Q1058.49 584.357 1058.49 582.667 Q1058.49 579.913 1056.54 578.177 Q1054.62 576.441 1051.52 576.441 Q1049.32 576.441 1046.87 577.204 Q1044.44 577.968 1041.66 579.519 L1041.66 574.797 Q1044.48 573.663 1046.94 573.084 Q1049.39 572.505 1051.43 572.505 Q1056.8 572.505 1059.99 575.191 Q1063.19 577.876 1063.19 582.366 Q1063.19 584.496 1062.38 586.417 Q1061.59 588.316 1059.48 590.908 Q1058.9 591.579 1055.8 594.797 Q1052.7 597.991 1047.05 603.755 Z" fill="#000000" fill-rule="evenodd" fill-opacity="1" /></svg>
