<?xml version="1.0" encoding="utf-8"?>
<svg xmlns="http://www.w3.org/2000/svg" xmlns:xlink="http://www.w3.org/1999/xlink" width="576" height="384" viewBox="0 0 2304 1536">
<defs>
  <clipPath id="clip550">
    <rect x="0" y="0" width="2304" height="1536"/>
  </clipPath>
</defs>
<path clip-path="url(#clip550)" d="
M0 1536 L2304 1536 L2304 0 L0 0  Z
  " fill="#ffffff" fill-rule="evenodd" fill-opacity="1"/>
<defs>
  <clipPath id="clip551">
    <rect x="460" y="0" width="1614" height="1536"/>
  </clipPath>
</defs>
<path clip-path="url(#clip550)" d="
M111.217 1423.09 L2256.76 1423.09 L2256.76 123.472 L111.217 123.472  Z
  " fill="#ffffff" fill-rule="evenodd" fill-opacity="1"/>
<defs>
  <clipPath id="clip552">
    <rect x="111" y="123" width="2147" height="1301"/>
  </clipPath>
</defs>
<polyline clip-path="url(#clip552)" style="stroke:#000000; stroke-linecap:round; stroke-linejoin:round; stroke-width:2; stroke-opacity:0.1; fill:none" points="
  171.94,1423.09 171.94,123.472 
  "/>
<polyline clip-path="url(#clip552)" style="stroke:#000000; stroke-linecap:round; stroke-linejoin:round; stroke-width:2; stroke-opacity:0.1; fill:none" points="
  677.963,1423.09 677.963,123.472 
  "/>
<polyline clip-path="url(#clip552)" style="stroke:#000000; stroke-linecap:round; stroke-linejoin:round; stroke-width:2; stroke-opacity:0.1; fill:none" points="
  1183.99,1423.09 1183.99,123.472 
  "/>
<polyline clip-path="url(#clip552)" style="stroke:#000000; stroke-linecap:round; stroke-linejoin:round; stroke-width:2; stroke-opacity:0.1; fill:none" points="
  1690.01,1423.09 1690.01,123.472 
  "/>
<polyline clip-path="url(#clip552)" style="stroke:#000000; stroke-linecap:round; stroke-linejoin:round; stroke-width:2; stroke-opacity:0.1; fill:none" points="
  2196.03,1423.09 2196.03,123.472 
  "/>
<polyline clip-path="url(#clip550)" style="stroke:#000000; stroke-linecap:round; stroke-linejoin:round; stroke-width:4; stroke-opacity:1; fill:none" points="
  111.217,1423.09 2256.76,1423.09 
  "/>
<polyline clip-path="url(#clip550)" style="stroke:#000000; stroke-linecap:round; stroke-linejoin:round; stroke-width:4; stroke-opacity:1; fill:none" points="
  171.94,1423.09 171.94,1404.19 
  "/>
<polyline clip-path="url(#clip550)" style="stroke:#000000; stroke-linecap:round; stroke-linejoin:round; stroke-width:4; stroke-opacity:1; fill:none" points="
  677.963,1423.09 677.963,1404.19 
  "/>
<polyline clip-path="url(#clip550)" style="stroke:#000000; stroke-linecap:round; stroke-linejoin:round; stroke-width:4; stroke-opacity:1; fill:none" points="
  1183.99,1423.09 1183.99,1404.19 
  "/>
<polyline clip-path="url(#clip550)" style="stroke:#000000; stroke-linecap:round; stroke-linejoin:round; stroke-width:4; stroke-opacity:1; fill:none" points="
  1690.01,1423.09 1690.01,1404.19 
  "/>
<polyline clip-path="url(#clip550)" style="stroke:#000000; stroke-linecap:round; stroke-linejoin:round; stroke-width:4; stroke-opacity:1; fill:none" points="
  2196.03,1423.09 2196.03,1404.19 
  "/>
<path clip-path="url(#clip550)" d="M162.322 1480.78 L169.961 1480.78 L169.961 1454.42 L161.651 1456.09 L161.651 1451.83 L169.915 1450.16 L174.59 1450.16 L174.59 1480.78 L182.229 1480.78 L182.229 1484.72 L162.322 1484.72 L162.322 1480.78 Z" fill="#000000" fill-rule="evenodd" fill-opacity="1" /><path clip-path="url(#clip550)" d="M672.616 1480.78 L688.935 1480.78 L688.935 1484.72 L666.991 1484.72 L666.991 1480.78 Q669.653 1478.03 674.236 1473.4 Q678.843 1468.75 680.023 1467.41 Q682.269 1464.88 683.148 1463.15 Q684.051 1461.39 684.051 1459.7 Q684.051 1456.94 682.107 1455.21 Q680.185 1453.47 677.084 1453.47 Q674.885 1453.47 672.431 1454.23 Q670 1455 667.223 1456.55 L667.223 1451.83 Q670.047 1450.69 672.5 1450.11 Q674.954 1449.53 676.991 1449.53 Q682.361 1449.53 685.556 1452.22 Q688.75 1454.91 688.75 1459.4 Q688.75 1461.53 687.94 1463.45 Q687.153 1465.34 685.047 1467.94 Q684.468 1468.61 681.366 1471.83 Q678.264 1475.02 672.616 1480.78 Z" fill="#000000" fill-rule="evenodd" fill-opacity="1" /><path clip-path="url(#clip550)" d="M1188.23 1466.09 Q1191.59 1466.8 1193.47 1469.07 Q1195.36 1471.34 1195.36 1474.67 Q1195.36 1479.79 1191.85 1482.59 Q1188.33 1485.39 1181.85 1485.39 Q1179.67 1485.39 1177.35 1484.95 Q1175.06 1484.53 1172.61 1483.68 L1172.61 1479.16 Q1174.55 1480.3 1176.87 1480.88 Q1179.18 1481.46 1181.71 1481.46 Q1186.1 1481.46 1188.4 1479.72 Q1190.71 1477.98 1190.71 1474.67 Q1190.71 1471.62 1188.56 1469.91 Q1186.43 1468.17 1182.61 1468.17 L1178.58 1468.17 L1178.58 1464.33 L1182.79 1464.33 Q1186.24 1464.33 1188.07 1462.96 Q1189.9 1461.57 1189.9 1458.98 Q1189.9 1456.32 1188 1454.91 Q1186.13 1453.47 1182.61 1453.47 Q1180.69 1453.47 1178.49 1453.89 Q1176.29 1454.3 1173.65 1455.18 L1173.65 1451.02 Q1176.31 1450.28 1178.63 1449.91 Q1180.97 1449.53 1183.03 1449.53 Q1188.35 1449.53 1191.45 1451.97 Q1194.55 1454.37 1194.55 1458.49 Q1194.55 1461.36 1192.91 1463.35 Q1191.27 1465.32 1188.23 1466.09 Z" fill="#000000" fill-rule="evenodd" fill-opacity="1" /><path clip-path="url(#clip550)" d="M1693.02 1454.23 L1681.21 1472.68 L1693.02 1472.68 L1693.02 1454.23 M1691.79 1450.16 L1697.67 1450.16 L1697.67 1472.68 L1702.6 1472.68 L1702.6 1476.57 L1697.67 1476.57 L1697.67 1484.72 L1693.02 1484.72 L1693.02 1476.57 L1677.42 1476.57 L1677.42 1472.06 L1691.79 1450.16 Z" fill="#000000" fill-rule="evenodd" fill-opacity="1" /><path clip-path="url(#clip550)" d="M2186.31 1450.16 L2204.67 1450.16 L2204.67 1454.1 L2190.59 1454.1 L2190.59 1462.57 Q2191.61 1462.22 2192.63 1462.06 Q2193.65 1461.87 2194.67 1461.87 Q2200.45 1461.87 2203.83 1465.04 Q2207.21 1468.22 2207.21 1473.63 Q2207.21 1479.21 2203.74 1482.31 Q2200.27 1485.39 2193.95 1485.39 Q2191.77 1485.39 2189.51 1485.02 Q2187.26 1484.65 2184.85 1483.91 L2184.85 1479.21 Q2186.94 1480.34 2189.16 1480.9 Q2191.38 1481.46 2193.86 1481.46 Q2197.86 1481.46 2200.2 1479.35 Q2202.54 1477.24 2202.54 1473.63 Q2202.54 1470.02 2200.2 1467.91 Q2197.86 1465.81 2193.86 1465.81 Q2191.98 1465.81 2190.11 1466.22 Q2188.26 1466.64 2186.31 1467.52 L2186.31 1450.16 Z" fill="#000000" fill-rule="evenodd" fill-opacity="1" /><polyline clip-path="url(#clip552)" style="stroke:#000000; stroke-linecap:round; stroke-linejoin:round; stroke-width:2; stroke-opacity:0.1; fill:none" points="
  111.217,1386.31 2256.76,1386.31 
  "/>
<polyline clip-path="url(#clip552)" style="stroke:#000000; stroke-linecap:round; stroke-linejoin:round; stroke-width:2; stroke-opacity:0.1; fill:none" points="
  111.217,1079.79 2256.76,1079.79 
  "/>
<polyline clip-path="url(#clip552)" style="stroke:#000000; stroke-linecap:round; stroke-linejoin:round; stroke-width:2; stroke-opacity:0.1; fill:none" points="
  111.217,773.28 2256.76,773.28 
  "/>
<polyline clip-path="url(#clip552)" style="stroke:#000000; stroke-linecap:round; stroke-linejoin:round; stroke-width:2; stroke-opacity:0.1; fill:none" points="
  111.217,466.767 2256.76,466.767 
  "/>
<polyline clip-path="url(#clip552)" style="stroke:#000000; stroke-linecap:round; stroke-linejoin:round; stroke-width:2; stroke-opacity:0.1; fill:none" points="
  111.217,160.254 2256.76,160.254 
  "/>
<polyline clip-path="url(#clip550)" style="stroke:#000000; stroke-linecap:round; stroke-linejoin:round; stroke-width:4; stroke-opacity:1; fill:none" points="
  111.217,1423.09 111.217,123.472 
  "/>
<polyline clip-path="url(#clip550)" style="stroke:#000000; stroke-linecap:round; stroke-linejoin:round; stroke-width:4; stroke-opacity:1; fill:none" points="
  111.217,1386.31 130.115,1386.31 
  "/>
<polyline clip-path="url(#clip550)" style="stroke:#000000; stroke-linecap:round; stroke-linejoin:round; stroke-width:4; stroke-opacity:1; fill:none" points="
  111.217,1079.79 130.115,1079.79 
  "/>
<polyline clip-path="url(#clip550)" style="stroke:#000000; stroke-linecap:round; stroke-linejoin:round; stroke-width:4; stroke-opacity:1; fill:none" points="
  111.217,773.28 130.115,773.28 
  "/>
<polyline clip-path="url(#clip550)" style="stroke:#000000; stroke-linecap:round; stroke-linejoin:round; stroke-width:4; stroke-opacity:1; fill:none" points="
  111.217,466.767 130.115,466.767 
  "/>
<polyline clip-path="url(#clip550)" style="stroke:#000000; stroke-linecap:round; stroke-linejoin:round; stroke-width:4; stroke-opacity:1; fill:none" points="
  111.217,160.254 130.115,160.254 
  "/>
<path clip-path="url(#clip550)" d="M56.7499 1399.65 L64.3887 1399.65 L64.3887 1373.29 L56.0786 1374.95 L56.0786 1370.69 L64.3424 1369.03 L69.0183 1369.03 L69.0183 1399.65 L76.6572 1399.65 L76.6572 1403.59 L56.7499 1403.59 L56.7499 1399.65 Z" fill="#000000" fill-rule="evenodd" fill-opacity="1" /><path clip-path="url(#clip550)" d="M60.3378 1093.14 L76.6572 1093.14 L76.6572 1097.07 L54.7128 1097.07 L54.7128 1093.14 Q57.3749 1090.38 61.9582 1085.75 Q66.5646 1081.1 67.7452 1079.76 Q69.9905 1077.24 70.8702 1075.5 Q71.7729 1073.74 71.7729 1072.05 Q71.7729 1069.3 69.8285 1067.56 Q67.9072 1065.82 64.8054 1065.82 Q62.6063 1065.82 60.1526 1066.59 Q57.7221 1067.35 54.9443 1068.9 L54.9443 1064.18 Q57.7684 1063.05 60.2221 1062.47 Q62.6758 1061.89 64.7128 1061.89 Q70.0831 1061.89 73.2776 1064.57 Q76.472 1067.26 76.472 1071.75 Q76.472 1073.88 75.6618 1075.8 Q74.8748 1077.7 72.7683 1080.29 Q72.1896 1080.96 69.0878 1084.18 Q65.9859 1087.37 60.3378 1093.14 Z" fill="#000000" fill-rule="evenodd" fill-opacity="1" /><path clip-path="url(#clip550)" d="M69.5276 771.926 Q72.884 772.643 74.759 774.912 Q76.6572 777.18 76.6572 780.514 Q76.6572 785.629 73.1387 788.43 Q69.6202 791.231 63.1387 791.231 Q60.9628 791.231 58.648 790.791 Q56.3564 790.375 53.9027 789.518 L53.9027 785.004 Q55.8471 786.139 58.1619 786.717 Q60.4767 787.296 62.9998 787.296 Q67.398 787.296 69.6896 785.56 Q72.0044 783.824 72.0044 780.514 Q72.0044 777.458 69.8517 775.745 Q67.722 774.009 63.9026 774.009 L59.8749 774.009 L59.8749 770.167 L64.0878 770.167 Q67.5369 770.167 69.3655 768.801 Q71.1942 767.412 71.1942 764.819 Q71.1942 762.157 69.2961 760.745 Q67.4211 759.31 63.9026 759.31 Q61.9813 759.31 59.7823 759.727 Q57.5832 760.143 54.9443 761.023 L54.9443 756.856 Q57.6064 756.116 59.9212 755.745 Q62.2591 755.375 64.3193 755.375 Q69.6433 755.375 72.7452 757.806 Q75.847 760.213 75.847 764.333 Q75.847 767.204 74.2035 769.194 Q72.56 771.162 69.5276 771.926 Z" fill="#000000" fill-rule="evenodd" fill-opacity="1" /><path clip-path="url(#clip550)" d="M67.0739 453.561 L55.2684 472.01 L67.0739 472.01 L67.0739 453.561 M65.847 449.487 L71.7266 449.487 L71.7266 472.01 L76.6572 472.01 L76.6572 475.899 L71.7266 475.899 L71.7266 484.047 L67.0739 484.047 L67.0739 475.899 L51.4721 475.899 L51.4721 471.385 L65.847 449.487 Z" fill="#000000" fill-rule="evenodd" fill-opacity="1" /><path clip-path="url(#clip550)" d="M55.7545 142.974 L74.1109 142.974 L74.1109 146.909 L60.0369 146.909 L60.0369 155.381 Q61.0554 155.034 62.0739 154.872 Q63.0924 154.687 64.1109 154.687 Q69.898 154.687 73.2776 157.858 Q76.6572 161.029 76.6572 166.446 Q76.6572 172.024 73.185 175.126 Q69.7128 178.205 63.3934 178.205 Q61.2174 178.205 58.9489 177.835 Q56.7036 177.464 54.2962 176.724 L54.2962 172.024 Q56.3795 173.159 58.6017 173.714 Q60.8239 174.27 63.3008 174.27 Q67.3054 174.27 69.6433 172.163 Q71.9813 170.057 71.9813 166.446 Q71.9813 162.835 69.6433 160.728 Q67.3054 158.622 63.3008 158.622 Q61.4258 158.622 59.5508 159.038 Q57.6989 159.455 55.7545 160.335 L55.7545 142.974 Z" fill="#000000" fill-rule="evenodd" fill-opacity="1" /><path clip-path="url(#clip550)" d="M956.265 28.5427 L956.265 35.5912 Q953.105 33.9709 949.702 33.1607 Q946.3 32.3505 942.654 32.3505 Q937.104 32.3505 934.309 34.0519 Q931.554 35.7533 931.554 39.156 Q931.554 41.7486 933.539 43.2475 Q935.524 44.7058 941.52 46.0426 L944.072 46.6097 Q952.012 48.3111 955.333 51.4303 Q958.696 54.509 958.696 60.0587 Q958.696 66.3781 953.672 70.0644 Q948.69 73.7508 939.94 73.7508 Q936.294 73.7508 932.324 73.0216 Q928.395 72.3329 924.02 70.9151 L924.02 63.2184 Q928.152 65.3654 932.162 66.4591 Q936.172 67.5124 940.102 67.5124 Q945.368 67.5124 948.204 65.73 Q951.039 63.9071 951.039 60.6258 Q951.039 57.5877 948.973 55.9673 Q946.948 54.3469 940.021 52.8481 L937.428 52.2405 Q930.501 50.7821 927.423 47.7845 Q924.344 44.7463 924.344 39.4801 Q924.344 33.0797 928.881 29.5959 Q933.418 26.1121 941.763 26.1121 Q945.895 26.1121 949.54 26.7198 Q953.186 27.3274 956.265 28.5427 Z" fill="#000000" fill-rule="evenodd" fill-opacity="1" /><path clip-path="url(#clip550)" d="M969.795 54.671 L969.795 27.2059 L977.249 27.2059 L977.249 54.3874 Q977.249 60.8284 979.76 64.0691 Q982.272 67.2693 987.295 67.2693 Q993.331 67.2693 996.815 63.421 Q1000.34 59.5726 1000.34 52.9291 L1000.34 27.2059 L1007.79 27.2059 L1007.79 72.576 L1000.34 72.576 L1000.34 65.6084 Q997.625 69.7404 994.019 71.7658 Q990.455 73.7508 985.715 73.7508 Q977.897 73.7508 973.846 68.8897 Q969.795 64.0286 969.795 54.671 M988.551 26.1121 L988.551 26.1121 Z" fill="#000000" fill-rule="evenodd" fill-opacity="1" /><path clip-path="url(#clip550)" d="M1058.47 35.9153 Q1061.26 30.8922 1065.15 28.5022 Q1069.04 26.1121 1074.31 26.1121 Q1081.4 26.1121 1085.25 31.0947 Q1089.09 36.0368 1089.09 45.1919 L1089.09 72.576 L1081.6 72.576 L1081.6 45.4349 Q1081.6 38.913 1079.29 35.7533 Q1076.98 32.5936 1072.24 32.5936 Q1066.45 32.5936 1063.09 36.4419 Q1059.73 40.2903 1059.73 46.9338 L1059.73 72.576 L1052.23 72.576 L1052.23 45.4349 Q1052.23 38.8725 1049.92 35.7533 Q1047.61 32.5936 1042.79 32.5936 Q1037.08 32.5936 1033.72 36.4824 Q1030.36 40.3308 1030.36 46.9338 L1030.36 72.576 L1022.86 72.576 L1022.86 27.2059 L1030.36 27.2059 L1030.36 34.2544 Q1032.91 30.082 1036.47 28.0971 Q1040.04 26.1121 1044.94 26.1121 Q1049.88 26.1121 1053.32 28.6237 Q1056.81 31.1352 1058.47 35.9153 Z" fill="#000000" fill-rule="evenodd" fill-opacity="1" /><path clip-path="url(#clip550)" d="M1169.14 48.0275 L1169.14 51.6733 L1134.87 51.6733 Q1135.36 59.3701 1139.49 63.421 Q1143.66 67.4314 1151.07 67.4314 Q1155.37 67.4314 1159.38 66.3781 Q1163.43 65.3249 1167.4 63.2184 L1167.4 70.267 Q1163.39 71.9684 1159.17 72.8596 Q1154.96 73.7508 1150.63 73.7508 Q1139.77 73.7508 1133.41 67.4314 Q1127.09 61.1119 1127.09 50.3365 Q1127.09 39.1965 1133.09 32.6746 Q1139.12 26.1121 1149.33 26.1121 Q1158.49 26.1121 1163.79 32.0264 Q1169.14 37.9003 1169.14 48.0275 M1161.69 45.84 Q1161.61 39.7232 1158.24 36.0774 Q1154.92 32.4315 1149.41 32.4315 Q1143.17 32.4315 1139.41 35.9558 Q1135.68 39.4801 1135.11 45.8805 L1161.69 45.84 Z" fill="#000000" fill-rule="evenodd" fill-opacity="1" /><path clip-path="url(#clip550)" d="M1178.5 47.1768 L1183.2 47.1768 L1183.2 72.576 L1178.5 72.576 L1178.5 47.1768 M1178.5 37.2926 L1183.2 37.2926 L1183.2 42.5588 L1178.5 42.5588 L1178.5 37.2926 Z" fill="#000000" fill-rule="evenodd" fill-opacity="1" /><path clip-path="url(#clip550)" d="M1199.24 40.8979 L1216.41 40.8979 L1216.41 45.516 L1192.19 45.516 L1192.19 41.06 Q1193.57 39.8042 1196.12 37.5357 Q1210.05 25.1804 1210.05 21.3726 Q1210.05 18.699 1207.95 17.0786 Q1205.84 15.4177 1202.4 15.4177 Q1200.29 15.4177 1197.82 16.1469 Q1195.35 16.8356 1192.43 18.2534 L1192.43 13.2708 Q1195.55 12.1365 1198.23 11.5694 Q1200.94 11.0023 1203.25 11.0023 Q1209.12 11.0023 1212.65 13.6759 Q1216.17 16.3494 1216.17 20.7244 Q1216.17 26.3552 1202.76 37.8598 Q1200.49 39.8042 1199.24 40.8979 Z" fill="#000000" fill-rule="evenodd" fill-opacity="1" /><path clip-path="url(#clip550)" d="M1256.8 34.9026 L1308.73 34.9026 L1308.73 41.7081 L1256.8 41.7081 L1256.8 34.9026 M1256.8 51.4303 L1308.73 51.4303 L1308.73 58.3168 L1256.8 58.3168 L1256.8 51.4303 Z" fill="#000000" fill-rule="evenodd" fill-opacity="1" /><path clip-path="url(#clip550)" d="M1354.19 65.6895 L1367.55 65.6895 L1367.55 19.5497 L1353.01 22.4663 L1353.01 15.0127 L1367.47 12.096 L1375.66 12.096 L1375.66 65.6895 L1389.02 65.6895 L1389.02 72.576 L1354.19 72.576 L1354.19 65.6895 Z" fill="#000000" fill-rule="evenodd" fill-opacity="1" /><path clip-path="url(#clip550)" d="M1423.05 17.4837 Q1416.73 17.4837 1413.53 23.7221 Q1410.37 29.92 1410.37 42.3968 Q1410.37 54.833 1413.53 61.0714 Q1416.73 67.2693 1423.05 67.2693 Q1429.41 67.2693 1432.57 61.0714 Q1435.77 54.833 1435.77 42.3968 Q1435.77 29.92 1432.57 23.7221 Q1429.41 17.4837 1423.05 17.4837 M1423.05 11.0023 Q1433.22 11.0023 1438.57 19.0636 Q1443.95 27.0843 1443.95 42.3968 Q1443.95 57.6687 1438.57 65.73 Q1433.22 73.7508 1423.05 73.7508 Q1412.88 73.7508 1407.5 65.73 Q1402.15 57.6687 1402.15 42.3968 Q1402.15 27.0843 1407.5 19.0636 Q1412.88 11.0023 1423.05 11.0023 Z" fill="#000000" fill-rule="evenodd" fill-opacity="1" /><circle clip-path="url(#clip552)" cx="171.94" cy="1079.79" r="14.4" fill="#009af9" fill-rule="evenodd" fill-opacity="1" stroke="#000000" stroke-opacity="1" stroke-width="3.072"/>
<circle clip-path="url(#clip552)" cx="677.963" cy="1386.31" r="14.4" fill="#009af9" fill-rule="evenodd" fill-opacity="1" stroke="#000000" stroke-opacity="1" stroke-width="3.072"/>
<circle clip-path="url(#clip552)" cx="1183.99" cy="466.767" r="14.4" fill="#009af9" fill-rule="evenodd" fill-opacity="1" stroke="#000000" stroke-opacity="1" stroke-width="3.072"/>
<circle clip-path="url(#clip552)" cx="1690.01" cy="773.28" r="14.4" fill="#009af9" fill-rule="evenodd" fill-opacity="1" stroke="#000000" stroke-opacity="1" stroke-width="3.072"/>
<circle clip-path="url(#clip552)" cx="2196.03" cy="160.254" r="14.4" fill="#009af9" fill-rule="evenodd" fill-opacity="1" stroke="#000000" stroke-opacity="1" stroke-width="3.072"/>
<polyline clip-path="url(#clip552)" style="stroke:#e26f46; stroke-linecap:round; stroke-linejoin:round; stroke-width:4; stroke-opacity:1; fill:none" points="
  -2034.32,773.28 4402.29,773.28 
  "/>
<polyline clip-path="url(#clip552)" style="stroke:#3da44d; stroke-linecap:round; stroke-linejoin:round; stroke-width:4; stroke-opacity:1; fill:none" stroke-dasharray="16, 10" points="
  171.94,773.28 171.94,1079.79 
  "/>
<polyline clip-path="url(#clip552)" style="stroke:#c271d2; stroke-linecap:round; stroke-linejoin:round; stroke-width:4; stroke-opacity:1; fill:none" stroke-dasharray="16, 10" points="
  677.963,773.28 677.963,1386.31 
  "/>
<polyline clip-path="url(#clip552)" style="stroke:#ac8d18; stroke-linecap:round; stroke-linejoin:round; stroke-width:4; stroke-opacity:1; fill:none" stroke-dasharray="16, 10" points="
  1183.99,773.28 1183.99,466.767 
  "/>
<polyline clip-path="url(#clip552)" style="stroke:#00a9ad; stroke-linecap:round; stroke-linejoin:round; stroke-width:4; stroke-opacity:1; fill:none" stroke-dasharray="16, 10" points="
  1690.01,773.28 1690.01,773.28 
  "/>
<polyline clip-path="url(#clip552)" style="stroke:#ed5d92; stroke-linecap:round; stroke-linejoin:round; stroke-width:4; stroke-opacity:1; fill:none" stroke-dasharray="16, 10" points="
  2196.03,773.28 2196.03,160.254 
  "/>
</svg>
