<?xml version="1.0" encoding="utf-8"?>
<svg xmlns="http://www.w3.org/2000/svg" xmlns:xlink="http://www.w3.org/1999/xlink" width="288" height="192" viewBox="0 0 1152 768">
<defs>
  <clipPath id="clip990">
    <rect x="0" y="0" width="1152" height="768"/>
  </clipPath>
</defs>
<path clip-path="url(#clip990)" d="
M0 768 L1152 768 L1152 0 L0 0  Z
  " fill="#ffffff" fill-rule="evenodd" fill-opacity="1"/>
<defs>
  <clipPath id="clip991">
    <rect x="230" y="0" width="807" height="768"/>
  </clipPath>
</defs>
<path clip-path="url(#clip990)" d="
M179.859 662.768 L1104.76 662.768 L1104.76 47.2441 L179.859 47.2441  Z
  " fill="#ffffff" fill-rule="evenodd" fill-opacity="1"/>
<defs>
  <clipPath id="clip992">
    <rect x="179" y="47" width="926" height="617"/>
  </clipPath>
</defs>
<polyline clip-path="url(#clip992)" style="stroke:#000000; stroke-linecap:round; stroke-linejoin:round; stroke-width:2; stroke-opacity:0.1; fill:none" points="
  292.218,662.768 292.218,47.2441 
  "/>
<polyline clip-path="url(#clip992)" style="stroke:#000000; stroke-linecap:round; stroke-linejoin:round; stroke-width:2; stroke-opacity:0.1; fill:none" points="
  458.905,662.768 458.905,47.2441 
  "/>
<polyline clip-path="url(#clip992)" style="stroke:#000000; stroke-linecap:round; stroke-linejoin:round; stroke-width:2; stroke-opacity:0.1; fill:none" points="
  625.592,662.768 625.592,47.2441 
  "/>
<polyline clip-path="url(#clip992)" style="stroke:#000000; stroke-linecap:round; stroke-linejoin:round; stroke-width:2; stroke-opacity:0.1; fill:none" points="
  792.279,662.768 792.279,47.2441 
  "/>
<polyline clip-path="url(#clip992)" style="stroke:#000000; stroke-linecap:round; stroke-linejoin:round; stroke-width:2; stroke-opacity:0.1; fill:none" points="
  958.967,662.768 958.967,47.2441 
  "/>
<polyline clip-path="url(#clip990)" style="stroke:#000000; stroke-linecap:round; stroke-linejoin:round; stroke-width:4; stroke-opacity:1; fill:none" points="
  179.859,662.768 1104.76,662.768 
  "/>
<polyline clip-path="url(#clip990)" style="stroke:#000000; stroke-linecap:round; stroke-linejoin:round; stroke-width:4; stroke-opacity:1; fill:none" points="
  292.218,662.768 292.218,643.87 
  "/>
<polyline clip-path="url(#clip990)" style="stroke:#000000; stroke-linecap:round; stroke-linejoin:round; stroke-width:4; stroke-opacity:1; fill:none" points="
  458.905,662.768 458.905,643.87 
  "/>
<polyline clip-path="url(#clip990)" style="stroke:#000000; stroke-linecap:round; stroke-linejoin:round; stroke-width:4; stroke-opacity:1; fill:none" points="
  625.592,662.768 625.592,643.87 
  "/>
<polyline clip-path="url(#clip990)" style="stroke:#000000; stroke-linecap:round; stroke-linejoin:round; stroke-width:4; stroke-opacity:1; fill:none" points="
  792.279,662.768 792.279,643.87 
  "/>
<polyline clip-path="url(#clip990)" style="stroke:#000000; stroke-linecap:round; stroke-linejoin:round; stroke-width:4; stroke-opacity:1; fill:none" points="
  958.967,662.768 958.967,643.87 
  "/>
<path clip-path="url(#clip990)" d="M244.29 711.249 L251.929 711.249 L251.929 684.883 L243.619 686.55 L243.619 682.291 L251.882 680.624 L256.558 680.624 L256.558 711.249 L264.197 711.249 L264.197 715.184 L244.29 715.184 L244.29 711.249 Z" fill="#000000" fill-rule="evenodd" fill-opacity="1" /><path clip-path="url(#clip990)" d="M273.642 709.304 L278.526 709.304 L278.526 715.184 L273.642 715.184 L273.642 709.304 Z" fill="#000000" fill-rule="evenodd" fill-opacity="1" /><path clip-path="url(#clip990)" d="M298.711 683.703 Q295.1 683.703 293.271 687.267 Q291.466 690.809 291.466 697.939 Q291.466 705.045 293.271 708.61 Q295.1 712.151 298.711 712.151 Q302.345 712.151 304.151 708.61 Q305.979 705.045 305.979 697.939 Q305.979 690.809 304.151 687.267 Q302.345 683.703 298.711 683.703 M298.711 679.999 Q304.521 679.999 307.577 684.605 Q310.655 689.189 310.655 697.939 Q310.655 706.665 307.577 711.272 Q304.521 715.855 298.711 715.855 Q292.901 715.855 289.822 711.272 Q286.767 706.665 286.767 697.939 Q286.767 689.189 289.822 684.605 Q292.901 679.999 298.711 679.999 Z" fill="#000000" fill-rule="evenodd" fill-opacity="1" /><path clip-path="url(#clip990)" d="M328.873 683.703 Q325.262 683.703 323.433 687.267 Q321.627 690.809 321.627 697.939 Q321.627 705.045 323.433 708.61 Q325.262 712.151 328.873 712.151 Q332.507 712.151 334.313 708.61 Q336.141 705.045 336.141 697.939 Q336.141 690.809 334.313 687.267 Q332.507 683.703 328.873 683.703 M328.873 679.999 Q334.683 679.999 337.739 684.605 Q340.817 689.189 340.817 697.939 Q340.817 706.665 337.739 711.272 Q334.683 715.855 328.873 715.855 Q323.063 715.855 319.984 711.272 Q316.928 706.665 316.928 697.939 Q316.928 689.189 319.984 684.605 Q323.063 679.999 328.873 679.999 Z" fill="#000000" fill-rule="evenodd" fill-opacity="1" /><path clip-path="url(#clip990)" d="M411.475 711.249 L419.114 711.249 L419.114 684.883 L410.803 686.55 L410.803 682.291 L419.067 680.624 L423.743 680.624 L423.743 711.249 L431.382 711.249 L431.382 715.184 L411.475 715.184 L411.475 711.249 Z" fill="#000000" fill-rule="evenodd" fill-opacity="1" /><path clip-path="url(#clip990)" d="M440.826 709.304 L445.711 709.304 L445.711 715.184 L440.826 715.184 L440.826 709.304 Z" fill="#000000" fill-rule="evenodd" fill-opacity="1" /><path clip-path="url(#clip990)" d="M459.924 711.249 L476.243 711.249 L476.243 715.184 L454.299 715.184 L454.299 711.249 Q456.961 708.494 461.544 703.864 Q466.15 699.212 467.331 697.869 Q469.576 695.346 470.456 693.61 Q471.359 691.851 471.359 690.161 Q471.359 687.406 469.414 685.67 Q467.493 683.934 464.391 683.934 Q462.192 683.934 459.738 684.698 Q457.308 685.462 454.53 687.013 L454.53 682.291 Q457.354 681.156 459.808 680.578 Q462.262 679.999 464.299 679.999 Q469.669 679.999 472.863 682.684 Q476.058 685.369 476.058 689.86 Q476.058 691.99 475.248 693.911 Q474.461 695.809 472.354 698.402 Q471.775 699.073 468.674 702.29 Q465.572 705.485 459.924 711.249 Z" fill="#000000" fill-rule="evenodd" fill-opacity="1" /><path clip-path="url(#clip990)" d="M486.104 680.624 L504.46 680.624 L504.46 684.559 L490.386 684.559 L490.386 693.031 Q491.405 692.684 492.423 692.522 Q493.442 692.337 494.46 692.337 Q500.247 692.337 503.627 695.508 Q507.007 698.679 507.007 704.096 Q507.007 709.675 503.534 712.776 Q500.062 715.855 493.743 715.855 Q491.567 715.855 489.298 715.485 Q487.053 715.114 484.646 714.374 L484.646 709.675 Q486.729 710.809 488.951 711.364 Q491.173 711.92 493.65 711.92 Q497.655 711.92 499.993 709.814 Q502.331 707.707 502.331 704.096 Q502.331 700.485 499.993 698.378 Q497.655 696.272 493.65 696.272 Q491.775 696.272 489.9 696.689 Q488.048 697.105 486.104 697.985 L486.104 680.624 Z" fill="#000000" fill-rule="evenodd" fill-opacity="1" /><path clip-path="url(#clip990)" d="M577.664 711.249 L585.303 711.249 L585.303 684.883 L576.993 686.55 L576.993 682.291 L585.257 680.624 L589.933 680.624 L589.933 711.249 L597.572 711.249 L597.572 715.184 L577.664 715.184 L577.664 711.249 Z" fill="#000000" fill-rule="evenodd" fill-opacity="1" /><path clip-path="url(#clip990)" d="M607.016 709.304 L611.9 709.304 L611.9 715.184 L607.016 715.184 L607.016 709.304 Z" fill="#000000" fill-rule="evenodd" fill-opacity="1" /><path clip-path="url(#clip990)" d="M622.132 680.624 L640.488 680.624 L640.488 684.559 L626.414 684.559 L626.414 693.031 Q627.432 692.684 628.451 692.522 Q629.47 692.337 630.488 692.337 Q636.275 692.337 639.655 695.508 Q643.034 698.679 643.034 704.096 Q643.034 709.675 639.562 712.776 Q636.09 715.855 629.77 715.855 Q627.595 715.855 625.326 715.485 Q623.081 715.114 620.673 714.374 L620.673 709.675 Q622.757 710.809 624.979 711.364 Q627.201 711.92 629.678 711.92 Q633.682 711.92 636.02 709.814 Q638.358 707.707 638.358 704.096 Q638.358 700.485 636.02 698.378 Q633.682 696.272 629.678 696.272 Q627.803 696.272 625.928 696.689 Q624.076 697.105 622.132 697.985 L622.132 680.624 Z" fill="#000000" fill-rule="evenodd" fill-opacity="1" /><path clip-path="url(#clip990)" d="M662.247 683.703 Q658.636 683.703 656.807 687.267 Q655.002 690.809 655.002 697.939 Q655.002 705.045 656.807 708.61 Q658.636 712.151 662.247 712.151 Q665.881 712.151 667.687 708.61 Q669.516 705.045 669.516 697.939 Q669.516 690.809 667.687 687.267 Q665.881 683.703 662.247 683.703 M662.247 679.999 Q668.057 679.999 671.113 684.605 Q674.191 689.189 674.191 697.939 Q674.191 706.665 671.113 711.272 Q668.057 715.855 662.247 715.855 Q656.437 715.855 653.358 711.272 Q650.303 706.665 650.303 697.939 Q650.303 689.189 653.358 684.605 Q656.437 679.999 662.247 679.999 Z" fill="#000000" fill-rule="evenodd" fill-opacity="1" /><path clip-path="url(#clip990)" d="M744.849 711.249 L752.488 711.249 L752.488 684.883 L744.178 686.55 L744.178 682.291 L752.442 680.624 L757.118 680.624 L757.118 711.249 L764.756 711.249 L764.756 715.184 L744.849 715.184 L744.849 711.249 Z" fill="#000000" fill-rule="evenodd" fill-opacity="1" /><path clip-path="url(#clip990)" d="M774.201 709.304 L779.085 709.304 L779.085 715.184 L774.201 715.184 L774.201 709.304 Z" fill="#000000" fill-rule="evenodd" fill-opacity="1" /><path clip-path="url(#clip990)" d="M788.09 680.624 L810.312 680.624 L810.312 682.615 L797.765 715.184 L792.881 715.184 L804.687 684.559 L788.09 684.559 L788.09 680.624 Z" fill="#000000" fill-rule="evenodd" fill-opacity="1" /><path clip-path="url(#clip990)" d="M819.478 680.624 L837.835 680.624 L837.835 684.559 L823.761 684.559 L823.761 693.031 Q824.779 692.684 825.798 692.522 Q826.816 692.337 827.835 692.337 Q833.622 692.337 837.001 695.508 Q840.381 698.679 840.381 704.096 Q840.381 709.675 836.909 712.776 Q833.437 715.855 827.117 715.855 Q824.941 715.855 822.673 715.485 Q820.427 715.114 818.02 714.374 L818.02 709.675 Q820.103 710.809 822.325 711.364 Q824.548 711.92 827.025 711.92 Q831.029 711.92 833.367 709.814 Q835.705 707.707 835.705 704.096 Q835.705 700.485 833.367 698.378 Q831.029 696.272 827.025 696.272 Q825.15 696.272 823.275 696.689 Q821.423 697.105 819.478 697.985 L819.478 680.624 Z" fill="#000000" fill-rule="evenodd" fill-opacity="1" /><path clip-path="url(#clip990)" d="M915.124 711.249 L931.444 711.249 L931.444 715.184 L909.499 715.184 L909.499 711.249 Q912.161 708.494 916.745 703.864 Q921.351 699.212 922.532 697.869 Q924.777 695.346 925.657 693.61 Q926.559 691.851 926.559 690.161 Q926.559 687.406 924.615 685.67 Q922.694 683.934 919.592 683.934 Q917.393 683.934 914.939 684.698 Q912.508 685.462 909.731 687.013 L909.731 682.291 Q912.555 681.156 915.008 680.578 Q917.462 679.999 919.499 679.999 Q924.869 679.999 928.064 682.684 Q931.258 685.369 931.258 689.86 Q931.258 691.99 930.448 693.911 Q929.661 695.809 927.555 698.402 Q926.976 699.073 923.874 702.29 Q920.772 705.485 915.124 711.249 Z" fill="#000000" fill-rule="evenodd" fill-opacity="1" /><path clip-path="url(#clip990)" d="M941.258 709.304 L946.143 709.304 L946.143 715.184 L941.258 715.184 L941.258 709.304 Z" fill="#000000" fill-rule="evenodd" fill-opacity="1" /><path clip-path="url(#clip990)" d="M966.328 683.703 Q962.716 683.703 960.888 687.267 Q959.082 690.809 959.082 697.939 Q959.082 705.045 960.888 708.61 Q962.716 712.151 966.328 712.151 Q969.962 712.151 971.767 708.61 Q973.596 705.045 973.596 697.939 Q973.596 690.809 971.767 687.267 Q969.962 683.703 966.328 683.703 M966.328 679.999 Q972.138 679.999 975.193 684.605 Q978.272 689.189 978.272 697.939 Q978.272 706.665 975.193 711.272 Q972.138 715.855 966.328 715.855 Q960.517 715.855 957.439 711.272 Q954.383 706.665 954.383 697.939 Q954.383 689.189 957.439 684.605 Q960.517 679.999 966.328 679.999 Z" fill="#000000" fill-rule="evenodd" fill-opacity="1" /><path clip-path="url(#clip990)" d="M996.489 683.703 Q992.878 683.703 991.05 687.267 Q989.244 690.809 989.244 697.939 Q989.244 705.045 991.05 708.61 Q992.878 712.151 996.489 712.151 Q1000.12 712.151 1001.93 708.61 Q1003.76 705.045 1003.76 697.939 Q1003.76 690.809 1001.93 687.267 Q1000.12 683.703 996.489 683.703 M996.489 679.999 Q1002.3 679.999 1005.36 684.605 Q1008.43 689.189 1008.43 697.939 Q1008.43 706.665 1005.36 711.272 Q1002.3 715.855 996.489 715.855 Q990.679 715.855 987.601 711.272 Q984.545 706.665 984.545 697.939 Q984.545 689.189 987.601 684.605 Q990.679 679.999 996.489 679.999 Z" fill="#000000" fill-rule="evenodd" fill-opacity="1" /><polyline clip-path="url(#clip992)" style="stroke:#000000; stroke-linecap:round; stroke-linejoin:round; stroke-width:2; stroke-opacity:0.1; fill:none" points="
  179.859,591.879 1104.76,591.879 
  "/>
<polyline clip-path="url(#clip992)" style="stroke:#000000; stroke-linecap:round; stroke-linejoin:round; stroke-width:2; stroke-opacity:0.1; fill:none" points="
  179.859,501.728 1104.76,501.728 
  "/>
<polyline clip-path="url(#clip992)" style="stroke:#000000; stroke-linecap:round; stroke-linejoin:round; stroke-width:2; stroke-opacity:0.1; fill:none" points="
  179.859,411.576 1104.76,411.576 
  "/>
<polyline clip-path="url(#clip992)" style="stroke:#000000; stroke-linecap:round; stroke-linejoin:round; stroke-width:2; stroke-opacity:0.1; fill:none" points="
  179.859,321.425 1104.76,321.425 
  "/>
<polyline clip-path="url(#clip992)" style="stroke:#000000; stroke-linecap:round; stroke-linejoin:round; stroke-width:2; stroke-opacity:0.1; fill:none" points="
  179.859,231.274 1104.76,231.274 
  "/>
<polyline clip-path="url(#clip992)" style="stroke:#000000; stroke-linecap:round; stroke-linejoin:round; stroke-width:2; stroke-opacity:0.1; fill:none" points="
  179.859,141.123 1104.76,141.123 
  "/>
<polyline clip-path="url(#clip992)" style="stroke:#000000; stroke-linecap:round; stroke-linejoin:round; stroke-width:2; stroke-opacity:0.1; fill:none" points="
  179.859,50.9719 1104.76,50.9719 
  "/>
<polyline clip-path="url(#clip990)" style="stroke:#000000; stroke-linecap:round; stroke-linejoin:round; stroke-width:4; stroke-opacity:1; fill:none" points="
  179.859,662.768 179.859,47.2441 
  "/>
<polyline clip-path="url(#clip990)" style="stroke:#000000; stroke-linecap:round; stroke-linejoin:round; stroke-width:4; stroke-opacity:1; fill:none" points="
  179.859,591.879 198.756,591.879 
  "/>
<polyline clip-path="url(#clip990)" style="stroke:#000000; stroke-linecap:round; stroke-linejoin:round; stroke-width:4; stroke-opacity:1; fill:none" points="
  179.859,501.728 198.756,501.728 
  "/>
<polyline clip-path="url(#clip990)" style="stroke:#000000; stroke-linecap:round; stroke-linejoin:round; stroke-width:4; stroke-opacity:1; fill:none" points="
  179.859,411.576 198.756,411.576 
  "/>
<polyline clip-path="url(#clip990)" style="stroke:#000000; stroke-linecap:round; stroke-linejoin:round; stroke-width:4; stroke-opacity:1; fill:none" points="
  179.859,321.425 198.756,321.425 
  "/>
<polyline clip-path="url(#clip990)" style="stroke:#000000; stroke-linecap:round; stroke-linejoin:round; stroke-width:4; stroke-opacity:1; fill:none" points="
  179.859,231.274 198.756,231.274 
  "/>
<polyline clip-path="url(#clip990)" style="stroke:#000000; stroke-linecap:round; stroke-linejoin:round; stroke-width:4; stroke-opacity:1; fill:none" points="
  179.859,141.123 198.756,141.123 
  "/>
<polyline clip-path="url(#clip990)" style="stroke:#000000; stroke-linecap:round; stroke-linejoin:round; stroke-width:4; stroke-opacity:1; fill:none" points="
  179.859,50.9719 198.756,50.9719 
  "/>
<path clip-path="url(#clip990)" d="M57.2321 592.33 L86.9079 592.33 L86.9079 596.265 L57.2321 596.265 L57.2321 592.33 Z" fill="#000000" fill-rule="evenodd" fill-opacity="1" /><path clip-path="url(#clip990)" d="M107 577.677 Q103.389 577.677 101.561 581.242 Q99.755 584.784 99.755 591.913 Q99.755 599.02 101.561 602.585 Q103.389 606.126 107 606.126 Q110.635 606.126 112.44 602.585 Q114.269 599.02 114.269 591.913 Q114.269 584.784 112.44 581.242 Q110.635 577.677 107 577.677 M107 573.974 Q112.811 573.974 115.866 578.58 Q118.945 583.164 118.945 591.913 Q118.945 600.64 115.866 605.247 Q112.811 609.83 107 609.83 Q101.19 609.83 98.1115 605.247 Q95.056 600.64 95.056 591.913 Q95.056 583.164 98.1115 578.58 Q101.19 573.974 107 573.974 Z" fill="#000000" fill-rule="evenodd" fill-opacity="1" /><path clip-path="url(#clip990)" d="M127.162 603.279 L132.047 603.279 L132.047 609.159 L127.162 609.159 L127.162 603.279 Z" fill="#000000" fill-rule="evenodd" fill-opacity="1" /><path clip-path="url(#clip990)" d="M146.259 605.224 L162.579 605.224 L162.579 609.159 L140.634 609.159 L140.634 605.224 Q143.296 602.469 147.88 597.839 Q152.486 593.187 153.667 591.844 Q155.912 589.321 156.792 587.585 Q157.695 585.826 157.695 584.136 Q157.695 581.381 155.75 579.645 Q153.829 577.909 150.727 577.909 Q148.528 577.909 146.074 578.673 Q143.644 579.437 140.866 580.988 L140.866 576.265 Q143.69 575.131 146.144 574.552 Q148.597 573.974 150.634 573.974 Q156.005 573.974 159.199 576.659 Q162.394 579.344 162.394 583.835 Q162.394 585.964 161.583 587.886 Q160.796 589.784 158.69 592.376 Q158.111 593.048 155.009 596.265 Q151.908 599.46 146.259 605.224 Z" fill="#000000" fill-rule="evenodd" fill-opacity="1" /><path clip-path="url(#clip990)" d="M105.403 487.526 Q101.792 487.526 99.9634 491.091 Q98.1578 494.633 98.1578 501.762 Q98.1578 508.869 99.9634 512.434 Q101.792 515.975 105.403 515.975 Q109.037 515.975 110.843 512.434 Q112.672 508.869 112.672 501.762 Q112.672 494.633 110.843 491.091 Q109.037 487.526 105.403 487.526 M105.403 483.823 Q111.213 483.823 114.269 488.429 Q117.348 493.012 117.348 501.762 Q117.348 510.489 114.269 515.096 Q111.213 519.679 105.403 519.679 Q99.593 519.679 96.5143 515.096 Q93.4588 510.489 93.4588 501.762 Q93.4588 493.012 96.5143 488.429 Q99.593 483.823 105.403 483.823 Z" fill="#000000" fill-rule="evenodd" fill-opacity="1" /><path clip-path="url(#clip990)" d="M125.565 513.128 L130.449 513.128 L130.449 519.008 L125.565 519.008 L125.565 513.128 Z" fill="#000000" fill-rule="evenodd" fill-opacity="1" /><path clip-path="url(#clip990)" d="M150.634 487.526 Q147.023 487.526 145.195 491.091 Q143.389 494.633 143.389 501.762 Q143.389 508.869 145.195 512.434 Q147.023 515.975 150.634 515.975 Q154.269 515.975 156.074 512.434 Q157.903 508.869 157.903 501.762 Q157.903 494.633 156.074 491.091 Q154.269 487.526 150.634 487.526 M150.634 483.823 Q156.445 483.823 159.5 488.429 Q162.579 493.012 162.579 501.762 Q162.579 510.489 159.5 515.096 Q156.445 519.679 150.634 519.679 Q144.824 519.679 141.746 515.096 Q138.69 510.489 138.69 501.762 Q138.69 493.012 141.746 488.429 Q144.824 483.823 150.634 483.823 Z" fill="#000000" fill-rule="evenodd" fill-opacity="1" /><path clip-path="url(#clip990)" d="M107 397.375 Q103.389 397.375 101.561 400.94 Q99.755 404.482 99.755 411.611 Q99.755 418.718 101.561 422.282 Q103.389 425.824 107 425.824 Q110.635 425.824 112.44 422.282 Q114.269 418.718 114.269 411.611 Q114.269 404.482 112.44 400.94 Q110.635 397.375 107 397.375 M107 393.671 Q112.811 393.671 115.866 398.278 Q118.945 402.861 118.945 411.611 Q118.945 420.338 115.866 424.944 Q112.811 429.528 107 429.528 Q101.19 429.528 98.1115 424.944 Q95.056 420.338 95.056 411.611 Q95.056 402.861 98.1115 398.278 Q101.19 393.671 107 393.671 Z" fill="#000000" fill-rule="evenodd" fill-opacity="1" /><path clip-path="url(#clip990)" d="M127.162 422.977 L132.047 422.977 L132.047 428.856 L127.162 428.856 L127.162 422.977 Z" fill="#000000" fill-rule="evenodd" fill-opacity="1" /><path clip-path="url(#clip990)" d="M146.259 424.921 L162.579 424.921 L162.579 428.856 L140.634 428.856 L140.634 424.921 Q143.296 422.167 147.88 417.537 Q152.486 412.884 153.667 411.542 Q155.912 409.019 156.792 407.283 Q157.695 405.523 157.695 403.833 Q157.695 401.079 155.75 399.343 Q153.829 397.607 150.727 397.607 Q148.528 397.607 146.074 398.371 Q143.644 399.134 140.866 400.685 L140.866 395.963 Q143.69 394.829 146.144 394.25 Q148.597 393.671 150.634 393.671 Q156.005 393.671 159.199 396.357 Q162.394 399.042 162.394 403.533 Q162.394 405.662 161.583 407.583 Q160.796 409.482 158.69 412.074 Q158.111 412.745 155.009 415.963 Q151.908 419.157 146.259 424.921 Z" fill="#000000" fill-rule="evenodd" fill-opacity="1" /><path clip-path="url(#clip990)" d="M104.917 307.224 Q101.306 307.224 99.4773 310.789 Q97.6717 314.33 97.6717 321.46 Q97.6717 328.566 99.4773 332.131 Q101.306 335.673 104.917 335.673 Q108.551 335.673 110.357 332.131 Q112.186 328.566 112.186 321.46 Q112.186 314.33 110.357 310.789 Q108.551 307.224 104.917 307.224 M104.917 303.52 Q110.727 303.52 113.783 308.127 Q116.861 312.71 116.861 321.46 Q116.861 330.187 113.783 334.793 Q110.727 339.377 104.917 339.377 Q99.1069 339.377 96.0282 334.793 Q92.9727 330.187 92.9727 321.46 Q92.9727 312.71 96.0282 308.127 Q99.1069 303.52 104.917 303.52 Z" fill="#000000" fill-rule="evenodd" fill-opacity="1" /><path clip-path="url(#clip990)" d="M125.079 332.826 L129.963 332.826 L129.963 338.705 L125.079 338.705 L125.079 332.826 Z" fill="#000000" fill-rule="evenodd" fill-opacity="1" /><path clip-path="url(#clip990)" d="M152.996 308.219 L141.19 326.668 L152.996 326.668 L152.996 308.219 M151.769 304.145 L157.648 304.145 L157.648 326.668 L162.579 326.668 L162.579 330.557 L157.648 330.557 L157.648 338.705 L152.996 338.705 L152.996 330.557 L137.394 330.557 L137.394 326.043 L151.769 304.145 Z" fill="#000000" fill-rule="evenodd" fill-opacity="1" /><path clip-path="url(#clip990)" d="M105.241 217.073 Q101.63 217.073 99.8013 220.638 Q97.9958 224.179 97.9958 231.309 Q97.9958 238.415 99.8013 241.98 Q101.63 245.522 105.241 245.522 Q108.875 245.522 110.681 241.98 Q112.51 238.415 112.51 231.309 Q112.51 224.179 110.681 220.638 Q108.875 217.073 105.241 217.073 M105.241 213.369 Q111.051 213.369 114.107 217.976 Q117.186 222.559 117.186 231.309 Q117.186 240.036 114.107 244.642 Q111.051 249.225 105.241 249.225 Q99.431 249.225 96.3523 244.642 Q93.2967 240.036 93.2967 231.309 Q93.2967 222.559 96.3523 217.976 Q99.431 213.369 105.241 213.369 Z" fill="#000000" fill-rule="evenodd" fill-opacity="1" /><path clip-path="url(#clip990)" d="M125.403 242.675 L130.287 242.675 L130.287 248.554 L125.403 248.554 L125.403 242.675 Z" fill="#000000" fill-rule="evenodd" fill-opacity="1" /><path clip-path="url(#clip990)" d="M151.051 229.411 Q147.903 229.411 146.051 231.564 Q144.222 233.716 144.222 237.466 Q144.222 241.193 146.051 243.369 Q147.903 245.522 151.051 245.522 Q154.199 245.522 156.028 243.369 Q157.88 241.193 157.88 237.466 Q157.88 233.716 156.028 231.564 Q154.199 229.411 151.051 229.411 M160.333 214.758 L160.333 219.017 Q158.574 218.184 156.769 217.744 Q154.986 217.304 153.227 217.304 Q148.597 217.304 146.144 220.429 Q143.713 223.554 143.366 229.874 Q144.732 227.86 146.792 226.795 Q148.852 225.707 151.329 225.707 Q156.537 225.707 159.546 228.878 Q162.579 232.027 162.579 237.466 Q162.579 242.79 159.431 246.008 Q156.283 249.225 151.051 249.225 Q145.056 249.225 141.884 244.642 Q138.713 240.036 138.713 231.309 Q138.713 223.115 142.602 218.253 Q146.491 213.369 153.042 213.369 Q154.801 213.369 156.583 213.716 Q158.389 214.064 160.333 214.758 Z" fill="#000000" fill-rule="evenodd" fill-opacity="1" /><path clip-path="url(#clip990)" d="M105.496 126.922 Q101.885 126.922 100.056 130.487 Q98.2504 134.028 98.2504 141.158 Q98.2504 148.264 100.056 151.829 Q101.885 155.371 105.496 155.371 Q109.13 155.371 110.936 151.829 Q112.764 148.264 112.764 141.158 Q112.764 134.028 110.936 130.487 Q109.13 126.922 105.496 126.922 M105.496 123.218 Q111.306 123.218 114.361 127.825 Q117.44 132.408 117.44 141.158 Q117.44 149.885 114.361 154.491 Q111.306 159.074 105.496 159.074 Q99.6856 159.074 96.6069 154.491 Q93.5514 149.885 93.5514 141.158 Q93.5514 132.408 96.6069 127.825 Q99.6856 123.218 105.496 123.218 Z" fill="#000000" fill-rule="evenodd" fill-opacity="1" /><path clip-path="url(#clip990)" d="M125.658 152.523 L130.542 152.523 L130.542 158.403 L125.658 158.403 L125.658 152.523 Z" fill="#000000" fill-rule="evenodd" fill-opacity="1" /><path clip-path="url(#clip990)" d="M150.727 141.991 Q147.394 141.991 145.472 143.773 Q143.574 145.556 143.574 148.681 Q143.574 151.806 145.472 153.588 Q147.394 155.371 150.727 155.371 Q154.06 155.371 155.982 153.588 Q157.903 151.783 157.903 148.681 Q157.903 145.556 155.982 143.773 Q154.083 141.991 150.727 141.991 M146.051 140 Q143.042 139.26 141.352 137.199 Q139.685 135.139 139.685 132.176 Q139.685 128.033 142.625 125.625 Q145.588 123.218 150.727 123.218 Q155.889 123.218 158.829 125.625 Q161.769 128.033 161.769 132.176 Q161.769 135.139 160.079 137.199 Q158.412 139.26 155.426 140 Q158.806 140.787 160.681 143.079 Q162.579 145.371 162.579 148.681 Q162.579 153.704 159.5 156.389 Q156.445 159.074 150.727 159.074 Q145.009 159.074 141.931 156.389 Q138.875 153.704 138.875 148.681 Q138.875 145.371 140.773 143.079 Q142.671 140.787 146.051 140 M144.338 132.616 Q144.338 135.301 146.005 136.806 Q147.695 138.311 150.727 138.311 Q153.736 138.311 155.426 136.806 Q157.139 135.301 157.139 132.616 Q157.139 129.931 155.426 128.426 Q153.736 126.922 150.727 126.922 Q147.695 126.922 146.005 128.426 Q144.338 129.931 144.338 132.616 Z" fill="#000000" fill-rule="evenodd" fill-opacity="1" /><path clip-path="url(#clip990)" d="M96.2134 64.3167 L103.852 64.3167 L103.852 37.9511 L95.5421 39.6178 L95.5421 35.3586 L103.806 33.6919 L108.482 33.6919 L108.482 64.3167 L116.121 64.3167 L116.121 68.2519 L96.2134 68.2519 L96.2134 64.3167 Z" fill="#000000" fill-rule="evenodd" fill-opacity="1" /><path clip-path="url(#clip990)" d="M125.565 62.3723 L130.449 62.3723 L130.449 68.2519 L125.565 68.2519 L125.565 62.3723 Z" fill="#000000" fill-rule="evenodd" fill-opacity="1" /><path clip-path="url(#clip990)" d="M150.634 36.7706 Q147.023 36.7706 145.195 40.3354 Q143.389 43.877 143.389 51.0066 Q143.389 58.1131 145.195 61.6779 Q147.023 65.2195 150.634 65.2195 Q154.269 65.2195 156.074 61.6779 Q157.903 58.1131 157.903 51.0066 Q157.903 43.877 156.074 40.3354 Q154.269 36.7706 150.634 36.7706 M150.634 33.0669 Q156.445 33.0669 159.5 37.6734 Q162.579 42.2567 162.579 51.0066 Q162.579 59.7334 159.5 64.3399 Q156.445 68.9232 150.634 68.9232 Q144.824 68.9232 141.746 64.3399 Q138.69 59.7334 138.69 51.0066 Q138.69 42.2567 141.746 37.6734 Q144.824 33.0669 150.634 33.0669 Z" fill="#000000" fill-rule="evenodd" fill-opacity="1" /><circle clip-path="url(#clip992)" cx="505.09" cy="372.562" r="14.4" fill="#009af9" fill-rule="evenodd" fill-opacity="1" stroke="#000000" stroke-opacity="1" stroke-width="1.536"/>
<circle clip-path="url(#clip992)" cx="436.231" cy="64.6646" r="14.4" fill="#009af9" fill-rule="evenodd" fill-opacity="1" stroke="#000000" stroke-opacity="1" stroke-width="1.536"/>
<circle clip-path="url(#clip992)" cx="480.507" cy="552.931" r="14.4" fill="#009af9" fill-rule="evenodd" fill-opacity="1" stroke="#000000" stroke-opacity="1" stroke-width="1.536"/>
<circle clip-path="url(#clip992)" cx="745.924" cy="553.722" r="14.4" fill="#009af9" fill-rule="evenodd" fill-opacity="1" stroke="#000000" stroke-opacity="1" stroke-width="1.536"/>
<circle clip-path="url(#clip992)" cx="606.75" cy="430.352" r="14.4" fill="#009af9" fill-rule="evenodd" fill-opacity="1" stroke="#000000" stroke-opacity="1" stroke-width="1.536"/>
<circle clip-path="url(#clip992)" cx="431.145" cy="325.491" r="14.4" fill="#009af9" fill-rule="evenodd" fill-opacity="1" stroke="#000000" stroke-opacity="1" stroke-width="1.536"/>
<circle clip-path="url(#clip992)" cx="746.052" cy="438.373" r="14.4" fill="#009af9" fill-rule="evenodd" fill-opacity="1" stroke="#000000" stroke-opacity="1" stroke-width="1.536"/>
<circle clip-path="url(#clip992)" cx="874.618" cy="404.315" r="14.4" fill="#009af9" fill-rule="evenodd" fill-opacity="1" stroke="#000000" stroke-opacity="1" stroke-width="1.536"/>
<circle clip-path="url(#clip992)" cx="362.591" cy="642.656" r="14.4" fill="#009af9" fill-rule="evenodd" fill-opacity="1" stroke="#000000" stroke-opacity="1" stroke-width="1.536"/>
<circle clip-path="url(#clip992)" cx="909.472" cy="406.78" r="14.4" fill="#009af9" fill-rule="evenodd" fill-opacity="1" stroke="#000000" stroke-opacity="1" stroke-width="1.536"/>
<circle clip-path="url(#clip992)" cx="471.172" cy="125.003" r="14.4" fill="#009af9" fill-rule="evenodd" fill-opacity="1" stroke="#000000" stroke-opacity="1" stroke-width="1.536"/>
<circle clip-path="url(#clip992)" cx="563.452" cy="533.152" r="14.4" fill="#009af9" fill-rule="evenodd" fill-opacity="1" stroke="#000000" stroke-opacity="1" stroke-width="1.536"/>
<circle clip-path="url(#clip992)" cx="536.726" cy="606.063" r="14.4" fill="#009af9" fill-rule="evenodd" fill-opacity="1" stroke="#000000" stroke-opacity="1" stroke-width="1.536"/>
<circle clip-path="url(#clip992)" cx="206.035" cy="559.927" r="14.4" fill="#009af9" fill-rule="evenodd" fill-opacity="1" stroke="#000000" stroke-opacity="1" stroke-width="1.536"/>
<circle clip-path="url(#clip992)" cx="448.45" cy="645.347" r="14.4" fill="#009af9" fill-rule="evenodd" fill-opacity="1" stroke="#000000" stroke-opacity="1" stroke-width="1.536"/>
<circle clip-path="url(#clip992)" cx="518.1" cy="501.996" r="14.4" fill="#009af9" fill-rule="evenodd" fill-opacity="1" stroke="#000000" stroke-opacity="1" stroke-width="1.536"/>
<circle clip-path="url(#clip992)" cx="404.774" cy="285.567" r="14.4" fill="#009af9" fill-rule="evenodd" fill-opacity="1" stroke="#000000" stroke-opacity="1" stroke-width="1.536"/>
<circle clip-path="url(#clip992)" cx="695.431" cy="507.383" r="14.4" fill="#009af9" fill-rule="evenodd" fill-opacity="1" stroke="#000000" stroke-opacity="1" stroke-width="1.536"/>
<circle clip-path="url(#clip992)" cx="348.288" cy="377.893" r="14.4" fill="#009af9" fill-rule="evenodd" fill-opacity="1" stroke="#000000" stroke-opacity="1" stroke-width="1.536"/>
<circle clip-path="url(#clip992)" cx="471.159" cy="234.94" r="14.4" fill="#009af9" fill-rule="evenodd" fill-opacity="1" stroke="#000000" stroke-opacity="1" stroke-width="1.536"/>
<circle clip-path="url(#clip992)" cx="879.198" cy="335.069" r="14.4" fill="#009af9" fill-rule="evenodd" fill-opacity="1" stroke="#000000" stroke-opacity="1" stroke-width="1.536"/>
<circle clip-path="url(#clip992)" cx="573.651" cy="286.194" r="14.4" fill="#009af9" fill-rule="evenodd" fill-opacity="1" stroke="#000000" stroke-opacity="1" stroke-width="1.536"/>
<circle clip-path="url(#clip992)" cx="580.061" cy="402.692" r="14.4" fill="#009af9" fill-rule="evenodd" fill-opacity="1" stroke="#000000" stroke-opacity="1" stroke-width="1.536"/>
<circle clip-path="url(#clip992)" cx="1078.58" cy="100.251" r="14.4" fill="#009af9" fill-rule="evenodd" fill-opacity="1" stroke="#000000" stroke-opacity="1" stroke-width="1.536"/>
<circle clip-path="url(#clip992)" cx="1023.93" cy="371.924" r="14.4" fill="#009af9" fill-rule="evenodd" fill-opacity="1" stroke="#000000" stroke-opacity="1" stroke-width="1.536"/>
<circle clip-path="url(#clip992)" cx="769.678" cy="556.087" r="14.4" fill="#009af9" fill-rule="evenodd" fill-opacity="1" stroke="#000000" stroke-opacity="1" stroke-width="1.536"/>
<circle clip-path="url(#clip992)" cx="806.247" cy="461.602" r="14.4" fill="#009af9" fill-rule="evenodd" fill-opacity="1" stroke="#000000" stroke-opacity="1" stroke-width="1.536"/>
<circle clip-path="url(#clip992)" cx="604.363" cy="384.557" r="14.4" fill="#009af9" fill-rule="evenodd" fill-opacity="1" stroke="#000000" stroke-opacity="1" stroke-width="1.536"/>
<circle clip-path="url(#clip992)" cx="494.465" cy="414.119" r="14.4" fill="#009af9" fill-rule="evenodd" fill-opacity="1" stroke="#000000" stroke-opacity="1" stroke-width="1.536"/>
<circle clip-path="url(#clip992)" cx="554.672" cy="219.293" r="14.4" fill="#009af9" fill-rule="evenodd" fill-opacity="1" stroke="#000000" stroke-opacity="1" stroke-width="1.536"/>
<circle clip-path="url(#clip992)" cx="686.347" cy="535.332" r="14.4" fill="#009af9" fill-rule="evenodd" fill-opacity="1" stroke="#000000" stroke-opacity="1" stroke-width="1.536"/>
<circle clip-path="url(#clip992)" cx="476.545" cy="499.728" r="14.4" fill="#009af9" fill-rule="evenodd" fill-opacity="1" stroke="#000000" stroke-opacity="1" stroke-width="1.536"/>
<circle clip-path="url(#clip992)" cx="746.723" cy="482.422" r="14.4" fill="#009af9" fill-rule="evenodd" fill-opacity="1" stroke="#000000" stroke-opacity="1" stroke-width="1.536"/>
<circle clip-path="url(#clip992)" cx="550.326" cy="248.221" r="14.4" fill="#009af9" fill-rule="evenodd" fill-opacity="1" stroke="#000000" stroke-opacity="1" stroke-width="1.536"/>
<circle clip-path="url(#clip992)" cx="312.943" cy="345.008" r="14.4" fill="#009af9" fill-rule="evenodd" fill-opacity="1" stroke="#000000" stroke-opacity="1" stroke-width="1.536"/>
<circle clip-path="url(#clip992)" cx="354.065" cy="382.163" r="14.4" fill="#009af9" fill-rule="evenodd" fill-opacity="1" stroke="#000000" stroke-opacity="1" stroke-width="1.536"/>
<circle clip-path="url(#clip992)" cx="611.522" cy="513.634" r="14.4" fill="#009af9" fill-rule="evenodd" fill-opacity="1" stroke="#000000" stroke-opacity="1" stroke-width="1.536"/>
<circle clip-path="url(#clip992)" cx="586.358" cy="485.221" r="14.4" fill="#009af9" fill-rule="evenodd" fill-opacity="1" stroke="#000000" stroke-opacity="1" stroke-width="1.536"/>
<circle clip-path="url(#clip992)" cx="752.046" cy="458.116" r="14.4" fill="#009af9" fill-rule="evenodd" fill-opacity="1" stroke="#000000" stroke-opacity="1" stroke-width="1.536"/>
<circle clip-path="url(#clip992)" cx="835.432" cy="599.186" r="14.4" fill="#009af9" fill-rule="evenodd" fill-opacity="1" stroke="#000000" stroke-opacity="1" stroke-width="1.536"/>
<circle clip-path="url(#clip992)" cx="483.474" cy="514.322" r="14.4" fill="#009af9" fill-rule="evenodd" fill-opacity="1" stroke="#000000" stroke-opacity="1" stroke-width="1.536"/>
<circle clip-path="url(#clip992)" cx="493.255" cy="143.37" r="14.4" fill="#009af9" fill-rule="evenodd" fill-opacity="1" stroke="#000000" stroke-opacity="1" stroke-width="1.536"/>
<circle clip-path="url(#clip992)" cx="374.994" cy="280.711" r="14.4" fill="#009af9" fill-rule="evenodd" fill-opacity="1" stroke="#000000" stroke-opacity="1" stroke-width="1.536"/>
<circle clip-path="url(#clip992)" cx="535.667" cy="149.252" r="14.4" fill="#009af9" fill-rule="evenodd" fill-opacity="1" stroke="#000000" stroke-opacity="1" stroke-width="1.536"/>
<circle clip-path="url(#clip992)" cx="842.06" cy="215.625" r="14.4" fill="#009af9" fill-rule="evenodd" fill-opacity="1" stroke="#000000" stroke-opacity="1" stroke-width="1.536"/>
<circle clip-path="url(#clip992)" cx="563.14" cy="275.627" r="14.4" fill="#009af9" fill-rule="evenodd" fill-opacity="1" stroke="#000000" stroke-opacity="1" stroke-width="1.536"/>
<circle clip-path="url(#clip992)" cx="651.962" cy="464.52" r="14.4" fill="#009af9" fill-rule="evenodd" fill-opacity="1" stroke="#000000" stroke-opacity="1" stroke-width="1.536"/>
<circle clip-path="url(#clip992)" cx="603.242" cy="294.673" r="14.4" fill="#009af9" fill-rule="evenodd" fill-opacity="1" stroke="#000000" stroke-opacity="1" stroke-width="1.536"/>
<circle clip-path="url(#clip992)" cx="413.639" cy="428.917" r="14.4" fill="#009af9" fill-rule="evenodd" fill-opacity="1" stroke="#000000" stroke-opacity="1" stroke-width="1.536"/>
<circle clip-path="url(#clip992)" cx="243.269" cy="490.452" r="14.4" fill="#009af9" fill-rule="evenodd" fill-opacity="1" stroke="#000000" stroke-opacity="1" stroke-width="1.536"/>
<polyline clip-path="url(#clip992)" style="stroke:#e26f46; stroke-linecap:round; stroke-linejoin:round; stroke-width:4; stroke-opacity:1; fill:none" points="
  206.035,444.476 211.716,443.703 264.243,436.557 295.809,432.262 322.498,428.631 351.489,424.687 378.217,421.05 406.872,417.152 440.072,412.635 469.576,408.621 
  495.448,405.101 523.656,401.263 552.031,397.403 583.403,393.135 613.254,389.073 644.291,384.851 670.418,381.296 702.316,376.956 731.536,372.981 758.523,369.309 
  785.861,365.59 816.498,361.422 844.261,357.644 876.047,353.32 905.478,349.316 934.494,345.368 962.665,341.535 991.545,337.606 1023.19,333.301 1069.15,327.048 
  1078.58,325.765 
  "/>
<path clip-path="url(#clip990)" d="
M210.689 223.282 L355.609 223.282 L355.609 67.7616 L210.689 67.7616  Z
  " fill="#ffffff" fill-rule="evenodd" fill-opacity="1"/>
<polyline clip-path="url(#clip990)" style="stroke:#000000; stroke-linecap:round; stroke-linejoin:round; stroke-width:4; stroke-opacity:1; fill:none" points="
  210.689,223.282 355.609,223.282 355.609,67.7616 210.689,67.7616 210.689,223.282 
  "/>
<circle clip-path="url(#clip990)" cx="251.795" cy="119.602" r="23.04" fill="#009af9" fill-rule="evenodd" fill-opacity="1" stroke="#000000" stroke-opacity="1" stroke-width="2.4576"/>
<path clip-path="url(#clip990)" d="M306.744 139.289 Q304.939 143.919 303.226 145.331 Q301.513 146.743 298.642 146.743 L295.24 146.743 L295.24 143.178 L297.74 143.178 Q299.499 143.178 300.471 142.344 Q301.443 141.511 302.624 138.409 L303.388 136.465 L292.902 110.956 L297.416 110.956 L305.517 131.233 L313.619 110.956 L318.133 110.956 L306.744 139.289 Z" fill="#000000" fill-rule="evenodd" fill-opacity="1" /><path clip-path="url(#clip990)" d="M325.425 132.946 L333.064 132.946 L333.064 106.581 L324.753 108.247 L324.753 103.988 L333.017 102.322 L337.693 102.322 L337.693 132.946 L345.332 132.946 L345.332 136.882 L325.425 136.882 L325.425 132.946 Z" fill="#000000" fill-rule="evenodd" fill-opacity="1" /><polyline clip-path="url(#clip990)" style="stroke:#e26f46; stroke-linecap:round; stroke-linejoin:round; stroke-width:4; stroke-opacity:1; fill:none" points="
  220.965,171.442 282.625,171.442 
  "/>
<path clip-path="url(#clip990)" d="M306.744 191.129 Q304.939 195.759 303.226 197.171 Q301.513 198.583 298.642 198.583 L295.24 198.583 L295.24 195.018 L297.74 195.018 Q299.499 195.018 300.471 194.184 Q301.443 193.351 302.624 190.249 L303.388 188.305 L292.902 162.796 L297.416 162.796 L305.517 183.073 L313.619 162.796 L318.133 162.796 L306.744 191.129 Z" fill="#000000" fill-rule="evenodd" fill-opacity="1" /><path clip-path="url(#clip990)" d="M328.642 184.786 L344.962 184.786 L344.962 188.722 L323.017 188.722 L323.017 184.786 Q325.679 182.032 330.263 177.402 Q334.869 172.749 336.05 171.407 Q338.295 168.884 339.175 167.148 Q340.077 165.388 340.077 163.699 Q340.077 160.944 338.133 159.208 Q336.212 157.472 333.11 157.472 Q330.911 157.472 328.457 158.236 Q326.027 158.999 323.249 160.55 L323.249 155.828 Q326.073 154.694 328.527 154.115 Q330.98 153.537 333.017 153.537 Q338.388 153.537 341.582 156.222 Q344.776 158.907 344.776 163.398 Q344.776 165.527 343.966 167.449 Q343.179 169.347 341.073 171.939 Q340.494 172.611 337.392 175.828 Q334.29 179.023 328.642 184.786 Z" fill="#000000" fill-rule="evenodd" fill-opacity="1" /></svg>
