<?xml version="1.0" encoding="utf-8"?>
<svg xmlns="http://www.w3.org/2000/svg" xmlns:xlink="http://www.w3.org/1999/xlink" width="576" height="384" viewBox="0 0 2304 1536">
<defs>
  <clipPath id="clip860">
    <rect x="0" y="0" width="2304" height="1536"/>
  </clipPath>
</defs>
<path clip-path="url(#clip860)" d="
M0 1536 L2304 1536 L2304 0 L0 0  Z
  " fill="#ffffff" fill-rule="evenodd" fill-opacity="1"/>
<defs>
  <clipPath id="clip861">
    <rect x="460" y="0" width="1614" height="1536"/>
  </clipPath>
</defs>
<path clip-path="url(#clip860)" d="
M222.143 1423.09 L2256.76 1423.09 L2256.76 47.2441 L222.143 47.2441  Z
  " fill="#ffffff" fill-rule="evenodd" fill-opacity="1"/>
<defs>
  <clipPath id="clip862">
    <rect x="222" y="47" width="2036" height="1377"/>
  </clipPath>
</defs>
<polyline clip-path="url(#clip862)" style="stroke:#000000; stroke-linecap:round; stroke-linejoin:round; stroke-width:2; stroke-opacity:0.1; fill:none" points="
  590.13,1423.09 590.13,47.2441 
  "/>
<polyline clip-path="url(#clip862)" style="stroke:#000000; stroke-linecap:round; stroke-linejoin:round; stroke-width:2; stroke-opacity:0.1; fill:none" points="
  971.247,1423.09 971.247,47.2441 
  "/>
<polyline clip-path="url(#clip862)" style="stroke:#000000; stroke-linecap:round; stroke-linejoin:round; stroke-width:2; stroke-opacity:0.1; fill:none" points="
  1352.36,1423.09 1352.36,47.2441 
  "/>
<polyline clip-path="url(#clip862)" style="stroke:#000000; stroke-linecap:round; stroke-linejoin:round; stroke-width:2; stroke-opacity:0.1; fill:none" points="
  1733.48,1423.09 1733.48,47.2441 
  "/>
<polyline clip-path="url(#clip862)" style="stroke:#000000; stroke-linecap:round; stroke-linejoin:round; stroke-width:2; stroke-opacity:0.1; fill:none" points="
  2114.6,1423.09 2114.6,47.2441 
  "/>
<polyline clip-path="url(#clip860)" style="stroke:#000000; stroke-linecap:round; stroke-linejoin:round; stroke-width:4; stroke-opacity:1; fill:none" points="
  222.143,1423.09 2256.76,1423.09 
  "/>
<polyline clip-path="url(#clip860)" style="stroke:#000000; stroke-linecap:round; stroke-linejoin:round; stroke-width:4; stroke-opacity:1; fill:none" points="
  590.13,1423.09 590.13,1404.19 
  "/>
<polyline clip-path="url(#clip860)" style="stroke:#000000; stroke-linecap:round; stroke-linejoin:round; stroke-width:4; stroke-opacity:1; fill:none" points="
  971.247,1423.09 971.247,1404.19 
  "/>
<polyline clip-path="url(#clip860)" style="stroke:#000000; stroke-linecap:round; stroke-linejoin:round; stroke-width:4; stroke-opacity:1; fill:none" points="
  1352.36,1423.09 1352.36,1404.19 
  "/>
<polyline clip-path="url(#clip860)" style="stroke:#000000; stroke-linecap:round; stroke-linejoin:round; stroke-width:4; stroke-opacity:1; fill:none" points="
  1733.48,1423.09 1733.48,1404.19 
  "/>
<polyline clip-path="url(#clip860)" style="stroke:#000000; stroke-linecap:round; stroke-linejoin:round; stroke-width:4; stroke-opacity:1; fill:none" points="
  2114.6,1423.09 2114.6,1404.19 
  "/>
<path clip-path="url(#clip860)" d="M542.202 1480.78 L549.841 1480.78 L549.841 1454.42 L541.531 1456.09 L541.531 1451.83 L549.795 1450.16 L554.471 1450.16 L554.471 1480.78 L562.11 1480.78 L562.11 1484.72 L542.202 1484.72 L542.202 1480.78 Z" fill="#000000" fill-rule="evenodd" fill-opacity="1" /><path clip-path="url(#clip860)" d="M571.554 1478.84 L576.438 1478.84 L576.438 1484.72 L571.554 1484.72 L571.554 1478.84 Z" fill="#000000" fill-rule="evenodd" fill-opacity="1" /><path clip-path="url(#clip860)" d="M596.623 1453.24 Q593.012 1453.24 591.184 1456.8 Q589.378 1460.35 589.378 1467.47 Q589.378 1474.58 591.184 1478.15 Q593.012 1481.69 596.623 1481.69 Q600.258 1481.69 602.063 1478.15 Q603.892 1474.58 603.892 1467.47 Q603.892 1460.35 602.063 1456.8 Q600.258 1453.24 596.623 1453.24 M596.623 1449.53 Q602.434 1449.53 605.489 1454.14 Q608.568 1458.72 608.568 1467.47 Q608.568 1476.2 605.489 1480.81 Q602.434 1485.39 596.623 1485.39 Q590.813 1485.39 587.735 1480.81 Q584.679 1476.2 584.679 1467.47 Q584.679 1458.72 587.735 1454.14 Q590.813 1449.53 596.623 1449.53 Z" fill="#000000" fill-rule="evenodd" fill-opacity="1" /><path clip-path="url(#clip860)" d="M626.785 1453.24 Q623.174 1453.24 621.346 1456.8 Q619.54 1460.35 619.54 1467.47 Q619.54 1474.58 621.346 1478.15 Q623.174 1481.69 626.785 1481.69 Q630.42 1481.69 632.225 1478.15 Q634.054 1474.58 634.054 1467.47 Q634.054 1460.35 632.225 1456.8 Q630.42 1453.24 626.785 1453.24 M626.785 1449.53 Q632.595 1449.53 635.651 1454.14 Q638.73 1458.72 638.73 1467.47 Q638.73 1476.2 635.651 1480.81 Q632.595 1485.39 626.785 1485.39 Q620.975 1485.39 617.897 1480.81 Q614.841 1476.2 614.841 1467.47 Q614.841 1458.72 617.897 1454.14 Q620.975 1449.53 626.785 1449.53 Z" fill="#000000" fill-rule="evenodd" fill-opacity="1" /><path clip-path="url(#clip860)" d="M923.817 1480.78 L931.456 1480.78 L931.456 1454.42 L923.145 1456.09 L923.145 1451.83 L931.409 1450.16 L936.085 1450.16 L936.085 1480.78 L943.724 1480.78 L943.724 1484.72 L923.817 1484.72 L923.817 1480.78 Z" fill="#000000" fill-rule="evenodd" fill-opacity="1" /><path clip-path="url(#clip860)" d="M953.168 1478.84 L958.053 1478.84 L958.053 1484.72 L953.168 1484.72 L953.168 1478.84 Z" fill="#000000" fill-rule="evenodd" fill-opacity="1" /><path clip-path="url(#clip860)" d="M972.266 1480.78 L988.585 1480.78 L988.585 1484.72 L966.641 1484.72 L966.641 1480.78 Q969.303 1478.03 973.886 1473.4 Q978.492 1468.75 979.673 1467.41 Q981.918 1464.88 982.798 1463.15 Q983.701 1461.39 983.701 1459.7 Q983.701 1456.94 981.756 1455.21 Q979.835 1453.47 976.733 1453.47 Q974.534 1453.47 972.08 1454.23 Q969.65 1455 966.872 1456.55 L966.872 1451.83 Q969.696 1450.69 972.15 1450.11 Q974.604 1449.53 976.641 1449.53 Q982.011 1449.53 985.205 1452.22 Q988.4 1454.91 988.4 1459.4 Q988.4 1461.53 987.59 1463.45 Q986.803 1465.34 984.696 1467.94 Q984.117 1468.61 981.016 1471.83 Q977.914 1475.02 972.266 1480.78 Z" fill="#000000" fill-rule="evenodd" fill-opacity="1" /><path clip-path="url(#clip860)" d="M998.446 1450.16 L1016.8 1450.16 L1016.8 1454.1 L1002.73 1454.1 L1002.73 1462.57 Q1003.75 1462.22 1004.77 1462.06 Q1005.78 1461.87 1006.8 1461.87 Q1012.59 1461.87 1015.97 1465.04 Q1019.35 1468.22 1019.35 1473.63 Q1019.35 1479.21 1015.88 1482.31 Q1012.4 1485.39 1006.08 1485.39 Q1003.91 1485.39 1001.64 1485.02 Q999.395 1484.65 996.988 1483.91 L996.988 1479.21 Q999.071 1480.34 1001.29 1480.9 Q1003.52 1481.46 1005.99 1481.46 Q1010 1481.46 1012.33 1479.35 Q1014.67 1477.24 1014.67 1473.63 Q1014.67 1470.02 1012.33 1467.91 Q1010 1465.81 1005.99 1465.81 Q1004.12 1465.81 1002.24 1466.22 Q1000.39 1466.64 998.446 1467.52 L998.446 1450.16 Z" fill="#000000" fill-rule="evenodd" fill-opacity="1" /><path clip-path="url(#clip860)" d="M1304.44 1480.78 L1312.07 1480.78 L1312.07 1454.42 L1303.76 1456.09 L1303.76 1451.83 L1312.03 1450.16 L1316.7 1450.16 L1316.7 1480.78 L1324.34 1480.78 L1324.34 1484.72 L1304.44 1484.72 L1304.44 1480.78 Z" fill="#000000" fill-rule="evenodd" fill-opacity="1" /><path clip-path="url(#clip860)" d="M1333.79 1478.84 L1338.67 1478.84 L1338.67 1484.72 L1333.79 1484.72 L1333.79 1478.84 Z" fill="#000000" fill-rule="evenodd" fill-opacity="1" /><path clip-path="url(#clip860)" d="M1348.9 1450.16 L1367.26 1450.16 L1367.26 1454.1 L1353.19 1454.1 L1353.19 1462.57 Q1354.2 1462.22 1355.22 1462.06 Q1356.24 1461.87 1357.26 1461.87 Q1363.05 1461.87 1366.43 1465.04 Q1369.81 1468.22 1369.81 1473.63 Q1369.81 1479.21 1366.33 1482.31 Q1362.86 1485.39 1356.54 1485.39 Q1354.37 1485.39 1352.1 1485.02 Q1349.85 1484.65 1347.44 1483.91 L1347.44 1479.21 Q1349.53 1480.34 1351.75 1480.9 Q1353.97 1481.46 1356.45 1481.46 Q1360.45 1481.46 1362.79 1479.35 Q1365.13 1477.24 1365.13 1473.63 Q1365.13 1470.02 1362.79 1467.91 Q1360.45 1465.81 1356.45 1465.81 Q1354.57 1465.81 1352.7 1466.22 Q1350.85 1466.64 1348.9 1467.52 L1348.9 1450.16 Z" fill="#000000" fill-rule="evenodd" fill-opacity="1" /><path clip-path="url(#clip860)" d="M1389.02 1453.24 Q1385.41 1453.24 1383.58 1456.8 Q1381.77 1460.35 1381.77 1467.47 Q1381.77 1474.58 1383.58 1478.15 Q1385.41 1481.69 1389.02 1481.69 Q1392.65 1481.69 1394.46 1478.15 Q1396.29 1474.58 1396.29 1467.47 Q1396.29 1460.35 1394.46 1456.8 Q1392.65 1453.24 1389.02 1453.24 M1389.02 1449.53 Q1394.83 1449.53 1397.88 1454.14 Q1400.96 1458.72 1400.96 1467.47 Q1400.96 1476.2 1397.88 1480.81 Q1394.83 1485.39 1389.02 1485.39 Q1383.21 1485.39 1380.13 1480.81 Q1377.07 1476.2 1377.07 1467.47 Q1377.07 1458.72 1380.13 1454.14 Q1383.21 1449.53 1389.02 1449.53 Z" fill="#000000" fill-rule="evenodd" fill-opacity="1" /><path clip-path="url(#clip860)" d="M1686.05 1480.78 L1693.69 1480.78 L1693.69 1454.42 L1685.38 1456.09 L1685.38 1451.83 L1693.64 1450.16 L1698.32 1450.16 L1698.32 1480.78 L1705.96 1480.78 L1705.96 1484.72 L1686.05 1484.72 L1686.05 1480.78 Z" fill="#000000" fill-rule="evenodd" fill-opacity="1" /><path clip-path="url(#clip860)" d="M1715.4 1478.84 L1720.29 1478.84 L1720.29 1484.72 L1715.4 1484.72 L1715.4 1478.84 Z" fill="#000000" fill-rule="evenodd" fill-opacity="1" /><path clip-path="url(#clip860)" d="M1729.29 1450.16 L1751.51 1450.16 L1751.51 1452.15 L1738.97 1484.72 L1734.08 1484.72 L1745.89 1454.1 L1729.29 1454.1 L1729.29 1450.16 Z" fill="#000000" fill-rule="evenodd" fill-opacity="1" /><path clip-path="url(#clip860)" d="M1760.68 1450.16 L1779.04 1450.16 L1779.04 1454.1 L1764.96 1454.1 L1764.96 1462.57 Q1765.98 1462.22 1767 1462.06 Q1768.02 1461.87 1769.04 1461.87 Q1774.82 1461.87 1778.2 1465.04 Q1781.58 1468.22 1781.58 1473.63 Q1781.58 1479.21 1778.11 1482.31 Q1774.64 1485.39 1768.32 1485.39 Q1766.14 1485.39 1763.87 1485.02 Q1761.63 1484.65 1759.22 1483.91 L1759.22 1479.21 Q1761.3 1480.34 1763.53 1480.9 Q1765.75 1481.46 1768.23 1481.46 Q1772.23 1481.46 1774.57 1479.35 Q1776.91 1477.24 1776.91 1473.63 Q1776.91 1470.02 1774.57 1467.91 Q1772.23 1465.81 1768.23 1465.81 Q1766.35 1465.81 1764.48 1466.22 Q1762.62 1466.64 1760.68 1467.52 L1760.68 1450.16 Z" fill="#000000" fill-rule="evenodd" fill-opacity="1" /><path clip-path="url(#clip860)" d="M2070.75 1480.78 L2087.07 1480.78 L2087.07 1484.72 L2065.13 1484.72 L2065.13 1480.78 Q2067.79 1478.03 2072.37 1473.4 Q2076.98 1468.75 2078.16 1467.41 Q2080.41 1464.88 2081.29 1463.15 Q2082.19 1461.39 2082.19 1459.7 Q2082.19 1456.94 2080.25 1455.21 Q2078.32 1453.47 2075.22 1453.47 Q2073.02 1453.47 2070.57 1454.23 Q2068.14 1455 2065.36 1456.55 L2065.36 1451.83 Q2068.19 1450.69 2070.64 1450.11 Q2073.09 1449.53 2075.13 1449.53 Q2080.5 1449.53 2083.69 1452.22 Q2086.89 1454.91 2086.89 1459.4 Q2086.89 1461.53 2086.08 1463.45 Q2085.29 1465.34 2083.19 1467.94 Q2082.61 1468.61 2079.5 1471.83 Q2076.4 1475.02 2070.75 1480.78 Z" fill="#000000" fill-rule="evenodd" fill-opacity="1" /><path clip-path="url(#clip860)" d="M2096.89 1478.84 L2101.77 1478.84 L2101.77 1484.72 L2096.89 1484.72 L2096.89 1478.84 Z" fill="#000000" fill-rule="evenodd" fill-opacity="1" /><path clip-path="url(#clip860)" d="M2121.96 1453.24 Q2118.35 1453.24 2116.52 1456.8 Q2114.71 1460.35 2114.71 1467.47 Q2114.71 1474.58 2116.52 1478.15 Q2118.35 1481.69 2121.96 1481.69 Q2125.59 1481.69 2127.4 1478.15 Q2129.23 1474.58 2129.23 1467.47 Q2129.23 1460.35 2127.4 1456.8 Q2125.59 1453.24 2121.96 1453.24 M2121.96 1449.53 Q2127.77 1449.53 2130.82 1454.14 Q2133.9 1458.72 2133.9 1467.47 Q2133.9 1476.2 2130.82 1480.81 Q2127.77 1485.39 2121.96 1485.39 Q2116.15 1485.39 2113.07 1480.81 Q2110.01 1476.2 2110.01 1467.47 Q2110.01 1458.72 2113.07 1454.14 Q2116.15 1449.53 2121.96 1449.53 Z" fill="#000000" fill-rule="evenodd" fill-opacity="1" /><path clip-path="url(#clip860)" d="M2152.12 1453.24 Q2148.51 1453.24 2146.68 1456.8 Q2144.87 1460.35 2144.87 1467.47 Q2144.87 1474.58 2146.68 1478.15 Q2148.51 1481.69 2152.12 1481.69 Q2155.75 1481.69 2157.56 1478.15 Q2159.39 1474.58 2159.39 1467.47 Q2159.39 1460.35 2157.56 1456.8 Q2155.75 1453.24 2152.12 1453.24 M2152.12 1449.53 Q2157.93 1449.53 2160.99 1454.14 Q2164.06 1458.72 2164.06 1467.47 Q2164.06 1476.2 2160.99 1480.81 Q2157.93 1485.39 2152.12 1485.39 Q2146.31 1485.39 2143.23 1480.81 Q2140.18 1476.2 2140.18 1467.47 Q2140.18 1458.72 2143.23 1454.14 Q2146.31 1449.53 2152.12 1449.53 Z" fill="#000000" fill-rule="evenodd" fill-opacity="1" /><polyline clip-path="url(#clip862)" style="stroke:#000000; stroke-linecap:round; stroke-linejoin:round; stroke-width:2; stroke-opacity:0.1; fill:none" points="
  222.143,1222.78 2256.76,1222.78 
  "/>
<polyline clip-path="url(#clip862)" style="stroke:#000000; stroke-linecap:round; stroke-linejoin:round; stroke-width:2; stroke-opacity:0.1; fill:none" points="
  222.143,966.525 2256.76,966.525 
  "/>
<polyline clip-path="url(#clip862)" style="stroke:#000000; stroke-linecap:round; stroke-linejoin:round; stroke-width:2; stroke-opacity:0.1; fill:none" points="
  222.143,710.271 2256.76,710.271 
  "/>
<polyline clip-path="url(#clip862)" style="stroke:#000000; stroke-linecap:round; stroke-linejoin:round; stroke-width:2; stroke-opacity:0.1; fill:none" points="
  222.143,454.017 2256.76,454.017 
  "/>
<polyline clip-path="url(#clip862)" style="stroke:#000000; stroke-linecap:round; stroke-linejoin:round; stroke-width:2; stroke-opacity:0.1; fill:none" points="
  222.143,197.763 2256.76,197.763 
  "/>
<polyline clip-path="url(#clip860)" style="stroke:#000000; stroke-linecap:round; stroke-linejoin:round; stroke-width:4; stroke-opacity:1; fill:none" points="
  222.143,1423.09 222.143,47.2441 
  "/>
<polyline clip-path="url(#clip860)" style="stroke:#000000; stroke-linecap:round; stroke-linejoin:round; stroke-width:4; stroke-opacity:1; fill:none" points="
  222.143,1222.78 241.04,1222.78 
  "/>
<polyline clip-path="url(#clip860)" style="stroke:#000000; stroke-linecap:round; stroke-linejoin:round; stroke-width:4; stroke-opacity:1; fill:none" points="
  222.143,966.525 241.04,966.525 
  "/>
<polyline clip-path="url(#clip860)" style="stroke:#000000; stroke-linecap:round; stroke-linejoin:round; stroke-width:4; stroke-opacity:1; fill:none" points="
  222.143,710.271 241.04,710.271 
  "/>
<polyline clip-path="url(#clip860)" style="stroke:#000000; stroke-linecap:round; stroke-linejoin:round; stroke-width:4; stroke-opacity:1; fill:none" points="
  222.143,454.017 241.04,454.017 
  "/>
<polyline clip-path="url(#clip860)" style="stroke:#000000; stroke-linecap:round; stroke-linejoin:round; stroke-width:4; stroke-opacity:1; fill:none" points="
  222.143,197.763 241.04,197.763 
  "/>
<path clip-path="url(#clip860)" d="M51.4721 1223.23 L81.1479 1223.23 L81.1479 1227.16 L51.4721 1227.16 L51.4721 1223.23 Z" fill="#000000" fill-rule="evenodd" fill-opacity="1" /><path clip-path="url(#clip860)" d="M101.24 1208.58 Q97.6293 1208.58 95.8006 1212.14 Q93.995 1215.68 93.995 1222.81 Q93.995 1229.92 95.8006 1233.48 Q97.6293 1237.03 101.24 1237.03 Q104.875 1237.03 106.68 1233.48 Q108.509 1229.92 108.509 1222.81 Q108.509 1215.68 106.68 1212.14 Q104.875 1208.58 101.24 1208.58 M101.24 1204.87 Q107.051 1204.87 110.106 1209.48 Q113.185 1214.06 113.185 1222.81 Q113.185 1231.54 110.106 1236.15 Q107.051 1240.73 101.24 1240.73 Q95.4302 1240.73 92.3515 1236.15 Q89.296 1231.54 89.296 1222.81 Q89.296 1214.06 92.3515 1209.48 Q95.4302 1204.87 101.24 1204.87 Z" fill="#000000" fill-rule="evenodd" fill-opacity="1" /><path clip-path="url(#clip860)" d="M121.402 1234.18 L126.287 1234.18 L126.287 1240.06 L121.402 1240.06 L121.402 1234.18 Z" fill="#000000" fill-rule="evenodd" fill-opacity="1" /><path clip-path="url(#clip860)" d="M140.499 1236.12 L156.819 1236.12 L156.819 1240.06 L134.874 1240.06 L134.874 1236.12 Q137.536 1233.37 142.12 1228.74 Q146.726 1224.09 147.907 1222.74 Q150.152 1220.22 151.032 1218.48 Q151.935 1216.73 151.935 1215.04 Q151.935 1212.28 149.99 1210.54 Q148.069 1208.81 144.967 1208.81 Q142.768 1208.81 140.314 1209.57 Q137.884 1210.34 135.106 1211.89 L135.106 1207.17 Q137.93 1206.03 140.384 1205.45 Q142.837 1204.87 144.874 1204.87 Q150.245 1204.87 153.439 1207.56 Q156.634 1210.24 156.634 1214.73 Q156.634 1216.86 155.823 1218.79 Q155.036 1220.68 152.93 1223.28 Q152.351 1223.95 149.249 1227.16 Q146.148 1230.36 140.499 1236.12 Z" fill="#000000" fill-rule="evenodd" fill-opacity="1" /><path clip-path="url(#clip860)" d="M166.68 1205.5 L185.036 1205.5 L185.036 1209.43 L170.962 1209.43 L170.962 1217.91 Q171.981 1217.56 172.999 1217.4 Q174.018 1217.21 175.036 1217.21 Q180.823 1217.21 184.203 1220.38 Q187.583 1223.55 187.583 1228.97 Q187.583 1234.55 184.11 1237.65 Q180.638 1240.73 174.319 1240.73 Q172.143 1240.73 169.874 1240.36 Q167.629 1239.99 165.222 1239.25 L165.222 1234.55 Q167.305 1235.68 169.527 1236.24 Q171.749 1236.79 174.226 1236.79 Q178.231 1236.79 180.569 1234.69 Q182.907 1232.58 182.907 1228.97 Q182.907 1225.36 180.569 1223.25 Q178.231 1221.15 174.226 1221.15 Q172.351 1221.15 170.476 1221.56 Q168.624 1221.98 166.68 1222.86 L166.68 1205.5 Z" fill="#000000" fill-rule="evenodd" fill-opacity="1" /><path clip-path="url(#clip860)" d="M100.245 952.323 Q96.6339 952.323 94.8052 955.888 Q92.9997 959.43 92.9997 966.559 Q92.9997 973.666 94.8052 977.231 Q96.6339 980.772 100.245 980.772 Q103.879 980.772 105.685 977.231 Q107.513 973.666 107.513 966.559 Q107.513 959.43 105.685 955.888 Q103.879 952.323 100.245 952.323 M100.245 948.62 Q106.055 948.62 109.111 953.226 Q112.189 957.809 112.189 966.559 Q112.189 975.286 109.111 979.893 Q106.055 984.476 100.245 984.476 Q94.4349 984.476 91.3562 979.893 Q88.3006 975.286 88.3006 966.559 Q88.3006 957.809 91.3562 953.226 Q94.4349 948.62 100.245 948.62 Z" fill="#000000" fill-rule="evenodd" fill-opacity="1" /><path clip-path="url(#clip860)" d="M120.407 977.925 L125.291 977.925 L125.291 983.805 L120.407 983.805 L120.407 977.925 Z" fill="#000000" fill-rule="evenodd" fill-opacity="1" /><path clip-path="url(#clip860)" d="M145.476 952.323 Q141.865 952.323 140.036 955.888 Q138.231 959.43 138.231 966.559 Q138.231 973.666 140.036 977.231 Q141.865 980.772 145.476 980.772 Q149.11 980.772 150.916 977.231 Q152.745 973.666 152.745 966.559 Q152.745 959.43 150.916 955.888 Q149.11 952.323 145.476 952.323 M145.476 948.62 Q151.286 948.62 154.342 953.226 Q157.421 957.809 157.421 966.559 Q157.421 975.286 154.342 979.893 Q151.286 984.476 145.476 984.476 Q139.666 984.476 136.587 979.893 Q133.532 975.286 133.532 966.559 Q133.532 957.809 136.587 953.226 Q139.666 948.62 145.476 948.62 Z" fill="#000000" fill-rule="evenodd" fill-opacity="1" /><path clip-path="url(#clip860)" d="M175.638 952.323 Q172.027 952.323 170.198 955.888 Q168.393 959.43 168.393 966.559 Q168.393 973.666 170.198 977.231 Q172.027 980.772 175.638 980.772 Q179.272 980.772 181.078 977.231 Q182.907 973.666 182.907 966.559 Q182.907 959.43 181.078 955.888 Q179.272 952.323 175.638 952.323 M175.638 948.62 Q181.448 948.62 184.504 953.226 Q187.583 957.809 187.583 966.559 Q187.583 975.286 184.504 979.893 Q181.448 984.476 175.638 984.476 Q169.828 984.476 166.749 979.893 Q163.694 975.286 163.694 966.559 Q163.694 957.809 166.749 953.226 Q169.828 948.62 175.638 948.62 Z" fill="#000000" fill-rule="evenodd" fill-opacity="1" /><path clip-path="url(#clip860)" d="M101.24 696.07 Q97.6293 696.07 95.8006 699.634 Q93.995 703.176 93.995 710.306 Q93.995 717.412 95.8006 720.977 Q97.6293 724.519 101.24 724.519 Q104.875 724.519 106.68 720.977 Q108.509 717.412 108.509 710.306 Q108.509 703.176 106.68 699.634 Q104.875 696.07 101.24 696.07 M101.24 692.366 Q107.051 692.366 110.106 696.972 Q113.185 701.556 113.185 710.306 Q113.185 719.032 110.106 723.639 Q107.051 728.222 101.24 728.222 Q95.4302 728.222 92.3515 723.639 Q89.296 719.032 89.296 710.306 Q89.296 701.556 92.3515 696.972 Q95.4302 692.366 101.24 692.366 Z" fill="#000000" fill-rule="evenodd" fill-opacity="1" /><path clip-path="url(#clip860)" d="M121.402 721.671 L126.287 721.671 L126.287 727.551 L121.402 727.551 L121.402 721.671 Z" fill="#000000" fill-rule="evenodd" fill-opacity="1" /><path clip-path="url(#clip860)" d="M140.499 723.616 L156.819 723.616 L156.819 727.551 L134.874 727.551 L134.874 723.616 Q137.536 720.861 142.12 716.232 Q146.726 711.579 147.907 710.236 Q150.152 707.713 151.032 705.977 Q151.935 704.218 151.935 702.528 Q151.935 699.773 149.99 698.037 Q148.069 696.301 144.967 696.301 Q142.768 696.301 140.314 697.065 Q137.884 697.829 135.106 699.38 L135.106 694.658 Q137.93 693.523 140.384 692.945 Q142.837 692.366 144.874 692.366 Q150.245 692.366 153.439 695.051 Q156.634 697.736 156.634 702.227 Q156.634 704.357 155.823 706.278 Q155.036 708.176 152.93 710.769 Q152.351 711.44 149.249 714.657 Q146.148 717.852 140.499 723.616 Z" fill="#000000" fill-rule="evenodd" fill-opacity="1" /><path clip-path="url(#clip860)" d="M166.68 692.991 L185.036 692.991 L185.036 696.926 L170.962 696.926 L170.962 705.398 Q171.981 705.051 172.999 704.889 Q174.018 704.704 175.036 704.704 Q180.823 704.704 184.203 707.875 Q187.583 711.046 187.583 716.463 Q187.583 722.042 184.11 725.144 Q180.638 728.222 174.319 728.222 Q172.143 728.222 169.874 727.852 Q167.629 727.481 165.222 726.741 L165.222 722.042 Q167.305 723.176 169.527 723.732 Q171.749 724.287 174.226 724.287 Q178.231 724.287 180.569 722.181 Q182.907 720.074 182.907 716.463 Q182.907 712.852 180.569 710.745 Q178.231 708.639 174.226 708.639 Q172.351 708.639 170.476 709.056 Q168.624 709.472 166.68 710.352 L166.68 692.991 Z" fill="#000000" fill-rule="evenodd" fill-opacity="1" /><path clip-path="url(#clip860)" d="M100.245 439.816 Q96.6339 439.816 94.8052 443.381 Q92.9997 446.922 92.9997 454.052 Q92.9997 461.158 94.8052 464.723 Q96.6339 468.265 100.245 468.265 Q103.879 468.265 105.685 464.723 Q107.513 461.158 107.513 454.052 Q107.513 446.922 105.685 443.381 Q103.879 439.816 100.245 439.816 M100.245 436.112 Q106.055 436.112 109.111 440.719 Q112.189 445.302 112.189 454.052 Q112.189 462.779 109.111 467.385 Q106.055 471.969 100.245 471.969 Q94.4349 471.969 91.3562 467.385 Q88.3006 462.779 88.3006 454.052 Q88.3006 445.302 91.3562 440.719 Q94.4349 436.112 100.245 436.112 Z" fill="#000000" fill-rule="evenodd" fill-opacity="1" /><path clip-path="url(#clip860)" d="M120.407 465.418 L125.291 465.418 L125.291 471.297 L120.407 471.297 L120.407 465.418 Z" fill="#000000" fill-rule="evenodd" fill-opacity="1" /><path clip-path="url(#clip860)" d="M135.523 436.737 L153.879 436.737 L153.879 440.672 L139.805 440.672 L139.805 449.145 Q140.823 448.797 141.842 448.635 Q142.861 448.45 143.879 448.45 Q149.666 448.45 153.046 451.621 Q156.425 454.793 156.425 460.209 Q156.425 465.788 152.953 468.89 Q149.481 471.969 143.161 471.969 Q140.986 471.969 138.717 471.598 Q136.472 471.228 134.064 470.487 L134.064 465.788 Q136.148 466.922 138.37 467.478 Q140.592 468.033 143.069 468.033 Q147.073 468.033 149.411 465.927 Q151.749 463.82 151.749 460.209 Q151.749 456.598 149.411 454.492 Q147.073 452.385 143.069 452.385 Q141.194 452.385 139.319 452.802 Q137.467 453.219 135.523 454.098 L135.523 436.737 Z" fill="#000000" fill-rule="evenodd" fill-opacity="1" /><path clip-path="url(#clip860)" d="M175.638 439.816 Q172.027 439.816 170.198 443.381 Q168.393 446.922 168.393 454.052 Q168.393 461.158 170.198 464.723 Q172.027 468.265 175.638 468.265 Q179.272 468.265 181.078 464.723 Q182.907 461.158 182.907 454.052 Q182.907 446.922 181.078 443.381 Q179.272 439.816 175.638 439.816 M175.638 436.112 Q181.448 436.112 184.504 440.719 Q187.583 445.302 187.583 454.052 Q187.583 462.779 184.504 467.385 Q181.448 471.969 175.638 471.969 Q169.828 471.969 166.749 467.385 Q163.694 462.779 163.694 454.052 Q163.694 445.302 166.749 440.719 Q169.828 436.112 175.638 436.112 Z" fill="#000000" fill-rule="evenodd" fill-opacity="1" /><path clip-path="url(#clip860)" d="M101.24 183.562 Q97.6293 183.562 95.8006 187.127 Q93.995 190.669 93.995 197.798 Q93.995 204.905 95.8006 208.469 Q97.6293 212.011 101.24 212.011 Q104.875 212.011 106.68 208.469 Q108.509 204.905 108.509 197.798 Q108.509 190.669 106.68 187.127 Q104.875 183.562 101.24 183.562 M101.24 179.858 Q107.051 179.858 110.106 184.465 Q113.185 189.048 113.185 197.798 Q113.185 206.525 110.106 211.131 Q107.051 215.715 101.24 215.715 Q95.4302 215.715 92.3515 211.131 Q89.296 206.525 89.296 197.798 Q89.296 189.048 92.3515 184.465 Q95.4302 179.858 101.24 179.858 Z" fill="#000000" fill-rule="evenodd" fill-opacity="1" /><path clip-path="url(#clip860)" d="M121.402 209.164 L126.287 209.164 L126.287 215.043 L121.402 215.043 L121.402 209.164 Z" fill="#000000" fill-rule="evenodd" fill-opacity="1" /><path clip-path="url(#clip860)" d="M135.291 180.483 L157.513 180.483 L157.513 182.474 L144.967 215.043 L140.083 215.043 L151.888 184.419 L135.291 184.419 L135.291 180.483 Z" fill="#000000" fill-rule="evenodd" fill-opacity="1" /><path clip-path="url(#clip860)" d="M166.68 180.483 L185.036 180.483 L185.036 184.419 L170.962 184.419 L170.962 192.891 Q171.981 192.544 172.999 192.382 Q174.018 192.196 175.036 192.196 Q180.823 192.196 184.203 195.368 Q187.583 198.539 187.583 203.956 Q187.583 209.534 184.11 212.636 Q180.638 215.715 174.319 215.715 Q172.143 215.715 169.874 215.344 Q167.629 214.974 165.222 214.233 L165.222 209.534 Q167.305 210.669 169.527 211.224 Q171.749 211.78 174.226 211.78 Q178.231 211.78 180.569 209.673 Q182.907 207.567 182.907 203.956 Q182.907 200.344 180.569 198.238 Q178.231 196.132 174.226 196.132 Q172.351 196.132 170.476 196.548 Q168.624 196.965 166.68 197.845 L166.68 180.483 Z" fill="#000000" fill-rule="evenodd" fill-opacity="1" /><circle clip-path="url(#clip862)" cx="1269.86" cy="714.451" r="14.4" fill="#009af9" fill-rule="evenodd" fill-opacity="1" stroke="#000000" stroke-opacity="1" stroke-width="3.072"/>
<circle clip-path="url(#clip862)" cx="1405.16" cy="744.937" r="14.4" fill="#009af9" fill-rule="evenodd" fill-opacity="1" stroke="#000000" stroke-opacity="1" stroke-width="3.072"/>
<circle clip-path="url(#clip862)" cx="1018.98" cy="1043.02" r="14.4" fill="#009af9" fill-rule="evenodd" fill-opacity="1" stroke="#000000" stroke-opacity="1" stroke-width="3.072"/>
<circle clip-path="url(#clip862)" cx="852.953" cy="1384.15" r="14.4" fill="#009af9" fill-rule="evenodd" fill-opacity="1" stroke="#000000" stroke-opacity="1" stroke-width="3.072"/>
<circle clip-path="url(#clip862)" cx="1205.35" cy="684.839" r="14.4" fill="#009af9" fill-rule="evenodd" fill-opacity="1" stroke="#000000" stroke-opacity="1" stroke-width="3.072"/>
<circle clip-path="url(#clip862)" cx="1235.22" cy="662.936" r="14.4" fill="#009af9" fill-rule="evenodd" fill-opacity="1" stroke="#000000" stroke-opacity="1" stroke-width="3.072"/>
<circle clip-path="url(#clip862)" cx="1007.9" cy="926.298" r="14.4" fill="#009af9" fill-rule="evenodd" fill-opacity="1" stroke="#000000" stroke-opacity="1" stroke-width="3.072"/>
<circle clip-path="url(#clip862)" cx="841.83" cy="785.617" r="14.4" fill="#009af9" fill-rule="evenodd" fill-opacity="1" stroke="#000000" stroke-opacity="1" stroke-width="3.072"/>
<circle clip-path="url(#clip862)" cx="1685.7" cy="452.132" r="14.4" fill="#009af9" fill-rule="evenodd" fill-opacity="1" stroke="#000000" stroke-opacity="1" stroke-width="3.072"/>
<circle clip-path="url(#clip862)" cx="1397.35" cy="772.597" r="14.4" fill="#009af9" fill-rule="evenodd" fill-opacity="1" stroke="#000000" stroke-opacity="1" stroke-width="3.072"/>
<circle clip-path="url(#clip862)" cx="1032.55" cy="86.1831" r="14.4" fill="#009af9" fill-rule="evenodd" fill-opacity="1" stroke="#000000" stroke-opacity="1" stroke-width="3.072"/>
<circle clip-path="url(#clip862)" cx="1002.86" cy="646.287" r="14.4" fill="#009af9" fill-rule="evenodd" fill-opacity="1" stroke="#000000" stroke-opacity="1" stroke-width="3.072"/>
<circle clip-path="url(#clip862)" cx="1218.12" cy="607.176" r="14.4" fill="#009af9" fill-rule="evenodd" fill-opacity="1" stroke="#000000" stroke-opacity="1" stroke-width="3.072"/>
<circle clip-path="url(#clip862)" cx="279.726" cy="421.495" r="14.4" fill="#009af9" fill-rule="evenodd" fill-opacity="1" stroke="#000000" stroke-opacity="1" stroke-width="3.072"/>
<circle clip-path="url(#clip862)" cx="1156.78" cy="904.376" r="14.4" fill="#009af9" fill-rule="evenodd" fill-opacity="1" stroke="#000000" stroke-opacity="1" stroke-width="3.072"/>
<circle clip-path="url(#clip862)" cx="526.664" cy="409.046" r="14.4" fill="#009af9" fill-rule="evenodd" fill-opacity="1" stroke="#000000" stroke-opacity="1" stroke-width="3.072"/>
<circle clip-path="url(#clip862)" cx="1495.66" cy="684.5" r="14.4" fill="#009af9" fill-rule="evenodd" fill-opacity="1" stroke="#000000" stroke-opacity="1" stroke-width="3.072"/>
<circle clip-path="url(#clip862)" cx="980.617" cy="462.698" r="14.4" fill="#009af9" fill-rule="evenodd" fill-opacity="1" stroke="#000000" stroke-opacity="1" stroke-width="3.072"/>
<circle clip-path="url(#clip862)" cx="1779.3" cy="913.577" r="14.4" fill="#009af9" fill-rule="evenodd" fill-opacity="1" stroke="#000000" stroke-opacity="1" stroke-width="3.072"/>
<circle clip-path="url(#clip862)" cx="1587.77" cy="274.264" r="14.4" fill="#009af9" fill-rule="evenodd" fill-opacity="1" stroke="#000000" stroke-opacity="1" stroke-width="3.072"/>
<circle clip-path="url(#clip862)" cx="1941.31" cy="732.925" r="14.4" fill="#009af9" fill-rule="evenodd" fill-opacity="1" stroke="#000000" stroke-opacity="1" stroke-width="3.072"/>
<circle clip-path="url(#clip862)" cx="896.233" cy="395.962" r="14.4" fill="#009af9" fill-rule="evenodd" fill-opacity="1" stroke="#000000" stroke-opacity="1" stroke-width="3.072"/>
<circle clip-path="url(#clip862)" cx="550.669" cy="708.981" r="14.4" fill="#009af9" fill-rule="evenodd" fill-opacity="1" stroke="#000000" stroke-opacity="1" stroke-width="3.072"/>
<circle clip-path="url(#clip862)" cx="2199.17" cy="598.991" r="14.4" fill="#009af9" fill-rule="evenodd" fill-opacity="1" stroke="#000000" stroke-opacity="1" stroke-width="3.072"/>
<circle clip-path="url(#clip862)" cx="1744.88" cy="113.72" r="14.4" fill="#009af9" fill-rule="evenodd" fill-opacity="1" stroke="#000000" stroke-opacity="1" stroke-width="3.072"/>
<circle clip-path="url(#clip862)" cx="1214.52" cy="930.854" r="14.4" fill="#009af9" fill-rule="evenodd" fill-opacity="1" stroke="#000000" stroke-opacity="1" stroke-width="3.072"/>
<circle clip-path="url(#clip862)" cx="1241.61" cy="437.046" r="14.4" fill="#009af9" fill-rule="evenodd" fill-opacity="1" stroke="#000000" stroke-opacity="1" stroke-width="3.072"/>
<circle clip-path="url(#clip862)" cx="1591.99" cy="1221.22" r="14.4" fill="#009af9" fill-rule="evenodd" fill-opacity="1" stroke="#000000" stroke-opacity="1" stroke-width="3.072"/>
<circle clip-path="url(#clip862)" cx="1478.45" cy="973.842" r="14.4" fill="#009af9" fill-rule="evenodd" fill-opacity="1" stroke="#000000" stroke-opacity="1" stroke-width="3.072"/>
<circle clip-path="url(#clip862)" cx="1545.8" cy="719.278" r="14.4" fill="#009af9" fill-rule="evenodd" fill-opacity="1" stroke="#000000" stroke-opacity="1" stroke-width="3.072"/>
<circle clip-path="url(#clip862)" cx="1863.77" cy="1017.01" r="14.4" fill="#009af9" fill-rule="evenodd" fill-opacity="1" stroke="#000000" stroke-opacity="1" stroke-width="3.072"/>
<circle clip-path="url(#clip862)" cx="2009.69" cy="755.274" r="14.4" fill="#009af9" fill-rule="evenodd" fill-opacity="1" stroke="#000000" stroke-opacity="1" stroke-width="3.072"/>
<circle clip-path="url(#clip862)" cx="721.547" cy="498.335" r="14.4" fill="#009af9" fill-rule="evenodd" fill-opacity="1" stroke="#000000" stroke-opacity="1" stroke-width="3.072"/>
<circle clip-path="url(#clip862)" cx="1387.51" cy="739.051" r="14.4" fill="#009af9" fill-rule="evenodd" fill-opacity="1" stroke="#000000" stroke-opacity="1" stroke-width="3.072"/>
<circle clip-path="url(#clip862)" cx="1494.4" cy="998.685" r="14.4" fill="#009af9" fill-rule="evenodd" fill-opacity="1" stroke="#000000" stroke-opacity="1" stroke-width="3.072"/>
<circle clip-path="url(#clip862)" cx="1385.2" cy="584.38" r="14.4" fill="#009af9" fill-rule="evenodd" fill-opacity="1" stroke="#000000" stroke-opacity="1" stroke-width="3.072"/>
<circle clip-path="url(#clip862)" cx="575.134" cy="1023.24" r="14.4" fill="#009af9" fill-rule="evenodd" fill-opacity="1" stroke="#000000" stroke-opacity="1" stroke-width="3.072"/>
<circle clip-path="url(#clip862)" cx="1494.78" cy="512.293" r="14.4" fill="#009af9" fill-rule="evenodd" fill-opacity="1" stroke="#000000" stroke-opacity="1" stroke-width="3.072"/>
<circle clip-path="url(#clip862)" cx="1205.51" cy="1273.16" r="14.4" fill="#009af9" fill-rule="evenodd" fill-opacity="1" stroke="#000000" stroke-opacity="1" stroke-width="3.072"/>
<circle clip-path="url(#clip862)" cx="1214.63" cy="305.876" r="14.4" fill="#009af9" fill-rule="evenodd" fill-opacity="1" stroke="#000000" stroke-opacity="1" stroke-width="3.072"/>
<circle clip-path="url(#clip862)" cx="1240.32" cy="246.192" r="14.4" fill="#009af9" fill-rule="evenodd" fill-opacity="1" stroke="#000000" stroke-opacity="1" stroke-width="3.072"/>
<circle clip-path="url(#clip862)" cx="1181.45" cy="814.335" r="14.4" fill="#009af9" fill-rule="evenodd" fill-opacity="1" stroke="#000000" stroke-opacity="1" stroke-width="3.072"/>
<circle clip-path="url(#clip862)" cx="957.17" cy="1084.64" r="14.4" fill="#009af9" fill-rule="evenodd" fill-opacity="1" stroke="#000000" stroke-opacity="1" stroke-width="3.072"/>
<circle clip-path="url(#clip862)" cx="2080.27" cy="870.306" r="14.4" fill="#009af9" fill-rule="evenodd" fill-opacity="1" stroke="#000000" stroke-opacity="1" stroke-width="3.072"/>
<circle clip-path="url(#clip862)" cx="1612.16" cy="430.068" r="14.4" fill="#009af9" fill-rule="evenodd" fill-opacity="1" stroke="#000000" stroke-opacity="1" stroke-width="3.072"/>
<circle clip-path="url(#clip862)" cx="415.727" cy="453.006" r="14.4" fill="#009af9" fill-rule="evenodd" fill-opacity="1" stroke="#000000" stroke-opacity="1" stroke-width="3.072"/>
<circle clip-path="url(#clip862)" cx="1891.56" cy="871.713" r="14.4" fill="#009af9" fill-rule="evenodd" fill-opacity="1" stroke="#000000" stroke-opacity="1" stroke-width="3.072"/>
<circle clip-path="url(#clip862)" cx="877.626" cy="876.283" r="14.4" fill="#009af9" fill-rule="evenodd" fill-opacity="1" stroke="#000000" stroke-opacity="1" stroke-width="3.072"/>
<circle clip-path="url(#clip862)" cx="2023.65" cy="436.396" r="14.4" fill="#009af9" fill-rule="evenodd" fill-opacity="1" stroke="#000000" stroke-opacity="1" stroke-width="3.072"/>
<circle clip-path="url(#clip862)" cx="401.346" cy="752.323" r="14.4" fill="#009af9" fill-rule="evenodd" fill-opacity="1" stroke="#000000" stroke-opacity="1" stroke-width="3.072"/>
<polyline clip-path="url(#clip862)" style="stroke:#e26f46; stroke-linecap:round; stroke-linejoin:round; stroke-width:4; stroke-opacity:1; fill:none" points="
  279.726,851.674 292.223,849.983 407.772,834.347 477.213,824.951 535.924,817.007 599.7,808.377 658.497,800.421 721.533,791.892 794.566,782.009 859.469,773.227 
  916.384,765.526 978.436,757.129 1040.86,748.683 1109.87,739.345 1175.54,730.459 1243.81,721.221 1301.29,713.444 1371.46,703.949 1435.74,695.251 1495.1,687.218 
  1555.24,679.081 1622.64,669.961 1683.71,661.697 1753.64,652.235 1818.38,643.475 1882.21,634.838 1944.18,626.452 2007.71,617.856 2077.32,608.437 2178.43,594.756 
  2199.17,591.949 
  "/>
<path clip-path="url(#clip860)" d="
M1933.04 1377.23 L2188.94 1377.23 L2188.94 1221.71 L1933.04 1221.71  Z
  " fill="#ffffff" fill-rule="evenodd" fill-opacity="1"/>
<polyline clip-path="url(#clip860)" style="stroke:#000000; stroke-linecap:round; stroke-linejoin:round; stroke-width:4; stroke-opacity:1; fill:none" points="
  1933.04,1377.23 2188.94,1377.23 2188.94,1221.71 1933.04,1221.71 1933.04,1377.23 
  "/>
<circle clip-path="url(#clip860)" cx="2023.47" cy="1273.55" r="23.04" fill="#009af9" fill-rule="evenodd" fill-opacity="1" stroke="#000000" stroke-opacity="1" stroke-width="4.9152"/>
<path clip-path="url(#clip860)" d="M2127.74 1293.23 Q2125.94 1297.86 2124.22 1299.28 Q2122.51 1300.69 2119.64 1300.69 L2116.24 1300.69 L2116.24 1297.12 L2118.74 1297.12 Q2120.5 1297.12 2121.47 1296.29 Q2122.44 1295.46 2123.62 1292.35 L2124.38 1290.41 L2113.9 1264.9 L2118.41 1264.9 L2126.51 1285.18 L2134.62 1264.9 L2139.13 1264.9 L2127.74 1293.23 Z" fill="#000000" fill-rule="evenodd" fill-opacity="1" /><path clip-path="url(#clip860)" d="M2146.42 1286.89 L2154.06 1286.89 L2154.06 1260.53 L2145.75 1262.19 L2145.75 1257.93 L2154.01 1256.27 L2158.69 1256.27 L2158.69 1286.89 L2166.33 1286.89 L2166.33 1290.83 L2146.42 1290.83 L2146.42 1286.89 Z" fill="#000000" fill-rule="evenodd" fill-opacity="1" /><polyline clip-path="url(#clip860)" style="stroke:#e26f46; stroke-linecap:round; stroke-linejoin:round; stroke-width:4; stroke-opacity:1; fill:none" points="
  1955.65,1325.39 2091.29,1325.39 
  "/>
<path clip-path="url(#clip860)" d="M2127.74 1345.07 Q2125.94 1349.7 2124.22 1351.12 Q2122.51 1352.53 2119.64 1352.53 L2116.24 1352.53 L2116.24 1348.96 L2118.74 1348.96 Q2120.5 1348.96 2121.47 1348.13 Q2122.44 1347.3 2123.62 1344.19 L2124.38 1342.25 L2113.9 1316.74 L2118.41 1316.74 L2126.51 1337.02 L2134.62 1316.74 L2139.13 1316.74 L2127.74 1345.07 Z" fill="#000000" fill-rule="evenodd" fill-opacity="1" /><path clip-path="url(#clip860)" d="M2149.64 1338.73 L2165.96 1338.73 L2165.96 1342.67 L2144.01 1342.67 L2144.01 1338.73 Q2146.68 1335.98 2151.26 1331.35 Q2155.87 1326.69 2157.05 1325.35 Q2159.29 1322.83 2160.17 1321.09 Q2161.07 1319.33 2161.07 1317.64 Q2161.07 1314.89 2159.13 1313.15 Q2157.21 1311.42 2154.11 1311.42 Q2151.91 1311.42 2149.45 1312.18 Q2147.02 1312.94 2144.25 1314.5 L2144.25 1309.77 Q2147.07 1308.64 2149.52 1308.06 Q2151.98 1307.48 2154.01 1307.48 Q2159.38 1307.48 2162.58 1310.17 Q2165.77 1312.85 2165.77 1317.34 Q2165.77 1319.47 2164.96 1321.39 Q2164.18 1323.29 2162.07 1325.88 Q2161.49 1326.56 2158.39 1329.77 Q2155.29 1332.97 2149.64 1338.73 Z" fill="#000000" fill-rule="evenodd" fill-opacity="1" /></svg>
