<?xml version="1.0" encoding="utf-8"?>
<svg xmlns="http://www.w3.org/2000/svg" xmlns:xlink="http://www.w3.org/1999/xlink" width="576" height="384" viewBox="0 0 2304 1536">
<defs>
  <clipPath id="clip420">
    <rect x="0" y="0" width="2304" height="1536"/>
  </clipPath>
</defs>
<path clip-path="url(#clip420)" d="
M0 1536 L2304 1536 L2304 0 L0 0  Z
  " fill="#ffffff" fill-rule="evenodd" fill-opacity="1"/>
<defs>
  <clipPath id="clip421">
    <rect x="460" y="0" width="1614" height="1536"/>
  </clipPath>
</defs>
<path clip-path="url(#clip420)" d="
M111.217 1423.09 L2256.76 1423.09 L2256.76 123.472 L111.217 123.472  Z
  " fill="#ffffff" fill-rule="evenodd" fill-opacity="1"/>
<defs>
  <clipPath id="clip422">
    <rect x="111" y="123" width="2147" height="1301"/>
  </clipPath>
</defs>
<polyline clip-path="url(#clip422)" style="stroke:#000000; stroke-linecap:round; stroke-linejoin:round; stroke-width:2; stroke-opacity:0.1; fill:none" points="
  171.94,1423.09 171.94,123.472 
  "/>
<polyline clip-path="url(#clip422)" style="stroke:#000000; stroke-linecap:round; stroke-linejoin:round; stroke-width:2; stroke-opacity:0.1; fill:none" points="
  677.963,1423.09 677.963,123.472 
  "/>
<polyline clip-path="url(#clip422)" style="stroke:#000000; stroke-linecap:round; stroke-linejoin:round; stroke-width:2; stroke-opacity:0.1; fill:none" points="
  1183.99,1423.09 1183.99,123.472 
  "/>
<polyline clip-path="url(#clip422)" style="stroke:#000000; stroke-linecap:round; stroke-linejoin:round; stroke-width:2; stroke-opacity:0.1; fill:none" points="
  1690.01,1423.09 1690.01,123.472 
  "/>
<polyline clip-path="url(#clip422)" style="stroke:#000000; stroke-linecap:round; stroke-linejoin:round; stroke-width:2; stroke-opacity:0.1; fill:none" points="
  2196.03,1423.09 2196.03,123.472 
  "/>
<polyline clip-path="url(#clip420)" style="stroke:#000000; stroke-linecap:round; stroke-linejoin:round; stroke-width:4; stroke-opacity:1; fill:none" points="
  111.217,1423.09 2256.76,1423.09 
  "/>
<polyline clip-path="url(#clip420)" style="stroke:#000000; stroke-linecap:round; stroke-linejoin:round; stroke-width:4; stroke-opacity:1; fill:none" points="
  171.94,1423.09 171.94,1404.19 
  "/>
<polyline clip-path="url(#clip420)" style="stroke:#000000; stroke-linecap:round; stroke-linejoin:round; stroke-width:4; stroke-opacity:1; fill:none" points="
  677.963,1423.09 677.963,1404.19 
  "/>
<polyline clip-path="url(#clip420)" style="stroke:#000000; stroke-linecap:round; stroke-linejoin:round; stroke-width:4; stroke-opacity:1; fill:none" points="
  1183.99,1423.09 1183.99,1404.19 
  "/>
<polyline clip-path="url(#clip420)" style="stroke:#000000; stroke-linecap:round; stroke-linejoin:round; stroke-width:4; stroke-opacity:1; fill:none" points="
  1690.01,1423.09 1690.01,1404.19 
  "/>
<polyline clip-path="url(#clip420)" style="stroke:#000000; stroke-linecap:round; stroke-linejoin:round; stroke-width:4; stroke-opacity:1; fill:none" points="
  2196.03,1423.09 2196.03,1404.19 
  "/>
<path clip-path="url(#clip420)" d="M162.322 1480.78 L169.961 1480.78 L169.961 1454.42 L161.651 1456.09 L161.651 1451.83 L169.915 1450.16 L174.59 1450.16 L174.59 1480.78 L182.229 1480.78 L182.229 1484.72 L162.322 1484.72 L162.322 1480.78 Z" fill="#000000" fill-rule="evenodd" fill-opacity="1" /><path clip-path="url(#clip420)" d="M672.616 1480.78 L688.935 1480.78 L688.935 1484.72 L666.991 1484.72 L666.991 1480.78 Q669.653 1478.03 674.236 1473.4 Q678.843 1468.75 680.023 1467.41 Q682.269 1464.88 683.148 1463.15 Q684.051 1461.39 684.051 1459.7 Q684.051 1456.94 682.107 1455.21 Q680.185 1453.47 677.084 1453.47 Q674.885 1453.47 672.431 1454.23 Q670 1455 667.223 1456.55 L667.223 1451.83 Q670.047 1450.69 672.5 1450.11 Q674.954 1449.53 676.991 1449.53 Q682.361 1449.53 685.556 1452.22 Q688.75 1454.91 688.75 1459.4 Q688.75 1461.53 687.94 1463.45 Q687.153 1465.34 685.047 1467.94 Q684.468 1468.61 681.366 1471.83 Q678.264 1475.02 672.616 1480.78 Z" fill="#000000" fill-rule="evenodd" fill-opacity="1" /><path clip-path="url(#clip420)" d="M1188.23 1466.09 Q1191.59 1466.8 1193.47 1469.07 Q1195.36 1471.34 1195.36 1474.67 Q1195.36 1479.79 1191.85 1482.59 Q1188.33 1485.39 1181.85 1485.39 Q1179.67 1485.39 1177.35 1484.95 Q1175.06 1484.53 1172.61 1483.68 L1172.61 1479.16 Q1174.55 1480.3 1176.87 1480.88 Q1179.18 1481.46 1181.71 1481.46 Q1186.1 1481.46 1188.4 1479.72 Q1190.71 1477.98 1190.71 1474.67 Q1190.71 1471.62 1188.56 1469.91 Q1186.43 1468.17 1182.61 1468.17 L1178.58 1468.17 L1178.58 1464.33 L1182.79 1464.33 Q1186.24 1464.33 1188.07 1462.96 Q1189.9 1461.57 1189.9 1458.98 Q1189.9 1456.32 1188 1454.91 Q1186.13 1453.47 1182.61 1453.47 Q1180.69 1453.47 1178.49 1453.89 Q1176.29 1454.3 1173.65 1455.18 L1173.65 1451.02 Q1176.31 1450.28 1178.63 1449.91 Q1180.97 1449.53 1183.03 1449.53 Q1188.35 1449.53 1191.45 1451.97 Q1194.55 1454.37 1194.55 1458.49 Q1194.55 1461.36 1192.91 1463.35 Q1191.27 1465.32 1188.23 1466.09 Z" fill="#000000" fill-rule="evenodd" fill-opacity="1" /><path clip-path="url(#clip420)" d="M1693.02 1454.23 L1681.21 1472.68 L1693.02 1472.68 L1693.02 1454.23 M1691.79 1450.16 L1697.67 1450.16 L1697.67 1472.68 L1702.6 1472.68 L1702.6 1476.57 L1697.67 1476.57 L1697.67 1484.72 L1693.02 1484.72 L1693.02 1476.57 L1677.42 1476.57 L1677.42 1472.06 L1691.79 1450.16 Z" fill="#000000" fill-rule="evenodd" fill-opacity="1" /><path clip-path="url(#clip420)" d="M2186.31 1450.16 L2204.67 1450.16 L2204.67 1454.1 L2190.59 1454.1 L2190.59 1462.57 Q2191.61 1462.22 2192.63 1462.06 Q2193.65 1461.87 2194.67 1461.87 Q2200.45 1461.87 2203.83 1465.04 Q2207.21 1468.22 2207.21 1473.63 Q2207.21 1479.21 2203.74 1482.31 Q2200.27 1485.39 2193.95 1485.39 Q2191.77 1485.39 2189.51 1485.02 Q2187.26 1484.65 2184.85 1483.91 L2184.85 1479.21 Q2186.94 1480.34 2189.16 1480.9 Q2191.38 1481.46 2193.86 1481.46 Q2197.86 1481.46 2200.2 1479.35 Q2202.54 1477.24 2202.54 1473.63 Q2202.54 1470.02 2200.2 1467.91 Q2197.86 1465.81 2193.86 1465.81 Q2191.98 1465.81 2190.11 1466.22 Q2188.26 1466.64 2186.31 1467.52 L2186.31 1450.16 Z" fill="#000000" fill-rule="evenodd" fill-opacity="1" /><polyline clip-path="url(#clip422)" style="stroke:#000000; stroke-linecap:round; stroke-linejoin:round; stroke-width:2; stroke-opacity:0.1; fill:none" points="
  111.217,1386.31 2256.76,1386.31 
  "/>
<polyline clip-path="url(#clip422)" style="stroke:#000000; stroke-linecap:round; stroke-linejoin:round; stroke-width:2; stroke-opacity:0.1; fill:none" points="
  111.217,1079.79 2256.76,1079.79 
  "/>
<polyline clip-path="url(#clip422)" style="stroke:#000000; stroke-linecap:round; stroke-linejoin:round; stroke-width:2; stroke-opacity:0.1; fill:none" points="
  111.217,773.28 2256.76,773.28 
  "/>
<polyline clip-path="url(#clip422)" style="stroke:#000000; stroke-linecap:round; stroke-linejoin:round; stroke-width:2; stroke-opacity:0.1; fill:none" points="
  111.217,466.767 2256.76,466.767 
  "/>
<polyline clip-path="url(#clip422)" style="stroke:#000000; stroke-linecap:round; stroke-linejoin:round; stroke-width:2; stroke-opacity:0.1; fill:none" points="
  111.217,160.254 2256.76,160.254 
  "/>
<polyline clip-path="url(#clip420)" style="stroke:#000000; stroke-linecap:round; stroke-linejoin:round; stroke-width:4; stroke-opacity:1; fill:none" points="
  111.217,1423.09 111.217,123.472 
  "/>
<polyline clip-path="url(#clip420)" style="stroke:#000000; stroke-linecap:round; stroke-linejoin:round; stroke-width:4; stroke-opacity:1; fill:none" points="
  111.217,1386.31 130.115,1386.31 
  "/>
<polyline clip-path="url(#clip420)" style="stroke:#000000; stroke-linecap:round; stroke-linejoin:round; stroke-width:4; stroke-opacity:1; fill:none" points="
  111.217,1079.79 130.115,1079.79 
  "/>
<polyline clip-path="url(#clip420)" style="stroke:#000000; stroke-linecap:round; stroke-linejoin:round; stroke-width:4; stroke-opacity:1; fill:none" points="
  111.217,773.28 130.115,773.28 
  "/>
<polyline clip-path="url(#clip420)" style="stroke:#000000; stroke-linecap:round; stroke-linejoin:round; stroke-width:4; stroke-opacity:1; fill:none" points="
  111.217,466.767 130.115,466.767 
  "/>
<polyline clip-path="url(#clip420)" style="stroke:#000000; stroke-linecap:round; stroke-linejoin:round; stroke-width:4; stroke-opacity:1; fill:none" points="
  111.217,160.254 130.115,160.254 
  "/>
<path clip-path="url(#clip420)" d="M56.7499 1399.65 L64.3887 1399.65 L64.3887 1373.29 L56.0786 1374.95 L56.0786 1370.69 L64.3424 1369.03 L69.0183 1369.03 L69.0183 1399.65 L76.6572 1399.65 L76.6572 1403.59 L56.7499 1403.59 L56.7499 1399.65 Z" fill="#000000" fill-rule="evenodd" fill-opacity="1" /><path clip-path="url(#clip420)" d="M60.3378 1093.14 L76.6572 1093.14 L76.6572 1097.07 L54.7128 1097.07 L54.7128 1093.14 Q57.3749 1090.38 61.9582 1085.75 Q66.5646 1081.1 67.7452 1079.76 Q69.9905 1077.24 70.8702 1075.5 Q71.7729 1073.74 71.7729 1072.05 Q71.7729 1069.3 69.8285 1067.56 Q67.9072 1065.82 64.8054 1065.82 Q62.6063 1065.82 60.1526 1066.59 Q57.7221 1067.35 54.9443 1068.9 L54.9443 1064.18 Q57.7684 1063.05 60.2221 1062.47 Q62.6758 1061.89 64.7128 1061.89 Q70.0831 1061.89 73.2776 1064.57 Q76.472 1067.26 76.472 1071.75 Q76.472 1073.88 75.6618 1075.8 Q74.8748 1077.7 72.7683 1080.29 Q72.1896 1080.96 69.0878 1084.18 Q65.9859 1087.37 60.3378 1093.14 Z" fill="#000000" fill-rule="evenodd" fill-opacity="1" /><path clip-path="url(#clip420)" d="M69.5276 771.926 Q72.884 772.643 74.759 774.912 Q76.6572 777.18 76.6572 780.514 Q76.6572 785.629 73.1387 788.43 Q69.6202 791.231 63.1387 791.231 Q60.9628 791.231 58.648 790.791 Q56.3564 790.375 53.9027 789.518 L53.9027 785.004 Q55.8471 786.139 58.1619 786.717 Q60.4767 787.296 62.9998 787.296 Q67.398 787.296 69.6896 785.56 Q72.0044 783.824 72.0044 780.514 Q72.0044 777.458 69.8517 775.745 Q67.722 774.009 63.9026 774.009 L59.8749 774.009 L59.8749 770.167 L64.0878 770.167 Q67.5369 770.167 69.3655 768.801 Q71.1942 767.412 71.1942 764.819 Q71.1942 762.157 69.2961 760.745 Q67.4211 759.31 63.9026 759.31 Q61.9813 759.31 59.7823 759.727 Q57.5832 760.143 54.9443 761.023 L54.9443 756.856 Q57.6064 756.116 59.9212 755.745 Q62.2591 755.375 64.3193 755.375 Q69.6433 755.375 72.7452 757.806 Q75.847 760.213 75.847 764.333 Q75.847 767.204 74.2035 769.194 Q72.56 771.162 69.5276 771.926 Z" fill="#000000" fill-rule="evenodd" fill-opacity="1" /><path clip-path="url(#clip420)" d="M67.0739 453.561 L55.2684 472.01 L67.0739 472.01 L67.0739 453.561 M65.847 449.487 L71.7266 449.487 L71.7266 472.01 L76.6572 472.01 L76.6572 475.899 L71.7266 475.899 L71.7266 484.047 L67.0739 484.047 L67.0739 475.899 L51.4721 475.899 L51.4721 471.385 L65.847 449.487 Z" fill="#000000" fill-rule="evenodd" fill-opacity="1" /><path clip-path="url(#clip420)" d="M55.7545 142.974 L74.1109 142.974 L74.1109 146.909 L60.0369 146.909 L60.0369 155.381 Q61.0554 155.034 62.0739 154.872 Q63.0924 154.687 64.1109 154.687 Q69.898 154.687 73.2776 157.858 Q76.6572 161.029 76.6572 166.446 Q76.6572 172.024 73.185 175.126 Q69.7128 178.205 63.3934 178.205 Q61.2174 178.205 58.9489 177.835 Q56.7036 177.464 54.2962 176.724 L54.2962 172.024 Q56.3795 173.159 58.6017 173.714 Q60.8239 174.27 63.3008 174.27 Q67.3054 174.27 69.6433 172.163 Q71.9813 170.057 71.9813 166.446 Q71.9813 162.835 69.6433 160.728 Q67.3054 158.622 63.3008 158.622 Q61.4258 158.622 59.5508 159.038 Q57.6989 159.455 55.7545 160.335 L55.7545 142.974 Z" fill="#000000" fill-rule="evenodd" fill-opacity="1" /><path clip-path="url(#clip420)" d="M957.136 28.5427 L957.136 35.5912 Q953.976 33.9709 950.573 33.1607 Q947.171 32.3505 943.525 32.3505 Q937.975 32.3505 935.18 34.0519 Q932.425 35.7533 932.425 39.156 Q932.425 41.7486 934.41 43.2475 Q936.395 44.7058 942.391 46.0426 L944.943 46.6097 Q952.882 48.3111 956.204 51.4303 Q959.566 54.509 959.566 60.0587 Q959.566 66.3781 954.543 70.0644 Q949.561 73.7508 940.811 73.7508 Q937.165 73.7508 933.195 73.0216 Q929.266 72.3329 924.891 70.9151 L924.891 63.2184 Q929.023 65.3654 933.033 66.4591 Q937.043 67.5124 940.973 67.5124 Q946.239 67.5124 949.075 65.73 Q951.91 63.9071 951.91 60.6258 Q951.91 57.5877 949.844 55.9673 Q947.819 54.3469 940.892 52.8481 L938.299 52.2405 Q931.372 50.7821 928.293 47.7845 Q925.215 44.7463 925.215 39.4801 Q925.215 33.0797 929.752 29.5959 Q934.289 26.1121 942.634 26.1121 Q946.766 26.1121 950.411 26.7198 Q954.057 27.3274 957.136 28.5427 Z" fill="#000000" fill-rule="evenodd" fill-opacity="1" /><path clip-path="url(#clip420)" d="M970.666 54.671 L970.666 27.2059 L978.12 27.2059 L978.12 54.3874 Q978.12 60.8284 980.631 64.0691 Q983.143 67.2693 988.166 67.2693 Q994.202 67.2693 997.685 63.421 Q1001.21 59.5726 1001.21 52.9291 L1001.21 27.2059 L1008.66 27.2059 L1008.66 72.576 L1001.21 72.576 L1001.21 65.6084 Q998.496 69.7404 994.89 71.7658 Q991.326 73.7508 986.586 73.7508 Q978.768 73.7508 974.717 68.8897 Q970.666 64.0286 970.666 54.671 M989.422 26.1121 L989.422 26.1121 Z" fill="#000000" fill-rule="evenodd" fill-opacity="1" /><path clip-path="url(#clip420)" d="M1059.34 35.9153 Q1062.14 30.8922 1066.02 28.5022 Q1069.91 26.1121 1075.18 26.1121 Q1082.27 26.1121 1086.12 31.0947 Q1089.97 36.0368 1089.97 45.1919 L1089.97 72.576 L1082.47 72.576 L1082.47 45.4349 Q1082.47 38.913 1080.16 35.7533 Q1077.85 32.5936 1073.11 32.5936 Q1067.32 32.5936 1063.96 36.4419 Q1060.6 40.2903 1060.6 46.9338 L1060.6 72.576 L1053.1 72.576 L1053.1 45.4349 Q1053.1 38.8725 1050.79 35.7533 Q1048.48 32.5936 1043.66 32.5936 Q1037.95 32.5936 1034.59 36.4824 Q1031.23 40.3308 1031.23 46.9338 L1031.23 72.576 L1023.73 72.576 L1023.73 27.2059 L1031.23 27.2059 L1031.23 34.2544 Q1033.78 30.082 1037.34 28.0971 Q1040.91 26.1121 1045.81 26.1121 Q1050.75 26.1121 1054.2 28.6237 Q1057.68 31.1352 1059.34 35.9153 Z" fill="#000000" fill-rule="evenodd" fill-opacity="1" /><path clip-path="url(#clip420)" d="M1170.01 48.0275 L1170.01 51.6733 L1135.74 51.6733 Q1136.23 59.3701 1140.36 63.421 Q1144.53 67.4314 1151.94 67.4314 Q1156.24 67.4314 1160.25 66.3781 Q1164.3 65.3249 1168.27 63.2184 L1168.27 70.267 Q1164.26 71.9684 1160.05 72.8596 Q1155.83 73.7508 1151.5 73.7508 Q1140.64 73.7508 1134.28 67.4314 Q1127.96 61.1119 1127.96 50.3365 Q1127.96 39.1965 1133.96 32.6746 Q1139.99 26.1121 1150.2 26.1121 Q1159.36 26.1121 1164.66 32.0264 Q1170.01 37.9003 1170.01 48.0275 M1162.56 45.84 Q1162.48 39.7232 1159.11 36.0774 Q1155.79 32.4315 1150.28 32.4315 Q1144.04 32.4315 1140.28 35.9558 Q1136.55 39.4801 1135.98 45.8805 L1162.56 45.84 Z" fill="#000000" fill-rule="evenodd" fill-opacity="1" /><path clip-path="url(#clip420)" d="M1179.37 47.1768 L1184.07 47.1768 L1184.07 72.576 L1179.37 72.576 L1179.37 47.1768 M1179.37 37.2926 L1184.07 37.2926 L1184.07 42.5588 L1179.37 42.5588 L1179.37 37.2926 Z" fill="#000000" fill-rule="evenodd" fill-opacity="1" /><path clip-path="url(#clip420)" d="M1200.11 40.8979 L1217.28 40.8979 L1217.28 45.516 L1193.06 45.516 L1193.06 41.06 Q1194.44 39.8042 1196.99 37.5357 Q1210.93 25.1804 1210.93 21.3726 Q1210.93 18.699 1208.82 17.0786 Q1206.71 15.4177 1203.27 15.4177 Q1201.16 15.4177 1198.69 16.1469 Q1196.22 16.8356 1193.3 18.2534 L1193.3 13.2708 Q1196.42 12.1365 1199.1 11.5694 Q1201.81 11.0023 1204.12 11.0023 Q1209.99 11.0023 1213.52 13.6759 Q1217.04 16.3494 1217.04 20.7244 Q1217.04 26.3552 1203.63 37.8598 Q1201.36 39.8042 1200.11 40.8979 Z" fill="#000000" fill-rule="evenodd" fill-opacity="1" /><path clip-path="url(#clip420)" d="M1231.3 34.9026 L1283.23 34.9026 L1283.23 41.7081 L1231.3 41.7081 L1231.3 34.9026 M1231.3 51.4303 L1283.23 51.4303 L1283.23 58.3168 L1231.3 58.3168 L1231.3 51.4303 Z" fill="#000000" fill-rule="evenodd" fill-opacity="1" /><path clip-path="url(#clip420)" d="M1349.75 19.2256 L1329.09 51.5113 L1349.75 51.5113 L1349.75 19.2256 M1347.6 12.096 L1357.89 12.096 L1357.89 51.5113 L1366.52 51.5113 L1366.52 58.3168 L1357.89 58.3168 L1357.89 72.576 L1349.75 72.576 L1349.75 58.3168 L1322.45 58.3168 L1322.45 50.4176 L1347.6 12.096 Z" fill="#000000" fill-rule="evenodd" fill-opacity="1" /><path clip-path="url(#clip420)" d="M1380.05 62.2867 L1388.6 62.2867 L1388.6 72.576 L1380.05 72.576 L1380.05 62.2867 Z" fill="#000000" fill-rule="evenodd" fill-opacity="1" /><path clip-path="url(#clip420)" d="M1406.5 12.096 L1438.63 12.096 L1438.63 18.9825 L1414 18.9825 L1414 33.8088 Q1415.78 33.2012 1417.56 32.9176 Q1419.34 32.5936 1421.13 32.5936 Q1431.25 32.5936 1437.17 38.1433 Q1443.08 43.6931 1443.08 53.1722 Q1443.08 62.9348 1437.01 68.3631 Q1430.93 73.7508 1419.87 73.7508 Q1416.06 73.7508 1412.09 73.1026 Q1408.16 72.4545 1403.95 71.1582 L1403.95 62.9348 Q1407.6 64.9198 1411.49 65.892 Q1415.37 66.8642 1419.71 66.8642 Q1426.72 66.8642 1430.81 63.1779 Q1434.9 59.4916 1434.9 53.1722 Q1434.9 46.8528 1430.81 43.1664 Q1426.72 39.4801 1419.71 39.4801 Q1416.43 39.4801 1413.15 40.2093 Q1409.91 40.9384 1406.5 42.4778 L1406.5 12.096 Z" fill="#000000" fill-rule="evenodd" fill-opacity="1" /><circle clip-path="url(#clip422)" cx="171.94" cy="1079.79" r="14.4" fill="#009af9" fill-rule="evenodd" fill-opacity="1" stroke="#000000" stroke-opacity="1" stroke-width="3.072"/>
<circle clip-path="url(#clip422)" cx="677.963" cy="1386.31" r="14.4" fill="#009af9" fill-rule="evenodd" fill-opacity="1" stroke="#000000" stroke-opacity="1" stroke-width="3.072"/>
<circle clip-path="url(#clip422)" cx="1183.99" cy="466.767" r="14.4" fill="#009af9" fill-rule="evenodd" fill-opacity="1" stroke="#000000" stroke-opacity="1" stroke-width="3.072"/>
<circle clip-path="url(#clip422)" cx="1690.01" cy="773.28" r="14.4" fill="#009af9" fill-rule="evenodd" fill-opacity="1" stroke="#000000" stroke-opacity="1" stroke-width="3.072"/>
<circle clip-path="url(#clip422)" cx="2196.03" cy="160.254" r="14.4" fill="#009af9" fill-rule="evenodd" fill-opacity="1" stroke="#000000" stroke-opacity="1" stroke-width="3.072"/>
<polyline clip-path="url(#clip422)" style="stroke:#e26f46; stroke-linecap:round; stroke-linejoin:round; stroke-width:4; stroke-opacity:1; fill:none" points="
  171.94,1079.79 185.118,1075.8 306.967,1038.9 380.193,1016.72 442.105,997.97 509.359,977.601 571.361,958.823 637.834,938.69 714.849,915.365 783.29,894.637 
  843.308,876.46 908.743,856.642 974.567,836.706 1047.34,814.664 1116.59,793.692 1188.59,771.886 1249.2,753.53 1323.19,731.12 1390.98,710.59 1453.58,691.63 
  1517,672.423 1588.07,650.898 1652.47,631.393 1726.21,609.061 1794.48,588.383 1861.79,567.998 1927.14,548.205 1994.13,527.915 2067.53,505.685 2174.16,473.392 
  2196.03,466.767 
  "/>
<polyline clip-path="url(#clip422)" style="stroke:#3da44d; stroke-linecap:round; stroke-linejoin:round; stroke-width:4; stroke-opacity:1; fill:none" stroke-dasharray="16, 10" points="
  171.94,1079.79 171.94,1079.79 
  "/>
<polyline clip-path="url(#clip422)" style="stroke:#c271d2; stroke-linecap:round; stroke-linejoin:round; stroke-width:4; stroke-opacity:1; fill:none" stroke-dasharray="16, 10" points="
  677.963,926.537 677.963,1386.31 
  "/>
<polyline clip-path="url(#clip422)" style="stroke:#ac8d18; stroke-linecap:round; stroke-linejoin:round; stroke-width:4; stroke-opacity:1; fill:none" stroke-dasharray="16, 10" points="
  1183.99,773.28 1183.99,466.767 
  "/>
<polyline clip-path="url(#clip422)" style="stroke:#00a9ad; stroke-linecap:round; stroke-linejoin:round; stroke-width:4; stroke-opacity:1; fill:none" stroke-dasharray="16, 10" points="
  1690.01,620.023 1690.01,773.28 
  "/>
<polyline clip-path="url(#clip422)" style="stroke:#ed5d92; stroke-linecap:round; stroke-linejoin:round; stroke-width:4; stroke-opacity:1; fill:none" stroke-dasharray="16, 10" points="
  2196.03,466.767 2196.03,160.254 
  "/>
</svg>
