<?xml version="1.0" encoding="utf-8"?>
<svg xmlns="http://www.w3.org/2000/svg" xmlns:xlink="http://www.w3.org/1999/xlink" width="576" height="384" viewBox="0 0 2304 1536">
<defs>
  <clipPath id="clip590">
    <rect x="0" y="0" width="2304" height="1536"/>
  </clipPath>
</defs>
<path clip-path="url(#clip590)" d="
M0 1536 L2304 1536 L2304 0 L0 0  Z
  " fill="#ffffff" fill-rule="evenodd" fill-opacity="1"/>
<defs>
  <clipPath id="clip591">
    <rect x="460" y="0" width="1614" height="1536"/>
  </clipPath>
</defs>
<path clip-path="url(#clip590)" d="
M222.143 1423.09 L2256.76 1423.09 L2256.76 47.2441 L222.143 47.2441  Z
  " fill="#ffffff" fill-rule="evenodd" fill-opacity="1"/>
<defs>
  <clipPath id="clip592">
    <rect x="222" y="47" width="2036" height="1377"/>
  </clipPath>
</defs>
<polyline clip-path="url(#clip592)" style="stroke:#000000; stroke-linecap:round; stroke-linejoin:round; stroke-width:2; stroke-opacity:0.1; fill:none" points="
  467.952,1423.09 467.952,47.2441 
  "/>
<polyline clip-path="url(#clip592)" style="stroke:#000000; stroke-linecap:round; stroke-linejoin:round; stroke-width:2; stroke-opacity:0.1; fill:none" points="
  837.328,1423.09 837.328,47.2441 
  "/>
<polyline clip-path="url(#clip592)" style="stroke:#000000; stroke-linecap:round; stroke-linejoin:round; stroke-width:2; stroke-opacity:0.1; fill:none" points="
  1206.7,1423.09 1206.7,47.2441 
  "/>
<polyline clip-path="url(#clip592)" style="stroke:#000000; stroke-linecap:round; stroke-linejoin:round; stroke-width:2; stroke-opacity:0.1; fill:none" points="
  1576.08,1423.09 1576.08,47.2441 
  "/>
<polyline clip-path="url(#clip592)" style="stroke:#000000; stroke-linecap:round; stroke-linejoin:round; stroke-width:2; stroke-opacity:0.1; fill:none" points="
  1945.46,1423.09 1945.46,47.2441 
  "/>
<polyline clip-path="url(#clip590)" style="stroke:#000000; stroke-linecap:round; stroke-linejoin:round; stroke-width:4; stroke-opacity:1; fill:none" points="
  222.143,1423.09 2256.76,1423.09 
  "/>
<polyline clip-path="url(#clip590)" style="stroke:#000000; stroke-linecap:round; stroke-linejoin:round; stroke-width:4; stroke-opacity:1; fill:none" points="
  467.952,1423.09 467.952,1404.19 
  "/>
<polyline clip-path="url(#clip590)" style="stroke:#000000; stroke-linecap:round; stroke-linejoin:round; stroke-width:4; stroke-opacity:1; fill:none" points="
  837.328,1423.09 837.328,1404.19 
  "/>
<polyline clip-path="url(#clip590)" style="stroke:#000000; stroke-linecap:round; stroke-linejoin:round; stroke-width:4; stroke-opacity:1; fill:none" points="
  1206.7,1423.09 1206.7,1404.19 
  "/>
<polyline clip-path="url(#clip590)" style="stroke:#000000; stroke-linecap:round; stroke-linejoin:round; stroke-width:4; stroke-opacity:1; fill:none" points="
  1576.08,1423.09 1576.08,1404.19 
  "/>
<polyline clip-path="url(#clip590)" style="stroke:#000000; stroke-linecap:round; stroke-linejoin:round; stroke-width:4; stroke-opacity:1; fill:none" points="
  1945.46,1423.09 1945.46,1404.19 
  "/>
<path clip-path="url(#clip590)" d="M445.429 1453.24 Q441.818 1453.24 439.989 1456.8 Q438.184 1460.35 438.184 1467.47 Q438.184 1474.58 439.989 1478.15 Q441.818 1481.69 445.429 1481.69 Q449.063 1481.69 450.869 1478.15 Q452.697 1474.58 452.697 1467.47 Q452.697 1460.35 450.869 1456.8 Q449.063 1453.24 445.429 1453.24 M445.429 1449.53 Q451.239 1449.53 454.295 1454.14 Q457.373 1458.72 457.373 1467.47 Q457.373 1476.2 454.295 1480.81 Q451.239 1485.39 445.429 1485.39 Q439.619 1485.39 436.54 1480.81 Q433.484 1476.2 433.484 1467.47 Q433.484 1458.72 436.54 1454.14 Q439.619 1449.53 445.429 1449.53 Z" fill="#000000" fill-rule="evenodd" fill-opacity="1" /><path clip-path="url(#clip590)" d="M465.591 1478.84 L470.475 1478.84 L470.475 1484.72 L465.591 1484.72 L465.591 1478.84 Z" fill="#000000" fill-rule="evenodd" fill-opacity="1" /><path clip-path="url(#clip590)" d="M480.799 1484 L480.799 1479.74 Q482.558 1480.58 484.364 1481.02 Q486.169 1481.46 487.906 1481.46 Q492.535 1481.46 494.966 1478.35 Q497.419 1475.23 497.767 1468.89 Q496.424 1470.88 494.364 1471.94 Q492.304 1473.01 489.804 1473.01 Q484.618 1473.01 481.586 1469.88 Q478.577 1466.73 478.577 1461.29 Q478.577 1455.97 481.725 1452.75 Q484.873 1449.53 490.105 1449.53 Q496.1 1449.53 499.248 1454.14 Q502.419 1458.72 502.419 1467.47 Q502.419 1475.65 498.53 1480.53 Q494.665 1485.39 488.114 1485.39 Q486.355 1485.39 484.549 1485.04 Q482.743 1484.7 480.799 1484 M490.105 1469.35 Q493.253 1469.35 495.081 1467.2 Q496.933 1465.04 496.933 1461.29 Q496.933 1457.57 495.081 1455.41 Q493.253 1453.24 490.105 1453.24 Q486.956 1453.24 485.105 1455.41 Q483.276 1457.57 483.276 1461.29 Q483.276 1465.04 485.105 1467.2 Q486.956 1469.35 490.105 1469.35 Z" fill="#000000" fill-rule="evenodd" fill-opacity="1" /><path clip-path="url(#clip590)" d="M805.279 1480.78 L812.918 1480.78 L812.918 1454.42 L804.608 1456.09 L804.608 1451.83 L812.872 1450.16 L817.548 1450.16 L817.548 1480.78 L825.187 1480.78 L825.187 1484.72 L805.279 1484.72 L805.279 1480.78 Z" fill="#000000" fill-rule="evenodd" fill-opacity="1" /><path clip-path="url(#clip590)" d="M834.631 1478.84 L839.515 1478.84 L839.515 1484.72 L834.631 1484.72 L834.631 1478.84 Z" fill="#000000" fill-rule="evenodd" fill-opacity="1" /><path clip-path="url(#clip590)" d="M853.728 1480.78 L870.048 1480.78 L870.048 1484.72 L848.103 1484.72 L848.103 1480.78 Q850.765 1478.03 855.349 1473.4 Q859.955 1468.75 861.136 1467.41 Q863.381 1464.88 864.261 1463.15 Q865.163 1461.39 865.163 1459.7 Q865.163 1456.94 863.219 1455.21 Q861.298 1453.47 858.196 1453.47 Q855.997 1453.47 853.543 1454.23 Q851.112 1455 848.335 1456.55 L848.335 1451.83 Q851.159 1450.69 853.612 1450.11 Q856.066 1449.53 858.103 1449.53 Q863.473 1449.53 866.668 1452.22 Q869.862 1454.91 869.862 1459.4 Q869.862 1461.53 869.052 1463.45 Q868.265 1465.34 866.159 1467.94 Q865.58 1468.61 862.478 1471.83 Q859.376 1475.02 853.728 1480.78 Z" fill="#000000" fill-rule="evenodd" fill-opacity="1" /><path clip-path="url(#clip590)" d="M1174.35 1480.78 L1181.99 1480.78 L1181.99 1454.42 L1173.68 1456.09 L1173.68 1451.83 L1181.95 1450.16 L1186.62 1450.16 L1186.62 1480.78 L1194.26 1480.78 L1194.26 1484.72 L1174.35 1484.72 L1174.35 1480.78 Z" fill="#000000" fill-rule="evenodd" fill-opacity="1" /><path clip-path="url(#clip590)" d="M1203.71 1478.84 L1208.59 1478.84 L1208.59 1484.72 L1203.71 1484.72 L1203.71 1478.84 Z" fill="#000000" fill-rule="evenodd" fill-opacity="1" /><path clip-path="url(#clip590)" d="M1218.82 1450.16 L1237.18 1450.16 L1237.18 1454.1 L1223.1 1454.1 L1223.1 1462.57 Q1224.12 1462.22 1225.14 1462.06 Q1226.16 1461.87 1227.18 1461.87 Q1232.97 1461.87 1236.34 1465.04 Q1239.72 1468.22 1239.72 1473.63 Q1239.72 1479.21 1236.25 1482.31 Q1232.78 1485.39 1226.46 1485.39 Q1224.28 1485.39 1222.02 1485.02 Q1219.77 1484.65 1217.36 1483.91 L1217.36 1479.21 Q1219.45 1480.34 1221.67 1480.9 Q1223.89 1481.46 1226.37 1481.46 Q1230.37 1481.46 1232.71 1479.35 Q1235.05 1477.24 1235.05 1473.63 Q1235.05 1470.02 1232.71 1467.91 Q1230.37 1465.81 1226.37 1465.81 Q1224.49 1465.81 1222.62 1466.22 Q1220.77 1466.64 1218.82 1467.52 L1218.82 1450.16 Z" fill="#000000" fill-rule="evenodd" fill-opacity="1" /><path clip-path="url(#clip590)" d="M1543.28 1480.78 L1550.92 1480.78 L1550.92 1454.42 L1542.61 1456.09 L1542.61 1451.83 L1550.87 1450.16 L1555.55 1450.16 L1555.55 1480.78 L1563.19 1480.78 L1563.19 1484.72 L1543.28 1484.72 L1543.28 1480.78 Z" fill="#000000" fill-rule="evenodd" fill-opacity="1" /><path clip-path="url(#clip590)" d="M1572.63 1478.84 L1577.51 1478.84 L1577.51 1484.72 L1572.63 1484.72 L1572.63 1478.84 Z" fill="#000000" fill-rule="evenodd" fill-opacity="1" /><path clip-path="url(#clip590)" d="M1597.7 1468.31 Q1594.37 1468.31 1592.45 1470.09 Q1590.55 1471.87 1590.55 1475 Q1590.55 1478.12 1592.45 1479.91 Q1594.37 1481.69 1597.7 1481.69 Q1601.03 1481.69 1602.95 1479.91 Q1604.88 1478.1 1604.88 1475 Q1604.88 1471.87 1602.95 1470.09 Q1601.06 1468.31 1597.7 1468.31 M1593.02 1466.32 Q1590.01 1465.58 1588.32 1463.52 Q1586.66 1461.46 1586.66 1458.49 Q1586.66 1454.35 1589.6 1451.94 Q1592.56 1449.53 1597.7 1449.53 Q1602.86 1449.53 1605.8 1451.94 Q1608.74 1454.35 1608.74 1458.49 Q1608.74 1461.46 1607.05 1463.52 Q1605.38 1465.58 1602.4 1466.32 Q1605.78 1467.1 1607.65 1469.4 Q1609.55 1471.69 1609.55 1475 Q1609.55 1480.02 1606.47 1482.71 Q1603.42 1485.39 1597.7 1485.39 Q1591.98 1485.39 1588.9 1482.71 Q1585.85 1480.02 1585.85 1475 Q1585.85 1471.69 1587.75 1469.4 Q1589.64 1467.1 1593.02 1466.32 M1591.31 1458.93 Q1591.31 1461.62 1592.98 1463.12 Q1594.67 1464.63 1597.7 1464.63 Q1600.71 1464.63 1602.4 1463.12 Q1604.11 1461.62 1604.11 1458.93 Q1604.11 1456.25 1602.4 1454.74 Q1600.71 1453.24 1597.7 1453.24 Q1594.67 1453.24 1592.98 1454.74 Q1591.31 1456.25 1591.31 1458.93 Z" fill="#000000" fill-rule="evenodd" fill-opacity="1" /><path clip-path="url(#clip590)" d="M1917.31 1480.78 L1933.63 1480.78 L1933.63 1484.72 L1911.68 1484.72 L1911.68 1480.78 Q1914.34 1478.03 1918.93 1473.4 Q1923.53 1468.75 1924.71 1467.41 Q1926.96 1464.88 1927.84 1463.15 Q1928.74 1461.39 1928.74 1459.7 Q1928.74 1456.94 1926.8 1455.21 Q1924.88 1453.47 1921.77 1453.47 Q1919.58 1453.47 1917.12 1454.23 Q1914.69 1455 1911.91 1456.55 L1911.91 1451.83 Q1914.74 1450.69 1917.19 1450.11 Q1919.65 1449.53 1921.68 1449.53 Q1927.05 1449.53 1930.25 1452.22 Q1933.44 1454.91 1933.44 1459.4 Q1933.44 1461.53 1932.63 1463.45 Q1931.84 1465.34 1929.74 1467.94 Q1929.16 1468.61 1926.06 1471.83 Q1922.96 1475.02 1917.31 1480.78 Z" fill="#000000" fill-rule="evenodd" fill-opacity="1" /><path clip-path="url(#clip590)" d="M1943.44 1478.84 L1948.33 1478.84 L1948.33 1484.72 L1943.44 1484.72 L1943.44 1478.84 Z" fill="#000000" fill-rule="evenodd" fill-opacity="1" /><path clip-path="url(#clip590)" d="M1959.32 1480.78 L1966.96 1480.78 L1966.96 1454.42 L1958.65 1456.09 L1958.65 1451.83 L1966.91 1450.16 L1971.59 1450.16 L1971.59 1480.78 L1979.23 1480.78 L1979.23 1484.72 L1959.32 1484.72 L1959.32 1480.78 Z" fill="#000000" fill-rule="evenodd" fill-opacity="1" /><polyline clip-path="url(#clip592)" style="stroke:#000000; stroke-linecap:round; stroke-linejoin:round; stroke-width:2; stroke-opacity:0.1; fill:none" points="
  222.143,1294.16 2256.76,1294.16 
  "/>
<polyline clip-path="url(#clip592)" style="stroke:#000000; stroke-linecap:round; stroke-linejoin:round; stroke-width:2; stroke-opacity:0.1; fill:none" points="
  222.143,1012.77 2256.76,1012.77 
  "/>
<polyline clip-path="url(#clip592)" style="stroke:#000000; stroke-linecap:round; stroke-linejoin:round; stroke-width:2; stroke-opacity:0.1; fill:none" points="
  222.143,731.385 2256.76,731.385 
  "/>
<polyline clip-path="url(#clip592)" style="stroke:#000000; stroke-linecap:round; stroke-linejoin:round; stroke-width:2; stroke-opacity:0.1; fill:none" points="
  222.143,449.996 2256.76,449.996 
  "/>
<polyline clip-path="url(#clip592)" style="stroke:#000000; stroke-linecap:round; stroke-linejoin:round; stroke-width:2; stroke-opacity:0.1; fill:none" points="
  222.143,168.607 2256.76,168.607 
  "/>
<polyline clip-path="url(#clip590)" style="stroke:#000000; stroke-linecap:round; stroke-linejoin:round; stroke-width:4; stroke-opacity:1; fill:none" points="
  222.143,1423.09 222.143,47.2441 
  "/>
<polyline clip-path="url(#clip590)" style="stroke:#000000; stroke-linecap:round; stroke-linejoin:round; stroke-width:4; stroke-opacity:1; fill:none" points="
  222.143,1294.16 241.04,1294.16 
  "/>
<polyline clip-path="url(#clip590)" style="stroke:#000000; stroke-linecap:round; stroke-linejoin:round; stroke-width:4; stroke-opacity:1; fill:none" points="
  222.143,1012.77 241.04,1012.77 
  "/>
<polyline clip-path="url(#clip590)" style="stroke:#000000; stroke-linecap:round; stroke-linejoin:round; stroke-width:4; stroke-opacity:1; fill:none" points="
  222.143,731.385 241.04,731.385 
  "/>
<polyline clip-path="url(#clip590)" style="stroke:#000000; stroke-linecap:round; stroke-linejoin:round; stroke-width:4; stroke-opacity:1; fill:none" points="
  222.143,449.996 241.04,449.996 
  "/>
<polyline clip-path="url(#clip590)" style="stroke:#000000; stroke-linecap:round; stroke-linejoin:round; stroke-width:4; stroke-opacity:1; fill:none" points="
  222.143,168.607 241.04,168.607 
  "/>
<path clip-path="url(#clip590)" d="M51.4721 1294.62 L81.1479 1294.62 L81.1479 1298.55 L51.4721 1298.55 L51.4721 1294.62 Z" fill="#000000" fill-rule="evenodd" fill-opacity="1" /><path clip-path="url(#clip590)" d="M101.24 1279.96 Q97.6293 1279.96 95.8006 1283.53 Q93.995 1287.07 93.995 1294.2 Q93.995 1301.3 95.8006 1304.87 Q97.6293 1308.41 101.24 1308.41 Q104.875 1308.41 106.68 1304.87 Q108.509 1301.3 108.509 1294.2 Q108.509 1287.07 106.68 1283.53 Q104.875 1279.96 101.24 1279.96 M101.24 1276.26 Q107.051 1276.26 110.106 1280.87 Q113.185 1285.45 113.185 1294.2 Q113.185 1302.93 110.106 1307.53 Q107.051 1312.12 101.24 1312.12 Q95.4302 1312.12 92.3515 1307.53 Q89.296 1302.93 89.296 1294.2 Q89.296 1285.45 92.3515 1280.87 Q95.4302 1276.26 101.24 1276.26 Z" fill="#000000" fill-rule="evenodd" fill-opacity="1" /><path clip-path="url(#clip590)" d="M121.402 1305.56 L126.287 1305.56 L126.287 1311.44 L121.402 1311.44 L121.402 1305.56 Z" fill="#000000" fill-rule="evenodd" fill-opacity="1" /><path clip-path="url(#clip590)" d="M140.499 1307.51 L156.819 1307.51 L156.819 1311.44 L134.874 1311.44 L134.874 1307.51 Q137.536 1304.75 142.12 1300.12 Q146.726 1295.47 147.907 1294.13 Q150.152 1291.61 151.032 1289.87 Q151.935 1288.11 151.935 1286.42 Q151.935 1283.67 149.99 1281.93 Q148.069 1280.19 144.967 1280.19 Q142.768 1280.19 140.314 1280.96 Q137.884 1281.72 135.106 1283.27 L135.106 1278.55 Q137.93 1277.42 140.384 1276.84 Q142.837 1276.26 144.874 1276.26 Q150.245 1276.26 153.439 1278.94 Q156.634 1281.63 156.634 1286.12 Q156.634 1288.25 155.823 1290.17 Q155.036 1292.07 152.93 1294.66 Q152.351 1295.33 149.249 1298.55 Q146.148 1301.74 140.499 1307.51 Z" fill="#000000" fill-rule="evenodd" fill-opacity="1" /><path clip-path="url(#clip590)" d="M166.68 1276.88 L185.036 1276.88 L185.036 1280.82 L170.962 1280.82 L170.962 1289.29 Q171.981 1288.94 172.999 1288.78 Q174.018 1288.6 175.036 1288.6 Q180.823 1288.6 184.203 1291.77 Q187.583 1294.94 187.583 1300.36 Q187.583 1305.93 184.11 1309.04 Q180.638 1312.12 174.319 1312.12 Q172.143 1312.12 169.874 1311.74 Q167.629 1311.37 165.222 1310.63 L165.222 1305.93 Q167.305 1307.07 169.527 1307.62 Q171.749 1308.18 174.226 1308.18 Q178.231 1308.18 180.569 1306.07 Q182.907 1303.97 182.907 1300.36 Q182.907 1296.74 180.569 1294.64 Q178.231 1292.53 174.226 1292.53 Q172.351 1292.53 170.476 1292.95 Q168.624 1293.37 166.68 1294.24 L166.68 1276.88 Z" fill="#000000" fill-rule="evenodd" fill-opacity="1" /><path clip-path="url(#clip590)" d="M100.245 998.573 Q96.6339 998.573 94.8052 1002.14 Q92.9997 1005.68 92.9997 1012.81 Q92.9997 1019.92 94.8052 1023.48 Q96.6339 1027.02 100.245 1027.02 Q103.879 1027.02 105.685 1023.48 Q107.513 1019.92 107.513 1012.81 Q107.513 1005.68 105.685 1002.14 Q103.879 998.573 100.245 998.573 M100.245 994.869 Q106.055 994.869 109.111 999.476 Q112.189 1004.06 112.189 1012.81 Q112.189 1021.54 109.111 1026.14 Q106.055 1030.73 100.245 1030.73 Q94.4349 1030.73 91.3562 1026.14 Q88.3006 1021.54 88.3006 1012.81 Q88.3006 1004.06 91.3562 999.476 Q94.4349 994.869 100.245 994.869 Z" fill="#000000" fill-rule="evenodd" fill-opacity="1" /><path clip-path="url(#clip590)" d="M120.407 1024.17 L125.291 1024.17 L125.291 1030.05 L120.407 1030.05 L120.407 1024.17 Z" fill="#000000" fill-rule="evenodd" fill-opacity="1" /><path clip-path="url(#clip590)" d="M145.476 998.573 Q141.865 998.573 140.036 1002.14 Q138.231 1005.68 138.231 1012.81 Q138.231 1019.92 140.036 1023.48 Q141.865 1027.02 145.476 1027.02 Q149.11 1027.02 150.916 1023.48 Q152.745 1019.92 152.745 1012.81 Q152.745 1005.68 150.916 1002.14 Q149.11 998.573 145.476 998.573 M145.476 994.869 Q151.286 994.869 154.342 999.476 Q157.421 1004.06 157.421 1012.81 Q157.421 1021.54 154.342 1026.14 Q151.286 1030.73 145.476 1030.73 Q139.666 1030.73 136.587 1026.14 Q133.532 1021.54 133.532 1012.81 Q133.532 1004.06 136.587 999.476 Q139.666 994.869 145.476 994.869 Z" fill="#000000" fill-rule="evenodd" fill-opacity="1" /><path clip-path="url(#clip590)" d="M175.638 998.573 Q172.027 998.573 170.198 1002.14 Q168.393 1005.68 168.393 1012.81 Q168.393 1019.92 170.198 1023.48 Q172.027 1027.02 175.638 1027.02 Q179.272 1027.02 181.078 1023.48 Q182.907 1019.92 182.907 1012.81 Q182.907 1005.68 181.078 1002.14 Q179.272 998.573 175.638 998.573 M175.638 994.869 Q181.448 994.869 184.504 999.476 Q187.583 1004.06 187.583 1012.81 Q187.583 1021.54 184.504 1026.14 Q181.448 1030.73 175.638 1030.73 Q169.828 1030.73 166.749 1026.14 Q163.694 1021.54 163.694 1012.81 Q163.694 1004.06 166.749 999.476 Q169.828 994.869 175.638 994.869 Z" fill="#000000" fill-rule="evenodd" fill-opacity="1" /><path clip-path="url(#clip590)" d="M101.24 717.184 Q97.6293 717.184 95.8006 720.749 Q93.995 724.29 93.995 731.42 Q93.995 738.526 95.8006 742.091 Q97.6293 745.633 101.24 745.633 Q104.875 745.633 106.68 742.091 Q108.509 738.526 108.509 731.42 Q108.509 724.29 106.68 720.749 Q104.875 717.184 101.24 717.184 M101.24 713.48 Q107.051 713.48 110.106 718.087 Q113.185 722.67 113.185 731.42 Q113.185 740.147 110.106 744.753 Q107.051 749.336 101.24 749.336 Q95.4302 749.336 92.3515 744.753 Q89.296 740.147 89.296 731.42 Q89.296 722.67 92.3515 718.087 Q95.4302 713.48 101.24 713.48 Z" fill="#000000" fill-rule="evenodd" fill-opacity="1" /><path clip-path="url(#clip590)" d="M121.402 742.786 L126.287 742.786 L126.287 748.665 L121.402 748.665 L121.402 742.786 Z" fill="#000000" fill-rule="evenodd" fill-opacity="1" /><path clip-path="url(#clip590)" d="M140.499 744.73 L156.819 744.73 L156.819 748.665 L134.874 748.665 L134.874 744.73 Q137.536 741.975 142.12 737.346 Q146.726 732.693 147.907 731.35 Q150.152 728.827 151.032 727.091 Q151.935 725.332 151.935 723.642 Q151.935 720.888 149.99 719.151 Q148.069 717.415 144.967 717.415 Q142.768 717.415 140.314 718.179 Q137.884 718.943 135.106 720.494 L135.106 715.772 Q137.93 714.638 140.384 714.059 Q142.837 713.48 144.874 713.48 Q150.245 713.48 153.439 716.165 Q156.634 718.851 156.634 723.341 Q156.634 725.471 155.823 727.392 Q155.036 729.29 152.93 731.883 Q152.351 732.554 149.249 735.772 Q146.148 738.966 140.499 744.73 Z" fill="#000000" fill-rule="evenodd" fill-opacity="1" /><path clip-path="url(#clip590)" d="M166.68 714.105 L185.036 714.105 L185.036 718.04 L170.962 718.04 L170.962 726.513 Q171.981 726.165 172.999 726.003 Q174.018 725.818 175.036 725.818 Q180.823 725.818 184.203 728.989 Q187.583 732.161 187.583 737.577 Q187.583 743.156 184.11 746.258 Q180.638 749.336 174.319 749.336 Q172.143 749.336 169.874 748.966 Q167.629 748.596 165.222 747.855 L165.222 743.156 Q167.305 744.29 169.527 744.846 Q171.749 745.401 174.226 745.401 Q178.231 745.401 180.569 743.295 Q182.907 741.188 182.907 737.577 Q182.907 733.966 180.569 731.86 Q178.231 729.753 174.226 729.753 Q172.351 729.753 170.476 730.17 Q168.624 730.587 166.68 731.466 L166.68 714.105 Z" fill="#000000" fill-rule="evenodd" fill-opacity="1" /><path clip-path="url(#clip590)" d="M100.245 435.795 Q96.6339 435.795 94.8052 439.359 Q92.9997 442.901 92.9997 450.031 Q92.9997 457.137 94.8052 460.702 Q96.6339 464.243 100.245 464.243 Q103.879 464.243 105.685 460.702 Q107.513 457.137 107.513 450.031 Q107.513 442.901 105.685 439.359 Q103.879 435.795 100.245 435.795 M100.245 432.091 Q106.055 432.091 109.111 436.697 Q112.189 441.281 112.189 450.031 Q112.189 458.757 109.111 463.364 Q106.055 467.947 100.245 467.947 Q94.4349 467.947 91.3562 463.364 Q88.3006 458.757 88.3006 450.031 Q88.3006 441.281 91.3562 436.697 Q94.4349 432.091 100.245 432.091 Z" fill="#000000" fill-rule="evenodd" fill-opacity="1" /><path clip-path="url(#clip590)" d="M120.407 461.396 L125.291 461.396 L125.291 467.276 L120.407 467.276 L120.407 461.396 Z" fill="#000000" fill-rule="evenodd" fill-opacity="1" /><path clip-path="url(#clip590)" d="M135.523 432.716 L153.879 432.716 L153.879 436.651 L139.805 436.651 L139.805 445.123 Q140.823 444.776 141.842 444.614 Q142.861 444.429 143.879 444.429 Q149.666 444.429 153.046 447.6 Q156.425 450.771 156.425 456.188 Q156.425 461.767 152.953 464.868 Q149.481 467.947 143.161 467.947 Q140.986 467.947 138.717 467.577 Q136.472 467.206 134.064 466.466 L134.064 461.767 Q136.148 462.901 138.37 463.456 Q140.592 464.012 143.069 464.012 Q147.073 464.012 149.411 461.906 Q151.749 459.799 151.749 456.188 Q151.749 452.577 149.411 450.47 Q147.073 448.364 143.069 448.364 Q141.194 448.364 139.319 448.781 Q137.467 449.197 135.523 450.077 L135.523 432.716 Z" fill="#000000" fill-rule="evenodd" fill-opacity="1" /><path clip-path="url(#clip590)" d="M175.638 435.795 Q172.027 435.795 170.198 439.359 Q168.393 442.901 168.393 450.031 Q168.393 457.137 170.198 460.702 Q172.027 464.243 175.638 464.243 Q179.272 464.243 181.078 460.702 Q182.907 457.137 182.907 450.031 Q182.907 442.901 181.078 439.359 Q179.272 435.795 175.638 435.795 M175.638 432.091 Q181.448 432.091 184.504 436.697 Q187.583 441.281 187.583 450.031 Q187.583 458.757 184.504 463.364 Q181.448 467.947 175.638 467.947 Q169.828 467.947 166.749 463.364 Q163.694 458.757 163.694 450.031 Q163.694 441.281 166.749 436.697 Q169.828 432.091 175.638 432.091 Z" fill="#000000" fill-rule="evenodd" fill-opacity="1" /><path clip-path="url(#clip590)" d="M101.24 154.405 Q97.6293 154.405 95.8006 157.97 Q93.995 161.512 93.995 168.641 Q93.995 175.748 95.8006 179.313 Q97.6293 182.854 101.24 182.854 Q104.875 182.854 106.68 179.313 Q108.509 175.748 108.509 168.641 Q108.509 161.512 106.68 157.97 Q104.875 154.405 101.24 154.405 M101.24 150.702 Q107.051 150.702 110.106 155.308 Q113.185 159.891 113.185 168.641 Q113.185 177.368 110.106 181.975 Q107.051 186.558 101.24 186.558 Q95.4302 186.558 92.3515 181.975 Q89.296 177.368 89.296 168.641 Q89.296 159.891 92.3515 155.308 Q95.4302 150.702 101.24 150.702 Z" fill="#000000" fill-rule="evenodd" fill-opacity="1" /><path clip-path="url(#clip590)" d="M121.402 180.007 L126.287 180.007 L126.287 185.887 L121.402 185.887 L121.402 180.007 Z" fill="#000000" fill-rule="evenodd" fill-opacity="1" /><path clip-path="url(#clip590)" d="M135.291 151.327 L157.513 151.327 L157.513 153.317 L144.967 185.887 L140.083 185.887 L151.888 155.262 L135.291 155.262 L135.291 151.327 Z" fill="#000000" fill-rule="evenodd" fill-opacity="1" /><path clip-path="url(#clip590)" d="M166.68 151.327 L185.036 151.327 L185.036 155.262 L170.962 155.262 L170.962 163.734 Q171.981 163.387 172.999 163.225 Q174.018 163.04 175.036 163.04 Q180.823 163.04 184.203 166.211 Q187.583 169.382 187.583 174.799 Q187.583 180.377 184.11 183.479 Q180.638 186.558 174.319 186.558 Q172.143 186.558 169.874 186.188 Q167.629 185.817 165.222 185.076 L165.222 180.377 Q167.305 181.512 169.527 182.067 Q171.749 182.623 174.226 182.623 Q178.231 182.623 180.569 180.516 Q182.907 178.41 182.907 174.799 Q182.907 171.188 180.569 169.081 Q178.231 166.975 174.226 166.975 Q172.351 166.975 170.476 167.391 Q168.624 167.808 166.68 168.688 L166.68 151.327 Z" fill="#000000" fill-rule="evenodd" fill-opacity="1" /><circle clip-path="url(#clip592)" cx="1107.93" cy="519.401" r="14.4" fill="#009af9" fill-rule="evenodd" fill-opacity="1" stroke="#000000" stroke-opacity="1" stroke-width="3.072"/>
<circle clip-path="url(#clip592)" cx="279.726" cy="672.868" r="14.4" fill="#009af9" fill-rule="evenodd" fill-opacity="1" stroke="#000000" stroke-opacity="1" stroke-width="3.072"/>
<circle clip-path="url(#clip592)" cx="978.294" cy="363.143" r="14.4" fill="#009af9" fill-rule="evenodd" fill-opacity="1" stroke="#000000" stroke-opacity="1" stroke-width="3.072"/>
<circle clip-path="url(#clip592)" cx="1369.05" cy="820.486" r="14.4" fill="#009af9" fill-rule="evenodd" fill-opacity="1" stroke="#000000" stroke-opacity="1" stroke-width="3.072"/>
<circle clip-path="url(#clip592)" cx="1249.7" cy="755.842" r="14.4" fill="#009af9" fill-rule="evenodd" fill-opacity="1" stroke="#000000" stroke-opacity="1" stroke-width="3.072"/>
<circle clip-path="url(#clip592)" cx="980.643" cy="556.627" r="14.4" fill="#009af9" fill-rule="evenodd" fill-opacity="1" stroke="#000000" stroke-opacity="1" stroke-width="3.072"/>
<circle clip-path="url(#clip592)" cx="1079.54" cy="935.58" r="14.4" fill="#009af9" fill-rule="evenodd" fill-opacity="1" stroke="#000000" stroke-opacity="1" stroke-width="3.072"/>
<circle clip-path="url(#clip592)" cx="1298.06" cy="1248.99" r="14.4" fill="#009af9" fill-rule="evenodd" fill-opacity="1" stroke="#000000" stroke-opacity="1" stroke-width="3.072"/>
<circle clip-path="url(#clip592)" cx="1356.23" cy="969.111" r="14.4" fill="#009af9" fill-rule="evenodd" fill-opacity="1" stroke="#000000" stroke-opacity="1" stroke-width="3.072"/>
<circle clip-path="url(#clip592)" cx="1645.94" cy="868.827" r="14.4" fill="#009af9" fill-rule="evenodd" fill-opacity="1" stroke="#000000" stroke-opacity="1" stroke-width="3.072"/>
<circle clip-path="url(#clip592)" cx="705.265" cy="1384.15" r="14.4" fill="#009af9" fill-rule="evenodd" fill-opacity="1" stroke="#000000" stroke-opacity="1" stroke-width="3.072"/>
<circle clip-path="url(#clip592)" cx="1149.97" cy="170.155" r="14.4" fill="#009af9" fill-rule="evenodd" fill-opacity="1" stroke="#000000" stroke-opacity="1" stroke-width="3.072"/>
<circle clip-path="url(#clip592)" cx="1565.05" cy="189.913" r="14.4" fill="#009af9" fill-rule="evenodd" fill-opacity="1" stroke="#000000" stroke-opacity="1" stroke-width="3.072"/>
<circle clip-path="url(#clip592)" cx="730.269" cy="86.1831" r="14.4" fill="#009af9" fill-rule="evenodd" fill-opacity="1" stroke="#000000" stroke-opacity="1" stroke-width="3.072"/>
<circle clip-path="url(#clip592)" cx="556.008" cy="594.91" r="14.4" fill="#009af9" fill-rule="evenodd" fill-opacity="1" stroke="#000000" stroke-opacity="1" stroke-width="3.072"/>
<circle clip-path="url(#clip592)" cx="679.767" cy="385.469" r="14.4" fill="#009af9" fill-rule="evenodd" fill-opacity="1" stroke="#000000" stroke-opacity="1" stroke-width="3.072"/>
<circle clip-path="url(#clip592)" cx="748.09" cy="579.012" r="14.4" fill="#009af9" fill-rule="evenodd" fill-opacity="1" stroke="#000000" stroke-opacity="1" stroke-width="3.072"/>
<circle clip-path="url(#clip592)" cx="1384.03" cy="627.911" r="14.4" fill="#009af9" fill-rule="evenodd" fill-opacity="1" stroke="#000000" stroke-opacity="1" stroke-width="3.072"/>
<circle clip-path="url(#clip592)" cx="1915.36" cy="917.412" r="14.4" fill="#009af9" fill-rule="evenodd" fill-opacity="1" stroke="#000000" stroke-opacity="1" stroke-width="3.072"/>
<circle clip-path="url(#clip592)" cx="1089.67" cy="864.909" r="14.4" fill="#009af9" fill-rule="evenodd" fill-opacity="1" stroke="#000000" stroke-opacity="1" stroke-width="3.072"/>
<circle clip-path="url(#clip592)" cx="1386.09" cy="891.943" r="14.4" fill="#009af9" fill-rule="evenodd" fill-opacity="1" stroke="#000000" stroke-opacity="1" stroke-width="3.072"/>
<circle clip-path="url(#clip592)" cx="828.338" cy="597.985" r="14.4" fill="#009af9" fill-rule="evenodd" fill-opacity="1" stroke="#000000" stroke-opacity="1" stroke-width="3.072"/>
<circle clip-path="url(#clip592)" cx="770.903" cy="535.926" r="14.4" fill="#009af9" fill-rule="evenodd" fill-opacity="1" stroke="#000000" stroke-opacity="1" stroke-width="3.072"/>
<circle clip-path="url(#clip592)" cx="1484.96" cy="267.484" r="14.4" fill="#009af9" fill-rule="evenodd" fill-opacity="1" stroke="#000000" stroke-opacity="1" stroke-width="3.072"/>
<circle clip-path="url(#clip592)" cx="1890.82" cy="342.6" r="14.4" fill="#009af9" fill-rule="evenodd" fill-opacity="1" stroke="#000000" stroke-opacity="1" stroke-width="3.072"/>
<circle clip-path="url(#clip592)" cx="1197.28" cy="418.718" r="14.4" fill="#009af9" fill-rule="evenodd" fill-opacity="1" stroke="#000000" stroke-opacity="1" stroke-width="3.072"/>
<circle clip-path="url(#clip592)" cx="1817.03" cy="645.451" r="14.4" fill="#009af9" fill-rule="evenodd" fill-opacity="1" stroke="#000000" stroke-opacity="1" stroke-width="3.072"/>
<circle clip-path="url(#clip592)" cx="1150.05" cy="712.436" r="14.4" fill="#009af9" fill-rule="evenodd" fill-opacity="1" stroke="#000000" stroke-opacity="1" stroke-width="3.072"/>
<circle clip-path="url(#clip592)" cx="773.882" cy="848.544" r="14.4" fill="#009af9" fill-rule="evenodd" fill-opacity="1" stroke="#000000" stroke-opacity="1" stroke-width="3.072"/>
<circle clip-path="url(#clip592)" cx="971.354" cy="484.196" r="14.4" fill="#009af9" fill-rule="evenodd" fill-opacity="1" stroke="#000000" stroke-opacity="1" stroke-width="3.072"/>
<circle clip-path="url(#clip592)" cx="2199.17" cy="688.913" r="14.4" fill="#009af9" fill-rule="evenodd" fill-opacity="1" stroke="#000000" stroke-opacity="1" stroke-width="3.072"/>
<circle clip-path="url(#clip592)" cx="1232.3" cy="363.834" r="14.4" fill="#009af9" fill-rule="evenodd" fill-opacity="1" stroke="#000000" stroke-opacity="1" stroke-width="3.072"/>
<circle clip-path="url(#clip592)" cx="966.298" cy="1262.73" r="14.4" fill="#009af9" fill-rule="evenodd" fill-opacity="1" stroke="#000000" stroke-opacity="1" stroke-width="3.072"/>
<circle clip-path="url(#clip592)" cx="1076.47" cy="479.963" r="14.4" fill="#009af9" fill-rule="evenodd" fill-opacity="1" stroke="#000000" stroke-opacity="1" stroke-width="3.072"/>
<circle clip-path="url(#clip592)" cx="1445.53" cy="710.178" r="14.4" fill="#009af9" fill-rule="evenodd" fill-opacity="1" stroke="#000000" stroke-opacity="1" stroke-width="3.072"/>
<circle clip-path="url(#clip592)" cx="303.035" cy="710.89" r="14.4" fill="#009af9" fill-rule="evenodd" fill-opacity="1" stroke="#000000" stroke-opacity="1" stroke-width="3.072"/>
<circle clip-path="url(#clip592)" cx="928.175" cy="801.389" r="14.4" fill="#009af9" fill-rule="evenodd" fill-opacity="1" stroke="#000000" stroke-opacity="1" stroke-width="3.072"/>
<circle clip-path="url(#clip592)" cx="1760.19" cy="976.991" r="14.4" fill="#009af9" fill-rule="evenodd" fill-opacity="1" stroke="#000000" stroke-opacity="1" stroke-width="3.072"/>
<circle clip-path="url(#clip592)" cx="1037.22" cy="400.141" r="14.4" fill="#009af9" fill-rule="evenodd" fill-opacity="1" stroke="#000000" stroke-opacity="1" stroke-width="3.072"/>
<circle clip-path="url(#clip592)" cx="1413.65" cy="1202.49" r="14.4" fill="#009af9" fill-rule="evenodd" fill-opacity="1" stroke="#000000" stroke-opacity="1" stroke-width="3.072"/>
<circle clip-path="url(#clip592)" cx="664.658" cy="592.825" r="14.4" fill="#009af9" fill-rule="evenodd" fill-opacity="1" stroke="#000000" stroke-opacity="1" stroke-width="3.072"/>
<circle clip-path="url(#clip592)" cx="809.884" cy="399.815" r="14.4" fill="#009af9" fill-rule="evenodd" fill-opacity="1" stroke="#000000" stroke-opacity="1" stroke-width="3.072"/>
<circle clip-path="url(#clip592)" cx="752.355" cy="806.054" r="14.4" fill="#009af9" fill-rule="evenodd" fill-opacity="1" stroke="#000000" stroke-opacity="1" stroke-width="3.072"/>
<circle clip-path="url(#clip592)" cx="1342.99" cy="585.535" r="14.4" fill="#009af9" fill-rule="evenodd" fill-opacity="1" stroke="#000000" stroke-opacity="1" stroke-width="3.072"/>
<circle clip-path="url(#clip592)" cx="1686.43" cy="869.425" r="14.4" fill="#009af9" fill-rule="evenodd" fill-opacity="1" stroke="#000000" stroke-opacity="1" stroke-width="3.072"/>
<circle clip-path="url(#clip592)" cx="1780.24" cy="832.668" r="14.4" fill="#009af9" fill-rule="evenodd" fill-opacity="1" stroke="#000000" stroke-opacity="1" stroke-width="3.072"/>
<circle clip-path="url(#clip592)" cx="1657.91" cy="771.943" r="14.4" fill="#009af9" fill-rule="evenodd" fill-opacity="1" stroke="#000000" stroke-opacity="1" stroke-width="3.072"/>
<circle clip-path="url(#clip592)" cx="910.576" cy="946.139" r="14.4" fill="#009af9" fill-rule="evenodd" fill-opacity="1" stroke="#000000" stroke-opacity="1" stroke-width="3.072"/>
<circle clip-path="url(#clip592)" cx="1283.29" cy="1030.53" r="14.4" fill="#009af9" fill-rule="evenodd" fill-opacity="1" stroke="#000000" stroke-opacity="1" stroke-width="3.072"/>
<circle clip-path="url(#clip592)" cx="706.376" cy="675.725" r="14.4" fill="#009af9" fill-rule="evenodd" fill-opacity="1" stroke="#000000" stroke-opacity="1" stroke-width="3.072"/>
<polyline clip-path="url(#clip592)" style="stroke:#e26f46; stroke-linecap:round; stroke-linejoin:round; stroke-width:4; stroke-opacity:1; fill:none" points="
  279.726,897.815 292.223,895.516 407.772,874.259 477.213,861.484 535.924,850.683 599.7,838.95 658.497,828.133 721.533,816.537 794.566,803.101 859.469,791.16 
  916.384,780.69 978.436,769.274 1040.86,757.791 1109.87,745.094 1175.54,733.014 1243.81,720.453 1301.29,709.879 1371.46,696.97 1435.74,685.145 1495.1,674.223 
  1555.24,663.16 1622.64,650.761 1683.71,639.525 1753.64,626.661 1818.38,614.75 1882.21,603.008 1944.18,591.607 2007.71,579.919 2077.32,567.114 2178.43,548.512 
  2199.17,544.696 
  "/>
<path clip-path="url(#clip590)" d="
M1933.04 1377.23 L2188.94 1377.23 L2188.94 1221.71 L1933.04 1221.71  Z
  " fill="#ffffff" fill-rule="evenodd" fill-opacity="1"/>
<polyline clip-path="url(#clip590)" style="stroke:#000000; stroke-linecap:round; stroke-linejoin:round; stroke-width:4; stroke-opacity:1; fill:none" points="
  1933.04,1377.23 2188.94,1377.23 2188.94,1221.71 1933.04,1221.71 1933.04,1377.23 
  "/>
<circle clip-path="url(#clip590)" cx="2023.47" cy="1273.55" r="23.04" fill="#009af9" fill-rule="evenodd" fill-opacity="1" stroke="#000000" stroke-opacity="1" stroke-width="4.9152"/>
<path clip-path="url(#clip590)" d="M2127.74 1293.23 Q2125.94 1297.86 2124.22 1299.28 Q2122.51 1300.69 2119.64 1300.69 L2116.24 1300.69 L2116.24 1297.12 L2118.74 1297.12 Q2120.5 1297.12 2121.47 1296.29 Q2122.44 1295.46 2123.62 1292.35 L2124.38 1290.41 L2113.9 1264.9 L2118.41 1264.9 L2126.51 1285.18 L2134.62 1264.9 L2139.13 1264.9 L2127.74 1293.23 Z" fill="#000000" fill-rule="evenodd" fill-opacity="1" /><path clip-path="url(#clip590)" d="M2146.42 1286.89 L2154.06 1286.89 L2154.06 1260.53 L2145.75 1262.19 L2145.75 1257.93 L2154.01 1256.27 L2158.69 1256.27 L2158.69 1286.89 L2166.33 1286.89 L2166.33 1290.83 L2146.42 1290.83 L2146.42 1286.89 Z" fill="#000000" fill-rule="evenodd" fill-opacity="1" /><polyline clip-path="url(#clip590)" style="stroke:#e26f46; stroke-linecap:round; stroke-linejoin:round; stroke-width:4; stroke-opacity:1; fill:none" points="
  1955.65,1325.39 2091.29,1325.39 
  "/>
<path clip-path="url(#clip590)" d="M2127.74 1345.07 Q2125.94 1349.7 2124.22 1351.12 Q2122.51 1352.53 2119.64 1352.53 L2116.24 1352.53 L2116.24 1348.96 L2118.74 1348.96 Q2120.5 1348.96 2121.47 1348.13 Q2122.44 1347.3 2123.62 1344.19 L2124.38 1342.25 L2113.9 1316.74 L2118.41 1316.74 L2126.51 1337.02 L2134.62 1316.74 L2139.13 1316.74 L2127.74 1345.07 Z" fill="#000000" fill-rule="evenodd" fill-opacity="1" /><path clip-path="url(#clip590)" d="M2149.64 1338.73 L2165.96 1338.73 L2165.96 1342.67 L2144.01 1342.67 L2144.01 1338.73 Q2146.68 1335.98 2151.26 1331.35 Q2155.87 1326.69 2157.05 1325.35 Q2159.29 1322.83 2160.17 1321.09 Q2161.07 1319.33 2161.07 1317.64 Q2161.07 1314.89 2159.13 1313.15 Q2157.21 1311.42 2154.11 1311.42 Q2151.91 1311.42 2149.45 1312.18 Q2147.02 1312.94 2144.25 1314.5 L2144.25 1309.77 Q2147.07 1308.64 2149.52 1308.06 Q2151.98 1307.48 2154.01 1307.48 Q2159.38 1307.48 2162.58 1310.17 Q2165.77 1312.85 2165.77 1317.34 Q2165.77 1319.47 2164.96 1321.39 Q2164.18 1323.29 2162.07 1325.88 Q2161.49 1326.56 2158.39 1329.77 Q2155.29 1332.97 2149.64 1338.73 Z" fill="#000000" fill-rule="evenodd" fill-opacity="1" /></svg>
