<?xml version="1.0" encoding="utf-8"?>
<svg xmlns="http://www.w3.org/2000/svg" xmlns:xlink="http://www.w3.org/1999/xlink" width="288" height="192" viewBox="0 0 1152 768">
<defs>
  <clipPath id="clip790">
    <rect x="0" y="0" width="1152" height="768"/>
  </clipPath>
</defs>
<path clip-path="url(#clip790)" d="
M0 768 L1152 768 L1152 0 L0 0  Z
  " fill="#ffffff" fill-rule="evenodd" fill-opacity="1"/>
<defs>
  <clipPath id="clip791">
    <rect x="230" y="0" width="807" height="768"/>
  </clipPath>
</defs>
<path clip-path="url(#clip790)" d="
M210.623 662.768 L1104.76 662.768 L1104.76 47.2441 L210.623 47.2441  Z
  " fill="#ffffff" fill-rule="evenodd" fill-opacity="1"/>
<defs>
  <clipPath id="clip792">
    <rect x="210" y="47" width="895" height="617"/>
  </clipPath>
</defs>
<polyline clip-path="url(#clip792)" style="stroke:#000000; stroke-linecap:round; stroke-linejoin:round; stroke-width:2; stroke-opacity:0.1; fill:none" points="
  342.009,662.768 342.009,47.2441 
  "/>
<polyline clip-path="url(#clip792)" style="stroke:#000000; stroke-linecap:round; stroke-linejoin:round; stroke-width:2; stroke-opacity:0.1; fill:none" points="
  482.567,662.768 482.567,47.2441 
  "/>
<polyline clip-path="url(#clip792)" style="stroke:#000000; stroke-linecap:round; stroke-linejoin:round; stroke-width:2; stroke-opacity:0.1; fill:none" points="
  623.125,662.768 623.125,47.2441 
  "/>
<polyline clip-path="url(#clip792)" style="stroke:#000000; stroke-linecap:round; stroke-linejoin:round; stroke-width:2; stroke-opacity:0.1; fill:none" points="
  763.684,662.768 763.684,47.2441 
  "/>
<polyline clip-path="url(#clip792)" style="stroke:#000000; stroke-linecap:round; stroke-linejoin:round; stroke-width:2; stroke-opacity:0.1; fill:none" points="
  904.242,662.768 904.242,47.2441 
  "/>
<polyline clip-path="url(#clip792)" style="stroke:#000000; stroke-linecap:round; stroke-linejoin:round; stroke-width:2; stroke-opacity:0.1; fill:none" points="
  1044.8,662.768 1044.8,47.2441 
  "/>
<polyline clip-path="url(#clip790)" style="stroke:#000000; stroke-linecap:round; stroke-linejoin:round; stroke-width:4; stroke-opacity:1; fill:none" points="
  210.623,662.768 1104.76,662.768 
  "/>
<polyline clip-path="url(#clip790)" style="stroke:#000000; stroke-linecap:round; stroke-linejoin:round; stroke-width:4; stroke-opacity:1; fill:none" points="
  342.009,662.768 342.009,643.87 
  "/>
<polyline clip-path="url(#clip790)" style="stroke:#000000; stroke-linecap:round; stroke-linejoin:round; stroke-width:4; stroke-opacity:1; fill:none" points="
  482.567,662.768 482.567,643.87 
  "/>
<polyline clip-path="url(#clip790)" style="stroke:#000000; stroke-linecap:round; stroke-linejoin:round; stroke-width:4; stroke-opacity:1; fill:none" points="
  623.125,662.768 623.125,643.87 
  "/>
<polyline clip-path="url(#clip790)" style="stroke:#000000; stroke-linecap:round; stroke-linejoin:round; stroke-width:4; stroke-opacity:1; fill:none" points="
  763.684,662.768 763.684,643.87 
  "/>
<polyline clip-path="url(#clip790)" style="stroke:#000000; stroke-linecap:round; stroke-linejoin:round; stroke-width:4; stroke-opacity:1; fill:none" points="
  904.242,662.768 904.242,643.87 
  "/>
<polyline clip-path="url(#clip790)" style="stroke:#000000; stroke-linecap:round; stroke-linejoin:round; stroke-width:4; stroke-opacity:1; fill:none" points="
  1044.8,662.768 1044.8,643.87 
  "/>
<path clip-path="url(#clip790)" d="M304.81 683.703 Q301.199 683.703 299.37 687.267 Q297.564 690.809 297.564 697.939 Q297.564 705.045 299.37 708.61 Q301.199 712.151 304.81 712.151 Q308.444 712.151 310.25 708.61 Q312.078 705.045 312.078 697.939 Q312.078 690.809 310.25 687.267 Q308.444 683.703 304.81 683.703 M304.81 679.999 Q310.62 679.999 313.675 684.605 Q316.754 689.189 316.754 697.939 Q316.754 706.665 313.675 711.272 Q310.62 715.855 304.81 715.855 Q299 715.855 295.921 711.272 Q292.865 706.665 292.865 697.939 Q292.865 689.189 295.921 684.605 Q299 679.999 304.81 679.999 Z" fill="#000000" fill-rule="evenodd" fill-opacity="1" /><path clip-path="url(#clip790)" d="M324.972 709.304 L329.856 709.304 L329.856 715.184 L324.972 715.184 L324.972 709.304 Z" fill="#000000" fill-rule="evenodd" fill-opacity="1" /><path clip-path="url(#clip790)" d="M338.86 680.624 L361.083 680.624 L361.083 682.615 L348.536 715.184 L343.652 715.184 L355.458 684.559 L338.86 684.559 L338.86 680.624 Z" fill="#000000" fill-rule="evenodd" fill-opacity="1" /><path clip-path="url(#clip790)" d="M370.249 680.624 L388.606 680.624 L388.606 684.559 L374.532 684.559 L374.532 693.031 Q375.55 692.684 376.569 692.522 Q377.587 692.337 378.606 692.337 Q384.393 692.337 387.772 695.508 Q391.152 698.679 391.152 704.096 Q391.152 709.675 387.68 712.776 Q384.207 715.855 377.888 715.855 Q375.712 715.855 373.444 715.485 Q371.198 715.114 368.791 714.374 L368.791 709.675 Q370.874 710.809 373.096 711.364 Q375.319 711.92 377.795 711.92 Q381.8 711.92 384.138 709.814 Q386.476 707.707 386.476 704.096 Q386.476 700.485 384.138 698.378 Q381.8 696.272 377.795 696.272 Q375.92 696.272 374.045 696.689 Q372.194 697.105 370.249 697.985 L370.249 680.624 Z" fill="#000000" fill-rule="evenodd" fill-opacity="1" /><path clip-path="url(#clip790)" d="M434.639 711.249 L442.278 711.249 L442.278 684.883 L433.968 686.55 L433.968 682.291 L442.232 680.624 L446.907 680.624 L446.907 711.249 L454.546 711.249 L454.546 715.184 L434.639 715.184 L434.639 711.249 Z" fill="#000000" fill-rule="evenodd" fill-opacity="1" /><path clip-path="url(#clip790)" d="M463.991 709.304 L468.875 709.304 L468.875 715.184 L463.991 715.184 L463.991 709.304 Z" fill="#000000" fill-rule="evenodd" fill-opacity="1" /><path clip-path="url(#clip790)" d="M489.06 683.703 Q485.449 683.703 483.62 687.267 Q481.815 690.809 481.815 697.939 Q481.815 705.045 483.62 708.61 Q485.449 712.151 489.06 712.151 Q492.694 712.151 494.5 708.61 Q496.329 705.045 496.329 697.939 Q496.329 690.809 494.5 687.267 Q492.694 683.703 489.06 683.703 M489.06 679.999 Q494.87 679.999 497.926 684.605 Q501.004 689.189 501.004 697.939 Q501.004 706.665 497.926 711.272 Q494.87 715.855 489.06 715.855 Q483.25 715.855 480.171 711.272 Q477.116 706.665 477.116 697.939 Q477.116 689.189 480.171 684.605 Q483.25 679.999 489.06 679.999 Z" fill="#000000" fill-rule="evenodd" fill-opacity="1" /><path clip-path="url(#clip790)" d="M519.222 683.703 Q515.611 683.703 513.782 687.267 Q511.977 690.809 511.977 697.939 Q511.977 705.045 513.782 708.61 Q515.611 712.151 519.222 712.151 Q522.856 712.151 524.662 708.61 Q526.49 705.045 526.49 697.939 Q526.49 690.809 524.662 687.267 Q522.856 683.703 519.222 683.703 M519.222 679.999 Q525.032 679.999 528.088 684.605 Q531.166 689.189 531.166 697.939 Q531.166 706.665 528.088 711.272 Q525.032 715.855 519.222 715.855 Q513.412 715.855 510.333 711.272 Q507.278 706.665 507.278 697.939 Q507.278 689.189 510.333 684.605 Q513.412 679.999 519.222 679.999 Z" fill="#000000" fill-rule="evenodd" fill-opacity="1" /><path clip-path="url(#clip790)" d="M575.695 711.249 L583.334 711.249 L583.334 684.883 L575.024 686.55 L575.024 682.291 L583.288 680.624 L587.964 680.624 L587.964 711.249 L595.602 711.249 L595.602 715.184 L575.695 715.184 L575.695 711.249 Z" fill="#000000" fill-rule="evenodd" fill-opacity="1" /><path clip-path="url(#clip790)" d="M605.047 709.304 L609.931 709.304 L609.931 715.184 L605.047 715.184 L605.047 709.304 Z" fill="#000000" fill-rule="evenodd" fill-opacity="1" /><path clip-path="url(#clip790)" d="M624.144 711.249 L640.463 711.249 L640.463 715.184 L618.519 715.184 L618.519 711.249 Q621.181 708.494 625.764 703.864 Q630.371 699.212 631.551 697.869 Q633.797 695.346 634.676 693.61 Q635.579 691.851 635.579 690.161 Q635.579 687.406 633.635 685.67 Q631.713 683.934 628.611 683.934 Q626.412 683.934 623.959 684.698 Q621.528 685.462 618.75 687.013 L618.75 682.291 Q621.574 681.156 624.028 680.578 Q626.482 679.999 628.519 679.999 Q633.889 679.999 637.084 682.684 Q640.278 685.369 640.278 689.86 Q640.278 691.99 639.468 693.911 Q638.681 695.809 636.574 698.402 Q635.996 699.073 632.894 702.29 Q629.792 705.485 624.144 711.249 Z" fill="#000000" fill-rule="evenodd" fill-opacity="1" /><path clip-path="url(#clip790)" d="M650.324 680.624 L668.681 680.624 L668.681 684.559 L654.607 684.559 L654.607 693.031 Q655.625 692.684 656.644 692.522 Q657.662 692.337 658.681 692.337 Q664.468 692.337 667.847 695.508 Q671.227 698.679 671.227 704.096 Q671.227 709.675 667.755 712.776 Q664.283 715.855 657.963 715.855 Q655.787 715.855 653.519 715.485 Q651.273 715.114 648.866 714.374 L648.866 709.675 Q650.949 710.809 653.172 711.364 Q655.394 711.92 657.871 711.92 Q661.875 711.92 664.213 709.814 Q666.551 707.707 666.551 704.096 Q666.551 700.485 664.213 698.378 Q661.875 696.272 657.871 696.272 Q655.996 696.272 654.121 696.689 Q652.269 697.105 650.324 697.985 L650.324 680.624 Z" fill="#000000" fill-rule="evenodd" fill-opacity="1" /><path clip-path="url(#clip790)" d="M715.756 711.249 L723.395 711.249 L723.395 684.883 L715.085 686.55 L715.085 682.291 L723.348 680.624 L728.024 680.624 L728.024 711.249 L735.663 711.249 L735.663 715.184 L715.756 715.184 L715.756 711.249 Z" fill="#000000" fill-rule="evenodd" fill-opacity="1" /><path clip-path="url(#clip790)" d="M745.108 709.304 L749.992 709.304 L749.992 715.184 L745.108 715.184 L745.108 709.304 Z" fill="#000000" fill-rule="evenodd" fill-opacity="1" /><path clip-path="url(#clip790)" d="M760.223 680.624 L778.58 680.624 L778.58 684.559 L764.506 684.559 L764.506 693.031 Q765.524 692.684 766.543 692.522 Q767.561 692.337 768.58 692.337 Q774.367 692.337 777.746 695.508 Q781.126 698.679 781.126 704.096 Q781.126 709.675 777.654 712.776 Q774.181 715.855 767.862 715.855 Q765.686 715.855 763.418 715.485 Q761.172 715.114 758.765 714.374 L758.765 709.675 Q760.848 710.809 763.07 711.364 Q765.293 711.92 767.769 711.92 Q771.774 711.92 774.112 709.814 Q776.45 707.707 776.45 704.096 Q776.45 700.485 774.112 698.378 Q771.774 696.272 767.769 696.272 Q765.894 696.272 764.019 696.689 Q762.168 697.105 760.223 697.985 L760.223 680.624 Z" fill="#000000" fill-rule="evenodd" fill-opacity="1" /><path clip-path="url(#clip790)" d="M800.339 683.703 Q796.728 683.703 794.899 687.267 Q793.093 690.809 793.093 697.939 Q793.093 705.045 794.899 708.61 Q796.728 712.151 800.339 712.151 Q803.973 712.151 805.779 708.61 Q807.607 705.045 807.607 697.939 Q807.607 690.809 805.779 687.267 Q803.973 683.703 800.339 683.703 M800.339 679.999 Q806.149 679.999 809.204 684.605 Q812.283 689.189 812.283 697.939 Q812.283 706.665 809.204 711.272 Q806.149 715.855 800.339 715.855 Q794.529 715.855 791.45 711.272 Q788.394 706.665 788.394 697.939 Q788.394 689.189 791.45 684.605 Q794.529 679.999 800.339 679.999 Z" fill="#000000" fill-rule="evenodd" fill-opacity="1" /><path clip-path="url(#clip790)" d="M856.812 711.249 L864.451 711.249 L864.451 684.883 L856.141 686.55 L856.141 682.291 L864.404 680.624 L869.08 680.624 L869.08 711.249 L876.719 711.249 L876.719 715.184 L856.812 715.184 L856.812 711.249 Z" fill="#000000" fill-rule="evenodd" fill-opacity="1" /><path clip-path="url(#clip790)" d="M886.164 709.304 L891.048 709.304 L891.048 715.184 L886.164 715.184 L886.164 709.304 Z" fill="#000000" fill-rule="evenodd" fill-opacity="1" /><path clip-path="url(#clip790)" d="M900.052 680.624 L922.275 680.624 L922.275 682.615 L909.728 715.184 L904.844 715.184 L916.65 684.559 L900.052 684.559 L900.052 680.624 Z" fill="#000000" fill-rule="evenodd" fill-opacity="1" /><path clip-path="url(#clip790)" d="M931.441 680.624 L949.798 680.624 L949.798 684.559 L935.724 684.559 L935.724 693.031 Q936.742 692.684 937.761 692.522 Q938.779 692.337 939.798 692.337 Q945.585 692.337 948.964 695.508 Q952.344 698.679 952.344 704.096 Q952.344 709.675 948.872 712.776 Q945.399 715.855 939.08 715.855 Q936.904 715.855 934.636 715.485 Q932.39 715.114 929.983 714.374 L929.983 709.675 Q932.066 710.809 934.288 711.364 Q936.511 711.92 938.987 711.92 Q942.992 711.92 945.33 709.814 Q947.668 707.707 947.668 704.096 Q947.668 700.485 945.33 698.378 Q942.992 696.272 938.987 696.272 Q937.112 696.272 935.237 696.689 Q933.386 697.105 931.441 697.985 L931.441 680.624 Z" fill="#000000" fill-rule="evenodd" fill-opacity="1" /><path clip-path="url(#clip790)" d="M1000.96 711.249 L1017.28 711.249 L1017.28 715.184 L995.333 715.184 L995.333 711.249 Q997.995 708.494 1002.58 703.864 Q1007.19 699.212 1008.37 697.869 Q1010.61 695.346 1011.49 693.61 Q1012.39 691.851 1012.39 690.161 Q1012.39 687.406 1010.45 685.67 Q1008.53 683.934 1005.43 683.934 Q1003.23 683.934 1000.77 684.698 Q998.343 685.462 995.565 687.013 L995.565 682.291 Q998.389 681.156 1000.84 680.578 Q1003.3 679.999 1005.33 679.999 Q1010.7 679.999 1013.9 682.684 Q1017.09 685.369 1017.09 689.86 Q1017.09 691.99 1016.28 693.911 Q1015.5 695.809 1013.39 698.402 Q1012.81 699.073 1009.71 702.29 Q1006.61 705.485 1000.96 711.249 Z" fill="#000000" fill-rule="evenodd" fill-opacity="1" /><path clip-path="url(#clip790)" d="M1027.09 709.304 L1031.98 709.304 L1031.98 715.184 L1027.09 715.184 L1027.09 709.304 Z" fill="#000000" fill-rule="evenodd" fill-opacity="1" /><path clip-path="url(#clip790)" d="M1052.16 683.703 Q1048.55 683.703 1046.72 687.267 Q1044.92 690.809 1044.92 697.939 Q1044.92 705.045 1046.72 708.61 Q1048.55 712.151 1052.16 712.151 Q1055.8 712.151 1057.6 708.61 Q1059.43 705.045 1059.43 697.939 Q1059.43 690.809 1057.6 687.267 Q1055.8 683.703 1052.16 683.703 M1052.16 679.999 Q1057.97 679.999 1061.03 684.605 Q1064.11 689.189 1064.11 697.939 Q1064.11 706.665 1061.03 711.272 Q1057.97 715.855 1052.16 715.855 Q1046.35 715.855 1043.27 711.272 Q1040.22 706.665 1040.22 697.939 Q1040.22 689.189 1043.27 684.605 Q1046.35 679.999 1052.16 679.999 Z" fill="#000000" fill-rule="evenodd" fill-opacity="1" /><path clip-path="url(#clip790)" d="M1082.32 683.703 Q1078.71 683.703 1076.88 687.267 Q1075.08 690.809 1075.08 697.939 Q1075.08 705.045 1076.88 708.61 Q1078.71 712.151 1082.32 712.151 Q1085.96 712.151 1087.76 708.61 Q1089.59 705.045 1089.59 697.939 Q1089.59 690.809 1087.76 687.267 Q1085.96 683.703 1082.32 683.703 M1082.32 679.999 Q1088.13 679.999 1091.19 684.605 Q1094.27 689.189 1094.27 697.939 Q1094.27 706.665 1091.19 711.272 Q1088.13 715.855 1082.32 715.855 Q1076.51 715.855 1073.43 711.272 Q1070.38 706.665 1070.38 697.939 Q1070.38 689.189 1073.43 684.605 Q1076.51 679.999 1082.32 679.999 Z" fill="#000000" fill-rule="evenodd" fill-opacity="1" /><polyline clip-path="url(#clip792)" style="stroke:#000000; stroke-linecap:round; stroke-linejoin:round; stroke-width:2; stroke-opacity:0.1; fill:none" points="
  210.623,655.7 1104.76,655.7 
  "/>
<polyline clip-path="url(#clip792)" style="stroke:#000000; stroke-linecap:round; stroke-linejoin:round; stroke-width:2; stroke-opacity:0.1; fill:none" points="
  210.623,517.769 1104.76,517.769 
  "/>
<polyline clip-path="url(#clip792)" style="stroke:#000000; stroke-linecap:round; stroke-linejoin:round; stroke-width:2; stroke-opacity:0.1; fill:none" points="
  210.623,379.839 1104.76,379.839 
  "/>
<polyline clip-path="url(#clip792)" style="stroke:#000000; stroke-linecap:round; stroke-linejoin:round; stroke-width:2; stroke-opacity:0.1; fill:none" points="
  210.623,241.908 1104.76,241.908 
  "/>
<polyline clip-path="url(#clip792)" style="stroke:#000000; stroke-linecap:round; stroke-linejoin:round; stroke-width:2; stroke-opacity:0.1; fill:none" points="
  210.623,103.977 1104.76,103.977 
  "/>
<polyline clip-path="url(#clip790)" style="stroke:#000000; stroke-linecap:round; stroke-linejoin:round; stroke-width:4; stroke-opacity:1; fill:none" points="
  210.623,662.768 210.623,47.2441 
  "/>
<polyline clip-path="url(#clip790)" style="stroke:#000000; stroke-linecap:round; stroke-linejoin:round; stroke-width:4; stroke-opacity:1; fill:none" points="
  210.623,655.7 229.52,655.7 
  "/>
<polyline clip-path="url(#clip790)" style="stroke:#000000; stroke-linecap:round; stroke-linejoin:round; stroke-width:4; stroke-opacity:1; fill:none" points="
  210.623,517.769 229.52,517.769 
  "/>
<polyline clip-path="url(#clip790)" style="stroke:#000000; stroke-linecap:round; stroke-linejoin:round; stroke-width:4; stroke-opacity:1; fill:none" points="
  210.623,379.839 229.52,379.839 
  "/>
<polyline clip-path="url(#clip790)" style="stroke:#000000; stroke-linecap:round; stroke-linejoin:round; stroke-width:4; stroke-opacity:1; fill:none" points="
  210.623,241.908 229.52,241.908 
  "/>
<polyline clip-path="url(#clip790)" style="stroke:#000000; stroke-linecap:round; stroke-linejoin:round; stroke-width:4; stroke-opacity:1; fill:none" points="
  210.623,103.977 229.52,103.977 
  "/>
<path clip-path="url(#clip790)" d="M57.2321 656.151 L86.9079 656.151 L86.9079 660.086 L57.2321 660.086 L57.2321 656.151 Z" fill="#000000" fill-rule="evenodd" fill-opacity="1" /><path clip-path="url(#clip790)" d="M107 641.498 Q103.389 641.498 101.561 645.063 Q99.755 648.605 99.755 655.734 Q99.755 662.841 101.561 666.406 Q103.389 669.947 107 669.947 Q110.635 669.947 112.44 666.406 Q114.269 662.841 114.269 655.734 Q114.269 648.605 112.44 645.063 Q110.635 641.498 107 641.498 M107 637.795 Q112.811 637.795 115.866 642.401 Q118.945 646.985 118.945 655.734 Q118.945 664.461 115.866 669.068 Q112.811 673.651 107 673.651 Q101.19 673.651 98.1115 669.068 Q95.056 664.461 95.056 655.734 Q95.056 646.985 98.1115 642.401 Q101.19 637.795 107 637.795 Z" fill="#000000" fill-rule="evenodd" fill-opacity="1" /><path clip-path="url(#clip790)" d="M127.162 667.1 L132.047 667.1 L132.047 672.98 L127.162 672.98 L127.162 667.1 Z" fill="#000000" fill-rule="evenodd" fill-opacity="1" /><path clip-path="url(#clip790)" d="M146.259 669.045 L162.579 669.045 L162.579 672.98 L140.634 672.98 L140.634 669.045 Q143.296 666.29 147.88 661.66 Q152.486 657.008 153.667 655.665 Q155.912 653.142 156.792 651.406 Q157.695 649.647 157.695 647.957 Q157.695 645.202 155.75 643.466 Q153.829 641.73 150.727 641.73 Q148.528 641.73 146.074 642.494 Q143.644 643.258 140.866 644.809 L140.866 640.086 Q143.69 638.952 146.144 638.373 Q148.597 637.795 150.634 637.795 Q156.005 637.795 159.199 640.48 Q162.394 643.165 162.394 647.656 Q162.394 649.785 161.583 651.707 Q160.796 653.605 158.69 656.197 Q158.111 656.869 155.009 660.086 Q151.908 663.281 146.259 669.045 Z" fill="#000000" fill-rule="evenodd" fill-opacity="1" /><path clip-path="url(#clip790)" d="M172.44 638.42 L190.796 638.42 L190.796 642.355 L176.722 642.355 L176.722 650.827 Q177.741 650.48 178.759 650.318 Q179.778 650.133 180.796 650.133 Q186.583 650.133 189.963 653.304 Q193.343 656.475 193.343 661.892 Q193.343 667.471 189.87 670.572 Q186.398 673.651 180.079 673.651 Q177.903 673.651 175.634 673.281 Q173.389 672.91 170.982 672.17 L170.982 667.471 Q173.065 668.605 175.287 669.16 Q177.509 669.716 179.986 669.716 Q183.991 669.716 186.329 667.609 Q188.667 665.503 188.667 661.892 Q188.667 658.281 186.329 656.174 Q183.991 654.068 179.986 654.068 Q178.111 654.068 176.236 654.484 Q174.384 654.901 172.44 655.781 L172.44 638.42 Z" fill="#000000" fill-rule="evenodd" fill-opacity="1" /><path clip-path="url(#clip790)" d="M106.005 503.568 Q102.394 503.568 100.565 507.133 Q98.7597 510.674 98.7597 517.804 Q98.7597 524.91 100.565 528.475 Q102.394 532.017 106.005 532.017 Q109.639 532.017 111.445 528.475 Q113.273 524.91 113.273 517.804 Q113.273 510.674 111.445 507.133 Q109.639 503.568 106.005 503.568 M106.005 499.864 Q111.815 499.864 114.871 504.471 Q117.949 509.054 117.949 517.804 Q117.949 526.531 114.871 531.137 Q111.815 535.72 106.005 535.72 Q100.195 535.72 97.1162 531.137 Q94.0606 526.531 94.0606 517.804 Q94.0606 509.054 97.1162 504.471 Q100.195 499.864 106.005 499.864 Z" fill="#000000" fill-rule="evenodd" fill-opacity="1" /><path clip-path="url(#clip790)" d="M126.167 529.17 L131.051 529.17 L131.051 535.049 L126.167 535.049 L126.167 529.17 Z" fill="#000000" fill-rule="evenodd" fill-opacity="1" /><path clip-path="url(#clip790)" d="M151.236 503.568 Q147.625 503.568 145.796 507.133 Q143.991 510.674 143.991 517.804 Q143.991 524.91 145.796 528.475 Q147.625 532.017 151.236 532.017 Q154.87 532.017 156.676 528.475 Q158.505 524.91 158.505 517.804 Q158.505 510.674 156.676 507.133 Q154.87 503.568 151.236 503.568 M151.236 499.864 Q157.046 499.864 160.102 504.471 Q163.181 509.054 163.181 517.804 Q163.181 526.531 160.102 531.137 Q157.046 535.72 151.236 535.72 Q145.426 535.72 142.347 531.137 Q139.292 526.531 139.292 517.804 Q139.292 509.054 142.347 504.471 Q145.426 499.864 151.236 499.864 Z" fill="#000000" fill-rule="evenodd" fill-opacity="1" /><path clip-path="url(#clip790)" d="M181.398 503.568 Q177.787 503.568 175.958 507.133 Q174.153 510.674 174.153 517.804 Q174.153 524.91 175.958 528.475 Q177.787 532.017 181.398 532.017 Q185.032 532.017 186.838 528.475 Q188.667 524.91 188.667 517.804 Q188.667 510.674 186.838 507.133 Q185.032 503.568 181.398 503.568 M181.398 499.864 Q187.208 499.864 190.264 504.471 Q193.343 509.054 193.343 517.804 Q193.343 526.531 190.264 531.137 Q187.208 535.72 181.398 535.72 Q175.588 535.72 172.509 531.137 Q169.454 526.531 169.454 517.804 Q169.454 509.054 172.509 504.471 Q175.588 499.864 181.398 499.864 Z" fill="#000000" fill-rule="evenodd" fill-opacity="1" /><path clip-path="url(#clip790)" d="M107 365.637 Q103.389 365.637 101.561 369.202 Q99.755 372.744 99.755 379.873 Q99.755 386.98 101.561 390.544 Q103.389 394.086 107 394.086 Q110.635 394.086 112.44 390.544 Q114.269 386.98 114.269 379.873 Q114.269 372.744 112.44 369.202 Q110.635 365.637 107 365.637 M107 361.934 Q112.811 361.934 115.866 366.54 Q118.945 371.123 118.945 379.873 Q118.945 388.6 115.866 393.207 Q112.811 397.79 107 397.79 Q101.19 397.79 98.1115 393.207 Q95.056 388.6 95.056 379.873 Q95.056 371.123 98.1115 366.54 Q101.19 361.934 107 361.934 Z" fill="#000000" fill-rule="evenodd" fill-opacity="1" /><path clip-path="url(#clip790)" d="M127.162 391.239 L132.047 391.239 L132.047 397.119 L127.162 397.119 L127.162 391.239 Z" fill="#000000" fill-rule="evenodd" fill-opacity="1" /><path clip-path="url(#clip790)" d="M146.259 393.183 L162.579 393.183 L162.579 397.119 L140.634 397.119 L140.634 393.183 Q143.296 390.429 147.88 385.799 Q152.486 381.146 153.667 379.804 Q155.912 377.281 156.792 375.545 Q157.695 373.785 157.695 372.096 Q157.695 369.341 155.75 367.605 Q153.829 365.869 150.727 365.869 Q148.528 365.869 146.074 366.633 Q143.644 367.396 140.866 368.947 L140.866 364.225 Q143.69 363.091 146.144 362.512 Q148.597 361.934 150.634 361.934 Q156.005 361.934 159.199 364.619 Q162.394 367.304 162.394 371.795 Q162.394 373.924 161.583 375.845 Q160.796 377.744 158.69 380.336 Q158.111 381.007 155.009 384.225 Q151.908 387.419 146.259 393.183 Z" fill="#000000" fill-rule="evenodd" fill-opacity="1" /><path clip-path="url(#clip790)" d="M172.44 362.559 L190.796 362.559 L190.796 366.494 L176.722 366.494 L176.722 374.966 Q177.741 374.619 178.759 374.457 Q179.778 374.271 180.796 374.271 Q186.583 374.271 189.963 377.443 Q193.343 380.614 193.343 386.031 Q193.343 391.609 189.87 394.711 Q186.398 397.79 180.079 397.79 Q177.903 397.79 175.634 397.419 Q173.389 397.049 170.982 396.308 L170.982 391.609 Q173.065 392.744 175.287 393.299 Q177.509 393.855 179.986 393.855 Q183.991 393.855 186.329 391.748 Q188.667 389.642 188.667 386.031 Q188.667 382.42 186.329 380.313 Q183.991 378.207 179.986 378.207 Q178.111 378.207 176.236 378.623 Q174.384 379.04 172.44 379.92 L172.44 362.559 Z" fill="#000000" fill-rule="evenodd" fill-opacity="1" /><path clip-path="url(#clip790)" d="M106.005 227.707 Q102.394 227.707 100.565 231.271 Q98.7597 234.813 98.7597 241.943 Q98.7597 249.049 100.565 252.614 Q102.394 256.156 106.005 256.156 Q109.639 256.156 111.445 252.614 Q113.273 249.049 113.273 241.943 Q113.273 234.813 111.445 231.271 Q109.639 227.707 106.005 227.707 M106.005 224.003 Q111.815 224.003 114.871 228.609 Q117.949 233.193 117.949 241.943 Q117.949 250.669 114.871 255.276 Q111.815 259.859 106.005 259.859 Q100.195 259.859 97.1162 255.276 Q94.0606 250.669 94.0606 241.943 Q94.0606 233.193 97.1162 228.609 Q100.195 224.003 106.005 224.003 Z" fill="#000000" fill-rule="evenodd" fill-opacity="1" /><path clip-path="url(#clip790)" d="M126.167 253.308 L131.051 253.308 L131.051 259.188 L126.167 259.188 L126.167 253.308 Z" fill="#000000" fill-rule="evenodd" fill-opacity="1" /><path clip-path="url(#clip790)" d="M141.283 224.628 L159.639 224.628 L159.639 228.563 L145.565 228.563 L145.565 237.035 Q146.583 236.688 147.602 236.526 Q148.621 236.341 149.639 236.341 Q155.426 236.341 158.806 239.512 Q162.185 242.683 162.185 248.1 Q162.185 253.679 158.713 256.781 Q155.241 259.859 148.921 259.859 Q146.746 259.859 144.477 259.489 Q142.232 259.118 139.824 258.378 L139.824 253.679 Q141.908 254.813 144.13 255.368 Q146.352 255.924 148.829 255.924 Q152.833 255.924 155.171 253.818 Q157.509 251.711 157.509 248.1 Q157.509 244.489 155.171 242.382 Q152.833 240.276 148.829 240.276 Q146.954 240.276 145.079 240.693 Q143.227 241.109 141.283 241.989 L141.283 224.628 Z" fill="#000000" fill-rule="evenodd" fill-opacity="1" /><path clip-path="url(#clip790)" d="M181.398 227.707 Q177.787 227.707 175.958 231.271 Q174.153 234.813 174.153 241.943 Q174.153 249.049 175.958 252.614 Q177.787 256.156 181.398 256.156 Q185.032 256.156 186.838 252.614 Q188.667 249.049 188.667 241.943 Q188.667 234.813 186.838 231.271 Q185.032 227.707 181.398 227.707 M181.398 224.003 Q187.208 224.003 190.264 228.609 Q193.343 233.193 193.343 241.943 Q193.343 250.669 190.264 255.276 Q187.208 259.859 181.398 259.859 Q175.588 259.859 172.509 255.276 Q169.454 250.669 169.454 241.943 Q169.454 233.193 172.509 228.609 Q175.588 224.003 181.398 224.003 Z" fill="#000000" fill-rule="evenodd" fill-opacity="1" /><path clip-path="url(#clip790)" d="M107 89.776 Q103.389 89.776 101.561 93.3408 Q99.755 96.8824 99.755 104.012 Q99.755 111.118 101.561 114.683 Q103.389 118.225 107 118.225 Q110.635 118.225 112.44 114.683 Q114.269 111.118 114.269 104.012 Q114.269 96.8824 112.44 93.3408 Q110.635 89.776 107 89.776 M107 86.0723 Q112.811 86.0723 115.866 90.6788 Q118.945 95.2621 118.945 104.012 Q118.945 112.739 115.866 117.345 Q112.811 121.929 107 121.929 Q101.19 121.929 98.1115 117.345 Q95.056 112.739 95.056 104.012 Q95.056 95.2621 98.1115 90.6788 Q101.19 86.0723 107 86.0723 Z" fill="#000000" fill-rule="evenodd" fill-opacity="1" /><path clip-path="url(#clip790)" d="M127.162 115.378 L132.047 115.378 L132.047 121.257 L127.162 121.257 L127.162 115.378 Z" fill="#000000" fill-rule="evenodd" fill-opacity="1" /><path clip-path="url(#clip790)" d="M141.051 86.6973 L163.273 86.6973 L163.273 88.688 L150.727 121.257 L145.843 121.257 L157.648 90.6325 L141.051 90.6325 L141.051 86.6973 Z" fill="#000000" fill-rule="evenodd" fill-opacity="1" /><path clip-path="url(#clip790)" d="M172.44 86.6973 L190.796 86.6973 L190.796 90.6325 L176.722 90.6325 L176.722 99.1046 Q177.741 98.7574 178.759 98.5954 Q179.778 98.4102 180.796 98.4102 Q186.583 98.4102 189.963 101.581 Q193.343 104.753 193.343 110.169 Q193.343 115.748 189.87 118.85 Q186.398 121.929 180.079 121.929 Q177.903 121.929 175.634 121.558 Q173.389 121.188 170.982 120.447 L170.982 115.748 Q173.065 116.882 175.287 117.438 Q177.509 117.993 179.986 117.993 Q183.991 117.993 186.329 115.887 Q188.667 113.78 188.667 110.169 Q188.667 106.558 186.329 104.452 Q183.991 102.345 179.986 102.345 Q178.111 102.345 176.236 102.762 Q174.384 103.179 172.44 104.058 L172.44 86.6973 Z" fill="#000000" fill-rule="evenodd" fill-opacity="1" /><circle clip-path="url(#clip792)" cx="657.367" cy="497.2" r="14.4" fill="#009af9" fill-rule="evenodd" fill-opacity="1" stroke="#000000" stroke-opacity="1" stroke-width="1.536"/>
<circle clip-path="url(#clip792)" cx="746.499" cy="390.582" r="14.4" fill="#009af9" fill-rule="evenodd" fill-opacity="1" stroke="#000000" stroke-opacity="1" stroke-width="1.536"/>
<circle clip-path="url(#clip792)" cx="686.321" cy="64.6646" r="14.4" fill="#009af9" fill-rule="evenodd" fill-opacity="1" stroke="#000000" stroke-opacity="1" stroke-width="1.536"/>
<circle clip-path="url(#clip792)" cx="1025.51" cy="272.397" r="14.4" fill="#009af9" fill-rule="evenodd" fill-opacity="1" stroke="#000000" stroke-opacity="1" stroke-width="1.536"/>
<circle clip-path="url(#clip792)" cx="735.007" cy="365.09" r="14.4" fill="#009af9" fill-rule="evenodd" fill-opacity="1" stroke="#000000" stroke-opacity="1" stroke-width="1.536"/>
<circle clip-path="url(#clip792)" cx="1079.45" cy="331.684" r="14.4" fill="#009af9" fill-rule="evenodd" fill-opacity="1" stroke="#000000" stroke-opacity="1" stroke-width="1.536"/>
<circle clip-path="url(#clip792)" cx="641.776" cy="202.239" r="14.4" fill="#009af9" fill-rule="evenodd" fill-opacity="1" stroke="#000000" stroke-opacity="1" stroke-width="1.536"/>
<circle clip-path="url(#clip792)" cx="509.859" cy="562.465" r="14.4" fill="#009af9" fill-rule="evenodd" fill-opacity="1" stroke="#000000" stroke-opacity="1" stroke-width="1.536"/>
<circle clip-path="url(#clip792)" cx="777.496" cy="515.212" r="14.4" fill="#009af9" fill-rule="evenodd" fill-opacity="1" stroke="#000000" stroke-opacity="1" stroke-width="1.536"/>
<circle clip-path="url(#clip792)" cx="817.999" cy="333.348" r="14.4" fill="#009af9" fill-rule="evenodd" fill-opacity="1" stroke="#000000" stroke-opacity="1" stroke-width="1.536"/>
<circle clip-path="url(#clip792)" cx="459.763" cy="415.436" r="14.4" fill="#009af9" fill-rule="evenodd" fill-opacity="1" stroke="#000000" stroke-opacity="1" stroke-width="1.536"/>
<circle clip-path="url(#clip792)" cx="826.004" cy="431.331" r="14.4" fill="#009af9" fill-rule="evenodd" fill-opacity="1" stroke="#000000" stroke-opacity="1" stroke-width="1.536"/>
<circle clip-path="url(#clip792)" cx="1019.1" cy="645.347" r="14.4" fill="#009af9" fill-rule="evenodd" fill-opacity="1" stroke="#000000" stroke-opacity="1" stroke-width="1.536"/>
<circle clip-path="url(#clip792)" cx="528.668" cy="505.367" r="14.4" fill="#009af9" fill-rule="evenodd" fill-opacity="1" stroke="#000000" stroke-opacity="1" stroke-width="1.536"/>
<circle clip-path="url(#clip792)" cx="808.175" cy="184.995" r="14.4" fill="#009af9" fill-rule="evenodd" fill-opacity="1" stroke="#000000" stroke-opacity="1" stroke-width="1.536"/>
<circle clip-path="url(#clip792)" cx="569.283" cy="170.083" r="14.4" fill="#009af9" fill-rule="evenodd" fill-opacity="1" stroke="#000000" stroke-opacity="1" stroke-width="1.536"/>
<circle clip-path="url(#clip792)" cx="922.26" cy="168.654" r="14.4" fill="#009af9" fill-rule="evenodd" fill-opacity="1" stroke="#000000" stroke-opacity="1" stroke-width="1.536"/>
<circle clip-path="url(#clip792)" cx="728.141" cy="424.313" r="14.4" fill="#009af9" fill-rule="evenodd" fill-opacity="1" stroke="#000000" stroke-opacity="1" stroke-width="1.536"/>
<circle clip-path="url(#clip792)" cx="604.52" cy="382.982" r="14.4" fill="#009af9" fill-rule="evenodd" fill-opacity="1" stroke="#000000" stroke-opacity="1" stroke-width="1.536"/>
<circle clip-path="url(#clip792)" cx="491.987" cy="386.864" r="14.4" fill="#009af9" fill-rule="evenodd" fill-opacity="1" stroke="#000000" stroke-opacity="1" stroke-width="1.536"/>
<circle clip-path="url(#clip792)" cx="811.961" cy="263.725" r="14.4" fill="#009af9" fill-rule="evenodd" fill-opacity="1" stroke="#000000" stroke-opacity="1" stroke-width="1.536"/>
<circle clip-path="url(#clip792)" cx="782.074" cy="424.89" r="14.4" fill="#009af9" fill-rule="evenodd" fill-opacity="1" stroke="#000000" stroke-opacity="1" stroke-width="1.536"/>
<circle clip-path="url(#clip792)" cx="235.928" cy="399.534" r="14.4" fill="#009af9" fill-rule="evenodd" fill-opacity="1" stroke="#000000" stroke-opacity="1" stroke-width="1.536"/>
<circle clip-path="url(#clip792)" cx="867.81" cy="167.829" r="14.4" fill="#009af9" fill-rule="evenodd" fill-opacity="1" stroke="#000000" stroke-opacity="1" stroke-width="1.536"/>
<circle clip-path="url(#clip792)" cx="1065.02" cy="272.045" r="14.4" fill="#009af9" fill-rule="evenodd" fill-opacity="1" stroke="#000000" stroke-opacity="1" stroke-width="1.536"/>
<circle clip-path="url(#clip792)" cx="901.472" cy="386.61" r="14.4" fill="#009af9" fill-rule="evenodd" fill-opacity="1" stroke="#000000" stroke-opacity="1" stroke-width="1.536"/>
<circle clip-path="url(#clip792)" cx="727.09" cy="108.707" r="14.4" fill="#009af9" fill-rule="evenodd" fill-opacity="1" stroke="#000000" stroke-opacity="1" stroke-width="1.536"/>
<circle clip-path="url(#clip792)" cx="959.477" cy="366.286" r="14.4" fill="#009af9" fill-rule="evenodd" fill-opacity="1" stroke="#000000" stroke-opacity="1" stroke-width="1.536"/>
<circle clip-path="url(#clip792)" cx="949.669" cy="406.31" r="14.4" fill="#009af9" fill-rule="evenodd" fill-opacity="1" stroke="#000000" stroke-opacity="1" stroke-width="1.536"/>
<circle clip-path="url(#clip792)" cx="807.802" cy="495.873" r="14.4" fill="#009af9" fill-rule="evenodd" fill-opacity="1" stroke="#000000" stroke-opacity="1" stroke-width="1.536"/>
<circle clip-path="url(#clip792)" cx="757.193" cy="482.198" r="14.4" fill="#009af9" fill-rule="evenodd" fill-opacity="1" stroke="#000000" stroke-opacity="1" stroke-width="1.536"/>
<circle clip-path="url(#clip792)" cx="843.233" cy="387.019" r="14.4" fill="#009af9" fill-rule="evenodd" fill-opacity="1" stroke="#000000" stroke-opacity="1" stroke-width="1.536"/>
<circle clip-path="url(#clip792)" cx="972.453" cy="401.611" r="14.4" fill="#009af9" fill-rule="evenodd" fill-opacity="1" stroke="#000000" stroke-opacity="1" stroke-width="1.536"/>
<circle clip-path="url(#clip792)" cx="550.413" cy="261.983" r="14.4" fill="#009af9" fill-rule="evenodd" fill-opacity="1" stroke="#000000" stroke-opacity="1" stroke-width="1.536"/>
<circle clip-path="url(#clip792)" cx="866.759" cy="359.862" r="14.4" fill="#009af9" fill-rule="evenodd" fill-opacity="1" stroke="#000000" stroke-opacity="1" stroke-width="1.536"/>
<circle clip-path="url(#clip792)" cx="800.186" cy="589.737" r="14.4" fill="#009af9" fill-rule="evenodd" fill-opacity="1" stroke="#000000" stroke-opacity="1" stroke-width="1.536"/>
<circle clip-path="url(#clip792)" cx="813.173" cy="507.998" r="14.4" fill="#009af9" fill-rule="evenodd" fill-opacity="1" stroke="#000000" stroke-opacity="1" stroke-width="1.536"/>
<circle clip-path="url(#clip792)" cx="321.269" cy="453.578" r="14.4" fill="#009af9" fill-rule="evenodd" fill-opacity="1" stroke="#000000" stroke-opacity="1" stroke-width="1.536"/>
<circle clip-path="url(#clip792)" cx="632.603" cy="299.15" r="14.4" fill="#009af9" fill-rule="evenodd" fill-opacity="1" stroke="#000000" stroke-opacity="1" stroke-width="1.536"/>
<circle clip-path="url(#clip792)" cx="883.999" cy="297.225" r="14.4" fill="#009af9" fill-rule="evenodd" fill-opacity="1" stroke="#000000" stroke-opacity="1" stroke-width="1.536"/>
<circle clip-path="url(#clip792)" cx="611.223" cy="225.612" r="14.4" fill="#009af9" fill-rule="evenodd" fill-opacity="1" stroke="#000000" stroke-opacity="1" stroke-width="1.536"/>
<circle clip-path="url(#clip792)" cx="558.995" cy="319.206" r="14.4" fill="#009af9" fill-rule="evenodd" fill-opacity="1" stroke="#000000" stroke-opacity="1" stroke-width="1.536"/>
<circle clip-path="url(#clip792)" cx="564.41" cy="482.076" r="14.4" fill="#009af9" fill-rule="evenodd" fill-opacity="1" stroke="#000000" stroke-opacity="1" stroke-width="1.536"/>
<circle clip-path="url(#clip792)" cx="743.207" cy="186.644" r="14.4" fill="#009af9" fill-rule="evenodd" fill-opacity="1" stroke="#000000" stroke-opacity="1" stroke-width="1.536"/>
<circle clip-path="url(#clip792)" cx="973.322" cy="431.551" r="14.4" fill="#009af9" fill-rule="evenodd" fill-opacity="1" stroke="#000000" stroke-opacity="1" stroke-width="1.536"/>
<circle clip-path="url(#clip792)" cx="734.817" cy="571.398" r="14.4" fill="#009af9" fill-rule="evenodd" fill-opacity="1" stroke="#000000" stroke-opacity="1" stroke-width="1.536"/>
<circle clip-path="url(#clip792)" cx="642.797" cy="574.491" r="14.4" fill="#009af9" fill-rule="evenodd" fill-opacity="1" stroke="#000000" stroke-opacity="1" stroke-width="1.536"/>
<circle clip-path="url(#clip792)" cx="922.02" cy="427.553" r="14.4" fill="#009af9" fill-rule="evenodd" fill-opacity="1" stroke="#000000" stroke-opacity="1" stroke-width="1.536"/>
<circle clip-path="url(#clip792)" cx="563.609" cy="229.136" r="14.4" fill="#009af9" fill-rule="evenodd" fill-opacity="1" stroke="#000000" stroke-opacity="1" stroke-width="1.536"/>
<circle clip-path="url(#clip792)" cx="722.42" cy="638.621" r="14.4" fill="#009af9" fill-rule="evenodd" fill-opacity="1" stroke="#000000" stroke-opacity="1" stroke-width="1.536"/>
<polyline clip-path="url(#clip792)" style="stroke:#e26f46; stroke-linecap:round; stroke-linejoin:round; stroke-width:4; stroke-opacity:1; fill:none" points="
  235.928,482.049 241.42,480.964 292.199,470.936 322.716,464.91 348.517,459.814 376.544,454.28 402.383,449.177 430.085,443.706 462.18,437.368 490.703,431.735 
  515.715,426.796 542.984,421.411 570.415,415.993 600.745,410.004 629.602,404.305 659.607,398.38 684.865,393.392 715.701,387.302 743.95,381.723 770.04,376.571 
  796.468,371.352 826.086,365.503 852.925,360.203 883.654,354.134 912.106,348.515 940.157,342.976 967.392,337.597 995.311,332.084 1025.9,326.043 1070.33,317.268 
  1079.45,315.468 
  "/>
<path clip-path="url(#clip790)" d="
M240.427 223.282 L382.271 223.282 L382.271 67.7616 L240.427 67.7616  Z
  " fill="#ffffff" fill-rule="evenodd" fill-opacity="1"/>
<polyline clip-path="url(#clip790)" style="stroke:#000000; stroke-linecap:round; stroke-linejoin:round; stroke-width:4; stroke-opacity:1; fill:none" points="
  240.427,223.282 382.271,223.282 382.271,67.7616 240.427,67.7616 240.427,223.282 
  "/>
<circle clip-path="url(#clip790)" cx="280.166" cy="119.602" r="23.04" fill="#009af9" fill-rule="evenodd" fill-opacity="1" stroke="#000000" stroke-opacity="1" stroke-width="2.4576"/>
<path clip-path="url(#clip790)" d="M333.748 139.289 Q331.942 143.919 330.229 145.331 Q328.517 146.743 325.646 146.743 L322.243 146.743 L322.243 143.178 L324.743 143.178 Q326.503 143.178 327.475 142.344 Q328.447 141.511 329.628 138.409 L330.392 136.465 L319.905 110.956 L324.419 110.956 L332.521 131.233 L340.623 110.956 L345.137 110.956 L333.748 139.289 Z" fill="#000000" fill-rule="evenodd" fill-opacity="1" /><path clip-path="url(#clip790)" d="M352.428 132.946 L360.067 132.946 L360.067 106.581 L351.757 108.247 L351.757 103.988 L360.021 102.322 L364.697 102.322 L364.697 132.946 L372.336 132.946 L372.336 136.882 L352.428 136.882 L352.428 132.946 Z" fill="#000000" fill-rule="evenodd" fill-opacity="1" /><polyline clip-path="url(#clip790)" style="stroke:#e26f46; stroke-linecap:round; stroke-linejoin:round; stroke-width:4; stroke-opacity:1; fill:none" points="
  250.362,171.442 309.971,171.442 
  "/>
<path clip-path="url(#clip790)" d="M333.748 191.129 Q331.942 195.759 330.229 197.171 Q328.517 198.583 325.646 198.583 L322.243 198.583 L322.243 195.018 L324.743 195.018 Q326.503 195.018 327.475 194.184 Q328.447 193.351 329.628 190.249 L330.392 188.305 L319.905 162.796 L324.419 162.796 L332.521 183.073 L340.623 162.796 L345.137 162.796 L333.748 191.129 Z" fill="#000000" fill-rule="evenodd" fill-opacity="1" /><path clip-path="url(#clip790)" d="M355.646 184.786 L371.965 184.786 L371.965 188.722 L350.021 188.722 L350.021 184.786 Q352.683 182.032 357.266 177.402 Q361.873 172.749 363.053 171.407 Q365.299 168.884 366.178 167.148 Q367.081 165.388 367.081 163.699 Q367.081 160.944 365.137 159.208 Q363.215 157.472 360.114 157.472 Q357.915 157.472 355.461 158.236 Q353.03 158.999 350.253 160.55 L350.253 155.828 Q353.077 154.694 355.53 154.115 Q357.984 153.537 360.021 153.537 Q365.391 153.537 368.586 156.222 Q371.78 158.907 371.78 163.398 Q371.78 165.527 370.97 167.449 Q370.183 169.347 368.077 171.939 Q367.498 172.611 364.396 175.828 Q361.294 179.023 355.646 184.786 Z" fill="#000000" fill-rule="evenodd" fill-opacity="1" /></svg>
