<?xml version="1.0" encoding="utf-8"?>
<svg xmlns="http://www.w3.org/2000/svg" xmlns:xlink="http://www.w3.org/1999/xlink" width="288" height="192" viewBox="0 0 1152 768">
<defs>
  <clipPath id="clip170">
    <rect x="0" y="0" width="1152" height="768"/>
  </clipPath>
</defs>
<path clip-path="url(#clip170)" d="
M0 768 L1152 768 L1152 0 L0 0  Z
  " fill="#ffffff" fill-rule="evenodd" fill-opacity="1"/>
<defs>
  <clipPath id="clip171">
    <rect x="230" y="0" width="807" height="768"/>
  </clipPath>
</defs>
<path clip-path="url(#clip170)" d="
M179.859 662.768 L1104.76 662.768 L1104.76 47.2441 L179.859 47.2441  Z
  " fill="#ffffff" fill-rule="evenodd" fill-opacity="1"/>
<defs>
  <clipPath id="clip172">
    <rect x="179" y="47" width="926" height="617"/>
  </clipPath>
</defs>
<polyline clip-path="url(#clip172)" style="stroke:#000000; stroke-linecap:round; stroke-linejoin:round; stroke-width:2; stroke-opacity:0.1; fill:none" points="
  283.184,662.768 283.184,47.2441 
  "/>
<polyline clip-path="url(#clip172)" style="stroke:#000000; stroke-linecap:round; stroke-linejoin:round; stroke-width:2; stroke-opacity:0.1; fill:none" points="
  417.922,662.768 417.922,47.2441 
  "/>
<polyline clip-path="url(#clip172)" style="stroke:#000000; stroke-linecap:round; stroke-linejoin:round; stroke-width:2; stroke-opacity:0.1; fill:none" points="
  552.66,662.768 552.66,47.2441 
  "/>
<polyline clip-path="url(#clip172)" style="stroke:#000000; stroke-linecap:round; stroke-linejoin:round; stroke-width:2; stroke-opacity:0.1; fill:none" points="
  687.398,662.768 687.398,47.2441 
  "/>
<polyline clip-path="url(#clip172)" style="stroke:#000000; stroke-linecap:round; stroke-linejoin:round; stroke-width:2; stroke-opacity:0.1; fill:none" points="
  822.137,662.768 822.137,47.2441 
  "/>
<polyline clip-path="url(#clip172)" style="stroke:#000000; stroke-linecap:round; stroke-linejoin:round; stroke-width:2; stroke-opacity:0.1; fill:none" points="
  956.875,662.768 956.875,47.2441 
  "/>
<polyline clip-path="url(#clip172)" style="stroke:#000000; stroke-linecap:round; stroke-linejoin:round; stroke-width:2; stroke-opacity:0.1; fill:none" points="
  1091.61,662.768 1091.61,47.2441 
  "/>
<polyline clip-path="url(#clip170)" style="stroke:#000000; stroke-linecap:round; stroke-linejoin:round; stroke-width:4; stroke-opacity:1; fill:none" points="
  179.859,662.768 1104.76,662.768 
  "/>
<polyline clip-path="url(#clip170)" style="stroke:#000000; stroke-linecap:round; stroke-linejoin:round; stroke-width:4; stroke-opacity:1; fill:none" points="
  283.184,662.768 283.184,643.87 
  "/>
<polyline clip-path="url(#clip170)" style="stroke:#000000; stroke-linecap:round; stroke-linejoin:round; stroke-width:4; stroke-opacity:1; fill:none" points="
  417.922,662.768 417.922,643.87 
  "/>
<polyline clip-path="url(#clip170)" style="stroke:#000000; stroke-linecap:round; stroke-linejoin:round; stroke-width:4; stroke-opacity:1; fill:none" points="
  552.66,662.768 552.66,643.87 
  "/>
<polyline clip-path="url(#clip170)" style="stroke:#000000; stroke-linecap:round; stroke-linejoin:round; stroke-width:4; stroke-opacity:1; fill:none" points="
  687.398,662.768 687.398,643.87 
  "/>
<polyline clip-path="url(#clip170)" style="stroke:#000000; stroke-linecap:round; stroke-linejoin:round; stroke-width:4; stroke-opacity:1; fill:none" points="
  822.137,662.768 822.137,643.87 
  "/>
<polyline clip-path="url(#clip170)" style="stroke:#000000; stroke-linecap:round; stroke-linejoin:round; stroke-width:4; stroke-opacity:1; fill:none" points="
  956.875,662.768 956.875,643.87 
  "/>
<polyline clip-path="url(#clip170)" style="stroke:#000000; stroke-linecap:round; stroke-linejoin:round; stroke-width:4; stroke-opacity:1; fill:none" points="
  1091.61,662.768 1091.61,643.87 
  "/>
<path clip-path="url(#clip170)" d="M245.985 683.703 Q242.374 683.703 240.545 687.267 Q238.74 690.809 238.74 697.939 Q238.74 705.045 240.545 708.61 Q242.374 712.151 245.985 712.151 Q249.619 712.151 251.425 708.61 Q253.253 705.045 253.253 697.939 Q253.253 690.809 251.425 687.267 Q249.619 683.703 245.985 683.703 M245.985 679.999 Q251.795 679.999 254.851 684.605 Q257.929 689.189 257.929 697.939 Q257.929 706.665 254.851 711.272 Q251.795 715.855 245.985 715.855 Q240.175 715.855 237.096 711.272 Q234.04 706.665 234.04 697.939 Q234.04 689.189 237.096 684.605 Q240.175 679.999 245.985 679.999 Z" fill="#000000" fill-rule="evenodd" fill-opacity="1" /><path clip-path="url(#clip170)" d="M266.147 709.304 L271.031 709.304 L271.031 715.184 L266.147 715.184 L266.147 709.304 Z" fill="#000000" fill-rule="evenodd" fill-opacity="1" /><path clip-path="url(#clip170)" d="M280.036 680.624 L302.258 680.624 L302.258 682.615 L289.711 715.184 L284.827 715.184 L296.633 684.559 L280.036 684.559 L280.036 680.624 Z" fill="#000000" fill-rule="evenodd" fill-opacity="1" /><path clip-path="url(#clip170)" d="M311.424 680.624 L329.781 680.624 L329.781 684.559 L315.707 684.559 L315.707 693.031 Q316.725 692.684 317.744 692.522 Q318.762 692.337 319.781 692.337 Q325.568 692.337 328.947 695.508 Q332.327 698.679 332.327 704.096 Q332.327 709.675 328.855 712.776 Q325.383 715.855 319.063 715.855 Q316.887 715.855 314.619 715.485 Q312.373 715.114 309.966 714.374 L309.966 709.675 Q312.049 710.809 314.272 711.364 Q316.494 711.92 318.971 711.92 Q322.975 711.92 325.313 709.814 Q327.651 707.707 327.651 704.096 Q327.651 700.485 325.313 698.378 Q322.975 696.272 318.971 696.272 Q317.096 696.272 315.221 696.689 Q313.369 697.105 311.424 697.985 L311.424 680.624 Z" fill="#000000" fill-rule="evenodd" fill-opacity="1" /><path clip-path="url(#clip170)" d="M369.994 711.249 L377.633 711.249 L377.633 684.883 L369.323 686.55 L369.323 682.291 L377.587 680.624 L382.262 680.624 L382.262 711.249 L389.901 711.249 L389.901 715.184 L369.994 715.184 L369.994 711.249 Z" fill="#000000" fill-rule="evenodd" fill-opacity="1" /><path clip-path="url(#clip170)" d="M399.346 709.304 L404.23 709.304 L404.23 715.184 L399.346 715.184 L399.346 709.304 Z" fill="#000000" fill-rule="evenodd" fill-opacity="1" /><path clip-path="url(#clip170)" d="M424.415 683.703 Q420.804 683.703 418.975 687.267 Q417.17 690.809 417.17 697.939 Q417.17 705.045 418.975 708.61 Q420.804 712.151 424.415 712.151 Q428.049 712.151 429.855 708.61 Q431.683 705.045 431.683 697.939 Q431.683 690.809 429.855 687.267 Q428.049 683.703 424.415 683.703 M424.415 679.999 Q430.225 679.999 433.281 684.605 Q436.359 689.189 436.359 697.939 Q436.359 706.665 433.281 711.272 Q430.225 715.855 424.415 715.855 Q418.605 715.855 415.526 711.272 Q412.471 706.665 412.471 697.939 Q412.471 689.189 415.526 684.605 Q418.605 679.999 424.415 679.999 Z" fill="#000000" fill-rule="evenodd" fill-opacity="1" /><path clip-path="url(#clip170)" d="M454.577 683.703 Q450.966 683.703 449.137 687.267 Q447.332 690.809 447.332 697.939 Q447.332 705.045 449.137 708.61 Q450.966 712.151 454.577 712.151 Q458.211 712.151 460.017 708.61 Q461.845 705.045 461.845 697.939 Q461.845 690.809 460.017 687.267 Q458.211 683.703 454.577 683.703 M454.577 679.999 Q460.387 679.999 463.443 684.605 Q466.521 689.189 466.521 697.939 Q466.521 706.665 463.443 711.272 Q460.387 715.855 454.577 715.855 Q448.767 715.855 445.688 711.272 Q442.632 706.665 442.632 697.939 Q442.632 689.189 445.688 684.605 Q448.767 679.999 454.577 679.999 Z" fill="#000000" fill-rule="evenodd" fill-opacity="1" /><path clip-path="url(#clip170)" d="M505.23 711.249 L512.869 711.249 L512.869 684.883 L504.559 686.55 L504.559 682.291 L512.822 680.624 L517.498 680.624 L517.498 711.249 L525.137 711.249 L525.137 715.184 L505.23 715.184 L505.23 711.249 Z" fill="#000000" fill-rule="evenodd" fill-opacity="1" /><path clip-path="url(#clip170)" d="M534.582 709.304 L539.466 709.304 L539.466 715.184 L534.582 715.184 L534.582 709.304 Z" fill="#000000" fill-rule="evenodd" fill-opacity="1" /><path clip-path="url(#clip170)" d="M553.679 711.249 L569.998 711.249 L569.998 715.184 L548.054 715.184 L548.054 711.249 Q550.716 708.494 555.299 703.864 Q559.906 699.212 561.086 697.869 Q563.331 695.346 564.211 693.61 Q565.114 691.851 565.114 690.161 Q565.114 687.406 563.169 685.67 Q561.248 683.934 558.146 683.934 Q555.947 683.934 553.494 684.698 Q551.063 685.462 548.285 687.013 L548.285 682.291 Q551.109 681.156 553.563 680.578 Q556.017 679.999 558.054 679.999 Q563.424 679.999 566.618 682.684 Q569.813 685.369 569.813 689.86 Q569.813 691.99 569.003 693.911 Q568.216 695.809 566.109 698.402 Q565.531 699.073 562.429 702.29 Q559.327 705.485 553.679 711.249 Z" fill="#000000" fill-rule="evenodd" fill-opacity="1" /><path clip-path="url(#clip170)" d="M579.859 680.624 L598.216 680.624 L598.216 684.559 L584.142 684.559 L584.142 693.031 Q585.16 692.684 586.179 692.522 Q587.197 692.337 588.216 692.337 Q594.003 692.337 597.382 695.508 Q600.762 698.679 600.762 704.096 Q600.762 709.675 597.29 712.776 Q593.817 715.855 587.498 715.855 Q585.322 715.855 583.054 715.485 Q580.808 715.114 578.401 714.374 L578.401 709.675 Q580.484 710.809 582.706 711.364 Q584.929 711.92 587.405 711.92 Q591.41 711.92 593.748 709.814 Q596.086 707.707 596.086 704.096 Q596.086 700.485 593.748 698.378 Q591.41 696.272 587.405 696.272 Q585.53 696.272 583.655 696.689 Q581.804 697.105 579.859 697.985 L579.859 680.624 Z" fill="#000000" fill-rule="evenodd" fill-opacity="1" /><path clip-path="url(#clip170)" d="M639.47 711.249 L647.109 711.249 L647.109 684.883 L638.799 686.55 L638.799 682.291 L647.063 680.624 L651.739 680.624 L651.739 711.249 L659.378 711.249 L659.378 715.184 L639.47 715.184 L639.47 711.249 Z" fill="#000000" fill-rule="evenodd" fill-opacity="1" /><path clip-path="url(#clip170)" d="M668.822 709.304 L673.706 709.304 L673.706 715.184 L668.822 715.184 L668.822 709.304 Z" fill="#000000" fill-rule="evenodd" fill-opacity="1" /><path clip-path="url(#clip170)" d="M683.938 680.624 L702.294 680.624 L702.294 684.559 L688.22 684.559 L688.22 693.031 Q689.239 692.684 690.257 692.522 Q691.276 692.337 692.294 692.337 Q698.081 692.337 701.461 695.508 Q704.84 698.679 704.84 704.096 Q704.84 709.675 701.368 712.776 Q697.896 715.855 691.577 715.855 Q689.401 715.855 687.132 715.485 Q684.887 715.114 682.479 714.374 L682.479 709.675 Q684.563 710.809 686.785 711.364 Q689.007 711.92 691.484 711.92 Q695.489 711.92 697.827 709.814 Q700.165 707.707 700.165 704.096 Q700.165 700.485 697.827 698.378 Q695.489 696.272 691.484 696.272 Q689.609 696.272 687.734 696.689 Q685.882 697.105 683.938 697.985 L683.938 680.624 Z" fill="#000000" fill-rule="evenodd" fill-opacity="1" /><path clip-path="url(#clip170)" d="M724.053 683.703 Q720.442 683.703 718.614 687.267 Q716.808 690.809 716.808 697.939 Q716.808 705.045 718.614 708.61 Q720.442 712.151 724.053 712.151 Q727.688 712.151 729.493 708.61 Q731.322 705.045 731.322 697.939 Q731.322 690.809 729.493 687.267 Q727.688 683.703 724.053 683.703 M724.053 679.999 Q729.863 679.999 732.919 684.605 Q735.998 689.189 735.998 697.939 Q735.998 706.665 732.919 711.272 Q729.863 715.855 724.053 715.855 Q718.243 715.855 715.164 711.272 Q712.109 706.665 712.109 697.939 Q712.109 689.189 715.164 684.605 Q718.243 679.999 724.053 679.999 Z" fill="#000000" fill-rule="evenodd" fill-opacity="1" /><path clip-path="url(#clip170)" d="M774.706 711.249 L782.345 711.249 L782.345 684.883 L774.035 686.55 L774.035 682.291 L782.299 680.624 L786.975 680.624 L786.975 711.249 L794.614 711.249 L794.614 715.184 L774.706 715.184 L774.706 711.249 Z" fill="#000000" fill-rule="evenodd" fill-opacity="1" /><path clip-path="url(#clip170)" d="M804.058 709.304 L808.942 709.304 L808.942 715.184 L804.058 715.184 L804.058 709.304 Z" fill="#000000" fill-rule="evenodd" fill-opacity="1" /><path clip-path="url(#clip170)" d="M817.947 680.624 L840.169 680.624 L840.169 682.615 L827.623 715.184 L822.738 715.184 L834.544 684.559 L817.947 684.559 L817.947 680.624 Z" fill="#000000" fill-rule="evenodd" fill-opacity="1" /><path clip-path="url(#clip170)" d="M849.336 680.624 L867.692 680.624 L867.692 684.559 L853.618 684.559 L853.618 693.031 Q854.636 692.684 855.655 692.522 Q856.674 692.337 857.692 692.337 Q863.479 692.337 866.859 695.508 Q870.238 698.679 870.238 704.096 Q870.238 709.675 866.766 712.776 Q863.294 715.855 856.974 715.855 Q854.799 715.855 852.53 715.485 Q850.285 715.114 847.877 714.374 L847.877 709.675 Q849.961 710.809 852.183 711.364 Q854.405 711.92 856.882 711.92 Q860.886 711.92 863.224 709.814 Q865.562 707.707 865.562 704.096 Q865.562 700.485 863.224 698.378 Q860.886 696.272 856.882 696.272 Q855.007 696.272 853.132 696.689 Q851.28 697.105 849.336 697.985 L849.336 680.624 Z" fill="#000000" fill-rule="evenodd" fill-opacity="1" /><path clip-path="url(#clip170)" d="M913.033 711.249 L929.352 711.249 L929.352 715.184 L907.408 715.184 L907.408 711.249 Q910.07 708.494 914.653 703.864 Q919.259 699.212 920.44 697.869 Q922.685 695.346 923.565 693.61 Q924.468 691.851 924.468 690.161 Q924.468 687.406 922.523 685.67 Q920.602 683.934 917.5 683.934 Q915.301 683.934 912.847 684.698 Q910.417 685.462 907.639 687.013 L907.639 682.291 Q910.463 681.156 912.917 680.578 Q915.37 679.999 917.407 679.999 Q922.778 679.999 925.972 682.684 Q929.167 685.369 929.167 689.86 Q929.167 691.99 928.357 693.911 Q927.569 695.809 925.463 698.402 Q924.884 699.073 921.782 702.29 Q918.681 705.485 913.033 711.249 Z" fill="#000000" fill-rule="evenodd" fill-opacity="1" /><path clip-path="url(#clip170)" d="M939.167 709.304 L944.051 709.304 L944.051 715.184 L939.167 715.184 L939.167 709.304 Z" fill="#000000" fill-rule="evenodd" fill-opacity="1" /><path clip-path="url(#clip170)" d="M964.236 683.703 Q960.625 683.703 958.796 687.267 Q956.991 690.809 956.991 697.939 Q956.991 705.045 958.796 708.61 Q960.625 712.151 964.236 712.151 Q967.87 712.151 969.676 708.61 Q971.504 705.045 971.504 697.939 Q971.504 690.809 969.676 687.267 Q967.87 683.703 964.236 683.703 M964.236 679.999 Q970.046 679.999 973.102 684.605 Q976.18 689.189 976.18 697.939 Q976.18 706.665 973.102 711.272 Q970.046 715.855 964.236 715.855 Q958.426 715.855 955.347 711.272 Q952.292 706.665 952.292 697.939 Q952.292 689.189 955.347 684.605 Q958.426 679.999 964.236 679.999 Z" fill="#000000" fill-rule="evenodd" fill-opacity="1" /><path clip-path="url(#clip170)" d="M994.398 683.703 Q990.787 683.703 988.958 687.267 Q987.152 690.809 987.152 697.939 Q987.152 705.045 988.958 708.61 Q990.787 712.151 994.398 712.151 Q998.032 712.151 999.838 708.61 Q1001.67 705.045 1001.67 697.939 Q1001.67 690.809 999.838 687.267 Q998.032 683.703 994.398 683.703 M994.398 679.999 Q1000.21 679.999 1003.26 684.605 Q1006.34 689.189 1006.34 697.939 Q1006.34 706.665 1003.26 711.272 Q1000.21 715.855 994.398 715.855 Q988.588 715.855 985.509 711.272 Q982.453 706.665 982.453 697.939 Q982.453 689.189 985.509 684.605 Q988.588 679.999 994.398 679.999 Z" fill="#000000" fill-rule="evenodd" fill-opacity="1" /><path clip-path="url(#clip170)" d="M1048.27 711.249 L1064.59 711.249 L1064.59 715.184 L1042.64 715.184 L1042.64 711.249 Q1045.31 708.494 1049.89 703.864 Q1054.5 699.212 1055.68 697.869 Q1057.92 695.346 1058.8 693.61 Q1059.7 691.851 1059.7 690.161 Q1059.7 687.406 1057.76 685.67 Q1055.84 683.934 1052.74 683.934 Q1050.54 683.934 1048.08 684.698 Q1045.65 685.462 1042.87 687.013 L1042.87 682.291 Q1045.7 681.156 1048.15 680.578 Q1050.61 679.999 1052.64 679.999 Q1058.01 679.999 1061.21 682.684 Q1064.4 685.369 1064.4 689.86 Q1064.4 691.99 1063.59 693.911 Q1062.81 695.809 1060.7 698.402 Q1060.12 699.073 1057.02 702.29 Q1053.92 705.485 1048.27 711.249 Z" fill="#000000" fill-rule="evenodd" fill-opacity="1" /><path clip-path="url(#clip170)" d="M1074.4 709.304 L1079.29 709.304 L1079.29 715.184 L1074.4 715.184 L1074.4 709.304 Z" fill="#000000" fill-rule="evenodd" fill-opacity="1" /><path clip-path="url(#clip170)" d="M1093.5 711.249 L1109.82 711.249 L1109.82 715.184 L1087.87 715.184 L1087.87 711.249 Q1090.54 708.494 1095.12 703.864 Q1099.73 699.212 1100.91 697.869 Q1103.15 695.346 1104.03 693.61 Q1104.93 691.851 1104.93 690.161 Q1104.93 687.406 1102.99 685.67 Q1101.07 683.934 1097.97 683.934 Q1095.77 683.934 1093.31 684.698 Q1090.88 685.462 1088.11 687.013 L1088.11 682.291 Q1090.93 681.156 1093.38 680.578 Q1095.84 679.999 1097.87 679.999 Q1103.24 679.999 1106.44 682.684 Q1109.63 685.369 1109.63 689.86 Q1109.63 691.99 1108.82 693.911 Q1108.04 695.809 1105.93 698.402 Q1105.35 699.073 1102.25 702.29 Q1099.15 705.485 1093.5 711.249 Z" fill="#000000" fill-rule="evenodd" fill-opacity="1" /><path clip-path="url(#clip170)" d="M1119.68 680.624 L1138.04 680.624 L1138.04 684.559 L1123.96 684.559 L1123.96 693.031 Q1124.98 692.684 1126 692.522 Q1127.02 692.337 1128.04 692.337 Q1133.82 692.337 1137.2 695.508 Q1140.58 698.679 1140.58 704.096 Q1140.58 709.675 1137.11 712.776 Q1133.64 715.855 1127.32 715.855 Q1125.14 715.855 1122.87 715.485 Q1120.63 715.114 1118.22 714.374 L1118.22 709.675 Q1120.31 710.809 1122.53 711.364 Q1124.75 711.92 1127.23 711.92 Q1131.23 711.92 1133.57 709.814 Q1135.91 707.707 1135.91 704.096 Q1135.91 700.485 1133.57 698.378 Q1131.23 696.272 1127.23 696.272 Q1125.35 696.272 1123.48 696.689 Q1121.62 697.105 1119.68 697.985 L1119.68 680.624 Z" fill="#000000" fill-rule="evenodd" fill-opacity="1" /><polyline clip-path="url(#clip172)" style="stroke:#000000; stroke-linecap:round; stroke-linejoin:round; stroke-width:2; stroke-opacity:0.1; fill:none" points="
  179.859,561.653 1104.76,561.653 
  "/>
<polyline clip-path="url(#clip172)" style="stroke:#000000; stroke-linecap:round; stroke-linejoin:round; stroke-width:2; stroke-opacity:0.1; fill:none" points="
  179.859,453.884 1104.76,453.884 
  "/>
<polyline clip-path="url(#clip172)" style="stroke:#000000; stroke-linecap:round; stroke-linejoin:round; stroke-width:2; stroke-opacity:0.1; fill:none" points="
  179.859,346.116 1104.76,346.116 
  "/>
<polyline clip-path="url(#clip172)" style="stroke:#000000; stroke-linecap:round; stroke-linejoin:round; stroke-width:2; stroke-opacity:0.1; fill:none" points="
  179.859,238.348 1104.76,238.348 
  "/>
<polyline clip-path="url(#clip172)" style="stroke:#000000; stroke-linecap:round; stroke-linejoin:round; stroke-width:2; stroke-opacity:0.1; fill:none" points="
  179.859,130.58 1104.76,130.58 
  "/>
<polyline clip-path="url(#clip170)" style="stroke:#000000; stroke-linecap:round; stroke-linejoin:round; stroke-width:4; stroke-opacity:1; fill:none" points="
  179.859,662.768 179.859,47.2441 
  "/>
<polyline clip-path="url(#clip170)" style="stroke:#000000; stroke-linecap:round; stroke-linejoin:round; stroke-width:4; stroke-opacity:1; fill:none" points="
  179.859,561.653 198.756,561.653 
  "/>
<polyline clip-path="url(#clip170)" style="stroke:#000000; stroke-linecap:round; stroke-linejoin:round; stroke-width:4; stroke-opacity:1; fill:none" points="
  179.859,453.884 198.756,453.884 
  "/>
<polyline clip-path="url(#clip170)" style="stroke:#000000; stroke-linecap:round; stroke-linejoin:round; stroke-width:4; stroke-opacity:1; fill:none" points="
  179.859,346.116 198.756,346.116 
  "/>
<polyline clip-path="url(#clip170)" style="stroke:#000000; stroke-linecap:round; stroke-linejoin:round; stroke-width:4; stroke-opacity:1; fill:none" points="
  179.859,238.348 198.756,238.348 
  "/>
<polyline clip-path="url(#clip170)" style="stroke:#000000; stroke-linecap:round; stroke-linejoin:round; stroke-width:4; stroke-opacity:1; fill:none" points="
  179.859,130.58 198.756,130.58 
  "/>
<path clip-path="url(#clip170)" d="M57.2321 562.104 L86.9079 562.104 L86.9079 566.039 L57.2321 566.039 L57.2321 562.104 Z" fill="#000000" fill-rule="evenodd" fill-opacity="1" /><path clip-path="url(#clip170)" d="M107 547.451 Q103.389 547.451 101.561 551.016 Q99.755 554.558 99.755 561.687 Q99.755 568.794 101.561 572.359 Q103.389 575.9 107 575.9 Q110.635 575.9 112.44 572.359 Q114.269 568.794 114.269 561.687 Q114.269 554.558 112.44 551.016 Q110.635 547.451 107 547.451 M107 543.748 Q112.811 543.748 115.866 548.354 Q118.945 552.937 118.945 561.687 Q118.945 570.414 115.866 575.021 Q112.811 579.604 107 579.604 Q101.19 579.604 98.1115 575.021 Q95.056 570.414 95.056 561.687 Q95.056 552.937 98.1115 548.354 Q101.19 543.748 107 543.748 Z" fill="#000000" fill-rule="evenodd" fill-opacity="1" /><path clip-path="url(#clip170)" d="M127.162 573.053 L132.047 573.053 L132.047 578.933 L127.162 578.933 L127.162 573.053 Z" fill="#000000" fill-rule="evenodd" fill-opacity="1" /><path clip-path="url(#clip170)" d="M146.259 574.997 L162.579 574.997 L162.579 578.933 L140.634 578.933 L140.634 574.997 Q143.296 572.243 147.88 567.613 Q152.486 562.96 153.667 561.618 Q155.912 559.095 156.792 557.359 Q157.695 555.599 157.695 553.91 Q157.695 551.155 155.75 549.419 Q153.829 547.683 150.727 547.683 Q148.528 547.683 146.074 548.447 Q143.644 549.211 140.866 550.761 L140.866 546.039 Q143.69 544.905 146.144 544.326 Q148.597 543.748 150.634 543.748 Q156.005 543.748 159.199 546.433 Q162.394 549.118 162.394 553.609 Q162.394 555.738 161.583 557.66 Q160.796 559.558 158.69 562.15 Q158.111 562.822 155.009 566.039 Q151.908 569.234 146.259 574.997 Z" fill="#000000" fill-rule="evenodd" fill-opacity="1" /><path clip-path="url(#clip170)" d="M105.403 439.683 Q101.792 439.683 99.9634 443.248 Q98.1578 446.79 98.1578 453.919 Q98.1578 461.026 99.9634 464.59 Q101.792 468.132 105.403 468.132 Q109.037 468.132 110.843 464.59 Q112.672 461.026 112.672 453.919 Q112.672 446.79 110.843 443.248 Q109.037 439.683 105.403 439.683 M105.403 435.979 Q111.213 435.979 114.269 440.586 Q117.348 445.169 117.348 453.919 Q117.348 462.646 114.269 467.252 Q111.213 471.836 105.403 471.836 Q99.593 471.836 96.5143 467.252 Q93.4588 462.646 93.4588 453.919 Q93.4588 445.169 96.5143 440.586 Q99.593 435.979 105.403 435.979 Z" fill="#000000" fill-rule="evenodd" fill-opacity="1" /><path clip-path="url(#clip170)" d="M125.565 465.285 L130.449 465.285 L130.449 471.164 L125.565 471.164 L125.565 465.285 Z" fill="#000000" fill-rule="evenodd" fill-opacity="1" /><path clip-path="url(#clip170)" d="M150.634 439.683 Q147.023 439.683 145.195 443.248 Q143.389 446.79 143.389 453.919 Q143.389 461.026 145.195 464.59 Q147.023 468.132 150.634 468.132 Q154.269 468.132 156.074 464.59 Q157.903 461.026 157.903 453.919 Q157.903 446.79 156.074 443.248 Q154.269 439.683 150.634 439.683 M150.634 435.979 Q156.445 435.979 159.5 440.586 Q162.579 445.169 162.579 453.919 Q162.579 462.646 159.5 467.252 Q156.445 471.836 150.634 471.836 Q144.824 471.836 141.746 467.252 Q138.69 462.646 138.69 453.919 Q138.69 445.169 141.746 440.586 Q144.824 435.979 150.634 435.979 Z" fill="#000000" fill-rule="evenodd" fill-opacity="1" /><path clip-path="url(#clip170)" d="M107 331.915 Q103.389 331.915 101.561 335.48 Q99.755 339.021 99.755 346.151 Q99.755 353.257 101.561 356.822 Q103.389 360.364 107 360.364 Q110.635 360.364 112.44 356.822 Q114.269 353.257 114.269 346.151 Q114.269 339.021 112.44 335.48 Q110.635 331.915 107 331.915 M107 328.211 Q112.811 328.211 115.866 332.818 Q118.945 337.401 118.945 346.151 Q118.945 354.878 115.866 359.484 Q112.811 364.068 107 364.068 Q101.19 364.068 98.1115 359.484 Q95.056 354.878 95.056 346.151 Q95.056 337.401 98.1115 332.818 Q101.19 328.211 107 328.211 Z" fill="#000000" fill-rule="evenodd" fill-opacity="1" /><path clip-path="url(#clip170)" d="M127.162 357.517 L132.047 357.517 L132.047 363.396 L127.162 363.396 L127.162 357.517 Z" fill="#000000" fill-rule="evenodd" fill-opacity="1" /><path clip-path="url(#clip170)" d="M146.259 359.461 L162.579 359.461 L162.579 363.396 L140.634 363.396 L140.634 359.461 Q143.296 356.707 147.88 352.077 Q152.486 347.424 153.667 346.082 Q155.912 343.558 156.792 341.822 Q157.695 340.063 157.695 338.373 Q157.695 335.619 155.75 333.883 Q153.829 332.146 150.727 332.146 Q148.528 332.146 146.074 332.91 Q143.644 333.674 140.866 335.225 L140.866 330.503 Q143.69 329.369 146.144 328.79 Q148.597 328.211 150.634 328.211 Q156.005 328.211 159.199 330.896 Q162.394 333.582 162.394 338.072 Q162.394 340.202 161.583 342.123 Q160.796 344.021 158.69 346.614 Q158.111 347.285 155.009 350.503 Q151.908 353.697 146.259 359.461 Z" fill="#000000" fill-rule="evenodd" fill-opacity="1" /><path clip-path="url(#clip170)" d="M104.917 224.147 Q101.306 224.147 99.4773 227.712 Q97.6717 231.253 97.6717 238.383 Q97.6717 245.489 99.4773 249.054 Q101.306 252.596 104.917 252.596 Q108.551 252.596 110.357 249.054 Q112.186 245.489 112.186 238.383 Q112.186 231.253 110.357 227.712 Q108.551 224.147 104.917 224.147 M104.917 220.443 Q110.727 220.443 113.783 225.05 Q116.861 229.633 116.861 238.383 Q116.861 247.11 113.783 251.716 Q110.727 256.299 104.917 256.299 Q99.1069 256.299 96.0282 251.716 Q92.9727 247.11 92.9727 238.383 Q92.9727 229.633 96.0282 225.05 Q99.1069 220.443 104.917 220.443 Z" fill="#000000" fill-rule="evenodd" fill-opacity="1" /><path clip-path="url(#clip170)" d="M125.079 249.749 L129.963 249.749 L129.963 255.628 L125.079 255.628 L125.079 249.749 Z" fill="#000000" fill-rule="evenodd" fill-opacity="1" /><path clip-path="url(#clip170)" d="M152.996 225.142 L141.19 243.591 L152.996 243.591 L152.996 225.142 M151.769 221.068 L157.648 221.068 L157.648 243.591 L162.579 243.591 L162.579 247.48 L157.648 247.48 L157.648 255.628 L152.996 255.628 L152.996 247.48 L137.394 247.48 L137.394 242.966 L151.769 221.068 Z" fill="#000000" fill-rule="evenodd" fill-opacity="1" /><path clip-path="url(#clip170)" d="M105.241 116.379 Q101.63 116.379 99.8013 119.944 Q97.9958 123.485 97.9958 130.615 Q97.9958 137.721 99.8013 141.286 Q101.63 144.828 105.241 144.828 Q108.875 144.828 110.681 141.286 Q112.51 137.721 112.51 130.615 Q112.51 123.485 110.681 119.944 Q108.875 116.379 105.241 116.379 M105.241 112.675 Q111.051 112.675 114.107 117.281 Q117.186 121.865 117.186 130.615 Q117.186 139.342 114.107 143.948 Q111.051 148.531 105.241 148.531 Q99.431 148.531 96.3523 143.948 Q93.2967 139.342 93.2967 130.615 Q93.2967 121.865 96.3523 117.281 Q99.431 112.675 105.241 112.675 Z" fill="#000000" fill-rule="evenodd" fill-opacity="1" /><path clip-path="url(#clip170)" d="M125.403 141.98 L130.287 141.98 L130.287 147.86 L125.403 147.86 L125.403 141.98 Z" fill="#000000" fill-rule="evenodd" fill-opacity="1" /><path clip-path="url(#clip170)" d="M151.051 128.717 Q147.903 128.717 146.051 130.869 Q144.222 133.022 144.222 136.772 Q144.222 140.499 146.051 142.675 Q147.903 144.828 151.051 144.828 Q154.199 144.828 156.028 142.675 Q157.88 140.499 157.88 136.772 Q157.88 133.022 156.028 130.869 Q154.199 128.717 151.051 128.717 M160.333 114.064 L160.333 118.323 Q158.574 117.49 156.769 117.05 Q154.986 116.61 153.227 116.61 Q148.597 116.61 146.144 119.735 Q143.713 122.86 143.366 129.18 Q144.732 127.166 146.792 126.101 Q148.852 125.013 151.329 125.013 Q156.537 125.013 159.546 128.184 Q162.579 131.332 162.579 136.772 Q162.579 142.096 159.431 145.314 Q156.283 148.531 151.051 148.531 Q145.056 148.531 141.884 143.948 Q138.713 139.342 138.713 130.615 Q138.713 122.42 142.602 117.559 Q146.491 112.675 153.042 112.675 Q154.801 112.675 156.583 113.022 Q158.389 113.369 160.333 114.064 Z" fill="#000000" fill-rule="evenodd" fill-opacity="1" /><circle clip-path="url(#clip172)" cx="640.506" cy="439.017" r="14.4" fill="#009af9" fill-rule="evenodd" fill-opacity="1" stroke="#000000" stroke-opacity="1" stroke-width="1.536"/>
<circle clip-path="url(#clip172)" cx="607.682" cy="396.559" r="14.4" fill="#009af9" fill-rule="evenodd" fill-opacity="1" stroke="#000000" stroke-opacity="1" stroke-width="1.536"/>
<circle clip-path="url(#clip172)" cx="466.67" cy="291.215" r="14.4" fill="#009af9" fill-rule="evenodd" fill-opacity="1" stroke="#000000" stroke-opacity="1" stroke-width="1.536"/>
<circle clip-path="url(#clip172)" cx="857.633" cy="317.77" r="14.4" fill="#009af9" fill-rule="evenodd" fill-opacity="1" stroke="#000000" stroke-opacity="1" stroke-width="1.536"/>
<circle clip-path="url(#clip172)" cx="344.668" cy="327.659" r="14.4" fill="#009af9" fill-rule="evenodd" fill-opacity="1" stroke="#000000" stroke-opacity="1" stroke-width="1.536"/>
<circle clip-path="url(#clip172)" cx="859.216" cy="298.832" r="14.4" fill="#009af9" fill-rule="evenodd" fill-opacity="1" stroke="#000000" stroke-opacity="1" stroke-width="1.536"/>
<circle clip-path="url(#clip172)" cx="687.122" cy="369.17" r="14.4" fill="#009af9" fill-rule="evenodd" fill-opacity="1" stroke="#000000" stroke-opacity="1" stroke-width="1.536"/>
<circle clip-path="url(#clip172)" cx="549.487" cy="129.22" r="14.4" fill="#009af9" fill-rule="evenodd" fill-opacity="1" stroke="#000000" stroke-opacity="1" stroke-width="1.536"/>
<circle clip-path="url(#clip172)" cx="759.946" cy="463.556" r="14.4" fill="#009af9" fill-rule="evenodd" fill-opacity="1" stroke="#000000" stroke-opacity="1" stroke-width="1.536"/>
<circle clip-path="url(#clip172)" cx="918.043" cy="246.349" r="14.4" fill="#009af9" fill-rule="evenodd" fill-opacity="1" stroke="#000000" stroke-opacity="1" stroke-width="1.536"/>
<circle clip-path="url(#clip172)" cx="914.682" cy="382.753" r="14.4" fill="#009af9" fill-rule="evenodd" fill-opacity="1" stroke="#000000" stroke-opacity="1" stroke-width="1.536"/>
<circle clip-path="url(#clip172)" cx="821.405" cy="645.347" r="14.4" fill="#009af9" fill-rule="evenodd" fill-opacity="1" stroke="#000000" stroke-opacity="1" stroke-width="1.536"/>
<circle clip-path="url(#clip172)" cx="480.327" cy="398.547" r="14.4" fill="#009af9" fill-rule="evenodd" fill-opacity="1" stroke="#000000" stroke-opacity="1" stroke-width="1.536"/>
<circle clip-path="url(#clip172)" cx="311.4" cy="550.8" r="14.4" fill="#009af9" fill-rule="evenodd" fill-opacity="1" stroke="#000000" stroke-opacity="1" stroke-width="1.536"/>
<circle clip-path="url(#clip172)" cx="672.815" cy="293.539" r="14.4" fill="#009af9" fill-rule="evenodd" fill-opacity="1" stroke="#000000" stroke-opacity="1" stroke-width="1.536"/>
<circle clip-path="url(#clip172)" cx="362.455" cy="332.406" r="14.4" fill="#009af9" fill-rule="evenodd" fill-opacity="1" stroke="#000000" stroke-opacity="1" stroke-width="1.536"/>
<circle clip-path="url(#clip172)" cx="500.503" cy="412.922" r="14.4" fill="#009af9" fill-rule="evenodd" fill-opacity="1" stroke="#000000" stroke-opacity="1" stroke-width="1.536"/>
<circle clip-path="url(#clip172)" cx="570.826" cy="168.407" r="14.4" fill="#009af9" fill-rule="evenodd" fill-opacity="1" stroke="#000000" stroke-opacity="1" stroke-width="1.536"/>
<circle clip-path="url(#clip172)" cx="797.467" cy="469.795" r="14.4" fill="#009af9" fill-rule="evenodd" fill-opacity="1" stroke="#000000" stroke-opacity="1" stroke-width="1.536"/>
<circle clip-path="url(#clip172)" cx="466.917" cy="269.167" r="14.4" fill="#009af9" fill-rule="evenodd" fill-opacity="1" stroke="#000000" stroke-opacity="1" stroke-width="1.536"/>
<circle clip-path="url(#clip172)" cx="655.795" cy="331.65" r="14.4" fill="#009af9" fill-rule="evenodd" fill-opacity="1" stroke="#000000" stroke-opacity="1" stroke-width="1.536"/>
<circle clip-path="url(#clip172)" cx="520.922" cy="223.424" r="14.4" fill="#009af9" fill-rule="evenodd" fill-opacity="1" stroke="#000000" stroke-opacity="1" stroke-width="1.536"/>
<circle clip-path="url(#clip172)" cx="445.339" cy="433.217" r="14.4" fill="#009af9" fill-rule="evenodd" fill-opacity="1" stroke="#000000" stroke-opacity="1" stroke-width="1.536"/>
<circle clip-path="url(#clip172)" cx="612.679" cy="306.396" r="14.4" fill="#009af9" fill-rule="evenodd" fill-opacity="1" stroke="#000000" stroke-opacity="1" stroke-width="1.536"/>
<circle clip-path="url(#clip172)" cx="1078.58" cy="118.373" r="14.4" fill="#009af9" fill-rule="evenodd" fill-opacity="1" stroke="#000000" stroke-opacity="1" stroke-width="1.536"/>
<circle clip-path="url(#clip172)" cx="776.229" cy="393.717" r="14.4" fill="#009af9" fill-rule="evenodd" fill-opacity="1" stroke="#000000" stroke-opacity="1" stroke-width="1.536"/>
<circle clip-path="url(#clip172)" cx="206.035" cy="133.303" r="14.4" fill="#009af9" fill-rule="evenodd" fill-opacity="1" stroke="#000000" stroke-opacity="1" stroke-width="1.536"/>
<circle clip-path="url(#clip172)" cx="518.561" cy="382.009" r="14.4" fill="#009af9" fill-rule="evenodd" fill-opacity="1" stroke="#000000" stroke-opacity="1" stroke-width="1.536"/>
<circle clip-path="url(#clip172)" cx="695.966" cy="503.138" r="14.4" fill="#009af9" fill-rule="evenodd" fill-opacity="1" stroke="#000000" stroke-opacity="1" stroke-width="1.536"/>
<circle clip-path="url(#clip172)" cx="958.2" cy="201.075" r="14.4" fill="#009af9" fill-rule="evenodd" fill-opacity="1" stroke="#000000" stroke-opacity="1" stroke-width="1.536"/>
<circle clip-path="url(#clip172)" cx="693.172" cy="449.512" r="14.4" fill="#009af9" fill-rule="evenodd" fill-opacity="1" stroke="#000000" stroke-opacity="1" stroke-width="1.536"/>
<circle clip-path="url(#clip172)" cx="810.106" cy="167.301" r="14.4" fill="#009af9" fill-rule="evenodd" fill-opacity="1" stroke="#000000" stroke-opacity="1" stroke-width="1.536"/>
<circle clip-path="url(#clip172)" cx="716.882" cy="266.879" r="14.4" fill="#009af9" fill-rule="evenodd" fill-opacity="1" stroke="#000000" stroke-opacity="1" stroke-width="1.536"/>
<circle clip-path="url(#clip172)" cx="929.309" cy="64.6646" r="14.4" fill="#009af9" fill-rule="evenodd" fill-opacity="1" stroke="#000000" stroke-opacity="1" stroke-width="1.536"/>
<circle clip-path="url(#clip172)" cx="657.678" cy="241.929" r="14.4" fill="#009af9" fill-rule="evenodd" fill-opacity="1" stroke="#000000" stroke-opacity="1" stroke-width="1.536"/>
<circle clip-path="url(#clip172)" cx="424.464" cy="290.236" r="14.4" fill="#009af9" fill-rule="evenodd" fill-opacity="1" stroke="#000000" stroke-opacity="1" stroke-width="1.536"/>
<circle clip-path="url(#clip172)" cx="420.638" cy="203.045" r="14.4" fill="#009af9" fill-rule="evenodd" fill-opacity="1" stroke="#000000" stroke-opacity="1" stroke-width="1.536"/>
<circle clip-path="url(#clip172)" cx="449.901" cy="489.971" r="14.4" fill="#009af9" fill-rule="evenodd" fill-opacity="1" stroke="#000000" stroke-opacity="1" stroke-width="1.536"/>
<circle clip-path="url(#clip172)" cx="788.272" cy="383.393" r="14.4" fill="#009af9" fill-rule="evenodd" fill-opacity="1" stroke="#000000" stroke-opacity="1" stroke-width="1.536"/>
<circle clip-path="url(#clip172)" cx="590.202" cy="339.174" r="14.4" fill="#009af9" fill-rule="evenodd" fill-opacity="1" stroke="#000000" stroke-opacity="1" stroke-width="1.536"/>
<circle clip-path="url(#clip172)" cx="729.754" cy="375.788" r="14.4" fill="#009af9" fill-rule="evenodd" fill-opacity="1" stroke="#000000" stroke-opacity="1" stroke-width="1.536"/>
<circle clip-path="url(#clip172)" cx="643.722" cy="176.885" r="14.4" fill="#009af9" fill-rule="evenodd" fill-opacity="1" stroke="#000000" stroke-opacity="1" stroke-width="1.536"/>
<circle clip-path="url(#clip172)" cx="499.581" cy="368.311" r="14.4" fill="#009af9" fill-rule="evenodd" fill-opacity="1" stroke="#000000" stroke-opacity="1" stroke-width="1.536"/>
<circle clip-path="url(#clip172)" cx="743.979" cy="74.4334" r="14.4" fill="#009af9" fill-rule="evenodd" fill-opacity="1" stroke="#000000" stroke-opacity="1" stroke-width="1.536"/>
<circle clip-path="url(#clip172)" cx="966.3" cy="395.335" r="14.4" fill="#009af9" fill-rule="evenodd" fill-opacity="1" stroke="#000000" stroke-opacity="1" stroke-width="1.536"/>
<circle clip-path="url(#clip172)" cx="558.62" cy="302.11" r="14.4" fill="#009af9" fill-rule="evenodd" fill-opacity="1" stroke="#000000" stroke-opacity="1" stroke-width="1.536"/>
<circle clip-path="url(#clip172)" cx="916.835" cy="397.059" r="14.4" fill="#009af9" fill-rule="evenodd" fill-opacity="1" stroke="#000000" stroke-opacity="1" stroke-width="1.536"/>
<circle clip-path="url(#clip172)" cx="816.058" cy="186.012" r="14.4" fill="#009af9" fill-rule="evenodd" fill-opacity="1" stroke="#000000" stroke-opacity="1" stroke-width="1.536"/>
<circle clip-path="url(#clip172)" cx="587.438" cy="380.3" r="14.4" fill="#009af9" fill-rule="evenodd" fill-opacity="1" stroke="#000000" stroke-opacity="1" stroke-width="1.536"/>
<circle clip-path="url(#clip172)" cx="472.437" cy="346.111" r="14.4" fill="#009af9" fill-rule="evenodd" fill-opacity="1" stroke="#000000" stroke-opacity="1" stroke-width="1.536"/>
<polyline clip-path="url(#clip172)" style="stroke:#e26f46; stroke-linecap:round; stroke-linejoin:round; stroke-width:4; stroke-opacity:1; fill:none" points="
  206.035,414.061 211.716,412.918 264.243,402.349 295.809,395.998 322.498,390.628 351.489,384.795 378.217,379.417 406.872,373.652 440.072,366.972 469.576,361.036 
  495.448,355.83 523.656,350.155 552.031,344.445 583.403,338.133 613.254,332.127 644.291,325.882 670.418,320.626 702.316,314.208 731.536,308.328 758.523,302.898 
  785.861,297.398 816.498,291.234 844.261,285.648 876.047,279.252 905.478,273.331 934.494,267.493 962.665,261.824 991.545,256.014 1023.19,249.647 1069.15,240.399 
  1078.58,238.502 
  "/>
<path clip-path="url(#clip170)" d="
M929.006 642.25 L1073.93 642.25 L1073.93 486.73 L929.006 486.73  Z
  " fill="#ffffff" fill-rule="evenodd" fill-opacity="1"/>
<polyline clip-path="url(#clip170)" style="stroke:#000000; stroke-linecap:round; stroke-linejoin:round; stroke-width:4; stroke-opacity:1; fill:none" points="
  929.006,642.25 1073.93,642.25 1073.93,486.73 929.006,486.73 929.006,642.25 
  "/>
<circle clip-path="url(#clip170)" cx="970.113" cy="538.57" r="23.04" fill="#009af9" fill-rule="evenodd" fill-opacity="1" stroke="#000000" stroke-opacity="1" stroke-width="2.4576"/>
<path clip-path="url(#clip170)" d="M1025.06 558.258 Q1023.26 562.887 1021.54 564.299 Q1019.83 565.711 1016.96 565.711 L1013.56 565.711 L1013.56 562.147 L1016.06 562.147 Q1017.82 562.147 1018.79 561.313 Q1019.76 560.48 1020.94 557.378 L1021.71 555.434 L1011.22 529.925 L1015.73 529.925 L1023.83 550.202 L1031.94 529.925 L1036.45 529.925 L1025.06 558.258 Z" fill="#000000" fill-rule="evenodd" fill-opacity="1" /><path clip-path="url(#clip170)" d="M1043.74 551.915 L1051.38 551.915 L1051.38 525.55 L1043.07 527.216 L1043.07 522.957 L1051.33 521.29 L1056.01 521.29 L1056.01 551.915 L1063.65 551.915 L1063.65 555.85 L1043.74 555.85 L1043.74 551.915 Z" fill="#000000" fill-rule="evenodd" fill-opacity="1" /><polyline clip-path="url(#clip170)" style="stroke:#e26f46; stroke-linecap:round; stroke-linejoin:round; stroke-width:4; stroke-opacity:1; fill:none" points="
  939.283,590.41 1000.94,590.41 
  "/>
<path clip-path="url(#clip170)" d="M1025.06 610.098 Q1023.26 614.727 1021.54 616.139 Q1019.83 617.551 1016.96 617.551 L1013.56 617.551 L1013.56 613.987 L1016.06 613.987 Q1017.82 613.987 1018.79 613.153 Q1019.76 612.32 1020.94 609.218 L1021.71 607.274 L1011.22 581.765 L1015.73 581.765 L1023.83 602.042 L1031.94 581.765 L1036.45 581.765 L1025.06 610.098 Z" fill="#000000" fill-rule="evenodd" fill-opacity="1" /><path clip-path="url(#clip170)" d="M1046.96 603.755 L1063.28 603.755 L1063.28 607.69 L1041.33 607.69 L1041.33 603.755 Q1044 601.001 1048.58 596.371 Q1053.19 591.718 1054.37 590.376 Q1056.61 587.853 1057.49 586.116 Q1058.39 584.357 1058.39 582.667 Q1058.39 579.913 1056.45 578.177 Q1054.53 576.441 1051.43 576.441 Q1049.23 576.441 1046.77 577.204 Q1044.34 577.968 1041.57 579.519 L1041.57 574.797 Q1044.39 573.663 1046.84 573.084 Q1049.3 572.505 1051.33 572.505 Q1056.7 572.505 1059.9 575.191 Q1063.09 577.876 1063.09 582.366 Q1063.09 584.496 1062.28 586.417 Q1061.5 588.316 1059.39 590.908 Q1058.81 591.579 1055.71 594.797 Q1052.61 597.991 1046.96 603.755 Z" fill="#000000" fill-rule="evenodd" fill-opacity="1" /></svg>
