<?xml version="1.0" encoding="utf-8"?>
<svg xmlns="http://www.w3.org/2000/svg" xmlns:xlink="http://www.w3.org/1999/xlink" width="672" height="480" viewBox="0 0 2688 1920">
<defs>
  <clipPath id="clip350">
    <rect x="0" y="0" width="2688" height="1920"/>
  </clipPath>
</defs>
<path clip-path="url(#clip350)" d="
M0 1920 L2688 1920 L2688 0 L0 0  Z
  " fill="#ffffff" fill-rule="evenodd" fill-opacity="1"/>
<defs>
  <clipPath id="clip351">
    <rect x="537" y="0" width="1883" height="1883"/>
  </clipPath>
</defs>
<path clip-path="url(#clip350)" d="
M225.983 1800.78 L2640.76 1800.78 L2640.76 47.2441 L225.983 47.2441  Z
  " fill="#ffffff" fill-rule="evenodd" fill-opacity="1"/>
<defs>
  <clipPath id="clip352">
    <rect x="225" y="47" width="2416" height="1755"/>
  </clipPath>
</defs>
<polyline clip-path="url(#clip352)" style="stroke:#000000; stroke-linecap:round; stroke-linejoin:round; stroke-width:2; stroke-opacity:0.1; fill:none" points="
  590.923,1800.78 590.923,47.2441 
  "/>
<polyline clip-path="url(#clip352)" style="stroke:#000000; stroke-linecap:round; stroke-linejoin:round; stroke-width:2; stroke-opacity:0.1; fill:none" points="
  1075.11,1800.78 1075.11,47.2441 
  "/>
<polyline clip-path="url(#clip352)" style="stroke:#000000; stroke-linecap:round; stroke-linejoin:round; stroke-width:2; stroke-opacity:0.1; fill:none" points="
  1559.29,1800.78 1559.29,47.2441 
  "/>
<polyline clip-path="url(#clip352)" style="stroke:#000000; stroke-linecap:round; stroke-linejoin:round; stroke-width:2; stroke-opacity:0.1; fill:none" points="
  2043.48,1800.78 2043.48,47.2441 
  "/>
<polyline clip-path="url(#clip352)" style="stroke:#000000; stroke-linecap:round; stroke-linejoin:round; stroke-width:2; stroke-opacity:0.1; fill:none" points="
  2527.66,1800.78 2527.66,47.2441 
  "/>
<polyline clip-path="url(#clip350)" style="stroke:#000000; stroke-linecap:round; stroke-linejoin:round; stroke-width:4; stroke-opacity:1; fill:none" points="
  225.983,1800.78 2640.76,1800.78 
  "/>
<polyline clip-path="url(#clip350)" style="stroke:#000000; stroke-linecap:round; stroke-linejoin:round; stroke-width:4; stroke-opacity:1; fill:none" points="
  590.923,1800.78 590.923,1781.88 
  "/>
<polyline clip-path="url(#clip350)" style="stroke:#000000; stroke-linecap:round; stroke-linejoin:round; stroke-width:4; stroke-opacity:1; fill:none" points="
  1075.11,1800.78 1075.11,1781.88 
  "/>
<polyline clip-path="url(#clip350)" style="stroke:#000000; stroke-linecap:round; stroke-linejoin:round; stroke-width:4; stroke-opacity:1; fill:none" points="
  1559.29,1800.78 1559.29,1781.88 
  "/>
<polyline clip-path="url(#clip350)" style="stroke:#000000; stroke-linecap:round; stroke-linejoin:round; stroke-width:4; stroke-opacity:1; fill:none" points="
  2043.48,1800.78 2043.48,1781.88 
  "/>
<polyline clip-path="url(#clip350)" style="stroke:#000000; stroke-linecap:round; stroke-linejoin:round; stroke-width:4; stroke-opacity:1; fill:none" points="
  2527.66,1800.78 2527.66,1781.88 
  "/>
<path clip-path="url(#clip350)" d="M542.995 1861.55 L550.633 1861.55 L550.633 1835.18 L542.323 1836.85 L542.323 1832.59 L550.587 1830.92 L555.263 1830.92 L555.263 1861.55 L562.902 1861.55 L562.902 1865.48 L542.995 1865.48 L542.995 1861.55 Z" fill="#000000" fill-rule="evenodd" fill-opacity="1" /><path clip-path="url(#clip350)" d="M572.346 1859.6 L577.231 1859.6 L577.231 1865.48 L572.346 1865.48 L572.346 1859.6 Z" fill="#000000" fill-rule="evenodd" fill-opacity="1" /><path clip-path="url(#clip350)" d="M597.416 1834 Q593.805 1834 591.976 1837.57 Q590.17 1841.11 590.17 1848.24 Q590.17 1855.34 591.976 1858.91 Q593.805 1862.45 597.416 1862.45 Q601.05 1862.45 602.855 1858.91 Q604.684 1855.34 604.684 1848.24 Q604.684 1841.11 602.855 1837.57 Q601.05 1834 597.416 1834 M597.416 1830.3 Q603.226 1830.3 606.281 1834.9 Q609.36 1839.49 609.36 1848.24 Q609.36 1856.96 606.281 1861.57 Q603.226 1866.15 597.416 1866.15 Q591.605 1866.15 588.527 1861.57 Q585.471 1856.96 585.471 1848.24 Q585.471 1839.49 588.527 1834.9 Q591.605 1830.3 597.416 1830.3 Z" fill="#000000" fill-rule="evenodd" fill-opacity="1" /><path clip-path="url(#clip350)" d="M627.577 1834 Q623.966 1834 622.138 1837.57 Q620.332 1841.11 620.332 1848.24 Q620.332 1855.34 622.138 1858.91 Q623.966 1862.45 627.577 1862.45 Q631.212 1862.45 633.017 1858.91 Q634.846 1855.34 634.846 1848.24 Q634.846 1841.11 633.017 1837.57 Q631.212 1834 627.577 1834 M627.577 1830.3 Q633.388 1830.3 636.443 1834.9 Q639.522 1839.49 639.522 1848.24 Q639.522 1856.96 636.443 1861.57 Q633.388 1866.15 627.577 1866.15 Q621.767 1866.15 618.689 1861.57 Q615.633 1856.96 615.633 1848.24 Q615.633 1839.49 618.689 1834.9 Q621.767 1830.3 627.577 1830.3 Z" fill="#000000" fill-rule="evenodd" fill-opacity="1" /><path clip-path="url(#clip350)" d="M1027.68 1861.55 L1035.32 1861.55 L1035.32 1835.18 L1027.01 1836.85 L1027.01 1832.59 L1035.27 1830.92 L1039.95 1830.92 L1039.95 1861.55 L1047.58 1861.55 L1047.58 1865.48 L1027.68 1865.48 L1027.68 1861.55 Z" fill="#000000" fill-rule="evenodd" fill-opacity="1" /><path clip-path="url(#clip350)" d="M1057.03 1859.6 L1061.91 1859.6 L1061.91 1865.48 L1057.03 1865.48 L1057.03 1859.6 Z" fill="#000000" fill-rule="evenodd" fill-opacity="1" /><path clip-path="url(#clip350)" d="M1076.13 1861.55 L1092.45 1861.55 L1092.45 1865.48 L1070.5 1865.48 L1070.5 1861.55 Q1073.16 1858.79 1077.75 1854.16 Q1082.35 1849.51 1083.53 1848.17 Q1085.78 1845.65 1086.66 1843.91 Q1087.56 1842.15 1087.56 1840.46 Q1087.56 1837.71 1085.62 1835.97 Q1083.7 1834.23 1080.59 1834.23 Q1078.39 1834.23 1075.94 1835 Q1073.51 1835.76 1070.73 1837.31 L1070.73 1832.59 Q1073.56 1831.46 1076.01 1830.88 Q1078.46 1830.3 1080.5 1830.3 Q1085.87 1830.3 1089.07 1832.98 Q1092.26 1835.67 1092.26 1840.16 Q1092.26 1842.29 1091.45 1844.21 Q1090.66 1846.11 1088.56 1848.7 Q1087.98 1849.37 1084.88 1852.59 Q1081.77 1855.78 1076.13 1861.55 Z" fill="#000000" fill-rule="evenodd" fill-opacity="1" /><path clip-path="url(#clip350)" d="M1102.31 1830.92 L1120.66 1830.92 L1120.66 1834.86 L1106.59 1834.86 L1106.59 1843.33 Q1107.61 1842.98 1108.63 1842.82 Q1109.64 1842.64 1110.66 1842.64 Q1116.45 1842.64 1119.83 1845.81 Q1123.21 1848.98 1123.21 1854.4 Q1123.21 1859.97 1119.74 1863.08 Q1116.26 1866.15 1109.95 1866.15 Q1107.77 1866.15 1105.5 1865.78 Q1103.26 1865.41 1100.85 1864.67 L1100.85 1859.97 Q1102.93 1861.11 1105.15 1861.66 Q1107.38 1862.22 1109.85 1862.22 Q1113.86 1862.22 1116.19 1860.11 Q1118.53 1858.01 1118.53 1854.4 Q1118.53 1850.78 1116.19 1848.68 Q1113.86 1846.57 1109.85 1846.57 Q1107.98 1846.57 1106.1 1846.99 Q1104.25 1847.4 1102.31 1848.28 L1102.31 1830.92 Z" fill="#000000" fill-rule="evenodd" fill-opacity="1" /><path clip-path="url(#clip350)" d="M1511.36 1861.55 L1519 1861.55 L1519 1835.18 L1510.69 1836.85 L1510.69 1832.59 L1518.96 1830.92 L1523.63 1830.92 L1523.63 1861.55 L1531.27 1861.55 L1531.27 1865.48 L1511.36 1865.48 L1511.36 1861.55 Z" fill="#000000" fill-rule="evenodd" fill-opacity="1" /><path clip-path="url(#clip350)" d="M1540.72 1859.6 L1545.6 1859.6 L1545.6 1865.48 L1540.72 1865.48 L1540.72 1859.6 Z" fill="#000000" fill-rule="evenodd" fill-opacity="1" /><path clip-path="url(#clip350)" d="M1555.83 1830.92 L1574.19 1830.92 L1574.19 1834.86 L1560.11 1834.86 L1560.11 1843.33 Q1561.13 1842.98 1562.15 1842.82 Q1563.17 1842.64 1564.19 1842.64 Q1569.97 1842.64 1573.35 1845.81 Q1576.73 1848.98 1576.73 1854.4 Q1576.73 1859.97 1573.26 1863.08 Q1569.79 1866.15 1563.47 1866.15 Q1561.29 1866.15 1559.03 1865.78 Q1556.78 1865.41 1554.37 1864.67 L1554.37 1859.97 Q1556.46 1861.11 1558.68 1861.66 Q1560.9 1862.22 1563.38 1862.22 Q1567.38 1862.22 1569.72 1860.11 Q1572.06 1858.01 1572.06 1854.4 Q1572.06 1850.78 1569.72 1848.68 Q1567.38 1846.57 1563.38 1846.57 Q1561.5 1846.57 1559.63 1846.99 Q1557.78 1847.4 1555.83 1848.28 L1555.83 1830.92 Z" fill="#000000" fill-rule="evenodd" fill-opacity="1" /><path clip-path="url(#clip350)" d="M1595.95 1834 Q1592.34 1834 1590.51 1837.57 Q1588.7 1841.11 1588.7 1848.24 Q1588.7 1855.34 1590.51 1858.91 Q1592.34 1862.45 1595.95 1862.45 Q1599.58 1862.45 1601.39 1858.91 Q1603.22 1855.34 1603.22 1848.24 Q1603.22 1841.11 1601.39 1837.57 Q1599.58 1834 1595.95 1834 M1595.95 1830.3 Q1601.76 1830.3 1604.81 1834.9 Q1607.89 1839.49 1607.89 1848.24 Q1607.89 1856.96 1604.81 1861.57 Q1601.76 1866.15 1595.95 1866.15 Q1590.14 1866.15 1587.06 1861.57 Q1584 1856.96 1584 1848.24 Q1584 1839.49 1587.06 1834.9 Q1590.14 1830.3 1595.95 1830.3 Z" fill="#000000" fill-rule="evenodd" fill-opacity="1" /><path clip-path="url(#clip350)" d="M1996.05 1861.55 L2003.69 1861.55 L2003.69 1835.18 L1995.37 1836.85 L1995.37 1832.59 L2003.64 1830.92 L2008.31 1830.92 L2008.31 1861.55 L2015.95 1861.55 L2015.95 1865.48 L1996.05 1865.48 L1996.05 1861.55 Z" fill="#000000" fill-rule="evenodd" fill-opacity="1" /><path clip-path="url(#clip350)" d="M2025.4 1859.6 L2030.28 1859.6 L2030.28 1865.48 L2025.4 1865.48 L2025.4 1859.6 Z" fill="#000000" fill-rule="evenodd" fill-opacity="1" /><path clip-path="url(#clip350)" d="M2039.29 1830.92 L2061.51 1830.92 L2061.51 1832.91 L2048.96 1865.48 L2044.08 1865.48 L2055.88 1834.86 L2039.29 1834.86 L2039.29 1830.92 Z" fill="#000000" fill-rule="evenodd" fill-opacity="1" /><path clip-path="url(#clip350)" d="M2070.68 1830.92 L2089.03 1830.92 L2089.03 1834.86 L2074.96 1834.86 L2074.96 1843.33 Q2075.98 1842.98 2076.99 1842.82 Q2078.01 1842.64 2079.03 1842.64 Q2084.82 1842.64 2088.2 1845.81 Q2091.58 1848.98 2091.58 1854.4 Q2091.58 1859.97 2088.11 1863.08 Q2084.63 1866.15 2078.31 1866.15 Q2076.14 1866.15 2073.87 1865.78 Q2071.62 1865.41 2069.22 1864.67 L2069.22 1859.97 Q2071.3 1861.11 2073.52 1861.66 Q2075.74 1862.22 2078.22 1862.22 Q2082.23 1862.22 2084.56 1860.11 Q2086.9 1858.01 2086.9 1854.4 Q2086.9 1850.78 2084.56 1848.68 Q2082.23 1846.57 2078.22 1846.57 Q2076.35 1846.57 2074.47 1846.99 Q2072.62 1847.4 2070.68 1848.28 L2070.68 1830.92 Z" fill="#000000" fill-rule="evenodd" fill-opacity="1" /><path clip-path="url(#clip350)" d="M2483.82 1861.55 L2500.14 1861.55 L2500.14 1865.48 L2478.19 1865.48 L2478.19 1861.55 Q2480.86 1858.79 2485.44 1854.16 Q2490.05 1849.51 2491.23 1848.17 Q2493.47 1845.65 2494.35 1843.91 Q2495.25 1842.15 2495.25 1840.46 Q2495.25 1837.71 2493.31 1835.97 Q2491.39 1834.23 2488.29 1834.23 Q2486.09 1834.23 2483.63 1835 Q2481.2 1835.76 2478.43 1837.31 L2478.43 1832.59 Q2481.25 1831.46 2483.7 1830.88 Q2486.16 1830.3 2488.19 1830.3 Q2493.56 1830.3 2496.76 1832.98 Q2499.95 1835.67 2499.95 1840.16 Q2499.95 1842.29 2499.14 1844.21 Q2498.36 1846.11 2496.25 1848.7 Q2495.67 1849.37 2492.57 1852.59 Q2489.47 1855.78 2483.82 1861.55 Z" fill="#000000" fill-rule="evenodd" fill-opacity="1" /><path clip-path="url(#clip350)" d="M2509.95 1859.6 L2514.84 1859.6 L2514.84 1865.48 L2509.95 1865.48 L2509.95 1859.6 Z" fill="#000000" fill-rule="evenodd" fill-opacity="1" /><path clip-path="url(#clip350)" d="M2535.02 1834 Q2531.41 1834 2529.58 1837.57 Q2527.78 1841.11 2527.78 1848.24 Q2527.78 1855.34 2529.58 1858.91 Q2531.41 1862.45 2535.02 1862.45 Q2538.66 1862.45 2540.46 1858.91 Q2542.29 1855.34 2542.29 1848.24 Q2542.29 1841.11 2540.46 1837.57 Q2538.66 1834 2535.02 1834 M2535.02 1830.3 Q2540.83 1830.3 2543.89 1834.9 Q2546.97 1839.49 2546.97 1848.24 Q2546.97 1856.96 2543.89 1861.57 Q2540.83 1866.15 2535.02 1866.15 Q2529.21 1866.15 2526.13 1861.57 Q2523.08 1856.96 2523.08 1848.24 Q2523.08 1839.49 2526.13 1834.9 Q2529.21 1830.3 2535.02 1830.3 Z" fill="#000000" fill-rule="evenodd" fill-opacity="1" /><path clip-path="url(#clip350)" d="M2565.18 1834 Q2561.57 1834 2559.74 1837.57 Q2557.94 1841.11 2557.94 1848.24 Q2557.94 1855.34 2559.74 1858.91 Q2561.57 1862.45 2565.18 1862.45 Q2568.82 1862.45 2570.62 1858.91 Q2572.45 1855.34 2572.45 1848.24 Q2572.45 1841.11 2570.62 1837.57 Q2568.82 1834 2565.18 1834 M2565.18 1830.3 Q2570.99 1830.3 2574.05 1834.9 Q2577.13 1839.49 2577.13 1848.24 Q2577.13 1856.96 2574.05 1861.57 Q2570.99 1866.15 2565.18 1866.15 Q2559.37 1866.15 2556.3 1861.57 Q2553.24 1856.96 2553.24 1848.24 Q2553.24 1839.49 2556.3 1834.9 Q2559.37 1830.3 2565.18 1830.3 Z" fill="#000000" fill-rule="evenodd" fill-opacity="1" /><polyline clip-path="url(#clip352)" style="stroke:#000000; stroke-linecap:round; stroke-linejoin:round; stroke-width:2; stroke-opacity:0.1; fill:none" points="
  225.983,1562.93 2640.76,1562.93 
  "/>
<polyline clip-path="url(#clip352)" style="stroke:#000000; stroke-linecap:round; stroke-linejoin:round; stroke-width:2; stroke-opacity:0.1; fill:none" points="
  225.983,1232.22 2640.76,1232.22 
  "/>
<polyline clip-path="url(#clip352)" style="stroke:#000000; stroke-linecap:round; stroke-linejoin:round; stroke-width:2; stroke-opacity:0.1; fill:none" points="
  225.983,901.5 2640.76,901.5 
  "/>
<polyline clip-path="url(#clip352)" style="stroke:#000000; stroke-linecap:round; stroke-linejoin:round; stroke-width:2; stroke-opacity:0.1; fill:none" points="
  225.983,570.785 2640.76,570.785 
  "/>
<polyline clip-path="url(#clip352)" style="stroke:#000000; stroke-linecap:round; stroke-linejoin:round; stroke-width:2; stroke-opacity:0.1; fill:none" points="
  225.983,240.069 2640.76,240.069 
  "/>
<polyline clip-path="url(#clip350)" style="stroke:#000000; stroke-linecap:round; stroke-linejoin:round; stroke-width:4; stroke-opacity:1; fill:none" points="
  225.983,1800.78 225.983,47.2441 
  "/>
<polyline clip-path="url(#clip350)" style="stroke:#000000; stroke-linecap:round; stroke-linejoin:round; stroke-width:4; stroke-opacity:1; fill:none" points="
  225.983,1562.93 244.88,1562.93 
  "/>
<polyline clip-path="url(#clip350)" style="stroke:#000000; stroke-linecap:round; stroke-linejoin:round; stroke-width:4; stroke-opacity:1; fill:none" points="
  225.983,1232.22 244.88,1232.22 
  "/>
<polyline clip-path="url(#clip350)" style="stroke:#000000; stroke-linecap:round; stroke-linejoin:round; stroke-width:4; stroke-opacity:1; fill:none" points="
  225.983,901.5 244.88,901.5 
  "/>
<polyline clip-path="url(#clip350)" style="stroke:#000000; stroke-linecap:round; stroke-linejoin:round; stroke-width:4; stroke-opacity:1; fill:none" points="
  225.983,570.785 244.88,570.785 
  "/>
<polyline clip-path="url(#clip350)" style="stroke:#000000; stroke-linecap:round; stroke-linejoin:round; stroke-width:4; stroke-opacity:1; fill:none" points="
  225.983,240.069 244.88,240.069 
  "/>
<path clip-path="url(#clip350)" d="M49.5521 1563.38 L79.2279 1563.38 L79.2279 1567.32 L49.5521 1567.32 L49.5521 1563.38 Z" fill="#000000" fill-rule="evenodd" fill-opacity="1" /><path clip-path="url(#clip350)" d="M99.3204 1548.73 Q95.7093 1548.73 93.8806 1552.29 Q92.075 1555.84 92.075 1562.97 Q92.075 1570.07 93.8806 1573.64 Q95.7093 1577.18 99.3204 1577.18 Q102.955 1577.18 104.76 1573.64 Q106.589 1570.07 106.589 1562.97 Q106.589 1555.84 104.76 1552.29 Q102.955 1548.73 99.3204 1548.73 M99.3204 1545.03 Q105.131 1545.03 108.186 1549.63 Q111.265 1554.22 111.265 1562.97 Q111.265 1571.69 108.186 1576.3 Q105.131 1580.88 99.3204 1580.88 Q93.5102 1580.88 90.4315 1576.3 Q87.376 1571.69 87.376 1562.97 Q87.376 1554.22 90.4315 1549.63 Q93.5102 1545.03 99.3204 1545.03 Z" fill="#000000" fill-rule="evenodd" fill-opacity="1" /><path clip-path="url(#clip350)" d="M119.482 1574.33 L124.367 1574.33 L124.367 1580.21 L119.482 1580.21 L119.482 1574.33 Z" fill="#000000" fill-rule="evenodd" fill-opacity="1" /><path clip-path="url(#clip350)" d="M138.579 1576.28 L154.899 1576.28 L154.899 1580.21 L132.954 1580.21 L132.954 1576.28 Q135.616 1573.52 140.2 1568.89 Q144.806 1564.24 145.987 1562.9 Q148.232 1560.37 149.112 1558.64 Q150.015 1556.88 150.015 1555.19 Q150.015 1552.43 148.07 1550.7 Q146.149 1548.96 143.047 1548.96 Q140.848 1548.96 138.394 1549.73 Q135.964 1550.49 133.186 1552.04 L133.186 1547.32 Q136.01 1546.18 138.464 1545.61 Q140.917 1545.03 142.954 1545.03 Q148.325 1545.03 151.519 1547.71 Q154.714 1550.4 154.714 1554.89 Q154.714 1557.02 153.903 1558.94 Q153.116 1560.84 151.01 1563.43 Q150.431 1564.1 147.329 1567.32 Q144.228 1570.51 138.579 1576.28 Z" fill="#000000" fill-rule="evenodd" fill-opacity="1" /><path clip-path="url(#clip350)" d="M164.76 1545.65 L183.116 1545.65 L183.116 1549.59 L169.042 1549.59 L169.042 1558.06 Q170.061 1557.71 171.079 1557.55 Q172.098 1557.36 173.116 1557.36 Q178.903 1557.36 182.283 1560.54 Q185.663 1563.71 185.663 1569.12 Q185.663 1574.7 182.19 1577.8 Q178.718 1580.88 172.399 1580.88 Q170.223 1580.88 167.954 1580.51 Q165.709 1580.14 163.302 1579.4 L163.302 1574.7 Q165.385 1575.84 167.607 1576.39 Q169.829 1576.95 172.306 1576.95 Q176.311 1576.95 178.649 1574.84 Q180.987 1572.73 180.987 1569.12 Q180.987 1565.51 178.649 1563.41 Q176.311 1561.3 172.306 1561.3 Q170.431 1561.3 168.556 1561.72 Q166.704 1562.13 164.76 1563.01 L164.76 1545.65 Z" fill="#000000" fill-rule="evenodd" fill-opacity="1" /><path clip-path="url(#clip350)" d="M98.325 1218.01 Q94.7139 1218.01 92.8852 1221.58 Q91.0797 1225.12 91.0797 1232.25 Q91.0797 1239.36 92.8852 1242.92 Q94.7139 1246.46 98.325 1246.46 Q101.959 1246.46 103.765 1242.92 Q105.593 1239.36 105.593 1232.25 Q105.593 1225.12 103.765 1221.58 Q101.959 1218.01 98.325 1218.01 M98.325 1214.31 Q104.135 1214.31 107.191 1218.92 Q110.269 1223.5 110.269 1232.25 Q110.269 1240.98 107.191 1245.58 Q104.135 1250.17 98.325 1250.17 Q92.5149 1250.17 89.4362 1245.58 Q86.3806 1240.98 86.3806 1232.25 Q86.3806 1223.5 89.4362 1218.92 Q92.5149 1214.31 98.325 1214.31 Z" fill="#000000" fill-rule="evenodd" fill-opacity="1" /><path clip-path="url(#clip350)" d="M118.487 1243.62 L123.371 1243.62 L123.371 1249.5 L118.487 1249.5 L118.487 1243.62 Z" fill="#000000" fill-rule="evenodd" fill-opacity="1" /><path clip-path="url(#clip350)" d="M143.556 1218.01 Q139.945 1218.01 138.116 1221.58 Q136.311 1225.12 136.311 1232.25 Q136.311 1239.36 138.116 1242.92 Q139.945 1246.46 143.556 1246.46 Q147.19 1246.46 148.996 1242.92 Q150.825 1239.36 150.825 1232.25 Q150.825 1225.12 148.996 1221.58 Q147.19 1218.01 143.556 1218.01 M143.556 1214.31 Q149.366 1214.31 152.422 1218.92 Q155.501 1223.5 155.501 1232.25 Q155.501 1240.98 152.422 1245.58 Q149.366 1250.17 143.556 1250.17 Q137.746 1250.17 134.667 1245.58 Q131.612 1240.98 131.612 1232.25 Q131.612 1223.5 134.667 1218.92 Q137.746 1214.31 143.556 1214.31 Z" fill="#000000" fill-rule="evenodd" fill-opacity="1" /><path clip-path="url(#clip350)" d="M173.718 1218.01 Q170.107 1218.01 168.278 1221.58 Q166.473 1225.12 166.473 1232.25 Q166.473 1239.36 168.278 1242.92 Q170.107 1246.46 173.718 1246.46 Q177.352 1246.46 179.158 1242.92 Q180.987 1239.36 180.987 1232.25 Q180.987 1225.12 179.158 1221.58 Q177.352 1218.01 173.718 1218.01 M173.718 1214.31 Q179.528 1214.31 182.584 1218.92 Q185.663 1223.5 185.663 1232.25 Q185.663 1240.98 182.584 1245.58 Q179.528 1250.17 173.718 1250.17 Q167.908 1250.17 164.829 1245.58 Q161.774 1240.98 161.774 1232.25 Q161.774 1223.5 164.829 1218.92 Q167.908 1214.31 173.718 1214.31 Z" fill="#000000" fill-rule="evenodd" fill-opacity="1" /><path clip-path="url(#clip350)" d="M99.3204 887.299 Q95.7093 887.299 93.8806 890.864 Q92.075 894.406 92.075 901.535 Q92.075 908.642 93.8806 912.206 Q95.7093 915.748 99.3204 915.748 Q102.955 915.748 104.76 912.206 Q106.589 908.642 106.589 901.535 Q106.589 894.406 104.76 890.864 Q102.955 887.299 99.3204 887.299 M99.3204 883.595 Q105.131 883.595 108.186 888.202 Q111.265 892.785 111.265 901.535 Q111.265 910.262 108.186 914.868 Q105.131 919.452 99.3204 919.452 Q93.5102 919.452 90.4315 914.868 Q87.376 910.262 87.376 901.535 Q87.376 892.785 90.4315 888.202 Q93.5102 883.595 99.3204 883.595 Z" fill="#000000" fill-rule="evenodd" fill-opacity="1" /><path clip-path="url(#clip350)" d="M119.482 912.901 L124.367 912.901 L124.367 918.78 L119.482 918.78 L119.482 912.901 Z" fill="#000000" fill-rule="evenodd" fill-opacity="1" /><path clip-path="url(#clip350)" d="M138.579 914.845 L154.899 914.845 L154.899 918.78 L132.954 918.78 L132.954 914.845 Q135.616 912.091 140.2 907.461 Q144.806 902.808 145.987 901.466 Q148.232 898.943 149.112 897.207 Q150.015 895.447 150.015 893.757 Q150.015 891.003 148.07 889.267 Q146.149 887.531 143.047 887.531 Q140.848 887.531 138.394 888.295 Q135.964 889.058 133.186 890.609 L133.186 885.887 Q136.01 884.753 138.464 884.174 Q140.917 883.595 142.954 883.595 Q148.325 883.595 151.519 886.281 Q154.714 888.966 154.714 893.457 Q154.714 895.586 153.903 897.507 Q153.116 899.406 151.01 901.998 Q150.431 902.669 147.329 905.887 Q144.228 909.081 138.579 914.845 Z" fill="#000000" fill-rule="evenodd" fill-opacity="1" /><path clip-path="url(#clip350)" d="M164.76 884.22 L183.116 884.22 L183.116 888.156 L169.042 888.156 L169.042 896.628 Q170.061 896.281 171.079 896.119 Q172.098 895.933 173.116 895.933 Q178.903 895.933 182.283 899.105 Q185.663 902.276 185.663 907.693 Q185.663 913.271 182.19 916.373 Q178.718 919.452 172.399 919.452 Q170.223 919.452 167.954 919.081 Q165.709 918.711 163.302 917.97 L163.302 913.271 Q165.385 914.405 167.607 914.961 Q169.829 915.517 172.306 915.517 Q176.311 915.517 178.649 913.41 Q180.987 911.304 180.987 907.693 Q180.987 904.081 178.649 901.975 Q176.311 899.869 172.306 899.869 Q170.431 899.869 168.556 900.285 Q166.704 900.702 164.76 901.581 L164.76 884.22 Z" fill="#000000" fill-rule="evenodd" fill-opacity="1" /><path clip-path="url(#clip350)" d="M98.325 556.584 Q94.7139 556.584 92.8852 560.148 Q91.0797 563.69 91.0797 570.82 Q91.0797 577.926 92.8852 581.491 Q94.7139 585.033 98.325 585.033 Q101.959 585.033 103.765 581.491 Q105.593 577.926 105.593 570.82 Q105.593 563.69 103.765 560.148 Q101.959 556.584 98.325 556.584 M98.325 552.88 Q104.135 552.88 107.191 557.486 Q110.269 562.07 110.269 570.82 Q110.269 579.546 107.191 584.153 Q104.135 588.736 98.325 588.736 Q92.5149 588.736 89.4362 584.153 Q86.3806 579.546 86.3806 570.82 Q86.3806 562.07 89.4362 557.486 Q92.5149 552.88 98.325 552.88 Z" fill="#000000" fill-rule="evenodd" fill-opacity="1" /><path clip-path="url(#clip350)" d="M118.487 582.185 L123.371 582.185 L123.371 588.065 L118.487 588.065 L118.487 582.185 Z" fill="#000000" fill-rule="evenodd" fill-opacity="1" /><path clip-path="url(#clip350)" d="M133.603 553.505 L151.959 553.505 L151.959 557.44 L137.885 557.44 L137.885 565.912 Q138.903 565.565 139.922 565.403 Q140.941 565.218 141.959 565.218 Q147.746 565.218 151.126 568.389 Q154.505 571.56 154.505 576.977 Q154.505 582.556 151.033 585.658 Q147.561 588.736 141.241 588.736 Q139.066 588.736 136.797 588.366 Q134.552 587.996 132.144 587.255 L132.144 582.556 Q134.228 583.69 136.45 584.246 Q138.672 584.801 141.149 584.801 Q145.153 584.801 147.491 582.695 Q149.829 580.588 149.829 576.977 Q149.829 573.366 147.491 571.259 Q145.153 569.153 141.149 569.153 Q139.274 569.153 137.399 569.57 Q135.547 569.986 133.603 570.866 L133.603 553.505 Z" fill="#000000" fill-rule="evenodd" fill-opacity="1" /><path clip-path="url(#clip350)" d="M173.718 556.584 Q170.107 556.584 168.278 560.148 Q166.473 563.69 166.473 570.82 Q166.473 577.926 168.278 581.491 Q170.107 585.033 173.718 585.033 Q177.352 585.033 179.158 581.491 Q180.987 577.926 180.987 570.82 Q180.987 563.69 179.158 560.148 Q177.352 556.584 173.718 556.584 M173.718 552.88 Q179.528 552.88 182.584 557.486 Q185.663 562.07 185.663 570.82 Q185.663 579.546 182.584 584.153 Q179.528 588.736 173.718 588.736 Q167.908 588.736 164.829 584.153 Q161.774 579.546 161.774 570.82 Q161.774 562.07 164.829 557.486 Q167.908 552.88 173.718 552.88 Z" fill="#000000" fill-rule="evenodd" fill-opacity="1" /><path clip-path="url(#clip350)" d="M99.3204 225.868 Q95.7093 225.868 93.8806 229.433 Q92.075 232.975 92.075 240.104 Q92.075 247.211 93.8806 250.775 Q95.7093 254.317 99.3204 254.317 Q102.955 254.317 104.76 250.775 Q106.589 247.211 106.589 240.104 Q106.589 232.975 104.76 229.433 Q102.955 225.868 99.3204 225.868 M99.3204 222.164 Q105.131 222.164 108.186 226.771 Q111.265 231.354 111.265 240.104 Q111.265 248.831 108.186 253.437 Q105.131 258.021 99.3204 258.021 Q93.5102 258.021 90.4315 253.437 Q87.376 248.831 87.376 240.104 Q87.376 231.354 90.4315 226.771 Q93.5102 222.164 99.3204 222.164 Z" fill="#000000" fill-rule="evenodd" fill-opacity="1" /><path clip-path="url(#clip350)" d="M119.482 251.47 L124.367 251.47 L124.367 257.349 L119.482 257.349 L119.482 251.47 Z" fill="#000000" fill-rule="evenodd" fill-opacity="1" /><path clip-path="url(#clip350)" d="M133.371 222.789 L155.593 222.789 L155.593 224.78 L143.047 257.349 L138.163 257.349 L149.968 226.725 L133.371 226.725 L133.371 222.789 Z" fill="#000000" fill-rule="evenodd" fill-opacity="1" /><path clip-path="url(#clip350)" d="M164.76 222.789 L183.116 222.789 L183.116 226.725 L169.042 226.725 L169.042 235.197 Q170.061 234.85 171.079 234.688 Q172.098 234.502 173.116 234.502 Q178.903 234.502 182.283 237.674 Q185.663 240.845 185.663 246.262 Q185.663 251.84 182.19 254.942 Q178.718 258.021 172.399 258.021 Q170.223 258.021 167.954 257.65 Q165.709 257.28 163.302 256.539 L163.302 251.84 Q165.385 252.974 167.607 253.53 Q169.829 254.086 172.306 254.086 Q176.311 254.086 178.649 251.979 Q180.987 249.873 180.987 246.262 Q180.987 242.65 178.649 240.544 Q176.311 238.437 172.306 238.437 Q170.431 238.437 168.556 238.854 Q166.704 239.271 164.76 240.15 L164.76 222.789 Z" fill="#000000" fill-rule="evenodd" fill-opacity="1" /><circle clip-path="url(#clip352)" cx="1020.97" cy="582.488" r="14.4" fill="#009af9" fill-rule="evenodd" fill-opacity="1" stroke="#000000" stroke-opacity="1" stroke-width="3.84"/>
<circle clip-path="url(#clip352)" cx="1158.7" cy="1751.15" r="14.4" fill="#009af9" fill-rule="evenodd" fill-opacity="1" stroke="#000000" stroke-opacity="1" stroke-width="3.84"/>
<circle clip-path="url(#clip352)" cx="1350.67" cy="1169.27" r="14.4" fill="#009af9" fill-rule="evenodd" fill-opacity="1" stroke="#000000" stroke-opacity="1" stroke-width="3.84"/>
<circle clip-path="url(#clip352)" cx="1854.16" cy="1161.37" r="14.4" fill="#009af9" fill-rule="evenodd" fill-opacity="1" stroke="#000000" stroke-opacity="1" stroke-width="3.84"/>
<circle clip-path="url(#clip352)" cx="1854.86" cy="458.032" r="14.4" fill="#009af9" fill-rule="evenodd" fill-opacity="1" stroke="#000000" stroke-opacity="1" stroke-width="3.84"/>
<circle clip-path="url(#clip352)" cx="2094.14" cy="770.697" r="14.4" fill="#009af9" fill-rule="evenodd" fill-opacity="1" stroke="#000000" stroke-opacity="1" stroke-width="3.84"/>
<circle clip-path="url(#clip352)" cx="1369.42" cy="836.128" r="14.4" fill="#009af9" fill-rule="evenodd" fill-opacity="1" stroke="#000000" stroke-opacity="1" stroke-width="3.84"/>
<circle clip-path="url(#clip352)" cx="1853.85" cy="1080.77" r="14.4" fill="#009af9" fill-rule="evenodd" fill-opacity="1" stroke="#000000" stroke-opacity="1" stroke-width="3.84"/>
<circle clip-path="url(#clip352)" cx="810.001" cy="1452.6" r="14.4" fill="#009af9" fill-rule="evenodd" fill-opacity="1" stroke="#000000" stroke-opacity="1" stroke-width="3.84"/>
<circle clip-path="url(#clip352)" cx="1799.7" cy="690.586" r="14.4" fill="#009af9" fill-rule="evenodd" fill-opacity="1" stroke="#000000" stroke-opacity="1" stroke-width="3.84"/>
<circle clip-path="url(#clip352)" cx="1339.92" cy="161.318" r="14.4" fill="#009af9" fill-rule="evenodd" fill-opacity="1" stroke="#000000" stroke-opacity="1" stroke-width="3.84"/>
<circle clip-path="url(#clip352)" cx="2239.94" cy="605.575" r="14.4" fill="#009af9" fill-rule="evenodd" fill-opacity="1" stroke="#000000" stroke-opacity="1" stroke-width="3.84"/>
<circle clip-path="url(#clip352)" cx="1020.07" cy="900.038" r="14.4" fill="#009af9" fill-rule="evenodd" fill-opacity="1" stroke="#000000" stroke-opacity="1" stroke-width="3.84"/>
<circle clip-path="url(#clip352)" cx="455.746" cy="325.982" r="14.4" fill="#009af9" fill-rule="evenodd" fill-opacity="1" stroke="#000000" stroke-opacity="1" stroke-width="3.84"/>
<circle clip-path="url(#clip352)" cx="736.887" cy="1373.2" r="14.4" fill="#009af9" fill-rule="evenodd" fill-opacity="1" stroke="#000000" stroke-opacity="1" stroke-width="3.84"/>
<circle clip-path="url(#clip352)" cx="1818.93" cy="982.395" r="14.4" fill="#009af9" fill-rule="evenodd" fill-opacity="1" stroke="#000000" stroke-opacity="1" stroke-width="3.84"/>
<circle clip-path="url(#clip352)" cx="1919.8" cy="887.295" r="14.4" fill="#009af9" fill-rule="evenodd" fill-opacity="1" stroke="#000000" stroke-opacity="1" stroke-width="3.84"/>
<circle clip-path="url(#clip352)" cx="1435.98" cy="98.6932" r="14.4" fill="#009af9" fill-rule="evenodd" fill-opacity="1" stroke="#000000" stroke-opacity="1" stroke-width="3.84"/>
<circle clip-path="url(#clip352)" cx="1669.52" cy="1161.81" r="14.4" fill="#009af9" fill-rule="evenodd" fill-opacity="1" stroke="#000000" stroke-opacity="1" stroke-width="3.84"/>
<circle clip-path="url(#clip352)" cx="1591.53" cy="1112.26" r="14.4" fill="#009af9" fill-rule="evenodd" fill-opacity="1" stroke="#000000" stroke-opacity="1" stroke-width="3.84"/>
<circle clip-path="url(#clip352)" cx="2208.99" cy="1032.59" r="14.4" fill="#009af9" fill-rule="evenodd" fill-opacity="1" stroke="#000000" stroke-opacity="1" stroke-width="3.84"/>
<circle clip-path="url(#clip352)" cx="1349" cy="96.8724" r="14.4" fill="#009af9" fill-rule="evenodd" fill-opacity="1" stroke="#000000" stroke-opacity="1" stroke-width="3.84"/>
<circle clip-path="url(#clip352)" cx="294.325" cy="1036.02" r="14.4" fill="#009af9" fill-rule="evenodd" fill-opacity="1" stroke="#000000" stroke-opacity="1" stroke-width="3.84"/>
<circle clip-path="url(#clip352)" cx="2129.81" cy="845.622" r="14.4" fill="#009af9" fill-rule="evenodd" fill-opacity="1" stroke="#000000" stroke-opacity="1" stroke-width="3.84"/>
<circle clip-path="url(#clip352)" cx="2182.16" cy="1401.75" r="14.4" fill="#009af9" fill-rule="evenodd" fill-opacity="1" stroke="#000000" stroke-opacity="1" stroke-width="3.84"/>
<circle clip-path="url(#clip352)" cx="2366.82" cy="598.339" r="14.4" fill="#009af9" fill-rule="evenodd" fill-opacity="1" stroke="#000000" stroke-opacity="1" stroke-width="3.84"/>
<circle clip-path="url(#clip352)" cx="1822.15" cy="853.202" r="14.4" fill="#009af9" fill-rule="evenodd" fill-opacity="1" stroke="#000000" stroke-opacity="1" stroke-width="3.84"/>
<circle clip-path="url(#clip352)" cx="1848.95" cy="554.27" r="14.4" fill="#009af9" fill-rule="evenodd" fill-opacity="1" stroke="#000000" stroke-opacity="1" stroke-width="3.84"/>
<circle clip-path="url(#clip352)" cx="441.613" cy="1113.12" r="14.4" fill="#009af9" fill-rule="evenodd" fill-opacity="1" stroke="#000000" stroke-opacity="1" stroke-width="3.84"/>
<circle clip-path="url(#clip352)" cx="2126.47" cy="1264.95" r="14.4" fill="#009af9" fill-rule="evenodd" fill-opacity="1" stroke="#000000" stroke-opacity="1" stroke-width="3.84"/>
<circle clip-path="url(#clip352)" cx="1592.59" cy="778.174" r="14.4" fill="#009af9" fill-rule="evenodd" fill-opacity="1" stroke="#000000" stroke-opacity="1" stroke-width="3.84"/>
<circle clip-path="url(#clip352)" cx="1129.24" cy="892.693" r="14.4" fill="#009af9" fill-rule="evenodd" fill-opacity="1" stroke="#000000" stroke-opacity="1" stroke-width="3.84"/>
<circle clip-path="url(#clip352)" cx="1370.29" cy="1159.27" r="14.4" fill="#009af9" fill-rule="evenodd" fill-opacity="1" stroke="#000000" stroke-opacity="1" stroke-width="3.84"/>
<circle clip-path="url(#clip352)" cx="1331.75" cy="876.045" r="14.4" fill="#009af9" fill-rule="evenodd" fill-opacity="1" stroke="#000000" stroke-opacity="1" stroke-width="3.84"/>
<circle clip-path="url(#clip352)" cx="781.344" cy="824.217" r="14.4" fill="#009af9" fill-rule="evenodd" fill-opacity="1" stroke="#000000" stroke-opacity="1" stroke-width="3.84"/>
<circle clip-path="url(#clip352)" cx="888.669" cy="887.183" r="14.4" fill="#009af9" fill-rule="evenodd" fill-opacity="1" stroke="#000000" stroke-opacity="1" stroke-width="3.84"/>
<circle clip-path="url(#clip352)" cx="1853.99" cy="901.417" r="14.4" fill="#009af9" fill-rule="evenodd" fill-opacity="1" stroke="#000000" stroke-opacity="1" stroke-width="3.84"/>
<circle clip-path="url(#clip352)" cx="1111.43" cy="1232.06" r="14.4" fill="#009af9" fill-rule="evenodd" fill-opacity="1" stroke="#000000" stroke-opacity="1" stroke-width="3.84"/>
<circle clip-path="url(#clip352)" cx="663.742" cy="424.957" r="14.4" fill="#009af9" fill-rule="evenodd" fill-opacity="1" stroke="#000000" stroke-opacity="1" stroke-width="3.84"/>
<circle clip-path="url(#clip352)" cx="1530.13" cy="1117.76" r="14.4" fill="#009af9" fill-rule="evenodd" fill-opacity="1" stroke="#000000" stroke-opacity="1" stroke-width="3.84"/>
<circle clip-path="url(#clip352)" cx="1259.58" cy="1039.46" r="14.4" fill="#009af9" fill-rule="evenodd" fill-opacity="1" stroke="#000000" stroke-opacity="1" stroke-width="3.84"/>
<circle clip-path="url(#clip352)" cx="802.557" cy="627.689" r="14.4" fill="#009af9" fill-rule="evenodd" fill-opacity="1" stroke="#000000" stroke-opacity="1" stroke-width="3.84"/>
<circle clip-path="url(#clip352)" cx="1243.2" cy="1176.33" r="14.4" fill="#009af9" fill-rule="evenodd" fill-opacity="1" stroke="#000000" stroke-opacity="1" stroke-width="3.84"/>
<circle clip-path="url(#clip352)" cx="1409.65" cy="754.998" r="14.4" fill="#009af9" fill-rule="evenodd" fill-opacity="1" stroke="#000000" stroke-opacity="1" stroke-width="3.84"/>
<circle clip-path="url(#clip352)" cx="2572.41" cy="366.879" r="14.4" fill="#009af9" fill-rule="evenodd" fill-opacity="1" stroke="#000000" stroke-opacity="1" stroke-width="3.84"/>
<circle clip-path="url(#clip352)" cx="1087.29" cy="225.28" r="14.4" fill="#009af9" fill-rule="evenodd" fill-opacity="1" stroke="#000000" stroke-opacity="1" stroke-width="3.84"/>
<circle clip-path="url(#clip352)" cx="1807.14" cy="1335.94" r="14.4" fill="#009af9" fill-rule="evenodd" fill-opacity="1" stroke="#000000" stroke-opacity="1" stroke-width="3.84"/>
<circle clip-path="url(#clip352)" cx="2169.36" cy="615.489" r="14.4" fill="#009af9" fill-rule="evenodd" fill-opacity="1" stroke="#000000" stroke-opacity="1" stroke-width="3.84"/>
<circle clip-path="url(#clip352)" cx="2251.82" cy="789.669" r="14.4" fill="#009af9" fill-rule="evenodd" fill-opacity="1" stroke="#000000" stroke-opacity="1" stroke-width="3.84"/>
<circle clip-path="url(#clip352)" cx="1853.16" cy="858.529" r="14.4" fill="#009af9" fill-rule="evenodd" fill-opacity="1" stroke="#000000" stroke-opacity="1" stroke-width="3.84"/>
<polyline clip-path="url(#clip352)" style="stroke:#e26f46; stroke-linecap:round; stroke-linejoin:round; stroke-width:4; stroke-opacity:1; fill:none" points="
  294.325,1070.55 309.157,1068.52 446.296,1049.67 528.711,1038.34 598.392,1028.76 674.085,1018.35 743.868,1008.76 818.682,998.478 905.361,986.563 982.391,975.975 
  1049.94,966.69 1123.59,956.567 1197.67,946.383 1279.58,935.124 1357.51,924.411 1438.55,913.273 1506.76,903.896 1590.04,892.449 1666.33,881.962 1736.79,872.277 
  1808.17,862.466 1888.16,851.471 1960.64,841.507 2043.63,830.1 2120.47,819.537 2196.23,809.124 2269.78,799.014 2345.18,788.649 2427.79,777.294 2547.79,760.798 
  2572.41,757.414 
  "/>
</svg>
