<?xml version="1.0" encoding="utf-8"?>
<svg xmlns="http://www.w3.org/2000/svg" xmlns:xlink="http://www.w3.org/1999/xlink" width="576" height="384" viewBox="0 0 2304 1536">
<defs>
  <clipPath id="clip240">
    <rect x="0" y="0" width="2304" height="1536"/>
  </clipPath>
</defs>
<path clip-path="url(#clip240)" d="
M0 1536 L2304 1536 L2304 0 L0 0  Z
  " fill="#ffffff" fill-rule="evenodd" fill-opacity="1"/>
<defs>
  <clipPath id="clip241">
    <rect x="460" y="0" width="1614" height="1536"/>
  </clipPath>
</defs>
<path clip-path="url(#clip240)" d="
M222.143 1423.09 L2256.76 1423.09 L2256.76 47.2441 L222.143 47.2441  Z
  " fill="#ffffff" fill-rule="evenodd" fill-opacity="1"/>
<defs>
  <clipPath id="clip242">
    <rect x="222" y="47" width="2036" height="1377"/>
  </clipPath>
</defs>
<polyline clip-path="url(#clip242)" style="stroke:#000000; stroke-linecap:round; stroke-linejoin:round; stroke-width:2; stroke-opacity:0.1; fill:none" points="
  464.595,1423.09 464.595,47.2441 
  "/>
<polyline clip-path="url(#clip242)" style="stroke:#000000; stroke-linecap:round; stroke-linejoin:round; stroke-width:2; stroke-opacity:0.1; fill:none" points="
  783.544,1423.09 783.544,47.2441 
  "/>
<polyline clip-path="url(#clip242)" style="stroke:#000000; stroke-linecap:round; stroke-linejoin:round; stroke-width:2; stroke-opacity:0.1; fill:none" points="
  1102.49,1423.09 1102.49,47.2441 
  "/>
<polyline clip-path="url(#clip242)" style="stroke:#000000; stroke-linecap:round; stroke-linejoin:round; stroke-width:2; stroke-opacity:0.1; fill:none" points="
  1421.44,1423.09 1421.44,47.2441 
  "/>
<polyline clip-path="url(#clip242)" style="stroke:#000000; stroke-linecap:round; stroke-linejoin:round; stroke-width:2; stroke-opacity:0.1; fill:none" points="
  1740.39,1423.09 1740.39,47.2441 
  "/>
<polyline clip-path="url(#clip242)" style="stroke:#000000; stroke-linecap:round; stroke-linejoin:round; stroke-width:2; stroke-opacity:0.1; fill:none" points="
  2059.34,1423.09 2059.34,47.2441 
  "/>
<polyline clip-path="url(#clip240)" style="stroke:#000000; stroke-linecap:round; stroke-linejoin:round; stroke-width:4; stroke-opacity:1; fill:none" points="
  222.143,1423.09 2256.76,1423.09 
  "/>
<polyline clip-path="url(#clip240)" style="stroke:#000000; stroke-linecap:round; stroke-linejoin:round; stroke-width:4; stroke-opacity:1; fill:none" points="
  464.595,1423.09 464.595,1404.19 
  "/>
<polyline clip-path="url(#clip240)" style="stroke:#000000; stroke-linecap:round; stroke-linejoin:round; stroke-width:4; stroke-opacity:1; fill:none" points="
  783.544,1423.09 783.544,1404.19 
  "/>
<polyline clip-path="url(#clip240)" style="stroke:#000000; stroke-linecap:round; stroke-linejoin:round; stroke-width:4; stroke-opacity:1; fill:none" points="
  1102.49,1423.09 1102.49,1404.19 
  "/>
<polyline clip-path="url(#clip240)" style="stroke:#000000; stroke-linecap:round; stroke-linejoin:round; stroke-width:4; stroke-opacity:1; fill:none" points="
  1421.44,1423.09 1421.44,1404.19 
  "/>
<polyline clip-path="url(#clip240)" style="stroke:#000000; stroke-linecap:round; stroke-linejoin:round; stroke-width:4; stroke-opacity:1; fill:none" points="
  1740.39,1423.09 1740.39,1404.19 
  "/>
<polyline clip-path="url(#clip240)" style="stroke:#000000; stroke-linecap:round; stroke-linejoin:round; stroke-width:4; stroke-opacity:1; fill:none" points="
  2059.34,1423.09 2059.34,1404.19 
  "/>
<path clip-path="url(#clip240)" d="M427.396 1453.24 Q423.785 1453.24 421.956 1456.8 Q420.15 1460.35 420.15 1467.47 Q420.15 1474.58 421.956 1478.15 Q423.785 1481.69 427.396 1481.69 Q431.03 1481.69 432.836 1478.15 Q434.664 1474.58 434.664 1467.47 Q434.664 1460.35 432.836 1456.8 Q431.03 1453.24 427.396 1453.24 M427.396 1449.53 Q433.206 1449.53 436.262 1454.14 Q439.34 1458.72 439.34 1467.47 Q439.34 1476.2 436.262 1480.81 Q433.206 1485.39 427.396 1485.39 Q421.586 1485.39 418.507 1480.81 Q415.451 1476.2 415.451 1467.47 Q415.451 1458.72 418.507 1454.14 Q421.586 1449.53 427.396 1449.53 Z" fill="#000000" fill-rule="evenodd" fill-opacity="1" /><path clip-path="url(#clip240)" d="M447.558 1478.84 L452.442 1478.84 L452.442 1484.72 L447.558 1484.72 L447.558 1478.84 Z" fill="#000000" fill-rule="evenodd" fill-opacity="1" /><path clip-path="url(#clip240)" d="M461.447 1450.16 L483.669 1450.16 L483.669 1452.15 L471.122 1484.72 L466.238 1484.72 L478.044 1454.1 L461.447 1454.1 L461.447 1450.16 Z" fill="#000000" fill-rule="evenodd" fill-opacity="1" /><path clip-path="url(#clip240)" d="M492.835 1450.16 L511.192 1450.16 L511.192 1454.1 L497.118 1454.1 L497.118 1462.57 Q498.136 1462.22 499.155 1462.06 Q500.173 1461.87 501.192 1461.87 Q506.979 1461.87 510.358 1465.04 Q513.738 1468.22 513.738 1473.63 Q513.738 1479.21 510.266 1482.31 Q506.794 1485.39 500.474 1485.39 Q498.298 1485.39 496.03 1485.02 Q493.784 1484.65 491.377 1483.91 L491.377 1479.21 Q493.46 1480.34 495.682 1480.9 Q497.905 1481.46 500.382 1481.46 Q504.386 1481.46 506.724 1479.35 Q509.062 1477.24 509.062 1473.63 Q509.062 1470.02 506.724 1467.91 Q504.386 1465.81 500.382 1465.81 Q498.507 1465.81 496.632 1466.22 Q494.78 1466.64 492.835 1467.52 L492.835 1450.16 Z" fill="#000000" fill-rule="evenodd" fill-opacity="1" /><path clip-path="url(#clip240)" d="M735.616 1480.78 L743.254 1480.78 L743.254 1454.42 L734.944 1456.09 L734.944 1451.83 L743.208 1450.16 L747.884 1450.16 L747.884 1480.78 L755.523 1480.78 L755.523 1484.72 L735.616 1484.72 L735.616 1480.78 Z" fill="#000000" fill-rule="evenodd" fill-opacity="1" /><path clip-path="url(#clip240)" d="M764.967 1478.84 L769.852 1478.84 L769.852 1484.72 L764.967 1484.72 L764.967 1478.84 Z" fill="#000000" fill-rule="evenodd" fill-opacity="1" /><path clip-path="url(#clip240)" d="M790.037 1453.24 Q786.425 1453.24 784.597 1456.8 Q782.791 1460.35 782.791 1467.47 Q782.791 1474.58 784.597 1478.15 Q786.425 1481.69 790.037 1481.69 Q793.671 1481.69 795.476 1478.15 Q797.305 1474.58 797.305 1467.47 Q797.305 1460.35 795.476 1456.8 Q793.671 1453.24 790.037 1453.24 M790.037 1449.53 Q795.847 1449.53 798.902 1454.14 Q801.981 1458.72 801.981 1467.47 Q801.981 1476.2 798.902 1480.81 Q795.847 1485.39 790.037 1485.39 Q784.226 1485.39 781.148 1480.81 Q778.092 1476.2 778.092 1467.47 Q778.092 1458.72 781.148 1454.14 Q784.226 1449.53 790.037 1449.53 Z" fill="#000000" fill-rule="evenodd" fill-opacity="1" /><path clip-path="url(#clip240)" d="M820.198 1453.24 Q816.587 1453.24 814.759 1456.8 Q812.953 1460.35 812.953 1467.47 Q812.953 1474.58 814.759 1478.15 Q816.587 1481.69 820.198 1481.69 Q823.833 1481.69 825.638 1478.15 Q827.467 1474.58 827.467 1467.47 Q827.467 1460.35 825.638 1456.8 Q823.833 1453.24 820.198 1453.24 M820.198 1449.53 Q826.009 1449.53 829.064 1454.14 Q832.143 1458.72 832.143 1467.47 Q832.143 1476.2 829.064 1480.81 Q826.009 1485.39 820.198 1485.39 Q814.388 1485.39 811.31 1480.81 Q808.254 1476.2 808.254 1467.47 Q808.254 1458.72 811.31 1454.14 Q814.388 1449.53 820.198 1449.53 Z" fill="#000000" fill-rule="evenodd" fill-opacity="1" /><path clip-path="url(#clip240)" d="M1055.06 1480.78 L1062.7 1480.78 L1062.7 1454.42 L1054.39 1456.09 L1054.39 1451.83 L1062.65 1450.16 L1067.33 1450.16 L1067.33 1480.78 L1074.97 1480.78 L1074.97 1484.72 L1055.06 1484.72 L1055.06 1480.78 Z" fill="#000000" fill-rule="evenodd" fill-opacity="1" /><path clip-path="url(#clip240)" d="M1084.41 1478.84 L1089.3 1478.84 L1089.3 1484.72 L1084.41 1484.72 L1084.41 1478.84 Z" fill="#000000" fill-rule="evenodd" fill-opacity="1" /><path clip-path="url(#clip240)" d="M1103.51 1480.78 L1119.83 1480.78 L1119.83 1484.72 L1097.89 1484.72 L1097.89 1480.78 Q1100.55 1478.03 1105.13 1473.4 Q1109.74 1468.75 1110.92 1467.41 Q1113.16 1464.88 1114.04 1463.15 Q1114.95 1461.39 1114.95 1459.7 Q1114.95 1456.94 1113 1455.21 Q1111.08 1453.47 1107.98 1453.47 Q1105.78 1453.47 1103.33 1454.23 Q1100.9 1455 1098.12 1456.55 L1098.12 1451.83 Q1100.94 1450.69 1103.4 1450.11 Q1105.85 1449.53 1107.89 1449.53 Q1113.26 1449.53 1116.45 1452.22 Q1119.65 1454.91 1119.65 1459.4 Q1119.65 1461.53 1118.83 1463.45 Q1118.05 1465.34 1115.94 1467.94 Q1115.36 1468.61 1112.26 1471.83 Q1109.16 1475.02 1103.51 1480.78 Z" fill="#000000" fill-rule="evenodd" fill-opacity="1" /><path clip-path="url(#clip240)" d="M1129.69 1450.16 L1148.05 1450.16 L1148.05 1454.1 L1133.97 1454.1 L1133.97 1462.57 Q1134.99 1462.22 1136.01 1462.06 Q1137.03 1461.87 1138.05 1461.87 Q1143.83 1461.87 1147.21 1465.04 Q1150.59 1468.22 1150.59 1473.63 Q1150.59 1479.21 1147.12 1482.31 Q1143.65 1485.39 1137.33 1485.39 Q1135.15 1485.39 1132.89 1485.02 Q1130.64 1484.65 1128.23 1483.91 L1128.23 1479.21 Q1130.32 1480.34 1132.54 1480.9 Q1134.76 1481.46 1137.24 1481.46 Q1141.24 1481.46 1143.58 1479.35 Q1145.92 1477.24 1145.92 1473.63 Q1145.92 1470.02 1143.58 1467.91 Q1141.24 1465.81 1137.24 1465.81 Q1135.36 1465.81 1133.49 1466.22 Q1131.64 1466.64 1129.69 1467.52 L1129.69 1450.16 Z" fill="#000000" fill-rule="evenodd" fill-opacity="1" /><path clip-path="url(#clip240)" d="M1373.51 1480.78 L1381.15 1480.78 L1381.15 1454.42 L1372.84 1456.09 L1372.84 1451.83 L1381.11 1450.16 L1385.78 1450.16 L1385.78 1480.78 L1393.42 1480.78 L1393.42 1484.72 L1373.51 1484.72 L1373.51 1480.78 Z" fill="#000000" fill-rule="evenodd" fill-opacity="1" /><path clip-path="url(#clip240)" d="M1402.86 1478.84 L1407.75 1478.84 L1407.75 1484.72 L1402.86 1484.72 L1402.86 1478.84 Z" fill="#000000" fill-rule="evenodd" fill-opacity="1" /><path clip-path="url(#clip240)" d="M1417.98 1450.16 L1436.34 1450.16 L1436.34 1454.1 L1422.26 1454.1 L1422.26 1462.57 Q1423.28 1462.22 1424.3 1462.06 Q1425.32 1461.87 1426.34 1461.87 Q1432.12 1461.87 1435.5 1465.04 Q1438.88 1468.22 1438.88 1473.63 Q1438.88 1479.21 1435.41 1482.31 Q1431.94 1485.39 1425.62 1485.39 Q1423.44 1485.39 1421.18 1485.02 Q1418.93 1484.65 1416.52 1483.91 L1416.52 1479.21 Q1418.61 1480.34 1420.83 1480.9 Q1423.05 1481.46 1425.53 1481.46 Q1429.53 1481.46 1431.87 1479.35 Q1434.21 1477.24 1434.21 1473.63 Q1434.21 1470.02 1431.87 1467.91 Q1429.53 1465.81 1425.53 1465.81 Q1423.65 1465.81 1421.78 1466.22 Q1419.93 1466.64 1417.98 1467.52 L1417.98 1450.16 Z" fill="#000000" fill-rule="evenodd" fill-opacity="1" /><path clip-path="url(#clip240)" d="M1458.1 1453.24 Q1454.49 1453.24 1452.66 1456.8 Q1450.85 1460.35 1450.85 1467.47 Q1450.85 1474.58 1452.66 1478.15 Q1454.49 1481.69 1458.1 1481.69 Q1461.73 1481.69 1463.54 1478.15 Q1465.36 1474.58 1465.36 1467.47 Q1465.36 1460.35 1463.54 1456.8 Q1461.73 1453.24 1458.1 1453.24 M1458.1 1449.53 Q1463.91 1449.53 1466.96 1454.14 Q1470.04 1458.72 1470.04 1467.47 Q1470.04 1476.2 1466.96 1480.81 Q1463.91 1485.39 1458.1 1485.39 Q1452.29 1485.39 1449.21 1480.81 Q1446.15 1476.2 1446.15 1467.47 Q1446.15 1458.72 1449.21 1454.14 Q1452.29 1449.53 1458.1 1449.53 Z" fill="#000000" fill-rule="evenodd" fill-opacity="1" /><path clip-path="url(#clip240)" d="M1692.96 1480.78 L1700.6 1480.78 L1700.6 1454.42 L1692.29 1456.09 L1692.29 1451.83 L1700.55 1450.16 L1705.23 1450.16 L1705.23 1480.78 L1712.87 1480.78 L1712.87 1484.72 L1692.96 1484.72 L1692.96 1480.78 Z" fill="#000000" fill-rule="evenodd" fill-opacity="1" /><path clip-path="url(#clip240)" d="M1722.31 1478.84 L1727.2 1478.84 L1727.2 1484.72 L1722.31 1484.72 L1722.31 1478.84 Z" fill="#000000" fill-rule="evenodd" fill-opacity="1" /><path clip-path="url(#clip240)" d="M1736.2 1450.16 L1758.42 1450.16 L1758.42 1452.15 L1745.88 1484.72 L1740.99 1484.72 L1752.8 1454.1 L1736.2 1454.1 L1736.2 1450.16 Z" fill="#000000" fill-rule="evenodd" fill-opacity="1" /><path clip-path="url(#clip240)" d="M1767.59 1450.16 L1785.95 1450.16 L1785.95 1454.1 L1771.87 1454.1 L1771.87 1462.57 Q1772.89 1462.22 1773.91 1462.06 Q1774.93 1461.87 1775.95 1461.87 Q1781.73 1461.87 1785.11 1465.04 Q1788.49 1468.22 1788.49 1473.63 Q1788.49 1479.21 1785.02 1482.31 Q1781.55 1485.39 1775.23 1485.39 Q1773.05 1485.39 1770.78 1485.02 Q1768.54 1484.65 1766.13 1483.91 L1766.13 1479.21 Q1768.21 1480.34 1770.44 1480.9 Q1772.66 1481.46 1775.14 1481.46 Q1779.14 1481.46 1781.48 1479.35 Q1783.82 1477.24 1783.82 1473.63 Q1783.82 1470.02 1781.48 1467.91 Q1779.14 1465.81 1775.14 1465.81 Q1773.26 1465.81 1771.39 1466.22 Q1769.53 1466.64 1767.59 1467.52 L1767.59 1450.16 Z" fill="#000000" fill-rule="evenodd" fill-opacity="1" /><path clip-path="url(#clip240)" d="M2015.5 1480.78 L2031.82 1480.78 L2031.82 1484.72 L2009.87 1484.72 L2009.87 1480.78 Q2012.53 1478.03 2017.12 1473.4 Q2021.72 1468.75 2022.9 1467.41 Q2025.15 1464.88 2026.03 1463.15 Q2026.93 1461.39 2026.93 1459.7 Q2026.93 1456.94 2024.99 1455.21 Q2023.07 1453.47 2019.96 1453.47 Q2017.77 1453.47 2015.31 1454.23 Q2012.88 1455 2010.1 1456.55 L2010.1 1451.83 Q2012.93 1450.69 2015.38 1450.11 Q2017.83 1449.53 2019.87 1449.53 Q2025.24 1449.53 2028.44 1452.22 Q2031.63 1454.91 2031.63 1459.4 Q2031.63 1461.53 2030.82 1463.45 Q2030.03 1465.34 2027.93 1467.94 Q2027.35 1468.61 2024.25 1471.83 Q2021.14 1475.02 2015.5 1480.78 Z" fill="#000000" fill-rule="evenodd" fill-opacity="1" /><path clip-path="url(#clip240)" d="M2041.63 1478.84 L2046.51 1478.84 L2046.51 1484.72 L2041.63 1484.72 L2041.63 1478.84 Z" fill="#000000" fill-rule="evenodd" fill-opacity="1" /><path clip-path="url(#clip240)" d="M2066.7 1453.24 Q2063.09 1453.24 2061.26 1456.8 Q2059.45 1460.35 2059.45 1467.47 Q2059.45 1474.58 2061.26 1478.15 Q2063.09 1481.69 2066.7 1481.69 Q2070.33 1481.69 2072.14 1478.15 Q2073.97 1474.58 2073.97 1467.47 Q2073.97 1460.35 2072.14 1456.8 Q2070.33 1453.24 2066.7 1453.24 M2066.7 1449.53 Q2072.51 1449.53 2075.57 1454.14 Q2078.64 1458.72 2078.64 1467.47 Q2078.64 1476.2 2075.57 1480.81 Q2072.51 1485.39 2066.7 1485.39 Q2060.89 1485.39 2057.81 1480.81 Q2054.76 1476.2 2054.76 1467.47 Q2054.76 1458.72 2057.81 1454.14 Q2060.89 1449.53 2066.7 1449.53 Z" fill="#000000" fill-rule="evenodd" fill-opacity="1" /><path clip-path="url(#clip240)" d="M2096.86 1453.24 Q2093.25 1453.24 2091.42 1456.8 Q2089.62 1460.35 2089.62 1467.47 Q2089.62 1474.58 2091.42 1478.15 Q2093.25 1481.69 2096.86 1481.69 Q2100.5 1481.69 2102.3 1478.15 Q2104.13 1474.58 2104.13 1467.47 Q2104.13 1460.35 2102.3 1456.8 Q2100.5 1453.24 2096.86 1453.24 M2096.86 1449.53 Q2102.67 1449.53 2105.73 1454.14 Q2108.81 1458.72 2108.81 1467.47 Q2108.81 1476.2 2105.73 1480.81 Q2102.67 1485.39 2096.86 1485.39 Q2091.05 1485.39 2087.97 1480.81 Q2084.92 1476.2 2084.92 1467.47 Q2084.92 1458.72 2087.97 1454.14 Q2091.05 1449.53 2096.86 1449.53 Z" fill="#000000" fill-rule="evenodd" fill-opacity="1" /><polyline clip-path="url(#clip242)" style="stroke:#000000; stroke-linecap:round; stroke-linejoin:round; stroke-width:2; stroke-opacity:0.1; fill:none" points="
  222.143,1279.95 2256.76,1279.95 
  "/>
<polyline clip-path="url(#clip242)" style="stroke:#000000; stroke-linecap:round; stroke-linejoin:round; stroke-width:2; stroke-opacity:0.1; fill:none" points="
  222.143,1003.72 2256.76,1003.72 
  "/>
<polyline clip-path="url(#clip242)" style="stroke:#000000; stroke-linecap:round; stroke-linejoin:round; stroke-width:2; stroke-opacity:0.1; fill:none" points="
  222.143,727.491 2256.76,727.491 
  "/>
<polyline clip-path="url(#clip242)" style="stroke:#000000; stroke-linecap:round; stroke-linejoin:round; stroke-width:2; stroke-opacity:0.1; fill:none" points="
  222.143,451.262 2256.76,451.262 
  "/>
<polyline clip-path="url(#clip242)" style="stroke:#000000; stroke-linecap:round; stroke-linejoin:round; stroke-width:2; stroke-opacity:0.1; fill:none" points="
  222.143,175.032 2256.76,175.032 
  "/>
<polyline clip-path="url(#clip240)" style="stroke:#000000; stroke-linecap:round; stroke-linejoin:round; stroke-width:4; stroke-opacity:1; fill:none" points="
  222.143,1423.09 222.143,47.2441 
  "/>
<polyline clip-path="url(#clip240)" style="stroke:#000000; stroke-linecap:round; stroke-linejoin:round; stroke-width:4; stroke-opacity:1; fill:none" points="
  222.143,1279.95 241.04,1279.95 
  "/>
<polyline clip-path="url(#clip240)" style="stroke:#000000; stroke-linecap:round; stroke-linejoin:round; stroke-width:4; stroke-opacity:1; fill:none" points="
  222.143,1003.72 241.04,1003.72 
  "/>
<polyline clip-path="url(#clip240)" style="stroke:#000000; stroke-linecap:round; stroke-linejoin:round; stroke-width:4; stroke-opacity:1; fill:none" points="
  222.143,727.491 241.04,727.491 
  "/>
<polyline clip-path="url(#clip240)" style="stroke:#000000; stroke-linecap:round; stroke-linejoin:round; stroke-width:4; stroke-opacity:1; fill:none" points="
  222.143,451.262 241.04,451.262 
  "/>
<polyline clip-path="url(#clip240)" style="stroke:#000000; stroke-linecap:round; stroke-linejoin:round; stroke-width:4; stroke-opacity:1; fill:none" points="
  222.143,175.032 241.04,175.032 
  "/>
<path clip-path="url(#clip240)" d="M51.4721 1280.4 L81.1479 1280.4 L81.1479 1284.34 L51.4721 1284.34 L51.4721 1280.4 Z" fill="#000000" fill-rule="evenodd" fill-opacity="1" /><path clip-path="url(#clip240)" d="M101.24 1265.75 Q97.6293 1265.75 95.8006 1269.31 Q93.995 1272.86 93.995 1279.98 Q93.995 1287.09 95.8006 1290.66 Q97.6293 1294.2 101.24 1294.2 Q104.875 1294.2 106.68 1290.66 Q108.509 1287.09 108.509 1279.98 Q108.509 1272.86 106.68 1269.31 Q104.875 1265.75 101.24 1265.75 M101.24 1262.04 Q107.051 1262.04 110.106 1266.65 Q113.185 1271.23 113.185 1279.98 Q113.185 1288.71 110.106 1293.32 Q107.051 1297.9 101.24 1297.9 Q95.4302 1297.9 92.3515 1293.32 Q89.296 1288.71 89.296 1279.98 Q89.296 1271.23 92.3515 1266.65 Q95.4302 1262.04 101.24 1262.04 Z" fill="#000000" fill-rule="evenodd" fill-opacity="1" /><path clip-path="url(#clip240)" d="M121.402 1291.35 L126.287 1291.35 L126.287 1297.23 L121.402 1297.23 L121.402 1291.35 Z" fill="#000000" fill-rule="evenodd" fill-opacity="1" /><path clip-path="url(#clip240)" d="M140.499 1293.29 L156.819 1293.29 L156.819 1297.23 L134.874 1297.23 L134.874 1293.29 Q137.536 1290.54 142.12 1285.91 Q146.726 1281.26 147.907 1279.92 Q150.152 1277.39 151.032 1275.66 Q151.935 1273.9 151.935 1272.21 Q151.935 1269.45 149.99 1267.72 Q148.069 1265.98 144.967 1265.98 Q142.768 1265.98 140.314 1266.74 Q137.884 1267.51 135.106 1269.06 L135.106 1264.34 Q137.93 1263.2 140.384 1262.62 Q142.837 1262.04 144.874 1262.04 Q150.245 1262.04 153.439 1264.73 Q156.634 1267.42 156.634 1271.91 Q156.634 1274.04 155.823 1275.96 Q155.036 1277.86 152.93 1280.45 Q152.351 1281.12 149.249 1284.34 Q146.148 1287.53 140.499 1293.29 Z" fill="#000000" fill-rule="evenodd" fill-opacity="1" /><path clip-path="url(#clip240)" d="M166.68 1262.67 L185.036 1262.67 L185.036 1266.61 L170.962 1266.61 L170.962 1275.08 Q171.981 1274.73 172.999 1274.57 Q174.018 1274.38 175.036 1274.38 Q180.823 1274.38 184.203 1277.55 Q187.583 1280.73 187.583 1286.14 Q187.583 1291.72 184.11 1294.82 Q180.638 1297.9 174.319 1297.9 Q172.143 1297.9 169.874 1297.53 Q167.629 1297.16 165.222 1296.42 L165.222 1291.72 Q167.305 1292.85 169.527 1293.41 Q171.749 1293.97 174.226 1293.97 Q178.231 1293.97 180.569 1291.86 Q182.907 1289.75 182.907 1286.14 Q182.907 1282.53 180.569 1280.42 Q178.231 1278.32 174.226 1278.32 Q172.351 1278.32 170.476 1278.73 Q168.624 1279.15 166.68 1280.03 L166.68 1262.67 Z" fill="#000000" fill-rule="evenodd" fill-opacity="1" /><path clip-path="url(#clip240)" d="M100.245 989.519 Q96.6339 989.519 94.8052 993.084 Q92.9997 996.626 92.9997 1003.76 Q92.9997 1010.86 94.8052 1014.43 Q96.6339 1017.97 100.245 1017.97 Q103.879 1017.97 105.685 1014.43 Q107.513 1010.86 107.513 1003.76 Q107.513 996.626 105.685 993.084 Q103.879 989.519 100.245 989.519 M100.245 985.816 Q106.055 985.816 109.111 990.422 Q112.189 995.005 112.189 1003.76 Q112.189 1012.48 109.111 1017.09 Q106.055 1021.67 100.245 1021.67 Q94.4349 1021.67 91.3562 1017.09 Q88.3006 1012.48 88.3006 1003.76 Q88.3006 995.005 91.3562 990.422 Q94.4349 985.816 100.245 985.816 Z" fill="#000000" fill-rule="evenodd" fill-opacity="1" /><path clip-path="url(#clip240)" d="M120.407 1015.12 L125.291 1015.12 L125.291 1021 L120.407 1021 L120.407 1015.12 Z" fill="#000000" fill-rule="evenodd" fill-opacity="1" /><path clip-path="url(#clip240)" d="M145.476 989.519 Q141.865 989.519 140.036 993.084 Q138.231 996.626 138.231 1003.76 Q138.231 1010.86 140.036 1014.43 Q141.865 1017.97 145.476 1017.97 Q149.11 1017.97 150.916 1014.43 Q152.745 1010.86 152.745 1003.76 Q152.745 996.626 150.916 993.084 Q149.11 989.519 145.476 989.519 M145.476 985.816 Q151.286 985.816 154.342 990.422 Q157.421 995.005 157.421 1003.76 Q157.421 1012.48 154.342 1017.09 Q151.286 1021.67 145.476 1021.67 Q139.666 1021.67 136.587 1017.09 Q133.532 1012.48 133.532 1003.76 Q133.532 995.005 136.587 990.422 Q139.666 985.816 145.476 985.816 Z" fill="#000000" fill-rule="evenodd" fill-opacity="1" /><path clip-path="url(#clip240)" d="M175.638 989.519 Q172.027 989.519 170.198 993.084 Q168.393 996.626 168.393 1003.76 Q168.393 1010.86 170.198 1014.43 Q172.027 1017.97 175.638 1017.97 Q179.272 1017.97 181.078 1014.43 Q182.907 1010.86 182.907 1003.76 Q182.907 996.626 181.078 993.084 Q179.272 989.519 175.638 989.519 M175.638 985.816 Q181.448 985.816 184.504 990.422 Q187.583 995.005 187.583 1003.76 Q187.583 1012.48 184.504 1017.09 Q181.448 1021.67 175.638 1021.67 Q169.828 1021.67 166.749 1017.09 Q163.694 1012.48 163.694 1003.76 Q163.694 995.005 166.749 990.422 Q169.828 985.816 175.638 985.816 Z" fill="#000000" fill-rule="evenodd" fill-opacity="1" /><path clip-path="url(#clip240)" d="M101.24 713.29 Q97.6293 713.29 95.8006 716.855 Q93.995 720.396 93.995 727.526 Q93.995 734.632 95.8006 738.197 Q97.6293 741.739 101.24 741.739 Q104.875 741.739 106.68 738.197 Q108.509 734.632 108.509 727.526 Q108.509 720.396 106.68 716.855 Q104.875 713.29 101.24 713.29 M101.24 709.586 Q107.051 709.586 110.106 714.193 Q113.185 718.776 113.185 727.526 Q113.185 736.253 110.106 740.859 Q107.051 745.442 101.24 745.442 Q95.4302 745.442 92.3515 740.859 Q89.296 736.253 89.296 727.526 Q89.296 718.776 92.3515 714.193 Q95.4302 709.586 101.24 709.586 Z" fill="#000000" fill-rule="evenodd" fill-opacity="1" /><path clip-path="url(#clip240)" d="M121.402 738.892 L126.287 738.892 L126.287 744.771 L121.402 744.771 L121.402 738.892 Z" fill="#000000" fill-rule="evenodd" fill-opacity="1" /><path clip-path="url(#clip240)" d="M140.499 740.836 L156.819 740.836 L156.819 744.771 L134.874 744.771 L134.874 740.836 Q137.536 738.081 142.12 733.452 Q146.726 728.799 147.907 727.456 Q150.152 724.933 151.032 723.197 Q151.935 721.438 151.935 719.748 Q151.935 716.994 149.99 715.257 Q148.069 713.521 144.967 713.521 Q142.768 713.521 140.314 714.285 Q137.884 715.049 135.106 716.6 L135.106 711.878 Q137.93 710.744 140.384 710.165 Q142.837 709.586 144.874 709.586 Q150.245 709.586 153.439 712.271 Q156.634 714.957 156.634 719.447 Q156.634 721.577 155.823 723.498 Q155.036 725.396 152.93 727.989 Q152.351 728.66 149.249 731.878 Q146.148 735.072 140.499 740.836 Z" fill="#000000" fill-rule="evenodd" fill-opacity="1" /><path clip-path="url(#clip240)" d="M166.68 710.211 L185.036 710.211 L185.036 714.146 L170.962 714.146 L170.962 722.619 Q171.981 722.271 172.999 722.109 Q174.018 721.924 175.036 721.924 Q180.823 721.924 184.203 725.095 Q187.583 728.267 187.583 733.683 Q187.583 739.262 184.11 742.364 Q180.638 745.442 174.319 745.442 Q172.143 745.442 169.874 745.072 Q167.629 744.702 165.222 743.961 L165.222 739.262 Q167.305 740.396 169.527 740.952 Q171.749 741.507 174.226 741.507 Q178.231 741.507 180.569 739.401 Q182.907 737.294 182.907 733.683 Q182.907 730.072 180.569 727.966 Q178.231 725.859 174.226 725.859 Q172.351 725.859 170.476 726.276 Q168.624 726.693 166.68 727.572 L166.68 710.211 Z" fill="#000000" fill-rule="evenodd" fill-opacity="1" /><path clip-path="url(#clip240)" d="M100.245 437.06 Q96.6339 437.06 94.8052 440.625 Q92.9997 444.167 92.9997 451.297 Q92.9997 458.403 94.8052 461.968 Q96.6339 465.509 100.245 465.509 Q103.879 465.509 105.685 461.968 Q107.513 458.403 107.513 451.297 Q107.513 444.167 105.685 440.625 Q103.879 437.06 100.245 437.06 M100.245 433.357 Q106.055 433.357 109.111 437.963 Q112.189 442.547 112.189 451.297 Q112.189 460.023 109.111 464.63 Q106.055 469.213 100.245 469.213 Q94.4349 469.213 91.3562 464.63 Q88.3006 460.023 88.3006 451.297 Q88.3006 442.547 91.3562 437.963 Q94.4349 433.357 100.245 433.357 Z" fill="#000000" fill-rule="evenodd" fill-opacity="1" /><path clip-path="url(#clip240)" d="M120.407 462.662 L125.291 462.662 L125.291 468.542 L120.407 468.542 L120.407 462.662 Z" fill="#000000" fill-rule="evenodd" fill-opacity="1" /><path clip-path="url(#clip240)" d="M135.523 433.982 L153.879 433.982 L153.879 437.917 L139.805 437.917 L139.805 446.389 Q140.823 446.042 141.842 445.88 Q142.861 445.695 143.879 445.695 Q149.666 445.695 153.046 448.866 Q156.425 452.037 156.425 457.454 Q156.425 463.033 152.953 466.134 Q149.481 469.213 143.161 469.213 Q140.986 469.213 138.717 468.843 Q136.472 468.472 134.064 467.732 L134.064 463.033 Q136.148 464.167 138.37 464.722 Q140.592 465.278 143.069 465.278 Q147.073 465.278 149.411 463.171 Q151.749 461.065 151.749 457.454 Q151.749 453.843 149.411 451.736 Q147.073 449.63 143.069 449.63 Q141.194 449.63 139.319 450.047 Q137.467 450.463 135.523 451.343 L135.523 433.982 Z" fill="#000000" fill-rule="evenodd" fill-opacity="1" /><path clip-path="url(#clip240)" d="M175.638 437.06 Q172.027 437.06 170.198 440.625 Q168.393 444.167 168.393 451.297 Q168.393 458.403 170.198 461.968 Q172.027 465.509 175.638 465.509 Q179.272 465.509 181.078 461.968 Q182.907 458.403 182.907 451.297 Q182.907 444.167 181.078 440.625 Q179.272 437.06 175.638 437.06 M175.638 433.357 Q181.448 433.357 184.504 437.963 Q187.583 442.547 187.583 451.297 Q187.583 460.023 184.504 464.63 Q181.448 469.213 175.638 469.213 Q169.828 469.213 166.749 464.63 Q163.694 460.023 163.694 451.297 Q163.694 442.547 166.749 437.963 Q169.828 433.357 175.638 433.357 Z" fill="#000000" fill-rule="evenodd" fill-opacity="1" /><path clip-path="url(#clip240)" d="M101.24 160.831 Q97.6293 160.831 95.8006 164.396 Q93.995 167.938 93.995 175.067 Q93.995 182.174 95.8006 185.738 Q97.6293 189.28 101.24 189.28 Q104.875 189.28 106.68 185.738 Q108.509 182.174 108.509 175.067 Q108.509 167.938 106.68 164.396 Q104.875 160.831 101.24 160.831 M101.24 157.127 Q107.051 157.127 110.106 161.734 Q113.185 166.317 113.185 175.067 Q113.185 183.794 110.106 188.4 Q107.051 192.984 101.24 192.984 Q95.4302 192.984 92.3515 188.4 Q89.296 183.794 89.296 175.067 Q89.296 166.317 92.3515 161.734 Q95.4302 157.127 101.24 157.127 Z" fill="#000000" fill-rule="evenodd" fill-opacity="1" /><path clip-path="url(#clip240)" d="M121.402 186.433 L126.287 186.433 L126.287 192.312 L121.402 192.312 L121.402 186.433 Z" fill="#000000" fill-rule="evenodd" fill-opacity="1" /><path clip-path="url(#clip240)" d="M135.291 157.752 L157.513 157.752 L157.513 159.743 L144.967 192.312 L140.083 192.312 L151.888 161.688 L135.291 161.688 L135.291 157.752 Z" fill="#000000" fill-rule="evenodd" fill-opacity="1" /><path clip-path="url(#clip240)" d="M166.68 157.752 L185.036 157.752 L185.036 161.688 L170.962 161.688 L170.962 170.16 Q171.981 169.813 172.999 169.651 Q174.018 169.465 175.036 169.465 Q180.823 169.465 184.203 172.637 Q187.583 175.808 187.583 181.225 Q187.583 186.803 184.11 189.905 Q180.638 192.984 174.319 192.984 Q172.143 192.984 169.874 192.613 Q167.629 192.243 165.222 191.502 L165.222 186.803 Q167.305 187.937 169.527 188.493 Q171.749 189.049 174.226 189.049 Q178.231 189.049 180.569 186.942 Q182.907 184.836 182.907 181.225 Q182.907 177.613 180.569 175.507 Q178.231 173.4 174.226 173.4 Q172.351 173.4 170.476 173.817 Q168.624 174.234 166.68 175.113 L166.68 157.752 Z" fill="#000000" fill-rule="evenodd" fill-opacity="1" /><circle clip-path="url(#clip242)" cx="1086.03" cy="821.196" r="14.4" fill="#009af9" fill-rule="evenodd" fill-opacity="1" stroke="#000000" stroke-opacity="1" stroke-width="3.072"/>
<circle clip-path="url(#clip242)" cx="813.155" cy="192.816" r="14.4" fill="#009af9" fill-rule="evenodd" fill-opacity="1" stroke="#000000" stroke-opacity="1" stroke-width="3.072"/>
<circle clip-path="url(#clip242)" cx="1440.47" cy="502.989" r="14.4" fill="#009af9" fill-rule="evenodd" fill-opacity="1" stroke="#000000" stroke-opacity="1" stroke-width="3.072"/>
<circle clip-path="url(#clip242)" cx="1627.07" cy="1060.47" r="14.4" fill="#009af9" fill-rule="evenodd" fill-opacity="1" stroke="#000000" stroke-opacity="1" stroke-width="3.072"/>
<circle clip-path="url(#clip242)" cx="1175.53" cy="952.247" r="14.4" fill="#009af9" fill-rule="evenodd" fill-opacity="1" stroke="#000000" stroke-opacity="1" stroke-width="3.072"/>
<circle clip-path="url(#clip242)" cx="2185.95" cy="251.98" r="14.4" fill="#009af9" fill-rule="evenodd" fill-opacity="1" stroke="#000000" stroke-opacity="1" stroke-width="3.072"/>
<circle clip-path="url(#clip242)" cx="1589.7" cy="537.113" r="14.4" fill="#009af9" fill-rule="evenodd" fill-opacity="1" stroke="#000000" stroke-opacity="1" stroke-width="3.072"/>
<circle clip-path="url(#clip242)" cx="1072.62" cy="1155.02" r="14.4" fill="#009af9" fill-rule="evenodd" fill-opacity="1" stroke="#000000" stroke-opacity="1" stroke-width="3.072"/>
<circle clip-path="url(#clip242)" cx="1189.01" cy="934.846" r="14.4" fill="#009af9" fill-rule="evenodd" fill-opacity="1" stroke="#000000" stroke-opacity="1" stroke-width="3.072"/>
<circle clip-path="url(#clip242)" cx="1349.65" cy="486.485" r="14.4" fill="#009af9" fill-rule="evenodd" fill-opacity="1" stroke="#000000" stroke-opacity="1" stroke-width="3.072"/>
<circle clip-path="url(#clip242)" cx="1546.99" cy="533.369" r="14.4" fill="#009af9" fill-rule="evenodd" fill-opacity="1" stroke="#000000" stroke-opacity="1" stroke-width="3.072"/>
<circle clip-path="url(#clip242)" cx="1394.86" cy="474.309" r="14.4" fill="#009af9" fill-rule="evenodd" fill-opacity="1" stroke="#000000" stroke-opacity="1" stroke-width="3.072"/>
<circle clip-path="url(#clip242)" cx="1776.04" cy="1023.12" r="14.4" fill="#009af9" fill-rule="evenodd" fill-opacity="1" stroke="#000000" stroke-opacity="1" stroke-width="3.072"/>
<circle clip-path="url(#clip242)" cx="942.922" cy="981.285" r="14.4" fill="#009af9" fill-rule="evenodd" fill-opacity="1" stroke="#000000" stroke-opacity="1" stroke-width="3.072"/>
<circle clip-path="url(#clip242)" cx="1221.48" cy="1007.17" r="14.4" fill="#009af9" fill-rule="evenodd" fill-opacity="1" stroke="#000000" stroke-opacity="1" stroke-width="3.072"/>
<circle clip-path="url(#clip242)" cx="1489.45" cy="437.304" r="14.4" fill="#009af9" fill-rule="evenodd" fill-opacity="1" stroke="#000000" stroke-opacity="1" stroke-width="3.072"/>
<circle clip-path="url(#clip242)" cx="1170.99" cy="303.732" r="14.4" fill="#009af9" fill-rule="evenodd" fill-opacity="1" stroke="#000000" stroke-opacity="1" stroke-width="3.072"/>
<circle clip-path="url(#clip242)" cx="1208.67" cy="86.1831" r="14.4" fill="#009af9" fill-rule="evenodd" fill-opacity="1" stroke="#000000" stroke-opacity="1" stroke-width="3.072"/>
<circle clip-path="url(#clip242)" cx="1863.27" cy="804.987" r="14.4" fill="#009af9" fill-rule="evenodd" fill-opacity="1" stroke="#000000" stroke-opacity="1" stroke-width="3.072"/>
<circle clip-path="url(#clip242)" cx="1523.12" cy="782.173" r="14.4" fill="#009af9" fill-rule="evenodd" fill-opacity="1" stroke="#000000" stroke-opacity="1" stroke-width="3.072"/>
<circle clip-path="url(#clip242)" cx="1572.93" cy="1304.09" r="14.4" fill="#009af9" fill-rule="evenodd" fill-opacity="1" stroke="#000000" stroke-opacity="1" stroke-width="3.072"/>
<circle clip-path="url(#clip242)" cx="1515.81" cy="387.2" r="14.4" fill="#009af9" fill-rule="evenodd" fill-opacity="1" stroke="#000000" stroke-opacity="1" stroke-width="3.072"/>
<circle clip-path="url(#clip242)" cx="279.726" cy="999.455" r="14.4" fill="#009af9" fill-rule="evenodd" fill-opacity="1" stroke="#000000" stroke-opacity="1" stroke-width="3.072"/>
<circle clip-path="url(#clip242)" cx="1992.25" cy="315.661" r="14.4" fill="#009af9" fill-rule="evenodd" fill-opacity="1" stroke="#000000" stroke-opacity="1" stroke-width="3.072"/>
<circle clip-path="url(#clip242)" cx="2070.29" cy="950.836" r="14.4" fill="#009af9" fill-rule="evenodd" fill-opacity="1" stroke="#000000" stroke-opacity="1" stroke-width="3.072"/>
<circle clip-path="url(#clip242)" cx="1799.34" cy="519.994" r="14.4" fill="#009af9" fill-rule="evenodd" fill-opacity="1" stroke="#000000" stroke-opacity="1" stroke-width="3.072"/>
<circle clip-path="url(#clip242)" cx="1746.05" cy="589.664" r="14.4" fill="#009af9" fill-rule="evenodd" fill-opacity="1" stroke="#000000" stroke-opacity="1" stroke-width="3.072"/>
<circle clip-path="url(#clip242)" cx="1327.7" cy="675.576" r="14.4" fill="#009af9" fill-rule="evenodd" fill-opacity="1" stroke="#000000" stroke-opacity="1" stroke-width="3.072"/>
<circle clip-path="url(#clip242)" cx="842.038" cy="927.946" r="14.4" fill="#009af9" fill-rule="evenodd" fill-opacity="1" stroke="#000000" stroke-opacity="1" stroke-width="3.072"/>
<circle clip-path="url(#clip242)" cx="1708.27" cy="692.076" r="14.4" fill="#009af9" fill-rule="evenodd" fill-opacity="1" stroke="#000000" stroke-opacity="1" stroke-width="3.072"/>
<circle clip-path="url(#clip242)" cx="1848.97" cy="522.698" r="14.4" fill="#009af9" fill-rule="evenodd" fill-opacity="1" stroke="#000000" stroke-opacity="1" stroke-width="3.072"/>
<circle clip-path="url(#clip242)" cx="1692.91" cy="452.59" r="14.4" fill="#009af9" fill-rule="evenodd" fill-opacity="1" stroke="#000000" stroke-opacity="1" stroke-width="3.072"/>
<circle clip-path="url(#clip242)" cx="1690.12" cy="1384.15" r="14.4" fill="#009af9" fill-rule="evenodd" fill-opacity="1" stroke="#000000" stroke-opacity="1" stroke-width="3.072"/>
<circle clip-path="url(#clip242)" cx="1616.24" cy="1020.61" r="14.4" fill="#009af9" fill-rule="evenodd" fill-opacity="1" stroke="#000000" stroke-opacity="1" stroke-width="3.072"/>
<circle clip-path="url(#clip242)" cx="1243.49" cy="618.71" r="14.4" fill="#009af9" fill-rule="evenodd" fill-opacity="1" stroke="#000000" stroke-opacity="1" stroke-width="3.072"/>
<circle clip-path="url(#clip242)" cx="1244.27" cy="913.462" r="14.4" fill="#009af9" fill-rule="evenodd" fill-opacity="1" stroke="#000000" stroke-opacity="1" stroke-width="3.072"/>
<circle clip-path="url(#clip242)" cx="1072.12" cy="372.743" r="14.4" fill="#009af9" fill-rule="evenodd" fill-opacity="1" stroke="#000000" stroke-opacity="1" stroke-width="3.072"/>
<circle clip-path="url(#clip242)" cx="1459.13" cy="935.947" r="14.4" fill="#009af9" fill-rule="evenodd" fill-opacity="1" stroke="#000000" stroke-opacity="1" stroke-width="3.072"/>
<circle clip-path="url(#clip242)" cx="1066.86" cy="1151.33" r="14.4" fill="#009af9" fill-rule="evenodd" fill-opacity="1" stroke="#000000" stroke-opacity="1" stroke-width="3.072"/>
<circle clip-path="url(#clip242)" cx="1312.22" cy="664.731" r="14.4" fill="#009af9" fill-rule="evenodd" fill-opacity="1" stroke="#000000" stroke-opacity="1" stroke-width="3.072"/>
<circle clip-path="url(#clip242)" cx="1830.43" cy="834.677" r="14.4" fill="#009af9" fill-rule="evenodd" fill-opacity="1" stroke="#000000" stroke-opacity="1" stroke-width="3.072"/>
<circle clip-path="url(#clip242)" cx="1338.36" cy="1053.49" r="14.4" fill="#009af9" fill-rule="evenodd" fill-opacity="1" stroke="#000000" stroke-opacity="1" stroke-width="3.072"/>
<circle clip-path="url(#clip242)" cx="1019.14" cy="1038.27" r="14.4" fill="#009af9" fill-rule="evenodd" fill-opacity="1" stroke="#000000" stroke-opacity="1" stroke-width="3.072"/>
<circle clip-path="url(#clip242)" cx="1015.16" cy="774.512" r="14.4" fill="#009af9" fill-rule="evenodd" fill-opacity="1" stroke="#000000" stroke-opacity="1" stroke-width="3.072"/>
<circle clip-path="url(#clip242)" cx="2199.17" cy="413.043" r="14.4" fill="#009af9" fill-rule="evenodd" fill-opacity="1" stroke="#000000" stroke-opacity="1" stroke-width="3.072"/>
<circle clip-path="url(#clip242)" cx="1487.31" cy="100.517" r="14.4" fill="#009af9" fill-rule="evenodd" fill-opacity="1" stroke="#000000" stroke-opacity="1" stroke-width="3.072"/>
<circle clip-path="url(#clip242)" cx="1710.75" cy="946.806" r="14.4" fill="#009af9" fill-rule="evenodd" fill-opacity="1" stroke="#000000" stroke-opacity="1" stroke-width="3.072"/>
<circle clip-path="url(#clip242)" cx="1703.51" cy="1271.64" r="14.4" fill="#009af9" fill-rule="evenodd" fill-opacity="1" stroke="#000000" stroke-opacity="1" stroke-width="3.072"/>
<circle clip-path="url(#clip242)" cx="1475.2" cy="799.04" r="14.4" fill="#009af9" fill-rule="evenodd" fill-opacity="1" stroke="#000000" stroke-opacity="1" stroke-width="3.072"/>
<circle clip-path="url(#clip242)" cx="876.252" cy="874.06" r="14.4" fill="#009af9" fill-rule="evenodd" fill-opacity="1" stroke="#000000" stroke-opacity="1" stroke-width="3.072"/>
<polyline clip-path="url(#clip242)" style="stroke:#e26f46; stroke-linecap:round; stroke-linejoin:round; stroke-width:4; stroke-opacity:1; fill:none" points="
  279.726,922.452 292.223,920.273 407.772,900.134 477.213,888.031 535.924,877.799 599.7,866.683 658.497,856.435 721.533,845.449 794.566,832.72 859.469,821.408 
  916.384,811.488 978.436,800.673 1040.86,789.794 1109.87,777.765 1175.54,766.32 1243.81,754.42 1301.29,744.403 1371.46,732.173 1435.74,720.97 1495.1,710.622 
  1555.24,700.141 1622.64,688.394 1683.71,677.75 1753.64,665.563 1818.38,654.279 1882.21,643.154 1944.18,632.352 2007.71,621.28 2077.32,609.148 2178.43,591.525 
  2199.17,587.91 
  "/>
</svg>
