<?xml version="1.0" encoding="utf-8"?>
<svg xmlns="http://www.w3.org/2000/svg" xmlns:xlink="http://www.w3.org/1999/xlink" width="576" height="384" viewBox="0 0 2304 1536">
<defs>
  <clipPath id="clip830">
    <rect x="0" y="0" width="2304" height="1536"/>
  </clipPath>
</defs>
<path clip-path="url(#clip830)" d="
M0 1536 L2304 1536 L2304 0 L0 0  Z
  " fill="#ffffff" fill-rule="evenodd" fill-opacity="1"/>
<defs>
  <clipPath id="clip831">
    <rect x="460" y="0" width="1614" height="1536"/>
  </clipPath>
</defs>
<path clip-path="url(#clip830)" d="
M111.217 1423.09 L2256.76 1423.09 L2256.76 47.2441 L111.217 47.2441  Z
  " fill="#ffffff" fill-rule="evenodd" fill-opacity="1"/>
<defs>
  <clipPath id="clip832">
    <rect x="111" y="47" width="2147" height="1377"/>
  </clipPath>
</defs>
<polyline clip-path="url(#clip832)" style="stroke:#000000; stroke-linecap:round; stroke-linejoin:round; stroke-width:2; stroke-opacity:0.1; fill:none" points="
  509.289,1423.09 509.289,47.2441 
  "/>
<polyline clip-path="url(#clip832)" style="stroke:#000000; stroke-linecap:round; stroke-linejoin:round; stroke-width:2; stroke-opacity:0.1; fill:none" points="
  930.975,1423.09 930.975,47.2441 
  "/>
<polyline clip-path="url(#clip832)" style="stroke:#000000; stroke-linecap:round; stroke-linejoin:round; stroke-width:2; stroke-opacity:0.1; fill:none" points="
  1352.66,1423.09 1352.66,47.2441 
  "/>
<polyline clip-path="url(#clip832)" style="stroke:#000000; stroke-linecap:round; stroke-linejoin:round; stroke-width:2; stroke-opacity:0.1; fill:none" points="
  1774.35,1423.09 1774.35,47.2441 
  "/>
<polyline clip-path="url(#clip832)" style="stroke:#000000; stroke-linecap:round; stroke-linejoin:round; stroke-width:2; stroke-opacity:0.1; fill:none" points="
  2196.03,1423.09 2196.03,47.2441 
  "/>
<polyline clip-path="url(#clip830)" style="stroke:#000000; stroke-linecap:round; stroke-linejoin:round; stroke-width:4; stroke-opacity:1; fill:none" points="
  111.217,1423.09 2256.76,1423.09 
  "/>
<polyline clip-path="url(#clip830)" style="stroke:#000000; stroke-linecap:round; stroke-linejoin:round; stroke-width:4; stroke-opacity:1; fill:none" points="
  509.289,1423.09 509.289,1404.19 
  "/>
<polyline clip-path="url(#clip830)" style="stroke:#000000; stroke-linecap:round; stroke-linejoin:round; stroke-width:4; stroke-opacity:1; fill:none" points="
  930.975,1423.09 930.975,1404.19 
  "/>
<polyline clip-path="url(#clip830)" style="stroke:#000000; stroke-linecap:round; stroke-linejoin:round; stroke-width:4; stroke-opacity:1; fill:none" points="
  1352.66,1423.09 1352.66,1404.19 
  "/>
<polyline clip-path="url(#clip830)" style="stroke:#000000; stroke-linecap:round; stroke-linejoin:round; stroke-width:4; stroke-opacity:1; fill:none" points="
  1774.35,1423.09 1774.35,1404.19 
  "/>
<polyline clip-path="url(#clip830)" style="stroke:#000000; stroke-linecap:round; stroke-linejoin:round; stroke-width:4; stroke-opacity:1; fill:none" points="
  2196.03,1423.09 2196.03,1404.19 
  "/>
<path clip-path="url(#clip830)" d="M487.171 1453.24 Q483.56 1453.24 481.731 1456.8 Q479.926 1460.35 479.926 1467.47 Q479.926 1474.58 481.731 1478.15 Q483.56 1481.69 487.171 1481.69 Q490.805 1481.69 492.611 1478.15 Q494.439 1474.58 494.439 1467.47 Q494.439 1460.35 492.611 1456.8 Q490.805 1453.24 487.171 1453.24 M487.171 1449.53 Q492.981 1449.53 496.037 1454.14 Q499.115 1458.72 499.115 1467.47 Q499.115 1476.2 496.037 1480.81 Q492.981 1485.39 487.171 1485.39 Q481.361 1485.39 478.282 1480.81 Q475.227 1476.2 475.227 1467.47 Q475.227 1458.72 478.282 1454.14 Q481.361 1449.53 487.171 1449.53 Z" fill="#000000" fill-rule="evenodd" fill-opacity="1" /><path clip-path="url(#clip830)" d="M507.333 1478.84 L512.217 1478.84 L512.217 1484.72 L507.333 1484.72 L507.333 1478.84 Z" fill="#000000" fill-rule="evenodd" fill-opacity="1" /><path clip-path="url(#clip830)" d="M522.448 1450.16 L540.805 1450.16 L540.805 1454.1 L526.731 1454.1 L526.731 1462.57 Q527.749 1462.22 528.768 1462.06 Q529.786 1461.87 530.805 1461.87 Q536.592 1461.87 539.972 1465.04 Q543.351 1468.22 543.351 1473.63 Q543.351 1479.21 539.879 1482.31 Q536.407 1485.39 530.087 1485.39 Q527.911 1485.39 525.643 1485.02 Q523.398 1484.65 520.99 1483.91 L520.99 1479.21 Q523.073 1480.34 525.296 1480.9 Q527.518 1481.46 529.995 1481.46 Q533.999 1481.46 536.337 1479.35 Q538.675 1477.24 538.675 1473.63 Q538.675 1470.02 536.337 1467.91 Q533.999 1465.81 529.995 1465.81 Q528.12 1465.81 526.245 1466.22 Q524.393 1466.64 522.448 1467.52 L522.448 1450.16 Z" fill="#000000" fill-rule="evenodd" fill-opacity="1" /><path clip-path="url(#clip830)" d="M898.128 1480.78 L905.767 1480.78 L905.767 1454.42 L897.457 1456.09 L897.457 1451.83 L905.72 1450.16 L910.396 1450.16 L910.396 1480.78 L918.035 1480.78 L918.035 1484.72 L898.128 1484.72 L898.128 1480.78 Z" fill="#000000" fill-rule="evenodd" fill-opacity="1" /><path clip-path="url(#clip830)" d="M927.48 1478.84 L932.364 1478.84 L932.364 1484.72 L927.48 1484.72 L927.48 1478.84 Z" fill="#000000" fill-rule="evenodd" fill-opacity="1" /><path clip-path="url(#clip830)" d="M952.549 1453.24 Q948.938 1453.24 947.109 1456.8 Q945.304 1460.35 945.304 1467.47 Q945.304 1474.58 947.109 1478.15 Q948.938 1481.69 952.549 1481.69 Q956.183 1481.69 957.989 1478.15 Q959.817 1474.58 959.817 1467.47 Q959.817 1460.35 957.989 1456.8 Q956.183 1453.24 952.549 1453.24 M952.549 1449.53 Q958.359 1449.53 961.415 1454.14 Q964.493 1458.72 964.493 1467.47 Q964.493 1476.2 961.415 1480.81 Q958.359 1485.39 952.549 1485.39 Q946.739 1485.39 943.66 1480.81 Q940.604 1476.2 940.604 1467.47 Q940.604 1458.72 943.66 1454.14 Q946.739 1449.53 952.549 1449.53 Z" fill="#000000" fill-rule="evenodd" fill-opacity="1" /><path clip-path="url(#clip830)" d="M1320.31 1480.78 L1327.95 1480.78 L1327.95 1454.42 L1319.64 1456.09 L1319.64 1451.83 L1327.9 1450.16 L1332.58 1450.16 L1332.58 1480.78 L1340.22 1480.78 L1340.22 1484.72 L1320.31 1484.72 L1320.31 1480.78 Z" fill="#000000" fill-rule="evenodd" fill-opacity="1" /><path clip-path="url(#clip830)" d="M1349.66 1478.84 L1354.55 1478.84 L1354.55 1484.72 L1349.66 1484.72 L1349.66 1478.84 Z" fill="#000000" fill-rule="evenodd" fill-opacity="1" /><path clip-path="url(#clip830)" d="M1364.78 1450.16 L1383.14 1450.16 L1383.14 1454.1 L1369.06 1454.1 L1369.06 1462.57 Q1370.08 1462.22 1371.1 1462.06 Q1372.12 1461.87 1373.14 1461.87 Q1378.92 1461.87 1382.3 1465.04 Q1385.68 1468.22 1385.68 1473.63 Q1385.68 1479.21 1382.21 1482.31 Q1378.74 1485.39 1372.42 1485.39 Q1370.24 1485.39 1367.97 1485.02 Q1365.73 1484.65 1363.32 1483.91 L1363.32 1479.21 Q1365.4 1480.34 1367.63 1480.9 Q1369.85 1481.46 1372.33 1481.46 Q1376.33 1481.46 1378.67 1479.35 Q1381.01 1477.24 1381.01 1473.63 Q1381.01 1470.02 1378.67 1467.91 Q1376.33 1465.81 1372.33 1465.81 Q1370.45 1465.81 1368.58 1466.22 Q1366.72 1466.64 1364.78 1467.52 L1364.78 1450.16 Z" fill="#000000" fill-rule="evenodd" fill-opacity="1" /><path clip-path="url(#clip830)" d="M1745.59 1480.78 L1761.9 1480.78 L1761.9 1484.72 L1739.96 1484.72 L1739.96 1480.78 Q1742.62 1478.03 1747.21 1473.4 Q1751.81 1468.75 1752.99 1467.41 Q1755.24 1464.88 1756.12 1463.15 Q1757.02 1461.39 1757.02 1459.7 Q1757.02 1456.94 1755.08 1455.21 Q1753.16 1453.47 1750.05 1453.47 Q1747.85 1453.47 1745.4 1454.23 Q1742.97 1455 1740.19 1456.55 L1740.19 1451.83 Q1743.02 1450.69 1745.47 1450.11 Q1747.92 1449.53 1749.96 1449.53 Q1755.33 1449.53 1758.53 1452.22 Q1761.72 1454.91 1761.72 1459.4 Q1761.72 1461.53 1760.91 1463.45 Q1760.12 1465.34 1758.02 1467.94 Q1757.44 1468.61 1754.34 1471.83 Q1751.23 1475.02 1745.59 1480.78 Z" fill="#000000" fill-rule="evenodd" fill-opacity="1" /><path clip-path="url(#clip830)" d="M1771.72 1478.84 L1776.6 1478.84 L1776.6 1484.72 L1771.72 1484.72 L1771.72 1478.84 Z" fill="#000000" fill-rule="evenodd" fill-opacity="1" /><path clip-path="url(#clip830)" d="M1796.79 1453.24 Q1793.18 1453.24 1791.35 1456.8 Q1789.54 1460.35 1789.54 1467.47 Q1789.54 1474.58 1791.35 1478.15 Q1793.18 1481.69 1796.79 1481.69 Q1800.42 1481.69 1802.23 1478.15 Q1804.06 1474.58 1804.06 1467.47 Q1804.06 1460.35 1802.23 1456.8 Q1800.42 1453.24 1796.79 1453.24 M1796.79 1449.53 Q1802.6 1449.53 1805.65 1454.14 Q1808.73 1458.72 1808.73 1467.47 Q1808.73 1476.2 1805.65 1480.81 Q1802.6 1485.39 1796.79 1485.39 Q1790.98 1485.39 1787.9 1480.81 Q1784.84 1476.2 1784.84 1467.47 Q1784.84 1458.72 1787.9 1454.14 Q1790.98 1449.53 1796.79 1449.53 Z" fill="#000000" fill-rule="evenodd" fill-opacity="1" /><path clip-path="url(#clip830)" d="M2167.77 1480.78 L2184.09 1480.78 L2184.09 1484.72 L2162.14 1484.72 L2162.14 1480.78 Q2164.81 1478.03 2169.39 1473.4 Q2174 1468.75 2175.18 1467.41 Q2177.42 1464.88 2178.3 1463.15 Q2179.2 1461.39 2179.2 1459.7 Q2179.2 1456.94 2177.26 1455.21 Q2175.34 1453.47 2172.24 1453.47 Q2170.04 1453.47 2167.58 1454.23 Q2165.15 1455 2162.38 1456.55 L2162.38 1451.83 Q2165.2 1450.69 2167.65 1450.11 Q2170.11 1449.53 2172.14 1449.53 Q2177.51 1449.53 2180.71 1452.22 Q2183.9 1454.91 2183.9 1459.4 Q2183.9 1461.53 2183.09 1463.45 Q2182.31 1465.34 2180.2 1467.94 Q2179.62 1468.61 2176.52 1471.83 Q2173.42 1475.02 2167.77 1480.78 Z" fill="#000000" fill-rule="evenodd" fill-opacity="1" /><path clip-path="url(#clip830)" d="M2193.9 1478.84 L2198.79 1478.84 L2198.79 1484.72 L2193.9 1484.72 L2193.9 1478.84 Z" fill="#000000" fill-rule="evenodd" fill-opacity="1" /><path clip-path="url(#clip830)" d="M2209.02 1450.16 L2227.38 1450.16 L2227.38 1454.1 L2213.3 1454.1 L2213.3 1462.57 Q2214.32 1462.22 2215.34 1462.06 Q2216.36 1461.87 2217.38 1461.87 Q2223.16 1461.87 2226.54 1465.04 Q2229.92 1468.22 2229.92 1473.63 Q2229.92 1479.21 2226.45 1482.31 Q2222.98 1485.39 2216.66 1485.39 Q2214.48 1485.39 2212.21 1485.02 Q2209.97 1484.65 2207.56 1483.91 L2207.56 1479.21 Q2209.64 1480.34 2211.87 1480.9 Q2214.09 1481.46 2216.57 1481.46 Q2220.57 1481.46 2222.91 1479.35 Q2225.25 1477.24 2225.25 1473.63 Q2225.25 1470.02 2222.91 1467.91 Q2220.57 1465.81 2216.57 1465.81 Q2214.69 1465.81 2212.82 1466.22 Q2210.96 1466.64 2209.02 1467.52 L2209.02 1450.16 Z" fill="#000000" fill-rule="evenodd" fill-opacity="1" /><polyline clip-path="url(#clip832)" style="stroke:#000000; stroke-linecap:round; stroke-linejoin:round; stroke-width:2; stroke-opacity:0.1; fill:none" points="
  111.217,1384.15 2256.76,1384.15 
  "/>
<polyline clip-path="url(#clip832)" style="stroke:#000000; stroke-linecap:round; stroke-linejoin:round; stroke-width:2; stroke-opacity:0.1; fill:none" points="
  111.217,1164.15 2256.76,1164.15 
  "/>
<polyline clip-path="url(#clip832)" style="stroke:#000000; stroke-linecap:round; stroke-linejoin:round; stroke-width:2; stroke-opacity:0.1; fill:none" points="
  111.217,944.16 2256.76,944.16 
  "/>
<polyline clip-path="url(#clip832)" style="stroke:#000000; stroke-linecap:round; stroke-linejoin:round; stroke-width:2; stroke-opacity:0.1; fill:none" points="
  111.217,724.166 2256.76,724.166 
  "/>
<polyline clip-path="url(#clip832)" style="stroke:#000000; stroke-linecap:round; stroke-linejoin:round; stroke-width:2; stroke-opacity:0.1; fill:none" points="
  111.217,504.172 2256.76,504.172 
  "/>
<polyline clip-path="url(#clip832)" style="stroke:#000000; stroke-linecap:round; stroke-linejoin:round; stroke-width:2; stroke-opacity:0.1; fill:none" points="
  111.217,284.178 2256.76,284.178 
  "/>
<polyline clip-path="url(#clip832)" style="stroke:#000000; stroke-linecap:round; stroke-linejoin:round; stroke-width:2; stroke-opacity:0.1; fill:none" points="
  111.217,64.1836 2256.76,64.1836 
  "/>
<polyline clip-path="url(#clip830)" style="stroke:#000000; stroke-linecap:round; stroke-linejoin:round; stroke-width:4; stroke-opacity:1; fill:none" points="
  111.217,1423.09 111.217,47.2441 
  "/>
<polyline clip-path="url(#clip830)" style="stroke:#000000; stroke-linecap:round; stroke-linejoin:round; stroke-width:4; stroke-opacity:1; fill:none" points="
  111.217,1384.15 130.115,1384.15 
  "/>
<polyline clip-path="url(#clip830)" style="stroke:#000000; stroke-linecap:round; stroke-linejoin:round; stroke-width:4; stroke-opacity:1; fill:none" points="
  111.217,1164.15 130.115,1164.15 
  "/>
<polyline clip-path="url(#clip830)" style="stroke:#000000; stroke-linecap:round; stroke-linejoin:round; stroke-width:4; stroke-opacity:1; fill:none" points="
  111.217,944.16 130.115,944.16 
  "/>
<polyline clip-path="url(#clip830)" style="stroke:#000000; stroke-linecap:round; stroke-linejoin:round; stroke-width:4; stroke-opacity:1; fill:none" points="
  111.217,724.166 130.115,724.166 
  "/>
<polyline clip-path="url(#clip830)" style="stroke:#000000; stroke-linecap:round; stroke-linejoin:round; stroke-width:4; stroke-opacity:1; fill:none" points="
  111.217,504.172 130.115,504.172 
  "/>
<polyline clip-path="url(#clip830)" style="stroke:#000000; stroke-linecap:round; stroke-linejoin:round; stroke-width:4; stroke-opacity:1; fill:none" points="
  111.217,284.178 130.115,284.178 
  "/>
<polyline clip-path="url(#clip830)" style="stroke:#000000; stroke-linecap:round; stroke-linejoin:round; stroke-width:4; stroke-opacity:1; fill:none" points="
  111.217,64.1836 130.115,64.1836 
  "/>
<path clip-path="url(#clip830)" d="M56.7499 1397.49 L64.3887 1397.49 L64.3887 1371.13 L56.0786 1372.79 L56.0786 1368.54 L64.3424 1366.87 L69.0183 1366.87 L69.0183 1397.49 L76.6572 1397.49 L76.6572 1401.43 L56.7499 1401.43 L56.7499 1397.49 Z" fill="#000000" fill-rule="evenodd" fill-opacity="1" /><path clip-path="url(#clip830)" d="M60.3378 1177.5 L76.6572 1177.5 L76.6572 1181.43 L54.7128 1181.43 L54.7128 1177.5 Q57.3749 1174.74 61.9582 1170.12 Q66.5646 1165.46 67.7452 1164.12 Q69.9905 1161.6 70.8702 1159.86 Q71.7729 1158.1 71.7729 1156.41 Q71.7729 1153.66 69.8285 1151.92 Q67.9072 1150.18 64.8054 1150.18 Q62.6063 1150.18 60.1526 1150.95 Q57.7221 1151.71 54.9443 1153.26 L54.9443 1148.54 Q57.7684 1147.41 60.2221 1146.83 Q62.6758 1146.25 64.7128 1146.25 Q70.0831 1146.25 73.2776 1148.93 Q76.472 1151.62 76.472 1156.11 Q76.472 1158.24 75.6618 1160.16 Q74.8748 1162.06 72.7683 1164.65 Q72.1896 1165.32 69.0878 1168.54 Q65.9859 1171.74 60.3378 1177.5 Z" fill="#000000" fill-rule="evenodd" fill-opacity="1" /><path clip-path="url(#clip830)" d="M69.5276 942.806 Q72.884 943.524 74.759 945.792 Q76.6572 948.061 76.6572 951.394 Q76.6572 956.51 73.1387 959.311 Q69.6202 962.112 63.1387 962.112 Q60.9628 962.112 58.648 961.672 Q56.3564 961.255 53.9027 960.399 L53.9027 955.885 Q55.8471 957.019 58.1619 957.598 Q60.4767 958.177 62.9998 958.177 Q67.398 958.177 69.6896 956.441 Q72.0044 954.704 72.0044 951.394 Q72.0044 948.339 69.8517 946.626 Q67.722 944.89 63.9026 944.89 L59.8749 944.89 L59.8749 941.047 L64.0878 941.047 Q67.5369 941.047 69.3655 939.681 Q71.1942 938.292 71.1942 935.7 Q71.1942 933.038 69.2961 931.626 Q67.4211 930.191 63.9026 930.191 Q61.9813 930.191 59.7823 930.607 Q57.5832 931.024 54.9443 931.904 L54.9443 927.737 Q57.6064 926.996 59.9212 926.626 Q62.2591 926.255 64.3193 926.255 Q69.6433 926.255 72.7452 928.686 Q75.847 931.093 75.847 935.214 Q75.847 938.084 74.2035 940.075 Q72.56 942.042 69.5276 942.806 Z" fill="#000000" fill-rule="evenodd" fill-opacity="1" /><path clip-path="url(#clip830)" d="M67.0739 710.96 L55.2684 729.409 L67.0739 729.409 L67.0739 710.96 M65.847 706.886 L71.7266 706.886 L71.7266 729.409 L76.6572 729.409 L76.6572 733.298 L71.7266 733.298 L71.7266 741.446 L67.0739 741.446 L67.0739 733.298 L51.4721 733.298 L51.4721 728.784 L65.847 706.886 Z" fill="#000000" fill-rule="evenodd" fill-opacity="1" /><path clip-path="url(#clip830)" d="M55.7545 486.892 L74.1109 486.892 L74.1109 490.827 L60.0369 490.827 L60.0369 499.299 Q61.0554 498.952 62.0739 498.79 Q63.0924 498.605 64.1109 498.605 Q69.898 498.605 73.2776 501.776 Q76.6572 504.948 76.6572 510.364 Q76.6572 515.943 73.185 519.045 Q69.7128 522.123 63.3934 522.123 Q61.2174 522.123 58.9489 521.753 Q56.7036 521.383 54.2962 520.642 L54.2962 515.943 Q56.3795 517.077 58.6017 517.633 Q60.8239 518.188 63.3008 518.188 Q67.3054 518.188 69.6433 516.082 Q71.9813 513.975 71.9813 510.364 Q71.9813 506.753 69.6433 504.647 Q67.3054 502.54 63.3008 502.54 Q61.4258 502.54 59.5508 502.957 Q57.6989 503.373 55.7545 504.253 L55.7545 486.892 Z" fill="#000000" fill-rule="evenodd" fill-opacity="1" /><path clip-path="url(#clip830)" d="M65.1295 282.314 Q61.9813 282.314 60.1295 284.467 Q58.3008 286.62 58.3008 290.37 Q58.3008 294.097 60.1295 296.273 Q61.9813 298.425 65.1295 298.425 Q68.2776 298.425 70.1063 296.273 Q71.9581 294.097 71.9581 290.37 Q71.9581 286.62 70.1063 284.467 Q68.2776 282.314 65.1295 282.314 M74.4118 267.662 L74.4118 271.921 Q72.6526 271.088 70.847 270.648 Q69.0646 270.208 67.3054 270.208 Q62.6758 270.208 60.2221 273.333 Q57.7915 276.458 57.4443 282.777 Q58.81 280.764 60.8702 279.699 Q62.9304 278.611 65.4072 278.611 Q70.6155 278.611 73.6248 281.782 Q76.6572 284.93 76.6572 290.37 Q76.6572 295.694 73.509 298.912 Q70.3609 302.129 65.1295 302.129 Q59.1341 302.129 55.9628 297.546 Q52.7916 292.939 52.7916 284.213 Q52.7916 276.018 56.6804 271.157 Q60.5693 266.273 67.1202 266.273 Q68.8794 266.273 70.6618 266.62 Q72.4674 266.967 74.4118 267.662 Z" fill="#000000" fill-rule="evenodd" fill-opacity="1" /><path clip-path="url(#clip830)" d="M54.4351 46.9036 L76.6572 46.9036 L76.6572 48.8944 L64.1109 81.4636 L59.2267 81.4636 L71.0322 50.8388 L54.4351 50.8388 L54.4351 46.9036 Z" fill="#000000" fill-rule="evenodd" fill-opacity="1" /><circle clip-path="url(#clip832)" cx="256.277" cy="1296.15" r="14.4" fill="#009af9" fill-rule="evenodd" fill-opacity="0.33" stroke="#000000" stroke-opacity="0.33" stroke-width="3.072"/>
<circle clip-path="url(#clip832)" cx="256.277" cy="1296.15" r="14.4" fill="#009af9" fill-rule="evenodd" fill-opacity="0.33" stroke="#000000" stroke-opacity="0.33" stroke-width="3.072"/>
<circle clip-path="url(#clip832)" cx="256.277" cy="1318.15" r="14.4" fill="#009af9" fill-rule="evenodd" fill-opacity="0.33" stroke="#000000" stroke-opacity="0.33" stroke-width="3.072"/>
<circle clip-path="url(#clip832)" cx="256.277" cy="1274.15" r="14.4" fill="#009af9" fill-rule="evenodd" fill-opacity="0.33" stroke="#000000" stroke-opacity="0.33" stroke-width="3.072"/>
<circle clip-path="url(#clip832)" cx="256.277" cy="1296.15" r="14.4" fill="#009af9" fill-rule="evenodd" fill-opacity="0.33" stroke="#000000" stroke-opacity="0.33" stroke-width="3.072"/>
<circle clip-path="url(#clip832)" cx="424.952" cy="1230.15" r="14.4" fill="#009af9" fill-rule="evenodd" fill-opacity="0.33" stroke="#000000" stroke-opacity="0.33" stroke-width="3.072"/>
<circle clip-path="url(#clip832)" cx="340.614" cy="1296.15" r="14.4" fill="#009af9" fill-rule="evenodd" fill-opacity="0.33" stroke="#000000" stroke-opacity="0.33" stroke-width="3.072"/>
<circle clip-path="url(#clip832)" cx="256.277" cy="1274.15" r="14.4" fill="#009af9" fill-rule="evenodd" fill-opacity="0.33" stroke="#000000" stroke-opacity="0.33" stroke-width="3.072"/>
<circle clip-path="url(#clip832)" cx="256.277" cy="1296.15" r="14.4" fill="#009af9" fill-rule="evenodd" fill-opacity="0.33" stroke="#000000" stroke-opacity="0.33" stroke-width="3.072"/>
<circle clip-path="url(#clip832)" cx="171.94" cy="1274.15" r="14.4" fill="#009af9" fill-rule="evenodd" fill-opacity="0.33" stroke="#000000" stroke-opacity="0.33" stroke-width="3.072"/>
<circle clip-path="url(#clip832)" cx="256.277" cy="1274.15" r="14.4" fill="#009af9" fill-rule="evenodd" fill-opacity="0.33" stroke="#000000" stroke-opacity="0.33" stroke-width="3.072"/>
<circle clip-path="url(#clip832)" cx="256.277" cy="1252.15" r="14.4" fill="#009af9" fill-rule="evenodd" fill-opacity="0.33" stroke="#000000" stroke-opacity="0.33" stroke-width="3.072"/>
<circle clip-path="url(#clip832)" cx="171.94" cy="1296.15" r="14.4" fill="#009af9" fill-rule="evenodd" fill-opacity="0.33" stroke="#000000" stroke-opacity="0.33" stroke-width="3.072"/>
<circle clip-path="url(#clip832)" cx="171.94" cy="1362.15" r="14.4" fill="#009af9" fill-rule="evenodd" fill-opacity="0.33" stroke="#000000" stroke-opacity="0.33" stroke-width="3.072"/>
<circle clip-path="url(#clip832)" cx="256.277" cy="1340.15" r="14.4" fill="#009af9" fill-rule="evenodd" fill-opacity="0.33" stroke="#000000" stroke-opacity="0.33" stroke-width="3.072"/>
<circle clip-path="url(#clip832)" cx="424.952" cy="1274.15" r="14.4" fill="#009af9" fill-rule="evenodd" fill-opacity="0.33" stroke="#000000" stroke-opacity="0.33" stroke-width="3.072"/>
<circle clip-path="url(#clip832)" cx="424.952" cy="1318.15" r="14.4" fill="#009af9" fill-rule="evenodd" fill-opacity="0.33" stroke="#000000" stroke-opacity="0.33" stroke-width="3.072"/>
<circle clip-path="url(#clip832)" cx="340.614" cy="1296.15" r="14.4" fill="#009af9" fill-rule="evenodd" fill-opacity="0.33" stroke="#000000" stroke-opacity="0.33" stroke-width="3.072"/>
<circle clip-path="url(#clip832)" cx="340.614" cy="1230.15" r="14.4" fill="#009af9" fill-rule="evenodd" fill-opacity="0.33" stroke="#000000" stroke-opacity="0.33" stroke-width="3.072"/>
<circle clip-path="url(#clip832)" cx="340.614" cy="1274.15" r="14.4" fill="#009af9" fill-rule="evenodd" fill-opacity="0.33" stroke="#000000" stroke-opacity="0.33" stroke-width="3.072"/>
<circle clip-path="url(#clip832)" cx="256.277" cy="1230.15" r="14.4" fill="#009af9" fill-rule="evenodd" fill-opacity="0.33" stroke="#000000" stroke-opacity="0.33" stroke-width="3.072"/>
<circle clip-path="url(#clip832)" cx="424.952" cy="1274.15" r="14.4" fill="#009af9" fill-rule="evenodd" fill-opacity="0.33" stroke="#000000" stroke-opacity="0.33" stroke-width="3.072"/>
<circle clip-path="url(#clip832)" cx="256.277" cy="1384.15" r="14.4" fill="#009af9" fill-rule="evenodd" fill-opacity="0.33" stroke="#000000" stroke-opacity="0.33" stroke-width="3.072"/>
<circle clip-path="url(#clip832)" cx="509.289" cy="1230.15" r="14.4" fill="#009af9" fill-rule="evenodd" fill-opacity="0.33" stroke="#000000" stroke-opacity="0.33" stroke-width="3.072"/>
<circle clip-path="url(#clip832)" cx="256.277" cy="1186.15" r="14.4" fill="#009af9" fill-rule="evenodd" fill-opacity="0.33" stroke="#000000" stroke-opacity="0.33" stroke-width="3.072"/>
<circle clip-path="url(#clip832)" cx="256.277" cy="1252.15" r="14.4" fill="#009af9" fill-rule="evenodd" fill-opacity="0.33" stroke="#000000" stroke-opacity="0.33" stroke-width="3.072"/>
<circle clip-path="url(#clip832)" cx="424.952" cy="1252.15" r="14.4" fill="#009af9" fill-rule="evenodd" fill-opacity="0.33" stroke="#000000" stroke-opacity="0.33" stroke-width="3.072"/>
<circle clip-path="url(#clip832)" cx="256.277" cy="1274.15" r="14.4" fill="#009af9" fill-rule="evenodd" fill-opacity="0.33" stroke="#000000" stroke-opacity="0.33" stroke-width="3.072"/>
<circle clip-path="url(#clip832)" cx="256.277" cy="1296.15" r="14.4" fill="#009af9" fill-rule="evenodd" fill-opacity="0.33" stroke="#000000" stroke-opacity="0.33" stroke-width="3.072"/>
<circle clip-path="url(#clip832)" cx="256.277" cy="1252.15" r="14.4" fill="#009af9" fill-rule="evenodd" fill-opacity="0.33" stroke="#000000" stroke-opacity="0.33" stroke-width="3.072"/>
<circle clip-path="url(#clip832)" cx="256.277" cy="1252.15" r="14.4" fill="#009af9" fill-rule="evenodd" fill-opacity="0.33" stroke="#000000" stroke-opacity="0.33" stroke-width="3.072"/>
<circle clip-path="url(#clip832)" cx="424.952" cy="1274.15" r="14.4" fill="#009af9" fill-rule="evenodd" fill-opacity="0.33" stroke="#000000" stroke-opacity="0.33" stroke-width="3.072"/>
<circle clip-path="url(#clip832)" cx="171.94" cy="1274.15" r="14.4" fill="#009af9" fill-rule="evenodd" fill-opacity="0.33" stroke="#000000" stroke-opacity="0.33" stroke-width="3.072"/>
<circle clip-path="url(#clip832)" cx="256.277" cy="1296.15" r="14.4" fill="#009af9" fill-rule="evenodd" fill-opacity="0.33" stroke="#000000" stroke-opacity="0.33" stroke-width="3.072"/>
<circle clip-path="url(#clip832)" cx="256.277" cy="1274.15" r="14.4" fill="#009af9" fill-rule="evenodd" fill-opacity="0.33" stroke="#000000" stroke-opacity="0.33" stroke-width="3.072"/>
<circle clip-path="url(#clip832)" cx="256.277" cy="1340.15" r="14.4" fill="#009af9" fill-rule="evenodd" fill-opacity="0.33" stroke="#000000" stroke-opacity="0.33" stroke-width="3.072"/>
<circle clip-path="url(#clip832)" cx="256.277" cy="1318.15" r="14.4" fill="#009af9" fill-rule="evenodd" fill-opacity="0.33" stroke="#000000" stroke-opacity="0.33" stroke-width="3.072"/>
<circle clip-path="url(#clip832)" cx="171.94" cy="1296.15" r="14.4" fill="#009af9" fill-rule="evenodd" fill-opacity="0.33" stroke="#000000" stroke-opacity="0.33" stroke-width="3.072"/>
<circle clip-path="url(#clip832)" cx="256.277" cy="1318.15" r="14.4" fill="#009af9" fill-rule="evenodd" fill-opacity="0.33" stroke="#000000" stroke-opacity="0.33" stroke-width="3.072"/>
<circle clip-path="url(#clip832)" cx="256.277" cy="1274.15" r="14.4" fill="#009af9" fill-rule="evenodd" fill-opacity="0.33" stroke="#000000" stroke-opacity="0.33" stroke-width="3.072"/>
<circle clip-path="url(#clip832)" cx="340.614" cy="1318.15" r="14.4" fill="#009af9" fill-rule="evenodd" fill-opacity="0.33" stroke="#000000" stroke-opacity="0.33" stroke-width="3.072"/>
<circle clip-path="url(#clip832)" cx="340.614" cy="1318.15" r="14.4" fill="#009af9" fill-rule="evenodd" fill-opacity="0.33" stroke="#000000" stroke-opacity="0.33" stroke-width="3.072"/>
<circle clip-path="url(#clip832)" cx="256.277" cy="1318.15" r="14.4" fill="#009af9" fill-rule="evenodd" fill-opacity="0.33" stroke="#000000" stroke-opacity="0.33" stroke-width="3.072"/>
<circle clip-path="url(#clip832)" cx="593.626" cy="1252.15" r="14.4" fill="#009af9" fill-rule="evenodd" fill-opacity="0.33" stroke="#000000" stroke-opacity="0.33" stroke-width="3.072"/>
<circle clip-path="url(#clip832)" cx="424.952" cy="1186.15" r="14.4" fill="#009af9" fill-rule="evenodd" fill-opacity="0.33" stroke="#000000" stroke-opacity="0.33" stroke-width="3.072"/>
<circle clip-path="url(#clip832)" cx="340.614" cy="1296.15" r="14.4" fill="#009af9" fill-rule="evenodd" fill-opacity="0.33" stroke="#000000" stroke-opacity="0.33" stroke-width="3.072"/>
<circle clip-path="url(#clip832)" cx="256.277" cy="1252.15" r="14.4" fill="#009af9" fill-rule="evenodd" fill-opacity="0.33" stroke="#000000" stroke-opacity="0.33" stroke-width="3.072"/>
<circle clip-path="url(#clip832)" cx="256.277" cy="1296.15" r="14.4" fill="#009af9" fill-rule="evenodd" fill-opacity="0.33" stroke="#000000" stroke-opacity="0.33" stroke-width="3.072"/>
<circle clip-path="url(#clip832)" cx="256.277" cy="1274.15" r="14.4" fill="#009af9" fill-rule="evenodd" fill-opacity="0.33" stroke="#000000" stroke-opacity="0.33" stroke-width="3.072"/>
<circle clip-path="url(#clip832)" cx="256.277" cy="1296.15" r="14.4" fill="#009af9" fill-rule="evenodd" fill-opacity="0.33" stroke="#000000" stroke-opacity="0.33" stroke-width="3.072"/>
<circle clip-path="url(#clip832)" cx="1268.32" cy="570.17" r="14.4" fill="#e26f46" fill-rule="evenodd" fill-opacity="0.33" stroke="#000000" stroke-opacity="0.33" stroke-width="3.072"/>
<circle clip-path="url(#clip832)" cx="1352.66" cy="614.169" r="14.4" fill="#e26f46" fill-rule="evenodd" fill-opacity="0.33" stroke="#000000" stroke-opacity="0.33" stroke-width="3.072"/>
<circle clip-path="url(#clip832)" cx="1352.66" cy="526.171" r="14.4" fill="#e26f46" fill-rule="evenodd" fill-opacity="0.33" stroke="#000000" stroke-opacity="0.33" stroke-width="3.072"/>
<circle clip-path="url(#clip832)" cx="1183.99" cy="724.166" r="14.4" fill="#e26f46" fill-rule="evenodd" fill-opacity="0.33" stroke="#000000" stroke-opacity="0.33" stroke-width="3.072"/>
<circle clip-path="url(#clip832)" cx="1352.66" cy="592.17" r="14.4" fill="#e26f46" fill-rule="evenodd" fill-opacity="0.33" stroke="#000000" stroke-opacity="0.33" stroke-width="3.072"/>
<circle clip-path="url(#clip832)" cx="1183.99" cy="614.169" r="14.4" fill="#e26f46" fill-rule="evenodd" fill-opacity="0.33" stroke="#000000" stroke-opacity="0.33" stroke-width="3.072"/>
<circle clip-path="url(#clip832)" cx="1437" cy="570.17" r="14.4" fill="#e26f46" fill-rule="evenodd" fill-opacity="0.33" stroke="#000000" stroke-opacity="0.33" stroke-width="3.072"/>
<circle clip-path="url(#clip832)" cx="930.975" cy="878.162" r="14.4" fill="#e26f46" fill-rule="evenodd" fill-opacity="0.33" stroke="#000000" stroke-opacity="0.33" stroke-width="3.072"/>
<circle clip-path="url(#clip832)" cx="1183.99" cy="592.17" r="14.4" fill="#e26f46" fill-rule="evenodd" fill-opacity="0.33" stroke="#000000" stroke-opacity="0.33" stroke-width="3.072"/>
<circle clip-path="url(#clip832)" cx="1268.32" cy="746.166" r="14.4" fill="#e26f46" fill-rule="evenodd" fill-opacity="0.33" stroke="#000000" stroke-opacity="0.33" stroke-width="3.072"/>
<circle clip-path="url(#clip832)" cx="930.975" cy="834.163" r="14.4" fill="#e26f46" fill-rule="evenodd" fill-opacity="0.33" stroke="#000000" stroke-opacity="0.33" stroke-width="3.072"/>
<circle clip-path="url(#clip832)" cx="1352.66" cy="680.167" r="14.4" fill="#e26f46" fill-rule="evenodd" fill-opacity="0.33" stroke="#000000" stroke-opacity="0.33" stroke-width="3.072"/>
<circle clip-path="url(#clip832)" cx="930.975" cy="724.166" r="14.4" fill="#e26f46" fill-rule="evenodd" fill-opacity="0.33" stroke="#000000" stroke-opacity="0.33" stroke-width="3.072"/>
<circle clip-path="url(#clip832)" cx="1268.32" cy="570.17" r="14.4" fill="#e26f46" fill-rule="evenodd" fill-opacity="0.33" stroke="#000000" stroke-opacity="0.33" stroke-width="3.072"/>
<circle clip-path="url(#clip832)" cx="1183.99" cy="812.164" r="14.4" fill="#e26f46" fill-rule="evenodd" fill-opacity="0.33" stroke="#000000" stroke-opacity="0.33" stroke-width="3.072"/>
<circle clip-path="url(#clip832)" cx="1268.32" cy="636.169" r="14.4" fill="#e26f46" fill-rule="evenodd" fill-opacity="0.33" stroke="#000000" stroke-opacity="0.33" stroke-width="3.072"/>
<circle clip-path="url(#clip832)" cx="1352.66" cy="614.169" r="14.4" fill="#e26f46" fill-rule="evenodd" fill-opacity="0.33" stroke="#000000" stroke-opacity="0.33" stroke-width="3.072"/>
<circle clip-path="url(#clip832)" cx="930.975" cy="702.167" r="14.4" fill="#e26f46" fill-rule="evenodd" fill-opacity="0.33" stroke="#000000" stroke-opacity="0.33" stroke-width="3.072"/>
<circle clip-path="url(#clip832)" cx="1352.66" cy="614.169" r="14.4" fill="#e26f46" fill-rule="evenodd" fill-opacity="0.33" stroke="#000000" stroke-opacity="0.33" stroke-width="3.072"/>
<circle clip-path="url(#clip832)" cx="1015.31" cy="746.166" r="14.4" fill="#e26f46" fill-rule="evenodd" fill-opacity="0.33" stroke="#000000" stroke-opacity="0.33" stroke-width="3.072"/>
<circle clip-path="url(#clip832)" cx="1605.67" cy="548.171" r="14.4" fill="#e26f46" fill-rule="evenodd" fill-opacity="0.33" stroke="#000000" stroke-opacity="0.33" stroke-width="3.072"/>
<circle clip-path="url(#clip832)" cx="1183.99" cy="724.166" r="14.4" fill="#e26f46" fill-rule="evenodd" fill-opacity="0.33" stroke="#000000" stroke-opacity="0.33" stroke-width="3.072"/>
<circle clip-path="url(#clip832)" cx="1352.66" cy="526.171" r="14.4" fill="#e26f46" fill-rule="evenodd" fill-opacity="0.33" stroke="#000000" stroke-opacity="0.33" stroke-width="3.072"/>
<circle clip-path="url(#clip832)" cx="1099.65" cy="570.17" r="14.4" fill="#e26f46" fill-rule="evenodd" fill-opacity="0.33" stroke="#000000" stroke-opacity="0.33" stroke-width="3.072"/>
<circle clip-path="url(#clip832)" cx="1183.99" cy="658.168" r="14.4" fill="#e26f46" fill-rule="evenodd" fill-opacity="0.33" stroke="#000000" stroke-opacity="0.33" stroke-width="3.072"/>
<circle clip-path="url(#clip832)" cx="1268.32" cy="636.169" r="14.4" fill="#e26f46" fill-rule="evenodd" fill-opacity="0.33" stroke="#000000" stroke-opacity="0.33" stroke-width="3.072"/>
<circle clip-path="url(#clip832)" cx="1268.32" cy="548.171" r="14.4" fill="#e26f46" fill-rule="evenodd" fill-opacity="0.33" stroke="#000000" stroke-opacity="0.33" stroke-width="3.072"/>
<circle clip-path="url(#clip832)" cx="1521.34" cy="504.172" r="14.4" fill="#e26f46" fill-rule="evenodd" fill-opacity="0.33" stroke="#000000" stroke-opacity="0.33" stroke-width="3.072"/>
<circle clip-path="url(#clip832)" cx="1352.66" cy="614.169" r="14.4" fill="#e26f46" fill-rule="evenodd" fill-opacity="0.33" stroke="#000000" stroke-opacity="0.33" stroke-width="3.072"/>
<circle clip-path="url(#clip832)" cx="930.975" cy="834.163" r="14.4" fill="#e26f46" fill-rule="evenodd" fill-opacity="0.33" stroke="#000000" stroke-opacity="0.33" stroke-width="3.072"/>
<circle clip-path="url(#clip832)" cx="1015.31" cy="768.165" r="14.4" fill="#e26f46" fill-rule="evenodd" fill-opacity="0.33" stroke="#000000" stroke-opacity="0.33" stroke-width="3.072"/>
<circle clip-path="url(#clip832)" cx="930.975" cy="790.165" r="14.4" fill="#e26f46" fill-rule="evenodd" fill-opacity="0.33" stroke="#000000" stroke-opacity="0.33" stroke-width="3.072"/>
<circle clip-path="url(#clip832)" cx="1099.65" cy="746.166" r="14.4" fill="#e26f46" fill-rule="evenodd" fill-opacity="0.33" stroke="#000000" stroke-opacity="0.33" stroke-width="3.072"/>
<circle clip-path="url(#clip832)" cx="1437" cy="482.173" r="14.4" fill="#e26f46" fill-rule="evenodd" fill-opacity="0.33" stroke="#000000" stroke-opacity="0.33" stroke-width="3.072"/>
<circle clip-path="url(#clip832)" cx="1352.66" cy="614.169" r="14.4" fill="#e26f46" fill-rule="evenodd" fill-opacity="0.33" stroke="#000000" stroke-opacity="0.33" stroke-width="3.072"/>
<circle clip-path="url(#clip832)" cx="1437" cy="614.169" r="14.4" fill="#e26f46" fill-rule="evenodd" fill-opacity="0.33" stroke="#000000" stroke-opacity="0.33" stroke-width="3.072"/>
<circle clip-path="url(#clip832)" cx="1352.66" cy="570.17" r="14.4" fill="#e26f46" fill-rule="evenodd" fill-opacity="0.33" stroke="#000000" stroke-opacity="0.33" stroke-width="3.072"/>
<circle clip-path="url(#clip832)" cx="1183.99" cy="636.169" r="14.4" fill="#e26f46" fill-rule="evenodd" fill-opacity="0.33" stroke="#000000" stroke-opacity="0.33" stroke-width="3.072"/>
<circle clip-path="url(#clip832)" cx="1183.99" cy="702.167" r="14.4" fill="#e26f46" fill-rule="evenodd" fill-opacity="0.33" stroke="#000000" stroke-opacity="0.33" stroke-width="3.072"/>
<circle clip-path="url(#clip832)" cx="1183.99" cy="724.166" r="14.4" fill="#e26f46" fill-rule="evenodd" fill-opacity="0.33" stroke="#000000" stroke-opacity="0.33" stroke-width="3.072"/>
<circle clip-path="url(#clip832)" cx="1099.65" cy="636.169" r="14.4" fill="#e26f46" fill-rule="evenodd" fill-opacity="0.33" stroke="#000000" stroke-opacity="0.33" stroke-width="3.072"/>
<circle clip-path="url(#clip832)" cx="1268.32" cy="592.17" r="14.4" fill="#e26f46" fill-rule="evenodd" fill-opacity="0.33" stroke="#000000" stroke-opacity="0.33" stroke-width="3.072"/>
<circle clip-path="url(#clip832)" cx="1099.65" cy="724.166" r="14.4" fill="#e26f46" fill-rule="evenodd" fill-opacity="0.33" stroke="#000000" stroke-opacity="0.33" stroke-width="3.072"/>
<circle clip-path="url(#clip832)" cx="930.975" cy="878.162" r="14.4" fill="#e26f46" fill-rule="evenodd" fill-opacity="0.33" stroke="#000000" stroke-opacity="0.33" stroke-width="3.072"/>
<circle clip-path="url(#clip832)" cx="1183.99" cy="680.167" r="14.4" fill="#e26f46" fill-rule="evenodd" fill-opacity="0.33" stroke="#000000" stroke-opacity="0.33" stroke-width="3.072"/>
<circle clip-path="url(#clip832)" cx="1099.65" cy="680.167" r="14.4" fill="#e26f46" fill-rule="evenodd" fill-opacity="0.33" stroke="#000000" stroke-opacity="0.33" stroke-width="3.072"/>
<circle clip-path="url(#clip832)" cx="1183.99" cy="680.167" r="14.4" fill="#e26f46" fill-rule="evenodd" fill-opacity="0.33" stroke="#000000" stroke-opacity="0.33" stroke-width="3.072"/>
<circle clip-path="url(#clip832)" cx="1183.99" cy="658.168" r="14.4" fill="#e26f46" fill-rule="evenodd" fill-opacity="0.33" stroke="#000000" stroke-opacity="0.33" stroke-width="3.072"/>
<circle clip-path="url(#clip832)" cx="1015.31" cy="944.16" r="14.4" fill="#e26f46" fill-rule="evenodd" fill-opacity="0.33" stroke="#000000" stroke-opacity="0.33" stroke-width="3.072"/>
<circle clip-path="url(#clip832)" cx="1183.99" cy="702.167" r="14.4" fill="#e26f46" fill-rule="evenodd" fill-opacity="0.33" stroke="#000000" stroke-opacity="0.33" stroke-width="3.072"/>
<circle clip-path="url(#clip832)" cx="2196.03" cy="284.178" r="14.4" fill="#3da44d" fill-rule="evenodd" fill-opacity="0.33" stroke="#000000" stroke-opacity="0.33" stroke-width="3.072"/>
<circle clip-path="url(#clip832)" cx="1690.01" cy="482.173" r="14.4" fill="#3da44d" fill-rule="evenodd" fill-opacity="0.33" stroke="#000000" stroke-opacity="0.33" stroke-width="3.072"/>
<circle clip-path="url(#clip832)" cx="1858.68" cy="306.177" r="14.4" fill="#3da44d" fill-rule="evenodd" fill-opacity="0.33" stroke="#000000" stroke-opacity="0.33" stroke-width="3.072"/>
<circle clip-path="url(#clip832)" cx="1605.67" cy="372.176" r="14.4" fill="#3da44d" fill-rule="evenodd" fill-opacity="0.33" stroke="#000000" stroke-opacity="0.33" stroke-width="3.072"/>
<circle clip-path="url(#clip832)" cx="1943.02" cy="328.177" r="14.4" fill="#3da44d" fill-rule="evenodd" fill-opacity="0.33" stroke="#000000" stroke-opacity="0.33" stroke-width="3.072"/>
<circle clip-path="url(#clip832)" cx="1858.68" cy="152.181" r="14.4" fill="#3da44d" fill-rule="evenodd" fill-opacity="0.33" stroke="#000000" stroke-opacity="0.33" stroke-width="3.072"/>
<circle clip-path="url(#clip832)" cx="1521.34" cy="614.169" r="14.4" fill="#3da44d" fill-rule="evenodd" fill-opacity="0.33" stroke="#000000" stroke-opacity="0.33" stroke-width="3.072"/>
<circle clip-path="url(#clip832)" cx="1605.67" cy="218.18" r="14.4" fill="#3da44d" fill-rule="evenodd" fill-opacity="0.33" stroke="#000000" stroke-opacity="0.33" stroke-width="3.072"/>
<circle clip-path="url(#clip832)" cx="1605.67" cy="328.177" r="14.4" fill="#3da44d" fill-rule="evenodd" fill-opacity="0.33" stroke="#000000" stroke-opacity="0.33" stroke-width="3.072"/>
<circle clip-path="url(#clip832)" cx="2196.03" cy="262.178" r="14.4" fill="#3da44d" fill-rule="evenodd" fill-opacity="0.33" stroke="#000000" stroke-opacity="0.33" stroke-width="3.072"/>
<circle clip-path="url(#clip832)" cx="1774.35" cy="482.173" r="14.4" fill="#3da44d" fill-rule="evenodd" fill-opacity="0.33" stroke="#000000" stroke-opacity="0.33" stroke-width="3.072"/>
<circle clip-path="url(#clip832)" cx="1690.01" cy="438.174" r="14.4" fill="#3da44d" fill-rule="evenodd" fill-opacity="0.33" stroke="#000000" stroke-opacity="0.33" stroke-width="3.072"/>
<circle clip-path="url(#clip832)" cx="1858.68" cy="394.175" r="14.4" fill="#3da44d" fill-rule="evenodd" fill-opacity="0.33" stroke="#000000" stroke-opacity="0.33" stroke-width="3.072"/>
<circle clip-path="url(#clip832)" cx="1774.35" cy="504.172" r="14.4" fill="#3da44d" fill-rule="evenodd" fill-opacity="0.33" stroke="#000000" stroke-opacity="0.33" stroke-width="3.072"/>
<circle clip-path="url(#clip832)" cx="2111.7" cy="482.173" r="14.4" fill="#3da44d" fill-rule="evenodd" fill-opacity="0.33" stroke="#000000" stroke-opacity="0.33" stroke-width="3.072"/>
<circle clip-path="url(#clip832)" cx="2027.36" cy="438.174" r="14.4" fill="#3da44d" fill-rule="evenodd" fill-opacity="0.33" stroke="#000000" stroke-opacity="0.33" stroke-width="3.072"/>
<circle clip-path="url(#clip832)" cx="1605.67" cy="394.175" r="14.4" fill="#3da44d" fill-rule="evenodd" fill-opacity="0.33" stroke="#000000" stroke-opacity="0.33" stroke-width="3.072"/>
<circle clip-path="url(#clip832)" cx="1943.02" cy="130.182" r="14.4" fill="#3da44d" fill-rule="evenodd" fill-opacity="0.33" stroke="#000000" stroke-opacity="0.33" stroke-width="3.072"/>
<circle clip-path="url(#clip832)" cx="2027.36" cy="86.1831" r="14.4" fill="#3da44d" fill-rule="evenodd" fill-opacity="0.33" stroke="#000000" stroke-opacity="0.33" stroke-width="3.072"/>
<circle clip-path="url(#clip832)" cx="1352.66" cy="504.172" r="14.4" fill="#3da44d" fill-rule="evenodd" fill-opacity="0.33" stroke="#000000" stroke-opacity="0.33" stroke-width="3.072"/>
<circle clip-path="url(#clip832)" cx="2027.36" cy="350.176" r="14.4" fill="#3da44d" fill-rule="evenodd" fill-opacity="0.33" stroke="#000000" stroke-opacity="0.33" stroke-width="3.072"/>
<circle clip-path="url(#clip832)" cx="1774.35" cy="526.171" r="14.4" fill="#3da44d" fill-rule="evenodd" fill-opacity="0.33" stroke="#000000" stroke-opacity="0.33" stroke-width="3.072"/>
<circle clip-path="url(#clip832)" cx="1774.35" cy="130.182" r="14.4" fill="#3da44d" fill-rule="evenodd" fill-opacity="0.33" stroke="#000000" stroke-opacity="0.33" stroke-width="3.072"/>
<circle clip-path="url(#clip832)" cx="1605.67" cy="526.171" r="14.4" fill="#3da44d" fill-rule="evenodd" fill-opacity="0.33" stroke="#000000" stroke-opacity="0.33" stroke-width="3.072"/>
<circle clip-path="url(#clip832)" cx="1858.68" cy="350.176" r="14.4" fill="#3da44d" fill-rule="evenodd" fill-opacity="0.33" stroke="#000000" stroke-opacity="0.33" stroke-width="3.072"/>
<circle clip-path="url(#clip832)" cx="1605.67" cy="284.178" r="14.4" fill="#3da44d" fill-rule="evenodd" fill-opacity="0.33" stroke="#000000" stroke-opacity="0.33" stroke-width="3.072"/>
<circle clip-path="url(#clip832)" cx="1605.67" cy="548.171" r="14.4" fill="#3da44d" fill-rule="evenodd" fill-opacity="0.33" stroke="#000000" stroke-opacity="0.33" stroke-width="3.072"/>
<circle clip-path="url(#clip832)" cx="1605.67" cy="526.171" r="14.4" fill="#3da44d" fill-rule="evenodd" fill-opacity="0.33" stroke="#000000" stroke-opacity="0.33" stroke-width="3.072"/>
<circle clip-path="url(#clip832)" cx="1858.68" cy="372.176" r="14.4" fill="#3da44d" fill-rule="evenodd" fill-opacity="0.33" stroke="#000000" stroke-opacity="0.33" stroke-width="3.072"/>
<circle clip-path="url(#clip832)" cx="1437" cy="328.177" r="14.4" fill="#3da44d" fill-rule="evenodd" fill-opacity="0.33" stroke="#000000" stroke-opacity="0.33" stroke-width="3.072"/>
<circle clip-path="url(#clip832)" cx="1690.01" cy="262.178" r="14.4" fill="#3da44d" fill-rule="evenodd" fill-opacity="0.33" stroke="#000000" stroke-opacity="0.33" stroke-width="3.072"/>
<circle clip-path="url(#clip832)" cx="1774.35" cy="196.18" r="14.4" fill="#3da44d" fill-rule="evenodd" fill-opacity="0.33" stroke="#000000" stroke-opacity="0.33" stroke-width="3.072"/>
<circle clip-path="url(#clip832)" cx="1943.02" cy="372.176" r="14.4" fill="#3da44d" fill-rule="evenodd" fill-opacity="0.33" stroke="#000000" stroke-opacity="0.33" stroke-width="3.072"/>
<circle clip-path="url(#clip832)" cx="1352.66" cy="482.173" r="14.4" fill="#3da44d" fill-rule="evenodd" fill-opacity="0.33" stroke="#000000" stroke-opacity="0.33" stroke-width="3.072"/>
<circle clip-path="url(#clip832)" cx="1268.32" cy="372.176" r="14.4" fill="#3da44d" fill-rule="evenodd" fill-opacity="0.33" stroke="#000000" stroke-opacity="0.33" stroke-width="3.072"/>
<circle clip-path="url(#clip832)" cx="2027.36" cy="262.178" r="14.4" fill="#3da44d" fill-rule="evenodd" fill-opacity="0.33" stroke="#000000" stroke-opacity="0.33" stroke-width="3.072"/>
<circle clip-path="url(#clip832)" cx="2111.7" cy="372.176" r="14.4" fill="#3da44d" fill-rule="evenodd" fill-opacity="0.33" stroke="#000000" stroke-opacity="0.33" stroke-width="3.072"/>
<circle clip-path="url(#clip832)" cx="1605.67" cy="394.175" r="14.4" fill="#3da44d" fill-rule="evenodd" fill-opacity="0.33" stroke="#000000" stroke-opacity="0.33" stroke-width="3.072"/>
<circle clip-path="url(#clip832)" cx="1605.67" cy="548.171" r="14.4" fill="#3da44d" fill-rule="evenodd" fill-opacity="0.33" stroke="#000000" stroke-opacity="0.33" stroke-width="3.072"/>
<circle clip-path="url(#clip832)" cx="1858.68" cy="416.174" r="14.4" fill="#3da44d" fill-rule="evenodd" fill-opacity="0.33" stroke="#000000" stroke-opacity="0.33" stroke-width="3.072"/>
<circle clip-path="url(#clip832)" cx="2111.7" cy="372.176" r="14.4" fill="#3da44d" fill-rule="evenodd" fill-opacity="0.33" stroke="#000000" stroke-opacity="0.33" stroke-width="3.072"/>
<circle clip-path="url(#clip832)" cx="2027.36" cy="482.173" r="14.4" fill="#3da44d" fill-rule="evenodd" fill-opacity="0.33" stroke="#000000" stroke-opacity="0.33" stroke-width="3.072"/>
<circle clip-path="url(#clip832)" cx="1690.01" cy="482.173" r="14.4" fill="#3da44d" fill-rule="evenodd" fill-opacity="0.33" stroke="#000000" stroke-opacity="0.33" stroke-width="3.072"/>
<circle clip-path="url(#clip832)" cx="2027.36" cy="306.177" r="14.4" fill="#3da44d" fill-rule="evenodd" fill-opacity="0.33" stroke="#000000" stroke-opacity="0.33" stroke-width="3.072"/>
<circle clip-path="url(#clip832)" cx="2196.03" cy="350.176" r="14.4" fill="#3da44d" fill-rule="evenodd" fill-opacity="0.33" stroke="#000000" stroke-opacity="0.33" stroke-width="3.072"/>
<circle clip-path="url(#clip832)" cx="2027.36" cy="460.173" r="14.4" fill="#3da44d" fill-rule="evenodd" fill-opacity="0.33" stroke="#000000" stroke-opacity="0.33" stroke-width="3.072"/>
<circle clip-path="url(#clip832)" cx="1690.01" cy="504.172" r="14.4" fill="#3da44d" fill-rule="evenodd" fill-opacity="0.33" stroke="#000000" stroke-opacity="0.33" stroke-width="3.072"/>
<circle clip-path="url(#clip832)" cx="1774.35" cy="460.173" r="14.4" fill="#3da44d" fill-rule="evenodd" fill-opacity="0.33" stroke="#000000" stroke-opacity="0.33" stroke-width="3.072"/>
<circle clip-path="url(#clip832)" cx="2027.36" cy="416.174" r="14.4" fill="#3da44d" fill-rule="evenodd" fill-opacity="0.33" stroke="#000000" stroke-opacity="0.33" stroke-width="3.072"/>
<circle clip-path="url(#clip832)" cx="1605.67" cy="482.173" r="14.4" fill="#3da44d" fill-rule="evenodd" fill-opacity="0.33" stroke="#000000" stroke-opacity="0.33" stroke-width="3.072"/>
</svg>
