<?xml version="1.0" encoding="utf-8"?>
<svg xmlns="http://www.w3.org/2000/svg" xmlns:xlink="http://www.w3.org/1999/xlink" width="672" height="480" viewBox="0 0 2688 1920">
<defs>
  <clipPath id="clip070">
    <rect x="0" y="0" width="2688" height="1920"/>
  </clipPath>
</defs>
<path clip-path="url(#clip070)" d="
M0 1920 L2688 1920 L2688 0 L0 0  Z
  " fill="#ffffff" fill-rule="evenodd" fill-opacity="1"/>
<defs>
  <clipPath id="clip071">
    <rect x="537" y="0" width="1883" height="1883"/>
  </clipPath>
</defs>
<path clip-path="url(#clip070)" d="
M225.983 1800.78 L2640.76 1800.78 L2640.76 47.2441 L225.983 47.2441  Z
  " fill="#ffffff" fill-rule="evenodd" fill-opacity="1"/>
<defs>
  <clipPath id="clip072">
    <rect x="225" y="47" width="2416" height="1755"/>
  </clipPath>
</defs>
<polyline clip-path="url(#clip072)" style="stroke:#000000; stroke-linecap:round; stroke-linejoin:round; stroke-width:2; stroke-opacity:0.1; fill:none" points="
  459.923,1800.78 459.923,47.2441 
  "/>
<polyline clip-path="url(#clip072)" style="stroke:#000000; stroke-linecap:round; stroke-linejoin:round; stroke-width:2; stroke-opacity:0.1; fill:none" points="
  904.332,1800.78 904.332,47.2441 
  "/>
<polyline clip-path="url(#clip072)" style="stroke:#000000; stroke-linecap:round; stroke-linejoin:round; stroke-width:2; stroke-opacity:0.1; fill:none" points="
  1348.74,1800.78 1348.74,47.2441 
  "/>
<polyline clip-path="url(#clip072)" style="stroke:#000000; stroke-linecap:round; stroke-linejoin:round; stroke-width:2; stroke-opacity:0.1; fill:none" points="
  1793.15,1800.78 1793.15,47.2441 
  "/>
<polyline clip-path="url(#clip072)" style="stroke:#000000; stroke-linecap:round; stroke-linejoin:round; stroke-width:2; stroke-opacity:0.1; fill:none" points="
  2237.56,1800.78 2237.56,47.2441 
  "/>
<polyline clip-path="url(#clip070)" style="stroke:#000000; stroke-linecap:round; stroke-linejoin:round; stroke-width:4; stroke-opacity:1; fill:none" points="
  225.983,1800.78 2640.76,1800.78 
  "/>
<polyline clip-path="url(#clip070)" style="stroke:#000000; stroke-linecap:round; stroke-linejoin:round; stroke-width:4; stroke-opacity:1; fill:none" points="
  459.923,1800.78 459.923,1781.88 
  "/>
<polyline clip-path="url(#clip070)" style="stroke:#000000; stroke-linecap:round; stroke-linejoin:round; stroke-width:4; stroke-opacity:1; fill:none" points="
  904.332,1800.78 904.332,1781.88 
  "/>
<polyline clip-path="url(#clip070)" style="stroke:#000000; stroke-linecap:round; stroke-linejoin:round; stroke-width:4; stroke-opacity:1; fill:none" points="
  1348.74,1800.78 1348.74,1781.88 
  "/>
<polyline clip-path="url(#clip070)" style="stroke:#000000; stroke-linecap:round; stroke-linejoin:round; stroke-width:4; stroke-opacity:1; fill:none" points="
  1793.15,1800.78 1793.15,1781.88 
  "/>
<polyline clip-path="url(#clip070)" style="stroke:#000000; stroke-linecap:round; stroke-linejoin:round; stroke-width:4; stroke-opacity:1; fill:none" points="
  2237.56,1800.78 2237.56,1781.88 
  "/>
<path clip-path="url(#clip070)" d="M437.4 1834 Q433.789 1834 431.96 1837.57 Q430.154 1841.11 430.154 1848.24 Q430.154 1855.34 431.96 1858.91 Q433.789 1862.45 437.4 1862.45 Q441.034 1862.45 442.839 1858.91 Q444.668 1855.34 444.668 1848.24 Q444.668 1841.11 442.839 1837.57 Q441.034 1834 437.4 1834 M437.4 1830.3 Q443.21 1830.3 446.265 1834.9 Q449.344 1839.49 449.344 1848.24 Q449.344 1856.96 446.265 1861.57 Q443.21 1866.15 437.4 1866.15 Q431.589 1866.15 428.511 1861.57 Q425.455 1856.96 425.455 1848.24 Q425.455 1839.49 428.511 1834.9 Q431.589 1830.3 437.4 1830.3 Z" fill="#000000" fill-rule="evenodd" fill-opacity="1" /><path clip-path="url(#clip070)" d="M457.562 1859.6 L462.446 1859.6 L462.446 1865.48 L457.562 1865.48 L457.562 1859.6 Z" fill="#000000" fill-rule="evenodd" fill-opacity="1" /><path clip-path="url(#clip070)" d="M472.77 1864.77 L472.77 1860.51 Q474.529 1861.34 476.335 1861.78 Q478.14 1862.22 479.876 1862.22 Q484.506 1862.22 486.936 1859.12 Q489.39 1855.99 489.737 1849.65 Q488.395 1851.64 486.335 1852.71 Q484.274 1853.77 481.774 1853.77 Q476.589 1853.77 473.557 1850.65 Q470.548 1847.5 470.548 1842.06 Q470.548 1836.73 473.696 1833.52 Q476.844 1830.3 482.075 1830.3 Q488.071 1830.3 491.219 1834.9 Q494.39 1839.49 494.39 1848.24 Q494.39 1856.41 490.501 1861.29 Q486.635 1866.15 480.085 1866.15 Q478.325 1866.15 476.52 1865.81 Q474.714 1865.46 472.77 1864.77 M482.075 1850.11 Q485.223 1850.11 487.052 1847.96 Q488.904 1845.81 488.904 1842.06 Q488.904 1838.33 487.052 1836.18 Q485.223 1834 482.075 1834 Q478.927 1834 477.075 1836.18 Q475.247 1838.33 475.247 1842.06 Q475.247 1845.81 477.075 1847.96 Q478.927 1850.11 482.075 1850.11 Z" fill="#000000" fill-rule="evenodd" fill-opacity="1" /><path clip-path="url(#clip070)" d="M872.283 1861.55 L879.922 1861.55 L879.922 1835.18 L871.612 1836.85 L871.612 1832.59 L879.876 1830.92 L884.552 1830.92 L884.552 1861.55 L892.191 1861.55 L892.191 1865.48 L872.283 1865.48 L872.283 1861.55 Z" fill="#000000" fill-rule="evenodd" fill-opacity="1" /><path clip-path="url(#clip070)" d="M901.635 1859.6 L906.519 1859.6 L906.519 1865.48 L901.635 1865.48 L901.635 1859.6 Z" fill="#000000" fill-rule="evenodd" fill-opacity="1" /><path clip-path="url(#clip070)" d="M920.732 1861.55 L937.052 1861.55 L937.052 1865.48 L915.107 1865.48 L915.107 1861.55 Q917.769 1858.79 922.353 1854.16 Q926.959 1849.51 928.14 1848.17 Q930.385 1845.65 931.265 1843.91 Q932.167 1842.15 932.167 1840.46 Q932.167 1837.71 930.223 1835.97 Q928.302 1834.23 925.2 1834.23 Q923.001 1834.23 920.547 1835 Q918.116 1835.76 915.339 1837.31 L915.339 1832.59 Q918.163 1831.46 920.616 1830.88 Q923.07 1830.3 925.107 1830.3 Q930.478 1830.3 933.672 1832.98 Q936.866 1835.67 936.866 1840.16 Q936.866 1842.29 936.056 1844.21 Q935.269 1846.11 933.163 1848.7 Q932.584 1849.37 929.482 1852.59 Q926.38 1855.78 920.732 1861.55 Z" fill="#000000" fill-rule="evenodd" fill-opacity="1" /><path clip-path="url(#clip070)" d="M1316.39 1861.55 L1324.03 1861.55 L1324.03 1835.18 L1315.72 1836.85 L1315.72 1832.59 L1323.98 1830.92 L1328.66 1830.92 L1328.66 1861.55 L1336.3 1861.55 L1336.3 1865.48 L1316.39 1865.48 L1316.39 1861.55 Z" fill="#000000" fill-rule="evenodd" fill-opacity="1" /><path clip-path="url(#clip070)" d="M1345.74 1859.6 L1350.63 1859.6 L1350.63 1865.48 L1345.74 1865.48 L1345.74 1859.6 Z" fill="#000000" fill-rule="evenodd" fill-opacity="1" /><path clip-path="url(#clip070)" d="M1360.86 1830.92 L1379.22 1830.92 L1379.22 1834.86 L1365.14 1834.86 L1365.14 1843.33 Q1366.16 1842.98 1367.18 1842.82 Q1368.2 1842.64 1369.22 1842.64 Q1375 1842.64 1378.38 1845.81 Q1381.76 1848.98 1381.76 1854.4 Q1381.76 1859.97 1378.29 1863.08 Q1374.82 1866.15 1368.5 1866.15 Q1366.32 1866.15 1364.05 1865.78 Q1361.81 1865.41 1359.4 1864.67 L1359.4 1859.97 Q1361.48 1861.11 1363.71 1861.66 Q1365.93 1862.22 1368.41 1862.22 Q1372.41 1862.22 1374.75 1860.11 Q1377.09 1858.01 1377.09 1854.4 Q1377.09 1850.78 1374.75 1848.68 Q1372.41 1846.57 1368.41 1846.57 Q1366.53 1846.57 1364.66 1846.99 Q1362.8 1847.4 1360.86 1848.28 L1360.86 1830.92 Z" fill="#000000" fill-rule="evenodd" fill-opacity="1" /><path clip-path="url(#clip070)" d="M1760.35 1861.55 L1767.99 1861.55 L1767.99 1835.18 L1759.68 1836.85 L1759.68 1832.59 L1767.94 1830.92 L1772.62 1830.92 L1772.62 1861.55 L1780.26 1861.55 L1780.26 1865.48 L1760.35 1865.48 L1760.35 1861.55 Z" fill="#000000" fill-rule="evenodd" fill-opacity="1" /><path clip-path="url(#clip070)" d="M1789.7 1859.6 L1794.59 1859.6 L1794.59 1865.48 L1789.7 1865.48 L1789.7 1859.6 Z" fill="#000000" fill-rule="evenodd" fill-opacity="1" /><path clip-path="url(#clip070)" d="M1814.77 1849.07 Q1811.44 1849.07 1809.52 1850.85 Q1807.62 1852.64 1807.62 1855.76 Q1807.62 1858.89 1809.52 1860.67 Q1811.44 1862.45 1814.77 1862.45 Q1818.1 1862.45 1820.03 1860.67 Q1821.95 1858.86 1821.95 1855.76 Q1821.95 1852.64 1820.03 1850.85 Q1818.13 1849.07 1814.77 1849.07 M1810.09 1847.08 Q1807.09 1846.34 1805.4 1844.28 Q1803.73 1842.22 1803.73 1839.26 Q1803.73 1835.11 1806.67 1832.71 Q1809.63 1830.3 1814.77 1830.3 Q1819.93 1830.3 1822.87 1832.71 Q1825.81 1835.11 1825.81 1839.26 Q1825.81 1842.22 1824.12 1844.28 Q1822.46 1846.34 1819.47 1847.08 Q1822.85 1847.87 1824.72 1850.16 Q1826.62 1852.45 1826.62 1855.76 Q1826.62 1860.78 1823.54 1863.47 Q1820.49 1866.15 1814.77 1866.15 Q1809.05 1866.15 1805.97 1863.47 Q1802.92 1860.78 1802.92 1855.76 Q1802.92 1852.45 1804.82 1850.16 Q1806.72 1847.87 1810.09 1847.08 M1808.38 1839.7 Q1808.38 1842.38 1810.05 1843.89 Q1811.74 1845.39 1814.77 1845.39 Q1817.78 1845.39 1819.47 1843.89 Q1821.18 1842.38 1821.18 1839.7 Q1821.18 1837.01 1819.47 1835.51 Q1817.78 1834 1814.77 1834 Q1811.74 1834 1810.05 1835.51 Q1808.38 1837.01 1808.38 1839.7 Z" fill="#000000" fill-rule="evenodd" fill-opacity="1" /><path clip-path="url(#clip070)" d="M2209.41 1861.55 L2225.73 1861.55 L2225.73 1865.48 L2203.79 1865.48 L2203.79 1861.55 Q2206.45 1858.79 2211.03 1854.16 Q2215.64 1849.51 2216.82 1848.17 Q2219.06 1845.65 2219.94 1843.91 Q2220.85 1842.15 2220.85 1840.46 Q2220.85 1837.71 2218.9 1835.97 Q2216.98 1834.23 2213.88 1834.23 Q2211.68 1834.23 2209.23 1835 Q2206.8 1835.76 2204.02 1837.31 L2204.02 1832.59 Q2206.84 1831.46 2209.3 1830.88 Q2211.75 1830.3 2213.79 1830.3 Q2219.16 1830.3 2222.35 1832.98 Q2225.55 1835.67 2225.55 1840.16 Q2225.55 1842.29 2224.74 1844.21 Q2223.95 1846.11 2221.84 1848.7 Q2221.26 1849.37 2218.16 1852.59 Q2215.06 1855.78 2209.41 1861.55 Z" fill="#000000" fill-rule="evenodd" fill-opacity="1" /><path clip-path="url(#clip070)" d="M2235.55 1859.6 L2240.43 1859.6 L2240.43 1865.48 L2235.55 1865.48 L2235.55 1859.6 Z" fill="#000000" fill-rule="evenodd" fill-opacity="1" /><path clip-path="url(#clip070)" d="M2251.43 1861.55 L2259.06 1861.55 L2259.06 1835.18 L2250.75 1836.85 L2250.75 1832.59 L2259.02 1830.92 L2263.69 1830.92 L2263.69 1861.55 L2271.33 1861.55 L2271.33 1865.48 L2251.43 1865.48 L2251.43 1861.55 Z" fill="#000000" fill-rule="evenodd" fill-opacity="1" /><polyline clip-path="url(#clip072)" style="stroke:#000000; stroke-linecap:round; stroke-linejoin:round; stroke-width:2; stroke-opacity:0.1; fill:none" points="
  225.983,1606.79 2640.76,1606.79 
  "/>
<polyline clip-path="url(#clip072)" style="stroke:#000000; stroke-linecap:round; stroke-linejoin:round; stroke-width:2; stroke-opacity:0.1; fill:none" points="
  225.983,1240.32 2640.76,1240.32 
  "/>
<polyline clip-path="url(#clip072)" style="stroke:#000000; stroke-linecap:round; stroke-linejoin:round; stroke-width:2; stroke-opacity:0.1; fill:none" points="
  225.983,873.86 2640.76,873.86 
  "/>
<polyline clip-path="url(#clip072)" style="stroke:#000000; stroke-linecap:round; stroke-linejoin:round; stroke-width:2; stroke-opacity:0.1; fill:none" points="
  225.983,507.395 2640.76,507.395 
  "/>
<polyline clip-path="url(#clip072)" style="stroke:#000000; stroke-linecap:round; stroke-linejoin:round; stroke-width:2; stroke-opacity:0.1; fill:none" points="
  225.983,140.931 2640.76,140.931 
  "/>
<polyline clip-path="url(#clip070)" style="stroke:#000000; stroke-linecap:round; stroke-linejoin:round; stroke-width:4; stroke-opacity:1; fill:none" points="
  225.983,1800.78 225.983,47.2441 
  "/>
<polyline clip-path="url(#clip070)" style="stroke:#000000; stroke-linecap:round; stroke-linejoin:round; stroke-width:4; stroke-opacity:1; fill:none" points="
  225.983,1606.79 244.88,1606.79 
  "/>
<polyline clip-path="url(#clip070)" style="stroke:#000000; stroke-linecap:round; stroke-linejoin:round; stroke-width:4; stroke-opacity:1; fill:none" points="
  225.983,1240.32 244.88,1240.32 
  "/>
<polyline clip-path="url(#clip070)" style="stroke:#000000; stroke-linecap:round; stroke-linejoin:round; stroke-width:4; stroke-opacity:1; fill:none" points="
  225.983,873.86 244.88,873.86 
  "/>
<polyline clip-path="url(#clip070)" style="stroke:#000000; stroke-linecap:round; stroke-linejoin:round; stroke-width:4; stroke-opacity:1; fill:none" points="
  225.983,507.395 244.88,507.395 
  "/>
<polyline clip-path="url(#clip070)" style="stroke:#000000; stroke-linecap:round; stroke-linejoin:round; stroke-width:4; stroke-opacity:1; fill:none" points="
  225.983,140.931 244.88,140.931 
  "/>
<path clip-path="url(#clip070)" d="M49.5521 1607.24 L79.2279 1607.24 L79.2279 1611.18 L49.5521 1611.18 L49.5521 1607.24 Z" fill="#000000" fill-rule="evenodd" fill-opacity="1" /><path clip-path="url(#clip070)" d="M99.3204 1592.59 Q95.7093 1592.59 93.8806 1596.15 Q92.075 1599.69 92.075 1606.82 Q92.075 1613.93 93.8806 1617.49 Q95.7093 1621.04 99.3204 1621.04 Q102.955 1621.04 104.76 1617.49 Q106.589 1613.93 106.589 1606.82 Q106.589 1599.69 104.76 1596.15 Q102.955 1592.59 99.3204 1592.59 M99.3204 1588.88 Q105.131 1588.88 108.186 1593.49 Q111.265 1598.07 111.265 1606.82 Q111.265 1615.55 108.186 1620.16 Q105.131 1624.74 99.3204 1624.74 Q93.5102 1624.74 90.4315 1620.16 Q87.376 1615.55 87.376 1606.82 Q87.376 1598.07 90.4315 1593.49 Q93.5102 1588.88 99.3204 1588.88 Z" fill="#000000" fill-rule="evenodd" fill-opacity="1" /><path clip-path="url(#clip070)" d="M119.482 1618.19 L124.367 1618.19 L124.367 1624.07 L119.482 1624.07 L119.482 1618.19 Z" fill="#000000" fill-rule="evenodd" fill-opacity="1" /><path clip-path="url(#clip070)" d="M138.579 1620.13 L154.899 1620.13 L154.899 1624.07 L132.954 1624.07 L132.954 1620.13 Q135.616 1617.38 140.2 1612.75 Q144.806 1608.1 145.987 1606.75 Q148.232 1604.23 149.112 1602.49 Q150.015 1600.74 150.015 1599.05 Q150.015 1596.29 148.07 1594.56 Q146.149 1592.82 143.047 1592.82 Q140.848 1592.82 138.394 1593.58 Q135.964 1594.35 133.186 1595.9 L133.186 1591.18 Q136.01 1590.04 138.464 1589.46 Q140.917 1588.88 142.954 1588.88 Q148.325 1588.88 151.519 1591.57 Q154.714 1594.25 154.714 1598.74 Q154.714 1600.87 153.903 1602.8 Q153.116 1604.69 151.01 1607.29 Q150.431 1607.96 147.329 1611.18 Q144.228 1614.37 138.579 1620.13 Z" fill="#000000" fill-rule="evenodd" fill-opacity="1" /><path clip-path="url(#clip070)" d="M164.76 1589.51 L183.116 1589.51 L183.116 1593.44 L169.042 1593.44 L169.042 1601.92 Q170.061 1601.57 171.079 1601.41 Q172.098 1601.22 173.116 1601.22 Q178.903 1601.22 182.283 1604.39 Q185.663 1607.56 185.663 1612.98 Q185.663 1618.56 182.19 1621.66 Q178.718 1624.74 172.399 1624.74 Q170.223 1624.74 167.954 1624.37 Q165.709 1624 163.302 1623.26 L163.302 1618.56 Q165.385 1619.69 167.607 1620.25 Q169.829 1620.81 172.306 1620.81 Q176.311 1620.81 178.649 1618.7 Q180.987 1616.59 180.987 1612.98 Q180.987 1609.37 178.649 1607.26 Q176.311 1605.16 172.306 1605.16 Q170.431 1605.16 168.556 1605.57 Q166.704 1605.99 164.76 1606.87 L164.76 1589.51 Z" fill="#000000" fill-rule="evenodd" fill-opacity="1" /><path clip-path="url(#clip070)" d="M98.325 1226.12 Q94.7139 1226.12 92.8852 1229.69 Q91.0797 1233.23 91.0797 1240.36 Q91.0797 1247.47 92.8852 1251.03 Q94.7139 1254.57 98.325 1254.57 Q101.959 1254.57 103.765 1251.03 Q105.593 1247.47 105.593 1240.36 Q105.593 1233.23 103.765 1229.69 Q101.959 1226.12 98.325 1226.12 M98.325 1222.42 Q104.135 1222.42 107.191 1227.03 Q110.269 1231.61 110.269 1240.36 Q110.269 1249.09 107.191 1253.69 Q104.135 1258.28 98.325 1258.28 Q92.5149 1258.28 89.4362 1253.69 Q86.3806 1249.09 86.3806 1240.36 Q86.3806 1231.61 89.4362 1227.03 Q92.5149 1222.42 98.325 1222.42 Z" fill="#000000" fill-rule="evenodd" fill-opacity="1" /><path clip-path="url(#clip070)" d="M118.487 1251.72 L123.371 1251.72 L123.371 1257.6 L118.487 1257.6 L118.487 1251.72 Z" fill="#000000" fill-rule="evenodd" fill-opacity="1" /><path clip-path="url(#clip070)" d="M143.556 1226.12 Q139.945 1226.12 138.116 1229.69 Q136.311 1233.23 136.311 1240.36 Q136.311 1247.47 138.116 1251.03 Q139.945 1254.57 143.556 1254.57 Q147.19 1254.57 148.996 1251.03 Q150.825 1247.47 150.825 1240.36 Q150.825 1233.23 148.996 1229.69 Q147.19 1226.12 143.556 1226.12 M143.556 1222.42 Q149.366 1222.42 152.422 1227.03 Q155.501 1231.61 155.501 1240.36 Q155.501 1249.09 152.422 1253.69 Q149.366 1258.28 143.556 1258.28 Q137.746 1258.28 134.667 1253.69 Q131.612 1249.09 131.612 1240.36 Q131.612 1231.61 134.667 1227.03 Q137.746 1222.42 143.556 1222.42 Z" fill="#000000" fill-rule="evenodd" fill-opacity="1" /><path clip-path="url(#clip070)" d="M173.718 1226.12 Q170.107 1226.12 168.278 1229.69 Q166.473 1233.23 166.473 1240.36 Q166.473 1247.47 168.278 1251.03 Q170.107 1254.57 173.718 1254.57 Q177.352 1254.57 179.158 1251.03 Q180.987 1247.47 180.987 1240.36 Q180.987 1233.23 179.158 1229.69 Q177.352 1226.12 173.718 1226.12 M173.718 1222.42 Q179.528 1222.42 182.584 1227.03 Q185.663 1231.61 185.663 1240.36 Q185.663 1249.09 182.584 1253.69 Q179.528 1258.28 173.718 1258.28 Q167.908 1258.28 164.829 1253.69 Q161.774 1249.09 161.774 1240.36 Q161.774 1231.61 164.829 1227.03 Q167.908 1222.42 173.718 1222.42 Z" fill="#000000" fill-rule="evenodd" fill-opacity="1" /><path clip-path="url(#clip070)" d="M99.3204 859.659 Q95.7093 859.659 93.8806 863.223 Q92.075 866.765 92.075 873.895 Q92.075 881.001 93.8806 884.566 Q95.7093 888.107 99.3204 888.107 Q102.955 888.107 104.76 884.566 Q106.589 881.001 106.589 873.895 Q106.589 866.765 104.76 863.223 Q102.955 859.659 99.3204 859.659 M99.3204 855.955 Q105.131 855.955 108.186 860.561 Q111.265 865.145 111.265 873.895 Q111.265 882.621 108.186 887.228 Q105.131 891.811 99.3204 891.811 Q93.5102 891.811 90.4315 887.228 Q87.376 882.621 87.376 873.895 Q87.376 865.145 90.4315 860.561 Q93.5102 855.955 99.3204 855.955 Z" fill="#000000" fill-rule="evenodd" fill-opacity="1" /><path clip-path="url(#clip070)" d="M119.482 885.26 L124.367 885.26 L124.367 891.14 L119.482 891.14 L119.482 885.26 Z" fill="#000000" fill-rule="evenodd" fill-opacity="1" /><path clip-path="url(#clip070)" d="M138.579 887.205 L154.899 887.205 L154.899 891.14 L132.954 891.14 L132.954 887.205 Q135.616 884.45 140.2 879.82 Q144.806 875.168 145.987 873.825 Q148.232 871.302 149.112 869.566 Q150.015 867.807 150.015 866.117 Q150.015 863.362 148.07 861.626 Q146.149 859.89 143.047 859.89 Q140.848 859.89 138.394 860.654 Q135.964 861.418 133.186 862.969 L133.186 858.247 Q136.01 857.112 138.464 856.534 Q140.917 855.955 142.954 855.955 Q148.325 855.955 151.519 858.64 Q154.714 861.325 154.714 865.816 Q154.714 867.946 153.903 869.867 Q153.116 871.765 151.01 874.358 Q150.431 875.029 147.329 878.246 Q144.228 881.441 138.579 887.205 Z" fill="#000000" fill-rule="evenodd" fill-opacity="1" /><path clip-path="url(#clip070)" d="M164.76 856.58 L183.116 856.58 L183.116 860.515 L169.042 860.515 L169.042 868.987 Q170.061 868.64 171.079 868.478 Q172.098 868.293 173.116 868.293 Q178.903 868.293 182.283 871.464 Q185.663 874.635 185.663 880.052 Q185.663 885.631 182.19 888.732 Q178.718 891.811 172.399 891.811 Q170.223 891.811 167.954 891.441 Q165.709 891.07 163.302 890.33 L163.302 885.631 Q165.385 886.765 167.607 887.32 Q169.829 887.876 172.306 887.876 Q176.311 887.876 178.649 885.77 Q180.987 883.663 180.987 880.052 Q180.987 876.441 178.649 874.334 Q176.311 872.228 172.306 872.228 Q170.431 872.228 168.556 872.645 Q166.704 873.061 164.76 873.941 L164.76 856.58 Z" fill="#000000" fill-rule="evenodd" fill-opacity="1" /><path clip-path="url(#clip070)" d="M98.325 493.194 Q94.7139 493.194 92.8852 496.759 Q91.0797 500.3 91.0797 507.43 Q91.0797 514.537 92.8852 518.101 Q94.7139 521.643 98.325 521.643 Q101.959 521.643 103.765 518.101 Q105.593 514.537 105.593 507.43 Q105.593 500.3 103.765 496.759 Q101.959 493.194 98.325 493.194 M98.325 489.49 Q104.135 489.49 107.191 494.097 Q110.269 498.68 110.269 507.43 Q110.269 516.157 107.191 520.763 Q104.135 525.347 98.325 525.347 Q92.5149 525.347 89.4362 520.763 Q86.3806 516.157 86.3806 507.43 Q86.3806 498.68 89.4362 494.097 Q92.5149 489.49 98.325 489.49 Z" fill="#000000" fill-rule="evenodd" fill-opacity="1" /><path clip-path="url(#clip070)" d="M118.487 518.796 L123.371 518.796 L123.371 524.675 L118.487 524.675 L118.487 518.796 Z" fill="#000000" fill-rule="evenodd" fill-opacity="1" /><path clip-path="url(#clip070)" d="M133.603 490.115 L151.959 490.115 L151.959 494.051 L137.885 494.051 L137.885 502.523 Q138.903 502.175 139.922 502.013 Q140.941 501.828 141.959 501.828 Q147.746 501.828 151.126 505 Q154.505 508.171 154.505 513.587 Q154.505 519.166 151.033 522.268 Q147.561 525.347 141.241 525.347 Q139.066 525.347 136.797 524.976 Q134.552 524.606 132.144 523.865 L132.144 519.166 Q134.228 520.3 136.45 520.856 Q138.672 521.411 141.149 521.411 Q145.153 521.411 147.491 519.305 Q149.829 517.199 149.829 513.587 Q149.829 509.976 147.491 507.87 Q145.153 505.763 141.149 505.763 Q139.274 505.763 137.399 506.18 Q135.547 506.597 133.603 507.476 L133.603 490.115 Z" fill="#000000" fill-rule="evenodd" fill-opacity="1" /><path clip-path="url(#clip070)" d="M173.718 493.194 Q170.107 493.194 168.278 496.759 Q166.473 500.3 166.473 507.43 Q166.473 514.537 168.278 518.101 Q170.107 521.643 173.718 521.643 Q177.352 521.643 179.158 518.101 Q180.987 514.537 180.987 507.43 Q180.987 500.3 179.158 496.759 Q177.352 493.194 173.718 493.194 M173.718 489.49 Q179.528 489.49 182.584 494.097 Q185.663 498.68 185.663 507.43 Q185.663 516.157 182.584 520.763 Q179.528 525.347 173.718 525.347 Q167.908 525.347 164.829 520.763 Q161.774 516.157 161.774 507.43 Q161.774 498.68 164.829 494.097 Q167.908 489.49 173.718 489.49 Z" fill="#000000" fill-rule="evenodd" fill-opacity="1" /><path clip-path="url(#clip070)" d="M99.3204 126.729 Q95.7093 126.729 93.8806 130.294 Q92.075 133.836 92.075 140.966 Q92.075 148.072 93.8806 151.637 Q95.7093 155.178 99.3204 155.178 Q102.955 155.178 104.76 151.637 Q106.589 148.072 106.589 140.966 Q106.589 133.836 104.76 130.294 Q102.955 126.729 99.3204 126.729 M99.3204 123.026 Q105.131 123.026 108.186 127.632 Q111.265 132.216 111.265 140.966 Q111.265 149.692 108.186 154.299 Q105.131 158.882 99.3204 158.882 Q93.5102 158.882 90.4315 154.299 Q87.376 149.692 87.376 140.966 Q87.376 132.216 90.4315 127.632 Q93.5102 123.026 99.3204 123.026 Z" fill="#000000" fill-rule="evenodd" fill-opacity="1" /><path clip-path="url(#clip070)" d="M119.482 152.331 L124.367 152.331 L124.367 158.211 L119.482 158.211 L119.482 152.331 Z" fill="#000000" fill-rule="evenodd" fill-opacity="1" /><path clip-path="url(#clip070)" d="M133.371 123.651 L155.593 123.651 L155.593 125.642 L143.047 158.211 L138.163 158.211 L149.968 127.586 L133.371 127.586 L133.371 123.651 Z" fill="#000000" fill-rule="evenodd" fill-opacity="1" /><path clip-path="url(#clip070)" d="M164.76 123.651 L183.116 123.651 L183.116 127.586 L169.042 127.586 L169.042 136.058 Q170.061 135.711 171.079 135.549 Q172.098 135.364 173.116 135.364 Q178.903 135.364 182.283 138.535 Q185.663 141.706 185.663 147.123 Q185.663 152.702 182.19 155.803 Q178.718 158.882 172.399 158.882 Q170.223 158.882 167.954 158.512 Q165.709 158.141 163.302 157.401 L163.302 152.702 Q165.385 153.836 167.607 154.391 Q169.829 154.947 172.306 154.947 Q176.311 154.947 178.649 152.84 Q180.987 150.734 180.987 147.123 Q180.987 143.512 178.649 141.405 Q176.311 139.299 172.306 139.299 Q170.431 139.299 168.556 139.716 Q166.704 140.132 164.76 141.012 L164.76 123.651 Z" fill="#000000" fill-rule="evenodd" fill-opacity="1" /><circle clip-path="url(#clip072)" cx="1070.29" cy="183.89" r="14.4" fill="#009af9" fill-rule="evenodd" fill-opacity="1" stroke="#000000" stroke-opacity="1" stroke-width="3.84"/>
<circle clip-path="url(#clip072)" cx="1769.39" cy="1504.81" r="14.4" fill="#009af9" fill-rule="evenodd" fill-opacity="1" stroke="#000000" stroke-opacity="1" stroke-width="3.84"/>
<circle clip-path="url(#clip072)" cx="640.854" cy="1532.73" r="14.4" fill="#009af9" fill-rule="evenodd" fill-opacity="1" stroke="#000000" stroke-opacity="1" stroke-width="3.84"/>
<circle clip-path="url(#clip072)" cx="534.457" cy="533.143" r="14.4" fill="#009af9" fill-rule="evenodd" fill-opacity="1" stroke="#000000" stroke-opacity="1" stroke-width="3.84"/>
<circle clip-path="url(#clip072)" cx="404.686" cy="1034.87" r="14.4" fill="#009af9" fill-rule="evenodd" fill-opacity="1" stroke="#000000" stroke-opacity="1" stroke-width="3.84"/>
<circle clip-path="url(#clip072)" cx="1680.99" cy="433.545" r="14.4" fill="#009af9" fill-rule="evenodd" fill-opacity="1" stroke="#000000" stroke-opacity="1" stroke-width="3.84"/>
<circle clip-path="url(#clip072)" cx="1404.95" cy="170.119" r="14.4" fill="#009af9" fill-rule="evenodd" fill-opacity="1" stroke="#000000" stroke-opacity="1" stroke-width="3.84"/>
<circle clip-path="url(#clip072)" cx="1877.49" cy="443.32" r="14.4" fill="#009af9" fill-rule="evenodd" fill-opacity="1" stroke="#000000" stroke-opacity="1" stroke-width="3.84"/>
<circle clip-path="url(#clip072)" cx="1562.05" cy="1751.15" r="14.4" fill="#009af9" fill-rule="evenodd" fill-opacity="1" stroke="#000000" stroke-opacity="1" stroke-width="3.84"/>
<circle clip-path="url(#clip072)" cx="1564.27" cy="1341.57" r="14.4" fill="#009af9" fill-rule="evenodd" fill-opacity="1" stroke="#000000" stroke-opacity="1" stroke-width="3.84"/>
<circle clip-path="url(#clip072)" cx="1715.71" cy="1265.28" r="14.4" fill="#009af9" fill-rule="evenodd" fill-opacity="1" stroke="#000000" stroke-opacity="1" stroke-width="3.84"/>
<circle clip-path="url(#clip072)" cx="1747.1" cy="841.676" r="14.4" fill="#009af9" fill-rule="evenodd" fill-opacity="1" stroke="#000000" stroke-opacity="1" stroke-width="3.84"/>
<circle clip-path="url(#clip072)" cx="465.335" cy="1314.69" r="14.4" fill="#009af9" fill-rule="evenodd" fill-opacity="1" stroke="#000000" stroke-opacity="1" stroke-width="3.84"/>
<circle clip-path="url(#clip072)" cx="944.554" cy="1551.01" r="14.4" fill="#009af9" fill-rule="evenodd" fill-opacity="1" stroke="#000000" stroke-opacity="1" stroke-width="3.84"/>
<circle clip-path="url(#clip072)" cx="557.933" cy="1134.96" r="14.4" fill="#009af9" fill-rule="evenodd" fill-opacity="1" stroke="#000000" stroke-opacity="1" stroke-width="3.84"/>
<circle clip-path="url(#clip072)" cx="1425.82" cy="755.454" r="14.4" fill="#009af9" fill-rule="evenodd" fill-opacity="1" stroke="#000000" stroke-opacity="1" stroke-width="3.84"/>
<circle clip-path="url(#clip072)" cx="1335.24" cy="170.803" r="14.4" fill="#009af9" fill-rule="evenodd" fill-opacity="1" stroke="#000000" stroke-opacity="1" stroke-width="3.84"/>
<circle clip-path="url(#clip072)" cx="294.325" cy="555.893" r="14.4" fill="#009af9" fill-rule="evenodd" fill-opacity="1" stroke="#000000" stroke-opacity="1" stroke-width="3.84"/>
<circle clip-path="url(#clip072)" cx="2479.21" cy="1032.73" r="14.4" fill="#009af9" fill-rule="evenodd" fill-opacity="1" stroke="#000000" stroke-opacity="1" stroke-width="3.84"/>
<circle clip-path="url(#clip072)" cx="1843.19" cy="818.163" r="14.4" fill="#009af9" fill-rule="evenodd" fill-opacity="1" stroke="#000000" stroke-opacity="1" stroke-width="3.84"/>
<circle clip-path="url(#clip072)" cx="1900.85" cy="1335.34" r="14.4" fill="#009af9" fill-rule="evenodd" fill-opacity="1" stroke="#000000" stroke-opacity="1" stroke-width="3.84"/>
<circle clip-path="url(#clip072)" cx="1149.6" cy="749.232" r="14.4" fill="#009af9" fill-rule="evenodd" fill-opacity="1" stroke="#000000" stroke-opacity="1" stroke-width="3.84"/>
<circle clip-path="url(#clip072)" cx="383.836" cy="1375.51" r="14.4" fill="#009af9" fill-rule="evenodd" fill-opacity="1" stroke="#000000" stroke-opacity="1" stroke-width="3.84"/>
<circle clip-path="url(#clip072)" cx="1478.08" cy="717.599" r="14.4" fill="#009af9" fill-rule="evenodd" fill-opacity="1" stroke="#000000" stroke-opacity="1" stroke-width="3.84"/>
<circle clip-path="url(#clip072)" cx="1524.75" cy="1382.84" r="14.4" fill="#009af9" fill-rule="evenodd" fill-opacity="1" stroke="#000000" stroke-opacity="1" stroke-width="3.84"/>
<circle clip-path="url(#clip072)" cx="2032.39" cy="1141.71" r="14.4" fill="#009af9" fill-rule="evenodd" fill-opacity="1" stroke="#000000" stroke-opacity="1" stroke-width="3.84"/>
<circle clip-path="url(#clip072)" cx="1620.1" cy="1020.24" r="14.4" fill="#009af9" fill-rule="evenodd" fill-opacity="1" stroke="#000000" stroke-opacity="1" stroke-width="3.84"/>
<circle clip-path="url(#clip072)" cx="1476.79" cy="776.358" r="14.4" fill="#009af9" fill-rule="evenodd" fill-opacity="1" stroke="#000000" stroke-opacity="1" stroke-width="3.84"/>
<circle clip-path="url(#clip072)" cx="1084.46" cy="425.427" r="14.4" fill="#009af9" fill-rule="evenodd" fill-opacity="1" stroke="#000000" stroke-opacity="1" stroke-width="3.84"/>
<circle clip-path="url(#clip072)" cx="1419.47" cy="984.326" r="14.4" fill="#009af9" fill-rule="evenodd" fill-opacity="1" stroke="#000000" stroke-opacity="1" stroke-width="3.84"/>
<circle clip-path="url(#clip072)" cx="1252.47" cy="1170.67" r="14.4" fill="#009af9" fill-rule="evenodd" fill-opacity="1" stroke="#000000" stroke-opacity="1" stroke-width="3.84"/>
<circle clip-path="url(#clip072)" cx="2408.92" cy="457.087" r="14.4" fill="#009af9" fill-rule="evenodd" fill-opacity="1" stroke="#000000" stroke-opacity="1" stroke-width="3.84"/>
<circle clip-path="url(#clip072)" cx="1521.73" cy="1141.69" r="14.4" fill="#009af9" fill-rule="evenodd" fill-opacity="1" stroke="#000000" stroke-opacity="1" stroke-width="3.84"/>
<circle clip-path="url(#clip072)" cx="993.543" cy="96.8724" r="14.4" fill="#009af9" fill-rule="evenodd" fill-opacity="1" stroke="#000000" stroke-opacity="1" stroke-width="3.84"/>
<circle clip-path="url(#clip072)" cx="1533.68" cy="1010.44" r="14.4" fill="#009af9" fill-rule="evenodd" fill-opacity="1" stroke="#000000" stroke-opacity="1" stroke-width="3.84"/>
<circle clip-path="url(#clip072)" cx="1283.2" cy="1087.22" r="14.4" fill="#009af9" fill-rule="evenodd" fill-opacity="1" stroke="#000000" stroke-opacity="1" stroke-width="3.84"/>
<circle clip-path="url(#clip072)" cx="1075.13" cy="407.153" r="14.4" fill="#009af9" fill-rule="evenodd" fill-opacity="1" stroke="#000000" stroke-opacity="1" stroke-width="3.84"/>
<circle clip-path="url(#clip072)" cx="1413.88" cy="1596.71" r="14.4" fill="#009af9" fill-rule="evenodd" fill-opacity="1" stroke="#000000" stroke-opacity="1" stroke-width="3.84"/>
<circle clip-path="url(#clip072)" cx="1004.02" cy="763.536" r="14.4" fill="#009af9" fill-rule="evenodd" fill-opacity="1" stroke="#000000" stroke-opacity="1" stroke-width="3.84"/>
<circle clip-path="url(#clip072)" cx="515.319" cy="850.147" r="14.4" fill="#009af9" fill-rule="evenodd" fill-opacity="1" stroke="#000000" stroke-opacity="1" stroke-width="3.84"/>
<circle clip-path="url(#clip072)" cx="1044.76" cy="300.779" r="14.4" fill="#009af9" fill-rule="evenodd" fill-opacity="1" stroke="#000000" stroke-opacity="1" stroke-width="3.84"/>
<circle clip-path="url(#clip072)" cx="899.079" cy="770.792" r="14.4" fill="#009af9" fill-rule="evenodd" fill-opacity="1" stroke="#000000" stroke-opacity="1" stroke-width="3.84"/>
<circle clip-path="url(#clip072)" cx="520.219" cy="981.42" r="14.4" fill="#009af9" fill-rule="evenodd" fill-opacity="1" stroke="#000000" stroke-opacity="1" stroke-width="3.84"/>
<circle clip-path="url(#clip072)" cx="1360.92" cy="398.864" r="14.4" fill="#009af9" fill-rule="evenodd" fill-opacity="1" stroke="#000000" stroke-opacity="1" stroke-width="3.84"/>
<circle clip-path="url(#clip072)" cx="2572.41" cy="1564.22" r="14.4" fill="#009af9" fill-rule="evenodd" fill-opacity="1" stroke="#000000" stroke-opacity="1" stroke-width="3.84"/>
<circle clip-path="url(#clip072)" cx="923.623" cy="1371.09" r="14.4" fill="#009af9" fill-rule="evenodd" fill-opacity="1" stroke="#000000" stroke-opacity="1" stroke-width="3.84"/>
<circle clip-path="url(#clip072)" cx="1611.19" cy="336.965" r="14.4" fill="#009af9" fill-rule="evenodd" fill-opacity="1" stroke="#000000" stroke-opacity="1" stroke-width="3.84"/>
<circle clip-path="url(#clip072)" cx="1971.01" cy="1056.37" r="14.4" fill="#009af9" fill-rule="evenodd" fill-opacity="1" stroke="#000000" stroke-opacity="1" stroke-width="3.84"/>
<circle clip-path="url(#clip072)" cx="1887.85" cy="543.633" r="14.4" fill="#009af9" fill-rule="evenodd" fill-opacity="1" stroke="#000000" stroke-opacity="1" stroke-width="3.84"/>
<circle clip-path="url(#clip072)" cx="1136.8" cy="986.615" r="14.4" fill="#009af9" fill-rule="evenodd" fill-opacity="1" stroke="#000000" stroke-opacity="1" stroke-width="3.84"/>
<polyline clip-path="url(#clip072)" style="stroke:#e26f46; stroke-linecap:round; stroke-linejoin:round; stroke-width:4; stroke-opacity:1; fill:none" points="
  294.325,1078.49 309.157,1075.53 446.296,1048.23 528.711,1031.81 598.392,1017.94 674.085,1002.86 743.868,988.967 818.682,974.069 905.361,956.807 982.391,941.468 
  1049.94,928.016 1123.59,913.35 1197.67,898.597 1279.58,882.286 1357.51,866.766 1438.55,850.629 1506.76,837.046 1590.04,820.461 1666.33,805.269 1736.79,791.237 
  1808.17,777.024 1888.16,761.095 1960.64,746.661 2043.63,730.134 2120.47,714.832 2196.23,699.747 2269.78,685.099 2345.18,670.084 2427.79,653.633 2547.79,629.736 
  2572.41,624.833 
  "/>
</svg>
