<?xml version="1.0" encoding="utf-8"?>
<svg xmlns="http://www.w3.org/2000/svg" xmlns:xlink="http://www.w3.org/1999/xlink" width="672" height="480" viewBox="0 0 2688 1920">
<defs>
  <clipPath id="clip220">
    <rect x="0" y="0" width="2688" height="1920"/>
  </clipPath>
</defs>
<path clip-path="url(#clip220)" d="
M0 1920 L2688 1920 L2688 0 L0 0  Z
  " fill="#ffffff" fill-rule="evenodd" fill-opacity="1"/>
<defs>
  <clipPath id="clip221">
    <rect x="537" y="0" width="1883" height="1883"/>
  </clipPath>
</defs>
<path clip-path="url(#clip220)" d="
M159.154 1800.78 L2640.76 1800.78 L2640.76 47.2441 L159.154 47.2441  Z
  " fill="#ffffff" fill-rule="evenodd" fill-opacity="1"/>
<defs>
  <clipPath id="clip222">
    <rect x="159" y="47" width="2483" height="1755"/>
  </clipPath>
</defs>
<polyline clip-path="url(#clip222)" style="stroke:#000000; stroke-linecap:round; stroke-linejoin:round; stroke-width:2; stroke-opacity:0.1; fill:none" points="
  498.875,1800.78 498.875,47.2441 
  "/>
<polyline clip-path="url(#clip222)" style="stroke:#000000; stroke-linecap:round; stroke-linejoin:round; stroke-width:2; stroke-opacity:0.1; fill:none" points="
  944.935,1800.78 944.935,47.2441 
  "/>
<polyline clip-path="url(#clip222)" style="stroke:#000000; stroke-linecap:round; stroke-linejoin:round; stroke-width:2; stroke-opacity:0.1; fill:none" points="
  1391,1800.78 1391,47.2441 
  "/>
<polyline clip-path="url(#clip222)" style="stroke:#000000; stroke-linecap:round; stroke-linejoin:round; stroke-width:2; stroke-opacity:0.1; fill:none" points="
  1837.06,1800.78 1837.06,47.2441 
  "/>
<polyline clip-path="url(#clip222)" style="stroke:#000000; stroke-linecap:round; stroke-linejoin:round; stroke-width:2; stroke-opacity:0.1; fill:none" points="
  2283.12,1800.78 2283.12,47.2441 
  "/>
<polyline clip-path="url(#clip220)" style="stroke:#000000; stroke-linecap:round; stroke-linejoin:round; stroke-width:4; stroke-opacity:1; fill:none" points="
  159.154,1800.78 2640.76,1800.78 
  "/>
<polyline clip-path="url(#clip220)" style="stroke:#000000; stroke-linecap:round; stroke-linejoin:round; stroke-width:4; stroke-opacity:1; fill:none" points="
  498.875,1800.78 498.875,1781.88 
  "/>
<polyline clip-path="url(#clip220)" style="stroke:#000000; stroke-linecap:round; stroke-linejoin:round; stroke-width:4; stroke-opacity:1; fill:none" points="
  944.935,1800.78 944.935,1781.88 
  "/>
<polyline clip-path="url(#clip220)" style="stroke:#000000; stroke-linecap:round; stroke-linejoin:round; stroke-width:4; stroke-opacity:1; fill:none" points="
  1391,1800.78 1391,1781.88 
  "/>
<polyline clip-path="url(#clip220)" style="stroke:#000000; stroke-linecap:round; stroke-linejoin:round; stroke-width:4; stroke-opacity:1; fill:none" points="
  1837.06,1800.78 1837.06,1781.88 
  "/>
<polyline clip-path="url(#clip220)" style="stroke:#000000; stroke-linecap:round; stroke-linejoin:round; stroke-width:4; stroke-opacity:1; fill:none" points="
  2283.12,1800.78 2283.12,1781.88 
  "/>
<path clip-path="url(#clip220)" d="M476.352 1834 Q472.741 1834 470.912 1837.57 Q469.106 1841.11 469.106 1848.24 Q469.106 1855.34 470.912 1858.91 Q472.741 1862.45 476.352 1862.45 Q479.986 1862.45 481.791 1858.91 Q483.62 1855.34 483.62 1848.24 Q483.62 1841.11 481.791 1837.57 Q479.986 1834 476.352 1834 M476.352 1830.3 Q482.162 1830.3 485.217 1834.9 Q488.296 1839.49 488.296 1848.24 Q488.296 1856.96 485.217 1861.57 Q482.162 1866.15 476.352 1866.15 Q470.541 1866.15 467.463 1861.57 Q464.407 1856.96 464.407 1848.24 Q464.407 1839.49 467.463 1834.9 Q470.541 1830.3 476.352 1830.3 Z" fill="#000000" fill-rule="evenodd" fill-opacity="1" /><path clip-path="url(#clip220)" d="M496.514 1859.6 L501.398 1859.6 L501.398 1865.48 L496.514 1865.48 L496.514 1859.6 Z" fill="#000000" fill-rule="evenodd" fill-opacity="1" /><path clip-path="url(#clip220)" d="M511.722 1864.77 L511.722 1860.51 Q513.481 1861.34 515.287 1861.78 Q517.092 1862.22 518.828 1862.22 Q523.458 1862.22 525.888 1859.12 Q528.342 1855.99 528.689 1849.65 Q527.347 1851.64 525.287 1852.71 Q523.226 1853.77 520.726 1853.77 Q515.541 1853.77 512.509 1850.65 Q509.5 1847.5 509.5 1842.06 Q509.5 1836.73 512.648 1833.52 Q515.796 1830.3 521.027 1830.3 Q527.023 1830.3 530.171 1834.9 Q533.342 1839.49 533.342 1848.24 Q533.342 1856.41 529.453 1861.29 Q525.587 1866.15 519.037 1866.15 Q517.277 1866.15 515.472 1865.81 Q513.666 1865.46 511.722 1864.77 M521.027 1850.11 Q524.175 1850.11 526.004 1847.96 Q527.856 1845.81 527.856 1842.06 Q527.856 1838.33 526.004 1836.18 Q524.175 1834 521.027 1834 Q517.879 1834 516.027 1836.18 Q514.199 1838.33 514.199 1842.06 Q514.199 1845.81 516.027 1847.96 Q517.879 1850.11 521.027 1850.11 Z" fill="#000000" fill-rule="evenodd" fill-opacity="1" /><path clip-path="url(#clip220)" d="M912.887 1861.55 L920.526 1861.55 L920.526 1835.18 L912.216 1836.85 L912.216 1832.59 L920.48 1830.92 L925.155 1830.92 L925.155 1861.55 L932.794 1861.55 L932.794 1865.48 L912.887 1865.48 L912.887 1861.55 Z" fill="#000000" fill-rule="evenodd" fill-opacity="1" /><path clip-path="url(#clip220)" d="M942.239 1859.6 L947.123 1859.6 L947.123 1865.48 L942.239 1865.48 L942.239 1859.6 Z" fill="#000000" fill-rule="evenodd" fill-opacity="1" /><path clip-path="url(#clip220)" d="M961.336 1861.55 L977.655 1861.55 L977.655 1865.48 L955.711 1865.48 L955.711 1861.55 Q958.373 1858.79 962.956 1854.16 Q967.563 1849.51 968.743 1848.17 Q970.989 1845.65 971.868 1843.91 Q972.771 1842.15 972.771 1840.46 Q972.771 1837.71 970.826 1835.97 Q968.905 1834.23 965.803 1834.23 Q963.604 1834.23 961.151 1835 Q958.72 1835.76 955.942 1837.31 L955.942 1832.59 Q958.766 1831.46 961.22 1830.88 Q963.674 1830.3 965.711 1830.3 Q971.081 1830.3 974.276 1832.98 Q977.47 1835.67 977.47 1840.16 Q977.47 1842.29 976.66 1844.21 Q975.873 1846.11 973.766 1848.7 Q973.188 1849.37 970.086 1852.59 Q966.984 1855.78 961.336 1861.55 Z" fill="#000000" fill-rule="evenodd" fill-opacity="1" /><path clip-path="url(#clip220)" d="M1358.65 1861.55 L1366.29 1861.55 L1366.29 1835.18 L1357.98 1836.85 L1357.98 1832.59 L1366.24 1830.92 L1370.92 1830.92 L1370.92 1861.55 L1378.55 1861.55 L1378.55 1865.48 L1358.65 1865.48 L1358.65 1861.55 Z" fill="#000000" fill-rule="evenodd" fill-opacity="1" /><path clip-path="url(#clip220)" d="M1388 1859.6 L1392.88 1859.6 L1392.88 1865.48 L1388 1865.48 L1388 1859.6 Z" fill="#000000" fill-rule="evenodd" fill-opacity="1" /><path clip-path="url(#clip220)" d="M1403.11 1830.92 L1421.47 1830.92 L1421.47 1834.86 L1407.4 1834.86 L1407.4 1843.33 Q1408.42 1842.98 1409.43 1842.82 Q1410.45 1842.64 1411.47 1842.64 Q1417.26 1842.64 1420.64 1845.81 Q1424.02 1848.98 1424.02 1854.4 Q1424.02 1859.97 1420.54 1863.08 Q1417.07 1866.15 1410.75 1866.15 Q1408.58 1866.15 1406.31 1865.78 Q1404.06 1865.41 1401.66 1864.67 L1401.66 1859.97 Q1403.74 1861.11 1405.96 1861.66 Q1408.18 1862.22 1410.66 1862.22 Q1414.67 1862.22 1417 1860.11 Q1419.34 1858.01 1419.34 1854.4 Q1419.34 1850.78 1417 1848.68 Q1414.67 1846.57 1410.66 1846.57 Q1408.79 1846.57 1406.91 1846.99 Q1405.06 1847.4 1403.11 1848.28 L1403.11 1830.92 Z" fill="#000000" fill-rule="evenodd" fill-opacity="1" /><path clip-path="url(#clip220)" d="M1804.26 1861.55 L1811.9 1861.55 L1811.9 1835.18 L1803.58 1836.85 L1803.58 1832.59 L1811.85 1830.92 L1816.52 1830.92 L1816.52 1861.55 L1824.16 1861.55 L1824.16 1865.48 L1804.26 1865.48 L1804.26 1861.55 Z" fill="#000000" fill-rule="evenodd" fill-opacity="1" /><path clip-path="url(#clip220)" d="M1833.61 1859.6 L1838.49 1859.6 L1838.49 1865.48 L1833.61 1865.48 L1833.61 1859.6 Z" fill="#000000" fill-rule="evenodd" fill-opacity="1" /><path clip-path="url(#clip220)" d="M1858.68 1849.07 Q1855.34 1849.07 1853.42 1850.85 Q1851.52 1852.64 1851.52 1855.76 Q1851.52 1858.89 1853.42 1860.67 Q1855.34 1862.45 1858.68 1862.45 Q1862.01 1862.45 1863.93 1860.67 Q1865.85 1858.86 1865.85 1855.76 Q1865.85 1852.64 1863.93 1850.85 Q1862.03 1849.07 1858.68 1849.07 M1854 1847.08 Q1850.99 1846.34 1849.3 1844.28 Q1847.64 1842.22 1847.64 1839.26 Q1847.64 1835.11 1850.58 1832.71 Q1853.54 1830.3 1858.68 1830.3 Q1863.84 1830.3 1866.78 1832.71 Q1869.72 1835.11 1869.72 1839.26 Q1869.72 1842.22 1868.03 1844.28 Q1866.36 1846.34 1863.38 1847.08 Q1866.76 1847.87 1868.63 1850.16 Q1870.53 1852.45 1870.53 1855.76 Q1870.53 1860.78 1867.45 1863.47 Q1864.39 1866.15 1858.68 1866.15 Q1852.96 1866.15 1849.88 1863.47 Q1846.83 1860.78 1846.83 1855.76 Q1846.83 1852.45 1848.72 1850.16 Q1850.62 1847.87 1854 1847.08 M1852.29 1839.7 Q1852.29 1842.38 1853.95 1843.89 Q1855.64 1845.39 1858.68 1845.39 Q1861.69 1845.39 1863.38 1843.89 Q1865.09 1842.38 1865.09 1839.7 Q1865.09 1837.01 1863.38 1835.51 Q1861.69 1834 1858.68 1834 Q1855.64 1834 1853.95 1835.51 Q1852.29 1837.01 1852.29 1839.7 Z" fill="#000000" fill-rule="evenodd" fill-opacity="1" /><path clip-path="url(#clip220)" d="M2254.97 1861.55 L2271.29 1861.55 L2271.29 1865.48 L2249.34 1865.48 L2249.34 1861.55 Q2252.01 1858.79 2256.59 1854.16 Q2261.2 1849.51 2262.38 1848.17 Q2264.62 1845.65 2265.5 1843.91 Q2266.4 1842.15 2266.4 1840.46 Q2266.4 1837.71 2264.46 1835.97 Q2262.54 1834.23 2259.44 1834.23 Q2257.24 1834.23 2254.78 1835 Q2252.35 1835.76 2249.58 1837.31 L2249.58 1832.59 Q2252.4 1831.46 2254.85 1830.88 Q2257.31 1830.3 2259.34 1830.3 Q2264.71 1830.3 2267.91 1832.98 Q2271.1 1835.67 2271.1 1840.16 Q2271.1 1842.29 2270.29 1844.21 Q2269.51 1846.11 2267.4 1848.7 Q2266.82 1849.37 2263.72 1852.59 Q2260.62 1855.78 2254.97 1861.55 Z" fill="#000000" fill-rule="evenodd" fill-opacity="1" /><path clip-path="url(#clip220)" d="M2281.1 1859.6 L2285.99 1859.6 L2285.99 1865.48 L2281.1 1865.48 L2281.1 1859.6 Z" fill="#000000" fill-rule="evenodd" fill-opacity="1" /><path clip-path="url(#clip220)" d="M2296.98 1861.55 L2304.62 1861.55 L2304.62 1835.18 L2296.31 1836.85 L2296.31 1832.59 L2304.58 1830.92 L2309.25 1830.92 L2309.25 1861.55 L2316.89 1861.55 L2316.89 1865.48 L2296.98 1865.48 L2296.98 1861.55 Z" fill="#000000" fill-rule="evenodd" fill-opacity="1" /><polyline clip-path="url(#clip222)" style="stroke:#000000; stroke-linecap:round; stroke-linejoin:round; stroke-width:2; stroke-opacity:0.1; fill:none" points="
  159.154,1444.58 2640.76,1444.58 
  "/>
<polyline clip-path="url(#clip222)" style="stroke:#000000; stroke-linecap:round; stroke-linejoin:round; stroke-width:2; stroke-opacity:0.1; fill:none" points="
  159.154,1028.63 2640.76,1028.63 
  "/>
<polyline clip-path="url(#clip222)" style="stroke:#000000; stroke-linecap:round; stroke-linejoin:round; stroke-width:2; stroke-opacity:0.1; fill:none" points="
  159.154,612.683 2640.76,612.683 
  "/>
<polyline clip-path="url(#clip222)" style="stroke:#000000; stroke-linecap:round; stroke-linejoin:round; stroke-width:2; stroke-opacity:0.1; fill:none" points="
  159.154,196.734 2640.76,196.734 
  "/>
<polyline clip-path="url(#clip220)" style="stroke:#000000; stroke-linecap:round; stroke-linejoin:round; stroke-width:4; stroke-opacity:1; fill:none" points="
  159.154,1800.78 159.154,47.2441 
  "/>
<polyline clip-path="url(#clip220)" style="stroke:#000000; stroke-linecap:round; stroke-linejoin:round; stroke-width:4; stroke-opacity:1; fill:none" points="
  159.154,1444.58 178.052,1444.58 
  "/>
<polyline clip-path="url(#clip220)" style="stroke:#000000; stroke-linecap:round; stroke-linejoin:round; stroke-width:4; stroke-opacity:1; fill:none" points="
  159.154,1028.63 178.052,1028.63 
  "/>
<polyline clip-path="url(#clip220)" style="stroke:#000000; stroke-linecap:round; stroke-linejoin:round; stroke-width:4; stroke-opacity:1; fill:none" points="
  159.154,612.683 178.052,612.683 
  "/>
<polyline clip-path="url(#clip220)" style="stroke:#000000; stroke-linecap:round; stroke-linejoin:round; stroke-width:4; stroke-opacity:1; fill:none" points="
  159.154,196.734 178.052,196.734 
  "/>
<path clip-path="url(#clip220)" d="M61.6585 1430.38 Q58.0475 1430.38 56.2188 1433.94 Q54.4132 1437.49 54.4132 1444.62 Q54.4132 1451.72 56.2188 1455.29 Q58.0475 1458.83 61.6585 1458.83 Q65.2928 1458.83 67.0983 1455.29 Q68.927 1451.72 68.927 1444.62 Q68.927 1437.49 67.0983 1433.94 Q65.2928 1430.38 61.6585 1430.38 M61.6585 1426.68 Q67.4687 1426.68 70.5242 1431.28 Q73.6029 1435.87 73.6029 1444.62 Q73.6029 1453.34 70.5242 1457.95 Q67.4687 1462.53 61.6585 1462.53 Q55.8484 1462.53 52.7697 1457.95 Q49.7142 1453.34 49.7142 1444.62 Q49.7142 1435.87 52.7697 1431.28 Q55.8484 1426.68 61.6585 1426.68 Z" fill="#000000" fill-rule="evenodd" fill-opacity="1" /><path clip-path="url(#clip220)" d="M81.8205 1455.98 L86.7047 1455.98 L86.7047 1461.86 L81.8205 1461.86 L81.8205 1455.98 Z" fill="#000000" fill-rule="evenodd" fill-opacity="1" /><path clip-path="url(#clip220)" d="M106.89 1430.38 Q103.279 1430.38 101.45 1433.94 Q99.6445 1437.49 99.6445 1444.62 Q99.6445 1451.72 101.45 1455.29 Q103.279 1458.83 106.89 1458.83 Q110.524 1458.83 112.33 1455.29 Q114.158 1451.72 114.158 1444.62 Q114.158 1437.49 112.33 1433.94 Q110.524 1430.38 106.89 1430.38 M106.89 1426.68 Q112.7 1426.68 115.755 1431.28 Q118.834 1435.87 118.834 1444.62 Q118.834 1453.34 115.755 1457.95 Q112.7 1462.53 106.89 1462.53 Q101.08 1462.53 98.0009 1457.95 Q94.9454 1453.34 94.9454 1444.62 Q94.9454 1435.87 98.0009 1431.28 Q101.08 1426.68 106.89 1426.68 Z" fill="#000000" fill-rule="evenodd" fill-opacity="1" /><path clip-path="url(#clip220)" d="M62.3067 1014.43 Q58.6956 1014.43 56.8669 1018 Q55.0614 1021.54 55.0614 1028.67 Q55.0614 1035.77 56.8669 1039.34 Q58.6956 1042.88 62.3067 1042.88 Q65.9409 1042.88 67.7465 1039.34 Q69.5752 1035.77 69.5752 1028.67 Q69.5752 1021.54 67.7465 1018 Q65.9409 1014.43 62.3067 1014.43 M62.3067 1010.73 Q68.1168 1010.73 71.1724 1015.33 Q74.2511 1019.92 74.2511 1028.67 Q74.2511 1037.39 71.1724 1042 Q68.1168 1046.58 62.3067 1046.58 Q56.4965 1046.58 53.4178 1042 Q50.3623 1037.39 50.3623 1028.67 Q50.3623 1019.92 53.4178 1015.33 Q56.4965 1010.73 62.3067 1010.73 Z" fill="#000000" fill-rule="evenodd" fill-opacity="1" /><path clip-path="url(#clip220)" d="M82.4686 1040.03 L87.3528 1040.03 L87.3528 1045.91 L82.4686 1045.91 L82.4686 1040.03 Z" fill="#000000" fill-rule="evenodd" fill-opacity="1" /><path clip-path="url(#clip220)" d="M111.705 1027.28 Q115.061 1028 116.936 1030.26 Q118.834 1032.53 118.834 1035.87 Q118.834 1040.98 115.316 1043.78 Q111.797 1046.58 105.316 1046.58 Q103.14 1046.58 100.825 1046.14 Q98.5333 1045.73 96.0797 1044.87 L96.0797 1040.36 Q98.0241 1041.49 100.339 1042.07 Q102.654 1042.65 105.177 1042.65 Q109.575 1042.65 111.867 1040.91 Q114.181 1039.18 114.181 1035.87 Q114.181 1032.81 112.029 1031.1 Q109.899 1029.36 106.08 1029.36 L102.052 1029.36 L102.052 1025.52 L106.265 1025.52 Q109.714 1025.52 111.543 1024.15 Q113.371 1022.76 113.371 1020.17 Q113.371 1017.51 111.473 1016.1 Q109.598 1014.66 106.08 1014.66 Q104.158 1014.66 101.959 1015.08 Q99.7602 1015.5 97.1213 1016.38 L97.1213 1012.21 Q99.7833 1011.47 102.098 1011.1 Q104.436 1010.73 106.496 1010.73 Q111.82 1010.73 114.922 1013.16 Q118.024 1015.57 118.024 1019.69 Q118.024 1022.56 116.38 1024.55 Q114.737 1026.51 111.705 1027.28 Z" fill="#000000" fill-rule="evenodd" fill-opacity="1" /><path clip-path="url(#clip220)" d="M61.4965 598.482 Q57.8854 598.482 56.0567 602.046 Q54.2512 605.588 54.2512 612.718 Q54.2512 619.824 56.0567 623.389 Q57.8854 626.93 61.4965 626.93 Q65.1307 626.93 66.9363 623.389 Q68.765 619.824 68.765 612.718 Q68.765 605.588 66.9363 602.046 Q65.1307 598.482 61.4965 598.482 M61.4965 594.778 Q67.3067 594.778 70.3622 599.384 Q73.4409 603.968 73.4409 612.718 Q73.4409 621.444 70.3622 626.051 Q67.3067 630.634 61.4965 630.634 Q55.6864 630.634 52.6077 626.051 Q49.5521 621.444 49.5521 612.718 Q49.5521 603.968 52.6077 599.384 Q55.6864 594.778 61.4965 594.778 Z" fill="#000000" fill-rule="evenodd" fill-opacity="1" /><path clip-path="url(#clip220)" d="M81.6584 624.083 L86.5427 624.083 L86.5427 629.963 L81.6584 629.963 L81.6584 624.083 Z" fill="#000000" fill-rule="evenodd" fill-opacity="1" /><path clip-path="url(#clip220)" d="M107.306 610.819 Q104.158 610.819 102.306 612.972 Q100.478 615.125 100.478 618.875 Q100.478 622.602 102.306 624.778 Q104.158 626.93 107.306 626.93 Q110.455 626.93 112.283 624.778 Q114.135 622.602 114.135 618.875 Q114.135 615.125 112.283 612.972 Q110.455 610.819 107.306 610.819 M116.589 596.167 L116.589 600.426 Q114.83 599.593 113.024 599.153 Q111.242 598.713 109.482 598.713 Q104.853 598.713 102.399 601.838 Q99.9685 604.963 99.6213 611.282 Q100.987 609.269 103.047 608.204 Q105.107 607.116 107.584 607.116 Q112.793 607.116 115.802 610.287 Q118.834 613.435 118.834 618.875 Q118.834 624.199 115.686 627.417 Q112.538 630.634 107.306 630.634 Q101.311 630.634 98.1398 626.051 Q94.9685 621.444 94.9685 612.718 Q94.9685 604.523 98.8574 599.662 Q102.746 594.778 109.297 594.778 Q111.056 594.778 112.839 595.125 Q114.644 595.472 116.589 596.167 Z" fill="#000000" fill-rule="evenodd" fill-opacity="1" /><path clip-path="url(#clip220)" d="M61.8437 182.532 Q58.2326 182.532 56.4039 186.097 Q54.5984 189.639 54.5984 196.768 Q54.5984 203.875 56.4039 207.44 Q58.2326 210.981 61.8437 210.981 Q65.478 210.981 67.2835 207.44 Q69.1122 203.875 69.1122 196.768 Q69.1122 189.639 67.2835 186.097 Q65.478 182.532 61.8437 182.532 M61.8437 178.829 Q67.6539 178.829 70.7094 183.435 Q73.7881 188.018 73.7881 196.768 Q73.7881 205.495 70.7094 210.102 Q67.6539 214.685 61.8437 214.685 Q56.0336 214.685 52.9549 210.102 Q49.8993 205.495 49.8993 196.768 Q49.8993 188.018 52.9549 183.435 Q56.0336 178.829 61.8437 178.829 Z" fill="#000000" fill-rule="evenodd" fill-opacity="1" /><path clip-path="url(#clip220)" d="M82.0057 208.134 L86.8899 208.134 L86.8899 214.014 L82.0057 214.014 L82.0057 208.134 Z" fill="#000000" fill-rule="evenodd" fill-opacity="1" /><path clip-path="url(#clip220)" d="M97.2139 213.296 L97.2139 209.037 Q98.9732 209.87 100.779 210.31 Q102.584 210.75 104.32 210.75 Q108.95 210.75 111.38 207.648 Q113.834 204.523 114.181 198.18 Q112.839 200.171 110.779 201.236 Q108.718 202.301 106.218 202.301 Q101.033 202.301 98.0009 199.176 Q94.9917 196.028 94.9917 190.588 Q94.9917 185.264 98.1398 182.046 Q101.288 178.829 106.519 178.829 Q112.515 178.829 115.663 183.435 Q118.834 188.018 118.834 196.768 Q118.834 204.94 114.945 209.824 Q111.08 214.685 104.529 214.685 Q102.769 214.685 100.964 214.338 Q99.1583 213.99 97.2139 213.296 M106.519 198.643 Q109.668 198.643 111.496 196.491 Q113.348 194.338 113.348 190.588 Q113.348 186.861 111.496 184.708 Q109.668 182.532 106.519 182.532 Q103.371 182.532 101.519 184.708 Q99.6907 186.861 99.6907 190.588 Q99.6907 194.338 101.519 196.491 Q103.371 198.643 106.519 198.643 Z" fill="#000000" fill-rule="evenodd" fill-opacity="1" /><circle clip-path="url(#clip222)" cx="707.894" cy="1428.74" r="14.4" fill="#009af9" fill-rule="evenodd" fill-opacity="1" stroke="#000000" stroke-opacity="1" stroke-width="3.84"/>
<circle clip-path="url(#clip222)" cx="1178.96" cy="1705.08" r="14.4" fill="#009af9" fill-rule="evenodd" fill-opacity="1" stroke="#000000" stroke-opacity="1" stroke-width="3.84"/>
<circle clip-path="url(#clip222)" cx="871.57" cy="987.191" r="14.4" fill="#009af9" fill-rule="evenodd" fill-opacity="1" stroke="#000000" stroke-opacity="1" stroke-width="3.84"/>
<circle clip-path="url(#clip222)" cx="963.29" cy="1751.15" r="14.4" fill="#009af9" fill-rule="evenodd" fill-opacity="1" stroke="#000000" stroke-opacity="1" stroke-width="3.84"/>
<circle clip-path="url(#clip222)" cx="1242.06" cy="1057.62" r="14.4" fill="#009af9" fill-rule="evenodd" fill-opacity="1" stroke="#000000" stroke-opacity="1" stroke-width="3.84"/>
<circle clip-path="url(#clip222)" cx="1967.6" cy="858.958" r="14.4" fill="#009af9" fill-rule="evenodd" fill-opacity="1" stroke="#000000" stroke-opacity="1" stroke-width="3.84"/>
<circle clip-path="url(#clip222)" cx="1712.87" cy="470.826" r="14.4" fill="#009af9" fill-rule="evenodd" fill-opacity="1" stroke="#000000" stroke-opacity="1" stroke-width="3.84"/>
<circle clip-path="url(#clip222)" cx="1275.2" cy="1682.39" r="14.4" fill="#009af9" fill-rule="evenodd" fill-opacity="1" stroke="#000000" stroke-opacity="1" stroke-width="3.84"/>
<circle clip-path="url(#clip222)" cx="1020.83" cy="1011.24" r="14.4" fill="#009af9" fill-rule="evenodd" fill-opacity="1" stroke="#000000" stroke-opacity="1" stroke-width="3.84"/>
<circle clip-path="url(#clip222)" cx="1545.01" cy="1397" r="14.4" fill="#009af9" fill-rule="evenodd" fill-opacity="1" stroke="#000000" stroke-opacity="1" stroke-width="3.84"/>
<circle clip-path="url(#clip222)" cx="2109.19" cy="1146.59" r="14.4" fill="#009af9" fill-rule="evenodd" fill-opacity="1" stroke="#000000" stroke-opacity="1" stroke-width="3.84"/>
<circle clip-path="url(#clip222)" cx="1633.45" cy="860.763" r="14.4" fill="#009af9" fill-rule="evenodd" fill-opacity="1" stroke="#000000" stroke-opacity="1" stroke-width="3.84"/>
<circle clip-path="url(#clip222)" cx="1090.78" cy="926.258" r="14.4" fill="#009af9" fill-rule="evenodd" fill-opacity="1" stroke="#000000" stroke-opacity="1" stroke-width="3.84"/>
<circle clip-path="url(#clip222)" cx="770.95" cy="1372.49" r="14.4" fill="#009af9" fill-rule="evenodd" fill-opacity="1" stroke="#000000" stroke-opacity="1" stroke-width="3.84"/>
<circle clip-path="url(#clip222)" cx="806.348" cy="1424.22" r="14.4" fill="#009af9" fill-rule="evenodd" fill-opacity="1" stroke="#000000" stroke-opacity="1" stroke-width="3.84"/>
<circle clip-path="url(#clip222)" cx="2570.52" cy="1117.61" r="14.4" fill="#009af9" fill-rule="evenodd" fill-opacity="1" stroke="#000000" stroke-opacity="1" stroke-width="3.84"/>
<circle clip-path="url(#clip222)" cx="1417.32" cy="1117.35" r="14.4" fill="#009af9" fill-rule="evenodd" fill-opacity="1" stroke="#000000" stroke-opacity="1" stroke-width="3.84"/>
<circle clip-path="url(#clip222)" cx="1086.42" cy="884.225" r="14.4" fill="#009af9" fill-rule="evenodd" fill-opacity="1" stroke="#000000" stroke-opacity="1" stroke-width="3.84"/>
<circle clip-path="url(#clip222)" cx="835.773" cy="1231.61" r="14.4" fill="#009af9" fill-rule="evenodd" fill-opacity="1" stroke="#000000" stroke-opacity="1" stroke-width="3.84"/>
<circle clip-path="url(#clip222)" cx="889.142" cy="1567.4" r="14.4" fill="#009af9" fill-rule="evenodd" fill-opacity="1" stroke="#000000" stroke-opacity="1" stroke-width="3.84"/>
<circle clip-path="url(#clip222)" cx="1919.18" cy="687.97" r="14.4" fill="#009af9" fill-rule="evenodd" fill-opacity="1" stroke="#000000" stroke-opacity="1" stroke-width="3.84"/>
<circle clip-path="url(#clip222)" cx="936.697" cy="886.55" r="14.4" fill="#009af9" fill-rule="evenodd" fill-opacity="1" stroke="#000000" stroke-opacity="1" stroke-width="3.84"/>
<circle clip-path="url(#clip222)" cx="229.388" cy="879.046" r="14.4" fill="#009af9" fill-rule="evenodd" fill-opacity="1" stroke="#000000" stroke-opacity="1" stroke-width="3.84"/>
<circle clip-path="url(#clip222)" cx="1506.83" cy="1042.01" r="14.4" fill="#009af9" fill-rule="evenodd" fill-opacity="1" stroke="#000000" stroke-opacity="1" stroke-width="3.84"/>
<circle clip-path="url(#clip222)" cx="1365.6" cy="1333.17" r="14.4" fill="#009af9" fill-rule="evenodd" fill-opacity="1" stroke="#000000" stroke-opacity="1" stroke-width="3.84"/>
<circle clip-path="url(#clip222)" cx="2156.2" cy="1441.11" r="14.4" fill="#009af9" fill-rule="evenodd" fill-opacity="1" stroke="#000000" stroke-opacity="1" stroke-width="3.84"/>
<circle clip-path="url(#clip222)" cx="1487.21" cy="920.19" r="14.4" fill="#009af9" fill-rule="evenodd" fill-opacity="1" stroke="#000000" stroke-opacity="1" stroke-width="3.84"/>
<circle clip-path="url(#clip222)" cx="1173.4" cy="1411.38" r="14.4" fill="#009af9" fill-rule="evenodd" fill-opacity="1" stroke="#000000" stroke-opacity="1" stroke-width="3.84"/>
<circle clip-path="url(#clip222)" cx="1815.06" cy="651.386" r="14.4" fill="#009af9" fill-rule="evenodd" fill-opacity="1" stroke="#000000" stroke-opacity="1" stroke-width="3.84"/>
<circle clip-path="url(#clip222)" cx="1241.24" cy="1547" r="14.4" fill="#009af9" fill-rule="evenodd" fill-opacity="1" stroke="#000000" stroke-opacity="1" stroke-width="3.84"/>
<circle clip-path="url(#clip222)" cx="1559.06" cy="1081.74" r="14.4" fill="#009af9" fill-rule="evenodd" fill-opacity="1" stroke="#000000" stroke-opacity="1" stroke-width="3.84"/>
<circle clip-path="url(#clip222)" cx="613.66" cy="1193.45" r="14.4" fill="#009af9" fill-rule="evenodd" fill-opacity="1" stroke="#000000" stroke-opacity="1" stroke-width="3.84"/>
<circle clip-path="url(#clip222)" cx="1516.66" cy="1522.18" r="14.4" fill="#009af9" fill-rule="evenodd" fill-opacity="1" stroke="#000000" stroke-opacity="1" stroke-width="3.84"/>
<circle clip-path="url(#clip222)" cx="2059.29" cy="1672.46" r="14.4" fill="#009af9" fill-rule="evenodd" fill-opacity="1" stroke="#000000" stroke-opacity="1" stroke-width="3.84"/>
<circle clip-path="url(#clip222)" cx="1798.19" cy="488.477" r="14.4" fill="#009af9" fill-rule="evenodd" fill-opacity="1" stroke="#000000" stroke-opacity="1" stroke-width="3.84"/>
<circle clip-path="url(#clip222)" cx="1197.46" cy="1391.96" r="14.4" fill="#009af9" fill-rule="evenodd" fill-opacity="1" stroke="#000000" stroke-opacity="1" stroke-width="3.84"/>
<circle clip-path="url(#clip222)" cx="867.698" cy="1253.11" r="14.4" fill="#009af9" fill-rule="evenodd" fill-opacity="1" stroke="#000000" stroke-opacity="1" stroke-width="3.84"/>
<circle clip-path="url(#clip222)" cx="969.293" cy="830.772" r="14.4" fill="#009af9" fill-rule="evenodd" fill-opacity="1" stroke="#000000" stroke-opacity="1" stroke-width="3.84"/>
<circle clip-path="url(#clip222)" cx="767.173" cy="1569.47" r="14.4" fill="#009af9" fill-rule="evenodd" fill-opacity="1" stroke="#000000" stroke-opacity="1" stroke-width="3.84"/>
<circle clip-path="url(#clip222)" cx="1205.34" cy="1287.27" r="14.4" fill="#009af9" fill-rule="evenodd" fill-opacity="1" stroke="#000000" stroke-opacity="1" stroke-width="3.84"/>
<circle clip-path="url(#clip222)" cx="1026.97" cy="1460.37" r="14.4" fill="#009af9" fill-rule="evenodd" fill-opacity="1" stroke="#000000" stroke-opacity="1" stroke-width="3.84"/>
<circle clip-path="url(#clip222)" cx="598.8" cy="1029.84" r="14.4" fill="#009af9" fill-rule="evenodd" fill-opacity="1" stroke="#000000" stroke-opacity="1" stroke-width="3.84"/>
<circle clip-path="url(#clip222)" cx="893.068" cy="1366.66" r="14.4" fill="#009af9" fill-rule="evenodd" fill-opacity="1" stroke="#000000" stroke-opacity="1" stroke-width="3.84"/>
<circle clip-path="url(#clip222)" cx="1688.32" cy="317.389" r="14.4" fill="#009af9" fill-rule="evenodd" fill-opacity="1" stroke="#000000" stroke-opacity="1" stroke-width="3.84"/>
<circle clip-path="url(#clip222)" cx="1655.45" cy="96.8724" r="14.4" fill="#009af9" fill-rule="evenodd" fill-opacity="1" stroke="#000000" stroke-opacity="1" stroke-width="3.84"/>
<circle clip-path="url(#clip222)" cx="1866.39" cy="1145.06" r="14.4" fill="#009af9" fill-rule="evenodd" fill-opacity="1" stroke="#000000" stroke-opacity="1" stroke-width="3.84"/>
<circle clip-path="url(#clip222)" cx="2338.41" cy="1306.03" r="14.4" fill="#009af9" fill-rule="evenodd" fill-opacity="1" stroke="#000000" stroke-opacity="1" stroke-width="3.84"/>
<circle clip-path="url(#clip222)" cx="1015.77" cy="1555.08" r="14.4" fill="#009af9" fill-rule="evenodd" fill-opacity="1" stroke="#000000" stroke-opacity="1" stroke-width="3.84"/>
<circle clip-path="url(#clip222)" cx="1352.8" cy="390.85" r="14.4" fill="#009af9" fill-rule="evenodd" fill-opacity="1" stroke="#000000" stroke-opacity="1" stroke-width="3.84"/>
<circle clip-path="url(#clip222)" cx="1512.78" cy="1257.89" r="14.4" fill="#009af9" fill-rule="evenodd" fill-opacity="1" stroke="#000000" stroke-opacity="1" stroke-width="3.84"/>
<polyline clip-path="url(#clip222)" style="stroke:#e26f46; stroke-linecap:round; stroke-linejoin:round; stroke-width:4; stroke-opacity:1; fill:none" points="
  229.388,1310.89 244.63,1308.03 385.565,1281.58 470.261,1265.69 541.87,1252.25 619.658,1237.65 691.372,1224.19 768.256,1209.76 857.334,1193.05 936.497,1178.19 
  1005.91,1165.16 1081.6,1150.96 1157.73,1136.67 1241.91,1120.88 1322,1105.85 1405.28,1090.22 1475.38,1077.06 1560.96,1061 1639.37,1046.29 1711.78,1032.7 
  1785.12,1018.94 1867.33,1003.51 1941.82,989.533 2027.1,973.528 2106.07,958.709 2183.92,944.099 2259.51,929.915 2337,915.373 2421.9,899.442 2545.22,876.298 
  2570.52,871.55 
  "/>
</svg>
