<?xml version="1.0" encoding="utf-8"?>
<svg xmlns="http://www.w3.org/2000/svg" xmlns:xlink="http://www.w3.org/1999/xlink" width="576" height="384" viewBox="0 0 2304 1536">
<defs>
  <clipPath id="clip460">
    <rect x="0" y="0" width="2304" height="1536"/>
  </clipPath>
</defs>
<path clip-path="url(#clip460)" d="
M0 1536 L2304 1536 L2304 0 L0 0  Z
  " fill="#ffffff" fill-rule="evenodd" fill-opacity="1"/>
<defs>
  <clipPath id="clip461">
    <rect x="460" y="0" width="1614" height="1536"/>
  </clipPath>
</defs>
<path clip-path="url(#clip460)" d="
M222.143 1423.09 L2256.76 1423.09 L2256.76 47.2441 L222.143 47.2441  Z
  " fill="#ffffff" fill-rule="evenodd" fill-opacity="1"/>
<defs>
  <clipPath id="clip462">
    <rect x="222" y="47" width="2036" height="1377"/>
  </clipPath>
</defs>
<polyline clip-path="url(#clip462)" style="stroke:#000000; stroke-linecap:round; stroke-linejoin:round; stroke-width:2; stroke-opacity:0.1; fill:none" points="
  237.085,1423.09 237.085,47.2441 
  "/>
<polyline clip-path="url(#clip462)" style="stroke:#000000; stroke-linecap:round; stroke-linejoin:round; stroke-width:2; stroke-opacity:0.1; fill:none" points="
  766.788,1423.09 766.788,47.2441 
  "/>
<polyline clip-path="url(#clip462)" style="stroke:#000000; stroke-linecap:round; stroke-linejoin:round; stroke-width:2; stroke-opacity:0.1; fill:none" points="
  1296.49,1423.09 1296.49,47.2441 
  "/>
<polyline clip-path="url(#clip462)" style="stroke:#000000; stroke-linecap:round; stroke-linejoin:round; stroke-width:2; stroke-opacity:0.1; fill:none" points="
  1826.19,1423.09 1826.19,47.2441 
  "/>
<polyline clip-path="url(#clip460)" style="stroke:#000000; stroke-linecap:round; stroke-linejoin:round; stroke-width:4; stroke-opacity:1; fill:none" points="
  222.143,1423.09 2256.76,1423.09 
  "/>
<polyline clip-path="url(#clip460)" style="stroke:#000000; stroke-linecap:round; stroke-linejoin:round; stroke-width:4; stroke-opacity:1; fill:none" points="
  237.085,1423.09 237.085,1404.19 
  "/>
<polyline clip-path="url(#clip460)" style="stroke:#000000; stroke-linecap:round; stroke-linejoin:round; stroke-width:4; stroke-opacity:1; fill:none" points="
  766.788,1423.09 766.788,1404.19 
  "/>
<polyline clip-path="url(#clip460)" style="stroke:#000000; stroke-linecap:round; stroke-linejoin:round; stroke-width:4; stroke-opacity:1; fill:none" points="
  1296.49,1423.09 1296.49,1404.19 
  "/>
<polyline clip-path="url(#clip460)" style="stroke:#000000; stroke-linecap:round; stroke-linejoin:round; stroke-width:4; stroke-opacity:1; fill:none" points="
  1826.19,1423.09 1826.19,1404.19 
  "/>
<path clip-path="url(#clip460)" d="M214.968 1453.24 Q211.356 1453.24 209.528 1456.8 Q207.722 1460.35 207.722 1467.47 Q207.722 1474.58 209.528 1478.15 Q211.356 1481.69 214.968 1481.69 Q218.602 1481.69 220.407 1478.15 Q222.236 1474.58 222.236 1467.47 Q222.236 1460.35 220.407 1456.8 Q218.602 1453.24 214.968 1453.24 M214.968 1449.53 Q220.778 1449.53 223.833 1454.14 Q226.912 1458.72 226.912 1467.47 Q226.912 1476.2 223.833 1480.81 Q220.778 1485.39 214.968 1485.39 Q209.157 1485.39 206.079 1480.81 Q203.023 1476.2 203.023 1467.47 Q203.023 1458.72 206.079 1454.14 Q209.157 1449.53 214.968 1449.53 Z" fill="#000000" fill-rule="evenodd" fill-opacity="1" /><path clip-path="url(#clip460)" d="M235.129 1478.84 L240.014 1478.84 L240.014 1484.72 L235.129 1484.72 L235.129 1478.84 Z" fill="#000000" fill-rule="evenodd" fill-opacity="1" /><path clip-path="url(#clip460)" d="M250.245 1450.16 L268.601 1450.16 L268.601 1454.1 L254.527 1454.1 L254.527 1462.57 Q255.546 1462.22 256.565 1462.06 Q257.583 1461.87 258.602 1461.87 Q264.389 1461.87 267.768 1465.04 Q271.148 1468.22 271.148 1473.63 Q271.148 1479.21 267.676 1482.31 Q264.203 1485.39 257.884 1485.39 Q255.708 1485.39 253.44 1485.02 Q251.194 1484.65 248.787 1483.91 L248.787 1479.21 Q250.87 1480.34 253.092 1480.9 Q255.315 1481.46 257.791 1481.46 Q261.796 1481.46 264.134 1479.35 Q266.472 1477.24 266.472 1473.63 Q266.472 1470.02 264.134 1467.91 Q261.796 1465.81 257.791 1465.81 Q255.916 1465.81 254.041 1466.22 Q252.19 1466.64 250.245 1467.52 L250.245 1450.16 Z" fill="#000000" fill-rule="evenodd" fill-opacity="1" /><path clip-path="url(#clip460)" d="M733.941 1480.78 L741.58 1480.78 L741.58 1454.42 L733.27 1456.09 L733.27 1451.83 L741.533 1450.16 L746.209 1450.16 L746.209 1480.78 L753.848 1480.78 L753.848 1484.72 L733.941 1484.72 L733.941 1480.78 Z" fill="#000000" fill-rule="evenodd" fill-opacity="1" /><path clip-path="url(#clip460)" d="M763.293 1478.84 L768.177 1478.84 L768.177 1484.72 L763.293 1484.72 L763.293 1478.84 Z" fill="#000000" fill-rule="evenodd" fill-opacity="1" /><path clip-path="url(#clip460)" d="M788.362 1453.24 Q784.751 1453.24 782.922 1456.8 Q781.116 1460.35 781.116 1467.47 Q781.116 1474.58 782.922 1478.15 Q784.751 1481.69 788.362 1481.69 Q791.996 1481.69 793.802 1478.15 Q795.63 1474.58 795.63 1467.47 Q795.63 1460.35 793.802 1456.8 Q791.996 1453.24 788.362 1453.24 M788.362 1449.53 Q794.172 1449.53 797.228 1454.14 Q800.306 1458.72 800.306 1467.47 Q800.306 1476.2 797.228 1480.81 Q794.172 1485.39 788.362 1485.39 Q782.552 1485.39 779.473 1480.81 Q776.417 1476.2 776.417 1467.47 Q776.417 1458.72 779.473 1454.14 Q782.552 1449.53 788.362 1449.53 Z" fill="#000000" fill-rule="evenodd" fill-opacity="1" /><path clip-path="url(#clip460)" d="M1264.14 1480.78 L1271.78 1480.78 L1271.78 1454.42 L1263.47 1456.09 L1263.47 1451.83 L1271.73 1450.16 L1276.41 1450.16 L1276.41 1480.78 L1284.05 1480.78 L1284.05 1484.72 L1264.14 1484.72 L1264.14 1480.78 Z" fill="#000000" fill-rule="evenodd" fill-opacity="1" /><path clip-path="url(#clip460)" d="M1293.49 1478.84 L1298.38 1478.84 L1298.38 1484.72 L1293.49 1484.72 L1293.49 1478.84 Z" fill="#000000" fill-rule="evenodd" fill-opacity="1" /><path clip-path="url(#clip460)" d="M1308.61 1450.16 L1326.96 1450.16 L1326.96 1454.1 L1312.89 1454.1 L1312.89 1462.57 Q1313.91 1462.22 1314.93 1462.06 Q1315.95 1461.87 1316.96 1461.87 Q1322.75 1461.87 1326.13 1465.04 Q1329.51 1468.22 1329.51 1473.63 Q1329.51 1479.21 1326.04 1482.31 Q1322.57 1485.39 1316.25 1485.39 Q1314.07 1485.39 1311.8 1485.02 Q1309.56 1484.65 1307.15 1483.91 L1307.15 1479.21 Q1309.23 1480.34 1311.46 1480.9 Q1313.68 1481.46 1316.15 1481.46 Q1320.16 1481.46 1322.5 1479.35 Q1324.84 1477.24 1324.84 1473.63 Q1324.84 1470.02 1322.5 1467.91 Q1320.16 1465.81 1316.15 1465.81 Q1314.28 1465.81 1312.4 1466.22 Q1310.55 1466.64 1308.61 1467.52 L1308.61 1450.16 Z" fill="#000000" fill-rule="evenodd" fill-opacity="1" /><path clip-path="url(#clip460)" d="M1797.43 1480.78 L1813.75 1480.78 L1813.75 1484.72 L1791.81 1484.72 L1791.81 1480.78 Q1794.47 1478.03 1799.05 1473.4 Q1803.66 1468.75 1804.84 1467.41 Q1807.08 1464.88 1807.96 1463.15 Q1808.87 1461.39 1808.87 1459.7 Q1808.87 1456.94 1806.92 1455.21 Q1805 1453.47 1801.9 1453.47 Q1799.7 1453.47 1797.25 1454.23 Q1794.82 1455 1792.04 1456.55 L1792.04 1451.83 Q1794.86 1450.69 1797.32 1450.11 Q1799.77 1449.53 1801.81 1449.53 Q1807.18 1449.53 1810.37 1452.22 Q1813.57 1454.91 1813.57 1459.4 Q1813.57 1461.53 1812.76 1463.45 Q1811.97 1465.34 1809.86 1467.94 Q1809.28 1468.61 1806.18 1471.83 Q1803.08 1475.02 1797.43 1480.78 Z" fill="#000000" fill-rule="evenodd" fill-opacity="1" /><path clip-path="url(#clip460)" d="M1823.57 1478.84 L1828.45 1478.84 L1828.45 1484.72 L1823.57 1484.72 L1823.57 1478.84 Z" fill="#000000" fill-rule="evenodd" fill-opacity="1" /><path clip-path="url(#clip460)" d="M1848.63 1453.24 Q1845.02 1453.24 1843.19 1456.8 Q1841.39 1460.35 1841.39 1467.47 Q1841.39 1474.58 1843.19 1478.15 Q1845.02 1481.69 1848.63 1481.69 Q1852.27 1481.69 1854.07 1478.15 Q1855.9 1474.58 1855.9 1467.47 Q1855.9 1460.35 1854.07 1456.8 Q1852.27 1453.24 1848.63 1453.24 M1848.63 1449.53 Q1854.44 1449.53 1857.5 1454.14 Q1860.58 1458.72 1860.58 1467.47 Q1860.58 1476.2 1857.5 1480.81 Q1854.44 1485.39 1848.63 1485.39 Q1842.82 1485.39 1839.75 1480.81 Q1836.69 1476.2 1836.69 1467.47 Q1836.69 1458.72 1839.75 1454.14 Q1842.82 1449.53 1848.63 1449.53 Z" fill="#000000" fill-rule="evenodd" fill-opacity="1" /><polyline clip-path="url(#clip462)" style="stroke:#000000; stroke-linecap:round; stroke-linejoin:round; stroke-width:2; stroke-opacity:0.1; fill:none" points="
  222.143,1354.46 2256.76,1354.46 
  "/>
<polyline clip-path="url(#clip462)" style="stroke:#000000; stroke-linecap:round; stroke-linejoin:round; stroke-width:2; stroke-opacity:0.1; fill:none" points="
  222.143,1045.98 2256.76,1045.98 
  "/>
<polyline clip-path="url(#clip462)" style="stroke:#000000; stroke-linecap:round; stroke-linejoin:round; stroke-width:2; stroke-opacity:0.1; fill:none" points="
  222.143,737.5 2256.76,737.5 
  "/>
<polyline clip-path="url(#clip462)" style="stroke:#000000; stroke-linecap:round; stroke-linejoin:round; stroke-width:2; stroke-opacity:0.1; fill:none" points="
  222.143,429.021 2256.76,429.021 
  "/>
<polyline clip-path="url(#clip462)" style="stroke:#000000; stroke-linecap:round; stroke-linejoin:round; stroke-width:2; stroke-opacity:0.1; fill:none" points="
  222.143,120.541 2256.76,120.541 
  "/>
<polyline clip-path="url(#clip460)" style="stroke:#000000; stroke-linecap:round; stroke-linejoin:round; stroke-width:4; stroke-opacity:1; fill:none" points="
  222.143,1423.09 222.143,47.2441 
  "/>
<polyline clip-path="url(#clip460)" style="stroke:#000000; stroke-linecap:round; stroke-linejoin:round; stroke-width:4; stroke-opacity:1; fill:none" points="
  222.143,1354.46 241.04,1354.46 
  "/>
<polyline clip-path="url(#clip460)" style="stroke:#000000; stroke-linecap:round; stroke-linejoin:round; stroke-width:4; stroke-opacity:1; fill:none" points="
  222.143,1045.98 241.04,1045.98 
  "/>
<polyline clip-path="url(#clip460)" style="stroke:#000000; stroke-linecap:round; stroke-linejoin:round; stroke-width:4; stroke-opacity:1; fill:none" points="
  222.143,737.5 241.04,737.5 
  "/>
<polyline clip-path="url(#clip460)" style="stroke:#000000; stroke-linecap:round; stroke-linejoin:round; stroke-width:4; stroke-opacity:1; fill:none" points="
  222.143,429.021 241.04,429.021 
  "/>
<polyline clip-path="url(#clip460)" style="stroke:#000000; stroke-linecap:round; stroke-linejoin:round; stroke-width:4; stroke-opacity:1; fill:none" points="
  222.143,120.541 241.04,120.541 
  "/>
<path clip-path="url(#clip460)" d="M51.4721 1354.91 L81.1479 1354.91 L81.1479 1358.85 L51.4721 1358.85 L51.4721 1354.91 Z" fill="#000000" fill-rule="evenodd" fill-opacity="1" /><path clip-path="url(#clip460)" d="M101.24 1340.26 Q97.6293 1340.26 95.8006 1343.82 Q93.995 1347.36 93.995 1354.49 Q93.995 1361.6 95.8006 1365.17 Q97.6293 1368.71 101.24 1368.71 Q104.875 1368.71 106.68 1365.17 Q108.509 1361.6 108.509 1354.49 Q108.509 1347.36 106.68 1343.82 Q104.875 1340.26 101.24 1340.26 M101.24 1336.55 Q107.051 1336.55 110.106 1341.16 Q113.185 1345.74 113.185 1354.49 Q113.185 1363.22 110.106 1367.83 Q107.051 1372.41 101.24 1372.41 Q95.4302 1372.41 92.3515 1367.83 Q89.296 1363.22 89.296 1354.49 Q89.296 1345.74 92.3515 1341.16 Q95.4302 1336.55 101.24 1336.55 Z" fill="#000000" fill-rule="evenodd" fill-opacity="1" /><path clip-path="url(#clip460)" d="M121.402 1365.86 L126.287 1365.86 L126.287 1371.74 L121.402 1371.74 L121.402 1365.86 Z" fill="#000000" fill-rule="evenodd" fill-opacity="1" /><path clip-path="url(#clip460)" d="M140.499 1367.8 L156.819 1367.8 L156.819 1371.74 L134.874 1371.74 L134.874 1367.8 Q137.536 1365.05 142.12 1360.42 Q146.726 1355.77 147.907 1354.42 Q150.152 1351.9 151.032 1350.17 Q151.935 1348.41 151.935 1346.72 Q151.935 1343.96 149.99 1342.23 Q148.069 1340.49 144.967 1340.49 Q142.768 1340.49 140.314 1341.25 Q137.884 1342.02 135.106 1343.57 L135.106 1338.85 Q137.93 1337.71 140.384 1337.13 Q142.837 1336.55 144.874 1336.55 Q150.245 1336.55 153.439 1339.24 Q156.634 1341.92 156.634 1346.42 Q156.634 1348.54 155.823 1350.47 Q155.036 1352.36 152.93 1354.96 Q152.351 1355.63 149.249 1358.85 Q146.148 1362.04 140.499 1367.8 Z" fill="#000000" fill-rule="evenodd" fill-opacity="1" /><path clip-path="url(#clip460)" d="M166.68 1337.18 L185.036 1337.18 L185.036 1341.11 L170.962 1341.11 L170.962 1349.59 Q171.981 1349.24 172.999 1349.08 Q174.018 1348.89 175.036 1348.89 Q180.823 1348.89 184.203 1352.06 Q187.583 1355.23 187.583 1360.65 Q187.583 1366.23 184.11 1369.33 Q180.638 1372.41 174.319 1372.41 Q172.143 1372.41 169.874 1372.04 Q167.629 1371.67 165.222 1370.93 L165.222 1366.23 Q167.305 1367.36 169.527 1367.92 Q171.749 1368.48 174.226 1368.48 Q178.231 1368.48 180.569 1366.37 Q182.907 1364.26 182.907 1360.65 Q182.907 1357.04 180.569 1354.93 Q178.231 1352.83 174.226 1352.83 Q172.351 1352.83 170.476 1353.24 Q168.624 1353.66 166.68 1354.54 L166.68 1337.18 Z" fill="#000000" fill-rule="evenodd" fill-opacity="1" /><path clip-path="url(#clip460)" d="M100.245 1031.78 Q96.6339 1031.78 94.8052 1035.34 Q92.9997 1038.88 92.9997 1046.01 Q92.9997 1053.12 94.8052 1056.69 Q96.6339 1060.23 100.245 1060.23 Q103.879 1060.23 105.685 1056.69 Q107.513 1053.12 107.513 1046.01 Q107.513 1038.88 105.685 1035.34 Q103.879 1031.78 100.245 1031.78 M100.245 1028.07 Q106.055 1028.07 109.111 1032.68 Q112.189 1037.26 112.189 1046.01 Q112.189 1054.74 109.111 1059.35 Q106.055 1063.93 100.245 1063.93 Q94.4349 1063.93 91.3562 1059.35 Q88.3006 1054.74 88.3006 1046.01 Q88.3006 1037.26 91.3562 1032.68 Q94.4349 1028.07 100.245 1028.07 Z" fill="#000000" fill-rule="evenodd" fill-opacity="1" /><path clip-path="url(#clip460)" d="M120.407 1057.38 L125.291 1057.38 L125.291 1063.26 L120.407 1063.26 L120.407 1057.38 Z" fill="#000000" fill-rule="evenodd" fill-opacity="1" /><path clip-path="url(#clip460)" d="M145.476 1031.78 Q141.865 1031.78 140.036 1035.34 Q138.231 1038.88 138.231 1046.01 Q138.231 1053.12 140.036 1056.69 Q141.865 1060.23 145.476 1060.23 Q149.11 1060.23 150.916 1056.69 Q152.745 1053.12 152.745 1046.01 Q152.745 1038.88 150.916 1035.34 Q149.11 1031.78 145.476 1031.78 M145.476 1028.07 Q151.286 1028.07 154.342 1032.68 Q157.421 1037.26 157.421 1046.01 Q157.421 1054.74 154.342 1059.35 Q151.286 1063.93 145.476 1063.93 Q139.666 1063.93 136.587 1059.35 Q133.532 1054.74 133.532 1046.01 Q133.532 1037.26 136.587 1032.68 Q139.666 1028.07 145.476 1028.07 Z" fill="#000000" fill-rule="evenodd" fill-opacity="1" /><path clip-path="url(#clip460)" d="M175.638 1031.78 Q172.027 1031.78 170.198 1035.34 Q168.393 1038.88 168.393 1046.01 Q168.393 1053.12 170.198 1056.69 Q172.027 1060.23 175.638 1060.23 Q179.272 1060.23 181.078 1056.69 Q182.907 1053.12 182.907 1046.01 Q182.907 1038.88 181.078 1035.34 Q179.272 1031.78 175.638 1031.78 M175.638 1028.07 Q181.448 1028.07 184.504 1032.68 Q187.583 1037.26 187.583 1046.01 Q187.583 1054.74 184.504 1059.35 Q181.448 1063.93 175.638 1063.93 Q169.828 1063.93 166.749 1059.35 Q163.694 1054.74 163.694 1046.01 Q163.694 1037.26 166.749 1032.68 Q169.828 1028.07 175.638 1028.07 Z" fill="#000000" fill-rule="evenodd" fill-opacity="1" /><path clip-path="url(#clip460)" d="M101.24 723.299 Q97.6293 723.299 95.8006 726.864 Q93.995 730.405 93.995 737.535 Q93.995 744.641 95.8006 748.206 Q97.6293 751.748 101.24 751.748 Q104.875 751.748 106.68 748.206 Q108.509 744.641 108.509 737.535 Q108.509 730.405 106.68 726.864 Q104.875 723.299 101.24 723.299 M101.24 719.595 Q107.051 719.595 110.106 724.202 Q113.185 728.785 113.185 737.535 Q113.185 746.262 110.106 750.868 Q107.051 755.452 101.24 755.452 Q95.4302 755.452 92.3515 750.868 Q89.296 746.262 89.296 737.535 Q89.296 728.785 92.3515 724.202 Q95.4302 719.595 101.24 719.595 Z" fill="#000000" fill-rule="evenodd" fill-opacity="1" /><path clip-path="url(#clip460)" d="M121.402 748.901 L126.287 748.901 L126.287 754.78 L121.402 754.78 L121.402 748.901 Z" fill="#000000" fill-rule="evenodd" fill-opacity="1" /><path clip-path="url(#clip460)" d="M140.499 750.845 L156.819 750.845 L156.819 754.78 L134.874 754.78 L134.874 750.845 Q137.536 748.09 142.12 743.461 Q146.726 738.808 147.907 737.466 Q150.152 734.942 151.032 733.206 Q151.935 731.447 151.935 729.757 Q151.935 727.003 149.99 725.267 Q148.069 723.53 144.967 723.53 Q142.768 723.53 140.314 724.294 Q137.884 725.058 135.106 726.609 L135.106 721.887 Q137.93 720.753 140.384 720.174 Q142.837 719.595 144.874 719.595 Q150.245 719.595 153.439 722.28 Q156.634 724.966 156.634 729.456 Q156.634 731.586 155.823 733.507 Q155.036 735.405 152.93 737.998 Q152.351 738.669 149.249 741.887 Q146.148 745.081 140.499 750.845 Z" fill="#000000" fill-rule="evenodd" fill-opacity="1" /><path clip-path="url(#clip460)" d="M166.68 720.22 L185.036 720.22 L185.036 724.155 L170.962 724.155 L170.962 732.628 Q171.981 732.28 172.999 732.118 Q174.018 731.933 175.036 731.933 Q180.823 731.933 184.203 735.104 Q187.583 738.276 187.583 743.692 Q187.583 749.271 184.11 752.373 Q180.638 755.452 174.319 755.452 Q172.143 755.452 169.874 755.081 Q167.629 754.711 165.222 753.97 L165.222 749.271 Q167.305 750.405 169.527 750.961 Q171.749 751.516 174.226 751.516 Q178.231 751.516 180.569 749.41 Q182.907 747.303 182.907 743.692 Q182.907 740.081 180.569 737.975 Q178.231 735.868 174.226 735.868 Q172.351 735.868 170.476 736.285 Q168.624 736.702 166.68 737.581 L166.68 720.22 Z" fill="#000000" fill-rule="evenodd" fill-opacity="1" /><path clip-path="url(#clip460)" d="M100.245 414.819 Q96.6339 414.819 94.8052 418.384 Q92.9997 421.926 92.9997 429.055 Q92.9997 436.162 94.8052 439.727 Q96.6339 443.268 100.245 443.268 Q103.879 443.268 105.685 439.727 Q107.513 436.162 107.513 429.055 Q107.513 421.926 105.685 418.384 Q103.879 414.819 100.245 414.819 M100.245 411.116 Q106.055 411.116 109.111 415.722 Q112.189 420.305 112.189 429.055 Q112.189 437.782 109.111 442.389 Q106.055 446.972 100.245 446.972 Q94.4349 446.972 91.3562 442.389 Q88.3006 437.782 88.3006 429.055 Q88.3006 420.305 91.3562 415.722 Q94.4349 411.116 100.245 411.116 Z" fill="#000000" fill-rule="evenodd" fill-opacity="1" /><path clip-path="url(#clip460)" d="M120.407 440.421 L125.291 440.421 L125.291 446.301 L120.407 446.301 L120.407 440.421 Z" fill="#000000" fill-rule="evenodd" fill-opacity="1" /><path clip-path="url(#clip460)" d="M135.523 411.741 L153.879 411.741 L153.879 415.676 L139.805 415.676 L139.805 424.148 Q140.823 423.801 141.842 423.639 Q142.861 423.454 143.879 423.454 Q149.666 423.454 153.046 426.625 Q156.425 429.796 156.425 435.213 Q156.425 440.792 152.953 443.893 Q149.481 446.972 143.161 446.972 Q140.986 446.972 138.717 446.602 Q136.472 446.231 134.064 445.491 L134.064 440.792 Q136.148 441.926 138.37 442.481 Q140.592 443.037 143.069 443.037 Q147.073 443.037 149.411 440.93 Q151.749 438.824 151.749 435.213 Q151.749 431.602 149.411 429.495 Q147.073 427.389 143.069 427.389 Q141.194 427.389 139.319 427.805 Q137.467 428.222 135.523 429.102 L135.523 411.741 Z" fill="#000000" fill-rule="evenodd" fill-opacity="1" /><path clip-path="url(#clip460)" d="M175.638 414.819 Q172.027 414.819 170.198 418.384 Q168.393 421.926 168.393 429.055 Q168.393 436.162 170.198 439.727 Q172.027 443.268 175.638 443.268 Q179.272 443.268 181.078 439.727 Q182.907 436.162 182.907 429.055 Q182.907 421.926 181.078 418.384 Q179.272 414.819 175.638 414.819 M175.638 411.116 Q181.448 411.116 184.504 415.722 Q187.583 420.305 187.583 429.055 Q187.583 437.782 184.504 442.389 Q181.448 446.972 175.638 446.972 Q169.828 446.972 166.749 442.389 Q163.694 437.782 163.694 429.055 Q163.694 420.305 166.749 415.722 Q169.828 411.116 175.638 411.116 Z" fill="#000000" fill-rule="evenodd" fill-opacity="1" /><path clip-path="url(#clip460)" d="M101.24 106.34 Q97.6293 106.34 95.8006 109.905 Q93.995 113.446 93.995 120.576 Q93.995 127.682 95.8006 131.247 Q97.6293 134.789 101.24 134.789 Q104.875 134.789 106.68 131.247 Q108.509 127.682 108.509 120.576 Q108.509 113.446 106.68 109.905 Q104.875 106.34 101.24 106.34 M101.24 102.636 Q107.051 102.636 110.106 107.243 Q113.185 111.826 113.185 120.576 Q113.185 129.303 110.106 133.909 Q107.051 138.493 101.24 138.493 Q95.4302 138.493 92.3515 133.909 Q89.296 129.303 89.296 120.576 Q89.296 111.826 92.3515 107.243 Q95.4302 102.636 101.24 102.636 Z" fill="#000000" fill-rule="evenodd" fill-opacity="1" /><path clip-path="url(#clip460)" d="M121.402 131.942 L126.287 131.942 L126.287 137.821 L121.402 137.821 L121.402 131.942 Z" fill="#000000" fill-rule="evenodd" fill-opacity="1" /><path clip-path="url(#clip460)" d="M135.291 103.261 L157.513 103.261 L157.513 105.252 L144.967 137.821 L140.083 137.821 L151.888 107.196 L135.291 107.196 L135.291 103.261 Z" fill="#000000" fill-rule="evenodd" fill-opacity="1" /><path clip-path="url(#clip460)" d="M166.68 103.261 L185.036 103.261 L185.036 107.196 L170.962 107.196 L170.962 115.669 Q171.981 115.321 172.999 115.159 Q174.018 114.974 175.036 114.974 Q180.823 114.974 184.203 118.145 Q187.583 121.317 187.583 126.733 Q187.583 132.312 184.11 135.414 Q180.638 138.493 174.319 138.493 Q172.143 138.493 169.874 138.122 Q167.629 137.752 165.222 137.011 L165.222 132.312 Q167.305 133.446 169.527 134.002 Q171.749 134.557 174.226 134.557 Q178.231 134.557 180.569 132.451 Q182.907 130.344 182.907 126.733 Q182.907 123.122 180.569 121.016 Q178.231 118.909 174.226 118.909 Q172.351 118.909 170.476 119.326 Q168.624 119.743 166.68 120.622 L166.68 103.261 Z" fill="#000000" fill-rule="evenodd" fill-opacity="1" /><circle clip-path="url(#clip462)" cx="1459.19" cy="504.69" r="14.4" fill="#009af9" fill-rule="evenodd" fill-opacity="1" stroke="#000000" stroke-opacity="1" stroke-width="3.072"/>
<circle clip-path="url(#clip462)" cx="1049.98" cy="494.899" r="14.4" fill="#009af9" fill-rule="evenodd" fill-opacity="1" stroke="#000000" stroke-opacity="1" stroke-width="3.072"/>
<circle clip-path="url(#clip462)" cx="1072.85" cy="528.412" r="14.4" fill="#009af9" fill-rule="evenodd" fill-opacity="1" stroke="#000000" stroke-opacity="1" stroke-width="3.072"/>
<circle clip-path="url(#clip462)" cx="1684.52" cy="726.805" r="14.4" fill="#009af9" fill-rule="evenodd" fill-opacity="1" stroke="#000000" stroke-opacity="1" stroke-width="3.072"/>
<circle clip-path="url(#clip462)" cx="2118.83" cy="853.187" r="14.4" fill="#009af9" fill-rule="evenodd" fill-opacity="1" stroke="#000000" stroke-opacity="1" stroke-width="3.072"/>
<circle clip-path="url(#clip462)" cx="1389.48" cy="648.307" r="14.4" fill="#009af9" fill-rule="evenodd" fill-opacity="1" stroke="#000000" stroke-opacity="1" stroke-width="3.072"/>
<circle clip-path="url(#clip462)" cx="1641.8" cy="624.961" r="14.4" fill="#009af9" fill-rule="evenodd" fill-opacity="1" stroke="#000000" stroke-opacity="1" stroke-width="3.072"/>
<circle clip-path="url(#clip462)" cx="1432.37" cy="116.662" r="14.4" fill="#009af9" fill-rule="evenodd" fill-opacity="1" stroke="#000000" stroke-opacity="1" stroke-width="3.072"/>
<circle clip-path="url(#clip462)" cx="1152.06" cy="1128.82" r="14.4" fill="#009af9" fill-rule="evenodd" fill-opacity="1" stroke="#000000" stroke-opacity="1" stroke-width="3.072"/>
<circle clip-path="url(#clip462)" cx="1577.56" cy="699.53" r="14.4" fill="#009af9" fill-rule="evenodd" fill-opacity="1" stroke="#000000" stroke-opacity="1" stroke-width="3.072"/>
<circle clip-path="url(#clip462)" cx="1444.03" cy="1221.58" r="14.4" fill="#009af9" fill-rule="evenodd" fill-opacity="1" stroke="#000000" stroke-opacity="1" stroke-width="3.072"/>
<circle clip-path="url(#clip462)" cx="1509.02" cy="612.497" r="14.4" fill="#009af9" fill-rule="evenodd" fill-opacity="1" stroke="#000000" stroke-opacity="1" stroke-width="3.072"/>
<circle clip-path="url(#clip462)" cx="1199.88" cy="808.62" r="14.4" fill="#009af9" fill-rule="evenodd" fill-opacity="1" stroke="#000000" stroke-opacity="1" stroke-width="3.072"/>
<circle clip-path="url(#clip462)" cx="585.271" cy="1253.41" r="14.4" fill="#009af9" fill-rule="evenodd" fill-opacity="1" stroke="#000000" stroke-opacity="1" stroke-width="3.072"/>
<circle clip-path="url(#clip462)" cx="670.016" cy="855.527" r="14.4" fill="#009af9" fill-rule="evenodd" fill-opacity="1" stroke="#000000" stroke-opacity="1" stroke-width="3.072"/>
<circle clip-path="url(#clip462)" cx="998.937" cy="320.56" r="14.4" fill="#009af9" fill-rule="evenodd" fill-opacity="1" stroke="#000000" stroke-opacity="1" stroke-width="3.072"/>
<circle clip-path="url(#clip462)" cx="1636.39" cy="733.57" r="14.4" fill="#009af9" fill-rule="evenodd" fill-opacity="1" stroke="#000000" stroke-opacity="1" stroke-width="3.072"/>
<circle clip-path="url(#clip462)" cx="1211.07" cy="449.398" r="14.4" fill="#009af9" fill-rule="evenodd" fill-opacity="1" stroke="#000000" stroke-opacity="1" stroke-width="3.072"/>
<circle clip-path="url(#clip462)" cx="1246.48" cy="955.42" r="14.4" fill="#009af9" fill-rule="evenodd" fill-opacity="1" stroke="#000000" stroke-opacity="1" stroke-width="3.072"/>
<circle clip-path="url(#clip462)" cx="1181.85" cy="744.331" r="14.4" fill="#009af9" fill-rule="evenodd" fill-opacity="1" stroke="#000000" stroke-opacity="1" stroke-width="3.072"/>
<circle clip-path="url(#clip462)" cx="1448.25" cy="1273.58" r="14.4" fill="#009af9" fill-rule="evenodd" fill-opacity="1" stroke="#000000" stroke-opacity="1" stroke-width="3.072"/>
<circle clip-path="url(#clip462)" cx="1210.99" cy="668.653" r="14.4" fill="#009af9" fill-rule="evenodd" fill-opacity="1" stroke="#000000" stroke-opacity="1" stroke-width="3.072"/>
<circle clip-path="url(#clip462)" cx="1054.64" cy="751.266" r="14.4" fill="#009af9" fill-rule="evenodd" fill-opacity="1" stroke="#000000" stroke-opacity="1" stroke-width="3.072"/>
<circle clip-path="url(#clip462)" cx="1775.15" cy="90.2632" r="14.4" fill="#009af9" fill-rule="evenodd" fill-opacity="1" stroke="#000000" stroke-opacity="1" stroke-width="3.072"/>
<circle clip-path="url(#clip462)" cx="2199.17" cy="666.709" r="14.4" fill="#009af9" fill-rule="evenodd" fill-opacity="1" stroke="#000000" stroke-opacity="1" stroke-width="3.072"/>
<circle clip-path="url(#clip462)" cx="1381.84" cy="938.041" r="14.4" fill="#009af9" fill-rule="evenodd" fill-opacity="1" stroke="#000000" stroke-opacity="1" stroke-width="3.072"/>
<circle clip-path="url(#clip462)" cx="1733.44" cy="695.761" r="14.4" fill="#009af9" fill-rule="evenodd" fill-opacity="1" stroke="#000000" stroke-opacity="1" stroke-width="3.072"/>
<circle clip-path="url(#clip462)" cx="1457.55" cy="1368.36" r="14.4" fill="#009af9" fill-rule="evenodd" fill-opacity="1" stroke="#000000" stroke-opacity="1" stroke-width="3.072"/>
<circle clip-path="url(#clip462)" cx="279.726" cy="1384.15" r="14.4" fill="#009af9" fill-rule="evenodd" fill-opacity="1" stroke="#000000" stroke-opacity="1" stroke-width="3.072"/>
<circle clip-path="url(#clip462)" cx="1722.19" cy="958.645" r="14.4" fill="#009af9" fill-rule="evenodd" fill-opacity="1" stroke="#000000" stroke-opacity="1" stroke-width="3.072"/>
<circle clip-path="url(#clip462)" cx="1233.86" cy="701.174" r="14.4" fill="#009af9" fill-rule="evenodd" fill-opacity="1" stroke="#000000" stroke-opacity="1" stroke-width="3.072"/>
<circle clip-path="url(#clip462)" cx="1062.4" cy="86.1831" r="14.4" fill="#009af9" fill-rule="evenodd" fill-opacity="1" stroke="#000000" stroke-opacity="1" stroke-width="3.072"/>
<circle clip-path="url(#clip462)" cx="1023.99" cy="1110.54" r="14.4" fill="#009af9" fill-rule="evenodd" fill-opacity="1" stroke="#000000" stroke-opacity="1" stroke-width="3.072"/>
<circle clip-path="url(#clip462)" cx="856.823" cy="226.674" r="14.4" fill="#009af9" fill-rule="evenodd" fill-opacity="1" stroke="#000000" stroke-opacity="1" stroke-width="3.072"/>
<circle clip-path="url(#clip462)" cx="1083.2" cy="969.777" r="14.4" fill="#009af9" fill-rule="evenodd" fill-opacity="1" stroke="#000000" stroke-opacity="1" stroke-width="3.072"/>
<circle clip-path="url(#clip462)" cx="1072.69" cy="695.148" r="14.4" fill="#009af9" fill-rule="evenodd" fill-opacity="1" stroke="#000000" stroke-opacity="1" stroke-width="3.072"/>
<circle clip-path="url(#clip462)" cx="1004.48" cy="834.594" r="14.4" fill="#009af9" fill-rule="evenodd" fill-opacity="1" stroke="#000000" stroke-opacity="1" stroke-width="3.072"/>
<circle clip-path="url(#clip462)" cx="1417.54" cy="966.561" r="14.4" fill="#009af9" fill-rule="evenodd" fill-opacity="1" stroke="#000000" stroke-opacity="1" stroke-width="3.072"/>
<circle clip-path="url(#clip462)" cx="1236.83" cy="706.629" r="14.4" fill="#009af9" fill-rule="evenodd" fill-opacity="1" stroke="#000000" stroke-opacity="1" stroke-width="3.072"/>
<circle clip-path="url(#clip462)" cx="955.693" cy="744.624" r="14.4" fill="#009af9" fill-rule="evenodd" fill-opacity="1" stroke="#000000" stroke-opacity="1" stroke-width="3.072"/>
<circle clip-path="url(#clip462)" cx="733.276" cy="660.45" r="14.4" fill="#009af9" fill-rule="evenodd" fill-opacity="1" stroke="#000000" stroke-opacity="1" stroke-width="3.072"/>
<circle clip-path="url(#clip462)" cx="761.05" cy="688.032" r="14.4" fill="#009af9" fill-rule="evenodd" fill-opacity="1" stroke="#000000" stroke-opacity="1" stroke-width="3.072"/>
<circle clip-path="url(#clip462)" cx="1699.74" cy="530.967" r="14.4" fill="#009af9" fill-rule="evenodd" fill-opacity="1" stroke="#000000" stroke-opacity="1" stroke-width="3.072"/>
<circle clip-path="url(#clip462)" cx="1355.79" cy="497.451" r="14.4" fill="#009af9" fill-rule="evenodd" fill-opacity="1" stroke="#000000" stroke-opacity="1" stroke-width="3.072"/>
<circle clip-path="url(#clip462)" cx="1466.21" cy="589.608" r="14.4" fill="#009af9" fill-rule="evenodd" fill-opacity="1" stroke="#000000" stroke-opacity="1" stroke-width="3.072"/>
<circle clip-path="url(#clip462)" cx="1300.13" cy="348.802" r="14.4" fill="#009af9" fill-rule="evenodd" fill-opacity="1" stroke="#000000" stroke-opacity="1" stroke-width="3.072"/>
<circle clip-path="url(#clip462)" cx="1802.17" cy="616.309" r="14.4" fill="#009af9" fill-rule="evenodd" fill-opacity="1" stroke="#000000" stroke-opacity="1" stroke-width="3.072"/>
<circle clip-path="url(#clip462)" cx="1158.14" cy="1066.4" r="14.4" fill="#009af9" fill-rule="evenodd" fill-opacity="1" stroke="#000000" stroke-opacity="1" stroke-width="3.072"/>
<circle clip-path="url(#clip462)" cx="1611.9" cy="1167.15" r="14.4" fill="#009af9" fill-rule="evenodd" fill-opacity="1" stroke="#000000" stroke-opacity="1" stroke-width="3.072"/>
<circle clip-path="url(#clip462)" cx="1272.19" cy="705.897" r="14.4" fill="#009af9" fill-rule="evenodd" fill-opacity="1" stroke="#000000" stroke-opacity="1" stroke-width="3.072"/>
<polyline clip-path="url(#clip462)" style="stroke:#e26f46; stroke-linecap:round; stroke-linejoin:round; stroke-width:4; stroke-opacity:1; fill:none" points="
  279.726,971.325 292.223,968.396 407.772,941.311 477.213,925.035 535.924,911.273 599.7,896.324 658.497,882.543 721.533,867.767 794.566,850.649 859.469,835.436 
  916.384,822.095 978.436,807.55 1040.86,792.919 1109.87,776.743 1175.54,761.351 1243.81,745.347 1301.29,731.875 1371.46,715.428 1435.74,700.361 1495.1,686.446 
  1555.24,672.35 1622.64,656.552 1683.71,642.237 1753.64,625.847 1818.38,610.671 1882.21,595.71 1944.18,581.184 2007.71,566.293 2077.32,549.977 2178.43,526.277 
  2199.17,521.415 
  "/>
<path clip-path="url(#clip460)" d="
M289.963 248.626 L545.855 248.626 L545.855 93.1056 L289.963 93.1056  Z
  " fill="#ffffff" fill-rule="evenodd" fill-opacity="1"/>
<polyline clip-path="url(#clip460)" style="stroke:#000000; stroke-linecap:round; stroke-linejoin:round; stroke-width:4; stroke-opacity:1; fill:none" points="
  289.963,248.626 545.855,248.626 545.855,93.1056 289.963,93.1056 289.963,248.626 
  "/>
<circle clip-path="url(#clip460)" cx="380.39" cy="144.946" r="23.04" fill="#009af9" fill-rule="evenodd" fill-opacity="1" stroke="#000000" stroke-opacity="1" stroke-width="4.9152"/>
<path clip-path="url(#clip460)" d="M484.66 164.633 Q482.854 169.263 481.141 170.675 Q479.429 172.087 476.558 172.087 L473.155 172.087 L473.155 168.522 L475.655 168.522 Q477.415 168.522 478.387 167.688 Q479.359 166.855 480.54 163.753 L481.304 161.809 L470.817 136.3 L475.331 136.3 L483.433 156.577 L491.535 136.3 L496.049 136.3 L484.66 164.633 Z" fill="#000000" fill-rule="evenodd" fill-opacity="1" /><path clip-path="url(#clip460)" d="M503.34 158.29 L510.979 158.29 L510.979 131.925 L502.669 133.591 L502.669 129.332 L510.933 127.666 L515.609 127.666 L515.609 158.29 L523.248 158.29 L523.248 162.226 L503.34 162.226 L503.34 158.29 Z" fill="#000000" fill-rule="evenodd" fill-opacity="1" /><polyline clip-path="url(#clip460)" style="stroke:#e26f46; stroke-linecap:round; stroke-linejoin:round; stroke-width:4; stroke-opacity:1; fill:none" points="
  312.57,196.786 448.211,196.786 
  "/>
<path clip-path="url(#clip460)" d="M484.66 216.473 Q482.854 221.103 481.141 222.515 Q479.429 223.927 476.558 223.927 L473.155 223.927 L473.155 220.362 L475.655 220.362 Q477.415 220.362 478.387 219.528 Q479.359 218.695 480.54 215.593 L481.304 213.649 L470.817 188.14 L475.331 188.14 L483.433 208.417 L491.535 188.14 L496.049 188.14 L484.66 216.473 Z" fill="#000000" fill-rule="evenodd" fill-opacity="1" /><path clip-path="url(#clip460)" d="M506.558 210.13 L522.877 210.13 L522.877 214.066 L500.933 214.066 L500.933 210.13 Q503.595 207.376 508.178 202.746 Q512.785 198.093 513.965 196.751 Q516.211 194.228 517.09 192.492 Q517.993 190.732 517.993 189.043 Q517.993 186.288 516.049 184.552 Q514.127 182.816 511.026 182.816 Q508.827 182.816 506.373 183.58 Q503.942 184.343 501.165 185.894 L501.165 181.172 Q503.989 180.038 506.442 179.459 Q508.896 178.881 510.933 178.881 Q516.303 178.881 519.498 181.566 Q522.692 184.251 522.692 188.742 Q522.692 190.871 521.882 192.793 Q521.095 194.691 518.989 197.283 Q518.41 197.955 515.308 201.172 Q512.206 204.367 506.558 210.13 Z" fill="#000000" fill-rule="evenodd" fill-opacity="1" /></svg>
