<?xml version="1.0" encoding="utf-8"?>
<svg xmlns="http://www.w3.org/2000/svg" xmlns:xlink="http://www.w3.org/1999/xlink" width="576" height="384" viewBox="0 0 2304 1536">
<defs>
  <clipPath id="clip150">
    <rect x="0" y="0" width="2304" height="1536"/>
  </clipPath>
</defs>
<path clip-path="url(#clip150)" d="
M0 1536 L2304 1536 L2304 0 L0 0  Z
  " fill="#ffffff" fill-rule="evenodd" fill-opacity="1"/>
<defs>
  <clipPath id="clip151">
    <rect x="460" y="0" width="1614" height="1536"/>
  </clipPath>
</defs>
<path clip-path="url(#clip150)" d="
M155.638 1423.09 L2256.76 1423.09 L2256.76 47.2441 L155.638 47.2441  Z
  " fill="#ffffff" fill-rule="evenodd" fill-opacity="1"/>
<defs>
  <clipPath id="clip152">
    <rect x="155" y="47" width="2102" height="1377"/>
  </clipPath>
</defs>
<polyline clip-path="url(#clip152)" style="stroke:#000000; stroke-linecap:round; stroke-linejoin:round; stroke-width:2; stroke-opacity:0.1; fill:none" points="
  231.806,1423.09 231.806,47.2441 
  "/>
<polyline clip-path="url(#clip152)" style="stroke:#000000; stroke-linecap:round; stroke-linejoin:round; stroke-width:2; stroke-opacity:0.1; fill:none" points="
  557.242,1423.09 557.242,47.2441 
  "/>
<polyline clip-path="url(#clip152)" style="stroke:#000000; stroke-linecap:round; stroke-linejoin:round; stroke-width:2; stroke-opacity:0.1; fill:none" points="
  882.678,1423.09 882.678,47.2441 
  "/>
<polyline clip-path="url(#clip152)" style="stroke:#000000; stroke-linecap:round; stroke-linejoin:round; stroke-width:2; stroke-opacity:0.1; fill:none" points="
  1208.11,1423.09 1208.11,47.2441 
  "/>
<polyline clip-path="url(#clip152)" style="stroke:#000000; stroke-linecap:round; stroke-linejoin:round; stroke-width:2; stroke-opacity:0.1; fill:none" points="
  1533.55,1423.09 1533.55,47.2441 
  "/>
<polyline clip-path="url(#clip152)" style="stroke:#000000; stroke-linecap:round; stroke-linejoin:round; stroke-width:2; stroke-opacity:0.1; fill:none" points="
  1858.99,1423.09 1858.99,47.2441 
  "/>
<polyline clip-path="url(#clip152)" style="stroke:#000000; stroke-linecap:round; stroke-linejoin:round; stroke-width:2; stroke-opacity:0.1; fill:none" points="
  2184.42,1423.09 2184.42,47.2441 
  "/>
<polyline clip-path="url(#clip150)" style="stroke:#000000; stroke-linecap:round; stroke-linejoin:round; stroke-width:4; stroke-opacity:1; fill:none" points="
  155.638,1423.09 2256.76,1423.09 
  "/>
<polyline clip-path="url(#clip150)" style="stroke:#000000; stroke-linecap:round; stroke-linejoin:round; stroke-width:4; stroke-opacity:1; fill:none" points="
  231.806,1423.09 231.806,1404.19 
  "/>
<polyline clip-path="url(#clip150)" style="stroke:#000000; stroke-linecap:round; stroke-linejoin:round; stroke-width:4; stroke-opacity:1; fill:none" points="
  557.242,1423.09 557.242,1404.19 
  "/>
<polyline clip-path="url(#clip150)" style="stroke:#000000; stroke-linecap:round; stroke-linejoin:round; stroke-width:4; stroke-opacity:1; fill:none" points="
  882.678,1423.09 882.678,1404.19 
  "/>
<polyline clip-path="url(#clip150)" style="stroke:#000000; stroke-linecap:round; stroke-linejoin:round; stroke-width:4; stroke-opacity:1; fill:none" points="
  1208.11,1423.09 1208.11,1404.19 
  "/>
<polyline clip-path="url(#clip150)" style="stroke:#000000; stroke-linecap:round; stroke-linejoin:round; stroke-width:4; stroke-opacity:1; fill:none" points="
  1533.55,1423.09 1533.55,1404.19 
  "/>
<polyline clip-path="url(#clip150)" style="stroke:#000000; stroke-linecap:round; stroke-linejoin:round; stroke-width:4; stroke-opacity:1; fill:none" points="
  1858.99,1423.09 1858.99,1404.19 
  "/>
<polyline clip-path="url(#clip150)" style="stroke:#000000; stroke-linecap:round; stroke-linejoin:round; stroke-width:4; stroke-opacity:1; fill:none" points="
  2184.42,1423.09 2184.42,1404.19 
  "/>
<path clip-path="url(#clip150)" d="M222.188 1480.78 L229.826 1480.78 L229.826 1454.42 L221.516 1456.09 L221.516 1451.83 L229.78 1450.16 L234.456 1450.16 L234.456 1480.78 L242.095 1480.78 L242.095 1484.72 L222.188 1484.72 L222.188 1480.78 Z" fill="#000000" fill-rule="evenodd" fill-opacity="1" /><path clip-path="url(#clip150)" d="M551.895 1480.78 L568.214 1480.78 L568.214 1484.72 L546.27 1484.72 L546.27 1480.78 Q548.932 1478.03 553.515 1473.4 Q558.121 1468.75 559.302 1467.41 Q561.547 1464.88 562.427 1463.15 Q563.33 1461.39 563.33 1459.7 Q563.33 1456.94 561.385 1455.21 Q559.464 1453.47 556.362 1453.47 Q554.163 1453.47 551.709 1454.23 Q549.279 1455 546.501 1456.55 L546.501 1451.83 Q549.325 1450.69 551.779 1450.11 Q554.233 1449.53 556.27 1449.53 Q561.64 1449.53 564.834 1452.22 Q568.029 1454.91 568.029 1459.4 Q568.029 1461.53 567.219 1463.45 Q566.432 1465.34 564.325 1467.94 Q563.746 1468.61 560.645 1471.83 Q557.543 1475.02 551.895 1480.78 Z" fill="#000000" fill-rule="evenodd" fill-opacity="1" /><path clip-path="url(#clip150)" d="M886.926 1466.09 Q890.282 1466.8 892.157 1469.07 Q894.055 1471.34 894.055 1474.67 Q894.055 1479.79 890.537 1482.59 Q887.018 1485.39 880.537 1485.39 Q878.361 1485.39 876.046 1484.95 Q873.755 1484.53 871.301 1483.68 L871.301 1479.16 Q873.245 1480.3 875.56 1480.88 Q877.875 1481.46 880.398 1481.46 Q884.796 1481.46 887.088 1479.72 Q889.403 1477.98 889.403 1474.67 Q889.403 1471.62 887.25 1469.91 Q885.12 1468.17 881.301 1468.17 L877.273 1468.17 L877.273 1464.33 L881.486 1464.33 Q884.935 1464.33 886.764 1462.96 Q888.592 1461.57 888.592 1458.98 Q888.592 1456.32 886.694 1454.91 Q884.819 1453.47 881.301 1453.47 Q879.38 1453.47 877.181 1453.89 Q874.981 1454.3 872.343 1455.18 L872.343 1451.02 Q875.005 1450.28 877.319 1449.91 Q879.657 1449.53 881.718 1449.53 Q887.042 1449.53 890.143 1451.97 Q893.245 1454.37 893.245 1458.49 Q893.245 1461.36 891.602 1463.35 Q889.958 1465.32 886.926 1466.09 Z" fill="#000000" fill-rule="evenodd" fill-opacity="1" /><path clip-path="url(#clip150)" d="M1211.12 1454.23 L1199.32 1472.68 L1211.12 1472.68 L1211.12 1454.23 M1209.9 1450.16 L1215.78 1450.16 L1215.78 1472.68 L1220.71 1472.68 L1220.71 1476.57 L1215.78 1476.57 L1215.78 1484.72 L1211.12 1484.72 L1211.12 1476.57 L1195.52 1476.57 L1195.52 1472.06 L1209.9 1450.16 Z" fill="#000000" fill-rule="evenodd" fill-opacity="1" /><path clip-path="url(#clip150)" d="M1523.83 1450.16 L1542.19 1450.16 L1542.19 1454.1 L1528.11 1454.1 L1528.11 1462.57 Q1529.13 1462.22 1530.15 1462.06 Q1531.17 1461.87 1532.19 1461.87 Q1537.97 1461.87 1541.35 1465.04 Q1544.73 1468.22 1544.73 1473.63 Q1544.73 1479.21 1541.26 1482.31 Q1537.79 1485.39 1531.47 1485.39 Q1529.29 1485.39 1527.02 1485.02 Q1524.78 1484.65 1522.37 1483.91 L1522.37 1479.21 Q1524.45 1480.34 1526.68 1480.9 Q1528.9 1481.46 1531.37 1481.46 Q1535.38 1481.46 1537.72 1479.35 Q1540.06 1477.24 1540.06 1473.63 Q1540.06 1470.02 1537.72 1467.91 Q1535.38 1465.81 1531.37 1465.81 Q1529.5 1465.81 1527.62 1466.22 Q1525.77 1466.64 1523.83 1467.52 L1523.83 1450.16 Z" fill="#000000" fill-rule="evenodd" fill-opacity="1" /><path clip-path="url(#clip150)" d="M1859.39 1465.58 Q1856.24 1465.58 1854.39 1467.73 Q1852.56 1469.88 1852.56 1473.63 Q1852.56 1477.36 1854.39 1479.53 Q1856.24 1481.69 1859.39 1481.69 Q1862.54 1481.69 1864.37 1479.53 Q1866.22 1477.36 1866.22 1473.63 Q1866.22 1469.88 1864.37 1467.73 Q1862.54 1465.58 1859.39 1465.58 M1868.67 1450.92 L1868.67 1455.18 Q1866.92 1454.35 1865.11 1453.91 Q1863.33 1453.47 1861.57 1453.47 Q1856.94 1453.47 1854.48 1456.6 Q1852.05 1459.72 1851.71 1466.04 Q1853.07 1464.03 1855.13 1462.96 Q1857.19 1461.87 1859.67 1461.87 Q1864.88 1461.87 1867.89 1465.04 Q1870.92 1468.19 1870.92 1473.63 Q1870.92 1478.96 1867.77 1482.17 Q1864.62 1485.39 1859.39 1485.39 Q1853.4 1485.39 1850.23 1480.81 Q1847.05 1476.2 1847.05 1467.47 Q1847.05 1459.28 1850.94 1454.42 Q1854.83 1449.53 1861.38 1449.53 Q1863.14 1449.53 1864.92 1449.88 Q1866.73 1450.23 1868.67 1450.92 Z" fill="#000000" fill-rule="evenodd" fill-opacity="1" /><path clip-path="url(#clip150)" d="M2173.31 1450.16 L2195.53 1450.16 L2195.53 1452.15 L2182.99 1484.72 L2178.1 1484.72 L2189.91 1454.1 L2173.31 1454.1 L2173.31 1450.16 Z" fill="#000000" fill-rule="evenodd" fill-opacity="1" /><polyline clip-path="url(#clip152)" style="stroke:#000000; stroke-linecap:round; stroke-linejoin:round; stroke-width:2; stroke-opacity:0.1; fill:none" points="
  155.638,1423.09 2256.76,1423.09 
  "/>
<polyline clip-path="url(#clip152)" style="stroke:#000000; stroke-linecap:round; stroke-linejoin:round; stroke-width:2; stroke-opacity:0.1; fill:none" points="
  155.638,1147.92 2256.76,1147.92 
  "/>
<polyline clip-path="url(#clip152)" style="stroke:#000000; stroke-linecap:round; stroke-linejoin:round; stroke-width:2; stroke-opacity:0.1; fill:none" points="
  155.638,872.75 2256.76,872.75 
  "/>
<polyline clip-path="url(#clip152)" style="stroke:#000000; stroke-linecap:round; stroke-linejoin:round; stroke-width:2; stroke-opacity:0.1; fill:none" points="
  155.638,597.582 2256.76,597.582 
  "/>
<polyline clip-path="url(#clip152)" style="stroke:#000000; stroke-linecap:round; stroke-linejoin:round; stroke-width:2; stroke-opacity:0.1; fill:none" points="
  155.638,322.413 2256.76,322.413 
  "/>
<polyline clip-path="url(#clip152)" style="stroke:#000000; stroke-linecap:round; stroke-linejoin:round; stroke-width:2; stroke-opacity:0.1; fill:none" points="
  155.638,47.2441 2256.76,47.2441 
  "/>
<polyline clip-path="url(#clip150)" style="stroke:#000000; stroke-linecap:round; stroke-linejoin:round; stroke-width:4; stroke-opacity:1; fill:none" points="
  155.638,1423.09 155.638,47.2441 
  "/>
<polyline clip-path="url(#clip150)" style="stroke:#000000; stroke-linecap:round; stroke-linejoin:round; stroke-width:4; stroke-opacity:1; fill:none" points="
  155.638,1423.09 174.536,1423.09 
  "/>
<polyline clip-path="url(#clip150)" style="stroke:#000000; stroke-linecap:round; stroke-linejoin:round; stroke-width:4; stroke-opacity:1; fill:none" points="
  155.638,1147.92 174.536,1147.92 
  "/>
<polyline clip-path="url(#clip150)" style="stroke:#000000; stroke-linecap:round; stroke-linejoin:round; stroke-width:4; stroke-opacity:1; fill:none" points="
  155.638,872.75 174.536,872.75 
  "/>
<polyline clip-path="url(#clip150)" style="stroke:#000000; stroke-linecap:round; stroke-linejoin:round; stroke-width:4; stroke-opacity:1; fill:none" points="
  155.638,597.582 174.536,597.582 
  "/>
<polyline clip-path="url(#clip150)" style="stroke:#000000; stroke-linecap:round; stroke-linejoin:round; stroke-width:4; stroke-opacity:1; fill:none" points="
  155.638,322.413 174.536,322.413 
  "/>
<polyline clip-path="url(#clip150)" style="stroke:#000000; stroke-linecap:round; stroke-linejoin:round; stroke-width:4; stroke-opacity:1; fill:none" points="
  155.638,47.2441 174.536,47.2441 
  "/>
<path clip-path="url(#clip150)" d="M63.9026 1408.89 Q60.2915 1408.89 58.4628 1412.45 Q56.6573 1415.99 56.6573 1423.12 Q56.6573 1430.23 58.4628 1433.79 Q60.2915 1437.34 63.9026 1437.34 Q67.5369 1437.34 69.3424 1433.79 Q71.1711 1430.23 71.1711 1423.12 Q71.1711 1415.99 69.3424 1412.45 Q67.5369 1408.89 63.9026 1408.89 M63.9026 1405.18 Q69.7128 1405.18 72.7683 1409.79 Q75.847 1414.37 75.847 1423.12 Q75.847 1431.85 72.7683 1436.46 Q69.7128 1441.04 63.9026 1441.04 Q58.0925 1441.04 55.0138 1436.46 Q51.9582 1431.85 51.9582 1423.12 Q51.9582 1414.37 55.0138 1409.79 Q58.0925 1405.18 63.9026 1405.18 Z" fill="#000000" fill-rule="evenodd" fill-opacity="1" /><path clip-path="url(#clip150)" d="M84.0645 1434.49 L88.9488 1434.49 L88.9488 1440.37 L84.0645 1440.37 L84.0645 1434.49 Z" fill="#000000" fill-rule="evenodd" fill-opacity="1" /><path clip-path="url(#clip150)" d="M109.134 1408.89 Q105.523 1408.89 103.694 1412.45 Q101.889 1415.99 101.889 1423.12 Q101.889 1430.23 103.694 1433.79 Q105.523 1437.34 109.134 1437.34 Q112.768 1437.34 114.574 1433.79 Q116.402 1430.23 116.402 1423.12 Q116.402 1415.99 114.574 1412.45 Q112.768 1408.89 109.134 1408.89 M109.134 1405.18 Q114.944 1405.18 118 1409.79 Q121.078 1414.37 121.078 1423.12 Q121.078 1431.85 118 1436.46 Q114.944 1441.04 109.134 1441.04 Q103.324 1441.04 100.245 1436.46 Q97.1895 1431.85 97.1895 1423.12 Q97.1895 1414.37 100.245 1409.79 Q103.324 1405.18 109.134 1405.18 Z" fill="#000000" fill-rule="evenodd" fill-opacity="1" /><path clip-path="url(#clip150)" d="M65.4998 1133.72 Q61.8887 1133.72 60.06 1137.28 Q58.2545 1140.82 58.2545 1147.95 Q58.2545 1155.06 60.06 1158.63 Q61.8887 1162.17 65.4998 1162.17 Q69.1341 1162.17 70.9396 1158.63 Q72.7683 1155.06 72.7683 1147.95 Q72.7683 1140.82 70.9396 1137.28 Q69.1341 1133.72 65.4998 1133.72 M65.4998 1130.01 Q71.31 1130.01 74.3655 1134.62 Q77.4442 1139.2 77.4442 1147.95 Q77.4442 1156.68 74.3655 1161.29 Q71.31 1165.87 65.4998 1165.87 Q59.6897 1165.87 56.611 1161.29 Q53.5554 1156.68 53.5554 1147.95 Q53.5554 1139.2 56.611 1134.62 Q59.6897 1130.01 65.4998 1130.01 Z" fill="#000000" fill-rule="evenodd" fill-opacity="1" /><path clip-path="url(#clip150)" d="M85.6618 1159.32 L90.546 1159.32 L90.546 1165.2 L85.6618 1165.2 L85.6618 1159.32 Z" fill="#000000" fill-rule="evenodd" fill-opacity="1" /><path clip-path="url(#clip150)" d="M104.759 1161.26 L121.078 1161.26 L121.078 1165.2 L99.1339 1165.2 L99.1339 1161.26 Q101.796 1158.51 106.379 1153.88 Q110.986 1149.23 112.166 1147.88 Q114.412 1145.36 115.291 1143.63 Q116.194 1141.87 116.194 1140.18 Q116.194 1137.42 114.25 1135.69 Q112.328 1133.95 109.226 1133.95 Q107.027 1133.95 104.574 1134.71 Q102.143 1135.48 99.3654 1137.03 L99.3654 1132.31 Q102.189 1131.17 104.643 1130.59 Q107.097 1130.01 109.134 1130.01 Q114.504 1130.01 117.699 1132.7 Q120.893 1135.38 120.893 1139.88 Q120.893 1142 120.083 1143.93 Q119.296 1145.82 117.189 1148.42 Q116.611 1149.09 113.509 1152.31 Q110.407 1155.5 104.759 1161.26 Z" fill="#000000" fill-rule="evenodd" fill-opacity="1" /><path clip-path="url(#clip150)" d="M63.4165 858.549 Q59.8054 858.549 57.9767 862.114 Q56.1712 865.655 56.1712 872.785 Q56.1712 879.892 57.9767 883.456 Q59.8054 886.998 63.4165 886.998 Q67.0507 886.998 68.8563 883.456 Q70.685 879.892 70.685 872.785 Q70.685 865.655 68.8563 862.114 Q67.0507 858.549 63.4165 858.549 M63.4165 854.845 Q69.2267 854.845 72.2822 859.452 Q75.3609 864.035 75.3609 872.785 Q75.3609 881.512 72.2822 886.118 Q69.2267 890.702 63.4165 890.702 Q57.6064 890.702 54.5277 886.118 Q51.4721 881.512 51.4721 872.785 Q51.4721 864.035 54.5277 859.452 Q57.6064 854.845 63.4165 854.845 Z" fill="#000000" fill-rule="evenodd" fill-opacity="1" /><path clip-path="url(#clip150)" d="M83.5784 884.151 L88.4627 884.151 L88.4627 890.03 L83.5784 890.03 L83.5784 884.151 Z" fill="#000000" fill-rule="evenodd" fill-opacity="1" /><path clip-path="url(#clip150)" d="M111.495 859.544 L99.6895 877.993 L111.495 877.993 L111.495 859.544 M110.268 855.47 L116.148 855.47 L116.148 877.993 L121.078 877.993 L121.078 881.882 L116.148 881.882 L116.148 890.03 L111.495 890.03 L111.495 881.882 L95.8932 881.882 L95.8932 877.368 L110.268 855.47 Z" fill="#000000" fill-rule="evenodd" fill-opacity="1" /><path clip-path="url(#clip150)" d="M63.7406 583.38 Q60.1295 583.38 58.3008 586.945 Q56.4952 590.487 56.4952 597.616 Q56.4952 604.723 58.3008 608.288 Q60.1295 611.829 63.7406 611.829 Q67.3748 611.829 69.1804 608.288 Q71.0091 604.723 71.0091 597.616 Q71.0091 590.487 69.1804 586.945 Q67.3748 583.38 63.7406 583.38 M63.7406 579.677 Q69.5507 579.677 72.6063 584.283 Q75.685 588.866 75.685 597.616 Q75.685 606.343 72.6063 610.95 Q69.5507 615.533 63.7406 615.533 Q57.9304 615.533 54.8517 610.95 Q51.7962 606.343 51.7962 597.616 Q51.7962 588.866 54.8517 584.283 Q57.9304 579.677 63.7406 579.677 Z" fill="#000000" fill-rule="evenodd" fill-opacity="1" /><path clip-path="url(#clip150)" d="M83.9025 608.982 L88.7867 608.982 L88.7867 614.862 L83.9025 614.862 L83.9025 608.982 Z" fill="#000000" fill-rule="evenodd" fill-opacity="1" /><path clip-path="url(#clip150)" d="M109.551 595.718 Q106.402 595.718 104.551 597.871 Q102.722 600.024 102.722 603.774 Q102.722 607.501 104.551 609.676 Q106.402 611.829 109.551 611.829 Q112.699 611.829 114.527 609.676 Q116.379 607.501 116.379 603.774 Q116.379 600.024 114.527 597.871 Q112.699 595.718 109.551 595.718 M118.833 581.065 L118.833 585.325 Q117.074 584.491 115.268 584.052 Q113.486 583.612 111.726 583.612 Q107.097 583.612 104.643 586.737 Q102.213 589.862 101.865 596.181 Q103.231 594.167 105.291 593.102 Q107.351 592.015 109.828 592.015 Q115.037 592.015 118.046 595.186 Q121.078 598.334 121.078 603.774 Q121.078 609.098 117.93 612.315 Q114.782 615.533 109.551 615.533 Q103.555 615.533 100.384 610.95 Q97.2126 606.343 97.2126 597.616 Q97.2126 589.422 101.101 584.561 Q104.99 579.677 111.541 579.677 Q113.3 579.677 115.083 580.024 Q116.888 580.371 118.833 581.065 Z" fill="#000000" fill-rule="evenodd" fill-opacity="1" /><path clip-path="url(#clip150)" d="M63.9952 308.212 Q60.3841 308.212 58.5554 311.776 Q56.7499 315.318 56.7499 322.448 Q56.7499 329.554 58.5554 333.119 Q60.3841 336.66 63.9952 336.66 Q67.6294 336.66 69.435 333.119 Q71.2637 329.554 71.2637 322.448 Q71.2637 315.318 69.435 311.776 Q67.6294 308.212 63.9952 308.212 M63.9952 304.508 Q69.8054 304.508 72.8609 309.114 Q75.9396 313.698 75.9396 322.448 Q75.9396 331.174 72.8609 335.781 Q69.8054 340.364 63.9952 340.364 Q58.1851 340.364 55.1064 335.781 Q52.0508 331.174 52.0508 322.448 Q52.0508 313.698 55.1064 309.114 Q58.1851 304.508 63.9952 304.508 Z" fill="#000000" fill-rule="evenodd" fill-opacity="1" /><path clip-path="url(#clip150)" d="M84.1571 333.813 L89.0414 333.813 L89.0414 339.693 L84.1571 339.693 L84.1571 333.813 Z" fill="#000000" fill-rule="evenodd" fill-opacity="1" /><path clip-path="url(#clip150)" d="M109.226 323.281 Q105.893 323.281 103.972 325.063 Q102.074 326.846 102.074 329.971 Q102.074 333.096 103.972 334.878 Q105.893 336.66 109.226 336.66 Q112.56 336.66 114.481 334.878 Q116.402 333.073 116.402 329.971 Q116.402 326.846 114.481 325.063 Q112.583 323.281 109.226 323.281 M104.551 321.29 Q101.541 320.549 99.8515 318.489 Q98.1848 316.429 98.1848 313.466 Q98.1848 309.323 101.125 306.915 Q104.088 304.508 109.226 304.508 Q114.388 304.508 117.328 306.915 Q120.268 309.323 120.268 313.466 Q120.268 316.429 118.578 318.489 Q116.912 320.549 113.925 321.29 Q117.305 322.077 119.18 324.369 Q121.078 326.661 121.078 329.971 Q121.078 334.994 118 337.679 Q114.944 340.364 109.226 340.364 Q103.509 340.364 100.43 337.679 Q97.3747 334.994 97.3747 329.971 Q97.3747 326.661 99.2728 324.369 Q101.171 322.077 104.551 321.29 M102.838 313.906 Q102.838 316.591 104.504 318.096 Q106.194 319.6 109.226 319.6 Q112.236 319.6 113.925 318.096 Q115.638 316.591 115.638 313.906 Q115.638 311.221 113.925 309.716 Q112.236 308.212 109.226 308.212 Q106.194 308.212 104.504 309.716 Q102.838 311.221 102.838 313.906 Z" fill="#000000" fill-rule="evenodd" fill-opacity="1" /><path clip-path="url(#clip150)" d="M54.7128 60.5889 L62.3517 60.5889 L62.3517 34.2233 L54.0416 35.89 L54.0416 31.6308 L62.3054 29.9641 L66.9813 29.9641 L66.9813 60.5889 L74.6202 60.5889 L74.6202 64.5241 L54.7128 64.5241 L54.7128 60.5889 Z" fill="#000000" fill-rule="evenodd" fill-opacity="1" /><path clip-path="url(#clip150)" d="M84.0645 58.6445 L88.9488 58.6445 L88.9488 64.5241 L84.0645 64.5241 L84.0645 58.6445 Z" fill="#000000" fill-rule="evenodd" fill-opacity="1" /><path clip-path="url(#clip150)" d="M109.134 33.0428 Q105.523 33.0428 103.694 36.6076 Q101.889 40.1492 101.889 47.2788 Q101.889 54.3853 103.694 57.9501 Q105.523 61.4917 109.134 61.4917 Q112.768 61.4917 114.574 57.9501 Q116.402 54.3853 116.402 47.2788 Q116.402 40.1492 114.574 36.6076 Q112.768 33.0428 109.134 33.0428 M109.134 29.3391 Q114.944 29.3391 118 33.9456 Q121.078 38.5289 121.078 47.2788 Q121.078 56.0056 118 60.6121 Q114.944 65.1954 109.134 65.1954 Q103.324 65.1954 100.245 60.6121 Q97.1895 56.0056 97.1895 47.2788 Q97.1895 38.5289 100.245 33.9456 Q103.324 29.3391 109.134 29.3391 Z" fill="#000000" fill-rule="evenodd" fill-opacity="1" /><circle clip-path="url(#clip152)" cx="291.234" cy="1216.66" r="14.4" fill="#009af9" fill-rule="evenodd" fill-opacity="1" stroke="#000000" stroke-opacity="1" stroke-width="3.072"/>
<circle clip-path="url(#clip152)" cx="324.577" cy="1281.8" r="14.4" fill="#009af9" fill-rule="evenodd" fill-opacity="1" stroke="#000000" stroke-opacity="1" stroke-width="3.072"/>
<circle clip-path="url(#clip152)" cx="215.104" cy="1208.14" r="14.4" fill="#009af9" fill-rule="evenodd" fill-opacity="1" stroke="#000000" stroke-opacity="1" stroke-width="3.072"/>
<circle clip-path="url(#clip152)" cx="411.3" cy="1087.61" r="14.4" fill="#009af9" fill-rule="evenodd" fill-opacity="1" stroke="#000000" stroke-opacity="1" stroke-width="3.072"/>
<circle clip-path="url(#clip152)" cx="391.287" cy="1197.52" r="14.4" fill="#009af9" fill-rule="evenodd" fill-opacity="1" stroke="#000000" stroke-opacity="1" stroke-width="3.072"/>
<circle clip-path="url(#clip152)" cx="307.882" cy="1361.5" r="14.4" fill="#009af9" fill-rule="evenodd" fill-opacity="1" stroke="#000000" stroke-opacity="1" stroke-width="3.072"/>
<circle clip-path="url(#clip152)" cx="413.711" cy="1219.38" r="14.4" fill="#009af9" fill-rule="evenodd" fill-opacity="1" stroke="#000000" stroke-opacity="1" stroke-width="3.072"/>
<circle clip-path="url(#clip152)" cx="398.161" cy="1215.45" r="14.4" fill="#009af9" fill-rule="evenodd" fill-opacity="1" stroke="#000000" stroke-opacity="1" stroke-width="3.072"/>
<circle clip-path="url(#clip152)" cx="270.044" cy="1293.07" r="14.4" fill="#009af9" fill-rule="evenodd" fill-opacity="1" stroke="#000000" stroke-opacity="1" stroke-width="3.072"/>
<circle clip-path="url(#clip152)" cx="275.402" cy="1198.76" r="14.4" fill="#009af9" fill-rule="evenodd" fill-opacity="1" stroke="#000000" stroke-opacity="1" stroke-width="3.072"/>
<circle clip-path="url(#clip152)" cx="337.512" cy="1270.06" r="14.4" fill="#009af9" fill-rule="evenodd" fill-opacity="1" stroke="#000000" stroke-opacity="1" stroke-width="3.072"/>
<circle clip-path="url(#clip152)" cx="279.836" cy="1223.75" r="14.4" fill="#009af9" fill-rule="evenodd" fill-opacity="1" stroke="#000000" stroke-opacity="1" stroke-width="3.072"/>
<circle clip-path="url(#clip152)" cx="268.168" cy="1258.67" r="14.4" fill="#009af9" fill-rule="evenodd" fill-opacity="1" stroke="#000000" stroke-opacity="1" stroke-width="3.072"/>
<circle clip-path="url(#clip152)" cx="400.665" cy="1120.28" r="14.4" fill="#009af9" fill-rule="evenodd" fill-opacity="1" stroke="#000000" stroke-opacity="1" stroke-width="3.072"/>
<circle clip-path="url(#clip152)" cx="350.922" cy="1260.16" r="14.4" fill="#009af9" fill-rule="evenodd" fill-opacity="1" stroke="#000000" stroke-opacity="1" stroke-width="3.072"/>
<circle clip-path="url(#clip152)" cx="485.297" cy="1125.41" r="14.4" fill="#009af9" fill-rule="evenodd" fill-opacity="1" stroke="#000000" stroke-opacity="1" stroke-width="3.072"/>
<circle clip-path="url(#clip152)" cx="420.629" cy="1180.99" r="14.4" fill="#009af9" fill-rule="evenodd" fill-opacity="1" stroke="#000000" stroke-opacity="1" stroke-width="3.072"/>
<circle clip-path="url(#clip152)" cx="393.989" cy="1098.99" r="14.4" fill="#009af9" fill-rule="evenodd" fill-opacity="1" stroke="#000000" stroke-opacity="1" stroke-width="3.072"/>
<circle clip-path="url(#clip152)" cx="331.908" cy="1417.16" r="14.4" fill="#009af9" fill-rule="evenodd" fill-opacity="1" stroke="#000000" stroke-opacity="1" stroke-width="3.072"/>
<circle clip-path="url(#clip152)" cx="392.642" cy="1097.11" r="14.4" fill="#009af9" fill-rule="evenodd" fill-opacity="1" stroke="#000000" stroke-opacity="1" stroke-width="3.072"/>
<circle clip-path="url(#clip152)" cx="379.329" cy="1086.22" r="14.4" fill="#009af9" fill-rule="evenodd" fill-opacity="1" stroke="#000000" stroke-opacity="1" stroke-width="3.072"/>
<circle clip-path="url(#clip152)" cx="358.402" cy="1367.73" r="14.4" fill="#009af9" fill-rule="evenodd" fill-opacity="1" stroke="#000000" stroke-opacity="1" stroke-width="3.072"/>
<circle clip-path="url(#clip152)" cx="432.395" cy="1220.44" r="14.4" fill="#009af9" fill-rule="evenodd" fill-opacity="1" stroke="#000000" stroke-opacity="1" stroke-width="3.072"/>
<circle clip-path="url(#clip152)" cx="449.425" cy="1198.53" r="14.4" fill="#009af9" fill-rule="evenodd" fill-opacity="1" stroke="#000000" stroke-opacity="1" stroke-width="3.072"/>
<circle clip-path="url(#clip152)" cx="429.242" cy="1372.46" r="14.4" fill="#009af9" fill-rule="evenodd" fill-opacity="1" stroke="#000000" stroke-opacity="1" stroke-width="3.072"/>
<circle clip-path="url(#clip152)" cx="335.495" cy="1379.34" r="14.4" fill="#009af9" fill-rule="evenodd" fill-opacity="1" stroke="#000000" stroke-opacity="1" stroke-width="3.072"/>
<circle clip-path="url(#clip152)" cx="424.752" cy="1359.97" r="14.4" fill="#009af9" fill-rule="evenodd" fill-opacity="1" stroke="#000000" stroke-opacity="1" stroke-width="3.072"/>
<circle clip-path="url(#clip152)" cx="396.604" cy="1103.6" r="14.4" fill="#009af9" fill-rule="evenodd" fill-opacity="1" stroke="#000000" stroke-opacity="1" stroke-width="3.072"/>
<circle clip-path="url(#clip152)" cx="278.057" cy="1312.05" r="14.4" fill="#009af9" fill-rule="evenodd" fill-opacity="1" stroke="#000000" stroke-opacity="1" stroke-width="3.072"/>
<circle clip-path="url(#clip152)" cx="351.204" cy="1095.82" r="14.4" fill="#009af9" fill-rule="evenodd" fill-opacity="1" stroke="#000000" stroke-opacity="1" stroke-width="3.072"/>
<circle clip-path="url(#clip152)" cx="306.396" cy="1104.98" r="14.4" fill="#009af9" fill-rule="evenodd" fill-opacity="1" stroke="#000000" stroke-opacity="1" stroke-width="3.072"/>
<circle clip-path="url(#clip152)" cx="442.134" cy="1096.36" r="14.4" fill="#009af9" fill-rule="evenodd" fill-opacity="1" stroke="#000000" stroke-opacity="1" stroke-width="3.072"/>
<circle clip-path="url(#clip152)" cx="484.77" cy="1288.45" r="14.4" fill="#009af9" fill-rule="evenodd" fill-opacity="1" stroke="#000000" stroke-opacity="1" stroke-width="3.072"/>
<circle clip-path="url(#clip152)" cx="332.39" cy="1122.93" r="14.4" fill="#009af9" fill-rule="evenodd" fill-opacity="1" stroke="#000000" stroke-opacity="1" stroke-width="3.072"/>
<circle clip-path="url(#clip152)" cx="430.667" cy="1369.42" r="14.4" fill="#009af9" fill-rule="evenodd" fill-opacity="1" stroke="#000000" stroke-opacity="1" stroke-width="3.072"/>
<circle clip-path="url(#clip152)" cx="340.529" cy="1324.37" r="14.4" fill="#009af9" fill-rule="evenodd" fill-opacity="1" stroke="#000000" stroke-opacity="1" stroke-width="3.072"/>
<circle clip-path="url(#clip152)" cx="393.184" cy="1286.55" r="14.4" fill="#009af9" fill-rule="evenodd" fill-opacity="1" stroke="#000000" stroke-opacity="1" stroke-width="3.072"/>
<circle clip-path="url(#clip152)" cx="464.878" cy="1182.74" r="14.4" fill="#009af9" fill-rule="evenodd" fill-opacity="1" stroke="#000000" stroke-opacity="1" stroke-width="3.072"/>
<circle clip-path="url(#clip152)" cx="386.055" cy="1278.84" r="14.4" fill="#009af9" fill-rule="evenodd" fill-opacity="1" stroke="#000000" stroke-opacity="1" stroke-width="3.072"/>
<circle clip-path="url(#clip152)" cx="317.484" cy="1407.28" r="14.4" fill="#009af9" fill-rule="evenodd" fill-opacity="1" stroke="#000000" stroke-opacity="1" stroke-width="3.072"/>
<circle clip-path="url(#clip152)" cx="538.933" cy="1382.45" r="14.4" fill="#009af9" fill-rule="evenodd" fill-opacity="1" stroke="#000000" stroke-opacity="1" stroke-width="3.072"/>
<circle clip-path="url(#clip152)" cx="381.169" cy="1372.13" r="14.4" fill="#009af9" fill-rule="evenodd" fill-opacity="1" stroke="#000000" stroke-opacity="1" stroke-width="3.072"/>
<circle clip-path="url(#clip152)" cx="514.355" cy="1120.73" r="14.4" fill="#009af9" fill-rule="evenodd" fill-opacity="1" stroke="#000000" stroke-opacity="1" stroke-width="3.072"/>
<circle clip-path="url(#clip152)" cx="461.084" cy="1137.2" r="14.4" fill="#009af9" fill-rule="evenodd" fill-opacity="1" stroke="#000000" stroke-opacity="1" stroke-width="3.072"/>
<circle clip-path="url(#clip152)" cx="482.88" cy="1263.66" r="14.4" fill="#009af9" fill-rule="evenodd" fill-opacity="1" stroke="#000000" stroke-opacity="1" stroke-width="3.072"/>
<circle clip-path="url(#clip152)" cx="409.297" cy="1165.02" r="14.4" fill="#009af9" fill-rule="evenodd" fill-opacity="1" stroke="#000000" stroke-opacity="1" stroke-width="3.072"/>
<circle clip-path="url(#clip152)" cx="556.658" cy="1321.54" r="14.4" fill="#009af9" fill-rule="evenodd" fill-opacity="1" stroke="#000000" stroke-opacity="1" stroke-width="3.072"/>
<circle clip-path="url(#clip152)" cx="434.303" cy="1398.94" r="14.4" fill="#009af9" fill-rule="evenodd" fill-opacity="1" stroke="#000000" stroke-opacity="1" stroke-width="3.072"/>
<circle clip-path="url(#clip152)" cx="589.09" cy="1260.26" r="14.4" fill="#009af9" fill-rule="evenodd" fill-opacity="1" stroke="#000000" stroke-opacity="1" stroke-width="3.072"/>
<circle clip-path="url(#clip152)" cx="468.522" cy="1225.32" r="14.4" fill="#009af9" fill-rule="evenodd" fill-opacity="1" stroke="#000000" stroke-opacity="1" stroke-width="3.072"/>
<circle clip-path="url(#clip152)" cx="1002.63" cy="1318.58" r="14.4" fill="#009af9" fill-rule="evenodd" fill-opacity="1" stroke="#000000" stroke-opacity="1" stroke-width="3.072"/>
<circle clip-path="url(#clip152)" cx="1041.37" cy="1121.96" r="14.4" fill="#009af9" fill-rule="evenodd" fill-opacity="1" stroke="#000000" stroke-opacity="1" stroke-width="3.072"/>
<circle clip-path="url(#clip152)" cx="899.566" cy="1142.4" r="14.4" fill="#009af9" fill-rule="evenodd" fill-opacity="1" stroke="#000000" stroke-opacity="1" stroke-width="3.072"/>
<circle clip-path="url(#clip152)" cx="1112.99" cy="1336.42" r="14.4" fill="#009af9" fill-rule="evenodd" fill-opacity="1" stroke="#000000" stroke-opacity="1" stroke-width="3.072"/>
<circle clip-path="url(#clip152)" cx="1018.25" cy="1307.57" r="14.4" fill="#009af9" fill-rule="evenodd" fill-opacity="1" stroke="#000000" stroke-opacity="1" stroke-width="3.072"/>
<circle clip-path="url(#clip152)" cx="960.651" cy="1102.45" r="14.4" fill="#009af9" fill-rule="evenodd" fill-opacity="1" stroke="#000000" stroke-opacity="1" stroke-width="3.072"/>
<circle clip-path="url(#clip152)" cx="1165.23" cy="1181.97" r="14.4" fill="#009af9" fill-rule="evenodd" fill-opacity="1" stroke="#000000" stroke-opacity="1" stroke-width="3.072"/>
<circle clip-path="url(#clip152)" cx="1027.94" cy="1323.7" r="14.4" fill="#009af9" fill-rule="evenodd" fill-opacity="1" stroke="#000000" stroke-opacity="1" stroke-width="3.072"/>
<circle clip-path="url(#clip152)" cx="1130.3" cy="1366.23" r="14.4" fill="#009af9" fill-rule="evenodd" fill-opacity="1" stroke="#000000" stroke-opacity="1" stroke-width="3.072"/>
<circle clip-path="url(#clip152)" cx="1180.15" cy="1406.66" r="14.4" fill="#009af9" fill-rule="evenodd" fill-opacity="1" stroke="#000000" stroke-opacity="1" stroke-width="3.072"/>
<circle clip-path="url(#clip152)" cx="1145.06" cy="1269.14" r="14.4" fill="#009af9" fill-rule="evenodd" fill-opacity="1" stroke="#000000" stroke-opacity="1" stroke-width="3.072"/>
<circle clip-path="url(#clip152)" cx="1155.1" cy="1286.13" r="14.4" fill="#009af9" fill-rule="evenodd" fill-opacity="1" stroke="#000000" stroke-opacity="1" stroke-width="3.072"/>
<circle clip-path="url(#clip152)" cx="1239.68" cy="1335.22" r="14.4" fill="#009af9" fill-rule="evenodd" fill-opacity="1" stroke="#000000" stroke-opacity="1" stroke-width="3.072"/>
<circle clip-path="url(#clip152)" cx="1314.36" cy="1249.29" r="14.4" fill="#009af9" fill-rule="evenodd" fill-opacity="1" stroke="#000000" stroke-opacity="1" stroke-width="3.072"/>
<circle clip-path="url(#clip152)" cx="1204.4" cy="1162.18" r="14.4" fill="#009af9" fill-rule="evenodd" fill-opacity="1" stroke="#000000" stroke-opacity="1" stroke-width="3.072"/>
<circle clip-path="url(#clip152)" cx="1297.43" cy="1136.92" r="14.4" fill="#009af9" fill-rule="evenodd" fill-opacity="1" stroke="#000000" stroke-opacity="1" stroke-width="3.072"/>
<circle clip-path="url(#clip152)" cx="1245.77" cy="1309.21" r="14.4" fill="#009af9" fill-rule="evenodd" fill-opacity="1" stroke="#000000" stroke-opacity="1" stroke-width="3.072"/>
<circle clip-path="url(#clip152)" cx="1206.75" cy="1106.79" r="14.4" fill="#009af9" fill-rule="evenodd" fill-opacity="1" stroke="#000000" stroke-opacity="1" stroke-width="3.072"/>
<circle clip-path="url(#clip152)" cx="1353.09" cy="1127.88" r="14.4" fill="#009af9" fill-rule="evenodd" fill-opacity="1" stroke="#000000" stroke-opacity="1" stroke-width="3.072"/>
<circle clip-path="url(#clip152)" cx="1236.31" cy="1413.71" r="14.4" fill="#009af9" fill-rule="evenodd" fill-opacity="1" stroke="#000000" stroke-opacity="1" stroke-width="3.072"/>
<circle clip-path="url(#clip152)" cx="1354.03" cy="1186.94" r="14.4" fill="#009af9" fill-rule="evenodd" fill-opacity="1" stroke="#000000" stroke-opacity="1" stroke-width="3.072"/>
<circle clip-path="url(#clip152)" cx="1357.96" cy="1180.91" r="14.4" fill="#009af9" fill-rule="evenodd" fill-opacity="1" stroke="#000000" stroke-opacity="1" stroke-width="3.072"/>
<circle clip-path="url(#clip152)" cx="1300.18" cy="1347.42" r="14.4" fill="#009af9" fill-rule="evenodd" fill-opacity="1" stroke="#000000" stroke-opacity="1" stroke-width="3.072"/>
<circle clip-path="url(#clip152)" cx="1326.8" cy="1148.55" r="14.4" fill="#009af9" fill-rule="evenodd" fill-opacity="1" stroke="#000000" stroke-opacity="1" stroke-width="3.072"/>
<circle clip-path="url(#clip152)" cx="1377.85" cy="1285.54" r="14.4" fill="#009af9" fill-rule="evenodd" fill-opacity="1" stroke="#000000" stroke-opacity="1" stroke-width="3.072"/>
<circle clip-path="url(#clip152)" cx="1363.64" cy="1134.8" r="14.4" fill="#009af9" fill-rule="evenodd" fill-opacity="1" stroke="#000000" stroke-opacity="1" stroke-width="3.072"/>
<circle clip-path="url(#clip152)" cx="1444.89" cy="1123.24" r="14.4" fill="#009af9" fill-rule="evenodd" fill-opacity="1" stroke="#000000" stroke-opacity="1" stroke-width="3.072"/>
<circle clip-path="url(#clip152)" cx="1300.89" cy="1420.63" r="14.4" fill="#009af9" fill-rule="evenodd" fill-opacity="1" stroke="#000000" stroke-opacity="1" stroke-width="3.072"/>
<circle clip-path="url(#clip152)" cx="1396.24" cy="1181.03" r="14.4" fill="#009af9" fill-rule="evenodd" fill-opacity="1" stroke="#000000" stroke-opacity="1" stroke-width="3.072"/>
<circle clip-path="url(#clip152)" cx="1402.16" cy="1389.45" r="14.4" fill="#009af9" fill-rule="evenodd" fill-opacity="1" stroke="#000000" stroke-opacity="1" stroke-width="3.072"/>
<circle clip-path="url(#clip152)" cx="1398.15" cy="1271.89" r="14.4" fill="#009af9" fill-rule="evenodd" fill-opacity="1" stroke="#000000" stroke-opacity="1" stroke-width="3.072"/>
<circle clip-path="url(#clip152)" cx="1365.73" cy="1366.78" r="14.4" fill="#009af9" fill-rule="evenodd" fill-opacity="1" stroke="#000000" stroke-opacity="1" stroke-width="3.072"/>
<circle clip-path="url(#clip152)" cx="1459.75" cy="1131.87" r="14.4" fill="#009af9" fill-rule="evenodd" fill-opacity="1" stroke="#000000" stroke-opacity="1" stroke-width="3.072"/>
<circle clip-path="url(#clip152)" cx="1358.85" cy="1131.12" r="14.4" fill="#009af9" fill-rule="evenodd" fill-opacity="1" stroke="#000000" stroke-opacity="1" stroke-width="3.072"/>
<circle clip-path="url(#clip152)" cx="1453.38" cy="1190.87" r="14.4" fill="#009af9" fill-rule="evenodd" fill-opacity="1" stroke="#000000" stroke-opacity="1" stroke-width="3.072"/>
<circle clip-path="url(#clip152)" cx="1320.29" cy="1216.19" r="14.4" fill="#009af9" fill-rule="evenodd" fill-opacity="1" stroke="#000000" stroke-opacity="1" stroke-width="3.072"/>
<circle clip-path="url(#clip152)" cx="1444.07" cy="1082.94" r="14.4" fill="#009af9" fill-rule="evenodd" fill-opacity="1" stroke="#000000" stroke-opacity="1" stroke-width="3.072"/>
<circle clip-path="url(#clip152)" cx="1385.49" cy="1301.16" r="14.4" fill="#009af9" fill-rule="evenodd" fill-opacity="1" stroke="#000000" stroke-opacity="1" stroke-width="3.072"/>
<circle clip-path="url(#clip152)" cx="1447.29" cy="1381.57" r="14.4" fill="#009af9" fill-rule="evenodd" fill-opacity="1" stroke="#000000" stroke-opacity="1" stroke-width="3.072"/>
<circle clip-path="url(#clip152)" cx="1343.13" cy="1321.29" r="14.4" fill="#009af9" fill-rule="evenodd" fill-opacity="1" stroke="#000000" stroke-opacity="1" stroke-width="3.072"/>
<circle clip-path="url(#clip152)" cx="1339.35" cy="1139.85" r="14.4" fill="#009af9" fill-rule="evenodd" fill-opacity="1" stroke="#000000" stroke-opacity="1" stroke-width="3.072"/>
<circle clip-path="url(#clip152)" cx="1387.07" cy="1410.25" r="14.4" fill="#009af9" fill-rule="evenodd" fill-opacity="1" stroke="#000000" stroke-opacity="1" stroke-width="3.072"/>
<circle clip-path="url(#clip152)" cx="1510.86" cy="1100.87" r="14.4" fill="#009af9" fill-rule="evenodd" fill-opacity="1" stroke="#000000" stroke-opacity="1" stroke-width="3.072"/>
<circle clip-path="url(#clip152)" cx="1557.03" cy="1319.96" r="14.4" fill="#009af9" fill-rule="evenodd" fill-opacity="1" stroke="#000000" stroke-opacity="1" stroke-width="3.072"/>
<circle clip-path="url(#clip152)" cx="1449.4" cy="1353.92" r="14.4" fill="#009af9" fill-rule="evenodd" fill-opacity="1" stroke="#000000" stroke-opacity="1" stroke-width="3.072"/>
<circle clip-path="url(#clip152)" cx="1564.86" cy="1296.69" r="14.4" fill="#009af9" fill-rule="evenodd" fill-opacity="1" stroke="#000000" stroke-opacity="1" stroke-width="3.072"/>
<circle clip-path="url(#clip152)" cx="1463.74" cy="1111.75" r="14.4" fill="#009af9" fill-rule="evenodd" fill-opacity="1" stroke="#000000" stroke-opacity="1" stroke-width="3.072"/>
<circle clip-path="url(#clip152)" cx="1433.8" cy="1200.88" r="14.4" fill="#009af9" fill-rule="evenodd" fill-opacity="1" stroke="#000000" stroke-opacity="1" stroke-width="3.072"/>
<circle clip-path="url(#clip152)" cx="1355.62" cy="1291.74" r="14.4" fill="#009af9" fill-rule="evenodd" fill-opacity="1" stroke="#000000" stroke-opacity="1" stroke-width="3.072"/>
<circle clip-path="url(#clip152)" cx="1455.65" cy="1226.85" r="14.4" fill="#009af9" fill-rule="evenodd" fill-opacity="1" stroke="#000000" stroke-opacity="1" stroke-width="3.072"/>
<circle clip-path="url(#clip152)" cx="1467.38" cy="1324.06" r="14.4" fill="#009af9" fill-rule="evenodd" fill-opacity="1" stroke="#000000" stroke-opacity="1" stroke-width="3.072"/>
<circle clip-path="url(#clip152)" cx="1531.36" cy="1212.94" r="14.4" fill="#009af9" fill-rule="evenodd" fill-opacity="1" stroke="#000000" stroke-opacity="1" stroke-width="3.072"/>
<circle clip-path="url(#clip152)" cx="1571.31" cy="1141.43" r="14.4" fill="#009af9" fill-rule="evenodd" fill-opacity="1" stroke="#000000" stroke-opacity="1" stroke-width="3.072"/>
<circle clip-path="url(#clip152)" cx="1612.82" cy="1135.1" r="14.4" fill="#009af9" fill-rule="evenodd" fill-opacity="1" stroke="#000000" stroke-opacity="1" stroke-width="3.072"/>
<circle clip-path="url(#clip152)" cx="1465.81" cy="1230.97" r="14.4" fill="#009af9" fill-rule="evenodd" fill-opacity="1" stroke="#000000" stroke-opacity="1" stroke-width="3.072"/>
<circle clip-path="url(#clip152)" cx="1448.34" cy="1241.85" r="14.4" fill="#009af9" fill-rule="evenodd" fill-opacity="1" stroke="#000000" stroke-opacity="1" stroke-width="3.072"/>
<circle clip-path="url(#clip152)" cx="1527.32" cy="1105.2" r="14.4" fill="#009af9" fill-rule="evenodd" fill-opacity="1" stroke="#000000" stroke-opacity="1" stroke-width="3.072"/>
<circle clip-path="url(#clip152)" cx="1520.94" cy="1333.63" r="14.4" fill="#009af9" fill-rule="evenodd" fill-opacity="1" stroke="#000000" stroke-opacity="1" stroke-width="3.072"/>
<circle clip-path="url(#clip152)" cx="1516.23" cy="1350.24" r="14.4" fill="#009af9" fill-rule="evenodd" fill-opacity="1" stroke="#000000" stroke-opacity="1" stroke-width="3.072"/>
<circle clip-path="url(#clip152)" cx="1438.99" cy="1122.34" r="14.4" fill="#009af9" fill-rule="evenodd" fill-opacity="1" stroke="#000000" stroke-opacity="1" stroke-width="3.072"/>
<circle clip-path="url(#clip152)" cx="1496.42" cy="1131.99" r="14.4" fill="#009af9" fill-rule="evenodd" fill-opacity="1" stroke="#000000" stroke-opacity="1" stroke-width="3.072"/>
<circle clip-path="url(#clip152)" cx="1680.05" cy="1102.13" r="14.4" fill="#009af9" fill-rule="evenodd" fill-opacity="1" stroke="#000000" stroke-opacity="1" stroke-width="3.072"/>
<circle clip-path="url(#clip152)" cx="1494.36" cy="1149.34" r="14.4" fill="#009af9" fill-rule="evenodd" fill-opacity="1" stroke="#000000" stroke-opacity="1" stroke-width="3.072"/>
<circle clip-path="url(#clip152)" cx="1523.08" cy="1423.04" r="14.4" fill="#009af9" fill-rule="evenodd" fill-opacity="1" stroke="#000000" stroke-opacity="1" stroke-width="3.072"/>
<circle clip-path="url(#clip152)" cx="1614.13" cy="1372.38" r="14.4" fill="#009af9" fill-rule="evenodd" fill-opacity="1" stroke="#000000" stroke-opacity="1" stroke-width="3.072"/>
<circle clip-path="url(#clip152)" cx="1614.16" cy="1094.04" r="14.4" fill="#009af9" fill-rule="evenodd" fill-opacity="1" stroke="#000000" stroke-opacity="1" stroke-width="3.072"/>
<circle clip-path="url(#clip152)" cx="1535.6" cy="1250.19" r="14.4" fill="#009af9" fill-rule="evenodd" fill-opacity="1" stroke="#000000" stroke-opacity="1" stroke-width="3.072"/>
<circle clip-path="url(#clip152)" cx="1656.64" cy="1334.58" r="14.4" fill="#009af9" fill-rule="evenodd" fill-opacity="1" stroke="#000000" stroke-opacity="1" stroke-width="3.072"/>
<circle clip-path="url(#clip152)" cx="1702.78" cy="1154.59" r="14.4" fill="#009af9" fill-rule="evenodd" fill-opacity="1" stroke="#000000" stroke-opacity="1" stroke-width="3.072"/>
<circle clip-path="url(#clip152)" cx="1558.12" cy="1171.43" r="14.4" fill="#009af9" fill-rule="evenodd" fill-opacity="1" stroke="#000000" stroke-opacity="1" stroke-width="3.072"/>
<circle clip-path="url(#clip152)" cx="1625.4" cy="1326.05" r="14.4" fill="#009af9" fill-rule="evenodd" fill-opacity="1" stroke="#000000" stroke-opacity="1" stroke-width="3.072"/>
<circle clip-path="url(#clip152)" cx="1774.85" cy="1328.38" r="14.4" fill="#009af9" fill-rule="evenodd" fill-opacity="1" stroke="#000000" stroke-opacity="1" stroke-width="3.072"/>
<circle clip-path="url(#clip152)" cx="1649.01" cy="1151.15" r="14.4" fill="#009af9" fill-rule="evenodd" fill-opacity="1" stroke="#000000" stroke-opacity="1" stroke-width="3.072"/>
<circle clip-path="url(#clip152)" cx="1628.75" cy="1400.97" r="14.4" fill="#009af9" fill-rule="evenodd" fill-opacity="1" stroke="#000000" stroke-opacity="1" stroke-width="3.072"/>
<circle clip-path="url(#clip152)" cx="1717.8" cy="1237.39" r="14.4" fill="#009af9" fill-rule="evenodd" fill-opacity="1" stroke="#000000" stroke-opacity="1" stroke-width="3.072"/>
<circle clip-path="url(#clip152)" cx="1687.36" cy="1253.51" r="14.4" fill="#009af9" fill-rule="evenodd" fill-opacity="1" stroke="#000000" stroke-opacity="1" stroke-width="3.072"/>
<circle clip-path="url(#clip152)" cx="1812.26" cy="1088.04" r="14.4" fill="#009af9" fill-rule="evenodd" fill-opacity="1" stroke="#000000" stroke-opacity="1" stroke-width="3.072"/>
<circle clip-path="url(#clip152)" cx="1613.32" cy="1091.07" r="14.4" fill="#009af9" fill-rule="evenodd" fill-opacity="1" stroke="#000000" stroke-opacity="1" stroke-width="3.072"/>
<circle clip-path="url(#clip152)" cx="1643.27" cy="1103.71" r="14.4" fill="#009af9" fill-rule="evenodd" fill-opacity="1" stroke="#000000" stroke-opacity="1" stroke-width="3.072"/>
<circle clip-path="url(#clip152)" cx="1786.61" cy="1326.64" r="14.4" fill="#009af9" fill-rule="evenodd" fill-opacity="1" stroke="#000000" stroke-opacity="1" stroke-width="3.072"/>
<circle clip-path="url(#clip152)" cx="1638.26" cy="1356.1" r="14.4" fill="#009af9" fill-rule="evenodd" fill-opacity="1" stroke="#000000" stroke-opacity="1" stroke-width="3.072"/>
<circle clip-path="url(#clip152)" cx="1815.96" cy="1228.09" r="14.4" fill="#009af9" fill-rule="evenodd" fill-opacity="1" stroke="#000000" stroke-opacity="1" stroke-width="3.072"/>
<circle clip-path="url(#clip152)" cx="1655.11" cy="1187.17" r="14.4" fill="#009af9" fill-rule="evenodd" fill-opacity="1" stroke="#000000" stroke-opacity="1" stroke-width="3.072"/>
<circle clip-path="url(#clip152)" cx="1861.12" cy="1183.68" r="14.4" fill="#009af9" fill-rule="evenodd" fill-opacity="1" stroke="#000000" stroke-opacity="1" stroke-width="3.072"/>
<circle clip-path="url(#clip152)" cx="1790.6" cy="1155.39" r="14.4" fill="#009af9" fill-rule="evenodd" fill-opacity="1" stroke="#000000" stroke-opacity="1" stroke-width="3.072"/>
<circle clip-path="url(#clip152)" cx="1842.21" cy="1227.24" r="14.4" fill="#009af9" fill-rule="evenodd" fill-opacity="1" stroke="#000000" stroke-opacity="1" stroke-width="3.072"/>
<circle clip-path="url(#clip152)" cx="1891.45" cy="1121.22" r="14.4" fill="#009af9" fill-rule="evenodd" fill-opacity="1" stroke="#000000" stroke-opacity="1" stroke-width="3.072"/>
<circle clip-path="url(#clip152)" cx="1814.67" cy="1171.45" r="14.4" fill="#009af9" fill-rule="evenodd" fill-opacity="1" stroke="#000000" stroke-opacity="1" stroke-width="3.072"/>
<circle clip-path="url(#clip152)" cx="1836.9" cy="1118.08" r="14.4" fill="#009af9" fill-rule="evenodd" fill-opacity="1" stroke="#000000" stroke-opacity="1" stroke-width="3.072"/>
<circle clip-path="url(#clip152)" cx="1882.77" cy="1094.17" r="14.4" fill="#009af9" fill-rule="evenodd" fill-opacity="1" stroke="#000000" stroke-opacity="1" stroke-width="3.072"/>
<circle clip-path="url(#clip152)" cx="1887.91" cy="1309.8" r="14.4" fill="#009af9" fill-rule="evenodd" fill-opacity="1" stroke="#000000" stroke-opacity="1" stroke-width="3.072"/>
<circle clip-path="url(#clip152)" cx="1999.54" cy="1326.47" r="14.4" fill="#009af9" fill-rule="evenodd" fill-opacity="1" stroke="#000000" stroke-opacity="1" stroke-width="3.072"/>
<circle clip-path="url(#clip152)" cx="1894.34" cy="1352.1" r="14.4" fill="#009af9" fill-rule="evenodd" fill-opacity="1" stroke="#000000" stroke-opacity="1" stroke-width="3.072"/>
<circle clip-path="url(#clip152)" cx="1896.12" cy="1206.38" r="14.4" fill="#009af9" fill-rule="evenodd" fill-opacity="1" stroke="#000000" stroke-opacity="1" stroke-width="3.072"/>
<circle clip-path="url(#clip152)" cx="1845.54" cy="1213.52" r="14.4" fill="#009af9" fill-rule="evenodd" fill-opacity="1" stroke="#000000" stroke-opacity="1" stroke-width="3.072"/>
<circle clip-path="url(#clip152)" cx="2010.23" cy="1198.68" r="14.4" fill="#009af9" fill-rule="evenodd" fill-opacity="1" stroke="#000000" stroke-opacity="1" stroke-width="3.072"/>
<circle clip-path="url(#clip152)" cx="2168.98" cy="1208.22" r="14.4" fill="#009af9" fill-rule="evenodd" fill-opacity="1" stroke="#000000" stroke-opacity="1" stroke-width="3.072"/>
<circle clip-path="url(#clip152)" cx="2011.21" cy="1358.2" r="14.4" fill="#009af9" fill-rule="evenodd" fill-opacity="1" stroke="#000000" stroke-opacity="1" stroke-width="3.072"/>
<circle clip-path="url(#clip152)" cx="2197.29" cy="1224.13" r="14.4" fill="#009af9" fill-rule="evenodd" fill-opacity="1" stroke="#000000" stroke-opacity="1" stroke-width="3.072"/>
<circle clip-path="url(#clip152)" cx="2084.26" cy="1409.58" r="14.4" fill="#009af9" fill-rule="evenodd" fill-opacity="1" stroke="#000000" stroke-opacity="1" stroke-width="3.072"/>
</svg>
