<?xml version="1.0" encoding="utf-8"?>
<svg xmlns="http://www.w3.org/2000/svg" xmlns:xlink="http://www.w3.org/1999/xlink" width="576" height="384" viewBox="0 0 2304 1536">
<defs>
  <clipPath id="clip080">
    <rect x="0" y="0" width="2304" height="1536"/>
  </clipPath>
</defs>
<path clip-path="url(#clip080)" d="
M0 1536 L2304 1536 L2304 0 L0 0  Z
  " fill="#ffffff" fill-rule="evenodd" fill-opacity="1"/>
<defs>
  <clipPath id="clip081">
    <rect x="460" y="0" width="1614" height="1536"/>
  </clipPath>
</defs>
<path clip-path="url(#clip080)" d="
M222.143 1423.09 L2256.76 1423.09 L2256.76 47.2441 L222.143 47.2441  Z
  " fill="#ffffff" fill-rule="evenodd" fill-opacity="1"/>
<defs>
  <clipPath id="clip082">
    <rect x="222" y="47" width="2036" height="1377"/>
  </clipPath>
</defs>
<polyline clip-path="url(#clip082)" style="stroke:#000000; stroke-linecap:round; stroke-linejoin:round; stroke-width:2; stroke-opacity:0.1; fill:none" points="
  321.392,1423.09 321.392,47.2441 
  "/>
<polyline clip-path="url(#clip082)" style="stroke:#000000; stroke-linecap:round; stroke-linejoin:round; stroke-width:2; stroke-opacity:0.1; fill:none" points="
  727.068,1423.09 727.068,47.2441 
  "/>
<polyline clip-path="url(#clip082)" style="stroke:#000000; stroke-linecap:round; stroke-linejoin:round; stroke-width:2; stroke-opacity:0.1; fill:none" points="
  1132.74,1423.09 1132.74,47.2441 
  "/>
<polyline clip-path="url(#clip082)" style="stroke:#000000; stroke-linecap:round; stroke-linejoin:round; stroke-width:2; stroke-opacity:0.1; fill:none" points="
  1538.42,1423.09 1538.42,47.2441 
  "/>
<polyline clip-path="url(#clip082)" style="stroke:#000000; stroke-linecap:round; stroke-linejoin:round; stroke-width:2; stroke-opacity:0.1; fill:none" points="
  1944.1,1423.09 1944.1,47.2441 
  "/>
<polyline clip-path="url(#clip080)" style="stroke:#000000; stroke-linecap:round; stroke-linejoin:round; stroke-width:4; stroke-opacity:1; fill:none" points="
  222.143,1423.09 2256.76,1423.09 
  "/>
<polyline clip-path="url(#clip080)" style="stroke:#000000; stroke-linecap:round; stroke-linejoin:round; stroke-width:4; stroke-opacity:1; fill:none" points="
  321.392,1423.09 321.392,1404.19 
  "/>
<polyline clip-path="url(#clip080)" style="stroke:#000000; stroke-linecap:round; stroke-linejoin:round; stroke-width:4; stroke-opacity:1; fill:none" points="
  727.068,1423.09 727.068,1404.19 
  "/>
<polyline clip-path="url(#clip080)" style="stroke:#000000; stroke-linecap:round; stroke-linejoin:round; stroke-width:4; stroke-opacity:1; fill:none" points="
  1132.74,1423.09 1132.74,1404.19 
  "/>
<polyline clip-path="url(#clip080)" style="stroke:#000000; stroke-linecap:round; stroke-linejoin:round; stroke-width:4; stroke-opacity:1; fill:none" points="
  1538.42,1423.09 1538.42,1404.19 
  "/>
<polyline clip-path="url(#clip080)" style="stroke:#000000; stroke-linecap:round; stroke-linejoin:round; stroke-width:4; stroke-opacity:1; fill:none" points="
  1944.1,1423.09 1944.1,1404.19 
  "/>
<path clip-path="url(#clip080)" d="M298.696 1453.24 Q295.085 1453.24 293.256 1456.8 Q291.45 1460.35 291.45 1467.47 Q291.45 1474.58 293.256 1478.15 Q295.085 1481.69 298.696 1481.69 Q302.33 1481.69 304.136 1478.15 Q305.964 1474.58 305.964 1467.47 Q305.964 1460.35 304.136 1456.8 Q302.33 1453.24 298.696 1453.24 M298.696 1449.53 Q304.506 1449.53 307.561 1454.14 Q310.64 1458.72 310.64 1467.47 Q310.64 1476.2 307.561 1480.81 Q304.506 1485.39 298.696 1485.39 Q292.886 1485.39 289.807 1480.81 Q286.751 1476.2 286.751 1467.47 Q286.751 1458.72 289.807 1454.14 Q292.886 1449.53 298.696 1449.53 Z" fill="#000000" fill-rule="evenodd" fill-opacity="1" /><path clip-path="url(#clip080)" d="M318.858 1478.84 L323.742 1478.84 L323.742 1484.72 L318.858 1484.72 L318.858 1478.84 Z" fill="#000000" fill-rule="evenodd" fill-opacity="1" /><path clip-path="url(#clip080)" d="M344.506 1465.58 Q341.358 1465.58 339.506 1467.73 Q337.677 1469.88 337.677 1473.63 Q337.677 1477.36 339.506 1479.53 Q341.358 1481.69 344.506 1481.69 Q347.654 1481.69 349.483 1479.53 Q351.334 1477.36 351.334 1473.63 Q351.334 1469.88 349.483 1467.73 Q347.654 1465.58 344.506 1465.58 M353.788 1450.92 L353.788 1455.18 Q352.029 1454.35 350.223 1453.91 Q348.441 1453.47 346.682 1453.47 Q342.052 1453.47 339.598 1456.6 Q337.168 1459.72 336.821 1466.04 Q338.186 1464.03 340.246 1462.96 Q342.307 1461.87 344.783 1461.87 Q349.992 1461.87 353.001 1465.04 Q356.033 1468.19 356.033 1473.63 Q356.033 1478.96 352.885 1482.17 Q349.737 1485.39 344.506 1485.39 Q338.51 1485.39 335.339 1480.81 Q332.168 1476.2 332.168 1467.47 Q332.168 1459.28 336.057 1454.42 Q339.946 1449.53 346.496 1449.53 Q348.256 1449.53 350.038 1449.88 Q351.844 1450.23 353.788 1450.92 Z" fill="#000000" fill-rule="evenodd" fill-opacity="1" /><path clip-path="url(#clip080)" d="M704.545 1453.24 Q700.934 1453.24 699.106 1456.8 Q697.3 1460.35 697.3 1467.47 Q697.3 1474.58 699.106 1478.15 Q700.934 1481.69 704.545 1481.69 Q708.18 1481.69 709.985 1478.15 Q711.814 1474.58 711.814 1467.47 Q711.814 1460.35 709.985 1456.8 Q708.18 1453.24 704.545 1453.24 M704.545 1449.53 Q710.356 1449.53 713.411 1454.14 Q716.49 1458.72 716.49 1467.47 Q716.49 1476.2 713.411 1480.81 Q710.356 1485.39 704.545 1485.39 Q698.735 1485.39 695.657 1480.81 Q692.601 1476.2 692.601 1467.47 Q692.601 1458.72 695.657 1454.14 Q698.735 1449.53 704.545 1449.53 Z" fill="#000000" fill-rule="evenodd" fill-opacity="1" /><path clip-path="url(#clip080)" d="M724.707 1478.84 L729.592 1478.84 L729.592 1484.72 L724.707 1484.72 L724.707 1478.84 Z" fill="#000000" fill-rule="evenodd" fill-opacity="1" /><path clip-path="url(#clip080)" d="M739.916 1484 L739.916 1479.74 Q741.675 1480.58 743.48 1481.02 Q745.286 1481.46 747.022 1481.46 Q751.652 1481.46 754.082 1478.35 Q756.536 1475.23 756.883 1468.89 Q755.54 1470.88 753.48 1471.94 Q751.42 1473.01 748.92 1473.01 Q743.735 1473.01 740.703 1469.88 Q737.693 1466.73 737.693 1461.29 Q737.693 1455.97 740.841 1452.75 Q743.99 1449.53 749.221 1449.53 Q755.216 1449.53 758.365 1454.14 Q761.536 1458.72 761.536 1467.47 Q761.536 1475.65 757.647 1480.53 Q753.781 1485.39 747.23 1485.39 Q745.471 1485.39 743.666 1485.04 Q741.86 1484.7 739.916 1484 M749.221 1469.35 Q752.369 1469.35 754.198 1467.2 Q756.05 1465.04 756.05 1461.29 Q756.05 1457.57 754.198 1455.41 Q752.369 1453.24 749.221 1453.24 Q746.073 1453.24 744.221 1455.41 Q742.392 1457.57 742.392 1461.29 Q742.392 1465.04 744.221 1467.2 Q746.073 1469.35 749.221 1469.35 Z" fill="#000000" fill-rule="evenodd" fill-opacity="1" /><path clip-path="url(#clip080)" d="M1100.7 1480.78 L1108.33 1480.78 L1108.33 1454.42 L1100.02 1456.09 L1100.02 1451.83 L1108.29 1450.16 L1112.96 1450.16 L1112.96 1480.78 L1120.6 1480.78 L1120.6 1484.72 L1100.7 1484.72 L1100.7 1480.78 Z" fill="#000000" fill-rule="evenodd" fill-opacity="1" /><path clip-path="url(#clip080)" d="M1130.05 1478.84 L1134.93 1478.84 L1134.93 1484.72 L1130.05 1484.72 L1130.05 1478.84 Z" fill="#000000" fill-rule="evenodd" fill-opacity="1" /><path clip-path="url(#clip080)" d="M1149.14 1480.78 L1165.46 1480.78 L1165.46 1484.72 L1143.52 1484.72 L1143.52 1480.78 Q1146.18 1478.03 1150.77 1473.4 Q1155.37 1468.75 1156.55 1467.41 Q1158.8 1464.88 1159.68 1463.15 Q1160.58 1461.39 1160.58 1459.7 Q1160.58 1456.94 1158.64 1455.21 Q1156.71 1453.47 1153.61 1453.47 Q1151.41 1453.47 1148.96 1454.23 Q1146.53 1455 1143.75 1456.55 L1143.75 1451.83 Q1146.58 1450.69 1149.03 1450.11 Q1151.48 1449.53 1153.52 1449.53 Q1158.89 1449.53 1162.08 1452.22 Q1165.28 1454.91 1165.28 1459.4 Q1165.28 1461.53 1164.47 1463.45 Q1163.68 1465.34 1161.58 1467.94 Q1161 1468.61 1157.89 1471.83 Q1154.79 1475.02 1149.14 1480.78 Z" fill="#000000" fill-rule="evenodd" fill-opacity="1" /><path clip-path="url(#clip080)" d="M1506.07 1480.78 L1513.71 1480.78 L1513.71 1454.42 L1505.4 1456.09 L1505.4 1451.83 L1513.66 1450.16 L1518.34 1450.16 L1518.34 1480.78 L1525.98 1480.78 L1525.98 1484.72 L1506.07 1484.72 L1506.07 1480.78 Z" fill="#000000" fill-rule="evenodd" fill-opacity="1" /><path clip-path="url(#clip080)" d="M1535.42 1478.84 L1540.31 1478.84 L1540.31 1484.72 L1535.42 1484.72 L1535.42 1478.84 Z" fill="#000000" fill-rule="evenodd" fill-opacity="1" /><path clip-path="url(#clip080)" d="M1550.54 1450.16 L1568.89 1450.16 L1568.89 1454.1 L1554.82 1454.1 L1554.82 1462.57 Q1555.84 1462.22 1556.86 1462.06 Q1557.88 1461.87 1558.89 1461.87 Q1564.68 1461.87 1568.06 1465.04 Q1571.44 1468.22 1571.44 1473.63 Q1571.44 1479.21 1567.97 1482.31 Q1564.5 1485.39 1558.18 1485.39 Q1556 1485.39 1553.73 1485.02 Q1551.49 1484.65 1549.08 1483.91 L1549.08 1479.21 Q1551.16 1480.34 1553.39 1480.9 Q1555.61 1481.46 1558.08 1481.46 Q1562.09 1481.46 1564.43 1479.35 Q1566.77 1477.24 1566.77 1473.63 Q1566.77 1470.02 1564.43 1467.91 Q1562.09 1465.81 1558.08 1465.81 Q1556.21 1465.81 1554.33 1466.22 Q1552.48 1466.64 1550.54 1467.52 L1550.54 1450.16 Z" fill="#000000" fill-rule="evenodd" fill-opacity="1" /><path clip-path="url(#clip080)" d="M1911.3 1480.78 L1918.93 1480.78 L1918.93 1454.42 L1910.62 1456.09 L1910.62 1451.83 L1918.89 1450.16 L1923.56 1450.16 L1923.56 1480.78 L1931.2 1480.78 L1931.2 1484.72 L1911.3 1484.72 L1911.3 1480.78 Z" fill="#000000" fill-rule="evenodd" fill-opacity="1" /><path clip-path="url(#clip080)" d="M1940.65 1478.84 L1945.53 1478.84 L1945.53 1484.72 L1940.65 1484.72 L1940.65 1478.84 Z" fill="#000000" fill-rule="evenodd" fill-opacity="1" /><path clip-path="url(#clip080)" d="M1965.72 1468.31 Q1962.38 1468.31 1960.46 1470.09 Q1958.56 1471.87 1958.56 1475 Q1958.56 1478.12 1960.46 1479.91 Q1962.38 1481.69 1965.72 1481.69 Q1969.05 1481.69 1970.97 1479.91 Q1972.89 1478.1 1972.89 1475 Q1972.89 1471.87 1970.97 1470.09 Q1969.07 1468.31 1965.72 1468.31 M1961.04 1466.32 Q1958.03 1465.58 1956.34 1463.52 Q1954.68 1461.46 1954.68 1458.49 Q1954.68 1454.35 1957.61 1451.94 Q1960.58 1449.53 1965.72 1449.53 Q1970.88 1449.53 1973.82 1451.94 Q1976.76 1454.35 1976.76 1458.49 Q1976.76 1461.46 1975.07 1463.52 Q1973.4 1465.58 1970.42 1466.32 Q1973.8 1467.1 1975.67 1469.4 Q1977.57 1471.69 1977.57 1475 Q1977.57 1480.02 1974.49 1482.71 Q1971.43 1485.39 1965.72 1485.39 Q1960 1485.39 1956.92 1482.71 Q1953.86 1480.02 1953.86 1475 Q1953.86 1471.69 1955.76 1469.4 Q1957.66 1467.1 1961.04 1466.32 M1959.33 1458.93 Q1959.33 1461.62 1960.99 1463.12 Q1962.68 1464.63 1965.72 1464.63 Q1968.73 1464.63 1970.42 1463.12 Q1972.13 1461.62 1972.13 1458.93 Q1972.13 1456.25 1970.42 1454.74 Q1968.73 1453.24 1965.72 1453.24 Q1962.68 1453.24 1960.99 1454.74 Q1959.33 1456.25 1959.33 1458.93 Z" fill="#000000" fill-rule="evenodd" fill-opacity="1" /><polyline clip-path="url(#clip082)" style="stroke:#000000; stroke-linecap:round; stroke-linejoin:round; stroke-width:2; stroke-opacity:0.1; fill:none" points="
  222.143,1404.14 2256.76,1404.14 
  "/>
<polyline clip-path="url(#clip082)" style="stroke:#000000; stroke-linecap:round; stroke-linejoin:round; stroke-width:2; stroke-opacity:0.1; fill:none" points="
  222.143,1109.67 2256.76,1109.67 
  "/>
<polyline clip-path="url(#clip082)" style="stroke:#000000; stroke-linecap:round; stroke-linejoin:round; stroke-width:2; stroke-opacity:0.1; fill:none" points="
  222.143,815.208 2256.76,815.208 
  "/>
<polyline clip-path="url(#clip082)" style="stroke:#000000; stroke-linecap:round; stroke-linejoin:round; stroke-width:2; stroke-opacity:0.1; fill:none" points="
  222.143,520.745 2256.76,520.745 
  "/>
<polyline clip-path="url(#clip082)" style="stroke:#000000; stroke-linecap:round; stroke-linejoin:round; stroke-width:2; stroke-opacity:0.1; fill:none" points="
  222.143,226.281 2256.76,226.281 
  "/>
<polyline clip-path="url(#clip080)" style="stroke:#000000; stroke-linecap:round; stroke-linejoin:round; stroke-width:4; stroke-opacity:1; fill:none" points="
  222.143,1423.09 222.143,47.2441 
  "/>
<polyline clip-path="url(#clip080)" style="stroke:#000000; stroke-linecap:round; stroke-linejoin:round; stroke-width:4; stroke-opacity:1; fill:none" points="
  222.143,1404.14 241.04,1404.14 
  "/>
<polyline clip-path="url(#clip080)" style="stroke:#000000; stroke-linecap:round; stroke-linejoin:round; stroke-width:4; stroke-opacity:1; fill:none" points="
  222.143,1109.67 241.04,1109.67 
  "/>
<polyline clip-path="url(#clip080)" style="stroke:#000000; stroke-linecap:round; stroke-linejoin:round; stroke-width:4; stroke-opacity:1; fill:none" points="
  222.143,815.208 241.04,815.208 
  "/>
<polyline clip-path="url(#clip080)" style="stroke:#000000; stroke-linecap:round; stroke-linejoin:round; stroke-width:4; stroke-opacity:1; fill:none" points="
  222.143,520.745 241.04,520.745 
  "/>
<polyline clip-path="url(#clip080)" style="stroke:#000000; stroke-linecap:round; stroke-linejoin:round; stroke-width:4; stroke-opacity:1; fill:none" points="
  222.143,226.281 241.04,226.281 
  "/>
<path clip-path="url(#clip080)" d="M51.4721 1404.59 L81.1479 1404.59 L81.1479 1408.52 L51.4721 1408.52 L51.4721 1404.59 Z" fill="#000000" fill-rule="evenodd" fill-opacity="1" /><path clip-path="url(#clip080)" d="M101.24 1389.93 Q97.6293 1389.93 95.8006 1393.5 Q93.995 1397.04 93.995 1404.17 Q93.995 1411.28 95.8006 1414.84 Q97.6293 1418.38 101.24 1418.38 Q104.875 1418.38 106.68 1414.84 Q108.509 1411.28 108.509 1404.17 Q108.509 1397.04 106.68 1393.5 Q104.875 1389.93 101.24 1389.93 M101.24 1386.23 Q107.051 1386.23 110.106 1390.84 Q113.185 1395.42 113.185 1404.17 Q113.185 1412.9 110.106 1417.5 Q107.051 1422.09 101.24 1422.09 Q95.4302 1422.09 92.3515 1417.5 Q89.296 1412.9 89.296 1404.17 Q89.296 1395.42 92.3515 1390.84 Q95.4302 1386.23 101.24 1386.23 Z" fill="#000000" fill-rule="evenodd" fill-opacity="1" /><path clip-path="url(#clip080)" d="M121.402 1415.54 L126.287 1415.54 L126.287 1421.42 L121.402 1421.42 L121.402 1415.54 Z" fill="#000000" fill-rule="evenodd" fill-opacity="1" /><path clip-path="url(#clip080)" d="M140.499 1417.48 L156.819 1417.48 L156.819 1421.42 L134.874 1421.42 L134.874 1417.48 Q137.536 1414.73 142.12 1410.1 Q146.726 1405.44 147.907 1404.1 Q150.152 1401.58 151.032 1399.84 Q151.935 1398.08 151.935 1396.39 Q151.935 1393.64 149.99 1391.9 Q148.069 1390.17 144.967 1390.17 Q142.768 1390.17 140.314 1390.93 Q137.884 1391.69 135.106 1393.24 L135.106 1388.52 Q137.93 1387.39 140.384 1386.81 Q142.837 1386.23 144.874 1386.23 Q150.245 1386.23 153.439 1388.92 Q156.634 1391.6 156.634 1396.09 Q156.634 1398.22 155.823 1400.14 Q155.036 1402.04 152.93 1404.63 Q152.351 1405.3 149.249 1408.52 Q146.148 1411.72 140.499 1417.48 Z" fill="#000000" fill-rule="evenodd" fill-opacity="1" /><path clip-path="url(#clip080)" d="M166.68 1386.86 L185.036 1386.86 L185.036 1390.79 L170.962 1390.79 L170.962 1399.26 Q171.981 1398.92 172.999 1398.75 Q174.018 1398.57 175.036 1398.57 Q180.823 1398.57 184.203 1401.74 Q187.583 1404.91 187.583 1410.33 Q187.583 1415.91 184.11 1419.01 Q180.638 1422.09 174.319 1422.09 Q172.143 1422.09 169.874 1421.72 Q167.629 1421.35 165.222 1420.61 L165.222 1415.91 Q167.305 1417.04 169.527 1417.6 Q171.749 1418.15 174.226 1418.15 Q178.231 1418.15 180.569 1416.05 Q182.907 1413.94 182.907 1410.33 Q182.907 1406.72 180.569 1404.61 Q178.231 1402.5 174.226 1402.5 Q172.351 1402.5 170.476 1402.92 Q168.624 1403.34 166.68 1404.22 L166.68 1386.86 Z" fill="#000000" fill-rule="evenodd" fill-opacity="1" /><path clip-path="url(#clip080)" d="M100.245 1095.47 Q96.6339 1095.47 94.8052 1099.04 Q92.9997 1102.58 92.9997 1109.71 Q92.9997 1116.81 94.8052 1120.38 Q96.6339 1123.92 100.245 1123.92 Q103.879 1123.92 105.685 1120.38 Q107.513 1116.81 107.513 1109.71 Q107.513 1102.58 105.685 1099.04 Q103.879 1095.47 100.245 1095.47 M100.245 1091.77 Q106.055 1091.77 109.111 1096.37 Q112.189 1100.96 112.189 1109.71 Q112.189 1118.43 109.111 1123.04 Q106.055 1127.62 100.245 1127.62 Q94.4349 1127.62 91.3562 1123.04 Q88.3006 1118.43 88.3006 1109.71 Q88.3006 1100.96 91.3562 1096.37 Q94.4349 1091.77 100.245 1091.77 Z" fill="#000000" fill-rule="evenodd" fill-opacity="1" /><path clip-path="url(#clip080)" d="M120.407 1121.07 L125.291 1121.07 L125.291 1126.95 L120.407 1126.95 L120.407 1121.07 Z" fill="#000000" fill-rule="evenodd" fill-opacity="1" /><path clip-path="url(#clip080)" d="M145.476 1095.47 Q141.865 1095.47 140.036 1099.04 Q138.231 1102.58 138.231 1109.71 Q138.231 1116.81 140.036 1120.38 Q141.865 1123.92 145.476 1123.92 Q149.11 1123.92 150.916 1120.38 Q152.745 1116.81 152.745 1109.71 Q152.745 1102.58 150.916 1099.04 Q149.11 1095.47 145.476 1095.47 M145.476 1091.77 Q151.286 1091.77 154.342 1096.37 Q157.421 1100.96 157.421 1109.71 Q157.421 1118.43 154.342 1123.04 Q151.286 1127.62 145.476 1127.62 Q139.666 1127.62 136.587 1123.04 Q133.532 1118.43 133.532 1109.71 Q133.532 1100.96 136.587 1096.37 Q139.666 1091.77 145.476 1091.77 Z" fill="#000000" fill-rule="evenodd" fill-opacity="1" /><path clip-path="url(#clip080)" d="M175.638 1095.47 Q172.027 1095.47 170.198 1099.04 Q168.393 1102.58 168.393 1109.71 Q168.393 1116.81 170.198 1120.38 Q172.027 1123.92 175.638 1123.92 Q179.272 1123.92 181.078 1120.38 Q182.907 1116.81 182.907 1109.71 Q182.907 1102.58 181.078 1099.04 Q179.272 1095.47 175.638 1095.47 M175.638 1091.77 Q181.448 1091.77 184.504 1096.37 Q187.583 1100.96 187.583 1109.71 Q187.583 1118.43 184.504 1123.04 Q181.448 1127.62 175.638 1127.62 Q169.828 1127.62 166.749 1123.04 Q163.694 1118.43 163.694 1109.71 Q163.694 1100.96 166.749 1096.37 Q169.828 1091.77 175.638 1091.77 Z" fill="#000000" fill-rule="evenodd" fill-opacity="1" /><path clip-path="url(#clip080)" d="M101.24 801.007 Q97.6293 801.007 95.8006 804.572 Q93.995 808.114 93.995 815.243 Q93.995 822.35 95.8006 825.914 Q97.6293 829.456 101.24 829.456 Q104.875 829.456 106.68 825.914 Q108.509 822.35 108.509 815.243 Q108.509 808.114 106.68 804.572 Q104.875 801.007 101.24 801.007 M101.24 797.303 Q107.051 797.303 110.106 801.91 Q113.185 806.493 113.185 815.243 Q113.185 823.97 110.106 828.576 Q107.051 833.16 101.24 833.16 Q95.4302 833.16 92.3515 828.576 Q89.296 823.97 89.296 815.243 Q89.296 806.493 92.3515 801.91 Q95.4302 797.303 101.24 797.303 Z" fill="#000000" fill-rule="evenodd" fill-opacity="1" /><path clip-path="url(#clip080)" d="M121.402 826.609 L126.287 826.609 L126.287 832.488 L121.402 832.488 L121.402 826.609 Z" fill="#000000" fill-rule="evenodd" fill-opacity="1" /><path clip-path="url(#clip080)" d="M140.499 828.553 L156.819 828.553 L156.819 832.488 L134.874 832.488 L134.874 828.553 Q137.536 825.799 142.12 821.169 Q146.726 816.516 147.907 815.174 Q150.152 812.651 151.032 810.914 Q151.935 809.155 151.935 807.465 Q151.935 804.711 149.99 802.975 Q148.069 801.239 144.967 801.239 Q142.768 801.239 140.314 802.002 Q137.884 802.766 135.106 804.317 L135.106 799.595 Q137.93 798.461 140.384 797.882 Q142.837 797.303 144.874 797.303 Q150.245 797.303 153.439 799.989 Q156.634 802.674 156.634 807.164 Q156.634 809.294 155.823 811.215 Q155.036 813.113 152.93 815.706 Q152.351 816.377 149.249 819.595 Q146.148 822.789 140.499 828.553 Z" fill="#000000" fill-rule="evenodd" fill-opacity="1" /><path clip-path="url(#clip080)" d="M166.68 797.928 L185.036 797.928 L185.036 801.864 L170.962 801.864 L170.962 810.336 Q171.981 809.989 172.999 809.826 Q174.018 809.641 175.036 809.641 Q180.823 809.641 184.203 812.813 Q187.583 815.984 187.583 821.4 Q187.583 826.979 184.11 830.081 Q180.638 833.16 174.319 833.16 Q172.143 833.16 169.874 832.789 Q167.629 832.419 165.222 831.678 L165.222 826.979 Q167.305 828.113 169.527 828.669 Q171.749 829.225 174.226 829.225 Q178.231 829.225 180.569 827.118 Q182.907 825.012 182.907 821.4 Q182.907 817.789 180.569 815.683 Q178.231 813.576 174.226 813.576 Q172.351 813.576 170.476 813.993 Q168.624 814.41 166.68 815.289 L166.68 797.928 Z" fill="#000000" fill-rule="evenodd" fill-opacity="1" /><path clip-path="url(#clip080)" d="M100.245 506.543 Q96.6339 506.543 94.8052 510.108 Q92.9997 513.65 92.9997 520.779 Q92.9997 527.886 94.8052 531.451 Q96.6339 534.992 100.245 534.992 Q103.879 534.992 105.685 531.451 Q107.513 527.886 107.513 520.779 Q107.513 513.65 105.685 510.108 Q103.879 506.543 100.245 506.543 M100.245 502.84 Q106.055 502.84 109.111 507.446 Q112.189 512.03 112.189 520.779 Q112.189 529.506 109.111 534.113 Q106.055 538.696 100.245 538.696 Q94.4349 538.696 91.3562 534.113 Q88.3006 529.506 88.3006 520.779 Q88.3006 512.03 91.3562 507.446 Q94.4349 502.84 100.245 502.84 Z" fill="#000000" fill-rule="evenodd" fill-opacity="1" /><path clip-path="url(#clip080)" d="M120.407 532.145 L125.291 532.145 L125.291 538.025 L120.407 538.025 L120.407 532.145 Z" fill="#000000" fill-rule="evenodd" fill-opacity="1" /><path clip-path="url(#clip080)" d="M135.523 503.465 L153.879 503.465 L153.879 507.4 L139.805 507.4 L139.805 515.872 Q140.823 515.525 141.842 515.363 Q142.861 515.178 143.879 515.178 Q149.666 515.178 153.046 518.349 Q156.425 521.52 156.425 526.937 Q156.425 532.516 152.953 535.617 Q149.481 538.696 143.161 538.696 Q140.986 538.696 138.717 538.326 Q136.472 537.955 134.064 537.215 L134.064 532.516 Q136.148 533.65 138.37 534.205 Q140.592 534.761 143.069 534.761 Q147.073 534.761 149.411 532.654 Q151.749 530.548 151.749 526.937 Q151.749 523.326 149.411 521.219 Q147.073 519.113 143.069 519.113 Q141.194 519.113 139.319 519.529 Q137.467 519.946 135.523 520.826 L135.523 503.465 Z" fill="#000000" fill-rule="evenodd" fill-opacity="1" /><path clip-path="url(#clip080)" d="M175.638 506.543 Q172.027 506.543 170.198 510.108 Q168.393 513.65 168.393 520.779 Q168.393 527.886 170.198 531.451 Q172.027 534.992 175.638 534.992 Q179.272 534.992 181.078 531.451 Q182.907 527.886 182.907 520.779 Q182.907 513.65 181.078 510.108 Q179.272 506.543 175.638 506.543 M175.638 502.84 Q181.448 502.84 184.504 507.446 Q187.583 512.03 187.583 520.779 Q187.583 529.506 184.504 534.113 Q181.448 538.696 175.638 538.696 Q169.828 538.696 166.749 534.113 Q163.694 529.506 163.694 520.779 Q163.694 512.03 166.749 507.446 Q169.828 502.84 175.638 502.84 Z" fill="#000000" fill-rule="evenodd" fill-opacity="1" /><path clip-path="url(#clip080)" d="M101.24 212.08 Q97.6293 212.08 95.8006 215.645 Q93.995 219.186 93.995 226.316 Q93.995 233.422 95.8006 236.987 Q97.6293 240.529 101.24 240.529 Q104.875 240.529 106.68 236.987 Q108.509 233.422 108.509 226.316 Q108.509 219.186 106.68 215.645 Q104.875 212.08 101.24 212.08 M101.24 208.376 Q107.051 208.376 110.106 212.983 Q113.185 217.566 113.185 226.316 Q113.185 235.043 110.106 239.649 Q107.051 244.232 101.24 244.232 Q95.4302 244.232 92.3515 239.649 Q89.296 235.043 89.296 226.316 Q89.296 217.566 92.3515 212.983 Q95.4302 208.376 101.24 208.376 Z" fill="#000000" fill-rule="evenodd" fill-opacity="1" /><path clip-path="url(#clip080)" d="M121.402 237.682 L126.287 237.682 L126.287 243.561 L121.402 243.561 L121.402 237.682 Z" fill="#000000" fill-rule="evenodd" fill-opacity="1" /><path clip-path="url(#clip080)" d="M135.291 209.001 L157.513 209.001 L157.513 210.992 L144.967 243.561 L140.083 243.561 L151.888 212.936 L135.291 212.936 L135.291 209.001 Z" fill="#000000" fill-rule="evenodd" fill-opacity="1" /><path clip-path="url(#clip080)" d="M166.68 209.001 L185.036 209.001 L185.036 212.936 L170.962 212.936 L170.962 221.408 Q171.981 221.061 172.999 220.899 Q174.018 220.714 175.036 220.714 Q180.823 220.714 184.203 223.885 Q187.583 227.057 187.583 232.473 Q187.583 238.052 184.11 241.154 Q180.638 244.232 174.319 244.232 Q172.143 244.232 169.874 243.862 Q167.629 243.492 165.222 242.751 L165.222 238.052 Q167.305 239.186 169.527 239.742 Q171.749 240.297 174.226 240.297 Q178.231 240.297 180.569 238.191 Q182.907 236.084 182.907 232.473 Q182.907 228.862 180.569 226.756 Q178.231 224.649 174.226 224.649 Q172.351 224.649 170.476 225.066 Q168.624 225.483 166.68 226.362 L166.68 209.001 Z" fill="#000000" fill-rule="evenodd" fill-opacity="1" /><circle clip-path="url(#clip082)" cx="1569.31" cy="897.989" r="14.4" fill="#009af9" fill-rule="evenodd" fill-opacity="1" stroke="#000000" stroke-opacity="1" stroke-width="3.072"/>
<circle clip-path="url(#clip082)" cx="1748.09" cy="1040.13" r="14.4" fill="#009af9" fill-rule="evenodd" fill-opacity="1" stroke="#000000" stroke-opacity="1" stroke-width="3.072"/>
<circle clip-path="url(#clip082)" cx="1987.95" cy="547.085" r="14.4" fill="#009af9" fill-rule="evenodd" fill-opacity="1" stroke="#000000" stroke-opacity="1" stroke-width="3.072"/>
<circle clip-path="url(#clip082)" cx="1712.28" cy="770.158" r="14.4" fill="#009af9" fill-rule="evenodd" fill-opacity="1" stroke="#000000" stroke-opacity="1" stroke-width="3.072"/>
<circle clip-path="url(#clip082)" cx="1286.72" cy="377.648" r="14.4" fill="#009af9" fill-rule="evenodd" fill-opacity="1" stroke="#000000" stroke-opacity="1" stroke-width="3.072"/>
<circle clip-path="url(#clip082)" cx="1350.5" cy="355.346" r="14.4" fill="#009af9" fill-rule="evenodd" fill-opacity="1" stroke="#000000" stroke-opacity="1" stroke-width="3.072"/>
<circle clip-path="url(#clip082)" cx="1231.25" cy="463.247" r="14.4" fill="#009af9" fill-rule="evenodd" fill-opacity="1" stroke="#000000" stroke-opacity="1" stroke-width="3.072"/>
<circle clip-path="url(#clip082)" cx="1394.4" cy="934.265" r="14.4" fill="#009af9" fill-rule="evenodd" fill-opacity="1" stroke="#000000" stroke-opacity="1" stroke-width="3.072"/>
<circle clip-path="url(#clip082)" cx="1074.72" cy="750.26" r="14.4" fill="#009af9" fill-rule="evenodd" fill-opacity="1" stroke="#000000" stroke-opacity="1" stroke-width="3.072"/>
<circle clip-path="url(#clip082)" cx="1844.36" cy="842.82" r="14.4" fill="#009af9" fill-rule="evenodd" fill-opacity="1" stroke="#000000" stroke-opacity="1" stroke-width="3.072"/>
<circle clip-path="url(#clip082)" cx="945.796" cy="875.648" r="14.4" fill="#009af9" fill-rule="evenodd" fill-opacity="1" stroke="#000000" stroke-opacity="1" stroke-width="3.072"/>
<circle clip-path="url(#clip082)" cx="1769.79" cy="604.814" r="14.4" fill="#009af9" fill-rule="evenodd" fill-opacity="1" stroke="#000000" stroke-opacity="1" stroke-width="3.072"/>
<circle clip-path="url(#clip082)" cx="1347.61" cy="1125.9" r="14.4" fill="#009af9" fill-rule="evenodd" fill-opacity="1" stroke="#000000" stroke-opacity="1" stroke-width="3.072"/>
<circle clip-path="url(#clip082)" cx="767.524" cy="1232.41" r="14.4" fill="#009af9" fill-rule="evenodd" fill-opacity="1" stroke="#000000" stroke-opacity="1" stroke-width="3.072"/>
<circle clip-path="url(#clip082)" cx="1299.49" cy="484.394" r="14.4" fill="#009af9" fill-rule="evenodd" fill-opacity="1" stroke="#000000" stroke-opacity="1" stroke-width="3.072"/>
<circle clip-path="url(#clip082)" cx="1496.17" cy="389.471" r="14.4" fill="#009af9" fill-rule="evenodd" fill-opacity="1" stroke="#000000" stroke-opacity="1" stroke-width="3.072"/>
<circle clip-path="url(#clip082)" cx="1594.38" cy="843.111" r="14.4" fill="#009af9" fill-rule="evenodd" fill-opacity="1" stroke="#000000" stroke-opacity="1" stroke-width="3.072"/>
<circle clip-path="url(#clip082)" cx="1128.62" cy="757.372" r="14.4" fill="#009af9" fill-rule="evenodd" fill-opacity="1" stroke="#000000" stroke-opacity="1" stroke-width="3.072"/>
<circle clip-path="url(#clip082)" cx="1893.08" cy="404.724" r="14.4" fill="#009af9" fill-rule="evenodd" fill-opacity="1" stroke="#000000" stroke-opacity="1" stroke-width="3.072"/>
<circle clip-path="url(#clip082)" cx="1647.81" cy="885.264" r="14.4" fill="#009af9" fill-rule="evenodd" fill-opacity="1" stroke="#000000" stroke-opacity="1" stroke-width="3.072"/>
<circle clip-path="url(#clip082)" cx="2199.17" cy="1384.15" r="14.4" fill="#009af9" fill-rule="evenodd" fill-opacity="1" stroke="#000000" stroke-opacity="1" stroke-width="3.072"/>
<circle clip-path="url(#clip082)" cx="1846.37" cy="1052.17" r="14.4" fill="#009af9" fill-rule="evenodd" fill-opacity="1" stroke="#000000" stroke-opacity="1" stroke-width="3.072"/>
<circle clip-path="url(#clip082)" cx="279.726" cy="972.458" r="14.4" fill="#009af9" fill-rule="evenodd" fill-opacity="1" stroke="#000000" stroke-opacity="1" stroke-width="3.072"/>
<circle clip-path="url(#clip082)" cx="1982.44" cy="396.684" r="14.4" fill="#009af9" fill-rule="evenodd" fill-opacity="1" stroke="#000000" stroke-opacity="1" stroke-width="3.072"/>
<circle clip-path="url(#clip082)" cx="2067.89" cy="477.165" r="14.4" fill="#009af9" fill-rule="evenodd" fill-opacity="1" stroke="#000000" stroke-opacity="1" stroke-width="3.072"/>
<circle clip-path="url(#clip082)" cx="2054.08" cy="871.083" r="14.4" fill="#009af9" fill-rule="evenodd" fill-opacity="1" stroke="#000000" stroke-opacity="1" stroke-width="3.072"/>
<circle clip-path="url(#clip082)" cx="1997.17" cy="616.265" r="14.4" fill="#009af9" fill-rule="evenodd" fill-opacity="1" stroke="#000000" stroke-opacity="1" stroke-width="3.072"/>
<circle clip-path="url(#clip082)" cx="1450.76" cy="816.606" r="14.4" fill="#009af9" fill-rule="evenodd" fill-opacity="1" stroke="#000000" stroke-opacity="1" stroke-width="3.072"/>
<circle clip-path="url(#clip082)" cx="626.582" cy="1071.21" r="14.4" fill="#009af9" fill-rule="evenodd" fill-opacity="1" stroke="#000000" stroke-opacity="1" stroke-width="3.072"/>
<circle clip-path="url(#clip082)" cx="968.705" cy="758.862" r="14.4" fill="#009af9" fill-rule="evenodd" fill-opacity="1" stroke="#000000" stroke-opacity="1" stroke-width="3.072"/>
<circle clip-path="url(#clip082)" cx="1619.33" cy="733.778" r="14.4" fill="#009af9" fill-rule="evenodd" fill-opacity="1" stroke="#000000" stroke-opacity="1" stroke-width="3.072"/>
<circle clip-path="url(#clip082)" cx="1715.42" cy="411.747" r="14.4" fill="#009af9" fill-rule="evenodd" fill-opacity="1" stroke="#000000" stroke-opacity="1" stroke-width="3.072"/>
<circle clip-path="url(#clip082)" cx="925.767" cy="525.582" r="14.4" fill="#009af9" fill-rule="evenodd" fill-opacity="1" stroke="#000000" stroke-opacity="1" stroke-width="3.072"/>
<circle clip-path="url(#clip082)" cx="600.636" cy="1097.56" r="14.4" fill="#009af9" fill-rule="evenodd" fill-opacity="1" stroke="#000000" stroke-opacity="1" stroke-width="3.072"/>
<circle clip-path="url(#clip082)" cx="1612.45" cy="1170.62" r="14.4" fill="#009af9" fill-rule="evenodd" fill-opacity="1" stroke="#000000" stroke-opacity="1" stroke-width="3.072"/>
<circle clip-path="url(#clip082)" cx="1174.59" cy="1201" r="14.4" fill="#009af9" fill-rule="evenodd" fill-opacity="1" stroke="#000000" stroke-opacity="1" stroke-width="3.072"/>
<circle clip-path="url(#clip082)" cx="1277.73" cy="541.48" r="14.4" fill="#009af9" fill-rule="evenodd" fill-opacity="1" stroke="#000000" stroke-opacity="1" stroke-width="3.072"/>
<circle clip-path="url(#clip082)" cx="1472.5" cy="1185.1" r="14.4" fill="#009af9" fill-rule="evenodd" fill-opacity="1" stroke="#000000" stroke-opacity="1" stroke-width="3.072"/>
<circle clip-path="url(#clip082)" cx="985.562" cy="589.82" r="14.4" fill="#009af9" fill-rule="evenodd" fill-opacity="1" stroke="#000000" stroke-opacity="1" stroke-width="3.072"/>
<circle clip-path="url(#clip082)" cx="1055.89" cy="423.763" r="14.4" fill="#009af9" fill-rule="evenodd" fill-opacity="1" stroke="#000000" stroke-opacity="1" stroke-width="3.072"/>
<circle clip-path="url(#clip082)" cx="1429.64" cy="884.281" r="14.4" fill="#009af9" fill-rule="evenodd" fill-opacity="1" stroke="#000000" stroke-opacity="1" stroke-width="3.072"/>
<circle clip-path="url(#clip082)" cx="1298.87" cy="840.656" r="14.4" fill="#009af9" fill-rule="evenodd" fill-opacity="1" stroke="#000000" stroke-opacity="1" stroke-width="3.072"/>
<circle clip-path="url(#clip082)" cx="1283.02" cy="812.51" r="14.4" fill="#009af9" fill-rule="evenodd" fill-opacity="1" stroke="#000000" stroke-opacity="1" stroke-width="3.072"/>
<circle clip-path="url(#clip082)" cx="1685.08" cy="86.1831" r="14.4" fill="#009af9" fill-rule="evenodd" fill-opacity="1" stroke="#000000" stroke-opacity="1" stroke-width="3.072"/>
<circle clip-path="url(#clip082)" cx="2017.92" cy="1034.98" r="14.4" fill="#009af9" fill-rule="evenodd" fill-opacity="1" stroke="#000000" stroke-opacity="1" stroke-width="3.072"/>
<circle clip-path="url(#clip082)" cx="1126.1" cy="825.866" r="14.4" fill="#009af9" fill-rule="evenodd" fill-opacity="1" stroke="#000000" stroke-opacity="1" stroke-width="3.072"/>
<circle clip-path="url(#clip082)" cx="1572.68" cy="350.135" r="14.4" fill="#009af9" fill-rule="evenodd" fill-opacity="1" stroke="#000000" stroke-opacity="1" stroke-width="3.072"/>
<circle clip-path="url(#clip082)" cx="1706.49" cy="712.05" r="14.4" fill="#009af9" fill-rule="evenodd" fill-opacity="1" stroke="#000000" stroke-opacity="1" stroke-width="3.072"/>
<circle clip-path="url(#clip082)" cx="1573.8" cy="191.936" r="14.4" fill="#009af9" fill-rule="evenodd" fill-opacity="1" stroke="#000000" stroke-opacity="1" stroke-width="3.072"/>
<circle clip-path="url(#clip082)" cx="1590.94" cy="939.282" r="14.4" fill="#009af9" fill-rule="evenodd" fill-opacity="1" stroke="#000000" stroke-opacity="1" stroke-width="3.072"/>
<polyline clip-path="url(#clip082)" style="stroke:#e26f46; stroke-linecap:round; stroke-linejoin:round; stroke-width:4; stroke-opacity:1; fill:none" points="
  279.726,1031.55 292.223,1029.36 407.772,1009.1 477.213,996.932 535.924,986.641 599.7,975.461 658.497,965.155 721.533,954.105 794.566,941.303 859.469,929.926 
  916.384,919.95 978.436,909.072 1040.86,898.131 1109.87,886.033 1175.54,874.523 1243.81,862.554 1301.29,852.48 1371.46,840.18 1435.74,828.912 1495.1,818.505 
  1555.24,807.964 1622.64,796.15 1683.71,785.444 1753.64,773.187 1818.38,761.838 1882.21,750.65 1944.18,739.786 2007.71,728.65 2077.32,716.449 2178.43,698.725 
  2199.17,695.089 
  "/>
<path clip-path="url(#clip080)" d="
M289.963 248.626 L545.855 248.626 L545.855 93.1056 L289.963 93.1056  Z
  " fill="#ffffff" fill-rule="evenodd" fill-opacity="1"/>
<polyline clip-path="url(#clip080)" style="stroke:#000000; stroke-linecap:round; stroke-linejoin:round; stroke-width:4; stroke-opacity:1; fill:none" points="
  289.963,248.626 545.855,248.626 545.855,93.1056 289.963,93.1056 289.963,248.626 
  "/>
<circle clip-path="url(#clip080)" cx="380.39" cy="144.946" r="23.04" fill="#009af9" fill-rule="evenodd" fill-opacity="1" stroke="#000000" stroke-opacity="1" stroke-width="4.9152"/>
<path clip-path="url(#clip080)" d="M484.66 164.633 Q482.854 169.263 481.141 170.675 Q479.429 172.087 476.558 172.087 L473.155 172.087 L473.155 168.522 L475.655 168.522 Q477.415 168.522 478.387 167.688 Q479.359 166.855 480.54 163.753 L481.304 161.809 L470.817 136.3 L475.331 136.3 L483.433 156.577 L491.535 136.3 L496.049 136.3 L484.66 164.633 Z" fill="#000000" fill-rule="evenodd" fill-opacity="1" /><path clip-path="url(#clip080)" d="M503.34 158.29 L510.979 158.29 L510.979 131.925 L502.669 133.591 L502.669 129.332 L510.933 127.666 L515.609 127.666 L515.609 158.29 L523.248 158.29 L523.248 162.226 L503.34 162.226 L503.34 158.29 Z" fill="#000000" fill-rule="evenodd" fill-opacity="1" /><polyline clip-path="url(#clip080)" style="stroke:#e26f46; stroke-linecap:round; stroke-linejoin:round; stroke-width:4; stroke-opacity:1; fill:none" points="
  312.57,196.786 448.211,196.786 
  "/>
<path clip-path="url(#clip080)" d="M484.66 216.473 Q482.854 221.103 481.141 222.515 Q479.429 223.927 476.558 223.927 L473.155 223.927 L473.155 220.362 L475.655 220.362 Q477.415 220.362 478.387 219.528 Q479.359 218.695 480.54 215.593 L481.304 213.649 L470.817 188.14 L475.331 188.14 L483.433 208.417 L491.535 188.14 L496.049 188.14 L484.66 216.473 Z" fill="#000000" fill-rule="evenodd" fill-opacity="1" /><path clip-path="url(#clip080)" d="M506.558 210.13 L522.877 210.13 L522.877 214.066 L500.933 214.066 L500.933 210.13 Q503.595 207.376 508.178 202.746 Q512.785 198.093 513.965 196.751 Q516.211 194.228 517.09 192.492 Q517.993 190.732 517.993 189.043 Q517.993 186.288 516.049 184.552 Q514.127 182.816 511.026 182.816 Q508.827 182.816 506.373 183.58 Q503.942 184.343 501.165 185.894 L501.165 181.172 Q503.989 180.038 506.442 179.459 Q508.896 178.881 510.933 178.881 Q516.303 178.881 519.498 181.566 Q522.692 184.251 522.692 188.742 Q522.692 190.871 521.882 192.793 Q521.095 194.691 518.989 197.283 Q518.41 197.955 515.308 201.172 Q512.206 204.367 506.558 210.13 Z" fill="#000000" fill-rule="evenodd" fill-opacity="1" /></svg>
