<?xml version="1.0" encoding="utf-8"?>
<svg xmlns="http://www.w3.org/2000/svg" xmlns:xlink="http://www.w3.org/1999/xlink" width="576" height="384" viewBox="0 0 2304 1536">
<defs>
  <clipPath id="clip110">
    <rect x="0" y="0" width="2304" height="1536"/>
  </clipPath>
</defs>
<path clip-path="url(#clip110)" d="
M0 1536 L2304 1536 L2304 0 L0 0  Z
  " fill="#ffffff" fill-rule="evenodd" fill-opacity="1"/>
<defs>
  <clipPath id="clip111">
    <rect x="460" y="0" width="1614" height="1536"/>
  </clipPath>
</defs>
<path clip-path="url(#clip110)" d="
M184.967 1423.09 L2256.76 1423.09 L2256.76 47.2441 L184.967 47.2441  Z
  " fill="#ffffff" fill-rule="evenodd" fill-opacity="1"/>
<defs>
  <clipPath id="clip112">
    <rect x="184" y="47" width="2073" height="1377"/>
  </clipPath>
</defs>
<polyline clip-path="url(#clip112)" style="stroke:#000000; stroke-linecap:round; stroke-linejoin:round; stroke-width:2; stroke-opacity:0.1; fill:none" points="
  326.502,1423.09 326.502,47.2441 
  "/>
<polyline clip-path="url(#clip112)" style="stroke:#000000; stroke-linecap:round; stroke-linejoin:round; stroke-width:2; stroke-opacity:0.1; fill:none" points="
  633.744,1423.09 633.744,47.2441 
  "/>
<polyline clip-path="url(#clip112)" style="stroke:#000000; stroke-linecap:round; stroke-linejoin:round; stroke-width:2; stroke-opacity:0.1; fill:none" points="
  940.986,1423.09 940.986,47.2441 
  "/>
<polyline clip-path="url(#clip112)" style="stroke:#000000; stroke-linecap:round; stroke-linejoin:round; stroke-width:2; stroke-opacity:0.1; fill:none" points="
  1248.23,1423.09 1248.23,47.2441 
  "/>
<polyline clip-path="url(#clip112)" style="stroke:#000000; stroke-linecap:round; stroke-linejoin:round; stroke-width:2; stroke-opacity:0.1; fill:none" points="
  1555.47,1423.09 1555.47,47.2441 
  "/>
<polyline clip-path="url(#clip112)" style="stroke:#000000; stroke-linecap:round; stroke-linejoin:round; stroke-width:2; stroke-opacity:0.1; fill:none" points="
  1862.71,1423.09 1862.71,47.2441 
  "/>
<polyline clip-path="url(#clip112)" style="stroke:#000000; stroke-linecap:round; stroke-linejoin:round; stroke-width:2; stroke-opacity:0.1; fill:none" points="
  2169.95,1423.09 2169.95,47.2441 
  "/>
<polyline clip-path="url(#clip110)" style="stroke:#000000; stroke-linecap:round; stroke-linejoin:round; stroke-width:4; stroke-opacity:1; fill:none" points="
  184.967,1423.09 2256.76,1423.09 
  "/>
<polyline clip-path="url(#clip110)" style="stroke:#000000; stroke-linecap:round; stroke-linejoin:round; stroke-width:4; stroke-opacity:1; fill:none" points="
  326.502,1423.09 326.502,1404.19 
  "/>
<polyline clip-path="url(#clip110)" style="stroke:#000000; stroke-linecap:round; stroke-linejoin:round; stroke-width:4; stroke-opacity:1; fill:none" points="
  633.744,1423.09 633.744,1404.19 
  "/>
<polyline clip-path="url(#clip110)" style="stroke:#000000; stroke-linecap:round; stroke-linejoin:round; stroke-width:4; stroke-opacity:1; fill:none" points="
  940.986,1423.09 940.986,1404.19 
  "/>
<polyline clip-path="url(#clip110)" style="stroke:#000000; stroke-linecap:round; stroke-linejoin:round; stroke-width:4; stroke-opacity:1; fill:none" points="
  1248.23,1423.09 1248.23,1404.19 
  "/>
<polyline clip-path="url(#clip110)" style="stroke:#000000; stroke-linecap:round; stroke-linejoin:round; stroke-width:4; stroke-opacity:1; fill:none" points="
  1555.47,1423.09 1555.47,1404.19 
  "/>
<polyline clip-path="url(#clip110)" style="stroke:#000000; stroke-linecap:round; stroke-linejoin:round; stroke-width:4; stroke-opacity:1; fill:none" points="
  1862.71,1423.09 1862.71,1404.19 
  "/>
<polyline clip-path="url(#clip110)" style="stroke:#000000; stroke-linecap:round; stroke-linejoin:round; stroke-width:4; stroke-opacity:1; fill:none" points="
  2169.95,1423.09 2169.95,1404.19 
  "/>
<path clip-path="url(#clip110)" d="M316.884 1480.78 L324.523 1480.78 L324.523 1454.42 L316.213 1456.09 L316.213 1451.83 L324.477 1450.16 L329.153 1450.16 L329.153 1480.78 L336.792 1480.78 L336.792 1484.72 L316.884 1484.72 L316.884 1480.78 Z" fill="#000000" fill-rule="evenodd" fill-opacity="1" /><path clip-path="url(#clip110)" d="M628.397 1480.78 L644.716 1480.78 L644.716 1484.72 L622.772 1484.72 L622.772 1480.78 Q625.434 1478.03 630.017 1473.4 Q634.624 1468.75 635.804 1467.41 Q638.05 1464.88 638.929 1463.15 Q639.832 1461.39 639.832 1459.7 Q639.832 1456.94 637.888 1455.21 Q635.966 1453.47 632.864 1453.47 Q630.665 1453.47 628.212 1454.23 Q625.781 1455 623.003 1456.55 L623.003 1451.83 Q625.827 1450.69 628.281 1450.11 Q630.735 1449.53 632.772 1449.53 Q638.142 1449.53 641.337 1452.22 Q644.531 1454.91 644.531 1459.4 Q644.531 1461.53 643.721 1463.45 Q642.934 1465.34 640.827 1467.94 Q640.249 1468.61 637.147 1471.83 Q634.045 1475.02 628.397 1480.78 Z" fill="#000000" fill-rule="evenodd" fill-opacity="1" /><path clip-path="url(#clip110)" d="M945.233 1466.09 Q948.59 1466.8 950.465 1469.07 Q952.363 1471.34 952.363 1474.67 Q952.363 1479.79 948.845 1482.59 Q945.326 1485.39 938.845 1485.39 Q936.669 1485.39 934.354 1484.95 Q932.062 1484.53 929.609 1483.68 L929.609 1479.16 Q931.553 1480.3 933.868 1480.88 Q936.183 1481.46 938.706 1481.46 Q943.104 1481.46 945.396 1479.72 Q947.71 1477.98 947.71 1474.67 Q947.71 1471.62 945.558 1469.91 Q943.428 1468.17 939.608 1468.17 L935.581 1468.17 L935.581 1464.33 L939.794 1464.33 Q943.243 1464.33 945.071 1462.96 Q946.9 1461.57 946.9 1458.98 Q946.9 1456.32 945.002 1454.91 Q943.127 1453.47 939.608 1453.47 Q937.687 1453.47 935.488 1453.89 Q933.289 1454.3 930.65 1455.18 L930.65 1451.02 Q933.312 1450.28 935.627 1449.91 Q937.965 1449.53 940.025 1449.53 Q945.349 1449.53 948.451 1451.97 Q951.553 1454.37 951.553 1458.49 Q951.553 1461.36 949.909 1463.35 Q948.266 1465.32 945.233 1466.09 Z" fill="#000000" fill-rule="evenodd" fill-opacity="1" /><path clip-path="url(#clip110)" d="M1251.24 1454.23 L1239.43 1472.68 L1251.24 1472.68 L1251.24 1454.23 M1250.01 1450.16 L1255.89 1450.16 L1255.89 1472.68 L1260.82 1472.68 L1260.82 1476.57 L1255.89 1476.57 L1255.89 1484.72 L1251.24 1484.72 L1251.24 1476.57 L1235.64 1476.57 L1235.64 1472.06 L1250.01 1450.16 Z" fill="#000000" fill-rule="evenodd" fill-opacity="1" /><path clip-path="url(#clip110)" d="M1545.75 1450.16 L1564.1 1450.16 L1564.1 1454.1 L1550.03 1454.1 L1550.03 1462.57 Q1551.05 1462.22 1552.07 1462.06 Q1553.09 1461.87 1554.1 1461.87 Q1559.89 1461.87 1563.27 1465.04 Q1566.65 1468.22 1566.65 1473.63 Q1566.65 1479.21 1563.18 1482.31 Q1559.71 1485.39 1553.39 1485.39 Q1551.21 1485.39 1548.94 1485.02 Q1546.7 1484.65 1544.29 1483.91 L1544.29 1479.21 Q1546.37 1480.34 1548.59 1480.9 Q1550.82 1481.46 1553.29 1481.46 Q1557.3 1481.46 1559.64 1479.35 Q1561.97 1477.24 1561.97 1473.63 Q1561.97 1470.02 1559.64 1467.91 Q1557.3 1465.81 1553.29 1465.81 Q1551.42 1465.81 1549.54 1466.22 Q1547.69 1466.64 1545.75 1467.52 L1545.75 1450.16 Z" fill="#000000" fill-rule="evenodd" fill-opacity="1" /><path clip-path="url(#clip110)" d="M1863.12 1465.58 Q1859.97 1465.58 1858.12 1467.73 Q1856.29 1469.88 1856.29 1473.63 Q1856.29 1477.36 1858.12 1479.53 Q1859.97 1481.69 1863.12 1481.69 Q1866.26 1481.69 1868.09 1479.53 Q1869.94 1477.36 1869.94 1473.63 Q1869.94 1469.88 1868.09 1467.73 Q1866.26 1465.58 1863.12 1465.58 M1872.4 1450.92 L1872.4 1455.18 Q1870.64 1454.35 1868.83 1453.91 Q1867.05 1453.47 1865.29 1453.47 Q1860.66 1453.47 1858.21 1456.6 Q1855.78 1459.72 1855.43 1466.04 Q1856.8 1464.03 1858.86 1462.96 Q1860.92 1461.87 1863.39 1461.87 Q1868.6 1461.87 1871.61 1465.04 Q1874.64 1468.19 1874.64 1473.63 Q1874.64 1478.96 1871.5 1482.17 Q1868.35 1485.39 1863.12 1485.39 Q1857.12 1485.39 1853.95 1480.81 Q1850.78 1476.2 1850.78 1467.47 Q1850.78 1459.28 1854.67 1454.42 Q1858.56 1449.53 1865.11 1449.53 Q1866.87 1449.53 1868.65 1449.88 Q1870.45 1450.23 1872.4 1450.92 Z" fill="#000000" fill-rule="evenodd" fill-opacity="1" /><path clip-path="url(#clip110)" d="M2158.84 1450.16 L2181.06 1450.16 L2181.06 1452.15 L2168.52 1484.72 L2163.63 1484.72 L2175.44 1454.1 L2158.84 1454.1 L2158.84 1450.16 Z" fill="#000000" fill-rule="evenodd" fill-opacity="1" /><polyline clip-path="url(#clip112)" style="stroke:#000000; stroke-linecap:round; stroke-linejoin:round; stroke-width:2; stroke-opacity:0.1; fill:none" points="
  184.967,1384.15 2256.76,1384.15 
  "/>
<polyline clip-path="url(#clip112)" style="stroke:#000000; stroke-linecap:round; stroke-linejoin:round; stroke-width:2; stroke-opacity:0.1; fill:none" points="
  184.967,1059.66 2256.76,1059.66 
  "/>
<polyline clip-path="url(#clip112)" style="stroke:#000000; stroke-linecap:round; stroke-linejoin:round; stroke-width:2; stroke-opacity:0.1; fill:none" points="
  184.967,735.166 2256.76,735.166 
  "/>
<polyline clip-path="url(#clip112)" style="stroke:#000000; stroke-linecap:round; stroke-linejoin:round; stroke-width:2; stroke-opacity:0.1; fill:none" points="
  184.967,410.675 2256.76,410.675 
  "/>
<polyline clip-path="url(#clip112)" style="stroke:#000000; stroke-linecap:round; stroke-linejoin:round; stroke-width:2; stroke-opacity:0.1; fill:none" points="
  184.967,86.1831 2256.76,86.1831 
  "/>
<polyline clip-path="url(#clip110)" style="stroke:#000000; stroke-linecap:round; stroke-linejoin:round; stroke-width:4; stroke-opacity:1; fill:none" points="
  184.967,1423.09 184.967,47.2441 
  "/>
<polyline clip-path="url(#clip110)" style="stroke:#000000; stroke-linecap:round; stroke-linejoin:round; stroke-width:4; stroke-opacity:1; fill:none" points="
  184.967,1384.15 203.864,1384.15 
  "/>
<polyline clip-path="url(#clip110)" style="stroke:#000000; stroke-linecap:round; stroke-linejoin:round; stroke-width:4; stroke-opacity:1; fill:none" points="
  184.967,1059.66 203.864,1059.66 
  "/>
<polyline clip-path="url(#clip110)" style="stroke:#000000; stroke-linecap:round; stroke-linejoin:round; stroke-width:4; stroke-opacity:1; fill:none" points="
  184.967,735.166 203.864,735.166 
  "/>
<polyline clip-path="url(#clip110)" style="stroke:#000000; stroke-linecap:round; stroke-linejoin:round; stroke-width:4; stroke-opacity:1; fill:none" points="
  184.967,410.675 203.864,410.675 
  "/>
<polyline clip-path="url(#clip110)" style="stroke:#000000; stroke-linecap:round; stroke-linejoin:round; stroke-width:4; stroke-opacity:1; fill:none" points="
  184.967,86.1831 203.864,86.1831 
  "/>
<path clip-path="url(#clip110)" d="M53.8795 1397.49 L61.5184 1397.49 L61.5184 1371.13 L53.2082 1372.79 L53.2082 1368.54 L61.4721 1366.87 L66.148 1366.87 L66.148 1397.49 L73.7868 1397.49 L73.7868 1401.43 L53.8795 1401.43 L53.8795 1397.49 Z" fill="#000000" fill-rule="evenodd" fill-opacity="1" /><path clip-path="url(#clip110)" d="M83.2312 1395.55 L88.1154 1395.55 L88.1154 1401.43 L83.2312 1401.43 L83.2312 1395.55 Z" fill="#000000" fill-rule="evenodd" fill-opacity="1" /><path clip-path="url(#clip110)" d="M108.301 1369.95 Q104.689 1369.95 102.861 1373.51 Q101.055 1377.05 101.055 1384.18 Q101.055 1391.29 102.861 1394.85 Q104.689 1398.4 108.301 1398.4 Q111.935 1398.4 113.74 1394.85 Q115.569 1391.29 115.569 1384.18 Q115.569 1377.05 113.74 1373.51 Q111.935 1369.95 108.301 1369.95 M108.301 1366.24 Q114.111 1366.24 117.166 1370.85 Q120.245 1375.43 120.245 1384.18 Q120.245 1392.91 117.166 1397.52 Q114.111 1402.1 108.301 1402.1 Q102.49 1402.1 99.4117 1397.52 Q96.3561 1392.91 96.3561 1384.18 Q96.3561 1375.43 99.4117 1370.85 Q102.49 1366.24 108.301 1366.24 Z" fill="#000000" fill-rule="evenodd" fill-opacity="1" /><path clip-path="url(#clip110)" d="M138.462 1369.95 Q134.851 1369.95 133.023 1373.51 Q131.217 1377.05 131.217 1384.18 Q131.217 1391.29 133.023 1394.85 Q134.851 1398.4 138.462 1398.4 Q142.097 1398.4 143.902 1394.85 Q145.731 1391.29 145.731 1384.18 Q145.731 1377.05 143.902 1373.51 Q142.097 1369.95 138.462 1369.95 M138.462 1366.24 Q144.273 1366.24 147.328 1370.85 Q150.407 1375.43 150.407 1384.18 Q150.407 1392.91 147.328 1397.52 Q144.273 1402.1 138.462 1402.1 Q132.652 1402.1 129.574 1397.52 Q126.518 1392.91 126.518 1384.18 Q126.518 1375.43 129.574 1370.85 Q132.652 1366.24 138.462 1366.24 Z" fill="#000000" fill-rule="evenodd" fill-opacity="1" /><path clip-path="url(#clip110)" d="M54.8749 1073 L62.5137 1073 L62.5137 1046.64 L54.2036 1048.3 L54.2036 1044.04 L62.4674 1042.38 L67.1433 1042.38 L67.1433 1073 L74.7822 1073 L74.7822 1076.94 L54.8749 1076.94 L54.8749 1073 Z" fill="#000000" fill-rule="evenodd" fill-opacity="1" /><path clip-path="url(#clip110)" d="M84.2266 1071.06 L89.1108 1071.06 L89.1108 1076.94 L84.2266 1076.94 L84.2266 1071.06 Z" fill="#000000" fill-rule="evenodd" fill-opacity="1" /><path clip-path="url(#clip110)" d="M103.324 1073 L119.643 1073 L119.643 1076.94 L97.6987 1076.94 L97.6987 1073 Q100.361 1070.25 104.944 1065.62 Q109.551 1060.97 110.731 1059.62 Q112.976 1057.1 113.856 1055.36 Q114.759 1053.6 114.759 1051.91 Q114.759 1049.16 112.814 1047.42 Q110.893 1045.69 107.791 1045.69 Q105.592 1045.69 103.139 1046.45 Q100.708 1047.22 97.9302 1048.77 L97.9302 1044.04 Q100.754 1042.91 103.208 1042.33 Q105.662 1041.75 107.699 1041.75 Q113.069 1041.75 116.263 1044.44 Q119.458 1047.12 119.458 1051.61 Q119.458 1053.74 118.648 1055.66 Q117.861 1057.56 115.754 1060.16 Q115.175 1060.83 112.074 1064.04 Q108.972 1067.24 103.324 1073 Z" fill="#000000" fill-rule="evenodd" fill-opacity="1" /><path clip-path="url(#clip110)" d="M129.504 1042.38 L147.86 1042.38 L147.86 1046.31 L133.786 1046.31 L133.786 1054.78 Q134.805 1054.44 135.824 1054.28 Q136.842 1054.09 137.861 1054.09 Q143.648 1054.09 147.027 1057.26 Q150.407 1060.43 150.407 1065.85 Q150.407 1071.43 146.935 1074.53 Q143.462 1077.61 137.143 1077.61 Q134.967 1077.61 132.699 1077.24 Q130.453 1076.87 128.046 1076.13 L128.046 1071.43 Q130.129 1072.56 132.351 1073.12 Q134.574 1073.67 137.05 1073.67 Q141.055 1073.67 143.393 1071.57 Q145.731 1069.46 145.731 1065.85 Q145.731 1062.24 143.393 1060.13 Q141.055 1058.03 137.05 1058.03 Q135.175 1058.03 133.3 1058.44 Q131.449 1058.86 129.504 1059.74 L129.504 1042.38 Z" fill="#000000" fill-rule="evenodd" fill-opacity="1" /><path clip-path="url(#clip110)" d="M53.8795 748.511 L61.5184 748.511 L61.5184 722.145 L53.2082 723.812 L53.2082 719.553 L61.4721 717.886 L66.148 717.886 L66.148 748.511 L73.7868 748.511 L73.7868 752.446 L53.8795 752.446 L53.8795 748.511 Z" fill="#000000" fill-rule="evenodd" fill-opacity="1" /><path clip-path="url(#clip110)" d="M83.2312 746.566 L88.1154 746.566 L88.1154 752.446 L83.2312 752.446 L83.2312 746.566 Z" fill="#000000" fill-rule="evenodd" fill-opacity="1" /><path clip-path="url(#clip110)" d="M98.3469 717.886 L116.703 717.886 L116.703 721.821 L102.629 721.821 L102.629 730.293 Q103.648 729.946 104.666 729.784 Q105.685 729.599 106.703 729.599 Q112.49 729.599 115.87 732.77 Q119.25 735.941 119.25 741.358 Q119.25 746.937 115.777 750.039 Q112.305 753.117 105.986 753.117 Q103.81 753.117 101.541 752.747 Q99.2959 752.377 96.8885 751.636 L96.8885 746.937 Q98.9719 748.071 101.194 748.627 Q103.416 749.182 105.893 749.182 Q109.898 749.182 112.236 747.076 Q114.574 744.969 114.574 741.358 Q114.574 737.747 112.236 735.641 Q109.898 733.534 105.893 733.534 Q104.018 733.534 102.143 733.951 Q100.291 734.367 98.3469 735.247 L98.3469 717.886 Z" fill="#000000" fill-rule="evenodd" fill-opacity="1" /><path clip-path="url(#clip110)" d="M138.462 720.965 Q134.851 720.965 133.023 724.529 Q131.217 728.071 131.217 735.201 Q131.217 742.307 133.023 745.872 Q134.851 749.414 138.462 749.414 Q142.097 749.414 143.902 745.872 Q145.731 742.307 145.731 735.201 Q145.731 728.071 143.902 724.529 Q142.097 720.965 138.462 720.965 M138.462 717.261 Q144.273 717.261 147.328 721.867 Q150.407 726.451 150.407 735.201 Q150.407 743.928 147.328 748.534 Q144.273 753.117 138.462 753.117 Q132.652 753.117 129.574 748.534 Q126.518 743.928 126.518 735.201 Q126.518 726.451 129.574 721.867 Q132.652 717.261 138.462 717.261 Z" fill="#000000" fill-rule="evenodd" fill-opacity="1" /><path clip-path="url(#clip110)" d="M54.8749 424.019 L62.5137 424.019 L62.5137 397.654 L54.2036 399.32 L54.2036 395.061 L62.4674 393.395 L67.1433 393.395 L67.1433 424.019 L74.7822 424.019 L74.7822 427.955 L54.8749 427.955 L54.8749 424.019 Z" fill="#000000" fill-rule="evenodd" fill-opacity="1" /><path clip-path="url(#clip110)" d="M84.2266 422.075 L89.1108 422.075 L89.1108 427.955 L84.2266 427.955 L84.2266 422.075 Z" fill="#000000" fill-rule="evenodd" fill-opacity="1" /><path clip-path="url(#clip110)" d="M98.1154 393.395 L120.337 393.395 L120.337 395.385 L107.791 427.955 L102.907 427.955 L114.713 397.33 L98.1154 397.33 L98.1154 393.395 Z" fill="#000000" fill-rule="evenodd" fill-opacity="1" /><path clip-path="url(#clip110)" d="M129.504 393.395 L147.86 393.395 L147.86 397.33 L133.786 397.33 L133.786 405.802 Q134.805 405.455 135.824 405.293 Q136.842 405.107 137.861 405.107 Q143.648 405.107 147.027 408.279 Q150.407 411.45 150.407 416.867 Q150.407 422.445 146.935 425.547 Q143.462 428.626 137.143 428.626 Q134.967 428.626 132.699 428.255 Q130.453 427.885 128.046 427.144 L128.046 422.445 Q130.129 423.58 132.351 424.135 Q134.574 424.691 137.05 424.691 Q141.055 424.691 143.393 422.584 Q145.731 420.478 145.731 416.867 Q145.731 413.256 143.393 411.149 Q141.055 409.043 137.05 409.043 Q135.175 409.043 133.3 409.459 Q131.449 409.876 129.504 410.756 L129.504 393.395 Z" fill="#000000" fill-rule="evenodd" fill-opacity="1" /><path clip-path="url(#clip110)" d="M57.0971 99.5279 L73.4165 99.5279 L73.4165 103.463 L51.4721 103.463 L51.4721 99.5279 Q54.1341 96.7733 58.7175 92.1437 Q63.3239 87.4909 64.5045 86.1483 Q66.7498 83.6252 67.6294 81.8891 Q68.5322 80.1299 68.5322 78.4401 Q68.5322 75.6854 66.5878 73.9493 Q64.6665 72.2132 61.5647 72.2132 Q59.3656 72.2132 56.9119 72.9771 Q54.4814 73.741 51.7036 75.2919 L51.7036 70.5697 Q54.5277 69.4355 56.9814 68.8568 Q59.435 68.2781 61.4721 68.2781 Q66.8424 68.2781 70.0368 70.9632 Q73.2313 73.6484 73.2313 78.1391 Q73.2313 80.2687 72.4211 82.19 Q71.6341 84.0882 69.5276 86.6808 Q68.9489 87.352 65.847 90.5696 Q62.7452 93.764 57.0971 99.5279 Z" fill="#000000" fill-rule="evenodd" fill-opacity="1" /><path clip-path="url(#clip110)" d="M83.2312 97.5835 L88.1154 97.5835 L88.1154 103.463 L83.2312 103.463 L83.2312 97.5835 Z" fill="#000000" fill-rule="evenodd" fill-opacity="1" /><path clip-path="url(#clip110)" d="M108.301 71.9818 Q104.689 71.9818 102.861 75.5466 Q101.055 79.0882 101.055 86.2178 Q101.055 93.3242 102.861 96.889 Q104.689 100.431 108.301 100.431 Q111.935 100.431 113.74 96.889 Q115.569 93.3242 115.569 86.2178 Q115.569 79.0882 113.74 75.5466 Q111.935 71.9818 108.301 71.9818 M108.301 68.2781 Q114.111 68.2781 117.166 72.8845 Q120.245 77.4678 120.245 86.2178 Q120.245 94.9446 117.166 99.5511 Q114.111 104.134 108.301 104.134 Q102.49 104.134 99.4117 99.5511 Q96.3561 94.9446 96.3561 86.2178 Q96.3561 77.4678 99.4117 72.8845 Q102.49 68.2781 108.301 68.2781 Z" fill="#000000" fill-rule="evenodd" fill-opacity="1" /><path clip-path="url(#clip110)" d="M138.462 71.9818 Q134.851 71.9818 133.023 75.5466 Q131.217 79.0882 131.217 86.2178 Q131.217 93.3242 133.023 96.889 Q134.851 100.431 138.462 100.431 Q142.097 100.431 143.902 96.889 Q145.731 93.3242 145.731 86.2178 Q145.731 79.0882 143.902 75.5466 Q142.097 71.9818 138.462 71.9818 M138.462 68.2781 Q144.273 68.2781 147.328 72.8845 Q150.407 77.4678 150.407 86.2178 Q150.407 94.9446 147.328 99.5511 Q144.273 104.134 138.462 104.134 Q132.652 104.134 129.574 99.5511 Q126.518 94.9446 126.518 86.2178 Q126.518 77.4678 129.574 72.8845 Q132.652 68.2781 138.462 68.2781 Z" fill="#000000" fill-rule="evenodd" fill-opacity="1" /><circle clip-path="url(#clip112)" cx="260.89" cy="1384.15" r="14.4" fill="#009af9" fill-rule="evenodd" fill-opacity="1" stroke="#000000" stroke-opacity="1" stroke-width="3.072"/>
<circle clip-path="url(#clip112)" cx="243.602" cy="1384.15" r="14.4" fill="#009af9" fill-rule="evenodd" fill-opacity="1" stroke="#000000" stroke-opacity="1" stroke-width="3.072"/>
<circle clip-path="url(#clip112)" cx="455.113" cy="1384.15" r="14.4" fill="#009af9" fill-rule="evenodd" fill-opacity="1" stroke="#000000" stroke-opacity="1" stroke-width="3.072"/>
<circle clip-path="url(#clip112)" cx="390.489" cy="1384.15" r="14.4" fill="#009af9" fill-rule="evenodd" fill-opacity="1" stroke="#000000" stroke-opacity="1" stroke-width="3.072"/>
<circle clip-path="url(#clip112)" cx="305.192" cy="1384.15" r="14.4" fill="#009af9" fill-rule="evenodd" fill-opacity="1" stroke="#000000" stroke-opacity="1" stroke-width="3.072"/>
<circle clip-path="url(#clip112)" cx="472.35" cy="1384.15" r="14.4" fill="#009af9" fill-rule="evenodd" fill-opacity="1" stroke="#000000" stroke-opacity="1" stroke-width="3.072"/>
<circle clip-path="url(#clip112)" cx="435.369" cy="1384.15" r="14.4" fill="#009af9" fill-rule="evenodd" fill-opacity="1" stroke="#000000" stroke-opacity="1" stroke-width="3.072"/>
<circle clip-path="url(#clip112)" cx="309.95" cy="1384.15" r="14.4" fill="#009af9" fill-rule="evenodd" fill-opacity="1" stroke="#000000" stroke-opacity="1" stroke-width="3.072"/>
<circle clip-path="url(#clip112)" cx="409.244" cy="1384.15" r="14.4" fill="#009af9" fill-rule="evenodd" fill-opacity="1" stroke="#000000" stroke-opacity="1" stroke-width="3.072"/>
<circle clip-path="url(#clip112)" cx="331.806" cy="1384.15" r="14.4" fill="#009af9" fill-rule="evenodd" fill-opacity="1" stroke="#000000" stroke-opacity="1" stroke-width="3.072"/>
<circle clip-path="url(#clip112)" cx="379.869" cy="1384.15" r="14.4" fill="#009af9" fill-rule="evenodd" fill-opacity="1" stroke="#000000" stroke-opacity="1" stroke-width="3.072"/>
<circle clip-path="url(#clip112)" cx="570.951" cy="1384.15" r="14.4" fill="#009af9" fill-rule="evenodd" fill-opacity="1" stroke="#000000" stroke-opacity="1" stroke-width="3.072"/>
<circle clip-path="url(#clip112)" cx="479.756" cy="1384.15" r="14.4" fill="#009af9" fill-rule="evenodd" fill-opacity="1" stroke="#000000" stroke-opacity="1" stroke-width="3.072"/>
<circle clip-path="url(#clip112)" cx="328.499" cy="1384.15" r="14.4" fill="#009af9" fill-rule="evenodd" fill-opacity="1" stroke="#000000" stroke-opacity="1" stroke-width="3.072"/>
<circle clip-path="url(#clip112)" cx="415.51" cy="1384.15" r="14.4" fill="#009af9" fill-rule="evenodd" fill-opacity="1" stroke="#000000" stroke-opacity="1" stroke-width="3.072"/>
<circle clip-path="url(#clip112)" cx="486.335" cy="1384.15" r="14.4" fill="#009af9" fill-rule="evenodd" fill-opacity="1" stroke="#000000" stroke-opacity="1" stroke-width="3.072"/>
<circle clip-path="url(#clip112)" cx="525.64" cy="1384.15" r="14.4" fill="#009af9" fill-rule="evenodd" fill-opacity="1" stroke="#000000" stroke-opacity="1" stroke-width="3.072"/>
<circle clip-path="url(#clip112)" cx="379.108" cy="1384.15" r="14.4" fill="#009af9" fill-rule="evenodd" fill-opacity="1" stroke="#000000" stroke-opacity="1" stroke-width="3.072"/>
<circle clip-path="url(#clip112)" cx="526.425" cy="1384.15" r="14.4" fill="#009af9" fill-rule="evenodd" fill-opacity="1" stroke="#000000" stroke-opacity="1" stroke-width="3.072"/>
<circle clip-path="url(#clip112)" cx="375.203" cy="1384.15" r="14.4" fill="#009af9" fill-rule="evenodd" fill-opacity="1" stroke="#000000" stroke-opacity="1" stroke-width="3.072"/>
<circle clip-path="url(#clip112)" cx="515.397" cy="1384.15" r="14.4" fill="#009af9" fill-rule="evenodd" fill-opacity="1" stroke="#000000" stroke-opacity="1" stroke-width="3.072"/>
<circle clip-path="url(#clip112)" cx="481.384" cy="1384.15" r="14.4" fill="#009af9" fill-rule="evenodd" fill-opacity="1" stroke="#000000" stroke-opacity="1" stroke-width="3.072"/>
<circle clip-path="url(#clip112)" cx="415.742" cy="1384.15" r="14.4" fill="#009af9" fill-rule="evenodd" fill-opacity="1" stroke="#000000" stroke-opacity="1" stroke-width="3.072"/>
<circle clip-path="url(#clip112)" cx="334.922" cy="1384.15" r="14.4" fill="#009af9" fill-rule="evenodd" fill-opacity="1" stroke="#000000" stroke-opacity="1" stroke-width="3.072"/>
<circle clip-path="url(#clip112)" cx="389.52" cy="1384.15" r="14.4" fill="#009af9" fill-rule="evenodd" fill-opacity="1" stroke="#000000" stroke-opacity="1" stroke-width="3.072"/>
<circle clip-path="url(#clip112)" cx="567.911" cy="1384.15" r="14.4" fill="#009af9" fill-rule="evenodd" fill-opacity="1" stroke="#000000" stroke-opacity="1" stroke-width="3.072"/>
<circle clip-path="url(#clip112)" cx="522.793" cy="1384.15" r="14.4" fill="#009af9" fill-rule="evenodd" fill-opacity="1" stroke="#000000" stroke-opacity="1" stroke-width="3.072"/>
<circle clip-path="url(#clip112)" cx="393.275" cy="1384.15" r="14.4" fill="#009af9" fill-rule="evenodd" fill-opacity="1" stroke="#000000" stroke-opacity="1" stroke-width="3.072"/>
<circle clip-path="url(#clip112)" cx="509.767" cy="1384.15" r="14.4" fill="#009af9" fill-rule="evenodd" fill-opacity="1" stroke="#000000" stroke-opacity="1" stroke-width="3.072"/>
<circle clip-path="url(#clip112)" cx="582.275" cy="1384.15" r="14.4" fill="#009af9" fill-rule="evenodd" fill-opacity="1" stroke="#000000" stroke-opacity="1" stroke-width="3.072"/>
<circle clip-path="url(#clip112)" cx="525.75" cy="1384.15" r="14.4" fill="#009af9" fill-rule="evenodd" fill-opacity="1" stroke="#000000" stroke-opacity="1" stroke-width="3.072"/>
<circle clip-path="url(#clip112)" cx="452.351" cy="1384.15" r="14.4" fill="#009af9" fill-rule="evenodd" fill-opacity="1" stroke="#000000" stroke-opacity="1" stroke-width="3.072"/>
<circle clip-path="url(#clip112)" cx="559.86" cy="1384.15" r="14.4" fill="#009af9" fill-rule="evenodd" fill-opacity="1" stroke="#000000" stroke-opacity="1" stroke-width="3.072"/>
<circle clip-path="url(#clip112)" cx="409.562" cy="1384.15" r="14.4" fill="#009af9" fill-rule="evenodd" fill-opacity="1" stroke="#000000" stroke-opacity="1" stroke-width="3.072"/>
<circle clip-path="url(#clip112)" cx="451.315" cy="1384.15" r="14.4" fill="#009af9" fill-rule="evenodd" fill-opacity="1" stroke="#000000" stroke-opacity="1" stroke-width="3.072"/>
<circle clip-path="url(#clip112)" cx="387.12" cy="1384.15" r="14.4" fill="#009af9" fill-rule="evenodd" fill-opacity="1" stroke="#000000" stroke-opacity="1" stroke-width="3.072"/>
<circle clip-path="url(#clip112)" cx="551.543" cy="1384.15" r="14.4" fill="#009af9" fill-rule="evenodd" fill-opacity="1" stroke="#000000" stroke-opacity="1" stroke-width="3.072"/>
<circle clip-path="url(#clip112)" cx="538.381" cy="1384.15" r="14.4" fill="#009af9" fill-rule="evenodd" fill-opacity="1" stroke="#000000" stroke-opacity="1" stroke-width="3.072"/>
<circle clip-path="url(#clip112)" cx="504.545" cy="1384.15" r="14.4" fill="#009af9" fill-rule="evenodd" fill-opacity="1" stroke="#000000" stroke-opacity="1" stroke-width="3.072"/>
<circle clip-path="url(#clip112)" cx="517.701" cy="1384.15" r="14.4" fill="#009af9" fill-rule="evenodd" fill-opacity="1" stroke="#000000" stroke-opacity="1" stroke-width="3.072"/>
<circle clip-path="url(#clip112)" cx="567.158" cy="1384.15" r="14.4" fill="#009af9" fill-rule="evenodd" fill-opacity="1" stroke="#000000" stroke-opacity="1" stroke-width="3.072"/>
<circle clip-path="url(#clip112)" cx="443.323" cy="1384.15" r="14.4" fill="#009af9" fill-rule="evenodd" fill-opacity="1" stroke="#000000" stroke-opacity="1" stroke-width="3.072"/>
<circle clip-path="url(#clip112)" cx="511.07" cy="1384.15" r="14.4" fill="#009af9" fill-rule="evenodd" fill-opacity="1" stroke="#000000" stroke-opacity="1" stroke-width="3.072"/>
<circle clip-path="url(#clip112)" cx="623.032" cy="1384.15" r="14.4" fill="#009af9" fill-rule="evenodd" fill-opacity="1" stroke="#000000" stroke-opacity="1" stroke-width="3.072"/>
<circle clip-path="url(#clip112)" cx="600.166" cy="1384.15" r="14.4" fill="#009af9" fill-rule="evenodd" fill-opacity="1" stroke="#000000" stroke-opacity="1" stroke-width="3.072"/>
<circle clip-path="url(#clip112)" cx="622.556" cy="1384.15" r="14.4" fill="#009af9" fill-rule="evenodd" fill-opacity="1" stroke="#000000" stroke-opacity="1" stroke-width="3.072"/>
<circle clip-path="url(#clip112)" cx="572.601" cy="1384.15" r="14.4" fill="#009af9" fill-rule="evenodd" fill-opacity="1" stroke="#000000" stroke-opacity="1" stroke-width="3.072"/>
<circle clip-path="url(#clip112)" cx="580.729" cy="1384.15" r="14.4" fill="#009af9" fill-rule="evenodd" fill-opacity="1" stroke="#000000" stroke-opacity="1" stroke-width="3.072"/>
<circle clip-path="url(#clip112)" cx="563.079" cy="1384.15" r="14.4" fill="#009af9" fill-rule="evenodd" fill-opacity="1" stroke="#000000" stroke-opacity="1" stroke-width="3.072"/>
<circle clip-path="url(#clip112)" cx="720.899" cy="1384.15" r="14.4" fill="#009af9" fill-rule="evenodd" fill-opacity="1" stroke="#000000" stroke-opacity="1" stroke-width="3.072"/>
<circle clip-path="url(#clip112)" cx="1024.07" cy="1384.15" r="14.4" fill="#009af9" fill-rule="evenodd" fill-opacity="1" stroke="#000000" stroke-opacity="1" stroke-width="3.072"/>
<circle clip-path="url(#clip112)" cx="1054.44" cy="1384.15" r="14.4" fill="#009af9" fill-rule="evenodd" fill-opacity="1" stroke="#000000" stroke-opacity="1" stroke-width="3.072"/>
<circle clip-path="url(#clip112)" cx="931.79" cy="1384.15" r="14.4" fill="#009af9" fill-rule="evenodd" fill-opacity="1" stroke="#000000" stroke-opacity="1" stroke-width="3.072"/>
<circle clip-path="url(#clip112)" cx="1201.96" cy="1384.15" r="14.4" fill="#009af9" fill-rule="evenodd" fill-opacity="1" stroke="#000000" stroke-opacity="1" stroke-width="3.072"/>
<circle clip-path="url(#clip112)" cx="987.29" cy="1384.15" r="14.4" fill="#009af9" fill-rule="evenodd" fill-opacity="1" stroke="#000000" stroke-opacity="1" stroke-width="3.072"/>
<circle clip-path="url(#clip112)" cx="1219.52" cy="1384.15" r="14.4" fill="#009af9" fill-rule="evenodd" fill-opacity="1" stroke="#000000" stroke-opacity="1" stroke-width="3.072"/>
<circle clip-path="url(#clip112)" cx="1203.62" cy="1384.15" r="14.4" fill="#009af9" fill-rule="evenodd" fill-opacity="1" stroke="#000000" stroke-opacity="1" stroke-width="3.072"/>
<circle clip-path="url(#clip112)" cx="1129.49" cy="1384.15" r="14.4" fill="#009af9" fill-rule="evenodd" fill-opacity="1" stroke="#000000" stroke-opacity="1" stroke-width="3.072"/>
<circle clip-path="url(#clip112)" cx="1142.64" cy="1384.15" r="14.4" fill="#009af9" fill-rule="evenodd" fill-opacity="1" stroke="#000000" stroke-opacity="1" stroke-width="3.072"/>
<circle clip-path="url(#clip112)" cx="1252.64" cy="1384.15" r="14.4" fill="#009af9" fill-rule="evenodd" fill-opacity="1" stroke="#000000" stroke-opacity="1" stroke-width="3.072"/>
<circle clip-path="url(#clip112)" cx="1283.88" cy="1384.15" r="14.4" fill="#009af9" fill-rule="evenodd" fill-opacity="1" stroke="#000000" stroke-opacity="1" stroke-width="3.072"/>
<circle clip-path="url(#clip112)" cx="1310.1" cy="1384.15" r="14.4" fill="#009af9" fill-rule="evenodd" fill-opacity="1" stroke="#000000" stroke-opacity="1" stroke-width="3.072"/>
<circle clip-path="url(#clip112)" cx="1218.43" cy="1384.15" r="14.4" fill="#009af9" fill-rule="evenodd" fill-opacity="1" stroke="#000000" stroke-opacity="1" stroke-width="3.072"/>
<circle clip-path="url(#clip112)" cx="1193.08" cy="1384.15" r="14.4" fill="#009af9" fill-rule="evenodd" fill-opacity="1" stroke="#000000" stroke-opacity="1" stroke-width="3.072"/>
<circle clip-path="url(#clip112)" cx="1155.27" cy="1384.15" r="14.4" fill="#009af9" fill-rule="evenodd" fill-opacity="1" stroke="#000000" stroke-opacity="1" stroke-width="3.072"/>
<circle clip-path="url(#clip112)" cx="1230.22" cy="1384.15" r="14.4" fill="#009af9" fill-rule="evenodd" fill-opacity="1" stroke="#000000" stroke-opacity="1" stroke-width="3.072"/>
<circle clip-path="url(#clip112)" cx="1283.27" cy="1384.15" r="14.4" fill="#009af9" fill-rule="evenodd" fill-opacity="1" stroke="#000000" stroke-opacity="1" stroke-width="3.072"/>
<circle clip-path="url(#clip112)" cx="1397.63" cy="1384.15" r="14.4" fill="#009af9" fill-rule="evenodd" fill-opacity="1" stroke="#000000" stroke-opacity="1" stroke-width="3.072"/>
<circle clip-path="url(#clip112)" cx="1310.65" cy="1384.15" r="14.4" fill="#009af9" fill-rule="evenodd" fill-opacity="1" stroke="#000000" stroke-opacity="1" stroke-width="3.072"/>
<circle clip-path="url(#clip112)" cx="1312.99" cy="1384.15" r="14.4" fill="#009af9" fill-rule="evenodd" fill-opacity="1" stroke="#000000" stroke-opacity="1" stroke-width="3.072"/>
<circle clip-path="url(#clip112)" cx="1219.14" cy="1384.15" r="14.4" fill="#009af9" fill-rule="evenodd" fill-opacity="1" stroke="#000000" stroke-opacity="1" stroke-width="3.072"/>
<circle clip-path="url(#clip112)" cx="1428.35" cy="1384.15" r="14.4" fill="#009af9" fill-rule="evenodd" fill-opacity="1" stroke="#000000" stroke-opacity="1" stroke-width="3.072"/>
<circle clip-path="url(#clip112)" cx="1263.72" cy="1384.15" r="14.4" fill="#009af9" fill-rule="evenodd" fill-opacity="1" stroke="#000000" stroke-opacity="1" stroke-width="3.072"/>
<circle clip-path="url(#clip112)" cx="1339.89" cy="1384.15" r="14.4" fill="#009af9" fill-rule="evenodd" fill-opacity="1" stroke="#000000" stroke-opacity="1" stroke-width="3.072"/>
<circle clip-path="url(#clip112)" cx="1356.3" cy="1384.15" r="14.4" fill="#009af9" fill-rule="evenodd" fill-opacity="1" stroke="#000000" stroke-opacity="1" stroke-width="3.072"/>
<circle clip-path="url(#clip112)" cx="1473.79" cy="1384.15" r="14.4" fill="#009af9" fill-rule="evenodd" fill-opacity="1" stroke="#000000" stroke-opacity="1" stroke-width="3.072"/>
<circle clip-path="url(#clip112)" cx="1440.24" cy="1384.15" r="14.4" fill="#009af9" fill-rule="evenodd" fill-opacity="1" stroke="#000000" stroke-opacity="1" stroke-width="3.072"/>
<circle clip-path="url(#clip112)" cx="1351.64" cy="1384.15" r="14.4" fill="#009af9" fill-rule="evenodd" fill-opacity="1" stroke="#000000" stroke-opacity="1" stroke-width="3.072"/>
<circle clip-path="url(#clip112)" cx="1272.65" cy="1384.15" r="14.4" fill="#009af9" fill-rule="evenodd" fill-opacity="1" stroke="#000000" stroke-opacity="1" stroke-width="3.072"/>
<circle clip-path="url(#clip112)" cx="1479.88" cy="1384.15" r="14.4" fill="#009af9" fill-rule="evenodd" fill-opacity="1" stroke="#000000" stroke-opacity="1" stroke-width="3.072"/>
<circle clip-path="url(#clip112)" cx="1506.45" cy="1384.15" r="14.4" fill="#009af9" fill-rule="evenodd" fill-opacity="1" stroke="#000000" stroke-opacity="1" stroke-width="3.072"/>
<circle clip-path="url(#clip112)" cx="1477.61" cy="1384.15" r="14.4" fill="#009af9" fill-rule="evenodd" fill-opacity="1" stroke="#000000" stroke-opacity="1" stroke-width="3.072"/>
<circle clip-path="url(#clip112)" cx="1291.92" cy="1384.15" r="14.4" fill="#009af9" fill-rule="evenodd" fill-opacity="1" stroke="#000000" stroke-opacity="1" stroke-width="3.072"/>
<circle clip-path="url(#clip112)" cx="1349.76" cy="1384.15" r="14.4" fill="#009af9" fill-rule="evenodd" fill-opacity="1" stroke="#000000" stroke-opacity="1" stroke-width="3.072"/>
<circle clip-path="url(#clip112)" cx="1473.14" cy="1384.15" r="14.4" fill="#009af9" fill-rule="evenodd" fill-opacity="1" stroke="#000000" stroke-opacity="1" stroke-width="3.072"/>
<circle clip-path="url(#clip112)" cx="1352.05" cy="1384.15" r="14.4" fill="#009af9" fill-rule="evenodd" fill-opacity="1" stroke="#000000" stroke-opacity="1" stroke-width="3.072"/>
<circle clip-path="url(#clip112)" cx="1417.77" cy="1384.15" r="14.4" fill="#009af9" fill-rule="evenodd" fill-opacity="1" stroke="#000000" stroke-opacity="1" stroke-width="3.072"/>
<circle clip-path="url(#clip112)" cx="1540.86" cy="1384.15" r="14.4" fill="#009af9" fill-rule="evenodd" fill-opacity="1" stroke="#000000" stroke-opacity="1" stroke-width="3.072"/>
<circle clip-path="url(#clip112)" cx="1310.37" cy="1384.15" r="14.4" fill="#009af9" fill-rule="evenodd" fill-opacity="1" stroke="#000000" stroke-opacity="1" stroke-width="3.072"/>
<circle clip-path="url(#clip112)" cx="1497.52" cy="1384.15" r="14.4" fill="#009af9" fill-rule="evenodd" fill-opacity="1" stroke="#000000" stroke-opacity="1" stroke-width="3.072"/>
<circle clip-path="url(#clip112)" cx="1487.7" cy="1384.15" r="14.4" fill="#009af9" fill-rule="evenodd" fill-opacity="1" stroke="#000000" stroke-opacity="1" stroke-width="3.072"/>
<circle clip-path="url(#clip112)" cx="1450.48" cy="1384.15" r="14.4" fill="#009af9" fill-rule="evenodd" fill-opacity="1" stroke="#000000" stroke-opacity="1" stroke-width="3.072"/>
<circle clip-path="url(#clip112)" cx="1509.85" cy="1384.15" r="14.4" fill="#009af9" fill-rule="evenodd" fill-opacity="1" stroke="#000000" stroke-opacity="1" stroke-width="3.072"/>
<circle clip-path="url(#clip112)" cx="1454.56" cy="1384.15" r="14.4" fill="#009af9" fill-rule="evenodd" fill-opacity="1" stroke="#000000" stroke-opacity="1" stroke-width="3.072"/>
<circle clip-path="url(#clip112)" cx="1443.49" cy="1384.15" r="14.4" fill="#009af9" fill-rule="evenodd" fill-opacity="1" stroke="#000000" stroke-opacity="1" stroke-width="3.072"/>
<circle clip-path="url(#clip112)" cx="1464.62" cy="1384.15" r="14.4" fill="#009af9" fill-rule="evenodd" fill-opacity="1" stroke="#000000" stroke-opacity="1" stroke-width="3.072"/>
<circle clip-path="url(#clip112)" cx="1506.17" cy="1384.15" r="14.4" fill="#009af9" fill-rule="evenodd" fill-opacity="1" stroke="#000000" stroke-opacity="1" stroke-width="3.072"/>
<circle clip-path="url(#clip112)" cx="1466.97" cy="1384.15" r="14.4" fill="#009af9" fill-rule="evenodd" fill-opacity="1" stroke="#000000" stroke-opacity="1" stroke-width="3.072"/>
<circle clip-path="url(#clip112)" cx="1502.95" cy="1384.15" r="14.4" fill="#009af9" fill-rule="evenodd" fill-opacity="1" stroke="#000000" stroke-opacity="1" stroke-width="3.072"/>
<circle clip-path="url(#clip112)" cx="1607.85" cy="1384.15" r="14.4" fill="#009af9" fill-rule="evenodd" fill-opacity="1" stroke="#000000" stroke-opacity="1" stroke-width="3.072"/>
<circle clip-path="url(#clip112)" cx="1413.59" cy="1384.15" r="14.4" fill="#009af9" fill-rule="evenodd" fill-opacity="1" stroke="#000000" stroke-opacity="1" stroke-width="3.072"/>
<circle clip-path="url(#clip112)" cx="1464.78" cy="1384.15" r="14.4" fill="#009af9" fill-rule="evenodd" fill-opacity="1" stroke="#000000" stroke-opacity="1" stroke-width="3.072"/>
<circle clip-path="url(#clip112)" cx="1613.41" cy="1384.15" r="14.4" fill="#009af9" fill-rule="evenodd" fill-opacity="1" stroke="#000000" stroke-opacity="1" stroke-width="3.072"/>
<circle clip-path="url(#clip112)" cx="1510.92" cy="1384.15" r="14.4" fill="#009af9" fill-rule="evenodd" fill-opacity="1" stroke="#000000" stroke-opacity="1" stroke-width="3.072"/>
<circle clip-path="url(#clip112)" cx="1486.33" cy="1384.15" r="14.4" fill="#009af9" fill-rule="evenodd" fill-opacity="1" stroke="#000000" stroke-opacity="1" stroke-width="3.072"/>
<circle clip-path="url(#clip112)" cx="1621.01" cy="1384.15" r="14.4" fill="#009af9" fill-rule="evenodd" fill-opacity="1" stroke="#000000" stroke-opacity="1" stroke-width="3.072"/>
<circle clip-path="url(#clip112)" cx="1652.15" cy="1384.15" r="14.4" fill="#009af9" fill-rule="evenodd" fill-opacity="1" stroke="#000000" stroke-opacity="1" stroke-width="3.072"/>
<circle clip-path="url(#clip112)" cx="1444.62" cy="1384.15" r="14.4" fill="#009af9" fill-rule="evenodd" fill-opacity="1" stroke="#000000" stroke-opacity="1" stroke-width="3.072"/>
<circle clip-path="url(#clip112)" cx="1514.78" cy="1384.15" r="14.4" fill="#009af9" fill-rule="evenodd" fill-opacity="1" stroke="#000000" stroke-opacity="1" stroke-width="3.072"/>
<circle clip-path="url(#clip112)" cx="1600.19" cy="1384.15" r="14.4" fill="#009af9" fill-rule="evenodd" fill-opacity="1" stroke="#000000" stroke-opacity="1" stroke-width="3.072"/>
<circle clip-path="url(#clip112)" cx="1651.55" cy="1384.15" r="14.4" fill="#009af9" fill-rule="evenodd" fill-opacity="1" stroke="#000000" stroke-opacity="1" stroke-width="3.072"/>
<circle clip-path="url(#clip112)" cx="1499.33" cy="1384.15" r="14.4" fill="#009af9" fill-rule="evenodd" fill-opacity="1" stroke="#000000" stroke-opacity="1" stroke-width="3.072"/>
<circle clip-path="url(#clip112)" cx="1539.05" cy="1384.15" r="14.4" fill="#009af9" fill-rule="evenodd" fill-opacity="1" stroke="#000000" stroke-opacity="1" stroke-width="3.072"/>
<circle clip-path="url(#clip112)" cx="1633.53" cy="1384.15" r="14.4" fill="#009af9" fill-rule="evenodd" fill-opacity="1" stroke="#000000" stroke-opacity="1" stroke-width="3.072"/>
<circle clip-path="url(#clip112)" cx="1463.91" cy="1384.15" r="14.4" fill="#009af9" fill-rule="evenodd" fill-opacity="1" stroke="#000000" stroke-opacity="1" stroke-width="3.072"/>
<circle clip-path="url(#clip112)" cx="1486.09" cy="1384.15" r="14.4" fill="#009af9" fill-rule="evenodd" fill-opacity="1" stroke="#000000" stroke-opacity="1" stroke-width="3.072"/>
<circle clip-path="url(#clip112)" cx="1666.86" cy="1384.15" r="14.4" fill="#009af9" fill-rule="evenodd" fill-opacity="1" stroke="#000000" stroke-opacity="1" stroke-width="3.072"/>
<circle clip-path="url(#clip112)" cx="1503.74" cy="1384.15" r="14.4" fill="#009af9" fill-rule="evenodd" fill-opacity="1" stroke="#000000" stroke-opacity="1" stroke-width="3.072"/>
<circle clip-path="url(#clip112)" cx="1752.57" cy="1384.15" r="14.4" fill="#009af9" fill-rule="evenodd" fill-opacity="1" stroke="#000000" stroke-opacity="1" stroke-width="3.072"/>
<circle clip-path="url(#clip112)" cx="1568.89" cy="1384.15" r="14.4" fill="#009af9" fill-rule="evenodd" fill-opacity="1" stroke="#000000" stroke-opacity="1" stroke-width="3.072"/>
<circle clip-path="url(#clip112)" cx="1699.67" cy="1384.15" r="14.4" fill="#009af9" fill-rule="evenodd" fill-opacity="1" stroke="#000000" stroke-opacity="1" stroke-width="3.072"/>
<circle clip-path="url(#clip112)" cx="1791.1" cy="1384.15" r="14.4" fill="#009af9" fill-rule="evenodd" fill-opacity="1" stroke="#000000" stroke-opacity="1" stroke-width="3.072"/>
<circle clip-path="url(#clip112)" cx="1635.96" cy="1384.15" r="14.4" fill="#009af9" fill-rule="evenodd" fill-opacity="1" stroke="#000000" stroke-opacity="1" stroke-width="3.072"/>
<circle clip-path="url(#clip112)" cx="1714.76" cy="1384.15" r="14.4" fill="#009af9" fill-rule="evenodd" fill-opacity="1" stroke="#000000" stroke-opacity="1" stroke-width="3.072"/>
<circle clip-path="url(#clip112)" cx="1639.82" cy="1384.15" r="14.4" fill="#009af9" fill-rule="evenodd" fill-opacity="1" stroke="#000000" stroke-opacity="1" stroke-width="3.072"/>
<circle clip-path="url(#clip112)" cx="1762.15" cy="1384.15" r="14.4" fill="#009af9" fill-rule="evenodd" fill-opacity="1" stroke="#000000" stroke-opacity="1" stroke-width="3.072"/>
<circle clip-path="url(#clip112)" cx="1828.04" cy="1384.15" r="14.4" fill="#009af9" fill-rule="evenodd" fill-opacity="1" stroke="#000000" stroke-opacity="1" stroke-width="3.072"/>
<circle clip-path="url(#clip112)" cx="1854.49" cy="1384.15" r="14.4" fill="#009af9" fill-rule="evenodd" fill-opacity="1" stroke="#000000" stroke-opacity="1" stroke-width="3.072"/>
<circle clip-path="url(#clip112)" cx="1769.73" cy="1384.15" r="14.4" fill="#009af9" fill-rule="evenodd" fill-opacity="1" stroke="#000000" stroke-opacity="1" stroke-width="3.072"/>
<circle clip-path="url(#clip112)" cx="1636.47" cy="1384.15" r="14.4" fill="#009af9" fill-rule="evenodd" fill-opacity="1" stroke="#000000" stroke-opacity="1" stroke-width="3.072"/>
<circle clip-path="url(#clip112)" cx="1843.78" cy="1384.15" r="14.4" fill="#009af9" fill-rule="evenodd" fill-opacity="1" stroke="#000000" stroke-opacity="1" stroke-width="3.072"/>
<circle clip-path="url(#clip112)" cx="1872.97" cy="1384.15" r="14.4" fill="#009af9" fill-rule="evenodd" fill-opacity="1" stroke="#000000" stroke-opacity="1" stroke-width="3.072"/>
<circle clip-path="url(#clip112)" cx="1733.96" cy="1384.15" r="14.4" fill="#009af9" fill-rule="evenodd" fill-opacity="1" stroke="#000000" stroke-opacity="1" stroke-width="3.072"/>
<circle clip-path="url(#clip112)" cx="1763.01" cy="1384.15" r="14.4" fill="#009af9" fill-rule="evenodd" fill-opacity="1" stroke="#000000" stroke-opacity="1" stroke-width="3.072"/>
<circle clip-path="url(#clip112)" cx="1814.61" cy="1384.15" r="14.4" fill="#009af9" fill-rule="evenodd" fill-opacity="1" stroke="#000000" stroke-opacity="1" stroke-width="3.072"/>
<circle clip-path="url(#clip112)" cx="1684.16" cy="1384.15" r="14.4" fill="#009af9" fill-rule="evenodd" fill-opacity="1" stroke="#000000" stroke-opacity="1" stroke-width="3.072"/>
<circle clip-path="url(#clip112)" cx="1704.36" cy="1384.15" r="14.4" fill="#009af9" fill-rule="evenodd" fill-opacity="1" stroke="#000000" stroke-opacity="1" stroke-width="3.072"/>
<circle clip-path="url(#clip112)" cx="1779.06" cy="1384.15" r="14.4" fill="#009af9" fill-rule="evenodd" fill-opacity="1" stroke="#000000" stroke-opacity="1" stroke-width="3.072"/>
<circle clip-path="url(#clip112)" cx="1927.98" cy="1384.15" r="14.4" fill="#009af9" fill-rule="evenodd" fill-opacity="1" stroke="#000000" stroke-opacity="1" stroke-width="3.072"/>
<circle clip-path="url(#clip112)" cx="1974.03" cy="1384.15" r="14.4" fill="#009af9" fill-rule="evenodd" fill-opacity="1" stroke="#000000" stroke-opacity="1" stroke-width="3.072"/>
<circle clip-path="url(#clip112)" cx="1758.61" cy="1384.15" r="14.4" fill="#009af9" fill-rule="evenodd" fill-opacity="1" stroke="#000000" stroke-opacity="1" stroke-width="3.072"/>
<circle clip-path="url(#clip112)" cx="1838.6" cy="1384.15" r="14.4" fill="#009af9" fill-rule="evenodd" fill-opacity="1" stroke="#000000" stroke-opacity="1" stroke-width="3.072"/>
<circle clip-path="url(#clip112)" cx="1817.78" cy="1384.15" r="14.4" fill="#009af9" fill-rule="evenodd" fill-opacity="1" stroke="#000000" stroke-opacity="1" stroke-width="3.072"/>
<circle clip-path="url(#clip112)" cx="1811.89" cy="1384.15" r="14.4" fill="#009af9" fill-rule="evenodd" fill-opacity="1" stroke="#000000" stroke-opacity="1" stroke-width="3.072"/>
<circle clip-path="url(#clip112)" cx="1887.7" cy="1384.15" r="14.4" fill="#009af9" fill-rule="evenodd" fill-opacity="1" stroke="#000000" stroke-opacity="1" stroke-width="3.072"/>
<circle clip-path="url(#clip112)" cx="2089.69" cy="1384.15" r="14.4" fill="#009af9" fill-rule="evenodd" fill-opacity="1" stroke="#000000" stroke-opacity="1" stroke-width="3.072"/>
<circle clip-path="url(#clip112)" cx="2086.78" cy="1384.15" r="14.4" fill="#009af9" fill-rule="evenodd" fill-opacity="1" stroke="#000000" stroke-opacity="1" stroke-width="3.072"/>
<circle clip-path="url(#clip112)" cx="2198.12" cy="1384.15" r="14.4" fill="#009af9" fill-rule="evenodd" fill-opacity="1" stroke="#000000" stroke-opacity="1" stroke-width="3.072"/>
<circle clip-path="url(#clip112)" cx="1956.51" cy="1384.15" r="14.4" fill="#009af9" fill-rule="evenodd" fill-opacity="1" stroke="#000000" stroke-opacity="1" stroke-width="3.072"/>
<circle clip-path="url(#clip112)" cx="2058.71" cy="1384.15" r="14.4" fill="#009af9" fill-rule="evenodd" fill-opacity="1" stroke="#000000" stroke-opacity="1" stroke-width="3.072"/>
</svg>
