<?xml version="1.0" encoding="utf-8"?>
<svg xmlns="http://www.w3.org/2000/svg" xmlns:xlink="http://www.w3.org/1999/xlink" width="576" height="384" viewBox="0 0 2304 1536">
<defs>
  <clipPath id="clip230">
    <rect x="0" y="0" width="2304" height="1536"/>
  </clipPath>
</defs>
<path clip-path="url(#clip230)" d="
M0 1536 L2304 1536 L2304 0 L0 0  Z
  " fill="#ffffff" fill-rule="evenodd" fill-opacity="1"/>
<defs>
  <clipPath id="clip231">
    <rect x="460" y="0" width="1614" height="1536"/>
  </clipPath>
</defs>
<path clip-path="url(#clip230)" d="
M155.962 1423.09 L2256.76 1423.09 L2256.76 47.2441 L155.962 47.2441  Z
  " fill="#ffffff" fill-rule="evenodd" fill-opacity="1"/>
<defs>
  <clipPath id="clip232">
    <rect x="155" y="47" width="2102" height="1377"/>
  </clipPath>
</defs>
<polyline clip-path="url(#clip232)" style="stroke:#000000; stroke-linecap:round; stroke-linejoin:round; stroke-width:2; stroke-opacity:0.1; fill:none" points="
  347.19,1423.09 347.19,47.2441 
  "/>
<polyline clip-path="url(#clip232)" style="stroke:#000000; stroke-linecap:round; stroke-linejoin:round; stroke-width:2; stroke-opacity:0.1; fill:none" points="
  668.185,1423.09 668.185,47.2441 
  "/>
<polyline clip-path="url(#clip232)" style="stroke:#000000; stroke-linecap:round; stroke-linejoin:round; stroke-width:2; stroke-opacity:0.1; fill:none" points="
  989.179,1423.09 989.179,47.2441 
  "/>
<polyline clip-path="url(#clip232)" style="stroke:#000000; stroke-linecap:round; stroke-linejoin:round; stroke-width:2; stroke-opacity:0.1; fill:none" points="
  1310.17,1423.09 1310.17,47.2441 
  "/>
<polyline clip-path="url(#clip232)" style="stroke:#000000; stroke-linecap:round; stroke-linejoin:round; stroke-width:2; stroke-opacity:0.1; fill:none" points="
  1631.17,1423.09 1631.17,47.2441 
  "/>
<polyline clip-path="url(#clip232)" style="stroke:#000000; stroke-linecap:round; stroke-linejoin:round; stroke-width:2; stroke-opacity:0.1; fill:none" points="
  1952.16,1423.09 1952.16,47.2441 
  "/>
<polyline clip-path="url(#clip230)" style="stroke:#000000; stroke-linecap:round; stroke-linejoin:round; stroke-width:4; stroke-opacity:1; fill:none" points="
  155.962,1423.09 2256.76,1423.09 
  "/>
<polyline clip-path="url(#clip230)" style="stroke:#000000; stroke-linecap:round; stroke-linejoin:round; stroke-width:4; stroke-opacity:1; fill:none" points="
  347.19,1423.09 347.19,1404.19 
  "/>
<polyline clip-path="url(#clip230)" style="stroke:#000000; stroke-linecap:round; stroke-linejoin:round; stroke-width:4; stroke-opacity:1; fill:none" points="
  668.185,1423.09 668.185,1404.19 
  "/>
<polyline clip-path="url(#clip230)" style="stroke:#000000; stroke-linecap:round; stroke-linejoin:round; stroke-width:4; stroke-opacity:1; fill:none" points="
  989.179,1423.09 989.179,1404.19 
  "/>
<polyline clip-path="url(#clip230)" style="stroke:#000000; stroke-linecap:round; stroke-linejoin:round; stroke-width:4; stroke-opacity:1; fill:none" points="
  1310.17,1423.09 1310.17,1404.19 
  "/>
<polyline clip-path="url(#clip230)" style="stroke:#000000; stroke-linecap:round; stroke-linejoin:round; stroke-width:4; stroke-opacity:1; fill:none" points="
  1631.17,1423.09 1631.17,1404.19 
  "/>
<polyline clip-path="url(#clip230)" style="stroke:#000000; stroke-linecap:round; stroke-linejoin:round; stroke-width:4; stroke-opacity:1; fill:none" points="
  1952.16,1423.09 1952.16,1404.19 
  "/>
<path clip-path="url(#clip230)" d="M324.575 1453.24 Q320.964 1453.24 319.135 1456.8 Q317.329 1460.35 317.329 1467.47 Q317.329 1474.58 319.135 1478.15 Q320.964 1481.69 324.575 1481.69 Q328.209 1481.69 330.015 1478.15 Q331.843 1474.58 331.843 1467.47 Q331.843 1460.35 330.015 1456.8 Q328.209 1453.24 324.575 1453.24 M324.575 1449.53 Q330.385 1449.53 333.44 1454.14 Q336.519 1458.72 336.519 1467.47 Q336.519 1476.2 333.44 1480.81 Q330.385 1485.39 324.575 1485.39 Q318.765 1485.39 315.686 1480.81 Q312.63 1476.2 312.63 1467.47 Q312.63 1458.72 315.686 1454.14 Q318.765 1449.53 324.575 1449.53 Z" fill="#000000" fill-rule="evenodd" fill-opacity="1" /><path clip-path="url(#clip230)" d="M344.737 1478.84 L349.621 1478.84 L349.621 1484.72 L344.737 1484.72 L344.737 1478.84 Z" fill="#000000" fill-rule="evenodd" fill-opacity="1" /><path clip-path="url(#clip230)" d="M369.806 1453.24 Q366.195 1453.24 364.366 1456.8 Q362.561 1460.35 362.561 1467.47 Q362.561 1474.58 364.366 1478.15 Q366.195 1481.69 369.806 1481.69 Q373.44 1481.69 375.246 1478.15 Q377.075 1474.58 377.075 1467.47 Q377.075 1460.35 375.246 1456.8 Q373.44 1453.24 369.806 1453.24 M369.806 1449.53 Q375.616 1449.53 378.672 1454.14 Q381.75 1458.72 381.75 1467.47 Q381.75 1476.2 378.672 1480.81 Q375.616 1485.39 369.806 1485.39 Q363.996 1485.39 360.917 1480.81 Q357.862 1476.2 357.862 1467.47 Q357.862 1458.72 360.917 1454.14 Q363.996 1449.53 369.806 1449.53 Z" fill="#000000" fill-rule="evenodd" fill-opacity="1" /><path clip-path="url(#clip230)" d="M646.067 1453.24 Q642.456 1453.24 640.627 1456.8 Q638.821 1460.35 638.821 1467.47 Q638.821 1474.58 640.627 1478.15 Q642.456 1481.69 646.067 1481.69 Q649.701 1481.69 651.506 1478.15 Q653.335 1474.58 653.335 1467.47 Q653.335 1460.35 651.506 1456.8 Q649.701 1453.24 646.067 1453.24 M646.067 1449.53 Q651.877 1449.53 654.932 1454.14 Q658.011 1458.72 658.011 1467.47 Q658.011 1476.2 654.932 1480.81 Q651.877 1485.39 646.067 1485.39 Q640.256 1485.39 637.178 1480.81 Q634.122 1476.2 634.122 1467.47 Q634.122 1458.72 637.178 1454.14 Q640.256 1449.53 646.067 1449.53 Z" fill="#000000" fill-rule="evenodd" fill-opacity="1" /><path clip-path="url(#clip230)" d="M666.229 1478.84 L671.113 1478.84 L671.113 1484.72 L666.229 1484.72 L666.229 1478.84 Z" fill="#000000" fill-rule="evenodd" fill-opacity="1" /><path clip-path="url(#clip230)" d="M681.344 1450.16 L699.701 1450.16 L699.701 1454.1 L685.627 1454.1 L685.627 1462.57 Q686.645 1462.22 687.664 1462.06 Q688.682 1461.87 689.701 1461.87 Q695.488 1461.87 698.867 1465.04 Q702.247 1468.22 702.247 1473.63 Q702.247 1479.21 698.775 1482.31 Q695.302 1485.39 688.983 1485.39 Q686.807 1485.39 684.539 1485.02 Q682.293 1484.65 679.886 1483.91 L679.886 1479.21 Q681.969 1480.34 684.191 1480.9 Q686.414 1481.46 688.89 1481.46 Q692.895 1481.46 695.233 1479.35 Q697.571 1477.24 697.571 1473.63 Q697.571 1470.02 695.233 1467.91 Q692.895 1465.81 688.89 1465.81 Q687.015 1465.81 685.14 1466.22 Q683.289 1466.64 681.344 1467.52 L681.344 1450.16 Z" fill="#000000" fill-rule="evenodd" fill-opacity="1" /><path clip-path="url(#clip230)" d="M956.332 1480.78 L963.97 1480.78 L963.97 1454.42 L955.66 1456.09 L955.66 1451.83 L963.924 1450.16 L968.6 1450.16 L968.6 1480.78 L976.239 1480.78 L976.239 1484.72 L956.332 1484.72 L956.332 1480.78 Z" fill="#000000" fill-rule="evenodd" fill-opacity="1" /><path clip-path="url(#clip230)" d="M985.683 1478.84 L990.568 1478.84 L990.568 1484.72 L985.683 1484.72 L985.683 1478.84 Z" fill="#000000" fill-rule="evenodd" fill-opacity="1" /><path clip-path="url(#clip230)" d="M1010.75 1453.24 Q1007.14 1453.24 1005.31 1456.8 Q1003.51 1460.35 1003.51 1467.47 Q1003.51 1474.58 1005.31 1478.15 Q1007.14 1481.69 1010.75 1481.69 Q1014.39 1481.69 1016.19 1478.15 Q1018.02 1474.58 1018.02 1467.47 Q1018.02 1460.35 1016.19 1456.8 Q1014.39 1453.24 1010.75 1453.24 M1010.75 1449.53 Q1016.56 1449.53 1019.62 1454.14 Q1022.7 1458.72 1022.7 1467.47 Q1022.7 1476.2 1019.62 1480.81 Q1016.56 1485.39 1010.75 1485.39 Q1004.94 1485.39 1001.86 1480.81 Q998.808 1476.2 998.808 1467.47 Q998.808 1458.72 1001.86 1454.14 Q1004.94 1449.53 1010.75 1449.53 Z" fill="#000000" fill-rule="evenodd" fill-opacity="1" /><path clip-path="url(#clip230)" d="M1277.82 1480.78 L1285.46 1480.78 L1285.46 1454.42 L1277.15 1456.09 L1277.15 1451.83 L1285.42 1450.16 L1290.09 1450.16 L1290.09 1480.78 L1297.73 1480.78 L1297.73 1484.72 L1277.82 1484.72 L1277.82 1480.78 Z" fill="#000000" fill-rule="evenodd" fill-opacity="1" /><path clip-path="url(#clip230)" d="M1307.18 1478.84 L1312.06 1478.84 L1312.06 1484.72 L1307.18 1484.72 L1307.18 1478.84 Z" fill="#000000" fill-rule="evenodd" fill-opacity="1" /><path clip-path="url(#clip230)" d="M1322.29 1450.16 L1340.65 1450.16 L1340.65 1454.1 L1326.57 1454.1 L1326.57 1462.57 Q1327.59 1462.22 1328.61 1462.06 Q1329.63 1461.87 1330.65 1461.87 Q1336.43 1461.87 1339.81 1465.04 Q1343.19 1468.22 1343.19 1473.63 Q1343.19 1479.21 1339.72 1482.31 Q1336.25 1485.39 1329.93 1485.39 Q1327.75 1485.39 1325.49 1485.02 Q1323.24 1484.65 1320.83 1483.91 L1320.83 1479.21 Q1322.92 1480.34 1325.14 1480.9 Q1327.36 1481.46 1329.84 1481.46 Q1333.84 1481.46 1336.18 1479.35 Q1338.52 1477.24 1338.52 1473.63 Q1338.52 1470.02 1336.18 1467.91 Q1333.84 1465.81 1329.84 1465.81 Q1327.96 1465.81 1326.09 1466.22 Q1324.24 1466.64 1322.29 1467.52 L1322.29 1450.16 Z" fill="#000000" fill-rule="evenodd" fill-opacity="1" /><path clip-path="url(#clip230)" d="M1602.41 1480.78 L1618.72 1480.78 L1618.72 1484.72 L1596.78 1484.72 L1596.78 1480.78 Q1599.44 1478.03 1604.03 1473.4 Q1608.63 1468.75 1609.81 1467.41 Q1612.06 1464.88 1612.94 1463.15 Q1613.84 1461.39 1613.84 1459.7 Q1613.84 1456.94 1611.9 1455.21 Q1609.97 1453.47 1606.87 1453.47 Q1604.67 1453.47 1602.22 1454.23 Q1599.79 1455 1597.01 1456.55 L1597.01 1451.83 Q1599.84 1450.69 1602.29 1450.11 Q1604.74 1449.53 1606.78 1449.53 Q1612.15 1449.53 1615.35 1452.22 Q1618.54 1454.91 1618.54 1459.4 Q1618.54 1461.53 1617.73 1463.45 Q1616.94 1465.34 1614.84 1467.94 Q1614.26 1468.61 1611.16 1471.83 Q1608.05 1475.02 1602.41 1480.78 Z" fill="#000000" fill-rule="evenodd" fill-opacity="1" /><path clip-path="url(#clip230)" d="M1628.54 1478.84 L1633.42 1478.84 L1633.42 1484.72 L1628.54 1484.72 L1628.54 1478.84 Z" fill="#000000" fill-rule="evenodd" fill-opacity="1" /><path clip-path="url(#clip230)" d="M1653.61 1453.24 Q1650 1453.24 1648.17 1456.8 Q1646.36 1460.35 1646.36 1467.47 Q1646.36 1474.58 1648.17 1478.15 Q1650 1481.69 1653.61 1481.69 Q1657.24 1481.69 1659.05 1478.15 Q1660.88 1474.58 1660.88 1467.47 Q1660.88 1460.35 1659.05 1456.8 Q1657.24 1453.24 1653.61 1453.24 M1653.61 1449.53 Q1659.42 1449.53 1662.47 1454.14 Q1665.55 1458.72 1665.55 1467.47 Q1665.55 1476.2 1662.47 1480.81 Q1659.42 1485.39 1653.61 1485.39 Q1647.8 1485.39 1644.72 1480.81 Q1641.66 1476.2 1641.66 1467.47 Q1641.66 1458.72 1644.72 1454.14 Q1647.8 1449.53 1653.61 1449.53 Z" fill="#000000" fill-rule="evenodd" fill-opacity="1" /><path clip-path="url(#clip230)" d="M1923.9 1480.78 L1940.22 1480.78 L1940.22 1484.72 L1918.27 1484.72 L1918.27 1480.78 Q1920.93 1478.03 1925.52 1473.4 Q1930.12 1468.75 1931.3 1467.41 Q1933.55 1464.88 1934.43 1463.15 Q1935.33 1461.39 1935.33 1459.7 Q1935.33 1456.94 1933.39 1455.21 Q1931.47 1453.47 1928.36 1453.47 Q1926.17 1453.47 1923.71 1454.23 Q1921.28 1455 1918.5 1456.55 L1918.5 1451.83 Q1921.33 1450.69 1923.78 1450.11 Q1926.24 1449.53 1928.27 1449.53 Q1933.64 1449.53 1936.84 1452.22 Q1940.03 1454.91 1940.03 1459.4 Q1940.03 1461.53 1939.22 1463.45 Q1938.43 1465.34 1936.33 1467.94 Q1935.75 1468.61 1932.65 1471.83 Q1929.55 1475.02 1923.9 1480.78 Z" fill="#000000" fill-rule="evenodd" fill-opacity="1" /><path clip-path="url(#clip230)" d="M1950.03 1478.84 L1954.92 1478.84 L1954.92 1484.72 L1950.03 1484.72 L1950.03 1478.84 Z" fill="#000000" fill-rule="evenodd" fill-opacity="1" /><path clip-path="url(#clip230)" d="M1965.15 1450.16 L1983.5 1450.16 L1983.5 1454.1 L1969.43 1454.1 L1969.43 1462.57 Q1970.45 1462.22 1971.47 1462.06 Q1972.49 1461.87 1973.5 1461.87 Q1979.29 1461.87 1982.67 1465.04 Q1986.05 1468.22 1986.05 1473.63 Q1986.05 1479.21 1982.58 1482.31 Q1979.11 1485.39 1972.79 1485.39 Q1970.61 1485.39 1968.34 1485.02 Q1966.1 1484.65 1963.69 1483.91 L1963.69 1479.21 Q1965.77 1480.34 1967.99 1480.9 Q1970.22 1481.46 1972.69 1481.46 Q1976.7 1481.46 1979.04 1479.35 Q1981.37 1477.24 1981.37 1473.63 Q1981.37 1470.02 1979.04 1467.91 Q1976.7 1465.81 1972.69 1465.81 Q1970.82 1465.81 1968.94 1466.22 Q1967.09 1466.64 1965.15 1467.52 L1965.15 1450.16 Z" fill="#000000" fill-rule="evenodd" fill-opacity="1" /><polyline clip-path="url(#clip232)" style="stroke:#000000; stroke-linecap:round; stroke-linejoin:round; stroke-width:2; stroke-opacity:0.1; fill:none" points="
  155.962,1384.15 2256.76,1384.15 
  "/>
<polyline clip-path="url(#clip232)" style="stroke:#000000; stroke-linecap:round; stroke-linejoin:round; stroke-width:2; stroke-opacity:0.1; fill:none" points="
  155.962,1059.66 2256.76,1059.66 
  "/>
<polyline clip-path="url(#clip232)" style="stroke:#000000; stroke-linecap:round; stroke-linejoin:round; stroke-width:2; stroke-opacity:0.1; fill:none" points="
  155.962,735.166 2256.76,735.166 
  "/>
<polyline clip-path="url(#clip232)" style="stroke:#000000; stroke-linecap:round; stroke-linejoin:round; stroke-width:2; stroke-opacity:0.1; fill:none" points="
  155.962,410.675 2256.76,410.675 
  "/>
<polyline clip-path="url(#clip232)" style="stroke:#000000; stroke-linecap:round; stroke-linejoin:round; stroke-width:2; stroke-opacity:0.1; fill:none" points="
  155.962,86.1831 2256.76,86.1831 
  "/>
<polyline clip-path="url(#clip230)" style="stroke:#000000; stroke-linecap:round; stroke-linejoin:round; stroke-width:4; stroke-opacity:1; fill:none" points="
  155.962,1423.09 155.962,47.2441 
  "/>
<polyline clip-path="url(#clip230)" style="stroke:#000000; stroke-linecap:round; stroke-linejoin:round; stroke-width:4; stroke-opacity:1; fill:none" points="
  155.962,1384.15 174.86,1384.15 
  "/>
<polyline clip-path="url(#clip230)" style="stroke:#000000; stroke-linecap:round; stroke-linejoin:round; stroke-width:4; stroke-opacity:1; fill:none" points="
  155.962,1059.66 174.86,1059.66 
  "/>
<polyline clip-path="url(#clip230)" style="stroke:#000000; stroke-linecap:round; stroke-linejoin:round; stroke-width:4; stroke-opacity:1; fill:none" points="
  155.962,735.166 174.86,735.166 
  "/>
<polyline clip-path="url(#clip230)" style="stroke:#000000; stroke-linecap:round; stroke-linejoin:round; stroke-width:4; stroke-opacity:1; fill:none" points="
  155.962,410.675 174.86,410.675 
  "/>
<polyline clip-path="url(#clip230)" style="stroke:#000000; stroke-linecap:round; stroke-linejoin:round; stroke-width:4; stroke-opacity:1; fill:none" points="
  155.962,86.1831 174.86,86.1831 
  "/>
<path clip-path="url(#clip230)" d="M58.2545 1397.49 L74.5739 1397.49 L74.5739 1401.43 L52.6295 1401.43 L52.6295 1397.49 Q55.2915 1394.74 59.8749 1390.11 Q64.4813 1385.46 65.6619 1384.11 Q67.9072 1381.59 68.7868 1379.85 Q69.6896 1378.1 69.6896 1376.41 Q69.6896 1373.65 67.7452 1371.92 Q65.8239 1370.18 62.7221 1370.18 Q60.523 1370.18 58.0693 1370.94 Q55.6388 1371.71 52.861 1373.26 L52.861 1368.54 Q55.6851 1367.4 58.1388 1366.82 Q60.5924 1366.24 62.6295 1366.24 Q67.9998 1366.24 71.1942 1368.93 Q74.3887 1371.61 74.3887 1376.1 Q74.3887 1378.23 73.5785 1380.16 Q72.7915 1382.05 70.685 1384.65 Q70.1063 1385.32 67.0045 1388.54 Q63.9026 1391.73 58.2545 1397.49 Z" fill="#000000" fill-rule="evenodd" fill-opacity="1" /><path clip-path="url(#clip230)" d="M84.3886 1395.55 L89.2728 1395.55 L89.2728 1401.43 L84.3886 1401.43 L84.3886 1395.55 Z" fill="#000000" fill-rule="evenodd" fill-opacity="1" /><path clip-path="url(#clip230)" d="M109.458 1369.95 Q105.847 1369.95 104.018 1373.51 Q102.213 1377.05 102.213 1384.18 Q102.213 1391.29 104.018 1394.85 Q105.847 1398.4 109.458 1398.4 Q113.092 1398.4 114.898 1394.85 Q116.726 1391.29 116.726 1384.18 Q116.726 1377.05 114.898 1373.51 Q113.092 1369.95 109.458 1369.95 M109.458 1366.24 Q115.268 1366.24 118.324 1370.85 Q121.402 1375.43 121.402 1384.18 Q121.402 1392.91 118.324 1397.52 Q115.268 1402.1 109.458 1402.1 Q103.648 1402.1 100.569 1397.52 Q97.5135 1392.91 97.5135 1384.18 Q97.5135 1375.43 100.569 1370.85 Q103.648 1366.24 109.458 1366.24 Z" fill="#000000" fill-rule="evenodd" fill-opacity="1" /><path clip-path="url(#clip230)" d="M59.2499 1073 L75.5692 1073 L75.5692 1076.94 L53.6249 1076.94 L53.6249 1073 Q56.2869 1070.25 60.8702 1065.62 Q65.4767 1060.97 66.6572 1059.62 Q68.9026 1057.1 69.7822 1055.36 Q70.685 1053.6 70.685 1051.91 Q70.685 1049.16 68.7406 1047.42 Q66.8193 1045.69 63.7174 1045.69 Q61.5184 1045.69 59.0647 1046.45 Q56.6341 1047.22 53.8564 1048.77 L53.8564 1044.04 Q56.6804 1042.91 59.1341 1042.33 Q61.5878 1041.75 63.6248 1041.75 Q68.9952 1041.75 72.1896 1044.44 Q75.384 1047.12 75.384 1051.61 Q75.384 1053.74 74.5739 1055.66 Q73.7868 1057.56 71.6804 1060.16 Q71.1017 1060.83 67.9998 1064.04 Q64.898 1067.24 59.2499 1073 Z" fill="#000000" fill-rule="evenodd" fill-opacity="1" /><path clip-path="url(#clip230)" d="M85.384 1071.06 L90.2682 1071.06 L90.2682 1076.94 L85.384 1076.94 L85.384 1071.06 Z" fill="#000000" fill-rule="evenodd" fill-opacity="1" /><path clip-path="url(#clip230)" d="M100.5 1042.38 L118.856 1042.38 L118.856 1046.31 L104.782 1046.31 L104.782 1054.78 Q105.801 1054.44 106.819 1054.28 Q107.838 1054.09 108.856 1054.09 Q114.643 1054.09 118.023 1057.26 Q121.402 1060.43 121.402 1065.85 Q121.402 1071.43 117.93 1074.53 Q114.458 1077.61 108.138 1077.61 Q105.963 1077.61 103.694 1077.24 Q101.449 1076.87 99.0413 1076.13 L99.0413 1071.43 Q101.125 1072.56 103.347 1073.12 Q105.569 1073.67 108.046 1073.67 Q112.051 1073.67 114.388 1071.57 Q116.726 1069.46 116.726 1065.85 Q116.726 1062.24 114.388 1060.13 Q112.051 1058.03 108.046 1058.03 Q106.171 1058.03 104.296 1058.44 Q102.444 1058.86 100.5 1059.74 L100.5 1042.38 Z" fill="#000000" fill-rule="evenodd" fill-opacity="1" /><path clip-path="url(#clip230)" d="M68.3933 733.812 Q71.7498 734.529 73.6248 736.798 Q75.5229 739.066 75.5229 742.4 Q75.5229 747.515 72.0044 750.316 Q68.4859 753.117 62.0045 753.117 Q59.8286 753.117 57.5138 752.677 Q55.2221 752.261 52.7684 751.404 L52.7684 746.89 Q54.7128 748.025 57.0277 748.603 Q59.3425 749.182 61.8656 749.182 Q66.2637 749.182 68.5554 747.446 Q70.8702 745.71 70.8702 742.4 Q70.8702 739.344 68.7174 737.631 Q66.5878 735.895 62.7684 735.895 L58.7406 735.895 L58.7406 732.053 L62.9535 732.053 Q66.4026 732.053 68.2313 730.687 Q70.06 729.298 70.06 726.705 Q70.06 724.043 68.1619 722.631 Q66.2869 721.196 62.7684 721.196 Q60.8471 721.196 58.648 721.613 Q56.449 722.029 53.8101 722.909 L53.8101 718.742 Q56.4721 718.002 58.7869 717.631 Q61.1249 717.261 63.185 717.261 Q68.5091 717.261 71.6109 719.692 Q74.7127 722.099 74.7127 726.219 Q74.7127 729.09 73.0692 731.08 Q71.4257 733.048 68.3933 733.812 Z" fill="#000000" fill-rule="evenodd" fill-opacity="1" /><path clip-path="url(#clip230)" d="M84.3886 746.566 L89.2728 746.566 L89.2728 752.446 L84.3886 752.446 L84.3886 746.566 Z" fill="#000000" fill-rule="evenodd" fill-opacity="1" /><path clip-path="url(#clip230)" d="M109.458 720.965 Q105.847 720.965 104.018 724.529 Q102.213 728.071 102.213 735.201 Q102.213 742.307 104.018 745.872 Q105.847 749.414 109.458 749.414 Q113.092 749.414 114.898 745.872 Q116.726 742.307 116.726 735.201 Q116.726 728.071 114.898 724.529 Q113.092 720.965 109.458 720.965 M109.458 717.261 Q115.268 717.261 118.324 721.867 Q121.402 726.451 121.402 735.201 Q121.402 743.928 118.324 748.534 Q115.268 753.117 109.458 753.117 Q103.648 753.117 100.569 748.534 Q97.5135 743.928 97.5135 735.201 Q97.5135 726.451 100.569 721.867 Q103.648 717.261 109.458 717.261 Z" fill="#000000" fill-rule="evenodd" fill-opacity="1" /><path clip-path="url(#clip230)" d="M69.3887 409.32 Q72.7452 410.038 74.6202 412.306 Q76.5183 414.575 76.5183 417.908 Q76.5183 423.024 72.9998 425.825 Q69.4813 428.626 62.9998 428.626 Q60.8239 428.626 58.5091 428.186 Q56.2175 427.769 53.7638 426.913 L53.7638 422.399 Q55.7082 423.533 58.023 424.112 Q60.3378 424.691 62.861 424.691 Q67.2591 424.691 69.5507 422.955 Q71.8655 421.218 71.8655 417.908 Q71.8655 414.853 69.7128 413.14 Q67.5832 411.404 63.7637 411.404 L59.736 411.404 L59.736 407.561 L63.9489 407.561 Q67.398 407.561 69.2267 406.195 Q71.0554 404.807 71.0554 402.214 Q71.0554 399.552 69.1572 398.14 Q67.2822 396.705 63.7637 396.705 Q61.8424 396.705 59.6434 397.121 Q57.4443 397.538 54.8054 398.418 L54.8054 394.251 Q57.4675 393.51 59.7823 393.14 Q62.1202 392.77 64.1804 392.77 Q69.5044 392.77 72.6063 395.2 Q75.7081 397.607 75.7081 401.728 Q75.7081 404.598 74.0646 406.589 Q72.4211 408.556 69.3887 409.32 Z" fill="#000000" fill-rule="evenodd" fill-opacity="1" /><path clip-path="url(#clip230)" d="M85.384 422.075 L90.2682 422.075 L90.2682 427.955 L85.384 427.955 L85.384 422.075 Z" fill="#000000" fill-rule="evenodd" fill-opacity="1" /><path clip-path="url(#clip230)" d="M100.5 393.395 L118.856 393.395 L118.856 397.33 L104.782 397.33 L104.782 405.802 Q105.801 405.455 106.819 405.293 Q107.838 405.107 108.856 405.107 Q114.643 405.107 118.023 408.279 Q121.402 411.45 121.402 416.867 Q121.402 422.445 117.93 425.547 Q114.458 428.626 108.138 428.626 Q105.963 428.626 103.694 428.255 Q101.449 427.885 99.0413 427.144 L99.0413 422.445 Q101.125 423.58 103.347 424.135 Q105.569 424.691 108.046 424.691 Q112.051 424.691 114.388 422.584 Q116.726 420.478 116.726 416.867 Q116.726 413.256 114.388 411.149 Q112.051 409.043 108.046 409.043 Q106.171 409.043 104.296 409.459 Q102.444 409.876 100.5 410.756 L100.5 393.395 Z" fill="#000000" fill-rule="evenodd" fill-opacity="1" /><path clip-path="url(#clip230)" d="M67.0739 72.9771 L55.2684 91.4261 L67.0739 91.4261 L67.0739 72.9771 M65.847 68.9031 L71.7266 68.9031 L71.7266 91.4261 L76.6572 91.4261 L76.6572 95.315 L71.7266 95.315 L71.7266 103.463 L67.0739 103.463 L67.0739 95.315 L51.4721 95.315 L51.4721 90.8011 L65.847 68.9031 Z" fill="#000000" fill-rule="evenodd" fill-opacity="1" /><path clip-path="url(#clip230)" d="M84.3886 97.5835 L89.2728 97.5835 L89.2728 103.463 L84.3886 103.463 L84.3886 97.5835 Z" fill="#000000" fill-rule="evenodd" fill-opacity="1" /><path clip-path="url(#clip230)" d="M109.458 71.9818 Q105.847 71.9818 104.018 75.5466 Q102.213 79.0882 102.213 86.2178 Q102.213 93.3242 104.018 96.889 Q105.847 100.431 109.458 100.431 Q113.092 100.431 114.898 96.889 Q116.726 93.3242 116.726 86.2178 Q116.726 79.0882 114.898 75.5466 Q113.092 71.9818 109.458 71.9818 M109.458 68.2781 Q115.268 68.2781 118.324 72.8845 Q121.402 77.4678 121.402 86.2178 Q121.402 94.9446 118.324 99.5511 Q115.268 104.134 109.458 104.134 Q103.648 104.134 100.569 99.5511 Q97.5135 94.9446 97.5135 86.2178 Q97.5135 77.4678 100.569 72.8845 Q103.648 68.2781 109.458 68.2781 Z" fill="#000000" fill-rule="evenodd" fill-opacity="1" /><circle clip-path="url(#clip232)" cx="265.803" cy="1384.15" r="14.4" fill="#009af9" fill-rule="evenodd" fill-opacity="1" stroke="#000000" stroke-opacity="1" stroke-width="3.072"/>
<circle clip-path="url(#clip232)" cx="215.419" cy="1384.15" r="14.4" fill="#009af9" fill-rule="evenodd" fill-opacity="1" stroke="#000000" stroke-opacity="1" stroke-width="3.072"/>
<circle clip-path="url(#clip232)" cx="235.97" cy="1384.15" r="14.4" fill="#009af9" fill-rule="evenodd" fill-opacity="1" stroke="#000000" stroke-opacity="1" stroke-width="3.072"/>
<circle clip-path="url(#clip232)" cx="659.243" cy="1384.15" r="14.4" fill="#009af9" fill-rule="evenodd" fill-opacity="1" stroke="#000000" stroke-opacity="1" stroke-width="3.072"/>
<circle clip-path="url(#clip232)" cx="448.737" cy="1384.15" r="14.4" fill="#009af9" fill-rule="evenodd" fill-opacity="1" stroke="#000000" stroke-opacity="1" stroke-width="3.072"/>
<circle clip-path="url(#clip232)" cx="715.778" cy="1384.15" r="14.4" fill="#009af9" fill-rule="evenodd" fill-opacity="1" stroke="#000000" stroke-opacity="1" stroke-width="3.072"/>
<circle clip-path="url(#clip232)" cx="316.528" cy="1384.15" r="14.4" fill="#009af9" fill-rule="evenodd" fill-opacity="1" stroke="#000000" stroke-opacity="1" stroke-width="3.072"/>
<circle clip-path="url(#clip232)" cx="341.24" cy="1384.15" r="14.4" fill="#009af9" fill-rule="evenodd" fill-opacity="1" stroke="#000000" stroke-opacity="1" stroke-width="3.072"/>
<circle clip-path="url(#clip232)" cx="557.506" cy="1384.15" r="14.4" fill="#009af9" fill-rule="evenodd" fill-opacity="1" stroke="#000000" stroke-opacity="1" stroke-width="3.072"/>
<circle clip-path="url(#clip232)" cx="361.524" cy="1384.15" r="14.4" fill="#009af9" fill-rule="evenodd" fill-opacity="1" stroke="#000000" stroke-opacity="1" stroke-width="3.072"/>
<circle clip-path="url(#clip232)" cx="346.453" cy="1384.15" r="14.4" fill="#009af9" fill-rule="evenodd" fill-opacity="1" stroke="#000000" stroke-opacity="1" stroke-width="3.072"/>
<circle clip-path="url(#clip232)" cx="312.506" cy="1384.15" r="14.4" fill="#009af9" fill-rule="evenodd" fill-opacity="1" stroke="#000000" stroke-opacity="1" stroke-width="3.072"/>
<circle clip-path="url(#clip232)" cx="264.183" cy="1384.15" r="14.4" fill="#009af9" fill-rule="evenodd" fill-opacity="1" stroke="#000000" stroke-opacity="1" stroke-width="3.072"/>
<circle clip-path="url(#clip232)" cx="300.518" cy="1384.15" r="14.4" fill="#009af9" fill-rule="evenodd" fill-opacity="1" stroke="#000000" stroke-opacity="1" stroke-width="3.072"/>
<circle clip-path="url(#clip232)" cx="293.525" cy="1384.15" r="14.4" fill="#009af9" fill-rule="evenodd" fill-opacity="1" stroke="#000000" stroke-opacity="1" stroke-width="3.072"/>
<circle clip-path="url(#clip232)" cx="528.153" cy="1384.15" r="14.4" fill="#009af9" fill-rule="evenodd" fill-opacity="1" stroke="#000000" stroke-opacity="1" stroke-width="3.072"/>
<circle clip-path="url(#clip232)" cx="718.582" cy="1384.15" r="14.4" fill="#009af9" fill-rule="evenodd" fill-opacity="1" stroke="#000000" stroke-opacity="1" stroke-width="3.072"/>
<circle clip-path="url(#clip232)" cx="497.392" cy="1384.15" r="14.4" fill="#009af9" fill-rule="evenodd" fill-opacity="1" stroke="#000000" stroke-opacity="1" stroke-width="3.072"/>
<circle clip-path="url(#clip232)" cx="393.205" cy="1384.15" r="14.4" fill="#009af9" fill-rule="evenodd" fill-opacity="1" stroke="#000000" stroke-opacity="1" stroke-width="3.072"/>
<circle clip-path="url(#clip232)" cx="481.075" cy="1384.15" r="14.4" fill="#009af9" fill-rule="evenodd" fill-opacity="1" stroke="#000000" stroke-opacity="1" stroke-width="3.072"/>
<circle clip-path="url(#clip232)" cx="674.756" cy="1384.15" r="14.4" fill="#009af9" fill-rule="evenodd" fill-opacity="1" stroke="#000000" stroke-opacity="1" stroke-width="3.072"/>
<circle clip-path="url(#clip232)" cx="232.995" cy="1384.15" r="14.4" fill="#009af9" fill-rule="evenodd" fill-opacity="1" stroke="#000000" stroke-opacity="1" stroke-width="3.072"/>
<circle clip-path="url(#clip232)" cx="303.479" cy="1384.15" r="14.4" fill="#009af9" fill-rule="evenodd" fill-opacity="1" stroke="#000000" stroke-opacity="1" stroke-width="3.072"/>
<circle clip-path="url(#clip232)" cx="571.267" cy="1384.15" r="14.4" fill="#009af9" fill-rule="evenodd" fill-opacity="1" stroke="#000000" stroke-opacity="1" stroke-width="3.072"/>
<circle clip-path="url(#clip232)" cx="320.518" cy="1384.15" r="14.4" fill="#009af9" fill-rule="evenodd" fill-opacity="1" stroke="#000000" stroke-opacity="1" stroke-width="3.072"/>
<circle clip-path="url(#clip232)" cx="255.444" cy="1384.15" r="14.4" fill="#009af9" fill-rule="evenodd" fill-opacity="1" stroke="#000000" stroke-opacity="1" stroke-width="3.072"/>
<circle clip-path="url(#clip232)" cx="537.836" cy="1384.15" r="14.4" fill="#009af9" fill-rule="evenodd" fill-opacity="1" stroke="#000000" stroke-opacity="1" stroke-width="3.072"/>
<circle clip-path="url(#clip232)" cx="611.325" cy="1384.15" r="14.4" fill="#009af9" fill-rule="evenodd" fill-opacity="1" stroke="#000000" stroke-opacity="1" stroke-width="3.072"/>
<circle clip-path="url(#clip232)" cx="414.044" cy="1384.15" r="14.4" fill="#009af9" fill-rule="evenodd" fill-opacity="1" stroke="#000000" stroke-opacity="1" stroke-width="3.072"/>
<circle clip-path="url(#clip232)" cx="680.318" cy="1384.15" r="14.4" fill="#009af9" fill-rule="evenodd" fill-opacity="1" stroke="#000000" stroke-opacity="1" stroke-width="3.072"/>
<circle clip-path="url(#clip232)" cx="271.743" cy="1384.15" r="14.4" fill="#009af9" fill-rule="evenodd" fill-opacity="1" stroke="#000000" stroke-opacity="1" stroke-width="3.072"/>
<circle clip-path="url(#clip232)" cx="699.566" cy="1384.15" r="14.4" fill="#009af9" fill-rule="evenodd" fill-opacity="1" stroke="#000000" stroke-opacity="1" stroke-width="3.072"/>
<circle clip-path="url(#clip232)" cx="401.078" cy="1384.15" r="14.4" fill="#009af9" fill-rule="evenodd" fill-opacity="1" stroke="#000000" stroke-opacity="1" stroke-width="3.072"/>
<circle clip-path="url(#clip232)" cx="714.778" cy="1384.15" r="14.4" fill="#009af9" fill-rule="evenodd" fill-opacity="1" stroke="#000000" stroke-opacity="1" stroke-width="3.072"/>
<circle clip-path="url(#clip232)" cx="471.636" cy="1384.15" r="14.4" fill="#009af9" fill-rule="evenodd" fill-opacity="1" stroke="#000000" stroke-opacity="1" stroke-width="3.072"/>
<circle clip-path="url(#clip232)" cx="438.866" cy="1384.15" r="14.4" fill="#009af9" fill-rule="evenodd" fill-opacity="1" stroke="#000000" stroke-opacity="1" stroke-width="3.072"/>
<circle clip-path="url(#clip232)" cx="356.246" cy="1384.15" r="14.4" fill="#009af9" fill-rule="evenodd" fill-opacity="1" stroke="#000000" stroke-opacity="1" stroke-width="3.072"/>
<circle clip-path="url(#clip232)" cx="670.589" cy="1384.15" r="14.4" fill="#009af9" fill-rule="evenodd" fill-opacity="1" stroke="#000000" stroke-opacity="1" stroke-width="3.072"/>
<circle clip-path="url(#clip232)" cx="540.23" cy="1384.15" r="14.4" fill="#009af9" fill-rule="evenodd" fill-opacity="1" stroke="#000000" stroke-opacity="1" stroke-width="3.072"/>
<circle clip-path="url(#clip232)" cx="399.786" cy="1384.15" r="14.4" fill="#009af9" fill-rule="evenodd" fill-opacity="1" stroke="#000000" stroke-opacity="1" stroke-width="3.072"/>
<circle clip-path="url(#clip232)" cx="363.552" cy="1384.15" r="14.4" fill="#009af9" fill-rule="evenodd" fill-opacity="1" stroke="#000000" stroke-opacity="1" stroke-width="3.072"/>
<circle clip-path="url(#clip232)" cx="739.474" cy="1384.15" r="14.4" fill="#009af9" fill-rule="evenodd" fill-opacity="1" stroke="#000000" stroke-opacity="1" stroke-width="3.072"/>
<circle clip-path="url(#clip232)" cx="571.682" cy="1384.15" r="14.4" fill="#009af9" fill-rule="evenodd" fill-opacity="1" stroke="#000000" stroke-opacity="1" stroke-width="3.072"/>
<circle clip-path="url(#clip232)" cx="759.037" cy="1384.15" r="14.4" fill="#009af9" fill-rule="evenodd" fill-opacity="1" stroke="#000000" stroke-opacity="1" stroke-width="3.072"/>
<circle clip-path="url(#clip232)" cx="590.716" cy="1384.15" r="14.4" fill="#009af9" fill-rule="evenodd" fill-opacity="1" stroke="#000000" stroke-opacity="1" stroke-width="3.072"/>
<circle clip-path="url(#clip232)" cx="799.097" cy="1384.15" r="14.4" fill="#009af9" fill-rule="evenodd" fill-opacity="1" stroke="#000000" stroke-opacity="1" stroke-width="3.072"/>
<circle clip-path="url(#clip232)" cx="476.638" cy="1384.15" r="14.4" fill="#009af9" fill-rule="evenodd" fill-opacity="1" stroke="#000000" stroke-opacity="1" stroke-width="3.072"/>
<circle clip-path="url(#clip232)" cx="846.511" cy="1384.15" r="14.4" fill="#009af9" fill-rule="evenodd" fill-opacity="1" stroke="#000000" stroke-opacity="1" stroke-width="3.072"/>
<circle clip-path="url(#clip232)" cx="806.401" cy="1384.15" r="14.4" fill="#009af9" fill-rule="evenodd" fill-opacity="1" stroke="#000000" stroke-opacity="1" stroke-width="3.072"/>
<circle clip-path="url(#clip232)" cx="947.899" cy="1384.15" r="14.4" fill="#009af9" fill-rule="evenodd" fill-opacity="1" stroke="#000000" stroke-opacity="1" stroke-width="3.072"/>
<circle clip-path="url(#clip232)" cx="938.649" cy="735.166" r="14.4" fill="#e26f46" fill-rule="evenodd" fill-opacity="1" stroke="#000000" stroke-opacity="1" stroke-width="3.072"/>
<circle clip-path="url(#clip232)" cx="733.349" cy="735.166" r="14.4" fill="#e26f46" fill-rule="evenodd" fill-opacity="1" stroke="#000000" stroke-opacity="1" stroke-width="3.072"/>
<circle clip-path="url(#clip232)" cx="1180.82" cy="735.166" r="14.4" fill="#e26f46" fill-rule="evenodd" fill-opacity="1" stroke="#000000" stroke-opacity="1" stroke-width="3.072"/>
<circle clip-path="url(#clip232)" cx="787.458" cy="735.166" r="14.4" fill="#e26f46" fill-rule="evenodd" fill-opacity="1" stroke="#000000" stroke-opacity="1" stroke-width="3.072"/>
<circle clip-path="url(#clip232)" cx="805.946" cy="735.166" r="14.4" fill="#e26f46" fill-rule="evenodd" fill-opacity="1" stroke="#000000" stroke-opacity="1" stroke-width="3.072"/>
<circle clip-path="url(#clip232)" cx="1242.56" cy="735.166" r="14.4" fill="#e26f46" fill-rule="evenodd" fill-opacity="1" stroke="#000000" stroke-opacity="1" stroke-width="3.072"/>
<circle clip-path="url(#clip232)" cx="1139.64" cy="735.166" r="14.4" fill="#e26f46" fill-rule="evenodd" fill-opacity="1" stroke="#000000" stroke-opacity="1" stroke-width="3.072"/>
<circle clip-path="url(#clip232)" cx="1287.81" cy="735.166" r="14.4" fill="#e26f46" fill-rule="evenodd" fill-opacity="1" stroke="#000000" stroke-opacity="1" stroke-width="3.072"/>
<circle clip-path="url(#clip232)" cx="1196.69" cy="735.166" r="14.4" fill="#e26f46" fill-rule="evenodd" fill-opacity="1" stroke="#000000" stroke-opacity="1" stroke-width="3.072"/>
<circle clip-path="url(#clip232)" cx="1028.16" cy="735.166" r="14.4" fill="#e26f46" fill-rule="evenodd" fill-opacity="1" stroke="#000000" stroke-opacity="1" stroke-width="3.072"/>
<circle clip-path="url(#clip232)" cx="1277.76" cy="735.166" r="14.4" fill="#e26f46" fill-rule="evenodd" fill-opacity="1" stroke="#000000" stroke-opacity="1" stroke-width="3.072"/>
<circle clip-path="url(#clip232)" cx="869.046" cy="735.166" r="14.4" fill="#e26f46" fill-rule="evenodd" fill-opacity="1" stroke="#000000" stroke-opacity="1" stroke-width="3.072"/>
<circle clip-path="url(#clip232)" cx="866.059" cy="735.166" r="14.4" fill="#e26f46" fill-rule="evenodd" fill-opacity="1" stroke="#000000" stroke-opacity="1" stroke-width="3.072"/>
<circle clip-path="url(#clip232)" cx="987.06" cy="735.166" r="14.4" fill="#e26f46" fill-rule="evenodd" fill-opacity="1" stroke="#000000" stroke-opacity="1" stroke-width="3.072"/>
<circle clip-path="url(#clip232)" cx="1107.69" cy="735.166" r="14.4" fill="#e26f46" fill-rule="evenodd" fill-opacity="1" stroke="#000000" stroke-opacity="1" stroke-width="3.072"/>
<circle clip-path="url(#clip232)" cx="1293.83" cy="735.166" r="14.4" fill="#e26f46" fill-rule="evenodd" fill-opacity="1" stroke="#000000" stroke-opacity="1" stroke-width="3.072"/>
<circle clip-path="url(#clip232)" cx="1092.33" cy="735.166" r="14.4" fill="#e26f46" fill-rule="evenodd" fill-opacity="1" stroke="#000000" stroke-opacity="1" stroke-width="3.072"/>
<circle clip-path="url(#clip232)" cx="998.799" cy="735.166" r="14.4" fill="#e26f46" fill-rule="evenodd" fill-opacity="1" stroke="#000000" stroke-opacity="1" stroke-width="3.072"/>
<circle clip-path="url(#clip232)" cx="1245.97" cy="735.166" r="14.4" fill="#e26f46" fill-rule="evenodd" fill-opacity="1" stroke="#000000" stroke-opacity="1" stroke-width="3.072"/>
<circle clip-path="url(#clip232)" cx="1124.77" cy="735.166" r="14.4" fill="#e26f46" fill-rule="evenodd" fill-opacity="1" stroke="#000000" stroke-opacity="1" stroke-width="3.072"/>
<circle clip-path="url(#clip232)" cx="1371.81" cy="735.166" r="14.4" fill="#e26f46" fill-rule="evenodd" fill-opacity="1" stroke="#000000" stroke-opacity="1" stroke-width="3.072"/>
<circle clip-path="url(#clip232)" cx="1183.98" cy="735.166" r="14.4" fill="#e26f46" fill-rule="evenodd" fill-opacity="1" stroke="#000000" stroke-opacity="1" stroke-width="3.072"/>
<circle clip-path="url(#clip232)" cx="1139.71" cy="735.166" r="14.4" fill="#e26f46" fill-rule="evenodd" fill-opacity="1" stroke="#000000" stroke-opacity="1" stroke-width="3.072"/>
<circle clip-path="url(#clip232)" cx="1166.49" cy="735.166" r="14.4" fill="#e26f46" fill-rule="evenodd" fill-opacity="1" stroke="#000000" stroke-opacity="1" stroke-width="3.072"/>
<circle clip-path="url(#clip232)" cx="1099.66" cy="735.166" r="14.4" fill="#e26f46" fill-rule="evenodd" fill-opacity="1" stroke="#000000" stroke-opacity="1" stroke-width="3.072"/>
<circle clip-path="url(#clip232)" cx="1175.3" cy="735.166" r="14.4" fill="#e26f46" fill-rule="evenodd" fill-opacity="1" stroke="#000000" stroke-opacity="1" stroke-width="3.072"/>
<circle clip-path="url(#clip232)" cx="1006.36" cy="735.166" r="14.4" fill="#e26f46" fill-rule="evenodd" fill-opacity="1" stroke="#000000" stroke-opacity="1" stroke-width="3.072"/>
<circle clip-path="url(#clip232)" cx="1029.85" cy="735.166" r="14.4" fill="#e26f46" fill-rule="evenodd" fill-opacity="1" stroke="#000000" stroke-opacity="1" stroke-width="3.072"/>
<circle clip-path="url(#clip232)" cx="1491.1" cy="735.166" r="14.4" fill="#e26f46" fill-rule="evenodd" fill-opacity="1" stroke="#000000" stroke-opacity="1" stroke-width="3.072"/>
<circle clip-path="url(#clip232)" cx="1235.94" cy="735.166" r="14.4" fill="#e26f46" fill-rule="evenodd" fill-opacity="1" stroke="#000000" stroke-opacity="1" stroke-width="3.072"/>
<circle clip-path="url(#clip232)" cx="1077.92" cy="735.166" r="14.4" fill="#e26f46" fill-rule="evenodd" fill-opacity="1" stroke="#000000" stroke-opacity="1" stroke-width="3.072"/>
<circle clip-path="url(#clip232)" cx="1321.56" cy="735.166" r="14.4" fill="#e26f46" fill-rule="evenodd" fill-opacity="1" stroke="#000000" stroke-opacity="1" stroke-width="3.072"/>
<circle clip-path="url(#clip232)" cx="1180.14" cy="735.166" r="14.4" fill="#e26f46" fill-rule="evenodd" fill-opacity="1" stroke="#000000" stroke-opacity="1" stroke-width="3.072"/>
<circle clip-path="url(#clip232)" cx="1248.19" cy="735.166" r="14.4" fill="#e26f46" fill-rule="evenodd" fill-opacity="1" stroke="#000000" stroke-opacity="1" stroke-width="3.072"/>
<circle clip-path="url(#clip232)" cx="1076.29" cy="735.166" r="14.4" fill="#e26f46" fill-rule="evenodd" fill-opacity="1" stroke="#000000" stroke-opacity="1" stroke-width="3.072"/>
<circle clip-path="url(#clip232)" cx="1358.58" cy="735.166" r="14.4" fill="#e26f46" fill-rule="evenodd" fill-opacity="1" stroke="#000000" stroke-opacity="1" stroke-width="3.072"/>
<circle clip-path="url(#clip232)" cx="1413.07" cy="735.166" r="14.4" fill="#e26f46" fill-rule="evenodd" fill-opacity="1" stroke="#000000" stroke-opacity="1" stroke-width="3.072"/>
<circle clip-path="url(#clip232)" cx="1529.47" cy="735.166" r="14.4" fill="#e26f46" fill-rule="evenodd" fill-opacity="1" stroke="#000000" stroke-opacity="1" stroke-width="3.072"/>
<circle clip-path="url(#clip232)" cx="1222.2" cy="735.166" r="14.4" fill="#e26f46" fill-rule="evenodd" fill-opacity="1" stroke="#000000" stroke-opacity="1" stroke-width="3.072"/>
<circle clip-path="url(#clip232)" cx="1366.83" cy="735.166" r="14.4" fill="#e26f46" fill-rule="evenodd" fill-opacity="1" stroke="#000000" stroke-opacity="1" stroke-width="3.072"/>
<circle clip-path="url(#clip232)" cx="1150.44" cy="735.166" r="14.4" fill="#e26f46" fill-rule="evenodd" fill-opacity="1" stroke="#000000" stroke-opacity="1" stroke-width="3.072"/>
<circle clip-path="url(#clip232)" cx="1493.51" cy="735.166" r="14.4" fill="#e26f46" fill-rule="evenodd" fill-opacity="1" stroke="#000000" stroke-opacity="1" stroke-width="3.072"/>
<circle clip-path="url(#clip232)" cx="1128.09" cy="735.166" r="14.4" fill="#e26f46" fill-rule="evenodd" fill-opacity="1" stroke="#000000" stroke-opacity="1" stroke-width="3.072"/>
<circle clip-path="url(#clip232)" cx="1545.91" cy="735.166" r="14.4" fill="#e26f46" fill-rule="evenodd" fill-opacity="1" stroke="#000000" stroke-opacity="1" stroke-width="3.072"/>
<circle clip-path="url(#clip232)" cx="1175" cy="735.166" r="14.4" fill="#e26f46" fill-rule="evenodd" fill-opacity="1" stroke="#000000" stroke-opacity="1" stroke-width="3.072"/>
<circle clip-path="url(#clip232)" cx="1563.04" cy="735.166" r="14.4" fill="#e26f46" fill-rule="evenodd" fill-opacity="1" stroke="#000000" stroke-opacity="1" stroke-width="3.072"/>
<circle clip-path="url(#clip232)" cx="1538.74" cy="735.166" r="14.4" fill="#e26f46" fill-rule="evenodd" fill-opacity="1" stroke="#000000" stroke-opacity="1" stroke-width="3.072"/>
<circle clip-path="url(#clip232)" cx="1517.82" cy="735.166" r="14.4" fill="#e26f46" fill-rule="evenodd" fill-opacity="1" stroke="#000000" stroke-opacity="1" stroke-width="3.072"/>
<circle clip-path="url(#clip232)" cx="1364.67" cy="735.166" r="14.4" fill="#e26f46" fill-rule="evenodd" fill-opacity="1" stroke="#000000" stroke-opacity="1" stroke-width="3.072"/>
<circle clip-path="url(#clip232)" cx="1495.07" cy="735.166" r="14.4" fill="#e26f46" fill-rule="evenodd" fill-opacity="1" stroke="#000000" stroke-opacity="1" stroke-width="3.072"/>
<circle clip-path="url(#clip232)" cx="1245.4" cy="86.1831" r="14.4" fill="#3da44d" fill-rule="evenodd" fill-opacity="1" stroke="#000000" stroke-opacity="1" stroke-width="3.072"/>
<circle clip-path="url(#clip232)" cx="1217.71" cy="86.1831" r="14.4" fill="#3da44d" fill-rule="evenodd" fill-opacity="1" stroke="#000000" stroke-opacity="1" stroke-width="3.072"/>
<circle clip-path="url(#clip232)" cx="1190.61" cy="86.1831" r="14.4" fill="#3da44d" fill-rule="evenodd" fill-opacity="1" stroke="#000000" stroke-opacity="1" stroke-width="3.072"/>
<circle clip-path="url(#clip232)" cx="1293.4" cy="86.1831" r="14.4" fill="#3da44d" fill-rule="evenodd" fill-opacity="1" stroke="#000000" stroke-opacity="1" stroke-width="3.072"/>
<circle clip-path="url(#clip232)" cx="1359.45" cy="86.1831" r="14.4" fill="#3da44d" fill-rule="evenodd" fill-opacity="1" stroke="#000000" stroke-opacity="1" stroke-width="3.072"/>
<circle clip-path="url(#clip232)" cx="1302.31" cy="86.1831" r="14.4" fill="#3da44d" fill-rule="evenodd" fill-opacity="1" stroke="#000000" stroke-opacity="1" stroke-width="3.072"/>
<circle clip-path="url(#clip232)" cx="1528.76" cy="86.1831" r="14.4" fill="#3da44d" fill-rule="evenodd" fill-opacity="1" stroke="#000000" stroke-opacity="1" stroke-width="3.072"/>
<circle clip-path="url(#clip232)" cx="1352.04" cy="86.1831" r="14.4" fill="#3da44d" fill-rule="evenodd" fill-opacity="1" stroke="#000000" stroke-opacity="1" stroke-width="3.072"/>
<circle clip-path="url(#clip232)" cx="1399.05" cy="86.1831" r="14.4" fill="#3da44d" fill-rule="evenodd" fill-opacity="1" stroke="#000000" stroke-opacity="1" stroke-width="3.072"/>
<circle clip-path="url(#clip232)" cx="1661.19" cy="86.1831" r="14.4" fill="#3da44d" fill-rule="evenodd" fill-opacity="1" stroke="#000000" stroke-opacity="1" stroke-width="3.072"/>
<circle clip-path="url(#clip232)" cx="1545.04" cy="86.1831" r="14.4" fill="#3da44d" fill-rule="evenodd" fill-opacity="1" stroke="#000000" stroke-opacity="1" stroke-width="3.072"/>
<circle clip-path="url(#clip232)" cx="1538.5" cy="86.1831" r="14.4" fill="#3da44d" fill-rule="evenodd" fill-opacity="1" stroke="#000000" stroke-opacity="1" stroke-width="3.072"/>
<circle clip-path="url(#clip232)" cx="1715.83" cy="86.1831" r="14.4" fill="#3da44d" fill-rule="evenodd" fill-opacity="1" stroke="#000000" stroke-opacity="1" stroke-width="3.072"/>
<circle clip-path="url(#clip232)" cx="1707.78" cy="86.1831" r="14.4" fill="#3da44d" fill-rule="evenodd" fill-opacity="1" stroke="#000000" stroke-opacity="1" stroke-width="3.072"/>
<circle clip-path="url(#clip232)" cx="1626.11" cy="86.1831" r="14.4" fill="#3da44d" fill-rule="evenodd" fill-opacity="1" stroke="#000000" stroke-opacity="1" stroke-width="3.072"/>
<circle clip-path="url(#clip232)" cx="1473.3" cy="86.1831" r="14.4" fill="#3da44d" fill-rule="evenodd" fill-opacity="1" stroke="#000000" stroke-opacity="1" stroke-width="3.072"/>
<circle clip-path="url(#clip232)" cx="1479.13" cy="86.1831" r="14.4" fill="#3da44d" fill-rule="evenodd" fill-opacity="1" stroke="#000000" stroke-opacity="1" stroke-width="3.072"/>
<circle clip-path="url(#clip232)" cx="1804.29" cy="86.1831" r="14.4" fill="#3da44d" fill-rule="evenodd" fill-opacity="1" stroke="#000000" stroke-opacity="1" stroke-width="3.072"/>
<circle clip-path="url(#clip232)" cx="1810.49" cy="86.1831" r="14.4" fill="#3da44d" fill-rule="evenodd" fill-opacity="1" stroke="#000000" stroke-opacity="1" stroke-width="3.072"/>
<circle clip-path="url(#clip232)" cx="1584.94" cy="86.1831" r="14.4" fill="#3da44d" fill-rule="evenodd" fill-opacity="1" stroke="#000000" stroke-opacity="1" stroke-width="3.072"/>
<circle clip-path="url(#clip232)" cx="1663.67" cy="86.1831" r="14.4" fill="#3da44d" fill-rule="evenodd" fill-opacity="1" stroke="#000000" stroke-opacity="1" stroke-width="3.072"/>
<circle clip-path="url(#clip232)" cx="1401.63" cy="86.1831" r="14.4" fill="#3da44d" fill-rule="evenodd" fill-opacity="1" stroke="#000000" stroke-opacity="1" stroke-width="3.072"/>
<circle clip-path="url(#clip232)" cx="1667.46" cy="86.1831" r="14.4" fill="#3da44d" fill-rule="evenodd" fill-opacity="1" stroke="#000000" stroke-opacity="1" stroke-width="3.072"/>
<circle clip-path="url(#clip232)" cx="1806.06" cy="86.1831" r="14.4" fill="#3da44d" fill-rule="evenodd" fill-opacity="1" stroke="#000000" stroke-opacity="1" stroke-width="3.072"/>
<circle clip-path="url(#clip232)" cx="1421.79" cy="86.1831" r="14.4" fill="#3da44d" fill-rule="evenodd" fill-opacity="1" stroke="#000000" stroke-opacity="1" stroke-width="3.072"/>
<circle clip-path="url(#clip232)" cx="1683.44" cy="86.1831" r="14.4" fill="#3da44d" fill-rule="evenodd" fill-opacity="1" stroke="#000000" stroke-opacity="1" stroke-width="3.072"/>
<circle clip-path="url(#clip232)" cx="1746.02" cy="86.1831" r="14.4" fill="#3da44d" fill-rule="evenodd" fill-opacity="1" stroke="#000000" stroke-opacity="1" stroke-width="3.072"/>
<circle clip-path="url(#clip232)" cx="1644.4" cy="86.1831" r="14.4" fill="#3da44d" fill-rule="evenodd" fill-opacity="1" stroke="#000000" stroke-opacity="1" stroke-width="3.072"/>
<circle clip-path="url(#clip232)" cx="1947.37" cy="86.1831" r="14.4" fill="#3da44d" fill-rule="evenodd" fill-opacity="1" stroke="#000000" stroke-opacity="1" stroke-width="3.072"/>
<circle clip-path="url(#clip232)" cx="1879.04" cy="86.1831" r="14.4" fill="#3da44d" fill-rule="evenodd" fill-opacity="1" stroke="#000000" stroke-opacity="1" stroke-width="3.072"/>
<circle clip-path="url(#clip232)" cx="1627.1" cy="86.1831" r="14.4" fill="#3da44d" fill-rule="evenodd" fill-opacity="1" stroke="#000000" stroke-opacity="1" stroke-width="3.072"/>
<circle clip-path="url(#clip232)" cx="1787.43" cy="86.1831" r="14.4" fill="#3da44d" fill-rule="evenodd" fill-opacity="1" stroke="#000000" stroke-opacity="1" stroke-width="3.072"/>
<circle clip-path="url(#clip232)" cx="1917.81" cy="86.1831" r="14.4" fill="#3da44d" fill-rule="evenodd" fill-opacity="1" stroke="#000000" stroke-opacity="1" stroke-width="3.072"/>
<circle clip-path="url(#clip232)" cx="1578.68" cy="86.1831" r="14.4" fill="#3da44d" fill-rule="evenodd" fill-opacity="1" stroke="#000000" stroke-opacity="1" stroke-width="3.072"/>
<circle clip-path="url(#clip232)" cx="1523.4" cy="86.1831" r="14.4" fill="#3da44d" fill-rule="evenodd" fill-opacity="1" stroke="#000000" stroke-opacity="1" stroke-width="3.072"/>
<circle clip-path="url(#clip232)" cx="1727.78" cy="86.1831" r="14.4" fill="#3da44d" fill-rule="evenodd" fill-opacity="1" stroke="#000000" stroke-opacity="1" stroke-width="3.072"/>
<circle clip-path="url(#clip232)" cx="2067.62" cy="86.1831" r="14.4" fill="#3da44d" fill-rule="evenodd" fill-opacity="1" stroke="#000000" stroke-opacity="1" stroke-width="3.072"/>
<circle clip-path="url(#clip232)" cx="1961.65" cy="86.1831" r="14.4" fill="#3da44d" fill-rule="evenodd" fill-opacity="1" stroke="#000000" stroke-opacity="1" stroke-width="3.072"/>
<circle clip-path="url(#clip232)" cx="1661.73" cy="86.1831" r="14.4" fill="#3da44d" fill-rule="evenodd" fill-opacity="1" stroke="#000000" stroke-opacity="1" stroke-width="3.072"/>
<circle clip-path="url(#clip232)" cx="2014.16" cy="86.1831" r="14.4" fill="#3da44d" fill-rule="evenodd" fill-opacity="1" stroke="#000000" stroke-opacity="1" stroke-width="3.072"/>
<circle clip-path="url(#clip232)" cx="1944.64" cy="86.1831" r="14.4" fill="#3da44d" fill-rule="evenodd" fill-opacity="1" stroke="#000000" stroke-opacity="1" stroke-width="3.072"/>
<circle clip-path="url(#clip232)" cx="1863.84" cy="86.1831" r="14.4" fill="#3da44d" fill-rule="evenodd" fill-opacity="1" stroke="#000000" stroke-opacity="1" stroke-width="3.072"/>
<circle clip-path="url(#clip232)" cx="1599.03" cy="86.1831" r="14.4" fill="#3da44d" fill-rule="evenodd" fill-opacity="1" stroke="#000000" stroke-opacity="1" stroke-width="3.072"/>
<circle clip-path="url(#clip232)" cx="1617.89" cy="86.1831" r="14.4" fill="#3da44d" fill-rule="evenodd" fill-opacity="1" stroke="#000000" stroke-opacity="1" stroke-width="3.072"/>
<circle clip-path="url(#clip232)" cx="1713.58" cy="86.1831" r="14.4" fill="#3da44d" fill-rule="evenodd" fill-opacity="1" stroke="#000000" stroke-opacity="1" stroke-width="3.072"/>
<circle clip-path="url(#clip232)" cx="2086.64" cy="86.1831" r="14.4" fill="#3da44d" fill-rule="evenodd" fill-opacity="1" stroke="#000000" stroke-opacity="1" stroke-width="3.072"/>
<circle clip-path="url(#clip232)" cx="2088.39" cy="86.1831" r="14.4" fill="#3da44d" fill-rule="evenodd" fill-opacity="1" stroke="#000000" stroke-opacity="1" stroke-width="3.072"/>
<circle clip-path="url(#clip232)" cx="1843.79" cy="86.1831" r="14.4" fill="#3da44d" fill-rule="evenodd" fill-opacity="1" stroke="#000000" stroke-opacity="1" stroke-width="3.072"/>
<circle clip-path="url(#clip232)" cx="2197.3" cy="86.1831" r="14.4" fill="#3da44d" fill-rule="evenodd" fill-opacity="1" stroke="#000000" stroke-opacity="1" stroke-width="3.072"/>
<circle clip-path="url(#clip232)" cx="1948.4" cy="86.1831" r="14.4" fill="#3da44d" fill-rule="evenodd" fill-opacity="1" stroke="#000000" stroke-opacity="1" stroke-width="3.072"/>
<path clip-path="url(#clip230)" d="
M1746.74 1377.23 L2186.73 1377.23 L2186.73 1169.87 L1746.74 1169.87  Z
  " fill="#ffffff" fill-rule="evenodd" fill-opacity="1"/>
<polyline clip-path="url(#clip230)" style="stroke:#000000; stroke-linecap:round; stroke-linejoin:round; stroke-width:4; stroke-opacity:1; fill:none" points="
  1746.74,1377.23 2186.73,1377.23 2186.73,1169.87 1746.74,1169.87 1746.74,1377.23 
  "/>
<circle clip-path="url(#clip230)" cx="1840.11" cy="1221.71" r="23.04" fill="#009af9" fill-rule="evenodd" fill-opacity="1" stroke="#000000" stroke-opacity="1" stroke-width="4.9152"/>
<path clip-path="url(#clip230)" d="M1951.91 1213.82 L1951.91 1217.85 Q1950.1 1216.93 1948.16 1216.46 Q1946.21 1216 1944.13 1216 Q1940.96 1216 1939.36 1216.97 Q1937.79 1217.94 1937.79 1219.89 Q1937.79 1221.37 1938.92 1222.23 Q1940.06 1223.06 1943.48 1223.82 L1944.94 1224.15 Q1949.48 1225.12 1951.37 1226.9 Q1953.3 1228.66 1953.3 1231.83 Q1953.3 1235.44 1950.43 1237.55 Q1947.58 1239.66 1942.58 1239.66 Q1940.49 1239.66 1938.23 1239.24 Q1935.98 1238.85 1933.48 1238.04 L1933.48 1233.64 Q1935.84 1234.87 1938.13 1235.49 Q1940.43 1236.09 1942.67 1236.09 Q1945.68 1236.09 1947.3 1235.07 Q1948.92 1234.03 1948.92 1232.16 Q1948.92 1230.42 1947.74 1229.5 Q1946.58 1228.57 1942.62 1227.71 L1941.14 1227.37 Q1937.18 1226.53 1935.43 1224.82 Q1933.67 1223.08 1933.67 1220.07 Q1933.67 1216.42 1936.26 1214.43 Q1938.85 1212.44 1943.62 1212.44 Q1945.98 1212.44 1948.06 1212.78 Q1950.15 1213.13 1951.91 1213.82 Z" fill="#000000" fill-rule="evenodd" fill-opacity="1" /><path clip-path="url(#clip230)" d="M1982.25 1224.96 L1982.25 1227.04 L1962.67 1227.04 Q1962.95 1231.44 1965.31 1233.75 Q1967.69 1236.05 1971.93 1236.05 Q1974.38 1236.05 1976.68 1235.44 Q1978.99 1234.84 1981.26 1233.64 L1981.26 1237.67 Q1978.97 1238.64 1976.56 1239.15 Q1974.15 1239.66 1971.68 1239.66 Q1965.47 1239.66 1961.84 1236.05 Q1958.23 1232.44 1958.23 1226.28 Q1958.23 1219.91 1961.65 1216.19 Q1965.1 1212.44 1970.93 1212.44 Q1976.17 1212.44 1979.2 1215.82 Q1982.25 1219.17 1982.25 1224.96 M1977.99 1223.71 Q1977.95 1220.21 1976.03 1218.13 Q1974.13 1216.05 1970.98 1216.05 Q1967.42 1216.05 1965.26 1218.06 Q1963.13 1220.07 1962.81 1223.73 L1977.99 1223.71 Z" fill="#000000" fill-rule="evenodd" fill-opacity="1" /><path clip-path="url(#clip230)" d="M1993.46 1205.7 L1993.46 1213.06 L2002.23 1213.06 L2002.23 1216.37 L1993.46 1216.37 L1993.46 1230.44 Q1993.46 1233.62 1994.31 1234.52 Q1995.19 1235.42 1997.86 1235.42 L2002.23 1235.42 L2002.23 1238.99 L1997.86 1238.99 Q1992.93 1238.99 1991.05 1237.16 Q1989.18 1235.31 1989.18 1230.44 L1989.18 1216.37 L1986.05 1216.37 L1986.05 1213.06 L1989.18 1213.06 L1989.18 1205.7 L1993.46 1205.7 Z" fill="#000000" fill-rule="evenodd" fill-opacity="1" /><path clip-path="url(#clip230)" d="M2017.88 1216.05 Q2014.45 1216.05 2012.46 1218.73 Q2010.47 1221.39 2010.47 1226.05 Q2010.47 1230.7 2012.44 1233.38 Q2014.43 1236.05 2017.88 1236.05 Q2021.28 1236.05 2023.27 1233.36 Q2025.26 1230.68 2025.26 1226.05 Q2025.26 1221.44 2023.27 1218.76 Q2021.28 1216.05 2017.88 1216.05 M2017.88 1212.44 Q2023.43 1212.44 2026.61 1216.05 Q2029.78 1219.66 2029.78 1226.05 Q2029.78 1232.41 2026.61 1236.05 Q2023.43 1239.66 2017.88 1239.66 Q2012.3 1239.66 2009.13 1236.05 Q2005.98 1232.41 2005.98 1226.05 Q2005.98 1219.66 2009.13 1216.05 Q2012.3 1212.44 2017.88 1212.44 Z" fill="#000000" fill-rule="evenodd" fill-opacity="1" /><path clip-path="url(#clip230)" d="M2053.36 1213.82 L2053.36 1217.85 Q2051.56 1216.93 2049.61 1216.46 Q2047.67 1216 2045.59 1216 Q2042.42 1216 2040.82 1216.97 Q2039.24 1217.94 2039.24 1219.89 Q2039.24 1221.37 2040.38 1222.23 Q2041.51 1223.06 2044.94 1223.82 L2046.4 1224.15 Q2050.93 1225.12 2052.83 1226.9 Q2054.75 1228.66 2054.75 1231.83 Q2054.75 1235.44 2051.88 1237.55 Q2049.04 1239.66 2044.04 1239.66 Q2041.95 1239.66 2039.68 1239.24 Q2037.44 1238.85 2034.94 1238.04 L2034.94 1233.64 Q2037.3 1234.87 2039.59 1235.49 Q2041.88 1236.09 2044.13 1236.09 Q2047.14 1236.09 2048.76 1235.07 Q2050.38 1234.03 2050.38 1232.16 Q2050.38 1230.42 2049.2 1229.5 Q2048.04 1228.57 2044.08 1227.71 L2042.6 1227.37 Q2038.64 1226.53 2036.88 1224.82 Q2035.12 1223.08 2035.12 1220.07 Q2035.12 1216.42 2037.72 1214.43 Q2040.31 1212.44 2045.08 1212.44 Q2047.44 1212.44 2049.52 1212.78 Q2051.61 1213.13 2053.36 1213.82 Z" fill="#000000" fill-rule="evenodd" fill-opacity="1" /><path clip-path="url(#clip230)" d="M2073.32 1225.95 Q2068.16 1225.95 2066.17 1227.13 Q2064.17 1228.32 2064.17 1231.16 Q2064.17 1233.43 2065.66 1234.77 Q2067.16 1236.09 2069.73 1236.09 Q2073.27 1236.09 2075.4 1233.59 Q2077.55 1231.07 2077.55 1226.9 L2077.55 1225.95 L2073.32 1225.95 M2081.81 1224.19 L2081.81 1238.99 L2077.55 1238.99 L2077.55 1235.05 Q2076.1 1237.41 2073.92 1238.55 Q2071.74 1239.66 2068.6 1239.66 Q2064.61 1239.66 2062.25 1237.44 Q2059.92 1235.19 2059.92 1231.44 Q2059.92 1227.07 2062.83 1224.84 Q2065.77 1222.62 2071.58 1222.62 L2077.55 1222.62 L2077.55 1222.2 Q2077.55 1219.26 2075.61 1217.67 Q2073.69 1216.05 2070.19 1216.05 Q2067.97 1216.05 2065.86 1216.58 Q2063.76 1217.11 2061.81 1218.18 L2061.81 1214.24 Q2064.15 1213.34 2066.35 1212.9 Q2068.55 1212.44 2070.63 1212.44 Q2076.26 1212.44 2079.04 1215.35 Q2081.81 1218.27 2081.81 1224.19 Z" fill="#000000" fill-rule="evenodd" fill-opacity="1" /><circle clip-path="url(#clip230)" cx="1840.11" cy="1273.55" r="23.04" fill="#e26f46" fill-rule="evenodd" fill-opacity="1" stroke="#000000" stroke-opacity="1" stroke-width="4.9152"/>
<path clip-path="url(#clip230)" d="M1933.48 1264.9 L1937.99 1264.9 L1946.1 1286.66 L1954.2 1264.9 L1958.71 1264.9 L1948.99 1290.83 L1943.2 1290.83 L1933.48 1264.9 Z" fill="#000000" fill-rule="evenodd" fill-opacity="1" /><path clip-path="url(#clip230)" d="M1986.77 1276.8 L1986.77 1278.88 L1967.18 1278.88 Q1967.46 1283.28 1969.82 1285.59 Q1972.21 1287.89 1976.44 1287.89 Q1978.9 1287.89 1981.19 1287.28 Q1983.5 1286.68 1985.77 1285.48 L1985.77 1289.51 Q1983.48 1290.48 1981.07 1290.99 Q1978.67 1291.5 1976.19 1291.5 Q1969.99 1291.5 1966.35 1287.89 Q1962.74 1284.28 1962.74 1278.12 Q1962.74 1271.75 1966.17 1268.03 Q1969.62 1264.28 1975.45 1264.28 Q1980.68 1264.28 1983.71 1267.66 Q1986.77 1271.01 1986.77 1276.8 M1982.51 1275.55 Q1982.46 1272.05 1980.54 1269.97 Q1978.64 1267.89 1975.49 1267.89 Q1971.93 1267.89 1969.78 1269.9 Q1967.65 1271.91 1967.32 1275.57 L1982.51 1275.55 Z" fill="#000000" fill-rule="evenodd" fill-opacity="1" /><path clip-path="url(#clip230)" d="M2008.78 1268.88 Q2008.06 1268.47 2007.21 1268.28 Q2006.37 1268.07 2005.36 1268.07 Q2001.74 1268.07 1999.8 1270.43 Q1997.88 1272.77 1997.88 1277.17 L1997.88 1290.83 L1993.6 1290.83 L1993.6 1264.9 L1997.88 1264.9 L1997.88 1268.93 Q1999.22 1266.57 2001.37 1265.43 Q2003.53 1264.28 2006.61 1264.28 Q2007.05 1264.28 2007.58 1264.35 Q2008.11 1264.39 2008.76 1264.51 L2008.78 1268.88 Z" fill="#000000" fill-rule="evenodd" fill-opacity="1" /><path clip-path="url(#clip230)" d="M2029.78 1265.66 L2029.78 1269.69 Q2027.97 1268.77 2026.03 1268.3 Q2024.08 1267.84 2022 1267.84 Q2018.83 1267.84 2017.23 1268.81 Q2015.66 1269.78 2015.66 1271.73 Q2015.66 1273.21 2016.79 1274.07 Q2017.93 1274.9 2021.35 1275.66 L2022.81 1275.99 Q2027.35 1276.96 2029.24 1278.74 Q2031.17 1280.5 2031.17 1283.67 Q2031.17 1287.28 2028.3 1289.39 Q2025.45 1291.5 2020.45 1291.5 Q2018.36 1291.5 2016.1 1291.08 Q2013.85 1290.69 2011.35 1289.88 L2011.35 1285.48 Q2013.71 1286.71 2016 1287.33 Q2018.3 1287.93 2020.54 1287.93 Q2023.55 1287.93 2025.17 1286.91 Q2026.79 1285.87 2026.79 1284 Q2026.79 1282.26 2025.61 1281.34 Q2024.45 1280.41 2020.49 1279.55 L2019.01 1279.21 Q2015.05 1278.37 2013.3 1276.66 Q2011.54 1274.92 2011.54 1271.91 Q2011.54 1268.26 2014.13 1266.27 Q2016.72 1264.28 2021.49 1264.28 Q2023.85 1264.28 2025.93 1264.62 Q2028.02 1264.97 2029.78 1265.66 Z" fill="#000000" fill-rule="evenodd" fill-opacity="1" /><path clip-path="url(#clip230)" d="M2037.95 1264.9 L2042.21 1264.9 L2042.21 1290.83 L2037.95 1290.83 L2037.95 1264.9 M2037.95 1254.81 L2042.21 1254.81 L2042.21 1260.2 L2037.95 1260.2 L2037.95 1254.81 Z" fill="#000000" fill-rule="evenodd" fill-opacity="1" /><path clip-path="url(#clip230)" d="M2069.78 1265.9 L2069.78 1269.88 Q2067.97 1268.88 2066.14 1268.4 Q2064.34 1267.89 2062.49 1267.89 Q2058.34 1267.89 2056.05 1270.53 Q2053.76 1273.14 2053.76 1277.89 Q2053.76 1282.63 2056.05 1285.27 Q2058.34 1287.89 2062.49 1287.89 Q2064.34 1287.89 2066.14 1287.4 Q2067.97 1286.89 2069.78 1285.9 L2069.78 1289.83 Q2067.99 1290.66 2066.07 1291.08 Q2064.17 1291.5 2062.02 1291.5 Q2056.17 1291.5 2052.72 1287.82 Q2049.27 1284.14 2049.27 1277.89 Q2049.27 1271.54 2052.74 1267.91 Q2056.24 1264.28 2062.3 1264.28 Q2064.27 1264.28 2066.14 1264.69 Q2068.02 1265.09 2069.78 1265.9 Z" fill="#000000" fill-rule="evenodd" fill-opacity="1" /><path clip-path="url(#clip230)" d="M2087.23 1267.89 Q2083.8 1267.89 2081.81 1270.57 Q2079.82 1273.23 2079.82 1277.89 Q2079.82 1282.54 2081.79 1285.22 Q2083.78 1287.89 2087.23 1287.89 Q2090.63 1287.89 2092.62 1285.2 Q2094.61 1282.52 2094.61 1277.89 Q2094.61 1273.28 2092.62 1270.6 Q2090.63 1267.89 2087.23 1267.89 M2087.23 1264.28 Q2092.79 1264.28 2095.96 1267.89 Q2099.13 1271.5 2099.13 1277.89 Q2099.13 1284.25 2095.96 1287.89 Q2092.79 1291.5 2087.23 1291.5 Q2081.65 1291.5 2078.48 1287.89 Q2075.33 1284.25 2075.33 1277.89 Q2075.33 1271.5 2078.48 1267.89 Q2081.65 1264.28 2087.23 1264.28 Z" fill="#000000" fill-rule="evenodd" fill-opacity="1" /><path clip-path="url(#clip230)" d="M2106.19 1254.81 L2110.45 1254.81 L2110.45 1290.83 L2106.19 1290.83 L2106.19 1254.81 Z" fill="#000000" fill-rule="evenodd" fill-opacity="1" /><path clip-path="url(#clip230)" d="M2129.41 1267.89 Q2125.98 1267.89 2123.99 1270.57 Q2122 1273.23 2122 1277.89 Q2122 1282.54 2123.97 1285.22 Q2125.96 1287.89 2129.41 1287.89 Q2132.81 1287.89 2134.8 1285.2 Q2136.79 1282.52 2136.79 1277.89 Q2136.79 1273.28 2134.8 1270.6 Q2132.81 1267.89 2129.41 1267.89 M2129.41 1264.28 Q2134.96 1264.28 2138.13 1267.89 Q2141.3 1271.5 2141.3 1277.89 Q2141.3 1284.25 2138.13 1287.89 Q2134.96 1291.5 2129.41 1291.5 Q2123.83 1291.5 2120.66 1287.89 Q2117.51 1284.25 2117.51 1277.89 Q2117.51 1271.5 2120.66 1267.89 Q2123.83 1264.28 2129.41 1264.28 Z" fill="#000000" fill-rule="evenodd" fill-opacity="1" /><path clip-path="url(#clip230)" d="M2163.39 1268.88 Q2162.67 1268.47 2161.81 1268.28 Q2160.98 1268.07 2159.96 1268.07 Q2156.35 1268.07 2154.41 1270.43 Q2152.48 1272.77 2152.48 1277.17 L2152.48 1290.83 L2148.2 1290.83 L2148.2 1264.9 L2152.48 1264.9 L2152.48 1268.93 Q2153.83 1266.57 2155.98 1265.43 Q2158.13 1264.28 2161.21 1264.28 Q2161.65 1264.28 2162.18 1264.35 Q2162.72 1264.39 2163.36 1264.51 L2163.39 1268.88 Z" fill="#000000" fill-rule="evenodd" fill-opacity="1" /><circle clip-path="url(#clip230)" cx="1840.11" cy="1325.39" r="23.04" fill="#3da44d" fill-rule="evenodd" fill-opacity="1" stroke="#000000" stroke-opacity="1" stroke-width="4.9152"/>
<path clip-path="url(#clip230)" d="M1933.48 1316.74 L1937.99 1316.74 L1946.1 1338.5 L1954.2 1316.74 L1958.71 1316.74 L1948.99 1342.67 L1943.2 1342.67 L1933.48 1316.74 Z" fill="#000000" fill-rule="evenodd" fill-opacity="1" /><path clip-path="url(#clip230)" d="M1964.59 1316.74 L1968.85 1316.74 L1968.85 1342.67 L1964.59 1342.67 L1964.59 1316.74 M1964.59 1306.65 L1968.85 1306.65 L1968.85 1312.04 L1964.59 1312.04 L1964.59 1306.65 Z" fill="#000000" fill-rule="evenodd" fill-opacity="1" /><path clip-path="url(#clip230)" d="M1992.79 1320.72 Q1992.07 1320.31 1991.21 1320.12 Q1990.38 1319.91 1989.36 1319.91 Q1985.75 1319.91 1983.8 1322.27 Q1981.88 1324.61 1981.88 1329.01 L1981.88 1342.67 L1977.6 1342.67 L1977.6 1316.74 L1981.88 1316.74 L1981.88 1320.77 Q1983.23 1318.41 1985.38 1317.27 Q1987.53 1316.12 1990.61 1316.12 Q1991.05 1316.12 1991.58 1316.19 Q1992.12 1316.23 1992.76 1316.35 L1992.79 1320.72 Z" fill="#000000" fill-rule="evenodd" fill-opacity="1" /><path clip-path="url(#clip230)" d="M2013.48 1329.4 Q2013.48 1324.77 2011.56 1322.23 Q2009.66 1319.68 2006.21 1319.68 Q2002.79 1319.68 2000.87 1322.23 Q1998.97 1324.77 1998.97 1329.4 Q1998.97 1334.01 2000.87 1336.56 Q2002.79 1339.1 2006.21 1339.1 Q2009.66 1339.1 2011.56 1336.56 Q2013.48 1334.01 2013.48 1329.4 M2017.74 1339.45 Q2017.74 1346.07 2014.8 1349.29 Q2011.86 1352.53 2005.8 1352.53 Q2003.55 1352.53 2001.56 1352.18 Q1999.57 1351.86 1997.69 1351.16 L1997.69 1347.02 Q1999.57 1348.04 2001.4 1348.52 Q2003.23 1349.01 2005.12 1349.01 Q2009.31 1349.01 2011.4 1346.81 Q2013.48 1344.63 2013.48 1340.21 L2013.48 1338.11 Q2012.16 1340.4 2010.1 1341.53 Q2008.04 1342.67 2005.17 1342.67 Q2000.4 1342.67 1997.49 1339.03 Q1994.57 1335.4 1994.57 1329.4 Q1994.57 1323.38 1997.49 1319.75 Q2000.4 1316.12 2005.17 1316.12 Q2008.04 1316.12 2010.1 1317.25 Q2012.16 1318.38 2013.48 1320.68 L2013.48 1316.74 L2017.74 1316.74 L2017.74 1339.45 Z" fill="#000000" fill-rule="evenodd" fill-opacity="1" /><path clip-path="url(#clip230)" d="M2026.51 1316.74 L2030.77 1316.74 L2030.77 1342.67 L2026.51 1342.67 L2026.51 1316.74 M2026.51 1306.65 L2030.77 1306.65 L2030.77 1312.04 L2026.51 1312.04 L2026.51 1306.65 Z" fill="#000000" fill-rule="evenodd" fill-opacity="1" /><path clip-path="url(#clip230)" d="M2061.24 1327.02 L2061.24 1342.67 L2056.98 1342.67 L2056.98 1327.16 Q2056.98 1323.48 2055.54 1321.65 Q2054.11 1319.82 2051.24 1319.82 Q2047.79 1319.82 2045.8 1322.02 Q2043.8 1324.22 2043.8 1328.01 L2043.8 1342.67 L2039.52 1342.67 L2039.52 1316.74 L2043.8 1316.74 L2043.8 1320.77 Q2045.33 1318.43 2047.39 1317.27 Q2049.48 1316.12 2052.18 1316.12 Q2056.65 1316.12 2058.94 1318.89 Q2061.24 1321.65 2061.24 1327.02 Z" fill="#000000" fill-rule="evenodd" fill-opacity="1" /><path clip-path="url(#clip230)" d="M2069.73 1316.74 L2073.99 1316.74 L2073.99 1342.67 L2069.73 1342.67 L2069.73 1316.74 M2069.73 1306.65 L2073.99 1306.65 L2073.99 1312.04 L2069.73 1312.04 L2069.73 1306.65 Z" fill="#000000" fill-rule="evenodd" fill-opacity="1" /><path clip-path="url(#clip230)" d="M2101.56 1317.74 L2101.56 1321.72 Q2099.75 1320.72 2097.92 1320.24 Q2096.12 1319.73 2094.27 1319.73 Q2090.12 1319.73 2087.83 1322.37 Q2085.54 1324.98 2085.54 1329.73 Q2085.54 1334.47 2087.83 1337.11 Q2090.12 1339.73 2094.27 1339.73 Q2096.12 1339.73 2097.92 1339.24 Q2099.75 1338.73 2101.56 1337.74 L2101.56 1341.67 Q2099.78 1342.5 2097.86 1342.92 Q2095.96 1343.34 2093.8 1343.34 Q2087.95 1343.34 2084.5 1339.66 Q2081.05 1335.98 2081.05 1329.73 Q2081.05 1323.38 2084.52 1319.75 Q2088.02 1316.12 2094.08 1316.12 Q2096.05 1316.12 2097.92 1316.53 Q2099.8 1316.93 2101.56 1317.74 Z" fill="#000000" fill-rule="evenodd" fill-opacity="1" /><path clip-path="url(#clip230)" d="M2120.75 1329.63 Q2115.59 1329.63 2113.6 1330.81 Q2111.61 1332 2111.61 1334.84 Q2111.61 1337.11 2113.09 1338.45 Q2114.59 1339.77 2117.16 1339.77 Q2120.7 1339.77 2122.83 1337.27 Q2124.98 1334.75 2124.98 1330.58 L2124.98 1329.63 L2120.75 1329.63 M2129.24 1327.87 L2129.24 1342.67 L2124.98 1342.67 L2124.98 1338.73 Q2123.53 1341.09 2121.35 1342.23 Q2119.17 1343.34 2116.03 1343.34 Q2112.04 1343.34 2109.68 1341.12 Q2107.35 1338.87 2107.35 1335.12 Q2107.35 1330.75 2110.26 1328.52 Q2113.2 1326.3 2119.01 1326.3 L2124.98 1326.3 L2124.98 1325.88 Q2124.98 1322.94 2123.04 1321.35 Q2121.12 1319.73 2117.62 1319.73 Q2115.4 1319.73 2113.29 1320.26 Q2111.19 1320.79 2109.24 1321.86 L2109.24 1317.92 Q2111.58 1317.02 2113.78 1316.58 Q2115.98 1316.12 2118.06 1316.12 Q2123.69 1316.12 2126.47 1319.03 Q2129.24 1321.95 2129.24 1327.87 Z" fill="#000000" fill-rule="evenodd" fill-opacity="1" /></svg>
