<?xml version="1.0" encoding="utf-8"?>
<svg xmlns="http://www.w3.org/2000/svg" xmlns:xlink="http://www.w3.org/1999/xlink" width="672" height="480" viewBox="0 0 2688 1920">
<defs>
  <clipPath id="clip390">
    <rect x="0" y="0" width="2688" height="1920"/>
  </clipPath>
</defs>
<path clip-path="url(#clip390)" d="
M0 1920 L2688 1920 L2688 0 L0 0  Z
  " fill="#ffffff" fill-rule="evenodd" fill-opacity="1"/>
<defs>
  <clipPath id="clip391">
    <rect x="537" y="0" width="1883" height="1883"/>
  </clipPath>
</defs>
<path clip-path="url(#clip390)" d="
M189.154 1800.78 L1296.76 1800.78 L1296.76 47.2441 L189.154 47.2441  Z
  " fill="#ffffff" fill-rule="evenodd" fill-opacity="1"/>
<defs>
  <clipPath id="clip392">
    <rect x="189" y="47" width="1109" height="1755"/>
  </clipPath>
</defs>
<polyline clip-path="url(#clip392)" style="stroke:#000000; stroke-linecap:round; stroke-linejoin:round; stroke-width:2; stroke-opacity:0.1; fill:none" points="
  268.849,1800.78 268.849,47.2441 
  "/>
<polyline clip-path="url(#clip392)" style="stroke:#000000; stroke-linecap:round; stroke-linejoin:round; stroke-width:2; stroke-opacity:0.1; fill:none" points="
  479.825,1800.78 479.825,47.2441 
  "/>
<polyline clip-path="url(#clip392)" style="stroke:#000000; stroke-linecap:round; stroke-linejoin:round; stroke-width:2; stroke-opacity:0.1; fill:none" points="
  690.801,1800.78 690.801,47.2441 
  "/>
<polyline clip-path="url(#clip392)" style="stroke:#000000; stroke-linecap:round; stroke-linejoin:round; stroke-width:2; stroke-opacity:0.1; fill:none" points="
  901.777,1800.78 901.777,47.2441 
  "/>
<polyline clip-path="url(#clip392)" style="stroke:#000000; stroke-linecap:round; stroke-linejoin:round; stroke-width:2; stroke-opacity:0.1; fill:none" points="
  1112.75,1800.78 1112.75,47.2441 
  "/>
<polyline clip-path="url(#clip390)" style="stroke:#000000; stroke-linecap:round; stroke-linejoin:round; stroke-width:4; stroke-opacity:1; fill:none" points="
  189.154,1800.78 1296.76,1800.78 
  "/>
<polyline clip-path="url(#clip390)" style="stroke:#000000; stroke-linecap:round; stroke-linejoin:round; stroke-width:4; stroke-opacity:1; fill:none" points="
  268.849,1800.78 268.849,1781.88 
  "/>
<polyline clip-path="url(#clip390)" style="stroke:#000000; stroke-linecap:round; stroke-linejoin:round; stroke-width:4; stroke-opacity:1; fill:none" points="
  479.825,1800.78 479.825,1781.88 
  "/>
<polyline clip-path="url(#clip390)" style="stroke:#000000; stroke-linecap:round; stroke-linejoin:round; stroke-width:4; stroke-opacity:1; fill:none" points="
  690.801,1800.78 690.801,1781.88 
  "/>
<polyline clip-path="url(#clip390)" style="stroke:#000000; stroke-linecap:round; stroke-linejoin:round; stroke-width:4; stroke-opacity:1; fill:none" points="
  901.777,1800.78 901.777,1781.88 
  "/>
<polyline clip-path="url(#clip390)" style="stroke:#000000; stroke-linecap:round; stroke-linejoin:round; stroke-width:4; stroke-opacity:1; fill:none" points="
  1112.75,1800.78 1112.75,1781.88 
  "/>
<path clip-path="url(#clip390)" d="M220.921 1861.55 L228.559 1861.55 L228.559 1835.18 L220.249 1836.85 L220.249 1832.59 L228.513 1830.92 L233.189 1830.92 L233.189 1861.55 L240.828 1861.55 L240.828 1865.48 L220.921 1865.48 L220.921 1861.55 Z" fill="#000000" fill-rule="evenodd" fill-opacity="1" /><path clip-path="url(#clip390)" d="M250.272 1859.6 L255.156 1859.6 L255.156 1865.48 L250.272 1865.48 L250.272 1859.6 Z" fill="#000000" fill-rule="evenodd" fill-opacity="1" /><path clip-path="url(#clip390)" d="M275.342 1834 Q271.73 1834 269.902 1837.57 Q268.096 1841.11 268.096 1848.24 Q268.096 1855.34 269.902 1858.91 Q271.73 1862.45 275.342 1862.45 Q278.976 1862.45 280.781 1858.91 Q282.61 1855.34 282.61 1848.24 Q282.61 1841.11 280.781 1837.57 Q278.976 1834 275.342 1834 M275.342 1830.3 Q281.152 1830.3 284.207 1834.9 Q287.286 1839.49 287.286 1848.24 Q287.286 1856.96 284.207 1861.57 Q281.152 1866.15 275.342 1866.15 Q269.531 1866.15 266.453 1861.57 Q263.397 1856.96 263.397 1848.24 Q263.397 1839.49 266.453 1834.9 Q269.531 1830.3 275.342 1830.3 Z" fill="#000000" fill-rule="evenodd" fill-opacity="1" /><path clip-path="url(#clip390)" d="M305.503 1834 Q301.892 1834 300.064 1837.57 Q298.258 1841.11 298.258 1848.24 Q298.258 1855.34 300.064 1858.91 Q301.892 1862.45 305.503 1862.45 Q309.138 1862.45 310.943 1858.91 Q312.772 1855.34 312.772 1848.24 Q312.772 1841.11 310.943 1837.57 Q309.138 1834 305.503 1834 M305.503 1830.3 Q311.314 1830.3 314.369 1834.9 Q317.448 1839.49 317.448 1848.24 Q317.448 1856.96 314.369 1861.57 Q311.314 1866.15 305.503 1866.15 Q299.693 1866.15 296.615 1861.57 Q293.559 1856.96 293.559 1848.24 Q293.559 1839.49 296.615 1834.9 Q299.693 1830.3 305.503 1830.3 Z" fill="#000000" fill-rule="evenodd" fill-opacity="1" /><path clip-path="url(#clip390)" d="M432.395 1861.55 L440.033 1861.55 L440.033 1835.18 L431.723 1836.85 L431.723 1832.59 L439.987 1830.92 L444.663 1830.92 L444.663 1861.55 L452.302 1861.55 L452.302 1865.48 L432.395 1865.48 L432.395 1861.55 Z" fill="#000000" fill-rule="evenodd" fill-opacity="1" /><path clip-path="url(#clip390)" d="M461.746 1859.6 L466.63 1859.6 L466.63 1865.48 L461.746 1865.48 L461.746 1859.6 Z" fill="#000000" fill-rule="evenodd" fill-opacity="1" /><path clip-path="url(#clip390)" d="M480.843 1861.55 L497.163 1861.55 L497.163 1865.48 L475.218 1865.48 L475.218 1861.55 Q477.88 1858.79 482.464 1854.16 Q487.07 1849.51 488.251 1848.17 Q490.496 1845.65 491.376 1843.91 Q492.278 1842.15 492.278 1840.46 Q492.278 1837.71 490.334 1835.97 Q488.413 1834.23 485.311 1834.23 Q483.112 1834.23 480.658 1835 Q478.228 1835.76 475.45 1837.31 L475.45 1832.59 Q478.274 1831.46 480.728 1830.88 Q483.181 1830.3 485.218 1830.3 Q490.589 1830.3 493.783 1832.98 Q496.978 1835.67 496.978 1840.16 Q496.978 1842.29 496.167 1844.21 Q495.38 1846.11 493.274 1848.7 Q492.695 1849.37 489.593 1852.59 Q486.491 1855.78 480.843 1861.55 Z" fill="#000000" fill-rule="evenodd" fill-opacity="1" /><path clip-path="url(#clip390)" d="M507.024 1830.92 L525.38 1830.92 L525.38 1834.86 L511.306 1834.86 L511.306 1843.33 Q512.325 1842.98 513.343 1842.82 Q514.362 1842.64 515.38 1842.64 Q521.167 1842.64 524.547 1845.81 Q527.926 1848.98 527.926 1854.4 Q527.926 1859.97 524.454 1863.08 Q520.982 1866.15 514.663 1866.15 Q512.487 1866.15 510.218 1865.78 Q507.973 1865.41 505.565 1864.67 L505.565 1859.97 Q507.649 1861.11 509.871 1861.66 Q512.093 1862.22 514.57 1862.22 Q518.575 1862.22 520.913 1860.11 Q523.251 1858.01 523.251 1854.4 Q523.251 1850.78 520.913 1848.68 Q518.575 1846.57 514.57 1846.57 Q512.695 1846.57 510.82 1846.99 Q508.968 1847.4 507.024 1848.28 L507.024 1830.92 Z" fill="#000000" fill-rule="evenodd" fill-opacity="1" /><path clip-path="url(#clip390)" d="M642.873 1861.55 L650.512 1861.55 L650.512 1835.18 L642.202 1836.85 L642.202 1832.59 L650.466 1830.92 L655.142 1830.92 L655.142 1861.55 L662.78 1861.55 L662.78 1865.48 L642.873 1865.48 L642.873 1861.55 Z" fill="#000000" fill-rule="evenodd" fill-opacity="1" /><path clip-path="url(#clip390)" d="M672.225 1859.6 L677.109 1859.6 L677.109 1865.48 L672.225 1865.48 L672.225 1859.6 Z" fill="#000000" fill-rule="evenodd" fill-opacity="1" /><path clip-path="url(#clip390)" d="M687.341 1830.92 L705.697 1830.92 L705.697 1834.86 L691.623 1834.86 L691.623 1843.33 Q692.641 1842.98 693.66 1842.82 Q694.678 1842.64 695.697 1842.64 Q701.484 1842.64 704.864 1845.81 Q708.243 1848.98 708.243 1854.4 Q708.243 1859.97 704.771 1863.08 Q701.299 1866.15 694.979 1866.15 Q692.803 1866.15 690.535 1865.78 Q688.29 1865.41 685.882 1864.67 L685.882 1859.97 Q687.966 1861.11 690.188 1861.66 Q692.41 1862.22 694.887 1862.22 Q698.891 1862.22 701.229 1860.11 Q703.567 1858.01 703.567 1854.4 Q703.567 1850.78 701.229 1848.68 Q698.891 1846.57 694.887 1846.57 Q693.012 1846.57 691.137 1846.99 Q689.285 1847.4 687.341 1848.28 L687.341 1830.92 Z" fill="#000000" fill-rule="evenodd" fill-opacity="1" /><path clip-path="url(#clip390)" d="M727.456 1834 Q723.845 1834 722.016 1837.57 Q720.211 1841.11 720.211 1848.24 Q720.211 1855.34 722.016 1858.91 Q723.845 1862.45 727.456 1862.45 Q731.09 1862.45 732.896 1858.91 Q734.725 1855.34 734.725 1848.24 Q734.725 1841.11 732.896 1837.57 Q731.09 1834 727.456 1834 M727.456 1830.3 Q733.266 1830.3 736.322 1834.9 Q739.4 1839.49 739.4 1848.24 Q739.4 1856.96 736.322 1861.57 Q733.266 1866.15 727.456 1866.15 Q721.646 1866.15 718.567 1861.57 Q715.512 1856.96 715.512 1848.24 Q715.512 1839.49 718.567 1834.9 Q721.646 1830.3 727.456 1830.3 Z" fill="#000000" fill-rule="evenodd" fill-opacity="1" /><path clip-path="url(#clip390)" d="M854.347 1861.55 L861.986 1861.55 L861.986 1835.18 L853.676 1836.85 L853.676 1832.59 L861.94 1830.92 L866.616 1830.92 L866.616 1861.55 L874.254 1861.55 L874.254 1865.48 L854.347 1865.48 L854.347 1861.55 Z" fill="#000000" fill-rule="evenodd" fill-opacity="1" /><path clip-path="url(#clip390)" d="M883.699 1859.6 L888.583 1859.6 L888.583 1865.48 L883.699 1865.48 L883.699 1859.6 Z" fill="#000000" fill-rule="evenodd" fill-opacity="1" /><path clip-path="url(#clip390)" d="M897.588 1830.92 L919.81 1830.92 L919.81 1832.91 L907.264 1865.48 L902.379 1865.48 L914.185 1834.86 L897.588 1834.86 L897.588 1830.92 Z" fill="#000000" fill-rule="evenodd" fill-opacity="1" /><path clip-path="url(#clip390)" d="M928.976 1830.92 L947.333 1830.92 L947.333 1834.86 L933.259 1834.86 L933.259 1843.33 Q934.277 1842.98 935.296 1842.82 Q936.314 1842.64 937.333 1842.64 Q943.12 1842.64 946.499 1845.81 Q949.879 1848.98 949.879 1854.4 Q949.879 1859.97 946.407 1863.08 Q942.935 1866.15 936.615 1866.15 Q934.439 1866.15 932.171 1865.78 Q929.925 1865.41 927.518 1864.67 L927.518 1859.97 Q929.601 1861.11 931.824 1861.66 Q934.046 1862.22 936.523 1862.22 Q940.527 1862.22 942.865 1860.11 Q945.203 1858.01 945.203 1854.4 Q945.203 1850.78 942.865 1848.68 Q940.527 1846.57 936.523 1846.57 Q934.648 1846.57 932.773 1846.99 Q930.921 1847.4 928.976 1848.28 L928.976 1830.92 Z" fill="#000000" fill-rule="evenodd" fill-opacity="1" /><path clip-path="url(#clip390)" d="M1068.91 1861.55 L1085.23 1861.55 L1085.23 1865.48 L1063.29 1865.48 L1063.29 1861.55 Q1065.95 1858.79 1070.53 1854.16 Q1075.14 1849.51 1076.32 1848.17 Q1078.56 1845.65 1079.44 1843.91 Q1080.35 1842.15 1080.35 1840.46 Q1080.35 1837.71 1078.4 1835.97 Q1076.48 1834.23 1073.38 1834.23 Q1071.18 1834.23 1068.73 1835 Q1066.3 1835.76 1063.52 1837.31 L1063.52 1832.59 Q1066.34 1831.46 1068.8 1830.88 Q1071.25 1830.3 1073.29 1830.3 Q1078.66 1830.3 1081.85 1832.98 Q1085.05 1835.67 1085.05 1840.16 Q1085.05 1842.29 1084.24 1844.21 Q1083.45 1846.11 1081.34 1848.7 Q1080.76 1849.37 1077.66 1852.59 Q1074.56 1855.78 1068.91 1861.55 Z" fill="#000000" fill-rule="evenodd" fill-opacity="1" /><path clip-path="url(#clip390)" d="M1095.05 1859.6 L1099.93 1859.6 L1099.93 1865.48 L1095.05 1865.48 L1095.05 1859.6 Z" fill="#000000" fill-rule="evenodd" fill-opacity="1" /><path clip-path="url(#clip390)" d="M1120.11 1834 Q1116.5 1834 1114.68 1837.57 Q1112.87 1841.11 1112.87 1848.24 Q1112.87 1855.34 1114.68 1858.91 Q1116.5 1862.45 1120.11 1862.45 Q1123.75 1862.45 1125.55 1858.91 Q1127.38 1855.34 1127.38 1848.24 Q1127.38 1841.11 1125.55 1837.57 Q1123.75 1834 1120.11 1834 M1120.11 1830.3 Q1125.92 1830.3 1128.98 1834.9 Q1132.06 1839.49 1132.06 1848.24 Q1132.06 1856.96 1128.98 1861.57 Q1125.92 1866.15 1120.11 1866.15 Q1114.3 1866.15 1111.23 1861.57 Q1108.17 1856.96 1108.17 1848.24 Q1108.17 1839.49 1111.23 1834.9 Q1114.3 1830.3 1120.11 1830.3 Z" fill="#000000" fill-rule="evenodd" fill-opacity="1" /><path clip-path="url(#clip390)" d="M1150.28 1834 Q1146.67 1834 1144.84 1837.57 Q1143.03 1841.11 1143.03 1848.24 Q1143.03 1855.34 1144.84 1858.91 Q1146.67 1862.45 1150.28 1862.45 Q1153.91 1862.45 1155.72 1858.91 Q1157.55 1855.34 1157.55 1848.24 Q1157.55 1841.11 1155.72 1837.57 Q1153.91 1834 1150.28 1834 M1150.28 1830.3 Q1156.09 1830.3 1159.14 1834.9 Q1162.22 1839.49 1162.22 1848.24 Q1162.22 1856.96 1159.14 1861.57 Q1156.09 1866.15 1150.28 1866.15 Q1144.47 1866.15 1141.39 1861.57 Q1138.33 1856.96 1138.33 1848.24 Q1138.33 1839.49 1141.39 1834.9 Q1144.47 1830.3 1150.28 1830.3 Z" fill="#000000" fill-rule="evenodd" fill-opacity="1" /><polyline clip-path="url(#clip392)" style="stroke:#000000; stroke-linecap:round; stroke-linejoin:round; stroke-width:2; stroke-opacity:0.1; fill:none" points="
  189.154,1505.46 1296.76,1505.46 
  "/>
<polyline clip-path="url(#clip392)" style="stroke:#000000; stroke-linecap:round; stroke-linejoin:round; stroke-width:2; stroke-opacity:0.1; fill:none" points="
  189.154,1152.58 1296.76,1152.58 
  "/>
<polyline clip-path="url(#clip392)" style="stroke:#000000; stroke-linecap:round; stroke-linejoin:round; stroke-width:2; stroke-opacity:0.1; fill:none" points="
  189.154,799.704 1296.76,799.704 
  "/>
<polyline clip-path="url(#clip392)" style="stroke:#000000; stroke-linecap:round; stroke-linejoin:round; stroke-width:2; stroke-opacity:0.1; fill:none" points="
  189.154,446.828 1296.76,446.828 
  "/>
<polyline clip-path="url(#clip392)" style="stroke:#000000; stroke-linecap:round; stroke-linejoin:round; stroke-width:2; stroke-opacity:0.1; fill:none" points="
  189.154,93.9516 1296.76,93.9516 
  "/>
<polyline clip-path="url(#clip390)" style="stroke:#000000; stroke-linecap:round; stroke-linejoin:round; stroke-width:4; stroke-opacity:1; fill:none" points="
  189.154,1800.78 189.154,47.2441 
  "/>
<polyline clip-path="url(#clip390)" style="stroke:#000000; stroke-linecap:round; stroke-linejoin:round; stroke-width:4; stroke-opacity:1; fill:none" points="
  189.154,1505.46 208.052,1505.46 
  "/>
<polyline clip-path="url(#clip390)" style="stroke:#000000; stroke-linecap:round; stroke-linejoin:round; stroke-width:4; stroke-opacity:1; fill:none" points="
  189.154,1152.58 208.052,1152.58 
  "/>
<polyline clip-path="url(#clip390)" style="stroke:#000000; stroke-linecap:round; stroke-linejoin:round; stroke-width:4; stroke-opacity:1; fill:none" points="
  189.154,799.704 208.052,799.704 
  "/>
<polyline clip-path="url(#clip390)" style="stroke:#000000; stroke-linecap:round; stroke-linejoin:round; stroke-width:4; stroke-opacity:1; fill:none" points="
  189.154,446.828 208.052,446.828 
  "/>
<polyline clip-path="url(#clip390)" style="stroke:#000000; stroke-linecap:round; stroke-linejoin:round; stroke-width:4; stroke-opacity:1; fill:none" points="
  189.154,93.9516 208.052,93.9516 
  "/>
<path clip-path="url(#clip390)" d="M61.4965 1491.26 Q57.8854 1491.26 56.0567 1494.82 Q54.2512 1498.36 54.2512 1505.49 Q54.2512 1512.6 56.0567 1516.16 Q57.8854 1519.7 61.4965 1519.7 Q65.1307 1519.7 66.9363 1516.16 Q68.765 1512.6 68.765 1505.49 Q68.765 1498.36 66.9363 1494.82 Q65.1307 1491.26 61.4965 1491.26 M61.4965 1487.55 Q67.3067 1487.55 70.3622 1492.16 Q73.4409 1496.74 73.4409 1505.49 Q73.4409 1514.22 70.3622 1518.82 Q67.3067 1523.41 61.4965 1523.41 Q55.6864 1523.41 52.6077 1518.82 Q49.5521 1514.22 49.5521 1505.49 Q49.5521 1496.74 52.6077 1492.16 Q55.6864 1487.55 61.4965 1487.55 Z" fill="#000000" fill-rule="evenodd" fill-opacity="1" /><path clip-path="url(#clip390)" d="M81.6584 1516.86 L86.5427 1516.86 L86.5427 1522.74 L81.6584 1522.74 L81.6584 1516.86 Z" fill="#000000" fill-rule="evenodd" fill-opacity="1" /><path clip-path="url(#clip390)" d="M106.728 1491.26 Q103.117 1491.26 101.288 1494.82 Q99.4824 1498.36 99.4824 1505.49 Q99.4824 1512.6 101.288 1516.16 Q103.117 1519.7 106.728 1519.7 Q110.362 1519.7 112.168 1516.16 Q113.996 1512.6 113.996 1505.49 Q113.996 1498.36 112.168 1494.82 Q110.362 1491.26 106.728 1491.26 M106.728 1487.55 Q112.538 1487.55 115.593 1492.16 Q118.672 1496.74 118.672 1505.49 Q118.672 1514.22 115.593 1518.82 Q112.538 1523.41 106.728 1523.41 Q100.918 1523.41 97.8389 1518.82 Q94.7834 1514.22 94.7834 1505.49 Q94.7834 1496.74 97.8389 1492.16 Q100.918 1487.55 106.728 1487.55 Z" fill="#000000" fill-rule="evenodd" fill-opacity="1" /><path clip-path="url(#clip390)" d="M136.89 1491.26 Q133.279 1491.26 131.45 1494.82 Q129.644 1498.36 129.644 1505.49 Q129.644 1512.6 131.45 1516.16 Q133.279 1519.7 136.89 1519.7 Q140.524 1519.7 142.329 1516.16 Q144.158 1512.6 144.158 1505.49 Q144.158 1498.36 142.329 1494.82 Q140.524 1491.26 136.89 1491.26 M136.89 1487.55 Q142.7 1487.55 145.755 1492.16 Q148.834 1496.74 148.834 1505.49 Q148.834 1514.22 145.755 1518.82 Q142.7 1523.41 136.89 1523.41 Q131.079 1523.41 128.001 1518.82 Q124.945 1514.22 124.945 1505.49 Q124.945 1496.74 128.001 1492.16 Q131.079 1487.55 136.89 1487.55 Z" fill="#000000" fill-rule="evenodd" fill-opacity="1" /><path clip-path="url(#clip390)" d="M62.4919 1138.38 Q58.8808 1138.38 57.0521 1141.94 Q55.2465 1145.49 55.2465 1152.62 Q55.2465 1159.72 57.0521 1163.29 Q58.8808 1166.83 62.4919 1166.83 Q66.1261 1166.83 67.9317 1163.29 Q69.7604 1159.72 69.7604 1152.62 Q69.7604 1145.49 67.9317 1141.94 Q66.1261 1138.38 62.4919 1138.38 M62.4919 1134.68 Q68.302 1134.68 71.3576 1139.28 Q74.4363 1143.87 74.4363 1152.62 Q74.4363 1161.34 71.3576 1165.95 Q68.302 1170.53 62.4919 1170.53 Q56.6817 1170.53 53.603 1165.95 Q50.5475 1161.34 50.5475 1152.62 Q50.5475 1143.87 53.603 1139.28 Q56.6817 1134.68 62.4919 1134.68 Z" fill="#000000" fill-rule="evenodd" fill-opacity="1" /><path clip-path="url(#clip390)" d="M82.6538 1163.98 L87.538 1163.98 L87.538 1169.86 L82.6538 1169.86 L82.6538 1163.98 Z" fill="#000000" fill-rule="evenodd" fill-opacity="1" /><path clip-path="url(#clip390)" d="M101.751 1165.93 L118.07 1165.93 L118.07 1169.86 L96.126 1169.86 L96.126 1165.93 Q98.788 1163.17 103.371 1158.54 Q107.978 1153.89 109.158 1152.55 Q111.404 1150.02 112.283 1148.29 Q113.186 1146.53 113.186 1144.84 Q113.186 1142.08 111.242 1140.35 Q109.32 1138.61 106.218 1138.61 Q104.019 1138.61 101.566 1139.37 Q99.1352 1140.14 96.3574 1141.69 L96.3574 1136.97 Q99.1815 1135.83 101.635 1135.25 Q104.089 1134.68 106.126 1134.68 Q111.496 1134.68 114.691 1137.36 Q117.885 1140.05 117.885 1144.54 Q117.885 1146.67 117.075 1148.59 Q116.288 1150.49 114.181 1153.08 Q113.603 1153.75 110.501 1156.97 Q107.399 1160.16 101.751 1165.93 Z" fill="#000000" fill-rule="evenodd" fill-opacity="1" /><path clip-path="url(#clip390)" d="M127.931 1135.3 L146.288 1135.3 L146.288 1139.24 L132.214 1139.24 L132.214 1147.71 Q133.232 1147.36 134.251 1147.2 Q135.269 1147.01 136.288 1147.01 Q142.075 1147.01 145.454 1150.18 Q148.834 1153.36 148.834 1158.77 Q148.834 1164.35 145.362 1167.45 Q141.89 1170.53 135.57 1170.53 Q133.394 1170.53 131.126 1170.16 Q128.88 1169.79 126.473 1169.05 L126.473 1164.35 Q128.556 1165.49 130.779 1166.04 Q133.001 1166.6 135.478 1166.6 Q139.482 1166.6 141.82 1164.49 Q144.158 1162.38 144.158 1158.77 Q144.158 1155.16 141.82 1153.05 Q139.482 1150.95 135.478 1150.95 Q133.603 1150.95 131.728 1151.37 Q129.876 1151.78 127.931 1152.66 L127.931 1135.3 Z" fill="#000000" fill-rule="evenodd" fill-opacity="1" /><path clip-path="url(#clip390)" d="M61.4965 785.503 Q57.8854 785.503 56.0567 789.068 Q54.2512 792.609 54.2512 799.739 Q54.2512 806.845 56.0567 810.41 Q57.8854 813.952 61.4965 813.952 Q65.1307 813.952 66.9363 810.41 Q68.765 806.845 68.765 799.739 Q68.765 792.609 66.9363 789.068 Q65.1307 785.503 61.4965 785.503 M61.4965 781.799 Q67.3067 781.799 70.3622 786.406 Q73.4409 790.989 73.4409 799.739 Q73.4409 808.466 70.3622 813.072 Q67.3067 817.655 61.4965 817.655 Q55.6864 817.655 52.6077 813.072 Q49.5521 808.466 49.5521 799.739 Q49.5521 790.989 52.6077 786.406 Q55.6864 781.799 61.4965 781.799 Z" fill="#000000" fill-rule="evenodd" fill-opacity="1" /><path clip-path="url(#clip390)" d="M81.6584 811.104 L86.5427 811.104 L86.5427 816.984 L81.6584 816.984 L81.6584 811.104 Z" fill="#000000" fill-rule="evenodd" fill-opacity="1" /><path clip-path="url(#clip390)" d="M96.7741 782.424 L115.13 782.424 L115.13 786.359 L101.056 786.359 L101.056 794.831 Q102.075 794.484 103.094 794.322 Q104.112 794.137 105.131 794.137 Q110.918 794.137 114.297 797.308 Q117.677 800.48 117.677 805.896 Q117.677 811.475 114.205 814.577 Q110.732 817.655 104.413 817.655 Q102.237 817.655 99.9685 817.285 Q97.7232 816.915 95.3158 816.174 L95.3158 811.475 Q97.3991 812.609 99.6213 813.165 Q101.844 813.72 104.32 813.72 Q108.325 813.72 110.663 811.614 Q113.001 809.507 113.001 805.896 Q113.001 802.285 110.663 800.179 Q108.325 798.072 104.32 798.072 Q102.445 798.072 100.57 798.489 Q98.7185 798.905 96.7741 799.785 L96.7741 782.424 Z" fill="#000000" fill-rule="evenodd" fill-opacity="1" /><path clip-path="url(#clip390)" d="M136.89 785.503 Q133.279 785.503 131.45 789.068 Q129.644 792.609 129.644 799.739 Q129.644 806.845 131.45 810.41 Q133.279 813.952 136.89 813.952 Q140.524 813.952 142.329 810.41 Q144.158 806.845 144.158 799.739 Q144.158 792.609 142.329 789.068 Q140.524 785.503 136.89 785.503 M136.89 781.799 Q142.7 781.799 145.755 786.406 Q148.834 790.989 148.834 799.739 Q148.834 808.466 145.755 813.072 Q142.7 817.655 136.89 817.655 Q131.079 817.655 128.001 813.072 Q124.945 808.466 124.945 799.739 Q124.945 790.989 128.001 786.406 Q131.079 781.799 136.89 781.799 Z" fill="#000000" fill-rule="evenodd" fill-opacity="1" /><path clip-path="url(#clip390)" d="M62.4919 432.627 Q58.8808 432.627 57.0521 436.191 Q55.2465 439.733 55.2465 446.863 Q55.2465 453.969 57.0521 457.534 Q58.8808 461.075 62.4919 461.075 Q66.1261 461.075 67.9317 457.534 Q69.7604 453.969 69.7604 446.863 Q69.7604 439.733 67.9317 436.191 Q66.1261 432.627 62.4919 432.627 M62.4919 428.923 Q68.302 428.923 71.3576 433.529 Q74.4363 438.113 74.4363 446.863 Q74.4363 455.589 71.3576 460.196 Q68.302 464.779 62.4919 464.779 Q56.6817 464.779 53.603 460.196 Q50.5475 455.589 50.5475 446.863 Q50.5475 438.113 53.603 433.529 Q56.6817 428.923 62.4919 428.923 Z" fill="#000000" fill-rule="evenodd" fill-opacity="1" /><path clip-path="url(#clip390)" d="M82.6538 458.228 L87.538 458.228 L87.538 464.108 L82.6538 464.108 L82.6538 458.228 Z" fill="#000000" fill-rule="evenodd" fill-opacity="1" /><path clip-path="url(#clip390)" d="M96.5426 429.548 L118.765 429.548 L118.765 431.539 L106.218 464.108 L101.334 464.108 L113.14 433.483 L96.5426 433.483 L96.5426 429.548 Z" fill="#000000" fill-rule="evenodd" fill-opacity="1" /><path clip-path="url(#clip390)" d="M127.931 429.548 L146.288 429.548 L146.288 433.483 L132.214 433.483 L132.214 441.955 Q133.232 441.608 134.251 441.446 Q135.269 441.261 136.288 441.261 Q142.075 441.261 145.454 444.432 Q148.834 447.603 148.834 453.02 Q148.834 458.599 145.362 461.7 Q141.89 464.779 135.57 464.779 Q133.394 464.779 131.126 464.409 Q128.88 464.038 126.473 463.298 L126.473 458.599 Q128.556 459.733 130.779 460.288 Q133.001 460.844 135.478 460.844 Q139.482 460.844 141.82 458.738 Q144.158 456.631 144.158 453.02 Q144.158 449.409 141.82 447.302 Q139.482 445.196 135.478 445.196 Q133.603 445.196 131.728 445.613 Q129.876 446.029 127.931 446.909 L127.931 429.548 Z" fill="#000000" fill-rule="evenodd" fill-opacity="1" /><path clip-path="url(#clip390)" d="M52.3067 107.296 L59.9456 107.296 L59.9456 80.9308 L51.6354 82.5975 L51.6354 78.3383 L59.8993 76.6716 L64.5752 76.6716 L64.5752 107.296 L72.214 107.296 L72.214 111.232 L52.3067 111.232 L52.3067 107.296 Z" fill="#000000" fill-rule="evenodd" fill-opacity="1" /><path clip-path="url(#clip390)" d="M81.6584 105.352 L86.5427 105.352 L86.5427 111.232 L81.6584 111.232 L81.6584 105.352 Z" fill="#000000" fill-rule="evenodd" fill-opacity="1" /><path clip-path="url(#clip390)" d="M106.728 79.7503 Q103.117 79.7503 101.288 83.3151 Q99.4824 86.8567 99.4824 93.9863 Q99.4824 101.093 101.288 104.658 Q103.117 108.199 106.728 108.199 Q110.362 108.199 112.168 104.658 Q113.996 101.093 113.996 93.9863 Q113.996 86.8567 112.168 83.3151 Q110.362 79.7503 106.728 79.7503 M106.728 76.0466 Q112.538 76.0466 115.593 80.6531 Q118.672 85.2364 118.672 93.9863 Q118.672 102.713 115.593 107.32 Q112.538 111.903 106.728 111.903 Q100.918 111.903 97.8389 107.32 Q94.7834 102.713 94.7834 93.9863 Q94.7834 85.2364 97.8389 80.6531 Q100.918 76.0466 106.728 76.0466 Z" fill="#000000" fill-rule="evenodd" fill-opacity="1" /><path clip-path="url(#clip390)" d="M136.89 79.7503 Q133.279 79.7503 131.45 83.3151 Q129.644 86.8567 129.644 93.9863 Q129.644 101.093 131.45 104.658 Q133.279 108.199 136.89 108.199 Q140.524 108.199 142.329 104.658 Q144.158 101.093 144.158 93.9863 Q144.158 86.8567 142.329 83.3151 Q140.524 79.7503 136.89 79.7503 M136.89 76.0466 Q142.7 76.0466 145.755 80.6531 Q148.834 85.2364 148.834 93.9863 Q148.834 102.713 145.755 107.32 Q142.7 111.903 136.89 111.903 Q131.079 111.903 128.001 107.32 Q124.945 102.713 124.945 93.9863 Q124.945 85.2364 128.001 80.6531 Q131.079 76.0466 136.89 76.0466 Z" fill="#000000" fill-rule="evenodd" fill-opacity="1" /><circle clip-path="url(#clip392)" cx="220.501" cy="923.855" r="14.4" fill="#009af9" fill-rule="evenodd" fill-opacity="1" stroke="#000000" stroke-opacity="1" stroke-width="3.84"/>
<circle clip-path="url(#clip392)" cx="259.521" cy="649.876" r="14.4" fill="#009af9" fill-rule="evenodd" fill-opacity="1" stroke="#000000" stroke-opacity="1" stroke-width="3.84"/>
<circle clip-path="url(#clip392)" cx="289.404" cy="657.452" r="14.4" fill="#009af9" fill-rule="evenodd" fill-opacity="1" stroke="#000000" stroke-opacity="1" stroke-width="3.84"/>
<circle clip-path="url(#clip392)" cx="301.069" cy="1100.67" r="14.4" fill="#009af9" fill-rule="evenodd" fill-opacity="1" stroke="#000000" stroke-opacity="1" stroke-width="3.84"/>
<circle clip-path="url(#clip392)" cx="324.253" cy="1135.86" r="14.4" fill="#009af9" fill-rule="evenodd" fill-opacity="1" stroke="#000000" stroke-opacity="1" stroke-width="3.84"/>
<circle clip-path="url(#clip392)" cx="373.148" cy="1272.35" r="14.4" fill="#009af9" fill-rule="evenodd" fill-opacity="1" stroke="#000000" stroke-opacity="1" stroke-width="3.84"/>
<circle clip-path="url(#clip392)" cx="376.703" cy="1365.73" r="14.4" fill="#009af9" fill-rule="evenodd" fill-opacity="1" stroke="#000000" stroke-opacity="1" stroke-width="3.84"/>
<circle clip-path="url(#clip392)" cx="395.703" cy="1451.18" r="14.4" fill="#009af9" fill-rule="evenodd" fill-opacity="1" stroke="#000000" stroke-opacity="1" stroke-width="3.84"/>
<circle clip-path="url(#clip392)" cx="408.124" cy="845.395" r="14.4" fill="#009af9" fill-rule="evenodd" fill-opacity="1" stroke="#000000" stroke-opacity="1" stroke-width="3.84"/>
<circle clip-path="url(#clip392)" cx="433.256" cy="1721.76" r="14.4" fill="#009af9" fill-rule="evenodd" fill-opacity="1" stroke="#000000" stroke-opacity="1" stroke-width="3.84"/>
<circle clip-path="url(#clip392)" cx="436.134" cy="1639.2" r="14.4" fill="#009af9" fill-rule="evenodd" fill-opacity="1" stroke="#000000" stroke-opacity="1" stroke-width="3.84"/>
<circle clip-path="url(#clip392)" cx="444.683" cy="1527.71" r="14.4" fill="#009af9" fill-rule="evenodd" fill-opacity="1" stroke="#000000" stroke-opacity="1" stroke-width="3.84"/>
<circle clip-path="url(#clip392)" cx="458.803" cy="1329.23" r="14.4" fill="#009af9" fill-rule="evenodd" fill-opacity="1" stroke="#000000" stroke-opacity="1" stroke-width="3.84"/>
<circle clip-path="url(#clip392)" cx="479.503" cy="817.202" r="14.4" fill="#009af9" fill-rule="evenodd" fill-opacity="1" stroke="#000000" stroke-opacity="1" stroke-width="3.84"/>
<circle clip-path="url(#clip392)" cx="494.986" cy="1312.38" r="14.4" fill="#009af9" fill-rule="evenodd" fill-opacity="1" stroke="#000000" stroke-opacity="1" stroke-width="3.84"/>
<circle clip-path="url(#clip392)" cx="525.163" cy="1218.42" r="14.4" fill="#009af9" fill-rule="evenodd" fill-opacity="1" stroke="#000000" stroke-opacity="1" stroke-width="3.84"/>
<circle clip-path="url(#clip392)" cx="551.995" cy="1102.54" r="14.4" fill="#009af9" fill-rule="evenodd" fill-opacity="1" stroke="#000000" stroke-opacity="1" stroke-width="3.84"/>
<circle clip-path="url(#clip392)" cx="552.744" cy="1290.07" r="14.4" fill="#009af9" fill-rule="evenodd" fill-opacity="1" stroke="#000000" stroke-opacity="1" stroke-width="3.84"/>
<circle clip-path="url(#clip392)" cx="574.837" cy="888.262" r="14.4" fill="#009af9" fill-rule="evenodd" fill-opacity="1" stroke="#000000" stroke-opacity="1" stroke-width="3.84"/>
<circle clip-path="url(#clip392)" cx="578.897" cy="820.038" r="14.4" fill="#009af9" fill-rule="evenodd" fill-opacity="1" stroke="#000000" stroke-opacity="1" stroke-width="3.84"/>
<circle clip-path="url(#clip392)" cx="598.527" cy="782.423" r="14.4" fill="#009af9" fill-rule="evenodd" fill-opacity="1" stroke="#000000" stroke-opacity="1" stroke-width="3.84"/>
<circle clip-path="url(#clip392)" cx="619.87" cy="1183.08" r="14.4" fill="#009af9" fill-rule="evenodd" fill-opacity="1" stroke="#000000" stroke-opacity="1" stroke-width="3.84"/>
<circle clip-path="url(#clip392)" cx="624.253" cy="1207.7" r="14.4" fill="#009af9" fill-rule="evenodd" fill-opacity="1" stroke="#000000" stroke-opacity="1" stroke-width="3.84"/>
<circle clip-path="url(#clip392)" cx="636.044" cy="1184.16" r="14.4" fill="#009af9" fill-rule="evenodd" fill-opacity="1" stroke="#000000" stroke-opacity="1" stroke-width="3.84"/>
<circle clip-path="url(#clip392)" cx="641.707" cy="1512.69" r="14.4" fill="#009af9" fill-rule="evenodd" fill-opacity="1" stroke="#000000" stroke-opacity="1" stroke-width="3.84"/>
<circle clip-path="url(#clip392)" cx="653.586" cy="1506.23" r="14.4" fill="#009af9" fill-rule="evenodd" fill-opacity="1" stroke="#000000" stroke-opacity="1" stroke-width="3.84"/>
<circle clip-path="url(#clip392)" cx="664.257" cy="1094.49" r="14.4" fill="#009af9" fill-rule="evenodd" fill-opacity="1" stroke="#000000" stroke-opacity="1" stroke-width="3.84"/>
<circle clip-path="url(#clip392)" cx="665.892" cy="1174.63" r="14.4" fill="#009af9" fill-rule="evenodd" fill-opacity="1" stroke="#000000" stroke-opacity="1" stroke-width="3.84"/>
<circle clip-path="url(#clip392)" cx="690.275" cy="877.479" r="14.4" fill="#009af9" fill-rule="evenodd" fill-opacity="1" stroke="#000000" stroke-opacity="1" stroke-width="3.84"/>
<circle clip-path="url(#clip392)" cx="692.907" cy="1107.23" r="14.4" fill="#009af9" fill-rule="evenodd" fill-opacity="1" stroke="#000000" stroke-opacity="1" stroke-width="3.84"/>
<circle clip-path="url(#clip392)" cx="693.952" cy="1373.89" r="14.4" fill="#009af9" fill-rule="evenodd" fill-opacity="1" stroke="#000000" stroke-opacity="1" stroke-width="3.84"/>
<circle clip-path="url(#clip392)" cx="696.607" cy="1004.15" r="14.4" fill="#009af9" fill-rule="evenodd" fill-opacity="1" stroke="#000000" stroke-opacity="1" stroke-width="3.84"/>
<circle clip-path="url(#clip392)" cx="703.938" cy="827.893" r="14.4" fill="#009af9" fill-rule="evenodd" fill-opacity="1" stroke="#000000" stroke-opacity="1" stroke-width="3.84"/>
<circle clip-path="url(#clip392)" cx="715.443" cy="1380.01" r="14.4" fill="#009af9" fill-rule="evenodd" fill-opacity="1" stroke="#000000" stroke-opacity="1" stroke-width="3.84"/>
<circle clip-path="url(#clip392)" cx="732.664" cy="951.771" r="14.4" fill="#009af9" fill-rule="evenodd" fill-opacity="1" stroke="#000000" stroke-opacity="1" stroke-width="3.84"/>
<circle clip-path="url(#clip392)" cx="749.044" cy="880.3" r="14.4" fill="#009af9" fill-rule="evenodd" fill-opacity="1" stroke="#000000" stroke-opacity="1" stroke-width="3.84"/>
<circle clip-path="url(#clip392)" cx="753.178" cy="1751.15" r="14.4" fill="#009af9" fill-rule="evenodd" fill-opacity="1" stroke="#000000" stroke-opacity="1" stroke-width="3.84"/>
<circle clip-path="url(#clip392)" cx="787.924" cy="1540.08" r="14.4" fill="#009af9" fill-rule="evenodd" fill-opacity="1" stroke="#000000" stroke-opacity="1" stroke-width="3.84"/>
<circle clip-path="url(#clip392)" cx="805.866" cy="1396.02" r="14.4" fill="#009af9" fill-rule="evenodd" fill-opacity="1" stroke="#000000" stroke-opacity="1" stroke-width="3.84"/>
<circle clip-path="url(#clip392)" cx="820.789" cy="740.568" r="14.4" fill="#009af9" fill-rule="evenodd" fill-opacity="1" stroke="#000000" stroke-opacity="1" stroke-width="3.84"/>
<circle clip-path="url(#clip392)" cx="902.408" cy="1258.12" r="14.4" fill="#009af9" fill-rule="evenodd" fill-opacity="1" stroke="#000000" stroke-opacity="1" stroke-width="3.84"/>
<circle clip-path="url(#clip392)" cx="920.092" cy="1058.42" r="14.4" fill="#009af9" fill-rule="evenodd" fill-opacity="1" stroke="#000000" stroke-opacity="1" stroke-width="3.84"/>
<circle clip-path="url(#clip392)" cx="951.021" cy="744.649" r="14.4" fill="#009af9" fill-rule="evenodd" fill-opacity="1" stroke="#000000" stroke-opacity="1" stroke-width="3.84"/>
<circle clip-path="url(#clip392)" cx="961.64" cy="718.592" r="14.4" fill="#009af9" fill-rule="evenodd" fill-opacity="1" stroke="#000000" stroke-opacity="1" stroke-width="3.84"/>
<circle clip-path="url(#clip392)" cx="979.27" cy="1094.55" r="14.4" fill="#009af9" fill-rule="evenodd" fill-opacity="1" stroke="#000000" stroke-opacity="1" stroke-width="3.84"/>
<circle clip-path="url(#clip392)" cx="1010.64" cy="1222.9" r="14.4" fill="#009af9" fill-rule="evenodd" fill-opacity="1" stroke="#000000" stroke-opacity="1" stroke-width="3.84"/>
<circle clip-path="url(#clip392)" cx="1132.62" cy="1261.96" r="14.4" fill="#009af9" fill-rule="evenodd" fill-opacity="1" stroke="#000000" stroke-opacity="1" stroke-width="3.84"/>
<circle clip-path="url(#clip392)" cx="1135.18" cy="1542.36" r="14.4" fill="#009af9" fill-rule="evenodd" fill-opacity="1" stroke="#000000" stroke-opacity="1" stroke-width="3.84"/>
<circle clip-path="url(#clip392)" cx="1249.69" cy="96.8724" r="14.4" fill="#009af9" fill-rule="evenodd" fill-opacity="1" stroke="#000000" stroke-opacity="1" stroke-width="3.84"/>
<circle clip-path="url(#clip392)" cx="1265.41" cy="1511.45" r="14.4" fill="#009af9" fill-rule="evenodd" fill-opacity="1" stroke="#000000" stroke-opacity="1" stroke-width="3.84"/>
<polyline clip-path="url(#clip392)" style="stroke:#0000ff; stroke-linecap:round; stroke-linejoin:round; stroke-width:20; stroke-opacity:1; fill:none" points="
  220.501,697.357 221.886,702.243 234.694,747.421 242.391,774.571 248.899,797.526 255.968,822.461 262.485,845.449 269.472,870.095 277.567,898.65 284.761,924.026 
  291.069,946.278 297.947,970.539 304.866,994.945 312.516,1021.93 319.794,1047.6 327.362,1074.3 333.733,1096.77 341.51,1124.2 348.635,1149.33 355.216,1172.55 
  361.881,1196.06 369.352,1222.41 376.121,1246.29 383.872,1273.63 391.048,1298.94 398.123,1323.9 404.992,1348.13 412.034,1372.97 419.749,1400.18 430.956,1439.71 
  433.256,1447.82 
  "/>
<polyline clip-path="url(#clip392)" style="stroke:#0000ff; stroke-linecap:round; stroke-linejoin:round; stroke-width:20; stroke-opacity:1; fill:none" points="
  373.148,1374.74 373.942,1374.09 381.276,1368.1 385.684,1364.5 389.411,1361.46 393.459,1358.15 397.191,1355.1 401.192,1351.83 405.828,1348.04 409.948,1344.68 
  413.56,1341.73 417.499,1338.51 421.461,1335.27 425.842,1331.7 430.01,1328.29 434.344,1324.75 437.992,1321.77 442.446,1318.13 446.527,1314.8 450.295,1311.72 
  454.112,1308.6 458.39,1305.11 462.267,1301.94 466.705,1298.32 470.815,1294.96 474.866,1291.65 478.8,1288.44 482.833,1285.14 487.251,1281.53 493.669,1276.29 
  494.986,1275.21 
  "/>
<polyline clip-path="url(#clip392)" style="stroke:#0000ff; stroke-linecap:round; stroke-linejoin:round; stroke-width:20; stroke-opacity:1; fill:none" points="
  436.134,1465.98 437.064,1462.55 445.658,1430.87 450.823,1411.83 455.19,1395.73 459.933,1378.24 464.306,1362.12 468.995,1344.84 474.427,1324.81 479.254,1307.02 
  483.487,1291.41 488.102,1274.4 492.745,1257.28 497.878,1238.36 502.762,1220.36 507.84,1201.64 512.115,1185.88 517.334,1166.64 522.115,1149.01 526.531,1132.74 
  531.004,1116.25 536.016,1097.77 540.559,1081.02 545.76,1061.85 550.575,1044.1 555.322,1026.6 559.932,1009.6 564.657,992.185 569.834,973.1 577.354,945.377 
  578.897,939.689 
  "/>
<polyline clip-path="url(#clip392)" style="stroke:#0000ff; stroke-linecap:round; stroke-linejoin:round; stroke-width:20; stroke-opacity:1; fill:none" points="
  525.163,1027.53 525.922,1028.59 532.938,1038.42 537.154,1044.33 540.719,1049.33 544.591,1054.75 548.161,1059.75 551.988,1065.12 556.423,1071.33 560.364,1076.85 
  563.819,1081.69 567.587,1086.97 571.377,1092.28 575.567,1098.15 579.555,1103.74 583.7,1109.55 587.19,1114.44 591.45,1120.4 595.353,1125.87 598.958,1130.92 
  602.609,1136.04 606.702,1141.77 610.41,1146.97 614.655,1152.92 618.587,1158.42 622.462,1163.85 626.225,1169.13 630.082,1174.53 634.309,1180.45 640.448,1189.05 
  641.707,1190.82 
  "/>
<polyline clip-path="url(#clip392)" style="stroke:#0000ff; stroke-linecap:round; stroke-linejoin:round; stroke-width:20; stroke-opacity:1; fill:none" points="
  598.527,1155.93 599.142,1156.01 604.823,1156.82 608.238,1157.3 611.125,1157.7 614.261,1158.15 617.152,1158.55 620.251,1158.99 623.842,1159.5 627.033,1159.95 
  629.832,1160.34 632.883,1160.77 635.952,1161.21 639.346,1161.69 642.574,1162.14 645.932,1162.62 648.758,1163.01 652.208,1163.5 655.369,1163.95 658.288,1164.36 
  661.245,1164.78 664.559,1165.24 667.561,1165.67 671,1166.15 674.183,1166.6 677.322,1167.04 680.369,1167.47 683.493,1167.92 686.915,1168.4 691.887,1169.1 
  692.907,1169.24 
  "/>
<polyline clip-path="url(#clip392)" style="stroke:#0000ff; stroke-linecap:round; stroke-linejoin:round; stroke-width:20; stroke-opacity:1; fill:none" points="
  653.586,1266.21 654.101,1264.33 658.861,1246.95 661.722,1236.5 664.141,1227.67 666.768,1218.08 669.191,1209.23 671.788,1199.75 674.797,1188.76 677.471,1179 
  679.815,1170.44 682.372,1161.11 684.943,1151.72 687.787,1141.33 690.492,1131.46 693.305,1121.19 695.673,1112.54 698.564,1101.98 701.212,1092.31 703.658,1083.38 
  706.135,1074.34 708.912,1064.2 711.428,1055.01 714.309,1044.49 716.976,1034.76 719.606,1025.15 722.159,1015.83 724.777,1006.27 727.644,995.804 731.81,980.594 
  732.664,977.474 
  "/>
<polyline clip-path="url(#clip392)" style="stroke:#0000ff; stroke-linecap:round; stroke-linejoin:round; stroke-width:20; stroke-opacity:1; fill:none" points="
  693.952,1160.83 694.778,1161.21 702.413,1164.7 707.002,1166.8 710.882,1168.57 715.096,1170.49 718.981,1172.27 723.147,1174.17 727.973,1176.37 732.261,1178.33 
  736.022,1180.05 740.123,1181.93 744.248,1183.81 748.808,1185.89 753.147,1187.87 757.659,1189.94 761.457,1191.67 766.094,1193.79 770.341,1195.73 774.264,1197.52 
  778.238,1199.34 782.692,1201.37 786.728,1203.21 791.348,1205.32 795.626,1207.28 799.844,1209.21 803.939,1211.08 808.138,1212.99 812.737,1215.1 819.419,1218.15 
  820.789,1218.77 
  "/>
<polyline clip-path="url(#clip392)" style="stroke:#0000ff; stroke-linecap:round; stroke-linejoin:round; stroke-width:20; stroke-opacity:1; fill:none" points="
  749.044,1352.59 750.543,1349.51 764.402,1321.04 772.731,1303.93 779.773,1289.46 787.423,1273.75 794.475,1259.26 802.036,1243.73 810.796,1225.74 818.581,1209.75 
  825.407,1195.72 832.85,1180.43 840.337,1165.05 848.615,1148.05 856.491,1131.87 864.68,1115.05 871.574,1100.89 879.99,1083.6 887.7,1067.76 894.821,1053.13 
  902.034,1038.31 910.118,1021.71 917.444,1006.66 925.831,989.432 933.596,973.48 941.252,957.753 948.685,942.483 956.305,926.83 964.654,909.68 976.782,884.767 
  979.27,879.656 
  "/>
<polyline clip-path="url(#clip392)" style="stroke:#0000ff; stroke-linecap:round; stroke-linejoin:round; stroke-width:20; stroke-opacity:1; fill:none" points="
  902.408,1063.49 904.772,1063.29 926.624,1061.45 939.756,1060.34 950.86,1059.41 962.921,1058.39 974.04,1057.45 985.962,1056.45 999.773,1055.29 1012.05,1054.25 
  1022.81,1053.35 1034.55,1052.36 1046.35,1051.36 1059.4,1050.26 1071.82,1049.22 1084.73,1048.13 1095.6,1047.21 1108.87,1046.09 1121.03,1045.07 1132.26,1044.12 
  1143.63,1043.17 1156.38,1042.09 1167.93,1041.12 1181.15,1040 1193.39,1038.97 1205.47,1037.96 1217.19,1036.97 1229.2,1035.96 1242.36,1034.85 1261.49,1033.24 
  1265.41,1032.9 
  "/>
<path clip-path="url(#clip390)" d="
M1533.15 1800.78 L2640.76 1800.78 L2640.76 47.2441 L1533.15 47.2441  Z
  " fill="#ffffff" fill-rule="evenodd" fill-opacity="1"/>
<defs>
  <clipPath id="clip393">
    <rect x="1533" y="47" width="1109" height="1755"/>
  </clipPath>
</defs>
<polyline clip-path="url(#clip393)" style="stroke:#000000; stroke-linecap:round; stroke-linejoin:round; stroke-width:2; stroke-opacity:0.1; fill:none" points="
  1612.85,1800.78 1612.85,47.2441 
  "/>
<polyline clip-path="url(#clip393)" style="stroke:#000000; stroke-linecap:round; stroke-linejoin:round; stroke-width:2; stroke-opacity:0.1; fill:none" points="
  1823.82,1800.78 1823.82,47.2441 
  "/>
<polyline clip-path="url(#clip393)" style="stroke:#000000; stroke-linecap:round; stroke-linejoin:round; stroke-width:2; stroke-opacity:0.1; fill:none" points="
  2034.8,1800.78 2034.8,47.2441 
  "/>
<polyline clip-path="url(#clip393)" style="stroke:#000000; stroke-linecap:round; stroke-linejoin:round; stroke-width:2; stroke-opacity:0.1; fill:none" points="
  2245.78,1800.78 2245.78,47.2441 
  "/>
<polyline clip-path="url(#clip393)" style="stroke:#000000; stroke-linecap:round; stroke-linejoin:round; stroke-width:2; stroke-opacity:0.1; fill:none" points="
  2456.75,1800.78 2456.75,47.2441 
  "/>
<polyline clip-path="url(#clip390)" style="stroke:#000000; stroke-linecap:round; stroke-linejoin:round; stroke-width:4; stroke-opacity:1; fill:none" points="
  1533.15,1800.78 2640.76,1800.78 
  "/>
<polyline clip-path="url(#clip390)" style="stroke:#000000; stroke-linecap:round; stroke-linejoin:round; stroke-width:4; stroke-opacity:1; fill:none" points="
  1612.85,1800.78 1612.85,1781.88 
  "/>
<polyline clip-path="url(#clip390)" style="stroke:#000000; stroke-linecap:round; stroke-linejoin:round; stroke-width:4; stroke-opacity:1; fill:none" points="
  1823.82,1800.78 1823.82,1781.88 
  "/>
<polyline clip-path="url(#clip390)" style="stroke:#000000; stroke-linecap:round; stroke-linejoin:round; stroke-width:4; stroke-opacity:1; fill:none" points="
  2034.8,1800.78 2034.8,1781.88 
  "/>
<polyline clip-path="url(#clip390)" style="stroke:#000000; stroke-linecap:round; stroke-linejoin:round; stroke-width:4; stroke-opacity:1; fill:none" points="
  2245.78,1800.78 2245.78,1781.88 
  "/>
<polyline clip-path="url(#clip390)" style="stroke:#000000; stroke-linecap:round; stroke-linejoin:round; stroke-width:4; stroke-opacity:1; fill:none" points="
  2456.75,1800.78 2456.75,1781.88 
  "/>
<path clip-path="url(#clip390)" d="M1564.92 1861.55 L1572.56 1861.55 L1572.56 1835.18 L1564.25 1836.85 L1564.25 1832.59 L1572.51 1830.92 L1577.19 1830.92 L1577.19 1861.55 L1584.83 1861.55 L1584.83 1865.48 L1564.92 1865.48 L1564.92 1861.55 Z" fill="#000000" fill-rule="evenodd" fill-opacity="1" /><path clip-path="url(#clip390)" d="M1594.27 1859.6 L1599.16 1859.6 L1599.16 1865.48 L1594.27 1865.48 L1594.27 1859.6 Z" fill="#000000" fill-rule="evenodd" fill-opacity="1" /><path clip-path="url(#clip390)" d="M1619.34 1834 Q1615.73 1834 1613.9 1837.57 Q1612.1 1841.11 1612.1 1848.24 Q1612.1 1855.34 1613.9 1858.91 Q1615.73 1862.45 1619.34 1862.45 Q1622.98 1862.45 1624.78 1858.91 Q1626.61 1855.34 1626.61 1848.24 Q1626.61 1841.11 1624.78 1837.57 Q1622.98 1834 1619.34 1834 M1619.34 1830.3 Q1625.15 1830.3 1628.21 1834.9 Q1631.29 1839.49 1631.29 1848.24 Q1631.29 1856.96 1628.21 1861.57 Q1625.15 1866.15 1619.34 1866.15 Q1613.53 1866.15 1610.45 1861.57 Q1607.4 1856.96 1607.4 1848.24 Q1607.4 1839.49 1610.45 1834.9 Q1613.53 1830.3 1619.34 1830.3 Z" fill="#000000" fill-rule="evenodd" fill-opacity="1" /><path clip-path="url(#clip390)" d="M1649.5 1834 Q1645.89 1834 1644.06 1837.57 Q1642.26 1841.11 1642.26 1848.24 Q1642.26 1855.34 1644.06 1858.91 Q1645.89 1862.45 1649.5 1862.45 Q1653.14 1862.45 1654.94 1858.91 Q1656.77 1855.34 1656.77 1848.24 Q1656.77 1841.11 1654.94 1837.57 Q1653.14 1834 1649.5 1834 M1649.5 1830.3 Q1655.31 1830.3 1658.37 1834.9 Q1661.45 1839.49 1661.45 1848.24 Q1661.45 1856.96 1658.37 1861.57 Q1655.31 1866.15 1649.5 1866.15 Q1643.69 1866.15 1640.61 1861.57 Q1637.56 1856.96 1637.56 1848.24 Q1637.56 1839.49 1640.61 1834.9 Q1643.69 1830.3 1649.5 1830.3 Z" fill="#000000" fill-rule="evenodd" fill-opacity="1" /><path clip-path="url(#clip390)" d="M1776.39 1861.55 L1784.03 1861.55 L1784.03 1835.18 L1775.72 1836.85 L1775.72 1832.59 L1783.99 1830.92 L1788.66 1830.92 L1788.66 1861.55 L1796.3 1861.55 L1796.3 1865.48 L1776.39 1865.48 L1776.39 1861.55 Z" fill="#000000" fill-rule="evenodd" fill-opacity="1" /><path clip-path="url(#clip390)" d="M1805.75 1859.6 L1810.63 1859.6 L1810.63 1865.48 L1805.75 1865.48 L1805.75 1859.6 Z" fill="#000000" fill-rule="evenodd" fill-opacity="1" /><path clip-path="url(#clip390)" d="M1824.84 1861.55 L1841.16 1861.55 L1841.16 1865.48 L1819.22 1865.48 L1819.22 1861.55 Q1821.88 1858.79 1826.46 1854.16 Q1831.07 1849.51 1832.25 1848.17 Q1834.5 1845.65 1835.38 1843.91 Q1836.28 1842.15 1836.28 1840.46 Q1836.28 1837.71 1834.33 1835.97 Q1832.41 1834.23 1829.31 1834.23 Q1827.11 1834.23 1824.66 1835 Q1822.23 1835.76 1819.45 1837.31 L1819.45 1832.59 Q1822.27 1831.46 1824.73 1830.88 Q1827.18 1830.3 1829.22 1830.3 Q1834.59 1830.3 1837.78 1832.98 Q1840.98 1835.67 1840.98 1840.16 Q1840.98 1842.29 1840.17 1844.21 Q1839.38 1846.11 1837.27 1848.7 Q1836.7 1849.37 1833.59 1852.59 Q1830.49 1855.78 1824.84 1861.55 Z" fill="#000000" fill-rule="evenodd" fill-opacity="1" /><path clip-path="url(#clip390)" d="M1851.02 1830.92 L1869.38 1830.92 L1869.38 1834.86 L1855.31 1834.86 L1855.31 1843.33 Q1856.32 1842.98 1857.34 1842.82 Q1858.36 1842.64 1859.38 1842.64 Q1865.17 1842.64 1868.55 1845.81 Q1871.93 1848.98 1871.93 1854.4 Q1871.93 1859.97 1868.45 1863.08 Q1864.98 1866.15 1858.66 1866.15 Q1856.49 1866.15 1854.22 1865.78 Q1851.97 1865.41 1849.57 1864.67 L1849.57 1859.97 Q1851.65 1861.11 1853.87 1861.66 Q1856.09 1862.22 1858.57 1862.22 Q1862.57 1862.22 1864.91 1860.11 Q1867.25 1858.01 1867.25 1854.4 Q1867.25 1850.78 1864.91 1848.68 Q1862.57 1846.57 1858.57 1846.57 Q1856.7 1846.57 1854.82 1846.99 Q1852.97 1847.4 1851.02 1848.28 L1851.02 1830.92 Z" fill="#000000" fill-rule="evenodd" fill-opacity="1" /><path clip-path="url(#clip390)" d="M1986.87 1861.55 L1994.51 1861.55 L1994.51 1835.18 L1986.2 1836.85 L1986.2 1832.59 L1994.47 1830.92 L1999.14 1830.92 L1999.14 1861.55 L2006.78 1861.55 L2006.78 1865.48 L1986.87 1865.48 L1986.87 1861.55 Z" fill="#000000" fill-rule="evenodd" fill-opacity="1" /><path clip-path="url(#clip390)" d="M2016.22 1859.6 L2021.11 1859.6 L2021.11 1865.48 L2016.22 1865.48 L2016.22 1859.6 Z" fill="#000000" fill-rule="evenodd" fill-opacity="1" /><path clip-path="url(#clip390)" d="M2031.34 1830.92 L2049.7 1830.92 L2049.7 1834.86 L2035.62 1834.86 L2035.62 1843.33 Q2036.64 1842.98 2037.66 1842.82 Q2038.68 1842.64 2039.7 1842.64 Q2045.48 1842.64 2048.86 1845.81 Q2052.24 1848.98 2052.24 1854.4 Q2052.24 1859.97 2048.77 1863.08 Q2045.3 1866.15 2038.98 1866.15 Q2036.8 1866.15 2034.53 1865.78 Q2032.29 1865.41 2029.88 1864.67 L2029.88 1859.97 Q2031.97 1861.11 2034.19 1861.66 Q2036.41 1862.22 2038.89 1862.22 Q2042.89 1862.22 2045.23 1860.11 Q2047.57 1858.01 2047.57 1854.4 Q2047.57 1850.78 2045.23 1848.68 Q2042.89 1846.57 2038.89 1846.57 Q2037.01 1846.57 2035.14 1846.99 Q2033.28 1847.4 2031.34 1848.28 L2031.34 1830.92 Z" fill="#000000" fill-rule="evenodd" fill-opacity="1" /><path clip-path="url(#clip390)" d="M2071.46 1834 Q2067.84 1834 2066.02 1837.57 Q2064.21 1841.11 2064.21 1848.24 Q2064.21 1855.34 2066.02 1858.91 Q2067.84 1862.45 2071.46 1862.45 Q2075.09 1862.45 2076.9 1858.91 Q2078.72 1855.34 2078.72 1848.24 Q2078.72 1841.11 2076.9 1837.57 Q2075.09 1834 2071.46 1834 M2071.46 1830.3 Q2077.27 1830.3 2080.32 1834.9 Q2083.4 1839.49 2083.4 1848.24 Q2083.4 1856.96 2080.32 1861.57 Q2077.27 1866.15 2071.46 1866.15 Q2065.65 1866.15 2062.57 1861.57 Q2059.51 1856.96 2059.51 1848.24 Q2059.51 1839.49 2062.57 1834.9 Q2065.65 1830.3 2071.46 1830.3 Z" fill="#000000" fill-rule="evenodd" fill-opacity="1" /><path clip-path="url(#clip390)" d="M2198.35 1861.55 L2205.99 1861.55 L2205.99 1835.18 L2197.68 1836.85 L2197.68 1832.59 L2205.94 1830.92 L2210.62 1830.92 L2210.62 1861.55 L2218.25 1861.55 L2218.25 1865.48 L2198.35 1865.48 L2198.35 1861.55 Z" fill="#000000" fill-rule="evenodd" fill-opacity="1" /><path clip-path="url(#clip390)" d="M2227.7 1859.6 L2232.58 1859.6 L2232.58 1865.48 L2227.7 1865.48 L2227.7 1859.6 Z" fill="#000000" fill-rule="evenodd" fill-opacity="1" /><path clip-path="url(#clip390)" d="M2241.59 1830.92 L2263.81 1830.92 L2263.81 1832.91 L2251.26 1865.48 L2246.38 1865.48 L2258.18 1834.86 L2241.59 1834.86 L2241.59 1830.92 Z" fill="#000000" fill-rule="evenodd" fill-opacity="1" /><path clip-path="url(#clip390)" d="M2272.98 1830.92 L2291.33 1830.92 L2291.33 1834.86 L2277.26 1834.86 L2277.26 1843.33 Q2278.28 1842.98 2279.3 1842.82 Q2280.31 1842.64 2281.33 1842.64 Q2287.12 1842.64 2290.5 1845.81 Q2293.88 1848.98 2293.88 1854.4 Q2293.88 1859.97 2290.41 1863.08 Q2286.93 1866.15 2280.62 1866.15 Q2278.44 1866.15 2276.17 1865.78 Q2273.93 1865.41 2271.52 1864.67 L2271.52 1859.97 Q2273.6 1861.11 2275.82 1861.66 Q2278.05 1862.22 2280.52 1862.22 Q2284.53 1862.22 2286.87 1860.11 Q2289.2 1858.01 2289.2 1854.4 Q2289.2 1850.78 2286.87 1848.68 Q2284.53 1846.57 2280.52 1846.57 Q2278.65 1846.57 2276.77 1846.99 Q2274.92 1847.4 2272.98 1848.28 L2272.98 1830.92 Z" fill="#000000" fill-rule="evenodd" fill-opacity="1" /><path clip-path="url(#clip390)" d="M2412.91 1861.55 L2429.23 1861.55 L2429.23 1865.48 L2407.29 1865.48 L2407.29 1861.55 Q2409.95 1858.79 2414.53 1854.16 Q2419.14 1849.51 2420.32 1848.17 Q2422.56 1845.65 2423.44 1843.91 Q2424.35 1842.15 2424.35 1840.46 Q2424.35 1837.71 2422.4 1835.97 Q2420.48 1834.23 2417.38 1834.23 Q2415.18 1834.23 2412.73 1835 Q2410.3 1835.76 2407.52 1837.31 L2407.52 1832.59 Q2410.34 1831.46 2412.8 1830.88 Q2415.25 1830.3 2417.29 1830.3 Q2422.66 1830.3 2425.85 1832.98 Q2429.05 1835.67 2429.05 1840.16 Q2429.05 1842.29 2428.24 1844.21 Q2427.45 1846.11 2425.34 1848.7 Q2424.76 1849.37 2421.66 1852.59 Q2418.56 1855.78 2412.91 1861.55 Z" fill="#000000" fill-rule="evenodd" fill-opacity="1" /><path clip-path="url(#clip390)" d="M2439.05 1859.6 L2443.93 1859.6 L2443.93 1865.48 L2439.05 1865.48 L2439.05 1859.6 Z" fill="#000000" fill-rule="evenodd" fill-opacity="1" /><path clip-path="url(#clip390)" d="M2464.11 1834 Q2460.5 1834 2458.68 1837.57 Q2456.87 1841.11 2456.87 1848.24 Q2456.87 1855.34 2458.68 1858.91 Q2460.5 1862.45 2464.11 1862.45 Q2467.75 1862.45 2469.55 1858.91 Q2471.38 1855.34 2471.38 1848.24 Q2471.38 1841.11 2469.55 1837.57 Q2467.75 1834 2464.11 1834 M2464.11 1830.3 Q2469.92 1830.3 2472.98 1834.9 Q2476.06 1839.49 2476.06 1848.24 Q2476.06 1856.96 2472.98 1861.57 Q2469.92 1866.15 2464.11 1866.15 Q2458.3 1866.15 2455.23 1861.57 Q2452.17 1856.96 2452.17 1848.24 Q2452.17 1839.49 2455.23 1834.9 Q2458.3 1830.3 2464.11 1830.3 Z" fill="#000000" fill-rule="evenodd" fill-opacity="1" /><path clip-path="url(#clip390)" d="M2494.28 1834 Q2490.67 1834 2488.84 1837.57 Q2487.03 1841.11 2487.03 1848.24 Q2487.03 1855.34 2488.84 1858.91 Q2490.67 1862.45 2494.28 1862.45 Q2497.91 1862.45 2499.72 1858.91 Q2501.55 1855.34 2501.55 1848.24 Q2501.55 1841.11 2499.72 1837.57 Q2497.91 1834 2494.28 1834 M2494.28 1830.3 Q2500.09 1830.3 2503.14 1834.9 Q2506.22 1839.49 2506.22 1848.24 Q2506.22 1856.96 2503.14 1861.57 Q2500.09 1866.15 2494.28 1866.15 Q2488.47 1866.15 2485.39 1861.57 Q2482.33 1856.96 2482.33 1848.24 Q2482.33 1839.49 2485.39 1834.9 Q2488.47 1830.3 2494.28 1830.3 Z" fill="#000000" fill-rule="evenodd" fill-opacity="1" /><polyline clip-path="url(#clip393)" style="stroke:#000000; stroke-linecap:round; stroke-linejoin:round; stroke-width:2; stroke-opacity:0.1; fill:none" points="
  1533.15,1505.46 2640.76,1505.46 
  "/>
<polyline clip-path="url(#clip393)" style="stroke:#000000; stroke-linecap:round; stroke-linejoin:round; stroke-width:2; stroke-opacity:0.1; fill:none" points="
  1533.15,1152.58 2640.76,1152.58 
  "/>
<polyline clip-path="url(#clip393)" style="stroke:#000000; stroke-linecap:round; stroke-linejoin:round; stroke-width:2; stroke-opacity:0.1; fill:none" points="
  1533.15,799.704 2640.76,799.704 
  "/>
<polyline clip-path="url(#clip393)" style="stroke:#000000; stroke-linecap:round; stroke-linejoin:round; stroke-width:2; stroke-opacity:0.1; fill:none" points="
  1533.15,446.828 2640.76,446.828 
  "/>
<polyline clip-path="url(#clip393)" style="stroke:#000000; stroke-linecap:round; stroke-linejoin:round; stroke-width:2; stroke-opacity:0.1; fill:none" points="
  1533.15,93.9516 2640.76,93.9516 
  "/>
<polyline clip-path="url(#clip390)" style="stroke:#000000; stroke-linecap:round; stroke-linejoin:round; stroke-width:4; stroke-opacity:1; fill:none" points="
  1533.15,1800.78 1533.15,47.2441 
  "/>
<polyline clip-path="url(#clip390)" style="stroke:#000000; stroke-linecap:round; stroke-linejoin:round; stroke-width:4; stroke-opacity:1; fill:none" points="
  1533.15,1505.46 1552.05,1505.46 
  "/>
<polyline clip-path="url(#clip390)" style="stroke:#000000; stroke-linecap:round; stroke-linejoin:round; stroke-width:4; stroke-opacity:1; fill:none" points="
  1533.15,1152.58 1552.05,1152.58 
  "/>
<polyline clip-path="url(#clip390)" style="stroke:#000000; stroke-linecap:round; stroke-linejoin:round; stroke-width:4; stroke-opacity:1; fill:none" points="
  1533.15,799.704 1552.05,799.704 
  "/>
<polyline clip-path="url(#clip390)" style="stroke:#000000; stroke-linecap:round; stroke-linejoin:round; stroke-width:4; stroke-opacity:1; fill:none" points="
  1533.15,446.828 1552.05,446.828 
  "/>
<polyline clip-path="url(#clip390)" style="stroke:#000000; stroke-linecap:round; stroke-linejoin:round; stroke-width:4; stroke-opacity:1; fill:none" points="
  1533.15,93.9516 1552.05,93.9516 
  "/>
<path clip-path="url(#clip390)" d="M1405.5 1491.26 Q1401.89 1491.26 1400.06 1494.82 Q1398.25 1498.36 1398.25 1505.49 Q1398.25 1512.6 1400.06 1516.16 Q1401.89 1519.7 1405.5 1519.7 Q1409.13 1519.7 1410.94 1516.16 Q1412.76 1512.6 1412.76 1505.49 Q1412.76 1498.36 1410.94 1494.82 Q1409.13 1491.26 1405.5 1491.26 M1405.5 1487.55 Q1411.31 1487.55 1414.36 1492.16 Q1417.44 1496.74 1417.44 1505.49 Q1417.44 1514.22 1414.36 1518.82 Q1411.31 1523.41 1405.5 1523.41 Q1399.69 1523.41 1396.61 1518.82 Q1393.55 1514.22 1393.55 1505.49 Q1393.55 1496.74 1396.61 1492.16 Q1399.69 1487.55 1405.5 1487.55 Z" fill="#000000" fill-rule="evenodd" fill-opacity="1" /><path clip-path="url(#clip390)" d="M1425.66 1516.86 L1430.54 1516.86 L1430.54 1522.74 L1425.66 1522.74 L1425.66 1516.86 Z" fill="#000000" fill-rule="evenodd" fill-opacity="1" /><path clip-path="url(#clip390)" d="M1450.73 1491.26 Q1447.12 1491.26 1445.29 1494.82 Q1443.48 1498.36 1443.48 1505.49 Q1443.48 1512.6 1445.29 1516.16 Q1447.12 1519.7 1450.73 1519.7 Q1454.36 1519.7 1456.17 1516.16 Q1458 1512.6 1458 1505.49 Q1458 1498.36 1456.17 1494.82 Q1454.36 1491.26 1450.73 1491.26 M1450.73 1487.55 Q1456.54 1487.55 1459.59 1492.16 Q1462.67 1496.74 1462.67 1505.49 Q1462.67 1514.22 1459.59 1518.82 Q1456.54 1523.41 1450.73 1523.41 Q1444.92 1523.41 1441.84 1518.82 Q1438.78 1514.22 1438.78 1505.49 Q1438.78 1496.74 1441.84 1492.16 Q1444.92 1487.55 1450.73 1487.55 Z" fill="#000000" fill-rule="evenodd" fill-opacity="1" /><path clip-path="url(#clip390)" d="M1480.89 1491.26 Q1477.28 1491.26 1475.45 1494.82 Q1473.64 1498.36 1473.64 1505.49 Q1473.64 1512.6 1475.45 1516.16 Q1477.28 1519.7 1480.89 1519.7 Q1484.52 1519.7 1486.33 1516.16 Q1488.16 1512.6 1488.16 1505.49 Q1488.16 1498.36 1486.33 1494.82 Q1484.52 1491.26 1480.89 1491.26 M1480.89 1487.55 Q1486.7 1487.55 1489.76 1492.16 Q1492.83 1496.74 1492.83 1505.49 Q1492.83 1514.22 1489.76 1518.82 Q1486.7 1523.41 1480.89 1523.41 Q1475.08 1523.41 1472 1518.82 Q1468.95 1514.22 1468.95 1505.49 Q1468.95 1496.74 1472 1492.16 Q1475.08 1487.55 1480.89 1487.55 Z" fill="#000000" fill-rule="evenodd" fill-opacity="1" /><path clip-path="url(#clip390)" d="M1406.49 1138.38 Q1402.88 1138.38 1401.05 1141.94 Q1399.25 1145.49 1399.25 1152.62 Q1399.25 1159.72 1401.05 1163.29 Q1402.88 1166.83 1406.49 1166.83 Q1410.13 1166.83 1411.93 1163.29 Q1413.76 1159.72 1413.76 1152.62 Q1413.76 1145.49 1411.93 1141.94 Q1410.13 1138.38 1406.49 1138.38 M1406.49 1134.68 Q1412.3 1134.68 1415.36 1139.28 Q1418.44 1143.87 1418.44 1152.62 Q1418.44 1161.34 1415.36 1165.95 Q1412.3 1170.53 1406.49 1170.53 Q1400.68 1170.53 1397.6 1165.95 Q1394.55 1161.34 1394.55 1152.62 Q1394.55 1143.87 1397.6 1139.28 Q1400.68 1134.68 1406.49 1134.68 Z" fill="#000000" fill-rule="evenodd" fill-opacity="1" /><path clip-path="url(#clip390)" d="M1426.65 1163.98 L1431.54 1163.98 L1431.54 1169.86 L1426.65 1169.86 L1426.65 1163.98 Z" fill="#000000" fill-rule="evenodd" fill-opacity="1" /><path clip-path="url(#clip390)" d="M1445.75 1165.93 L1462.07 1165.93 L1462.07 1169.86 L1440.13 1169.86 L1440.13 1165.93 Q1442.79 1163.17 1447.37 1158.54 Q1451.98 1153.89 1453.16 1152.55 Q1455.4 1150.02 1456.28 1148.29 Q1457.19 1146.53 1457.19 1144.84 Q1457.19 1142.08 1455.24 1140.35 Q1453.32 1138.61 1450.22 1138.61 Q1448.02 1138.61 1445.57 1139.37 Q1443.14 1140.14 1440.36 1141.69 L1440.36 1136.97 Q1443.18 1135.83 1445.64 1135.25 Q1448.09 1134.68 1450.13 1134.68 Q1455.5 1134.68 1458.69 1137.36 Q1461.89 1140.05 1461.89 1144.54 Q1461.89 1146.67 1461.07 1148.59 Q1460.29 1150.49 1458.18 1153.08 Q1457.6 1153.75 1454.5 1156.97 Q1451.4 1160.16 1445.75 1165.93 Z" fill="#000000" fill-rule="evenodd" fill-opacity="1" /><path clip-path="url(#clip390)" d="M1471.93 1135.3 L1490.29 1135.3 L1490.29 1139.24 L1476.21 1139.24 L1476.21 1147.71 Q1477.23 1147.36 1478.25 1147.2 Q1479.27 1147.01 1480.29 1147.01 Q1486.07 1147.01 1489.45 1150.18 Q1492.83 1153.36 1492.83 1158.77 Q1492.83 1164.35 1489.36 1167.45 Q1485.89 1170.53 1479.57 1170.53 Q1477.39 1170.53 1475.13 1170.16 Q1472.88 1169.79 1470.47 1169.05 L1470.47 1164.35 Q1472.56 1165.49 1474.78 1166.04 Q1477 1166.6 1479.48 1166.6 Q1483.48 1166.6 1485.82 1164.49 Q1488.16 1162.38 1488.16 1158.77 Q1488.16 1155.16 1485.82 1153.05 Q1483.48 1150.95 1479.48 1150.95 Q1477.6 1150.95 1475.73 1151.37 Q1473.88 1151.78 1471.93 1152.66 L1471.93 1135.3 Z" fill="#000000" fill-rule="evenodd" fill-opacity="1" /><path clip-path="url(#clip390)" d="M1405.5 785.503 Q1401.89 785.503 1400.06 789.068 Q1398.25 792.609 1398.25 799.739 Q1398.25 806.845 1400.06 810.41 Q1401.89 813.952 1405.5 813.952 Q1409.13 813.952 1410.94 810.41 Q1412.76 806.845 1412.76 799.739 Q1412.76 792.609 1410.94 789.068 Q1409.13 785.503 1405.5 785.503 M1405.5 781.799 Q1411.31 781.799 1414.36 786.406 Q1417.44 790.989 1417.44 799.739 Q1417.44 808.466 1414.36 813.072 Q1411.31 817.655 1405.5 817.655 Q1399.69 817.655 1396.61 813.072 Q1393.55 808.466 1393.55 799.739 Q1393.55 790.989 1396.61 786.406 Q1399.69 781.799 1405.5 781.799 Z" fill="#000000" fill-rule="evenodd" fill-opacity="1" /><path clip-path="url(#clip390)" d="M1425.66 811.104 L1430.54 811.104 L1430.54 816.984 L1425.66 816.984 L1425.66 811.104 Z" fill="#000000" fill-rule="evenodd" fill-opacity="1" /><path clip-path="url(#clip390)" d="M1440.77 782.424 L1459.13 782.424 L1459.13 786.359 L1445.06 786.359 L1445.06 794.831 Q1446.07 794.484 1447.09 794.322 Q1448.11 794.137 1449.13 794.137 Q1454.92 794.137 1458.3 797.308 Q1461.68 800.48 1461.68 805.896 Q1461.68 811.475 1458.2 814.577 Q1454.73 817.655 1448.41 817.655 Q1446.24 817.655 1443.97 817.285 Q1441.72 816.915 1439.32 816.174 L1439.32 811.475 Q1441.4 812.609 1443.62 813.165 Q1445.84 813.72 1448.32 813.72 Q1452.32 813.72 1454.66 811.614 Q1457 809.507 1457 805.896 Q1457 802.285 1454.66 800.179 Q1452.32 798.072 1448.32 798.072 Q1446.45 798.072 1444.57 798.489 Q1442.72 798.905 1440.77 799.785 L1440.77 782.424 Z" fill="#000000" fill-rule="evenodd" fill-opacity="1" /><path clip-path="url(#clip390)" d="M1480.89 785.503 Q1477.28 785.503 1475.45 789.068 Q1473.64 792.609 1473.64 799.739 Q1473.64 806.845 1475.45 810.41 Q1477.28 813.952 1480.89 813.952 Q1484.52 813.952 1486.33 810.41 Q1488.16 806.845 1488.16 799.739 Q1488.16 792.609 1486.33 789.068 Q1484.52 785.503 1480.89 785.503 M1480.89 781.799 Q1486.7 781.799 1489.76 786.406 Q1492.83 790.989 1492.83 799.739 Q1492.83 808.466 1489.76 813.072 Q1486.7 817.655 1480.89 817.655 Q1475.08 817.655 1472 813.072 Q1468.95 808.466 1468.95 799.739 Q1468.95 790.989 1472 786.406 Q1475.08 781.799 1480.89 781.799 Z" fill="#000000" fill-rule="evenodd" fill-opacity="1" /><path clip-path="url(#clip390)" d="M1406.49 432.627 Q1402.88 432.627 1401.05 436.191 Q1399.25 439.733 1399.25 446.863 Q1399.25 453.969 1401.05 457.534 Q1402.88 461.075 1406.49 461.075 Q1410.13 461.075 1411.93 457.534 Q1413.76 453.969 1413.76 446.863 Q1413.76 439.733 1411.93 436.191 Q1410.13 432.627 1406.49 432.627 M1406.49 428.923 Q1412.3 428.923 1415.36 433.529 Q1418.44 438.113 1418.44 446.863 Q1418.44 455.589 1415.36 460.196 Q1412.3 464.779 1406.49 464.779 Q1400.68 464.779 1397.6 460.196 Q1394.55 455.589 1394.55 446.863 Q1394.55 438.113 1397.6 433.529 Q1400.68 428.923 1406.49 428.923 Z" fill="#000000" fill-rule="evenodd" fill-opacity="1" /><path clip-path="url(#clip390)" d="M1426.65 458.228 L1431.54 458.228 L1431.54 464.108 L1426.65 464.108 L1426.65 458.228 Z" fill="#000000" fill-rule="evenodd" fill-opacity="1" /><path clip-path="url(#clip390)" d="M1440.54 429.548 L1462.76 429.548 L1462.76 431.539 L1450.22 464.108 L1445.33 464.108 L1457.14 433.483 L1440.54 433.483 L1440.54 429.548 Z" fill="#000000" fill-rule="evenodd" fill-opacity="1" /><path clip-path="url(#clip390)" d="M1471.93 429.548 L1490.29 429.548 L1490.29 433.483 L1476.21 433.483 L1476.21 441.955 Q1477.23 441.608 1478.25 441.446 Q1479.27 441.261 1480.29 441.261 Q1486.07 441.261 1489.45 444.432 Q1492.83 447.603 1492.83 453.02 Q1492.83 458.599 1489.36 461.7 Q1485.89 464.779 1479.57 464.779 Q1477.39 464.779 1475.13 464.409 Q1472.88 464.038 1470.47 463.298 L1470.47 458.599 Q1472.56 459.733 1474.78 460.288 Q1477 460.844 1479.48 460.844 Q1483.48 460.844 1485.82 458.738 Q1488.16 456.631 1488.16 453.02 Q1488.16 449.409 1485.82 447.302 Q1483.48 445.196 1479.48 445.196 Q1477.6 445.196 1475.73 445.613 Q1473.88 446.029 1471.93 446.909 L1471.93 429.548 Z" fill="#000000" fill-rule="evenodd" fill-opacity="1" /><path clip-path="url(#clip390)" d="M1396.31 107.296 L1403.95 107.296 L1403.95 80.9308 L1395.64 82.5975 L1395.64 78.3383 L1403.9 76.6716 L1408.58 76.6716 L1408.58 107.296 L1416.21 107.296 L1416.21 111.232 L1396.31 111.232 L1396.31 107.296 Z" fill="#000000" fill-rule="evenodd" fill-opacity="1" /><path clip-path="url(#clip390)" d="M1425.66 105.352 L1430.54 105.352 L1430.54 111.232 L1425.66 111.232 L1425.66 105.352 Z" fill="#000000" fill-rule="evenodd" fill-opacity="1" /><path clip-path="url(#clip390)" d="M1450.73 79.7503 Q1447.12 79.7503 1445.29 83.3151 Q1443.48 86.8567 1443.48 93.9863 Q1443.48 101.093 1445.29 104.658 Q1447.12 108.199 1450.73 108.199 Q1454.36 108.199 1456.17 104.658 Q1458 101.093 1458 93.9863 Q1458 86.8567 1456.17 83.3151 Q1454.36 79.7503 1450.73 79.7503 M1450.73 76.0466 Q1456.54 76.0466 1459.59 80.6531 Q1462.67 85.2364 1462.67 93.9863 Q1462.67 102.713 1459.59 107.32 Q1456.54 111.903 1450.73 111.903 Q1444.92 111.903 1441.84 107.32 Q1438.78 102.713 1438.78 93.9863 Q1438.78 85.2364 1441.84 80.6531 Q1444.92 76.0466 1450.73 76.0466 Z" fill="#000000" fill-rule="evenodd" fill-opacity="1" /><path clip-path="url(#clip390)" d="M1480.89 79.7503 Q1477.28 79.7503 1475.45 83.3151 Q1473.64 86.8567 1473.64 93.9863 Q1473.64 101.093 1475.45 104.658 Q1477.28 108.199 1480.89 108.199 Q1484.52 108.199 1486.33 104.658 Q1488.16 101.093 1488.16 93.9863 Q1488.16 86.8567 1486.33 83.3151 Q1484.52 79.7503 1480.89 79.7503 M1480.89 76.0466 Q1486.7 76.0466 1489.76 80.6531 Q1492.83 85.2364 1492.83 93.9863 Q1492.83 102.713 1489.76 107.32 Q1486.7 111.903 1480.89 111.903 Q1475.08 111.903 1472 107.32 Q1468.95 102.713 1468.95 93.9863 Q1468.95 85.2364 1472 80.6531 Q1475.08 76.0466 1480.89 76.0466 Z" fill="#000000" fill-rule="evenodd" fill-opacity="1" /><circle clip-path="url(#clip393)" cx="1564.5" cy="923.855" r="14.4" fill="#009af9" fill-rule="evenodd" fill-opacity="1" stroke="#000000" stroke-opacity="1" stroke-width="3.84"/>
<circle clip-path="url(#clip393)" cx="1603.52" cy="649.876" r="14.4" fill="#009af9" fill-rule="evenodd" fill-opacity="1" stroke="#000000" stroke-opacity="1" stroke-width="3.84"/>
<circle clip-path="url(#clip393)" cx="1633.4" cy="657.452" r="14.4" fill="#009af9" fill-rule="evenodd" fill-opacity="1" stroke="#000000" stroke-opacity="1" stroke-width="3.84"/>
<circle clip-path="url(#clip393)" cx="1645.07" cy="1100.67" r="14.4" fill="#009af9" fill-rule="evenodd" fill-opacity="1" stroke="#000000" stroke-opacity="1" stroke-width="3.84"/>
<circle clip-path="url(#clip393)" cx="1668.25" cy="1135.86" r="14.4" fill="#009af9" fill-rule="evenodd" fill-opacity="1" stroke="#000000" stroke-opacity="1" stroke-width="3.84"/>
<circle clip-path="url(#clip393)" cx="1717.15" cy="1272.35" r="14.4" fill="#009af9" fill-rule="evenodd" fill-opacity="1" stroke="#000000" stroke-opacity="1" stroke-width="3.84"/>
<circle clip-path="url(#clip393)" cx="1720.7" cy="1365.73" r="14.4" fill="#009af9" fill-rule="evenodd" fill-opacity="1" stroke="#000000" stroke-opacity="1" stroke-width="3.84"/>
<circle clip-path="url(#clip393)" cx="1739.7" cy="1451.18" r="14.4" fill="#009af9" fill-rule="evenodd" fill-opacity="1" stroke="#000000" stroke-opacity="1" stroke-width="3.84"/>
<circle clip-path="url(#clip393)" cx="1752.12" cy="845.395" r="14.4" fill="#009af9" fill-rule="evenodd" fill-opacity="1" stroke="#000000" stroke-opacity="1" stroke-width="3.84"/>
<circle clip-path="url(#clip393)" cx="1777.26" cy="1721.76" r="14.4" fill="#009af9" fill-rule="evenodd" fill-opacity="1" stroke="#000000" stroke-opacity="1" stroke-width="3.84"/>
<circle clip-path="url(#clip393)" cx="1780.13" cy="1639.2" r="14.4" fill="#009af9" fill-rule="evenodd" fill-opacity="1" stroke="#000000" stroke-opacity="1" stroke-width="3.84"/>
<circle clip-path="url(#clip393)" cx="1788.68" cy="1527.71" r="14.4" fill="#009af9" fill-rule="evenodd" fill-opacity="1" stroke="#000000" stroke-opacity="1" stroke-width="3.84"/>
<circle clip-path="url(#clip393)" cx="1802.8" cy="1329.23" r="14.4" fill="#009af9" fill-rule="evenodd" fill-opacity="1" stroke="#000000" stroke-opacity="1" stroke-width="3.84"/>
<circle clip-path="url(#clip393)" cx="1823.5" cy="817.202" r="14.4" fill="#009af9" fill-rule="evenodd" fill-opacity="1" stroke="#000000" stroke-opacity="1" stroke-width="3.84"/>
<circle clip-path="url(#clip393)" cx="1838.99" cy="1312.38" r="14.4" fill="#009af9" fill-rule="evenodd" fill-opacity="1" stroke="#000000" stroke-opacity="1" stroke-width="3.84"/>
<circle clip-path="url(#clip393)" cx="1869.16" cy="1218.42" r="14.4" fill="#009af9" fill-rule="evenodd" fill-opacity="1" stroke="#000000" stroke-opacity="1" stroke-width="3.84"/>
<circle clip-path="url(#clip393)" cx="1896" cy="1102.54" r="14.4" fill="#009af9" fill-rule="evenodd" fill-opacity="1" stroke="#000000" stroke-opacity="1" stroke-width="3.84"/>
<circle clip-path="url(#clip393)" cx="1896.74" cy="1290.07" r="14.4" fill="#009af9" fill-rule="evenodd" fill-opacity="1" stroke="#000000" stroke-opacity="1" stroke-width="3.84"/>
<circle clip-path="url(#clip393)" cx="1918.84" cy="888.262" r="14.4" fill="#009af9" fill-rule="evenodd" fill-opacity="1" stroke="#000000" stroke-opacity="1" stroke-width="3.84"/>
<circle clip-path="url(#clip393)" cx="1922.9" cy="820.038" r="14.4" fill="#009af9" fill-rule="evenodd" fill-opacity="1" stroke="#000000" stroke-opacity="1" stroke-width="3.84"/>
<circle clip-path="url(#clip393)" cx="1942.53" cy="782.423" r="14.4" fill="#009af9" fill-rule="evenodd" fill-opacity="1" stroke="#000000" stroke-opacity="1" stroke-width="3.84"/>
<circle clip-path="url(#clip393)" cx="1963.87" cy="1183.08" r="14.4" fill="#009af9" fill-rule="evenodd" fill-opacity="1" stroke="#000000" stroke-opacity="1" stroke-width="3.84"/>
<circle clip-path="url(#clip393)" cx="1968.25" cy="1207.7" r="14.4" fill="#009af9" fill-rule="evenodd" fill-opacity="1" stroke="#000000" stroke-opacity="1" stroke-width="3.84"/>
<circle clip-path="url(#clip393)" cx="1980.04" cy="1184.16" r="14.4" fill="#009af9" fill-rule="evenodd" fill-opacity="1" stroke="#000000" stroke-opacity="1" stroke-width="3.84"/>
<circle clip-path="url(#clip393)" cx="1985.71" cy="1512.69" r="14.4" fill="#009af9" fill-rule="evenodd" fill-opacity="1" stroke="#000000" stroke-opacity="1" stroke-width="3.84"/>
<circle clip-path="url(#clip393)" cx="1997.59" cy="1506.23" r="14.4" fill="#009af9" fill-rule="evenodd" fill-opacity="1" stroke="#000000" stroke-opacity="1" stroke-width="3.84"/>
<circle clip-path="url(#clip393)" cx="2008.26" cy="1094.49" r="14.4" fill="#009af9" fill-rule="evenodd" fill-opacity="1" stroke="#000000" stroke-opacity="1" stroke-width="3.84"/>
<circle clip-path="url(#clip393)" cx="2009.89" cy="1174.63" r="14.4" fill="#009af9" fill-rule="evenodd" fill-opacity="1" stroke="#000000" stroke-opacity="1" stroke-width="3.84"/>
<circle clip-path="url(#clip393)" cx="2034.27" cy="877.479" r="14.4" fill="#009af9" fill-rule="evenodd" fill-opacity="1" stroke="#000000" stroke-opacity="1" stroke-width="3.84"/>
<circle clip-path="url(#clip393)" cx="2036.91" cy="1107.23" r="14.4" fill="#009af9" fill-rule="evenodd" fill-opacity="1" stroke="#000000" stroke-opacity="1" stroke-width="3.84"/>
<circle clip-path="url(#clip393)" cx="2037.95" cy="1373.89" r="14.4" fill="#009af9" fill-rule="evenodd" fill-opacity="1" stroke="#000000" stroke-opacity="1" stroke-width="3.84"/>
<circle clip-path="url(#clip393)" cx="2040.61" cy="1004.15" r="14.4" fill="#009af9" fill-rule="evenodd" fill-opacity="1" stroke="#000000" stroke-opacity="1" stroke-width="3.84"/>
<circle clip-path="url(#clip393)" cx="2047.94" cy="827.893" r="14.4" fill="#009af9" fill-rule="evenodd" fill-opacity="1" stroke="#000000" stroke-opacity="1" stroke-width="3.84"/>
<circle clip-path="url(#clip393)" cx="2059.44" cy="1380.01" r="14.4" fill="#009af9" fill-rule="evenodd" fill-opacity="1" stroke="#000000" stroke-opacity="1" stroke-width="3.84"/>
<circle clip-path="url(#clip393)" cx="2076.66" cy="951.771" r="14.4" fill="#009af9" fill-rule="evenodd" fill-opacity="1" stroke="#000000" stroke-opacity="1" stroke-width="3.84"/>
<circle clip-path="url(#clip393)" cx="2093.04" cy="880.3" r="14.4" fill="#009af9" fill-rule="evenodd" fill-opacity="1" stroke="#000000" stroke-opacity="1" stroke-width="3.84"/>
<circle clip-path="url(#clip393)" cx="2097.18" cy="1751.15" r="14.4" fill="#009af9" fill-rule="evenodd" fill-opacity="1" stroke="#000000" stroke-opacity="1" stroke-width="3.84"/>
<circle clip-path="url(#clip393)" cx="2131.92" cy="1540.08" r="14.4" fill="#009af9" fill-rule="evenodd" fill-opacity="1" stroke="#000000" stroke-opacity="1" stroke-width="3.84"/>
<circle clip-path="url(#clip393)" cx="2149.87" cy="1396.02" r="14.4" fill="#009af9" fill-rule="evenodd" fill-opacity="1" stroke="#000000" stroke-opacity="1" stroke-width="3.84"/>
<circle clip-path="url(#clip393)" cx="2164.79" cy="740.568" r="14.4" fill="#009af9" fill-rule="evenodd" fill-opacity="1" stroke="#000000" stroke-opacity="1" stroke-width="3.84"/>
<circle clip-path="url(#clip393)" cx="2246.41" cy="1258.12" r="14.4" fill="#009af9" fill-rule="evenodd" fill-opacity="1" stroke="#000000" stroke-opacity="1" stroke-width="3.84"/>
<circle clip-path="url(#clip393)" cx="2264.09" cy="1058.42" r="14.4" fill="#009af9" fill-rule="evenodd" fill-opacity="1" stroke="#000000" stroke-opacity="1" stroke-width="3.84"/>
<circle clip-path="url(#clip393)" cx="2295.02" cy="744.649" r="14.4" fill="#009af9" fill-rule="evenodd" fill-opacity="1" stroke="#000000" stroke-opacity="1" stroke-width="3.84"/>
<circle clip-path="url(#clip393)" cx="2305.64" cy="718.592" r="14.4" fill="#009af9" fill-rule="evenodd" fill-opacity="1" stroke="#000000" stroke-opacity="1" stroke-width="3.84"/>
<circle clip-path="url(#clip393)" cx="2323.27" cy="1094.55" r="14.4" fill="#009af9" fill-rule="evenodd" fill-opacity="1" stroke="#000000" stroke-opacity="1" stroke-width="3.84"/>
<circle clip-path="url(#clip393)" cx="2354.64" cy="1222.9" r="14.4" fill="#009af9" fill-rule="evenodd" fill-opacity="1" stroke="#000000" stroke-opacity="1" stroke-width="3.84"/>
<circle clip-path="url(#clip393)" cx="2476.62" cy="1261.96" r="14.4" fill="#009af9" fill-rule="evenodd" fill-opacity="1" stroke="#000000" stroke-opacity="1" stroke-width="3.84"/>
<circle clip-path="url(#clip393)" cx="2479.18" cy="1542.36" r="14.4" fill="#009af9" fill-rule="evenodd" fill-opacity="1" stroke="#000000" stroke-opacity="1" stroke-width="3.84"/>
<circle clip-path="url(#clip393)" cx="2593.69" cy="96.8724" r="14.4" fill="#009af9" fill-rule="evenodd" fill-opacity="1" stroke="#000000" stroke-opacity="1" stroke-width="3.84"/>
<circle clip-path="url(#clip393)" cx="2609.41" cy="1511.45" r="14.4" fill="#009af9" fill-rule="evenodd" fill-opacity="1" stroke="#000000" stroke-opacity="1" stroke-width="3.84"/>
<polyline clip-path="url(#clip393)" style="stroke:#0000ff; stroke-linecap:round; stroke-linejoin:round; stroke-width:20; stroke-opacity:1; fill:none" points="
  1564.5,697.357 1565.89,702.243 1578.69,747.421 1586.39,774.571 1592.9,797.526 1599.97,822.461 1606.48,845.449 1613.47,870.095 1621.57,898.65 1628.76,924.026 
  1635.07,946.278 1641.95,970.539 1648.87,994.945 1656.52,1021.93 1663.79,1047.6 1671.36,1074.3 1677.73,1096.77 1685.51,1124.2 1692.64,1149.33 1699.22,1172.55 
  1705.88,1196.06 1713.35,1222.41 1720.12,1246.29 1727.87,1273.63 1735.05,1298.94 1742.12,1323.9 1748.99,1348.13 1756.03,1372.97 1763.75,1400.18 1774.96,1439.71 
  1777.26,1447.82 
  "/>
<polyline clip-path="url(#clip393)" style="stroke:#0000ff; stroke-linecap:round; stroke-linejoin:round; stroke-width:20; stroke-opacity:1; fill:none" points="
  1717.15,1374.74 1717.94,1374.09 1725.28,1368.1 1729.68,1364.5 1733.41,1361.46 1737.46,1358.15 1741.19,1355.1 1745.19,1351.83 1749.83,1348.04 1753.95,1344.68 
  1757.56,1341.73 1761.5,1338.51 1765.46,1335.27 1769.84,1331.7 1774.01,1328.29 1778.34,1324.75 1781.99,1321.77 1786.45,1318.13 1790.53,1314.8 1794.29,1311.72 
  1798.11,1308.6 1802.39,1305.11 1806.27,1301.94 1810.71,1298.32 1814.81,1294.96 1818.87,1291.65 1822.8,1288.44 1826.83,1285.14 1831.25,1281.53 1837.67,1276.29 
  1838.99,1275.21 
  "/>
<polyline clip-path="url(#clip393)" style="stroke:#0000ff; stroke-linecap:round; stroke-linejoin:round; stroke-width:20; stroke-opacity:1; fill:none" points="
  1780.13,1465.98 1781.06,1462.55 1789.66,1430.87 1794.82,1411.83 1799.19,1395.73 1803.93,1378.24 1808.31,1362.12 1812.99,1344.84 1818.43,1324.81 1823.25,1307.02 
  1827.49,1291.41 1832.1,1274.4 1836.75,1257.28 1841.88,1238.36 1846.76,1220.36 1851.84,1201.64 1856.12,1185.88 1861.33,1166.64 1866.12,1149.01 1870.53,1132.74 
  1875,1116.25 1880.02,1097.77 1884.56,1081.02 1889.76,1061.85 1894.57,1044.1 1899.32,1026.6 1903.93,1009.6 1908.66,992.185 1913.83,973.1 1921.35,945.377 
  1922.9,939.689 
  "/>
<polyline clip-path="url(#clip393)" style="stroke:#0000ff; stroke-linecap:round; stroke-linejoin:round; stroke-width:20; stroke-opacity:1; fill:none" points="
  1869.16,1027.53 1869.92,1028.59 1876.94,1038.42 1881.15,1044.33 1884.72,1049.33 1888.59,1054.75 1892.16,1059.75 1895.99,1065.12 1900.42,1071.33 1904.36,1076.85 
  1907.82,1081.69 1911.59,1086.97 1915.38,1092.28 1919.57,1098.15 1923.55,1103.74 1927.7,1109.55 1931.19,1114.44 1935.45,1120.4 1939.35,1125.87 1942.96,1130.92 
  1946.61,1136.04 1950.7,1141.77 1954.41,1146.97 1958.66,1152.92 1962.59,1158.42 1966.46,1163.85 1970.22,1169.13 1974.08,1174.53 1978.31,1180.45 1984.45,1189.05 
  1985.71,1190.82 
  "/>
<polyline clip-path="url(#clip393)" style="stroke:#0000ff; stroke-linecap:round; stroke-linejoin:round; stroke-width:20; stroke-opacity:1; fill:none" points="
  1942.53,1155.93 1943.14,1156.01 1948.82,1156.82 1952.24,1157.3 1955.12,1157.7 1958.26,1158.15 1961.15,1158.55 1964.25,1158.99 1967.84,1159.5 1971.03,1159.95 
  1973.83,1160.34 1976.88,1160.77 1979.95,1161.21 1983.35,1161.69 1986.57,1162.14 1989.93,1162.62 1992.76,1163.01 1996.21,1163.5 1999.37,1163.95 2002.29,1164.36 
  2005.24,1164.78 2008.56,1165.24 2011.56,1165.67 2015,1166.15 2018.18,1166.6 2021.32,1167.04 2024.37,1167.47 2027.49,1167.92 2030.92,1168.4 2035.89,1169.1 
  2036.91,1169.24 
  "/>
<polyline clip-path="url(#clip393)" style="stroke:#0000ff; stroke-linecap:round; stroke-linejoin:round; stroke-width:20; stroke-opacity:1; fill:none" points="
  1997.59,1266.21 1998.1,1264.33 2002.86,1246.95 2005.72,1236.5 2008.14,1227.67 2010.77,1218.08 2013.19,1209.23 2015.79,1199.75 2018.8,1188.76 2021.47,1179 
  2023.82,1170.44 2026.37,1161.11 2028.94,1151.72 2031.79,1141.33 2034.49,1131.46 2037.3,1121.19 2039.67,1112.54 2042.56,1101.98 2045.21,1092.31 2047.66,1083.38 
  2050.14,1074.34 2052.91,1064.2 2055.43,1055.01 2058.31,1044.49 2060.98,1034.76 2063.61,1025.15 2066.16,1015.83 2068.78,1006.27 2071.64,995.804 2075.81,980.594 
  2076.66,977.474 
  "/>
<polyline clip-path="url(#clip393)" style="stroke:#0000ff; stroke-linecap:round; stroke-linejoin:round; stroke-width:20; stroke-opacity:1; fill:none" points="
  2037.95,1160.83 2038.78,1161.21 2046.41,1164.7 2051,1166.8 2054.88,1168.57 2059.1,1170.49 2062.98,1172.27 2067.15,1174.17 2071.97,1176.37 2076.26,1178.33 
  2080.02,1180.05 2084.12,1181.93 2088.25,1183.81 2092.81,1185.89 2097.15,1187.87 2101.66,1189.94 2105.46,1191.67 2110.09,1193.79 2114.34,1195.73 2118.26,1197.52 
  2122.24,1199.34 2126.69,1201.37 2130.73,1203.21 2135.35,1205.32 2139.63,1207.28 2143.84,1209.21 2147.94,1211.08 2152.14,1212.99 2156.74,1215.1 2163.42,1218.15 
  2164.79,1218.77 
  "/>
<polyline clip-path="url(#clip393)" style="stroke:#0000ff; stroke-linecap:round; stroke-linejoin:round; stroke-width:20; stroke-opacity:1; fill:none" points="
  2093.04,1352.59 2094.54,1349.51 2108.4,1321.04 2116.73,1303.93 2123.77,1289.46 2131.42,1273.75 2138.48,1259.26 2146.04,1243.73 2154.8,1225.74 2162.58,1209.75 
  2169.41,1195.72 2176.85,1180.43 2184.34,1165.05 2192.61,1148.05 2200.49,1131.87 2208.68,1115.05 2215.57,1100.89 2223.99,1083.6 2231.7,1067.76 2238.82,1053.13 
  2246.03,1038.31 2254.12,1021.71 2261.44,1006.66 2269.83,989.432 2277.6,973.48 2285.25,957.753 2292.69,942.483 2300.31,926.83 2308.65,909.68 2320.78,884.767 
  2323.27,879.656 
  "/>
<polyline clip-path="url(#clip393)" style="stroke:#0000ff; stroke-linecap:round; stroke-linejoin:round; stroke-width:20; stroke-opacity:1; fill:none" points="
  2246.41,1063.49 2248.77,1063.29 2270.62,1061.45 2283.76,1060.34 2294.86,1059.41 2306.92,1058.39 2318.04,1057.45 2329.96,1056.45 2343.77,1055.29 2356.05,1054.25 
  2366.81,1053.35 2378.55,1052.36 2390.35,1051.36 2403.4,1050.26 2415.82,1049.22 2428.73,1048.13 2439.6,1047.21 2452.87,1046.09 2465.03,1045.07 2476.26,1044.12 
  2487.63,1043.17 2500.38,1042.09 2511.93,1041.12 2525.15,1040 2537.39,1038.97 2549.47,1037.96 2561.19,1036.97 2573.2,1035.96 2586.36,1034.85 2605.49,1033.24 
  2609.41,1032.9 
  "/>
<polyline clip-path="url(#clip393)" style="stroke:#ff0000; stroke-linecap:round; stroke-linejoin:round; stroke-width:20; stroke-opacity:1; fill:none" points="
  1564.5,669.684 1575.06,727.405 1585.61,782.221 1596.17,834.161 1606.72,883.254 1617.27,929.53 1627.83,972.829 1638.38,1013.24 1648.94,1050.62 1659.49,1084.83 
  1670.05,1116.28 1680.6,1145.02 1691.16,1171.14 1701.71,1194.68 1712.27,1215.72 1722.82,1234.15 1733.38,1249.99 1743.93,1263.41 1754.48,1274.49 1765.04,1282.91 
  1775.59,1288.79 1786.15,1291.65 1796.7,1290.51 1807.26,1284.53 1817.81,1271.51 1828.37,1253.49 1838.92,1231.82 1849.48,1213.75 1860.03,1193.02 1870.59,1170.78 
  1881.14,1148.22 1891.69,1132.06 1902.25,1121.96 1912.8,1117.32 1923.36,1113.43 1933.91,1109.87 1944.47,1107.59 1955.02,1106.89 1965.58,1107.71 1976.13,1113.02 
  1986.69,1119.76 1997.24,1129.41 2007.8,1141.56 2018.35,1153.54 2028.9,1165.42 2039.46,1175.46 2050.01,1183.99 2060.57,1191.09 2071.12,1195.37 2081.68,1197.74 
  2092.23,1197.84 2102.79,1196.68 2113.34,1194.78 2123.9,1192 2134.45,1187.33 2145.01,1178.85 2155.56,1170.01 2166.11,1160.4 2176.67,1146.35 2187.22,1132.57 
  2197.78,1119.51 2208.33,1107.6 2218.89,1097.27 2229.44,1088.95 2240,1083.08 2250.55,1080.09 2261.11,1081.9 2271.66,1085.32 2282.22,1088.11 2292.77,1090.09 
  2303.32,1091.18 2313.88,1091.47 2324.43,1090.59 2334.99,1089.17 2345.54,1087.18 2356.1,1084.62 2366.65,1082.26 2377.21,1079.78 2387.76,1077.13 2398.32,1074.31 
  2408.87,1071.28 2419.43,1068.03 2429.98,1064.54 2440.53,1060.79 2451.09,1056.74 2461.64,1052.38 2472.2,1047.7 2482.75,1043.6 2493.31,1040.35 2503.86,1036.88 
  2514.42,1033.16 2524.97,1029.17 2535.53,1024.9 2546.08,1020.32 2556.64,1015.42 2567.19,1010.16 2577.74,1004.54 2588.3,998.528 2598.85,991.893 2609.41,984.521 
  
  "/>
</svg>
