<?xml version="1.0" encoding="utf-8"?>
<svg xmlns="http://www.w3.org/2000/svg" xmlns:xlink="http://www.w3.org/1999/xlink" width="672" height="480" viewBox="0 0 2688 1920">
<defs>
  <clipPath id="clip260">
    <rect x="0" y="0" width="2688" height="1920"/>
  </clipPath>
</defs>
<path clip-path="url(#clip260)" d="
M0 1920 L2688 1920 L2688 0 L0 0  Z
  " fill="#ffffff" fill-rule="evenodd" fill-opacity="1"/>
<defs>
  <clipPath id="clip261">
    <rect x="537" y="0" width="1883" height="1883"/>
  </clipPath>
</defs>
<path clip-path="url(#clip260)" d="
M159.154 1800.78 L1296.76 1800.78 L1296.76 47.2441 L159.154 47.2441  Z
  " fill="#ffffff" fill-rule="evenodd" fill-opacity="1"/>
<defs>
  <clipPath id="clip262">
    <rect x="159" y="47" width="1139" height="1755"/>
  </clipPath>
</defs>
<polyline clip-path="url(#clip262)" style="stroke:#000000; stroke-linecap:round; stroke-linejoin:round; stroke-width:2; stroke-opacity:0.1; fill:none" points="
  219.917,1800.78 219.917,47.2441 
  "/>
<polyline clip-path="url(#clip262)" style="stroke:#000000; stroke-linecap:round; stroke-linejoin:round; stroke-width:2; stroke-opacity:0.1; fill:none" points="
  438.571,1800.78 438.571,47.2441 
  "/>
<polyline clip-path="url(#clip262)" style="stroke:#000000; stroke-linecap:round; stroke-linejoin:round; stroke-width:2; stroke-opacity:0.1; fill:none" points="
  657.224,1800.78 657.224,47.2441 
  "/>
<polyline clip-path="url(#clip262)" style="stroke:#000000; stroke-linecap:round; stroke-linejoin:round; stroke-width:2; stroke-opacity:0.1; fill:none" points="
  875.877,1800.78 875.877,47.2441 
  "/>
<polyline clip-path="url(#clip262)" style="stroke:#000000; stroke-linecap:round; stroke-linejoin:round; stroke-width:2; stroke-opacity:0.1; fill:none" points="
  1094.53,1800.78 1094.53,47.2441 
  "/>
<polyline clip-path="url(#clip260)" style="stroke:#000000; stroke-linecap:round; stroke-linejoin:round; stroke-width:4; stroke-opacity:1; fill:none" points="
  159.154,1800.78 1296.76,1800.78 
  "/>
<polyline clip-path="url(#clip260)" style="stroke:#000000; stroke-linecap:round; stroke-linejoin:round; stroke-width:4; stroke-opacity:1; fill:none" points="
  219.917,1800.78 219.917,1781.88 
  "/>
<polyline clip-path="url(#clip260)" style="stroke:#000000; stroke-linecap:round; stroke-linejoin:round; stroke-width:4; stroke-opacity:1; fill:none" points="
  438.571,1800.78 438.571,1781.88 
  "/>
<polyline clip-path="url(#clip260)" style="stroke:#000000; stroke-linecap:round; stroke-linejoin:round; stroke-width:4; stroke-opacity:1; fill:none" points="
  657.224,1800.78 657.224,1781.88 
  "/>
<polyline clip-path="url(#clip260)" style="stroke:#000000; stroke-linecap:round; stroke-linejoin:round; stroke-width:4; stroke-opacity:1; fill:none" points="
  875.877,1800.78 875.877,1781.88 
  "/>
<polyline clip-path="url(#clip260)" style="stroke:#000000; stroke-linecap:round; stroke-linejoin:round; stroke-width:4; stroke-opacity:1; fill:none" points="
  1094.53,1800.78 1094.53,1781.88 
  "/>
<path clip-path="url(#clip260)" d="M182.718 1834 Q179.107 1834 177.278 1837.57 Q175.473 1841.11 175.473 1848.24 Q175.473 1855.34 177.278 1858.91 Q179.107 1862.45 182.718 1862.45 Q186.353 1862.45 188.158 1858.91 Q189.987 1855.34 189.987 1848.24 Q189.987 1841.11 188.158 1837.57 Q186.353 1834 182.718 1834 M182.718 1830.3 Q188.528 1830.3 191.584 1834.9 Q194.663 1839.49 194.663 1848.24 Q194.663 1856.96 191.584 1861.57 Q188.528 1866.15 182.718 1866.15 Q176.908 1866.15 173.829 1861.57 Q170.774 1856.96 170.774 1848.24 Q170.774 1839.49 173.829 1834.9 Q176.908 1830.3 182.718 1830.3 Z" fill="#000000" fill-rule="evenodd" fill-opacity="1" /><path clip-path="url(#clip260)" d="M202.88 1859.6 L207.764 1859.6 L207.764 1865.48 L202.88 1865.48 L202.88 1859.6 Z" fill="#000000" fill-rule="evenodd" fill-opacity="1" /><path clip-path="url(#clip260)" d="M216.769 1830.92 L238.991 1830.92 L238.991 1832.91 L226.445 1865.48 L221.561 1865.48 L233.366 1834.86 L216.769 1834.86 L216.769 1830.92 Z" fill="#000000" fill-rule="evenodd" fill-opacity="1" /><path clip-path="url(#clip260)" d="M248.158 1830.92 L266.514 1830.92 L266.514 1834.86 L252.44 1834.86 L252.44 1843.33 Q253.459 1842.98 254.477 1842.82 Q255.496 1842.64 256.514 1842.64 Q262.301 1842.64 265.681 1845.81 Q269.06 1848.98 269.06 1854.4 Q269.06 1859.97 265.588 1863.08 Q262.116 1866.15 255.797 1866.15 Q253.621 1866.15 251.352 1865.78 Q249.107 1865.41 246.699 1864.67 L246.699 1859.97 Q248.783 1861.11 251.005 1861.66 Q253.227 1862.22 255.704 1862.22 Q259.709 1862.22 262.047 1860.11 Q264.385 1858.01 264.385 1854.4 Q264.385 1850.78 262.047 1848.68 Q259.709 1846.57 255.704 1846.57 Q253.829 1846.57 251.954 1846.99 Q250.102 1847.4 248.158 1848.28 L248.158 1830.92 Z" fill="#000000" fill-rule="evenodd" fill-opacity="1" /><path clip-path="url(#clip260)" d="M390.643 1861.55 L398.281 1861.55 L398.281 1835.18 L389.971 1836.85 L389.971 1832.59 L398.235 1830.92 L402.911 1830.92 L402.911 1861.55 L410.55 1861.55 L410.55 1865.48 L390.643 1865.48 L390.643 1861.55 Z" fill="#000000" fill-rule="evenodd" fill-opacity="1" /><path clip-path="url(#clip260)" d="M419.994 1859.6 L424.878 1859.6 L424.878 1865.48 L419.994 1865.48 L419.994 1859.6 Z" fill="#000000" fill-rule="evenodd" fill-opacity="1" /><path clip-path="url(#clip260)" d="M445.064 1834 Q441.452 1834 439.624 1837.57 Q437.818 1841.11 437.818 1848.24 Q437.818 1855.34 439.624 1858.91 Q441.452 1862.45 445.064 1862.45 Q448.698 1862.45 450.503 1858.91 Q452.332 1855.34 452.332 1848.24 Q452.332 1841.11 450.503 1837.57 Q448.698 1834 445.064 1834 M445.064 1830.3 Q450.874 1830.3 453.929 1834.9 Q457.008 1839.49 457.008 1848.24 Q457.008 1856.96 453.929 1861.57 Q450.874 1866.15 445.064 1866.15 Q439.253 1866.15 436.175 1861.57 Q433.119 1856.96 433.119 1848.24 Q433.119 1839.49 436.175 1834.9 Q439.253 1830.3 445.064 1830.3 Z" fill="#000000" fill-rule="evenodd" fill-opacity="1" /><path clip-path="url(#clip260)" d="M475.225 1834 Q471.614 1834 469.786 1837.57 Q467.98 1841.11 467.98 1848.24 Q467.98 1855.34 469.786 1858.91 Q471.614 1862.45 475.225 1862.45 Q478.86 1862.45 480.665 1858.91 Q482.494 1855.34 482.494 1848.24 Q482.494 1841.11 480.665 1837.57 Q478.86 1834 475.225 1834 M475.225 1830.3 Q481.036 1830.3 484.091 1834.9 Q487.17 1839.49 487.17 1848.24 Q487.17 1856.96 484.091 1861.57 Q481.036 1866.15 475.225 1866.15 Q469.415 1866.15 466.337 1861.57 Q463.281 1856.96 463.281 1848.24 Q463.281 1839.49 466.337 1834.9 Q469.415 1830.3 475.225 1830.3 Z" fill="#000000" fill-rule="evenodd" fill-opacity="1" /><path clip-path="url(#clip260)" d="M609.794 1861.55 L617.432 1861.55 L617.432 1835.18 L609.122 1836.85 L609.122 1832.59 L617.386 1830.92 L622.062 1830.92 L622.062 1861.55 L629.701 1861.55 L629.701 1865.48 L609.794 1865.48 L609.794 1861.55 Z" fill="#000000" fill-rule="evenodd" fill-opacity="1" /><path clip-path="url(#clip260)" d="M639.145 1859.6 L644.03 1859.6 L644.03 1865.48 L639.145 1865.48 L639.145 1859.6 Z" fill="#000000" fill-rule="evenodd" fill-opacity="1" /><path clip-path="url(#clip260)" d="M658.242 1861.55 L674.562 1861.55 L674.562 1865.48 L652.617 1865.48 L652.617 1861.55 Q655.279 1858.79 659.863 1854.16 Q664.469 1849.51 665.65 1848.17 Q667.895 1845.65 668.775 1843.91 Q669.678 1842.15 669.678 1840.46 Q669.678 1837.71 667.733 1835.97 Q665.812 1834.23 662.71 1834.23 Q660.511 1834.23 658.057 1835 Q655.627 1835.76 652.849 1837.31 L652.849 1832.59 Q655.673 1831.46 658.127 1830.88 Q660.58 1830.3 662.617 1830.3 Q667.988 1830.3 671.182 1832.98 Q674.377 1835.67 674.377 1840.16 Q674.377 1842.29 673.566 1844.21 Q672.779 1846.11 670.673 1848.7 Q670.094 1849.37 666.992 1852.59 Q663.891 1855.78 658.242 1861.55 Z" fill="#000000" fill-rule="evenodd" fill-opacity="1" /><path clip-path="url(#clip260)" d="M684.423 1830.92 L702.779 1830.92 L702.779 1834.86 L688.705 1834.86 L688.705 1843.33 Q689.724 1842.98 690.742 1842.82 Q691.761 1842.64 692.779 1842.64 Q698.566 1842.64 701.946 1845.81 Q705.326 1848.98 705.326 1854.4 Q705.326 1859.97 701.853 1863.08 Q698.381 1866.15 692.062 1866.15 Q689.886 1866.15 687.617 1865.78 Q685.372 1865.41 682.965 1864.67 L682.965 1859.97 Q685.048 1861.11 687.27 1861.66 Q689.492 1862.22 691.969 1862.22 Q695.974 1862.22 698.312 1860.11 Q700.65 1858.01 700.65 1854.4 Q700.65 1850.78 698.312 1848.68 Q695.974 1846.57 691.969 1846.57 Q690.094 1846.57 688.219 1846.99 Q686.367 1847.4 684.423 1848.28 L684.423 1830.92 Z" fill="#000000" fill-rule="evenodd" fill-opacity="1" /><path clip-path="url(#clip260)" d="M827.949 1861.55 L835.588 1861.55 L835.588 1835.18 L827.278 1836.85 L827.278 1832.59 L835.542 1830.92 L840.218 1830.92 L840.218 1861.55 L847.857 1861.55 L847.857 1865.48 L827.949 1865.48 L827.949 1861.55 Z" fill="#000000" fill-rule="evenodd" fill-opacity="1" /><path clip-path="url(#clip260)" d="M857.301 1859.6 L862.185 1859.6 L862.185 1865.48 L857.301 1865.48 L857.301 1859.6 Z" fill="#000000" fill-rule="evenodd" fill-opacity="1" /><path clip-path="url(#clip260)" d="M872.417 1830.92 L890.773 1830.92 L890.773 1834.86 L876.699 1834.86 L876.699 1843.33 Q877.718 1842.98 878.736 1842.82 Q879.755 1842.64 880.773 1842.64 Q886.56 1842.64 889.94 1845.81 Q893.319 1848.98 893.319 1854.4 Q893.319 1859.97 889.847 1863.08 Q886.375 1866.15 880.056 1866.15 Q877.88 1866.15 875.611 1865.78 Q873.366 1865.41 870.958 1864.67 L870.958 1859.97 Q873.042 1861.11 875.264 1861.66 Q877.486 1862.22 879.963 1862.22 Q883.968 1862.22 886.305 1860.11 Q888.643 1858.01 888.643 1854.4 Q888.643 1850.78 886.305 1848.68 Q883.968 1846.57 879.963 1846.57 Q878.088 1846.57 876.213 1846.99 Q874.361 1847.4 872.417 1848.28 L872.417 1830.92 Z" fill="#000000" fill-rule="evenodd" fill-opacity="1" /><path clip-path="url(#clip260)" d="M912.532 1834 Q908.921 1834 907.092 1837.57 Q905.287 1841.11 905.287 1848.24 Q905.287 1855.34 907.092 1858.91 Q908.921 1862.45 912.532 1862.45 Q916.166 1862.45 917.972 1858.91 Q919.801 1855.34 919.801 1848.24 Q919.801 1841.11 917.972 1837.57 Q916.166 1834 912.532 1834 M912.532 1830.3 Q918.342 1830.3 921.398 1834.9 Q924.477 1839.49 924.477 1848.24 Q924.477 1856.96 921.398 1861.57 Q918.342 1866.15 912.532 1866.15 Q906.722 1866.15 903.643 1861.57 Q900.588 1856.96 900.588 1848.24 Q900.588 1839.49 903.643 1834.9 Q906.722 1830.3 912.532 1830.3 Z" fill="#000000" fill-rule="evenodd" fill-opacity="1" /><path clip-path="url(#clip260)" d="M1047.1 1861.55 L1054.74 1861.55 L1054.74 1835.18 L1046.43 1836.85 L1046.43 1832.59 L1054.69 1830.92 L1059.37 1830.92 L1059.37 1861.55 L1067.01 1861.55 L1067.01 1865.48 L1047.1 1865.48 L1047.1 1861.55 Z" fill="#000000" fill-rule="evenodd" fill-opacity="1" /><path clip-path="url(#clip260)" d="M1076.45 1859.6 L1081.34 1859.6 L1081.34 1865.48 L1076.45 1865.48 L1076.45 1859.6 Z" fill="#000000" fill-rule="evenodd" fill-opacity="1" /><path clip-path="url(#clip260)" d="M1090.34 1830.92 L1112.56 1830.92 L1112.56 1832.91 L1100.02 1865.48 L1095.13 1865.48 L1106.94 1834.86 L1090.34 1834.86 L1090.34 1830.92 Z" fill="#000000" fill-rule="evenodd" fill-opacity="1" /><path clip-path="url(#clip260)" d="M1121.73 1830.92 L1140.09 1830.92 L1140.09 1834.86 L1126.01 1834.86 L1126.01 1843.33 Q1127.03 1842.98 1128.05 1842.82 Q1129.07 1842.64 1130.09 1842.64 Q1135.87 1842.64 1139.25 1845.81 Q1142.63 1848.98 1142.63 1854.4 Q1142.63 1859.97 1139.16 1863.08 Q1135.69 1866.15 1129.37 1866.15 Q1127.19 1866.15 1124.92 1865.78 Q1122.68 1865.41 1120.27 1864.67 L1120.27 1859.97 Q1122.35 1861.11 1124.58 1861.66 Q1126.8 1862.22 1129.28 1862.22 Q1133.28 1862.22 1135.62 1860.11 Q1137.96 1858.01 1137.96 1854.4 Q1137.96 1850.78 1135.62 1848.68 Q1133.28 1846.57 1129.28 1846.57 Q1127.4 1846.57 1125.53 1846.99 Q1123.67 1847.4 1121.73 1848.28 L1121.73 1830.92 Z" fill="#000000" fill-rule="evenodd" fill-opacity="1" /><polyline clip-path="url(#clip262)" style="stroke:#000000; stroke-linecap:round; stroke-linejoin:round; stroke-width:2; stroke-opacity:0.1; fill:none" points="
  159.154,1469.62 1296.76,1469.62 
  "/>
<polyline clip-path="url(#clip262)" style="stroke:#000000; stroke-linecap:round; stroke-linejoin:round; stroke-width:2; stroke-opacity:0.1; fill:none" points="
  159.154,1092.11 1296.76,1092.11 
  "/>
<polyline clip-path="url(#clip262)" style="stroke:#000000; stroke-linecap:round; stroke-linejoin:round; stroke-width:2; stroke-opacity:0.1; fill:none" points="
  159.154,714.605 1296.76,714.605 
  "/>
<polyline clip-path="url(#clip262)" style="stroke:#000000; stroke-linecap:round; stroke-linejoin:round; stroke-width:2; stroke-opacity:0.1; fill:none" points="
  159.154,337.099 1296.76,337.099 
  "/>
<polyline clip-path="url(#clip260)" style="stroke:#000000; stroke-linecap:round; stroke-linejoin:round; stroke-width:4; stroke-opacity:1; fill:none" points="
  159.154,1800.78 159.154,47.2441 
  "/>
<polyline clip-path="url(#clip260)" style="stroke:#000000; stroke-linecap:round; stroke-linejoin:round; stroke-width:4; stroke-opacity:1; fill:none" points="
  159.154,1469.62 178.052,1469.62 
  "/>
<polyline clip-path="url(#clip260)" style="stroke:#000000; stroke-linecap:round; stroke-linejoin:round; stroke-width:4; stroke-opacity:1; fill:none" points="
  159.154,1092.11 178.052,1092.11 
  "/>
<polyline clip-path="url(#clip260)" style="stroke:#000000; stroke-linecap:round; stroke-linejoin:round; stroke-width:4; stroke-opacity:1; fill:none" points="
  159.154,714.605 178.052,714.605 
  "/>
<polyline clip-path="url(#clip260)" style="stroke:#000000; stroke-linecap:round; stroke-linejoin:round; stroke-width:4; stroke-opacity:1; fill:none" points="
  159.154,337.099 178.052,337.099 
  "/>
<path clip-path="url(#clip260)" d="M61.6585 1455.42 Q58.0475 1455.42 56.2188 1458.98 Q54.4132 1462.52 54.4132 1469.65 Q54.4132 1476.76 56.2188 1480.32 Q58.0475 1483.87 61.6585 1483.87 Q65.2928 1483.87 67.0983 1480.32 Q68.927 1476.76 68.927 1469.65 Q68.927 1462.52 67.0983 1458.98 Q65.2928 1455.42 61.6585 1455.42 M61.6585 1451.71 Q67.4687 1451.71 70.5242 1456.32 Q73.6029 1460.9 73.6029 1469.65 Q73.6029 1478.38 70.5242 1482.99 Q67.4687 1487.57 61.6585 1487.57 Q55.8484 1487.57 52.7697 1482.99 Q49.7142 1478.38 49.7142 1469.65 Q49.7142 1460.9 52.7697 1456.32 Q55.8484 1451.71 61.6585 1451.71 Z" fill="#000000" fill-rule="evenodd" fill-opacity="1" /><path clip-path="url(#clip260)" d="M81.8205 1481.02 L86.7047 1481.02 L86.7047 1486.9 L81.8205 1486.9 L81.8205 1481.02 Z" fill="#000000" fill-rule="evenodd" fill-opacity="1" /><path clip-path="url(#clip260)" d="M106.89 1455.42 Q103.279 1455.42 101.45 1458.98 Q99.6445 1462.52 99.6445 1469.65 Q99.6445 1476.76 101.45 1480.32 Q103.279 1483.87 106.89 1483.87 Q110.524 1483.87 112.33 1480.32 Q114.158 1476.76 114.158 1469.65 Q114.158 1462.52 112.33 1458.98 Q110.524 1455.42 106.89 1455.42 M106.89 1451.71 Q112.7 1451.71 115.755 1456.32 Q118.834 1460.9 118.834 1469.65 Q118.834 1478.38 115.755 1482.99 Q112.7 1487.57 106.89 1487.57 Q101.08 1487.57 98.0009 1482.99 Q94.9454 1478.38 94.9454 1469.65 Q94.9454 1460.9 98.0009 1456.32 Q101.08 1451.71 106.89 1451.71 Z" fill="#000000" fill-rule="evenodd" fill-opacity="1" /><path clip-path="url(#clip260)" d="M62.3067 1077.91 Q58.6956 1077.91 56.8669 1081.47 Q55.0614 1085.02 55.0614 1092.15 Q55.0614 1099.25 56.8669 1102.82 Q58.6956 1106.36 62.3067 1106.36 Q65.9409 1106.36 67.7465 1102.82 Q69.5752 1099.25 69.5752 1092.15 Q69.5752 1085.02 67.7465 1081.47 Q65.9409 1077.91 62.3067 1077.91 M62.3067 1074.21 Q68.1168 1074.21 71.1724 1078.81 Q74.2511 1083.4 74.2511 1092.15 Q74.2511 1100.87 71.1724 1105.48 Q68.1168 1110.06 62.3067 1110.06 Q56.4965 1110.06 53.4178 1105.48 Q50.3623 1100.87 50.3623 1092.15 Q50.3623 1083.4 53.4178 1078.81 Q56.4965 1074.21 62.3067 1074.21 Z" fill="#000000" fill-rule="evenodd" fill-opacity="1" /><path clip-path="url(#clip260)" d="M82.4686 1103.51 L87.3528 1103.51 L87.3528 1109.39 L82.4686 1109.39 L82.4686 1103.51 Z" fill="#000000" fill-rule="evenodd" fill-opacity="1" /><path clip-path="url(#clip260)" d="M111.705 1090.76 Q115.061 1091.47 116.936 1093.74 Q118.834 1096.01 118.834 1099.35 Q118.834 1104.46 115.316 1107.26 Q111.797 1110.06 105.316 1110.06 Q103.14 1110.06 100.825 1109.62 Q98.5333 1109.21 96.0797 1108.35 L96.0797 1103.84 Q98.0241 1104.97 100.339 1105.55 Q102.654 1106.13 105.177 1106.13 Q109.575 1106.13 111.867 1104.39 Q114.181 1102.66 114.181 1099.35 Q114.181 1096.29 112.029 1094.58 Q109.899 1092.84 106.08 1092.84 L102.052 1092.84 L102.052 1089 L106.265 1089 Q109.714 1089 111.543 1087.63 Q113.371 1086.24 113.371 1083.65 Q113.371 1080.99 111.473 1079.58 Q109.598 1078.14 106.08 1078.14 Q104.158 1078.14 101.959 1078.56 Q99.7602 1078.97 97.1213 1079.85 L97.1213 1075.69 Q99.7833 1074.95 102.098 1074.58 Q104.436 1074.21 106.496 1074.21 Q111.82 1074.21 114.922 1076.64 Q118.024 1079.04 118.024 1083.16 Q118.024 1086.04 116.38 1088.03 Q114.737 1089.99 111.705 1090.76 Z" fill="#000000" fill-rule="evenodd" fill-opacity="1" /><path clip-path="url(#clip260)" d="M61.4965 700.404 Q57.8854 700.404 56.0567 703.969 Q54.2512 707.51 54.2512 714.64 Q54.2512 721.746 56.0567 725.311 Q57.8854 728.853 61.4965 728.853 Q65.1307 728.853 66.9363 725.311 Q68.765 721.746 68.765 714.64 Q68.765 707.51 66.9363 703.969 Q65.1307 700.404 61.4965 700.404 M61.4965 696.7 Q67.3067 696.7 70.3622 701.307 Q73.4409 705.89 73.4409 714.64 Q73.4409 723.367 70.3622 727.973 Q67.3067 732.557 61.4965 732.557 Q55.6864 732.557 52.6077 727.973 Q49.5521 723.367 49.5521 714.64 Q49.5521 705.89 52.6077 701.307 Q55.6864 696.7 61.4965 696.7 Z" fill="#000000" fill-rule="evenodd" fill-opacity="1" /><path clip-path="url(#clip260)" d="M81.6584 726.006 L86.5427 726.006 L86.5427 731.885 L81.6584 731.885 L81.6584 726.006 Z" fill="#000000" fill-rule="evenodd" fill-opacity="1" /><path clip-path="url(#clip260)" d="M107.306 712.742 Q104.158 712.742 102.306 714.895 Q100.478 717.047 100.478 720.797 Q100.478 724.524 102.306 726.7 Q104.158 728.853 107.306 728.853 Q110.455 728.853 112.283 726.7 Q114.135 724.524 114.135 720.797 Q114.135 717.047 112.283 714.895 Q110.455 712.742 107.306 712.742 M116.589 698.089 L116.589 702.348 Q114.83 701.515 113.024 701.075 Q111.242 700.635 109.482 700.635 Q104.853 700.635 102.399 703.76 Q99.9685 706.885 99.6213 713.205 Q100.987 711.191 103.047 710.126 Q105.107 709.038 107.584 709.038 Q112.793 709.038 115.802 712.209 Q118.834 715.358 118.834 720.797 Q118.834 726.121 115.686 729.339 Q112.538 732.557 107.306 732.557 Q101.311 732.557 98.1398 727.973 Q94.9685 723.367 94.9685 714.64 Q94.9685 706.446 98.8574 701.584 Q102.746 696.7 109.297 696.7 Q111.056 696.7 112.839 697.047 Q114.644 697.395 116.589 698.089 Z" fill="#000000" fill-rule="evenodd" fill-opacity="1" /><path clip-path="url(#clip260)" d="M61.8437 322.898 Q58.2326 322.898 56.4039 326.463 Q54.5984 330.004 54.5984 337.134 Q54.5984 344.24 56.4039 347.805 Q58.2326 351.347 61.8437 351.347 Q65.478 351.347 67.2835 347.805 Q69.1122 344.24 69.1122 337.134 Q69.1122 330.004 67.2835 326.463 Q65.478 322.898 61.8437 322.898 M61.8437 319.194 Q67.6539 319.194 70.7094 323.8 Q73.7881 328.384 73.7881 337.134 Q73.7881 345.861 70.7094 350.467 Q67.6539 355.05 61.8437 355.05 Q56.0336 355.05 52.9549 350.467 Q49.8993 345.861 49.8993 337.134 Q49.8993 328.384 52.9549 323.8 Q56.0336 319.194 61.8437 319.194 Z" fill="#000000" fill-rule="evenodd" fill-opacity="1" /><path clip-path="url(#clip260)" d="M82.0057 348.499 L86.8899 348.499 L86.8899 354.379 L82.0057 354.379 L82.0057 348.499 Z" fill="#000000" fill-rule="evenodd" fill-opacity="1" /><path clip-path="url(#clip260)" d="M97.2139 353.661 L97.2139 349.402 Q98.9732 350.236 100.779 350.675 Q102.584 351.115 104.32 351.115 Q108.95 351.115 111.38 348.013 Q113.834 344.888 114.181 338.546 Q112.839 340.537 110.779 341.601 Q108.718 342.666 106.218 342.666 Q101.033 342.666 98.0009 339.541 Q94.9917 336.393 94.9917 330.953 Q94.9917 325.629 98.1398 322.412 Q101.288 319.194 106.519 319.194 Q112.515 319.194 115.663 323.8 Q118.834 328.384 118.834 337.134 Q118.834 345.305 114.945 350.189 Q111.08 355.05 104.529 355.05 Q102.769 355.05 100.964 354.703 Q99.1583 354.356 97.2139 353.661 M106.519 339.009 Q109.668 339.009 111.496 336.856 Q113.348 334.703 113.348 330.953 Q113.348 327.226 111.496 325.074 Q109.668 322.898 106.519 322.898 Q103.371 322.898 101.519 325.074 Q99.6907 327.226 99.6907 330.953 Q99.6907 334.703 101.519 336.856 Q103.371 339.009 106.519 339.009 Z" fill="#000000" fill-rule="evenodd" fill-opacity="1" /><circle clip-path="url(#clip262)" cx="191.35" cy="1410.89" r="14.4" fill="#009af9" fill-rule="evenodd" fill-opacity="1" stroke="#000000" stroke-opacity="1" stroke-width="3.84"/>
<circle clip-path="url(#clip262)" cx="259.825" cy="1572.02" r="14.4" fill="#009af9" fill-rule="evenodd" fill-opacity="1" stroke="#000000" stroke-opacity="1" stroke-width="3.84"/>
<circle clip-path="url(#clip262)" cx="366.158" cy="1303.98" r="14.4" fill="#009af9" fill-rule="evenodd" fill-opacity="1" stroke="#000000" stroke-opacity="1" stroke-width="3.84"/>
<circle clip-path="url(#clip262)" cx="372.931" cy="1071.13" r="14.4" fill="#009af9" fill-rule="evenodd" fill-opacity="1" stroke="#000000" stroke-opacity="1" stroke-width="3.84"/>
<circle clip-path="url(#clip262)" cx="390.634" cy="1205.09" r="14.4" fill="#009af9" fill-rule="evenodd" fill-opacity="1" stroke="#000000" stroke-opacity="1" stroke-width="3.84"/>
<circle clip-path="url(#clip262)" cx="417.281" cy="959.061" r="14.4" fill="#009af9" fill-rule="evenodd" fill-opacity="1" stroke="#000000" stroke-opacity="1" stroke-width="3.84"/>
<circle clip-path="url(#clip262)" cx="488.41" cy="848.629" r="14.4" fill="#009af9" fill-rule="evenodd" fill-opacity="1" stroke="#000000" stroke-opacity="1" stroke-width="3.84"/>
<circle clip-path="url(#clip262)" cx="520.866" cy="1118.23" r="14.4" fill="#009af9" fill-rule="evenodd" fill-opacity="1" stroke="#000000" stroke-opacity="1" stroke-width="3.84"/>
<circle clip-path="url(#clip262)" cx="526.243" cy="1430.52" r="14.4" fill="#009af9" fill-rule="evenodd" fill-opacity="1" stroke="#000000" stroke-opacity="1" stroke-width="3.84"/>
<circle clip-path="url(#clip262)" cx="556.576" cy="1091.97" r="14.4" fill="#009af9" fill-rule="evenodd" fill-opacity="1" stroke="#000000" stroke-opacity="1" stroke-width="3.84"/>
<circle clip-path="url(#clip262)" cx="601.399" cy="592.25" r="14.4" fill="#009af9" fill-rule="evenodd" fill-opacity="1" stroke="#000000" stroke-opacity="1" stroke-width="3.84"/>
<circle clip-path="url(#clip262)" cx="616.991" cy="1751.15" r="14.4" fill="#009af9" fill-rule="evenodd" fill-opacity="1" stroke="#000000" stroke-opacity="1" stroke-width="3.84"/>
<circle clip-path="url(#clip262)" cx="624.631" cy="894.213" r="14.4" fill="#009af9" fill-rule="evenodd" fill-opacity="1" stroke="#000000" stroke-opacity="1" stroke-width="3.84"/>
<circle clip-path="url(#clip262)" cx="636.433" cy="269.273" r="14.4" fill="#009af9" fill-rule="evenodd" fill-opacity="1" stroke="#000000" stroke-opacity="1" stroke-width="3.84"/>
<circle clip-path="url(#clip262)" cx="655.714" cy="1145.16" r="14.4" fill="#009af9" fill-rule="evenodd" fill-opacity="1" stroke="#000000" stroke-opacity="1" stroke-width="3.84"/>
<circle clip-path="url(#clip262)" cx="662.943" cy="1180.49" r="14.4" fill="#009af9" fill-rule="evenodd" fill-opacity="1" stroke="#000000" stroke-opacity="1" stroke-width="3.84"/>
<circle clip-path="url(#clip262)" cx="679.259" cy="1296.18" r="14.4" fill="#009af9" fill-rule="evenodd" fill-opacity="1" stroke="#000000" stroke-opacity="1" stroke-width="3.84"/>
<circle clip-path="url(#clip262)" cx="706.074" cy="790.207" r="14.4" fill="#009af9" fill-rule="evenodd" fill-opacity="1" stroke="#000000" stroke-opacity="1" stroke-width="3.84"/>
<circle clip-path="url(#clip262)" cx="725.297" cy="939.438" r="14.4" fill="#009af9" fill-rule="evenodd" fill-opacity="1" stroke="#000000" stroke-opacity="1" stroke-width="3.84"/>
<circle clip-path="url(#clip262)" cx="738.494" cy="1019.14" r="14.4" fill="#009af9" fill-rule="evenodd" fill-opacity="1" stroke="#000000" stroke-opacity="1" stroke-width="3.84"/>
<circle clip-path="url(#clip262)" cx="755.729" cy="1457.32" r="14.4" fill="#009af9" fill-rule="evenodd" fill-opacity="1" stroke="#000000" stroke-opacity="1" stroke-width="3.84"/>
<circle clip-path="url(#clip262)" cx="756.354" cy="853.776" r="14.4" fill="#009af9" fill-rule="evenodd" fill-opacity="1" stroke="#000000" stroke-opacity="1" stroke-width="3.84"/>
<circle clip-path="url(#clip262)" cx="770.509" cy="1638.2" r="14.4" fill="#009af9" fill-rule="evenodd" fill-opacity="1" stroke="#000000" stroke-opacity="1" stroke-width="3.84"/>
<circle clip-path="url(#clip262)" cx="782.012" cy="444.861" r="14.4" fill="#009af9" fill-rule="evenodd" fill-opacity="1" stroke="#000000" stroke-opacity="1" stroke-width="3.84"/>
<circle clip-path="url(#clip262)" cx="791.255" cy="1519.59" r="14.4" fill="#009af9" fill-rule="evenodd" fill-opacity="1" stroke="#000000" stroke-opacity="1" stroke-width="3.84"/>
<circle clip-path="url(#clip262)" cx="845.713" cy="1355.61" r="14.4" fill="#009af9" fill-rule="evenodd" fill-opacity="1" stroke="#000000" stroke-opacity="1" stroke-width="3.84"/>
<circle clip-path="url(#clip262)" cx="863.282" cy="1149.12" r="14.4" fill="#009af9" fill-rule="evenodd" fill-opacity="1" stroke="#000000" stroke-opacity="1" stroke-width="3.84"/>
<circle clip-path="url(#clip262)" cx="867.209" cy="1046.1" r="14.4" fill="#009af9" fill-rule="evenodd" fill-opacity="1" stroke="#000000" stroke-opacity="1" stroke-width="3.84"/>
<circle clip-path="url(#clip262)" cx="874.048" cy="1448.16" r="14.4" fill="#009af9" fill-rule="evenodd" fill-opacity="1" stroke="#000000" stroke-opacity="1" stroke-width="3.84"/>
<circle clip-path="url(#clip262)" cx="881.126" cy="931.253" r="14.4" fill="#009af9" fill-rule="evenodd" fill-opacity="1" stroke="#000000" stroke-opacity="1" stroke-width="3.84"/>
<circle clip-path="url(#clip262)" cx="914.385" cy="1547.23" r="14.4" fill="#009af9" fill-rule="evenodd" fill-opacity="1" stroke="#000000" stroke-opacity="1" stroke-width="3.84"/>
<circle clip-path="url(#clip262)" cx="921.26" cy="1446.29" r="14.4" fill="#009af9" fill-rule="evenodd" fill-opacity="1" stroke="#000000" stroke-opacity="1" stroke-width="3.84"/>
<circle clip-path="url(#clip262)" cx="932.45" cy="919.57" r="14.4" fill="#009af9" fill-rule="evenodd" fill-opacity="1" stroke="#000000" stroke-opacity="1" stroke-width="3.84"/>
<circle clip-path="url(#clip262)" cx="945.935" cy="561.833" r="14.4" fill="#009af9" fill-rule="evenodd" fill-opacity="1" stroke="#000000" stroke-opacity="1" stroke-width="3.84"/>
<circle clip-path="url(#clip262)" cx="993.271" cy="1193.11" r="14.4" fill="#009af9" fill-rule="evenodd" fill-opacity="1" stroke="#000000" stroke-opacity="1" stroke-width="3.84"/>
<circle clip-path="url(#clip262)" cx="1013.26" cy="1363.61" r="14.4" fill="#009af9" fill-rule="evenodd" fill-opacity="1" stroke="#000000" stroke-opacity="1" stroke-width="3.84"/>
<circle clip-path="url(#clip262)" cx="1013.38" cy="958.731" r="14.4" fill="#009af9" fill-rule="evenodd" fill-opacity="1" stroke="#000000" stroke-opacity="1" stroke-width="3.84"/>
<circle clip-path="url(#clip262)" cx="1036.52" cy="1253.59" r="14.4" fill="#009af9" fill-rule="evenodd" fill-opacity="1" stroke="#000000" stroke-opacity="1" stroke-width="3.84"/>
<circle clip-path="url(#clip262)" cx="1081.69" cy="1618.11" r="14.4" fill="#009af9" fill-rule="evenodd" fill-opacity="1" stroke="#000000" stroke-opacity="1" stroke-width="3.84"/>
<circle clip-path="url(#clip262)" cx="1086.51" cy="790.671" r="14.4" fill="#009af9" fill-rule="evenodd" fill-opacity="1" stroke="#000000" stroke-opacity="1" stroke-width="3.84"/>
<circle clip-path="url(#clip262)" cx="1095.53" cy="1459.49" r="14.4" fill="#009af9" fill-rule="evenodd" fill-opacity="1" stroke="#000000" stroke-opacity="1" stroke-width="3.84"/>
<circle clip-path="url(#clip262)" cx="1096.43" cy="706.721" r="14.4" fill="#009af9" fill-rule="evenodd" fill-opacity="1" stroke="#000000" stroke-opacity="1" stroke-width="3.84"/>
<circle clip-path="url(#clip262)" cx="1108.08" cy="1124.17" r="14.4" fill="#009af9" fill-rule="evenodd" fill-opacity="1" stroke="#000000" stroke-opacity="1" stroke-width="3.84"/>
<circle clip-path="url(#clip262)" cx="1110.08" cy="1158.47" r="14.4" fill="#009af9" fill-rule="evenodd" fill-opacity="1" stroke="#000000" stroke-opacity="1" stroke-width="3.84"/>
<circle clip-path="url(#clip262)" cx="1122" cy="1472.67" r="14.4" fill="#009af9" fill-rule="evenodd" fill-opacity="1" stroke="#000000" stroke-opacity="1" stroke-width="3.84"/>
<circle clip-path="url(#clip262)" cx="1175.82" cy="1201.89" r="14.4" fill="#009af9" fill-rule="evenodd" fill-opacity="1" stroke="#000000" stroke-opacity="1" stroke-width="3.84"/>
<circle clip-path="url(#clip262)" cx="1225.65" cy="1054.07" r="14.4" fill="#009af9" fill-rule="evenodd" fill-opacity="1" stroke="#000000" stroke-opacity="1" stroke-width="3.84"/>
<circle clip-path="url(#clip262)" cx="1226.35" cy="1259.9" r="14.4" fill="#009af9" fill-rule="evenodd" fill-opacity="1" stroke="#000000" stroke-opacity="1" stroke-width="3.84"/>
<circle clip-path="url(#clip262)" cx="1230.34" cy="1604.56" r="14.4" fill="#009af9" fill-rule="evenodd" fill-opacity="1" stroke="#000000" stroke-opacity="1" stroke-width="3.84"/>
<circle clip-path="url(#clip262)" cx="1264.56" cy="96.8724" r="14.4" fill="#009af9" fill-rule="evenodd" fill-opacity="1" stroke="#000000" stroke-opacity="1" stroke-width="3.84"/>
<polyline clip-path="url(#clip262)" style="stroke:#0000ff; stroke-linecap:round; stroke-linejoin:round; stroke-width:20; stroke-opacity:1; fill:none" points="
  191.35,1421.81 193.728,1419.4 215.715,1397.11 228.928,1383.72 240.099,1372.39 252.234,1360.09 263.422,1348.75 275.416,1336.59 289.312,1322.51 301.662,1309.99 
  312.492,1299.01 324.299,1287.04 336.176,1275 349.308,1261.69 361.802,1249.02 374.794,1235.86 385.73,1224.77 399.081,1211.23 411.312,1198.84 422.609,1187.39 
  434.051,1175.79 446.875,1162.79 458.496,1151.01 471.801,1137.52 484.12,1125.03 496.265,1112.72 508.057,1100.77 520.146,1088.51 533.39,1075.09 552.629,1055.58 
  556.576,1051.58 
  "/>
<polyline clip-path="url(#clip262)" style="stroke:#0000ff; stroke-linecap:round; stroke-linejoin:round; stroke-width:20; stroke-opacity:1; fill:none" points="
  417.281,1083.77 418.833,1082.99 433.187,1075.8 441.813,1071.48 449.106,1067.83 457.028,1063.86 464.332,1060.2 472.162,1056.28 481.234,1051.73 489.296,1047.7 
  496.366,1044.15 504.074,1040.29 511.828,1036.41 520.401,1032.11 528.558,1028.03 537.039,1023.78 544.179,1020.2 552.895,1015.84 560.88,1011.84 568.255,1008.14 
  575.725,1004.4 584.097,1000.21 591.683,996.405 600.369,992.054 608.412,988.025 616.34,984.053 624.039,980.197 631.93,976.243 640.577,971.912 653.137,965.62 
  655.714,964.329 
  "/>
<polyline clip-path="url(#clip262)" style="stroke:#0000ff; stroke-linecap:round; stroke-linejoin:round; stroke-width:20; stroke-opacity:1; fill:none" points="
  601.399,966.58 602.292,966.879 610.545,969.638 615.504,971.296 619.698,972.698 624.253,974.221 628.453,975.625 632.955,977.13 638.171,978.874 642.807,980.423 
  646.872,981.782 651.304,983.264 655.762,984.755 660.692,986.403 665.382,987.971 670.258,989.601 674.364,990.973 679.375,992.649 683.966,994.184 688.207,995.601 
  692.502,997.037 697.316,998.647 701.678,1000.1 706.672,1001.77 711.296,1003.32 715.855,1004.84 720.282,1006.32 724.819,1007.84 729.791,1009.5 737.013,1011.92 
  738.494,1012.41 
  "/>
<polyline clip-path="url(#clip262)" style="stroke:#0000ff; stroke-linecap:round; stroke-linejoin:round; stroke-width:20; stroke-opacity:1; fill:none" points="
  662.943,1081.62 663.778,1081.99 671.502,1085.37 676.144,1087.4 680.069,1089.11 684.332,1090.98 688.263,1092.7 692.477,1094.54 697.359,1096.68 701.698,1098.57 
  705.502,1100.24 709.651,1102.05 713.823,1103.88 718.437,1105.89 722.826,1107.81 727.391,1109.81 731.233,1111.49 735.924,1113.54 740.221,1115.42 744.189,1117.16 
  748.209,1118.91 752.715,1120.88 756.797,1122.67 761.472,1124.71 765.8,1126.61 770.067,1128.47 774.21,1130.28 778.456,1132.14 783.109,1134.18 789.869,1137.13 
  791.255,1137.74 
  "/>
<polyline clip-path="url(#clip262)" style="stroke:#0000ff; stroke-linecap:round; stroke-linejoin:round; stroke-width:20; stroke-opacity:1; fill:none" points="
  755.729,1198.32 756.545,1198.14 764.094,1196.47 768.631,1195.47 772.466,1194.62 776.633,1193.7 780.474,1192.85 784.592,1191.94 789.363,1190.89 793.604,1189.95 
  797.322,1189.13 801.376,1188.23 805.454,1187.33 809.962,1186.34 814.252,1185.39 818.713,1184.4 822.467,1183.57 827.052,1182.56 831.251,1181.63 835.129,1180.78 
  839.058,1179.91 843.461,1178.93 847.451,1178.05 852.019,1177.04 856.249,1176.11 860.419,1175.19 864.468,1174.29 868.618,1173.38 873.165,1172.37 879.771,1170.91 
  881.126,1170.61 
  "/>
<polyline clip-path="url(#clip262)" style="stroke:#0000ff; stroke-linecap:round; stroke-linejoin:round; stroke-width:20; stroke-opacity:1; fill:none" points="
  845.713,1253.3 846.674,1251.76 855.557,1237.48 860.895,1228.9 865.408,1221.64 870.311,1213.76 874.831,1206.5 879.677,1198.71 885.291,1189.69 890.281,1181.67 
  894.656,1174.63 899.427,1166.97 904.225,1159.25 909.531,1150.73 914.579,1142.61 919.827,1134.18 924.246,1127.07 929.64,1118.4 934.582,1110.46 939.146,1103.12 
  943.769,1095.69 948.95,1087.37 953.645,1079.82 959.02,1071.18 963.997,1063.18 968.904,1055.29 973.669,1047.64 978.553,1039.79 983.903,1031.18 991.676,1018.69 
  993.271,1016.13 
  "/>
<polyline clip-path="url(#clip262)" style="stroke:#0000ff; stroke-linecap:round; stroke-linejoin:round; stroke-width:20; stroke-opacity:1; fill:none" points="
  914.385,1161.17 915.506,1161.22 925.867,1161.76 932.094,1162.08 937.359,1162.35 943.078,1162.65 948.35,1162.92 954.003,1163.21 960.552,1163.55 966.372,1163.85 
  971.476,1164.12 977.04,1164.4 982.637,1164.69 988.826,1165.01 994.714,1165.32 1000.84,1165.63 1005.99,1165.9 1012.28,1166.23 1018.05,1166.52 1023.37,1166.8 
  1028.76,1167.08 1034.81,1167.39 1040.28,1167.67 1046.55,1168 1052.36,1168.3 1058.08,1168.59 1063.64,1168.88 1069.34,1169.17 1075.58,1169.5 1084.65,1169.96 
  1086.51,1170.06 
  "/>
<polyline clip-path="url(#clip262)" style="stroke:#0000ff; stroke-linecap:round; stroke-linejoin:round; stroke-width:20; stroke-opacity:1; fill:none" points="
  1013.26,1171.14 1013.97,1171.36 1020.52,1173.38 1024.45,1174.6 1027.78,1175.62 1031.39,1176.74 1034.72,1177.77 1038.29,1178.87 1042.43,1180.15 1046.1,1181.28 
  1049.33,1182.28 1052.84,1183.36 1056.38,1184.46 1060.29,1185.66 1064.01,1186.81 1067.88,1188.01 1071.13,1189.01 1075.11,1190.24 1078.75,1191.36 1082.11,1192.4 
  1085.52,1193.46 1089.34,1194.63 1092.8,1195.7 1096.76,1196.93 1100.43,1198.06 1104.04,1199.18 1107.56,1200.26 1111.15,1201.37 1115.1,1202.59 1120.83,1204.36 
  1122,1204.72 
  "/>
<polyline clip-path="url(#clip262)" style="stroke:#0000ff; stroke-linecap:round; stroke-linejoin:round; stroke-width:20; stroke-opacity:1; fill:none" points="
  1095.53,1251.5 1096.63,1249.34 1106.81,1229.32 1112.92,1217.29 1118.09,1207.12 1123.71,1196.07 1128.88,1185.88 1134.44,1174.96 1140.87,1162.31 1146.58,1151.07 
  1151.59,1141.21 1157.06,1130.46 1162.56,1119.64 1168.63,1107.68 1174.42,1096.31 1180.43,1084.48 1185.49,1074.52 1191.67,1062.37 1197.33,1051.23 1202.56,1040.94 
  1207.85,1030.53 1213.79,1018.85 1219.17,1008.27 1225.32,996.154 1231.03,984.938 1236.65,973.88 1242.1,963.143 1247.7,952.137 1253.83,940.078 1262.73,922.56 
  1264.56,918.967 
  "/>
<path clip-path="url(#clip260)" d="
M1503.15 1800.78 L2640.76 1800.78 L2640.76 47.2441 L1503.15 47.2441  Z
  " fill="#ffffff" fill-rule="evenodd" fill-opacity="1"/>
<defs>
  <clipPath id="clip263">
    <rect x="1503" y="47" width="1139" height="1755"/>
  </clipPath>
</defs>
<polyline clip-path="url(#clip263)" style="stroke:#000000; stroke-linecap:round; stroke-linejoin:round; stroke-width:2; stroke-opacity:0.1; fill:none" points="
  1563.92,1800.78 1563.92,47.2441 
  "/>
<polyline clip-path="url(#clip263)" style="stroke:#000000; stroke-linecap:round; stroke-linejoin:round; stroke-width:2; stroke-opacity:0.1; fill:none" points="
  1782.57,1800.78 1782.57,47.2441 
  "/>
<polyline clip-path="url(#clip263)" style="stroke:#000000; stroke-linecap:round; stroke-linejoin:round; stroke-width:2; stroke-opacity:0.1; fill:none" points="
  2001.22,1800.78 2001.22,47.2441 
  "/>
<polyline clip-path="url(#clip263)" style="stroke:#000000; stroke-linecap:round; stroke-linejoin:round; stroke-width:2; stroke-opacity:0.1; fill:none" points="
  2219.88,1800.78 2219.88,47.2441 
  "/>
<polyline clip-path="url(#clip263)" style="stroke:#000000; stroke-linecap:round; stroke-linejoin:round; stroke-width:2; stroke-opacity:0.1; fill:none" points="
  2438.53,1800.78 2438.53,47.2441 
  "/>
<polyline clip-path="url(#clip260)" style="stroke:#000000; stroke-linecap:round; stroke-linejoin:round; stroke-width:4; stroke-opacity:1; fill:none" points="
  1503.15,1800.78 2640.76,1800.78 
  "/>
<polyline clip-path="url(#clip260)" style="stroke:#000000; stroke-linecap:round; stroke-linejoin:round; stroke-width:4; stroke-opacity:1; fill:none" points="
  1563.92,1800.78 1563.92,1781.88 
  "/>
<polyline clip-path="url(#clip260)" style="stroke:#000000; stroke-linecap:round; stroke-linejoin:round; stroke-width:4; stroke-opacity:1; fill:none" points="
  1782.57,1800.78 1782.57,1781.88 
  "/>
<polyline clip-path="url(#clip260)" style="stroke:#000000; stroke-linecap:round; stroke-linejoin:round; stroke-width:4; stroke-opacity:1; fill:none" points="
  2001.22,1800.78 2001.22,1781.88 
  "/>
<polyline clip-path="url(#clip260)" style="stroke:#000000; stroke-linecap:round; stroke-linejoin:round; stroke-width:4; stroke-opacity:1; fill:none" points="
  2219.88,1800.78 2219.88,1781.88 
  "/>
<polyline clip-path="url(#clip260)" style="stroke:#000000; stroke-linecap:round; stroke-linejoin:round; stroke-width:4; stroke-opacity:1; fill:none" points="
  2438.53,1800.78 2438.53,1781.88 
  "/>
<path clip-path="url(#clip260)" d="M1526.72 1834 Q1523.11 1834 1521.28 1837.57 Q1519.47 1841.11 1519.47 1848.24 Q1519.47 1855.34 1521.28 1858.91 Q1523.11 1862.45 1526.72 1862.45 Q1530.35 1862.45 1532.16 1858.91 Q1533.99 1855.34 1533.99 1848.24 Q1533.99 1841.11 1532.16 1837.57 Q1530.35 1834 1526.72 1834 M1526.72 1830.3 Q1532.53 1830.3 1535.58 1834.9 Q1538.66 1839.49 1538.66 1848.24 Q1538.66 1856.96 1535.58 1861.57 Q1532.53 1866.15 1526.72 1866.15 Q1520.91 1866.15 1517.83 1861.57 Q1514.77 1856.96 1514.77 1848.24 Q1514.77 1839.49 1517.83 1834.9 Q1520.91 1830.3 1526.72 1830.3 Z" fill="#000000" fill-rule="evenodd" fill-opacity="1" /><path clip-path="url(#clip260)" d="M1546.88 1859.6 L1551.76 1859.6 L1551.76 1865.48 L1546.88 1865.48 L1546.88 1859.6 Z" fill="#000000" fill-rule="evenodd" fill-opacity="1" /><path clip-path="url(#clip260)" d="M1560.77 1830.92 L1582.99 1830.92 L1582.99 1832.91 L1570.44 1865.48 L1565.56 1865.48 L1577.37 1834.86 L1560.77 1834.86 L1560.77 1830.92 Z" fill="#000000" fill-rule="evenodd" fill-opacity="1" /><path clip-path="url(#clip260)" d="M1592.16 1830.92 L1610.51 1830.92 L1610.51 1834.86 L1596.44 1834.86 L1596.44 1843.33 Q1597.46 1842.98 1598.48 1842.82 Q1599.5 1842.64 1600.51 1842.64 Q1606.3 1842.64 1609.68 1845.81 Q1613.06 1848.98 1613.06 1854.4 Q1613.06 1859.97 1609.59 1863.08 Q1606.12 1866.15 1599.8 1866.15 Q1597.62 1866.15 1595.35 1865.78 Q1593.11 1865.41 1590.7 1864.67 L1590.7 1859.97 Q1592.78 1861.11 1595 1861.66 Q1597.23 1862.22 1599.7 1862.22 Q1603.71 1862.22 1606.05 1860.11 Q1608.38 1858.01 1608.38 1854.4 Q1608.38 1850.78 1606.05 1848.68 Q1603.71 1846.57 1599.7 1846.57 Q1597.83 1846.57 1595.95 1846.99 Q1594.1 1847.4 1592.16 1848.28 L1592.16 1830.92 Z" fill="#000000" fill-rule="evenodd" fill-opacity="1" /><path clip-path="url(#clip260)" d="M1734.64 1861.55 L1742.28 1861.55 L1742.28 1835.18 L1733.97 1836.85 L1733.97 1832.59 L1742.24 1830.92 L1746.91 1830.92 L1746.91 1861.55 L1754.55 1861.55 L1754.55 1865.48 L1734.64 1865.48 L1734.64 1861.55 Z" fill="#000000" fill-rule="evenodd" fill-opacity="1" /><path clip-path="url(#clip260)" d="M1763.99 1859.6 L1768.88 1859.6 L1768.88 1865.48 L1763.99 1865.48 L1763.99 1859.6 Z" fill="#000000" fill-rule="evenodd" fill-opacity="1" /><path clip-path="url(#clip260)" d="M1789.06 1834 Q1785.45 1834 1783.62 1837.57 Q1781.82 1841.11 1781.82 1848.24 Q1781.82 1855.34 1783.62 1858.91 Q1785.45 1862.45 1789.06 1862.45 Q1792.7 1862.45 1794.5 1858.91 Q1796.33 1855.34 1796.33 1848.24 Q1796.33 1841.11 1794.5 1837.57 Q1792.7 1834 1789.06 1834 M1789.06 1830.3 Q1794.87 1830.3 1797.93 1834.9 Q1801.01 1839.49 1801.01 1848.24 Q1801.01 1856.96 1797.93 1861.57 Q1794.87 1866.15 1789.06 1866.15 Q1783.25 1866.15 1780.17 1861.57 Q1777.12 1856.96 1777.12 1848.24 Q1777.12 1839.49 1780.17 1834.9 Q1783.25 1830.3 1789.06 1830.3 Z" fill="#000000" fill-rule="evenodd" fill-opacity="1" /><path clip-path="url(#clip260)" d="M1819.23 1834 Q1815.61 1834 1813.79 1837.57 Q1811.98 1841.11 1811.98 1848.24 Q1811.98 1855.34 1813.79 1858.91 Q1815.61 1862.45 1819.23 1862.45 Q1822.86 1862.45 1824.67 1858.91 Q1826.49 1855.34 1826.49 1848.24 Q1826.49 1841.11 1824.67 1837.57 Q1822.86 1834 1819.23 1834 M1819.23 1830.3 Q1825.04 1830.3 1828.09 1834.9 Q1831.17 1839.49 1831.17 1848.24 Q1831.17 1856.96 1828.09 1861.57 Q1825.04 1866.15 1819.23 1866.15 Q1813.42 1866.15 1810.34 1861.57 Q1807.28 1856.96 1807.28 1848.24 Q1807.28 1839.49 1810.34 1834.9 Q1813.42 1830.3 1819.23 1830.3 Z" fill="#000000" fill-rule="evenodd" fill-opacity="1" /><path clip-path="url(#clip260)" d="M1953.79 1861.55 L1961.43 1861.55 L1961.43 1835.18 L1953.12 1836.85 L1953.12 1832.59 L1961.39 1830.92 L1966.06 1830.92 L1966.06 1861.55 L1973.7 1861.55 L1973.7 1865.48 L1953.79 1865.48 L1953.79 1861.55 Z" fill="#000000" fill-rule="evenodd" fill-opacity="1" /><path clip-path="url(#clip260)" d="M1983.15 1859.6 L1988.03 1859.6 L1988.03 1865.48 L1983.15 1865.48 L1983.15 1859.6 Z" fill="#000000" fill-rule="evenodd" fill-opacity="1" /><path clip-path="url(#clip260)" d="M2002.24 1861.55 L2018.56 1861.55 L2018.56 1865.48 L1996.62 1865.48 L1996.62 1861.55 Q1999.28 1858.79 2003.86 1854.16 Q2008.47 1849.51 2009.65 1848.17 Q2011.9 1845.65 2012.77 1843.91 Q2013.68 1842.15 2013.68 1840.46 Q2013.68 1837.71 2011.73 1835.97 Q2009.81 1834.23 2006.71 1834.23 Q2004.51 1834.23 2002.06 1835 Q1999.63 1835.76 1996.85 1837.31 L1996.85 1832.59 Q1999.67 1831.46 2002.13 1830.88 Q2004.58 1830.3 2006.62 1830.3 Q2011.99 1830.3 2015.18 1832.98 Q2018.38 1835.67 2018.38 1840.16 Q2018.38 1842.29 2017.57 1844.21 Q2016.78 1846.11 2014.67 1848.7 Q2014.09 1849.37 2010.99 1852.59 Q2007.89 1855.78 2002.24 1861.55 Z" fill="#000000" fill-rule="evenodd" fill-opacity="1" /><path clip-path="url(#clip260)" d="M2028.42 1830.92 L2046.78 1830.92 L2046.78 1834.86 L2032.71 1834.86 L2032.71 1843.33 Q2033.72 1842.98 2034.74 1842.82 Q2035.76 1842.64 2036.78 1842.64 Q2042.57 1842.64 2045.95 1845.81 Q2049.33 1848.98 2049.33 1854.4 Q2049.33 1859.97 2045.85 1863.08 Q2042.38 1866.15 2036.06 1866.15 Q2033.89 1866.15 2031.62 1865.78 Q2029.37 1865.41 2026.96 1864.67 L2026.96 1859.97 Q2029.05 1861.11 2031.27 1861.66 Q2033.49 1862.22 2035.97 1862.22 Q2039.97 1862.22 2042.31 1860.11 Q2044.65 1858.01 2044.65 1854.4 Q2044.65 1850.78 2042.31 1848.68 Q2039.97 1846.57 2035.97 1846.57 Q2034.09 1846.57 2032.22 1846.99 Q2030.37 1847.4 2028.42 1848.28 L2028.42 1830.92 Z" fill="#000000" fill-rule="evenodd" fill-opacity="1" /><path clip-path="url(#clip260)" d="M2171.95 1861.55 L2179.59 1861.55 L2179.59 1835.18 L2171.28 1836.85 L2171.28 1832.59 L2179.54 1830.92 L2184.22 1830.92 L2184.22 1861.55 L2191.86 1861.55 L2191.86 1865.48 L2171.95 1865.48 L2171.95 1861.55 Z" fill="#000000" fill-rule="evenodd" fill-opacity="1" /><path clip-path="url(#clip260)" d="M2201.3 1859.6 L2206.19 1859.6 L2206.19 1865.48 L2201.3 1865.48 L2201.3 1859.6 Z" fill="#000000" fill-rule="evenodd" fill-opacity="1" /><path clip-path="url(#clip260)" d="M2216.42 1830.92 L2234.77 1830.92 L2234.77 1834.86 L2220.7 1834.86 L2220.7 1843.33 Q2221.72 1842.98 2222.74 1842.82 Q2223.75 1842.64 2224.77 1842.64 Q2230.56 1842.64 2233.94 1845.81 Q2237.32 1848.98 2237.32 1854.4 Q2237.32 1859.97 2233.85 1863.08 Q2230.37 1866.15 2224.06 1866.15 Q2221.88 1866.15 2219.61 1865.78 Q2217.37 1865.41 2214.96 1864.67 L2214.96 1859.97 Q2217.04 1861.11 2219.26 1861.66 Q2221.49 1862.22 2223.96 1862.22 Q2227.97 1862.22 2230.31 1860.11 Q2232.64 1858.01 2232.64 1854.4 Q2232.64 1850.78 2230.31 1848.68 Q2227.97 1846.57 2223.96 1846.57 Q2222.09 1846.57 2220.21 1846.99 Q2218.36 1847.4 2216.42 1848.28 L2216.42 1830.92 Z" fill="#000000" fill-rule="evenodd" fill-opacity="1" /><path clip-path="url(#clip260)" d="M2256.53 1834 Q2252.92 1834 2251.09 1837.57 Q2249.29 1841.11 2249.29 1848.24 Q2249.29 1855.34 2251.09 1858.91 Q2252.92 1862.45 2256.53 1862.45 Q2260.17 1862.45 2261.97 1858.91 Q2263.8 1855.34 2263.8 1848.24 Q2263.8 1841.11 2261.97 1837.57 Q2260.17 1834 2256.53 1834 M2256.53 1830.3 Q2262.34 1830.3 2265.4 1834.9 Q2268.48 1839.49 2268.48 1848.24 Q2268.48 1856.96 2265.4 1861.57 Q2262.34 1866.15 2256.53 1866.15 Q2250.72 1866.15 2247.64 1861.57 Q2244.59 1856.96 2244.59 1848.24 Q2244.59 1839.49 2247.64 1834.9 Q2250.72 1830.3 2256.53 1830.3 Z" fill="#000000" fill-rule="evenodd" fill-opacity="1" /><path clip-path="url(#clip260)" d="M2391.1 1861.55 L2398.74 1861.55 L2398.74 1835.18 L2390.43 1836.85 L2390.43 1832.59 L2398.69 1830.92 L2403.37 1830.92 L2403.37 1861.55 L2411.01 1861.55 L2411.01 1865.48 L2391.1 1865.48 L2391.1 1861.55 Z" fill="#000000" fill-rule="evenodd" fill-opacity="1" /><path clip-path="url(#clip260)" d="M2420.45 1859.6 L2425.34 1859.6 L2425.34 1865.48 L2420.45 1865.48 L2420.45 1859.6 Z" fill="#000000" fill-rule="evenodd" fill-opacity="1" /><path clip-path="url(#clip260)" d="M2434.34 1830.92 L2456.56 1830.92 L2456.56 1832.91 L2444.02 1865.48 L2439.13 1865.48 L2450.94 1834.86 L2434.34 1834.86 L2434.34 1830.92 Z" fill="#000000" fill-rule="evenodd" fill-opacity="1" /><path clip-path="url(#clip260)" d="M2465.73 1830.92 L2484.09 1830.92 L2484.09 1834.86 L2470.01 1834.86 L2470.01 1843.33 Q2471.03 1842.98 2472.05 1842.82 Q2473.07 1842.64 2474.09 1842.64 Q2479.87 1842.64 2483.25 1845.81 Q2486.63 1848.98 2486.63 1854.4 Q2486.63 1859.97 2483.16 1863.08 Q2479.69 1866.15 2473.37 1866.15 Q2471.19 1866.15 2468.92 1865.78 Q2466.68 1865.41 2464.27 1864.67 L2464.27 1859.97 Q2466.35 1861.11 2468.58 1861.66 Q2470.8 1862.22 2473.28 1862.22 Q2477.28 1862.22 2479.62 1860.11 Q2481.96 1858.01 2481.96 1854.4 Q2481.96 1850.78 2479.62 1848.68 Q2477.28 1846.57 2473.28 1846.57 Q2471.4 1846.57 2469.53 1846.99 Q2467.67 1847.4 2465.73 1848.28 L2465.73 1830.92 Z" fill="#000000" fill-rule="evenodd" fill-opacity="1" /><polyline clip-path="url(#clip263)" style="stroke:#000000; stroke-linecap:round; stroke-linejoin:round; stroke-width:2; stroke-opacity:0.1; fill:none" points="
  1503.15,1469.62 2640.76,1469.62 
  "/>
<polyline clip-path="url(#clip263)" style="stroke:#000000; stroke-linecap:round; stroke-linejoin:round; stroke-width:2; stroke-opacity:0.1; fill:none" points="
  1503.15,1092.11 2640.76,1092.11 
  "/>
<polyline clip-path="url(#clip263)" style="stroke:#000000; stroke-linecap:round; stroke-linejoin:round; stroke-width:2; stroke-opacity:0.1; fill:none" points="
  1503.15,714.605 2640.76,714.605 
  "/>
<polyline clip-path="url(#clip263)" style="stroke:#000000; stroke-linecap:round; stroke-linejoin:round; stroke-width:2; stroke-opacity:0.1; fill:none" points="
  1503.15,337.099 2640.76,337.099 
  "/>
<polyline clip-path="url(#clip260)" style="stroke:#000000; stroke-linecap:round; stroke-linejoin:round; stroke-width:4; stroke-opacity:1; fill:none" points="
  1503.15,1800.78 1503.15,47.2441 
  "/>
<polyline clip-path="url(#clip260)" style="stroke:#000000; stroke-linecap:round; stroke-linejoin:round; stroke-width:4; stroke-opacity:1; fill:none" points="
  1503.15,1469.62 1522.05,1469.62 
  "/>
<polyline clip-path="url(#clip260)" style="stroke:#000000; stroke-linecap:round; stroke-linejoin:round; stroke-width:4; stroke-opacity:1; fill:none" points="
  1503.15,1092.11 1522.05,1092.11 
  "/>
<polyline clip-path="url(#clip260)" style="stroke:#000000; stroke-linecap:round; stroke-linejoin:round; stroke-width:4; stroke-opacity:1; fill:none" points="
  1503.15,714.605 1522.05,714.605 
  "/>
<polyline clip-path="url(#clip260)" style="stroke:#000000; stroke-linecap:round; stroke-linejoin:round; stroke-width:4; stroke-opacity:1; fill:none" points="
  1503.15,337.099 1522.05,337.099 
  "/>
<path clip-path="url(#clip260)" d="M1405.66 1455.42 Q1402.05 1455.42 1400.22 1458.98 Q1398.41 1462.52 1398.41 1469.65 Q1398.41 1476.76 1400.22 1480.32 Q1402.05 1483.87 1405.66 1483.87 Q1409.29 1483.87 1411.1 1480.32 Q1412.93 1476.76 1412.93 1469.65 Q1412.93 1462.52 1411.1 1458.98 Q1409.29 1455.42 1405.66 1455.42 M1405.66 1451.71 Q1411.47 1451.71 1414.52 1456.32 Q1417.6 1460.9 1417.6 1469.65 Q1417.6 1478.38 1414.52 1482.99 Q1411.47 1487.57 1405.66 1487.57 Q1399.85 1487.57 1396.77 1482.99 Q1393.71 1478.38 1393.71 1469.65 Q1393.71 1460.9 1396.77 1456.32 Q1399.85 1451.71 1405.66 1451.71 Z" fill="#000000" fill-rule="evenodd" fill-opacity="1" /><path clip-path="url(#clip260)" d="M1425.82 1481.02 L1430.7 1481.02 L1430.7 1486.9 L1425.82 1486.9 L1425.82 1481.02 Z" fill="#000000" fill-rule="evenodd" fill-opacity="1" /><path clip-path="url(#clip260)" d="M1450.89 1455.42 Q1447.28 1455.42 1445.45 1458.98 Q1443.64 1462.52 1443.64 1469.65 Q1443.64 1476.76 1445.45 1480.32 Q1447.28 1483.87 1450.89 1483.87 Q1454.52 1483.87 1456.33 1480.32 Q1458.16 1476.76 1458.16 1469.65 Q1458.16 1462.52 1456.33 1458.98 Q1454.52 1455.42 1450.89 1455.42 M1450.89 1451.71 Q1456.7 1451.71 1459.76 1456.32 Q1462.83 1460.9 1462.83 1469.65 Q1462.83 1478.38 1459.76 1482.99 Q1456.7 1487.57 1450.89 1487.57 Q1445.08 1487.57 1442 1482.99 Q1438.95 1478.38 1438.95 1469.65 Q1438.95 1460.9 1442 1456.32 Q1445.08 1451.71 1450.89 1451.71 Z" fill="#000000" fill-rule="evenodd" fill-opacity="1" /><path clip-path="url(#clip260)" d="M1406.31 1077.91 Q1402.7 1077.91 1400.87 1081.47 Q1399.06 1085.02 1399.06 1092.15 Q1399.06 1099.25 1400.87 1102.82 Q1402.7 1106.36 1406.31 1106.36 Q1409.94 1106.36 1411.75 1102.82 Q1413.58 1099.25 1413.58 1092.15 Q1413.58 1085.02 1411.75 1081.47 Q1409.94 1077.91 1406.31 1077.91 M1406.31 1074.21 Q1412.12 1074.21 1415.17 1078.81 Q1418.25 1083.4 1418.25 1092.15 Q1418.25 1100.87 1415.17 1105.48 Q1412.12 1110.06 1406.31 1110.06 Q1400.5 1110.06 1397.42 1105.48 Q1394.36 1100.87 1394.36 1092.15 Q1394.36 1083.4 1397.42 1078.81 Q1400.5 1074.21 1406.31 1074.21 Z" fill="#000000" fill-rule="evenodd" fill-opacity="1" /><path clip-path="url(#clip260)" d="M1426.47 1103.51 L1431.35 1103.51 L1431.35 1109.39 L1426.47 1109.39 L1426.47 1103.51 Z" fill="#000000" fill-rule="evenodd" fill-opacity="1" /><path clip-path="url(#clip260)" d="M1455.7 1090.76 Q1459.06 1091.47 1460.94 1093.74 Q1462.83 1096.01 1462.83 1099.35 Q1462.83 1104.46 1459.32 1107.26 Q1455.8 1110.06 1449.32 1110.06 Q1447.14 1110.06 1444.82 1109.62 Q1442.53 1109.21 1440.08 1108.35 L1440.08 1103.84 Q1442.02 1104.97 1444.34 1105.55 Q1446.65 1106.13 1449.18 1106.13 Q1453.57 1106.13 1455.87 1104.39 Q1458.18 1102.66 1458.18 1099.35 Q1458.18 1096.29 1456.03 1094.58 Q1453.9 1092.84 1450.08 1092.84 L1446.05 1092.84 L1446.05 1089 L1450.26 1089 Q1453.71 1089 1455.54 1087.63 Q1457.37 1086.24 1457.37 1083.65 Q1457.37 1080.99 1455.47 1079.58 Q1453.6 1078.14 1450.08 1078.14 Q1448.16 1078.14 1445.96 1078.56 Q1443.76 1078.97 1441.12 1079.85 L1441.12 1075.69 Q1443.78 1074.95 1446.1 1074.58 Q1448.44 1074.21 1450.5 1074.21 Q1455.82 1074.21 1458.92 1076.64 Q1462.02 1079.04 1462.02 1083.16 Q1462.02 1086.04 1460.38 1088.03 Q1458.74 1089.99 1455.7 1090.76 Z" fill="#000000" fill-rule="evenodd" fill-opacity="1" /><path clip-path="url(#clip260)" d="M1405.5 700.404 Q1401.89 700.404 1400.06 703.969 Q1398.25 707.51 1398.25 714.64 Q1398.25 721.746 1400.06 725.311 Q1401.89 728.853 1405.5 728.853 Q1409.13 728.853 1410.94 725.311 Q1412.76 721.746 1412.76 714.64 Q1412.76 707.51 1410.94 703.969 Q1409.13 700.404 1405.5 700.404 M1405.5 696.7 Q1411.31 696.7 1414.36 701.307 Q1417.44 705.89 1417.44 714.64 Q1417.44 723.367 1414.36 727.973 Q1411.31 732.557 1405.5 732.557 Q1399.69 732.557 1396.61 727.973 Q1393.55 723.367 1393.55 714.64 Q1393.55 705.89 1396.61 701.307 Q1399.69 696.7 1405.5 696.7 Z" fill="#000000" fill-rule="evenodd" fill-opacity="1" /><path clip-path="url(#clip260)" d="M1425.66 726.006 L1430.54 726.006 L1430.54 731.885 L1425.66 731.885 L1425.66 726.006 Z" fill="#000000" fill-rule="evenodd" fill-opacity="1" /><path clip-path="url(#clip260)" d="M1451.31 712.742 Q1448.16 712.742 1446.31 714.895 Q1444.48 717.047 1444.48 720.797 Q1444.48 724.524 1446.31 726.7 Q1448.16 728.853 1451.31 728.853 Q1454.45 728.853 1456.28 726.7 Q1458.14 724.524 1458.14 720.797 Q1458.14 717.047 1456.28 714.895 Q1454.45 712.742 1451.31 712.742 M1460.59 698.089 L1460.59 702.348 Q1458.83 701.515 1457.02 701.075 Q1455.24 700.635 1453.48 700.635 Q1448.85 700.635 1446.4 703.76 Q1443.97 706.885 1443.62 713.205 Q1444.99 711.191 1447.05 710.126 Q1449.11 709.038 1451.58 709.038 Q1456.79 709.038 1459.8 712.209 Q1462.83 715.358 1462.83 720.797 Q1462.83 726.121 1459.69 729.339 Q1456.54 732.557 1451.31 732.557 Q1445.31 732.557 1442.14 727.973 Q1438.97 723.367 1438.97 714.64 Q1438.97 706.446 1442.86 701.584 Q1446.75 696.7 1453.3 696.7 Q1455.06 696.7 1456.84 697.047 Q1458.64 697.395 1460.59 698.089 Z" fill="#000000" fill-rule="evenodd" fill-opacity="1" /><path clip-path="url(#clip260)" d="M1405.84 322.898 Q1402.23 322.898 1400.4 326.463 Q1398.6 330.004 1398.6 337.134 Q1398.6 344.24 1400.4 347.805 Q1402.23 351.347 1405.84 351.347 Q1409.48 351.347 1411.28 347.805 Q1413.11 344.24 1413.11 337.134 Q1413.11 330.004 1411.28 326.463 Q1409.48 322.898 1405.84 322.898 M1405.84 319.194 Q1411.65 319.194 1414.71 323.8 Q1417.79 328.384 1417.79 337.134 Q1417.79 345.861 1414.71 350.467 Q1411.65 355.05 1405.84 355.05 Q1400.03 355.05 1396.95 350.467 Q1393.9 345.861 1393.9 337.134 Q1393.9 328.384 1396.95 323.8 Q1400.03 319.194 1405.84 319.194 Z" fill="#000000" fill-rule="evenodd" fill-opacity="1" /><path clip-path="url(#clip260)" d="M1426.01 348.499 L1430.89 348.499 L1430.89 354.379 L1426.01 354.379 L1426.01 348.499 Z" fill="#000000" fill-rule="evenodd" fill-opacity="1" /><path clip-path="url(#clip260)" d="M1441.21 353.661 L1441.21 349.402 Q1442.97 350.236 1444.78 350.675 Q1446.58 351.115 1448.32 351.115 Q1452.95 351.115 1455.38 348.013 Q1457.83 344.888 1458.18 338.546 Q1456.84 340.537 1454.78 341.601 Q1452.72 342.666 1450.22 342.666 Q1445.03 342.666 1442 339.541 Q1438.99 336.393 1438.99 330.953 Q1438.99 325.629 1442.14 322.412 Q1445.29 319.194 1450.52 319.194 Q1456.51 319.194 1459.66 323.8 Q1462.83 328.384 1462.83 337.134 Q1462.83 345.305 1458.95 350.189 Q1455.08 355.05 1448.53 355.05 Q1446.77 355.05 1444.96 354.703 Q1443.16 354.356 1441.21 353.661 M1450.52 339.009 Q1453.67 339.009 1455.5 336.856 Q1457.35 334.703 1457.35 330.953 Q1457.35 327.226 1455.5 325.074 Q1453.67 322.898 1450.52 322.898 Q1447.37 322.898 1445.52 325.074 Q1443.69 327.226 1443.69 330.953 Q1443.69 334.703 1445.52 336.856 Q1447.37 339.009 1450.52 339.009 Z" fill="#000000" fill-rule="evenodd" fill-opacity="1" /><circle clip-path="url(#clip263)" cx="1535.35" cy="1410.89" r="14.4" fill="#009af9" fill-rule="evenodd" fill-opacity="1" stroke="#000000" stroke-opacity="1" stroke-width="3.84"/>
<circle clip-path="url(#clip263)" cx="1603.83" cy="1572.02" r="14.4" fill="#009af9" fill-rule="evenodd" fill-opacity="1" stroke="#000000" stroke-opacity="1" stroke-width="3.84"/>
<circle clip-path="url(#clip263)" cx="1710.16" cy="1303.98" r="14.4" fill="#009af9" fill-rule="evenodd" fill-opacity="1" stroke="#000000" stroke-opacity="1" stroke-width="3.84"/>
<circle clip-path="url(#clip263)" cx="1716.93" cy="1071.13" r="14.4" fill="#009af9" fill-rule="evenodd" fill-opacity="1" stroke="#000000" stroke-opacity="1" stroke-width="3.84"/>
<circle clip-path="url(#clip263)" cx="1734.63" cy="1205.09" r="14.4" fill="#009af9" fill-rule="evenodd" fill-opacity="1" stroke="#000000" stroke-opacity="1" stroke-width="3.84"/>
<circle clip-path="url(#clip263)" cx="1761.28" cy="959.061" r="14.4" fill="#009af9" fill-rule="evenodd" fill-opacity="1" stroke="#000000" stroke-opacity="1" stroke-width="3.84"/>
<circle clip-path="url(#clip263)" cx="1832.41" cy="848.629" r="14.4" fill="#009af9" fill-rule="evenodd" fill-opacity="1" stroke="#000000" stroke-opacity="1" stroke-width="3.84"/>
<circle clip-path="url(#clip263)" cx="1864.87" cy="1118.23" r="14.4" fill="#009af9" fill-rule="evenodd" fill-opacity="1" stroke="#000000" stroke-opacity="1" stroke-width="3.84"/>
<circle clip-path="url(#clip263)" cx="1870.24" cy="1430.52" r="14.4" fill="#009af9" fill-rule="evenodd" fill-opacity="1" stroke="#000000" stroke-opacity="1" stroke-width="3.84"/>
<circle clip-path="url(#clip263)" cx="1900.58" cy="1091.97" r="14.4" fill="#009af9" fill-rule="evenodd" fill-opacity="1" stroke="#000000" stroke-opacity="1" stroke-width="3.84"/>
<circle clip-path="url(#clip263)" cx="1945.4" cy="592.25" r="14.4" fill="#009af9" fill-rule="evenodd" fill-opacity="1" stroke="#000000" stroke-opacity="1" stroke-width="3.84"/>
<circle clip-path="url(#clip263)" cx="1960.99" cy="1751.15" r="14.4" fill="#009af9" fill-rule="evenodd" fill-opacity="1" stroke="#000000" stroke-opacity="1" stroke-width="3.84"/>
<circle clip-path="url(#clip263)" cx="1968.63" cy="894.213" r="14.4" fill="#009af9" fill-rule="evenodd" fill-opacity="1" stroke="#000000" stroke-opacity="1" stroke-width="3.84"/>
<circle clip-path="url(#clip263)" cx="1980.43" cy="269.273" r="14.4" fill="#009af9" fill-rule="evenodd" fill-opacity="1" stroke="#000000" stroke-opacity="1" stroke-width="3.84"/>
<circle clip-path="url(#clip263)" cx="1999.71" cy="1145.16" r="14.4" fill="#009af9" fill-rule="evenodd" fill-opacity="1" stroke="#000000" stroke-opacity="1" stroke-width="3.84"/>
<circle clip-path="url(#clip263)" cx="2006.94" cy="1180.49" r="14.4" fill="#009af9" fill-rule="evenodd" fill-opacity="1" stroke="#000000" stroke-opacity="1" stroke-width="3.84"/>
<circle clip-path="url(#clip263)" cx="2023.26" cy="1296.18" r="14.4" fill="#009af9" fill-rule="evenodd" fill-opacity="1" stroke="#000000" stroke-opacity="1" stroke-width="3.84"/>
<circle clip-path="url(#clip263)" cx="2050.07" cy="790.207" r="14.4" fill="#009af9" fill-rule="evenodd" fill-opacity="1" stroke="#000000" stroke-opacity="1" stroke-width="3.84"/>
<circle clip-path="url(#clip263)" cx="2069.3" cy="939.438" r="14.4" fill="#009af9" fill-rule="evenodd" fill-opacity="1" stroke="#000000" stroke-opacity="1" stroke-width="3.84"/>
<circle clip-path="url(#clip263)" cx="2082.49" cy="1019.14" r="14.4" fill="#009af9" fill-rule="evenodd" fill-opacity="1" stroke="#000000" stroke-opacity="1" stroke-width="3.84"/>
<circle clip-path="url(#clip263)" cx="2099.73" cy="1457.32" r="14.4" fill="#009af9" fill-rule="evenodd" fill-opacity="1" stroke="#000000" stroke-opacity="1" stroke-width="3.84"/>
<circle clip-path="url(#clip263)" cx="2100.35" cy="853.776" r="14.4" fill="#009af9" fill-rule="evenodd" fill-opacity="1" stroke="#000000" stroke-opacity="1" stroke-width="3.84"/>
<circle clip-path="url(#clip263)" cx="2114.51" cy="1638.2" r="14.4" fill="#009af9" fill-rule="evenodd" fill-opacity="1" stroke="#000000" stroke-opacity="1" stroke-width="3.84"/>
<circle clip-path="url(#clip263)" cx="2126.01" cy="444.861" r="14.4" fill="#009af9" fill-rule="evenodd" fill-opacity="1" stroke="#000000" stroke-opacity="1" stroke-width="3.84"/>
<circle clip-path="url(#clip263)" cx="2135.26" cy="1519.59" r="14.4" fill="#009af9" fill-rule="evenodd" fill-opacity="1" stroke="#000000" stroke-opacity="1" stroke-width="3.84"/>
<circle clip-path="url(#clip263)" cx="2189.71" cy="1355.61" r="14.4" fill="#009af9" fill-rule="evenodd" fill-opacity="1" stroke="#000000" stroke-opacity="1" stroke-width="3.84"/>
<circle clip-path="url(#clip263)" cx="2207.28" cy="1149.12" r="14.4" fill="#009af9" fill-rule="evenodd" fill-opacity="1" stroke="#000000" stroke-opacity="1" stroke-width="3.84"/>
<circle clip-path="url(#clip263)" cx="2211.21" cy="1046.1" r="14.4" fill="#009af9" fill-rule="evenodd" fill-opacity="1" stroke="#000000" stroke-opacity="1" stroke-width="3.84"/>
<circle clip-path="url(#clip263)" cx="2218.05" cy="1448.16" r="14.4" fill="#009af9" fill-rule="evenodd" fill-opacity="1" stroke="#000000" stroke-opacity="1" stroke-width="3.84"/>
<circle clip-path="url(#clip263)" cx="2225.13" cy="931.253" r="14.4" fill="#009af9" fill-rule="evenodd" fill-opacity="1" stroke="#000000" stroke-opacity="1" stroke-width="3.84"/>
<circle clip-path="url(#clip263)" cx="2258.39" cy="1547.23" r="14.4" fill="#009af9" fill-rule="evenodd" fill-opacity="1" stroke="#000000" stroke-opacity="1" stroke-width="3.84"/>
<circle clip-path="url(#clip263)" cx="2265.26" cy="1446.29" r="14.4" fill="#009af9" fill-rule="evenodd" fill-opacity="1" stroke="#000000" stroke-opacity="1" stroke-width="3.84"/>
<circle clip-path="url(#clip263)" cx="2276.45" cy="919.57" r="14.4" fill="#009af9" fill-rule="evenodd" fill-opacity="1" stroke="#000000" stroke-opacity="1" stroke-width="3.84"/>
<circle clip-path="url(#clip263)" cx="2289.93" cy="561.833" r="14.4" fill="#009af9" fill-rule="evenodd" fill-opacity="1" stroke="#000000" stroke-opacity="1" stroke-width="3.84"/>
<circle clip-path="url(#clip263)" cx="2337.27" cy="1193.11" r="14.4" fill="#009af9" fill-rule="evenodd" fill-opacity="1" stroke="#000000" stroke-opacity="1" stroke-width="3.84"/>
<circle clip-path="url(#clip263)" cx="2357.26" cy="1363.61" r="14.4" fill="#009af9" fill-rule="evenodd" fill-opacity="1" stroke="#000000" stroke-opacity="1" stroke-width="3.84"/>
<circle clip-path="url(#clip263)" cx="2357.38" cy="958.731" r="14.4" fill="#009af9" fill-rule="evenodd" fill-opacity="1" stroke="#000000" stroke-opacity="1" stroke-width="3.84"/>
<circle clip-path="url(#clip263)" cx="2380.52" cy="1253.59" r="14.4" fill="#009af9" fill-rule="evenodd" fill-opacity="1" stroke="#000000" stroke-opacity="1" stroke-width="3.84"/>
<circle clip-path="url(#clip263)" cx="2425.69" cy="1618.11" r="14.4" fill="#009af9" fill-rule="evenodd" fill-opacity="1" stroke="#000000" stroke-opacity="1" stroke-width="3.84"/>
<circle clip-path="url(#clip263)" cx="2430.51" cy="790.671" r="14.4" fill="#009af9" fill-rule="evenodd" fill-opacity="1" stroke="#000000" stroke-opacity="1" stroke-width="3.84"/>
<circle clip-path="url(#clip263)" cx="2439.53" cy="1459.49" r="14.4" fill="#009af9" fill-rule="evenodd" fill-opacity="1" stroke="#000000" stroke-opacity="1" stroke-width="3.84"/>
<circle clip-path="url(#clip263)" cx="2440.43" cy="706.721" r="14.4" fill="#009af9" fill-rule="evenodd" fill-opacity="1" stroke="#000000" stroke-opacity="1" stroke-width="3.84"/>
<circle clip-path="url(#clip263)" cx="2452.08" cy="1124.17" r="14.4" fill="#009af9" fill-rule="evenodd" fill-opacity="1" stroke="#000000" stroke-opacity="1" stroke-width="3.84"/>
<circle clip-path="url(#clip263)" cx="2454.08" cy="1158.47" r="14.4" fill="#009af9" fill-rule="evenodd" fill-opacity="1" stroke="#000000" stroke-opacity="1" stroke-width="3.84"/>
<circle clip-path="url(#clip263)" cx="2466" cy="1472.67" r="14.4" fill="#009af9" fill-rule="evenodd" fill-opacity="1" stroke="#000000" stroke-opacity="1" stroke-width="3.84"/>
<circle clip-path="url(#clip263)" cx="2519.82" cy="1201.89" r="14.4" fill="#009af9" fill-rule="evenodd" fill-opacity="1" stroke="#000000" stroke-opacity="1" stroke-width="3.84"/>
<circle clip-path="url(#clip263)" cx="2569.65" cy="1054.07" r="14.4" fill="#009af9" fill-rule="evenodd" fill-opacity="1" stroke="#000000" stroke-opacity="1" stroke-width="3.84"/>
<circle clip-path="url(#clip263)" cx="2570.35" cy="1259.9" r="14.4" fill="#009af9" fill-rule="evenodd" fill-opacity="1" stroke="#000000" stroke-opacity="1" stroke-width="3.84"/>
<circle clip-path="url(#clip263)" cx="2574.34" cy="1604.56" r="14.4" fill="#009af9" fill-rule="evenodd" fill-opacity="1" stroke="#000000" stroke-opacity="1" stroke-width="3.84"/>
<circle clip-path="url(#clip263)" cx="2608.56" cy="96.8724" r="14.4" fill="#009af9" fill-rule="evenodd" fill-opacity="1" stroke="#000000" stroke-opacity="1" stroke-width="3.84"/>
<polyline clip-path="url(#clip263)" style="stroke:#0000ff; stroke-linecap:round; stroke-linejoin:round; stroke-width:20; stroke-opacity:1; fill:none" points="
  1535.35,1421.81 1537.73,1419.4 1559.71,1397.11 1572.93,1383.72 1584.1,1372.39 1596.23,1360.09 1607.42,1348.75 1619.42,1336.59 1633.31,1322.51 1645.66,1309.99 
  1656.49,1299.01 1668.3,1287.04 1680.18,1275 1693.31,1261.69 1705.8,1249.02 1718.79,1235.86 1729.73,1224.77 1743.08,1211.23 1755.31,1198.84 1766.61,1187.39 
  1778.05,1175.79 1790.88,1162.79 1802.5,1151.01 1815.8,1137.52 1828.12,1125.03 1840.27,1112.72 1852.06,1100.77 1864.15,1088.51 1877.39,1075.09 1896.63,1055.58 
  1900.58,1051.58 
  "/>
<polyline clip-path="url(#clip263)" style="stroke:#0000ff; stroke-linecap:round; stroke-linejoin:round; stroke-width:20; stroke-opacity:1; fill:none" points="
  1761.28,1083.77 1762.83,1082.99 1777.19,1075.8 1785.81,1071.48 1793.11,1067.83 1801.03,1063.86 1808.33,1060.2 1816.16,1056.28 1825.23,1051.73 1833.3,1047.7 
  1840.37,1044.15 1848.07,1040.29 1855.83,1036.41 1864.4,1032.11 1872.56,1028.03 1881.04,1023.78 1888.18,1020.2 1896.9,1015.84 1904.88,1011.84 1912.25,1008.14 
  1919.72,1004.4 1928.1,1000.21 1935.68,996.405 1944.37,992.054 1952.41,988.025 1960.34,984.053 1968.04,980.197 1975.93,976.243 1984.58,971.912 1997.14,965.62 
  1999.71,964.329 
  "/>
<polyline clip-path="url(#clip263)" style="stroke:#0000ff; stroke-linecap:round; stroke-linejoin:round; stroke-width:20; stroke-opacity:1; fill:none" points="
  1945.4,966.58 1946.29,966.879 1954.54,969.638 1959.5,971.296 1963.7,972.698 1968.25,974.221 1972.45,975.625 1976.95,977.13 1982.17,978.874 1986.81,980.423 
  1990.87,981.782 1995.3,983.264 1999.76,984.755 2004.69,986.403 2009.38,987.971 2014.26,989.601 2018.36,990.973 2023.38,992.649 2027.97,994.184 2032.21,995.601 
  2036.5,997.037 2041.32,998.647 2045.68,1000.1 2050.67,1001.77 2055.3,1003.32 2059.86,1004.84 2064.28,1006.32 2068.82,1007.84 2073.79,1009.5 2081.01,1011.92 
  2082.49,1012.41 
  "/>
<polyline clip-path="url(#clip263)" style="stroke:#0000ff; stroke-linecap:round; stroke-linejoin:round; stroke-width:20; stroke-opacity:1; fill:none" points="
  2006.94,1081.62 2007.78,1081.99 2015.5,1085.37 2020.14,1087.4 2024.07,1089.11 2028.33,1090.98 2032.26,1092.7 2036.48,1094.54 2041.36,1096.68 2045.7,1098.57 
  2049.5,1100.24 2053.65,1102.05 2057.82,1103.88 2062.44,1105.89 2066.83,1107.81 2071.39,1109.81 2075.23,1111.49 2079.92,1113.54 2084.22,1115.42 2088.19,1117.16 
  2092.21,1118.91 2096.71,1120.88 2100.8,1122.67 2105.47,1124.71 2109.8,1126.61 2114.07,1128.47 2118.21,1130.28 2122.46,1132.14 2127.11,1134.18 2133.87,1137.13 
  2135.26,1137.74 
  "/>
<polyline clip-path="url(#clip263)" style="stroke:#0000ff; stroke-linecap:round; stroke-linejoin:round; stroke-width:20; stroke-opacity:1; fill:none" points="
  2099.73,1198.32 2100.55,1198.14 2108.09,1196.47 2112.63,1195.47 2116.47,1194.62 2120.63,1193.7 2124.47,1192.85 2128.59,1191.94 2133.36,1190.89 2137.6,1189.95 
  2141.32,1189.13 2145.38,1188.23 2149.45,1187.33 2153.96,1186.34 2158.25,1185.39 2162.71,1184.4 2166.47,1183.57 2171.05,1182.56 2175.25,1181.63 2179.13,1180.78 
  2183.06,1179.91 2187.46,1178.93 2191.45,1178.05 2196.02,1177.04 2200.25,1176.11 2204.42,1175.19 2208.47,1174.29 2212.62,1173.38 2217.17,1172.37 2223.77,1170.91 
  2225.13,1170.61 
  "/>
<polyline clip-path="url(#clip263)" style="stroke:#0000ff; stroke-linecap:round; stroke-linejoin:round; stroke-width:20; stroke-opacity:1; fill:none" points="
  2189.71,1253.3 2190.67,1251.76 2199.56,1237.48 2204.89,1228.9 2209.41,1221.64 2214.31,1213.76 2218.83,1206.5 2223.68,1198.71 2229.29,1189.69 2234.28,1181.67 
  2238.66,1174.63 2243.43,1166.97 2248.23,1159.25 2253.53,1150.73 2258.58,1142.61 2263.83,1134.18 2268.25,1127.07 2273.64,1118.4 2278.58,1110.46 2283.15,1103.12 
  2287.77,1095.69 2292.95,1087.37 2297.64,1079.82 2303.02,1071.18 2308,1063.18 2312.9,1055.29 2317.67,1047.64 2322.55,1039.79 2327.9,1031.18 2335.68,1018.69 
  2337.27,1016.13 
  "/>
<polyline clip-path="url(#clip263)" style="stroke:#0000ff; stroke-linecap:round; stroke-linejoin:round; stroke-width:20; stroke-opacity:1; fill:none" points="
  2258.39,1161.17 2259.51,1161.22 2269.87,1161.76 2276.09,1162.08 2281.36,1162.35 2287.08,1162.65 2292.35,1162.92 2298,1163.21 2304.55,1163.55 2310.37,1163.85 
  2315.48,1164.12 2321.04,1164.4 2326.64,1164.69 2332.83,1165.01 2338.71,1165.32 2344.84,1165.63 2349.99,1165.9 2356.28,1166.23 2362.05,1166.52 2367.37,1166.8 
  2372.76,1167.08 2378.81,1167.39 2384.28,1167.67 2390.55,1168 2396.36,1168.3 2402.08,1168.59 2407.64,1168.88 2413.34,1169.17 2419.58,1169.5 2428.65,1169.96 
  2430.51,1170.06 
  "/>
<polyline clip-path="url(#clip263)" style="stroke:#0000ff; stroke-linecap:round; stroke-linejoin:round; stroke-width:20; stroke-opacity:1; fill:none" points="
  2357.26,1171.14 2357.97,1171.36 2364.52,1173.38 2368.45,1174.6 2371.78,1175.62 2375.39,1176.74 2378.72,1177.77 2382.29,1178.87 2386.43,1180.15 2390.1,1181.28 
  2393.33,1182.28 2396.84,1183.36 2400.38,1184.46 2404.29,1185.66 2408.01,1186.81 2411.88,1188.01 2415.13,1189.01 2419.11,1190.24 2422.75,1191.36 2426.11,1192.4 
  2429.52,1193.46 2433.34,1194.63 2436.8,1195.7 2440.76,1196.93 2444.43,1198.06 2448.04,1199.18 2451.56,1200.26 2455.15,1201.37 2459.1,1202.59 2464.83,1204.36 
  2466,1204.72 
  "/>
<polyline clip-path="url(#clip263)" style="stroke:#0000ff; stroke-linecap:round; stroke-linejoin:round; stroke-width:20; stroke-opacity:1; fill:none" points="
  2439.53,1251.5 2440.63,1249.34 2450.81,1229.32 2456.92,1217.29 2462.09,1207.12 2467.71,1196.07 2472.88,1185.88 2478.44,1174.96 2484.87,1162.31 2490.58,1151.07 
  2495.59,1141.21 2501.06,1130.46 2506.56,1119.64 2512.63,1107.68 2518.42,1096.31 2524.43,1084.48 2529.49,1074.52 2535.67,1062.37 2541.33,1051.23 2546.56,1040.94 
  2551.85,1030.53 2557.79,1018.85 2563.17,1008.27 2569.32,996.154 2575.03,984.938 2580.65,973.88 2586.1,963.143 2591.7,952.137 2597.83,940.078 2606.73,922.56 
  2608.56,918.967 
  "/>
<polyline clip-path="url(#clip263)" style="stroke:#ff0000; stroke-linecap:round; stroke-linejoin:round; stroke-width:20; stroke-opacity:1; fill:none" points="
  1535.35,1524.06 1546.19,1499.22 1557.03,1474.97 1567.87,1451.3 1578.71,1428.23 1589.55,1405.76 1600.39,1383.88 1611.23,1362.61 1622.07,1341.94 1632.91,1321.89 
  1643.76,1302.46 1654.6,1283.64 1665.44,1265.67 1676.28,1248.32 1687.12,1231.54 1697.96,1215.35 1708.8,1199.74 1719.64,1184.75 1730.48,1170.39 1741.32,1156.59 
  1752.16,1143.36 1763,1130.71 1773.84,1118.61 1784.68,1107.06 1795.52,1096.07 1806.36,1085.68 1817.2,1075.89 1828.04,1066.73 1838.88,1058.3 1849.72,1050.61 
  1860.57,1043.62 1871.41,1037.45 1882.25,1032.93 1893.09,1029.36 1903.93,1026.72 1914.77,1024.95 1925.61,1024.16 1936.45,1024.61 1947.29,1025.84 1958.13,1027.8 
  1968.97,1031.98 1979.81,1035.72 1990.65,1039.93 2001.49,1044.3 2012.33,1048.03 2023.17,1052.41 2034.01,1057.45 2044.85,1062.99 2055.69,1070.06 2066.53,1078.87 
  2077.38,1088.52 2088.22,1100.62 2099.06,1113.28 2109.9,1127.81 2120.74,1143.25 2131.58,1155.79 2142.42,1165.17 2153.26,1174.07 2164.1,1180.81 2174.94,1179.22 
  2185.78,1177.27 2196.62,1175.39 2207.46,1174.02 2218.3,1172.79 2229.14,1172.25 2239.98,1170.68 2250.82,1168.38 2261.66,1165.32 2272.5,1162.08 2283.34,1159.14 
  2294.19,1157.85 2305.03,1159.1 2315.87,1160.47 2326.71,1161.92 2337.55,1163.38 2348.39,1165.29 2359.23,1170.79 2370.07,1175.81 2380.91,1179.61 2391.75,1182.09 
  2402.59,1183.44 2413.43,1183.38 2424.27,1181.65 2435.11,1178.18 2445.95,1173.22 2456.79,1166.67 2467.63,1158.69 2478.47,1149.26 2489.31,1138.2 2500.15,1125.37 
  2511,1110.64 2521.84,1094.11 2532.68,1076.65 2543.52,1057.36 2554.36,1036.13 2565.2,1012.86 2576.04,987.829 2586.88,961.069 2597.72,932.14 2608.56,900.954 
  
  "/>
</svg>
