<?xml version="1.0" encoding="utf-8"?>
<svg xmlns="http://www.w3.org/2000/svg" xmlns:xlink="http://www.w3.org/1999/xlink" width="576" height="384" viewBox="0 0 2304 1536">
<defs>
  <clipPath id="clip230">
    <rect x="0" y="0" width="2304" height="1536"/>
  </clipPath>
</defs>
<path clip-path="url(#clip230)" d="
M0 1536 L2304 1536 L2304 0 L0 0  Z
  " fill="#ffffff" fill-rule="evenodd" fill-opacity="1"/>
<defs>
  <clipPath id="clip231">
    <rect x="460" y="0" width="1614" height="1536"/>
  </clipPath>
</defs>
<path clip-path="url(#clip230)" d="
M154.805 1423.09 L1024.19 1423.09 L1024.19 47.2441 L154.805 47.2441  Z
  " fill="#ffffff" fill-rule="evenodd" fill-opacity="1"/>
<defs>
  <clipPath id="clip232">
    <rect x="154" y="47" width="870" height="1377"/>
  </clipPath>
</defs>
<polyline clip-path="url(#clip232)" style="stroke:#000000; stroke-linecap:round; stroke-linejoin:round; stroke-width:2; stroke-opacity:0.1; fill:none" points="
  296.578,1423.09 296.578,47.2441 
  "/>
<polyline clip-path="url(#clip232)" style="stroke:#000000; stroke-linecap:round; stroke-linejoin:round; stroke-width:2; stroke-opacity:0.1; fill:none" points="
  589.497,1423.09 589.497,47.2441 
  "/>
<polyline clip-path="url(#clip232)" style="stroke:#000000; stroke-linecap:round; stroke-linejoin:round; stroke-width:2; stroke-opacity:0.1; fill:none" points="
  882.416,1423.09 882.416,47.2441 
  "/>
<polyline clip-path="url(#clip230)" style="stroke:#000000; stroke-linecap:round; stroke-linejoin:round; stroke-width:4; stroke-opacity:1; fill:none" points="
  154.805,1423.09 1024.19,1423.09 
  "/>
<polyline clip-path="url(#clip230)" style="stroke:#000000; stroke-linecap:round; stroke-linejoin:round; stroke-width:4; stroke-opacity:1; fill:none" points="
  296.578,1423.09 296.578,1404.19 
  "/>
<polyline clip-path="url(#clip230)" style="stroke:#000000; stroke-linecap:round; stroke-linejoin:round; stroke-width:4; stroke-opacity:1; fill:none" points="
  589.497,1423.09 589.497,1404.19 
  "/>
<polyline clip-path="url(#clip230)" style="stroke:#000000; stroke-linecap:round; stroke-linejoin:round; stroke-width:4; stroke-opacity:1; fill:none" points="
  882.416,1423.09 882.416,1404.19 
  "/>
<path clip-path="url(#clip230)" d="M240.837 1459.56 L240.837 1463.59 Q239.032 1462.66 237.087 1462.2 Q235.143 1461.73 233.06 1461.73 Q229.888 1461.73 228.291 1462.71 Q226.717 1463.68 226.717 1465.62 Q226.717 1467.1 227.851 1467.96 Q228.986 1468.79 232.411 1469.56 L233.87 1469.88 Q238.407 1470.85 240.305 1472.64 Q242.226 1474.4 242.226 1477.57 Q242.226 1481.18 239.356 1483.28 Q236.509 1485.39 231.509 1485.39 Q229.425 1485.39 227.157 1484.97 Q224.912 1484.58 222.412 1483.77 L222.412 1479.37 Q224.773 1480.6 227.064 1481.22 Q229.356 1481.83 231.601 1481.83 Q234.611 1481.83 236.231 1480.81 Q237.851 1479.77 237.851 1477.89 Q237.851 1476.16 236.671 1475.23 Q235.513 1474.3 231.555 1473.45 L230.074 1473.1 Q226.115 1472.27 224.356 1470.55 Q222.597 1468.82 222.597 1465.81 Q222.597 1462.15 225.189 1460.16 Q227.782 1458.17 232.55 1458.17 Q234.911 1458.17 236.995 1458.52 Q239.078 1458.86 240.837 1459.56 Z" fill="#000000" fill-rule="evenodd" fill-opacity="1" /><path clip-path="url(#clip230)" d="M271.184 1470.69 L271.184 1472.78 L251.601 1472.78 Q251.879 1477.17 254.24 1479.49 Q256.624 1481.78 260.86 1481.78 Q263.314 1481.78 265.606 1481.18 Q267.921 1480.58 270.189 1479.37 L270.189 1483.4 Q267.897 1484.37 265.49 1484.88 Q263.083 1485.39 260.606 1485.39 Q254.402 1485.39 250.768 1481.78 Q247.157 1478.17 247.157 1472.01 Q247.157 1465.65 250.583 1461.92 Q254.032 1458.17 259.865 1458.17 Q265.097 1458.17 268.129 1461.55 Q271.184 1464.91 271.184 1470.69 M266.925 1469.44 Q266.879 1465.95 264.958 1463.86 Q263.059 1461.78 259.911 1461.78 Q256.347 1461.78 254.194 1463.79 Q252.064 1465.81 251.74 1469.47 L266.925 1469.44 Z" fill="#000000" fill-rule="evenodd" fill-opacity="1" /><path clip-path="url(#clip230)" d="M282.388 1451.43 L282.388 1458.79 L291.161 1458.79 L291.161 1462.1 L282.388 1462.1 L282.388 1476.18 Q282.388 1479.35 283.245 1480.25 Q284.124 1481.16 286.786 1481.16 L291.161 1481.16 L291.161 1484.72 L286.786 1484.72 Q281.856 1484.72 279.981 1482.89 Q278.106 1481.04 278.106 1476.18 L278.106 1462.1 L274.981 1462.1 L274.981 1458.79 L278.106 1458.79 L278.106 1451.43 L282.388 1451.43 Z" fill="#000000" fill-rule="evenodd" fill-opacity="1" /><path clip-path="url(#clip230)" d="M306.809 1461.78 Q303.383 1461.78 301.393 1464.47 Q299.402 1467.13 299.402 1471.78 Q299.402 1476.43 301.369 1479.12 Q303.36 1481.78 306.809 1481.78 Q310.212 1481.78 312.203 1479.09 Q314.193 1476.41 314.193 1471.78 Q314.193 1467.17 312.203 1464.49 Q310.212 1461.78 306.809 1461.78 M306.809 1458.17 Q312.365 1458.17 315.536 1461.78 Q318.707 1465.39 318.707 1471.78 Q318.707 1478.15 315.536 1481.78 Q312.365 1485.39 306.809 1485.39 Q301.231 1485.39 298.059 1481.78 Q294.911 1478.15 294.911 1471.78 Q294.911 1465.39 298.059 1461.78 Q301.231 1458.17 306.809 1458.17 Z" fill="#000000" fill-rule="evenodd" fill-opacity="1" /><path clip-path="url(#clip230)" d="M342.295 1459.56 L342.295 1463.59 Q340.49 1462.66 338.545 1462.2 Q336.601 1461.73 334.517 1461.73 Q331.346 1461.73 329.749 1462.71 Q328.175 1463.68 328.175 1465.62 Q328.175 1467.1 329.309 1467.96 Q330.443 1468.79 333.869 1469.56 L335.328 1469.88 Q339.865 1470.85 341.763 1472.64 Q343.684 1474.4 343.684 1477.57 Q343.684 1481.18 340.814 1483.28 Q337.966 1485.39 332.967 1485.39 Q330.883 1485.39 328.615 1484.97 Q326.369 1484.58 323.869 1483.77 L323.869 1479.37 Q326.23 1480.6 328.522 1481.22 Q330.814 1481.83 333.059 1481.83 Q336.068 1481.83 337.689 1480.81 Q339.309 1479.77 339.309 1477.89 Q339.309 1476.16 338.129 1475.23 Q336.971 1474.3 333.013 1473.45 L331.531 1473.1 Q327.573 1472.27 325.814 1470.55 Q324.055 1468.82 324.055 1465.81 Q324.055 1462.15 326.647 1460.16 Q329.24 1458.17 334.008 1458.17 Q336.369 1458.17 338.453 1458.52 Q340.536 1458.86 342.295 1459.56 Z" fill="#000000" fill-rule="evenodd" fill-opacity="1" /><path clip-path="url(#clip230)" d="M362.249 1471.69 Q357.087 1471.69 355.096 1472.87 Q353.105 1474.05 353.105 1476.9 Q353.105 1479.16 354.587 1480.51 Q356.091 1481.83 358.661 1481.83 Q362.202 1481.83 364.332 1479.33 Q366.485 1476.8 366.485 1472.64 L366.485 1471.69 L362.249 1471.69 M370.744 1469.93 L370.744 1484.72 L366.485 1484.72 L366.485 1480.78 Q365.027 1483.15 362.851 1484.28 Q360.675 1485.39 357.527 1485.39 Q353.545 1485.39 351.184 1483.17 Q348.846 1480.92 348.846 1477.17 Q348.846 1472.8 351.763 1470.58 Q354.703 1468.35 360.513 1468.35 L366.485 1468.35 L366.485 1467.94 Q366.485 1465 364.54 1463.4 Q362.619 1461.78 359.124 1461.78 Q356.902 1461.78 354.795 1462.31 Q352.689 1462.84 350.744 1463.91 L350.744 1459.97 Q353.082 1459.07 355.281 1458.63 Q357.48 1458.17 359.564 1458.17 Q365.189 1458.17 367.966 1461.09 Q370.744 1464 370.744 1469.93 Z" fill="#000000" fill-rule="evenodd" fill-opacity="1" /><path clip-path="url(#clip230)" d="M474.544 1458.79 L479.058 1458.79 L487.16 1480.55 L495.261 1458.79 L499.775 1458.79 L490.053 1484.72 L484.266 1484.72 L474.544 1458.79 Z" fill="#000000" fill-rule="evenodd" fill-opacity="1" /><path clip-path="url(#clip230)" d="M527.831 1470.69 L527.831 1472.78 L508.247 1472.78 Q508.525 1477.17 510.886 1479.49 Q513.271 1481.78 517.507 1481.78 Q519.96 1481.78 522.252 1481.18 Q524.567 1480.58 526.835 1479.37 L526.835 1483.4 Q524.544 1484.37 522.136 1484.88 Q519.729 1485.39 517.252 1485.39 Q511.048 1485.39 507.414 1481.78 Q503.803 1478.17 503.803 1472.01 Q503.803 1465.65 507.229 1461.92 Q510.678 1458.17 516.511 1458.17 Q521.743 1458.17 524.775 1461.55 Q527.831 1464.91 527.831 1470.69 M523.571 1469.44 Q523.525 1465.95 521.604 1463.86 Q519.706 1461.78 516.558 1461.78 Q512.993 1461.78 510.84 1463.79 Q508.71 1465.81 508.386 1469.47 L523.571 1469.44 Z" fill="#000000" fill-rule="evenodd" fill-opacity="1" /><path clip-path="url(#clip230)" d="M549.844 1462.78 Q549.127 1462.36 548.27 1462.17 Q547.437 1461.97 546.419 1461.97 Q542.807 1461.97 540.863 1464.33 Q538.942 1466.66 538.942 1471.06 L538.942 1484.72 L534.659 1484.72 L534.659 1458.79 L538.942 1458.79 L538.942 1462.82 Q540.284 1460.46 542.437 1459.33 Q544.59 1458.17 547.669 1458.17 Q548.108 1458.17 548.641 1458.24 Q549.173 1458.28 549.821 1458.4 L549.844 1462.78 Z" fill="#000000" fill-rule="evenodd" fill-opacity="1" /><path clip-path="url(#clip230)" d="M570.84 1459.56 L570.84 1463.59 Q569.034 1462.66 567.09 1462.2 Q565.145 1461.73 563.062 1461.73 Q559.891 1461.73 558.294 1462.71 Q556.719 1463.68 556.719 1465.62 Q556.719 1467.1 557.854 1467.96 Q558.988 1468.79 562.414 1469.56 L563.872 1469.88 Q568.409 1470.85 570.307 1472.64 Q572.229 1474.4 572.229 1477.57 Q572.229 1481.18 569.358 1483.28 Q566.511 1485.39 561.511 1485.39 Q559.428 1485.39 557.159 1484.97 Q554.914 1484.58 552.414 1483.77 L552.414 1479.37 Q554.775 1480.6 557.067 1481.22 Q559.358 1481.83 561.604 1481.83 Q564.613 1481.83 566.233 1480.81 Q567.854 1479.77 567.854 1477.89 Q567.854 1476.16 566.673 1475.23 Q565.516 1474.3 561.557 1473.45 L560.076 1473.1 Q556.118 1472.27 554.358 1470.55 Q552.599 1468.82 552.599 1465.81 Q552.599 1462.15 555.192 1460.16 Q557.784 1458.17 562.553 1458.17 Q564.914 1458.17 566.997 1458.52 Q569.08 1458.86 570.84 1459.56 Z" fill="#000000" fill-rule="evenodd" fill-opacity="1" /><path clip-path="url(#clip230)" d="M579.011 1458.79 L583.27 1458.79 L583.27 1484.72 L579.011 1484.72 L579.011 1458.79 M579.011 1448.7 L583.27 1448.7 L583.27 1454.1 L579.011 1454.1 L579.011 1448.7 Z" fill="#000000" fill-rule="evenodd" fill-opacity="1" /><path clip-path="url(#clip230)" d="M610.84 1459.79 L610.84 1463.77 Q609.034 1462.78 607.205 1462.29 Q605.4 1461.78 603.548 1461.78 Q599.404 1461.78 597.113 1464.42 Q594.821 1467.03 594.821 1471.78 Q594.821 1476.53 597.113 1479.16 Q599.404 1481.78 603.548 1481.78 Q605.4 1481.78 607.205 1481.29 Q609.034 1480.78 610.84 1479.79 L610.84 1483.72 Q609.057 1484.56 607.136 1484.97 Q605.238 1485.39 603.085 1485.39 Q597.228 1485.39 593.779 1481.71 Q590.33 1478.03 590.33 1471.78 Q590.33 1465.44 593.803 1461.8 Q597.298 1458.17 603.363 1458.17 Q605.33 1458.17 607.205 1458.59 Q609.08 1458.98 610.84 1459.79 Z" fill="#000000" fill-rule="evenodd" fill-opacity="1" /><path clip-path="url(#clip230)" d="M628.293 1461.78 Q624.867 1461.78 622.877 1464.47 Q620.886 1467.13 620.886 1471.78 Q620.886 1476.43 622.853 1479.12 Q624.844 1481.78 628.293 1481.78 Q631.696 1481.78 633.687 1479.09 Q635.677 1476.41 635.677 1471.78 Q635.677 1467.17 633.687 1464.49 Q631.696 1461.78 628.293 1461.78 M628.293 1458.17 Q633.849 1458.17 637.02 1461.78 Q640.191 1465.39 640.191 1471.78 Q640.191 1478.15 637.02 1481.78 Q633.849 1485.39 628.293 1485.39 Q622.714 1485.39 619.543 1481.78 Q616.395 1478.15 616.395 1471.78 Q616.395 1465.39 619.543 1461.78 Q622.714 1458.17 628.293 1458.17 Z" fill="#000000" fill-rule="evenodd" fill-opacity="1" /><path clip-path="url(#clip230)" d="M647.251 1448.7 L651.511 1448.7 L651.511 1484.72 L647.251 1484.72 L647.251 1448.7 Z" fill="#000000" fill-rule="evenodd" fill-opacity="1" /><path clip-path="url(#clip230)" d="M670.469 1461.78 Q667.043 1461.78 665.052 1464.47 Q663.061 1467.13 663.061 1471.78 Q663.061 1476.43 665.029 1479.12 Q667.02 1481.78 670.469 1481.78 Q673.872 1481.78 675.862 1479.09 Q677.853 1476.41 677.853 1471.78 Q677.853 1467.17 675.862 1464.49 Q673.872 1461.78 670.469 1461.78 M670.469 1458.17 Q676.024 1458.17 679.196 1461.78 Q682.367 1465.39 682.367 1471.78 Q682.367 1478.15 679.196 1481.78 Q676.024 1485.39 670.469 1485.39 Q664.89 1485.39 661.719 1481.78 Q658.571 1478.15 658.571 1471.78 Q658.571 1465.39 661.719 1461.78 Q664.89 1458.17 670.469 1458.17 Z" fill="#000000" fill-rule="evenodd" fill-opacity="1" /><path clip-path="url(#clip230)" d="M704.45 1462.78 Q703.733 1462.36 702.876 1462.17 Q702.043 1461.97 701.024 1461.97 Q697.413 1461.97 695.469 1464.33 Q693.547 1466.66 693.547 1471.06 L693.547 1484.72 L689.265 1484.72 L689.265 1458.79 L693.547 1458.79 L693.547 1462.82 Q694.89 1460.46 697.043 1459.33 Q699.196 1458.17 702.274 1458.17 Q702.714 1458.17 703.246 1458.24 Q703.779 1458.28 704.427 1458.4 L704.45 1462.78 Z" fill="#000000" fill-rule="evenodd" fill-opacity="1" /><path clip-path="url(#clip230)" d="M784.535 1458.79 L789.049 1458.79 L797.151 1480.55 L805.252 1458.79 L809.766 1458.79 L800.044 1484.72 L794.257 1484.72 L784.535 1458.79 Z" fill="#000000" fill-rule="evenodd" fill-opacity="1" /><path clip-path="url(#clip230)" d="M815.646 1458.79 L819.905 1458.79 L819.905 1484.72 L815.646 1484.72 L815.646 1458.79 M815.646 1448.7 L819.905 1448.7 L819.905 1454.1 L815.646 1454.1 L815.646 1448.7 Z" fill="#000000" fill-rule="evenodd" fill-opacity="1" /><path clip-path="url(#clip230)" d="M843.84 1462.78 Q843.123 1462.36 842.266 1462.17 Q841.433 1461.97 840.414 1461.97 Q836.803 1461.97 834.859 1464.33 Q832.937 1466.66 832.937 1471.06 L832.937 1484.72 L828.655 1484.72 L828.655 1458.79 L832.937 1458.79 L832.937 1462.82 Q834.28 1460.46 836.433 1459.33 Q838.586 1458.17 841.664 1458.17 Q842.104 1458.17 842.636 1458.24 Q843.169 1458.28 843.817 1458.4 L843.84 1462.78 Z" fill="#000000" fill-rule="evenodd" fill-opacity="1" /><path clip-path="url(#clip230)" d="M864.534 1471.46 Q864.534 1466.83 862.613 1464.28 Q860.715 1461.73 857.266 1461.73 Q853.84 1461.73 851.919 1464.28 Q850.021 1466.83 850.021 1471.46 Q850.021 1476.06 851.919 1478.61 Q853.84 1481.16 857.266 1481.16 Q860.715 1481.16 862.613 1478.61 Q864.534 1476.06 864.534 1471.46 M868.794 1481.5 Q868.794 1488.12 865.854 1491.34 Q862.914 1494.58 856.849 1494.58 Q854.604 1494.58 852.613 1494.23 Q850.622 1493.91 848.747 1493.22 L848.747 1489.07 Q850.622 1490.09 852.451 1490.58 Q854.28 1491.06 856.178 1491.06 Q860.368 1491.06 862.451 1488.86 Q864.534 1486.69 864.534 1482.27 L864.534 1480.16 Q863.215 1482.45 861.155 1483.59 Q859.095 1484.72 856.224 1484.72 Q851.456 1484.72 848.539 1481.09 Q845.623 1477.45 845.623 1471.46 Q845.623 1465.44 848.539 1461.8 Q851.456 1458.17 856.224 1458.17 Q859.095 1458.17 861.155 1459.3 Q863.215 1460.44 864.534 1462.73 L864.534 1458.79 L868.794 1458.79 L868.794 1481.5 Z" fill="#000000" fill-rule="evenodd" fill-opacity="1" /><path clip-path="url(#clip230)" d="M877.567 1458.79 L881.826 1458.79 L881.826 1484.72 L877.567 1484.72 L877.567 1458.79 M877.567 1448.7 L881.826 1448.7 L881.826 1454.1 L877.567 1454.1 L877.567 1448.7 Z" fill="#000000" fill-rule="evenodd" fill-opacity="1" /><path clip-path="url(#clip230)" d="M912.289 1469.07 L912.289 1484.72 L908.03 1484.72 L908.03 1469.21 Q908.03 1465.53 906.594 1463.7 Q905.159 1461.87 902.289 1461.87 Q898.84 1461.87 896.849 1464.07 Q894.858 1466.27 894.858 1470.07 L894.858 1484.72 L890.576 1484.72 L890.576 1458.79 L894.858 1458.79 L894.858 1462.82 Q896.386 1460.48 898.446 1459.33 Q900.53 1458.17 903.238 1458.17 Q907.706 1458.17 909.997 1460.95 Q912.289 1463.7 912.289 1469.07 Z" fill="#000000" fill-rule="evenodd" fill-opacity="1" /><path clip-path="url(#clip230)" d="M920.784 1458.79 L925.043 1458.79 L925.043 1484.72 L920.784 1484.72 L920.784 1458.79 M920.784 1448.7 L925.043 1448.7 L925.043 1454.1 L920.784 1454.1 L920.784 1448.7 Z" fill="#000000" fill-rule="evenodd" fill-opacity="1" /><path clip-path="url(#clip230)" d="M952.613 1459.79 L952.613 1463.77 Q950.807 1462.78 948.978 1462.29 Q947.173 1461.78 945.321 1461.78 Q941.178 1461.78 938.886 1464.42 Q936.594 1467.03 936.594 1471.78 Q936.594 1476.53 938.886 1479.16 Q941.178 1481.78 945.321 1481.78 Q947.173 1481.78 948.978 1481.29 Q950.807 1480.78 952.613 1479.79 L952.613 1483.72 Q950.83 1484.56 948.909 1484.97 Q947.011 1485.39 944.858 1485.39 Q939.002 1485.39 935.553 1481.71 Q932.104 1478.03 932.104 1471.78 Q932.104 1465.44 935.576 1461.8 Q939.071 1458.17 945.136 1458.17 Q947.103 1458.17 948.978 1458.59 Q950.853 1458.98 952.613 1459.79 Z" fill="#000000" fill-rule="evenodd" fill-opacity="1" /><path clip-path="url(#clip230)" d="M971.802 1471.69 Q966.64 1471.69 964.65 1472.87 Q962.659 1474.05 962.659 1476.9 Q962.659 1479.16 964.14 1480.51 Q965.645 1481.83 968.214 1481.83 Q971.756 1481.83 973.886 1479.33 Q976.038 1476.8 976.038 1472.64 L976.038 1471.69 L971.802 1471.69 M980.298 1469.93 L980.298 1484.72 L976.038 1484.72 L976.038 1480.78 Q974.58 1483.15 972.404 1484.28 Q970.228 1485.39 967.08 1485.39 Q963.099 1485.39 960.738 1483.17 Q958.4 1480.92 958.4 1477.17 Q958.4 1472.8 961.316 1470.58 Q964.256 1468.35 970.066 1468.35 L976.038 1468.35 L976.038 1467.94 Q976.038 1465 974.094 1463.4 Q972.173 1461.78 968.677 1461.78 Q966.455 1461.78 964.349 1462.31 Q962.242 1462.84 960.298 1463.91 L960.298 1459.97 Q962.636 1459.07 964.835 1458.63 Q967.034 1458.17 969.117 1458.17 Q974.742 1458.17 977.52 1461.09 Q980.298 1464 980.298 1469.93 Z" fill="#000000" fill-rule="evenodd" fill-opacity="1" /><polyline clip-path="url(#clip232)" style="stroke:#000000; stroke-linecap:round; stroke-linejoin:round; stroke-width:2; stroke-opacity:0.1; fill:none" points="
  154.805,1167.82 1024.19,1167.82 
  "/>
<polyline clip-path="url(#clip232)" style="stroke:#000000; stroke-linecap:round; stroke-linejoin:round; stroke-width:2; stroke-opacity:0.1; fill:none" points="
  154.805,897.412 1024.19,897.412 
  "/>
<polyline clip-path="url(#clip232)" style="stroke:#000000; stroke-linecap:round; stroke-linejoin:round; stroke-width:2; stroke-opacity:0.1; fill:none" points="
  154.805,627.002 1024.19,627.002 
  "/>
<polyline clip-path="url(#clip232)" style="stroke:#000000; stroke-linecap:round; stroke-linejoin:round; stroke-width:2; stroke-opacity:0.1; fill:none" points="
  154.805,356.593 1024.19,356.593 
  "/>
<polyline clip-path="url(#clip232)" style="stroke:#000000; stroke-linecap:round; stroke-linejoin:round; stroke-width:2; stroke-opacity:0.1; fill:none" points="
  154.805,86.1831 1024.19,86.1831 
  "/>
<polyline clip-path="url(#clip230)" style="stroke:#000000; stroke-linecap:round; stroke-linejoin:round; stroke-width:4; stroke-opacity:1; fill:none" points="
  154.805,1423.09 154.805,47.2441 
  "/>
<polyline clip-path="url(#clip230)" style="stroke:#000000; stroke-linecap:round; stroke-linejoin:round; stroke-width:4; stroke-opacity:1; fill:none" points="
  154.805,1167.82 173.703,1167.82 
  "/>
<polyline clip-path="url(#clip230)" style="stroke:#000000; stroke-linecap:round; stroke-linejoin:round; stroke-width:4; stroke-opacity:1; fill:none" points="
  154.805,897.412 173.703,897.412 
  "/>
<polyline clip-path="url(#clip230)" style="stroke:#000000; stroke-linecap:round; stroke-linejoin:round; stroke-width:4; stroke-opacity:1; fill:none" points="
  154.805,627.002 173.703,627.002 
  "/>
<polyline clip-path="url(#clip230)" style="stroke:#000000; stroke-linecap:round; stroke-linejoin:round; stroke-width:4; stroke-opacity:1; fill:none" points="
  154.805,356.593 173.703,356.593 
  "/>
<polyline clip-path="url(#clip230)" style="stroke:#000000; stroke-linecap:round; stroke-linejoin:round; stroke-width:4; stroke-opacity:1; fill:none" points="
  154.805,86.1831 173.703,86.1831 
  "/>
<path clip-path="url(#clip230)" d="M64.0647 1153.62 Q60.4536 1153.62 58.6249 1157.18 Q56.8193 1160.73 56.8193 1167.86 Q56.8193 1174.96 58.6249 1178.53 Q60.4536 1182.07 64.0647 1182.07 Q67.6989 1182.07 69.5044 1178.53 Q71.3331 1174.96 71.3331 1167.86 Q71.3331 1160.73 69.5044 1157.18 Q67.6989 1153.62 64.0647 1153.62 M64.0647 1149.92 Q69.8748 1149.92 72.9303 1154.52 Q76.009 1159.11 76.009 1167.86 Q76.009 1176.58 72.9303 1181.19 Q69.8748 1185.77 64.0647 1185.77 Q58.2545 1185.77 55.1758 1181.19 Q52.1203 1176.58 52.1203 1167.86 Q52.1203 1159.11 55.1758 1154.52 Q58.2545 1149.92 64.0647 1149.92 Z" fill="#000000" fill-rule="evenodd" fill-opacity="1" /><path clip-path="url(#clip230)" d="M84.2266 1179.22 L89.1108 1179.22 L89.1108 1185.1 L84.2266 1185.1 L84.2266 1179.22 Z" fill="#000000" fill-rule="evenodd" fill-opacity="1" /><path clip-path="url(#clip230)" d="M99.3422 1150.54 L117.699 1150.54 L117.699 1154.48 L103.625 1154.48 L103.625 1162.95 Q104.643 1162.6 105.662 1162.44 Q106.68 1162.25 107.699 1162.25 Q113.486 1162.25 116.865 1165.43 Q120.245 1168.6 120.245 1174.01 Q120.245 1179.59 116.773 1182.69 Q113.3 1185.77 106.981 1185.77 Q104.805 1185.77 102.537 1185.4 Q100.291 1185.03 97.8839 1184.29 L97.8839 1179.59 Q99.9672 1180.73 102.189 1181.28 Q104.412 1181.84 106.888 1181.84 Q110.893 1181.84 113.231 1179.73 Q115.569 1177.62 115.569 1174.01 Q115.569 1170.4 113.231 1168.3 Q110.893 1166.19 106.888 1166.19 Q105.014 1166.19 103.139 1166.61 Q101.287 1167.02 99.3422 1167.9 L99.3422 1150.54 Z" fill="#000000" fill-rule="evenodd" fill-opacity="1" /><path clip-path="url(#clip230)" d="M53.8795 910.757 L61.5184 910.757 L61.5184 884.391 L53.2082 886.058 L53.2082 881.798 L61.4721 880.132 L66.148 880.132 L66.148 910.757 L73.7868 910.757 L73.7868 914.692 L53.8795 914.692 L53.8795 910.757 Z" fill="#000000" fill-rule="evenodd" fill-opacity="1" /><path clip-path="url(#clip230)" d="M83.2312 908.812 L88.1154 908.812 L88.1154 914.692 L83.2312 914.692 L83.2312 908.812 Z" fill="#000000" fill-rule="evenodd" fill-opacity="1" /><path clip-path="url(#clip230)" d="M108.301 883.21 Q104.689 883.21 102.861 886.775 Q101.055 890.317 101.055 897.446 Q101.055 904.553 102.861 908.118 Q104.689 911.659 108.301 911.659 Q111.935 911.659 113.74 908.118 Q115.569 904.553 115.569 897.446 Q115.569 890.317 113.74 886.775 Q111.935 883.21 108.301 883.21 M108.301 879.507 Q114.111 879.507 117.166 884.113 Q120.245 888.696 120.245 897.446 Q120.245 906.173 117.166 910.78 Q114.111 915.363 108.301 915.363 Q102.49 915.363 99.4117 910.78 Q96.3561 906.173 96.3561 897.446 Q96.3561 888.696 99.4117 884.113 Q102.49 879.507 108.301 879.507 Z" fill="#000000" fill-rule="evenodd" fill-opacity="1" /><path clip-path="url(#clip230)" d="M54.8749 640.347 L62.5137 640.347 L62.5137 613.981 L54.2036 615.648 L54.2036 611.389 L62.4674 609.722 L67.1433 609.722 L67.1433 640.347 L74.7822 640.347 L74.7822 644.282 L54.8749 644.282 L54.8749 640.347 Z" fill="#000000" fill-rule="evenodd" fill-opacity="1" /><path clip-path="url(#clip230)" d="M84.2266 638.403 L89.1108 638.403 L89.1108 644.282 L84.2266 644.282 L84.2266 638.403 Z" fill="#000000" fill-rule="evenodd" fill-opacity="1" /><path clip-path="url(#clip230)" d="M99.3422 609.722 L117.699 609.722 L117.699 613.657 L103.625 613.657 L103.625 622.13 Q104.643 621.782 105.662 621.62 Q106.68 621.435 107.699 621.435 Q113.486 621.435 116.865 624.606 Q120.245 627.778 120.245 633.194 Q120.245 638.773 116.773 641.875 Q113.3 644.953 106.981 644.953 Q104.805 644.953 102.537 644.583 Q100.291 644.213 97.8839 643.472 L97.8839 638.773 Q99.9672 639.907 102.189 640.463 Q104.412 641.018 106.888 641.018 Q110.893 641.018 113.231 638.912 Q115.569 636.805 115.569 633.194 Q115.569 629.583 113.231 627.477 Q110.893 625.37 106.888 625.37 Q105.014 625.37 103.139 625.787 Q101.287 626.204 99.3422 627.083 L99.3422 609.722 Z" fill="#000000" fill-rule="evenodd" fill-opacity="1" /><path clip-path="url(#clip230)" d="M57.0971 369.937 L73.4165 369.937 L73.4165 373.873 L51.4721 373.873 L51.4721 369.937 Q54.1341 367.183 58.7175 362.553 Q63.3239 357.9 64.5045 356.558 Q66.7498 354.035 67.6294 352.299 Q68.5322 350.539 68.5322 348.85 Q68.5322 346.095 66.5878 344.359 Q64.6665 342.623 61.5647 342.623 Q59.3656 342.623 56.9119 343.387 Q54.4814 344.151 51.7036 345.701 L51.7036 340.979 Q54.5277 339.845 56.9814 339.266 Q59.435 338.688 61.4721 338.688 Q66.8424 338.688 70.0368 341.373 Q73.2313 344.058 73.2313 348.549 Q73.2313 350.678 72.4211 352.6 Q71.6341 354.498 69.5276 357.09 Q68.9489 357.762 65.847 360.979 Q62.7452 364.174 57.0971 369.937 Z" fill="#000000" fill-rule="evenodd" fill-opacity="1" /><path clip-path="url(#clip230)" d="M83.2312 367.993 L88.1154 367.993 L88.1154 373.873 L83.2312 373.873 L83.2312 367.993 Z" fill="#000000" fill-rule="evenodd" fill-opacity="1" /><path clip-path="url(#clip230)" d="M108.301 342.391 Q104.689 342.391 102.861 345.956 Q101.055 349.498 101.055 356.627 Q101.055 363.734 102.861 367.299 Q104.689 370.84 108.301 370.84 Q111.935 370.84 113.74 367.299 Q115.569 363.734 115.569 356.627 Q115.569 349.498 113.74 345.956 Q111.935 342.391 108.301 342.391 M108.301 338.688 Q114.111 338.688 117.166 343.294 Q120.245 347.877 120.245 356.627 Q120.245 365.354 117.166 369.961 Q114.111 374.544 108.301 374.544 Q102.49 374.544 99.4117 369.961 Q96.3561 365.354 96.3561 356.627 Q96.3561 347.877 99.4117 343.294 Q102.49 338.688 108.301 338.688 Z" fill="#000000" fill-rule="evenodd" fill-opacity="1" /><path clip-path="url(#clip230)" d="M58.0925 99.5279 L74.4118 99.5279 L74.4118 103.463 L52.4675 103.463 L52.4675 99.5279 Q55.1295 96.7733 59.7128 92.1437 Q64.3193 87.4909 65.4998 86.1483 Q67.7452 83.6252 68.6248 81.8891 Q69.5276 80.1299 69.5276 78.4401 Q69.5276 75.6854 67.5832 73.9493 Q65.6619 72.2132 62.56 72.2132 Q60.361 72.2132 57.9073 72.9771 Q55.4767 73.741 52.699 75.2919 L52.699 70.5697 Q55.523 69.4355 57.9767 68.8568 Q60.4304 68.2781 62.4674 68.2781 Q67.8378 68.2781 71.0322 70.9632 Q74.2266 73.6484 74.2266 78.1391 Q74.2266 80.2687 73.4165 82.19 Q72.6294 84.0882 70.5229 86.6808 Q69.9442 87.352 66.8424 90.5696 Q63.7406 93.764 58.0925 99.5279 Z" fill="#000000" fill-rule="evenodd" fill-opacity="1" /><path clip-path="url(#clip230)" d="M84.2266 97.5835 L89.1108 97.5835 L89.1108 103.463 L84.2266 103.463 L84.2266 97.5835 Z" fill="#000000" fill-rule="evenodd" fill-opacity="1" /><path clip-path="url(#clip230)" d="M99.3422 68.9031 L117.699 68.9031 L117.699 72.8382 L103.625 72.8382 L103.625 81.3104 Q104.643 80.9632 105.662 80.8012 Q106.68 80.616 107.699 80.616 Q113.486 80.616 116.865 83.7872 Q120.245 86.9585 120.245 92.3752 Q120.245 97.9538 116.773 101.056 Q113.3 104.134 106.981 104.134 Q104.805 104.134 102.537 103.764 Q100.291 103.394 97.8839 102.653 L97.8839 97.9538 Q99.9672 99.0881 102.189 99.6436 Q104.412 100.199 106.888 100.199 Q110.893 100.199 113.231 98.0927 Q115.569 95.9863 115.569 92.3752 Q115.569 88.7641 113.231 86.6576 Q110.893 84.5511 106.888 84.5511 Q105.014 84.5511 103.139 84.9678 Q101.287 85.3845 99.3422 86.2641 L99.3422 68.9031 Z" fill="#000000" fill-rule="evenodd" fill-opacity="1" /><path clip-path="url(#clip232)" d="
M296.578 1384.15 L237.994 1384.15 L355.162 1384.15 L296.578 1384.15 L296.578 1330.07 L296.578 1384.15  Z
  " fill="#009af9" fill-rule="evenodd" fill-opacity="1"/>
<polyline clip-path="url(#clip232)" style="stroke:#000000; stroke-linecap:round; stroke-linejoin:round; stroke-width:4; stroke-opacity:1; fill:none" points="
  296.578,1384.15 237.994,1384.15 355.162,1384.15 296.578,1384.15 296.578,1330.07 296.578,1384.15 
  "/>
<path clip-path="url(#clip232)" d="
M413.746 1330.07 L413.746 1330.07 L179.41 1330.07 L179.41 1330.07 L413.746 1330.07 L413.746 1330.07 L413.746 1330.07  Z
  " fill="#009af9" fill-rule="evenodd" fill-opacity="1"/>
<polyline clip-path="url(#clip232)" style="stroke:#000000; stroke-linecap:round; stroke-linejoin:round; stroke-width:4; stroke-opacity:1; fill:none" points="
  413.746,1330.07 413.746,1330.07 179.41,1330.07 413.746,1330.07 
  "/>
<path clip-path="url(#clip232)" d="
M413.746 1275.99 L179.41 1275.99 L179.41 1330.07 L413.746 1330.07 L413.746 1275.99 L296.578 1275.99 L413.746 1275.99  Z
  " fill="#009af9" fill-rule="evenodd" fill-opacity="1"/>
<polyline clip-path="url(#clip232)" style="stroke:#000000; stroke-linecap:round; stroke-linejoin:round; stroke-width:4; stroke-opacity:1; fill:none" points="
  413.746,1275.99 179.41,1275.99 179.41,1330.07 413.746,1330.07 413.746,1275.99 296.578,1275.99 413.746,1275.99 
  "/>
<path clip-path="url(#clip232)" d="
M296.578 1221.9 L237.994 1221.9 L355.162 1221.9 L296.578 1221.9 L296.578 1275.99 L296.578 1221.9  Z
  " fill="#009af9" fill-rule="evenodd" fill-opacity="1"/>
<polyline clip-path="url(#clip232)" style="stroke:#000000; stroke-linecap:round; stroke-linejoin:round; stroke-width:4; stroke-opacity:1; fill:none" points="
  296.578,1221.9 237.994,1221.9 355.162,1221.9 296.578,1221.9 296.578,1275.99 296.578,1221.9 
  "/>
<path clip-path="url(#clip232)" d="
M589.497 897.412 L530.913 897.412 L648.081 897.412 L589.497 897.412 L589.497 789.248 L589.497 897.412  Z
  " fill="#009af9" fill-rule="evenodd" fill-opacity="1"/>
<polyline clip-path="url(#clip232)" style="stroke:#000000; stroke-linecap:round; stroke-linejoin:round; stroke-width:4; stroke-opacity:1; fill:none" points="
  589.497,897.412 530.913,897.412 648.081,897.412 589.497,897.412 589.497,789.248 589.497,897.412 
  "/>
<path clip-path="url(#clip232)" d="
M706.665 789.248 L706.665 735.166 L472.329 735.166 L472.329 789.248 L706.665 789.248 L706.665 735.166 L706.665 789.248  Z
  " fill="#009af9" fill-rule="evenodd" fill-opacity="1"/>
<polyline clip-path="url(#clip232)" style="stroke:#000000; stroke-linecap:round; stroke-linejoin:round; stroke-width:4; stroke-opacity:1; fill:none" points="
  706.665,789.248 706.665,735.166 472.329,735.166 472.329,789.248 706.665,789.248 706.665,735.166 706.665,789.248 
  "/>
<path clip-path="url(#clip232)" d="
M706.665 627.002 L472.329 627.002 L472.329 735.166 L706.665 735.166 L706.665 627.002 L589.497 627.002 L706.665 627.002  Z
  " fill="#009af9" fill-rule="evenodd" fill-opacity="1"/>
<polyline clip-path="url(#clip232)" style="stroke:#000000; stroke-linecap:round; stroke-linejoin:round; stroke-width:4; stroke-opacity:1; fill:none" points="
  706.665,627.002 472.329,627.002 472.329,735.166 706.665,735.166 706.665,627.002 589.497,627.002 706.665,627.002 
  "/>
<path clip-path="url(#clip232)" d="
M589.497 464.756 L530.913 464.756 L648.081 464.756 L589.497 464.756 L589.497 627.002 L589.497 464.756  Z
  " fill="#009af9" fill-rule="evenodd" fill-opacity="1"/>
<polyline clip-path="url(#clip232)" style="stroke:#000000; stroke-linecap:round; stroke-linejoin:round; stroke-width:4; stroke-opacity:1; fill:none" points="
  589.497,464.756 530.913,464.756 648.081,464.756 589.497,464.756 589.497,627.002 589.497,464.756 
  "/>
<path clip-path="url(#clip232)" d="
M882.416 681.084 L823.832 681.084 L941 681.084 L882.416 681.084 L882.416 464.756 L882.416 681.084  Z
  " fill="#009af9" fill-rule="evenodd" fill-opacity="1"/>
<polyline clip-path="url(#clip232)" style="stroke:#000000; stroke-linecap:round; stroke-linejoin:round; stroke-width:4; stroke-opacity:1; fill:none" points="
  882.416,681.084 823.832,681.084 941,681.084 882.416,681.084 882.416,464.756 882.416,681.084 
  "/>
<path clip-path="url(#clip232)" d="
M999.584 464.756 L999.584 356.593 L765.249 356.593 L765.249 464.756 L999.584 464.756 L999.584 356.593 L999.584 464.756  Z
  " fill="#009af9" fill-rule="evenodd" fill-opacity="1"/>
<polyline clip-path="url(#clip232)" style="stroke:#000000; stroke-linecap:round; stroke-linejoin:round; stroke-width:4; stroke-opacity:1; fill:none" points="
  999.584,464.756 999.584,356.593 765.249,356.593 765.249,464.756 999.584,464.756 999.584,356.593 999.584,464.756 
  "/>
<path clip-path="url(#clip232)" d="
M999.584 194.347 L765.249 194.347 L765.249 356.593 L999.584 356.593 L999.584 194.347 L882.416 194.347 L999.584 194.347  Z
  " fill="#009af9" fill-rule="evenodd" fill-opacity="1"/>
<polyline clip-path="url(#clip232)" style="stroke:#000000; stroke-linecap:round; stroke-linejoin:round; stroke-width:4; stroke-opacity:1; fill:none" points="
  999.584,194.347 765.249,194.347 765.249,356.593 999.584,356.593 999.584,194.347 882.416,194.347 999.584,194.347 
  "/>
<path clip-path="url(#clip232)" d="
M882.416 86.1831 L823.832 86.1831 L941 86.1831 L882.416 86.1831 L882.416 194.347 L882.416 86.1831  Z
  " fill="#009af9" fill-rule="evenodd" fill-opacity="1"/>
<polyline clip-path="url(#clip232)" style="stroke:#000000; stroke-linecap:round; stroke-linejoin:round; stroke-width:4; stroke-opacity:1; fill:none" points="
  882.416,86.1831 823.832,86.1831 941,86.1831 882.416,86.1831 882.416,194.347 882.416,86.1831 
  "/>
<circle clip-path="url(#clip232)" cx="296.578" cy="1167.82" r="14.4" fill="#009af9" fill-rule="evenodd" fill-opacity="1" stroke="#000000" stroke-opacity="1" stroke-width="3.072"/>
<circle clip-path="url(#clip232)" cx="296.578" cy="1113.74" r="14.4" fill="#009af9" fill-rule="evenodd" fill-opacity="1" stroke="#000000" stroke-opacity="1" stroke-width="3.072"/>
<polyline clip-path="url(#clip232)" style="stroke:#009af9; stroke-linecap:round; stroke-linejoin:round; stroke-width:0; stroke-opacity:1; fill:none" points="
  296.578,1384.15 237.994,1384.15 355.162,1384.15 296.578,1384.15 296.578,1330.07 
  "/>
<polyline clip-path="url(#clip232)" style="stroke:#009af9; stroke-linecap:round; stroke-linejoin:round; stroke-width:0; stroke-opacity:1; fill:none" points="
  413.746,1330.07 413.746,1330.07 179.41,1330.07 413.746,1330.07 
  "/>
<polyline clip-path="url(#clip232)" style="stroke:#009af9; stroke-linecap:round; stroke-linejoin:round; stroke-width:0; stroke-opacity:1; fill:none" points="
  413.746,1275.99 179.41,1275.99 179.41,1330.07 413.746,1330.07 413.746,1275.99 296.578,1275.99 
  "/>
<polyline clip-path="url(#clip232)" style="stroke:#009af9; stroke-linecap:round; stroke-linejoin:round; stroke-width:0; stroke-opacity:1; fill:none" points="
  296.578,1221.9 237.994,1221.9 355.162,1221.9 296.578,1221.9 296.578,1275.99 
  "/>
<polyline clip-path="url(#clip232)" style="stroke:#009af9; stroke-linecap:round; stroke-linejoin:round; stroke-width:0; stroke-opacity:1; fill:none" points="
  589.497,897.412 530.913,897.412 648.081,897.412 589.497,897.412 589.497,789.248 
  "/>
<polyline clip-path="url(#clip232)" style="stroke:#009af9; stroke-linecap:round; stroke-linejoin:round; stroke-width:0; stroke-opacity:1; fill:none" points="
  706.665,789.248 706.665,735.166 472.329,735.166 472.329,789.248 706.665,789.248 706.665,735.166 
  "/>
<polyline clip-path="url(#clip232)" style="stroke:#009af9; stroke-linecap:round; stroke-linejoin:round; stroke-width:0; stroke-opacity:1; fill:none" points="
  706.665,627.002 472.329,627.002 472.329,735.166 706.665,735.166 706.665,627.002 589.497,627.002 
  "/>
<polyline clip-path="url(#clip232)" style="stroke:#009af9; stroke-linecap:round; stroke-linejoin:round; stroke-width:0; stroke-opacity:1; fill:none" points="
  589.497,464.756 530.913,464.756 648.081,464.756 589.497,464.756 589.497,627.002 
  "/>
<polyline clip-path="url(#clip232)" style="stroke:#009af9; stroke-linecap:round; stroke-linejoin:round; stroke-width:0; stroke-opacity:1; fill:none" points="
  882.416,681.084 823.832,681.084 941,681.084 882.416,681.084 882.416,464.756 
  "/>
<polyline clip-path="url(#clip232)" style="stroke:#009af9; stroke-linecap:round; stroke-linejoin:round; stroke-width:0; stroke-opacity:1; fill:none" points="
  999.584,464.756 999.584,356.593 765.249,356.593 765.249,464.756 999.584,464.756 999.584,356.593 
  "/>
<polyline clip-path="url(#clip232)" style="stroke:#009af9; stroke-linecap:round; stroke-linejoin:round; stroke-width:0; stroke-opacity:1; fill:none" points="
  999.584,194.347 765.249,194.347 765.249,356.593 999.584,356.593 999.584,194.347 882.416,194.347 
  "/>
<polyline clip-path="url(#clip232)" style="stroke:#009af9; stroke-linecap:round; stroke-linejoin:round; stroke-width:0; stroke-opacity:1; fill:none" points="
  882.416,86.1831 823.832,86.1831 941,86.1831 882.416,86.1831 882.416,194.347 
  "/>
<path clip-path="url(#clip230)" d="
M1387.37 1423.09 L2256.76 1423.09 L2256.76 47.2441 L1387.37 47.2441  Z
  " fill="#ffffff" fill-rule="evenodd" fill-opacity="1"/>
<defs>
  <clipPath id="clip233">
    <rect x="1387" y="47" width="870" height="1377"/>
  </clipPath>
</defs>
<polyline clip-path="url(#clip233)" style="stroke:#000000; stroke-linecap:round; stroke-linejoin:round; stroke-width:2; stroke-opacity:0.1; fill:none" points="
  1455.22,1423.09 1455.22,47.2441 
  "/>
<polyline clip-path="url(#clip233)" style="stroke:#000000; stroke-linecap:round; stroke-linejoin:round; stroke-width:2; stroke-opacity:0.1; fill:none" points="
  1589.35,1423.09 1589.35,47.2441 
  "/>
<polyline clip-path="url(#clip233)" style="stroke:#000000; stroke-linecap:round; stroke-linejoin:round; stroke-width:2; stroke-opacity:0.1; fill:none" points="
  1723.48,1423.09 1723.48,47.2441 
  "/>
<polyline clip-path="url(#clip233)" style="stroke:#000000; stroke-linecap:round; stroke-linejoin:round; stroke-width:2; stroke-opacity:0.1; fill:none" points="
  1857.61,1423.09 1857.61,47.2441 
  "/>
<polyline clip-path="url(#clip233)" style="stroke:#000000; stroke-linecap:round; stroke-linejoin:round; stroke-width:2; stroke-opacity:0.1; fill:none" points="
  1991.74,1423.09 1991.74,47.2441 
  "/>
<polyline clip-path="url(#clip233)" style="stroke:#000000; stroke-linecap:round; stroke-linejoin:round; stroke-width:2; stroke-opacity:0.1; fill:none" points="
  2125.86,1423.09 2125.86,47.2441 
  "/>
<polyline clip-path="url(#clip230)" style="stroke:#000000; stroke-linecap:round; stroke-linejoin:round; stroke-width:4; stroke-opacity:1; fill:none" points="
  1387.37,1423.09 2256.76,1423.09 
  "/>
<polyline clip-path="url(#clip230)" style="stroke:#000000; stroke-linecap:round; stroke-linejoin:round; stroke-width:4; stroke-opacity:1; fill:none" points="
  1455.22,1423.09 1455.22,1404.19 
  "/>
<polyline clip-path="url(#clip230)" style="stroke:#000000; stroke-linecap:round; stroke-linejoin:round; stroke-width:4; stroke-opacity:1; fill:none" points="
  1589.35,1423.09 1589.35,1404.19 
  "/>
<polyline clip-path="url(#clip230)" style="stroke:#000000; stroke-linecap:round; stroke-linejoin:round; stroke-width:4; stroke-opacity:1; fill:none" points="
  1723.48,1423.09 1723.48,1404.19 
  "/>
<polyline clip-path="url(#clip230)" style="stroke:#000000; stroke-linecap:round; stroke-linejoin:round; stroke-width:4; stroke-opacity:1; fill:none" points="
  1857.61,1423.09 1857.61,1404.19 
  "/>
<polyline clip-path="url(#clip230)" style="stroke:#000000; stroke-linecap:round; stroke-linejoin:round; stroke-width:4; stroke-opacity:1; fill:none" points="
  1991.74,1423.09 1991.74,1404.19 
  "/>
<polyline clip-path="url(#clip230)" style="stroke:#000000; stroke-linecap:round; stroke-linejoin:round; stroke-width:4; stroke-opacity:1; fill:none" points="
  2125.86,1423.09 2125.86,1404.19 
  "/>
<path clip-path="url(#clip230)" d="M1432.6 1453.24 Q1428.99 1453.24 1427.17 1456.8 Q1425.36 1460.35 1425.36 1467.47 Q1425.36 1474.58 1427.17 1478.15 Q1428.99 1481.69 1432.6 1481.69 Q1436.24 1481.69 1438.04 1478.15 Q1439.87 1474.58 1439.87 1467.47 Q1439.87 1460.35 1438.04 1456.8 Q1436.24 1453.24 1432.6 1453.24 M1432.6 1449.53 Q1438.42 1449.53 1441.47 1454.14 Q1444.55 1458.72 1444.55 1467.47 Q1444.55 1476.2 1441.47 1480.81 Q1438.42 1485.39 1432.6 1485.39 Q1426.79 1485.39 1423.72 1480.81 Q1420.66 1476.2 1420.66 1467.47 Q1420.66 1458.72 1423.72 1454.14 Q1426.79 1449.53 1432.6 1449.53 Z" fill="#000000" fill-rule="evenodd" fill-opacity="1" /><path clip-path="url(#clip230)" d="M1452.77 1478.84 L1457.65 1478.84 L1457.65 1484.72 L1452.77 1484.72 L1452.77 1478.84 Z" fill="#000000" fill-rule="evenodd" fill-opacity="1" /><path clip-path="url(#clip230)" d="M1477.84 1453.24 Q1474.23 1453.24 1472.4 1456.8 Q1470.59 1460.35 1470.59 1467.47 Q1470.59 1474.58 1472.4 1478.15 Q1474.23 1481.69 1477.84 1481.69 Q1481.47 1481.69 1483.28 1478.15 Q1485.1 1474.58 1485.1 1467.47 Q1485.1 1460.35 1483.28 1456.8 Q1481.47 1453.24 1477.84 1453.24 M1477.84 1449.53 Q1483.65 1449.53 1486.7 1454.14 Q1489.78 1458.72 1489.78 1467.47 Q1489.78 1476.2 1486.7 1480.81 Q1483.65 1485.39 1477.84 1485.39 Q1472.03 1485.39 1468.95 1480.81 Q1465.89 1476.2 1465.89 1467.47 Q1465.89 1458.72 1468.95 1454.14 Q1472.03 1449.53 1477.84 1449.53 Z" fill="#000000" fill-rule="evenodd" fill-opacity="1" /><path clip-path="url(#clip230)" d="M1567.23 1453.24 Q1563.62 1453.24 1561.79 1456.8 Q1559.99 1460.35 1559.99 1467.47 Q1559.99 1474.58 1561.79 1478.15 Q1563.62 1481.69 1567.23 1481.69 Q1570.87 1481.69 1572.67 1478.15 Q1574.5 1474.58 1574.5 1467.47 Q1574.5 1460.35 1572.67 1456.8 Q1570.87 1453.24 1567.23 1453.24 M1567.23 1449.53 Q1573.04 1449.53 1576.1 1454.14 Q1579.18 1458.72 1579.18 1467.47 Q1579.18 1476.2 1576.1 1480.81 Q1573.04 1485.39 1567.23 1485.39 Q1561.42 1485.39 1558.34 1480.81 Q1555.29 1476.2 1555.29 1467.47 Q1555.29 1458.72 1558.34 1454.14 Q1561.42 1449.53 1567.23 1449.53 Z" fill="#000000" fill-rule="evenodd" fill-opacity="1" /><path clip-path="url(#clip230)" d="M1587.39 1478.84 L1592.28 1478.84 L1592.28 1484.72 L1587.39 1484.72 L1587.39 1478.84 Z" fill="#000000" fill-rule="evenodd" fill-opacity="1" /><path clip-path="url(#clip230)" d="M1602.51 1450.16 L1620.87 1450.16 L1620.87 1454.1 L1606.79 1454.1 L1606.79 1462.57 Q1607.81 1462.22 1608.83 1462.06 Q1609.85 1461.87 1610.87 1461.87 Q1616.65 1461.87 1620.03 1465.04 Q1623.41 1468.22 1623.41 1473.63 Q1623.41 1479.21 1619.94 1482.31 Q1616.47 1485.39 1610.15 1485.39 Q1607.97 1485.39 1605.7 1485.02 Q1603.46 1484.65 1601.05 1483.91 L1601.05 1479.21 Q1603.13 1480.34 1605.36 1480.9 Q1607.58 1481.46 1610.06 1481.46 Q1614.06 1481.46 1616.4 1479.35 Q1618.74 1477.24 1618.74 1473.63 Q1618.74 1470.02 1616.4 1467.91 Q1614.06 1465.81 1610.06 1465.81 Q1608.18 1465.81 1606.31 1466.22 Q1604.45 1466.64 1602.51 1467.52 L1602.51 1450.16 Z" fill="#000000" fill-rule="evenodd" fill-opacity="1" /><path clip-path="url(#clip230)" d="M1690.63 1480.78 L1698.27 1480.78 L1698.27 1454.42 L1689.96 1456.09 L1689.96 1451.83 L1698.22 1450.16 L1702.9 1450.16 L1702.9 1480.78 L1710.54 1480.78 L1710.54 1484.72 L1690.63 1484.72 L1690.63 1480.78 Z" fill="#000000" fill-rule="evenodd" fill-opacity="1" /><path clip-path="url(#clip230)" d="M1719.98 1478.84 L1724.87 1478.84 L1724.87 1484.72 L1719.98 1484.72 L1719.98 1478.84 Z" fill="#000000" fill-rule="evenodd" fill-opacity="1" /><path clip-path="url(#clip230)" d="M1745.05 1453.24 Q1741.44 1453.24 1739.61 1456.8 Q1737.81 1460.35 1737.81 1467.47 Q1737.81 1474.58 1739.61 1478.15 Q1741.44 1481.69 1745.05 1481.69 Q1748.69 1481.69 1750.49 1478.15 Q1752.32 1474.58 1752.32 1467.47 Q1752.32 1460.35 1750.49 1456.8 Q1748.69 1453.24 1745.05 1453.24 M1745.05 1449.53 Q1750.86 1449.53 1753.92 1454.14 Q1757 1458.72 1757 1467.47 Q1757 1476.2 1753.92 1480.81 Q1750.86 1485.39 1745.05 1485.39 Q1739.24 1485.39 1736.16 1480.81 Q1733.11 1476.2 1733.11 1467.47 Q1733.11 1458.72 1736.16 1454.14 Q1739.24 1449.53 1745.05 1449.53 Z" fill="#000000" fill-rule="evenodd" fill-opacity="1" /><path clip-path="url(#clip230)" d="M1825.26 1480.78 L1832.9 1480.78 L1832.9 1454.42 L1824.59 1456.09 L1824.59 1451.83 L1832.85 1450.16 L1837.53 1450.16 L1837.53 1480.78 L1845.17 1480.78 L1845.17 1484.72 L1825.26 1484.72 L1825.26 1480.78 Z" fill="#000000" fill-rule="evenodd" fill-opacity="1" /><path clip-path="url(#clip230)" d="M1854.61 1478.84 L1859.49 1478.84 L1859.49 1484.72 L1854.61 1484.72 L1854.61 1478.84 Z" fill="#000000" fill-rule="evenodd" fill-opacity="1" /><path clip-path="url(#clip230)" d="M1869.73 1450.16 L1888.08 1450.16 L1888.08 1454.1 L1874.01 1454.1 L1874.01 1462.57 Q1875.03 1462.22 1876.04 1462.06 Q1877.06 1461.87 1878.08 1461.87 Q1883.87 1461.87 1887.25 1465.04 Q1890.63 1468.22 1890.63 1473.63 Q1890.63 1479.21 1887.16 1482.31 Q1883.68 1485.39 1877.36 1485.39 Q1875.19 1485.39 1872.92 1485.02 Q1870.67 1484.65 1868.27 1483.91 L1868.27 1479.21 Q1870.35 1480.34 1872.57 1480.9 Q1874.79 1481.46 1877.27 1481.46 Q1881.28 1481.46 1883.61 1479.35 Q1885.95 1477.24 1885.95 1473.63 Q1885.95 1470.02 1883.61 1467.91 Q1881.28 1465.81 1877.27 1465.81 Q1875.4 1465.81 1873.52 1466.22 Q1871.67 1466.64 1869.73 1467.52 L1869.73 1450.16 Z" fill="#000000" fill-rule="evenodd" fill-opacity="1" /><path clip-path="url(#clip230)" d="M1962.97 1480.78 L1979.29 1480.78 L1979.29 1484.72 L1957.35 1484.72 L1957.35 1480.78 Q1960.01 1478.03 1964.6 1473.4 Q1969.2 1468.75 1970.38 1467.41 Q1972.63 1464.88 1973.51 1463.15 Q1974.41 1461.39 1974.41 1459.7 Q1974.41 1456.94 1972.47 1455.21 Q1970.54 1453.47 1967.44 1453.47 Q1965.24 1453.47 1962.79 1454.23 Q1960.36 1455 1957.58 1456.55 L1957.58 1451.83 Q1960.41 1450.69 1962.86 1450.11 Q1965.31 1449.53 1967.35 1449.53 Q1972.72 1449.53 1975.91 1452.22 Q1979.11 1454.91 1979.11 1459.4 Q1979.11 1461.53 1978.3 1463.45 Q1977.51 1465.34 1975.41 1467.94 Q1974.83 1468.61 1971.72 1471.83 Q1968.62 1475.02 1962.97 1480.78 Z" fill="#000000" fill-rule="evenodd" fill-opacity="1" /><path clip-path="url(#clip230)" d="M1989.11 1478.84 L1993.99 1478.84 L1993.99 1484.72 L1989.11 1484.72 L1989.11 1478.84 Z" fill="#000000" fill-rule="evenodd" fill-opacity="1" /><path clip-path="url(#clip230)" d="M2014.18 1453.24 Q2010.57 1453.24 2008.74 1456.8 Q2006.93 1460.35 2006.93 1467.47 Q2006.93 1474.58 2008.74 1478.15 Q2010.57 1481.69 2014.18 1481.69 Q2017.81 1481.69 2019.62 1478.15 Q2021.45 1474.58 2021.45 1467.47 Q2021.45 1460.35 2019.62 1456.8 Q2017.81 1453.24 2014.18 1453.24 M2014.18 1449.53 Q2019.99 1449.53 2023.04 1454.14 Q2026.12 1458.72 2026.12 1467.47 Q2026.12 1476.2 2023.04 1480.81 Q2019.99 1485.39 2014.18 1485.39 Q2008.37 1485.39 2005.29 1480.81 Q2002.23 1476.2 2002.23 1467.47 Q2002.23 1458.72 2005.29 1454.14 Q2008.37 1449.53 2014.18 1449.53 Z" fill="#000000" fill-rule="evenodd" fill-opacity="1" /><path clip-path="url(#clip230)" d="M2097.6 1480.78 L2113.92 1480.78 L2113.92 1484.72 L2091.98 1484.72 L2091.98 1480.78 Q2094.64 1478.03 2099.22 1473.4 Q2103.83 1468.75 2105.01 1467.41 Q2107.25 1464.88 2108.13 1463.15 Q2109.04 1461.39 2109.04 1459.7 Q2109.04 1456.94 2107.09 1455.21 Q2105.17 1453.47 2102.07 1453.47 Q2099.87 1453.47 2097.42 1454.23 Q2094.99 1455 2092.21 1456.55 L2092.21 1451.83 Q2095.03 1450.69 2097.49 1450.11 Q2099.94 1449.53 2101.98 1449.53 Q2107.35 1449.53 2110.54 1452.22 Q2113.74 1454.91 2113.74 1459.4 Q2113.74 1461.53 2112.93 1463.45 Q2112.14 1465.34 2110.03 1467.94 Q2109.45 1468.61 2106.35 1471.83 Q2103.25 1475.02 2097.6 1480.78 Z" fill="#000000" fill-rule="evenodd" fill-opacity="1" /><path clip-path="url(#clip230)" d="M2123.74 1478.84 L2128.62 1478.84 L2128.62 1484.72 L2123.74 1484.72 L2123.74 1478.84 Z" fill="#000000" fill-rule="evenodd" fill-opacity="1" /><path clip-path="url(#clip230)" d="M2138.85 1450.16 L2157.21 1450.16 L2157.21 1454.1 L2143.13 1454.1 L2143.13 1462.57 Q2144.15 1462.22 2145.17 1462.06 Q2146.19 1461.87 2147.21 1461.87 Q2152.99 1461.87 2156.37 1465.04 Q2159.75 1468.22 2159.75 1473.63 Q2159.75 1479.21 2156.28 1482.31 Q2152.81 1485.39 2146.49 1485.39 Q2144.31 1485.39 2142.05 1485.02 Q2139.8 1484.65 2137.39 1483.91 L2137.39 1479.21 Q2139.48 1480.34 2141.7 1480.9 Q2143.92 1481.46 2146.4 1481.46 Q2150.4 1481.46 2152.74 1479.35 Q2155.08 1477.24 2155.08 1473.63 Q2155.08 1470.02 2152.74 1467.91 Q2150.4 1465.81 2146.4 1465.81 Q2144.52 1465.81 2142.65 1466.22 Q2140.8 1466.64 2138.85 1467.52 L2138.85 1450.16 Z" fill="#000000" fill-rule="evenodd" fill-opacity="1" /><polyline clip-path="url(#clip233)" style="stroke:#000000; stroke-linecap:round; stroke-linejoin:round; stroke-width:2; stroke-opacity:0.1; fill:none" points="
  1387.37,1384.15 2256.76,1384.15 
  "/>
<polyline clip-path="url(#clip233)" style="stroke:#000000; stroke-linecap:round; stroke-linejoin:round; stroke-width:2; stroke-opacity:0.1; fill:none" points="
  1387.37,735.166 2256.76,735.166 
  "/>
<polyline clip-path="url(#clip233)" style="stroke:#000000; stroke-linecap:round; stroke-linejoin:round; stroke-width:2; stroke-opacity:0.1; fill:none" points="
  1387.37,86.1831 2256.76,86.1831 
  "/>
<polyline clip-path="url(#clip230)" style="stroke:#000000; stroke-linecap:round; stroke-linejoin:round; stroke-width:4; stroke-opacity:1; fill:none" points="
  1387.37,1423.09 1387.37,47.2441 
  "/>
<polyline clip-path="url(#clip230)" style="stroke:#000000; stroke-linecap:round; stroke-linejoin:round; stroke-width:4; stroke-opacity:1; fill:none" points="
  1387.37,1384.15 1406.27,1384.15 
  "/>
<polyline clip-path="url(#clip230)" style="stroke:#000000; stroke-linecap:round; stroke-linejoin:round; stroke-width:4; stroke-opacity:1; fill:none" points="
  1387.37,735.166 1406.27,735.166 
  "/>
<polyline clip-path="url(#clip230)" style="stroke:#000000; stroke-linecap:round; stroke-linejoin:round; stroke-width:4; stroke-opacity:1; fill:none" points="
  1387.37,86.1831 1406.27,86.1831 
  "/>
<path clip-path="url(#clip230)" d="M1222.9 1376.27 L1222.9 1380.29 Q1221.1 1379.37 1219.15 1378.91 Q1217.21 1378.44 1215.13 1378.44 Q1211.96 1378.44 1210.36 1379.42 Q1208.78 1380.39 1208.78 1382.33 Q1208.78 1383.81 1209.92 1384.67 Q1211.05 1385.5 1214.48 1386.27 L1215.94 1386.59 Q1220.47 1387.56 1222.37 1389.35 Q1224.29 1391.1 1224.29 1394.28 Q1224.29 1397.89 1221.42 1399.99 Q1218.58 1402.1 1213.58 1402.1 Q1211.49 1402.1 1209.22 1401.68 Q1206.98 1401.29 1204.48 1400.48 L1204.48 1396.08 Q1206.84 1397.31 1209.13 1397.93 Q1211.42 1398.54 1213.67 1398.54 Q1216.68 1398.54 1218.3 1397.52 Q1219.92 1396.48 1219.92 1394.6 Q1219.92 1392.86 1218.74 1391.94 Q1217.58 1391.01 1213.62 1390.16 L1212.14 1389.81 Q1208.18 1388.98 1206.42 1387.26 Q1204.66 1385.53 1204.66 1382.52 Q1204.66 1378.86 1207.26 1376.87 Q1209.85 1374.88 1214.62 1374.88 Q1216.98 1374.88 1219.06 1375.23 Q1221.15 1375.57 1222.9 1376.27 Z" fill="#000000" fill-rule="evenodd" fill-opacity="1" /><path clip-path="url(#clip230)" d="M1253.25 1387.4 L1253.25 1389.48 L1233.67 1389.48 Q1233.95 1393.88 1236.31 1396.2 Q1238.69 1398.49 1242.93 1398.49 Q1245.38 1398.49 1247.67 1397.89 Q1249.99 1397.29 1252.26 1396.08 L1252.26 1400.11 Q1249.96 1401.08 1247.56 1401.59 Q1245.15 1402.1 1242.67 1402.1 Q1236.47 1402.1 1232.84 1398.49 Q1229.22 1394.88 1229.22 1388.72 Q1229.22 1382.35 1232.65 1378.63 Q1236.1 1374.88 1241.93 1374.88 Q1247.16 1374.88 1250.2 1378.26 Q1253.25 1381.61 1253.25 1387.4 M1248.99 1386.15 Q1248.95 1382.66 1247.03 1380.57 Q1245.13 1378.49 1241.98 1378.49 Q1238.41 1378.49 1236.26 1380.5 Q1234.13 1382.52 1233.81 1386.17 L1248.99 1386.15 Z" fill="#000000" fill-rule="evenodd" fill-opacity="1" /><path clip-path="url(#clip230)" d="M1264.46 1368.14 L1264.46 1375.5 L1273.23 1375.5 L1273.23 1378.81 L1264.46 1378.81 L1264.46 1392.89 Q1264.46 1396.06 1265.31 1396.96 Q1266.19 1397.86 1268.85 1397.86 L1273.23 1397.86 L1273.23 1401.43 L1268.85 1401.43 Q1263.92 1401.43 1262.05 1399.6 Q1260.17 1397.75 1260.17 1392.89 L1260.17 1378.81 L1257.05 1378.81 L1257.05 1375.5 L1260.17 1375.5 L1260.17 1368.14 L1264.46 1368.14 Z" fill="#000000" fill-rule="evenodd" fill-opacity="1" /><path clip-path="url(#clip230)" d="M1288.88 1378.49 Q1285.45 1378.49 1283.46 1381.17 Q1281.47 1383.84 1281.47 1388.49 Q1281.47 1393.14 1283.44 1395.83 Q1285.43 1398.49 1288.88 1398.49 Q1292.28 1398.49 1294.27 1395.8 Q1296.26 1393.12 1296.26 1388.49 Q1296.26 1383.88 1294.27 1381.2 Q1292.28 1378.49 1288.88 1378.49 M1288.88 1374.88 Q1294.43 1374.88 1297.6 1378.49 Q1300.77 1382.1 1300.77 1388.49 Q1300.77 1394.85 1297.6 1398.49 Q1294.43 1402.1 1288.88 1402.1 Q1283.3 1402.1 1280.13 1398.49 Q1276.98 1394.85 1276.98 1388.49 Q1276.98 1382.1 1280.13 1378.49 Q1283.3 1374.88 1288.88 1374.88 Z" fill="#000000" fill-rule="evenodd" fill-opacity="1" /><path clip-path="url(#clip230)" d="M1324.36 1376.27 L1324.36 1380.29 Q1322.56 1379.37 1320.61 1378.91 Q1318.67 1378.44 1316.58 1378.44 Q1313.41 1378.44 1311.82 1379.42 Q1310.24 1380.39 1310.24 1382.33 Q1310.24 1383.81 1311.38 1384.67 Q1312.51 1385.5 1315.94 1386.27 L1317.4 1386.59 Q1321.93 1387.56 1323.83 1389.35 Q1325.75 1391.1 1325.75 1394.28 Q1325.75 1397.89 1322.88 1399.99 Q1320.03 1402.1 1315.03 1402.1 Q1312.95 1402.1 1310.68 1401.68 Q1308.44 1401.29 1305.94 1400.48 L1305.94 1396.08 Q1308.3 1397.31 1310.59 1397.93 Q1312.88 1398.54 1315.13 1398.54 Q1318.14 1398.54 1319.76 1397.52 Q1321.38 1396.48 1321.38 1394.6 Q1321.38 1392.86 1320.2 1391.94 Q1319.04 1391.01 1315.08 1390.16 L1313.6 1389.81 Q1309.64 1388.98 1307.88 1387.26 Q1306.12 1385.53 1306.12 1382.52 Q1306.12 1378.86 1308.71 1376.87 Q1311.31 1374.88 1316.08 1374.88 Q1318.44 1374.88 1320.52 1375.23 Q1322.6 1375.57 1324.36 1376.27 Z" fill="#000000" fill-rule="evenodd" fill-opacity="1" /><path clip-path="url(#clip230)" d="M1344.32 1388.4 Q1339.15 1388.4 1337.16 1389.58 Q1335.17 1390.76 1335.17 1393.6 Q1335.17 1395.87 1336.65 1397.22 Q1338.16 1398.54 1340.73 1398.54 Q1344.27 1398.54 1346.4 1396.04 Q1348.55 1393.51 1348.55 1389.35 L1348.55 1388.4 L1344.32 1388.4 M1352.81 1386.64 L1352.81 1401.43 L1348.55 1401.43 L1348.55 1397.49 Q1347.09 1399.85 1344.92 1400.99 Q1342.74 1402.1 1339.59 1402.1 Q1335.61 1402.1 1333.25 1399.88 Q1330.91 1397.63 1330.91 1393.88 Q1330.91 1389.51 1333.83 1387.29 Q1336.77 1385.06 1342.58 1385.06 L1348.55 1385.06 L1348.55 1384.65 Q1348.55 1381.71 1346.61 1380.11 Q1344.69 1378.49 1341.19 1378.49 Q1338.97 1378.49 1336.86 1379.02 Q1334.76 1379.55 1332.81 1380.62 L1332.81 1376.68 Q1335.15 1375.78 1337.35 1375.34 Q1339.55 1374.88 1341.63 1374.88 Q1347.26 1374.88 1350.03 1377.79 Q1352.81 1380.71 1352.81 1386.64 Z" fill="#000000" fill-rule="evenodd" fill-opacity="1" /><path clip-path="url(#clip230)" d="M1122.91 726.52 L1127.42 726.52 L1135.52 748.279 L1143.62 726.52 L1148.14 726.52 L1138.41 752.446 L1132.63 752.446 L1122.91 726.52 Z" fill="#000000" fill-rule="evenodd" fill-opacity="1" /><path clip-path="url(#clip230)" d="M1176.19 738.418 L1176.19 740.502 L1156.61 740.502 Q1156.89 744.9 1159.25 747.215 Q1161.63 749.506 1165.87 749.506 Q1168.32 749.506 1170.61 748.904 Q1172.93 748.302 1175.2 747.099 L1175.2 751.127 Q1172.91 752.099 1170.5 752.608 Q1168.09 753.117 1165.61 753.117 Q1159.41 753.117 1155.78 749.506 Q1152.16 745.895 1152.16 739.738 Q1152.16 733.372 1155.59 729.645 Q1159.04 725.895 1164.87 725.895 Q1170.1 725.895 1173.14 729.275 Q1176.19 732.631 1176.19 738.418 M1171.93 737.168 Q1171.89 733.673 1169.97 731.59 Q1168.07 729.506 1164.92 729.506 Q1161.35 729.506 1159.2 731.52 Q1157.07 733.534 1156.75 737.191 L1171.93 737.168 Z" fill="#000000" fill-rule="evenodd" fill-opacity="1" /><path clip-path="url(#clip230)" d="M1198.21 730.502 Q1197.49 730.085 1196.63 729.9 Q1195.8 729.691 1194.78 729.691 Q1191.17 729.691 1189.22 732.053 Q1187.3 734.391 1187.3 738.789 L1187.3 752.446 L1183.02 752.446 L1183.02 726.52 L1187.3 726.52 L1187.3 730.548 Q1188.65 728.187 1190.8 727.053 Q1192.95 725.895 1196.03 725.895 Q1196.47 725.895 1197 725.965 Q1197.53 726.011 1198.18 726.127 L1198.21 730.502 Z" fill="#000000" fill-rule="evenodd" fill-opacity="1" /><path clip-path="url(#clip230)" d="M1219.2 727.284 L1219.2 731.312 Q1217.4 730.386 1215.45 729.923 Q1213.51 729.46 1211.42 729.46 Q1208.25 729.46 1206.65 730.432 Q1205.08 731.404 1205.08 733.349 Q1205.08 734.83 1206.22 735.687 Q1207.35 736.52 1210.78 737.284 L1212.23 737.608 Q1216.77 738.58 1218.67 740.363 Q1220.59 742.122 1220.59 745.293 Q1220.59 748.904 1217.72 751.011 Q1214.87 753.117 1209.87 753.117 Q1207.79 753.117 1205.52 752.701 Q1203.28 752.307 1200.78 751.497 L1200.78 747.099 Q1203.14 748.326 1205.43 748.951 Q1207.72 749.552 1209.97 749.552 Q1212.97 749.552 1214.59 748.534 Q1216.22 747.492 1216.22 745.617 Q1216.22 743.881 1215.03 742.955 Q1213.88 742.029 1209.92 741.173 L1208.44 740.826 Q1204.48 739.992 1202.72 738.279 Q1200.96 736.543 1200.96 733.534 Q1200.96 729.877 1203.55 727.886 Q1206.15 725.895 1210.91 725.895 Q1213.28 725.895 1215.36 726.242 Q1217.44 726.59 1219.2 727.284 Z" fill="#000000" fill-rule="evenodd" fill-opacity="1" /><path clip-path="url(#clip230)" d="M1227.37 726.52 L1231.63 726.52 L1231.63 752.446 L1227.37 752.446 L1227.37 726.52 M1227.37 716.428 L1231.63 716.428 L1231.63 721.821 L1227.37 721.821 L1227.37 716.428 Z" fill="#000000" fill-rule="evenodd" fill-opacity="1" /><path clip-path="url(#clip230)" d="M1259.2 727.516 L1259.2 731.497 Q1257.4 730.502 1255.57 730.016 Q1253.76 729.506 1251.91 729.506 Q1247.77 729.506 1245.47 732.145 Q1243.18 734.761 1243.18 739.506 Q1243.18 744.252 1245.47 746.89 Q1247.77 749.506 1251.91 749.506 Q1253.76 749.506 1255.57 749.02 Q1257.4 748.511 1259.2 747.515 L1259.2 751.451 Q1257.42 752.284 1255.5 752.701 Q1253.6 753.117 1251.45 753.117 Q1245.59 753.117 1242.14 749.437 Q1238.69 745.756 1238.69 739.506 Q1238.69 733.164 1242.16 729.529 Q1245.66 725.895 1251.72 725.895 Q1253.69 725.895 1255.57 726.312 Q1257.44 726.705 1259.2 727.516 Z" fill="#000000" fill-rule="evenodd" fill-opacity="1" /><path clip-path="url(#clip230)" d="M1276.65 729.506 Q1273.23 729.506 1271.24 732.191 Q1269.25 734.853 1269.25 739.506 Q1269.25 744.159 1271.21 746.844 Q1273.21 749.506 1276.65 749.506 Q1280.06 749.506 1282.05 746.821 Q1284.04 744.136 1284.04 739.506 Q1284.04 734.9 1282.05 732.215 Q1280.06 729.506 1276.65 729.506 M1276.65 725.895 Q1282.21 725.895 1285.38 729.506 Q1288.55 733.117 1288.55 739.506 Q1288.55 745.872 1285.38 749.506 Q1282.21 753.117 1276.65 753.117 Q1271.08 753.117 1267.9 749.506 Q1264.76 745.872 1264.76 739.506 Q1264.76 733.117 1267.9 729.506 Q1271.08 725.895 1276.65 725.895 Z" fill="#000000" fill-rule="evenodd" fill-opacity="1" /><path clip-path="url(#clip230)" d="M1295.61 716.428 L1299.87 716.428 L1299.87 752.446 L1295.61 752.446 L1295.61 716.428 Z" fill="#000000" fill-rule="evenodd" fill-opacity="1" /><path clip-path="url(#clip230)" d="M1318.83 729.506 Q1315.4 729.506 1313.41 732.191 Q1311.42 734.853 1311.42 739.506 Q1311.42 744.159 1313.39 746.844 Q1315.38 749.506 1318.83 749.506 Q1322.23 749.506 1324.22 746.821 Q1326.21 744.136 1326.21 739.506 Q1326.21 734.9 1324.22 732.215 Q1322.23 729.506 1318.83 729.506 M1318.83 725.895 Q1324.39 725.895 1327.56 729.506 Q1330.73 733.117 1330.73 739.506 Q1330.73 745.872 1327.56 749.506 Q1324.39 753.117 1318.83 753.117 Q1313.25 753.117 1310.08 749.506 Q1306.93 745.872 1306.93 739.506 Q1306.93 733.117 1310.08 729.506 Q1313.25 725.895 1318.83 725.895 Z" fill="#000000" fill-rule="evenodd" fill-opacity="1" /><path clip-path="url(#clip230)" d="M1352.81 730.502 Q1352.09 730.085 1351.24 729.9 Q1350.4 729.691 1349.39 729.691 Q1345.77 729.691 1343.83 732.053 Q1341.91 734.391 1341.91 738.789 L1341.91 752.446 L1337.63 752.446 L1337.63 726.52 L1341.91 726.52 L1341.91 730.548 Q1343.25 728.187 1345.4 727.053 Q1347.56 725.895 1350.64 725.895 Q1351.08 725.895 1351.61 725.965 Q1352.14 726.011 1352.79 726.127 L1352.81 730.502 Z" fill="#000000" fill-rule="evenodd" fill-opacity="1" /><path clip-path="url(#clip230)" d="M1157.05 77.5373 L1161.56 77.5373 L1169.66 99.2964 L1177.77 77.5373 L1182.28 77.5373 L1172.56 103.463 L1166.77 103.463 L1157.05 77.5373 Z" fill="#000000" fill-rule="evenodd" fill-opacity="1" /><path clip-path="url(#clip230)" d="M1188.16 77.5373 L1192.42 77.5373 L1192.42 103.463 L1188.16 103.463 L1188.16 77.5373 M1188.16 67.4447 L1192.42 67.4447 L1192.42 72.8382 L1188.16 72.8382 L1188.16 67.4447 Z" fill="#000000" fill-rule="evenodd" fill-opacity="1" /><path clip-path="url(#clip230)" d="M1216.35 81.5187 Q1215.64 81.1021 1214.78 80.9169 Q1213.95 80.7086 1212.93 80.7086 Q1209.32 80.7086 1207.37 83.0697 Q1205.45 85.4076 1205.45 89.8057 L1205.45 103.463 L1201.17 103.463 L1201.17 77.5373 L1205.45 77.5373 L1205.45 81.565 Q1206.79 79.2039 1208.95 78.0697 Q1211.1 76.9123 1214.18 76.9123 Q1214.62 76.9123 1215.15 76.9817 Q1215.68 77.028 1216.33 77.1438 L1216.35 81.5187 Z" fill="#000000" fill-rule="evenodd" fill-opacity="1" /><path clip-path="url(#clip230)" d="M1237.05 90.1993 Q1237.05 85.5696 1235.13 83.0234 Q1233.23 80.4771 1229.78 80.4771 Q1226.35 80.4771 1224.43 83.0234 Q1222.53 85.5696 1222.53 90.1993 Q1222.53 94.8057 1224.43 97.352 Q1226.35 99.8983 1229.78 99.8983 Q1233.23 99.8983 1235.13 97.352 Q1237.05 94.8057 1237.05 90.1993 M1241.31 100.245 Q1241.31 106.866 1238.37 110.083 Q1235.43 113.324 1229.36 113.324 Q1227.12 113.324 1225.13 112.977 Q1223.14 112.653 1221.26 111.958 L1221.26 107.815 Q1223.14 108.833 1224.97 109.32 Q1226.79 109.806 1228.69 109.806 Q1232.88 109.806 1234.97 107.607 Q1237.05 105.431 1237.05 101.009 L1237.05 98.9029 Q1235.73 101.195 1233.67 102.329 Q1231.61 103.463 1228.74 103.463 Q1223.97 103.463 1221.05 99.8288 Q1218.14 96.1946 1218.14 90.1993 Q1218.14 84.1808 1221.05 80.5465 Q1223.97 76.9123 1228.74 76.9123 Q1231.61 76.9123 1233.67 78.0465 Q1235.73 79.1808 1237.05 81.4724 L1237.05 77.5373 L1241.31 77.5373 L1241.31 100.245 Z" fill="#000000" fill-rule="evenodd" fill-opacity="1" /><path clip-path="url(#clip230)" d="M1250.08 77.5373 L1254.34 77.5373 L1254.34 103.463 L1250.08 103.463 L1250.08 77.5373 M1250.08 67.4447 L1254.34 67.4447 L1254.34 72.8382 L1250.08 72.8382 L1250.08 67.4447 Z" fill="#000000" fill-rule="evenodd" fill-opacity="1" /><path clip-path="url(#clip230)" d="M1284.8 87.815 L1284.8 103.463 L1280.54 103.463 L1280.54 87.9539 Q1280.54 84.2734 1279.11 82.4447 Q1277.67 80.616 1274.8 80.616 Q1271.35 80.616 1269.36 82.815 Q1267.37 85.0141 1267.37 88.8104 L1267.37 103.463 L1263.09 103.463 L1263.09 77.5373 L1267.37 77.5373 L1267.37 81.565 Q1268.9 79.2271 1270.96 78.0697 Q1273.04 76.9123 1275.75 76.9123 Q1280.22 76.9123 1282.51 79.69 Q1284.8 82.4447 1284.8 87.815 Z" fill="#000000" fill-rule="evenodd" fill-opacity="1" /><path clip-path="url(#clip230)" d="M1293.3 77.5373 L1297.56 77.5373 L1297.56 103.463 L1293.3 103.463 L1293.3 77.5373 M1293.3 67.4447 L1297.56 67.4447 L1297.56 72.8382 L1293.3 72.8382 L1293.3 67.4447 Z" fill="#000000" fill-rule="evenodd" fill-opacity="1" /><path clip-path="url(#clip230)" d="M1325.13 78.5326 L1325.13 82.5141 Q1323.32 81.5187 1321.49 81.0326 Q1319.69 80.5234 1317.83 80.5234 Q1313.69 80.5234 1311.4 83.1623 Q1309.11 85.778 1309.11 90.5233 Q1309.11 95.2687 1311.4 97.9075 Q1313.69 100.523 1317.83 100.523 Q1319.69 100.523 1321.49 100.037 Q1323.32 99.5279 1325.13 98.5325 L1325.13 102.468 Q1323.34 103.301 1321.42 103.718 Q1319.52 104.134 1317.37 104.134 Q1311.52 104.134 1308.07 100.454 Q1304.62 96.7733 1304.62 90.5233 Q1304.62 84.1808 1308.09 80.5465 Q1311.58 76.9123 1317.65 76.9123 Q1319.62 76.9123 1321.49 77.329 Q1323.37 77.7225 1325.13 78.5326 Z" fill="#000000" fill-rule="evenodd" fill-opacity="1" /><path clip-path="url(#clip230)" d="M1344.32 90.4307 Q1339.15 90.4307 1337.16 91.6113 Q1335.17 92.7918 1335.17 95.639 Q1335.17 97.9075 1336.65 99.2501 Q1338.16 100.57 1340.73 100.57 Q1344.27 100.57 1346.4 98.0696 Q1348.55 95.5464 1348.55 91.3798 L1348.55 90.4307 L1344.32 90.4307 M1352.81 88.6715 L1352.81 103.463 L1348.55 103.463 L1348.55 99.5279 Q1347.09 101.889 1344.92 103.023 Q1342.74 104.134 1339.59 104.134 Q1335.61 104.134 1333.25 101.912 Q1330.91 99.6668 1330.91 95.9168 Q1330.91 91.5418 1333.83 89.3196 Q1336.77 87.0974 1342.58 87.0974 L1348.55 87.0974 L1348.55 86.6808 Q1348.55 83.741 1346.61 82.1437 Q1344.69 80.5234 1341.19 80.5234 Q1338.97 80.5234 1336.86 81.0558 Q1334.76 81.5882 1332.81 82.653 L1332.81 78.7178 Q1335.15 77.8151 1337.35 77.3752 Q1339.55 76.9123 1341.63 76.9123 Q1347.26 76.9123 1350.03 79.8289 Q1352.81 82.7456 1352.81 88.6715 Z" fill="#000000" fill-rule="evenodd" fill-opacity="1" /><circle clip-path="url(#clip233)" cx="1480.12" cy="1384.15" r="14.4" fill="#009af9" fill-rule="evenodd" fill-opacity="1" stroke="#000000" stroke-opacity="1" stroke-width="3.072"/>
<circle clip-path="url(#clip233)" cx="1512.89" cy="1384.15" r="14.4" fill="#009af9" fill-rule="evenodd" fill-opacity="1" stroke="#000000" stroke-opacity="1" stroke-width="3.072"/>
<circle clip-path="url(#clip233)" cx="1443.88" cy="1384.15" r="14.4" fill="#009af9" fill-rule="evenodd" fill-opacity="1" stroke="#000000" stroke-opacity="1" stroke-width="3.072"/>
<circle clip-path="url(#clip233)" cx="1503.43" cy="1384.15" r="14.4" fill="#009af9" fill-rule="evenodd" fill-opacity="1" stroke="#000000" stroke-opacity="1" stroke-width="3.072"/>
<circle clip-path="url(#clip233)" cx="1498.01" cy="1384.15" r="14.4" fill="#009af9" fill-rule="evenodd" fill-opacity="1" stroke="#000000" stroke-opacity="1" stroke-width="3.072"/>
<circle clip-path="url(#clip233)" cx="1504.5" cy="1384.15" r="14.4" fill="#009af9" fill-rule="evenodd" fill-opacity="1" stroke="#000000" stroke-opacity="1" stroke-width="3.072"/>
<circle clip-path="url(#clip233)" cx="1422" cy="1384.15" r="14.4" fill="#009af9" fill-rule="evenodd" fill-opacity="1" stroke="#000000" stroke-opacity="1" stroke-width="3.072"/>
<circle clip-path="url(#clip233)" cx="1467.67" cy="1384.15" r="14.4" fill="#009af9" fill-rule="evenodd" fill-opacity="1" stroke="#000000" stroke-opacity="1" stroke-width="3.072"/>
<circle clip-path="url(#clip233)" cx="1597.45" cy="1384.15" r="14.4" fill="#009af9" fill-rule="evenodd" fill-opacity="1" stroke="#000000" stroke-opacity="1" stroke-width="3.072"/>
<circle clip-path="url(#clip233)" cx="1476.18" cy="1384.15" r="14.4" fill="#009af9" fill-rule="evenodd" fill-opacity="1" stroke="#000000" stroke-opacity="1" stroke-width="3.072"/>
<circle clip-path="url(#clip233)" cx="1474.26" cy="1384.15" r="14.4" fill="#009af9" fill-rule="evenodd" fill-opacity="1" stroke="#000000" stroke-opacity="1" stroke-width="3.072"/>
<circle clip-path="url(#clip233)" cx="1615.87" cy="1384.15" r="14.4" fill="#009af9" fill-rule="evenodd" fill-opacity="1" stroke="#000000" stroke-opacity="1" stroke-width="3.072"/>
<circle clip-path="url(#clip233)" cx="1534.04" cy="1384.15" r="14.4" fill="#009af9" fill-rule="evenodd" fill-opacity="1" stroke="#000000" stroke-opacity="1" stroke-width="3.072"/>
<circle clip-path="url(#clip233)" cx="1580.39" cy="1384.15" r="14.4" fill="#009af9" fill-rule="evenodd" fill-opacity="1" stroke="#000000" stroke-opacity="1" stroke-width="3.072"/>
<circle clip-path="url(#clip233)" cx="1561" cy="1384.15" r="14.4" fill="#009af9" fill-rule="evenodd" fill-opacity="1" stroke="#000000" stroke-opacity="1" stroke-width="3.072"/>
<circle clip-path="url(#clip233)" cx="1502.89" cy="1384.15" r="14.4" fill="#009af9" fill-rule="evenodd" fill-opacity="1" stroke="#000000" stroke-opacity="1" stroke-width="3.072"/>
<circle clip-path="url(#clip233)" cx="1558.22" cy="1384.15" r="14.4" fill="#009af9" fill-rule="evenodd" fill-opacity="1" stroke="#000000" stroke-opacity="1" stroke-width="3.072"/>
<circle clip-path="url(#clip233)" cx="1475.45" cy="1384.15" r="14.4" fill="#009af9" fill-rule="evenodd" fill-opacity="1" stroke="#000000" stroke-opacity="1" stroke-width="3.072"/>
<circle clip-path="url(#clip233)" cx="1500.26" cy="1384.15" r="14.4" fill="#009af9" fill-rule="evenodd" fill-opacity="1" stroke="#000000" stroke-opacity="1" stroke-width="3.072"/>
<circle clip-path="url(#clip233)" cx="1527.8" cy="1384.15" r="14.4" fill="#009af9" fill-rule="evenodd" fill-opacity="1" stroke="#000000" stroke-opacity="1" stroke-width="3.072"/>
<circle clip-path="url(#clip233)" cx="1436.85" cy="1384.15" r="14.4" fill="#009af9" fill-rule="evenodd" fill-opacity="1" stroke="#000000" stroke-opacity="1" stroke-width="3.072"/>
<circle clip-path="url(#clip233)" cx="1588.38" cy="1384.15" r="14.4" fill="#009af9" fill-rule="evenodd" fill-opacity="1" stroke="#000000" stroke-opacity="1" stroke-width="3.072"/>
<circle clip-path="url(#clip233)" cx="1495.81" cy="1384.15" r="14.4" fill="#009af9" fill-rule="evenodd" fill-opacity="1" stroke="#000000" stroke-opacity="1" stroke-width="3.072"/>
<circle clip-path="url(#clip233)" cx="1504.24" cy="1384.15" r="14.4" fill="#009af9" fill-rule="evenodd" fill-opacity="1" stroke="#000000" stroke-opacity="1" stroke-width="3.072"/>
<circle clip-path="url(#clip233)" cx="1491.99" cy="1384.15" r="14.4" fill="#009af9" fill-rule="evenodd" fill-opacity="1" stroke="#000000" stroke-opacity="1" stroke-width="3.072"/>
<circle clip-path="url(#clip233)" cx="1600.88" cy="1384.15" r="14.4" fill="#009af9" fill-rule="evenodd" fill-opacity="1" stroke="#000000" stroke-opacity="1" stroke-width="3.072"/>
<circle clip-path="url(#clip233)" cx="1415.42" cy="1384.15" r="14.4" fill="#009af9" fill-rule="evenodd" fill-opacity="1" stroke="#000000" stroke-opacity="1" stroke-width="3.072"/>
<circle clip-path="url(#clip233)" cx="1542.51" cy="1384.15" r="14.4" fill="#009af9" fill-rule="evenodd" fill-opacity="1" stroke="#000000" stroke-opacity="1" stroke-width="3.072"/>
<circle clip-path="url(#clip233)" cx="1563.55" cy="1384.15" r="14.4" fill="#009af9" fill-rule="evenodd" fill-opacity="1" stroke="#000000" stroke-opacity="1" stroke-width="3.072"/>
<circle clip-path="url(#clip233)" cx="1525.68" cy="1384.15" r="14.4" fill="#009af9" fill-rule="evenodd" fill-opacity="1" stroke="#000000" stroke-opacity="1" stroke-width="3.072"/>
<circle clip-path="url(#clip233)" cx="1472.16" cy="1384.15" r="14.4" fill="#009af9" fill-rule="evenodd" fill-opacity="1" stroke="#000000" stroke-opacity="1" stroke-width="3.072"/>
<circle clip-path="url(#clip233)" cx="1411.98" cy="1384.15" r="14.4" fill="#009af9" fill-rule="evenodd" fill-opacity="1" stroke="#000000" stroke-opacity="1" stroke-width="3.072"/>
<circle clip-path="url(#clip233)" cx="1522.15" cy="1384.15" r="14.4" fill="#009af9" fill-rule="evenodd" fill-opacity="1" stroke="#000000" stroke-opacity="1" stroke-width="3.072"/>
<circle clip-path="url(#clip233)" cx="1610.87" cy="1384.15" r="14.4" fill="#009af9" fill-rule="evenodd" fill-opacity="1" stroke="#000000" stroke-opacity="1" stroke-width="3.072"/>
<circle clip-path="url(#clip233)" cx="1623.51" cy="1384.15" r="14.4" fill="#009af9" fill-rule="evenodd" fill-opacity="1" stroke="#000000" stroke-opacity="1" stroke-width="3.072"/>
<circle clip-path="url(#clip233)" cx="1543.5" cy="1384.15" r="14.4" fill="#009af9" fill-rule="evenodd" fill-opacity="1" stroke="#000000" stroke-opacity="1" stroke-width="3.072"/>
<circle clip-path="url(#clip233)" cx="1456.71" cy="1384.15" r="14.4" fill="#009af9" fill-rule="evenodd" fill-opacity="1" stroke="#000000" stroke-opacity="1" stroke-width="3.072"/>
<circle clip-path="url(#clip233)" cx="1561.05" cy="1384.15" r="14.4" fill="#009af9" fill-rule="evenodd" fill-opacity="1" stroke="#000000" stroke-opacity="1" stroke-width="3.072"/>
<circle clip-path="url(#clip233)" cx="1539.24" cy="1384.15" r="14.4" fill="#009af9" fill-rule="evenodd" fill-opacity="1" stroke="#000000" stroke-opacity="1" stroke-width="3.072"/>
<circle clip-path="url(#clip233)" cx="1435.93" cy="1384.15" r="14.4" fill="#009af9" fill-rule="evenodd" fill-opacity="1" stroke="#000000" stroke-opacity="1" stroke-width="3.072"/>
<circle clip-path="url(#clip233)" cx="1459.62" cy="1384.15" r="14.4" fill="#009af9" fill-rule="evenodd" fill-opacity="1" stroke="#000000" stroke-opacity="1" stroke-width="3.072"/>
<circle clip-path="url(#clip233)" cx="1641.05" cy="1384.15" r="14.4" fill="#009af9" fill-rule="evenodd" fill-opacity="1" stroke="#000000" stroke-opacity="1" stroke-width="3.072"/>
<circle clip-path="url(#clip233)" cx="1666.92" cy="1384.15" r="14.4" fill="#009af9" fill-rule="evenodd" fill-opacity="1" stroke="#000000" stroke-opacity="1" stroke-width="3.072"/>
<circle clip-path="url(#clip233)" cx="1664.56" cy="1384.15" r="14.4" fill="#009af9" fill-rule="evenodd" fill-opacity="1" stroke="#000000" stroke-opacity="1" stroke-width="3.072"/>
<circle clip-path="url(#clip233)" cx="1635.75" cy="1384.15" r="14.4" fill="#009af9" fill-rule="evenodd" fill-opacity="1" stroke="#000000" stroke-opacity="1" stroke-width="3.072"/>
<circle clip-path="url(#clip233)" cx="1507.6" cy="1384.15" r="14.4" fill="#009af9" fill-rule="evenodd" fill-opacity="1" stroke="#000000" stroke-opacity="1" stroke-width="3.072"/>
<circle clip-path="url(#clip233)" cx="1665.39" cy="1384.15" r="14.4" fill="#009af9" fill-rule="evenodd" fill-opacity="1" stroke="#000000" stroke-opacity="1" stroke-width="3.072"/>
<circle clip-path="url(#clip233)" cx="1598.09" cy="1384.15" r="14.4" fill="#009af9" fill-rule="evenodd" fill-opacity="1" stroke="#000000" stroke-opacity="1" stroke-width="3.072"/>
<circle clip-path="url(#clip233)" cx="1526.97" cy="1384.15" r="14.4" fill="#009af9" fill-rule="evenodd" fill-opacity="1" stroke="#000000" stroke-opacity="1" stroke-width="3.072"/>
<circle clip-path="url(#clip233)" cx="1557.3" cy="1384.15" r="14.4" fill="#009af9" fill-rule="evenodd" fill-opacity="1" stroke="#000000" stroke-opacity="1" stroke-width="3.072"/>
<circle clip-path="url(#clip233)" cx="1804.29" cy="735.166" r="14.4" fill="#009af9" fill-rule="evenodd" fill-opacity="1" stroke="#000000" stroke-opacity="1" stroke-width="3.072"/>
<circle clip-path="url(#clip233)" cx="1636.49" cy="735.166" r="14.4" fill="#009af9" fill-rule="evenodd" fill-opacity="1" stroke="#000000" stroke-opacity="1" stroke-width="3.072"/>
<circle clip-path="url(#clip233)" cx="1808.61" cy="735.166" r="14.4" fill="#009af9" fill-rule="evenodd" fill-opacity="1" stroke="#000000" stroke-opacity="1" stroke-width="3.072"/>
<circle clip-path="url(#clip233)" cx="1728.74" cy="735.166" r="14.4" fill="#009af9" fill-rule="evenodd" fill-opacity="1" stroke="#000000" stroke-opacity="1" stroke-width="3.072"/>
<circle clip-path="url(#clip233)" cx="1630.26" cy="735.166" r="14.4" fill="#009af9" fill-rule="evenodd" fill-opacity="1" stroke="#000000" stroke-opacity="1" stroke-width="3.072"/>
<circle clip-path="url(#clip233)" cx="1783.71" cy="735.166" r="14.4" fill="#009af9" fill-rule="evenodd" fill-opacity="1" stroke="#000000" stroke-opacity="1" stroke-width="3.072"/>
<circle clip-path="url(#clip233)" cx="1763.78" cy="735.166" r="14.4" fill="#009af9" fill-rule="evenodd" fill-opacity="1" stroke="#000000" stroke-opacity="1" stroke-width="3.072"/>
<circle clip-path="url(#clip233)" cx="1743.81" cy="735.166" r="14.4" fill="#009af9" fill-rule="evenodd" fill-opacity="1" stroke="#000000" stroke-opacity="1" stroke-width="3.072"/>
<circle clip-path="url(#clip233)" cx="1821.55" cy="735.166" r="14.4" fill="#009af9" fill-rule="evenodd" fill-opacity="1" stroke="#000000" stroke-opacity="1" stroke-width="3.072"/>
<circle clip-path="url(#clip233)" cx="1739.97" cy="735.166" r="14.4" fill="#009af9" fill-rule="evenodd" fill-opacity="1" stroke="#000000" stroke-opacity="1" stroke-width="3.072"/>
<circle clip-path="url(#clip233)" cx="1840.78" cy="735.166" r="14.4" fill="#009af9" fill-rule="evenodd" fill-opacity="1" stroke="#000000" stroke-opacity="1" stroke-width="3.072"/>
<circle clip-path="url(#clip233)" cx="1859.44" cy="735.166" r="14.4" fill="#009af9" fill-rule="evenodd" fill-opacity="1" stroke="#000000" stroke-opacity="1" stroke-width="3.072"/>
<circle clip-path="url(#clip233)" cx="1793.1" cy="735.166" r="14.4" fill="#009af9" fill-rule="evenodd" fill-opacity="1" stroke="#000000" stroke-opacity="1" stroke-width="3.072"/>
<circle clip-path="url(#clip233)" cx="1822.4" cy="735.166" r="14.4" fill="#009af9" fill-rule="evenodd" fill-opacity="1" stroke="#000000" stroke-opacity="1" stroke-width="3.072"/>
<circle clip-path="url(#clip233)" cx="1716.04" cy="735.166" r="14.4" fill="#009af9" fill-rule="evenodd" fill-opacity="1" stroke="#000000" stroke-opacity="1" stroke-width="3.072"/>
<circle clip-path="url(#clip233)" cx="1699.6" cy="735.166" r="14.4" fill="#009af9" fill-rule="evenodd" fill-opacity="1" stroke="#000000" stroke-opacity="1" stroke-width="3.072"/>
<circle clip-path="url(#clip233)" cx="1796.1" cy="735.166" r="14.4" fill="#009af9" fill-rule="evenodd" fill-opacity="1" stroke="#000000" stroke-opacity="1" stroke-width="3.072"/>
<circle clip-path="url(#clip233)" cx="1737.85" cy="735.166" r="14.4" fill="#009af9" fill-rule="evenodd" fill-opacity="1" stroke="#000000" stroke-opacity="1" stroke-width="3.072"/>
<circle clip-path="url(#clip233)" cx="1714.88" cy="735.166" r="14.4" fill="#009af9" fill-rule="evenodd" fill-opacity="1" stroke="#000000" stroke-opacity="1" stroke-width="3.072"/>
<circle clip-path="url(#clip233)" cx="1773.86" cy="735.166" r="14.4" fill="#009af9" fill-rule="evenodd" fill-opacity="1" stroke="#000000" stroke-opacity="1" stroke-width="3.072"/>
<circle clip-path="url(#clip233)" cx="1809.71" cy="735.166" r="14.4" fill="#009af9" fill-rule="evenodd" fill-opacity="1" stroke="#000000" stroke-opacity="1" stroke-width="3.072"/>
<circle clip-path="url(#clip233)" cx="1882.36" cy="735.166" r="14.4" fill="#009af9" fill-rule="evenodd" fill-opacity="1" stroke="#000000" stroke-opacity="1" stroke-width="3.072"/>
<circle clip-path="url(#clip233)" cx="1900.97" cy="735.166" r="14.4" fill="#009af9" fill-rule="evenodd" fill-opacity="1" stroke="#000000" stroke-opacity="1" stroke-width="3.072"/>
<circle clip-path="url(#clip233)" cx="1839.71" cy="735.166" r="14.4" fill="#009af9" fill-rule="evenodd" fill-opacity="1" stroke="#000000" stroke-opacity="1" stroke-width="3.072"/>
<circle clip-path="url(#clip233)" cx="1831.75" cy="735.166" r="14.4" fill="#009af9" fill-rule="evenodd" fill-opacity="1" stroke="#000000" stroke-opacity="1" stroke-width="3.072"/>
<circle clip-path="url(#clip233)" cx="1878.06" cy="735.166" r="14.4" fill="#009af9" fill-rule="evenodd" fill-opacity="1" stroke="#000000" stroke-opacity="1" stroke-width="3.072"/>
<circle clip-path="url(#clip233)" cx="1882.08" cy="735.166" r="14.4" fill="#009af9" fill-rule="evenodd" fill-opacity="1" stroke="#000000" stroke-opacity="1" stroke-width="3.072"/>
<circle clip-path="url(#clip233)" cx="1900.84" cy="735.166" r="14.4" fill="#009af9" fill-rule="evenodd" fill-opacity="1" stroke="#000000" stroke-opacity="1" stroke-width="3.072"/>
<circle clip-path="url(#clip233)" cx="1750.01" cy="735.166" r="14.4" fill="#009af9" fill-rule="evenodd" fill-opacity="1" stroke="#000000" stroke-opacity="1" stroke-width="3.072"/>
<circle clip-path="url(#clip233)" cx="1866.7" cy="735.166" r="14.4" fill="#009af9" fill-rule="evenodd" fill-opacity="1" stroke="#000000" stroke-opacity="1" stroke-width="3.072"/>
<circle clip-path="url(#clip233)" cx="1768.66" cy="735.166" r="14.4" fill="#009af9" fill-rule="evenodd" fill-opacity="1" stroke="#000000" stroke-opacity="1" stroke-width="3.072"/>
<circle clip-path="url(#clip233)" cx="1796.38" cy="735.166" r="14.4" fill="#009af9" fill-rule="evenodd" fill-opacity="1" stroke="#000000" stroke-opacity="1" stroke-width="3.072"/>
<circle clip-path="url(#clip233)" cx="1816.48" cy="735.166" r="14.4" fill="#009af9" fill-rule="evenodd" fill-opacity="1" stroke="#000000" stroke-opacity="1" stroke-width="3.072"/>
<circle clip-path="url(#clip233)" cx="1931.99" cy="735.166" r="14.4" fill="#009af9" fill-rule="evenodd" fill-opacity="1" stroke="#000000" stroke-opacity="1" stroke-width="3.072"/>
<circle clip-path="url(#clip233)" cx="1900.54" cy="735.166" r="14.4" fill="#009af9" fill-rule="evenodd" fill-opacity="1" stroke="#000000" stroke-opacity="1" stroke-width="3.072"/>
<circle clip-path="url(#clip233)" cx="1826.22" cy="86.1831" r="14.4" fill="#009af9" fill-rule="evenodd" fill-opacity="1" stroke="#000000" stroke-opacity="1" stroke-width="3.072"/>
<circle clip-path="url(#clip233)" cx="1956.05" cy="735.166" r="14.4" fill="#009af9" fill-rule="evenodd" fill-opacity="1" stroke="#000000" stroke-opacity="1" stroke-width="3.072"/>
<circle clip-path="url(#clip233)" cx="1930.36" cy="735.166" r="14.4" fill="#009af9" fill-rule="evenodd" fill-opacity="1" stroke="#000000" stroke-opacity="1" stroke-width="3.072"/>
<circle clip-path="url(#clip233)" cx="1917.04" cy="735.166" r="14.4" fill="#009af9" fill-rule="evenodd" fill-opacity="1" stroke="#000000" stroke-opacity="1" stroke-width="3.072"/>
<circle clip-path="url(#clip233)" cx="1843.95" cy="735.166" r="14.4" fill="#009af9" fill-rule="evenodd" fill-opacity="1" stroke="#000000" stroke-opacity="1" stroke-width="3.072"/>
<circle clip-path="url(#clip233)" cx="1868.39" cy="735.166" r="14.4" fill="#009af9" fill-rule="evenodd" fill-opacity="1" stroke="#000000" stroke-opacity="1" stroke-width="3.072"/>
<circle clip-path="url(#clip233)" cx="1942.34" cy="735.166" r="14.4" fill="#009af9" fill-rule="evenodd" fill-opacity="1" stroke="#000000" stroke-opacity="1" stroke-width="3.072"/>
<circle clip-path="url(#clip233)" cx="1813.3" cy="735.166" r="14.4" fill="#009af9" fill-rule="evenodd" fill-opacity="1" stroke="#000000" stroke-opacity="1" stroke-width="3.072"/>
<circle clip-path="url(#clip233)" cx="1921.36" cy="735.166" r="14.4" fill="#009af9" fill-rule="evenodd" fill-opacity="1" stroke="#000000" stroke-opacity="1" stroke-width="3.072"/>
<circle clip-path="url(#clip233)" cx="1847.96" cy="735.166" r="14.4" fill="#009af9" fill-rule="evenodd" fill-opacity="1" stroke="#000000" stroke-opacity="1" stroke-width="3.072"/>
<circle clip-path="url(#clip233)" cx="1906.01" cy="735.166" r="14.4" fill="#009af9" fill-rule="evenodd" fill-opacity="1" stroke="#000000" stroke-opacity="1" stroke-width="3.072"/>
<circle clip-path="url(#clip233)" cx="1874.68" cy="86.1831" r="14.4" fill="#009af9" fill-rule="evenodd" fill-opacity="1" stroke="#000000" stroke-opacity="1" stroke-width="3.072"/>
<circle clip-path="url(#clip233)" cx="1853.15" cy="86.1831" r="14.4" fill="#009af9" fill-rule="evenodd" fill-opacity="1" stroke="#000000" stroke-opacity="1" stroke-width="3.072"/>
<circle clip-path="url(#clip233)" cx="1938.6" cy="735.166" r="14.4" fill="#009af9" fill-rule="evenodd" fill-opacity="1" stroke="#000000" stroke-opacity="1" stroke-width="3.072"/>
<circle clip-path="url(#clip233)" cx="1984.42" cy="735.166" r="14.4" fill="#009af9" fill-rule="evenodd" fill-opacity="1" stroke="#000000" stroke-opacity="1" stroke-width="3.072"/>
<circle clip-path="url(#clip233)" cx="1806.19" cy="735.166" r="14.4" fill="#009af9" fill-rule="evenodd" fill-opacity="1" stroke="#000000" stroke-opacity="1" stroke-width="3.072"/>
<circle clip-path="url(#clip233)" cx="1858.1" cy="86.1831" r="14.4" fill="#009af9" fill-rule="evenodd" fill-opacity="1" stroke="#000000" stroke-opacity="1" stroke-width="3.072"/>
<circle clip-path="url(#clip233)" cx="1826.04" cy="735.166" r="14.4" fill="#009af9" fill-rule="evenodd" fill-opacity="1" stroke="#000000" stroke-opacity="1" stroke-width="3.072"/>
<circle clip-path="url(#clip233)" cx="1847.5" cy="86.1831" r="14.4" fill="#009af9" fill-rule="evenodd" fill-opacity="1" stroke="#000000" stroke-opacity="1" stroke-width="3.072"/>
<circle clip-path="url(#clip233)" cx="1935.23" cy="735.166" r="14.4" fill="#009af9" fill-rule="evenodd" fill-opacity="1" stroke="#000000" stroke-opacity="1" stroke-width="3.072"/>
<circle clip-path="url(#clip233)" cx="2004.41" cy="86.1831" r="14.4" fill="#009af9" fill-rule="evenodd" fill-opacity="1" stroke="#000000" stroke-opacity="1" stroke-width="3.072"/>
<circle clip-path="url(#clip233)" cx="1882.23" cy="86.1831" r="14.4" fill="#009af9" fill-rule="evenodd" fill-opacity="1" stroke="#000000" stroke-opacity="1" stroke-width="3.072"/>
<circle clip-path="url(#clip233)" cx="2038.62" cy="86.1831" r="14.4" fill="#009af9" fill-rule="evenodd" fill-opacity="1" stroke="#000000" stroke-opacity="1" stroke-width="3.072"/>
<circle clip-path="url(#clip233)" cx="2018.19" cy="86.1831" r="14.4" fill="#009af9" fill-rule="evenodd" fill-opacity="1" stroke="#000000" stroke-opacity="1" stroke-width="3.072"/>
<circle clip-path="url(#clip233)" cx="1901.63" cy="86.1831" r="14.4" fill="#009af9" fill-rule="evenodd" fill-opacity="1" stroke="#000000" stroke-opacity="1" stroke-width="3.072"/>
<circle clip-path="url(#clip233)" cx="2012.3" cy="86.1831" r="14.4" fill="#009af9" fill-rule="evenodd" fill-opacity="1" stroke="#000000" stroke-opacity="1" stroke-width="3.072"/>
<circle clip-path="url(#clip233)" cx="1959.58" cy="86.1831" r="14.4" fill="#009af9" fill-rule="evenodd" fill-opacity="1" stroke="#000000" stroke-opacity="1" stroke-width="3.072"/>
<circle clip-path="url(#clip233)" cx="1921.71" cy="86.1831" r="14.4" fill="#009af9" fill-rule="evenodd" fill-opacity="1" stroke="#000000" stroke-opacity="1" stroke-width="3.072"/>
<circle clip-path="url(#clip233)" cx="1952.67" cy="86.1831" r="14.4" fill="#009af9" fill-rule="evenodd" fill-opacity="1" stroke="#000000" stroke-opacity="1" stroke-width="3.072"/>
<circle clip-path="url(#clip233)" cx="1954.36" cy="86.1831" r="14.4" fill="#009af9" fill-rule="evenodd" fill-opacity="1" stroke="#000000" stroke-opacity="1" stroke-width="3.072"/>
<circle clip-path="url(#clip233)" cx="1861.5" cy="86.1831" r="14.4" fill="#009af9" fill-rule="evenodd" fill-opacity="1" stroke="#000000" stroke-opacity="1" stroke-width="3.072"/>
<circle clip-path="url(#clip233)" cx="1937.85" cy="86.1831" r="14.4" fill="#009af9" fill-rule="evenodd" fill-opacity="1" stroke="#000000" stroke-opacity="1" stroke-width="3.072"/>
<circle clip-path="url(#clip233)" cx="2010.51" cy="86.1831" r="14.4" fill="#009af9" fill-rule="evenodd" fill-opacity="1" stroke="#000000" stroke-opacity="1" stroke-width="3.072"/>
<circle clip-path="url(#clip233)" cx="1985.02" cy="86.1831" r="14.4" fill="#009af9" fill-rule="evenodd" fill-opacity="1" stroke="#000000" stroke-opacity="1" stroke-width="3.072"/>
<circle clip-path="url(#clip233)" cx="2003.45" cy="86.1831" r="14.4" fill="#009af9" fill-rule="evenodd" fill-opacity="1" stroke="#000000" stroke-opacity="1" stroke-width="3.072"/>
<circle clip-path="url(#clip233)" cx="1913.43" cy="86.1831" r="14.4" fill="#009af9" fill-rule="evenodd" fill-opacity="1" stroke="#000000" stroke-opacity="1" stroke-width="3.072"/>
<circle clip-path="url(#clip233)" cx="1899.88" cy="86.1831" r="14.4" fill="#009af9" fill-rule="evenodd" fill-opacity="1" stroke="#000000" stroke-opacity="1" stroke-width="3.072"/>
<circle clip-path="url(#clip233)" cx="2003.05" cy="86.1831" r="14.4" fill="#009af9" fill-rule="evenodd" fill-opacity="1" stroke="#000000" stroke-opacity="1" stroke-width="3.072"/>
<circle clip-path="url(#clip233)" cx="1926.85" cy="86.1831" r="14.4" fill="#009af9" fill-rule="evenodd" fill-opacity="1" stroke="#000000" stroke-opacity="1" stroke-width="3.072"/>
<circle clip-path="url(#clip233)" cx="2042.21" cy="86.1831" r="14.4" fill="#009af9" fill-rule="evenodd" fill-opacity="1" stroke="#000000" stroke-opacity="1" stroke-width="3.072"/>
<circle clip-path="url(#clip233)" cx="2089.24" cy="86.1831" r="14.4" fill="#009af9" fill-rule="evenodd" fill-opacity="1" stroke="#000000" stroke-opacity="1" stroke-width="3.072"/>
<circle clip-path="url(#clip233)" cx="2086.41" cy="86.1831" r="14.4" fill="#009af9" fill-rule="evenodd" fill-opacity="1" stroke="#000000" stroke-opacity="1" stroke-width="3.072"/>
<circle clip-path="url(#clip233)" cx="2034.62" cy="86.1831" r="14.4" fill="#009af9" fill-rule="evenodd" fill-opacity="1" stroke="#000000" stroke-opacity="1" stroke-width="3.072"/>
<circle clip-path="url(#clip233)" cx="2123.17" cy="86.1831" r="14.4" fill="#009af9" fill-rule="evenodd" fill-opacity="1" stroke="#000000" stroke-opacity="1" stroke-width="3.072"/>
<circle clip-path="url(#clip233)" cx="1982.47" cy="86.1831" r="14.4" fill="#009af9" fill-rule="evenodd" fill-opacity="1" stroke="#000000" stroke-opacity="1" stroke-width="3.072"/>
<circle clip-path="url(#clip233)" cx="2049.67" cy="86.1831" r="14.4" fill="#009af9" fill-rule="evenodd" fill-opacity="1" stroke="#000000" stroke-opacity="1" stroke-width="3.072"/>
<circle clip-path="url(#clip233)" cx="2007.76" cy="86.1831" r="14.4" fill="#009af9" fill-rule="evenodd" fill-opacity="1" stroke="#000000" stroke-opacity="1" stroke-width="3.072"/>
<circle clip-path="url(#clip233)" cx="1959.95" cy="86.1831" r="14.4" fill="#009af9" fill-rule="evenodd" fill-opacity="1" stroke="#000000" stroke-opacity="1" stroke-width="3.072"/>
<circle clip-path="url(#clip233)" cx="2129.65" cy="86.1831" r="14.4" fill="#009af9" fill-rule="evenodd" fill-opacity="1" stroke="#000000" stroke-opacity="1" stroke-width="3.072"/>
<circle clip-path="url(#clip233)" cx="1987.24" cy="86.1831" r="14.4" fill="#009af9" fill-rule="evenodd" fill-opacity="1" stroke="#000000" stroke-opacity="1" stroke-width="3.072"/>
<circle clip-path="url(#clip233)" cx="2089.78" cy="86.1831" r="14.4" fill="#009af9" fill-rule="evenodd" fill-opacity="1" stroke="#000000" stroke-opacity="1" stroke-width="3.072"/>
<circle clip-path="url(#clip233)" cx="2155.61" cy="86.1831" r="14.4" fill="#009af9" fill-rule="evenodd" fill-opacity="1" stroke="#000000" stroke-opacity="1" stroke-width="3.072"/>
<circle clip-path="url(#clip233)" cx="2027.44" cy="86.1831" r="14.4" fill="#009af9" fill-rule="evenodd" fill-opacity="1" stroke="#000000" stroke-opacity="1" stroke-width="3.072"/>
<circle clip-path="url(#clip233)" cx="2066.39" cy="86.1831" r="14.4" fill="#009af9" fill-rule="evenodd" fill-opacity="1" stroke="#000000" stroke-opacity="1" stroke-width="3.072"/>
<circle clip-path="url(#clip233)" cx="2171.12" cy="86.1831" r="14.4" fill="#009af9" fill-rule="evenodd" fill-opacity="1" stroke="#000000" stroke-opacity="1" stroke-width="3.072"/>
<circle clip-path="url(#clip233)" cx="2103.07" cy="86.1831" r="14.4" fill="#009af9" fill-rule="evenodd" fill-opacity="1" stroke="#000000" stroke-opacity="1" stroke-width="3.072"/>
<circle clip-path="url(#clip233)" cx="2090.54" cy="86.1831" r="14.4" fill="#009af9" fill-rule="evenodd" fill-opacity="1" stroke="#000000" stroke-opacity="1" stroke-width="3.072"/>
<circle clip-path="url(#clip233)" cx="1989.84" cy="86.1831" r="14.4" fill="#009af9" fill-rule="evenodd" fill-opacity="1" stroke="#000000" stroke-opacity="1" stroke-width="3.072"/>
<circle clip-path="url(#clip233)" cx="2026.72" cy="86.1831" r="14.4" fill="#009af9" fill-rule="evenodd" fill-opacity="1" stroke="#000000" stroke-opacity="1" stroke-width="3.072"/>
<circle clip-path="url(#clip233)" cx="2143.75" cy="86.1831" r="14.4" fill="#009af9" fill-rule="evenodd" fill-opacity="1" stroke="#000000" stroke-opacity="1" stroke-width="3.072"/>
<circle clip-path="url(#clip233)" cx="2025.98" cy="86.1831" r="14.4" fill="#009af9" fill-rule="evenodd" fill-opacity="1" stroke="#000000" stroke-opacity="1" stroke-width="3.072"/>
<circle clip-path="url(#clip233)" cx="2026.17" cy="86.1831" r="14.4" fill="#009af9" fill-rule="evenodd" fill-opacity="1" stroke="#000000" stroke-opacity="1" stroke-width="3.072"/>
<circle clip-path="url(#clip233)" cx="2232.15" cy="86.1831" r="14.4" fill="#009af9" fill-rule="evenodd" fill-opacity="1" stroke="#000000" stroke-opacity="1" stroke-width="3.072"/>
<circle clip-path="url(#clip233)" cx="2084.87" cy="86.1831" r="14.4" fill="#009af9" fill-rule="evenodd" fill-opacity="1" stroke="#000000" stroke-opacity="1" stroke-width="3.072"/>
<circle clip-path="url(#clip233)" cx="2106.88" cy="86.1831" r="14.4" fill="#009af9" fill-rule="evenodd" fill-opacity="1" stroke="#000000" stroke-opacity="1" stroke-width="3.072"/>
</svg>
