<?xml version="1.0" encoding="utf-8"?>
<svg xmlns="http://www.w3.org/2000/svg" xmlns:xlink="http://www.w3.org/1999/xlink" width="576" height="384" viewBox="0 0 2304 1536">
<defs>
  <clipPath id="clip320">
    <rect x="0" y="0" width="2304" height="1536"/>
  </clipPath>
</defs>
<path clip-path="url(#clip320)" d="
M0 1536 L2304 1536 L2304 0 L0 0  Z
  " fill="#ffffff" fill-rule="evenodd" fill-opacity="1"/>
<defs>
  <clipPath id="clip321">
    <rect x="460" y="0" width="1614" height="1536"/>
  </clipPath>
</defs>
<path clip-path="url(#clip320)" d="
M191.981 1423.09 L2256.76 1423.09 L2256.76 47.2441 L191.981 47.2441  Z
  " fill="#ffffff" fill-rule="evenodd" fill-opacity="1"/>
<defs>
  <clipPath id="clip322">
    <rect x="191" y="47" width="2066" height="1377"/>
  </clipPath>
</defs>
<polyline clip-path="url(#clip322)" style="stroke:#000000; stroke-linecap:round; stroke-linejoin:round; stroke-width:2; stroke-opacity:0.1; fill:none" points="
  479.749,1423.09 479.749,47.2441 
  "/>
<polyline clip-path="url(#clip322)" style="stroke:#000000; stroke-linecap:round; stroke-linejoin:round; stroke-width:2; stroke-opacity:0.1; fill:none" points="
  891.076,1423.09 891.076,47.2441 
  "/>
<polyline clip-path="url(#clip322)" style="stroke:#000000; stroke-linecap:round; stroke-linejoin:round; stroke-width:2; stroke-opacity:0.1; fill:none" points="
  1302.4,1423.09 1302.4,47.2441 
  "/>
<polyline clip-path="url(#clip322)" style="stroke:#000000; stroke-linecap:round; stroke-linejoin:round; stroke-width:2; stroke-opacity:0.1; fill:none" points="
  1713.73,1423.09 1713.73,47.2441 
  "/>
<polyline clip-path="url(#clip322)" style="stroke:#000000; stroke-linecap:round; stroke-linejoin:round; stroke-width:2; stroke-opacity:0.1; fill:none" points="
  2125.06,1423.09 2125.06,47.2441 
  "/>
<polyline clip-path="url(#clip320)" style="stroke:#000000; stroke-linecap:round; stroke-linejoin:round; stroke-width:4; stroke-opacity:1; fill:none" points="
  191.981,1423.09 2256.76,1423.09 
  "/>
<polyline clip-path="url(#clip320)" style="stroke:#000000; stroke-linecap:round; stroke-linejoin:round; stroke-width:4; stroke-opacity:1; fill:none" points="
  479.749,1423.09 479.749,1404.19 
  "/>
<polyline clip-path="url(#clip320)" style="stroke:#000000; stroke-linecap:round; stroke-linejoin:round; stroke-width:4; stroke-opacity:1; fill:none" points="
  891.076,1423.09 891.076,1404.19 
  "/>
<polyline clip-path="url(#clip320)" style="stroke:#000000; stroke-linecap:round; stroke-linejoin:round; stroke-width:4; stroke-opacity:1; fill:none" points="
  1302.4,1423.09 1302.4,1404.19 
  "/>
<polyline clip-path="url(#clip320)" style="stroke:#000000; stroke-linecap:round; stroke-linejoin:round; stroke-width:4; stroke-opacity:1; fill:none" points="
  1713.73,1423.09 1713.73,1404.19 
  "/>
<polyline clip-path="url(#clip320)" style="stroke:#000000; stroke-linecap:round; stroke-linejoin:round; stroke-width:4; stroke-opacity:1; fill:none" points="
  2125.06,1423.09 2125.06,1404.19 
  "/>
<path clip-path="url(#clip320)" d="M431.821 1480.78 L439.46 1480.78 L439.46 1454.42 L431.15 1456.09 L431.15 1451.83 L439.413 1450.16 L444.089 1450.16 L444.089 1480.78 L451.728 1480.78 L451.728 1484.72 L431.821 1484.72 L431.821 1480.78 Z" fill="#000000" fill-rule="evenodd" fill-opacity="1" /><path clip-path="url(#clip320)" d="M461.173 1478.84 L466.057 1478.84 L466.057 1484.72 L461.173 1484.72 L461.173 1478.84 Z" fill="#000000" fill-rule="evenodd" fill-opacity="1" /><path clip-path="url(#clip320)" d="M486.242 1453.24 Q482.631 1453.24 480.802 1456.8 Q478.996 1460.35 478.996 1467.47 Q478.996 1474.58 480.802 1478.15 Q482.631 1481.69 486.242 1481.69 Q489.876 1481.69 491.682 1478.15 Q493.51 1474.58 493.51 1467.47 Q493.51 1460.35 491.682 1456.8 Q489.876 1453.24 486.242 1453.24 M486.242 1449.53 Q492.052 1449.53 495.108 1454.14 Q498.186 1458.72 498.186 1467.47 Q498.186 1476.2 495.108 1480.81 Q492.052 1485.39 486.242 1485.39 Q480.432 1485.39 477.353 1480.81 Q474.297 1476.2 474.297 1467.47 Q474.297 1458.72 477.353 1454.14 Q480.432 1449.53 486.242 1449.53 Z" fill="#000000" fill-rule="evenodd" fill-opacity="1" /><path clip-path="url(#clip320)" d="M516.404 1453.24 Q512.793 1453.24 510.964 1456.8 Q509.158 1460.35 509.158 1467.47 Q509.158 1474.58 510.964 1478.15 Q512.793 1481.69 516.404 1481.69 Q520.038 1481.69 521.843 1478.15 Q523.672 1474.58 523.672 1467.47 Q523.672 1460.35 521.843 1456.8 Q520.038 1453.24 516.404 1453.24 M516.404 1449.53 Q522.214 1449.53 525.269 1454.14 Q528.348 1458.72 528.348 1467.47 Q528.348 1476.2 525.269 1480.81 Q522.214 1485.39 516.404 1485.39 Q510.594 1485.39 507.515 1480.81 Q504.459 1476.2 504.459 1467.47 Q504.459 1458.72 507.515 1454.14 Q510.594 1449.53 516.404 1449.53 Z" fill="#000000" fill-rule="evenodd" fill-opacity="1" /><path clip-path="url(#clip320)" d="M843.646 1480.78 L851.285 1480.78 L851.285 1454.42 L842.975 1456.09 L842.975 1451.83 L851.239 1450.16 L855.914 1450.16 L855.914 1480.78 L863.553 1480.78 L863.553 1484.72 L843.646 1484.72 L843.646 1480.78 Z" fill="#000000" fill-rule="evenodd" fill-opacity="1" /><path clip-path="url(#clip320)" d="M872.998 1478.84 L877.882 1478.84 L877.882 1484.72 L872.998 1484.72 L872.998 1478.84 Z" fill="#000000" fill-rule="evenodd" fill-opacity="1" /><path clip-path="url(#clip320)" d="M892.095 1480.78 L908.414 1480.78 L908.414 1484.72 L886.47 1484.72 L886.47 1480.78 Q889.132 1478.03 893.715 1473.4 Q898.322 1468.75 899.502 1467.41 Q901.748 1464.88 902.627 1463.15 Q903.53 1461.39 903.53 1459.7 Q903.53 1456.94 901.586 1455.21 Q899.664 1453.47 896.562 1453.47 Q894.363 1453.47 891.91 1454.23 Q889.479 1455 886.701 1456.55 L886.701 1451.83 Q889.525 1450.69 891.979 1450.11 Q894.433 1449.53 896.47 1449.53 Q901.84 1449.53 905.035 1452.22 Q908.229 1454.91 908.229 1459.4 Q908.229 1461.53 907.419 1463.45 Q906.632 1465.34 904.525 1467.94 Q903.947 1468.61 900.845 1471.83 Q897.743 1475.02 892.095 1480.78 Z" fill="#000000" fill-rule="evenodd" fill-opacity="1" /><path clip-path="url(#clip320)" d="M918.275 1450.16 L936.632 1450.16 L936.632 1454.1 L922.558 1454.1 L922.558 1462.57 Q923.576 1462.22 924.595 1462.06 Q925.613 1461.87 926.632 1461.87 Q932.419 1461.87 935.798 1465.04 Q939.178 1468.22 939.178 1473.63 Q939.178 1479.21 935.706 1482.31 Q932.234 1485.39 925.914 1485.39 Q923.738 1485.39 921.47 1485.02 Q919.224 1484.65 916.817 1483.91 L916.817 1479.21 Q918.9 1480.34 921.122 1480.9 Q923.345 1481.46 925.822 1481.46 Q929.826 1481.46 932.164 1479.35 Q934.502 1477.24 934.502 1473.63 Q934.502 1470.02 932.164 1467.91 Q929.826 1465.81 925.822 1465.81 Q923.947 1465.81 922.072 1466.22 Q920.22 1466.64 918.275 1467.52 L918.275 1450.16 Z" fill="#000000" fill-rule="evenodd" fill-opacity="1" /><path clip-path="url(#clip320)" d="M1254.48 1480.78 L1262.11 1480.78 L1262.11 1454.42 L1253.8 1456.09 L1253.8 1451.83 L1262.07 1450.16 L1266.74 1450.16 L1266.74 1480.78 L1274.38 1480.78 L1274.38 1484.72 L1254.48 1484.72 L1254.48 1480.78 Z" fill="#000000" fill-rule="evenodd" fill-opacity="1" /><path clip-path="url(#clip320)" d="M1283.83 1478.84 L1288.71 1478.84 L1288.71 1484.72 L1283.83 1484.72 L1283.83 1478.84 Z" fill="#000000" fill-rule="evenodd" fill-opacity="1" /><path clip-path="url(#clip320)" d="M1298.94 1450.16 L1317.3 1450.16 L1317.3 1454.1 L1303.23 1454.1 L1303.23 1462.57 Q1304.24 1462.22 1305.26 1462.06 Q1306.28 1461.87 1307.3 1461.87 Q1313.09 1461.87 1316.47 1465.04 Q1319.85 1468.22 1319.85 1473.63 Q1319.85 1479.21 1316.37 1482.31 Q1312.9 1485.39 1306.58 1485.39 Q1304.41 1485.39 1302.14 1485.02 Q1299.89 1484.65 1297.48 1483.91 L1297.48 1479.21 Q1299.57 1480.34 1301.79 1480.9 Q1304.01 1481.46 1306.49 1481.46 Q1310.49 1481.46 1312.83 1479.35 Q1315.17 1477.24 1315.17 1473.63 Q1315.17 1470.02 1312.83 1467.91 Q1310.49 1465.81 1306.49 1465.81 Q1304.61 1465.81 1302.74 1466.22 Q1300.89 1466.64 1298.94 1467.52 L1298.94 1450.16 Z" fill="#000000" fill-rule="evenodd" fill-opacity="1" /><path clip-path="url(#clip320)" d="M1339.06 1453.24 Q1335.45 1453.24 1333.62 1456.8 Q1331.81 1460.35 1331.81 1467.47 Q1331.81 1474.58 1333.62 1478.15 Q1335.45 1481.69 1339.06 1481.69 Q1342.69 1481.69 1344.5 1478.15 Q1346.33 1474.58 1346.33 1467.47 Q1346.33 1460.35 1344.5 1456.8 Q1342.69 1453.24 1339.06 1453.24 M1339.06 1449.53 Q1344.87 1449.53 1347.92 1454.14 Q1351 1458.72 1351 1467.47 Q1351 1476.2 1347.92 1480.81 Q1344.87 1485.39 1339.06 1485.39 Q1333.25 1485.39 1330.17 1480.81 Q1327.11 1476.2 1327.11 1467.47 Q1327.11 1458.72 1330.17 1454.14 Q1333.25 1449.53 1339.06 1449.53 Z" fill="#000000" fill-rule="evenodd" fill-opacity="1" /><path clip-path="url(#clip320)" d="M1666.3 1480.78 L1673.94 1480.78 L1673.94 1454.42 L1665.63 1456.09 L1665.63 1451.83 L1673.89 1450.16 L1678.57 1450.16 L1678.57 1480.78 L1686.21 1480.78 L1686.21 1484.72 L1666.3 1484.72 L1666.3 1480.78 Z" fill="#000000" fill-rule="evenodd" fill-opacity="1" /><path clip-path="url(#clip320)" d="M1695.65 1478.84 L1700.54 1478.84 L1700.54 1484.72 L1695.65 1484.72 L1695.65 1478.84 Z" fill="#000000" fill-rule="evenodd" fill-opacity="1" /><path clip-path="url(#clip320)" d="M1709.54 1450.16 L1731.76 1450.16 L1731.76 1452.15 L1719.22 1484.72 L1714.33 1484.72 L1726.14 1454.1 L1709.54 1454.1 L1709.54 1450.16 Z" fill="#000000" fill-rule="evenodd" fill-opacity="1" /><path clip-path="url(#clip320)" d="M1740.93 1450.16 L1759.29 1450.16 L1759.29 1454.1 L1745.21 1454.1 L1745.21 1462.57 Q1746.23 1462.22 1747.25 1462.06 Q1748.27 1461.87 1749.29 1461.87 Q1755.07 1461.87 1758.45 1465.04 Q1761.83 1468.22 1761.83 1473.63 Q1761.83 1479.21 1758.36 1482.31 Q1754.89 1485.39 1748.57 1485.39 Q1746.39 1485.39 1744.12 1485.02 Q1741.88 1484.65 1739.47 1483.91 L1739.47 1479.21 Q1741.56 1480.34 1743.78 1480.9 Q1746 1481.46 1748.48 1481.46 Q1752.48 1481.46 1754.82 1479.35 Q1757.16 1477.24 1757.16 1473.63 Q1757.16 1470.02 1754.82 1467.91 Q1752.48 1465.81 1748.48 1465.81 Q1746.6 1465.81 1744.73 1466.22 Q1742.87 1466.64 1740.93 1467.52 L1740.93 1450.16 Z" fill="#000000" fill-rule="evenodd" fill-opacity="1" /><path clip-path="url(#clip320)" d="M2081.22 1480.78 L2097.54 1480.78 L2097.54 1484.72 L2075.59 1484.72 L2075.59 1480.78 Q2078.25 1478.03 2082.84 1473.4 Q2087.44 1468.75 2088.62 1467.41 Q2090.87 1464.88 2091.75 1463.15 Q2092.65 1461.39 2092.65 1459.7 Q2092.65 1456.94 2090.71 1455.21 Q2088.79 1453.47 2085.68 1453.47 Q2083.49 1453.47 2081.03 1454.23 Q2078.6 1455 2075.82 1456.55 L2075.82 1451.83 Q2078.65 1450.69 2081.1 1450.11 Q2083.55 1449.53 2085.59 1449.53 Q2090.96 1449.53 2094.16 1452.22 Q2097.35 1454.91 2097.35 1459.4 Q2097.35 1461.53 2096.54 1463.45 Q2095.75 1465.34 2093.65 1467.94 Q2093.07 1468.61 2089.97 1471.83 Q2086.86 1475.02 2081.22 1480.78 Z" fill="#000000" fill-rule="evenodd" fill-opacity="1" /><path clip-path="url(#clip320)" d="M2107.35 1478.84 L2112.23 1478.84 L2112.23 1484.72 L2107.35 1484.72 L2107.35 1478.84 Z" fill="#000000" fill-rule="evenodd" fill-opacity="1" /><path clip-path="url(#clip320)" d="M2132.42 1453.24 Q2128.81 1453.24 2126.98 1456.8 Q2125.17 1460.35 2125.17 1467.47 Q2125.17 1474.58 2126.98 1478.15 Q2128.81 1481.69 2132.42 1481.69 Q2136.05 1481.69 2137.86 1478.15 Q2139.69 1474.58 2139.69 1467.47 Q2139.69 1460.35 2137.86 1456.8 Q2136.05 1453.24 2132.42 1453.24 M2132.42 1449.53 Q2138.23 1449.53 2141.29 1454.14 Q2144.36 1458.72 2144.36 1467.47 Q2144.36 1476.2 2141.29 1480.81 Q2138.23 1485.39 2132.42 1485.39 Q2126.61 1485.39 2123.53 1480.81 Q2120.48 1476.2 2120.48 1467.47 Q2120.48 1458.72 2123.53 1454.14 Q2126.61 1449.53 2132.42 1449.53 Z" fill="#000000" fill-rule="evenodd" fill-opacity="1" /><path clip-path="url(#clip320)" d="M2162.58 1453.24 Q2158.97 1453.24 2157.14 1456.8 Q2155.34 1460.35 2155.34 1467.47 Q2155.34 1474.58 2157.14 1478.15 Q2158.97 1481.69 2162.58 1481.69 Q2166.22 1481.69 2168.02 1478.15 Q2169.85 1474.58 2169.85 1467.47 Q2169.85 1460.35 2168.02 1456.8 Q2166.22 1453.24 2162.58 1453.24 M2162.58 1449.53 Q2168.39 1449.53 2171.45 1454.14 Q2174.53 1458.72 2174.53 1467.47 Q2174.53 1476.2 2171.45 1480.81 Q2168.39 1485.39 2162.58 1485.39 Q2156.77 1485.39 2153.69 1480.81 Q2150.64 1476.2 2150.64 1467.47 Q2150.64 1458.72 2153.69 1454.14 Q2156.77 1449.53 2162.58 1449.53 Z" fill="#000000" fill-rule="evenodd" fill-opacity="1" /><polyline clip-path="url(#clip322)" style="stroke:#000000; stroke-linecap:round; stroke-linejoin:round; stroke-width:2; stroke-opacity:0.1; fill:none" points="
  191.981,1410.65 2256.76,1410.65 
  "/>
<polyline clip-path="url(#clip322)" style="stroke:#000000; stroke-linecap:round; stroke-linejoin:round; stroke-width:2; stroke-opacity:0.1; fill:none" points="
  191.981,1124.82 2256.76,1124.82 
  "/>
<polyline clip-path="url(#clip322)" style="stroke:#000000; stroke-linecap:round; stroke-linejoin:round; stroke-width:2; stroke-opacity:0.1; fill:none" points="
  191.981,838.988 2256.76,838.988 
  "/>
<polyline clip-path="url(#clip322)" style="stroke:#000000; stroke-linecap:round; stroke-linejoin:round; stroke-width:2; stroke-opacity:0.1; fill:none" points="
  191.981,553.154 2256.76,553.154 
  "/>
<polyline clip-path="url(#clip322)" style="stroke:#000000; stroke-linecap:round; stroke-linejoin:round; stroke-width:2; stroke-opacity:0.1; fill:none" points="
  191.981,267.321 2256.76,267.321 
  "/>
<polyline clip-path="url(#clip320)" style="stroke:#000000; stroke-linecap:round; stroke-linejoin:round; stroke-width:4; stroke-opacity:1; fill:none" points="
  191.981,1423.09 191.981,47.2441 
  "/>
<polyline clip-path="url(#clip320)" style="stroke:#000000; stroke-linecap:round; stroke-linejoin:round; stroke-width:4; stroke-opacity:1; fill:none" points="
  191.981,1410.65 210.878,1410.65 
  "/>
<polyline clip-path="url(#clip320)" style="stroke:#000000; stroke-linecap:round; stroke-linejoin:round; stroke-width:4; stroke-opacity:1; fill:none" points="
  191.981,1124.82 210.878,1124.82 
  "/>
<polyline clip-path="url(#clip320)" style="stroke:#000000; stroke-linecap:round; stroke-linejoin:round; stroke-width:4; stroke-opacity:1; fill:none" points="
  191.981,838.988 210.878,838.988 
  "/>
<polyline clip-path="url(#clip320)" style="stroke:#000000; stroke-linecap:round; stroke-linejoin:round; stroke-width:4; stroke-opacity:1; fill:none" points="
  191.981,553.154 210.878,553.154 
  "/>
<polyline clip-path="url(#clip320)" style="stroke:#000000; stroke-linecap:round; stroke-linejoin:round; stroke-width:4; stroke-opacity:1; fill:none" points="
  191.981,267.321 210.878,267.321 
  "/>
<path clip-path="url(#clip320)" d="M51.4721 1411.11 L81.1479 1411.11 L81.1479 1415.04 L51.4721 1415.04 L51.4721 1411.11 Z" fill="#000000" fill-rule="evenodd" fill-opacity="1" /><path clip-path="url(#clip320)" d="M101.24 1396.45 Q97.6293 1396.45 95.8006 1400.02 Q93.995 1403.56 93.995 1410.69 Q93.995 1417.8 95.8006 1421.36 Q97.6293 1424.9 101.24 1424.9 Q104.875 1424.9 106.68 1421.36 Q108.509 1417.8 108.509 1410.69 Q108.509 1403.56 106.68 1400.02 Q104.875 1396.45 101.24 1396.45 M101.24 1392.75 Q107.051 1392.75 110.106 1397.36 Q113.185 1401.94 113.185 1410.69 Q113.185 1419.42 110.106 1424.02 Q107.051 1428.61 101.24 1428.61 Q95.4302 1428.61 92.3515 1424.02 Q89.296 1419.42 89.296 1410.69 Q89.296 1401.94 92.3515 1397.36 Q95.4302 1392.75 101.24 1392.75 Z" fill="#000000" fill-rule="evenodd" fill-opacity="1" /><path clip-path="url(#clip320)" d="M121.402 1422.05 L126.287 1422.05 L126.287 1427.93 L121.402 1427.93 L121.402 1422.05 Z" fill="#000000" fill-rule="evenodd" fill-opacity="1" /><path clip-path="url(#clip320)" d="M136.518 1393.37 L154.874 1393.37 L154.874 1397.31 L140.8 1397.31 L140.8 1405.78 Q141.819 1405.43 142.837 1405.27 Q143.856 1405.09 144.874 1405.09 Q150.661 1405.09 154.041 1408.26 Q157.421 1411.43 157.421 1416.85 Q157.421 1422.43 153.948 1425.53 Q150.476 1428.61 144.157 1428.61 Q141.981 1428.61 139.712 1428.24 Q137.467 1427.86 135.06 1427.12 L135.06 1422.43 Q137.143 1423.56 139.365 1424.11 Q141.587 1424.67 144.064 1424.67 Q148.069 1424.67 150.407 1422.56 Q152.745 1420.46 152.745 1416.85 Q152.745 1413.24 150.407 1411.13 Q148.069 1409.02 144.064 1409.02 Q142.189 1409.02 140.314 1409.44 Q138.462 1409.86 136.518 1410.74 L136.518 1393.37 Z" fill="#000000" fill-rule="evenodd" fill-opacity="1" /><path clip-path="url(#clip320)" d="M100.245 1110.62 Q96.6339 1110.62 94.8052 1114.18 Q92.9997 1117.73 92.9997 1124.86 Q92.9997 1131.96 94.8052 1135.53 Q96.6339 1139.07 100.245 1139.07 Q103.879 1139.07 105.685 1135.53 Q107.513 1131.96 107.513 1124.86 Q107.513 1117.73 105.685 1114.18 Q103.879 1110.62 100.245 1110.62 M100.245 1106.92 Q106.055 1106.92 109.111 1111.52 Q112.189 1116.11 112.189 1124.86 Q112.189 1133.58 109.111 1138.19 Q106.055 1142.77 100.245 1142.77 Q94.4349 1142.77 91.3562 1138.19 Q88.3006 1133.58 88.3006 1124.86 Q88.3006 1116.11 91.3562 1111.52 Q94.4349 1106.92 100.245 1106.92 Z" fill="#000000" fill-rule="evenodd" fill-opacity="1" /><path clip-path="url(#clip320)" d="M120.407 1136.22 L125.291 1136.22 L125.291 1142.1 L120.407 1142.1 L120.407 1136.22 Z" fill="#000000" fill-rule="evenodd" fill-opacity="1" /><path clip-path="url(#clip320)" d="M145.476 1110.62 Q141.865 1110.62 140.036 1114.18 Q138.231 1117.73 138.231 1124.86 Q138.231 1131.96 140.036 1135.53 Q141.865 1139.07 145.476 1139.07 Q149.11 1139.07 150.916 1135.53 Q152.745 1131.96 152.745 1124.86 Q152.745 1117.73 150.916 1114.18 Q149.11 1110.62 145.476 1110.62 M145.476 1106.92 Q151.286 1106.92 154.342 1111.52 Q157.421 1116.11 157.421 1124.86 Q157.421 1133.58 154.342 1138.19 Q151.286 1142.77 145.476 1142.77 Q139.666 1142.77 136.587 1138.19 Q133.532 1133.58 133.532 1124.86 Q133.532 1116.11 136.587 1111.52 Q139.666 1106.92 145.476 1106.92 Z" fill="#000000" fill-rule="evenodd" fill-opacity="1" /><path clip-path="url(#clip320)" d="M101.24 824.786 Q97.6293 824.786 95.8006 828.351 Q93.995 831.893 93.995 839.022 Q93.995 846.129 95.8006 849.694 Q97.6293 853.235 101.24 853.235 Q104.875 853.235 106.68 849.694 Q108.509 846.129 108.509 839.022 Q108.509 831.893 106.68 828.351 Q104.875 824.786 101.24 824.786 M101.24 821.083 Q107.051 821.083 110.106 825.689 Q113.185 830.272 113.185 839.022 Q113.185 847.749 110.106 852.356 Q107.051 856.939 101.24 856.939 Q95.4302 856.939 92.3515 852.356 Q89.296 847.749 89.296 839.022 Q89.296 830.272 92.3515 825.689 Q95.4302 821.083 101.24 821.083 Z" fill="#000000" fill-rule="evenodd" fill-opacity="1" /><path clip-path="url(#clip320)" d="M121.402 850.388 L126.287 850.388 L126.287 856.268 L121.402 856.268 L121.402 850.388 Z" fill="#000000" fill-rule="evenodd" fill-opacity="1" /><path clip-path="url(#clip320)" d="M136.518 821.708 L154.874 821.708 L154.874 825.643 L140.8 825.643 L140.8 834.115 Q141.819 833.768 142.837 833.606 Q143.856 833.421 144.874 833.421 Q150.661 833.421 154.041 836.592 Q157.421 839.763 157.421 845.18 Q157.421 850.758 153.948 853.86 Q150.476 856.939 144.157 856.939 Q141.981 856.939 139.712 856.569 Q137.467 856.198 135.06 855.458 L135.06 850.758 Q137.143 851.893 139.365 852.448 Q141.587 853.004 144.064 853.004 Q148.069 853.004 150.407 850.897 Q152.745 848.791 152.745 845.18 Q152.745 841.569 150.407 839.462 Q148.069 837.356 144.064 837.356 Q142.189 837.356 140.314 837.772 Q138.462 838.189 136.518 839.069 L136.518 821.708 Z" fill="#000000" fill-rule="evenodd" fill-opacity="1" /><path clip-path="url(#clip320)" d="M91.0552 566.499 L98.6941 566.499 L98.6941 540.134 L90.384 541.8 L90.384 537.541 L98.6478 535.874 L103.324 535.874 L103.324 566.499 L110.963 566.499 L110.963 570.434 L91.0552 570.434 L91.0552 566.499 Z" fill="#000000" fill-rule="evenodd" fill-opacity="1" /><path clip-path="url(#clip320)" d="M120.407 564.555 L125.291 564.555 L125.291 570.434 L120.407 570.434 L120.407 564.555 Z" fill="#000000" fill-rule="evenodd" fill-opacity="1" /><path clip-path="url(#clip320)" d="M145.476 538.953 Q141.865 538.953 140.036 542.518 Q138.231 546.059 138.231 553.189 Q138.231 560.296 140.036 563.86 Q141.865 567.402 145.476 567.402 Q149.11 567.402 150.916 563.86 Q152.745 560.296 152.745 553.189 Q152.745 546.059 150.916 542.518 Q149.11 538.953 145.476 538.953 M145.476 535.249 Q151.286 535.249 154.342 539.856 Q157.421 544.439 157.421 553.189 Q157.421 561.916 154.342 566.522 Q151.286 571.106 145.476 571.106 Q139.666 571.106 136.587 566.522 Q133.532 561.916 133.532 553.189 Q133.532 544.439 136.587 539.856 Q139.666 535.249 145.476 535.249 Z" fill="#000000" fill-rule="evenodd" fill-opacity="1" /><path clip-path="url(#clip320)" d="M92.0506 280.666 L99.6895 280.666 L99.6895 254.3 L91.3793 255.967 L91.3793 251.708 L99.6432 250.041 L104.319 250.041 L104.319 280.666 L111.958 280.666 L111.958 284.601 L92.0506 284.601 L92.0506 280.666 Z" fill="#000000" fill-rule="evenodd" fill-opacity="1" /><path clip-path="url(#clip320)" d="M121.402 278.721 L126.287 278.721 L126.287 284.601 L121.402 284.601 L121.402 278.721 Z" fill="#000000" fill-rule="evenodd" fill-opacity="1" /><path clip-path="url(#clip320)" d="M136.518 250.041 L154.874 250.041 L154.874 253.976 L140.8 253.976 L140.8 262.448 Q141.819 262.101 142.837 261.939 Q143.856 261.754 144.874 261.754 Q150.661 261.754 154.041 264.925 Q157.421 268.096 157.421 273.513 Q157.421 279.092 153.948 282.194 Q150.476 285.272 144.157 285.272 Q141.981 285.272 139.712 284.902 Q137.467 284.532 135.06 283.791 L135.06 279.092 Q137.143 280.226 139.365 280.782 Q141.587 281.337 144.064 281.337 Q148.069 281.337 150.407 279.231 Q152.745 277.124 152.745 273.513 Q152.745 269.902 150.407 267.796 Q148.069 265.689 144.064 265.689 Q142.189 265.689 140.314 266.106 Q138.462 266.522 136.518 267.402 L136.518 250.041 Z" fill="#000000" fill-rule="evenodd" fill-opacity="1" /><circle clip-path="url(#clip322)" cx="250.418" cy="993.837" r="14.4" fill="#0000ff" fill-rule="evenodd" fill-opacity="1" stroke="#000000" stroke-opacity="1" stroke-width="3.072"/>
<circle clip-path="url(#clip322)" cx="406.053" cy="1109.14" r="14.4" fill="#0000ff" fill-rule="evenodd" fill-opacity="1" stroke="#000000" stroke-opacity="1" stroke-width="3.072"/>
<circle clip-path="url(#clip322)" cx="450.941" cy="813.316" r="14.4" fill="#0000ff" fill-rule="evenodd" fill-opacity="1" stroke="#000000" stroke-opacity="1" stroke-width="3.072"/>
<circle clip-path="url(#clip322)" cx="482.169" cy="780.754" r="14.4" fill="#0000ff" fill-rule="evenodd" fill-opacity="1" stroke="#000000" stroke-opacity="1" stroke-width="3.072"/>
<circle clip-path="url(#clip322)" cx="561.974" cy="1176.41" r="14.4" fill="#0000ff" fill-rule="evenodd" fill-opacity="1" stroke="#000000" stroke-opacity="1" stroke-width="3.072"/>
<circle clip-path="url(#clip322)" cx="752.899" cy="1167.05" r="14.4" fill="#0000ff" fill-rule="evenodd" fill-opacity="1" stroke="#000000" stroke-opacity="1" stroke-width="3.072"/>
<circle clip-path="url(#clip322)" cx="787.971" cy="1176.27" r="14.4" fill="#0000ff" fill-rule="evenodd" fill-opacity="1" stroke="#000000" stroke-opacity="1" stroke-width="3.072"/>
<circle clip-path="url(#clip322)" cx="818.265" cy="1086.24" r="14.4" fill="#0000ff" fill-rule="evenodd" fill-opacity="1" stroke="#000000" stroke-opacity="1" stroke-width="3.072"/>
<circle clip-path="url(#clip322)" cx="891.108" cy="1384.15" r="14.4" fill="#0000ff" fill-rule="evenodd" fill-opacity="1" stroke="#000000" stroke-opacity="1" stroke-width="3.072"/>
<circle clip-path="url(#clip322)" cx="891.231" cy="1082.84" r="14.4" fill="#0000ff" fill-rule="evenodd" fill-opacity="1" stroke="#000000" stroke-opacity="1" stroke-width="3.072"/>
<circle clip-path="url(#clip322)" cx="913.183" cy="900.16" r="14.4" fill="#0000ff" fill-rule="evenodd" fill-opacity="1" stroke="#000000" stroke-opacity="1" stroke-width="3.072"/>
<circle clip-path="url(#clip322)" cx="976.544" cy="1001.78" r="14.4" fill="#0000ff" fill-rule="evenodd" fill-opacity="1" stroke="#000000" stroke-opacity="1" stroke-width="3.072"/>
<circle clip-path="url(#clip322)" cx="1019.94" cy="789.263" r="14.4" fill="#0000ff" fill-rule="evenodd" fill-opacity="1" stroke="#000000" stroke-opacity="1" stroke-width="3.072"/>
<circle clip-path="url(#clip322)" cx="1048.45" cy="1262.73" r="14.4" fill="#0000ff" fill-rule="evenodd" fill-opacity="1" stroke="#000000" stroke-opacity="1" stroke-width="3.072"/>
<circle clip-path="url(#clip322)" cx="1069.15" cy="1129.79" r="14.4" fill="#0000ff" fill-rule="evenodd" fill-opacity="1" stroke="#000000" stroke-opacity="1" stroke-width="3.072"/>
<circle clip-path="url(#clip322)" cx="1097.47" cy="1008.49" r="14.4" fill="#0000ff" fill-rule="evenodd" fill-opacity="1" stroke="#000000" stroke-opacity="1" stroke-width="3.072"/>
<circle clip-path="url(#clip322)" cx="1098.44" cy="935.992" r="14.4" fill="#0000ff" fill-rule="evenodd" fill-opacity="1" stroke="#000000" stroke-opacity="1" stroke-width="3.072"/>
<circle clip-path="url(#clip322)" cx="1105.24" cy="1005.67" r="14.4" fill="#0000ff" fill-rule="evenodd" fill-opacity="1" stroke="#000000" stroke-opacity="1" stroke-width="3.072"/>
<circle clip-path="url(#clip322)" cx="1108.21" cy="956.139" r="14.4" fill="#0000ff" fill-rule="evenodd" fill-opacity="1" stroke="#000000" stroke-opacity="1" stroke-width="3.072"/>
<circle clip-path="url(#clip322)" cx="1119.22" cy="972.868" r="14.4" fill="#0000ff" fill-rule="evenodd" fill-opacity="1" stroke="#000000" stroke-opacity="1" stroke-width="3.072"/>
<circle clip-path="url(#clip322)" cx="1125.11" cy="1279.54" r="14.4" fill="#0000ff" fill-rule="evenodd" fill-opacity="1" stroke="#000000" stroke-opacity="1" stroke-width="3.072"/>
<circle clip-path="url(#clip322)" cx="1126.35" cy="1105.51" r="14.4" fill="#0000ff" fill-rule="evenodd" fill-opacity="1" stroke="#000000" stroke-opacity="1" stroke-width="3.072"/>
<circle clip-path="url(#clip322)" cx="1225.18" cy="1148.43" r="14.4" fill="#0000ff" fill-rule="evenodd" fill-opacity="1" stroke="#000000" stroke-opacity="1" stroke-width="3.072"/>
<circle clip-path="url(#clip322)" cx="1266.68" cy="1132.83" r="14.4" fill="#0000ff" fill-rule="evenodd" fill-opacity="1" stroke="#000000" stroke-opacity="1" stroke-width="3.072"/>
<circle clip-path="url(#clip322)" cx="1272.9" cy="963.307" r="14.4" fill="#0000ff" fill-rule="evenodd" fill-opacity="1" stroke="#000000" stroke-opacity="1" stroke-width="3.072"/>
<circle clip-path="url(#clip322)" cx="1304.9" cy="733.194" r="14.4" fill="#0000ff" fill-rule="evenodd" fill-opacity="1" stroke="#000000" stroke-opacity="1" stroke-width="3.072"/>
<circle clip-path="url(#clip322)" cx="1325.61" cy="1025.74" r="14.4" fill="#0000ff" fill-rule="evenodd" fill-opacity="1" stroke="#000000" stroke-opacity="1" stroke-width="3.072"/>
<circle clip-path="url(#clip322)" cx="1403.94" cy="990.023" r="14.4" fill="#0000ff" fill-rule="evenodd" fill-opacity="1" stroke="#000000" stroke-opacity="1" stroke-width="3.072"/>
<circle clip-path="url(#clip322)" cx="1415.14" cy="976.527" r="14.4" fill="#0000ff" fill-rule="evenodd" fill-opacity="1" stroke="#000000" stroke-opacity="1" stroke-width="3.072"/>
<circle clip-path="url(#clip322)" cx="1431.85" cy="998.124" r="14.4" fill="#0000ff" fill-rule="evenodd" fill-opacity="1" stroke="#000000" stroke-opacity="1" stroke-width="3.072"/>
<circle clip-path="url(#clip322)" cx="1485.47" cy="898.586" r="14.4" fill="#0000ff" fill-rule="evenodd" fill-opacity="1" stroke="#000000" stroke-opacity="1" stroke-width="3.072"/>
<circle clip-path="url(#clip322)" cx="1552.58" cy="964.775" r="14.4" fill="#0000ff" fill-rule="evenodd" fill-opacity="1" stroke="#000000" stroke-opacity="1" stroke-width="3.072"/>
<circle clip-path="url(#clip322)" cx="1589.89" cy="1058.36" r="14.4" fill="#0000ff" fill-rule="evenodd" fill-opacity="1" stroke="#000000" stroke-opacity="1" stroke-width="3.072"/>
<circle clip-path="url(#clip322)" cx="1597.04" cy="1341.21" r="14.4" fill="#0000ff" fill-rule="evenodd" fill-opacity="1" stroke="#000000" stroke-opacity="1" stroke-width="3.072"/>
<circle clip-path="url(#clip322)" cx="1622.68" cy="1185.06" r="14.4" fill="#0000ff" fill-rule="evenodd" fill-opacity="1" stroke="#000000" stroke-opacity="1" stroke-width="3.072"/>
<circle clip-path="url(#clip322)" cx="1639.94" cy="925.519" r="14.4" fill="#0000ff" fill-rule="evenodd" fill-opacity="1" stroke="#000000" stroke-opacity="1" stroke-width="3.072"/>
<circle clip-path="url(#clip322)" cx="1683.98" cy="904.052" r="14.4" fill="#0000ff" fill-rule="evenodd" fill-opacity="1" stroke="#000000" stroke-opacity="1" stroke-width="3.072"/>
<circle clip-path="url(#clip322)" cx="1689.83" cy="1184.13" r="14.4" fill="#0000ff" fill-rule="evenodd" fill-opacity="1" stroke="#000000" stroke-opacity="1" stroke-width="3.072"/>
<circle clip-path="url(#clip322)" cx="1692.87" cy="982.746" r="14.4" fill="#0000ff" fill-rule="evenodd" fill-opacity="1" stroke="#000000" stroke-opacity="1" stroke-width="3.072"/>
<circle clip-path="url(#clip322)" cx="1711.24" cy="880.488" r="14.4" fill="#0000ff" fill-rule="evenodd" fill-opacity="1" stroke="#000000" stroke-opacity="1" stroke-width="3.072"/>
<circle clip-path="url(#clip322)" cx="1724.83" cy="1070.95" r="14.4" fill="#0000ff" fill-rule="evenodd" fill-opacity="1" stroke="#000000" stroke-opacity="1" stroke-width="3.072"/>
<circle clip-path="url(#clip322)" cx="1736.38" cy="1104.92" r="14.4" fill="#0000ff" fill-rule="evenodd" fill-opacity="1" stroke="#000000" stroke-opacity="1" stroke-width="3.072"/>
<circle clip-path="url(#clip322)" cx="1738.64" cy="778.165" r="14.4" fill="#0000ff" fill-rule="evenodd" fill-opacity="1" stroke="#000000" stroke-opacity="1" stroke-width="3.072"/>
<circle clip-path="url(#clip322)" cx="1750.79" cy="1223.65" r="14.4" fill="#0000ff" fill-rule="evenodd" fill-opacity="1" stroke="#000000" stroke-opacity="1" stroke-width="3.072"/>
<circle clip-path="url(#clip322)" cx="1755.98" cy="86.1831" r="14.4" fill="#ff0000" fill-rule="evenodd" fill-opacity="1" stroke="#000000" stroke-opacity="1" stroke-width="3.072"/>
<circle clip-path="url(#clip322)" cx="1786.41" cy="942.805" r="14.4" fill="#0000ff" fill-rule="evenodd" fill-opacity="1" stroke="#000000" stroke-opacity="1" stroke-width="3.072"/>
<circle clip-path="url(#clip322)" cx="1991.45" cy="656.818" r="14.4" fill="#0000ff" fill-rule="evenodd" fill-opacity="1" stroke="#000000" stroke-opacity="1" stroke-width="3.072"/>
<circle clip-path="url(#clip322)" cx="2026.46" cy="200.516" r="14.4" fill="#ff0000" fill-rule="evenodd" fill-opacity="1" stroke="#000000" stroke-opacity="1" stroke-width="3.072"/>
<circle clip-path="url(#clip322)" cx="2114.63" cy="845.44" r="14.4" fill="#0000ff" fill-rule="evenodd" fill-opacity="1" stroke="#000000" stroke-opacity="1" stroke-width="3.072"/>
<circle clip-path="url(#clip322)" cx="2198.32" cy="200.516" r="14.4" fill="#ff0000" fill-rule="evenodd" fill-opacity="1" stroke="#000000" stroke-opacity="1" stroke-width="3.072"/>
<polyline clip-path="url(#clip322)" style="stroke:#e26f46; stroke-linecap:round; stroke-linejoin:round; stroke-width:16; stroke-opacity:1; fill:none" points="
  250.418,1198.14 270.093,1193.85 289.769,1189.57 309.445,1185.29 329.121,1181.01 348.797,1176.72 368.472,1172.44 388.148,1168.16 407.824,1163.88 427.5,1159.6 
  447.175,1155.31 466.851,1151.03 486.527,1146.75 506.203,1142.47 525.878,1138.18 545.554,1133.9 565.23,1129.62 584.906,1125.34 604.582,1121.06 624.257,1116.77 
  643.933,1112.49 663.609,1108.21 683.285,1103.93 702.96,1099.64 722.636,1095.36 742.312,1091.08 761.988,1086.8 781.663,1082.52 801.339,1078.23 821.015,1073.95 
  840.691,1069.67 860.367,1065.39 880.042,1061.11 899.718,1056.82 919.394,1052.54 939.07,1048.26 958.745,1043.98 978.421,1039.69 998.097,1035.41 1017.77,1031.13 
  1037.45,1026.85 1057.12,1022.57 1076.8,1018.28 1096.48,1014 1116.15,1009.72 1135.83,1005.44 1155.5,1001.15 1175.18,996.872 1194.85,992.59 1214.53,988.308 
  1234.21,984.026 1253.88,979.743 1273.56,975.461 1293.23,971.179 1312.91,966.897 1332.59,962.615 1352.26,958.333 1371.94,954.05 1391.61,949.768 1411.29,945.486 
  1430.96,941.204 1450.64,936.922 1470.32,932.639 1489.99,928.357 1509.67,924.075 1529.34,919.793 1549.02,915.511 1568.69,911.228 1588.37,906.946 1608.05,902.664 
  1627.72,898.382 1647.4,894.1 1667.07,889.817 1686.75,885.535 1706.42,881.253 1726.1,876.971 1745.78,872.689 1765.45,868.407 1785.13,864.124 1804.8,859.842 
  1824.48,855.56 1844.16,851.278 1863.83,846.996 1883.51,842.713 1903.18,838.431 1922.86,834.149 1942.53,829.867 1962.21,825.585 1981.89,821.302 2001.56,817.02 
  2021.24,812.738 2040.91,808.456 2060.59,804.174 2080.26,799.892 2099.94,795.609 2119.62,791.327 2139.29,787.045 2158.97,782.763 2178.64,778.481 2198.32,774.198 
  
  "/>
<polyline clip-path="url(#clip322)" style="stroke:#3da44d; stroke-linecap:round; stroke-linejoin:round; stroke-width:16; stroke-opacity:1; fill:none" points="
  250.418,1083.49 270.093,1082.26 289.769,1081.04 309.445,1079.82 329.121,1078.59 348.797,1077.37 368.472,1076.14 388.148,1074.92 407.824,1073.7 427.5,1072.47 
  447.175,1071.25 466.851,1070.03 486.527,1068.8 506.203,1067.58 525.878,1066.36 545.554,1065.13 565.23,1063.91 584.906,1062.68 604.582,1061.46 624.257,1060.24 
  643.933,1059.01 663.609,1057.79 683.285,1056.57 702.96,1055.34 722.636,1054.12 742.312,1052.9 761.988,1051.67 781.663,1050.45 801.339,1049.22 821.015,1048 
  840.691,1046.78 860.367,1045.55 880.042,1044.33 899.718,1043.11 919.394,1041.88 939.07,1040.66 958.745,1039.44 978.421,1038.21 998.097,1036.99 1017.77,1035.76 
  1037.45,1034.54 1057.12,1033.32 1076.8,1032.09 1096.48,1030.87 1116.15,1029.65 1135.83,1028.42 1155.5,1027.2 1175.18,1025.98 1194.85,1024.75 1214.53,1023.53 
  1234.21,1022.3 1253.88,1021.08 1273.56,1019.86 1293.23,1018.63 1312.91,1017.41 1332.59,1016.19 1352.26,1014.96 1371.94,1013.74 1391.61,1012.52 1411.29,1011.29 
  1430.96,1010.07 1450.64,1008.84 1470.32,1007.62 1489.99,1006.4 1509.67,1005.17 1529.34,1003.95 1549.02,1002.73 1568.69,1001.5 1588.37,1000.28 1608.05,999.055 
  1627.72,997.831 1647.4,996.608 1667.07,995.384 1686.75,994.16 1706.42,992.937 1726.1,991.713 1745.78,990.489 1765.45,989.266 1785.13,988.042 1804.8,986.818 
  1824.48,985.595 1844.16,984.371 1863.83,983.147 1883.51,981.924 1903.18,980.7 1922.86,979.476 1942.53,978.253 1962.21,977.029 1981.89,975.805 2001.56,974.582 
  2021.24,973.358 2040.91,972.134 2060.59,970.911 2080.26,969.687 2099.94,968.464 2119.62,967.24 2139.29,966.016 2158.97,964.793 2178.64,963.569 2198.32,962.345 
  
  "/>
<path clip-path="url(#clip320)" d="
M260.806 300.466 L537.793 300.466 L537.793 93.1056 L260.806 93.1056  Z
  " fill="#ffffff" fill-rule="evenodd" fill-opacity="1"/>
<polyline clip-path="url(#clip320)" style="stroke:#000000; stroke-linecap:round; stroke-linejoin:round; stroke-width:4; stroke-opacity:1; fill:none" points="
  260.806,300.466 537.793,300.466 537.793,93.1056 260.806,93.1056 260.806,300.466 
  "/>
<circle clip-path="url(#clip320)" cx="352.574" cy="144.946" r="23.04" fill="#0000ff" fill-rule="evenodd" fill-opacity="1" stroke="#000000" stroke-opacity="1" stroke-width="4.9152"/>
<path clip-path="url(#clip320)" d="M458.185 164.633 Q456.379 169.263 454.666 170.675 Q452.953 172.087 450.083 172.087 L446.68 172.087 L446.68 168.522 L449.18 168.522 Q450.939 168.522 451.911 167.688 Q452.884 166.855 454.064 163.753 L454.828 161.809 L444.342 136.3 L448.856 136.3 L456.958 156.577 L465.06 136.3 L469.573 136.3 L458.185 164.633 Z" fill="#000000" fill-rule="evenodd" fill-opacity="1" /><path clip-path="url(#clip320)" d="M476.865 158.29 L484.504 158.29 L484.504 131.925 L476.194 133.591 L476.194 129.332 L484.458 127.666 L489.133 127.666 L489.133 158.29 L496.772 158.29 L496.772 162.226 L476.865 162.226 L476.865 158.29 Z" fill="#000000" fill-rule="evenodd" fill-opacity="1" /><polyline clip-path="url(#clip320)" style="stroke:#e26f46; stroke-linecap:round; stroke-linejoin:round; stroke-width:16; stroke-opacity:1; fill:none" points="
  283.748,196.786 421.4,196.786 
  "/>
<path clip-path="url(#clip320)" d="M444.342 178.047 L448.601 178.047 L448.601 214.066 L444.342 214.066 L444.342 178.047 Z" fill="#000000" fill-rule="evenodd" fill-opacity="1" /><path clip-path="url(#clip320)" d="M477.698 193.117 Q479.296 190.246 481.518 188.881 Q483.74 187.515 486.749 187.515 Q490.8 187.515 492.999 190.362 Q495.198 193.186 495.198 198.417 L495.198 214.066 L490.916 214.066 L490.916 198.556 Q490.916 194.83 489.596 193.024 Q488.277 191.218 485.569 191.218 Q482.259 191.218 480.337 193.418 Q478.416 195.617 478.416 199.413 L478.416 214.066 L474.134 214.066 L474.134 198.556 Q474.134 194.806 472.814 193.024 Q471.495 191.218 468.74 191.218 Q465.476 191.218 463.555 193.441 Q461.634 195.64 461.634 199.413 L461.634 214.066 L457.351 214.066 L457.351 188.14 L461.634 188.14 L461.634 192.168 Q463.092 189.783 465.129 188.649 Q467.166 187.515 469.967 187.515 Q472.791 187.515 474.759 188.95 Q476.749 190.385 477.698 193.117 Z" fill="#000000" fill-rule="evenodd" fill-opacity="1" /><polyline clip-path="url(#clip320)" style="stroke:#3da44d; stroke-linecap:round; stroke-linejoin:round; stroke-width:16; stroke-opacity:1; fill:none" points="
  283.748,248.626 421.4,248.626 
  "/>
<path clip-path="url(#clip320)" d="M459.527 243.961 Q458.81 243.545 457.953 243.359 Q457.12 243.151 456.101 243.151 Q452.49 243.151 450.546 245.512 Q448.624 247.85 448.624 252.248 L448.624 265.906 L444.342 265.906 L444.342 239.98 L448.624 239.98 L448.624 244.008 Q449.967 241.646 452.12 240.512 Q454.273 239.355 457.351 239.355 Q457.791 239.355 458.323 239.424 Q458.856 239.471 459.504 239.586 L459.527 243.961 Z" fill="#000000" fill-rule="evenodd" fill-opacity="1" /><path clip-path="url(#clip320)" d="M463.995 229.887 L468.254 229.887 L468.254 265.906 L463.995 265.906 L463.995 229.887 Z" fill="#000000" fill-rule="evenodd" fill-opacity="1" /><path clip-path="url(#clip320)" d="M497.351 244.957 Q498.948 242.086 501.17 240.721 Q503.393 239.355 506.402 239.355 Q510.453 239.355 512.652 242.202 Q514.851 245.026 514.851 250.257 L514.851 265.906 L510.569 265.906 L510.569 250.396 Q510.569 246.67 509.249 244.864 Q507.93 243.058 505.221 243.058 Q501.911 243.058 499.99 245.258 Q498.069 247.457 498.069 251.253 L498.069 265.906 L493.786 265.906 L493.786 250.396 Q493.786 246.646 492.467 244.864 Q491.147 243.058 488.393 243.058 Q485.129 243.058 483.208 245.281 Q481.286 247.48 481.286 251.253 L481.286 265.906 L477.004 265.906 L477.004 239.98 L481.286 239.98 L481.286 244.008 Q482.745 241.623 484.782 240.489 Q486.819 239.355 489.62 239.355 Q492.444 239.355 494.411 240.79 Q496.402 242.225 497.351 244.957 Z" fill="#000000" fill-rule="evenodd" fill-opacity="1" /></svg>
