<?xml version="1.0" encoding="utf-8"?>
<svg xmlns="http://www.w3.org/2000/svg" xmlns:xlink="http://www.w3.org/1999/xlink" width="576" height="384" viewBox="0 0 2304 1536">
<defs>
  <clipPath id="clip120">
    <rect x="0" y="0" width="2304" height="1536"/>
  </clipPath>
</defs>
<path clip-path="url(#clip120)" d="
M0 1536 L2304 1536 L2304 0 L0 0  Z
  " fill="#ffffff" fill-rule="evenodd" fill-opacity="1"/>
<defs>
  <clipPath id="clip121">
    <rect x="460" y="0" width="1614" height="1536"/>
  </clipPath>
</defs>
<path clip-path="url(#clip120)" d="
M146.518 1423.09 L1104.76 1423.09 L1104.76 47.2441 L146.518 47.2441  Z
  " fill="#ffffff" fill-rule="evenodd" fill-opacity="1"/>
<defs>
  <clipPath id="clip122">
    <rect x="146" y="47" width="959" height="1377"/>
  </clipPath>
</defs>
<polyline clip-path="url(#clip122)" style="stroke:#000000; stroke-linecap:round; stroke-linejoin:round; stroke-width:2; stroke-opacity:0.1; fill:none" points="
  266.268,1423.09 266.268,47.2441 
  "/>
<polyline clip-path="url(#clip122)" style="stroke:#000000; stroke-linecap:round; stroke-linejoin:round; stroke-width:2; stroke-opacity:0.1; fill:none" points="
  459.117,1423.09 459.117,47.2441 
  "/>
<polyline clip-path="url(#clip122)" style="stroke:#000000; stroke-linecap:round; stroke-linejoin:round; stroke-width:2; stroke-opacity:0.1; fill:none" points="
  651.966,1423.09 651.966,47.2441 
  "/>
<polyline clip-path="url(#clip122)" style="stroke:#000000; stroke-linecap:round; stroke-linejoin:round; stroke-width:2; stroke-opacity:0.1; fill:none" points="
  844.815,1423.09 844.815,47.2441 
  "/>
<polyline clip-path="url(#clip122)" style="stroke:#000000; stroke-linecap:round; stroke-linejoin:round; stroke-width:2; stroke-opacity:0.1; fill:none" points="
  1037.66,1423.09 1037.66,47.2441 
  "/>
<polyline clip-path="url(#clip120)" style="stroke:#000000; stroke-linecap:round; stroke-linejoin:round; stroke-width:4; stroke-opacity:1; fill:none" points="
  146.518,1423.09 1104.76,1423.09 
  "/>
<polyline clip-path="url(#clip120)" style="stroke:#000000; stroke-linecap:round; stroke-linejoin:round; stroke-width:4; stroke-opacity:1; fill:none" points="
  266.268,1423.09 266.268,1404.19 
  "/>
<polyline clip-path="url(#clip120)" style="stroke:#000000; stroke-linecap:round; stroke-linejoin:round; stroke-width:4; stroke-opacity:1; fill:none" points="
  459.117,1423.09 459.117,1404.19 
  "/>
<polyline clip-path="url(#clip120)" style="stroke:#000000; stroke-linecap:round; stroke-linejoin:round; stroke-width:4; stroke-opacity:1; fill:none" points="
  651.966,1423.09 651.966,1404.19 
  "/>
<polyline clip-path="url(#clip120)" style="stroke:#000000; stroke-linecap:round; stroke-linejoin:round; stroke-width:4; stroke-opacity:1; fill:none" points="
  844.815,1423.09 844.815,1404.19 
  "/>
<polyline clip-path="url(#clip120)" style="stroke:#000000; stroke-linecap:round; stroke-linejoin:round; stroke-width:4; stroke-opacity:1; fill:none" points="
  1037.66,1423.09 1037.66,1404.19 
  "/>
<path clip-path="url(#clip120)" d="M236.21 1467.89 L265.886 1467.89 L265.886 1471.83 L236.21 1471.83 L236.21 1467.89 Z" fill="#000000" fill-rule="evenodd" fill-opacity="1" /><path clip-path="url(#clip120)" d="M280.006 1480.78 L296.325 1480.78 L296.325 1484.72 L274.381 1484.72 L274.381 1480.78 Q277.043 1478.03 281.626 1473.4 Q286.233 1468.75 287.413 1467.41 Q289.659 1464.88 290.538 1463.15 Q291.441 1461.39 291.441 1459.7 Q291.441 1456.94 289.497 1455.21 Q287.575 1453.47 284.473 1453.47 Q282.274 1453.47 279.821 1454.23 Q277.39 1455 274.612 1456.55 L274.612 1451.83 Q277.436 1450.69 279.89 1450.11 Q282.344 1449.53 284.381 1449.53 Q289.751 1449.53 292.946 1452.22 Q296.14 1454.91 296.14 1459.4 Q296.14 1461.53 295.33 1463.45 Q294.543 1465.34 292.436 1467.94 Q291.858 1468.61 288.756 1471.83 Q285.654 1475.02 280.006 1480.78 Z" fill="#000000" fill-rule="evenodd" fill-opacity="1" /><path clip-path="url(#clip120)" d="M428.874 1467.89 L458.55 1467.89 L458.55 1471.83 L428.874 1471.83 L428.874 1467.89 Z" fill="#000000" fill-rule="evenodd" fill-opacity="1" /><path clip-path="url(#clip120)" d="M469.452 1480.78 L477.091 1480.78 L477.091 1454.42 L468.781 1456.09 L468.781 1451.83 L477.045 1450.16 L481.721 1450.16 L481.721 1480.78 L489.36 1480.78 L489.36 1484.72 L469.452 1484.72 L469.452 1480.78 Z" fill="#000000" fill-rule="evenodd" fill-opacity="1" /><path clip-path="url(#clip120)" d="M651.966 1453.24 Q648.355 1453.24 646.526 1456.8 Q644.72 1460.35 644.72 1467.47 Q644.72 1474.58 646.526 1478.15 Q648.355 1481.69 651.966 1481.69 Q655.6 1481.69 657.406 1478.15 Q659.234 1474.58 659.234 1467.47 Q659.234 1460.35 657.406 1456.8 Q655.6 1453.24 651.966 1453.24 M651.966 1449.53 Q657.776 1449.53 660.831 1454.14 Q663.91 1458.72 663.91 1467.47 Q663.91 1476.2 660.831 1480.81 Q657.776 1485.39 651.966 1485.39 Q646.156 1485.39 643.077 1480.81 Q640.021 1476.2 640.021 1467.47 Q640.021 1458.72 643.077 1454.14 Q646.156 1449.53 651.966 1449.53 Z" fill="#000000" fill-rule="evenodd" fill-opacity="1" /><path clip-path="url(#clip120)" d="M835.197 1480.78 L842.836 1480.78 L842.836 1454.42 L834.526 1456.09 L834.526 1451.83 L842.789 1450.16 L847.465 1450.16 L847.465 1480.78 L855.104 1480.78 L855.104 1484.72 L835.197 1484.72 L835.197 1480.78 Z" fill="#000000" fill-rule="evenodd" fill-opacity="1" /><path clip-path="url(#clip120)" d="M1032.32 1480.78 L1048.64 1480.78 L1048.64 1484.72 L1026.69 1484.72 L1026.69 1480.78 Q1029.35 1478.03 1033.94 1473.4 Q1038.54 1468.75 1039.72 1467.41 Q1041.97 1464.88 1042.85 1463.15 Q1043.75 1461.39 1043.75 1459.7 Q1043.75 1456.94 1041.81 1455.21 Q1039.89 1453.47 1036.78 1453.47 Q1034.59 1453.47 1032.13 1454.23 Q1029.7 1455 1026.92 1456.55 L1026.92 1451.83 Q1029.75 1450.69 1032.2 1450.11 Q1034.65 1449.53 1036.69 1449.53 Q1042.06 1449.53 1045.26 1452.22 Q1048.45 1454.91 1048.45 1459.4 Q1048.45 1461.53 1047.64 1463.45 Q1046.85 1465.34 1044.75 1467.94 Q1044.17 1468.61 1041.07 1471.83 Q1037.96 1475.02 1032.32 1480.78 Z" fill="#000000" fill-rule="evenodd" fill-opacity="1" /><polyline clip-path="url(#clip122)" style="stroke:#000000; stroke-linecap:round; stroke-linejoin:round; stroke-width:2; stroke-opacity:0.1; fill:none" points="
  146.518,1180.74 1104.76,1180.74 
  "/>
<polyline clip-path="url(#clip122)" style="stroke:#000000; stroke-linecap:round; stroke-linejoin:round; stroke-width:2; stroke-opacity:0.1; fill:none" points="
  146.518,920.582 1104.76,920.582 
  "/>
<polyline clip-path="url(#clip122)" style="stroke:#000000; stroke-linecap:round; stroke-linejoin:round; stroke-width:2; stroke-opacity:0.1; fill:none" points="
  146.518,660.424 1104.76,660.424 
  "/>
<polyline clip-path="url(#clip122)" style="stroke:#000000; stroke-linecap:round; stroke-linejoin:round; stroke-width:2; stroke-opacity:0.1; fill:none" points="
  146.518,400.265 1104.76,400.265 
  "/>
<polyline clip-path="url(#clip122)" style="stroke:#000000; stroke-linecap:round; stroke-linejoin:round; stroke-width:2; stroke-opacity:0.1; fill:none" points="
  146.518,140.106 1104.76,140.106 
  "/>
<polyline clip-path="url(#clip120)" style="stroke:#000000; stroke-linecap:round; stroke-linejoin:round; stroke-width:4; stroke-opacity:1; fill:none" points="
  146.518,1423.09 146.518,47.2441 
  "/>
<polyline clip-path="url(#clip120)" style="stroke:#000000; stroke-linecap:round; stroke-linejoin:round; stroke-width:4; stroke-opacity:1; fill:none" points="
  146.518,1180.74 165.416,1180.74 
  "/>
<polyline clip-path="url(#clip120)" style="stroke:#000000; stroke-linecap:round; stroke-linejoin:round; stroke-width:4; stroke-opacity:1; fill:none" points="
  146.518,920.582 165.416,920.582 
  "/>
<polyline clip-path="url(#clip120)" style="stroke:#000000; stroke-linecap:round; stroke-linejoin:round; stroke-width:4; stroke-opacity:1; fill:none" points="
  146.518,660.424 165.416,660.424 
  "/>
<polyline clip-path="url(#clip120)" style="stroke:#000000; stroke-linecap:round; stroke-linejoin:round; stroke-width:4; stroke-opacity:1; fill:none" points="
  146.518,400.265 165.416,400.265 
  "/>
<polyline clip-path="url(#clip120)" style="stroke:#000000; stroke-linecap:round; stroke-linejoin:round; stroke-width:4; stroke-opacity:1; fill:none" points="
  146.518,140.106 165.416,140.106 
  "/>
<path clip-path="url(#clip120)" d="M51.8425 1181.19 L81.5183 1181.19 L81.5183 1185.13 L51.8425 1185.13 L51.8425 1181.19 Z" fill="#000000" fill-rule="evenodd" fill-opacity="1" /><path clip-path="url(#clip120)" d="M95.6386 1194.09 L111.958 1194.09 L111.958 1198.02 L90.0136 1198.02 L90.0136 1194.09 Q92.6756 1191.33 97.2589 1186.7 Q101.865 1182.05 103.046 1180.71 Q105.291 1178.18 106.171 1176.45 Q107.074 1174.69 107.074 1173 Q107.074 1170.24 105.129 1168.51 Q103.208 1166.77 100.106 1166.77 Q97.9071 1166.77 95.4534 1167.54 Q93.0228 1168.3 90.2451 1169.85 L90.2451 1165.13 Q93.0691 1163.99 95.5228 1163.41 Q97.9765 1162.84 100.014 1162.84 Q105.384 1162.84 108.578 1165.52 Q111.773 1168.21 111.773 1172.7 Q111.773 1174.83 110.963 1176.75 Q110.176 1178.65 108.069 1181.24 Q107.49 1181.91 104.389 1185.13 Q101.287 1188.32 95.6386 1194.09 Z" fill="#000000" fill-rule="evenodd" fill-opacity="1" /><path clip-path="url(#clip120)" d="M51.4721 921.034 L81.1479 921.034 L81.1479 924.969 L51.4721 924.969 L51.4721 921.034 Z" fill="#000000" fill-rule="evenodd" fill-opacity="1" /><path clip-path="url(#clip120)" d="M92.0506 933.927 L99.6895 933.927 L99.6895 907.562 L91.3793 909.228 L91.3793 904.969 L99.6432 903.302 L104.319 903.302 L104.319 933.927 L111.958 933.927 L111.958 937.862 L92.0506 937.862 L92.0506 933.927 Z" fill="#000000" fill-rule="evenodd" fill-opacity="1" /><path clip-path="url(#clip120)" d="M100.014 646.222 Q96.4024 646.222 94.5737 649.787 Q92.7682 653.329 92.7682 660.458 Q92.7682 667.565 94.5737 671.13 Q96.4024 674.671 100.014 674.671 Q103.648 674.671 105.453 671.13 Q107.282 667.565 107.282 660.458 Q107.282 653.329 105.453 649.787 Q103.648 646.222 100.014 646.222 M100.014 642.519 Q105.824 642.519 108.879 647.125 Q111.958 651.708 111.958 660.458 Q111.958 669.185 108.879 673.792 Q105.824 678.375 100.014 678.375 Q94.2034 678.375 91.1247 673.792 Q88.0692 669.185 88.0692 660.458 Q88.0692 651.708 91.1247 647.125 Q94.2034 642.519 100.014 642.519 Z" fill="#000000" fill-rule="evenodd" fill-opacity="1" /><path clip-path="url(#clip120)" d="M92.0506 413.61 L99.6895 413.61 L99.6895 387.244 L91.3793 388.911 L91.3793 384.652 L99.6432 382.985 L104.319 382.985 L104.319 413.61 L111.958 413.61 L111.958 417.545 L92.0506 417.545 L92.0506 413.61 Z" fill="#000000" fill-rule="evenodd" fill-opacity="1" /><path clip-path="url(#clip120)" d="M95.6386 153.451 L111.958 153.451 L111.958 157.386 L90.0136 157.386 L90.0136 153.451 Q92.6756 150.697 97.2589 146.067 Q101.865 141.414 103.046 140.072 Q105.291 137.548 106.171 135.812 Q107.074 134.053 107.074 132.363 Q107.074 129.609 105.129 127.873 Q103.208 126.136 100.106 126.136 Q97.9071 126.136 95.4534 126.9 Q93.0228 127.664 90.2451 129.215 L90.2451 124.493 Q93.0691 123.359 95.5228 122.78 Q97.9765 122.201 100.014 122.201 Q105.384 122.201 108.578 124.886 Q111.773 127.572 111.773 132.062 Q111.773 134.192 110.963 136.113 Q110.176 138.011 108.069 140.604 Q107.49 141.275 104.389 144.493 Q101.287 147.687 95.6386 153.451 Z" fill="#000000" fill-rule="evenodd" fill-opacity="1" /><polyline clip-path="url(#clip122)" style="stroke:#6b9e32; stroke-linecap:round; stroke-linejoin:round; stroke-width:4; stroke-opacity:1; fill:none" points="
  173.638,1305.7 1077.64,86.1831 
  "/>
<circle clip-path="url(#clip122)" cx="173.638" cy="1384.15" r="14.4" fill="#009af9" fill-rule="evenodd" fill-opacity="1" stroke="#000000" stroke-opacity="1" stroke-width="3.072"/>
<circle clip-path="url(#clip122)" cx="281.591" cy="1042.42" r="14.4" fill="#009af9" fill-rule="evenodd" fill-opacity="1" stroke="#000000" stroke-opacity="1" stroke-width="3.072"/>
<circle clip-path="url(#clip122)" cx="374.742" cy="1039.69" r="14.4" fill="#009af9" fill-rule="evenodd" fill-opacity="1" stroke="#000000" stroke-opacity="1" stroke-width="3.072"/>
<circle clip-path="url(#clip122)" cx="386.231" cy="1022.24" r="14.4" fill="#009af9" fill-rule="evenodd" fill-opacity="1" stroke="#000000" stroke-opacity="1" stroke-width="3.072"/>
<circle clip-path="url(#clip122)" cx="413.769" cy="986.451" r="14.4" fill="#009af9" fill-rule="evenodd" fill-opacity="1" stroke="#000000" stroke-opacity="1" stroke-width="3.072"/>
<circle clip-path="url(#clip122)" cx="453.049" cy="968.149" r="14.4" fill="#009af9" fill-rule="evenodd" fill-opacity="1" stroke="#000000" stroke-opacity="1" stroke-width="3.072"/>
<circle clip-path="url(#clip122)" cx="453.29" cy="950.915" r="14.4" fill="#009af9" fill-rule="evenodd" fill-opacity="1" stroke="#000000" stroke-opacity="1" stroke-width="3.072"/>
<circle clip-path="url(#clip122)" cx="460.547" cy="928.439" r="14.4" fill="#009af9" fill-rule="evenodd" fill-opacity="1" stroke="#000000" stroke-opacity="1" stroke-width="3.072"/>
<circle clip-path="url(#clip122)" cx="470.045" cy="909.656" r="14.4" fill="#009af9" fill-rule="evenodd" fill-opacity="1" stroke="#000000" stroke-opacity="1" stroke-width="3.072"/>
<circle clip-path="url(#clip122)" cx="473.146" cy="896.295" r="14.4" fill="#009af9" fill-rule="evenodd" fill-opacity="1" stroke="#000000" stroke-opacity="1" stroke-width="3.072"/>
<circle clip-path="url(#clip122)" cx="474.221" cy="882.54" r="14.4" fill="#009af9" fill-rule="evenodd" fill-opacity="1" stroke="#000000" stroke-opacity="1" stroke-width="3.072"/>
<circle clip-path="url(#clip122)" cx="506.158" cy="879.033" r="14.4" fill="#009af9" fill-rule="evenodd" fill-opacity="1" stroke="#000000" stroke-opacity="1" stroke-width="3.072"/>
<circle clip-path="url(#clip122)" cx="512.589" cy="856.285" r="14.4" fill="#009af9" fill-rule="evenodd" fill-opacity="1" stroke="#000000" stroke-opacity="1" stroke-width="3.072"/>
<circle clip-path="url(#clip122)" cx="513.996" cy="844.023" r="14.4" fill="#009af9" fill-rule="evenodd" fill-opacity="1" stroke="#000000" stroke-opacity="1" stroke-width="3.072"/>
<circle clip-path="url(#clip122)" cx="515.222" cy="833.827" r="14.4" fill="#009af9" fill-rule="evenodd" fill-opacity="1" stroke="#000000" stroke-opacity="1" stroke-width="3.072"/>
<circle clip-path="url(#clip122)" cx="549.824" cy="831.291" r="14.4" fill="#009af9" fill-rule="evenodd" fill-opacity="1" stroke="#000000" stroke-opacity="1" stroke-width="3.072"/>
<circle clip-path="url(#clip122)" cx="555.695" cy="826.726" r="14.4" fill="#009af9" fill-rule="evenodd" fill-opacity="1" stroke="#000000" stroke-opacity="1" stroke-width="3.072"/>
<circle clip-path="url(#clip122)" cx="560.88" cy="787.443" r="14.4" fill="#009af9" fill-rule="evenodd" fill-opacity="1" stroke="#000000" stroke-opacity="1" stroke-width="3.072"/>
<circle clip-path="url(#clip122)" cx="568.339" cy="785.449" r="14.4" fill="#009af9" fill-rule="evenodd" fill-opacity="1" stroke="#000000" stroke-opacity="1" stroke-width="3.072"/>
<circle clip-path="url(#clip122)" cx="569.318" cy="775.74" r="14.4" fill="#009af9" fill-rule="evenodd" fill-opacity="1" stroke="#000000" stroke-opacity="1" stroke-width="3.072"/>
<circle clip-path="url(#clip122)" cx="588.987" cy="735.211" r="14.4" fill="#009af9" fill-rule="evenodd" fill-opacity="1" stroke="#000000" stroke-opacity="1" stroke-width="3.072"/>
<circle clip-path="url(#clip122)" cx="599.554" cy="717.081" r="14.4" fill="#009af9" fill-rule="evenodd" fill-opacity="1" stroke="#000000" stroke-opacity="1" stroke-width="3.072"/>
<circle clip-path="url(#clip122)" cx="627.752" cy="707.025" r="14.4" fill="#009af9" fill-rule="evenodd" fill-opacity="1" stroke="#000000" stroke-opacity="1" stroke-width="3.072"/>
<circle clip-path="url(#clip122)" cx="632.983" cy="703.395" r="14.4" fill="#009af9" fill-rule="evenodd" fill-opacity="1" stroke="#000000" stroke-opacity="1" stroke-width="3.072"/>
<circle clip-path="url(#clip122)" cx="641.217" cy="637.71" r="14.4" fill="#009af9" fill-rule="evenodd" fill-opacity="1" stroke="#000000" stroke-opacity="1" stroke-width="3.072"/>
<circle clip-path="url(#clip122)" cx="652.313" cy="623.935" r="14.4" fill="#009af9" fill-rule="evenodd" fill-opacity="1" stroke="#000000" stroke-opacity="1" stroke-width="3.072"/>
<circle clip-path="url(#clip122)" cx="667.848" cy="606.951" r="14.4" fill="#009af9" fill-rule="evenodd" fill-opacity="1" stroke="#000000" stroke-opacity="1" stroke-width="3.072"/>
<circle clip-path="url(#clip122)" cx="677.399" cy="598.028" r="14.4" fill="#009af9" fill-rule="evenodd" fill-opacity="1" stroke="#000000" stroke-opacity="1" stroke-width="3.072"/>
<circle clip-path="url(#clip122)" cx="682.302" cy="583.563" r="14.4" fill="#009af9" fill-rule="evenodd" fill-opacity="1" stroke="#000000" stroke-opacity="1" stroke-width="3.072"/>
<circle clip-path="url(#clip122)" cx="717.262" cy="569.534" r="14.4" fill="#009af9" fill-rule="evenodd" fill-opacity="1" stroke="#000000" stroke-opacity="1" stroke-width="3.072"/>
<circle clip-path="url(#clip122)" cx="720.158" cy="554.029" r="14.4" fill="#009af9" fill-rule="evenodd" fill-opacity="1" stroke="#000000" stroke-opacity="1" stroke-width="3.072"/>
<circle clip-path="url(#clip122)" cx="724.173" cy="537.559" r="14.4" fill="#009af9" fill-rule="evenodd" fill-opacity="1" stroke="#000000" stroke-opacity="1" stroke-width="3.072"/>
<circle clip-path="url(#clip122)" cx="735.538" cy="528.007" r="14.4" fill="#009af9" fill-rule="evenodd" fill-opacity="1" stroke="#000000" stroke-opacity="1" stroke-width="3.072"/>
<circle clip-path="url(#clip122)" cx="755.003" cy="508.252" r="14.4" fill="#009af9" fill-rule="evenodd" fill-opacity="1" stroke="#000000" stroke-opacity="1" stroke-width="3.072"/>
<circle clip-path="url(#clip122)" cx="759.411" cy="503.751" r="14.4" fill="#009af9" fill-rule="evenodd" fill-opacity="1" stroke="#000000" stroke-opacity="1" stroke-width="3.072"/>
<circle clip-path="url(#clip122)" cx="761.258" cy="474.282" r="14.4" fill="#009af9" fill-rule="evenodd" fill-opacity="1" stroke="#000000" stroke-opacity="1" stroke-width="3.072"/>
<circle clip-path="url(#clip122)" cx="771.251" cy="472.776" r="14.4" fill="#009af9" fill-rule="evenodd" fill-opacity="1" stroke="#000000" stroke-opacity="1" stroke-width="3.072"/>
<circle clip-path="url(#clip122)" cx="783.268" cy="471.235" r="14.4" fill="#009af9" fill-rule="evenodd" fill-opacity="1" stroke="#000000" stroke-opacity="1" stroke-width="3.072"/>
<circle clip-path="url(#clip122)" cx="821.577" cy="452.974" r="14.4" fill="#009af9" fill-rule="evenodd" fill-opacity="1" stroke="#000000" stroke-opacity="1" stroke-width="3.072"/>
<circle clip-path="url(#clip122)" cx="822.958" cy="440.585" r="14.4" fill="#009af9" fill-rule="evenodd" fill-opacity="1" stroke="#000000" stroke-opacity="1" stroke-width="3.072"/>
<circle clip-path="url(#clip122)" cx="824.559" cy="433.818" r="14.4" fill="#009af9" fill-rule="evenodd" fill-opacity="1" stroke="#000000" stroke-opacity="1" stroke-width="3.072"/>
<circle clip-path="url(#clip122)" cx="858.913" cy="431.813" r="14.4" fill="#009af9" fill-rule="evenodd" fill-opacity="1" stroke="#000000" stroke-opacity="1" stroke-width="3.072"/>
<circle clip-path="url(#clip122)" cx="864.017" cy="385.994" r="14.4" fill="#009af9" fill-rule="evenodd" fill-opacity="1" stroke="#000000" stroke-opacity="1" stroke-width="3.072"/>
<circle clip-path="url(#clip122)" cx="886.853" cy="354.219" r="14.4" fill="#009af9" fill-rule="evenodd" fill-opacity="1" stroke="#000000" stroke-opacity="1" stroke-width="3.072"/>
<circle clip-path="url(#clip122)" cx="895.263" cy="346.526" r="14.4" fill="#009af9" fill-rule="evenodd" fill-opacity="1" stroke="#000000" stroke-opacity="1" stroke-width="3.072"/>
<circle clip-path="url(#clip122)" cx="906.817" cy="341.852" r="14.4" fill="#009af9" fill-rule="evenodd" fill-opacity="1" stroke="#000000" stroke-opacity="1" stroke-width="3.072"/>
<circle clip-path="url(#clip122)" cx="928.11" cy="293.952" r="14.4" fill="#009af9" fill-rule="evenodd" fill-opacity="1" stroke="#000000" stroke-opacity="1" stroke-width="3.072"/>
<circle clip-path="url(#clip122)" cx="930.347" cy="252.778" r="14.4" fill="#009af9" fill-rule="evenodd" fill-opacity="1" stroke="#000000" stroke-opacity="1" stroke-width="3.072"/>
<circle clip-path="url(#clip122)" cx="1017.27" cy="185.803" r="14.4" fill="#009af9" fill-rule="evenodd" fill-opacity="1" stroke="#000000" stroke-opacity="1" stroke-width="3.072"/>
<circle clip-path="url(#clip122)" cx="1077.64" cy="137.788" r="14.4" fill="#009af9" fill-rule="evenodd" fill-opacity="1" stroke="#000000" stroke-opacity="1" stroke-width="3.072"/>
<path clip-path="url(#clip120)" d="
M1298.52 1423.09 L2256.76 1423.09 L2256.76 47.2441 L1298.52 47.2441  Z
  " fill="#ffffff" fill-rule="evenodd" fill-opacity="1"/>
<defs>
  <clipPath id="clip123">
    <rect x="1298" y="47" width="959" height="1377"/>
  </clipPath>
</defs>
<polyline clip-path="url(#clip123)" style="stroke:#000000; stroke-linecap:round; stroke-linejoin:round; stroke-width:2; stroke-opacity:0.1; fill:none" points="
  1473.17,1423.09 1473.17,47.2441 
  "/>
<polyline clip-path="url(#clip123)" style="stroke:#000000; stroke-linecap:round; stroke-linejoin:round; stroke-width:2; stroke-opacity:0.1; fill:none" points="
  1661.87,1423.09 1661.87,47.2441 
  "/>
<polyline clip-path="url(#clip123)" style="stroke:#000000; stroke-linecap:round; stroke-linejoin:round; stroke-width:2; stroke-opacity:0.1; fill:none" points="
  1850.56,1423.09 1850.56,47.2441 
  "/>
<polyline clip-path="url(#clip123)" style="stroke:#000000; stroke-linecap:round; stroke-linejoin:round; stroke-width:2; stroke-opacity:0.1; fill:none" points="
  2039.26,1423.09 2039.26,47.2441 
  "/>
<polyline clip-path="url(#clip123)" style="stroke:#000000; stroke-linecap:round; stroke-linejoin:round; stroke-width:2; stroke-opacity:0.1; fill:none" points="
  2227.95,1423.09 2227.95,47.2441 
  "/>
<polyline clip-path="url(#clip120)" style="stroke:#000000; stroke-linecap:round; stroke-linejoin:round; stroke-width:4; stroke-opacity:1; fill:none" points="
  1298.52,1423.09 2256.76,1423.09 
  "/>
<polyline clip-path="url(#clip120)" style="stroke:#000000; stroke-linecap:round; stroke-linejoin:round; stroke-width:4; stroke-opacity:1; fill:none" points="
  1473.17,1423.09 1473.17,1404.19 
  "/>
<polyline clip-path="url(#clip120)" style="stroke:#000000; stroke-linecap:round; stroke-linejoin:round; stroke-width:4; stroke-opacity:1; fill:none" points="
  1661.87,1423.09 1661.87,1404.19 
  "/>
<polyline clip-path="url(#clip120)" style="stroke:#000000; stroke-linecap:round; stroke-linejoin:round; stroke-width:4; stroke-opacity:1; fill:none" points="
  1850.56,1423.09 1850.56,1404.19 
  "/>
<polyline clip-path="url(#clip120)" style="stroke:#000000; stroke-linecap:round; stroke-linejoin:round; stroke-width:4; stroke-opacity:1; fill:none" points="
  2039.26,1423.09 2039.26,1404.19 
  "/>
<polyline clip-path="url(#clip120)" style="stroke:#000000; stroke-linecap:round; stroke-linejoin:round; stroke-width:4; stroke-opacity:1; fill:none" points="
  2227.95,1423.09 2227.95,1404.19 
  "/>
<path clip-path="url(#clip120)" d="M1443.11 1467.89 L1472.79 1467.89 L1472.79 1471.83 L1443.11 1471.83 L1443.11 1467.89 Z" fill="#000000" fill-rule="evenodd" fill-opacity="1" /><path clip-path="url(#clip120)" d="M1486.91 1480.78 L1503.23 1480.78 L1503.23 1484.72 L1481.29 1484.72 L1481.29 1480.78 Q1483.95 1478.03 1488.53 1473.4 Q1493.14 1468.75 1494.32 1467.41 Q1496.56 1464.88 1497.44 1463.15 Q1498.35 1461.39 1498.35 1459.7 Q1498.35 1456.94 1496.4 1455.21 Q1494.48 1453.47 1491.38 1453.47 Q1489.18 1453.47 1486.72 1454.23 Q1484.29 1455 1481.52 1456.55 L1481.52 1451.83 Q1484.34 1450.69 1486.79 1450.11 Q1489.25 1449.53 1491.28 1449.53 Q1496.66 1449.53 1499.85 1452.22 Q1503.04 1454.91 1503.04 1459.4 Q1503.04 1461.53 1502.23 1463.45 Q1501.45 1465.34 1499.34 1467.94 Q1498.76 1468.61 1495.66 1471.83 Q1492.56 1475.02 1486.91 1480.78 Z" fill="#000000" fill-rule="evenodd" fill-opacity="1" /><path clip-path="url(#clip120)" d="M1631.62 1467.89 L1661.3 1467.89 L1661.3 1471.83 L1631.62 1471.83 L1631.62 1467.89 Z" fill="#000000" fill-rule="evenodd" fill-opacity="1" /><path clip-path="url(#clip120)" d="M1672.2 1480.78 L1679.84 1480.78 L1679.84 1454.42 L1671.53 1456.09 L1671.53 1451.83 L1679.8 1450.16 L1684.47 1450.16 L1684.47 1480.78 L1692.11 1480.78 L1692.11 1484.72 L1672.2 1484.72 L1672.2 1480.78 Z" fill="#000000" fill-rule="evenodd" fill-opacity="1" /><path clip-path="url(#clip120)" d="M1850.56 1453.24 Q1846.95 1453.24 1845.12 1456.8 Q1843.32 1460.35 1843.32 1467.47 Q1843.32 1474.58 1845.12 1478.15 Q1846.95 1481.69 1850.56 1481.69 Q1854.2 1481.69 1856 1478.15 Q1857.83 1474.58 1857.83 1467.47 Q1857.83 1460.35 1856 1456.8 Q1854.2 1453.24 1850.56 1453.24 M1850.56 1449.53 Q1856.37 1449.53 1859.43 1454.14 Q1862.51 1458.72 1862.51 1467.47 Q1862.51 1476.2 1859.43 1480.81 Q1856.37 1485.39 1850.56 1485.39 Q1844.75 1485.39 1841.67 1480.81 Q1838.62 1476.2 1838.62 1467.47 Q1838.62 1458.72 1841.67 1454.14 Q1844.75 1449.53 1850.56 1449.53 Z" fill="#000000" fill-rule="evenodd" fill-opacity="1" /><path clip-path="url(#clip120)" d="M2029.64 1480.78 L2037.28 1480.78 L2037.28 1454.42 L2028.97 1456.09 L2028.97 1451.83 L2037.23 1450.16 L2041.91 1450.16 L2041.91 1480.78 L2049.55 1480.78 L2049.55 1484.72 L2029.64 1484.72 L2029.64 1480.78 Z" fill="#000000" fill-rule="evenodd" fill-opacity="1" /><path clip-path="url(#clip120)" d="M2222.61 1480.78 L2238.93 1480.78 L2238.93 1484.72 L2216.98 1484.72 L2216.98 1480.78 Q2219.64 1478.03 2224.23 1473.4 Q2228.83 1468.75 2230.01 1467.41 Q2232.26 1464.88 2233.14 1463.15 Q2234.04 1461.39 2234.04 1459.7 Q2234.04 1456.94 2232.1 1455.21 Q2230.18 1453.47 2227.08 1453.47 Q2224.88 1453.47 2222.42 1454.23 Q2219.99 1455 2217.21 1456.55 L2217.21 1451.83 Q2220.04 1450.69 2222.49 1450.11 Q2224.95 1449.53 2226.98 1449.53 Q2232.35 1449.53 2235.55 1452.22 Q2238.74 1454.91 2238.74 1459.4 Q2238.74 1461.53 2237.93 1463.45 Q2237.14 1465.34 2235.04 1467.94 Q2234.46 1468.61 2231.36 1471.83 Q2228.26 1475.02 2222.61 1480.78 Z" fill="#000000" fill-rule="evenodd" fill-opacity="1" /><polyline clip-path="url(#clip123)" style="stroke:#000000; stroke-linecap:round; stroke-linejoin:round; stroke-width:2; stroke-opacity:0.1; fill:none" points="
  1298.52,1172.32 2256.76,1172.32 
  "/>
<polyline clip-path="url(#clip123)" style="stroke:#000000; stroke-linecap:round; stroke-linejoin:round; stroke-width:2; stroke-opacity:0.1; fill:none" points="
  1298.52,901.389 2256.76,901.389 
  "/>
<polyline clip-path="url(#clip123)" style="stroke:#000000; stroke-linecap:round; stroke-linejoin:round; stroke-width:2; stroke-opacity:0.1; fill:none" points="
  1298.52,630.458 2256.76,630.458 
  "/>
<polyline clip-path="url(#clip123)" style="stroke:#000000; stroke-linecap:round; stroke-linejoin:round; stroke-width:2; stroke-opacity:0.1; fill:none" points="
  1298.52,359.527 2256.76,359.527 
  "/>
<polyline clip-path="url(#clip123)" style="stroke:#000000; stroke-linecap:round; stroke-linejoin:round; stroke-width:2; stroke-opacity:0.1; fill:none" points="
  1298.52,88.5969 2256.76,88.5969 
  "/>
<polyline clip-path="url(#clip120)" style="stroke:#000000; stroke-linecap:round; stroke-linejoin:round; stroke-width:4; stroke-opacity:1; fill:none" points="
  1298.52,1423.09 1298.52,47.2441 
  "/>
<polyline clip-path="url(#clip120)" style="stroke:#000000; stroke-linecap:round; stroke-linejoin:round; stroke-width:4; stroke-opacity:1; fill:none" points="
  1298.52,1172.32 1317.42,1172.32 
  "/>
<polyline clip-path="url(#clip120)" style="stroke:#000000; stroke-linecap:round; stroke-linejoin:round; stroke-width:4; stroke-opacity:1; fill:none" points="
  1298.52,901.389 1317.42,901.389 
  "/>
<polyline clip-path="url(#clip120)" style="stroke:#000000; stroke-linecap:round; stroke-linejoin:round; stroke-width:4; stroke-opacity:1; fill:none" points="
  1298.52,630.458 1317.42,630.458 
  "/>
<polyline clip-path="url(#clip120)" style="stroke:#000000; stroke-linecap:round; stroke-linejoin:round; stroke-width:4; stroke-opacity:1; fill:none" points="
  1298.52,359.527 1317.42,359.527 
  "/>
<polyline clip-path="url(#clip120)" style="stroke:#000000; stroke-linecap:round; stroke-linejoin:round; stroke-width:4; stroke-opacity:1; fill:none" points="
  1298.52,88.5969 1317.42,88.5969 
  "/>
<path clip-path="url(#clip120)" d="M1203.84 1172.77 L1233.52 1172.77 L1233.52 1176.71 L1203.84 1176.71 L1203.84 1172.77 Z" fill="#000000" fill-rule="evenodd" fill-opacity="1" /><path clip-path="url(#clip120)" d="M1247.64 1185.66 L1263.96 1185.66 L1263.96 1189.6 L1242.01 1189.6 L1242.01 1185.66 Q1244.68 1182.91 1249.26 1178.28 Q1253.87 1173.63 1255.05 1172.28 Q1257.29 1169.76 1258.17 1168.03 Q1259.07 1166.27 1259.07 1164.58 Q1259.07 1161.82 1257.13 1160.09 Q1255.21 1158.35 1252.11 1158.35 Q1249.91 1158.35 1247.45 1159.11 Q1245.02 1159.88 1242.25 1161.43 L1242.25 1156.71 Q1245.07 1155.57 1247.52 1154.99 Q1249.98 1154.41 1252.01 1154.41 Q1257.38 1154.41 1260.58 1157.1 Q1263.77 1159.78 1263.77 1164.28 Q1263.77 1166.4 1262.96 1168.33 Q1262.18 1170.22 1260.07 1172.82 Q1259.49 1173.49 1256.39 1176.71 Q1253.29 1179.9 1247.64 1185.66 Z" fill="#000000" fill-rule="evenodd" fill-opacity="1" /><path clip-path="url(#clip120)" d="M1203.47 901.84 L1233.15 901.84 L1233.15 905.775 L1203.47 905.775 L1203.47 901.84 Z" fill="#000000" fill-rule="evenodd" fill-opacity="1" /><path clip-path="url(#clip120)" d="M1244.05 914.733 L1251.69 914.733 L1251.69 888.368 L1243.38 890.034 L1243.38 885.775 L1251.64 884.109 L1256.32 884.109 L1256.32 914.733 L1263.96 914.733 L1263.96 918.669 L1244.05 918.669 L1244.05 914.733 Z" fill="#000000" fill-rule="evenodd" fill-opacity="1" /><path clip-path="url(#clip120)" d="M1252.01 616.257 Q1248.4 616.257 1246.57 619.821 Q1244.77 623.363 1244.77 630.493 Q1244.77 637.599 1246.57 641.164 Q1248.4 644.706 1252.01 644.706 Q1255.65 644.706 1257.45 641.164 Q1259.28 637.599 1259.28 630.493 Q1259.28 623.363 1257.45 619.821 Q1255.65 616.257 1252.01 616.257 M1252.01 612.553 Q1257.82 612.553 1260.88 617.159 Q1263.96 621.743 1263.96 630.493 Q1263.96 639.22 1260.88 643.826 Q1257.82 648.409 1252.01 648.409 Q1246.2 648.409 1243.12 643.826 Q1240.07 639.22 1240.07 630.493 Q1240.07 621.743 1243.12 617.159 Q1246.2 612.553 1252.01 612.553 Z" fill="#000000" fill-rule="evenodd" fill-opacity="1" /><path clip-path="url(#clip120)" d="M1244.05 372.872 L1251.69 372.872 L1251.69 346.507 L1243.38 348.173 L1243.38 343.914 L1251.64 342.247 L1256.32 342.247 L1256.32 372.872 L1263.96 372.872 L1263.96 376.807 L1244.05 376.807 L1244.05 372.872 Z" fill="#000000" fill-rule="evenodd" fill-opacity="1" /><path clip-path="url(#clip120)" d="M1247.64 101.942 L1263.96 101.942 L1263.96 105.877 L1242.01 105.877 L1242.01 101.942 Q1244.68 99.1872 1249.26 94.5575 Q1253.87 89.9048 1255.05 88.5622 Q1257.29 86.0391 1258.17 84.303 Q1259.07 82.5437 1259.07 80.8539 Q1259.07 78.0993 1257.13 76.3632 Q1255.21 74.6271 1252.11 74.6271 Q1249.91 74.6271 1247.45 75.391 Q1245.02 76.1549 1242.25 77.7058 L1242.25 72.9836 Q1245.07 71.8493 1247.52 71.2706 Q1249.98 70.6919 1252.01 70.6919 Q1257.38 70.6919 1260.58 73.3771 Q1263.77 76.0623 1263.77 80.553 Q1263.77 82.6826 1262.96 84.6039 Q1262.18 86.502 1260.07 89.0946 Q1259.49 89.7659 1256.39 92.9835 Q1253.29 96.1779 1247.64 101.942 Z" fill="#000000" fill-rule="evenodd" fill-opacity="1" /><polyline clip-path="url(#clip123)" style="stroke:#6b9e32; stroke-linecap:round; stroke-linejoin:round; stroke-width:4; stroke-opacity:1; fill:none" points="
  1325.64,1384.15 2229.64,86.1831 
  "/>
<circle clip-path="url(#clip123)" cx="1325.64" cy="1214.73" r="14.4" fill="#009af9" fill-rule="evenodd" fill-opacity="1" stroke="#000000" stroke-opacity="1" stroke-width="3.072"/>
<circle clip-path="url(#clip123)" cx="1573.5" cy="1199.05" r="14.4" fill="#009af9" fill-rule="evenodd" fill-opacity="1" stroke="#000000" stroke-opacity="1" stroke-width="3.072"/>
<circle clip-path="url(#clip123)" cx="1575.48" cy="1026.57" r="14.4" fill="#009af9" fill-rule="evenodd" fill-opacity="1" stroke="#000000" stroke-opacity="1" stroke-width="3.072"/>
<circle clip-path="url(#clip123)" cx="1588.13" cy="994.513" r="14.4" fill="#009af9" fill-rule="evenodd" fill-opacity="1" stroke="#000000" stroke-opacity="1" stroke-width="3.072"/>
<circle clip-path="url(#clip123)" cx="1614.09" cy="990.508" r="14.4" fill="#009af9" fill-rule="evenodd" fill-opacity="1" stroke="#000000" stroke-opacity="1" stroke-width="3.072"/>
<circle clip-path="url(#clip123)" cx="1627.37" cy="964.115" r="14.4" fill="#009af9" fill-rule="evenodd" fill-opacity="1" stroke="#000000" stroke-opacity="1" stroke-width="3.072"/>
<circle clip-path="url(#clip123)" cx="1639.87" cy="918.322" r="14.4" fill="#009af9" fill-rule="evenodd" fill-opacity="1" stroke="#000000" stroke-opacity="1" stroke-width="3.072"/>
<circle clip-path="url(#clip123)" cx="1656.17" cy="868.133" r="14.4" fill="#009af9" fill-rule="evenodd" fill-opacity="1" stroke="#000000" stroke-opacity="1" stroke-width="3.072"/>
<circle clip-path="url(#clip123)" cx="1669.79" cy="853.455" r="14.4" fill="#009af9" fill-rule="evenodd" fill-opacity="1" stroke="#000000" stroke-opacity="1" stroke-width="3.072"/>
<circle clip-path="url(#clip123)" cx="1679.48" cy="853.413" r="14.4" fill="#009af9" fill-rule="evenodd" fill-opacity="1" stroke="#000000" stroke-opacity="1" stroke-width="3.072"/>
<circle clip-path="url(#clip123)" cx="1689.46" cy="843.069" r="14.4" fill="#009af9" fill-rule="evenodd" fill-opacity="1" stroke="#000000" stroke-opacity="1" stroke-width="3.072"/>
<circle clip-path="url(#clip123)" cx="1692" cy="831.339" r="14.4" fill="#009af9" fill-rule="evenodd" fill-opacity="1" stroke="#000000" stroke-opacity="1" stroke-width="3.072"/>
<circle clip-path="url(#clip123)" cx="1708.5" cy="827.98" r="14.4" fill="#009af9" fill-rule="evenodd" fill-opacity="1" stroke="#000000" stroke-opacity="1" stroke-width="3.072"/>
<circle clip-path="url(#clip123)" cx="1717.4" cy="824.631" r="14.4" fill="#009af9" fill-rule="evenodd" fill-opacity="1" stroke="#000000" stroke-opacity="1" stroke-width="3.072"/>
<circle clip-path="url(#clip123)" cx="1724.79" cy="818.606" r="14.4" fill="#009af9" fill-rule="evenodd" fill-opacity="1" stroke="#000000" stroke-opacity="1" stroke-width="3.072"/>
<circle clip-path="url(#clip123)" cx="1726.63" cy="817.236" r="14.4" fill="#009af9" fill-rule="evenodd" fill-opacity="1" stroke="#000000" stroke-opacity="1" stroke-width="3.072"/>
<circle clip-path="url(#clip123)" cx="1729.94" cy="814.879" r="14.4" fill="#009af9" fill-rule="evenodd" fill-opacity="1" stroke="#000000" stroke-opacity="1" stroke-width="3.072"/>
<circle clip-path="url(#clip123)" cx="1758.44" cy="795.915" r="14.4" fill="#009af9" fill-rule="evenodd" fill-opacity="1" stroke="#000000" stroke-opacity="1" stroke-width="3.072"/>
<circle clip-path="url(#clip123)" cx="1759.88" cy="756.448" r="14.4" fill="#009af9" fill-rule="evenodd" fill-opacity="1" stroke="#000000" stroke-opacity="1" stroke-width="3.072"/>
<circle clip-path="url(#clip123)" cx="1766.92" cy="741.414" r="14.4" fill="#009af9" fill-rule="evenodd" fill-opacity="1" stroke="#000000" stroke-opacity="1" stroke-width="3.072"/>
<circle clip-path="url(#clip123)" cx="1796.32" cy="719.822" r="14.4" fill="#009af9" fill-rule="evenodd" fill-opacity="1" stroke="#000000" stroke-opacity="1" stroke-width="3.072"/>
<circle clip-path="url(#clip123)" cx="1809.47" cy="713.685" r="14.4" fill="#009af9" fill-rule="evenodd" fill-opacity="1" stroke="#000000" stroke-opacity="1" stroke-width="3.072"/>
<circle clip-path="url(#clip123)" cx="1816.76" cy="686.868" r="14.4" fill="#009af9" fill-rule="evenodd" fill-opacity="1" stroke="#000000" stroke-opacity="1" stroke-width="3.072"/>
<circle clip-path="url(#clip123)" cx="1819.4" cy="678.304" r="14.4" fill="#009af9" fill-rule="evenodd" fill-opacity="1" stroke="#000000" stroke-opacity="1" stroke-width="3.072"/>
<circle clip-path="url(#clip123)" cx="1867.04" cy="660.191" r="14.4" fill="#009af9" fill-rule="evenodd" fill-opacity="1" stroke="#000000" stroke-opacity="1" stroke-width="3.072"/>
<circle clip-path="url(#clip123)" cx="1877.03" cy="638.1" r="14.4" fill="#009af9" fill-rule="evenodd" fill-opacity="1" stroke="#000000" stroke-opacity="1" stroke-width="3.072"/>
<circle clip-path="url(#clip123)" cx="1889.35" cy="617.794" r="14.4" fill="#009af9" fill-rule="evenodd" fill-opacity="1" stroke="#000000" stroke-opacity="1" stroke-width="3.072"/>
<circle clip-path="url(#clip123)" cx="1895.82" cy="611.91" r="14.4" fill="#009af9" fill-rule="evenodd" fill-opacity="1" stroke="#000000" stroke-opacity="1" stroke-width="3.072"/>
<circle clip-path="url(#clip123)" cx="1906.31" cy="590.287" r="14.4" fill="#009af9" fill-rule="evenodd" fill-opacity="1" stroke="#000000" stroke-opacity="1" stroke-width="3.072"/>
<circle clip-path="url(#clip123)" cx="1916.49" cy="569.9" r="14.4" fill="#009af9" fill-rule="evenodd" fill-opacity="1" stroke="#000000" stroke-opacity="1" stroke-width="3.072"/>
<circle clip-path="url(#clip123)" cx="1927.73" cy="565.56" r="14.4" fill="#009af9" fill-rule="evenodd" fill-opacity="1" stroke="#000000" stroke-opacity="1" stroke-width="3.072"/>
<circle clip-path="url(#clip123)" cx="1939.68" cy="543.052" r="14.4" fill="#009af9" fill-rule="evenodd" fill-opacity="1" stroke="#000000" stroke-opacity="1" stroke-width="3.072"/>
<circle clip-path="url(#clip123)" cx="1946.61" cy="491.083" r="14.4" fill="#009af9" fill-rule="evenodd" fill-opacity="1" stroke="#000000" stroke-opacity="1" stroke-width="3.072"/>
<circle clip-path="url(#clip123)" cx="1960.93" cy="482.974" r="14.4" fill="#009af9" fill-rule="evenodd" fill-opacity="1" stroke="#000000" stroke-opacity="1" stroke-width="3.072"/>
<circle clip-path="url(#clip123)" cx="1964.2" cy="473.353" r="14.4" fill="#009af9" fill-rule="evenodd" fill-opacity="1" stroke="#000000" stroke-opacity="1" stroke-width="3.072"/>
<circle clip-path="url(#clip123)" cx="1985.57" cy="464.713" r="14.4" fill="#009af9" fill-rule="evenodd" fill-opacity="1" stroke="#000000" stroke-opacity="1" stroke-width="3.072"/>
<circle clip-path="url(#clip123)" cx="1986.67" cy="434.73" r="14.4" fill="#009af9" fill-rule="evenodd" fill-opacity="1" stroke="#000000" stroke-opacity="1" stroke-width="3.072"/>
<circle clip-path="url(#clip123)" cx="1987.78" cy="384.521" r="14.4" fill="#009af9" fill-rule="evenodd" fill-opacity="1" stroke="#000000" stroke-opacity="1" stroke-width="3.072"/>
<circle clip-path="url(#clip123)" cx="2001.03" cy="373.696" r="14.4" fill="#009af9" fill-rule="evenodd" fill-opacity="1" stroke="#000000" stroke-opacity="1" stroke-width="3.072"/>
<circle clip-path="url(#clip123)" cx="2010.01" cy="371.833" r="14.4" fill="#009af9" fill-rule="evenodd" fill-opacity="1" stroke="#000000" stroke-opacity="1" stroke-width="3.072"/>
<circle clip-path="url(#clip123)" cx="2014.92" cy="330.583" r="14.4" fill="#009af9" fill-rule="evenodd" fill-opacity="1" stroke="#000000" stroke-opacity="1" stroke-width="3.072"/>
<circle clip-path="url(#clip123)" cx="2016.38" cy="291.528" r="14.4" fill="#009af9" fill-rule="evenodd" fill-opacity="1" stroke="#000000" stroke-opacity="1" stroke-width="3.072"/>
<circle clip-path="url(#clip123)" cx="2049.61" cy="290.706" r="14.4" fill="#009af9" fill-rule="evenodd" fill-opacity="1" stroke="#000000" stroke-opacity="1" stroke-width="3.072"/>
<circle clip-path="url(#clip123)" cx="2072.66" cy="276.24" r="14.4" fill="#009af9" fill-rule="evenodd" fill-opacity="1" stroke="#000000" stroke-opacity="1" stroke-width="3.072"/>
<circle clip-path="url(#clip123)" cx="2078.24" cy="263.006" r="14.4" fill="#009af9" fill-rule="evenodd" fill-opacity="1" stroke="#000000" stroke-opacity="1" stroke-width="3.072"/>
<circle clip-path="url(#clip123)" cx="2081.63" cy="241.559" r="14.4" fill="#009af9" fill-rule="evenodd" fill-opacity="1" stroke="#000000" stroke-opacity="1" stroke-width="3.072"/>
<circle clip-path="url(#clip123)" cx="2116.37" cy="237.458" r="14.4" fill="#009af9" fill-rule="evenodd" fill-opacity="1" stroke="#000000" stroke-opacity="1" stroke-width="3.072"/>
<circle clip-path="url(#clip123)" cx="2146.23" cy="220.693" r="14.4" fill="#009af9" fill-rule="evenodd" fill-opacity="1" stroke="#000000" stroke-opacity="1" stroke-width="3.072"/>
<circle clip-path="url(#clip123)" cx="2194.81" cy="208.036" r="14.4" fill="#009af9" fill-rule="evenodd" fill-opacity="1" stroke="#000000" stroke-opacity="1" stroke-width="3.072"/>
<circle clip-path="url(#clip123)" cx="2229.64" cy="136.387" r="14.4" fill="#009af9" fill-rule="evenodd" fill-opacity="1" stroke="#000000" stroke-opacity="1" stroke-width="3.072"/>
</svg>
