<?xml version="1.0" encoding="utf-8"?>
<svg xmlns="http://www.w3.org/2000/svg" xmlns:xlink="http://www.w3.org/1999/xlink" width="576" height="384" viewBox="0 0 2304 1536">
<defs>
  <clipPath id="clip510">
    <rect x="0" y="0" width="2304" height="1536"/>
  </clipPath>
</defs>
<path clip-path="url(#clip510)" d="
M0 1536 L2304 1536 L2304 0 L0 0  Z
  " fill="#ffffff" fill-rule="evenodd" fill-opacity="1"/>
<defs>
  <clipPath id="clip511">
    <rect x="460" y="0" width="1614" height="1536"/>
  </clipPath>
</defs>
<path clip-path="url(#clip510)" d="
M218.906 1359.82 L2256.76 1359.82 L2256.76 47.2441 L218.906 47.2441  Z
  " fill="#ffffff" fill-rule="evenodd" fill-opacity="1"/>
<defs>
  <clipPath id="clip512">
    <rect x="218" y="47" width="2039" height="1314"/>
  </clipPath>
</defs>
<polyline clip-path="url(#clip512)" style="stroke:#000000; stroke-linecap:round; stroke-linejoin:round; stroke-width:2; stroke-opacity:0.1; fill:none" points="
  276.581,1359.82 276.581,47.2441 
  "/>
<polyline clip-path="url(#clip512)" style="stroke:#000000; stroke-linecap:round; stroke-linejoin:round; stroke-width:2; stroke-opacity:0.1; fill:none" points="
  703.803,1359.82 703.803,47.2441 
  "/>
<polyline clip-path="url(#clip512)" style="stroke:#000000; stroke-linecap:round; stroke-linejoin:round; stroke-width:2; stroke-opacity:0.1; fill:none" points="
  1131.03,1359.82 1131.03,47.2441 
  "/>
<polyline clip-path="url(#clip512)" style="stroke:#000000; stroke-linecap:round; stroke-linejoin:round; stroke-width:2; stroke-opacity:0.1; fill:none" points="
  1558.25,1359.82 1558.25,47.2441 
  "/>
<polyline clip-path="url(#clip512)" style="stroke:#000000; stroke-linecap:round; stroke-linejoin:round; stroke-width:2; stroke-opacity:0.1; fill:none" points="
  1985.47,1359.82 1985.47,47.2441 
  "/>
<polyline clip-path="url(#clip510)" style="stroke:#000000; stroke-linecap:round; stroke-linejoin:round; stroke-width:4; stroke-opacity:1; fill:none" points="
  218.906,1359.82 2256.76,1359.82 
  "/>
<polyline clip-path="url(#clip510)" style="stroke:#000000; stroke-linecap:round; stroke-linejoin:round; stroke-width:4; stroke-opacity:1; fill:none" points="
  276.581,1359.82 276.581,1340.92 
  "/>
<polyline clip-path="url(#clip510)" style="stroke:#000000; stroke-linecap:round; stroke-linejoin:round; stroke-width:4; stroke-opacity:1; fill:none" points="
  703.803,1359.82 703.803,1340.92 
  "/>
<polyline clip-path="url(#clip510)" style="stroke:#000000; stroke-linecap:round; stroke-linejoin:round; stroke-width:4; stroke-opacity:1; fill:none" points="
  1131.03,1359.82 1131.03,1340.92 
  "/>
<polyline clip-path="url(#clip510)" style="stroke:#000000; stroke-linecap:round; stroke-linejoin:round; stroke-width:4; stroke-opacity:1; fill:none" points="
  1558.25,1359.82 1558.25,1340.92 
  "/>
<polyline clip-path="url(#clip510)" style="stroke:#000000; stroke-linecap:round; stroke-linejoin:round; stroke-width:4; stroke-opacity:1; fill:none" points="
  1985.47,1359.82 1985.47,1340.92 
  "/>
<path clip-path="url(#clip510)" d="M243.734 1417.52 L251.373 1417.52 L251.373 1391.15 L243.063 1392.82 L243.063 1388.56 L251.327 1386.89 L256.003 1386.89 L256.003 1417.52 L263.642 1417.52 L263.642 1421.45 L243.734 1421.45 L243.734 1417.52 Z" fill="#000000" fill-rule="evenodd" fill-opacity="1" /><path clip-path="url(#clip510)" d="M273.086 1415.57 L277.97 1415.57 L277.97 1421.45 L273.086 1421.45 L273.086 1415.57 Z" fill="#000000" fill-rule="evenodd" fill-opacity="1" /><path clip-path="url(#clip510)" d="M298.155 1389.97 Q294.544 1389.97 292.715 1393.54 Q290.91 1397.08 290.91 1404.21 Q290.91 1411.31 292.715 1414.88 Q294.544 1418.42 298.155 1418.42 Q301.789 1418.42 303.595 1414.88 Q305.424 1411.31 305.424 1404.21 Q305.424 1397.08 303.595 1393.54 Q301.789 1389.97 298.155 1389.97 M298.155 1386.27 Q303.965 1386.27 307.021 1390.87 Q310.1 1395.46 310.1 1404.21 Q310.1 1412.93 307.021 1417.54 Q303.965 1422.12 298.155 1422.12 Q292.345 1422.12 289.266 1417.54 Q286.211 1412.93 286.211 1404.21 Q286.211 1395.46 289.266 1390.87 Q292.345 1386.27 298.155 1386.27 Z" fill="#000000" fill-rule="evenodd" fill-opacity="1" /><path clip-path="url(#clip510)" d="M671.755 1417.52 L679.394 1417.52 L679.394 1391.15 L671.084 1392.82 L671.084 1388.56 L679.348 1386.89 L684.023 1386.89 L684.023 1417.52 L691.662 1417.52 L691.662 1421.45 L671.755 1421.45 L671.755 1417.52 Z" fill="#000000" fill-rule="evenodd" fill-opacity="1" /><path clip-path="url(#clip510)" d="M701.107 1415.57 L705.991 1415.57 L705.991 1421.45 L701.107 1421.45 L701.107 1415.57 Z" fill="#000000" fill-rule="evenodd" fill-opacity="1" /><path clip-path="url(#clip510)" d="M720.204 1417.52 L736.523 1417.52 L736.523 1421.45 L714.579 1421.45 L714.579 1417.52 Q717.241 1414.76 721.824 1410.13 Q726.431 1405.48 727.611 1404.14 Q729.857 1401.61 730.736 1399.88 Q731.639 1398.12 731.639 1396.43 Q731.639 1393.67 729.694 1391.94 Q727.773 1390.2 724.671 1390.2 Q722.472 1390.2 720.019 1390.97 Q717.588 1391.73 714.81 1393.28 L714.81 1388.56 Q717.634 1387.42 720.088 1386.85 Q722.542 1386.27 724.579 1386.27 Q729.949 1386.27 733.144 1388.95 Q736.338 1391.64 736.338 1396.13 Q736.338 1398.26 735.528 1400.18 Q734.741 1402.08 732.634 1404.67 Q732.056 1405.34 728.954 1408.56 Q725.852 1411.75 720.204 1417.52 Z" fill="#000000" fill-rule="evenodd" fill-opacity="1" /><path clip-path="url(#clip510)" d="M1097.94 1417.52 L1105.57 1417.52 L1105.57 1391.15 L1097.26 1392.82 L1097.26 1388.56 L1105.53 1386.89 L1110.2 1386.89 L1110.2 1417.52 L1117.84 1417.52 L1117.84 1421.45 L1097.94 1421.45 L1097.94 1417.52 Z" fill="#000000" fill-rule="evenodd" fill-opacity="1" /><path clip-path="url(#clip510)" d="M1127.29 1415.57 L1132.17 1415.57 L1132.17 1421.45 L1127.29 1421.45 L1127.29 1415.57 Z" fill="#000000" fill-rule="evenodd" fill-opacity="1" /><path clip-path="url(#clip510)" d="M1155.2 1390.97 L1143.4 1409.41 L1155.2 1409.41 L1155.2 1390.97 M1153.98 1386.89 L1159.86 1386.89 L1159.86 1409.41 L1164.79 1409.41 L1164.79 1413.3 L1159.86 1413.3 L1159.86 1421.45 L1155.2 1421.45 L1155.2 1413.3 L1139.6 1413.3 L1139.6 1408.79 L1153.98 1386.89 Z" fill="#000000" fill-rule="evenodd" fill-opacity="1" /><path clip-path="url(#clip510)" d="M1525.32 1417.52 L1532.96 1417.52 L1532.96 1391.15 L1524.65 1392.82 L1524.65 1388.56 L1532.91 1386.89 L1537.59 1386.89 L1537.59 1417.52 L1545.23 1417.52 L1545.23 1421.45 L1525.32 1421.45 L1525.32 1417.52 Z" fill="#000000" fill-rule="evenodd" fill-opacity="1" /><path clip-path="url(#clip510)" d="M1554.67 1415.57 L1559.56 1415.57 L1559.56 1421.45 L1554.67 1421.45 L1554.67 1415.57 Z" fill="#000000" fill-rule="evenodd" fill-opacity="1" /><path clip-path="url(#clip510)" d="M1580.32 1402.31 Q1577.17 1402.31 1575.32 1404.46 Q1573.49 1406.61 1573.49 1410.36 Q1573.49 1414.09 1575.32 1416.27 Q1577.17 1418.42 1580.32 1418.42 Q1583.47 1418.42 1585.3 1416.27 Q1587.15 1414.09 1587.15 1410.36 Q1587.15 1406.61 1585.3 1404.46 Q1583.47 1402.31 1580.32 1402.31 M1589.6 1387.66 L1589.6 1391.91 Q1587.84 1391.08 1586.04 1390.64 Q1584.25 1390.2 1582.5 1390.2 Q1577.87 1390.2 1575.41 1393.33 Q1572.98 1396.45 1572.63 1402.77 Q1574 1400.76 1576.06 1399.69 Q1578.12 1398.6 1580.6 1398.6 Q1585.81 1398.6 1588.81 1401.78 Q1591.85 1404.92 1591.85 1410.36 Q1591.85 1415.69 1588.7 1418.91 Q1585.55 1422.12 1580.32 1422.12 Q1574.32 1422.12 1571.15 1417.54 Q1567.98 1412.93 1567.98 1404.21 Q1567.98 1396.01 1571.87 1391.15 Q1575.76 1386.27 1582.31 1386.27 Q1584.07 1386.27 1585.85 1386.61 Q1587.66 1386.96 1589.6 1387.66 Z" fill="#000000" fill-rule="evenodd" fill-opacity="1" /><path clip-path="url(#clip510)" d="M1952.67 1417.52 L1960.31 1417.52 L1960.31 1391.15 L1952 1392.82 L1952 1388.56 L1960.26 1386.89 L1964.94 1386.89 L1964.94 1417.52 L1972.58 1417.52 L1972.58 1421.45 L1952.67 1421.45 L1952.67 1417.52 Z" fill="#000000" fill-rule="evenodd" fill-opacity="1" /><path clip-path="url(#clip510)" d="M1982.02 1415.57 L1986.91 1415.57 L1986.91 1421.45 L1982.02 1421.45 L1982.02 1415.57 Z" fill="#000000" fill-rule="evenodd" fill-opacity="1" /><path clip-path="url(#clip510)" d="M2007.09 1405.04 Q2003.76 1405.04 2001.84 1406.82 Q1999.94 1408.6 1999.94 1411.73 Q1999.94 1414.85 2001.84 1416.64 Q2003.76 1418.42 2007.09 1418.42 Q2010.42 1418.42 2012.34 1416.64 Q2014.27 1414.83 2014.27 1411.73 Q2014.27 1408.6 2012.34 1406.82 Q2010.45 1405.04 2007.09 1405.04 M2002.41 1403.05 Q1999.4 1402.31 1997.72 1400.25 Q1996.05 1398.19 1996.05 1395.23 Q1996.05 1391.08 1998.99 1388.67 Q2001.95 1386.27 2007.09 1386.27 Q2012.25 1386.27 2015.19 1388.67 Q2018.13 1391.08 2018.13 1395.23 Q2018.13 1398.19 2016.44 1400.25 Q2014.78 1402.31 2011.79 1403.05 Q2015.17 1403.84 2017.04 1406.13 Q2018.94 1408.42 2018.94 1411.73 Q2018.94 1416.75 2015.86 1419.44 Q2012.81 1422.12 2007.09 1422.12 Q2001.37 1422.12 1998.29 1419.44 Q1995.24 1416.75 1995.24 1411.73 Q1995.24 1408.42 1997.14 1406.13 Q1999.03 1403.84 2002.41 1403.05 M2000.7 1395.66 Q2000.7 1398.35 2002.37 1399.85 Q2004.06 1401.36 2007.09 1401.36 Q2010.1 1401.36 2011.79 1399.85 Q2013.5 1398.35 2013.5 1395.66 Q2013.5 1392.98 2011.79 1391.48 Q2010.1 1389.97 2007.09 1389.97 Q2004.06 1389.97 2002.37 1391.48 Q2000.7 1392.98 2000.7 1395.66 Z" fill="#000000" fill-rule="evenodd" fill-opacity="1" /><path clip-path="url(#clip510)" d="M1057.46 1461.01 L1057.46 1478.86 L1065.54 1478.86 Q1070.03 1478.86 1072.48 1476.54 Q1074.93 1474.22 1074.93 1469.92 Q1074.93 1465.65 1072.48 1463.33 Q1070.03 1461.01 1065.54 1461.01 L1057.46 1461.01 M1051.03 1455.72 L1065.54 1455.72 Q1073.53 1455.72 1077.61 1459.35 Q1081.71 1462.95 1081.71 1469.92 Q1081.71 1476.95 1077.61 1480.55 Q1073.53 1484.15 1065.54 1484.15 L1057.46 1484.15 L1057.46 1503.24 L1051.03 1503.24 L1051.03 1455.72 Z" fill="#000000" fill-rule="evenodd" fill-opacity="1" /><path clip-path="url(#clip510)" d="M1118.25 1483.96 L1118.25 1486.82 L1091.32 1486.82 Q1091.71 1492.87 1094.95 1496.05 Q1098.23 1499.2 1104.06 1499.2 Q1107.43 1499.2 1110.58 1498.37 Q1113.76 1497.55 1116.88 1495.89 L1116.88 1501.43 Q1113.73 1502.77 1110.42 1503.47 Q1107.11 1504.17 1103.71 1504.17 Q1095.18 1504.17 1090.18 1499.2 Q1085.21 1494.24 1085.21 1485.77 Q1085.21 1477.02 1089.92 1471.89 Q1094.67 1466.74 1102.69 1466.74 Q1109.88 1466.74 1114.05 1471.38 Q1118.25 1476 1118.25 1483.96 M1112.39 1482.24 Q1112.33 1477.43 1109.69 1474.57 Q1107.08 1471.7 1102.75 1471.7 Q1097.85 1471.7 1094.89 1474.47 Q1091.96 1477.24 1091.52 1482.27 L1112.39 1482.24 Z" fill="#000000" fill-rule="evenodd" fill-opacity="1" /><path clip-path="url(#clip510)" d="M1133.66 1457.47 L1133.66 1467.6 L1145.72 1467.6 L1145.72 1472.15 L1133.66 1472.15 L1133.66 1491.5 Q1133.66 1495.86 1134.83 1497.1 Q1136.04 1498.34 1139.7 1498.34 L1145.72 1498.34 L1145.72 1503.24 L1139.7 1503.24 Q1132.92 1503.24 1130.35 1500.73 Q1127.77 1498.18 1127.77 1491.5 L1127.77 1472.15 L1123.47 1472.15 L1123.47 1467.6 L1127.77 1467.6 L1127.77 1457.47 L1133.66 1457.47 Z" fill="#000000" fill-rule="evenodd" fill-opacity="1" /><path clip-path="url(#clip510)" d="M1169.62 1485.32 Q1162.52 1485.32 1159.79 1486.95 Q1157.05 1488.57 1157.05 1492.49 Q1157.05 1495.6 1159.09 1497.45 Q1161.16 1499.27 1164.69 1499.27 Q1169.56 1499.27 1172.49 1495.83 Q1175.45 1492.36 1175.45 1486.63 L1175.45 1485.32 L1169.62 1485.32 M1181.3 1482.91 L1181.3 1503.24 L1175.45 1503.24 L1175.45 1497.83 Q1173.44 1501.08 1170.45 1502.64 Q1167.46 1504.17 1163.13 1504.17 Q1157.66 1504.17 1154.41 1501.11 Q1151.19 1498.02 1151.19 1492.87 Q1151.19 1486.85 1155.2 1483.8 Q1159.25 1480.74 1167.24 1480.74 L1175.45 1480.74 L1175.45 1480.17 Q1175.45 1476.13 1172.77 1473.93 Q1170.13 1471.7 1165.33 1471.7 Q1162.27 1471.7 1159.37 1472.43 Q1156.48 1473.17 1153.8 1474.63 L1153.8 1469.22 Q1157.02 1467.98 1160.04 1467.37 Q1163.07 1466.74 1165.93 1466.74 Q1173.66 1466.74 1177.48 1470.75 Q1181.3 1474.76 1181.3 1482.91 Z" fill="#000000" fill-rule="evenodd" fill-opacity="1" /><path clip-path="url(#clip510)" d="M1193.37 1453.72 L1199.22 1453.72 L1199.22 1503.24 L1193.37 1503.24 L1193.37 1453.72 Z" fill="#000000" fill-rule="evenodd" fill-opacity="1" /><path clip-path="url(#clip510)" d="M1211.73 1455.72 L1218.16 1455.72 L1218.16 1497.83 L1241.3 1497.83 L1241.3 1503.24 L1211.73 1503.24 L1211.73 1455.72 Z" fill="#000000" fill-rule="evenodd" fill-opacity="1" /><path clip-path="url(#clip510)" d="M1277.14 1483.96 L1277.14 1486.82 L1250.21 1486.82 Q1250.59 1492.87 1253.84 1496.05 Q1257.12 1499.2 1262.94 1499.2 Q1266.32 1499.2 1269.47 1498.37 Q1272.65 1497.55 1275.77 1495.89 L1275.77 1501.43 Q1272.62 1502.77 1269.31 1503.47 Q1266 1504.17 1262.59 1504.17 Q1254.06 1504.17 1249.07 1499.2 Q1244.1 1494.24 1244.1 1485.77 Q1244.1 1477.02 1248.81 1471.89 Q1253.55 1466.74 1261.58 1466.74 Q1268.77 1466.74 1272.94 1471.38 Q1277.14 1476 1277.14 1483.96 M1271.28 1482.24 Q1271.22 1477.43 1268.58 1474.57 Q1265.97 1471.7 1261.64 1471.7 Q1256.74 1471.7 1253.78 1474.47 Q1250.85 1477.24 1250.4 1482.27 L1271.28 1482.24 Z" fill="#000000" fill-rule="evenodd" fill-opacity="1" /><path clip-path="url(#clip510)" d="M1316.38 1481.73 L1316.38 1503.24 L1310.53 1503.24 L1310.53 1481.92 Q1310.53 1476.86 1308.55 1474.34 Q1306.58 1471.83 1302.63 1471.83 Q1297.89 1471.83 1295.15 1474.85 Q1292.42 1477.88 1292.42 1483.1 L1292.42 1503.24 L1286.53 1503.24 L1286.53 1467.6 L1292.42 1467.6 L1292.42 1473.13 Q1294.52 1469.92 1297.35 1468.33 Q1300.22 1466.74 1303.94 1466.74 Q1310.08 1466.74 1313.23 1470.56 Q1316.38 1474.34 1316.38 1481.73 Z" fill="#000000" fill-rule="evenodd" fill-opacity="1" /><path clip-path="url(#clip510)" d="M1351.52 1485.01 Q1351.52 1478.64 1348.88 1475.14 Q1346.27 1471.64 1341.53 1471.64 Q1336.82 1471.64 1334.18 1475.14 Q1331.57 1478.64 1331.57 1485.01 Q1331.57 1491.34 1334.18 1494.84 Q1336.82 1498.34 1341.53 1498.34 Q1346.27 1498.34 1348.88 1494.84 Q1351.52 1491.34 1351.52 1485.01 M1357.38 1498.82 Q1357.38 1507.92 1353.34 1512.35 Q1349.29 1516.8 1340.96 1516.8 Q1337.87 1516.8 1335.13 1516.33 Q1332.39 1515.88 1329.82 1514.92 L1329.82 1509.23 Q1332.39 1510.63 1334.91 1511.3 Q1337.42 1511.96 1340.03 1511.96 Q1345.79 1511.96 1348.66 1508.94 Q1351.52 1505.95 1351.52 1499.87 L1351.52 1496.97 Q1349.71 1500.12 1346.88 1501.68 Q1344.04 1503.24 1340.1 1503.24 Q1333.54 1503.24 1329.53 1498.25 Q1325.52 1493.25 1325.52 1485.01 Q1325.52 1476.73 1329.53 1471.73 Q1333.54 1466.74 1340.1 1466.74 Q1344.04 1466.74 1346.88 1468.3 Q1349.71 1469.86 1351.52 1473.01 L1351.52 1467.6 L1357.38 1467.6 L1357.38 1498.82 Z" fill="#000000" fill-rule="evenodd" fill-opacity="1" /><path clip-path="url(#clip510)" d="M1375.23 1457.47 L1375.23 1467.6 L1387.3 1467.6 L1387.3 1472.15 L1375.23 1472.15 L1375.23 1491.5 Q1375.23 1495.86 1376.41 1497.1 Q1377.62 1498.34 1381.28 1498.34 L1387.3 1498.34 L1387.3 1503.24 L1381.28 1503.24 Q1374.5 1503.24 1371.92 1500.73 Q1369.35 1498.18 1369.35 1491.5 L1369.35 1472.15 L1365.05 1472.15 L1365.05 1467.6 L1369.35 1467.6 L1369.35 1457.47 L1375.23 1457.47 Z" fill="#000000" fill-rule="evenodd" fill-opacity="1" /><path clip-path="url(#clip510)" d="M1424.63 1481.73 L1424.63 1503.24 L1418.78 1503.24 L1418.78 1481.92 Q1418.78 1476.86 1416.8 1474.34 Q1414.83 1471.83 1410.88 1471.83 Q1406.14 1471.83 1403.4 1474.85 Q1400.67 1477.88 1400.67 1483.1 L1400.67 1503.24 L1394.78 1503.24 L1394.78 1453.72 L1400.67 1453.72 L1400.67 1473.13 Q1402.77 1469.92 1405.6 1468.33 Q1408.46 1466.74 1412.19 1466.74 Q1418.33 1466.74 1421.48 1470.56 Q1424.63 1474.34 1424.63 1481.73 Z" fill="#000000" fill-rule="evenodd" fill-opacity="1" /><polyline clip-path="url(#clip512)" style="stroke:#000000; stroke-linecap:round; stroke-linejoin:round; stroke-width:2; stroke-opacity:0.1; fill:none" points="
  218.906,1322.67 2256.76,1322.67 
  "/>
<polyline clip-path="url(#clip512)" style="stroke:#000000; stroke-linecap:round; stroke-linejoin:round; stroke-width:2; stroke-opacity:0.1; fill:none" points="
  218.906,1075.02 2256.76,1075.02 
  "/>
<polyline clip-path="url(#clip512)" style="stroke:#000000; stroke-linecap:round; stroke-linejoin:round; stroke-width:2; stroke-opacity:0.1; fill:none" points="
  218.906,827.36 2256.76,827.36 
  "/>
<polyline clip-path="url(#clip512)" style="stroke:#000000; stroke-linecap:round; stroke-linejoin:round; stroke-width:2; stroke-opacity:0.1; fill:none" points="
  218.906,579.704 2256.76,579.704 
  "/>
<polyline clip-path="url(#clip512)" style="stroke:#000000; stroke-linecap:round; stroke-linejoin:round; stroke-width:2; stroke-opacity:0.1; fill:none" points="
  218.906,332.048 2256.76,332.048 
  "/>
<polyline clip-path="url(#clip512)" style="stroke:#000000; stroke-linecap:round; stroke-linejoin:round; stroke-width:2; stroke-opacity:0.1; fill:none" points="
  218.906,84.3925 2256.76,84.3925 
  "/>
<polyline clip-path="url(#clip510)" style="stroke:#000000; stroke-linecap:round; stroke-linejoin:round; stroke-width:4; stroke-opacity:1; fill:none" points="
  218.906,1359.82 218.906,47.2441 
  "/>
<polyline clip-path="url(#clip510)" style="stroke:#000000; stroke-linecap:round; stroke-linejoin:round; stroke-width:4; stroke-opacity:1; fill:none" points="
  218.906,1322.67 237.804,1322.67 
  "/>
<polyline clip-path="url(#clip510)" style="stroke:#000000; stroke-linecap:round; stroke-linejoin:round; stroke-width:4; stroke-opacity:1; fill:none" points="
  218.906,1075.02 237.804,1075.02 
  "/>
<polyline clip-path="url(#clip510)" style="stroke:#000000; stroke-linecap:round; stroke-linejoin:round; stroke-width:4; stroke-opacity:1; fill:none" points="
  218.906,827.36 237.804,827.36 
  "/>
<polyline clip-path="url(#clip510)" style="stroke:#000000; stroke-linecap:round; stroke-linejoin:round; stroke-width:4; stroke-opacity:1; fill:none" points="
  218.906,579.704 237.804,579.704 
  "/>
<polyline clip-path="url(#clip510)" style="stroke:#000000; stroke-linecap:round; stroke-linejoin:round; stroke-width:4; stroke-opacity:1; fill:none" points="
  218.906,332.048 237.804,332.048 
  "/>
<polyline clip-path="url(#clip510)" style="stroke:#000000; stroke-linecap:round; stroke-linejoin:round; stroke-width:4; stroke-opacity:1; fill:none" points="
  218.906,84.3925 237.804,84.3925 
  "/>
<path clip-path="url(#clip510)" d="M128.397 1308.47 Q124.786 1308.47 122.958 1312.03 Q121.152 1315.58 121.152 1322.71 Q121.152 1329.81 122.958 1333.38 Q124.786 1336.92 128.397 1336.92 Q132.032 1336.92 133.837 1333.38 Q135.666 1329.81 135.666 1322.71 Q135.666 1315.58 133.837 1312.03 Q132.032 1308.47 128.397 1308.47 M128.397 1304.77 Q134.208 1304.77 137.263 1309.37 Q140.342 1313.96 140.342 1322.71 Q140.342 1331.43 137.263 1336.04 Q134.208 1340.62 128.397 1340.62 Q122.587 1340.62 119.509 1336.04 Q116.453 1331.43 116.453 1322.71 Q116.453 1313.96 119.509 1309.37 Q122.587 1304.77 128.397 1304.77 Z" fill="#000000" fill-rule="evenodd" fill-opacity="1" /><path clip-path="url(#clip510)" d="M148.559 1334.07 L153.444 1334.07 L153.444 1339.95 L148.559 1339.95 L148.559 1334.07 Z" fill="#000000" fill-rule="evenodd" fill-opacity="1" /><path clip-path="url(#clip510)" d="M164.439 1336.02 L172.078 1336.02 L172.078 1309.65 L163.768 1311.32 L163.768 1307.06 L172.032 1305.39 L176.707 1305.39 L176.707 1336.02 L184.346 1336.02 L184.346 1339.95 L164.439 1339.95 L164.439 1336.02 Z" fill="#000000" fill-rule="evenodd" fill-opacity="1" /><path clip-path="url(#clip510)" d="M128.768 1060.81 Q125.157 1060.81 123.328 1064.38 Q121.523 1067.92 121.523 1075.05 Q121.523 1082.16 123.328 1085.72 Q125.157 1089.26 128.768 1089.26 Q132.402 1089.26 134.208 1085.72 Q136.036 1082.16 136.036 1075.05 Q136.036 1067.92 134.208 1064.38 Q132.402 1060.81 128.768 1060.81 M128.768 1057.11 Q134.578 1057.11 137.634 1061.72 Q140.712 1066.3 140.712 1075.05 Q140.712 1083.78 137.634 1088.38 Q134.578 1092.97 128.768 1092.97 Q122.958 1092.97 119.879 1088.38 Q116.823 1083.78 116.823 1075.05 Q116.823 1066.3 119.879 1061.72 Q122.958 1057.11 128.768 1057.11 Z" fill="#000000" fill-rule="evenodd" fill-opacity="1" /><path clip-path="url(#clip510)" d="M148.93 1086.42 L153.814 1086.42 L153.814 1092.3 L148.93 1092.3 L148.93 1086.42 Z" fill="#000000" fill-rule="evenodd" fill-opacity="1" /><path clip-path="url(#clip510)" d="M168.027 1088.36 L184.346 1088.36 L184.346 1092.3 L162.402 1092.3 L162.402 1088.36 Q165.064 1085.61 169.647 1080.98 Q174.254 1076.32 175.434 1074.98 Q177.68 1072.46 178.559 1070.72 Q179.462 1068.96 179.462 1067.27 Q179.462 1064.52 177.518 1062.78 Q175.596 1061.05 172.494 1061.05 Q170.295 1061.05 167.842 1061.81 Q165.411 1062.57 162.633 1064.12 L162.633 1059.4 Q165.457 1058.27 167.911 1057.69 Q170.365 1057.11 172.402 1057.11 Q177.772 1057.11 180.967 1059.8 Q184.161 1062.48 184.161 1066.97 Q184.161 1069.1 183.351 1071.02 Q182.564 1072.92 180.457 1075.51 Q179.879 1076.18 176.777 1079.4 Q173.675 1082.6 168.027 1088.36 Z" fill="#000000" fill-rule="evenodd" fill-opacity="1" /><path clip-path="url(#clip510)" d="M127.819 813.159 Q124.208 813.159 122.379 816.723 Q120.573 820.265 120.573 827.395 Q120.573 834.501 122.379 838.066 Q124.208 841.607 127.819 841.607 Q131.453 841.607 133.259 838.066 Q135.087 834.501 135.087 827.395 Q135.087 820.265 133.259 816.723 Q131.453 813.159 127.819 813.159 M127.819 809.455 Q133.629 809.455 136.684 814.061 Q139.763 818.645 139.763 827.395 Q139.763 836.121 136.684 840.728 Q133.629 845.311 127.819 845.311 Q122.009 845.311 118.93 840.728 Q115.874 836.121 115.874 827.395 Q115.874 818.645 118.93 814.061 Q122.009 809.455 127.819 809.455 Z" fill="#000000" fill-rule="evenodd" fill-opacity="1" /><path clip-path="url(#clip510)" d="M147.981 838.76 L152.865 838.76 L152.865 844.64 L147.981 844.64 L147.981 838.76 Z" fill="#000000" fill-rule="evenodd" fill-opacity="1" /><path clip-path="url(#clip510)" d="M177.217 826.006 Q180.573 826.723 182.448 828.992 Q184.346 831.26 184.346 834.594 Q184.346 839.709 180.828 842.51 Q177.309 845.311 170.828 845.311 Q168.652 845.311 166.337 844.871 Q164.045 844.455 161.592 843.598 L161.592 839.084 Q163.536 840.219 165.851 840.797 Q168.166 841.376 170.689 841.376 Q175.087 841.376 177.379 839.64 Q179.694 837.904 179.694 834.594 Q179.694 831.538 177.541 829.825 Q175.411 828.089 171.592 828.089 L167.564 828.089 L167.564 824.246 L171.777 824.246 Q175.226 824.246 177.055 822.881 Q178.883 821.492 178.883 818.899 Q178.883 816.237 176.985 814.825 Q175.11 813.39 171.592 813.39 Q169.67 813.39 167.471 813.807 Q165.272 814.223 162.633 815.103 L162.633 810.936 Q165.295 810.196 167.61 809.825 Q169.948 809.455 172.008 809.455 Q177.332 809.455 180.434 811.885 Q183.536 814.293 183.536 818.413 Q183.536 821.284 181.893 823.274 Q180.249 825.242 177.217 826.006 Z" fill="#000000" fill-rule="evenodd" fill-opacity="1" /><path clip-path="url(#clip510)" d="M126.685 565.503 Q123.073 565.503 121.245 569.068 Q119.439 572.609 119.439 579.739 Q119.439 586.845 121.245 590.41 Q123.073 593.952 126.685 593.952 Q130.319 593.952 132.124 590.41 Q133.953 586.845 133.953 579.739 Q133.953 572.609 132.124 569.068 Q130.319 565.503 126.685 565.503 M126.685 561.799 Q132.495 561.799 135.55 566.406 Q138.629 570.989 138.629 579.739 Q138.629 588.466 135.55 593.072 Q132.495 597.655 126.685 597.655 Q120.874 597.655 117.796 593.072 Q114.74 588.466 114.74 579.739 Q114.74 570.989 117.796 566.406 Q120.874 561.799 126.685 561.799 Z" fill="#000000" fill-rule="evenodd" fill-opacity="1" /><path clip-path="url(#clip510)" d="M146.846 591.104 L151.731 591.104 L151.731 596.984 L146.846 596.984 L146.846 591.104 Z" fill="#000000" fill-rule="evenodd" fill-opacity="1" /><path clip-path="url(#clip510)" d="M174.763 566.498 L162.957 584.947 L174.763 584.947 L174.763 566.498 M173.536 562.424 L179.416 562.424 L179.416 584.947 L184.346 584.947 L184.346 588.836 L179.416 588.836 L179.416 596.984 L174.763 596.984 L174.763 588.836 L159.161 588.836 L159.161 584.322 L173.536 562.424 Z" fill="#000000" fill-rule="evenodd" fill-opacity="1" /><path clip-path="url(#clip510)" d="M128.166 317.847 Q124.555 317.847 122.726 321.412 Q120.921 324.953 120.921 332.083 Q120.921 339.189 122.726 342.754 Q124.555 346.296 128.166 346.296 Q131.8 346.296 133.606 342.754 Q135.434 339.189 135.434 332.083 Q135.434 324.953 133.606 321.412 Q131.8 317.847 128.166 317.847 M128.166 314.143 Q133.976 314.143 137.032 318.75 Q140.11 323.333 140.11 332.083 Q140.11 340.81 137.032 345.416 Q133.976 350 128.166 350 Q122.356 350 119.277 345.416 Q116.222 340.81 116.222 332.083 Q116.222 323.333 119.277 318.75 Q122.356 314.143 128.166 314.143 Z" fill="#000000" fill-rule="evenodd" fill-opacity="1" /><path clip-path="url(#clip510)" d="M148.328 343.449 L153.212 343.449 L153.212 349.328 L148.328 349.328 L148.328 343.449 Z" fill="#000000" fill-rule="evenodd" fill-opacity="1" /><path clip-path="url(#clip510)" d="M163.444 314.768 L181.8 314.768 L181.8 318.703 L167.726 318.703 L167.726 327.176 Q168.744 326.828 169.763 326.666 Q170.782 326.481 171.8 326.481 Q177.587 326.481 180.967 329.652 Q184.346 332.824 184.346 338.24 Q184.346 343.819 180.874 346.921 Q177.402 350 171.082 350 Q168.907 350 166.638 349.629 Q164.393 349.259 161.985 348.518 L161.985 343.819 Q164.069 344.953 166.291 345.509 Q168.513 346.064 170.99 346.064 Q174.994 346.064 177.332 343.958 Q179.67 341.851 179.67 338.24 Q179.67 334.629 177.332 332.523 Q174.994 330.416 170.99 330.416 Q169.115 330.416 167.24 330.833 Q165.388 331.25 163.444 332.129 L163.444 314.768 Z" fill="#000000" fill-rule="evenodd" fill-opacity="1" /><path clip-path="url(#clip510)" d="M127.009 70.1912 Q123.398 70.1912 121.569 73.7559 Q119.763 77.2976 119.763 84.4272 Q119.763 91.5336 121.569 95.0984 Q123.398 98.6401 127.009 98.6401 Q130.643 98.6401 132.448 95.0984 Q134.277 91.5336 134.277 84.4272 Q134.277 77.2976 132.448 73.7559 Q130.643 70.1912 127.009 70.1912 M127.009 66.4875 Q132.819 66.4875 135.874 71.0939 Q138.953 75.6772 138.953 84.4272 Q138.953 93.154 135.874 97.7604 Q132.819 102.344 127.009 102.344 Q121.198 102.344 118.12 97.7604 Q115.064 93.154 115.064 84.4272 Q115.064 75.6772 118.12 71.0939 Q121.198 66.4875 127.009 66.4875 Z" fill="#000000" fill-rule="evenodd" fill-opacity="1" /><path clip-path="url(#clip510)" d="M147.171 95.7929 L152.055 95.7929 L152.055 101.672 L147.171 101.672 L147.171 95.7929 Z" fill="#000000" fill-rule="evenodd" fill-opacity="1" /><path clip-path="url(#clip510)" d="M172.819 82.529 Q169.67 82.529 167.819 84.6818 Q165.99 86.8346 165.99 90.5846 Q165.99 94.3114 167.819 96.4873 Q169.67 98.6401 172.819 98.6401 Q175.967 98.6401 177.795 96.4873 Q179.647 94.3114 179.647 90.5846 Q179.647 86.8346 177.795 84.6818 Q175.967 82.529 172.819 82.529 M182.101 67.8763 L182.101 72.1356 Q180.342 71.3023 178.536 70.8624 Q176.754 70.4226 174.994 70.4226 Q170.365 70.4226 167.911 73.5476 Q165.481 76.6726 165.133 82.992 Q166.499 80.9781 168.559 79.9133 Q170.619 78.8254 173.096 78.8254 Q178.305 78.8254 181.314 81.9966 Q184.346 85.1448 184.346 90.5846 Q184.346 95.9086 181.198 99.1262 Q178.05 102.344 172.819 102.344 Q166.823 102.344 163.652 97.7604 Q160.481 93.154 160.481 84.4272 Q160.481 76.2328 164.37 71.3717 Q168.258 66.4875 174.809 66.4875 Q176.569 66.4875 178.351 66.8347 Q180.156 67.1819 182.101 67.8763 Z" fill="#000000" fill-rule="evenodd" fill-opacity="1" /><path clip-path="url(#clip510)" d="M23.6877 866.176 L41.5435 866.176 L41.5435 858.091 Q41.5435 853.604 39.22 851.153 Q36.8965 848.702 32.5997 848.702 Q28.3347 848.702 26.0112 851.153 Q23.6877 853.604 23.6877 858.091 L23.6877 866.176 M18.4042 872.605 L18.4042 858.091 Q18.4042 850.102 22.0326 846.028 Q25.6292 841.922 32.5997 841.922 Q39.6338 841.922 43.2304 846.028 Q46.827 850.102 46.827 858.091 L46.827 866.176 L65.9242 866.176 L65.9242 872.605 L18.4042 872.605 Z" fill="#000000" fill-rule="evenodd" fill-opacity="1" /><path clip-path="url(#clip510)" d="M46.6361 805.383 L49.5006 805.383 L49.5006 832.31 Q55.5481 831.928 58.7309 828.682 Q61.8819 825.403 61.8819 819.579 Q61.8819 816.205 61.0544 813.054 Q60.2269 809.871 58.5718 806.752 L64.1099 806.752 Q65.4467 809.903 66.147 813.213 Q66.8472 816.523 66.8472 819.929 Q66.8472 828.459 61.8819 833.456 Q56.9167 838.421 48.4503 838.421 Q39.6974 838.421 34.5731 833.711 Q29.4168 828.968 29.4168 820.947 Q29.4168 813.754 34.0638 809.585 Q38.6789 805.383 46.6361 805.383 M44.9173 811.24 Q40.1112 811.303 37.2466 813.945 Q34.3821 816.555 34.3821 820.884 Q34.3821 825.785 37.1512 828.745 Q39.9202 831.674 44.9492 832.119 L44.9173 811.24 Z" fill="#000000" fill-rule="evenodd" fill-opacity="1" /><path clip-path="url(#clip510)" d="M20.1547 789.978 L30.2762 789.978 L30.2762 777.915 L34.8277 777.915 L34.8277 789.978 L54.1794 789.978 Q58.5399 789.978 59.7813 788.801 Q61.0226 787.591 61.0226 783.931 L61.0226 777.915 L65.9242 777.915 L65.9242 783.931 Q65.9242 790.71 63.4097 793.288 Q60.8634 795.867 54.1794 795.867 L34.8277 795.867 L34.8277 800.163 L30.2762 800.163 L30.2762 795.867 L20.1547 795.867 L20.1547 789.978 Z" fill="#000000" fill-rule="evenodd" fill-opacity="1" /><path clip-path="url(#clip510)" d="M48.0047 754.012 Q48.0047 761.11 49.6279 763.847 Q51.2512 766.584 55.1661 766.584 Q58.2853 766.584 60.1314 764.547 Q61.9456 762.478 61.9456 758.945 Q61.9456 754.076 58.5081 751.147 Q55.0388 748.187 49.3097 748.187 L48.0047 748.187 L48.0047 754.012 M45.5857 742.331 L65.9242 742.331 L65.9242 748.187 L60.5133 748.187 Q63.7598 750.193 65.3194 753.184 Q66.8472 756.176 66.8472 760.505 Q66.8472 765.98 63.7916 769.226 Q60.7043 772.441 55.5481 772.441 Q49.5325 772.441 46.4769 768.43 Q43.4214 764.388 43.4214 756.399 L43.4214 748.187 L42.8485 748.187 Q38.8062 748.187 36.6101 750.861 Q34.3821 753.503 34.3821 758.309 Q34.3821 761.364 35.1141 764.261 Q35.8462 767.157 37.3103 769.831 L31.8995 769.831 Q30.6581 766.616 30.0534 763.592 Q29.4168 760.569 29.4168 757.704 Q29.4168 749.97 33.4272 746.15 Q37.4376 742.331 45.5857 742.331 Z" fill="#000000" fill-rule="evenodd" fill-opacity="1" /><path clip-path="url(#clip510)" d="M16.399 730.268 L16.399 724.411 L65.9242 724.411 L65.9242 730.268 L16.399 730.268 Z" fill="#000000" fill-rule="evenodd" fill-opacity="1" /><path clip-path="url(#clip510)" d="M18.4042 716.136 L18.4042 709.643 L58.5718 699.649 L18.4042 689.687 L18.4042 682.461 L58.5718 672.467 L18.4042 662.505 L18.4042 655.98 L65.9242 667.916 L65.9242 676 L24.6744 686.026 L65.9242 696.148 L65.9242 704.232 L18.4042 716.136 Z" fill="#000000" fill-rule="evenodd" fill-opacity="1" /><path clip-path="url(#clip510)" d="M30.2762 649.137 L30.2762 643.281 L65.9242 643.281 L65.9242 649.137 L30.2762 649.137 M16.399 649.137 L16.399 643.281 L23.815 643.281 L23.815 649.137 L16.399 649.137 Z" fill="#000000" fill-rule="evenodd" fill-opacity="1" /><path clip-path="url(#clip510)" d="M35.6871 607.569 L16.399 607.569 L16.399 601.712 L65.9242 601.712 L65.9242 607.569 L60.577 607.569 Q63.7598 609.415 65.3194 612.248 Q66.8472 615.049 66.8472 618.995 Q66.8472 625.457 61.691 629.531 Q56.5347 633.573 48.132 633.573 Q39.7293 633.573 34.5731 629.531 Q29.4168 625.457 29.4168 618.995 Q29.4168 615.049 30.9764 612.248 Q32.5042 609.415 35.6871 607.569 M48.132 627.525 Q54.5932 627.525 58.2853 624.884 Q61.9456 622.21 61.9456 617.563 Q61.9456 612.916 58.2853 610.243 Q54.5932 607.569 48.132 607.569 Q41.6708 607.569 38.0105 610.243 Q34.3184 612.916 34.3184 617.563 Q34.3184 622.21 38.0105 624.884 Q41.6708 627.525 48.132 627.525 Z" fill="#000000" fill-rule="evenodd" fill-opacity="1" /><path clip-path="url(#clip510)" d="M20.1547 583.857 L30.2762 583.857 L30.2762 571.794 L34.8277 571.794 L34.8277 583.857 L54.1794 583.857 Q58.5399 583.857 59.7813 582.679 Q61.0226 581.47 61.0226 577.809 L61.0226 571.794 L65.9242 571.794 L65.9242 577.809 Q65.9242 584.589 63.4097 587.167 Q60.8634 589.745 54.1794 589.745 L34.8277 589.745 L34.8277 594.042 L30.2762 594.042 L30.2762 589.745 L20.1547 589.745 L20.1547 583.857 Z" fill="#000000" fill-rule="evenodd" fill-opacity="1" /><path clip-path="url(#clip510)" d="M44.4081 534.459 L65.9242 534.459 L65.9242 540.315 L44.599 540.315 Q39.5383 540.315 37.0238 542.289 Q34.5094 544.262 34.5094 548.209 Q34.5094 552.951 37.5331 555.688 Q40.5568 558.426 45.7767 558.426 L65.9242 558.426 L65.9242 564.314 L16.399 564.314 L16.399 558.426 L35.8144 558.426 Q32.5997 556.325 31.0083 553.492 Q29.4168 550.628 29.4168 546.904 Q29.4168 540.761 33.2363 537.61 Q37.0238 534.459 44.4081 534.459 Z" fill="#000000" fill-rule="evenodd" fill-opacity="1" /><circle clip-path="url(#clip512)" cx="1131.03" cy="1075.02" r="14.4" fill="#009af9" fill-rule="evenodd" fill-opacity="1" stroke="#000000" stroke-opacity="1" stroke-width="3.072"/>
<circle clip-path="url(#clip512)" cx="1131.03" cy="1075.02" r="14.4" fill="#009af9" fill-rule="evenodd" fill-opacity="1" stroke="#000000" stroke-opacity="1" stroke-width="3.072"/>
<circle clip-path="url(#clip512)" cx="917.414" cy="1075.02" r="14.4" fill="#009af9" fill-rule="evenodd" fill-opacity="1" stroke="#000000" stroke-opacity="1" stroke-width="3.072"/>
<circle clip-path="url(#clip512)" cx="1344.64" cy="1075.02" r="14.4" fill="#009af9" fill-rule="evenodd" fill-opacity="1" stroke="#000000" stroke-opacity="1" stroke-width="3.072"/>
<circle clip-path="url(#clip512)" cx="1131.03" cy="1075.02" r="14.4" fill="#009af9" fill-rule="evenodd" fill-opacity="1" stroke="#000000" stroke-opacity="1" stroke-width="3.072"/>
<circle clip-path="url(#clip512)" cx="1771.86" cy="579.704" r="14.4" fill="#009af9" fill-rule="evenodd" fill-opacity="1" stroke="#000000" stroke-opacity="1" stroke-width="3.072"/>
<circle clip-path="url(#clip512)" cx="1131.03" cy="827.36" r="14.4" fill="#009af9" fill-rule="evenodd" fill-opacity="1" stroke="#000000" stroke-opacity="1" stroke-width="3.072"/>
<circle clip-path="url(#clip512)" cx="1344.64" cy="1075.02" r="14.4" fill="#009af9" fill-rule="evenodd" fill-opacity="1" stroke="#000000" stroke-opacity="1" stroke-width="3.072"/>
<circle clip-path="url(#clip512)" cx="1131.03" cy="1075.02" r="14.4" fill="#009af9" fill-rule="evenodd" fill-opacity="1" stroke="#000000" stroke-opacity="1" stroke-width="3.072"/>
<circle clip-path="url(#clip512)" cx="1344.64" cy="1322.67" r="14.4" fill="#009af9" fill-rule="evenodd" fill-opacity="1" stroke="#000000" stroke-opacity="1" stroke-width="3.072"/>
<circle clip-path="url(#clip512)" cx="1344.64" cy="1075.02" r="14.4" fill="#009af9" fill-rule="evenodd" fill-opacity="1" stroke="#000000" stroke-opacity="1" stroke-width="3.072"/>
<circle clip-path="url(#clip512)" cx="1558.25" cy="1075.02" r="14.4" fill="#009af9" fill-rule="evenodd" fill-opacity="1" stroke="#000000" stroke-opacity="1" stroke-width="3.072"/>
<circle clip-path="url(#clip512)" cx="1131.03" cy="1322.67" r="14.4" fill="#009af9" fill-rule="evenodd" fill-opacity="1" stroke="#000000" stroke-opacity="1" stroke-width="3.072"/>
<circle clip-path="url(#clip512)" cx="490.192" cy="1322.67" r="14.4" fill="#009af9" fill-rule="evenodd" fill-opacity="1" stroke="#000000" stroke-opacity="1" stroke-width="3.072"/>
<circle clip-path="url(#clip512)" cx="703.803" cy="1075.02" r="14.4" fill="#009af9" fill-rule="evenodd" fill-opacity="1" stroke="#000000" stroke-opacity="1" stroke-width="3.072"/>
<circle clip-path="url(#clip512)" cx="1344.64" cy="579.704" r="14.4" fill="#009af9" fill-rule="evenodd" fill-opacity="1" stroke="#000000" stroke-opacity="1" stroke-width="3.072"/>
<circle clip-path="url(#clip512)" cx="917.414" cy="579.704" r="14.4" fill="#009af9" fill-rule="evenodd" fill-opacity="1" stroke="#000000" stroke-opacity="1" stroke-width="3.072"/>
<circle clip-path="url(#clip512)" cx="1131.03" cy="827.36" r="14.4" fill="#009af9" fill-rule="evenodd" fill-opacity="1" stroke="#000000" stroke-opacity="1" stroke-width="3.072"/>
<circle clip-path="url(#clip512)" cx="1771.86" cy="827.36" r="14.4" fill="#009af9" fill-rule="evenodd" fill-opacity="1" stroke="#000000" stroke-opacity="1" stroke-width="3.072"/>
<circle clip-path="url(#clip512)" cx="1344.64" cy="827.36" r="14.4" fill="#009af9" fill-rule="evenodd" fill-opacity="1" stroke="#000000" stroke-opacity="1" stroke-width="3.072"/>
<circle clip-path="url(#clip512)" cx="1771.86" cy="1075.02" r="14.4" fill="#009af9" fill-rule="evenodd" fill-opacity="1" stroke="#000000" stroke-opacity="1" stroke-width="3.072"/>
<circle clip-path="url(#clip512)" cx="1344.64" cy="579.704" r="14.4" fill="#009af9" fill-rule="evenodd" fill-opacity="1" stroke="#000000" stroke-opacity="1" stroke-width="3.072"/>
<circle clip-path="url(#clip512)" cx="276.581" cy="1075.02" r="14.4" fill="#009af9" fill-rule="evenodd" fill-opacity="1" stroke="#000000" stroke-opacity="1" stroke-width="3.072"/>
<circle clip-path="url(#clip512)" cx="1771.86" cy="332.048" r="14.4" fill="#009af9" fill-rule="evenodd" fill-opacity="1" stroke="#000000" stroke-opacity="1" stroke-width="3.072"/>
<circle clip-path="url(#clip512)" cx="2199.08" cy="1075.02" r="14.4" fill="#009af9" fill-rule="evenodd" fill-opacity="1" stroke="#000000" stroke-opacity="1" stroke-width="3.072"/>
<circle clip-path="url(#clip512)" cx="1558.25" cy="1075.02" r="14.4" fill="#009af9" fill-rule="evenodd" fill-opacity="1" stroke="#000000" stroke-opacity="1" stroke-width="3.072"/>
<circle clip-path="url(#clip512)" cx="1558.25" cy="579.704" r="14.4" fill="#009af9" fill-rule="evenodd" fill-opacity="1" stroke="#000000" stroke-opacity="1" stroke-width="3.072"/>
<circle clip-path="url(#clip512)" cx="1344.64" cy="1075.02" r="14.4" fill="#009af9" fill-rule="evenodd" fill-opacity="1" stroke="#000000" stroke-opacity="1" stroke-width="3.072"/>
<circle clip-path="url(#clip512)" cx="1131.03" cy="1075.02" r="14.4" fill="#009af9" fill-rule="evenodd" fill-opacity="1" stroke="#000000" stroke-opacity="1" stroke-width="3.072"/>
<circle clip-path="url(#clip512)" cx="1558.25" cy="1075.02" r="14.4" fill="#009af9" fill-rule="evenodd" fill-opacity="1" stroke="#000000" stroke-opacity="1" stroke-width="3.072"/>
<circle clip-path="url(#clip512)" cx="1558.25" cy="1075.02" r="14.4" fill="#009af9" fill-rule="evenodd" fill-opacity="1" stroke="#000000" stroke-opacity="1" stroke-width="3.072"/>
<circle clip-path="url(#clip512)" cx="1344.64" cy="579.704" r="14.4" fill="#009af9" fill-rule="evenodd" fill-opacity="1" stroke="#000000" stroke-opacity="1" stroke-width="3.072"/>
<circle clip-path="url(#clip512)" cx="1344.64" cy="1322.67" r="14.4" fill="#009af9" fill-rule="evenodd" fill-opacity="1" stroke="#000000" stroke-opacity="1" stroke-width="3.072"/>
<circle clip-path="url(#clip512)" cx="1131.03" cy="1075.02" r="14.4" fill="#009af9" fill-rule="evenodd" fill-opacity="1" stroke="#000000" stroke-opacity="1" stroke-width="3.072"/>
<circle clip-path="url(#clip512)" cx="1344.64" cy="1075.02" r="14.4" fill="#009af9" fill-rule="evenodd" fill-opacity="1" stroke="#000000" stroke-opacity="1" stroke-width="3.072"/>
<circle clip-path="url(#clip512)" cx="703.803" cy="1075.02" r="14.4" fill="#009af9" fill-rule="evenodd" fill-opacity="1" stroke="#000000" stroke-opacity="1" stroke-width="3.072"/>
<circle clip-path="url(#clip512)" cx="917.414" cy="1075.02" r="14.4" fill="#009af9" fill-rule="evenodd" fill-opacity="1" stroke="#000000" stroke-opacity="1" stroke-width="3.072"/>
<circle clip-path="url(#clip512)" cx="1131.03" cy="1322.67" r="14.4" fill="#009af9" fill-rule="evenodd" fill-opacity="1" stroke="#000000" stroke-opacity="1" stroke-width="3.072"/>
<circle clip-path="url(#clip512)" cx="917.414" cy="1075.02" r="14.4" fill="#009af9" fill-rule="evenodd" fill-opacity="1" stroke="#000000" stroke-opacity="1" stroke-width="3.072"/>
<circle clip-path="url(#clip512)" cx="1344.64" cy="1075.02" r="14.4" fill="#009af9" fill-rule="evenodd" fill-opacity="1" stroke="#000000" stroke-opacity="1" stroke-width="3.072"/>
<circle clip-path="url(#clip512)" cx="917.414" cy="827.36" r="14.4" fill="#009af9" fill-rule="evenodd" fill-opacity="1" stroke="#000000" stroke-opacity="1" stroke-width="3.072"/>
<circle clip-path="url(#clip512)" cx="917.414" cy="827.36" r="14.4" fill="#009af9" fill-rule="evenodd" fill-opacity="1" stroke="#000000" stroke-opacity="1" stroke-width="3.072"/>
<circle clip-path="url(#clip512)" cx="917.414" cy="1075.02" r="14.4" fill="#009af9" fill-rule="evenodd" fill-opacity="1" stroke="#000000" stroke-opacity="1" stroke-width="3.072"/>
<circle clip-path="url(#clip512)" cx="1558.25" cy="84.3925" r="14.4" fill="#009af9" fill-rule="evenodd" fill-opacity="1" stroke="#000000" stroke-opacity="1" stroke-width="3.072"/>
<circle clip-path="url(#clip512)" cx="2199.08" cy="579.704" r="14.4" fill="#009af9" fill-rule="evenodd" fill-opacity="1" stroke="#000000" stroke-opacity="1" stroke-width="3.072"/>
<circle clip-path="url(#clip512)" cx="1131.03" cy="827.36" r="14.4" fill="#009af9" fill-rule="evenodd" fill-opacity="1" stroke="#000000" stroke-opacity="1" stroke-width="3.072"/>
<circle clip-path="url(#clip512)" cx="1558.25" cy="1075.02" r="14.4" fill="#009af9" fill-rule="evenodd" fill-opacity="1" stroke="#000000" stroke-opacity="1" stroke-width="3.072"/>
<circle clip-path="url(#clip512)" cx="1131.03" cy="1075.02" r="14.4" fill="#009af9" fill-rule="evenodd" fill-opacity="1" stroke="#000000" stroke-opacity="1" stroke-width="3.072"/>
<circle clip-path="url(#clip512)" cx="1344.64" cy="1075.02" r="14.4" fill="#009af9" fill-rule="evenodd" fill-opacity="1" stroke="#000000" stroke-opacity="1" stroke-width="3.072"/>
<circle clip-path="url(#clip512)" cx="1131.03" cy="1075.02" r="14.4" fill="#009af9" fill-rule="evenodd" fill-opacity="1" stroke="#000000" stroke-opacity="1" stroke-width="3.072"/>
<polyline clip-path="url(#clip512)" style="stroke:#e26f46; stroke-linecap:round; stroke-linejoin:round; stroke-width:4; stroke-opacity:1; fill:none" stroke-dasharray="16, 10" points="
  1263.46,2672.4 1263.46,-1265.33 
  "/>
<polyline clip-path="url(#clip512)" style="stroke:#3da44d; stroke-linecap:round; stroke-linejoin:round; stroke-width:4; stroke-opacity:1; fill:none" stroke-dasharray="16, 10" points="
  -1818.94,961.094 4294.61,961.094 
  "/>
</svg>
