<?xml version="1.0" encoding="utf-8"?>
<svg xmlns="http://www.w3.org/2000/svg" xmlns:xlink="http://www.w3.org/1999/xlink" width="576" height="384" viewBox="0 0 2304 1536">
<defs>
  <clipPath id="clip350">
    <rect x="0" y="0" width="2304" height="1536"/>
  </clipPath>
</defs>
<path clip-path="url(#clip350)" d="
M0 1536 L2304 1536 L2304 0 L0 0  Z
  " fill="#ffffff" fill-rule="evenodd" fill-opacity="1"/>
<defs>
  <clipPath id="clip351">
    <rect x="460" y="0" width="1614" height="1536"/>
  </clipPath>
</defs>
<path clip-path="url(#clip350)" d="
M154.805 1423.09 L2256.76 1423.09 L2256.76 47.2441 L154.805 47.2441  Z
  " fill="#ffffff" fill-rule="evenodd" fill-opacity="1"/>
<defs>
  <clipPath id="clip352">
    <rect x="154" y="47" width="2103" height="1377"/>
  </clipPath>
</defs>
<polyline clip-path="url(#clip352)" style="stroke:#000000; stroke-linecap:round; stroke-linejoin:round; stroke-width:2; stroke-opacity:0.1; fill:none" points="
  497.576,1423.09 497.576,47.2441 
  "/>
<polyline clip-path="url(#clip352)" style="stroke:#000000; stroke-linecap:round; stroke-linejoin:round; stroke-width:2; stroke-opacity:0.1; fill:none" points="
  1205.78,1423.09 1205.78,47.2441 
  "/>
<polyline clip-path="url(#clip352)" style="stroke:#000000; stroke-linecap:round; stroke-linejoin:round; stroke-width:2; stroke-opacity:0.1; fill:none" points="
  1913.98,1423.09 1913.98,47.2441 
  "/>
<polyline clip-path="url(#clip350)" style="stroke:#000000; stroke-linecap:round; stroke-linejoin:round; stroke-width:4; stroke-opacity:1; fill:none" points="
  154.805,1423.09 2256.76,1423.09 
  "/>
<polyline clip-path="url(#clip350)" style="stroke:#000000; stroke-linecap:round; stroke-linejoin:round; stroke-width:4; stroke-opacity:1; fill:none" points="
  497.576,1423.09 497.576,1404.19 
  "/>
<polyline clip-path="url(#clip350)" style="stroke:#000000; stroke-linecap:round; stroke-linejoin:round; stroke-width:4; stroke-opacity:1; fill:none" points="
  1205.78,1423.09 1205.78,1404.19 
  "/>
<polyline clip-path="url(#clip350)" style="stroke:#000000; stroke-linecap:round; stroke-linejoin:round; stroke-width:4; stroke-opacity:1; fill:none" points="
  1913.98,1423.09 1913.98,1404.19 
  "/>
<path clip-path="url(#clip350)" d="M441.835 1459.56 L441.835 1463.59 Q440.03 1462.66 438.085 1462.2 Q436.141 1461.73 434.058 1461.73 Q430.886 1461.73 429.289 1462.71 Q427.715 1463.68 427.715 1465.62 Q427.715 1467.1 428.849 1467.96 Q429.984 1468.79 433.41 1469.56 L434.868 1469.88 Q439.405 1470.85 441.303 1472.64 Q443.224 1474.4 443.224 1477.57 Q443.224 1481.18 440.354 1483.28 Q437.507 1485.39 432.507 1485.39 Q430.423 1485.39 428.155 1484.97 Q425.91 1484.58 423.41 1483.77 L423.41 1479.37 Q425.771 1480.6 428.062 1481.22 Q430.354 1481.83 432.599 1481.83 Q435.609 1481.83 437.229 1480.81 Q438.849 1479.77 438.849 1477.89 Q438.849 1476.16 437.669 1475.23 Q436.511 1474.3 432.553 1473.45 L431.072 1473.1 Q427.113 1472.27 425.354 1470.55 Q423.595 1468.82 423.595 1465.81 Q423.595 1462.15 426.187 1460.16 Q428.78 1458.17 433.548 1458.17 Q435.91 1458.17 437.993 1458.52 Q440.076 1458.86 441.835 1459.56 Z" fill="#000000" fill-rule="evenodd" fill-opacity="1" /><path clip-path="url(#clip350)" d="M472.183 1470.69 L472.183 1472.78 L452.599 1472.78 Q452.877 1477.17 455.238 1479.49 Q457.622 1481.78 461.858 1481.78 Q464.312 1481.78 466.604 1481.18 Q468.919 1480.58 471.187 1479.37 L471.187 1483.4 Q468.895 1484.37 466.488 1484.88 Q464.081 1485.39 461.604 1485.39 Q455.4 1485.39 451.766 1481.78 Q448.155 1478.17 448.155 1472.01 Q448.155 1465.65 451.581 1461.92 Q455.03 1458.17 460.863 1458.17 Q466.095 1458.17 469.127 1461.55 Q472.183 1464.91 472.183 1470.69 M467.923 1469.44 Q467.877 1465.95 465.956 1463.86 Q464.058 1461.78 460.909 1461.78 Q457.345 1461.78 455.192 1463.79 Q453.062 1465.81 452.738 1469.47 L467.923 1469.44 Z" fill="#000000" fill-rule="evenodd" fill-opacity="1" /><path clip-path="url(#clip350)" d="M483.386 1451.43 L483.386 1458.79 L492.159 1458.79 L492.159 1462.1 L483.386 1462.1 L483.386 1476.18 Q483.386 1479.35 484.243 1480.25 Q485.122 1481.16 487.784 1481.16 L492.159 1481.16 L492.159 1484.72 L487.784 1484.72 Q482.854 1484.72 480.979 1482.89 Q479.104 1481.04 479.104 1476.18 L479.104 1462.1 L475.979 1462.1 L475.979 1458.79 L479.104 1458.79 L479.104 1451.43 L483.386 1451.43 Z" fill="#000000" fill-rule="evenodd" fill-opacity="1" /><path clip-path="url(#clip350)" d="M507.807 1461.78 Q504.381 1461.78 502.391 1464.47 Q500.4 1467.13 500.4 1471.78 Q500.4 1476.43 502.368 1479.12 Q504.358 1481.78 507.807 1481.78 Q511.21 1481.78 513.201 1479.09 Q515.192 1476.41 515.192 1471.78 Q515.192 1467.17 513.201 1464.49 Q511.21 1461.78 507.807 1461.78 M507.807 1458.17 Q513.363 1458.17 516.534 1461.78 Q519.705 1465.39 519.705 1471.78 Q519.705 1478.15 516.534 1481.78 Q513.363 1485.39 507.807 1485.39 Q502.229 1485.39 499.057 1481.78 Q495.909 1478.15 495.909 1471.78 Q495.909 1465.39 499.057 1461.78 Q502.229 1458.17 507.807 1458.17 Z" fill="#000000" fill-rule="evenodd" fill-opacity="1" /><path clip-path="url(#clip350)" d="M543.293 1459.56 L543.293 1463.59 Q541.488 1462.66 539.543 1462.2 Q537.599 1461.73 535.516 1461.73 Q532.344 1461.73 530.747 1462.71 Q529.173 1463.68 529.173 1465.62 Q529.173 1467.1 530.307 1467.96 Q531.441 1468.79 534.867 1469.56 L536.326 1469.88 Q540.863 1470.85 542.761 1472.64 Q544.682 1474.4 544.682 1477.57 Q544.682 1481.18 541.812 1483.28 Q538.965 1485.39 533.965 1485.39 Q531.881 1485.39 529.613 1484.97 Q527.367 1484.58 524.867 1483.77 L524.867 1479.37 Q527.229 1480.6 529.52 1481.22 Q531.812 1481.83 534.057 1481.83 Q537.066 1481.83 538.687 1480.81 Q540.307 1479.77 540.307 1477.89 Q540.307 1476.16 539.127 1475.23 Q537.969 1474.3 534.011 1473.45 L532.529 1473.1 Q528.571 1472.27 526.812 1470.55 Q525.053 1468.82 525.053 1465.81 Q525.053 1462.15 527.645 1460.16 Q530.238 1458.17 535.006 1458.17 Q537.367 1458.17 539.451 1458.52 Q541.534 1458.86 543.293 1459.56 Z" fill="#000000" fill-rule="evenodd" fill-opacity="1" /><path clip-path="url(#clip350)" d="M563.247 1471.69 Q558.085 1471.69 556.094 1472.87 Q554.103 1474.05 554.103 1476.9 Q554.103 1479.16 555.585 1480.51 Q557.089 1481.83 559.659 1481.83 Q563.201 1481.83 565.33 1479.33 Q567.483 1476.8 567.483 1472.64 L567.483 1471.69 L563.247 1471.69 M571.742 1469.93 L571.742 1484.72 L567.483 1484.72 L567.483 1480.78 Q566.025 1483.15 563.849 1484.28 Q561.673 1485.39 558.525 1485.39 Q554.543 1485.39 552.182 1483.17 Q549.844 1480.92 549.844 1477.17 Q549.844 1472.8 552.761 1470.58 Q555.701 1468.35 561.511 1468.35 L567.483 1468.35 L567.483 1467.94 Q567.483 1465 565.538 1463.4 Q563.617 1461.78 560.122 1461.78 Q557.9 1461.78 555.793 1462.31 Q553.687 1462.84 551.742 1463.91 L551.742 1459.97 Q554.08 1459.07 556.279 1458.63 Q558.478 1458.17 560.562 1458.17 Q566.187 1458.17 568.964 1461.09 Q571.742 1464 571.742 1469.93 Z" fill="#000000" fill-rule="evenodd" fill-opacity="1" /><path clip-path="url(#clip350)" d="M1090.83 1458.79 L1095.34 1458.79 L1103.44 1480.55 L1111.54 1458.79 L1116.06 1458.79 L1106.34 1484.72 L1100.55 1484.72 L1090.83 1458.79 Z" fill="#000000" fill-rule="evenodd" fill-opacity="1" /><path clip-path="url(#clip350)" d="M1144.11 1470.69 L1144.11 1472.78 L1124.53 1472.78 Q1124.81 1477.17 1127.17 1479.49 Q1129.55 1481.78 1133.79 1481.78 Q1136.24 1481.78 1138.54 1481.18 Q1140.85 1480.58 1143.12 1479.37 L1143.12 1483.4 Q1140.83 1484.37 1138.42 1484.88 Q1136.01 1485.39 1133.54 1485.39 Q1127.33 1485.39 1123.7 1481.78 Q1120.09 1478.17 1120.09 1472.01 Q1120.09 1465.65 1123.51 1461.92 Q1126.96 1458.17 1132.79 1458.17 Q1138.03 1458.17 1141.06 1461.55 Q1144.11 1464.91 1144.11 1470.69 M1139.85 1469.44 Q1139.81 1465.95 1137.89 1463.86 Q1135.99 1461.78 1132.84 1461.78 Q1129.28 1461.78 1127.12 1463.79 Q1124.99 1465.81 1124.67 1469.47 L1139.85 1469.44 Z" fill="#000000" fill-rule="evenodd" fill-opacity="1" /><path clip-path="url(#clip350)" d="M1166.13 1462.78 Q1165.41 1462.36 1164.55 1462.17 Q1163.72 1461.97 1162.7 1461.97 Q1159.09 1461.97 1157.15 1464.33 Q1155.23 1466.66 1155.23 1471.06 L1155.23 1484.72 L1150.94 1484.72 L1150.94 1458.79 L1155.23 1458.79 L1155.23 1462.82 Q1156.57 1460.46 1158.72 1459.33 Q1160.87 1458.17 1163.95 1458.17 Q1164.39 1458.17 1164.92 1458.24 Q1165.46 1458.28 1166.1 1458.4 L1166.13 1462.78 Z" fill="#000000" fill-rule="evenodd" fill-opacity="1" /><path clip-path="url(#clip350)" d="M1187.12 1459.56 L1187.12 1463.59 Q1185.32 1462.66 1183.37 1462.2 Q1181.43 1461.73 1179.35 1461.73 Q1176.17 1461.73 1174.58 1462.71 Q1173 1463.68 1173 1465.62 Q1173 1467.1 1174.14 1467.96 Q1175.27 1468.79 1178.7 1469.56 L1180.16 1469.88 Q1184.69 1470.85 1186.59 1472.64 Q1188.51 1474.4 1188.51 1477.57 Q1188.51 1481.18 1185.64 1483.28 Q1182.79 1485.39 1177.79 1485.39 Q1175.71 1485.39 1173.44 1484.97 Q1171.2 1484.58 1168.7 1483.77 L1168.7 1479.37 Q1171.06 1480.6 1173.35 1481.22 Q1175.64 1481.83 1177.89 1481.83 Q1180.9 1481.83 1182.52 1480.81 Q1184.14 1479.77 1184.14 1477.89 Q1184.14 1476.16 1182.96 1475.23 Q1181.8 1474.3 1177.84 1473.45 L1176.36 1473.1 Q1172.4 1472.27 1170.64 1470.55 Q1168.88 1468.82 1168.88 1465.81 Q1168.88 1462.15 1171.48 1460.16 Q1174.07 1458.17 1178.84 1458.17 Q1181.2 1458.17 1183.28 1458.52 Q1185.36 1458.86 1187.12 1459.56 Z" fill="#000000" fill-rule="evenodd" fill-opacity="1" /><path clip-path="url(#clip350)" d="M1195.29 1458.79 L1199.55 1458.79 L1199.55 1484.72 L1195.29 1484.72 L1195.29 1458.79 M1195.29 1448.7 L1199.55 1448.7 L1199.55 1454.1 L1195.29 1454.1 L1195.29 1448.7 Z" fill="#000000" fill-rule="evenodd" fill-opacity="1" /><path clip-path="url(#clip350)" d="M1227.12 1459.79 L1227.12 1463.77 Q1225.32 1462.78 1223.49 1462.29 Q1221.68 1461.78 1219.83 1461.78 Q1215.69 1461.78 1213.4 1464.42 Q1211.1 1467.03 1211.1 1471.78 Q1211.1 1476.53 1213.4 1479.16 Q1215.69 1481.78 1219.83 1481.78 Q1221.68 1481.78 1223.49 1481.29 Q1225.32 1480.78 1227.12 1479.79 L1227.12 1483.72 Q1225.34 1484.56 1223.42 1484.97 Q1221.52 1485.39 1219.37 1485.39 Q1213.51 1485.39 1210.06 1481.71 Q1206.61 1478.03 1206.61 1471.78 Q1206.61 1465.44 1210.09 1461.8 Q1213.58 1458.17 1219.65 1458.17 Q1221.61 1458.17 1223.49 1458.59 Q1225.36 1458.98 1227.12 1459.79 Z" fill="#000000" fill-rule="evenodd" fill-opacity="1" /><path clip-path="url(#clip350)" d="M1244.58 1461.78 Q1241.15 1461.78 1239.16 1464.47 Q1237.17 1467.13 1237.17 1471.78 Q1237.17 1476.43 1239.14 1479.12 Q1241.13 1481.78 1244.58 1481.78 Q1247.98 1481.78 1249.97 1479.09 Q1251.96 1476.41 1251.96 1471.78 Q1251.96 1467.17 1249.97 1464.49 Q1247.98 1461.78 1244.58 1461.78 M1244.58 1458.17 Q1250.13 1458.17 1253.3 1461.78 Q1256.47 1465.39 1256.47 1471.78 Q1256.47 1478.15 1253.3 1481.78 Q1250.13 1485.39 1244.58 1485.39 Q1239 1485.39 1235.83 1481.78 Q1232.68 1478.15 1232.68 1471.78 Q1232.68 1465.39 1235.83 1461.78 Q1239 1458.17 1244.58 1458.17 Z" fill="#000000" fill-rule="evenodd" fill-opacity="1" /><path clip-path="url(#clip350)" d="M1263.53 1448.7 L1267.79 1448.7 L1267.79 1484.72 L1263.53 1484.72 L1263.53 1448.7 Z" fill="#000000" fill-rule="evenodd" fill-opacity="1" /><path clip-path="url(#clip350)" d="M1286.75 1461.78 Q1283.33 1461.78 1281.34 1464.47 Q1279.34 1467.13 1279.34 1471.78 Q1279.34 1476.43 1281.31 1479.12 Q1283.3 1481.78 1286.75 1481.78 Q1290.15 1481.78 1292.15 1479.09 Q1294.14 1476.41 1294.14 1471.78 Q1294.14 1467.17 1292.15 1464.49 Q1290.15 1461.78 1286.75 1461.78 M1286.75 1458.17 Q1292.31 1458.17 1295.48 1461.78 Q1298.65 1465.39 1298.65 1471.78 Q1298.65 1478.15 1295.48 1481.78 Q1292.31 1485.39 1286.75 1485.39 Q1281.17 1485.39 1278 1481.78 Q1274.85 1478.15 1274.85 1471.78 Q1274.85 1465.39 1278 1461.78 Q1281.17 1458.17 1286.75 1458.17 Z" fill="#000000" fill-rule="evenodd" fill-opacity="1" /><path clip-path="url(#clip350)" d="M1320.73 1462.78 Q1320.02 1462.36 1319.16 1462.17 Q1318.33 1461.97 1317.31 1461.97 Q1313.7 1461.97 1311.75 1464.33 Q1309.83 1466.66 1309.83 1471.06 L1309.83 1484.72 L1305.55 1484.72 L1305.55 1458.79 L1309.83 1458.79 L1309.83 1462.82 Q1311.17 1460.46 1313.33 1459.33 Q1315.48 1458.17 1318.56 1458.17 Q1319 1458.17 1319.53 1458.24 Q1320.06 1458.28 1320.71 1458.4 L1320.73 1462.78 Z" fill="#000000" fill-rule="evenodd" fill-opacity="1" /><path clip-path="url(#clip350)" d="M1816.1 1458.79 L1820.62 1458.79 L1828.72 1480.55 L1836.82 1458.79 L1841.33 1458.79 L1831.61 1484.72 L1825.83 1484.72 L1816.1 1458.79 Z" fill="#000000" fill-rule="evenodd" fill-opacity="1" /><path clip-path="url(#clip350)" d="M1847.21 1458.79 L1851.47 1458.79 L1851.47 1484.72 L1847.21 1484.72 L1847.21 1458.79 M1847.21 1448.7 L1851.47 1448.7 L1851.47 1454.1 L1847.21 1454.1 L1847.21 1448.7 Z" fill="#000000" fill-rule="evenodd" fill-opacity="1" /><path clip-path="url(#clip350)" d="M1875.41 1462.78 Q1874.69 1462.36 1873.83 1462.17 Q1873 1461.97 1871.98 1461.97 Q1868.37 1461.97 1866.43 1464.33 Q1864.51 1466.66 1864.51 1471.06 L1864.51 1484.72 L1860.22 1484.72 L1860.22 1458.79 L1864.51 1458.79 L1864.51 1462.82 Q1865.85 1460.46 1868 1459.33 Q1870.15 1458.17 1873.23 1458.17 Q1873.67 1458.17 1874.21 1458.24 Q1874.74 1458.28 1875.39 1458.4 L1875.41 1462.78 Z" fill="#000000" fill-rule="evenodd" fill-opacity="1" /><path clip-path="url(#clip350)" d="M1896.1 1471.46 Q1896.1 1466.83 1894.18 1464.28 Q1892.28 1461.73 1888.83 1461.73 Q1885.41 1461.73 1883.49 1464.28 Q1881.59 1466.83 1881.59 1471.46 Q1881.59 1476.06 1883.49 1478.61 Q1885.41 1481.16 1888.83 1481.16 Q1892.28 1481.16 1894.18 1478.61 Q1896.1 1476.06 1896.1 1471.46 M1900.36 1481.5 Q1900.36 1488.12 1897.42 1491.34 Q1894.48 1494.58 1888.42 1494.58 Q1886.17 1494.58 1884.18 1494.23 Q1882.19 1493.91 1880.32 1493.22 L1880.32 1489.07 Q1882.19 1490.09 1884.02 1490.58 Q1885.85 1491.06 1887.75 1491.06 Q1891.94 1491.06 1894.02 1488.86 Q1896.1 1486.69 1896.1 1482.27 L1896.1 1480.16 Q1894.78 1482.45 1892.72 1483.59 Q1890.66 1484.72 1887.79 1484.72 Q1883.02 1484.72 1880.11 1481.09 Q1877.19 1477.45 1877.19 1471.46 Q1877.19 1465.44 1880.11 1461.8 Q1883.02 1458.17 1887.79 1458.17 Q1890.66 1458.17 1892.72 1459.3 Q1894.78 1460.44 1896.1 1462.73 L1896.1 1458.79 L1900.36 1458.79 L1900.36 1481.5 Z" fill="#000000" fill-rule="evenodd" fill-opacity="1" /><path clip-path="url(#clip350)" d="M1909.14 1458.79 L1913.39 1458.79 L1913.39 1484.72 L1909.14 1484.72 L1909.14 1458.79 M1909.14 1448.7 L1913.39 1448.7 L1913.39 1454.1 L1909.14 1454.1 L1909.14 1448.7 Z" fill="#000000" fill-rule="evenodd" fill-opacity="1" /><path clip-path="url(#clip350)" d="M1943.86 1469.07 L1943.86 1484.72 L1939.6 1484.72 L1939.6 1469.21 Q1939.6 1465.53 1938.16 1463.7 Q1936.73 1461.87 1933.86 1461.87 Q1930.41 1461.87 1928.42 1464.07 Q1926.43 1466.27 1926.43 1470.07 L1926.43 1484.72 L1922.14 1484.72 L1922.14 1458.79 L1926.43 1458.79 L1926.43 1462.82 Q1927.95 1460.48 1930.01 1459.33 Q1932.1 1458.17 1934.81 1458.17 Q1939.27 1458.17 1941.57 1460.95 Q1943.86 1463.7 1943.86 1469.07 Z" fill="#000000" fill-rule="evenodd" fill-opacity="1" /><path clip-path="url(#clip350)" d="M1952.35 1458.79 L1956.61 1458.79 L1956.61 1484.72 L1952.35 1484.72 L1952.35 1458.79 M1952.35 1448.7 L1956.61 1448.7 L1956.61 1454.1 L1952.35 1454.1 L1952.35 1448.7 Z" fill="#000000" fill-rule="evenodd" fill-opacity="1" /><path clip-path="url(#clip350)" d="M1984.18 1459.79 L1984.18 1463.77 Q1982.38 1462.78 1980.55 1462.29 Q1978.74 1461.78 1976.89 1461.78 Q1972.75 1461.78 1970.45 1464.42 Q1968.16 1467.03 1968.16 1471.78 Q1968.16 1476.53 1970.45 1479.16 Q1972.75 1481.78 1976.89 1481.78 Q1978.74 1481.78 1980.55 1481.29 Q1982.38 1480.78 1984.18 1479.79 L1984.18 1483.72 Q1982.4 1484.56 1980.48 1484.97 Q1978.58 1485.39 1976.43 1485.39 Q1970.57 1485.39 1967.12 1481.71 Q1963.67 1478.03 1963.67 1471.78 Q1963.67 1465.44 1967.14 1461.8 Q1970.64 1458.17 1976.7 1458.17 Q1978.67 1458.17 1980.55 1458.59 Q1982.42 1458.98 1984.18 1459.79 Z" fill="#000000" fill-rule="evenodd" fill-opacity="1" /><path clip-path="url(#clip350)" d="M2003.37 1471.69 Q1998.21 1471.69 1996.22 1472.87 Q1994.23 1474.05 1994.23 1476.9 Q1994.23 1479.16 1995.71 1480.51 Q1997.21 1481.83 1999.78 1481.83 Q2003.32 1481.83 2005.45 1479.33 Q2007.61 1476.8 2007.61 1472.64 L2007.61 1471.69 L2003.37 1471.69 M2011.87 1469.93 L2011.87 1484.72 L2007.61 1484.72 L2007.61 1480.78 Q2006.15 1483.15 2003.97 1484.28 Q2001.8 1485.39 1998.65 1485.39 Q1994.67 1485.39 1992.31 1483.17 Q1989.97 1480.92 1989.97 1477.17 Q1989.97 1472.8 1992.88 1470.58 Q1995.82 1468.35 2001.63 1468.35 L2007.61 1468.35 L2007.61 1467.94 Q2007.61 1465 2005.66 1463.4 Q2003.74 1461.78 2000.25 1461.78 Q1998.02 1461.78 1995.92 1462.31 Q1993.81 1462.84 1991.87 1463.91 L1991.87 1459.97 Q1994.2 1459.07 1996.4 1458.63 Q1998.6 1458.17 2000.69 1458.17 Q2006.31 1458.17 2009.09 1461.09 Q2011.87 1464 2011.87 1469.93 Z" fill="#000000" fill-rule="evenodd" fill-opacity="1" /><polyline clip-path="url(#clip352)" style="stroke:#000000; stroke-linecap:round; stroke-linejoin:round; stroke-width:2; stroke-opacity:0.1; fill:none" points="
  154.805,1167.82 2256.76,1167.82 
  "/>
<polyline clip-path="url(#clip352)" style="stroke:#000000; stroke-linecap:round; stroke-linejoin:round; stroke-width:2; stroke-opacity:0.1; fill:none" points="
  154.805,897.412 2256.76,897.412 
  "/>
<polyline clip-path="url(#clip352)" style="stroke:#000000; stroke-linecap:round; stroke-linejoin:round; stroke-width:2; stroke-opacity:0.1; fill:none" points="
  154.805,627.002 2256.76,627.002 
  "/>
<polyline clip-path="url(#clip352)" style="stroke:#000000; stroke-linecap:round; stroke-linejoin:round; stroke-width:2; stroke-opacity:0.1; fill:none" points="
  154.805,356.593 2256.76,356.593 
  "/>
<polyline clip-path="url(#clip352)" style="stroke:#000000; stroke-linecap:round; stroke-linejoin:round; stroke-width:2; stroke-opacity:0.1; fill:none" points="
  154.805,86.1831 2256.76,86.1831 
  "/>
<polyline clip-path="url(#clip350)" style="stroke:#000000; stroke-linecap:round; stroke-linejoin:round; stroke-width:4; stroke-opacity:1; fill:none" points="
  154.805,1423.09 154.805,47.2441 
  "/>
<polyline clip-path="url(#clip350)" style="stroke:#000000; stroke-linecap:round; stroke-linejoin:round; stroke-width:4; stroke-opacity:1; fill:none" points="
  154.805,1167.82 173.703,1167.82 
  "/>
<polyline clip-path="url(#clip350)" style="stroke:#000000; stroke-linecap:round; stroke-linejoin:round; stroke-width:4; stroke-opacity:1; fill:none" points="
  154.805,897.412 173.703,897.412 
  "/>
<polyline clip-path="url(#clip350)" style="stroke:#000000; stroke-linecap:round; stroke-linejoin:round; stroke-width:4; stroke-opacity:1; fill:none" points="
  154.805,627.002 173.703,627.002 
  "/>
<polyline clip-path="url(#clip350)" style="stroke:#000000; stroke-linecap:round; stroke-linejoin:round; stroke-width:4; stroke-opacity:1; fill:none" points="
  154.805,356.593 173.703,356.593 
  "/>
<polyline clip-path="url(#clip350)" style="stroke:#000000; stroke-linecap:round; stroke-linejoin:round; stroke-width:4; stroke-opacity:1; fill:none" points="
  154.805,86.1831 173.703,86.1831 
  "/>
<path clip-path="url(#clip350)" d="M64.0647 1153.62 Q60.4536 1153.62 58.6249 1157.18 Q56.8193 1160.73 56.8193 1167.86 Q56.8193 1174.96 58.6249 1178.53 Q60.4536 1182.07 64.0647 1182.07 Q67.6989 1182.07 69.5044 1178.53 Q71.3331 1174.96 71.3331 1167.86 Q71.3331 1160.73 69.5044 1157.18 Q67.6989 1153.62 64.0647 1153.62 M64.0647 1149.92 Q69.8748 1149.92 72.9303 1154.52 Q76.009 1159.11 76.009 1167.86 Q76.009 1176.58 72.9303 1181.19 Q69.8748 1185.77 64.0647 1185.77 Q58.2545 1185.77 55.1758 1181.19 Q52.1203 1176.58 52.1203 1167.86 Q52.1203 1159.11 55.1758 1154.52 Q58.2545 1149.92 64.0647 1149.92 Z" fill="#000000" fill-rule="evenodd" fill-opacity="1" /><path clip-path="url(#clip350)" d="M84.2266 1179.22 L89.1108 1179.22 L89.1108 1185.1 L84.2266 1185.1 L84.2266 1179.22 Z" fill="#000000" fill-rule="evenodd" fill-opacity="1" /><path clip-path="url(#clip350)" d="M99.3422 1150.54 L117.699 1150.54 L117.699 1154.48 L103.625 1154.48 L103.625 1162.95 Q104.643 1162.6 105.662 1162.44 Q106.68 1162.25 107.699 1162.25 Q113.486 1162.25 116.865 1165.43 Q120.245 1168.6 120.245 1174.01 Q120.245 1179.59 116.773 1182.69 Q113.3 1185.77 106.981 1185.77 Q104.805 1185.77 102.537 1185.4 Q100.291 1185.03 97.8839 1184.29 L97.8839 1179.59 Q99.9672 1180.73 102.189 1181.28 Q104.412 1181.84 106.888 1181.84 Q110.893 1181.84 113.231 1179.73 Q115.569 1177.62 115.569 1174.01 Q115.569 1170.4 113.231 1168.3 Q110.893 1166.19 106.888 1166.19 Q105.014 1166.19 103.139 1166.61 Q101.287 1167.02 99.3422 1167.9 L99.3422 1150.54 Z" fill="#000000" fill-rule="evenodd" fill-opacity="1" /><path clip-path="url(#clip350)" d="M53.8795 910.757 L61.5184 910.757 L61.5184 884.391 L53.2082 886.058 L53.2082 881.798 L61.4721 880.132 L66.148 880.132 L66.148 910.757 L73.7868 910.757 L73.7868 914.692 L53.8795 914.692 L53.8795 910.757 Z" fill="#000000" fill-rule="evenodd" fill-opacity="1" /><path clip-path="url(#clip350)" d="M83.2312 908.812 L88.1154 908.812 L88.1154 914.692 L83.2312 914.692 L83.2312 908.812 Z" fill="#000000" fill-rule="evenodd" fill-opacity="1" /><path clip-path="url(#clip350)" d="M108.301 883.21 Q104.689 883.21 102.861 886.775 Q101.055 890.317 101.055 897.446 Q101.055 904.553 102.861 908.118 Q104.689 911.659 108.301 911.659 Q111.935 911.659 113.74 908.118 Q115.569 904.553 115.569 897.446 Q115.569 890.317 113.74 886.775 Q111.935 883.21 108.301 883.21 M108.301 879.507 Q114.111 879.507 117.166 884.113 Q120.245 888.696 120.245 897.446 Q120.245 906.173 117.166 910.78 Q114.111 915.363 108.301 915.363 Q102.49 915.363 99.4117 910.78 Q96.3561 906.173 96.3561 897.446 Q96.3561 888.696 99.4117 884.113 Q102.49 879.507 108.301 879.507 Z" fill="#000000" fill-rule="evenodd" fill-opacity="1" /><path clip-path="url(#clip350)" d="M54.8749 640.347 L62.5137 640.347 L62.5137 613.981 L54.2036 615.648 L54.2036 611.389 L62.4674 609.722 L67.1433 609.722 L67.1433 640.347 L74.7822 640.347 L74.7822 644.282 L54.8749 644.282 L54.8749 640.347 Z" fill="#000000" fill-rule="evenodd" fill-opacity="1" /><path clip-path="url(#clip350)" d="M84.2266 638.403 L89.1108 638.403 L89.1108 644.282 L84.2266 644.282 L84.2266 638.403 Z" fill="#000000" fill-rule="evenodd" fill-opacity="1" /><path clip-path="url(#clip350)" d="M99.3422 609.722 L117.699 609.722 L117.699 613.657 L103.625 613.657 L103.625 622.13 Q104.643 621.782 105.662 621.62 Q106.68 621.435 107.699 621.435 Q113.486 621.435 116.865 624.606 Q120.245 627.778 120.245 633.194 Q120.245 638.773 116.773 641.875 Q113.3 644.953 106.981 644.953 Q104.805 644.953 102.537 644.583 Q100.291 644.213 97.8839 643.472 L97.8839 638.773 Q99.9672 639.907 102.189 640.463 Q104.412 641.018 106.888 641.018 Q110.893 641.018 113.231 638.912 Q115.569 636.805 115.569 633.194 Q115.569 629.583 113.231 627.477 Q110.893 625.37 106.888 625.37 Q105.014 625.37 103.139 625.787 Q101.287 626.204 99.3422 627.083 L99.3422 609.722 Z" fill="#000000" fill-rule="evenodd" fill-opacity="1" /><path clip-path="url(#clip350)" d="M57.0971 369.937 L73.4165 369.937 L73.4165 373.873 L51.4721 373.873 L51.4721 369.937 Q54.1341 367.183 58.7175 362.553 Q63.3239 357.9 64.5045 356.558 Q66.7498 354.035 67.6294 352.299 Q68.5322 350.539 68.5322 348.85 Q68.5322 346.095 66.5878 344.359 Q64.6665 342.623 61.5647 342.623 Q59.3656 342.623 56.9119 343.387 Q54.4814 344.151 51.7036 345.701 L51.7036 340.979 Q54.5277 339.845 56.9814 339.266 Q59.435 338.688 61.4721 338.688 Q66.8424 338.688 70.0368 341.373 Q73.2313 344.058 73.2313 348.549 Q73.2313 350.678 72.4211 352.6 Q71.6341 354.498 69.5276 357.09 Q68.9489 357.762 65.847 360.979 Q62.7452 364.174 57.0971 369.937 Z" fill="#000000" fill-rule="evenodd" fill-opacity="1" /><path clip-path="url(#clip350)" d="M83.2312 367.993 L88.1154 367.993 L88.1154 373.873 L83.2312 373.873 L83.2312 367.993 Z" fill="#000000" fill-rule="evenodd" fill-opacity="1" /><path clip-path="url(#clip350)" d="M108.301 342.391 Q104.689 342.391 102.861 345.956 Q101.055 349.498 101.055 356.627 Q101.055 363.734 102.861 367.299 Q104.689 370.84 108.301 370.84 Q111.935 370.84 113.74 367.299 Q115.569 363.734 115.569 356.627 Q115.569 349.498 113.74 345.956 Q111.935 342.391 108.301 342.391 M108.301 338.688 Q114.111 338.688 117.166 343.294 Q120.245 347.877 120.245 356.627 Q120.245 365.354 117.166 369.961 Q114.111 374.544 108.301 374.544 Q102.49 374.544 99.4117 369.961 Q96.3561 365.354 96.3561 356.627 Q96.3561 347.877 99.4117 343.294 Q102.49 338.688 108.301 338.688 Z" fill="#000000" fill-rule="evenodd" fill-opacity="1" /><path clip-path="url(#clip350)" d="M58.0925 99.5279 L74.4118 99.5279 L74.4118 103.463 L52.4675 103.463 L52.4675 99.5279 Q55.1295 96.7733 59.7128 92.1437 Q64.3193 87.4909 65.4998 86.1483 Q67.7452 83.6252 68.6248 81.8891 Q69.5276 80.1299 69.5276 78.4401 Q69.5276 75.6854 67.5832 73.9493 Q65.6619 72.2132 62.56 72.2132 Q60.361 72.2132 57.9073 72.9771 Q55.4767 73.741 52.699 75.2919 L52.699 70.5697 Q55.523 69.4355 57.9767 68.8568 Q60.4304 68.2781 62.4674 68.2781 Q67.8378 68.2781 71.0322 70.9632 Q74.2266 73.6484 74.2266 78.1391 Q74.2266 80.2687 73.4165 82.19 Q72.6294 84.0882 70.5229 86.6808 Q69.9442 87.352 66.8424 90.5696 Q63.7406 93.764 58.0925 99.5279 Z" fill="#000000" fill-rule="evenodd" fill-opacity="1" /><path clip-path="url(#clip350)" d="M84.2266 97.5835 L89.1108 97.5835 L89.1108 103.463 L84.2266 103.463 L84.2266 97.5835 Z" fill="#000000" fill-rule="evenodd" fill-opacity="1" /><path clip-path="url(#clip350)" d="M99.3422 68.9031 L117.699 68.9031 L117.699 72.8382 L103.625 72.8382 L103.625 81.3104 Q104.643 80.9632 105.662 80.8012 Q106.68 80.616 107.699 80.616 Q113.486 80.616 116.865 83.7872 Q120.245 86.9585 120.245 92.3752 Q120.245 97.9538 116.773 101.056 Q113.3 104.134 106.981 104.134 Q104.805 104.134 102.537 103.764 Q100.291 103.394 97.8839 102.653 L97.8839 97.9538 Q99.9672 99.0881 102.189 99.6436 Q104.412 100.199 106.888 100.199 Q110.893 100.199 113.231 98.0927 Q115.569 95.9863 115.569 92.3752 Q115.569 88.7641 113.231 86.6576 Q110.893 84.5511 106.888 84.5511 Q105.014 84.5511 103.139 84.9678 Q101.287 85.3845 99.3422 86.2641 L99.3422 68.9031 Z" fill="#000000" fill-rule="evenodd" fill-opacity="1" /><path clip-path="url(#clip352)" d="
M748.289 1382.21 L753.931 1375.37 L759.111 1368.54 L763.798 1361.71 L767.963 1354.87 L771.582 1348.04 L774.633 1341.2 L777.097 1334.37 L778.96 1327.54 L780.211 1320.7 
  L780.844 1313.87 L780.858 1307.03 L780.253 1300.2 L779.036 1293.37 L777.217 1286.53 L774.81 1279.7 L771.832 1272.86 L768.304 1266.03 L764.25 1259.2 L759.699 1252.36 
  L754.679 1245.53 L749.223 1238.69 L743.365 1231.86 L737.141 1225.02 L730.588 1218.19 L723.744 1211.36 L716.648 1204.52 L709.337 1197.69 L701.852 1190.85 L694.23 1184.02 
  L686.509 1177.19 L678.724 1170.35 L670.912 1163.52 L663.105 1156.68 L655.335 1149.85 L647.633 1143.02 L640.025 1136.18 L632.539 1129.35 L625.197 1122.51 L618.021 1115.68 
  L377.131 1115.68 L369.955 1122.51 L362.613 1129.35 L355.126 1136.18 L347.519 1143.02 L339.817 1149.85 L332.047 1156.68 L324.24 1163.52 L316.428 1170.35 L308.643 1177.19 
  L300.922 1184.02 L293.3 1190.85 L285.814 1197.69 L278.504 1204.52 L271.408 1211.36 L264.564 1218.19 L258.01 1225.02 L251.786 1231.86 L245.929 1238.69 L240.473 1245.53 
  L235.453 1252.36 L230.901 1259.2 L226.848 1266.03 L223.32 1272.86 L220.342 1279.7 L217.935 1286.53 L216.116 1293.37 L214.899 1300.2 L214.294 1307.03 L214.307 1313.87 
  L214.941 1320.7 L216.192 1327.54 L218.055 1334.37 L220.519 1341.2 L223.569 1348.04 L227.188 1354.87 L231.354 1361.71 L236.041 1368.54 L241.221 1375.37 L246.863 1382.21 
  L748.289 1382.21  Z
  " fill="#009af9" fill-rule="evenodd" fill-opacity="1"/>
<polyline clip-path="url(#clip352)" style="stroke:#000000; stroke-linecap:round; stroke-linejoin:round; stroke-width:4; stroke-opacity:1; fill:none" points="
  748.289,1382.21 753.931,1375.37 759.111,1368.54 763.798,1361.71 767.963,1354.87 771.582,1348.04 774.633,1341.2 777.097,1334.37 778.96,1327.54 780.211,1320.7 
  780.844,1313.87 780.858,1307.03 780.253,1300.2 779.036,1293.37 777.217,1286.53 774.81,1279.7 771.832,1272.86 768.304,1266.03 764.25,1259.2 759.699,1252.36 
  754.679,1245.53 749.223,1238.69 743.365,1231.86 737.141,1225.02 730.588,1218.19 723.744,1211.36 716.648,1204.52 709.337,1197.69 701.852,1190.85 694.23,1184.02 
  686.509,1177.19 678.724,1170.35 670.912,1163.52 663.105,1156.68 655.335,1149.85 647.633,1143.02 640.025,1136.18 632.539,1129.35 625.197,1122.51 618.021,1115.68 
  377.131,1115.68 369.955,1122.51 362.613,1129.35 355.126,1136.18 347.519,1143.02 339.817,1149.85 332.047,1156.68 324.24,1163.52 316.428,1170.35 308.643,1177.19 
  300.922,1184.02 293.3,1190.85 285.814,1197.69 278.504,1204.52 271.408,1211.36 264.564,1218.19 258.01,1225.02 251.786,1231.86 245.929,1238.69 240.473,1245.53 
  235.453,1252.36 230.901,1259.2 226.848,1266.03 223.32,1272.86 220.342,1279.7 217.935,1286.53 216.116,1293.37 214.899,1300.2 214.294,1307.03 214.307,1313.87 
  214.941,1320.7 216.192,1327.54 218.055,1334.37 220.519,1341.2 223.569,1348.04 227.188,1354.87 231.354,1361.71 236.041,1368.54 241.221,1375.37 246.863,1382.21 
  748.289,1382.21 
  "/>
<path clip-path="url(#clip352)" d="
M1380.9 891.442 L1388.21 883.793 L1395.48 876.144 L1402.68 868.494 L1409.78 860.845 L1416.75 853.195 L1423.57 845.546 L1430.2 837.897 L1436.62 830.247 L1442.8 822.598 
  L1448.7 814.948 L1454.31 807.299 L1459.58 799.65 L1464.5 792 L1469.03 784.351 L1473.15 776.701 L1476.85 769.052 L1480.09 761.403 L1482.86 753.753 L1485.13 746.104 
  L1486.9 738.455 L1488.15 730.805 L1488.88 723.156 L1489.06 715.506 L1488.71 707.857 L1487.81 700.208 L1486.38 692.558 L1484.42 684.909 L1481.92 677.259 L1478.92 669.61 
  L1475.41 661.961 L1471.43 654.311 L1466.98 646.662 L1462.1 639.012 L1456.8 631.363 L1451.12 623.714 L1445.08 616.064 L1438.71 608.415 L1432.06 600.765 L1425.15 593.116 
  L1418.01 585.467 L1410.68 577.817 L1403.2 570.168 L1395.61 562.518 L1387.92 554.869 L1380.19 547.22 L1372.44 539.57 L1364.71 531.921 L1357.02 524.272 L1349.41 516.622 
  L1341.89 508.973 L1334.5 501.323 L1327.26 493.674 L1320.2 486.025 L1313.31 478.375 L1306.64 470.726 L1104.92 470.726 L1098.25 478.375 L1091.37 486.025 L1084.3 493.674 
  L1077.06 501.323 L1069.67 508.973 L1062.16 516.622 L1054.54 524.272 L1046.85 531.921 L1039.12 539.57 L1031.37 547.22 L1023.64 554.869 L1015.96 562.518 L1008.36 570.168 
  L1000.88 577.817 L993.553 585.467 L986.415 593.116 L979.502 600.765 L972.847 608.415 L966.484 616.064 L960.445 623.714 L954.762 631.363 L949.464 639.012 L944.579 646.662 
  L940.132 654.311 L936.146 661.961 L932.642 669.61 L929.637 677.259 L927.145 684.909 L925.179 692.558 L923.746 700.208 L922.852 707.857 L922.499 715.506 L922.685 723.156 
  L923.408 730.805 L924.659 738.455 L926.429 746.104 L928.705 753.753 L931.472 761.403 L934.713 769.052 L938.406 776.701 L942.532 784.351 L947.065 792 L951.982 799.65 
  L957.255 807.299 L962.858 814.948 L968.763 822.598 L974.94 830.247 L981.36 837.897 L987.994 845.546 L994.812 853.195 L1001.79 860.845 L1008.89 868.494 L1016.08 876.144 
  L1023.35 883.793 L1030.66 891.442 L1380.9 891.442  Z
  " fill="#009af9" fill-rule="evenodd" fill-opacity="1"/>
<polyline clip-path="url(#clip352)" style="stroke:#000000; stroke-linecap:round; stroke-linejoin:round; stroke-width:4; stroke-opacity:1; fill:none" points="
  1380.9,891.442 1388.21,883.793 1395.48,876.144 1402.68,868.494 1409.78,860.845 1416.75,853.195 1423.57,845.546 1430.2,837.897 1436.62,830.247 1442.8,822.598 
  1448.7,814.948 1454.31,807.299 1459.58,799.65 1464.5,792 1469.03,784.351 1473.15,776.701 1476.85,769.052 1480.09,761.403 1482.86,753.753 1485.13,746.104 
  1486.9,738.455 1488.15,730.805 1488.88,723.156 1489.06,715.506 1488.71,707.857 1487.81,700.208 1486.38,692.558 1484.42,684.909 1481.92,677.259 1478.92,669.61 
  1475.41,661.961 1471.43,654.311 1466.98,646.662 1462.1,639.012 1456.8,631.363 1451.12,623.714 1445.08,616.064 1438.71,608.415 1432.06,600.765 1425.15,593.116 
  1418.01,585.467 1410.68,577.817 1403.2,570.168 1395.61,562.518 1387.92,554.869 1380.19,547.22 1372.44,539.57 1364.71,531.921 1357.02,524.272 1349.41,516.622 
  1341.89,508.973 1334.5,501.323 1327.26,493.674 1320.2,486.025 1313.31,478.375 1306.64,470.726 1104.92,470.726 1098.25,478.375 1091.37,486.025 1084.3,493.674 
  1077.06,501.323 1069.67,508.973 1062.16,516.622 1054.54,524.272 1046.85,531.921 1039.12,539.57 1031.37,547.22 1023.64,554.869 1015.96,562.518 1008.36,570.168 
  1000.88,577.817 993.553,585.467 986.415,593.116 979.502,600.765 972.847,608.415 966.484,616.064 960.445,623.714 954.762,631.363 949.464,639.012 944.579,646.662 
  940.132,654.311 936.146,661.961 932.642,669.61 929.637,677.259 927.145,684.909 925.179,692.558 923.746,700.208 922.852,707.857 922.499,715.506 922.685,723.156 
  923.408,730.805 924.659,738.455 926.429,746.104 928.705,753.753 931.472,761.403 934.713,769.052 938.406,776.701 942.532,784.351 947.065,792 951.982,799.65 
  957.255,807.299 962.858,814.948 968.763,822.598 974.94,830.247 981.36,837.897 987.994,845.546 994.812,853.195 1001.79,860.845 1008.89,868.494 1016.08,876.144 
  1023.35,883.793 1030.66,891.442 1380.9,891.442 
  "/>
<path clip-path="url(#clip352)" d="
M1990 675.666 L1995.39 667.201 L2001.02 658.736 L2006.87 650.272 L2012.94 641.807 L2019.22 633.342 L2025.7 624.877 L2032.37 616.413 L2039.2 607.948 L2046.19 599.483 
  L2053.31 591.019 L2060.54 582.554 L2067.86 574.089 L2075.23 565.625 L2082.64 557.16 L2090.06 548.695 L2097.44 540.23 L2104.77 531.766 L2112 523.301 L2119.12 514.836 
  L2126.08 506.372 L2132.85 497.907 L2139.4 489.442 L2145.71 480.978 L2151.74 472.513 L2157.48 464.048 L2162.89 455.584 L2167.95 447.119 L2172.65 438.654 L2176.96 430.189 
  L2180.88 421.725 L2184.39 413.26 L2187.48 404.795 L2190.15 396.331 L2192.4 387.866 L2194.22 379.401 L2195.61 370.937 L2196.58 362.472 L2197.13 354.007 L2197.27 345.542 
  L2197 337.078 L2196.33 328.613 L2195.27 320.148 L2193.83 311.684 L2192.01 303.219 L2189.84 294.754 L2187.31 286.29 L2184.45 277.825 L2181.25 269.36 L2177.72 260.895 
  L2173.89 252.431 L2169.75 243.966 L2165.32 235.501 L2160.61 227.037 L2155.62 218.572 L2150.38 210.107 L2144.89 201.643 L2139.17 193.178 L2133.22 184.713 L2127.08 176.248 
  L2120.74 167.784 L2114.23 159.319 L2107.57 150.854 L2100.77 142.39 L2093.86 133.925 L2086.86 125.46 L2079.79 116.996 L2072.67 108.531 L2065.53 100.066 L2058.38 91.6015 
  L1769.59 91.6015 L1762.44 100.066 L1755.3 108.531 L1748.18 116.996 L1741.11 125.46 L1734.11 133.925 L1727.2 142.39 L1720.4 150.854 L1713.74 159.319 L1707.23 167.784 
  L1700.89 176.248 L1694.75 184.713 L1688.8 193.178 L1683.08 201.643 L1677.59 210.107 L1672.35 218.572 L1667.36 227.037 L1662.65 235.501 L1658.22 243.966 L1654.08 252.431 
  L1650.25 260.895 L1646.72 269.36 L1643.52 277.825 L1640.66 286.29 L1638.13 294.754 L1635.96 303.219 L1634.14 311.684 L1632.7 320.148 L1631.64 328.613 L1630.97 337.078 
  L1630.7 345.542 L1630.84 354.007 L1631.39 362.472 L1632.36 370.937 L1633.75 379.401 L1635.57 387.866 L1637.82 396.331 L1640.49 404.795 L1643.58 413.26 L1647.09 421.725 
  L1651.01 430.189 L1655.32 438.654 L1660.02 447.119 L1665.08 455.584 L1670.49 464.048 L1676.23 472.513 L1682.26 480.978 L1688.57 489.442 L1695.12 497.907 L1701.89 506.372 
  L1708.85 514.836 L1715.97 523.301 L1723.2 531.766 L1730.53 540.23 L1737.91 548.695 L1745.33 557.16 L1752.74 565.625 L1760.11 574.089 L1767.43 582.554 L1774.66 591.019 
  L1781.78 599.483 L1788.77 607.948 L1795.6 616.413 L1802.27 624.877 L1808.75 633.342 L1815.03 641.807 L1821.1 650.272 L1826.95 658.736 L1832.58 667.201 L1837.97 675.666 
  L1990 675.666  Z
  " fill="#009af9" fill-rule="evenodd" fill-opacity="1"/>
<polyline clip-path="url(#clip352)" style="stroke:#000000; stroke-linecap:round; stroke-linejoin:round; stroke-width:4; stroke-opacity:1; fill:none" points="
  1990,675.666 1995.39,667.201 2001.02,658.736 2006.87,650.272 2012.94,641.807 2019.22,633.342 2025.7,624.877 2032.37,616.413 2039.2,607.948 2046.19,599.483 
  2053.31,591.019 2060.54,582.554 2067.86,574.089 2075.23,565.625 2082.64,557.16 2090.06,548.695 2097.44,540.23 2104.77,531.766 2112,523.301 2119.12,514.836 
  2126.08,506.372 2132.85,497.907 2139.4,489.442 2145.71,480.978 2151.74,472.513 2157.48,464.048 2162.89,455.584 2167.95,447.119 2172.65,438.654 2176.96,430.189 
  2180.88,421.725 2184.39,413.26 2187.48,404.795 2190.15,396.331 2192.4,387.866 2194.22,379.401 2195.61,370.937 2196.58,362.472 2197.13,354.007 2197.27,345.542 
  2197,337.078 2196.33,328.613 2195.27,320.148 2193.83,311.684 2192.01,303.219 2189.84,294.754 2187.31,286.29 2184.45,277.825 2181.25,269.36 2177.72,260.895 
  2173.89,252.431 2169.75,243.966 2165.32,235.501 2160.61,227.037 2155.62,218.572 2150.38,210.107 2144.89,201.643 2139.17,193.178 2133.22,184.713 2127.08,176.248 
  2120.74,167.784 2114.23,159.319 2107.57,150.854 2100.77,142.39 2093.86,133.925 2086.86,125.46 2079.79,116.996 2072.67,108.531 2065.53,100.066 2058.38,91.6015 
  1769.59,91.6015 1762.44,100.066 1755.3,108.531 1748.18,116.996 1741.11,125.46 1734.11,133.925 1727.2,142.39 1720.4,150.854 1713.74,159.319 1707.23,167.784 
  1700.89,176.248 1694.75,184.713 1688.8,193.178 1683.08,201.643 1677.59,210.107 1672.35,218.572 1667.36,227.037 1662.65,235.501 1658.22,243.966 1654.08,252.431 
  1650.25,260.895 1646.72,269.36 1643.52,277.825 1640.66,286.29 1638.13,294.754 1635.96,303.219 1634.14,311.684 1632.7,320.148 1631.64,328.613 1630.97,337.078 
  1630.7,345.542 1630.84,354.007 1631.39,362.472 1632.36,370.937 1633.75,379.401 1635.57,387.866 1637.82,396.331 1640.49,404.795 1643.58,413.26 1647.09,421.725 
  1651.01,430.189 1655.32,438.654 1660.02,447.119 1665.08,455.584 1670.49,464.048 1676.23,472.513 1682.26,480.978 1688.57,489.442 1695.12,497.907 1701.89,506.372 
  1708.85,514.836 1715.97,523.301 1723.2,531.766 1730.53,540.23 1737.91,548.695 1745.33,557.16 1752.74,565.625 1760.11,574.089 1767.43,582.554 1774.66,591.019 
  1781.78,599.483 1788.77,607.948 1795.6,616.413 1802.27,624.877 1808.75,633.342 1815.03,641.807 1821.1,650.272 1826.95,658.736 1832.58,667.201 1837.97,675.666 
  1990,675.666 
  "/>
<circle clip-path="url(#clip352)" cx="579.222" cy="1330.07" r="14.4" fill="#e26f46" fill-rule="evenodd" fill-opacity="1" stroke="#000000" stroke-opacity="1" stroke-width="3.072"/>
<circle clip-path="url(#clip352)" cx="240.659" cy="1330.07" r="14.4" fill="#e26f46" fill-rule="evenodd" fill-opacity="1" stroke="#000000" stroke-opacity="1" stroke-width="3.072"/>
<circle clip-path="url(#clip352)" cx="502.888" cy="1330.07" r="14.4" fill="#e26f46" fill-rule="evenodd" fill-opacity="1" stroke="#000000" stroke-opacity="1" stroke-width="3.072"/>
<circle clip-path="url(#clip352)" cx="380.471" cy="1330.07" r="14.4" fill="#e26f46" fill-rule="evenodd" fill-opacity="1" stroke="#000000" stroke-opacity="1" stroke-width="3.072"/>
<circle clip-path="url(#clip352)" cx="566.721" cy="1330.07" r="14.4" fill="#e26f46" fill-rule="evenodd" fill-opacity="1" stroke="#000000" stroke-opacity="1" stroke-width="3.072"/>
<circle clip-path="url(#clip352)" cx="538.885" cy="1221.9" r="14.4" fill="#e26f46" fill-rule="evenodd" fill-opacity="1" stroke="#000000" stroke-opacity="1" stroke-width="3.072"/>
<circle clip-path="url(#clip352)" cx="519.771" cy="1275.99" r="14.4" fill="#e26f46" fill-rule="evenodd" fill-opacity="1" stroke="#000000" stroke-opacity="1" stroke-width="3.072"/>
<circle clip-path="url(#clip352)" cx="457.022" cy="1330.07" r="14.4" fill="#e26f46" fill-rule="evenodd" fill-opacity="1" stroke="#000000" stroke-opacity="1" stroke-width="3.072"/>
<circle clip-path="url(#clip352)" cx="752.685" cy="1330.07" r="14.4" fill="#e26f46" fill-rule="evenodd" fill-opacity="1" stroke="#000000" stroke-opacity="1" stroke-width="3.072"/>
<circle clip-path="url(#clip352)" cx="502.823" cy="1384.15" r="14.4" fill="#e26f46" fill-rule="evenodd" fill-opacity="1" stroke="#000000" stroke-opacity="1" stroke-width="3.072"/>
<circle clip-path="url(#clip352)" cx="700.691" cy="1330.07" r="14.4" fill="#e26f46" fill-rule="evenodd" fill-opacity="1" stroke="#000000" stroke-opacity="1" stroke-width="3.072"/>
<circle clip-path="url(#clip352)" cx="678.569" cy="1330.07" r="14.4" fill="#e26f46" fill-rule="evenodd" fill-opacity="1" stroke="#000000" stroke-opacity="1" stroke-width="3.072"/>
<circle clip-path="url(#clip352)" cx="473.692" cy="1384.15" r="14.4" fill="#e26f46" fill-rule="evenodd" fill-opacity="1" stroke="#000000" stroke-opacity="1" stroke-width="3.072"/>
<circle clip-path="url(#clip352)" cx="481.67" cy="1384.15" r="14.4" fill="#e26f46" fill-rule="evenodd" fill-opacity="1" stroke="#000000" stroke-opacity="1" stroke-width="3.072"/>
<circle clip-path="url(#clip352)" cx="625.731" cy="1330.07" r="14.4" fill="#e26f46" fill-rule="evenodd" fill-opacity="1" stroke="#000000" stroke-opacity="1" stroke-width="3.072"/>
<circle clip-path="url(#clip352)" cx="483.581" cy="1221.9" r="14.4" fill="#e26f46" fill-rule="evenodd" fill-opacity="1" stroke="#000000" stroke-opacity="1" stroke-width="3.072"/>
<circle clip-path="url(#clip352)" cx="541.816" cy="1221.9" r="14.4" fill="#e26f46" fill-rule="evenodd" fill-opacity="1" stroke="#000000" stroke-opacity="1" stroke-width="3.072"/>
<circle clip-path="url(#clip352)" cx="559.776" cy="1275.99" r="14.4" fill="#e26f46" fill-rule="evenodd" fill-opacity="1" stroke="#000000" stroke-opacity="1" stroke-width="3.072"/>
<circle clip-path="url(#clip352)" cx="456.308" cy="1275.99" r="14.4" fill="#e26f46" fill-rule="evenodd" fill-opacity="1" stroke="#000000" stroke-opacity="1" stroke-width="3.072"/>
<circle clip-path="url(#clip352)" cx="443.358" cy="1275.99" r="14.4" fill="#e26f46" fill-rule="evenodd" fill-opacity="1" stroke="#000000" stroke-opacity="1" stroke-width="3.072"/>
<circle clip-path="url(#clip352)" cx="377.065" cy="1330.07" r="14.4" fill="#e26f46" fill-rule="evenodd" fill-opacity="1" stroke="#000000" stroke-opacity="1" stroke-width="3.072"/>
<circle clip-path="url(#clip352)" cx="565.631" cy="1221.9" r="14.4" fill="#e26f46" fill-rule="evenodd" fill-opacity="1" stroke="#000000" stroke-opacity="1" stroke-width="3.072"/>
<circle clip-path="url(#clip352)" cx="337.186" cy="1330.07" r="14.4" fill="#e26f46" fill-rule="evenodd" fill-opacity="1" stroke="#000000" stroke-opacity="1" stroke-width="3.072"/>
<circle clip-path="url(#clip352)" cx="493.49" cy="1167.82" r="14.4" fill="#e26f46" fill-rule="evenodd" fill-opacity="1" stroke="#000000" stroke-opacity="1" stroke-width="3.072"/>
<circle clip-path="url(#clip352)" cx="522.842" cy="1330.07" r="14.4" fill="#e26f46" fill-rule="evenodd" fill-opacity="1" stroke="#000000" stroke-opacity="1" stroke-width="3.072"/>
<circle clip-path="url(#clip352)" cx="702.175" cy="1330.07" r="14.4" fill="#e26f46" fill-rule="evenodd" fill-opacity="1" stroke="#000000" stroke-opacity="1" stroke-width="3.072"/>
<circle clip-path="url(#clip352)" cx="530.026" cy="1221.9" r="14.4" fill="#e26f46" fill-rule="evenodd" fill-opacity="1" stroke="#000000" stroke-opacity="1" stroke-width="3.072"/>
<circle clip-path="url(#clip352)" cx="565.618" cy="1330.07" r="14.4" fill="#e26f46" fill-rule="evenodd" fill-opacity="1" stroke="#000000" stroke-opacity="1" stroke-width="3.072"/>
<circle clip-path="url(#clip352)" cx="478.317" cy="1330.07" r="14.4" fill="#e26f46" fill-rule="evenodd" fill-opacity="1" stroke="#000000" stroke-opacity="1" stroke-width="3.072"/>
<circle clip-path="url(#clip352)" cx="244.541" cy="1330.07" r="14.4" fill="#e26f46" fill-rule="evenodd" fill-opacity="1" stroke="#000000" stroke-opacity="1" stroke-width="3.072"/>
<circle clip-path="url(#clip352)" cx="463.512" cy="1330.07" r="14.4" fill="#e26f46" fill-rule="evenodd" fill-opacity="1" stroke="#000000" stroke-opacity="1" stroke-width="3.072"/>
<circle clip-path="url(#clip352)" cx="536.579" cy="1221.9" r="14.4" fill="#e26f46" fill-rule="evenodd" fill-opacity="1" stroke="#000000" stroke-opacity="1" stroke-width="3.072"/>
<circle clip-path="url(#clip352)" cx="472.889" cy="1384.15" r="14.4" fill="#e26f46" fill-rule="evenodd" fill-opacity="1" stroke="#000000" stroke-opacity="1" stroke-width="3.072"/>
<circle clip-path="url(#clip352)" cx="218" cy="1330.07" r="14.4" fill="#e26f46" fill-rule="evenodd" fill-opacity="1" stroke="#000000" stroke-opacity="1" stroke-width="3.072"/>
<circle clip-path="url(#clip352)" cx="683.886" cy="1330.07" r="14.4" fill="#e26f46" fill-rule="evenodd" fill-opacity="1" stroke="#000000" stroke-opacity="1" stroke-width="3.072"/>
<circle clip-path="url(#clip352)" cx="433.227" cy="1330.07" r="14.4" fill="#e26f46" fill-rule="evenodd" fill-opacity="1" stroke="#000000" stroke-opacity="1" stroke-width="3.072"/>
<circle clip-path="url(#clip352)" cx="596.932" cy="1330.07" r="14.4" fill="#e26f46" fill-rule="evenodd" fill-opacity="1" stroke="#000000" stroke-opacity="1" stroke-width="3.072"/>
<circle clip-path="url(#clip352)" cx="505.448" cy="1384.15" r="14.4" fill="#e26f46" fill-rule="evenodd" fill-opacity="1" stroke="#000000" stroke-opacity="1" stroke-width="3.072"/>
<circle clip-path="url(#clip352)" cx="314.945" cy="1330.07" r="14.4" fill="#e26f46" fill-rule="evenodd" fill-opacity="1" stroke="#000000" stroke-opacity="1" stroke-width="3.072"/>
<circle clip-path="url(#clip352)" cx="318.283" cy="1330.07" r="14.4" fill="#e26f46" fill-rule="evenodd" fill-opacity="1" stroke="#000000" stroke-opacity="1" stroke-width="3.072"/>
<circle clip-path="url(#clip352)" cx="474.586" cy="1275.99" r="14.4" fill="#e26f46" fill-rule="evenodd" fill-opacity="1" stroke="#000000" stroke-opacity="1" stroke-width="3.072"/>
<circle clip-path="url(#clip352)" cx="514.665" cy="1275.99" r="14.4" fill="#e26f46" fill-rule="evenodd" fill-opacity="1" stroke="#000000" stroke-opacity="1" stroke-width="3.072"/>
<circle clip-path="url(#clip352)" cx="500.823" cy="1330.07" r="14.4" fill="#e26f46" fill-rule="evenodd" fill-opacity="1" stroke="#000000" stroke-opacity="1" stroke-width="3.072"/>
<circle clip-path="url(#clip352)" cx="494.99" cy="1113.74" r="14.4" fill="#e26f46" fill-rule="evenodd" fill-opacity="1" stroke="#000000" stroke-opacity="1" stroke-width="3.072"/>
<circle clip-path="url(#clip352)" cx="532.616" cy="1221.9" r="14.4" fill="#e26f46" fill-rule="evenodd" fill-opacity="1" stroke="#000000" stroke-opacity="1" stroke-width="3.072"/>
<circle clip-path="url(#clip352)" cx="555.009" cy="1275.99" r="14.4" fill="#e26f46" fill-rule="evenodd" fill-opacity="1" stroke="#000000" stroke-opacity="1" stroke-width="3.072"/>
<circle clip-path="url(#clip352)" cx="568.21" cy="1330.07" r="14.4" fill="#e26f46" fill-rule="evenodd" fill-opacity="1" stroke="#000000" stroke-opacity="1" stroke-width="3.072"/>
<circle clip-path="url(#clip352)" cx="369.636" cy="1330.07" r="14.4" fill="#e26f46" fill-rule="evenodd" fill-opacity="1" stroke="#000000" stroke-opacity="1" stroke-width="3.072"/>
<circle clip-path="url(#clip352)" cx="668.522" cy="1330.07" r="14.4" fill="#e26f46" fill-rule="evenodd" fill-opacity="1" stroke="#000000" stroke-opacity="1" stroke-width="3.072"/>
<circle clip-path="url(#clip352)" cx="703.414" cy="1330.07" r="14.4" fill="#e26f46" fill-rule="evenodd" fill-opacity="1" stroke="#000000" stroke-opacity="1" stroke-width="3.072"/>
<circle clip-path="url(#clip352)" cx="1072" cy="681.084" r="14.4" fill="#e26f46" fill-rule="evenodd" fill-opacity="1" stroke="#000000" stroke-opacity="1" stroke-width="3.072"/>
<circle clip-path="url(#clip352)" cx="1405.28" cy="627.002" r="14.4" fill="#e26f46" fill-rule="evenodd" fill-opacity="1" stroke="#000000" stroke-opacity="1" stroke-width="3.072"/>
<circle clip-path="url(#clip352)" cx="1115.47" cy="627.002" r="14.4" fill="#e26f46" fill-rule="evenodd" fill-opacity="1" stroke="#000000" stroke-opacity="1" stroke-width="3.072"/>
<circle clip-path="url(#clip352)" cx="1272.23" cy="735.166" r="14.4" fill="#e26f46" fill-rule="evenodd" fill-opacity="1" stroke="#000000" stroke-opacity="1" stroke-width="3.072"/>
<circle clip-path="url(#clip352)" cx="1226.61" cy="627.002" r="14.4" fill="#e26f46" fill-rule="evenodd" fill-opacity="1" stroke="#000000" stroke-opacity="1" stroke-width="3.072"/>
<circle clip-path="url(#clip352)" cx="1080.7" cy="735.166" r="14.4" fill="#e26f46" fill-rule="evenodd" fill-opacity="1" stroke="#000000" stroke-opacity="1" stroke-width="3.072"/>
<circle clip-path="url(#clip352)" cx="1081.93" cy="572.92" r="14.4" fill="#e26f46" fill-rule="evenodd" fill-opacity="1" stroke="#000000" stroke-opacity="1" stroke-width="3.072"/>
<circle clip-path="url(#clip352)" cx="1089.81" cy="897.412" r="14.4" fill="#e26f46" fill-rule="evenodd" fill-opacity="1" stroke="#000000" stroke-opacity="1" stroke-width="3.072"/>
<circle clip-path="url(#clip352)" cx="1093.24" cy="735.166" r="14.4" fill="#e26f46" fill-rule="evenodd" fill-opacity="1" stroke="#000000" stroke-opacity="1" stroke-width="3.072"/>
<circle clip-path="url(#clip352)" cx="1050.91" cy="681.084" r="14.4" fill="#e26f46" fill-rule="evenodd" fill-opacity="1" stroke="#000000" stroke-opacity="1" stroke-width="3.072"/>
<circle clip-path="url(#clip352)" cx="1325.73" cy="897.412" r="14.4" fill="#e26f46" fill-rule="evenodd" fill-opacity="1" stroke="#000000" stroke-opacity="1" stroke-width="3.072"/>
<circle clip-path="url(#clip352)" cx="1309.66" cy="627.002" r="14.4" fill="#e26f46" fill-rule="evenodd" fill-opacity="1" stroke="#000000" stroke-opacity="1" stroke-width="3.072"/>
<circle clip-path="url(#clip352)" cx="1326" cy="897.412" r="14.4" fill="#e26f46" fill-rule="evenodd" fill-opacity="1" stroke="#000000" stroke-opacity="1" stroke-width="3.072"/>
<circle clip-path="url(#clip352)" cx="1114.03" cy="681.084" r="14.4" fill="#e26f46" fill-rule="evenodd" fill-opacity="1" stroke="#000000" stroke-opacity="1" stroke-width="3.072"/>
<circle clip-path="url(#clip352)" cx="1039.26" cy="735.166" r="14.4" fill="#e26f46" fill-rule="evenodd" fill-opacity="1" stroke="#000000" stroke-opacity="1" stroke-width="3.072"/>
<circle clip-path="url(#clip352)" cx="1142.76" cy="681.084" r="14.4" fill="#e26f46" fill-rule="evenodd" fill-opacity="1" stroke="#000000" stroke-opacity="1" stroke-width="3.072"/>
<circle clip-path="url(#clip352)" cx="1273.78" cy="627.002" r="14.4" fill="#e26f46" fill-rule="evenodd" fill-opacity="1" stroke="#000000" stroke-opacity="1" stroke-width="3.072"/>
<circle clip-path="url(#clip352)" cx="1308.99" cy="897.412" r="14.4" fill="#e26f46" fill-rule="evenodd" fill-opacity="1" stroke="#000000" stroke-opacity="1" stroke-width="3.072"/>
<circle clip-path="url(#clip352)" cx="1401.52" cy="627.002" r="14.4" fill="#e26f46" fill-rule="evenodd" fill-opacity="1" stroke="#000000" stroke-opacity="1" stroke-width="3.072"/>
<circle clip-path="url(#clip352)" cx="1288.64" cy="843.33" r="14.4" fill="#e26f46" fill-rule="evenodd" fill-opacity="1" stroke="#000000" stroke-opacity="1" stroke-width="3.072"/>
<circle clip-path="url(#clip352)" cx="1189.86" cy="464.756" r="14.4" fill="#e26f46" fill-rule="evenodd" fill-opacity="1" stroke="#000000" stroke-opacity="1" stroke-width="3.072"/>
<circle clip-path="url(#clip352)" cx="1066.11" cy="735.166" r="14.4" fill="#e26f46" fill-rule="evenodd" fill-opacity="1" stroke="#000000" stroke-opacity="1" stroke-width="3.072"/>
<circle clip-path="url(#clip352)" cx="1120.18" cy="627.002" r="14.4" fill="#e26f46" fill-rule="evenodd" fill-opacity="1" stroke="#000000" stroke-opacity="1" stroke-width="3.072"/>
<circle clip-path="url(#clip352)" cx="1057.04" cy="789.248" r="14.4" fill="#e26f46" fill-rule="evenodd" fill-opacity="1" stroke="#000000" stroke-opacity="1" stroke-width="3.072"/>
<circle clip-path="url(#clip352)" cx="1464.53" cy="735.166" r="14.4" fill="#e26f46" fill-rule="evenodd" fill-opacity="1" stroke="#000000" stroke-opacity="1" stroke-width="3.072"/>
<circle clip-path="url(#clip352)" cx="1207.27" cy="681.084" r="14.4" fill="#e26f46" fill-rule="evenodd" fill-opacity="1" stroke="#000000" stroke-opacity="1" stroke-width="3.072"/>
<circle clip-path="url(#clip352)" cx="942.717" cy="681.084" r="14.4" fill="#e26f46" fill-rule="evenodd" fill-opacity="1" stroke="#000000" stroke-opacity="1" stroke-width="3.072"/>
<circle clip-path="url(#clip352)" cx="1175.18" cy="518.838" r="14.4" fill="#e26f46" fill-rule="evenodd" fill-opacity="1" stroke="#000000" stroke-opacity="1" stroke-width="3.072"/>
<circle clip-path="url(#clip352)" cx="1187.12" cy="627.002" r="14.4" fill="#e26f46" fill-rule="evenodd" fill-opacity="1" stroke="#000000" stroke-opacity="1" stroke-width="3.072"/>
<circle clip-path="url(#clip352)" cx="1278.95" cy="897.412" r="14.4" fill="#e26f46" fill-rule="evenodd" fill-opacity="1" stroke="#000000" stroke-opacity="1" stroke-width="3.072"/>
<circle clip-path="url(#clip352)" cx="1162.09" cy="843.33" r="14.4" fill="#e26f46" fill-rule="evenodd" fill-opacity="1" stroke="#000000" stroke-opacity="1" stroke-width="3.072"/>
<circle clip-path="url(#clip352)" cx="1302.33" cy="897.412" r="14.4" fill="#e26f46" fill-rule="evenodd" fill-opacity="1" stroke="#000000" stroke-opacity="1" stroke-width="3.072"/>
<circle clip-path="url(#clip352)" cx="1219.06" cy="789.248" r="14.4" fill="#e26f46" fill-rule="evenodd" fill-opacity="1" stroke="#000000" stroke-opacity="1" stroke-width="3.072"/>
<circle clip-path="url(#clip352)" cx="1283.63" cy="572.92" r="14.4" fill="#e26f46" fill-rule="evenodd" fill-opacity="1" stroke="#000000" stroke-opacity="1" stroke-width="3.072"/>
<circle clip-path="url(#clip352)" cx="1372.2" cy="627.002" r="14.4" fill="#e26f46" fill-rule="evenodd" fill-opacity="1" stroke="#000000" stroke-opacity="1" stroke-width="3.072"/>
<circle clip-path="url(#clip352)" cx="1207.03" cy="572.92" r="14.4" fill="#e26f46" fill-rule="evenodd" fill-opacity="1" stroke="#000000" stroke-opacity="1" stroke-width="3.072"/>
<circle clip-path="url(#clip352)" cx="1210.32" cy="627.002" r="14.4" fill="#e26f46" fill-rule="evenodd" fill-opacity="1" stroke="#000000" stroke-opacity="1" stroke-width="3.072"/>
<circle clip-path="url(#clip352)" cx="1177.21" cy="735.166" r="14.4" fill="#e26f46" fill-rule="evenodd" fill-opacity="1" stroke="#000000" stroke-opacity="1" stroke-width="3.072"/>
<circle clip-path="url(#clip352)" cx="1154.27" cy="735.166" r="14.4" fill="#e26f46" fill-rule="evenodd" fill-opacity="1" stroke="#000000" stroke-opacity="1" stroke-width="3.072"/>
<circle clip-path="url(#clip352)" cx="1427.27" cy="735.166" r="14.4" fill="#e26f46" fill-rule="evenodd" fill-opacity="1" stroke="#000000" stroke-opacity="1" stroke-width="3.072"/>
<circle clip-path="url(#clip352)" cx="1073.86" cy="789.248" r="14.4" fill="#e26f46" fill-rule="evenodd" fill-opacity="1" stroke="#000000" stroke-opacity="1" stroke-width="3.072"/>
<circle clip-path="url(#clip352)" cx="1050.86" cy="681.084" r="14.4" fill="#e26f46" fill-rule="evenodd" fill-opacity="1" stroke="#000000" stroke-opacity="1" stroke-width="3.072"/>
<circle clip-path="url(#clip352)" cx="1016.89" cy="789.248" r="14.4" fill="#e26f46" fill-rule="evenodd" fill-opacity="1" stroke="#000000" stroke-opacity="1" stroke-width="3.072"/>
<circle clip-path="url(#clip352)" cx="1104.34" cy="897.412" r="14.4" fill="#e26f46" fill-rule="evenodd" fill-opacity="1" stroke="#000000" stroke-opacity="1" stroke-width="3.072"/>
<circle clip-path="url(#clip352)" cx="1426" cy="735.166" r="14.4" fill="#e26f46" fill-rule="evenodd" fill-opacity="1" stroke="#000000" stroke-opacity="1" stroke-width="3.072"/>
<circle clip-path="url(#clip352)" cx="1259.12" cy="789.248" r="14.4" fill="#e26f46" fill-rule="evenodd" fill-opacity="1" stroke="#000000" stroke-opacity="1" stroke-width="3.072"/>
<circle clip-path="url(#clip352)" cx="1268.48" cy="735.166" r="14.4" fill="#e26f46" fill-rule="evenodd" fill-opacity="1" stroke="#000000" stroke-opacity="1" stroke-width="3.072"/>
<circle clip-path="url(#clip352)" cx="1228.94" cy="735.166" r="14.4" fill="#e26f46" fill-rule="evenodd" fill-opacity="1" stroke="#000000" stroke-opacity="1" stroke-width="3.072"/>
<circle clip-path="url(#clip352)" cx="1201.51" cy="843.33" r="14.4" fill="#e26f46" fill-rule="evenodd" fill-opacity="1" stroke="#000000" stroke-opacity="1" stroke-width="3.072"/>
<circle clip-path="url(#clip352)" cx="1040.68" cy="735.166" r="14.4" fill="#e26f46" fill-rule="evenodd" fill-opacity="1" stroke="#000000" stroke-opacity="1" stroke-width="3.072"/>
<circle clip-path="url(#clip352)" cx="1965.08" cy="86.1831" r="14.4" fill="#e26f46" fill-rule="evenodd" fill-opacity="1" stroke="#000000" stroke-opacity="1" stroke-width="3.072"/>
<circle clip-path="url(#clip352)" cx="1747.71" cy="410.675" r="14.4" fill="#e26f46" fill-rule="evenodd" fill-opacity="1" stroke="#000000" stroke-opacity="1" stroke-width="3.072"/>
<circle clip-path="url(#clip352)" cx="2139.09" cy="302.511" r="14.4" fill="#e26f46" fill-rule="evenodd" fill-opacity="1" stroke="#000000" stroke-opacity="1" stroke-width="3.072"/>
<circle clip-path="url(#clip352)" cx="2122" cy="464.756" r="14.4" fill="#e26f46" fill-rule="evenodd" fill-opacity="1" stroke="#000000" stroke-opacity="1" stroke-width="3.072"/>
<circle clip-path="url(#clip352)" cx="1843.82" cy="248.429" r="14.4" fill="#e26f46" fill-rule="evenodd" fill-opacity="1" stroke="#000000" stroke-opacity="1" stroke-width="3.072"/>
<circle clip-path="url(#clip352)" cx="1852.45" cy="302.511" r="14.4" fill="#e26f46" fill-rule="evenodd" fill-opacity="1" stroke="#000000" stroke-opacity="1" stroke-width="3.072"/>
<circle clip-path="url(#clip352)" cx="1858.84" cy="518.838" r="14.4" fill="#e26f46" fill-rule="evenodd" fill-opacity="1" stroke="#000000" stroke-opacity="1" stroke-width="3.072"/>
<circle clip-path="url(#clip352)" cx="2157.21" cy="464.756" r="14.4" fill="#e26f46" fill-rule="evenodd" fill-opacity="1" stroke="#000000" stroke-opacity="1" stroke-width="3.072"/>
<circle clip-path="url(#clip352)" cx="1988.45" cy="464.756" r="14.4" fill="#e26f46" fill-rule="evenodd" fill-opacity="1" stroke="#000000" stroke-opacity="1" stroke-width="3.072"/>
<circle clip-path="url(#clip352)" cx="1945.66" cy="86.1831" r="14.4" fill="#e26f46" fill-rule="evenodd" fill-opacity="1" stroke="#000000" stroke-opacity="1" stroke-width="3.072"/>
<circle clip-path="url(#clip352)" cx="2089.25" cy="356.593" r="14.4" fill="#e26f46" fill-rule="evenodd" fill-opacity="1" stroke="#000000" stroke-opacity="1" stroke-width="3.072"/>
<circle clip-path="url(#clip352)" cx="1671.09" cy="410.675" r="14.4" fill="#e26f46" fill-rule="evenodd" fill-opacity="1" stroke="#000000" stroke-opacity="1" stroke-width="3.072"/>
<circle clip-path="url(#clip352)" cx="1895.99" cy="302.511" r="14.4" fill="#e26f46" fill-rule="evenodd" fill-opacity="1" stroke="#000000" stroke-opacity="1" stroke-width="3.072"/>
<circle clip-path="url(#clip352)" cx="1787.75" cy="356.593" r="14.4" fill="#e26f46" fill-rule="evenodd" fill-opacity="1" stroke="#000000" stroke-opacity="1" stroke-width="3.072"/>
<circle clip-path="url(#clip352)" cx="2057.13" cy="140.265" r="14.4" fill="#e26f46" fill-rule="evenodd" fill-opacity="1" stroke="#000000" stroke-opacity="1" stroke-width="3.072"/>
<circle clip-path="url(#clip352)" cx="1990.93" cy="194.347" r="14.4" fill="#e26f46" fill-rule="evenodd" fill-opacity="1" stroke="#000000" stroke-opacity="1" stroke-width="3.072"/>
<circle clip-path="url(#clip352)" cx="2074.31" cy="464.756" r="14.4" fill="#e26f46" fill-rule="evenodd" fill-opacity="1" stroke="#000000" stroke-opacity="1" stroke-width="3.072"/>
<circle clip-path="url(#clip352)" cx="2029.66" cy="248.429" r="14.4" fill="#e26f46" fill-rule="evenodd" fill-opacity="1" stroke="#000000" stroke-opacity="1" stroke-width="3.072"/>
<circle clip-path="url(#clip352)" cx="1972.23" cy="194.347" r="14.4" fill="#e26f46" fill-rule="evenodd" fill-opacity="1" stroke="#000000" stroke-opacity="1" stroke-width="3.072"/>
<circle clip-path="url(#clip352)" cx="1867.89" cy="627.002" r="14.4" fill="#e26f46" fill-rule="evenodd" fill-opacity="1" stroke="#000000" stroke-opacity="1" stroke-width="3.072"/>
<circle clip-path="url(#clip352)" cx="1819.67" cy="194.347" r="14.4" fill="#e26f46" fill-rule="evenodd" fill-opacity="1" stroke="#000000" stroke-opacity="1" stroke-width="3.072"/>
<circle clip-path="url(#clip352)" cx="1680.45" cy="356.593" r="14.4" fill="#e26f46" fill-rule="evenodd" fill-opacity="1" stroke="#000000" stroke-opacity="1" stroke-width="3.072"/>
<circle clip-path="url(#clip352)" cx="2069.02" cy="356.593" r="14.4" fill="#e26f46" fill-rule="evenodd" fill-opacity="1" stroke="#000000" stroke-opacity="1" stroke-width="3.072"/>
<circle clip-path="url(#clip352)" cx="1819.58" cy="464.756" r="14.4" fill="#e26f46" fill-rule="evenodd" fill-opacity="1" stroke="#000000" stroke-opacity="1" stroke-width="3.072"/>
<circle clip-path="url(#clip352)" cx="2139.94" cy="302.511" r="14.4" fill="#e26f46" fill-rule="evenodd" fill-opacity="1" stroke="#000000" stroke-opacity="1" stroke-width="3.072"/>
<circle clip-path="url(#clip352)" cx="1735.14" cy="464.756" r="14.4" fill="#e26f46" fill-rule="evenodd" fill-opacity="1" stroke="#000000" stroke-opacity="1" stroke-width="3.072"/>
<circle clip-path="url(#clip352)" cx="1905.13" cy="464.756" r="14.4" fill="#e26f46" fill-rule="evenodd" fill-opacity="1" stroke="#000000" stroke-opacity="1" stroke-width="3.072"/>
<circle clip-path="url(#clip352)" cx="2034.46" cy="464.756" r="14.4" fill="#e26f46" fill-rule="evenodd" fill-opacity="1" stroke="#000000" stroke-opacity="1" stroke-width="3.072"/>
<circle clip-path="url(#clip352)" cx="1953.5" cy="302.511" r="14.4" fill="#e26f46" fill-rule="evenodd" fill-opacity="1" stroke="#000000" stroke-opacity="1" stroke-width="3.072"/>
<circle clip-path="url(#clip352)" cx="1848.76" cy="572.92" r="14.4" fill="#e26f46" fill-rule="evenodd" fill-opacity="1" stroke="#000000" stroke-opacity="1" stroke-width="3.072"/>
<circle clip-path="url(#clip352)" cx="1965.44" cy="410.675" r="14.4" fill="#e26f46" fill-rule="evenodd" fill-opacity="1" stroke="#000000" stroke-opacity="1" stroke-width="3.072"/>
<circle clip-path="url(#clip352)" cx="2118.81" cy="356.593" r="14.4" fill="#e26f46" fill-rule="evenodd" fill-opacity="1" stroke="#000000" stroke-opacity="1" stroke-width="3.072"/>
<circle clip-path="url(#clip352)" cx="1930.61" cy="248.429" r="14.4" fill="#e26f46" fill-rule="evenodd" fill-opacity="1" stroke="#000000" stroke-opacity="1" stroke-width="3.072"/>
<circle clip-path="url(#clip352)" cx="1899.09" cy="627.002" r="14.4" fill="#e26f46" fill-rule="evenodd" fill-opacity="1" stroke="#000000" stroke-opacity="1" stroke-width="3.072"/>
<circle clip-path="url(#clip352)" cx="1875.68" cy="681.084" r="14.4" fill="#e26f46" fill-rule="evenodd" fill-opacity="1" stroke="#000000" stroke-opacity="1" stroke-width="3.072"/>
<circle clip-path="url(#clip352)" cx="2073.18" cy="194.347" r="14.4" fill="#e26f46" fill-rule="evenodd" fill-opacity="1" stroke="#000000" stroke-opacity="1" stroke-width="3.072"/>
<circle clip-path="url(#clip352)" cx="1751.98" cy="140.265" r="14.4" fill="#e26f46" fill-rule="evenodd" fill-opacity="1" stroke="#000000" stroke-opacity="1" stroke-width="3.072"/>
<circle clip-path="url(#clip352)" cx="2114.49" cy="464.756" r="14.4" fill="#e26f46" fill-rule="evenodd" fill-opacity="1" stroke="#000000" stroke-opacity="1" stroke-width="3.072"/>
<circle clip-path="url(#clip352)" cx="1770.02" cy="464.756" r="14.4" fill="#e26f46" fill-rule="evenodd" fill-opacity="1" stroke="#000000" stroke-opacity="1" stroke-width="3.072"/>
<circle clip-path="url(#clip352)" cx="1830.51" cy="302.511" r="14.4" fill="#e26f46" fill-rule="evenodd" fill-opacity="1" stroke="#000000" stroke-opacity="1" stroke-width="3.072"/>
<circle clip-path="url(#clip352)" cx="2083.18" cy="140.265" r="14.4" fill="#e26f46" fill-rule="evenodd" fill-opacity="1" stroke="#000000" stroke-opacity="1" stroke-width="3.072"/>
<circle clip-path="url(#clip352)" cx="1982.48" cy="194.347" r="14.4" fill="#e26f46" fill-rule="evenodd" fill-opacity="1" stroke="#000000" stroke-opacity="1" stroke-width="3.072"/>
<circle clip-path="url(#clip352)" cx="1650.18" cy="410.675" r="14.4" fill="#e26f46" fill-rule="evenodd" fill-opacity="1" stroke="#000000" stroke-opacity="1" stroke-width="3.072"/>
<circle clip-path="url(#clip352)" cx="1835.81" cy="194.347" r="14.4" fill="#e26f46" fill-rule="evenodd" fill-opacity="1" stroke="#000000" stroke-opacity="1" stroke-width="3.072"/>
<circle clip-path="url(#clip352)" cx="1829.15" cy="86.1831" r="14.4" fill="#e26f46" fill-rule="evenodd" fill-opacity="1" stroke="#000000" stroke-opacity="1" stroke-width="3.072"/>
<circle clip-path="url(#clip352)" cx="1897.49" cy="194.347" r="14.4" fill="#e26f46" fill-rule="evenodd" fill-opacity="1" stroke="#000000" stroke-opacity="1" stroke-width="3.072"/>
<circle clip-path="url(#clip352)" cx="1893.59" cy="410.675" r="14.4" fill="#e26f46" fill-rule="evenodd" fill-opacity="1" stroke="#000000" stroke-opacity="1" stroke-width="3.072"/>
<circle clip-path="url(#clip352)" cx="1826.72" cy="356.593" r="14.4" fill="#e26f46" fill-rule="evenodd" fill-opacity="1" stroke="#000000" stroke-opacity="1" stroke-width="3.072"/>
<circle clip-path="url(#clip352)" cx="1986.54" cy="194.347" r="14.4" fill="#e26f46" fill-rule="evenodd" fill-opacity="1" stroke="#000000" stroke-opacity="1" stroke-width="3.072"/>
<circle clip-path="url(#clip352)" cx="1965.62" cy="464.756" r="14.4" fill="#e26f46" fill-rule="evenodd" fill-opacity="1" stroke="#000000" stroke-opacity="1" stroke-width="3.072"/>
</svg>
