<?xml version="1.0" encoding="utf-8"?>
<svg xmlns="http://www.w3.org/2000/svg" xmlns:xlink="http://www.w3.org/1999/xlink" width="576" height="384" viewBox="0 0 2304 1536">
<defs>
  <clipPath id="clip630">
    <rect x="0" y="0" width="2304" height="1536"/>
  </clipPath>
</defs>
<path clip-path="url(#clip630)" d="
M0 1536 L2304 1536 L2304 0 L0 0  Z
  " fill="#ffffff" fill-rule="evenodd" fill-opacity="1"/>
<defs>
  <clipPath id="clip631">
    <rect x="460" y="0" width="1614" height="1536"/>
  </clipPath>
</defs>
<path clip-path="url(#clip630)" d="
M192.328 1423.09 L1104.76 1423.09 L1104.76 47.2441 L192.328 47.2441  Z
  " fill="#ffffff" fill-rule="evenodd" fill-opacity="1"/>
<defs>
  <clipPath id="clip632">
    <rect x="192" y="47" width="913" height="1377"/>
  </clipPath>
</defs>
<polyline clip-path="url(#clip632)" style="stroke:#000000; stroke-linecap:round; stroke-linejoin:round; stroke-width:2; stroke-opacity:0.1; fill:none" points="
  256.26,1423.09 256.26,47.2441 
  "/>
<polyline clip-path="url(#clip632)" style="stroke:#000000; stroke-linecap:round; stroke-linejoin:round; stroke-width:2; stroke-opacity:0.1; fill:none" points="
  378.099,1423.09 378.099,47.2441 
  "/>
<polyline clip-path="url(#clip632)" style="stroke:#000000; stroke-linecap:round; stroke-linejoin:round; stroke-width:2; stroke-opacity:0.1; fill:none" points="
  499.939,1423.09 499.939,47.2441 
  "/>
<polyline clip-path="url(#clip632)" style="stroke:#000000; stroke-linecap:round; stroke-linejoin:round; stroke-width:2; stroke-opacity:0.1; fill:none" points="
  621.778,1423.09 621.778,47.2441 
  "/>
<polyline clip-path="url(#clip632)" style="stroke:#000000; stroke-linecap:round; stroke-linejoin:round; stroke-width:2; stroke-opacity:0.1; fill:none" points="
  743.617,1423.09 743.617,47.2441 
  "/>
<polyline clip-path="url(#clip632)" style="stroke:#000000; stroke-linecap:round; stroke-linejoin:round; stroke-width:2; stroke-opacity:0.1; fill:none" points="
  865.456,1423.09 865.456,47.2441 
  "/>
<polyline clip-path="url(#clip632)" style="stroke:#000000; stroke-linecap:round; stroke-linejoin:round; stroke-width:2; stroke-opacity:0.1; fill:none" points="
  987.295,1423.09 987.295,47.2441 
  "/>
<polyline clip-path="url(#clip630)" style="stroke:#000000; stroke-linecap:round; stroke-linejoin:round; stroke-width:4; stroke-opacity:1; fill:none" points="
  192.328,1423.09 1104.76,1423.09 
  "/>
<polyline clip-path="url(#clip630)" style="stroke:#000000; stroke-linecap:round; stroke-linejoin:round; stroke-width:4; stroke-opacity:1; fill:none" points="
  256.26,1423.09 256.26,1404.19 
  "/>
<polyline clip-path="url(#clip630)" style="stroke:#000000; stroke-linecap:round; stroke-linejoin:round; stroke-width:4; stroke-opacity:1; fill:none" points="
  378.099,1423.09 378.099,1404.19 
  "/>
<polyline clip-path="url(#clip630)" style="stroke:#000000; stroke-linecap:round; stroke-linejoin:round; stroke-width:4; stroke-opacity:1; fill:none" points="
  499.939,1423.09 499.939,1404.19 
  "/>
<polyline clip-path="url(#clip630)" style="stroke:#000000; stroke-linecap:round; stroke-linejoin:round; stroke-width:4; stroke-opacity:1; fill:none" points="
  621.778,1423.09 621.778,1404.19 
  "/>
<polyline clip-path="url(#clip630)" style="stroke:#000000; stroke-linecap:round; stroke-linejoin:round; stroke-width:4; stroke-opacity:1; fill:none" points="
  743.617,1423.09 743.617,1404.19 
  "/>
<polyline clip-path="url(#clip630)" style="stroke:#000000; stroke-linecap:round; stroke-linejoin:round; stroke-width:4; stroke-opacity:1; fill:none" points="
  865.456,1423.09 865.456,1404.19 
  "/>
<polyline clip-path="url(#clip630)" style="stroke:#000000; stroke-linecap:round; stroke-linejoin:round; stroke-width:4; stroke-opacity:1; fill:none" points="
  987.295,1423.09 987.295,1404.19 
  "/>
<path clip-path="url(#clip630)" d="M233.691 1453.24 Q230.08 1453.24 228.251 1456.8 Q226.446 1460.35 226.446 1467.47 Q226.446 1474.58 228.251 1478.15 Q230.08 1481.69 233.691 1481.69 Q237.325 1481.69 239.131 1478.15 Q240.96 1474.58 240.96 1467.47 Q240.96 1460.35 239.131 1456.8 Q237.325 1453.24 233.691 1453.24 M233.691 1449.53 Q239.501 1449.53 242.557 1454.14 Q245.635 1458.72 245.635 1467.47 Q245.635 1476.2 242.557 1480.81 Q239.501 1485.39 233.691 1485.39 Q227.881 1485.39 224.802 1480.81 Q221.747 1476.2 221.747 1467.47 Q221.747 1458.72 224.802 1454.14 Q227.881 1449.53 233.691 1449.53 Z" fill="#000000" fill-rule="evenodd" fill-opacity="1" /><path clip-path="url(#clip630)" d="M253.853 1478.84 L258.737 1478.84 L258.737 1484.72 L253.853 1484.72 L253.853 1478.84 Z" fill="#000000" fill-rule="evenodd" fill-opacity="1" /><path clip-path="url(#clip630)" d="M278.922 1468.31 Q275.589 1468.31 273.668 1470.09 Q271.77 1471.87 271.77 1475 Q271.77 1478.12 273.668 1479.91 Q275.589 1481.69 278.922 1481.69 Q282.256 1481.69 284.177 1479.91 Q286.098 1478.1 286.098 1475 Q286.098 1471.87 284.177 1470.09 Q282.279 1468.31 278.922 1468.31 M274.246 1466.32 Q271.237 1465.58 269.547 1463.52 Q267.881 1461.46 267.881 1458.49 Q267.881 1454.35 270.82 1451.94 Q273.783 1449.53 278.922 1449.53 Q284.084 1449.53 287.024 1451.94 Q289.964 1454.35 289.964 1458.49 Q289.964 1461.46 288.274 1463.52 Q286.607 1465.58 283.621 1466.32 Q287.001 1467.1 288.876 1469.4 Q290.774 1471.69 290.774 1475 Q290.774 1480.02 287.695 1482.71 Q284.64 1485.39 278.922 1485.39 Q273.205 1485.39 270.126 1482.71 Q267.071 1480.02 267.071 1475 Q267.071 1471.69 268.969 1469.4 Q270.867 1467.1 274.246 1466.32 M272.533 1458.93 Q272.533 1461.62 274.2 1463.12 Q275.89 1464.63 278.922 1464.63 Q281.932 1464.63 283.621 1463.12 Q285.334 1461.62 285.334 1458.93 Q285.334 1456.25 283.621 1454.74 Q281.932 1453.24 278.922 1453.24 Q275.89 1453.24 274.2 1454.74 Q272.533 1456.25 272.533 1458.93 Z" fill="#000000" fill-rule="evenodd" fill-opacity="1" /><path clip-path="url(#clip630)" d="M345.252 1480.78 L352.891 1480.78 L352.891 1454.42 L344.581 1456.09 L344.581 1451.83 L352.845 1450.16 L357.521 1450.16 L357.521 1480.78 L365.16 1480.78 L365.16 1484.72 L345.252 1484.72 L345.252 1480.78 Z" fill="#000000" fill-rule="evenodd" fill-opacity="1" /><path clip-path="url(#clip630)" d="M374.604 1478.84 L379.488 1478.84 L379.488 1484.72 L374.604 1484.72 L374.604 1478.84 Z" fill="#000000" fill-rule="evenodd" fill-opacity="1" /><path clip-path="url(#clip630)" d="M399.673 1453.24 Q396.062 1453.24 394.234 1456.8 Q392.428 1460.35 392.428 1467.47 Q392.428 1474.58 394.234 1478.15 Q396.062 1481.69 399.673 1481.69 Q403.308 1481.69 405.113 1478.15 Q406.942 1474.58 406.942 1467.47 Q406.942 1460.35 405.113 1456.8 Q403.308 1453.24 399.673 1453.24 M399.673 1449.53 Q405.484 1449.53 408.539 1454.14 Q411.618 1458.72 411.618 1467.47 Q411.618 1476.2 408.539 1480.81 Q405.484 1485.39 399.673 1485.39 Q393.863 1485.39 390.785 1480.81 Q387.729 1476.2 387.729 1467.47 Q387.729 1458.72 390.785 1454.14 Q393.863 1449.53 399.673 1449.53 Z" fill="#000000" fill-rule="evenodd" fill-opacity="1" /><path clip-path="url(#clip630)" d="M467.89 1480.78 L475.529 1480.78 L475.529 1454.42 L467.219 1456.09 L467.219 1451.83 L475.483 1450.16 L480.159 1450.16 L480.159 1480.78 L487.797 1480.78 L487.797 1484.72 L467.89 1484.72 L467.89 1480.78 Z" fill="#000000" fill-rule="evenodd" fill-opacity="1" /><path clip-path="url(#clip630)" d="M497.242 1478.84 L502.126 1478.84 L502.126 1484.72 L497.242 1484.72 L497.242 1478.84 Z" fill="#000000" fill-rule="evenodd" fill-opacity="1" /><path clip-path="url(#clip630)" d="M516.339 1480.78 L532.658 1480.78 L532.658 1484.72 L510.714 1484.72 L510.714 1480.78 Q513.376 1478.03 517.959 1473.4 Q522.566 1468.75 523.746 1467.41 Q525.992 1464.88 526.871 1463.15 Q527.774 1461.39 527.774 1459.7 Q527.774 1456.94 525.83 1455.21 Q523.908 1453.47 520.806 1453.47 Q518.607 1453.47 516.154 1454.23 Q513.723 1455 510.945 1456.55 L510.945 1451.83 Q513.769 1450.69 516.223 1450.11 Q518.677 1449.53 520.714 1449.53 Q526.084 1449.53 529.279 1452.22 Q532.473 1454.91 532.473 1459.4 Q532.473 1461.53 531.663 1463.45 Q530.876 1465.34 528.769 1467.94 Q528.191 1468.61 525.089 1471.83 Q521.987 1475.02 516.339 1480.78 Z" fill="#000000" fill-rule="evenodd" fill-opacity="1" /><path clip-path="url(#clip630)" d="M588.687 1480.78 L596.326 1480.78 L596.326 1454.42 L588.016 1456.09 L588.016 1451.83 L596.28 1450.16 L600.956 1450.16 L600.956 1480.78 L608.595 1480.78 L608.595 1484.72 L588.687 1484.72 L588.687 1480.78 Z" fill="#000000" fill-rule="evenodd" fill-opacity="1" /><path clip-path="url(#clip630)" d="M618.039 1478.84 L622.923 1478.84 L622.923 1484.72 L618.039 1484.72 L618.039 1478.84 Z" fill="#000000" fill-rule="evenodd" fill-opacity="1" /><path clip-path="url(#clip630)" d="M645.956 1454.23 L634.15 1472.68 L645.956 1472.68 L645.956 1454.23 M644.729 1450.16 L650.608 1450.16 L650.608 1472.68 L655.539 1472.68 L655.539 1476.57 L650.608 1476.57 L650.608 1484.72 L645.956 1484.72 L645.956 1476.57 L630.354 1476.57 L630.354 1472.06 L644.729 1450.16 Z" fill="#000000" fill-rule="evenodd" fill-opacity="1" /><path clip-path="url(#clip630)" d="M710.689 1480.78 L718.327 1480.78 L718.327 1454.42 L710.017 1456.09 L710.017 1451.83 L718.281 1450.16 L722.957 1450.16 L722.957 1480.78 L730.596 1480.78 L730.596 1484.72 L710.689 1484.72 L710.689 1480.78 Z" fill="#000000" fill-rule="evenodd" fill-opacity="1" /><path clip-path="url(#clip630)" d="M740.04 1478.84 L744.925 1478.84 L744.925 1484.72 L740.04 1484.72 L740.04 1478.84 Z" fill="#000000" fill-rule="evenodd" fill-opacity="1" /><path clip-path="url(#clip630)" d="M765.688 1465.58 Q762.54 1465.58 760.688 1467.73 Q758.86 1469.88 758.86 1473.63 Q758.86 1477.36 760.688 1479.53 Q762.54 1481.69 765.688 1481.69 Q768.836 1481.69 770.665 1479.53 Q772.517 1477.36 772.517 1473.63 Q772.517 1469.88 770.665 1467.73 Q768.836 1465.58 765.688 1465.58 M774.971 1450.92 L774.971 1455.18 Q773.211 1454.35 771.406 1453.91 Q769.623 1453.47 767.864 1453.47 Q763.235 1453.47 760.781 1456.6 Q758.35 1459.72 758.003 1466.04 Q759.369 1464.03 761.429 1462.96 Q763.489 1461.87 765.966 1461.87 Q771.174 1461.87 774.184 1465.04 Q777.216 1468.19 777.216 1473.63 Q777.216 1478.96 774.068 1482.17 Q770.92 1485.39 765.688 1485.39 Q759.693 1485.39 756.522 1480.81 Q753.35 1476.2 753.35 1467.47 Q753.35 1459.28 757.239 1454.42 Q761.128 1449.53 767.679 1449.53 Q769.438 1449.53 771.221 1449.88 Q773.026 1450.23 774.971 1450.92 Z" fill="#000000" fill-rule="evenodd" fill-opacity="1" /><path clip-path="url(#clip630)" d="M832.655 1480.78 L840.294 1480.78 L840.294 1454.42 L831.984 1456.09 L831.984 1451.83 L840.248 1450.16 L844.923 1450.16 L844.923 1480.78 L852.562 1480.78 L852.562 1484.72 L832.655 1484.72 L832.655 1480.78 Z" fill="#000000" fill-rule="evenodd" fill-opacity="1" /><path clip-path="url(#clip630)" d="M862.007 1478.84 L866.891 1478.84 L866.891 1484.72 L862.007 1484.72 L862.007 1478.84 Z" fill="#000000" fill-rule="evenodd" fill-opacity="1" /><path clip-path="url(#clip630)" d="M887.076 1468.31 Q883.743 1468.31 881.821 1470.09 Q879.923 1471.87 879.923 1475 Q879.923 1478.12 881.821 1479.91 Q883.743 1481.69 887.076 1481.69 Q890.409 1481.69 892.331 1479.91 Q894.252 1478.1 894.252 1475 Q894.252 1471.87 892.331 1470.09 Q890.432 1468.31 887.076 1468.31 M882.4 1466.32 Q879.391 1465.58 877.701 1463.52 Q876.034 1461.46 876.034 1458.49 Q876.034 1454.35 878.974 1451.94 Q881.937 1449.53 887.076 1449.53 Q892.238 1449.53 895.178 1451.94 Q898.118 1454.35 898.118 1458.49 Q898.118 1461.46 896.428 1463.52 Q894.761 1465.58 891.775 1466.32 Q895.155 1467.1 897.03 1469.4 Q898.928 1471.69 898.928 1475 Q898.928 1480.02 895.849 1482.71 Q892.794 1485.39 887.076 1485.39 Q881.358 1485.39 878.28 1482.71 Q875.224 1480.02 875.224 1475 Q875.224 1471.69 877.122 1469.4 Q879.02 1467.1 882.4 1466.32 M880.687 1458.93 Q880.687 1461.62 882.354 1463.12 Q884.044 1464.63 887.076 1464.63 Q890.085 1464.63 891.775 1463.12 Q893.488 1461.62 893.488 1458.93 Q893.488 1456.25 891.775 1454.74 Q890.085 1453.24 887.076 1453.24 Q884.044 1453.24 882.354 1454.74 Q880.687 1456.25 880.687 1458.93 Z" fill="#000000" fill-rule="evenodd" fill-opacity="1" /><path clip-path="url(#clip630)" d="M958.533 1480.78 L974.853 1480.78 L974.853 1484.72 L952.908 1484.72 L952.908 1480.78 Q955.57 1478.03 960.154 1473.4 Q964.76 1468.75 965.941 1467.41 Q968.186 1464.88 969.066 1463.15 Q969.968 1461.39 969.968 1459.7 Q969.968 1456.94 968.024 1455.21 Q966.103 1453.47 963.001 1453.47 Q960.802 1453.47 958.348 1454.23 Q955.918 1455 953.14 1456.55 L953.14 1451.83 Q955.964 1450.69 958.418 1450.11 Q960.871 1449.53 962.908 1449.53 Q968.279 1449.53 971.473 1452.22 Q974.668 1454.91 974.668 1459.4 Q974.668 1461.53 973.857 1463.45 Q973.07 1465.34 970.964 1467.94 Q970.385 1468.61 967.283 1471.83 Q964.181 1475.02 958.533 1480.78 Z" fill="#000000" fill-rule="evenodd" fill-opacity="1" /><path clip-path="url(#clip630)" d="M984.667 1478.84 L989.552 1478.84 L989.552 1484.72 L984.667 1484.72 L984.667 1478.84 Z" fill="#000000" fill-rule="evenodd" fill-opacity="1" /><path clip-path="url(#clip630)" d="M1009.74 1453.24 Q1006.13 1453.24 1004.3 1456.8 Q1002.49 1460.35 1002.49 1467.47 Q1002.49 1474.58 1004.3 1478.15 Q1006.13 1481.69 1009.74 1481.69 Q1013.37 1481.69 1015.18 1478.15 Q1017.01 1474.58 1017.01 1467.47 Q1017.01 1460.35 1015.18 1456.8 Q1013.37 1453.24 1009.74 1453.24 M1009.74 1449.53 Q1015.55 1449.53 1018.6 1454.14 Q1021.68 1458.72 1021.68 1467.47 Q1021.68 1476.2 1018.6 1480.81 Q1015.55 1485.39 1009.74 1485.39 Q1003.93 1485.39 1000.85 1480.81 Q997.792 1476.2 997.792 1467.47 Q997.792 1458.72 1000.85 1454.14 Q1003.93 1449.53 1009.74 1449.53 Z" fill="#000000" fill-rule="evenodd" fill-opacity="1" /><polyline clip-path="url(#clip632)" style="stroke:#000000; stroke-linecap:round; stroke-linejoin:round; stroke-width:2; stroke-opacity:0.1; fill:none" points="
  192.328,1187.21 1104.76,1187.21 
  "/>
<polyline clip-path="url(#clip632)" style="stroke:#000000; stroke-linecap:round; stroke-linejoin:round; stroke-width:2; stroke-opacity:0.1; fill:none" points="
  192.328,931.512 1104.76,931.512 
  "/>
<polyline clip-path="url(#clip632)" style="stroke:#000000; stroke-linecap:round; stroke-linejoin:round; stroke-width:2; stroke-opacity:0.1; fill:none" points="
  192.328,675.812 1104.76,675.812 
  "/>
<polyline clip-path="url(#clip632)" style="stroke:#000000; stroke-linecap:round; stroke-linejoin:round; stroke-width:2; stroke-opacity:0.1; fill:none" points="
  192.328,420.112 1104.76,420.112 
  "/>
<polyline clip-path="url(#clip632)" style="stroke:#000000; stroke-linecap:round; stroke-linejoin:round; stroke-width:2; stroke-opacity:0.1; fill:none" points="
  192.328,164.413 1104.76,164.413 
  "/>
<polyline clip-path="url(#clip630)" style="stroke:#000000; stroke-linecap:round; stroke-linejoin:round; stroke-width:4; stroke-opacity:1; fill:none" points="
  192.328,1423.09 192.328,47.2441 
  "/>
<polyline clip-path="url(#clip630)" style="stroke:#000000; stroke-linecap:round; stroke-linejoin:round; stroke-width:4; stroke-opacity:1; fill:none" points="
  192.328,1187.21 211.225,1187.21 
  "/>
<polyline clip-path="url(#clip630)" style="stroke:#000000; stroke-linecap:round; stroke-linejoin:round; stroke-width:4; stroke-opacity:1; fill:none" points="
  192.328,931.512 211.225,931.512 
  "/>
<polyline clip-path="url(#clip630)" style="stroke:#000000; stroke-linecap:round; stroke-linejoin:round; stroke-width:4; stroke-opacity:1; fill:none" points="
  192.328,675.812 211.225,675.812 
  "/>
<polyline clip-path="url(#clip630)" style="stroke:#000000; stroke-linecap:round; stroke-linejoin:round; stroke-width:4; stroke-opacity:1; fill:none" points="
  192.328,420.112 211.225,420.112 
  "/>
<polyline clip-path="url(#clip630)" style="stroke:#000000; stroke-linecap:round; stroke-linejoin:round; stroke-width:4; stroke-opacity:1; fill:none" points="
  192.328,164.413 211.225,164.413 
  "/>
<path clip-path="url(#clip630)" d="M51.4721 1187.66 L81.1479 1187.66 L81.1479 1191.6 L51.4721 1191.6 L51.4721 1187.66 Z" fill="#000000" fill-rule="evenodd" fill-opacity="1" /><path clip-path="url(#clip630)" d="M101.24 1173.01 Q97.6293 1173.01 95.8006 1176.57 Q93.995 1180.12 93.995 1187.25 Q93.995 1194.35 95.8006 1197.92 Q97.6293 1201.46 101.24 1201.46 Q104.875 1201.46 106.68 1197.92 Q108.509 1194.35 108.509 1187.25 Q108.509 1180.12 106.68 1176.57 Q104.875 1173.01 101.24 1173.01 M101.24 1169.31 Q107.051 1169.31 110.106 1173.91 Q113.185 1178.5 113.185 1187.25 Q113.185 1195.97 110.106 1200.58 Q107.051 1205.16 101.24 1205.16 Q95.4302 1205.16 92.3515 1200.58 Q89.296 1195.97 89.296 1187.25 Q89.296 1178.5 92.3515 1173.91 Q95.4302 1169.31 101.24 1169.31 Z" fill="#000000" fill-rule="evenodd" fill-opacity="1" /><path clip-path="url(#clip630)" d="M121.402 1198.61 L126.287 1198.61 L126.287 1204.49 L121.402 1204.49 L121.402 1198.61 Z" fill="#000000" fill-rule="evenodd" fill-opacity="1" /><path clip-path="url(#clip630)" d="M150.638 1185.86 Q153.995 1186.57 155.87 1188.84 Q157.768 1191.11 157.768 1194.45 Q157.768 1199.56 154.249 1202.36 Q150.731 1205.16 144.249 1205.16 Q142.073 1205.16 139.759 1204.72 Q137.467 1204.31 135.013 1203.45 L135.013 1198.94 Q136.958 1200.07 139.273 1200.65 Q141.587 1201.23 144.111 1201.23 Q148.509 1201.23 150.8 1199.49 Q153.115 1197.76 153.115 1194.45 Q153.115 1191.39 150.962 1189.68 Q148.833 1187.94 145.013 1187.94 L140.986 1187.94 L140.986 1184.1 L145.198 1184.1 Q148.648 1184.1 150.476 1182.73 Q152.305 1181.34 152.305 1178.75 Q152.305 1176.09 150.407 1174.68 Q148.532 1173.24 145.013 1173.24 Q143.092 1173.24 140.893 1173.66 Q138.694 1174.07 136.055 1174.95 L136.055 1170.79 Q138.717 1170.05 141.032 1169.68 Q143.37 1169.31 145.43 1169.31 Q150.754 1169.31 153.856 1171.74 Q156.958 1174.14 156.958 1178.26 Q156.958 1181.14 155.314 1183.13 Q153.671 1185.09 150.638 1185.86 Z" fill="#000000" fill-rule="evenodd" fill-opacity="1" /><path clip-path="url(#clip630)" d="M100.592 917.311 Q96.9811 917.311 95.1524 920.875 Q93.3469 924.417 93.3469 931.547 Q93.3469 938.653 95.1524 942.218 Q96.9811 945.759 100.592 945.759 Q104.226 945.759 106.032 942.218 Q107.861 938.653 107.861 931.547 Q107.861 924.417 106.032 920.875 Q104.226 917.311 100.592 917.311 M100.592 913.607 Q106.402 913.607 109.458 918.213 Q112.537 922.797 112.537 931.547 Q112.537 940.273 109.458 944.88 Q106.402 949.463 100.592 949.463 Q94.7821 949.463 91.7034 944.88 Q88.6479 940.273 88.6479 931.547 Q88.6479 922.797 91.7034 918.213 Q94.7821 913.607 100.592 913.607 Z" fill="#000000" fill-rule="evenodd" fill-opacity="1" /><path clip-path="url(#clip630)" d="M120.754 942.912 L125.638 942.912 L125.638 948.792 L120.754 948.792 L120.754 942.912 Z" fill="#000000" fill-rule="evenodd" fill-opacity="1" /><path clip-path="url(#clip630)" d="M145.823 917.311 Q142.212 917.311 140.384 920.875 Q138.578 924.417 138.578 931.547 Q138.578 938.653 140.384 942.218 Q142.212 945.759 145.823 945.759 Q149.458 945.759 151.263 942.218 Q153.092 938.653 153.092 931.547 Q153.092 924.417 151.263 920.875 Q149.458 917.311 145.823 917.311 M145.823 913.607 Q151.634 913.607 154.689 918.213 Q157.768 922.797 157.768 931.547 Q157.768 940.273 154.689 944.88 Q151.634 949.463 145.823 949.463 Q140.013 949.463 136.935 944.88 Q133.879 940.273 133.879 931.547 Q133.879 922.797 136.935 918.213 Q140.013 913.607 145.823 913.607 Z" fill="#000000" fill-rule="evenodd" fill-opacity="1" /><path clip-path="url(#clip630)" d="M101.24 661.611 Q97.6293 661.611 95.8006 665.176 Q93.995 668.717 93.995 675.847 Q93.995 682.953 95.8006 686.518 Q97.6293 690.06 101.24 690.06 Q104.875 690.06 106.68 686.518 Q108.509 682.953 108.509 675.847 Q108.509 668.717 106.68 665.176 Q104.875 661.611 101.24 661.611 M101.24 657.907 Q107.051 657.907 110.106 662.514 Q113.185 667.097 113.185 675.847 Q113.185 684.574 110.106 689.18 Q107.051 693.763 101.24 693.763 Q95.4302 693.763 92.3515 689.18 Q89.296 684.574 89.296 675.847 Q89.296 667.097 92.3515 662.514 Q95.4302 657.907 101.24 657.907 Z" fill="#000000" fill-rule="evenodd" fill-opacity="1" /><path clip-path="url(#clip630)" d="M121.402 687.213 L126.287 687.213 L126.287 693.092 L121.402 693.092 L121.402 687.213 Z" fill="#000000" fill-rule="evenodd" fill-opacity="1" /><path clip-path="url(#clip630)" d="M150.638 674.458 Q153.995 675.176 155.87 677.444 Q157.768 679.713 157.768 683.046 Q157.768 688.162 154.249 690.963 Q150.731 693.763 144.249 693.763 Q142.073 693.763 139.759 693.324 Q137.467 692.907 135.013 692.05 L135.013 687.537 Q136.958 688.671 139.273 689.25 Q141.587 689.828 144.111 689.828 Q148.509 689.828 150.8 688.092 Q153.115 686.356 153.115 683.046 Q153.115 679.99 150.962 678.277 Q148.833 676.541 145.013 676.541 L140.986 676.541 L140.986 672.699 L145.198 672.699 Q148.648 672.699 150.476 671.333 Q152.305 669.944 152.305 667.352 Q152.305 664.69 150.407 663.277 Q148.532 661.842 145.013 661.842 Q143.092 661.842 140.893 662.259 Q138.694 662.676 136.055 663.555 L136.055 659.389 Q138.717 658.648 141.032 658.278 Q143.37 657.907 145.43 657.907 Q150.754 657.907 153.856 660.338 Q156.958 662.745 156.958 666.865 Q156.958 669.736 155.314 671.727 Q153.671 673.694 150.638 674.458 Z" fill="#000000" fill-rule="evenodd" fill-opacity="1" /><path clip-path="url(#clip630)" d="M100.43 405.911 Q96.8191 405.911 94.9904 409.476 Q93.1849 413.018 93.1849 420.147 Q93.1849 427.254 94.9904 430.818 Q96.8191 434.36 100.43 434.36 Q104.064 434.36 105.87 430.818 Q107.699 427.254 107.699 420.147 Q107.699 413.018 105.87 409.476 Q104.064 405.911 100.43 405.911 M100.43 402.207 Q106.24 402.207 109.296 406.814 Q112.375 411.397 112.375 420.147 Q112.375 428.874 109.296 433.48 Q106.24 438.064 100.43 438.064 Q94.62 438.064 91.5414 433.48 Q88.4858 428.874 88.4858 420.147 Q88.4858 411.397 91.5414 406.814 Q94.62 402.207 100.43 402.207 Z" fill="#000000" fill-rule="evenodd" fill-opacity="1" /><path clip-path="url(#clip630)" d="M120.592 431.513 L125.476 431.513 L125.476 437.392 L120.592 437.392 L120.592 431.513 Z" fill="#000000" fill-rule="evenodd" fill-opacity="1" /><path clip-path="url(#clip630)" d="M146.24 418.249 Q143.092 418.249 141.24 420.402 Q139.411 422.555 139.411 426.305 Q139.411 430.031 141.24 432.207 Q143.092 434.36 146.24 434.36 Q149.388 434.36 151.217 432.207 Q153.069 430.031 153.069 426.305 Q153.069 422.555 151.217 420.402 Q149.388 418.249 146.24 418.249 M155.522 403.596 L155.522 407.856 Q153.763 407.022 151.958 406.582 Q150.175 406.143 148.416 406.143 Q143.786 406.143 141.333 409.268 Q138.902 412.393 138.555 418.712 Q139.921 416.698 141.981 415.633 Q144.041 414.545 146.518 414.545 Q151.726 414.545 154.735 417.717 Q157.768 420.865 157.768 426.305 Q157.768 431.629 154.62 434.846 Q151.472 438.064 146.24 438.064 Q140.245 438.064 137.074 433.48 Q133.902 428.874 133.902 420.147 Q133.902 411.953 137.791 407.092 Q141.68 402.207 148.231 402.207 Q149.99 402.207 151.773 402.555 Q153.578 402.902 155.522 403.596 Z" fill="#000000" fill-rule="evenodd" fill-opacity="1" /><path clip-path="url(#clip630)" d="M100.777 150.211 Q97.1663 150.211 95.3376 153.776 Q93.5321 157.318 93.5321 164.447 Q93.5321 171.554 95.3376 175.119 Q97.1663 178.66 100.777 178.66 Q104.412 178.66 106.217 175.119 Q108.046 171.554 108.046 164.447 Q108.046 157.318 106.217 153.776 Q104.412 150.211 100.777 150.211 M100.777 146.508 Q106.588 146.508 109.643 151.114 Q112.722 155.698 112.722 164.447 Q112.722 173.174 109.643 177.781 Q106.588 182.364 100.777 182.364 Q94.9673 182.364 91.8886 177.781 Q88.833 173.174 88.833 164.447 Q88.833 155.698 91.8886 151.114 Q94.9673 146.508 100.777 146.508 Z" fill="#000000" fill-rule="evenodd" fill-opacity="1" /><path clip-path="url(#clip630)" d="M120.939 175.813 L125.824 175.813 L125.824 181.693 L120.939 181.693 L120.939 175.813 Z" fill="#000000" fill-rule="evenodd" fill-opacity="1" /><path clip-path="url(#clip630)" d="M136.148 180.975 L136.148 176.716 Q137.907 177.549 139.712 177.989 Q141.518 178.429 143.254 178.429 Q147.884 178.429 150.314 175.327 Q152.768 172.202 153.115 165.86 Q151.773 167.85 149.712 168.915 Q147.652 169.98 145.152 169.98 Q139.967 169.98 136.935 166.855 Q133.925 163.707 133.925 158.267 Q133.925 152.943 137.074 149.725 Q140.222 146.508 145.453 146.508 Q151.448 146.508 154.597 151.114 Q157.768 155.698 157.768 164.447 Q157.768 172.619 153.879 177.503 Q150.013 182.364 143.462 182.364 Q141.703 182.364 139.898 182.017 Q138.092 181.67 136.148 180.975 M145.453 166.322 Q148.601 166.322 150.43 164.17 Q152.282 162.017 152.282 158.267 Q152.282 154.54 150.43 152.387 Q148.601 150.211 145.453 150.211 Q142.305 150.211 140.453 152.387 Q138.624 154.54 138.624 158.267 Q138.624 162.017 140.453 164.17 Q142.305 166.322 145.453 166.322 Z" fill="#000000" fill-rule="evenodd" fill-opacity="1" /><circle clip-path="url(#clip632)" cx="218.151" cy="820.694" r="14.4" fill="#009af9" fill-rule="evenodd" fill-opacity="1" stroke="#000000" stroke-opacity="1" stroke-width="3.072"/>
<circle clip-path="url(#clip632)" cx="266.659" cy="851.637" r="14.4" fill="#009af9" fill-rule="evenodd" fill-opacity="1" stroke="#000000" stroke-opacity="1" stroke-width="3.072"/>
<circle clip-path="url(#clip632)" cx="327.231" cy="488.731" r="14.4" fill="#009af9" fill-rule="evenodd" fill-opacity="1" stroke="#000000" stroke-opacity="1" stroke-width="3.072"/>
<circle clip-path="url(#clip632)" cx="333.349" cy="678.428" r="14.4" fill="#009af9" fill-rule="evenodd" fill-opacity="1" stroke="#000000" stroke-opacity="1" stroke-width="3.072"/>
<circle clip-path="url(#clip632)" cx="344.008" cy="900.117" r="14.4" fill="#009af9" fill-rule="evenodd" fill-opacity="1" stroke="#000000" stroke-opacity="1" stroke-width="3.072"/>
<circle clip-path="url(#clip632)" cx="363.639" cy="686.471" r="14.4" fill="#009af9" fill-rule="evenodd" fill-opacity="1" stroke="#000000" stroke-opacity="1" stroke-width="3.072"/>
<circle clip-path="url(#clip632)" cx="396.978" cy="846.136" r="14.4" fill="#009af9" fill-rule="evenodd" fill-opacity="1" stroke="#000000" stroke-opacity="1" stroke-width="3.072"/>
<circle clip-path="url(#clip632)" cx="399.479" cy="1031.94" r="14.4" fill="#009af9" fill-rule="evenodd" fill-opacity="1" stroke="#000000" stroke-opacity="1" stroke-width="3.072"/>
<circle clip-path="url(#clip632)" cx="428.182" cy="625.405" r="14.4" fill="#009af9" fill-rule="evenodd" fill-opacity="1" stroke="#000000" stroke-opacity="1" stroke-width="3.072"/>
<circle clip-path="url(#clip632)" cx="443.08" cy="901.018" r="14.4" fill="#009af9" fill-rule="evenodd" fill-opacity="1" stroke="#000000" stroke-opacity="1" stroke-width="3.072"/>
<circle clip-path="url(#clip632)" cx="454.221" cy="360.733" r="14.4" fill="#009af9" fill-rule="evenodd" fill-opacity="1" stroke="#000000" stroke-opacity="1" stroke-width="3.072"/>
<circle clip-path="url(#clip632)" cx="490.34" cy="995.071" r="14.4" fill="#009af9" fill-rule="evenodd" fill-opacity="1" stroke="#000000" stroke-opacity="1" stroke-width="3.072"/>
<circle clip-path="url(#clip632)" cx="517.388" cy="1040.48" r="14.4" fill="#009af9" fill-rule="evenodd" fill-opacity="1" stroke="#000000" stroke-opacity="1" stroke-width="3.072"/>
<circle clip-path="url(#clip632)" cx="518.943" cy="573.332" r="14.4" fill="#009af9" fill-rule="evenodd" fill-opacity="1" stroke="#000000" stroke-opacity="1" stroke-width="3.072"/>
<circle clip-path="url(#clip632)" cx="520.024" cy="1223.26" r="14.4" fill="#009af9" fill-rule="evenodd" fill-opacity="1" stroke="#000000" stroke-opacity="1" stroke-width="3.072"/>
<circle clip-path="url(#clip632)" cx="537.863" cy="362.135" r="14.4" fill="#009af9" fill-rule="evenodd" fill-opacity="1" stroke="#000000" stroke-opacity="1" stroke-width="3.072"/>
<circle clip-path="url(#clip632)" cx="547.409" cy="866.842" r="14.4" fill="#009af9" fill-rule="evenodd" fill-opacity="1" stroke="#000000" stroke-opacity="1" stroke-width="3.072"/>
<circle clip-path="url(#clip632)" cx="549.138" cy="330.233" r="14.4" fill="#009af9" fill-rule="evenodd" fill-opacity="1" stroke="#000000" stroke-opacity="1" stroke-width="3.072"/>
<circle clip-path="url(#clip632)" cx="560.085" cy="591.825" r="14.4" fill="#009af9" fill-rule="evenodd" fill-opacity="1" stroke="#000000" stroke-opacity="1" stroke-width="3.072"/>
<circle clip-path="url(#clip632)" cx="567.986" cy="433.59" r="14.4" fill="#009af9" fill-rule="evenodd" fill-opacity="1" stroke="#000000" stroke-opacity="1" stroke-width="3.072"/>
<circle clip-path="url(#clip632)" cx="589.675" cy="504.574" r="14.4" fill="#009af9" fill-rule="evenodd" fill-opacity="1" stroke="#000000" stroke-opacity="1" stroke-width="3.072"/>
<circle clip-path="url(#clip632)" cx="624.573" cy="362.601" r="14.4" fill="#009af9" fill-rule="evenodd" fill-opacity="1" stroke="#000000" stroke-opacity="1" stroke-width="3.072"/>
<circle clip-path="url(#clip632)" cx="639.27" cy="855.459" r="14.4" fill="#009af9" fill-rule="evenodd" fill-opacity="1" stroke="#000000" stroke-opacity="1" stroke-width="3.072"/>
<circle clip-path="url(#clip632)" cx="654.258" cy="784.326" r="14.4" fill="#009af9" fill-rule="evenodd" fill-opacity="1" stroke="#000000" stroke-opacity="1" stroke-width="3.072"/>
<circle clip-path="url(#clip632)" cx="657.148" cy="1384.15" r="14.4" fill="#009af9" fill-rule="evenodd" fill-opacity="1" stroke="#000000" stroke-opacity="1" stroke-width="3.072"/>
<circle clip-path="url(#clip632)" cx="669.444" cy="958.85" r="14.4" fill="#009af9" fill-rule="evenodd" fill-opacity="1" stroke="#000000" stroke-opacity="1" stroke-width="3.072"/>
<circle clip-path="url(#clip632)" cx="672.739" cy="869.659" r="14.4" fill="#009af9" fill-rule="evenodd" fill-opacity="1" stroke="#000000" stroke-opacity="1" stroke-width="3.072"/>
<circle clip-path="url(#clip632)" cx="676.557" cy="554.332" r="14.4" fill="#009af9" fill-rule="evenodd" fill-opacity="1" stroke="#000000" stroke-opacity="1" stroke-width="3.072"/>
<circle clip-path="url(#clip632)" cx="682.347" cy="520.579" r="14.4" fill="#009af9" fill-rule="evenodd" fill-opacity="1" stroke="#000000" stroke-opacity="1" stroke-width="3.072"/>
<circle clip-path="url(#clip632)" cx="699.375" cy="665.623" r="14.4" fill="#009af9" fill-rule="evenodd" fill-opacity="1" stroke="#000000" stroke-opacity="1" stroke-width="3.072"/>
<circle clip-path="url(#clip632)" cx="706.535" cy="715.316" r="14.4" fill="#009af9" fill-rule="evenodd" fill-opacity="1" stroke="#000000" stroke-opacity="1" stroke-width="3.072"/>
<circle clip-path="url(#clip632)" cx="709.349" cy="615.811" r="14.4" fill="#009af9" fill-rule="evenodd" fill-opacity="1" stroke="#000000" stroke-opacity="1" stroke-width="3.072"/>
<circle clip-path="url(#clip632)" cx="720.231" cy="1015.26" r="14.4" fill="#009af9" fill-rule="evenodd" fill-opacity="1" stroke="#000000" stroke-opacity="1" stroke-width="3.072"/>
<circle clip-path="url(#clip632)" cx="730.068" cy="677.91" r="14.4" fill="#009af9" fill-rule="evenodd" fill-opacity="1" stroke="#000000" stroke-opacity="1" stroke-width="3.072"/>
<circle clip-path="url(#clip632)" cx="731.758" cy="594.897" r="14.4" fill="#009af9" fill-rule="evenodd" fill-opacity="1" stroke="#000000" stroke-opacity="1" stroke-width="3.072"/>
<circle clip-path="url(#clip632)" cx="736.189" cy="628.984" r="14.4" fill="#009af9" fill-rule="evenodd" fill-opacity="1" stroke="#000000" stroke-opacity="1" stroke-width="3.072"/>
<circle clip-path="url(#clip632)" cx="739.162" cy="902.873" r="14.4" fill="#009af9" fill-rule="evenodd" fill-opacity="1" stroke="#000000" stroke-opacity="1" stroke-width="3.072"/>
<circle clip-path="url(#clip632)" cx="766.084" cy="899.313" r="14.4" fill="#009af9" fill-rule="evenodd" fill-opacity="1" stroke="#000000" stroke-opacity="1" stroke-width="3.072"/>
<circle clip-path="url(#clip632)" cx="777.713" cy="1098.85" r="14.4" fill="#009af9" fill-rule="evenodd" fill-opacity="1" stroke="#000000" stroke-opacity="1" stroke-width="3.072"/>
<circle clip-path="url(#clip632)" cx="810.873" cy="883.837" r="14.4" fill="#009af9" fill-rule="evenodd" fill-opacity="1" stroke="#000000" stroke-opacity="1" stroke-width="3.072"/>
<circle clip-path="url(#clip632)" cx="820.007" cy="1215.41" r="14.4" fill="#009af9" fill-rule="evenodd" fill-opacity="1" stroke="#000000" stroke-opacity="1" stroke-width="3.072"/>
<circle clip-path="url(#clip632)" cx="823.771" cy="114.612" r="14.4" fill="#009af9" fill-rule="evenodd" fill-opacity="1" stroke="#000000" stroke-opacity="1" stroke-width="3.072"/>
<circle clip-path="url(#clip632)" cx="845.218" cy="871.938" r="14.4" fill="#009af9" fill-rule="evenodd" fill-opacity="1" stroke="#000000" stroke-opacity="1" stroke-width="3.072"/>
<circle clip-path="url(#clip632)" cx="848.645" cy="584.02" r="14.4" fill="#009af9" fill-rule="evenodd" fill-opacity="1" stroke="#000000" stroke-opacity="1" stroke-width="3.072"/>
<circle clip-path="url(#clip632)" cx="885.608" cy="737.8" r="14.4" fill="#009af9" fill-rule="evenodd" fill-opacity="1" stroke="#000000" stroke-opacity="1" stroke-width="3.072"/>
<circle clip-path="url(#clip632)" cx="904.393" cy="1045.52" r="14.4" fill="#009af9" fill-rule="evenodd" fill-opacity="1" stroke="#000000" stroke-opacity="1" stroke-width="3.072"/>
<circle clip-path="url(#clip632)" cx="1013.84" cy="86.1831" r="14.4" fill="#009af9" fill-rule="evenodd" fill-opacity="1" stroke="#000000" stroke-opacity="1" stroke-width="3.072"/>
<circle clip-path="url(#clip632)" cx="1024.62" cy="1082.82" r="14.4" fill="#009af9" fill-rule="evenodd" fill-opacity="1" stroke="#000000" stroke-opacity="1" stroke-width="3.072"/>
<circle clip-path="url(#clip632)" cx="1028.31" cy="657.547" r="14.4" fill="#009af9" fill-rule="evenodd" fill-opacity="1" stroke="#000000" stroke-opacity="1" stroke-width="3.072"/>
<circle clip-path="url(#clip632)" cx="1078.93" cy="619.89" r="14.4" fill="#009af9" fill-rule="evenodd" fill-opacity="1" stroke="#000000" stroke-opacity="1" stroke-width="3.072"/>
<polyline clip-path="url(#clip632)" style="stroke:#0000ff; stroke-linecap:round; stroke-linejoin:round; stroke-width:20; stroke-opacity:1; fill:none" points="
  218.151,754.082 219.616,754.399 233.156,757.328 241.294,759.089 248.174,760.578 255.647,762.195 262.537,763.685 269.924,765.284 278.482,767.135 286.088,768.781 
  292.757,770.224 300.029,771.797 307.344,773.38 315.431,775.129 323.126,776.794 331.127,778.525 337.862,779.982 346.085,781.762 353.617,783.391 360.574,784.896 
  367.621,786.421 375.519,788.13 382.676,789.678 390.87,791.451 398.457,793.093 405.936,794.711 413.199,796.282 420.643,797.893 428.8,799.658 440.649,802.221 
  443.08,802.747 
  "/>
<polyline clip-path="url(#clip632)" style="stroke:#0000ff; stroke-linecap:round; stroke-linejoin:round; stroke-width:20; stroke-opacity:1; fill:none" points="
  363.639,723.451 364.657,724.644 374.071,735.671 379.729,742.297 384.512,747.9 389.708,753.986 394.498,759.597 399.634,765.612 405.585,772.582 410.873,778.776 
  415.51,784.207 420.565,790.128 425.651,796.085 431.274,802.671 436.624,808.937 442.187,815.453 446.869,820.938 452.586,827.634 457.823,833.768 462.66,839.433 
  467.56,845.172 473.051,851.604 478.027,857.432 483.724,864.105 488.999,870.283 494.199,876.374 499.248,882.288 504.425,888.351 510.096,894.993 518.334,904.642 
  520.024,906.622 
  "/>
<polyline clip-path="url(#clip632)" style="stroke:#0000ff; stroke-linecap:round; stroke-linejoin:round; stroke-width:20; stroke-opacity:1; fill:none" points="
  454.221,780.252 454.962,779.199 461.81,769.465 465.926,763.616 469.406,758.67 473.186,753.297 476.671,748.344 480.407,743.034 484.735,736.882 488.582,731.415 
  491.955,726.62 495.633,721.393 499.333,716.135 503.423,710.321 507.315,704.789 511.362,699.038 514.768,694.196 518.927,688.285 522.737,682.87 526.256,677.869 
  529.82,672.803 533.815,667.126 537.434,661.981 541.579,656.091 545.416,650.637 549.199,645.26 552.872,640.039 556.638,634.687 560.763,628.824 566.756,620.306 
  567.986,618.559 
  "/>
<polyline clip-path="url(#clip632)" style="stroke:#0000ff; stroke-linecap:round; stroke-linejoin:round; stroke-width:20; stroke-opacity:1; fill:none" points="
  537.863,415.562 538.64,418.846 545.821,449.205 550.136,467.449 553.785,482.875 557.748,499.632 561.402,515.08 565.319,531.642 569.858,550.83 573.892,567.883 
  577.428,582.837 581.285,599.14 585.164,615.54 589.453,633.673 593.534,650.926 597.777,668.865 601.348,683.965 605.709,702.402 609.704,719.29 613.393,734.888 
  617.13,750.689 621.319,768.397 625.114,784.443 629.46,802.814 633.483,819.825 637.45,836.595 641.301,852.878 645.249,869.57 649.575,887.858 655.859,914.424 
  657.148,919.874 
  "/>
<polyline clip-path="url(#clip632)" style="stroke:#0000ff; stroke-linecap:round; stroke-linejoin:round; stroke-width:20; stroke-opacity:1; fill:none" points="
  589.675,610.768 590.39,612.212 596.993,625.57 600.962,633.598 604.318,640.385 607.962,647.758 611.323,654.555 614.925,661.842 619.099,670.285 622.809,677.788 
  626.061,684.367 629.608,691.541 633.175,698.757 637.119,706.735 640.872,714.326 644.774,722.219 648.059,728.864 652.07,736.975 655.743,744.406 659.136,751.269 
  662.573,758.222 666.425,766.013 669.915,773.073 673.912,781.156 677.612,788.641 681.26,796.02 684.802,803.184 688.432,810.529 692.41,818.575 698.189,830.264 
  699.375,832.662 
  "/>
<polyline clip-path="url(#clip632)" style="stroke:#0000ff; stroke-linecap:round; stroke-linejoin:round; stroke-width:20; stroke-opacity:1; fill:none" points="
  669.444,744.478 669.849,744.136 673.601,740.97 675.855,739.067 677.761,737.459 679.831,735.711 681.74,734.1 683.787,732.373 686.158,730.372 688.265,728.593 
  690.113,727.034 692.127,725.334 694.154,723.623 696.394,721.732 698.526,719.933 700.742,718.062 702.608,716.488 704.886,714.565 706.973,712.804 708.901,711.177 
  710.853,709.529 713.041,707.683 715.024,706.009 717.294,704.093 719.396,702.319 721.468,700.57 723.48,698.872 725.542,697.132 727.802,695.225 731.085,692.454 
  731.758,691.886 
  "/>
<polyline clip-path="url(#clip632)" style="stroke:#0000ff; stroke-linecap:round; stroke-linejoin:round; stroke-width:20; stroke-opacity:1; fill:none" points="
  706.535,700.647 707.214,702.57 713.495,720.352 717.27,731.038 720.461,740.073 723.928,749.888 727.124,758.936 730.55,768.637 734.52,779.876 738.049,789.865 
  741.142,798.623 744.515,808.173 747.908,817.779 751.66,828.399 755.229,838.505 758.941,849.012 762.065,857.857 765.879,868.655 769.374,878.548 772.601,887.684 
  775.87,896.938 779.533,907.31 782.853,916.709 786.654,927.47 790.173,937.433 793.643,947.256 797.012,956.793 800.465,966.57 804.249,977.282 809.745,992.842 
  810.873,996.034 
  "/>
<polyline clip-path="url(#clip632)" style="stroke:#0000ff; stroke-linecap:round; stroke-linejoin:round; stroke-width:20; stroke-opacity:1; fill:none" points="
  736.189,871.5 737.162,870.406 746.157,860.292 751.562,854.214 756.133,849.076 761.098,843.494 765.675,838.347 770.582,832.83 776.267,826.438 781.319,820.757 
  785.75,815.776 790.58,810.345 795.439,804.881 800.812,798.841 805.923,793.093 811.238,787.117 815.713,782.087 821.175,775.945 826.179,770.319 830.8,765.123 
  835.482,759.859 840.728,753.96 845.482,748.615 850.926,742.495 855.965,736.828 860.934,731.241 865.759,725.817 870.704,720.257 876.122,714.165 883.994,705.315 
  885.608,703.499 
  "/>
<polyline clip-path="url(#clip632)" style="stroke:#0000ff; stroke-linecap:round; stroke-linejoin:round; stroke-width:20; stroke-opacity:1; fill:none" points="
  820.007,752.403 821.693,751.604 837.28,744.222 846.647,739.786 854.567,736.036 863.17,731.961 871.101,728.205 879.605,724.178 889.457,719.512 898.212,715.366 
  905.889,711.73 914.26,707.766 922.68,703.778 931.99,699.369 940.848,695.174 950.058,690.812 957.811,687.141 967.277,682.658 975.948,678.551 983.956,674.759 
  992.069,670.917 1001.16,666.611 1009.4,662.71 1018.83,658.243 1027.56,654.107 1036.18,650.029 1044.54,646.07 1053.11,642.011 1062.49,637.564 1076.13,631.105 
  1078.93,629.78 
  "/>
<path clip-path="url(#clip630)" d="
M1344.33 1423.09 L2256.76 1423.09 L2256.76 47.2441 L1344.33 47.2441  Z
  " fill="#ffffff" fill-rule="evenodd" fill-opacity="1"/>
<defs>
  <clipPath id="clip633">
    <rect x="1344" y="47" width="913" height="1377"/>
  </clipPath>
</defs>
<polyline clip-path="url(#clip633)" style="stroke:#000000; stroke-linecap:round; stroke-linejoin:round; stroke-width:2; stroke-opacity:0.1; fill:none" points="
  1408.26,1423.09 1408.26,47.2441 
  "/>
<polyline clip-path="url(#clip633)" style="stroke:#000000; stroke-linecap:round; stroke-linejoin:round; stroke-width:2; stroke-opacity:0.1; fill:none" points="
  1530.1,1423.09 1530.1,47.2441 
  "/>
<polyline clip-path="url(#clip633)" style="stroke:#000000; stroke-linecap:round; stroke-linejoin:round; stroke-width:2; stroke-opacity:0.1; fill:none" points="
  1651.94,1423.09 1651.94,47.2441 
  "/>
<polyline clip-path="url(#clip633)" style="stroke:#000000; stroke-linecap:round; stroke-linejoin:round; stroke-width:2; stroke-opacity:0.1; fill:none" points="
  1773.78,1423.09 1773.78,47.2441 
  "/>
<polyline clip-path="url(#clip633)" style="stroke:#000000; stroke-linecap:round; stroke-linejoin:round; stroke-width:2; stroke-opacity:0.1; fill:none" points="
  1895.62,1423.09 1895.62,47.2441 
  "/>
<polyline clip-path="url(#clip633)" style="stroke:#000000; stroke-linecap:round; stroke-linejoin:round; stroke-width:2; stroke-opacity:0.1; fill:none" points="
  2017.46,1423.09 2017.46,47.2441 
  "/>
<polyline clip-path="url(#clip633)" style="stroke:#000000; stroke-linecap:round; stroke-linejoin:round; stroke-width:2; stroke-opacity:0.1; fill:none" points="
  2139.29,1423.09 2139.29,47.2441 
  "/>
<polyline clip-path="url(#clip630)" style="stroke:#000000; stroke-linecap:round; stroke-linejoin:round; stroke-width:4; stroke-opacity:1; fill:none" points="
  1344.33,1423.09 2256.76,1423.09 
  "/>
<polyline clip-path="url(#clip630)" style="stroke:#000000; stroke-linecap:round; stroke-linejoin:round; stroke-width:4; stroke-opacity:1; fill:none" points="
  1408.26,1423.09 1408.26,1404.19 
  "/>
<polyline clip-path="url(#clip630)" style="stroke:#000000; stroke-linecap:round; stroke-linejoin:round; stroke-width:4; stroke-opacity:1; fill:none" points="
  1530.1,1423.09 1530.1,1404.19 
  "/>
<polyline clip-path="url(#clip630)" style="stroke:#000000; stroke-linecap:round; stroke-linejoin:round; stroke-width:4; stroke-opacity:1; fill:none" points="
  1651.94,1423.09 1651.94,1404.19 
  "/>
<polyline clip-path="url(#clip630)" style="stroke:#000000; stroke-linecap:round; stroke-linejoin:round; stroke-width:4; stroke-opacity:1; fill:none" points="
  1773.78,1423.09 1773.78,1404.19 
  "/>
<polyline clip-path="url(#clip630)" style="stroke:#000000; stroke-linecap:round; stroke-linejoin:round; stroke-width:4; stroke-opacity:1; fill:none" points="
  1895.62,1423.09 1895.62,1404.19 
  "/>
<polyline clip-path="url(#clip630)" style="stroke:#000000; stroke-linecap:round; stroke-linejoin:round; stroke-width:4; stroke-opacity:1; fill:none" points="
  2017.46,1423.09 2017.46,1404.19 
  "/>
<polyline clip-path="url(#clip630)" style="stroke:#000000; stroke-linecap:round; stroke-linejoin:round; stroke-width:4; stroke-opacity:1; fill:none" points="
  2139.29,1423.09 2139.29,1404.19 
  "/>
<path clip-path="url(#clip630)" d="M1385.69 1453.24 Q1382.08 1453.24 1380.25 1456.8 Q1378.45 1460.35 1378.45 1467.47 Q1378.45 1474.58 1380.25 1478.15 Q1382.08 1481.69 1385.69 1481.69 Q1389.33 1481.69 1391.13 1478.15 Q1392.96 1474.58 1392.96 1467.47 Q1392.96 1460.35 1391.13 1456.8 Q1389.33 1453.24 1385.69 1453.24 M1385.69 1449.53 Q1391.5 1449.53 1394.56 1454.14 Q1397.64 1458.72 1397.64 1467.47 Q1397.64 1476.2 1394.56 1480.81 Q1391.5 1485.39 1385.69 1485.39 Q1379.88 1485.39 1376.8 1480.81 Q1373.75 1476.2 1373.75 1467.47 Q1373.75 1458.72 1376.8 1454.14 Q1379.88 1449.53 1385.69 1449.53 Z" fill="#000000" fill-rule="evenodd" fill-opacity="1" /><path clip-path="url(#clip630)" d="M1405.85 1478.84 L1410.74 1478.84 L1410.74 1484.72 L1405.85 1484.72 L1405.85 1478.84 Z" fill="#000000" fill-rule="evenodd" fill-opacity="1" /><path clip-path="url(#clip630)" d="M1430.92 1468.31 Q1427.59 1468.31 1425.67 1470.09 Q1423.77 1471.87 1423.77 1475 Q1423.77 1478.12 1425.67 1479.91 Q1427.59 1481.69 1430.92 1481.69 Q1434.26 1481.69 1436.18 1479.91 Q1438.1 1478.1 1438.1 1475 Q1438.1 1471.87 1436.18 1470.09 Q1434.28 1468.31 1430.92 1468.31 M1426.25 1466.32 Q1423.24 1465.58 1421.55 1463.52 Q1419.88 1461.46 1419.88 1458.49 Q1419.88 1454.35 1422.82 1451.94 Q1425.78 1449.53 1430.92 1449.53 Q1436.08 1449.53 1439.02 1451.94 Q1441.96 1454.35 1441.96 1458.49 Q1441.96 1461.46 1440.27 1463.52 Q1438.61 1465.58 1435.62 1466.32 Q1439 1467.1 1440.88 1469.4 Q1442.77 1471.69 1442.77 1475 Q1442.77 1480.02 1439.7 1482.71 Q1436.64 1485.39 1430.92 1485.39 Q1425.2 1485.39 1422.13 1482.71 Q1419.07 1480.02 1419.07 1475 Q1419.07 1471.69 1420.97 1469.4 Q1422.87 1467.1 1426.25 1466.32 M1424.53 1458.93 Q1424.53 1461.62 1426.2 1463.12 Q1427.89 1464.63 1430.92 1464.63 Q1433.93 1464.63 1435.62 1463.12 Q1437.33 1461.62 1437.33 1458.93 Q1437.33 1456.25 1435.62 1454.74 Q1433.93 1453.24 1430.92 1453.24 Q1427.89 1453.24 1426.2 1454.74 Q1424.53 1456.25 1424.53 1458.93 Z" fill="#000000" fill-rule="evenodd" fill-opacity="1" /><path clip-path="url(#clip630)" d="M1497.25 1480.78 L1504.89 1480.78 L1504.89 1454.42 L1496.58 1456.09 L1496.58 1451.83 L1504.84 1450.16 L1509.52 1450.16 L1509.52 1480.78 L1517.16 1480.78 L1517.16 1484.72 L1497.25 1484.72 L1497.25 1480.78 Z" fill="#000000" fill-rule="evenodd" fill-opacity="1" /><path clip-path="url(#clip630)" d="M1526.6 1478.84 L1531.49 1478.84 L1531.49 1484.72 L1526.6 1484.72 L1526.6 1478.84 Z" fill="#000000" fill-rule="evenodd" fill-opacity="1" /><path clip-path="url(#clip630)" d="M1551.67 1453.24 Q1548.06 1453.24 1546.23 1456.8 Q1544.43 1460.35 1544.43 1467.47 Q1544.43 1474.58 1546.23 1478.15 Q1548.06 1481.69 1551.67 1481.69 Q1555.31 1481.69 1557.11 1478.15 Q1558.94 1474.58 1558.94 1467.47 Q1558.94 1460.35 1557.11 1456.8 Q1555.31 1453.24 1551.67 1453.24 M1551.67 1449.53 Q1557.48 1449.53 1560.54 1454.14 Q1563.62 1458.72 1563.62 1467.47 Q1563.62 1476.2 1560.54 1480.81 Q1557.48 1485.39 1551.67 1485.39 Q1545.86 1485.39 1542.78 1480.81 Q1539.73 1476.2 1539.73 1467.47 Q1539.73 1458.72 1542.78 1454.14 Q1545.86 1449.53 1551.67 1449.53 Z" fill="#000000" fill-rule="evenodd" fill-opacity="1" /><path clip-path="url(#clip630)" d="M1619.89 1480.78 L1627.53 1480.78 L1627.53 1454.42 L1619.22 1456.09 L1619.22 1451.83 L1627.48 1450.16 L1632.16 1450.16 L1632.16 1480.78 L1639.8 1480.78 L1639.8 1484.72 L1619.89 1484.72 L1619.89 1480.78 Z" fill="#000000" fill-rule="evenodd" fill-opacity="1" /><path clip-path="url(#clip630)" d="M1649.24 1478.84 L1654.13 1478.84 L1654.13 1484.72 L1649.24 1484.72 L1649.24 1478.84 Z" fill="#000000" fill-rule="evenodd" fill-opacity="1" /><path clip-path="url(#clip630)" d="M1668.34 1480.78 L1684.66 1480.78 L1684.66 1484.72 L1662.71 1484.72 L1662.71 1480.78 Q1665.38 1478.03 1669.96 1473.4 Q1674.57 1468.75 1675.75 1467.41 Q1677.99 1464.88 1678.87 1463.15 Q1679.77 1461.39 1679.77 1459.7 Q1679.77 1456.94 1677.83 1455.21 Q1675.91 1453.47 1672.81 1453.47 Q1670.61 1453.47 1668.15 1454.23 Q1665.72 1455 1662.95 1456.55 L1662.95 1451.83 Q1665.77 1450.69 1668.22 1450.11 Q1670.68 1449.53 1672.71 1449.53 Q1678.08 1449.53 1681.28 1452.22 Q1684.47 1454.91 1684.47 1459.4 Q1684.47 1461.53 1683.66 1463.45 Q1682.88 1465.34 1680.77 1467.94 Q1680.19 1468.61 1677.09 1471.83 Q1673.99 1475.02 1668.34 1480.78 Z" fill="#000000" fill-rule="evenodd" fill-opacity="1" /><path clip-path="url(#clip630)" d="M1740.69 1480.78 L1748.33 1480.78 L1748.33 1454.42 L1740.02 1456.09 L1740.02 1451.83 L1748.28 1450.16 L1752.96 1450.16 L1752.96 1480.78 L1760.59 1480.78 L1760.59 1484.72 L1740.69 1484.72 L1740.69 1480.78 Z" fill="#000000" fill-rule="evenodd" fill-opacity="1" /><path clip-path="url(#clip630)" d="M1770.04 1478.84 L1774.92 1478.84 L1774.92 1484.72 L1770.04 1484.72 L1770.04 1478.84 Z" fill="#000000" fill-rule="evenodd" fill-opacity="1" /><path clip-path="url(#clip630)" d="M1797.96 1454.23 L1786.15 1472.68 L1797.96 1472.68 L1797.96 1454.23 M1796.73 1450.16 L1802.61 1450.16 L1802.61 1472.68 L1807.54 1472.68 L1807.54 1476.57 L1802.61 1476.57 L1802.61 1484.72 L1797.96 1484.72 L1797.96 1476.57 L1782.35 1476.57 L1782.35 1472.06 L1796.73 1450.16 Z" fill="#000000" fill-rule="evenodd" fill-opacity="1" /><path clip-path="url(#clip630)" d="M1862.69 1480.78 L1870.33 1480.78 L1870.33 1454.42 L1862.02 1456.09 L1862.02 1451.83 L1870.28 1450.16 L1874.96 1450.16 L1874.96 1480.78 L1882.6 1480.78 L1882.6 1484.72 L1862.69 1484.72 L1862.69 1480.78 Z" fill="#000000" fill-rule="evenodd" fill-opacity="1" /><path clip-path="url(#clip630)" d="M1892.04 1478.84 L1896.92 1478.84 L1896.92 1484.72 L1892.04 1484.72 L1892.04 1478.84 Z" fill="#000000" fill-rule="evenodd" fill-opacity="1" /><path clip-path="url(#clip630)" d="M1917.69 1465.58 Q1914.54 1465.58 1912.69 1467.73 Q1910.86 1469.88 1910.86 1473.63 Q1910.86 1477.36 1912.69 1479.53 Q1914.54 1481.69 1917.69 1481.69 Q1920.84 1481.69 1922.67 1479.53 Q1924.52 1477.36 1924.52 1473.63 Q1924.52 1469.88 1922.67 1467.73 Q1920.84 1465.58 1917.69 1465.58 M1926.97 1450.92 L1926.97 1455.18 Q1925.21 1454.35 1923.41 1453.91 Q1921.62 1453.47 1919.86 1453.47 Q1915.23 1453.47 1912.78 1456.6 Q1910.35 1459.72 1910 1466.04 Q1911.37 1464.03 1913.43 1462.96 Q1915.49 1461.87 1917.97 1461.87 Q1923.17 1461.87 1926.18 1465.04 Q1929.22 1468.19 1929.22 1473.63 Q1929.22 1478.96 1926.07 1482.17 Q1922.92 1485.39 1917.69 1485.39 Q1911.69 1485.39 1908.52 1480.81 Q1905.35 1476.2 1905.35 1467.47 Q1905.35 1459.28 1909.24 1454.42 Q1913.13 1449.53 1919.68 1449.53 Q1921.44 1449.53 1923.22 1449.88 Q1925.03 1450.23 1926.97 1450.92 Z" fill="#000000" fill-rule="evenodd" fill-opacity="1" /><path clip-path="url(#clip630)" d="M1984.65 1480.78 L1992.29 1480.78 L1992.29 1454.42 L1983.98 1456.09 L1983.98 1451.83 L1992.25 1450.16 L1996.92 1450.16 L1996.92 1480.78 L2004.56 1480.78 L2004.56 1484.72 L1984.65 1484.72 L1984.65 1480.78 Z" fill="#000000" fill-rule="evenodd" fill-opacity="1" /><path clip-path="url(#clip630)" d="M2014.01 1478.84 L2018.89 1478.84 L2018.89 1484.72 L2014.01 1484.72 L2014.01 1478.84 Z" fill="#000000" fill-rule="evenodd" fill-opacity="1" /><path clip-path="url(#clip630)" d="M2039.08 1468.31 Q2035.74 1468.31 2033.82 1470.09 Q2031.92 1471.87 2031.92 1475 Q2031.92 1478.12 2033.82 1479.91 Q2035.74 1481.69 2039.08 1481.69 Q2042.41 1481.69 2044.33 1479.91 Q2046.25 1478.1 2046.25 1475 Q2046.25 1471.87 2044.33 1470.09 Q2042.43 1468.31 2039.08 1468.31 M2034.4 1466.32 Q2031.39 1465.58 2029.7 1463.52 Q2028.03 1461.46 2028.03 1458.49 Q2028.03 1454.35 2030.97 1451.94 Q2033.94 1449.53 2039.08 1449.53 Q2044.24 1449.53 2047.18 1451.94 Q2050.12 1454.35 2050.12 1458.49 Q2050.12 1461.46 2048.43 1463.52 Q2046.76 1465.58 2043.78 1466.32 Q2047.15 1467.1 2049.03 1469.4 Q2050.93 1471.69 2050.93 1475 Q2050.93 1480.02 2047.85 1482.71 Q2044.79 1485.39 2039.08 1485.39 Q2033.36 1485.39 2030.28 1482.71 Q2027.22 1480.02 2027.22 1475 Q2027.22 1471.69 2029.12 1469.4 Q2031.02 1467.1 2034.4 1466.32 M2032.69 1458.93 Q2032.69 1461.62 2034.35 1463.12 Q2036.04 1464.63 2039.08 1464.63 Q2042.09 1464.63 2043.78 1463.12 Q2045.49 1461.62 2045.49 1458.93 Q2045.49 1456.25 2043.78 1454.74 Q2042.09 1453.24 2039.08 1453.24 Q2036.04 1453.24 2034.35 1454.74 Q2032.69 1456.25 2032.69 1458.93 Z" fill="#000000" fill-rule="evenodd" fill-opacity="1" /><path clip-path="url(#clip630)" d="M2110.53 1480.78 L2126.85 1480.78 L2126.85 1484.72 L2104.91 1484.72 L2104.91 1480.78 Q2107.57 1478.03 2112.15 1473.4 Q2116.76 1468.75 2117.94 1467.41 Q2120.19 1464.88 2121.07 1463.15 Q2121.97 1461.39 2121.97 1459.7 Q2121.97 1456.94 2120.02 1455.21 Q2118.1 1453.47 2115 1453.47 Q2112.8 1453.47 2110.35 1454.23 Q2107.92 1455 2105.14 1456.55 L2105.14 1451.83 Q2107.96 1450.69 2110.42 1450.11 Q2112.87 1449.53 2114.91 1449.53 Q2120.28 1449.53 2123.47 1452.22 Q2126.67 1454.91 2126.67 1459.4 Q2126.67 1461.53 2125.86 1463.45 Q2125.07 1465.34 2122.96 1467.94 Q2122.39 1468.61 2119.28 1471.83 Q2116.18 1475.02 2110.53 1480.78 Z" fill="#000000" fill-rule="evenodd" fill-opacity="1" /><path clip-path="url(#clip630)" d="M2136.67 1478.84 L2141.55 1478.84 L2141.55 1484.72 L2136.67 1484.72 L2136.67 1478.84 Z" fill="#000000" fill-rule="evenodd" fill-opacity="1" /><path clip-path="url(#clip630)" d="M2161.74 1453.24 Q2158.13 1453.24 2156.3 1456.8 Q2154.49 1460.35 2154.49 1467.47 Q2154.49 1474.58 2156.3 1478.15 Q2158.13 1481.69 2161.74 1481.69 Q2165.37 1481.69 2167.18 1478.15 Q2169.01 1474.58 2169.01 1467.47 Q2169.01 1460.35 2167.18 1456.8 Q2165.37 1453.24 2161.74 1453.24 M2161.74 1449.53 Q2167.55 1449.53 2170.6 1454.14 Q2173.68 1458.72 2173.68 1467.47 Q2173.68 1476.2 2170.6 1480.81 Q2167.55 1485.39 2161.74 1485.39 Q2155.93 1485.39 2152.85 1480.81 Q2149.79 1476.2 2149.79 1467.47 Q2149.79 1458.72 2152.85 1454.14 Q2155.93 1449.53 2161.74 1449.53 Z" fill="#000000" fill-rule="evenodd" fill-opacity="1" /><polyline clip-path="url(#clip633)" style="stroke:#000000; stroke-linecap:round; stroke-linejoin:round; stroke-width:2; stroke-opacity:0.1; fill:none" points="
  1344.33,1187.21 2256.76,1187.21 
  "/>
<polyline clip-path="url(#clip633)" style="stroke:#000000; stroke-linecap:round; stroke-linejoin:round; stroke-width:2; stroke-opacity:0.1; fill:none" points="
  1344.33,931.512 2256.76,931.512 
  "/>
<polyline clip-path="url(#clip633)" style="stroke:#000000; stroke-linecap:round; stroke-linejoin:round; stroke-width:2; stroke-opacity:0.1; fill:none" points="
  1344.33,675.812 2256.76,675.812 
  "/>
<polyline clip-path="url(#clip633)" style="stroke:#000000; stroke-linecap:round; stroke-linejoin:round; stroke-width:2; stroke-opacity:0.1; fill:none" points="
  1344.33,420.112 2256.76,420.112 
  "/>
<polyline clip-path="url(#clip633)" style="stroke:#000000; stroke-linecap:round; stroke-linejoin:round; stroke-width:2; stroke-opacity:0.1; fill:none" points="
  1344.33,164.413 2256.76,164.413 
  "/>
<polyline clip-path="url(#clip630)" style="stroke:#000000; stroke-linecap:round; stroke-linejoin:round; stroke-width:4; stroke-opacity:1; fill:none" points="
  1344.33,1423.09 1344.33,47.2441 
  "/>
<polyline clip-path="url(#clip630)" style="stroke:#000000; stroke-linecap:round; stroke-linejoin:round; stroke-width:4; stroke-opacity:1; fill:none" points="
  1344.33,1187.21 1363.23,1187.21 
  "/>
<polyline clip-path="url(#clip630)" style="stroke:#000000; stroke-linecap:round; stroke-linejoin:round; stroke-width:4; stroke-opacity:1; fill:none" points="
  1344.33,931.512 1363.23,931.512 
  "/>
<polyline clip-path="url(#clip630)" style="stroke:#000000; stroke-linecap:round; stroke-linejoin:round; stroke-width:4; stroke-opacity:1; fill:none" points="
  1344.33,675.812 1363.23,675.812 
  "/>
<polyline clip-path="url(#clip630)" style="stroke:#000000; stroke-linecap:round; stroke-linejoin:round; stroke-width:4; stroke-opacity:1; fill:none" points="
  1344.33,420.112 1363.23,420.112 
  "/>
<polyline clip-path="url(#clip630)" style="stroke:#000000; stroke-linecap:round; stroke-linejoin:round; stroke-width:4; stroke-opacity:1; fill:none" points="
  1344.33,164.413 1363.23,164.413 
  "/>
<path clip-path="url(#clip630)" d="M1203.47 1187.66 L1233.15 1187.66 L1233.15 1191.6 L1203.47 1191.6 L1203.47 1187.66 Z" fill="#000000" fill-rule="evenodd" fill-opacity="1" /><path clip-path="url(#clip630)" d="M1253.24 1173.01 Q1249.63 1173.01 1247.8 1176.57 Q1246 1180.12 1246 1187.25 Q1246 1194.35 1247.8 1197.92 Q1249.63 1201.46 1253.24 1201.46 Q1256.87 1201.46 1258.68 1197.92 Q1260.51 1194.35 1260.51 1187.25 Q1260.51 1180.12 1258.68 1176.57 Q1256.87 1173.01 1253.24 1173.01 M1253.24 1169.31 Q1259.05 1169.31 1262.11 1173.91 Q1265.18 1178.5 1265.18 1187.25 Q1265.18 1195.97 1262.11 1200.58 Q1259.05 1205.16 1253.24 1205.16 Q1247.43 1205.16 1244.35 1200.58 Q1241.3 1195.97 1241.3 1187.25 Q1241.3 1178.5 1244.35 1173.91 Q1247.43 1169.31 1253.24 1169.31 Z" fill="#000000" fill-rule="evenodd" fill-opacity="1" /><path clip-path="url(#clip630)" d="M1273.4 1198.61 L1278.29 1198.61 L1278.29 1204.49 L1273.4 1204.49 L1273.4 1198.61 Z" fill="#000000" fill-rule="evenodd" fill-opacity="1" /><path clip-path="url(#clip630)" d="M1302.64 1185.86 Q1305.99 1186.57 1307.87 1188.84 Q1309.77 1191.11 1309.77 1194.45 Q1309.77 1199.56 1306.25 1202.36 Q1302.73 1205.16 1296.25 1205.16 Q1294.07 1205.16 1291.76 1204.72 Q1289.47 1204.31 1287.01 1203.45 L1287.01 1198.94 Q1288.96 1200.07 1291.27 1200.65 Q1293.59 1201.23 1296.11 1201.23 Q1300.51 1201.23 1302.8 1199.49 Q1305.12 1197.76 1305.12 1194.45 Q1305.12 1191.39 1302.96 1189.68 Q1300.83 1187.94 1297.01 1187.94 L1292.99 1187.94 L1292.99 1184.1 L1297.2 1184.1 Q1300.65 1184.1 1302.48 1182.73 Q1304.3 1181.34 1304.3 1178.75 Q1304.3 1176.09 1302.41 1174.68 Q1300.53 1173.24 1297.01 1173.24 Q1295.09 1173.24 1292.89 1173.66 Q1290.69 1174.07 1288.06 1174.95 L1288.06 1170.79 Q1290.72 1170.05 1293.03 1169.68 Q1295.37 1169.31 1297.43 1169.31 Q1302.75 1169.31 1305.86 1171.74 Q1308.96 1174.14 1308.96 1178.26 Q1308.96 1181.14 1307.31 1183.13 Q1305.67 1185.09 1302.64 1185.86 Z" fill="#000000" fill-rule="evenodd" fill-opacity="1" /><path clip-path="url(#clip630)" d="M1252.59 917.311 Q1248.98 917.311 1247.15 920.875 Q1245.35 924.417 1245.35 931.547 Q1245.35 938.653 1247.15 942.218 Q1248.98 945.759 1252.59 945.759 Q1256.23 945.759 1258.03 942.218 Q1259.86 938.653 1259.86 931.547 Q1259.86 924.417 1258.03 920.875 Q1256.23 917.311 1252.59 917.311 M1252.59 913.607 Q1258.4 913.607 1261.46 918.213 Q1264.54 922.797 1264.54 931.547 Q1264.54 940.273 1261.46 944.88 Q1258.4 949.463 1252.59 949.463 Q1246.78 949.463 1243.7 944.88 Q1240.65 940.273 1240.65 931.547 Q1240.65 922.797 1243.7 918.213 Q1246.78 913.607 1252.59 913.607 Z" fill="#000000" fill-rule="evenodd" fill-opacity="1" /><path clip-path="url(#clip630)" d="M1272.75 942.912 L1277.64 942.912 L1277.64 948.792 L1272.75 948.792 L1272.75 942.912 Z" fill="#000000" fill-rule="evenodd" fill-opacity="1" /><path clip-path="url(#clip630)" d="M1297.82 917.311 Q1294.21 917.311 1292.38 920.875 Q1290.58 924.417 1290.58 931.547 Q1290.58 938.653 1292.38 942.218 Q1294.21 945.759 1297.82 945.759 Q1301.46 945.759 1303.26 942.218 Q1305.09 938.653 1305.09 931.547 Q1305.09 924.417 1303.26 920.875 Q1301.46 917.311 1297.82 917.311 M1297.82 913.607 Q1303.63 913.607 1306.69 918.213 Q1309.77 922.797 1309.77 931.547 Q1309.77 940.273 1306.69 944.88 Q1303.63 949.463 1297.82 949.463 Q1292.01 949.463 1288.93 944.88 Q1285.88 940.273 1285.88 931.547 Q1285.88 922.797 1288.93 918.213 Q1292.01 913.607 1297.82 913.607 Z" fill="#000000" fill-rule="evenodd" fill-opacity="1" /><path clip-path="url(#clip630)" d="M1253.24 661.611 Q1249.63 661.611 1247.8 665.176 Q1246 668.717 1246 675.847 Q1246 682.953 1247.8 686.518 Q1249.63 690.06 1253.24 690.06 Q1256.87 690.06 1258.68 686.518 Q1260.51 682.953 1260.51 675.847 Q1260.51 668.717 1258.68 665.176 Q1256.87 661.611 1253.24 661.611 M1253.24 657.907 Q1259.05 657.907 1262.11 662.514 Q1265.18 667.097 1265.18 675.847 Q1265.18 684.574 1262.11 689.18 Q1259.05 693.763 1253.24 693.763 Q1247.43 693.763 1244.35 689.18 Q1241.3 684.574 1241.3 675.847 Q1241.3 667.097 1244.35 662.514 Q1247.43 657.907 1253.24 657.907 Z" fill="#000000" fill-rule="evenodd" fill-opacity="1" /><path clip-path="url(#clip630)" d="M1273.4 687.213 L1278.29 687.213 L1278.29 693.092 L1273.4 693.092 L1273.4 687.213 Z" fill="#000000" fill-rule="evenodd" fill-opacity="1" /><path clip-path="url(#clip630)" d="M1302.64 674.458 Q1305.99 675.176 1307.87 677.444 Q1309.77 679.713 1309.77 683.046 Q1309.77 688.162 1306.25 690.963 Q1302.73 693.763 1296.25 693.763 Q1294.07 693.763 1291.76 693.324 Q1289.47 692.907 1287.01 692.05 L1287.01 687.537 Q1288.96 688.671 1291.27 689.25 Q1293.59 689.828 1296.11 689.828 Q1300.51 689.828 1302.8 688.092 Q1305.12 686.356 1305.12 683.046 Q1305.12 679.99 1302.96 678.277 Q1300.83 676.541 1297.01 676.541 L1292.99 676.541 L1292.99 672.699 L1297.2 672.699 Q1300.65 672.699 1302.48 671.333 Q1304.3 669.944 1304.3 667.352 Q1304.3 664.69 1302.41 663.277 Q1300.53 661.842 1297.01 661.842 Q1295.09 661.842 1292.89 662.259 Q1290.69 662.676 1288.06 663.555 L1288.06 659.389 Q1290.72 658.648 1293.03 658.278 Q1295.37 657.907 1297.43 657.907 Q1302.75 657.907 1305.86 660.338 Q1308.96 662.745 1308.96 666.865 Q1308.96 669.736 1307.31 671.727 Q1305.67 673.694 1302.64 674.458 Z" fill="#000000" fill-rule="evenodd" fill-opacity="1" /><path clip-path="url(#clip630)" d="M1252.43 405.911 Q1248.82 405.911 1246.99 409.476 Q1245.18 413.018 1245.18 420.147 Q1245.18 427.254 1246.99 430.818 Q1248.82 434.36 1252.43 434.36 Q1256.06 434.36 1257.87 430.818 Q1259.7 427.254 1259.7 420.147 Q1259.7 413.018 1257.87 409.476 Q1256.06 405.911 1252.43 405.911 M1252.43 402.207 Q1258.24 402.207 1261.3 406.814 Q1264.37 411.397 1264.37 420.147 Q1264.37 428.874 1261.3 433.48 Q1258.24 438.064 1252.43 438.064 Q1246.62 438.064 1243.54 433.48 Q1240.49 428.874 1240.49 420.147 Q1240.49 411.397 1243.54 406.814 Q1246.62 402.207 1252.43 402.207 Z" fill="#000000" fill-rule="evenodd" fill-opacity="1" /><path clip-path="url(#clip630)" d="M1272.59 431.513 L1277.48 431.513 L1277.48 437.392 L1272.59 437.392 L1272.59 431.513 Z" fill="#000000" fill-rule="evenodd" fill-opacity="1" /><path clip-path="url(#clip630)" d="M1298.24 418.249 Q1295.09 418.249 1293.24 420.402 Q1291.41 422.555 1291.41 426.305 Q1291.41 430.031 1293.24 432.207 Q1295.09 434.36 1298.24 434.36 Q1301.39 434.36 1303.22 432.207 Q1305.07 430.031 1305.07 426.305 Q1305.07 422.555 1303.22 420.402 Q1301.39 418.249 1298.24 418.249 M1307.52 403.596 L1307.52 407.856 Q1305.76 407.022 1303.96 406.582 Q1302.18 406.143 1300.42 406.143 Q1295.79 406.143 1293.33 409.268 Q1290.9 412.393 1290.55 418.712 Q1291.92 416.698 1293.98 415.633 Q1296.04 414.545 1298.52 414.545 Q1303.73 414.545 1306.74 417.717 Q1309.77 420.865 1309.77 426.305 Q1309.77 431.629 1306.62 434.846 Q1303.47 438.064 1298.24 438.064 Q1292.24 438.064 1289.07 433.48 Q1285.9 428.874 1285.9 420.147 Q1285.9 411.953 1289.79 407.092 Q1293.68 402.207 1300.23 402.207 Q1301.99 402.207 1303.77 402.555 Q1305.58 402.902 1307.52 403.596 Z" fill="#000000" fill-rule="evenodd" fill-opacity="1" /><path clip-path="url(#clip630)" d="M1252.78 150.211 Q1249.17 150.211 1247.34 153.776 Q1245.53 157.318 1245.53 164.447 Q1245.53 171.554 1247.34 175.119 Q1249.17 178.66 1252.78 178.66 Q1256.41 178.66 1258.22 175.119 Q1260.05 171.554 1260.05 164.447 Q1260.05 157.318 1258.22 153.776 Q1256.41 150.211 1252.78 150.211 M1252.78 146.508 Q1258.59 146.508 1261.64 151.114 Q1264.72 155.698 1264.72 164.447 Q1264.72 173.174 1261.64 177.781 Q1258.59 182.364 1252.78 182.364 Q1246.97 182.364 1243.89 177.781 Q1240.83 173.174 1240.83 164.447 Q1240.83 155.698 1243.89 151.114 Q1246.97 146.508 1252.78 146.508 Z" fill="#000000" fill-rule="evenodd" fill-opacity="1" /><path clip-path="url(#clip630)" d="M1272.94 175.813 L1277.82 175.813 L1277.82 181.693 L1272.94 181.693 L1272.94 175.813 Z" fill="#000000" fill-rule="evenodd" fill-opacity="1" /><path clip-path="url(#clip630)" d="M1288.15 180.975 L1288.15 176.716 Q1289.91 177.549 1291.71 177.989 Q1293.52 178.429 1295.25 178.429 Q1299.88 178.429 1302.31 175.327 Q1304.77 172.202 1305.12 165.86 Q1303.77 167.85 1301.71 168.915 Q1299.65 169.98 1297.15 169.98 Q1291.97 169.98 1288.93 166.855 Q1285.93 163.707 1285.93 158.267 Q1285.93 152.943 1289.07 149.725 Q1292.22 146.508 1297.45 146.508 Q1303.45 146.508 1306.6 151.114 Q1309.77 155.698 1309.77 164.447 Q1309.77 172.619 1305.88 177.503 Q1302.01 182.364 1295.46 182.364 Q1293.7 182.364 1291.9 182.017 Q1290.09 181.67 1288.15 180.975 M1297.45 166.322 Q1300.6 166.322 1302.43 164.17 Q1304.28 162.017 1304.28 158.267 Q1304.28 154.54 1302.43 152.387 Q1300.6 150.211 1297.45 150.211 Q1294.3 150.211 1292.45 152.387 Q1290.62 154.54 1290.62 158.267 Q1290.62 162.017 1292.45 164.17 Q1294.3 166.322 1297.45 166.322 Z" fill="#000000" fill-rule="evenodd" fill-opacity="1" /><circle clip-path="url(#clip633)" cx="1370.15" cy="820.694" r="14.4" fill="#009af9" fill-rule="evenodd" fill-opacity="1" stroke="#000000" stroke-opacity="1" stroke-width="3.072"/>
<circle clip-path="url(#clip633)" cx="1418.66" cy="851.637" r="14.4" fill="#009af9" fill-rule="evenodd" fill-opacity="1" stroke="#000000" stroke-opacity="1" stroke-width="3.072"/>
<circle clip-path="url(#clip633)" cx="1479.23" cy="488.731" r="14.4" fill="#009af9" fill-rule="evenodd" fill-opacity="1" stroke="#000000" stroke-opacity="1" stroke-width="3.072"/>
<circle clip-path="url(#clip633)" cx="1485.35" cy="678.428" r="14.4" fill="#009af9" fill-rule="evenodd" fill-opacity="1" stroke="#000000" stroke-opacity="1" stroke-width="3.072"/>
<circle clip-path="url(#clip633)" cx="1496.01" cy="900.117" r="14.4" fill="#009af9" fill-rule="evenodd" fill-opacity="1" stroke="#000000" stroke-opacity="1" stroke-width="3.072"/>
<circle clip-path="url(#clip633)" cx="1515.64" cy="686.471" r="14.4" fill="#009af9" fill-rule="evenodd" fill-opacity="1" stroke="#000000" stroke-opacity="1" stroke-width="3.072"/>
<circle clip-path="url(#clip633)" cx="1548.98" cy="846.136" r="14.4" fill="#009af9" fill-rule="evenodd" fill-opacity="1" stroke="#000000" stroke-opacity="1" stroke-width="3.072"/>
<circle clip-path="url(#clip633)" cx="1551.48" cy="1031.94" r="14.4" fill="#009af9" fill-rule="evenodd" fill-opacity="1" stroke="#000000" stroke-opacity="1" stroke-width="3.072"/>
<circle clip-path="url(#clip633)" cx="1580.18" cy="625.405" r="14.4" fill="#009af9" fill-rule="evenodd" fill-opacity="1" stroke="#000000" stroke-opacity="1" stroke-width="3.072"/>
<circle clip-path="url(#clip633)" cx="1595.08" cy="901.018" r="14.4" fill="#009af9" fill-rule="evenodd" fill-opacity="1" stroke="#000000" stroke-opacity="1" stroke-width="3.072"/>
<circle clip-path="url(#clip633)" cx="1606.22" cy="360.733" r="14.4" fill="#009af9" fill-rule="evenodd" fill-opacity="1" stroke="#000000" stroke-opacity="1" stroke-width="3.072"/>
<circle clip-path="url(#clip633)" cx="1642.34" cy="995.071" r="14.4" fill="#009af9" fill-rule="evenodd" fill-opacity="1" stroke="#000000" stroke-opacity="1" stroke-width="3.072"/>
<circle clip-path="url(#clip633)" cx="1669.39" cy="1040.48" r="14.4" fill="#009af9" fill-rule="evenodd" fill-opacity="1" stroke="#000000" stroke-opacity="1" stroke-width="3.072"/>
<circle clip-path="url(#clip633)" cx="1670.94" cy="573.332" r="14.4" fill="#009af9" fill-rule="evenodd" fill-opacity="1" stroke="#000000" stroke-opacity="1" stroke-width="3.072"/>
<circle clip-path="url(#clip633)" cx="1672.02" cy="1223.26" r="14.4" fill="#009af9" fill-rule="evenodd" fill-opacity="1" stroke="#000000" stroke-opacity="1" stroke-width="3.072"/>
<circle clip-path="url(#clip633)" cx="1689.86" cy="362.135" r="14.4" fill="#009af9" fill-rule="evenodd" fill-opacity="1" stroke="#000000" stroke-opacity="1" stroke-width="3.072"/>
<circle clip-path="url(#clip633)" cx="1699.41" cy="866.842" r="14.4" fill="#009af9" fill-rule="evenodd" fill-opacity="1" stroke="#000000" stroke-opacity="1" stroke-width="3.072"/>
<circle clip-path="url(#clip633)" cx="1701.14" cy="330.233" r="14.4" fill="#009af9" fill-rule="evenodd" fill-opacity="1" stroke="#000000" stroke-opacity="1" stroke-width="3.072"/>
<circle clip-path="url(#clip633)" cx="1712.08" cy="591.825" r="14.4" fill="#009af9" fill-rule="evenodd" fill-opacity="1" stroke="#000000" stroke-opacity="1" stroke-width="3.072"/>
<circle clip-path="url(#clip633)" cx="1719.99" cy="433.59" r="14.4" fill="#009af9" fill-rule="evenodd" fill-opacity="1" stroke="#000000" stroke-opacity="1" stroke-width="3.072"/>
<circle clip-path="url(#clip633)" cx="1741.68" cy="504.574" r="14.4" fill="#009af9" fill-rule="evenodd" fill-opacity="1" stroke="#000000" stroke-opacity="1" stroke-width="3.072"/>
<circle clip-path="url(#clip633)" cx="1776.57" cy="362.601" r="14.4" fill="#009af9" fill-rule="evenodd" fill-opacity="1" stroke="#000000" stroke-opacity="1" stroke-width="3.072"/>
<circle clip-path="url(#clip633)" cx="1791.27" cy="855.459" r="14.4" fill="#009af9" fill-rule="evenodd" fill-opacity="1" stroke="#000000" stroke-opacity="1" stroke-width="3.072"/>
<circle clip-path="url(#clip633)" cx="1806.26" cy="784.326" r="14.4" fill="#009af9" fill-rule="evenodd" fill-opacity="1" stroke="#000000" stroke-opacity="1" stroke-width="3.072"/>
<circle clip-path="url(#clip633)" cx="1809.15" cy="1384.15" r="14.4" fill="#009af9" fill-rule="evenodd" fill-opacity="1" stroke="#000000" stroke-opacity="1" stroke-width="3.072"/>
<circle clip-path="url(#clip633)" cx="1821.44" cy="958.85" r="14.4" fill="#009af9" fill-rule="evenodd" fill-opacity="1" stroke="#000000" stroke-opacity="1" stroke-width="3.072"/>
<circle clip-path="url(#clip633)" cx="1824.74" cy="869.659" r="14.4" fill="#009af9" fill-rule="evenodd" fill-opacity="1" stroke="#000000" stroke-opacity="1" stroke-width="3.072"/>
<circle clip-path="url(#clip633)" cx="1828.56" cy="554.332" r="14.4" fill="#009af9" fill-rule="evenodd" fill-opacity="1" stroke="#000000" stroke-opacity="1" stroke-width="3.072"/>
<circle clip-path="url(#clip633)" cx="1834.35" cy="520.579" r="14.4" fill="#009af9" fill-rule="evenodd" fill-opacity="1" stroke="#000000" stroke-opacity="1" stroke-width="3.072"/>
<circle clip-path="url(#clip633)" cx="1851.37" cy="665.623" r="14.4" fill="#009af9" fill-rule="evenodd" fill-opacity="1" stroke="#000000" stroke-opacity="1" stroke-width="3.072"/>
<circle clip-path="url(#clip633)" cx="1858.53" cy="715.316" r="14.4" fill="#009af9" fill-rule="evenodd" fill-opacity="1" stroke="#000000" stroke-opacity="1" stroke-width="3.072"/>
<circle clip-path="url(#clip633)" cx="1861.35" cy="615.811" r="14.4" fill="#009af9" fill-rule="evenodd" fill-opacity="1" stroke="#000000" stroke-opacity="1" stroke-width="3.072"/>
<circle clip-path="url(#clip633)" cx="1872.23" cy="1015.26" r="14.4" fill="#009af9" fill-rule="evenodd" fill-opacity="1" stroke="#000000" stroke-opacity="1" stroke-width="3.072"/>
<circle clip-path="url(#clip633)" cx="1882.07" cy="677.91" r="14.4" fill="#009af9" fill-rule="evenodd" fill-opacity="1" stroke="#000000" stroke-opacity="1" stroke-width="3.072"/>
<circle clip-path="url(#clip633)" cx="1883.76" cy="594.897" r="14.4" fill="#009af9" fill-rule="evenodd" fill-opacity="1" stroke="#000000" stroke-opacity="1" stroke-width="3.072"/>
<circle clip-path="url(#clip633)" cx="1888.19" cy="628.984" r="14.4" fill="#009af9" fill-rule="evenodd" fill-opacity="1" stroke="#000000" stroke-opacity="1" stroke-width="3.072"/>
<circle clip-path="url(#clip633)" cx="1891.16" cy="902.873" r="14.4" fill="#009af9" fill-rule="evenodd" fill-opacity="1" stroke="#000000" stroke-opacity="1" stroke-width="3.072"/>
<circle clip-path="url(#clip633)" cx="1918.08" cy="899.313" r="14.4" fill="#009af9" fill-rule="evenodd" fill-opacity="1" stroke="#000000" stroke-opacity="1" stroke-width="3.072"/>
<circle clip-path="url(#clip633)" cx="1929.71" cy="1098.85" r="14.4" fill="#009af9" fill-rule="evenodd" fill-opacity="1" stroke="#000000" stroke-opacity="1" stroke-width="3.072"/>
<circle clip-path="url(#clip633)" cx="1962.87" cy="883.837" r="14.4" fill="#009af9" fill-rule="evenodd" fill-opacity="1" stroke="#000000" stroke-opacity="1" stroke-width="3.072"/>
<circle clip-path="url(#clip633)" cx="1972.01" cy="1215.41" r="14.4" fill="#009af9" fill-rule="evenodd" fill-opacity="1" stroke="#000000" stroke-opacity="1" stroke-width="3.072"/>
<circle clip-path="url(#clip633)" cx="1975.77" cy="114.612" r="14.4" fill="#009af9" fill-rule="evenodd" fill-opacity="1" stroke="#000000" stroke-opacity="1" stroke-width="3.072"/>
<circle clip-path="url(#clip633)" cx="1997.22" cy="871.938" r="14.4" fill="#009af9" fill-rule="evenodd" fill-opacity="1" stroke="#000000" stroke-opacity="1" stroke-width="3.072"/>
<circle clip-path="url(#clip633)" cx="2000.65" cy="584.02" r="14.4" fill="#009af9" fill-rule="evenodd" fill-opacity="1" stroke="#000000" stroke-opacity="1" stroke-width="3.072"/>
<circle clip-path="url(#clip633)" cx="2037.61" cy="737.8" r="14.4" fill="#009af9" fill-rule="evenodd" fill-opacity="1" stroke="#000000" stroke-opacity="1" stroke-width="3.072"/>
<circle clip-path="url(#clip633)" cx="2056.39" cy="1045.52" r="14.4" fill="#009af9" fill-rule="evenodd" fill-opacity="1" stroke="#000000" stroke-opacity="1" stroke-width="3.072"/>
<circle clip-path="url(#clip633)" cx="2165.84" cy="86.1831" r="14.4" fill="#009af9" fill-rule="evenodd" fill-opacity="1" stroke="#000000" stroke-opacity="1" stroke-width="3.072"/>
<circle clip-path="url(#clip633)" cx="2176.62" cy="1082.82" r="14.4" fill="#009af9" fill-rule="evenodd" fill-opacity="1" stroke="#000000" stroke-opacity="1" stroke-width="3.072"/>
<circle clip-path="url(#clip633)" cx="2180.31" cy="657.547" r="14.4" fill="#009af9" fill-rule="evenodd" fill-opacity="1" stroke="#000000" stroke-opacity="1" stroke-width="3.072"/>
<circle clip-path="url(#clip633)" cx="2230.93" cy="619.89" r="14.4" fill="#009af9" fill-rule="evenodd" fill-opacity="1" stroke="#000000" stroke-opacity="1" stroke-width="3.072"/>
<polyline clip-path="url(#clip633)" style="stroke:#0000ff; stroke-linecap:round; stroke-linejoin:round; stroke-width:20; stroke-opacity:1; fill:none" points="
  1370.15,754.082 1371.62,754.399 1385.16,757.328 1393.29,759.089 1400.17,760.578 1407.65,762.195 1414.54,763.685 1421.92,765.284 1430.48,767.135 1438.09,768.781 
  1444.76,770.224 1452.03,771.797 1459.34,773.38 1467.43,775.129 1475.13,776.794 1483.13,778.525 1489.86,779.982 1498.08,781.762 1505.62,783.391 1512.57,784.896 
  1519.62,786.421 1527.52,788.13 1534.68,789.678 1542.87,791.451 1550.46,793.093 1557.94,794.711 1565.2,796.282 1572.64,797.893 1580.8,799.658 1592.65,802.221 
  1595.08,802.747 
  "/>
<polyline clip-path="url(#clip633)" style="stroke:#0000ff; stroke-linecap:round; stroke-linejoin:round; stroke-width:20; stroke-opacity:1; fill:none" points="
  1515.64,723.451 1516.66,724.644 1526.07,735.671 1531.73,742.297 1536.51,747.9 1541.71,753.986 1546.5,759.597 1551.63,765.612 1557.58,772.582 1562.87,778.776 
  1567.51,784.207 1572.57,790.128 1577.65,796.085 1583.27,802.671 1588.62,808.937 1594.19,815.453 1598.87,820.938 1604.59,827.634 1609.82,833.768 1614.66,839.433 
  1619.56,845.172 1625.05,851.604 1630.03,857.432 1635.72,864.105 1641,870.283 1646.2,876.374 1651.25,882.288 1656.42,888.351 1662.1,894.993 1670.33,904.642 
  1672.02,906.622 
  "/>
<polyline clip-path="url(#clip633)" style="stroke:#0000ff; stroke-linecap:round; stroke-linejoin:round; stroke-width:20; stroke-opacity:1; fill:none" points="
  1606.22,780.252 1606.96,779.199 1613.81,769.465 1617.93,763.616 1621.41,758.67 1625.19,753.297 1628.67,748.344 1632.41,743.034 1636.74,736.882 1640.58,731.415 
  1643.96,726.62 1647.63,721.393 1651.33,716.135 1655.42,710.321 1659.32,704.789 1663.36,699.038 1666.77,694.196 1670.93,688.285 1674.74,682.87 1678.26,677.869 
  1681.82,672.803 1685.81,667.126 1689.43,661.981 1693.58,656.091 1697.42,650.637 1701.2,645.26 1704.87,640.039 1708.64,634.687 1712.76,628.824 1718.76,620.306 
  1719.99,618.559 
  "/>
<polyline clip-path="url(#clip633)" style="stroke:#0000ff; stroke-linecap:round; stroke-linejoin:round; stroke-width:20; stroke-opacity:1; fill:none" points="
  1689.86,415.562 1690.64,418.846 1697.82,449.205 1702.14,467.449 1705.78,482.875 1709.75,499.632 1713.4,515.08 1717.32,531.642 1721.86,550.83 1725.89,567.883 
  1729.43,582.837 1733.28,599.14 1737.16,615.54 1741.45,633.673 1745.53,650.926 1749.78,668.865 1753.35,683.965 1757.71,702.402 1761.7,719.29 1765.39,734.888 
  1769.13,750.689 1773.32,768.397 1777.11,784.443 1781.46,802.814 1785.48,819.825 1789.45,836.595 1793.3,852.878 1797.25,869.57 1801.57,887.858 1807.86,914.424 
  1809.15,919.874 
  "/>
<polyline clip-path="url(#clip633)" style="stroke:#0000ff; stroke-linecap:round; stroke-linejoin:round; stroke-width:20; stroke-opacity:1; fill:none" points="
  1741.68,610.768 1742.39,612.212 1748.99,625.57 1752.96,633.598 1756.32,640.385 1759.96,647.758 1763.32,654.555 1766.93,661.842 1771.1,670.285 1774.81,677.788 
  1778.06,684.367 1781.61,691.541 1785.18,698.757 1789.12,706.735 1792.87,714.326 1796.77,722.219 1800.06,728.864 1804.07,736.975 1807.74,744.406 1811.14,751.269 
  1814.57,758.222 1818.42,766.013 1821.92,773.073 1825.91,781.156 1829.61,788.641 1833.26,796.02 1836.8,803.184 1840.43,810.529 1844.41,818.575 1850.19,830.264 
  1851.37,832.662 
  "/>
<polyline clip-path="url(#clip633)" style="stroke:#0000ff; stroke-linecap:round; stroke-linejoin:round; stroke-width:20; stroke-opacity:1; fill:none" points="
  1821.44,744.478 1821.85,744.136 1825.6,740.97 1827.85,739.067 1829.76,737.459 1831.83,735.711 1833.74,734.1 1835.79,732.373 1838.16,730.372 1840.26,728.593 
  1842.11,727.034 1844.13,725.334 1846.15,723.623 1848.39,721.732 1850.53,719.933 1852.74,718.062 1854.61,716.488 1856.89,714.565 1858.97,712.804 1860.9,711.177 
  1862.85,709.529 1865.04,707.683 1867.02,706.009 1869.29,704.093 1871.4,702.319 1873.47,700.57 1875.48,698.872 1877.54,697.132 1879.8,695.225 1883.08,692.454 
  1883.76,691.886 
  "/>
<polyline clip-path="url(#clip633)" style="stroke:#0000ff; stroke-linecap:round; stroke-linejoin:round; stroke-width:20; stroke-opacity:1; fill:none" points="
  1858.53,700.647 1859.21,702.57 1865.49,720.352 1869.27,731.038 1872.46,740.073 1875.93,749.888 1879.12,758.936 1882.55,768.637 1886.52,779.876 1890.05,789.865 
  1893.14,798.623 1896.52,808.173 1899.91,817.779 1903.66,828.399 1907.23,838.505 1910.94,849.012 1914.07,857.857 1917.88,868.655 1921.37,878.548 1924.6,887.684 
  1927.87,896.938 1931.53,907.31 1934.85,916.709 1938.65,927.47 1942.17,937.433 1945.64,947.256 1949.01,956.793 1952.47,966.57 1956.25,977.282 1961.75,992.842 
  1962.87,996.034 
  "/>
<polyline clip-path="url(#clip633)" style="stroke:#0000ff; stroke-linecap:round; stroke-linejoin:round; stroke-width:20; stroke-opacity:1; fill:none" points="
  1888.19,871.5 1889.16,870.406 1898.16,860.292 1903.56,854.214 1908.13,849.076 1913.1,843.494 1917.67,838.347 1922.58,832.83 1928.27,826.438 1933.32,820.757 
  1937.75,815.776 1942.58,810.345 1947.44,804.881 1952.81,798.841 1957.92,793.093 1963.24,787.117 1967.71,782.087 1973.17,775.945 1978.18,770.319 1982.8,765.123 
  1987.48,759.859 1992.73,753.96 1997.48,748.615 2002.93,742.495 2007.97,736.828 2012.93,731.241 2017.76,725.817 2022.7,720.257 2028.12,714.165 2035.99,705.315 
  2037.61,703.499 
  "/>
<polyline clip-path="url(#clip633)" style="stroke:#0000ff; stroke-linecap:round; stroke-linejoin:round; stroke-width:20; stroke-opacity:1; fill:none" points="
  1972.01,752.403 1973.69,751.604 1989.28,744.222 1998.65,739.786 2006.57,736.036 2015.17,731.961 2023.1,728.205 2031.6,724.178 2041.46,719.512 2050.21,715.366 
  2057.89,711.73 2066.26,707.766 2074.68,703.778 2083.99,699.369 2092.85,695.174 2102.06,690.812 2109.81,687.141 2119.28,682.658 2127.95,678.551 2135.96,674.759 
  2144.07,670.917 2153.16,666.611 2161.4,662.71 2170.83,658.243 2179.56,654.107 2188.18,650.029 2196.54,646.07 2205.11,642.011 2214.49,637.564 2228.13,631.105 
  2230.93,629.78 
  "/>
<polyline clip-path="url(#clip633)" style="stroke:#ff0000; stroke-linecap:round; stroke-linejoin:round; stroke-width:20; stroke-opacity:1; fill:none" points="
  1370.15,781.969 1378.85,781.25 1387.54,780.663 1396.24,780.189 1404.93,779.808 1413.63,779.5 1422.32,779.246 1431.01,779.027 1439.71,778.823 1448.4,778.614 
  1457.1,778.19 1465.79,777.695 1474.49,777.127 1483.18,776.472 1491.88,775.405 1500.57,774.157 1509.27,772.821 1517.96,771.277 1526.66,769.38 1535.35,767.447 
  1544.05,765.458 1552.74,763.3 1561.44,761 1570.13,758.694 1578.83,756.359 1587.52,753.511 1596.22,750.464 1604.91,746.431 1613.6,740.706 1622.3,734.177 
  1630.99,727.088 1639.69,719.686 1648.38,711.207 1657.08,701.662 1665.77,691.857 1674.47,684.264 1683.16,681.428 1691.86,679.109 1700.55,675.65 1709.25,672.931 
  1717.94,670.985 1726.64,671.46 1735.33,672.216 1744.03,672.986 1752.72,673.981 1761.42,676.085 1770.11,679.184 1778.8,683.162 1787.5,690.529 1796.19,702.377 
  1804.89,714.482 1813.58,727.951 1822.28,741.635 1830.97,754.111 1839.67,763.652 1848.36,771.515 1857.06,778.457 1865.75,783.6 1874.45,788.488 1883.14,792.726 
  1891.84,796.09 1900.53,795.24 1909.23,793.788 1917.92,792.042 1926.62,793.139 1935.31,793.946 1944.01,794.424 1952.7,794.592 1961.39,794.471 1970.09,795.858 
  1978.78,795.757 1987.48,794.38 1996.17,792.238 2004.87,788.972 2013.56,785.239 2022.26,781.073 2030.95,776.474 2039.65,771.561 2048.34,766.359 2057.04,760.905 
  2065.73,755.293 2074.43,749.331 2083.12,743.027 2091.82,736.39 2100.51,729.427 2109.21,722.146 2117.9,714.557 2126.6,706.667 2135.29,698.485 2143.98,690.019 
  2152.68,681.276 2161.37,672.267 2170.07,662.997 2178.76,653.01 2187.46,642.642 2196.15,631.976 2204.85,621.018 2213.54,609.774 2222.24,598.251 2230.93,586.455 
  
  "/>
</svg>
