<?xml version="1.0" encoding="utf-8"?>
<svg xmlns="http://www.w3.org/2000/svg" xmlns:xlink="http://www.w3.org/1999/xlink" width="672" height="480" viewBox="0 0 2688 1920">
<defs>
  <clipPath id="clip030">
    <rect x="0" y="0" width="2688" height="1920"/>
  </clipPath>
</defs>
<path clip-path="url(#clip030)" d="
M0 1920 L2688 1920 L2688 0 L0 0  Z
  " fill="#ffffff" fill-rule="evenodd" fill-opacity="1"/>
<defs>
  <clipPath id="clip031">
    <rect x="537" y="0" width="1883" height="1883"/>
  </clipPath>
</defs>
<path clip-path="url(#clip030)" d="
M115.057 1800.78 L1296.76 1800.78 L1296.76 127.792 L115.057 127.792  Z
  " fill="#ffffff" fill-rule="evenodd" fill-opacity="1"/>
<defs>
  <clipPath id="clip032">
    <rect x="115" y="127" width="1183" height="1674"/>
  </clipPath>
</defs>
<polyline clip-path="url(#clip032)" style="stroke:#000000; stroke-linecap:round; stroke-linejoin:round; stroke-width:2; stroke-opacity:0.1; fill:none" points="
  148.501,1800.78 148.501,127.792 
  "/>
<polyline clip-path="url(#clip032)" style="stroke:#000000; stroke-linecap:round; stroke-linejoin:round; stroke-width:2; stroke-opacity:0.1; fill:none" points="
  427.204,1800.78 427.204,127.792 
  "/>
<polyline clip-path="url(#clip032)" style="stroke:#000000; stroke-linecap:round; stroke-linejoin:round; stroke-width:2; stroke-opacity:0.1; fill:none" points="
  705.907,1800.78 705.907,127.792 
  "/>
<polyline clip-path="url(#clip032)" style="stroke:#000000; stroke-linecap:round; stroke-linejoin:round; stroke-width:2; stroke-opacity:0.1; fill:none" points="
  984.609,1800.78 984.609,127.792 
  "/>
<polyline clip-path="url(#clip032)" style="stroke:#000000; stroke-linecap:round; stroke-linejoin:round; stroke-width:2; stroke-opacity:0.1; fill:none" points="
  1263.31,1800.78 1263.31,127.792 
  "/>
<polyline clip-path="url(#clip030)" style="stroke:#000000; stroke-linecap:round; stroke-linejoin:round; stroke-width:4; stroke-opacity:1; fill:none" points="
  115.057,1800.78 1296.76,1800.78 
  "/>
<polyline clip-path="url(#clip030)" style="stroke:#000000; stroke-linecap:round; stroke-linejoin:round; stroke-width:4; stroke-opacity:1; fill:none" points="
  148.501,1800.78 148.501,1781.88 
  "/>
<polyline clip-path="url(#clip030)" style="stroke:#000000; stroke-linecap:round; stroke-linejoin:round; stroke-width:4; stroke-opacity:1; fill:none" points="
  427.204,1800.78 427.204,1781.88 
  "/>
<polyline clip-path="url(#clip030)" style="stroke:#000000; stroke-linecap:round; stroke-linejoin:round; stroke-width:4; stroke-opacity:1; fill:none" points="
  705.907,1800.78 705.907,1781.88 
  "/>
<polyline clip-path="url(#clip030)" style="stroke:#000000; stroke-linecap:round; stroke-linejoin:round; stroke-width:4; stroke-opacity:1; fill:none" points="
  984.609,1800.78 984.609,1781.88 
  "/>
<polyline clip-path="url(#clip030)" style="stroke:#000000; stroke-linecap:round; stroke-linejoin:round; stroke-width:4; stroke-opacity:1; fill:none" points="
  1263.31,1800.78 1263.31,1781.88 
  "/>
<path clip-path="url(#clip030)" d="M138.883 1861.55 L146.522 1861.55 L146.522 1835.18 L138.212 1836.85 L138.212 1832.59 L146.476 1830.92 L151.152 1830.92 L151.152 1861.55 L158.791 1861.55 L158.791 1865.48 L138.883 1865.48 L138.883 1861.55 Z" fill="#000000" fill-rule="evenodd" fill-opacity="1" /><path clip-path="url(#clip030)" d="M421.857 1861.55 L438.176 1861.55 L438.176 1865.48 L416.232 1865.48 L416.232 1861.55 Q418.894 1858.79 423.477 1854.16 Q428.084 1849.51 429.264 1848.17 Q431.51 1845.65 432.389 1843.91 Q433.292 1842.15 433.292 1840.46 Q433.292 1837.71 431.348 1835.97 Q429.426 1834.23 426.324 1834.23 Q424.125 1834.23 421.672 1835 Q419.241 1835.76 416.463 1837.31 L416.463 1832.59 Q419.287 1831.46 421.741 1830.88 Q424.195 1830.3 426.232 1830.3 Q431.602 1830.3 434.797 1832.98 Q437.991 1835.67 437.991 1840.16 Q437.991 1842.29 437.181 1844.21 Q436.394 1846.11 434.287 1848.7 Q433.709 1849.37 430.607 1852.59 Q427.505 1855.78 421.857 1861.55 Z" fill="#000000" fill-rule="evenodd" fill-opacity="1" /><path clip-path="url(#clip030)" d="M710.154 1846.85 Q713.511 1847.57 715.386 1849.84 Q717.284 1852.1 717.284 1855.44 Q717.284 1860.55 713.765 1863.35 Q710.247 1866.15 703.765 1866.15 Q701.589 1866.15 699.275 1865.71 Q696.983 1865.3 694.529 1864.44 L694.529 1859.93 Q696.474 1861.06 698.789 1861.64 Q701.103 1862.22 703.626 1862.22 Q708.025 1862.22 710.316 1860.48 Q712.631 1858.75 712.631 1855.44 Q712.631 1852.38 710.478 1850.67 Q708.349 1848.93 704.529 1848.93 L700.501 1848.93 L700.501 1845.09 L704.714 1845.09 Q708.163 1845.09 709.992 1843.72 Q711.821 1842.34 711.821 1839.74 Q711.821 1837.08 709.923 1835.67 Q708.048 1834.23 704.529 1834.23 Q702.608 1834.23 700.409 1834.65 Q698.21 1835.07 695.571 1835.95 L695.571 1831.78 Q698.233 1831.04 700.548 1830.67 Q702.886 1830.3 704.946 1830.3 Q710.27 1830.3 713.372 1832.73 Q716.474 1835.14 716.474 1839.26 Q716.474 1842.13 714.83 1844.12 Q713.187 1846.09 710.154 1846.85 Z" fill="#000000" fill-rule="evenodd" fill-opacity="1" /><path clip-path="url(#clip030)" d="M987.618 1835 L975.813 1853.45 L987.618 1853.45 L987.618 1835 M986.391 1830.92 L992.271 1830.92 L992.271 1853.45 L997.202 1853.45 L997.202 1857.34 L992.271 1857.34 L992.271 1865.48 L987.618 1865.48 L987.618 1857.34 L972.017 1857.34 L972.017 1852.82 L986.391 1830.92 Z" fill="#000000" fill-rule="evenodd" fill-opacity="1" /><path clip-path="url(#clip030)" d="M1253.59 1830.92 L1271.95 1830.92 L1271.95 1834.86 L1257.87 1834.86 L1257.87 1843.33 Q1258.89 1842.98 1259.91 1842.82 Q1260.93 1842.64 1261.95 1842.64 Q1267.73 1842.64 1271.11 1845.81 Q1274.49 1848.98 1274.49 1854.4 Q1274.49 1859.97 1271.02 1863.08 Q1267.55 1866.15 1261.23 1866.15 Q1259.05 1866.15 1256.78 1865.78 Q1254.54 1865.41 1252.13 1864.67 L1252.13 1859.97 Q1254.21 1861.11 1256.44 1861.66 Q1258.66 1862.22 1261.14 1862.22 Q1265.14 1862.22 1267.48 1860.11 Q1269.82 1858.01 1269.82 1854.4 Q1269.82 1850.78 1267.48 1848.68 Q1265.14 1846.57 1261.14 1846.57 Q1259.26 1846.57 1257.39 1846.99 Q1255.53 1847.4 1253.59 1848.28 L1253.59 1830.92 Z" fill="#000000" fill-rule="evenodd" fill-opacity="1" /><polyline clip-path="url(#clip032)" style="stroke:#000000; stroke-linecap:round; stroke-linejoin:round; stroke-width:2; stroke-opacity:0.1; fill:none" points="
  115.057,1753.43 1296.76,1753.43 
  "/>
<polyline clip-path="url(#clip032)" style="stroke:#000000; stroke-linecap:round; stroke-linejoin:round; stroke-width:2; stroke-opacity:0.1; fill:none" points="
  115.057,1358.86 1296.76,1358.86 
  "/>
<polyline clip-path="url(#clip032)" style="stroke:#000000; stroke-linecap:round; stroke-linejoin:round; stroke-width:2; stroke-opacity:0.1; fill:none" points="
  115.057,964.286 1296.76,964.286 
  "/>
<polyline clip-path="url(#clip032)" style="stroke:#000000; stroke-linecap:round; stroke-linejoin:round; stroke-width:2; stroke-opacity:0.1; fill:none" points="
  115.057,569.713 1296.76,569.713 
  "/>
<polyline clip-path="url(#clip032)" style="stroke:#000000; stroke-linecap:round; stroke-linejoin:round; stroke-width:2; stroke-opacity:0.1; fill:none" points="
  115.057,175.141 1296.76,175.141 
  "/>
<polyline clip-path="url(#clip030)" style="stroke:#000000; stroke-linecap:round; stroke-linejoin:round; stroke-width:4; stroke-opacity:1; fill:none" points="
  115.057,1800.78 115.057,127.792 
  "/>
<polyline clip-path="url(#clip030)" style="stroke:#000000; stroke-linecap:round; stroke-linejoin:round; stroke-width:4; stroke-opacity:1; fill:none" points="
  115.057,1753.43 133.955,1753.43 
  "/>
<polyline clip-path="url(#clip030)" style="stroke:#000000; stroke-linecap:round; stroke-linejoin:round; stroke-width:4; stroke-opacity:1; fill:none" points="
  115.057,1358.86 133.955,1358.86 
  "/>
<polyline clip-path="url(#clip030)" style="stroke:#000000; stroke-linecap:round; stroke-linejoin:round; stroke-width:4; stroke-opacity:1; fill:none" points="
  115.057,964.286 133.955,964.286 
  "/>
<polyline clip-path="url(#clip030)" style="stroke:#000000; stroke-linecap:round; stroke-linejoin:round; stroke-width:4; stroke-opacity:1; fill:none" points="
  115.057,569.713 133.955,569.713 
  "/>
<polyline clip-path="url(#clip030)" style="stroke:#000000; stroke-linecap:round; stroke-linejoin:round; stroke-width:4; stroke-opacity:1; fill:none" points="
  115.057,175.141 133.955,175.141 
  "/>
<path clip-path="url(#clip030)" d="M54.8299 1766.78 L62.4687 1766.78 L62.4687 1740.41 L54.1586 1742.08 L54.1586 1737.82 L62.4224 1736.15 L67.0983 1736.15 L67.0983 1766.78 L74.7372 1766.78 L74.7372 1770.71 L54.8299 1770.71 L54.8299 1766.78 Z" fill="#000000" fill-rule="evenodd" fill-opacity="1" /><path clip-path="url(#clip030)" d="M58.4178 1372.2 L74.7372 1372.2 L74.7372 1376.14 L52.7928 1376.14 L52.7928 1372.2 Q55.4549 1369.45 60.0382 1364.82 Q64.6446 1360.17 65.8252 1358.82 Q68.0705 1356.3 68.9502 1354.56 Q69.8529 1352.8 69.8529 1351.12 Q69.8529 1348.36 67.9085 1346.62 Q65.9872 1344.89 62.8854 1344.89 Q60.6863 1344.89 58.2326 1345.65 Q55.8021 1346.42 53.0243 1347.97 L53.0243 1343.24 Q55.8484 1342.11 58.3021 1341.53 Q60.7558 1340.95 62.7928 1340.95 Q68.1631 1340.95 71.3576 1343.64 Q74.552 1346.32 74.552 1350.81 Q74.552 1352.94 73.7418 1354.87 Q72.9548 1356.76 70.8483 1359.36 Q70.2696 1360.03 67.1678 1363.24 Q64.0659 1366.44 58.4178 1372.2 Z" fill="#000000" fill-rule="evenodd" fill-opacity="1" /><path clip-path="url(#clip030)" d="M67.6076 962.932 Q70.964 963.649 72.839 965.918 Q74.7372 968.186 74.7372 971.519 Q74.7372 976.635 71.2187 979.436 Q67.7002 982.237 61.2187 982.237 Q59.0428 982.237 56.728 981.797 Q54.4364 981.381 51.9827 980.524 L51.9827 976.01 Q53.9271 977.144 56.2419 977.723 Q58.5567 978.302 61.0798 978.302 Q65.478 978.302 67.7696 976.566 Q70.0844 974.83 70.0844 971.519 Q70.0844 968.464 67.9317 966.751 Q65.802 965.015 61.9826 965.015 L57.9549 965.015 L57.9549 961.172 L62.1678 961.172 Q65.6169 961.172 67.4455 959.807 Q69.2742 958.418 69.2742 955.825 Q69.2742 953.163 67.3761 951.751 Q65.5011 950.316 61.9826 950.316 Q60.0613 950.316 57.8623 950.733 Q55.6632 951.149 53.0243 952.029 L53.0243 947.862 Q55.6864 947.121 58.0012 946.751 Q60.3391 946.381 62.3993 946.381 Q67.7233 946.381 70.8252 948.811 Q73.927 951.219 73.927 955.339 Q73.927 958.209 72.2835 960.2 Q70.64 962.168 67.6076 962.932 Z" fill="#000000" fill-rule="evenodd" fill-opacity="1" /><path clip-path="url(#clip030)" d="M65.1539 556.507 L53.3484 574.956 L65.1539 574.956 L65.1539 556.507 M63.927 552.433 L69.8066 552.433 L69.8066 574.956 L74.7372 574.956 L74.7372 578.845 L69.8066 578.845 L69.8066 586.993 L65.1539 586.993 L65.1539 578.845 L49.5521 578.845 L49.5521 574.331 L63.927 552.433 Z" fill="#000000" fill-rule="evenodd" fill-opacity="1" /><path clip-path="url(#clip030)" d="M53.8345 157.861 L72.1909 157.861 L72.1909 161.796 L58.1169 161.796 L58.1169 170.268 Q59.1354 169.921 60.1539 169.759 Q61.1724 169.574 62.1909 169.574 Q67.978 169.574 71.3576 172.745 Q74.7372 175.916 74.7372 181.333 Q74.7372 186.912 71.265 190.013 Q67.7928 193.092 61.4734 193.092 Q59.2974 193.092 57.0289 192.722 Q54.7836 192.351 52.3762 191.611 L52.3762 186.912 Q54.4595 188.046 56.6817 188.601 Q58.9039 189.157 61.3808 189.157 Q65.3854 189.157 67.7233 187.05 Q70.0613 184.944 70.0613 181.333 Q70.0613 177.722 67.7233 175.615 Q65.3854 173.509 61.3808 173.509 Q59.5058 173.509 57.6308 173.926 Q55.7789 174.342 53.8345 175.222 L53.8345 157.861 Z" fill="#000000" fill-rule="evenodd" fill-opacity="1" /><path clip-path="url(#clip030)" d="M478.185 28.5427 L478.185 35.5912 Q475.025 33.9709 471.622 33.1607 Q468.22 32.3505 464.574 32.3505 Q459.024 32.3505 456.229 34.0519 Q453.474 35.7533 453.474 39.156 Q453.474 41.7486 455.459 43.2475 Q457.444 44.7058 463.44 46.0426 L465.992 46.6097 Q473.932 48.3111 477.253 51.4303 Q480.616 54.509 480.616 60.0587 Q480.616 66.3781 475.592 70.0644 Q470.61 73.7508 461.86 73.7508 Q458.214 73.7508 454.244 73.0216 Q450.315 72.3329 445.94 70.9151 L445.94 63.2184 Q450.072 65.3654 454.082 66.4591 Q458.092 67.5124 462.022 67.5124 Q467.288 67.5124 470.124 65.73 Q472.959 63.9071 472.959 60.6258 Q472.959 57.5877 470.893 55.9673 Q468.868 54.3469 461.941 52.8481 L459.348 52.2405 Q452.421 50.7821 449.343 47.7845 Q446.264 44.7463 446.264 39.4801 Q446.264 33.0797 450.801 29.5959 Q455.338 26.1121 463.683 26.1121 Q467.815 26.1121 471.46 26.7198 Q475.106 27.3274 478.185 28.5427 Z" fill="#000000" fill-rule="evenodd" fill-opacity="1" /><path clip-path="url(#clip030)" d="M491.715 54.671 L491.715 27.2059 L499.169 27.2059 L499.169 54.3874 Q499.169 60.8284 501.68 64.0691 Q504.192 67.2693 509.215 67.2693 Q515.251 67.2693 518.735 63.421 Q522.259 59.5726 522.259 52.9291 L522.259 27.2059 L529.712 27.2059 L529.712 72.576 L522.259 72.576 L522.259 65.6084 Q519.545 69.7404 515.939 71.7658 Q512.375 73.7508 507.635 73.7508 Q499.817 73.7508 495.766 68.8897 Q491.715 64.0286 491.715 54.671 M510.471 26.1121 L510.471 26.1121 Z" fill="#000000" fill-rule="evenodd" fill-opacity="1" /><path clip-path="url(#clip030)" d="M580.389 35.9153 Q583.184 30.8922 587.073 28.5022 Q590.962 26.1121 596.228 26.1121 Q603.317 26.1121 607.166 31.0947 Q611.014 36.0368 611.014 45.1919 L611.014 72.576 L603.52 72.576 L603.52 45.4349 Q603.52 38.913 601.211 35.7533 Q598.902 32.5936 594.162 32.5936 Q588.37 32.5936 585.007 36.4419 Q581.645 40.2903 581.645 46.9338 L581.645 72.576 L574.151 72.576 L574.151 45.4349 Q574.151 38.8725 571.842 35.7533 Q569.533 32.5936 564.712 32.5936 Q559 32.5936 555.638 36.4824 Q552.276 40.3308 552.276 46.9338 L552.276 72.576 L544.782 72.576 L544.782 27.2059 L552.276 27.2059 L552.276 34.2544 Q554.828 30.082 558.393 28.0971 Q561.958 26.1121 566.859 26.1121 Q571.801 26.1121 575.245 28.6237 Q578.728 31.1352 580.389 35.9153 Z" fill="#000000" fill-rule="evenodd" fill-opacity="1" /><path clip-path="url(#clip030)" d="M691.06 48.0275 L691.06 51.6733 L656.789 51.6733 Q657.275 59.3701 661.407 63.421 Q665.58 67.4314 672.993 67.4314 Q677.287 67.4314 681.297 66.3781 Q685.348 65.3249 689.318 63.2184 L689.318 70.267 Q685.308 71.9684 681.095 72.8596 Q676.882 73.7508 672.547 73.7508 Q661.691 73.7508 655.331 67.4314 Q649.012 61.1119 649.012 50.3365 Q649.012 39.1965 655.007 32.6746 Q661.043 26.1121 671.251 26.1121 Q680.406 26.1121 685.713 32.0264 Q691.06 37.9003 691.06 48.0275 M683.606 45.84 Q683.525 39.7232 680.163 36.0774 Q676.841 32.4315 671.332 32.4315 Q665.094 32.4315 661.326 35.9558 Q657.6 39.4801 657.032 45.8805 L683.606 45.84 Z" fill="#000000" fill-rule="evenodd" fill-opacity="1" /><path clip-path="url(#clip030)" d="M700.418 47.1768 L705.117 47.1768 L705.117 72.576 L700.418 72.576 L700.418 47.1768 M700.418 37.2926 L705.117 37.2926 L705.117 42.5588 L700.418 42.5588 L700.418 37.2926 Z" fill="#000000" fill-rule="evenodd" fill-opacity="1" /><path clip-path="url(#clip030)" d="M721.158 40.8979 L738.334 40.8979 L738.334 45.516 L714.11 45.516 L714.11 41.06 Q715.487 39.8042 718.039 37.5357 Q731.974 25.1804 731.974 21.3726 Q731.974 18.699 729.868 17.0786 Q727.761 15.4177 724.318 15.4177 Q722.211 15.4177 719.74 16.1469 Q717.269 16.8356 714.353 18.2534 L714.353 13.2708 Q717.472 12.1365 720.145 11.5694 Q722.86 11.0023 725.169 11.0023 Q731.042 11.0023 734.567 13.6759 Q738.091 16.3494 738.091 20.7244 Q738.091 26.3552 724.682 37.8598 Q722.414 39.8042 721.158 40.8979 Z" fill="#000000" fill-rule="evenodd" fill-opacity="1" /><path clip-path="url(#clip030)" d="M778.722 34.9026 L830.654 34.9026 L830.654 41.7081 L778.722 41.7081 L778.722 34.9026 M778.722 51.4303 L830.654 51.4303 L830.654 58.3168 L778.722 58.3168 L778.722 51.4303 Z" fill="#000000" fill-rule="evenodd" fill-opacity="1" /><path clip-path="url(#clip030)" d="M876.105 65.6895 L889.473 65.6895 L889.473 19.5497 L874.931 22.4663 L874.931 15.0127 L889.392 12.096 L897.575 12.096 L897.575 65.6895 L910.943 65.6895 L910.943 72.576 L876.105 72.576 L876.105 65.6895 Z" fill="#000000" fill-rule="evenodd" fill-opacity="1" /><path clip-path="url(#clip030)" d="M944.971 17.4837 Q938.651 17.4837 935.451 23.7221 Q932.291 29.92 932.291 42.3968 Q932.291 54.833 935.451 61.0714 Q938.651 67.2693 944.971 67.2693 Q951.331 67.2693 954.49 61.0714 Q957.69 54.833 957.69 42.3968 Q957.69 29.92 954.49 23.7221 Q951.331 17.4837 944.971 17.4837 M944.971 11.0023 Q955.138 11.0023 960.486 19.0636 Q965.873 27.0843 965.873 42.3968 Q965.873 57.6687 960.486 65.73 Q955.138 73.7508 944.971 73.7508 Q934.803 73.7508 929.415 65.73 Q924.068 57.6687 924.068 42.3968 Q924.068 27.0843 929.415 19.0636 Q934.803 11.0023 944.971 11.0023 Z" fill="#000000" fill-rule="evenodd" fill-opacity="1" /><circle clip-path="url(#clip032)" cx="148.501" cy="1358.86" r="14.4" fill="#009af9" fill-rule="evenodd" fill-opacity="1" stroke="#000000" stroke-opacity="1" stroke-width="3.84"/>
<circle clip-path="url(#clip032)" cx="427.204" cy="1753.43" r="14.4" fill="#009af9" fill-rule="evenodd" fill-opacity="1" stroke="#000000" stroke-opacity="1" stroke-width="3.84"/>
<circle clip-path="url(#clip032)" cx="705.907" cy="569.713" r="14.4" fill="#009af9" fill-rule="evenodd" fill-opacity="1" stroke="#000000" stroke-opacity="1" stroke-width="3.84"/>
<circle clip-path="url(#clip032)" cx="984.609" cy="964.286" r="14.4" fill="#009af9" fill-rule="evenodd" fill-opacity="1" stroke="#000000" stroke-opacity="1" stroke-width="3.84"/>
<circle clip-path="url(#clip032)" cx="1263.31" cy="175.141" r="14.4" fill="#009af9" fill-rule="evenodd" fill-opacity="1" stroke="#000000" stroke-opacity="1" stroke-width="3.84"/>
<polyline clip-path="url(#clip032)" style="stroke:#e26f46; stroke-linecap:round; stroke-linejoin:round; stroke-width:4; stroke-opacity:1; fill:none" points="
  -1066.64,964.286 2478.45,964.286 
  "/>
<polyline clip-path="url(#clip032)" style="stroke:#3da44d; stroke-linecap:round; stroke-linejoin:round; stroke-width:4; stroke-opacity:1; fill:none" stroke-dasharray="16, 10" points="
  148.501,964.286 148.501,1358.86 
  "/>
<polyline clip-path="url(#clip032)" style="stroke:#c271d2; stroke-linecap:round; stroke-linejoin:round; stroke-width:4; stroke-opacity:1; fill:none" stroke-dasharray="16, 10" points="
  427.204,964.286 427.204,1753.43 
  "/>
<polyline clip-path="url(#clip032)" style="stroke:#ac8d18; stroke-linecap:round; stroke-linejoin:round; stroke-width:4; stroke-opacity:1; fill:none" stroke-dasharray="16, 10" points="
  705.907,964.286 705.907,569.713 
  "/>
<polyline clip-path="url(#clip032)" style="stroke:#00a9ad; stroke-linecap:round; stroke-linejoin:round; stroke-width:4; stroke-opacity:1; fill:none" stroke-dasharray="16, 10" points="
  984.609,964.286 984.609,964.286 
  "/>
<polyline clip-path="url(#clip032)" style="stroke:#ed5d92; stroke-linecap:round; stroke-linejoin:round; stroke-width:4; stroke-opacity:1; fill:none" stroke-dasharray="16, 10" points="
  1263.31,964.286 1263.31,175.141 
  "/>
<path clip-path="url(#clip030)" d="
M1459.06 1800.78 L2640.76 1800.78 L2640.76 127.792 L1459.06 127.792  Z
  " fill="#ffffff" fill-rule="evenodd" fill-opacity="1"/>
<defs>
  <clipPath id="clip033">
    <rect x="1459" y="127" width="1183" height="1674"/>
  </clipPath>
</defs>
<polyline clip-path="url(#clip033)" style="stroke:#000000; stroke-linecap:round; stroke-linejoin:round; stroke-width:2; stroke-opacity:0.1; fill:none" points="
  1492.5,1800.78 1492.5,127.792 
  "/>
<polyline clip-path="url(#clip033)" style="stroke:#000000; stroke-linecap:round; stroke-linejoin:round; stroke-width:2; stroke-opacity:0.1; fill:none" points="
  1771.2,1800.78 1771.2,127.792 
  "/>
<polyline clip-path="url(#clip033)" style="stroke:#000000; stroke-linecap:round; stroke-linejoin:round; stroke-width:2; stroke-opacity:0.1; fill:none" points="
  2049.91,1800.78 2049.91,127.792 
  "/>
<polyline clip-path="url(#clip033)" style="stroke:#000000; stroke-linecap:round; stroke-linejoin:round; stroke-width:2; stroke-opacity:0.1; fill:none" points="
  2328.61,1800.78 2328.61,127.792 
  "/>
<polyline clip-path="url(#clip033)" style="stroke:#000000; stroke-linecap:round; stroke-linejoin:round; stroke-width:2; stroke-opacity:0.1; fill:none" points="
  2607.31,1800.78 2607.31,127.792 
  "/>
<polyline clip-path="url(#clip030)" style="stroke:#000000; stroke-linecap:round; stroke-linejoin:round; stroke-width:4; stroke-opacity:1; fill:none" points="
  1459.06,1800.78 2640.76,1800.78 
  "/>
<polyline clip-path="url(#clip030)" style="stroke:#000000; stroke-linecap:round; stroke-linejoin:round; stroke-width:4; stroke-opacity:1; fill:none" points="
  1492.5,1800.78 1492.5,1781.88 
  "/>
<polyline clip-path="url(#clip030)" style="stroke:#000000; stroke-linecap:round; stroke-linejoin:round; stroke-width:4; stroke-opacity:1; fill:none" points="
  1771.2,1800.78 1771.2,1781.88 
  "/>
<polyline clip-path="url(#clip030)" style="stroke:#000000; stroke-linecap:round; stroke-linejoin:round; stroke-width:4; stroke-opacity:1; fill:none" points="
  2049.91,1800.78 2049.91,1781.88 
  "/>
<polyline clip-path="url(#clip030)" style="stroke:#000000; stroke-linecap:round; stroke-linejoin:round; stroke-width:4; stroke-opacity:1; fill:none" points="
  2328.61,1800.78 2328.61,1781.88 
  "/>
<polyline clip-path="url(#clip030)" style="stroke:#000000; stroke-linecap:round; stroke-linejoin:round; stroke-width:4; stroke-opacity:1; fill:none" points="
  2607.31,1800.78 2607.31,1781.88 
  "/>
<path clip-path="url(#clip030)" d="M1482.88 1861.55 L1490.52 1861.55 L1490.52 1835.18 L1482.21 1836.85 L1482.21 1832.59 L1490.48 1830.92 L1495.15 1830.92 L1495.15 1861.55 L1502.79 1861.55 L1502.79 1865.48 L1482.88 1865.48 L1482.88 1861.55 Z" fill="#000000" fill-rule="evenodd" fill-opacity="1" /><path clip-path="url(#clip030)" d="M1765.86 1861.55 L1782.18 1861.55 L1782.18 1865.48 L1760.23 1865.48 L1760.23 1861.55 Q1762.89 1858.79 1767.48 1854.16 Q1772.08 1849.51 1773.26 1848.17 Q1775.51 1845.65 1776.39 1843.91 Q1777.29 1842.15 1777.29 1840.46 Q1777.29 1837.71 1775.35 1835.97 Q1773.43 1834.23 1770.32 1834.23 Q1768.13 1834.23 1765.67 1835 Q1763.24 1835.76 1760.46 1837.31 L1760.46 1832.59 Q1763.29 1831.46 1765.74 1830.88 Q1768.19 1830.3 1770.23 1830.3 Q1775.6 1830.3 1778.8 1832.98 Q1781.99 1835.67 1781.99 1840.16 Q1781.99 1842.29 1781.18 1844.21 Q1780.39 1846.11 1778.29 1848.7 Q1777.71 1849.37 1774.61 1852.59 Q1771.5 1855.78 1765.86 1861.55 Z" fill="#000000" fill-rule="evenodd" fill-opacity="1" /><path clip-path="url(#clip030)" d="M2054.15 1846.85 Q2057.51 1847.57 2059.39 1849.84 Q2061.28 1852.1 2061.28 1855.44 Q2061.28 1860.55 2057.77 1863.35 Q2054.25 1866.15 2047.77 1866.15 Q2045.59 1866.15 2043.27 1865.71 Q2040.98 1865.3 2038.53 1864.44 L2038.53 1859.93 Q2040.47 1861.06 2042.79 1861.64 Q2045.1 1862.22 2047.63 1862.22 Q2052.02 1862.22 2054.32 1860.48 Q2056.63 1858.75 2056.63 1855.44 Q2056.63 1852.38 2054.48 1850.67 Q2052.35 1848.93 2048.53 1848.93 L2044.5 1848.93 L2044.5 1845.09 L2048.71 1845.09 Q2052.16 1845.09 2053.99 1843.72 Q2055.82 1842.34 2055.82 1839.74 Q2055.82 1837.08 2053.92 1835.67 Q2052.05 1834.23 2048.53 1834.23 Q2046.61 1834.23 2044.41 1834.65 Q2042.21 1835.07 2039.57 1835.95 L2039.57 1831.78 Q2042.23 1831.04 2044.55 1830.67 Q2046.89 1830.3 2048.95 1830.3 Q2054.27 1830.3 2057.37 1832.73 Q2060.47 1835.14 2060.47 1839.26 Q2060.47 1842.13 2058.83 1844.12 Q2057.19 1846.09 2054.15 1846.85 Z" fill="#000000" fill-rule="evenodd" fill-opacity="1" /><path clip-path="url(#clip030)" d="M2331.62 1835 L2319.81 1853.45 L2331.62 1853.45 L2331.62 1835 M2330.39 1830.92 L2336.27 1830.92 L2336.27 1853.45 L2341.2 1853.45 L2341.2 1857.34 L2336.27 1857.34 L2336.27 1865.48 L2331.62 1865.48 L2331.62 1857.34 L2316.02 1857.34 L2316.02 1852.82 L2330.39 1830.92 Z" fill="#000000" fill-rule="evenodd" fill-opacity="1" /><path clip-path="url(#clip030)" d="M2597.59 1830.92 L2615.95 1830.92 L2615.95 1834.86 L2601.87 1834.86 L2601.87 1843.33 Q2602.89 1842.98 2603.91 1842.82 Q2604.93 1842.64 2605.95 1842.64 Q2611.73 1842.64 2615.11 1845.81 Q2618.49 1848.98 2618.49 1854.4 Q2618.49 1859.97 2615.02 1863.08 Q2611.55 1866.15 2605.23 1866.15 Q2603.05 1866.15 2600.78 1865.78 Q2598.54 1865.41 2596.13 1864.67 L2596.13 1859.97 Q2598.21 1861.11 2600.44 1861.66 Q2602.66 1862.22 2605.14 1862.22 Q2609.14 1862.22 2611.48 1860.11 Q2613.82 1858.01 2613.82 1854.4 Q2613.82 1850.78 2611.48 1848.68 Q2609.14 1846.57 2605.14 1846.57 Q2603.26 1846.57 2601.39 1846.99 Q2599.53 1847.4 2597.59 1848.28 L2597.59 1830.92 Z" fill="#000000" fill-rule="evenodd" fill-opacity="1" /><polyline clip-path="url(#clip033)" style="stroke:#000000; stroke-linecap:round; stroke-linejoin:round; stroke-width:2; stroke-opacity:0.1; fill:none" points="
  1459.06,1753.43 2640.76,1753.43 
  "/>
<polyline clip-path="url(#clip033)" style="stroke:#000000; stroke-linecap:round; stroke-linejoin:round; stroke-width:2; stroke-opacity:0.1; fill:none" points="
  1459.06,1358.86 2640.76,1358.86 
  "/>
<polyline clip-path="url(#clip033)" style="stroke:#000000; stroke-linecap:round; stroke-linejoin:round; stroke-width:2; stroke-opacity:0.1; fill:none" points="
  1459.06,964.286 2640.76,964.286 
  "/>
<polyline clip-path="url(#clip033)" style="stroke:#000000; stroke-linecap:round; stroke-linejoin:round; stroke-width:2; stroke-opacity:0.1; fill:none" points="
  1459.06,569.713 2640.76,569.713 
  "/>
<polyline clip-path="url(#clip033)" style="stroke:#000000; stroke-linecap:round; stroke-linejoin:round; stroke-width:2; stroke-opacity:0.1; fill:none" points="
  1459.06,175.141 2640.76,175.141 
  "/>
<polyline clip-path="url(#clip030)" style="stroke:#000000; stroke-linecap:round; stroke-linejoin:round; stroke-width:4; stroke-opacity:1; fill:none" points="
  1459.06,1800.78 1459.06,127.792 
  "/>
<polyline clip-path="url(#clip030)" style="stroke:#000000; stroke-linecap:round; stroke-linejoin:round; stroke-width:4; stroke-opacity:1; fill:none" points="
  1459.06,1753.43 1477.95,1753.43 
  "/>
<polyline clip-path="url(#clip030)" style="stroke:#000000; stroke-linecap:round; stroke-linejoin:round; stroke-width:4; stroke-opacity:1; fill:none" points="
  1459.06,1358.86 1477.95,1358.86 
  "/>
<polyline clip-path="url(#clip030)" style="stroke:#000000; stroke-linecap:round; stroke-linejoin:round; stroke-width:4; stroke-opacity:1; fill:none" points="
  1459.06,964.286 1477.95,964.286 
  "/>
<polyline clip-path="url(#clip030)" style="stroke:#000000; stroke-linecap:round; stroke-linejoin:round; stroke-width:4; stroke-opacity:1; fill:none" points="
  1459.06,569.713 1477.95,569.713 
  "/>
<polyline clip-path="url(#clip030)" style="stroke:#000000; stroke-linecap:round; stroke-linejoin:round; stroke-width:4; stroke-opacity:1; fill:none" points="
  1459.06,175.141 1477.95,175.141 
  "/>
<path clip-path="url(#clip030)" d="M1398.83 1766.78 L1406.47 1766.78 L1406.47 1740.41 L1398.16 1742.08 L1398.16 1737.82 L1406.42 1736.15 L1411.1 1736.15 L1411.1 1766.78 L1418.74 1766.78 L1418.74 1770.71 L1398.83 1770.71 L1398.83 1766.78 Z" fill="#000000" fill-rule="evenodd" fill-opacity="1" /><path clip-path="url(#clip030)" d="M1402.42 1372.2 L1418.74 1372.2 L1418.74 1376.14 L1396.79 1376.14 L1396.79 1372.2 Q1399.45 1369.45 1404.04 1364.82 Q1408.64 1360.17 1409.83 1358.82 Q1412.07 1356.3 1412.95 1354.56 Q1413.85 1352.8 1413.85 1351.12 Q1413.85 1348.36 1411.91 1346.62 Q1409.99 1344.89 1406.89 1344.89 Q1404.69 1344.89 1402.23 1345.65 Q1399.8 1346.42 1397.02 1347.97 L1397.02 1343.24 Q1399.85 1342.11 1402.3 1341.53 Q1404.76 1340.95 1406.79 1340.95 Q1412.16 1340.95 1415.36 1343.64 Q1418.55 1346.32 1418.55 1350.81 Q1418.55 1352.94 1417.74 1354.87 Q1416.95 1356.76 1414.85 1359.36 Q1414.27 1360.03 1411.17 1363.24 Q1408.07 1366.44 1402.42 1372.2 Z" fill="#000000" fill-rule="evenodd" fill-opacity="1" /><path clip-path="url(#clip030)" d="M1411.61 962.932 Q1414.96 963.649 1416.84 965.918 Q1418.74 968.186 1418.74 971.519 Q1418.74 976.635 1415.22 979.436 Q1411.7 982.237 1405.22 982.237 Q1403.04 982.237 1400.73 981.797 Q1398.44 981.381 1395.98 980.524 L1395.98 976.01 Q1397.93 977.144 1400.24 977.723 Q1402.56 978.302 1405.08 978.302 Q1409.48 978.302 1411.77 976.566 Q1414.08 974.83 1414.08 971.519 Q1414.08 968.464 1411.93 966.751 Q1409.8 965.015 1405.98 965.015 L1401.95 965.015 L1401.95 961.172 L1406.17 961.172 Q1409.62 961.172 1411.45 959.807 Q1413.27 958.418 1413.27 955.825 Q1413.27 953.163 1411.38 951.751 Q1409.5 950.316 1405.98 950.316 Q1404.06 950.316 1401.86 950.733 Q1399.66 951.149 1397.02 952.029 L1397.02 947.862 Q1399.69 947.121 1402 946.751 Q1404.34 946.381 1406.4 946.381 Q1411.72 946.381 1414.83 948.811 Q1417.93 951.219 1417.93 955.339 Q1417.93 958.209 1416.28 960.2 Q1414.64 962.168 1411.61 962.932 Z" fill="#000000" fill-rule="evenodd" fill-opacity="1" /><path clip-path="url(#clip030)" d="M1409.15 556.507 L1397.35 574.956 L1409.15 574.956 L1409.15 556.507 M1407.93 552.433 L1413.81 552.433 L1413.81 574.956 L1418.74 574.956 L1418.74 578.845 L1413.81 578.845 L1413.81 586.993 L1409.15 586.993 L1409.15 578.845 L1393.55 578.845 L1393.55 574.331 L1407.93 552.433 Z" fill="#000000" fill-rule="evenodd" fill-opacity="1" /><path clip-path="url(#clip030)" d="M1397.83 157.861 L1416.19 157.861 L1416.19 161.796 L1402.12 161.796 L1402.12 170.268 Q1403.14 169.921 1404.15 169.759 Q1405.17 169.574 1406.19 169.574 Q1411.98 169.574 1415.36 172.745 Q1418.74 175.916 1418.74 181.333 Q1418.74 186.912 1415.26 190.013 Q1411.79 193.092 1405.47 193.092 Q1403.3 193.092 1401.03 192.722 Q1398.78 192.351 1396.38 191.611 L1396.38 186.912 Q1398.46 188.046 1400.68 188.601 Q1402.9 189.157 1405.38 189.157 Q1409.39 189.157 1411.72 187.05 Q1414.06 184.944 1414.06 181.333 Q1414.06 177.722 1411.72 175.615 Q1409.39 173.509 1405.38 173.509 Q1403.51 173.509 1401.63 173.926 Q1399.78 174.342 1397.83 175.222 L1397.83 157.861 Z" fill="#000000" fill-rule="evenodd" fill-opacity="1" /><path clip-path="url(#clip030)" d="M1823.06 28.5427 L1823.06 35.5912 Q1819.9 33.9709 1816.49 33.1607 Q1813.09 32.3505 1809.44 32.3505 Q1803.9 32.3505 1801.1 34.0519 Q1798.35 35.7533 1798.35 39.156 Q1798.35 41.7486 1800.33 43.2475 Q1802.32 44.7058 1808.31 46.0426 L1810.86 46.6097 Q1818.8 48.3111 1822.12 51.4303 Q1825.49 54.509 1825.49 60.0587 Q1825.49 66.3781 1820.46 70.0644 Q1815.48 73.7508 1806.73 73.7508 Q1803.08 73.7508 1799.12 73.0216 Q1795.19 72.3329 1790.81 70.9151 L1790.81 63.2184 Q1794.94 65.3654 1798.95 66.4591 Q1802.96 67.5124 1806.89 67.5124 Q1812.16 67.5124 1814.99 65.73 Q1817.83 63.9071 1817.83 60.6258 Q1817.83 57.5877 1815.76 55.9673 Q1813.74 54.3469 1806.81 52.8481 L1804.22 52.2405 Q1797.29 50.7821 1794.21 47.7845 Q1791.13 44.7463 1791.13 39.4801 Q1791.13 33.0797 1795.67 29.5959 Q1800.21 26.1121 1808.55 26.1121 Q1812.69 26.1121 1816.33 26.7198 Q1819.98 27.3274 1823.06 28.5427 Z" fill="#000000" fill-rule="evenodd" fill-opacity="1" /><path clip-path="url(#clip030)" d="M1836.59 54.671 L1836.59 27.2059 L1844.04 27.2059 L1844.04 54.3874 Q1844.04 60.8284 1846.55 64.0691 Q1849.06 67.2693 1854.09 67.2693 Q1860.12 67.2693 1863.61 63.421 Q1867.13 59.5726 1867.13 52.9291 L1867.13 27.2059 L1874.58 27.2059 L1874.58 72.576 L1867.13 72.576 L1867.13 65.6084 Q1864.42 69.7404 1860.81 71.7658 Q1857.25 73.7508 1852.51 73.7508 Q1844.69 73.7508 1840.64 68.8897 Q1836.59 64.0286 1836.59 54.671 M1855.34 26.1121 L1855.34 26.1121 Z" fill="#000000" fill-rule="evenodd" fill-opacity="1" /><path clip-path="url(#clip030)" d="M1925.26 35.9153 Q1928.06 30.8922 1931.94 28.5022 Q1935.83 26.1121 1941.1 26.1121 Q1948.19 26.1121 1952.04 31.0947 Q1955.89 36.0368 1955.89 45.1919 L1955.89 72.576 L1948.39 72.576 L1948.39 45.4349 Q1948.39 38.913 1946.08 35.7533 Q1943.77 32.5936 1939.03 32.5936 Q1933.24 32.5936 1929.88 36.4419 Q1926.52 40.2903 1926.52 46.9338 L1926.52 72.576 L1919.02 72.576 L1919.02 45.4349 Q1919.02 38.8725 1916.71 35.7533 Q1914.4 32.5936 1909.58 32.5936 Q1903.87 32.5936 1900.51 36.4824 Q1897.15 40.3308 1897.15 46.9338 L1897.15 72.576 L1889.65 72.576 L1889.65 27.2059 L1897.15 27.2059 L1897.15 34.2544 Q1899.7 30.082 1903.26 28.0971 Q1906.83 26.1121 1911.73 26.1121 Q1916.67 26.1121 1920.12 28.6237 Q1923.6 31.1352 1925.26 35.9153 Z" fill="#000000" fill-rule="evenodd" fill-opacity="1" /><path clip-path="url(#clip030)" d="M2035.93 48.0275 L2035.93 51.6733 L2001.66 51.6733 Q2002.15 59.3701 2006.28 63.421 Q2010.45 67.4314 2017.86 67.4314 Q2022.16 67.4314 2026.17 66.3781 Q2030.22 65.3249 2034.19 63.2184 L2034.19 70.267 Q2030.18 71.9684 2025.97 72.8596 Q2021.75 73.7508 2017.42 73.7508 Q2006.56 73.7508 2000.2 67.4314 Q1993.88 61.1119 1993.88 50.3365 Q1993.88 39.1965 1999.88 32.6746 Q2005.91 26.1121 2016.12 26.1121 Q2025.28 26.1121 2030.58 32.0264 Q2035.93 37.9003 2035.93 48.0275 M2028.48 45.84 Q2028.4 39.7232 2025.03 36.0774 Q2021.71 32.4315 2016.2 32.4315 Q2009.96 32.4315 2006.2 35.9558 Q2002.47 39.4801 2001.9 45.8805 L2028.48 45.84 Z" fill="#000000" fill-rule="evenodd" fill-opacity="1" /><path clip-path="url(#clip030)" d="M2045.29 47.1768 L2049.99 47.1768 L2049.99 72.576 L2045.29 72.576 L2045.29 47.1768 M2045.29 37.2926 L2049.99 37.2926 L2049.99 42.5588 L2045.29 42.5588 L2045.29 37.2926 Z" fill="#000000" fill-rule="evenodd" fill-opacity="1" /><path clip-path="url(#clip030)" d="M2066.03 40.8979 L2083.2 40.8979 L2083.2 45.516 L2058.98 45.516 L2058.98 41.06 Q2060.36 39.8042 2062.91 37.5357 Q2076.85 25.1804 2076.85 21.3726 Q2076.85 18.699 2074.74 17.0786 Q2072.63 15.4177 2069.19 15.4177 Q2067.08 15.4177 2064.61 16.1469 Q2062.14 16.8356 2059.22 18.2534 L2059.22 13.2708 Q2062.34 12.1365 2065.02 11.5694 Q2067.73 11.0023 2070.04 11.0023 Q2075.91 11.0023 2079.44 13.6759 Q2082.96 16.3494 2082.96 20.7244 Q2082.96 26.3552 2069.55 37.8598 Q2067.28 39.8042 2066.03 40.8979 Z" fill="#000000" fill-rule="evenodd" fill-opacity="1" /><path clip-path="url(#clip030)" d="M2097.22 34.9026 L2149.15 34.9026 L2149.15 41.7081 L2097.22 41.7081 L2097.22 34.9026 M2097.22 51.4303 L2149.15 51.4303 L2149.15 58.3168 L2097.22 58.3168 L2097.22 51.4303 Z" fill="#000000" fill-rule="evenodd" fill-opacity="1" /><path clip-path="url(#clip030)" d="M2215.67 19.2256 L2195.01 51.5113 L2215.67 51.5113 L2215.67 19.2256 M2213.52 12.096 L2223.81 12.096 L2223.81 51.5113 L2232.44 51.5113 L2232.44 58.3168 L2223.81 58.3168 L2223.81 72.576 L2215.67 72.576 L2215.67 58.3168 L2188.37 58.3168 L2188.37 50.4176 L2213.52 12.096 Z" fill="#000000" fill-rule="evenodd" fill-opacity="1" /><path clip-path="url(#clip030)" d="M2245.97 62.2867 L2254.52 62.2867 L2254.52 72.576 L2245.97 72.576 L2245.97 62.2867 Z" fill="#000000" fill-rule="evenodd" fill-opacity="1" /><path clip-path="url(#clip030)" d="M2272.42 12.096 L2304.55 12.096 L2304.55 18.9825 L2279.92 18.9825 L2279.92 33.8088 Q2281.7 33.2012 2283.48 32.9176 Q2285.26 32.5936 2287.05 32.5936 Q2297.17 32.5936 2303.09 38.1433 Q2309 43.6931 2309 53.1722 Q2309 62.9348 2302.93 68.3631 Q2296.85 73.7508 2285.79 73.7508 Q2281.98 73.7508 2278.01 73.1026 Q2274.08 72.4545 2269.87 71.1582 L2269.87 62.9348 Q2273.52 64.9198 2277.41 65.892 Q2281.29 66.8642 2285.63 66.8642 Q2292.64 66.8642 2296.73 63.1779 Q2300.82 59.4916 2300.82 53.1722 Q2300.82 46.8528 2296.73 43.1664 Q2292.64 39.4801 2285.63 39.4801 Q2282.35 39.4801 2279.07 40.2093 Q2275.83 40.9384 2272.42 42.4778 L2272.42 12.096 Z" fill="#000000" fill-rule="evenodd" fill-opacity="1" /><circle clip-path="url(#clip033)" cx="1492.5" cy="1358.86" r="14.4" fill="#009af9" fill-rule="evenodd" fill-opacity="1" stroke="#000000" stroke-opacity="1" stroke-width="3.84"/>
<circle clip-path="url(#clip033)" cx="1771.2" cy="1753.43" r="14.4" fill="#009af9" fill-rule="evenodd" fill-opacity="1" stroke="#000000" stroke-opacity="1" stroke-width="3.84"/>
<circle clip-path="url(#clip033)" cx="2049.91" cy="569.713" r="14.4" fill="#009af9" fill-rule="evenodd" fill-opacity="1" stroke="#000000" stroke-opacity="1" stroke-width="3.84"/>
<circle clip-path="url(#clip033)" cx="2328.61" cy="964.286" r="14.4" fill="#009af9" fill-rule="evenodd" fill-opacity="1" stroke="#000000" stroke-opacity="1" stroke-width="3.84"/>
<circle clip-path="url(#clip033)" cx="2607.31" cy="175.141" r="14.4" fill="#009af9" fill-rule="evenodd" fill-opacity="1" stroke="#000000" stroke-opacity="1" stroke-width="3.84"/>
<polyline clip-path="url(#clip033)" style="stroke:#e26f46; stroke-linecap:round; stroke-linejoin:round; stroke-width:4; stroke-opacity:1; fill:none" points="
  1492.5,1358.86 1499.76,1353.72 1566.87,1306.21 1607.2,1277.67 1641.3,1253.53 1678.34,1227.31 1712.49,1203.13 1749.1,1177.22 1791.52,1147.19 1829.22,1120.51 
  1862.27,1097.11 1898.31,1071.6 1934.56,1045.93 1974.65,1017.56 2012.79,990.562 2052.44,962.492 2085.82,938.862 2126.58,910.013 2163.91,883.586 2198.39,859.178 
  2233.32,834.454 2272.46,806.744 2307.93,781.636 2348.54,752.888 2386.15,726.27 2423.22,700.027 2459.21,674.548 2496.11,648.429 2536.54,619.812 2595.26,578.242 
  2607.31,569.713 
  "/>
<polyline clip-path="url(#clip033)" style="stroke:#3da44d; stroke-linecap:round; stroke-linejoin:round; stroke-width:4; stroke-opacity:1; fill:none" stroke-dasharray="16, 10" points="
  1492.5,1358.86 1492.5,1358.86 
  "/>
<polyline clip-path="url(#clip033)" style="stroke:#c271d2; stroke-linecap:round; stroke-linejoin:round; stroke-width:4; stroke-opacity:1; fill:none" stroke-dasharray="16, 10" points="
  1771.2,1161.57 1771.2,1753.43 
  "/>
<polyline clip-path="url(#clip033)" style="stroke:#ac8d18; stroke-linecap:round; stroke-linejoin:round; stroke-width:4; stroke-opacity:1; fill:none" stroke-dasharray="16, 10" points="
  2049.91,964.286 2049.91,569.713 
  "/>
<polyline clip-path="url(#clip033)" style="stroke:#00a9ad; stroke-linecap:round; stroke-linejoin:round; stroke-width:4; stroke-opacity:1; fill:none" stroke-dasharray="16, 10" points="
  2328.61,766.999 2328.61,964.286 
  "/>
<polyline clip-path="url(#clip033)" style="stroke:#ed5d92; stroke-linecap:round; stroke-linejoin:round; stroke-width:4; stroke-opacity:1; fill:none" stroke-dasharray="16, 10" points="
  2607.31,569.713 2607.31,175.141 
  "/>
</svg>
