<?xml version="1.0" encoding="utf-8"?>
<svg xmlns="http://www.w3.org/2000/svg" xmlns:xlink="http://www.w3.org/1999/xlink" width="576" height="384" viewBox="0 0 2304 1536">
<defs>
  <clipPath id="clip430">
    <rect x="0" y="0" width="2304" height="1536"/>
  </clipPath>
</defs>
<path clip-path="url(#clip430)" d="
M0 1536 L2304 1536 L2304 0 L0 0  Z
  " fill="#ffffff" fill-rule="evenodd" fill-opacity="1"/>
<defs>
  <clipPath id="clip431">
    <rect x="460" y="0" width="1614" height="1536"/>
  </clipPath>
</defs>
<path clip-path="url(#clip430)" d="
M155.638 1423.09 L1126.97 1423.09 L1126.97 47.2441 L155.638 47.2441  Z
  " fill="#ffffff" fill-rule="evenodd" fill-opacity="1"/>
<defs>
  <clipPath id="clip432">
    <rect x="155" y="47" width="972" height="1377"/>
  </clipPath>
</defs>
<polyline clip-path="url(#clip432)" style="stroke:#000000; stroke-linecap:round; stroke-linejoin:round; stroke-width:2; stroke-opacity:0.1; fill:none" points="
  163.895,1423.09 163.895,47.2441 
  "/>
<polyline clip-path="url(#clip432)" style="stroke:#000000; stroke-linecap:round; stroke-linejoin:round; stroke-width:2; stroke-opacity:0.1; fill:none" points="
  371.463,1423.09 371.463,47.2441 
  "/>
<polyline clip-path="url(#clip432)" style="stroke:#000000; stroke-linecap:round; stroke-linejoin:round; stroke-width:2; stroke-opacity:0.1; fill:none" points="
  579.032,1423.09 579.032,47.2441 
  "/>
<polyline clip-path="url(#clip432)" style="stroke:#000000; stroke-linecap:round; stroke-linejoin:round; stroke-width:2; stroke-opacity:0.1; fill:none" points="
  786.6,1423.09 786.6,47.2441 
  "/>
<polyline clip-path="url(#clip432)" style="stroke:#000000; stroke-linecap:round; stroke-linejoin:round; stroke-width:2; stroke-opacity:0.1; fill:none" points="
  994.169,1423.09 994.169,47.2441 
  "/>
<polyline clip-path="url(#clip430)" style="stroke:#000000; stroke-linecap:round; stroke-linejoin:round; stroke-width:4; stroke-opacity:1; fill:none" points="
  155.638,1423.09 1126.97,1423.09 
  "/>
<polyline clip-path="url(#clip430)" style="stroke:#000000; stroke-linecap:round; stroke-linejoin:round; stroke-width:4; stroke-opacity:1; fill:none" points="
  163.895,1423.09 163.895,1404.19 
  "/>
<polyline clip-path="url(#clip430)" style="stroke:#000000; stroke-linecap:round; stroke-linejoin:round; stroke-width:4; stroke-opacity:1; fill:none" points="
  371.463,1423.09 371.463,1404.19 
  "/>
<polyline clip-path="url(#clip430)" style="stroke:#000000; stroke-linecap:round; stroke-linejoin:round; stroke-width:4; stroke-opacity:1; fill:none" points="
  579.032,1423.09 579.032,1404.19 
  "/>
<polyline clip-path="url(#clip430)" style="stroke:#000000; stroke-linecap:round; stroke-linejoin:round; stroke-width:4; stroke-opacity:1; fill:none" points="
  786.6,1423.09 786.6,1404.19 
  "/>
<polyline clip-path="url(#clip430)" style="stroke:#000000; stroke-linecap:round; stroke-linejoin:round; stroke-width:4; stroke-opacity:1; fill:none" points="
  994.169,1423.09 994.169,1404.19 
  "/>
<path clip-path="url(#clip430)" d="M133.652 1467.89 L163.328 1467.89 L163.328 1471.83 L133.652 1471.83 L133.652 1467.89 Z" fill="#000000" fill-rule="evenodd" fill-opacity="1" /><path clip-path="url(#clip430)" d="M174.23 1480.78 L181.869 1480.78 L181.869 1454.42 L173.559 1456.09 L173.559 1451.83 L181.823 1450.16 L186.499 1450.16 L186.499 1480.78 L194.138 1480.78 L194.138 1484.72 L174.23 1484.72 L174.23 1480.78 Z" fill="#000000" fill-rule="evenodd" fill-opacity="1" /><path clip-path="url(#clip430)" d="M371.463 1453.24 Q367.852 1453.24 366.023 1456.8 Q364.218 1460.35 364.218 1467.47 Q364.218 1474.58 366.023 1478.15 Q367.852 1481.69 371.463 1481.69 Q375.097 1481.69 376.903 1478.15 Q378.732 1474.58 378.732 1467.47 Q378.732 1460.35 376.903 1456.8 Q375.097 1453.24 371.463 1453.24 M371.463 1449.53 Q377.273 1449.53 380.329 1454.14 Q383.408 1458.72 383.408 1467.47 Q383.408 1476.2 380.329 1480.81 Q377.273 1485.39 371.463 1485.39 Q365.653 1485.39 362.574 1480.81 Q359.519 1476.2 359.519 1467.47 Q359.519 1458.72 362.574 1454.14 Q365.653 1449.53 371.463 1449.53 Z" fill="#000000" fill-rule="evenodd" fill-opacity="1" /><path clip-path="url(#clip430)" d="M569.414 1480.78 L577.053 1480.78 L577.053 1454.42 L568.742 1456.09 L568.742 1451.83 L577.006 1450.16 L581.682 1450.16 L581.682 1480.78 L589.321 1480.78 L589.321 1484.72 L569.414 1484.72 L569.414 1480.78 Z" fill="#000000" fill-rule="evenodd" fill-opacity="1" /><path clip-path="url(#clip430)" d="M781.253 1480.78 L797.572 1480.78 L797.572 1484.72 L775.628 1484.72 L775.628 1480.78 Q778.29 1478.03 782.873 1473.4 Q787.48 1468.75 788.66 1467.41 Q790.906 1464.88 791.785 1463.15 Q792.688 1461.39 792.688 1459.7 Q792.688 1456.94 790.744 1455.21 Q788.823 1453.47 785.721 1453.47 Q783.522 1453.47 781.068 1454.23 Q778.637 1455 775.86 1456.55 L775.86 1451.83 Q778.684 1450.69 781.137 1450.11 Q783.591 1449.53 785.628 1449.53 Q790.998 1449.53 794.193 1452.22 Q797.387 1454.91 797.387 1459.4 Q797.387 1461.53 796.577 1463.45 Q795.79 1465.34 793.684 1467.94 Q793.105 1468.61 790.003 1471.83 Q786.901 1475.02 781.253 1480.78 Z" fill="#000000" fill-rule="evenodd" fill-opacity="1" /><path clip-path="url(#clip430)" d="M998.417 1466.09 Q1001.77 1466.8 1003.65 1469.07 Q1005.55 1471.34 1005.55 1474.67 Q1005.55 1479.79 1002.03 1482.59 Q998.509 1485.39 992.028 1485.39 Q989.852 1485.39 987.537 1484.95 Q985.245 1484.53 982.792 1483.68 L982.792 1479.16 Q984.736 1480.3 987.051 1480.88 Q989.366 1481.46 991.889 1481.46 Q996.287 1481.46 998.579 1479.72 Q1000.89 1477.98 1000.89 1474.67 Q1000.89 1471.62 998.741 1469.91 Q996.611 1468.17 992.792 1468.17 L988.764 1468.17 L988.764 1464.33 L992.977 1464.33 Q996.426 1464.33 998.254 1462.96 Q1000.08 1461.57 1000.08 1458.98 Q1000.08 1456.32 998.185 1454.91 Q996.31 1453.47 992.792 1453.47 Q990.87 1453.47 988.671 1453.89 Q986.472 1454.3 983.833 1455.18 L983.833 1451.02 Q986.495 1450.28 988.81 1449.91 Q991.148 1449.53 993.208 1449.53 Q998.532 1449.53 1001.63 1451.97 Q1004.74 1454.37 1004.74 1458.49 Q1004.74 1461.36 1003.09 1463.35 Q1001.45 1465.32 998.417 1466.09 Z" fill="#000000" fill-rule="evenodd" fill-opacity="1" /><polyline clip-path="url(#clip432)" style="stroke:#000000; stroke-linecap:round; stroke-linejoin:round; stroke-width:2; stroke-opacity:0.1; fill:none" points="
  155.638,1384.25 1126.97,1384.25 
  "/>
<polyline clip-path="url(#clip432)" style="stroke:#000000; stroke-linecap:round; stroke-linejoin:round; stroke-width:2; stroke-opacity:0.1; fill:none" points="
  155.638,1123.25 1126.97,1123.25 
  "/>
<polyline clip-path="url(#clip432)" style="stroke:#000000; stroke-linecap:round; stroke-linejoin:round; stroke-width:2; stroke-opacity:0.1; fill:none" points="
  155.638,862.256 1126.97,862.256 
  "/>
<polyline clip-path="url(#clip432)" style="stroke:#000000; stroke-linecap:round; stroke-linejoin:round; stroke-width:2; stroke-opacity:0.1; fill:none" points="
  155.638,601.26 1126.97,601.26 
  "/>
<polyline clip-path="url(#clip432)" style="stroke:#000000; stroke-linecap:round; stroke-linejoin:round; stroke-width:2; stroke-opacity:0.1; fill:none" points="
  155.638,340.265 1126.97,340.265 
  "/>
<polyline clip-path="url(#clip432)" style="stroke:#000000; stroke-linecap:round; stroke-linejoin:round; stroke-width:2; stroke-opacity:0.1; fill:none" points="
  155.638,79.2693 1126.97,79.2693 
  "/>
<polyline clip-path="url(#clip430)" style="stroke:#000000; stroke-linecap:round; stroke-linejoin:round; stroke-width:4; stroke-opacity:1; fill:none" points="
  155.638,1423.09 155.638,47.2441 
  "/>
<polyline clip-path="url(#clip430)" style="stroke:#000000; stroke-linecap:round; stroke-linejoin:round; stroke-width:4; stroke-opacity:1; fill:none" points="
  155.638,1384.25 174.536,1384.25 
  "/>
<polyline clip-path="url(#clip430)" style="stroke:#000000; stroke-linecap:round; stroke-linejoin:round; stroke-width:4; stroke-opacity:1; fill:none" points="
  155.638,1123.25 174.536,1123.25 
  "/>
<polyline clip-path="url(#clip430)" style="stroke:#000000; stroke-linecap:round; stroke-linejoin:round; stroke-width:4; stroke-opacity:1; fill:none" points="
  155.638,862.256 174.536,862.256 
  "/>
<polyline clip-path="url(#clip430)" style="stroke:#000000; stroke-linecap:round; stroke-linejoin:round; stroke-width:4; stroke-opacity:1; fill:none" points="
  155.638,601.26 174.536,601.26 
  "/>
<polyline clip-path="url(#clip430)" style="stroke:#000000; stroke-linecap:round; stroke-linejoin:round; stroke-width:4; stroke-opacity:1; fill:none" points="
  155.638,340.265 174.536,340.265 
  "/>
<polyline clip-path="url(#clip430)" style="stroke:#000000; stroke-linecap:round; stroke-linejoin:round; stroke-width:4; stroke-opacity:1; fill:none" points="
  155.638,79.2693 174.536,79.2693 
  "/>
<path clip-path="url(#clip430)" d="M63.9026 1370.05 Q60.2915 1370.05 58.4628 1373.61 Q56.6573 1377.15 56.6573 1384.28 Q56.6573 1391.39 58.4628 1394.95 Q60.2915 1398.49 63.9026 1398.49 Q67.5369 1398.49 69.3424 1394.95 Q71.1711 1391.39 71.1711 1384.28 Q71.1711 1377.15 69.3424 1373.61 Q67.5369 1370.05 63.9026 1370.05 M63.9026 1366.34 Q69.7128 1366.34 72.7683 1370.95 Q75.847 1375.53 75.847 1384.28 Q75.847 1393.01 72.7683 1397.62 Q69.7128 1402.2 63.9026 1402.2 Q58.0925 1402.2 55.0138 1397.62 Q51.9582 1393.01 51.9582 1384.28 Q51.9582 1375.53 55.0138 1370.95 Q58.0925 1366.34 63.9026 1366.34 Z" fill="#000000" fill-rule="evenodd" fill-opacity="1" /><path clip-path="url(#clip430)" d="M84.0645 1395.65 L88.9488 1395.65 L88.9488 1401.53 L84.0645 1401.53 L84.0645 1395.65 Z" fill="#000000" fill-rule="evenodd" fill-opacity="1" /><path clip-path="url(#clip430)" d="M109.134 1370.05 Q105.523 1370.05 103.694 1373.61 Q101.889 1377.15 101.889 1384.28 Q101.889 1391.39 103.694 1394.95 Q105.523 1398.49 109.134 1398.49 Q112.768 1398.49 114.574 1394.95 Q116.402 1391.39 116.402 1384.28 Q116.402 1377.15 114.574 1373.61 Q112.768 1370.05 109.134 1370.05 M109.134 1366.34 Q114.944 1366.34 118 1370.95 Q121.078 1375.53 121.078 1384.28 Q121.078 1393.01 118 1397.62 Q114.944 1402.2 109.134 1402.2 Q103.324 1402.2 100.245 1397.62 Q97.1895 1393.01 97.1895 1384.28 Q97.1895 1375.53 100.245 1370.95 Q103.324 1366.34 109.134 1366.34 Z" fill="#000000" fill-rule="evenodd" fill-opacity="1" /><path clip-path="url(#clip430)" d="M65.1295 1109.05 Q61.5184 1109.05 59.6897 1112.62 Q57.8841 1116.16 57.8841 1123.29 Q57.8841 1130.39 59.6897 1133.96 Q61.5184 1137.5 65.1295 1137.5 Q68.7637 1137.5 70.5692 1133.96 Q72.3979 1130.39 72.3979 1123.29 Q72.3979 1116.16 70.5692 1112.62 Q68.7637 1109.05 65.1295 1109.05 M65.1295 1105.35 Q70.9396 1105.35 73.9952 1109.95 Q77.0738 1114.54 77.0738 1123.29 Q77.0738 1132.01 73.9952 1136.62 Q70.9396 1141.2 65.1295 1141.2 Q59.3193 1141.2 56.2406 1136.62 Q53.1851 1132.01 53.1851 1123.29 Q53.1851 1114.54 56.2406 1109.95 Q59.3193 1105.35 65.1295 1105.35 Z" fill="#000000" fill-rule="evenodd" fill-opacity="1" /><path clip-path="url(#clip430)" d="M85.2914 1134.65 L90.1756 1134.65 L90.1756 1140.53 L85.2914 1140.53 L85.2914 1134.65 Z" fill="#000000" fill-rule="evenodd" fill-opacity="1" /><path clip-path="url(#clip430)" d="M101.171 1136.6 L108.81 1136.6 L108.81 1110.23 L100.5 1111.9 L100.5 1107.64 L108.763 1105.97 L113.439 1105.97 L113.439 1136.6 L121.078 1136.6 L121.078 1140.53 L101.171 1140.53 L101.171 1136.6 Z" fill="#000000" fill-rule="evenodd" fill-opacity="1" /><path clip-path="url(#clip430)" d="M65.4998 848.055 Q61.8887 848.055 60.06 851.619 Q58.2545 855.161 58.2545 862.291 Q58.2545 869.397 60.06 872.962 Q61.8887 876.504 65.4998 876.504 Q69.1341 876.504 70.9396 872.962 Q72.7683 869.397 72.7683 862.291 Q72.7683 855.161 70.9396 851.619 Q69.1341 848.055 65.4998 848.055 M65.4998 844.351 Q71.31 844.351 74.3655 848.957 Q77.4442 853.541 77.4442 862.291 Q77.4442 871.018 74.3655 875.624 Q71.31 880.207 65.4998 880.207 Q59.6897 880.207 56.611 875.624 Q53.5554 871.018 53.5554 862.291 Q53.5554 853.541 56.611 848.957 Q59.6897 844.351 65.4998 844.351 Z" fill="#000000" fill-rule="evenodd" fill-opacity="1" /><path clip-path="url(#clip430)" d="M85.6618 873.656 L90.546 873.656 L90.546 879.536 L85.6618 879.536 L85.6618 873.656 Z" fill="#000000" fill-rule="evenodd" fill-opacity="1" /><path clip-path="url(#clip430)" d="M104.759 875.601 L121.078 875.601 L121.078 879.536 L99.1339 879.536 L99.1339 875.601 Q101.796 872.846 106.379 868.217 Q110.986 863.564 112.166 862.221 Q114.412 859.698 115.291 857.962 Q116.194 856.203 116.194 854.513 Q116.194 851.758 114.25 850.022 Q112.328 848.286 109.226 848.286 Q107.027 848.286 104.574 849.05 Q102.143 849.814 99.3654 851.365 L99.3654 846.643 Q102.189 845.508 104.643 844.93 Q107.097 844.351 109.134 844.351 Q114.504 844.351 117.699 847.036 Q120.893 849.721 120.893 854.212 Q120.893 856.342 120.083 858.263 Q119.296 860.161 117.189 862.754 Q116.611 863.425 113.509 866.643 Q110.407 869.837 104.759 875.601 Z" fill="#000000" fill-rule="evenodd" fill-opacity="1" /><path clip-path="url(#clip430)" d="M64.5508 587.059 Q60.9397 587.059 59.111 590.624 Q57.3054 594.166 57.3054 601.295 Q57.3054 608.402 59.111 611.966 Q60.9397 615.508 64.5508 615.508 Q68.185 615.508 69.9905 611.966 Q71.8192 608.402 71.8192 601.295 Q71.8192 594.166 69.9905 590.624 Q68.185 587.059 64.5508 587.059 M64.5508 583.355 Q70.3609 583.355 73.4165 587.962 Q76.4951 592.545 76.4951 601.295 Q76.4951 610.022 73.4165 614.628 Q70.3609 619.212 64.5508 619.212 Q58.7406 619.212 55.6619 614.628 Q52.6064 610.022 52.6064 601.295 Q52.6064 592.545 55.6619 587.962 Q58.7406 583.355 64.5508 583.355 Z" fill="#000000" fill-rule="evenodd" fill-opacity="1" /><path clip-path="url(#clip430)" d="M84.7127 612.661 L89.5969 612.661 L89.5969 618.54 L84.7127 618.54 L84.7127 612.661 Z" fill="#000000" fill-rule="evenodd" fill-opacity="1" /><path clip-path="url(#clip430)" d="M113.949 599.906 Q117.305 600.624 119.18 602.892 Q121.078 605.161 121.078 608.494 Q121.078 613.61 117.56 616.411 Q114.041 619.212 107.56 619.212 Q105.384 619.212 103.069 618.772 Q100.777 618.355 98.3237 617.499 L98.3237 612.985 Q100.268 614.119 102.583 614.698 Q104.898 615.277 107.421 615.277 Q111.819 615.277 114.111 613.54 Q116.425 611.804 116.425 608.494 Q116.425 605.439 114.273 603.726 Q112.143 601.99 108.324 601.99 L104.296 601.99 L104.296 598.147 L108.509 598.147 Q111.958 598.147 113.787 596.781 Q115.615 595.392 115.615 592.8 Q115.615 590.138 113.717 588.726 Q111.842 587.291 108.324 587.291 Q106.402 587.291 104.203 587.707 Q102.004 588.124 99.3654 589.004 L99.3654 584.837 Q102.027 584.096 104.342 583.726 Q106.68 583.355 108.74 583.355 Q114.064 583.355 117.166 585.786 Q120.268 588.193 120.268 592.314 Q120.268 595.184 118.625 597.175 Q116.981 599.142 113.949 599.906 Z" fill="#000000" fill-rule="evenodd" fill-opacity="1" /><path clip-path="url(#clip430)" d="M63.4165 326.064 Q59.8054 326.064 57.9767 329.628 Q56.1712 333.17 56.1712 340.3 Q56.1712 347.406 57.9767 350.971 Q59.8054 354.512 63.4165 354.512 Q67.0507 354.512 68.8563 350.971 Q70.685 347.406 70.685 340.3 Q70.685 333.17 68.8563 329.628 Q67.0507 326.064 63.4165 326.064 M63.4165 322.36 Q69.2267 322.36 72.2822 326.966 Q75.3609 331.55 75.3609 340.3 Q75.3609 349.026 72.2822 353.633 Q69.2267 358.216 63.4165 358.216 Q57.6064 358.216 54.5277 353.633 Q51.4721 349.026 51.4721 340.3 Q51.4721 331.55 54.5277 326.966 Q57.6064 322.36 63.4165 322.36 Z" fill="#000000" fill-rule="evenodd" fill-opacity="1" /><path clip-path="url(#clip430)" d="M83.5784 351.665 L88.4627 351.665 L88.4627 357.545 L83.5784 357.545 L83.5784 351.665 Z" fill="#000000" fill-rule="evenodd" fill-opacity="1" /><path clip-path="url(#clip430)" d="M111.495 327.059 L99.6895 345.508 L111.495 345.508 L111.495 327.059 M110.268 322.985 L116.148 322.985 L116.148 345.508 L121.078 345.508 L121.078 349.397 L116.148 349.397 L116.148 357.545 L111.495 357.545 L111.495 349.397 L95.8932 349.397 L95.8932 344.883 L110.268 322.985 Z" fill="#000000" fill-rule="evenodd" fill-opacity="1" /><path clip-path="url(#clip430)" d="M64.898 65.068 Q61.2869 65.068 59.4582 68.6328 Q57.6526 72.1744 57.6526 79.304 Q57.6526 86.4105 59.4582 89.9753 Q61.2869 93.5169 64.898 93.5169 Q68.5322 93.5169 70.3378 89.9753 Q72.1665 86.4105 72.1665 79.304 Q72.1665 72.1744 70.3378 68.6328 Q68.5322 65.068 64.898 65.068 M64.898 61.3643 Q70.7081 61.3643 73.7637 65.9708 Q76.8424 70.5541 76.8424 79.304 Q76.8424 88.0308 73.7637 92.6373 Q70.7081 97.2206 64.898 97.2206 Q59.0878 97.2206 56.0091 92.6373 Q52.9536 88.0308 52.9536 79.304 Q52.9536 70.5541 56.0091 65.9708 Q59.0878 61.3643 64.898 61.3643 Z" fill="#000000" fill-rule="evenodd" fill-opacity="1" /><path clip-path="url(#clip430)" d="M85.0599 90.6697 L89.9441 90.6697 L89.9441 96.5493 L85.0599 96.5493 L85.0599 90.6697 Z" fill="#000000" fill-rule="evenodd" fill-opacity="1" /><path clip-path="url(#clip430)" d="M100.176 61.9893 L118.532 61.9893 L118.532 65.9245 L104.458 65.9245 L104.458 74.3966 Q105.476 74.0494 106.495 73.8874 Q107.513 73.7022 108.532 73.7022 Q114.319 73.7022 117.699 76.8735 Q121.078 80.0448 121.078 85.4614 Q121.078 91.0401 117.606 94.1419 Q114.134 97.2206 107.814 97.2206 Q105.639 97.2206 103.37 96.8502 Q101.125 96.4799 98.7172 95.7391 L98.7172 91.0401 Q100.801 92.1743 103.023 92.7299 Q105.245 93.2854 107.722 93.2854 Q111.726 93.2854 114.064 91.179 Q116.402 89.0725 116.402 85.4614 Q116.402 81.8503 114.064 79.7438 Q111.726 77.6374 107.722 77.6374 Q105.847 77.6374 103.972 78.054 Q102.12 78.4707 100.176 79.3503 L100.176 61.9893 Z" fill="#000000" fill-rule="evenodd" fill-opacity="1" /><polyline clip-path="url(#clip432)" style="stroke:#009af9; stroke-linecap:round; stroke-linejoin:round; stroke-width:4; stroke-opacity:1; fill:none" points="
  183.129,1384.12 187.733,1384.09 192.338,1384.03 196.943,1383.94 201.548,1383.82 206.152,1383.66 210.757,1383.43 215.362,1383.12 219.967,1382.7 224.572,1382.14 
  229.176,1381.41 233.781,1380.43 238.386,1379.17 242.991,1377.53 247.595,1375.43 252.2,1372.76 256.805,1369.38 261.41,1365.16 266.014,1359.91 270.619,1353.45 
  275.224,1345.56 279.829,1336 284.433,1324.52 289.038,1310.83 293.643,1294.67 298.248,1275.75 302.852,1253.78 307.457,1228.5 312.062,1199.66 316.667,1167.07 
  321.271,1130.57 325.876,1090.06 330.481,1045.55 335.086,997.096 339.691,944.888 344.295,889.207 348.9,830.454 353.505,769.142 358.11,705.898 362.714,641.456 
  367.319,576.643 371.924,512.362 376.529,449.578 381.133,389.287 385.738,332.492 390.343,280.174 394.948,233.263 399.552,192.607 404.157,158.95 408.762,132.898 
  413.367,114.909 417.971,105.27 422.576,104.092 427.181,111.301 431.786,126.646 436.39,149.703 440.995,179.889 445.6,216.481 450.205,258.638 454.81,305.425 
  459.414,355.842 464.019,408.848 468.624,463.389 473.229,518.424 477.833,572.949 482.438,626.013 487.043,676.742 491.648,724.347 496.252,768.135 500.857,807.518 
  505.462,842.013 510.067,871.244 514.671,894.94 519.276,912.93 523.881,925.134 528.486,931.563 533.09,932.303 537.695,927.51 542.3,917.405 546.905,902.259 
  551.51,882.392 556.114,858.159 560.719,829.951 565.324,798.183 569.929,763.294 574.533,725.736 579.138,685.979 583.743,644.497 588.348,601.773 592.952,558.292 
  597.557,514.535 602.162,470.978 606.767,428.088 611.371,386.316 615.976,346.09 620.581,307.813 625.186,271.855 629.79,238.547 634.395,208.172 639,180.966 
  643.605,157.108 648.209,136.716 652.814,119.848 657.419,106.501 662.024,96.61 666.629,90.0513 671.233,86.6496 675.838,86.1831 680.443,88.392 685.048,92.988 
  689.652,99.664 694.257,108.105 698.862,117.999 703.467,129.045 708.071,140.964 712.676,153.504 717.281,166.447 721.886,179.613 726.49,192.862 731.095,206.094 
  735.7,219.246 740.305,232.29 744.909,245.231 749.514,258.099 754.119,270.947 758.724,283.84 763.328,296.859 767.933,310.086 772.538,323.612 777.143,337.522 
  781.748,351.901 786.352,366.833 790.957,382.392 795.562,398.653 800.167,415.681 804.771,433.542 809.376,452.294 813.981,471.989 818.586,492.678 823.19,514.401 
  827.795,537.192 832.4,561.074 837.005,586.059 841.609,612.142 846.214,639.303 850.819,667.503 855.424,696.681 860.028,726.756 864.633,757.623 869.238,789.158 
  873.843,821.214 878.448,853.629 883.052,886.224 887.657,918.809 892.262,951.189 896.867,983.163 901.471,1014.54 906.076,1045.12 910.681,1074.73 915.286,1103.2 
  919.89,1130.4 924.495,1156.2 929.1,1180.5 933.705,1203.22 938.309,1224.32 942.914,1243.78 947.519,1261.59 952.124,1277.78 956.728,1292.38 961.333,1305.47 
  965.938,1317.1 970.543,1327.37 975.147,1336.38 979.752,1344.21 984.357,1350.97 988.962,1356.77 993.567,1361.71 998.171,1365.88 1002.78,1369.38 1007.38,1372.29 
  1011.99,1374.69 1016.59,1376.66 1021.2,1378.27 1025.8,1379.57 1030.4,1380.61 1035.01,1381.44 1039.61,1382.09 1044.22,1382.61 1048.82,1383.01 1053.43,1383.31 
  1058.03,1383.55 1062.64,1383.73 1067.24,1383.87 1071.85,1383.97 1076.45,1384.04 1081.06,1384.09 1085.66,1384.12 1090.27,1384.14 1094.87,1384.15 1099.48,1384.14 
  
  "/>
<path clip-path="url(#clip430)" d="
M1285.43 1423.09 L2256.76 1423.09 L2256.76 47.2441 L1285.43 47.2441  Z
  " fill="#ffffff" fill-rule="evenodd" fill-opacity="1"/>
<defs>
  <clipPath id="clip433">
    <rect x="1285" y="47" width="972" height="1377"/>
  </clipPath>
</defs>
<polyline clip-path="url(#clip433)" style="stroke:#000000; stroke-linecap:round; stroke-linejoin:round; stroke-width:2; stroke-opacity:0.1; fill:none" points="
  1319.96,1423.09 1319.96,47.2441 
  "/>
<polyline clip-path="url(#clip433)" style="stroke:#000000; stroke-linecap:round; stroke-linejoin:round; stroke-width:2; stroke-opacity:0.1; fill:none" points="
  1627.97,1423.09 1627.97,47.2441 
  "/>
<polyline clip-path="url(#clip433)" style="stroke:#000000; stroke-linecap:round; stroke-linejoin:round; stroke-width:2; stroke-opacity:0.1; fill:none" points="
  1935.99,1423.09 1935.99,47.2441 
  "/>
<polyline clip-path="url(#clip433)" style="stroke:#000000; stroke-linecap:round; stroke-linejoin:round; stroke-width:2; stroke-opacity:0.1; fill:none" points="
  2244,1423.09 2244,47.2441 
  "/>
<polyline clip-path="url(#clip430)" style="stroke:#000000; stroke-linecap:round; stroke-linejoin:round; stroke-width:4; stroke-opacity:1; fill:none" points="
  1285.43,1423.09 2256.76,1423.09 
  "/>
<polyline clip-path="url(#clip430)" style="stroke:#000000; stroke-linecap:round; stroke-linejoin:round; stroke-width:4; stroke-opacity:1; fill:none" points="
  1319.96,1423.09 1319.96,1404.19 
  "/>
<polyline clip-path="url(#clip430)" style="stroke:#000000; stroke-linecap:round; stroke-linejoin:round; stroke-width:4; stroke-opacity:1; fill:none" points="
  1627.97,1423.09 1627.97,1404.19 
  "/>
<polyline clip-path="url(#clip430)" style="stroke:#000000; stroke-linecap:round; stroke-linejoin:round; stroke-width:4; stroke-opacity:1; fill:none" points="
  1935.99,1423.09 1935.99,1404.19 
  "/>
<polyline clip-path="url(#clip430)" style="stroke:#000000; stroke-linecap:round; stroke-linejoin:round; stroke-width:4; stroke-opacity:1; fill:none" points="
  2244,1423.09 2244,1404.19 
  "/>
<path clip-path="url(#clip430)" d="M1319.96 1453.24 Q1316.35 1453.24 1314.52 1456.8 Q1312.71 1460.35 1312.71 1467.47 Q1312.71 1474.58 1314.52 1478.15 Q1316.35 1481.69 1319.96 1481.69 Q1323.59 1481.69 1325.4 1478.15 Q1327.23 1474.58 1327.23 1467.47 Q1327.23 1460.35 1325.4 1456.8 Q1323.59 1453.24 1319.96 1453.24 M1319.96 1449.53 Q1325.77 1449.53 1328.82 1454.14 Q1331.9 1458.72 1331.9 1467.47 Q1331.9 1476.2 1328.82 1480.81 Q1325.77 1485.39 1319.96 1485.39 Q1314.15 1485.39 1311.07 1480.81 Q1308.01 1476.2 1308.01 1467.47 Q1308.01 1458.72 1311.07 1454.14 Q1314.15 1449.53 1319.96 1449.53 Z" fill="#000000" fill-rule="evenodd" fill-opacity="1" /><path clip-path="url(#clip430)" d="M1618.36 1480.78 L1625.99 1480.78 L1625.99 1454.42 L1617.68 1456.09 L1617.68 1451.83 L1625.95 1450.16 L1630.62 1450.16 L1630.62 1480.78 L1638.26 1480.78 L1638.26 1484.72 L1618.36 1484.72 L1618.36 1480.78 Z" fill="#000000" fill-rule="evenodd" fill-opacity="1" /><path clip-path="url(#clip430)" d="M1930.64 1480.78 L1946.96 1480.78 L1946.96 1484.72 L1925.02 1484.72 L1925.02 1480.78 Q1927.68 1478.03 1932.26 1473.4 Q1936.87 1468.75 1938.05 1467.41 Q1940.29 1464.88 1941.17 1463.15 Q1942.08 1461.39 1942.08 1459.7 Q1942.08 1456.94 1940.13 1455.21 Q1938.21 1453.47 1935.11 1453.47 Q1932.91 1453.47 1930.46 1454.23 Q1928.02 1455 1925.25 1456.55 L1925.25 1451.83 Q1928.07 1450.69 1930.52 1450.11 Q1932.98 1449.53 1935.02 1449.53 Q1940.39 1449.53 1943.58 1452.22 Q1946.77 1454.91 1946.77 1459.4 Q1946.77 1461.53 1945.96 1463.45 Q1945.18 1465.34 1943.07 1467.94 Q1942.49 1468.61 1939.39 1471.83 Q1936.29 1475.02 1930.64 1480.78 Z" fill="#000000" fill-rule="evenodd" fill-opacity="1" /><path clip-path="url(#clip430)" d="M2248.25 1466.09 Q2251.61 1466.8 2253.48 1469.07 Q2255.38 1471.34 2255.38 1474.67 Q2255.38 1479.79 2251.86 1482.59 Q2248.34 1485.39 2241.86 1485.39 Q2239.69 1485.39 2237.37 1484.95 Q2235.08 1484.53 2232.62 1483.68 L2232.62 1479.16 Q2234.57 1480.3 2236.88 1480.88 Q2239.2 1481.46 2241.72 1481.46 Q2246.12 1481.46 2248.41 1479.72 Q2250.73 1477.98 2250.73 1474.67 Q2250.73 1471.62 2248.57 1469.91 Q2246.44 1468.17 2242.62 1468.17 L2238.6 1468.17 L2238.6 1464.33 L2242.81 1464.33 Q2246.26 1464.33 2248.09 1462.96 Q2249.92 1461.57 2249.92 1458.98 Q2249.92 1456.32 2248.02 1454.91 Q2246.14 1453.47 2242.62 1453.47 Q2240.7 1453.47 2238.5 1453.89 Q2236.31 1454.3 2233.67 1455.18 L2233.67 1451.02 Q2236.33 1450.28 2238.64 1449.91 Q2240.98 1449.53 2243.04 1449.53 Q2248.37 1449.53 2251.47 1451.97 Q2254.57 1454.37 2254.57 1458.49 Q2254.57 1461.36 2252.93 1463.35 Q2251.28 1465.32 2248.25 1466.09 Z" fill="#000000" fill-rule="evenodd" fill-opacity="1" /><polyline clip-path="url(#clip433)" style="stroke:#000000; stroke-linecap:round; stroke-linejoin:round; stroke-width:2; stroke-opacity:0.1; fill:none" points="
  1285.43,1384.16 2256.76,1384.16 
  "/>
<polyline clip-path="url(#clip433)" style="stroke:#000000; stroke-linecap:round; stroke-linejoin:round; stroke-width:2; stroke-opacity:0.1; fill:none" points="
  1285.43,1039.07 2256.76,1039.07 
  "/>
<polyline clip-path="url(#clip433)" style="stroke:#000000; stroke-linecap:round; stroke-linejoin:round; stroke-width:2; stroke-opacity:0.1; fill:none" points="
  1285.43,693.986 2256.76,693.986 
  "/>
<polyline clip-path="url(#clip433)" style="stroke:#000000; stroke-linecap:round; stroke-linejoin:round; stroke-width:2; stroke-opacity:0.1; fill:none" points="
  1285.43,348.898 2256.76,348.898 
  "/>
<polyline clip-path="url(#clip430)" style="stroke:#000000; stroke-linecap:round; stroke-linejoin:round; stroke-width:4; stroke-opacity:1; fill:none" points="
  1285.43,1423.09 1285.43,47.2441 
  "/>
<polyline clip-path="url(#clip430)" style="stroke:#000000; stroke-linecap:round; stroke-linejoin:round; stroke-width:4; stroke-opacity:1; fill:none" points="
  1285.43,1384.16 1304.33,1384.16 
  "/>
<polyline clip-path="url(#clip430)" style="stroke:#000000; stroke-linecap:round; stroke-linejoin:round; stroke-width:4; stroke-opacity:1; fill:none" points="
  1285.43,1039.07 1304.33,1039.07 
  "/>
<polyline clip-path="url(#clip430)" style="stroke:#000000; stroke-linecap:round; stroke-linejoin:round; stroke-width:4; stroke-opacity:1; fill:none" points="
  1285.43,693.986 1304.33,693.986 
  "/>
<polyline clip-path="url(#clip430)" style="stroke:#000000; stroke-linecap:round; stroke-linejoin:round; stroke-width:4; stroke-opacity:1; fill:none" points="
  1285.43,348.898 1304.33,348.898 
  "/>
<path clip-path="url(#clip430)" d="M1238.92 1369.96 Q1235.31 1369.96 1233.48 1373.52 Q1231.68 1377.07 1231.68 1384.2 Q1231.68 1391.3 1233.48 1394.87 Q1235.31 1398.41 1238.92 1398.41 Q1242.56 1398.41 1244.36 1394.87 Q1246.19 1391.3 1246.19 1384.2 Q1246.19 1377.07 1244.36 1373.52 Q1242.56 1369.96 1238.92 1369.96 M1238.92 1366.26 Q1244.73 1366.26 1247.79 1370.86 Q1250.87 1375.45 1250.87 1384.2 Q1250.87 1392.92 1247.79 1397.53 Q1244.73 1402.11 1238.92 1402.11 Q1233.11 1402.11 1230.03 1397.53 Q1226.98 1392.92 1226.98 1384.2 Q1226.98 1375.45 1230.03 1370.86 Q1233.11 1366.26 1238.92 1366.26 Z" fill="#000000" fill-rule="evenodd" fill-opacity="1" /><path clip-path="url(#clip430)" d="M1234.55 1052.42 L1250.87 1052.42 L1250.87 1056.35 L1228.92 1056.35 L1228.92 1052.42 Q1231.59 1049.66 1236.17 1045.03 Q1240.78 1040.38 1241.96 1039.04 Q1244.2 1036.52 1245.08 1034.78 Q1245.98 1033.02 1245.98 1031.33 Q1245.98 1028.58 1244.04 1026.84 Q1242.12 1025.1 1239.02 1025.1 Q1236.82 1025.1 1234.36 1025.87 Q1231.93 1026.63 1229.15 1028.18 L1229.15 1023.46 Q1231.98 1022.33 1234.43 1021.75 Q1236.89 1021.17 1238.92 1021.17 Q1244.29 1021.17 1247.49 1023.85 Q1250.68 1026.54 1250.68 1031.03 Q1250.68 1033.16 1249.87 1035.08 Q1249.09 1036.98 1246.98 1039.57 Q1246.4 1040.24 1243.3 1043.46 Q1240.2 1046.65 1234.55 1052.42 Z" fill="#000000" fill-rule="evenodd" fill-opacity="1" /><path clip-path="url(#clip430)" d="M1241.28 680.78 L1229.48 699.229 L1241.28 699.229 L1241.28 680.78 M1240.06 676.706 L1245.94 676.706 L1245.94 699.229 L1250.87 699.229 L1250.87 703.118 L1245.94 703.118 L1245.94 711.266 L1241.28 711.266 L1241.28 703.118 L1225.68 703.118 L1225.68 698.604 L1240.06 676.706 Z" fill="#000000" fill-rule="evenodd" fill-opacity="1" /><path clip-path="url(#clip430)" d="M1239.34 347.035 Q1236.19 347.035 1234.34 349.188 Q1232.51 351.34 1232.51 355.09 Q1232.51 358.817 1234.34 360.993 Q1236.19 363.146 1239.34 363.146 Q1242.49 363.146 1244.32 360.993 Q1246.17 358.817 1246.17 355.09 Q1246.17 351.34 1244.32 349.188 Q1242.49 347.035 1239.34 347.035 M1248.62 332.382 L1248.62 336.641 Q1246.86 335.808 1245.06 335.368 Q1243.28 334.928 1241.52 334.928 Q1236.89 334.928 1234.43 338.053 Q1232 341.178 1231.65 347.498 Q1233.02 345.484 1235.08 344.419 Q1237.14 343.331 1239.62 343.331 Q1244.83 343.331 1247.84 346.502 Q1250.87 349.651 1250.87 355.09 Q1250.87 360.414 1247.72 363.632 Q1244.57 366.85 1239.34 366.85 Q1233.34 366.85 1230.17 362.266 Q1227 357.66 1227 348.933 Q1227 340.739 1230.89 335.877 Q1234.78 330.993 1241.33 330.993 Q1243.09 330.993 1244.87 331.34 Q1246.68 331.688 1248.62 332.382 Z" fill="#000000" fill-rule="evenodd" fill-opacity="1" /><polyline clip-path="url(#clip433)" style="stroke:#009af9; stroke-linecap:round; stroke-linejoin:round; stroke-width:4; stroke-opacity:1; fill:none" points="
  1312.92,1384.07 1314.07,1384.03 1315.23,1383.96 1316.38,1383.85 1317.54,1383.68 1318.69,1383.43 1319.84,1383.07 1321,1382.55 1322.15,1381.82 1323.31,1380.8 
  1324.46,1379.42 1325.61,1377.56 1326.77,1375.1 1327.92,1371.92 1329.08,1367.86 1330.23,1362.78 1331.39,1356.52 1332.54,1348.96 1333.69,1339.99 1334.85,1329.56 
  1336,1317.64 1337.16,1304.33 1338.31,1289.75 1339.47,1274.15 1340.62,1257.85 1341.77,1241.26 1342.93,1224.82 1344.08,1209.07 1345.24,1194.5 1346.39,1181.6 
  1347.54,1170.8 1348.7,1162.39 1349.85,1156.54 1351.01,1153.22 1352.16,1152.2 1353.32,1153.03 1354.47,1155.02 1355.62,1157.29 1356.78,1158.73 1357.93,1158.1 
  1359.09,1154.05 1360.24,1145.16 1361.4,1130.06 1362.55,1107.45 1363.7,1076.25 1364.86,1035.62 1366.01,985.122 1367.17,924.745 1368.32,854.996 1369.48,776.94 
  1370.63,692.213 1371.78,603.002 1372.94,511.977 1374.09,422.189 1375.25,336.919 1376.4,259.508 1377.55,193.155 1378.71,140.716 1379.86,104.514 1381.02,86.1831 
  1382.17,86.545 1383.33,105.555 1384.48,142.299 1385.63,195.058 1386.79,261.425 1387.94,338.468 1389.1,422.917 1390.25,511.371 1391.41,600.493 1392.56,687.192 
  1393.71,768.764 1394.87,843.006 1396.02,908.284 1397.18,963.553 1398.33,1008.35 1399.49,1042.77 1400.64,1067.35 1401.79,1083.06 1402.95,1091.15 1404.1,1093.1 
  1405.26,1090.51 1406.41,1084.98 1407.56,1078.09 1408.72,1071.26 1409.87,1065.72 1411.03,1062.48 1412.18,1062.26 1413.34,1065.46 1414.49,1072.22 1415.64,1082.37 
  1416.8,1095.49 1417.95,1110.96 1419.11,1127.98 1420.26,1145.66 1421.42,1163.06 1422.57,1179.25 1423.72,1193.36 1424.88,1204.66 1426.03,1212.53 1427.19,1216.58 
  1428.34,1216.58 1429.5,1212.55 1430.65,1204.69 1431.8,1193.43 1432.96,1179.36 1434.11,1163.24 1435.27,1145.97 1436.42,1128.47 1437.57,1111.75 1438.73,1096.74 
  1439.88,1084.32 1441.04,1075.22 1442.19,1070 1443.35,1069.04 1444.5,1072.46 1445.65,1080.19 1446.81,1091.91 1447.96,1107.16 1449.12,1125.28 1450.27,1145.56 
  1451.43,1167.19 1452.58,1189.39 1453.73,1211.41 1454.89,1232.57 1456.04,1252.33 1457.2,1270.23 1458.35,1286 1459.51,1299.46 1460.66,1310.57 1461.81,1319.41 
  1462.97,1326.14 1464.12,1330.99 1465.28,1334.24 1466.43,1336.21 1467.58,1337.2 1468.74,1337.53 1469.89,1337.48 1471.05,1337.31 1472.2,1337.22 1473.36,1337.39 
  1474.51,1337.91 1475.66,1338.87 1476.82,1340.26 1477.97,1342.06 1479.13,1344.21 1480.28,1346.6 1481.44,1349.12 1482.59,1351.64 1483.74,1354.04 1484.9,1356.18 
  1486.05,1357.95 1487.21,1359.26 1488.36,1360.05 1489.52,1360.27 1490.67,1359.9 1491.82,1358.98 1492.98,1357.54 1494.13,1355.67 1495.29,1353.47 1496.44,1351.05 
  1497.59,1348.55 1498.75,1346.11 1499.9,1343.87 1501.06,1341.95 1502.21,1340.47 1503.37,1339.52 1504.52,1339.16 1505.67,1339.43 1506.83,1340.33 1507.98,1341.83 
  1509.14,1343.87 1510.29,1346.37 1511.45,1349.23 1512.6,1352.35 1513.75,1355.61 1514.91,1358.92 1516.06,1362.17 1517.22,1365.29 1518.37,1368.2 1519.52,1370.86 
  1520.68,1373.24 1521.83,1375.33 1522.99,1377.12 1524.14,1378.63 1525.3,1379.88 1526.45,1380.9 1527.6,1381.71 1528.76,1382.35 1529.91,1382.84 1531.07,1383.21 
  1532.22,1383.49 1533.38,1383.69 1534.53,1383.84 1535.68,1383.94 1536.84,1384.01 1537.99,1384.06 1539.15,1384.09 1540.3,1384.1 1541.46,1384.11 1542.61,1384.1 
  
  "/>
<polyline clip-path="url(#clip433)" style="stroke:#e26f46; stroke-linecap:round; stroke-linejoin:round; stroke-width:4; stroke-opacity:1; fill:none" points="
  1527.7,1384.12 1529.94,1384.1 1532.19,1384.08 1534.43,1384.05 1536.68,1384 1538.93,1383.94 1541.17,1383.86 1543.42,1383.75 1545.66,1383.61 1547.91,1383.43 
  1550.16,1383.19 1552.4,1382.89 1554.65,1382.5 1556.89,1382.01 1559.14,1381.39 1561.39,1380.64 1563.63,1379.7 1565.88,1378.57 1568.13,1377.2 1570.37,1375.57 
  1572.62,1373.64 1574.86,1371.38 1577.11,1368.74 1579.36,1365.71 1581.6,1362.26 1583.85,1358.36 1586.09,1354 1588.34,1349.17 1590.59,1343.88 1592.83,1338.14 
  1595.08,1331.98 1597.32,1325.43 1599.57,1318.56 1601.82,1311.41 1604.06,1304.08 1606.31,1296.63 1608.55,1289.17 1610.8,1281.79 1613.05,1274.59 1615.29,1267.67 
  1617.54,1261.11 1619.78,1255.01 1622.03,1249.44 1624.28,1244.45 1626.52,1240.08 1628.77,1236.37 1631.01,1233.32 1633.26,1230.91 1635.51,1229.1 1637.75,1227.86 
  1640,1227.1 1642.25,1226.75 1644.49,1226.72 1646.74,1226.9 1648.98,1227.19 1651.23,1227.49 1653.48,1227.67 1655.72,1227.64 1657.97,1227.31 1660.21,1226.58 
  1662.46,1225.36 1664.71,1223.6 1666.95,1221.22 1669.2,1218.2 1671.44,1214.5 1673.69,1210.09 1675.94,1204.98 1678.18,1199.18 1680.43,1192.71 1682.67,1185.61 
  1684.92,1177.94 1687.17,1169.77 1689.41,1161.16 1691.66,1152.23 1693.9,1143.07 1696.15,1133.79 1698.4,1124.51 1700.64,1115.36 1702.89,1106.46 1705.13,1097.94 
  1707.38,1089.92 1709.63,1082.5 1711.87,1075.8 1714.12,1069.87 1716.37,1064.8 1718.61,1060.63 1720.86,1057.37 1723.1,1055.03 1725.35,1053.58 1727.6,1052.97 
  1729.84,1053.15 1732.09,1054.03 1734.33,1055.52 1736.58,1057.52 1738.83,1059.93 1741.07,1062.64 1743.32,1065.55 1745.56,1068.58 1747.81,1071.66 1750.06,1074.71 
  1752.3,1077.71 1754.55,1080.63 1756.79,1083.47 1759.04,1086.25 1761.29,1089 1763.53,1091.77 1765.78,1094.61 1768.02,1097.61 1770.27,1100.83 1772.52,1104.34 
  1774.76,1108.23 1777.01,1112.54 1779.25,1117.33 1781.5,1122.65 1783.75,1128.52 1785.99,1134.94 1788.24,1141.91 1790.49,1149.4 1792.73,1157.38 1794.98,1165.79 
  1797.22,1174.56 1799.47,1183.63 1801.72,1192.92 1803.96,1202.34 1806.21,1211.8 1808.45,1221.23 1810.7,1230.56 1812.95,1239.7 1815.19,1248.6 1817.44,1257.19 
  1819.68,1265.44 1821.93,1273.3 1824.18,1280.75 1826.42,1287.77 1828.67,1294.34 1830.91,1300.46 1833.16,1306.14 1835.41,1311.38 1837.65,1316.19 1839.9,1320.6 
  1842.14,1324.63 1844.39,1328.3 1846.64,1331.64 1848.88,1334.67 1851.13,1337.42 1853.37,1339.94 1855.62,1342.24 1857.87,1344.35 1860.11,1346.31 1862.36,1348.13 
  1864.61,1349.85 1866.85,1351.49 1869.1,1353.07 1871.34,1354.6 1873.59,1356.11 1875.84,1357.59 1878.08,1359.06 1880.33,1360.52 1882.57,1361.98 1884.82,1363.43 
  1887.07,1364.87 1889.31,1366.29 1891.56,1367.7 1893.8,1369.07 1896.05,1370.41 1898.3,1371.71 1900.54,1372.95 1902.79,1374.13 1905.03,1375.24 1907.28,1376.29 
  1909.53,1377.26 1911.77,1378.15 1914.02,1378.96 1916.26,1379.7 1918.51,1380.36 1920.76,1380.94 1923,1381.46 1925.25,1381.91 1927.49,1382.3 1929.74,1382.63 
  1931.99,1382.91 1934.23,1383.15 1936.48,1383.35 1938.72,1383.52 1940.97,1383.65 1943.22,1383.76 1945.46,1383.85 1947.71,1383.92 1949.96,1383.98 1952.2,1384.02 
  1954.45,1384.06 1956.69,1384.08 1958.94,1384.1 1961.19,1384.12 1963.43,1384.13 1965.68,1384.13 1967.92,1384.14 1970.17,1384.14 1972.42,1384.13 1974.66,1384.13 
  
  "/>
<polyline clip-path="url(#clip433)" style="stroke:#3da44d; stroke-linecap:round; stroke-linejoin:round; stroke-width:4; stroke-opacity:1; fill:none" points="
  1611.91,1384.15 1615.01,1384.15 1618.11,1384.15 1621.22,1384.15 1624.32,1384.14 1627.42,1384.14 1630.52,1384.13 1633.62,1384.12 1636.73,1384.1 1639.83,1384.08 
  1642.93,1384.06 1646.03,1384.02 1649.14,1383.98 1652.24,1383.92 1655.34,1383.85 1658.44,1383.76 1661.55,1383.65 1664.65,1383.52 1667.75,1383.35 1670.85,1383.16 
  1673.95,1382.92 1677.06,1382.63 1680.16,1382.29 1683.26,1381.89 1686.36,1381.43 1689.47,1380.89 1692.57,1380.27 1695.67,1379.57 1698.77,1378.77 1701.88,1377.88 
  1704.98,1376.89 1708.08,1375.79 1711.18,1374.59 1714.28,1373.29 1717.39,1371.88 1720.49,1370.38 1723.59,1368.79 1726.69,1367.11 1729.8,1365.35 1732.9,1363.54 
  1736,1361.67 1739.1,1359.77 1742.2,1357.86 1745.31,1355.93 1748.41,1354.03 1751.51,1352.14 1754.61,1350.31 1757.72,1348.52 1760.82,1346.8 1763.92,1345.15 
  1767.02,1343.57 1770.13,1342.06 1773.23,1340.6 1776.33,1339.2 1779.43,1337.82 1782.53,1336.45 1785.64,1335.04 1788.74,1333.57 1791.84,1331.99 1794.94,1330.26 
  1798.05,1328.32 1801.15,1326.12 1804.25,1323.61 1807.35,1320.74 1810.46,1317.47 1813.56,1313.75 1816.66,1309.54 1819.76,1304.83 1822.86,1299.59 1825.97,1293.84 
  1829.07,1287.57 1832.17,1280.81 1835.27,1273.62 1838.38,1266.04 1841.48,1258.15 1844.58,1250.03 1847.68,1241.78 1850.79,1233.49 1853.89,1225.27 1856.99,1217.24 
  1860.09,1209.49 1863.19,1202.12 1866.3,1195.24 1869.4,1188.91 1872.5,1183.2 1875.6,1178.17 1878.71,1173.85 1881.81,1170.25 1884.91,1167.37 1888.01,1165.2 
  1891.12,1163.69 1894.22,1162.81 1897.32,1162.5 1900.42,1162.69 1903.52,1163.32 1906.63,1164.32 1909.73,1165.63 1912.83,1167.17 1915.93,1168.89 1919.04,1170.74 
  1922.14,1172.67 1925.24,1174.65 1928.34,1176.65 1931.45,1178.64 1934.55,1180.62 1937.65,1182.57 1940.75,1184.48 1943.85,1186.36 1946.96,1188.21 1950.06,1190.01 
  1953.16,1191.76 1956.26,1193.47 1959.37,1195.11 1962.47,1196.69 1965.57,1198.18 1968.67,1199.58 1971.77,1200.86 1974.88,1202.02 1977.98,1203.05 1981.08,1203.92 
  1984.18,1204.65 1987.29,1205.24 1990.39,1205.68 1993.49,1206 1996.59,1206.22 1999.7,1206.37 2002.8,1206.49 2005.9,1206.62 2009,1206.8 2012.1,1207.08 
  2015.21,1207.52 2018.31,1208.16 2021.41,1209.05 2024.51,1210.23 2027.62,1211.72 2030.72,1213.57 2033.82,1215.78 2036.92,1218.37 2040.03,1221.34 2043.13,1224.68 
  2046.23,1228.38 2049.33,1232.41 2052.43,1236.74 2055.54,1241.36 2058.64,1246.21 2061.74,1251.28 2064.84,1256.51 2067.95,1261.88 2071.05,1267.35 2074.15,1272.89 
  2077.25,1278.48 2080.36,1284.08 2083.46,1289.66 2086.56,1295.22 2089.66,1300.72 2092.76,1306.15 2095.87,1311.48 2098.97,1316.7 2102.07,1321.79 2105.17,1326.74 
  2108.28,1331.52 2111.38,1336.12 2114.48,1340.53 2117.58,1344.73 2120.69,1348.71 2123.79,1352.45 2126.89,1355.96 2129.99,1359.23 2133.09,1362.24 2136.2,1365.01 
  2139.3,1367.53 2142.4,1369.81 2145.5,1371.86 2148.61,1373.68 2151.71,1375.3 2154.81,1376.71 2157.91,1377.95 2161.01,1379.01 2164.12,1379.92 2167.22,1380.7 
  2170.32,1381.35 2173.42,1381.9 2176.53,1382.35 2179.63,1382.73 2182.73,1383.03 2185.83,1383.28 2188.94,1383.48 2192.04,1383.63 2195.14,1383.76 2198.24,1383.86 
  2201.34,1383.93 2204.45,1383.99 2207.55,1384.03 2210.65,1384.07 2213.75,1384.09 2216.86,1384.11 2219.96,1384.12 2223.06,1384.13 2226.16,1384.14 2229.27,1384.15 
  
  "/>
<path clip-path="url(#clip430)" d="
M1897.34 300.466 L2224.38 300.466 L2224.38 93.1056 L1897.34 93.1056  Z
  " fill="#ffffff" fill-rule="evenodd" fill-opacity="1"/>
<polyline clip-path="url(#clip430)" style="stroke:#000000; stroke-linecap:round; stroke-linejoin:round; stroke-width:4; stroke-opacity:1; fill:none" points="
  1897.34,300.466 2224.38,300.466 2224.38,93.1056 1897.34,93.1056 1897.34,300.466 
  "/>
<polyline clip-path="url(#clip430)" style="stroke:#009af9; stroke-linecap:round; stroke-linejoin:round; stroke-width:4; stroke-opacity:1; fill:none" points="
  1908.13,144.946 1972.89,144.946 
  "/>
<path clip-path="url(#clip430)" d="M2002.11 137.064 L2002.11 141.091 Q2000.3 140.165 1998.36 139.703 Q1996.41 139.24 1994.33 139.24 Q1991.16 139.24 1989.56 140.212 Q1987.99 141.184 1987.99 143.128 Q1987.99 144.61 1989.12 145.466 Q1990.25 146.3 1993.68 147.064 L1995.14 147.388 Q1999.67 148.36 2001.57 150.142 Q2003.49 151.902 2003.49 155.073 Q2003.49 158.684 2000.62 160.79 Q1997.78 162.897 1992.78 162.897 Q1990.69 162.897 1988.42 162.48 Q1986.18 162.087 1983.68 161.276 L1983.68 156.878 Q1986.04 158.105 1988.33 158.73 Q1990.62 159.332 1992.87 159.332 Q1995.88 159.332 1997.5 158.314 Q1999.12 157.272 1999.12 155.397 Q1999.12 153.661 1997.94 152.735 Q1996.78 151.809 1992.82 150.952 L1991.34 150.605 Q1987.38 149.772 1985.62 148.059 Q1983.86 146.323 1983.86 143.314 Q1983.86 139.656 1986.46 137.666 Q1989.05 135.675 1993.82 135.675 Q1996.18 135.675 1998.26 136.022 Q2000.35 136.369 2002.11 137.064 Z" fill="#000000" fill-rule="evenodd" fill-opacity="1" /><path clip-path="url(#clip430)" d="M2032.45 148.198 L2032.45 150.281 L2012.87 150.281 Q2013.15 154.679 2015.51 156.994 Q2017.89 159.286 2022.13 159.286 Q2024.58 159.286 2026.87 158.684 Q2029.19 158.082 2031.46 156.878 L2031.46 160.906 Q2029.17 161.878 2026.76 162.388 Q2024.35 162.897 2021.87 162.897 Q2015.67 162.897 2012.04 159.286 Q2008.42 155.675 2008.42 149.517 Q2008.42 143.152 2011.85 139.425 Q2015.3 135.675 2021.13 135.675 Q2026.36 135.675 2029.4 139.054 Q2032.45 142.411 2032.45 148.198 M2028.19 146.948 Q2028.15 143.453 2026.23 141.369 Q2024.33 139.286 2021.18 139.286 Q2017.61 139.286 2015.46 141.3 Q2013.33 143.314 2013.01 146.971 L2028.19 146.948 Z" fill="#000000" fill-rule="evenodd" fill-opacity="1" /><path clip-path="url(#clip430)" d="M2043.66 128.939 L2043.66 136.3 L2052.43 136.3 L2052.43 139.61 L2043.66 139.61 L2043.66 153.684 Q2043.66 156.855 2044.51 157.758 Q2045.39 158.661 2048.05 158.661 L2052.43 158.661 L2052.43 162.226 L2048.05 162.226 Q2043.12 162.226 2041.25 160.397 Q2039.37 158.545 2039.37 153.684 L2039.37 139.61 L2036.25 139.61 L2036.25 136.3 L2039.37 136.3 L2039.37 128.939 L2043.66 128.939 Z" fill="#000000" fill-rule="evenodd" fill-opacity="1" /><path clip-path="url(#clip430)" d="M2068.08 139.286 Q2064.65 139.286 2062.66 141.971 Q2060.67 144.633 2060.67 149.286 Q2060.67 153.939 2062.64 156.624 Q2064.63 159.286 2068.08 159.286 Q2071.48 159.286 2073.47 156.601 Q2075.46 153.915 2075.46 149.286 Q2075.46 144.679 2073.47 141.994 Q2071.48 139.286 2068.08 139.286 M2068.08 135.675 Q2073.63 135.675 2076.8 139.286 Q2079.98 142.897 2079.98 149.286 Q2079.98 155.652 2076.8 159.286 Q2073.63 162.897 2068.08 162.897 Q2062.5 162.897 2059.33 159.286 Q2056.18 155.652 2056.18 149.286 Q2056.18 142.897 2059.33 139.286 Q2062.5 135.675 2068.08 135.675 Z" fill="#000000" fill-rule="evenodd" fill-opacity="1" /><path clip-path="url(#clip430)" d="M2103.56 137.064 L2103.56 141.091 Q2101.76 140.165 2099.81 139.703 Q2097.87 139.24 2095.79 139.24 Q2092.61 139.24 2091.02 140.212 Q2089.44 141.184 2089.44 143.128 Q2089.44 144.61 2090.58 145.466 Q2091.71 146.3 2095.14 147.064 L2096.6 147.388 Q2101.13 148.36 2103.03 150.142 Q2104.95 151.902 2104.95 155.073 Q2104.95 158.684 2102.08 160.79 Q2099.23 162.897 2094.23 162.897 Q2092.15 162.897 2089.88 162.48 Q2087.64 162.087 2085.14 161.276 L2085.14 156.878 Q2087.5 158.105 2089.79 158.73 Q2092.08 159.332 2094.33 159.332 Q2097.34 159.332 2098.96 158.314 Q2100.58 157.272 2100.58 155.397 Q2100.58 153.661 2099.4 152.735 Q2098.24 151.809 2094.28 150.952 L2092.8 150.605 Q2088.84 149.772 2087.08 148.059 Q2085.32 146.323 2085.32 143.314 Q2085.32 139.656 2087.92 137.666 Q2090.51 135.675 2095.28 135.675 Q2097.64 135.675 2099.72 136.022 Q2101.8 136.369 2103.56 137.064 Z" fill="#000000" fill-rule="evenodd" fill-opacity="1" /><path clip-path="url(#clip430)" d="M2123.52 149.193 Q2118.35 149.193 2116.36 150.374 Q2114.37 151.554 2114.37 154.402 Q2114.37 156.67 2115.85 158.013 Q2117.36 159.332 2119.93 159.332 Q2123.47 159.332 2125.6 156.832 Q2127.75 154.309 2127.75 150.142 L2127.75 149.193 L2123.52 149.193 M2132.01 147.434 L2132.01 162.226 L2127.75 162.226 L2127.75 158.29 Q2126.29 160.651 2124.12 161.786 Q2121.94 162.897 2118.79 162.897 Q2114.81 162.897 2112.45 160.675 Q2110.11 158.429 2110.11 154.679 Q2110.11 150.304 2113.03 148.082 Q2115.97 145.86 2121.78 145.86 L2127.75 145.86 L2127.75 145.443 Q2127.75 142.503 2125.81 140.906 Q2123.89 139.286 2120.39 139.286 Q2118.17 139.286 2116.06 139.818 Q2113.96 140.351 2112.01 141.415 L2112.01 137.48 Q2114.35 136.578 2116.55 136.138 Q2118.75 135.675 2120.83 135.675 Q2126.46 135.675 2129.23 138.591 Q2132.01 141.508 2132.01 147.434 Z" fill="#000000" fill-rule="evenodd" fill-opacity="1" /><polyline clip-path="url(#clip430)" style="stroke:#e26f46; stroke-linecap:round; stroke-linejoin:round; stroke-width:4; stroke-opacity:1; fill:none" points="
  1908.13,196.786 1972.89,196.786 
  "/>
<path clip-path="url(#clip430)" d="M1983.68 188.14 L1988.19 188.14 L1996.3 209.899 L2004.4 188.14 L2008.91 188.14 L1999.19 214.066 L1993.4 214.066 L1983.68 188.14 Z" fill="#000000" fill-rule="evenodd" fill-opacity="1" /><path clip-path="url(#clip430)" d="M2036.97 200.038 L2036.97 202.121 L2017.38 202.121 Q2017.66 206.519 2020.02 208.834 Q2022.41 211.126 2026.64 211.126 Q2029.1 211.126 2031.39 210.524 Q2033.7 209.922 2035.97 208.718 L2035.97 212.746 Q2033.68 213.718 2031.27 214.228 Q2028.86 214.737 2026.39 214.737 Q2020.18 214.737 2016.55 211.126 Q2012.94 207.515 2012.94 201.357 Q2012.94 194.992 2016.36 191.265 Q2019.81 187.515 2025.65 187.515 Q2030.88 187.515 2033.91 190.894 Q2036.97 194.251 2036.97 200.038 M2032.71 198.788 Q2032.66 195.293 2030.74 193.209 Q2028.84 191.126 2025.69 191.126 Q2022.13 191.126 2019.98 193.14 Q2017.85 195.154 2017.52 198.811 L2032.71 198.788 Z" fill="#000000" fill-rule="evenodd" fill-opacity="1" /><path clip-path="url(#clip430)" d="M2058.98 192.121 Q2058.26 191.705 2057.41 191.519 Q2056.57 191.311 2055.55 191.311 Q2051.94 191.311 2050 193.672 Q2048.08 196.01 2048.08 200.408 L2048.08 214.066 L2043.8 214.066 L2043.8 188.14 L2048.08 188.14 L2048.08 192.168 Q2049.42 189.806 2051.57 188.672 Q2053.73 187.515 2056.8 187.515 Q2057.24 187.515 2057.78 187.584 Q2058.31 187.631 2058.96 187.746 L2058.98 192.121 Z" fill="#000000" fill-rule="evenodd" fill-opacity="1" /><path clip-path="url(#clip430)" d="M2079.98 188.904 L2079.98 192.931 Q2078.17 192.005 2076.23 191.543 Q2074.28 191.08 2072.2 191.08 Q2069.03 191.08 2067.43 192.052 Q2065.86 193.024 2065.86 194.968 Q2065.86 196.45 2066.99 197.306 Q2068.12 198.14 2071.55 198.904 L2073.01 199.228 Q2077.54 200.2 2079.44 201.982 Q2081.36 203.742 2081.36 206.913 Q2081.36 210.524 2078.49 212.63 Q2075.65 214.737 2070.65 214.737 Q2068.56 214.737 2066.29 214.32 Q2064.05 213.927 2061.55 213.116 L2061.55 208.718 Q2063.91 209.945 2066.2 210.57 Q2068.49 211.172 2070.74 211.172 Q2073.75 211.172 2075.37 210.154 Q2076.99 209.112 2076.99 207.237 Q2076.99 205.501 2075.81 204.575 Q2074.65 203.649 2070.69 202.792 L2069.21 202.445 Q2065.25 201.612 2063.49 199.899 Q2061.73 198.163 2061.73 195.154 Q2061.73 191.496 2064.33 189.506 Q2066.92 187.515 2071.69 187.515 Q2074.05 187.515 2076.13 187.862 Q2078.22 188.209 2079.98 188.904 Z" fill="#000000" fill-rule="evenodd" fill-opacity="1" /><path clip-path="url(#clip430)" d="M2088.15 188.14 L2092.41 188.14 L2092.41 214.066 L2088.15 214.066 L2088.15 188.14 M2088.15 178.047 L2092.41 178.047 L2092.41 183.441 L2088.15 183.441 L2088.15 178.047 Z" fill="#000000" fill-rule="evenodd" fill-opacity="1" /><path clip-path="url(#clip430)" d="M2119.98 189.135 L2119.98 193.117 Q2118.17 192.121 2116.34 191.635 Q2114.54 191.126 2112.68 191.126 Q2108.54 191.126 2106.25 193.765 Q2103.96 196.38 2103.96 201.126 Q2103.96 205.871 2106.25 208.51 Q2108.54 211.126 2112.68 211.126 Q2114.54 211.126 2116.34 210.64 Q2118.17 210.13 2119.98 209.135 L2119.98 213.07 Q2118.19 213.904 2116.27 214.32 Q2114.37 214.737 2112.22 214.737 Q2106.36 214.737 2102.92 211.056 Q2099.47 207.376 2099.47 201.126 Q2099.47 194.783 2102.94 191.149 Q2106.43 187.515 2112.5 187.515 Q2114.47 187.515 2116.34 187.931 Q2118.22 188.325 2119.98 189.135 Z" fill="#000000" fill-rule="evenodd" fill-opacity="1" /><path clip-path="url(#clip430)" d="M2137.43 191.126 Q2134 191.126 2132.01 193.811 Q2130.02 196.473 2130.02 201.126 Q2130.02 205.779 2131.99 208.464 Q2133.98 211.126 2137.43 211.126 Q2140.83 211.126 2142.82 208.441 Q2144.81 205.755 2144.81 201.126 Q2144.81 196.519 2142.82 193.834 Q2140.83 191.126 2137.43 191.126 M2137.43 187.515 Q2142.98 187.515 2146.16 191.126 Q2149.33 194.737 2149.33 201.126 Q2149.33 207.492 2146.16 211.126 Q2142.98 214.737 2137.43 214.737 Q2131.85 214.737 2128.68 211.126 Q2125.53 207.492 2125.53 201.126 Q2125.53 194.737 2128.68 191.126 Q2131.85 187.515 2137.43 187.515 Z" fill="#000000" fill-rule="evenodd" fill-opacity="1" /><path clip-path="url(#clip430)" d="M2156.39 178.047 L2160.65 178.047 L2160.65 214.066 L2156.39 214.066 L2156.39 178.047 Z" fill="#000000" fill-rule="evenodd" fill-opacity="1" /><path clip-path="url(#clip430)" d="M2179.6 191.126 Q2176.18 191.126 2174.19 193.811 Q2172.2 196.473 2172.2 201.126 Q2172.2 205.779 2174.16 208.464 Q2176.16 211.126 2179.6 211.126 Q2183.01 211.126 2185 208.441 Q2186.99 205.755 2186.99 201.126 Q2186.99 196.519 2185 193.834 Q2183.01 191.126 2179.6 191.126 M2179.6 187.515 Q2185.16 187.515 2188.33 191.126 Q2191.5 194.737 2191.5 201.126 Q2191.5 207.492 2188.33 211.126 Q2185.16 214.737 2179.6 214.737 Q2174.03 214.737 2170.85 211.126 Q2167.71 207.492 2167.71 201.126 Q2167.71 194.737 2170.85 191.126 Q2174.03 187.515 2179.6 187.515 Z" fill="#000000" fill-rule="evenodd" fill-opacity="1" /><path clip-path="url(#clip430)" d="M2213.59 192.121 Q2212.87 191.705 2212.01 191.519 Q2211.18 191.311 2210.16 191.311 Q2206.55 191.311 2204.6 193.672 Q2202.68 196.01 2202.68 200.408 L2202.68 214.066 L2198.4 214.066 L2198.4 188.14 L2202.68 188.14 L2202.68 192.168 Q2204.03 189.806 2206.18 188.672 Q2208.33 187.515 2211.41 187.515 Q2211.85 187.515 2212.38 187.584 Q2212.91 187.631 2213.56 187.746 L2213.59 192.121 Z" fill="#000000" fill-rule="evenodd" fill-opacity="1" /><polyline clip-path="url(#clip430)" style="stroke:#3da44d; stroke-linecap:round; stroke-linejoin:round; stroke-width:4; stroke-opacity:1; fill:none" points="
  1908.13,248.626 1972.89,248.626 
  "/>
<path clip-path="url(#clip430)" d="M1983.68 239.98 L1988.19 239.98 L1996.3 261.739 L2004.4 239.98 L2008.91 239.98 L1999.19 265.906 L1993.4 265.906 L1983.68 239.98 Z" fill="#000000" fill-rule="evenodd" fill-opacity="1" /><path clip-path="url(#clip430)" d="M2014.79 239.98 L2019.05 239.98 L2019.05 265.906 L2014.79 265.906 L2014.79 239.98 M2014.79 229.887 L2019.05 229.887 L2019.05 235.281 L2014.79 235.281 L2014.79 229.887 Z" fill="#000000" fill-rule="evenodd" fill-opacity="1" /><path clip-path="url(#clip430)" d="M2042.98 243.961 Q2042.27 243.545 2041.41 243.359 Q2040.58 243.151 2039.56 243.151 Q2035.95 243.151 2034 245.512 Q2032.08 247.85 2032.08 252.248 L2032.08 265.906 L2027.8 265.906 L2027.8 239.98 L2032.08 239.98 L2032.08 244.008 Q2033.42 241.646 2035.58 240.512 Q2037.73 239.355 2040.81 239.355 Q2041.25 239.355 2041.78 239.424 Q2042.31 239.471 2042.96 239.586 L2042.98 243.961 Z" fill="#000000" fill-rule="evenodd" fill-opacity="1" /><path clip-path="url(#clip430)" d="M2063.68 252.642 Q2063.68 248.012 2061.76 245.466 Q2059.86 242.92 2056.41 242.92 Q2052.98 242.92 2051.06 245.466 Q2049.17 248.012 2049.17 252.642 Q2049.17 257.248 2051.06 259.794 Q2052.98 262.341 2056.41 262.341 Q2059.86 262.341 2061.76 259.794 Q2063.68 257.248 2063.68 252.642 M2067.94 262.688 Q2067.94 269.308 2065 272.526 Q2062.06 275.767 2055.99 275.767 Q2053.75 275.767 2051.76 275.419 Q2049.77 275.095 2047.89 274.401 L2047.89 270.257 Q2049.77 271.276 2051.6 271.762 Q2053.42 272.248 2055.32 272.248 Q2059.51 272.248 2061.6 270.049 Q2063.68 267.873 2063.68 263.452 L2063.68 261.345 Q2062.36 263.637 2060.3 264.771 Q2058.24 265.906 2055.37 265.906 Q2050.6 265.906 2047.68 262.271 Q2044.77 258.637 2044.77 252.642 Q2044.77 246.623 2047.68 242.989 Q2050.6 239.355 2055.37 239.355 Q2058.24 239.355 2060.3 240.489 Q2062.36 241.623 2063.68 243.915 L2063.68 239.98 L2067.94 239.98 L2067.94 262.688 Z" fill="#000000" fill-rule="evenodd" fill-opacity="1" /><path clip-path="url(#clip430)" d="M2076.71 239.98 L2080.97 239.98 L2080.97 265.906 L2076.71 265.906 L2076.71 239.98 M2076.71 229.887 L2080.97 229.887 L2080.97 235.281 L2076.71 235.281 L2076.71 229.887 Z" fill="#000000" fill-rule="evenodd" fill-opacity="1" /><path clip-path="url(#clip430)" d="M2111.43 250.257 L2111.43 265.906 L2107.17 265.906 L2107.17 250.396 Q2107.17 246.716 2105.74 244.887 Q2104.3 243.058 2101.43 243.058 Q2097.98 243.058 2095.99 245.258 Q2094 247.457 2094 251.253 L2094 265.906 L2089.72 265.906 L2089.72 239.98 L2094 239.98 L2094 244.008 Q2095.53 241.67 2097.59 240.512 Q2099.67 239.355 2102.38 239.355 Q2106.85 239.355 2109.14 242.133 Q2111.43 244.887 2111.43 250.257 Z" fill="#000000" fill-rule="evenodd" fill-opacity="1" /><path clip-path="url(#clip430)" d="M2119.93 239.98 L2124.19 239.98 L2124.19 265.906 L2119.93 265.906 L2119.93 239.98 M2119.93 229.887 L2124.19 229.887 L2124.19 235.281 L2119.93 235.281 L2119.93 229.887 Z" fill="#000000" fill-rule="evenodd" fill-opacity="1" /><path clip-path="url(#clip430)" d="M2151.76 240.975 L2151.76 244.957 Q2149.95 243.961 2148.12 243.475 Q2146.32 242.966 2144.47 242.966 Q2140.32 242.966 2138.03 245.605 Q2135.74 248.22 2135.74 252.966 Q2135.74 257.711 2138.03 260.35 Q2140.32 262.966 2144.47 262.966 Q2146.32 262.966 2148.12 262.48 Q2149.95 261.97 2151.76 260.975 L2151.76 264.91 Q2149.97 265.744 2148.05 266.16 Q2146.16 266.577 2144 266.577 Q2138.15 266.577 2134.7 262.896 Q2131.25 259.216 2131.25 252.966 Q2131.25 246.623 2134.72 242.989 Q2138.22 239.355 2144.28 239.355 Q2146.25 239.355 2148.12 239.771 Q2150 240.165 2151.76 240.975 Z" fill="#000000" fill-rule="evenodd" fill-opacity="1" /><path clip-path="url(#clip430)" d="M2170.95 252.873 Q2165.79 252.873 2163.79 254.054 Q2161.8 255.234 2161.8 258.082 Q2161.8 260.35 2163.29 261.693 Q2164.79 263.012 2167.36 263.012 Q2170.9 263.012 2173.03 260.512 Q2175.18 257.989 2175.18 253.822 L2175.18 252.873 L2170.95 252.873 M2179.44 251.114 L2179.44 265.906 L2175.18 265.906 L2175.18 261.97 Q2173.72 264.331 2171.55 265.466 Q2169.37 266.577 2166.22 266.577 Q2162.24 266.577 2159.88 264.355 Q2157.54 262.109 2157.54 258.359 Q2157.54 253.984 2160.46 251.762 Q2163.4 249.54 2169.21 249.54 L2175.18 249.54 L2175.18 249.123 Q2175.18 246.183 2173.24 244.586 Q2171.32 242.966 2167.82 242.966 Q2165.6 242.966 2163.49 243.498 Q2161.39 244.031 2159.44 245.095 L2159.44 241.16 Q2161.78 240.258 2163.98 239.818 Q2166.18 239.355 2168.26 239.355 Q2173.89 239.355 2176.66 242.271 Q2179.44 245.188 2179.44 251.114 Z" fill="#000000" fill-rule="evenodd" fill-opacity="1" /></svg>
