<?xml version="1.0" encoding="utf-8"?>
<svg xmlns="http://www.w3.org/2000/svg" xmlns:xlink="http://www.w3.org/1999/xlink" width="288" height="192" viewBox="0 0 1152 768">
<defs>
  <clipPath id="clip830">
    <rect x="0" y="0" width="1152" height="768"/>
  </clipPath>
</defs>
<path clip-path="url(#clip830)" d="
M0 768 L1152 768 L1152 0 L0 0  Z
  " fill="#ffffff" fill-rule="evenodd" fill-opacity="1"/>
<defs>
  <clipPath id="clip831">
    <rect x="230" y="0" width="807" height="768"/>
  </clipPath>
</defs>
<path clip-path="url(#clip830)" d="
M144.442 662.768 L1104.76 662.768 L1104.76 47.2441 L144.442 47.2441  Z
  " fill="#ffffff" fill-rule="evenodd" fill-opacity="1"/>
<defs>
  <clipPath id="clip832">
    <rect x="144" y="47" width="961" height="617"/>
  </clipPath>
</defs>
<polyline clip-path="url(#clip832)" style="stroke:#000000; stroke-linecap:round; stroke-linejoin:round; stroke-width:2; stroke-opacity:0.1; fill:none" points="
  231.051,662.768 231.051,47.2441 
  "/>
<polyline clip-path="url(#clip832)" style="stroke:#000000; stroke-linecap:round; stroke-linejoin:round; stroke-width:2; stroke-opacity:0.1; fill:none" points="
  380.15,662.768 380.15,47.2441 
  "/>
<polyline clip-path="url(#clip832)" style="stroke:#000000; stroke-linecap:round; stroke-linejoin:round; stroke-width:2; stroke-opacity:0.1; fill:none" points="
  529.249,662.768 529.249,47.2441 
  "/>
<polyline clip-path="url(#clip832)" style="stroke:#000000; stroke-linecap:round; stroke-linejoin:round; stroke-width:2; stroke-opacity:0.1; fill:none" points="
  678.347,662.768 678.347,47.2441 
  "/>
<polyline clip-path="url(#clip832)" style="stroke:#000000; stroke-linecap:round; stroke-linejoin:round; stroke-width:2; stroke-opacity:0.1; fill:none" points="
  827.446,662.768 827.446,47.2441 
  "/>
<polyline clip-path="url(#clip832)" style="stroke:#000000; stroke-linecap:round; stroke-linejoin:round; stroke-width:2; stroke-opacity:0.1; fill:none" points="
  976.544,662.768 976.544,47.2441 
  "/>
<polyline clip-path="url(#clip830)" style="stroke:#000000; stroke-linecap:round; stroke-linejoin:round; stroke-width:4; stroke-opacity:1; fill:none" points="
  144.442,662.768 1104.76,662.768 
  "/>
<polyline clip-path="url(#clip830)" style="stroke:#000000; stroke-linecap:round; stroke-linejoin:round; stroke-width:4; stroke-opacity:1; fill:none" points="
  231.051,662.768 231.051,643.87 
  "/>
<polyline clip-path="url(#clip830)" style="stroke:#000000; stroke-linecap:round; stroke-linejoin:round; stroke-width:4; stroke-opacity:1; fill:none" points="
  380.15,662.768 380.15,643.87 
  "/>
<polyline clip-path="url(#clip830)" style="stroke:#000000; stroke-linecap:round; stroke-linejoin:round; stroke-width:4; stroke-opacity:1; fill:none" points="
  529.249,662.768 529.249,643.87 
  "/>
<polyline clip-path="url(#clip830)" style="stroke:#000000; stroke-linecap:round; stroke-linejoin:round; stroke-width:4; stroke-opacity:1; fill:none" points="
  678.347,662.768 678.347,643.87 
  "/>
<polyline clip-path="url(#clip830)" style="stroke:#000000; stroke-linecap:round; stroke-linejoin:round; stroke-width:4; stroke-opacity:1; fill:none" points="
  827.446,662.768 827.446,643.87 
  "/>
<polyline clip-path="url(#clip830)" style="stroke:#000000; stroke-linecap:round; stroke-linejoin:round; stroke-width:4; stroke-opacity:1; fill:none" points="
  976.544,662.768 976.544,643.87 
  "/>
<path clip-path="url(#clip830)" d="M208.436 683.703 Q204.825 683.703 202.996 687.267 Q201.191 690.809 201.191 697.939 Q201.191 705.045 202.996 708.61 Q204.825 712.151 208.436 712.151 Q212.07 712.151 213.876 708.61 Q215.704 705.045 215.704 697.939 Q215.704 690.809 213.876 687.267 Q212.07 683.703 208.436 683.703 M208.436 679.999 Q214.246 679.999 217.302 684.605 Q220.38 689.189 220.38 697.939 Q220.38 706.665 217.302 711.272 Q214.246 715.855 208.436 715.855 Q202.626 715.855 199.547 711.272 Q196.491 706.665 196.491 697.939 Q196.491 689.189 199.547 684.605 Q202.626 679.999 208.436 679.999 Z" fill="#000000" fill-rule="evenodd" fill-opacity="1" /><path clip-path="url(#clip830)" d="M228.598 709.304 L233.482 709.304 L233.482 715.184 L228.598 715.184 L228.598 709.304 Z" fill="#000000" fill-rule="evenodd" fill-opacity="1" /><path clip-path="url(#clip830)" d="M253.667 683.703 Q250.056 683.703 248.227 687.267 Q246.422 690.809 246.422 697.939 Q246.422 705.045 248.227 708.61 Q250.056 712.151 253.667 712.151 Q257.301 712.151 259.107 708.61 Q260.936 705.045 260.936 697.939 Q260.936 690.809 259.107 687.267 Q257.301 683.703 253.667 683.703 M253.667 679.999 Q259.477 679.999 262.533 684.605 Q265.611 689.189 265.611 697.939 Q265.611 706.665 262.533 711.272 Q259.477 715.855 253.667 715.855 Q247.857 715.855 244.778 711.272 Q241.723 706.665 241.723 697.939 Q241.723 689.189 244.778 684.605 Q247.857 679.999 253.667 679.999 Z" fill="#000000" fill-rule="evenodd" fill-opacity="1" /><path clip-path="url(#clip830)" d="M358.032 683.703 Q354.421 683.703 352.592 687.267 Q350.787 690.809 350.787 697.939 Q350.787 705.045 352.592 708.61 Q354.421 712.151 358.032 712.151 Q361.666 712.151 363.472 708.61 Q365.301 705.045 365.301 697.939 Q365.301 690.809 363.472 687.267 Q361.666 683.703 358.032 683.703 M358.032 679.999 Q363.842 679.999 366.898 684.605 Q369.976 689.189 369.976 697.939 Q369.976 706.665 366.898 711.272 Q363.842 715.855 358.032 715.855 Q352.222 715.855 349.143 711.272 Q346.088 706.665 346.088 697.939 Q346.088 689.189 349.143 684.605 Q352.222 679.999 358.032 679.999 Z" fill="#000000" fill-rule="evenodd" fill-opacity="1" /><path clip-path="url(#clip830)" d="M378.194 709.304 L383.078 709.304 L383.078 715.184 L378.194 715.184 L378.194 709.304 Z" fill="#000000" fill-rule="evenodd" fill-opacity="1" /><path clip-path="url(#clip830)" d="M393.31 680.624 L411.666 680.624 L411.666 684.559 L397.592 684.559 L397.592 693.031 Q398.611 692.684 399.629 692.522 Q400.648 692.337 401.666 692.337 Q407.453 692.337 410.833 695.508 Q414.212 698.679 414.212 704.096 Q414.212 709.675 410.74 712.776 Q407.268 715.855 400.949 715.855 Q398.773 715.855 396.504 715.485 Q394.259 715.114 391.851 714.374 L391.851 709.675 Q393.935 710.809 396.157 711.364 Q398.379 711.92 400.856 711.92 Q404.861 711.92 407.199 709.814 Q409.536 707.707 409.536 704.096 Q409.536 700.485 407.199 698.378 Q404.861 696.272 400.856 696.272 Q398.981 696.272 397.106 696.689 Q395.254 697.105 393.31 697.985 L393.31 680.624 Z" fill="#000000" fill-rule="evenodd" fill-opacity="1" /><path clip-path="url(#clip830)" d="M496.402 711.249 L504.04 711.249 L504.04 684.883 L495.73 686.55 L495.73 682.291 L503.994 680.624 L508.67 680.624 L508.67 711.249 L516.309 711.249 L516.309 715.184 L496.402 715.184 L496.402 711.249 Z" fill="#000000" fill-rule="evenodd" fill-opacity="1" /><path clip-path="url(#clip830)" d="M525.753 709.304 L530.637 709.304 L530.637 715.184 L525.753 715.184 L525.753 709.304 Z" fill="#000000" fill-rule="evenodd" fill-opacity="1" /><path clip-path="url(#clip830)" d="M550.823 683.703 Q547.211 683.703 545.383 687.267 Q543.577 690.809 543.577 697.939 Q543.577 705.045 545.383 708.61 Q547.211 712.151 550.823 712.151 Q554.457 712.151 556.262 708.61 Q558.091 705.045 558.091 697.939 Q558.091 690.809 556.262 687.267 Q554.457 683.703 550.823 683.703 M550.823 679.999 Q556.633 679.999 559.688 684.605 Q562.767 689.189 562.767 697.939 Q562.767 706.665 559.688 711.272 Q556.633 715.855 550.823 715.855 Q545.012 715.855 541.934 711.272 Q538.878 706.665 538.878 697.939 Q538.878 689.189 541.934 684.605 Q545.012 679.999 550.823 679.999 Z" fill="#000000" fill-rule="evenodd" fill-opacity="1" /><path clip-path="url(#clip830)" d="M645.998 711.249 L653.637 711.249 L653.637 684.883 L645.327 686.55 L645.327 682.291 L653.59 680.624 L658.266 680.624 L658.266 711.249 L665.905 711.249 L665.905 715.184 L645.998 715.184 L645.998 711.249 Z" fill="#000000" fill-rule="evenodd" fill-opacity="1" /><path clip-path="url(#clip830)" d="M675.349 709.304 L680.234 709.304 L680.234 715.184 L675.349 715.184 L675.349 709.304 Z" fill="#000000" fill-rule="evenodd" fill-opacity="1" /><path clip-path="url(#clip830)" d="M690.465 680.624 L708.822 680.624 L708.822 684.559 L694.748 684.559 L694.748 693.031 Q695.766 692.684 696.785 692.522 Q697.803 692.337 698.822 692.337 Q704.609 692.337 707.988 695.508 Q711.368 698.679 711.368 704.096 Q711.368 709.675 707.896 712.776 Q704.423 715.855 698.104 715.855 Q695.928 715.855 693.66 715.485 Q691.414 715.114 689.007 714.374 L689.007 709.675 Q691.09 710.809 693.312 711.364 Q695.535 711.92 698.011 711.92 Q702.016 711.92 704.354 709.814 Q706.692 707.707 706.692 704.096 Q706.692 700.485 704.354 698.378 Q702.016 696.272 698.011 696.272 Q696.136 696.272 694.261 696.689 Q692.41 697.105 690.465 697.985 L690.465 680.624 Z" fill="#000000" fill-rule="evenodd" fill-opacity="1" /><path clip-path="url(#clip830)" d="M798.684 711.249 L815.004 711.249 L815.004 715.184 L793.059 715.184 L793.059 711.249 Q795.721 708.494 800.305 703.864 Q804.911 699.212 806.092 697.869 Q808.337 695.346 809.217 693.61 Q810.119 691.851 810.119 690.161 Q810.119 687.406 808.175 685.67 Q806.254 683.934 803.152 683.934 Q800.953 683.934 798.499 684.698 Q796.069 685.462 793.291 687.013 L793.291 682.291 Q796.115 681.156 798.569 680.578 Q801.022 679.999 803.059 679.999 Q808.43 679.999 811.624 682.684 Q814.818 685.369 814.818 689.86 Q814.818 691.99 814.008 693.911 Q813.221 695.809 811.115 698.402 Q810.536 699.073 807.434 702.29 Q804.332 705.485 798.684 711.249 Z" fill="#000000" fill-rule="evenodd" fill-opacity="1" /><path clip-path="url(#clip830)" d="M824.818 709.304 L829.703 709.304 L829.703 715.184 L824.818 715.184 L824.818 709.304 Z" fill="#000000" fill-rule="evenodd" fill-opacity="1" /><path clip-path="url(#clip830)" d="M849.888 683.703 Q846.277 683.703 844.448 687.267 Q842.642 690.809 842.642 697.939 Q842.642 705.045 844.448 708.61 Q846.277 712.151 849.888 712.151 Q853.522 712.151 855.328 708.61 Q857.156 705.045 857.156 697.939 Q857.156 690.809 855.328 687.267 Q853.522 683.703 849.888 683.703 M849.888 679.999 Q855.698 679.999 858.753 684.605 Q861.832 689.189 861.832 697.939 Q861.832 706.665 858.753 711.272 Q855.698 715.855 849.888 715.855 Q844.078 715.855 840.999 711.272 Q837.943 706.665 837.943 697.939 Q837.943 689.189 840.999 684.605 Q844.078 679.999 849.888 679.999 Z" fill="#000000" fill-rule="evenodd" fill-opacity="1" /><path clip-path="url(#clip830)" d="M948.281 711.249 L964.6 711.249 L964.6 715.184 L942.656 715.184 L942.656 711.249 Q945.318 708.494 949.901 703.864 Q954.507 699.212 955.688 697.869 Q957.933 695.346 958.813 693.61 Q959.716 691.851 959.716 690.161 Q959.716 687.406 957.771 685.67 Q955.85 683.934 952.748 683.934 Q950.549 683.934 948.095 684.698 Q945.665 685.462 942.887 687.013 L942.887 682.291 Q945.711 681.156 948.165 680.578 Q950.618 679.999 952.656 679.999 Q958.026 679.999 961.22 682.684 Q964.415 685.369 964.415 689.86 Q964.415 691.99 963.605 693.911 Q962.817 695.809 960.711 698.402 Q960.132 699.073 957.03 702.29 Q953.929 705.485 948.281 711.249 Z" fill="#000000" fill-rule="evenodd" fill-opacity="1" /><path clip-path="url(#clip830)" d="M974.415 709.304 L979.299 709.304 L979.299 715.184 L974.415 715.184 L974.415 709.304 Z" fill="#000000" fill-rule="evenodd" fill-opacity="1" /><path clip-path="url(#clip830)" d="M989.53 680.624 L1007.89 680.624 L1007.89 684.559 L993.813 684.559 L993.813 693.031 Q994.831 692.684 995.85 692.522 Q996.868 692.337 997.887 692.337 Q1003.67 692.337 1007.05 695.508 Q1010.43 698.679 1010.43 704.096 Q1010.43 709.675 1006.96 712.776 Q1003.49 715.855 997.169 715.855 Q994.993 715.855 992.725 715.485 Q990.479 715.114 988.072 714.374 L988.072 709.675 Q990.155 710.809 992.378 711.364 Q994.6 711.92 997.077 711.92 Q1001.08 711.92 1003.42 709.814 Q1005.76 707.707 1005.76 704.096 Q1005.76 700.485 1003.42 698.378 Q1001.08 696.272 997.077 696.272 Q995.202 696.272 993.327 696.689 Q991.475 697.105 989.53 697.985 L989.53 680.624 Z" fill="#000000" fill-rule="evenodd" fill-opacity="1" /><polyline clip-path="url(#clip832)" style="stroke:#000000; stroke-linecap:round; stroke-linejoin:round; stroke-width:2; stroke-opacity:0.1; fill:none" points="
  144.442,645.347 1104.76,645.347 
  "/>
<polyline clip-path="url(#clip832)" style="stroke:#000000; stroke-linecap:round; stroke-linejoin:round; stroke-width:2; stroke-opacity:0.1; fill:none" points="
  144.442,500.177 1104.76,500.177 
  "/>
<polyline clip-path="url(#clip832)" style="stroke:#000000; stroke-linecap:round; stroke-linejoin:round; stroke-width:2; stroke-opacity:0.1; fill:none" points="
  144.442,355.006 1104.76,355.006 
  "/>
<polyline clip-path="url(#clip832)" style="stroke:#000000; stroke-linecap:round; stroke-linejoin:round; stroke-width:2; stroke-opacity:0.1; fill:none" points="
  144.442,209.835 1104.76,209.835 
  "/>
<polyline clip-path="url(#clip832)" style="stroke:#000000; stroke-linecap:round; stroke-linejoin:round; stroke-width:2; stroke-opacity:0.1; fill:none" points="
  144.442,64.6646 1104.76,64.6646 
  "/>
<polyline clip-path="url(#clip830)" style="stroke:#000000; stroke-linecap:round; stroke-linejoin:round; stroke-width:4; stroke-opacity:1; fill:none" points="
  144.442,662.768 144.442,47.2441 
  "/>
<polyline clip-path="url(#clip830)" style="stroke:#000000; stroke-linecap:round; stroke-linejoin:round; stroke-width:4; stroke-opacity:1; fill:none" points="
  144.442,645.347 163.34,645.347 
  "/>
<polyline clip-path="url(#clip830)" style="stroke:#000000; stroke-linecap:round; stroke-linejoin:round; stroke-width:4; stroke-opacity:1; fill:none" points="
  144.442,500.177 163.34,500.177 
  "/>
<polyline clip-path="url(#clip830)" style="stroke:#000000; stroke-linecap:round; stroke-linejoin:round; stroke-width:4; stroke-opacity:1; fill:none" points="
  144.442,355.006 163.34,355.006 
  "/>
<polyline clip-path="url(#clip830)" style="stroke:#000000; stroke-linecap:round; stroke-linejoin:round; stroke-width:4; stroke-opacity:1; fill:none" points="
  144.442,209.835 163.34,209.835 
  "/>
<polyline clip-path="url(#clip830)" style="stroke:#000000; stroke-linecap:round; stroke-linejoin:round; stroke-width:4; stroke-opacity:1; fill:none" points="
  144.442,64.6646 163.34,64.6646 
  "/>
<path clip-path="url(#clip830)" d="M64.0145 658.692 L80.3339 658.692 L80.3339 662.627 L58.3895 662.627 L58.3895 658.692 Q61.0515 655.938 65.6349 651.308 Q70.2413 646.655 71.4219 645.313 Q73.6672 642.79 74.5468 641.053 Q75.4496 639.294 75.4496 637.604 Q75.4496 634.85 73.5052 633.114 Q71.5839 631.378 68.4821 631.378 Q66.283 631.378 63.8293 632.141 Q61.3988 632.905 58.621 634.456 L58.621 629.734 Q61.4451 628.6 63.8988 628.021 Q66.3524 627.442 68.3895 627.442 Q73.7598 627.442 76.9542 630.128 Q80.1487 632.813 80.1487 637.303 Q80.1487 639.433 79.3385 641.354 Q78.5515 643.252 76.445 645.845 Q75.8663 646.516 72.7645 649.734 Q69.6626 652.928 64.0145 658.692 Z" fill="#000000" fill-rule="evenodd" fill-opacity="1" /><path clip-path="url(#clip830)" d="M90.1486 656.748 L95.0328 656.748 L95.0328 662.627 L90.1486 662.627 L90.1486 656.748 Z" fill="#000000" fill-rule="evenodd" fill-opacity="1" /><path clip-path="url(#clip830)" d="M115.218 631.146 Q111.607 631.146 109.778 634.711 Q107.973 638.253 107.973 645.382 Q107.973 652.489 109.778 656.053 Q111.607 659.595 115.218 659.595 Q118.852 659.595 120.658 656.053 Q122.486 652.489 122.486 645.382 Q122.486 638.253 120.658 634.711 Q118.852 631.146 115.218 631.146 M115.218 627.442 Q121.028 627.442 124.084 632.049 Q127.162 636.632 127.162 645.382 Q127.162 654.109 124.084 658.715 Q121.028 663.299 115.218 663.299 Q109.408 663.299 106.329 658.715 Q103.274 654.109 103.274 645.382 Q103.274 636.632 106.329 632.049 Q109.408 627.442 115.218 627.442 Z" fill="#000000" fill-rule="evenodd" fill-opacity="1" /><path clip-path="url(#clip830)" d="M65.0099 513.522 L81.3292 513.522 L81.3292 517.457 L59.3849 517.457 L59.3849 513.522 Q62.0469 510.767 66.6302 506.137 Q71.2367 501.485 72.4172 500.142 Q74.6626 497.619 75.5422 495.883 Q76.445 494.123 76.445 492.434 Q76.445 489.679 74.5006 487.943 Q72.5793 486.207 69.4774 486.207 Q67.2784 486.207 64.8247 486.971 Q62.3941 487.735 59.6164 489.286 L59.6164 484.563 Q62.4404 483.429 64.8941 482.85 Q67.3478 482.272 69.3848 482.272 Q74.7552 482.272 77.9496 484.957 Q81.144 487.642 81.144 492.133 Q81.144 494.262 80.3339 496.184 Q79.5468 498.082 77.4404 500.674 Q76.8617 501.346 73.7598 504.563 Q70.658 507.758 65.0099 513.522 Z" fill="#000000" fill-rule="evenodd" fill-opacity="1" /><path clip-path="url(#clip830)" d="M91.144 511.577 L96.0282 511.577 L96.0282 517.457 L91.144 517.457 L91.144 511.577 Z" fill="#000000" fill-rule="evenodd" fill-opacity="1" /><path clip-path="url(#clip830)" d="M106.26 482.897 L124.616 482.897 L124.616 486.832 L110.542 486.832 L110.542 495.304 Q111.561 494.957 112.579 494.795 Q113.598 494.61 114.616 494.61 Q120.403 494.61 123.783 497.781 Q127.162 500.952 127.162 506.369 Q127.162 511.947 123.69 515.049 Q120.218 518.128 113.898 518.128 Q111.723 518.128 109.454 517.758 Q107.209 517.387 104.801 516.647 L104.801 511.947 Q106.885 513.082 109.107 513.637 Q111.329 514.193 113.806 514.193 Q117.811 514.193 120.148 512.086 Q122.486 509.98 122.486 506.369 Q122.486 502.758 120.148 500.651 Q117.811 498.545 113.806 498.545 Q111.931 498.545 110.056 498.961 Q108.204 499.378 106.26 500.258 L106.26 482.897 Z" fill="#000000" fill-rule="evenodd" fill-opacity="1" /><path clip-path="url(#clip830)" d="M74.1533 353.652 Q77.5098 354.369 79.3848 356.638 Q81.2829 358.906 81.2829 362.24 Q81.2829 367.355 77.7644 370.156 Q74.2459 372.957 67.7645 372.957 Q65.5886 372.957 63.2738 372.517 Q60.9821 372.101 58.5284 371.244 L58.5284 366.73 Q60.4728 367.865 62.7877 368.443 Q65.1025 369.022 67.6256 369.022 Q72.0237 369.022 74.3154 367.286 Q76.6302 365.55 76.6302 362.24 Q76.6302 359.184 74.4774 357.471 Q72.3478 355.735 68.5284 355.735 L64.5006 355.735 L64.5006 351.893 L68.7135 351.893 Q72.1626 351.893 73.9913 350.527 Q75.82 349.138 75.82 346.545 Q75.82 343.883 73.9219 342.471 Q72.0469 341.036 68.5284 341.036 Q66.6071 341.036 64.408 341.453 Q62.209 341.869 59.5701 342.749 L59.5701 338.582 Q62.2321 337.842 64.5469 337.471 Q66.8849 337.101 68.945 337.101 Q74.2691 337.101 77.3709 339.532 Q80.4727 341.939 80.4727 346.059 Q80.4727 348.93 78.8292 350.92 Q77.1857 352.888 74.1533 353.652 Z" fill="#000000" fill-rule="evenodd" fill-opacity="1" /><path clip-path="url(#clip830)" d="M90.1486 366.406 L95.0328 366.406 L95.0328 372.286 L90.1486 372.286 L90.1486 366.406 Z" fill="#000000" fill-rule="evenodd" fill-opacity="1" /><path clip-path="url(#clip830)" d="M115.218 340.805 Q111.607 340.805 109.778 344.369 Q107.973 347.911 107.973 355.041 Q107.973 362.147 109.778 365.712 Q111.607 369.254 115.218 369.254 Q118.852 369.254 120.658 365.712 Q122.486 362.147 122.486 355.041 Q122.486 347.911 120.658 344.369 Q118.852 340.805 115.218 340.805 M115.218 337.101 Q121.028 337.101 124.084 341.707 Q127.162 346.291 127.162 355.041 Q127.162 363.768 124.084 368.374 Q121.028 372.957 115.218 372.957 Q109.408 372.957 106.329 368.374 Q103.274 363.768 103.274 355.041 Q103.274 346.291 106.329 341.707 Q109.408 337.101 115.218 337.101 Z" fill="#000000" fill-rule="evenodd" fill-opacity="1" /><path clip-path="url(#clip830)" d="M75.1487 208.481 Q78.5052 209.199 80.3802 211.467 Q82.2783 213.736 82.2783 217.069 Q82.2783 222.185 78.7598 224.986 Q75.2413 227.787 68.7598 227.787 Q66.5839 227.787 64.2691 227.347 Q61.9775 226.93 59.5238 226.074 L59.5238 221.56 Q61.4682 222.694 63.783 223.273 Q66.0978 223.851 68.621 223.851 Q73.0191 223.851 75.3107 222.115 Q77.6255 220.379 77.6255 217.069 Q77.6255 214.013 75.4728 212.301 Q73.3432 210.564 69.5237 210.564 L65.496 210.564 L65.496 206.722 L69.7089 206.722 Q73.158 206.722 74.9867 205.356 Q76.8154 203.967 76.8154 201.375 Q76.8154 198.713 74.9172 197.301 Q73.0422 195.865 69.5237 195.865 Q67.6024 195.865 65.4034 196.282 Q63.2043 196.699 60.5654 197.578 L60.5654 193.412 Q63.2275 192.671 65.5423 192.301 Q67.8802 191.93 69.9404 191.93 Q75.2644 191.93 78.3663 194.361 Q81.4681 196.768 81.4681 200.889 Q81.4681 203.759 79.8246 205.75 Q78.1811 207.717 75.1487 208.481 Z" fill="#000000" fill-rule="evenodd" fill-opacity="1" /><path clip-path="url(#clip830)" d="M91.144 221.236 L96.0282 221.236 L96.0282 227.115 L91.144 227.115 L91.144 221.236 Z" fill="#000000" fill-rule="evenodd" fill-opacity="1" /><path clip-path="url(#clip830)" d="M106.26 192.555 L124.616 192.555 L124.616 196.49 L110.542 196.49 L110.542 204.963 Q111.561 204.615 112.579 204.453 Q113.598 204.268 114.616 204.268 Q120.403 204.268 123.783 207.439 Q127.162 210.611 127.162 216.027 Q127.162 221.606 123.69 224.708 Q120.218 227.787 113.898 227.787 Q111.723 227.787 109.454 227.416 Q107.209 227.046 104.801 226.305 L104.801 221.606 Q106.885 222.74 109.107 223.296 Q111.329 223.851 113.806 223.851 Q117.811 223.851 120.148 221.745 Q122.486 219.638 122.486 216.027 Q122.486 212.416 120.148 210.31 Q117.811 208.203 113.806 208.203 Q111.931 208.203 110.056 208.62 Q108.204 209.037 106.26 209.916 L106.26 192.555 Z" fill="#000000" fill-rule="evenodd" fill-opacity="1" /><path clip-path="url(#clip830)" d="M72.8339 51.4586 L61.0284 69.9076 L72.8339 69.9076 L72.8339 51.4586 M71.607 47.3846 L77.4866 47.3846 L77.4866 69.9076 L82.4172 69.9076 L82.4172 73.7965 L77.4866 73.7965 L77.4866 81.9446 L72.8339 81.9446 L72.8339 73.7965 L57.2321 73.7965 L57.2321 69.2826 L71.607 47.3846 Z" fill="#000000" fill-rule="evenodd" fill-opacity="1" /><path clip-path="url(#clip830)" d="M90.1486 76.065 L95.0328 76.065 L95.0328 81.9446 L90.1486 81.9446 L90.1486 76.065 Z" fill="#000000" fill-rule="evenodd" fill-opacity="1" /><path clip-path="url(#clip830)" d="M115.218 50.4633 Q111.607 50.4633 109.778 54.0281 Q107.973 57.5697 107.973 64.6993 Q107.973 71.8057 109.778 75.3705 Q111.607 78.9122 115.218 78.9122 Q118.852 78.9122 120.658 75.3705 Q122.486 71.8057 122.486 64.6993 Q122.486 57.5697 120.658 54.0281 Q118.852 50.4633 115.218 50.4633 M115.218 46.7596 Q121.028 46.7596 124.084 51.366 Q127.162 55.9493 127.162 64.6993 Q127.162 73.4261 124.084 78.0326 Q121.028 82.6159 115.218 82.6159 Q109.408 82.6159 106.329 78.0326 Q103.274 73.4261 103.274 64.6993 Q103.274 55.9493 106.329 51.366 Q109.408 46.7596 115.218 46.7596 Z" fill="#000000" fill-rule="evenodd" fill-opacity="1" /><circle clip-path="url(#clip832)" cx="196.506" cy="645.347" r="14.4" fill="#009af9" fill-rule="evenodd" fill-opacity="1" stroke="#000000" stroke-opacity="1" stroke-width="1.536"/>
<circle clip-path="url(#clip832)" cx="240.159" cy="645.347" r="14.4" fill="#009af9" fill-rule="evenodd" fill-opacity="1" stroke="#000000" stroke-opacity="1" stroke-width="1.536"/>
<circle clip-path="url(#clip832)" cx="278.126" cy="645.347" r="14.4" fill="#009af9" fill-rule="evenodd" fill-opacity="1" stroke="#000000" stroke-opacity="1" stroke-width="1.536"/>
<circle clip-path="url(#clip832)" cx="210.589" cy="645.347" r="14.4" fill="#009af9" fill-rule="evenodd" fill-opacity="1" stroke="#000000" stroke-opacity="1" stroke-width="1.536"/>
<circle clip-path="url(#clip832)" cx="345.467" cy="645.347" r="14.4" fill="#009af9" fill-rule="evenodd" fill-opacity="1" stroke="#000000" stroke-opacity="1" stroke-width="1.536"/>
<circle clip-path="url(#clip832)" cx="213.971" cy="645.347" r="14.4" fill="#009af9" fill-rule="evenodd" fill-opacity="1" stroke="#000000" stroke-opacity="1" stroke-width="1.536"/>
<circle clip-path="url(#clip832)" cx="318.078" cy="645.347" r="14.4" fill="#009af9" fill-rule="evenodd" fill-opacity="1" stroke="#000000" stroke-opacity="1" stroke-width="1.536"/>
<circle clip-path="url(#clip832)" cx="344.824" cy="645.347" r="14.4" fill="#009af9" fill-rule="evenodd" fill-opacity="1" stroke="#000000" stroke-opacity="1" stroke-width="1.536"/>
<circle clip-path="url(#clip832)" cx="370.535" cy="645.347" r="14.4" fill="#009af9" fill-rule="evenodd" fill-opacity="1" stroke="#000000" stroke-opacity="1" stroke-width="1.536"/>
<circle clip-path="url(#clip832)" cx="317.182" cy="645.347" r="14.4" fill="#009af9" fill-rule="evenodd" fill-opacity="1" stroke="#000000" stroke-opacity="1" stroke-width="1.536"/>
<circle clip-path="url(#clip832)" cx="332.535" cy="645.347" r="14.4" fill="#009af9" fill-rule="evenodd" fill-opacity="1" stroke="#000000" stroke-opacity="1" stroke-width="1.536"/>
<circle clip-path="url(#clip832)" cx="195.02" cy="645.347" r="14.4" fill="#009af9" fill-rule="evenodd" fill-opacity="1" stroke="#000000" stroke-opacity="1" stroke-width="1.536"/>
<circle clip-path="url(#clip832)" cx="398.378" cy="645.347" r="14.4" fill="#009af9" fill-rule="evenodd" fill-opacity="1" stroke="#000000" stroke-opacity="1" stroke-width="1.536"/>
<circle clip-path="url(#clip832)" cx="256.954" cy="645.347" r="14.4" fill="#009af9" fill-rule="evenodd" fill-opacity="1" stroke="#000000" stroke-opacity="1" stroke-width="1.536"/>
<circle clip-path="url(#clip832)" cx="309.1" cy="645.347" r="14.4" fill="#009af9" fill-rule="evenodd" fill-opacity="1" stroke="#000000" stroke-opacity="1" stroke-width="1.536"/>
<circle clip-path="url(#clip832)" cx="171.621" cy="645.347" r="14.4" fill="#009af9" fill-rule="evenodd" fill-opacity="1" stroke="#000000" stroke-opacity="1" stroke-width="1.536"/>
<circle clip-path="url(#clip832)" cx="307.824" cy="645.347" r="14.4" fill="#009af9" fill-rule="evenodd" fill-opacity="1" stroke="#000000" stroke-opacity="1" stroke-width="1.536"/>
<circle clip-path="url(#clip832)" cx="192.641" cy="645.347" r="14.4" fill="#009af9" fill-rule="evenodd" fill-opacity="1" stroke="#000000" stroke-opacity="1" stroke-width="1.536"/>
<circle clip-path="url(#clip832)" cx="183.835" cy="645.347" r="14.4" fill="#009af9" fill-rule="evenodd" fill-opacity="1" stroke="#000000" stroke-opacity="1" stroke-width="1.536"/>
<circle clip-path="url(#clip832)" cx="291.836" cy="645.347" r="14.4" fill="#009af9" fill-rule="evenodd" fill-opacity="1" stroke="#000000" stroke-opacity="1" stroke-width="1.536"/>
<circle clip-path="url(#clip832)" cx="194.451" cy="645.347" r="14.4" fill="#009af9" fill-rule="evenodd" fill-opacity="1" stroke="#000000" stroke-opacity="1" stroke-width="1.536"/>
<circle clip-path="url(#clip832)" cx="365.118" cy="645.347" r="14.4" fill="#009af9" fill-rule="evenodd" fill-opacity="1" stroke="#000000" stroke-opacity="1" stroke-width="1.536"/>
<circle clip-path="url(#clip832)" cx="358.537" cy="645.347" r="14.4" fill="#009af9" fill-rule="evenodd" fill-opacity="1" stroke="#000000" stroke-opacity="1" stroke-width="1.536"/>
<circle clip-path="url(#clip832)" cx="346.803" cy="645.347" r="14.4" fill="#009af9" fill-rule="evenodd" fill-opacity="1" stroke="#000000" stroke-opacity="1" stroke-width="1.536"/>
<circle clip-path="url(#clip832)" cx="248.427" cy="645.347" r="14.4" fill="#009af9" fill-rule="evenodd" fill-opacity="1" stroke="#000000" stroke-opacity="1" stroke-width="1.536"/>
<circle clip-path="url(#clip832)" cx="173.066" cy="645.347" r="14.4" fill="#009af9" fill-rule="evenodd" fill-opacity="1" stroke="#000000" stroke-opacity="1" stroke-width="1.536"/>
<circle clip-path="url(#clip832)" cx="378.3" cy="645.347" r="14.4" fill="#009af9" fill-rule="evenodd" fill-opacity="1" stroke="#000000" stroke-opacity="1" stroke-width="1.536"/>
<circle clip-path="url(#clip832)" cx="272.997" cy="645.347" r="14.4" fill="#009af9" fill-rule="evenodd" fill-opacity="1" stroke="#000000" stroke-opacity="1" stroke-width="1.536"/>
<circle clip-path="url(#clip832)" cx="178.746" cy="645.347" r="14.4" fill="#009af9" fill-rule="evenodd" fill-opacity="1" stroke="#000000" stroke-opacity="1" stroke-width="1.536"/>
<circle clip-path="url(#clip832)" cx="222.982" cy="645.347" r="14.4" fill="#009af9" fill-rule="evenodd" fill-opacity="1" stroke="#000000" stroke-opacity="1" stroke-width="1.536"/>
<circle clip-path="url(#clip832)" cx="192.573" cy="645.347" r="14.4" fill="#009af9" fill-rule="evenodd" fill-opacity="1" stroke="#000000" stroke-opacity="1" stroke-width="1.536"/>
<circle clip-path="url(#clip832)" cx="357.88" cy="645.347" r="14.4" fill="#009af9" fill-rule="evenodd" fill-opacity="1" stroke="#000000" stroke-opacity="1" stroke-width="1.536"/>
<circle clip-path="url(#clip832)" cx="400.316" cy="645.347" r="14.4" fill="#009af9" fill-rule="evenodd" fill-opacity="1" stroke="#000000" stroke-opacity="1" stroke-width="1.536"/>
<circle clip-path="url(#clip832)" cx="315.458" cy="645.347" r="14.4" fill="#009af9" fill-rule="evenodd" fill-opacity="1" stroke="#000000" stroke-opacity="1" stroke-width="1.536"/>
<circle clip-path="url(#clip832)" cx="213.549" cy="645.347" r="14.4" fill="#009af9" fill-rule="evenodd" fill-opacity="1" stroke="#000000" stroke-opacity="1" stroke-width="1.536"/>
<circle clip-path="url(#clip832)" cx="269.956" cy="645.347" r="14.4" fill="#009af9" fill-rule="evenodd" fill-opacity="1" stroke="#000000" stroke-opacity="1" stroke-width="1.536"/>
<circle clip-path="url(#clip832)" cx="224.124" cy="645.347" r="14.4" fill="#009af9" fill-rule="evenodd" fill-opacity="1" stroke="#000000" stroke-opacity="1" stroke-width="1.536"/>
<circle clip-path="url(#clip832)" cx="228.276" cy="645.347" r="14.4" fill="#009af9" fill-rule="evenodd" fill-opacity="1" stroke="#000000" stroke-opacity="1" stroke-width="1.536"/>
<circle clip-path="url(#clip832)" cx="219.68" cy="645.347" r="14.4" fill="#009af9" fill-rule="evenodd" fill-opacity="1" stroke="#000000" stroke-opacity="1" stroke-width="1.536"/>
<circle clip-path="url(#clip832)" cx="438.51" cy="645.347" r="14.4" fill="#009af9" fill-rule="evenodd" fill-opacity="1" stroke="#000000" stroke-opacity="1" stroke-width="1.536"/>
<circle clip-path="url(#clip832)" cx="233.641" cy="645.347" r="14.4" fill="#009af9" fill-rule="evenodd" fill-opacity="1" stroke="#000000" stroke-opacity="1" stroke-width="1.536"/>
<circle clip-path="url(#clip832)" cx="384.706" cy="645.347" r="14.4" fill="#009af9" fill-rule="evenodd" fill-opacity="1" stroke="#000000" stroke-opacity="1" stroke-width="1.536"/>
<circle clip-path="url(#clip832)" cx="334.08" cy="645.347" r="14.4" fill="#009af9" fill-rule="evenodd" fill-opacity="1" stroke="#000000" stroke-opacity="1" stroke-width="1.536"/>
<circle clip-path="url(#clip832)" cx="466.51" cy="645.347" r="14.4" fill="#009af9" fill-rule="evenodd" fill-opacity="1" stroke="#000000" stroke-opacity="1" stroke-width="1.536"/>
<circle clip-path="url(#clip832)" cx="440.394" cy="645.347" r="14.4" fill="#009af9" fill-rule="evenodd" fill-opacity="1" stroke="#000000" stroke-opacity="1" stroke-width="1.536"/>
<circle clip-path="url(#clip832)" cx="318.192" cy="645.347" r="14.4" fill="#009af9" fill-rule="evenodd" fill-opacity="1" stroke="#000000" stroke-opacity="1" stroke-width="1.536"/>
<circle clip-path="url(#clip832)" cx="387.686" cy="645.347" r="14.4" fill="#009af9" fill-rule="evenodd" fill-opacity="1" stroke="#000000" stroke-opacity="1" stroke-width="1.536"/>
<circle clip-path="url(#clip832)" cx="358.235" cy="645.347" r="14.4" fill="#009af9" fill-rule="evenodd" fill-opacity="1" stroke="#000000" stroke-opacity="1" stroke-width="1.536"/>
<circle clip-path="url(#clip832)" cx="325.155" cy="645.347" r="14.4" fill="#009af9" fill-rule="evenodd" fill-opacity="1" stroke="#000000" stroke-opacity="1" stroke-width="1.536"/>
<circle clip-path="url(#clip832)" cx="454.819" cy="645.347" r="14.4" fill="#009af9" fill-rule="evenodd" fill-opacity="1" stroke="#000000" stroke-opacity="1" stroke-width="1.536"/>
<circle clip-path="url(#clip832)" cx="538.966" cy="355.006" r="14.4" fill="#e26f46" fill-rule="evenodd" fill-opacity="1" stroke="#000000" stroke-opacity="1" stroke-width="1.536"/>
<circle clip-path="url(#clip832)" cx="434.52" cy="355.006" r="14.4" fill="#e26f46" fill-rule="evenodd" fill-opacity="1" stroke="#000000" stroke-opacity="1" stroke-width="1.536"/>
<circle clip-path="url(#clip832)" cx="519.903" cy="355.006" r="14.4" fill="#e26f46" fill-rule="evenodd" fill-opacity="1" stroke="#000000" stroke-opacity="1" stroke-width="1.536"/>
<circle clip-path="url(#clip832)" cx="448.981" cy="355.006" r="14.4" fill="#e26f46" fill-rule="evenodd" fill-opacity="1" stroke="#000000" stroke-opacity="1" stroke-width="1.536"/>
<circle clip-path="url(#clip832)" cx="462.648" cy="355.006" r="14.4" fill="#e26f46" fill-rule="evenodd" fill-opacity="1" stroke="#000000" stroke-opacity="1" stroke-width="1.536"/>
<circle clip-path="url(#clip832)" cx="457.357" cy="355.006" r="14.4" fill="#e26f46" fill-rule="evenodd" fill-opacity="1" stroke="#000000" stroke-opacity="1" stroke-width="1.536"/>
<circle clip-path="url(#clip832)" cx="624.384" cy="355.006" r="14.4" fill="#e26f46" fill-rule="evenodd" fill-opacity="1" stroke="#000000" stroke-opacity="1" stroke-width="1.536"/>
<circle clip-path="url(#clip832)" cx="565.487" cy="355.006" r="14.4" fill="#e26f46" fill-rule="evenodd" fill-opacity="1" stroke="#000000" stroke-opacity="1" stroke-width="1.536"/>
<circle clip-path="url(#clip832)" cx="628.647" cy="355.006" r="14.4" fill="#e26f46" fill-rule="evenodd" fill-opacity="1" stroke="#000000" stroke-opacity="1" stroke-width="1.536"/>
<circle clip-path="url(#clip832)" cx="583.114" cy="355.006" r="14.4" fill="#e26f46" fill-rule="evenodd" fill-opacity="1" stroke="#000000" stroke-opacity="1" stroke-width="1.536"/>
<circle clip-path="url(#clip832)" cx="498.544" cy="355.006" r="14.4" fill="#e26f46" fill-rule="evenodd" fill-opacity="1" stroke="#000000" stroke-opacity="1" stroke-width="1.536"/>
<circle clip-path="url(#clip832)" cx="579.109" cy="355.006" r="14.4" fill="#e26f46" fill-rule="evenodd" fill-opacity="1" stroke="#000000" stroke-opacity="1" stroke-width="1.536"/>
<circle clip-path="url(#clip832)" cx="592.826" cy="355.006" r="14.4" fill="#e26f46" fill-rule="evenodd" fill-opacity="1" stroke="#000000" stroke-opacity="1" stroke-width="1.536"/>
<circle clip-path="url(#clip832)" cx="478.088" cy="355.006" r="14.4" fill="#e26f46" fill-rule="evenodd" fill-opacity="1" stroke="#000000" stroke-opacity="1" stroke-width="1.536"/>
<circle clip-path="url(#clip832)" cx="673.635" cy="355.006" r="14.4" fill="#e26f46" fill-rule="evenodd" fill-opacity="1" stroke="#000000" stroke-opacity="1" stroke-width="1.536"/>
<circle clip-path="url(#clip832)" cx="713.022" cy="355.006" r="14.4" fill="#e26f46" fill-rule="evenodd" fill-opacity="1" stroke="#000000" stroke-opacity="1" stroke-width="1.536"/>
<circle clip-path="url(#clip832)" cx="561.358" cy="355.006" r="14.4" fill="#e26f46" fill-rule="evenodd" fill-opacity="1" stroke="#000000" stroke-opacity="1" stroke-width="1.536"/>
<circle clip-path="url(#clip832)" cx="632.942" cy="355.006" r="14.4" fill="#e26f46" fill-rule="evenodd" fill-opacity="1" stroke="#000000" stroke-opacity="1" stroke-width="1.536"/>
<circle clip-path="url(#clip832)" cx="651.209" cy="355.006" r="14.4" fill="#e26f46" fill-rule="evenodd" fill-opacity="1" stroke="#000000" stroke-opacity="1" stroke-width="1.536"/>
<circle clip-path="url(#clip832)" cx="650.975" cy="355.006" r="14.4" fill="#e26f46" fill-rule="evenodd" fill-opacity="1" stroke="#000000" stroke-opacity="1" stroke-width="1.536"/>
<circle clip-path="url(#clip832)" cx="639.211" cy="355.006" r="14.4" fill="#e26f46" fill-rule="evenodd" fill-opacity="1" stroke="#000000" stroke-opacity="1" stroke-width="1.536"/>
<circle clip-path="url(#clip832)" cx="649.034" cy="355.006" r="14.4" fill="#e26f46" fill-rule="evenodd" fill-opacity="1" stroke="#000000" stroke-opacity="1" stroke-width="1.536"/>
<circle clip-path="url(#clip832)" cx="663.858" cy="355.006" r="14.4" fill="#e26f46" fill-rule="evenodd" fill-opacity="1" stroke="#000000" stroke-opacity="1" stroke-width="1.536"/>
<circle clip-path="url(#clip832)" cx="510.754" cy="355.006" r="14.4" fill="#e26f46" fill-rule="evenodd" fill-opacity="1" stroke="#000000" stroke-opacity="1" stroke-width="1.536"/>
<circle clip-path="url(#clip832)" cx="631.557" cy="355.006" r="14.4" fill="#e26f46" fill-rule="evenodd" fill-opacity="1" stroke="#000000" stroke-opacity="1" stroke-width="1.536"/>
<circle clip-path="url(#clip832)" cx="522.132" cy="355.006" r="14.4" fill="#e26f46" fill-rule="evenodd" fill-opacity="1" stroke="#000000" stroke-opacity="1" stroke-width="1.536"/>
<circle clip-path="url(#clip832)" cx="525.163" cy="355.006" r="14.4" fill="#e26f46" fill-rule="evenodd" fill-opacity="1" stroke="#000000" stroke-opacity="1" stroke-width="1.536"/>
<circle clip-path="url(#clip832)" cx="686.383" cy="355.006" r="14.4" fill="#e26f46" fill-rule="evenodd" fill-opacity="1" stroke="#000000" stroke-opacity="1" stroke-width="1.536"/>
<circle clip-path="url(#clip832)" cx="538.466" cy="355.006" r="14.4" fill="#e26f46" fill-rule="evenodd" fill-opacity="1" stroke="#000000" stroke-opacity="1" stroke-width="1.536"/>
<circle clip-path="url(#clip832)" cx="627.637" cy="355.006" r="14.4" fill="#e26f46" fill-rule="evenodd" fill-opacity="1" stroke="#000000" stroke-opacity="1" stroke-width="1.536"/>
<circle clip-path="url(#clip832)" cx="635.794" cy="355.006" r="14.4" fill="#e26f46" fill-rule="evenodd" fill-opacity="1" stroke="#000000" stroke-opacity="1" stroke-width="1.536"/>
<circle clip-path="url(#clip832)" cx="593.635" cy="355.006" r="14.4" fill="#e26f46" fill-rule="evenodd" fill-opacity="1" stroke="#000000" stroke-opacity="1" stroke-width="1.536"/>
<circle clip-path="url(#clip832)" cx="665.011" cy="355.006" r="14.4" fill="#e26f46" fill-rule="evenodd" fill-opacity="1" stroke="#000000" stroke-opacity="1" stroke-width="1.536"/>
<circle clip-path="url(#clip832)" cx="756.237" cy="355.006" r="14.4" fill="#e26f46" fill-rule="evenodd" fill-opacity="1" stroke="#000000" stroke-opacity="1" stroke-width="1.536"/>
<circle clip-path="url(#clip832)" cx="674.665" cy="355.006" r="14.4" fill="#e26f46" fill-rule="evenodd" fill-opacity="1" stroke="#000000" stroke-opacity="1" stroke-width="1.536"/>
<circle clip-path="url(#clip832)" cx="672.015" cy="355.006" r="14.4" fill="#e26f46" fill-rule="evenodd" fill-opacity="1" stroke="#000000" stroke-opacity="1" stroke-width="1.536"/>
<circle clip-path="url(#clip832)" cx="676.232" cy="355.006" r="14.4" fill="#e26f46" fill-rule="evenodd" fill-opacity="1" stroke="#000000" stroke-opacity="1" stroke-width="1.536"/>
<circle clip-path="url(#clip832)" cx="767.01" cy="355.006" r="14.4" fill="#e26f46" fill-rule="evenodd" fill-opacity="1" stroke="#000000" stroke-opacity="1" stroke-width="1.536"/>
<circle clip-path="url(#clip832)" cx="733.143" cy="355.006" r="14.4" fill="#e26f46" fill-rule="evenodd" fill-opacity="1" stroke="#000000" stroke-opacity="1" stroke-width="1.536"/>
<circle clip-path="url(#clip832)" cx="700.856" cy="355.006" r="14.4" fill="#e26f46" fill-rule="evenodd" fill-opacity="1" stroke="#000000" stroke-opacity="1" stroke-width="1.536"/>
<circle clip-path="url(#clip832)" cx="770.467" cy="355.006" r="14.4" fill="#e26f46" fill-rule="evenodd" fill-opacity="1" stroke="#000000" stroke-opacity="1" stroke-width="1.536"/>
<circle clip-path="url(#clip832)" cx="699.339" cy="355.006" r="14.4" fill="#e26f46" fill-rule="evenodd" fill-opacity="1" stroke="#000000" stroke-opacity="1" stroke-width="1.536"/>
<circle clip-path="url(#clip832)" cx="738.459" cy="355.006" r="14.4" fill="#e26f46" fill-rule="evenodd" fill-opacity="1" stroke="#000000" stroke-opacity="1" stroke-width="1.536"/>
<circle clip-path="url(#clip832)" cx="650.926" cy="355.006" r="14.4" fill="#e26f46" fill-rule="evenodd" fill-opacity="1" stroke="#000000" stroke-opacity="1" stroke-width="1.536"/>
<circle clip-path="url(#clip832)" cx="573.262" cy="355.006" r="14.4" fill="#e26f46" fill-rule="evenodd" fill-opacity="1" stroke="#000000" stroke-opacity="1" stroke-width="1.536"/>
<circle clip-path="url(#clip832)" cx="767.546" cy="355.006" r="14.4" fill="#e26f46" fill-rule="evenodd" fill-opacity="1" stroke="#000000" stroke-opacity="1" stroke-width="1.536"/>
<circle clip-path="url(#clip832)" cx="773.844" cy="355.006" r="14.4" fill="#e26f46" fill-rule="evenodd" fill-opacity="1" stroke="#000000" stroke-opacity="1" stroke-width="1.536"/>
<circle clip-path="url(#clip832)" cx="780.306" cy="355.006" r="14.4" fill="#e26f46" fill-rule="evenodd" fill-opacity="1" stroke="#000000" stroke-opacity="1" stroke-width="1.536"/>
<circle clip-path="url(#clip832)" cx="787.696" cy="355.006" r="14.4" fill="#e26f46" fill-rule="evenodd" fill-opacity="1" stroke="#000000" stroke-opacity="1" stroke-width="1.536"/>
<circle clip-path="url(#clip832)" cx="730.737" cy="355.006" r="14.4" fill="#e26f46" fill-rule="evenodd" fill-opacity="1" stroke="#000000" stroke-opacity="1" stroke-width="1.536"/>
<circle clip-path="url(#clip832)" cx="731.069" cy="64.6646" r="14.4" fill="#3da44d" fill-rule="evenodd" fill-opacity="1" stroke="#000000" stroke-opacity="1" stroke-width="1.536"/>
<circle clip-path="url(#clip832)" cx="729.455" cy="64.6646" r="14.4" fill="#3da44d" fill-rule="evenodd" fill-opacity="1" stroke="#000000" stroke-opacity="1" stroke-width="1.536"/>
<circle clip-path="url(#clip832)" cx="646.761" cy="64.6646" r="14.4" fill="#3da44d" fill-rule="evenodd" fill-opacity="1" stroke="#000000" stroke-opacity="1" stroke-width="1.536"/>
<circle clip-path="url(#clip832)" cx="703.355" cy="64.6646" r="14.4" fill="#3da44d" fill-rule="evenodd" fill-opacity="1" stroke="#000000" stroke-opacity="1" stroke-width="1.536"/>
<circle clip-path="url(#clip832)" cx="720.659" cy="64.6646" r="14.4" fill="#3da44d" fill-rule="evenodd" fill-opacity="1" stroke="#000000" stroke-opacity="1" stroke-width="1.536"/>
<circle clip-path="url(#clip832)" cx="690.291" cy="64.6646" r="14.4" fill="#3da44d" fill-rule="evenodd" fill-opacity="1" stroke="#000000" stroke-opacity="1" stroke-width="1.536"/>
<circle clip-path="url(#clip832)" cx="801.486" cy="64.6646" r="14.4" fill="#3da44d" fill-rule="evenodd" fill-opacity="1" stroke="#000000" stroke-opacity="1" stroke-width="1.536"/>
<circle clip-path="url(#clip832)" cx="830.786" cy="64.6646" r="14.4" fill="#3da44d" fill-rule="evenodd" fill-opacity="1" stroke="#000000" stroke-opacity="1" stroke-width="1.536"/>
<circle clip-path="url(#clip832)" cx="672.811" cy="64.6646" r="14.4" fill="#3da44d" fill-rule="evenodd" fill-opacity="1" stroke="#000000" stroke-opacity="1" stroke-width="1.536"/>
<circle clip-path="url(#clip832)" cx="813.336" cy="64.6646" r="14.4" fill="#3da44d" fill-rule="evenodd" fill-opacity="1" stroke="#000000" stroke-opacity="1" stroke-width="1.536"/>
<circle clip-path="url(#clip832)" cx="777.247" cy="64.6646" r="14.4" fill="#3da44d" fill-rule="evenodd" fill-opacity="1" stroke="#000000" stroke-opacity="1" stroke-width="1.536"/>
<circle clip-path="url(#clip832)" cx="783.536" cy="64.6646" r="14.4" fill="#3da44d" fill-rule="evenodd" fill-opacity="1" stroke="#000000" stroke-opacity="1" stroke-width="1.536"/>
<circle clip-path="url(#clip832)" cx="693.824" cy="64.6646" r="14.4" fill="#3da44d" fill-rule="evenodd" fill-opacity="1" stroke="#000000" stroke-opacity="1" stroke-width="1.536"/>
<circle clip-path="url(#clip832)" cx="754.655" cy="64.6646" r="14.4" fill="#3da44d" fill-rule="evenodd" fill-opacity="1" stroke="#000000" stroke-opacity="1" stroke-width="1.536"/>
<circle clip-path="url(#clip832)" cx="679.471" cy="64.6646" r="14.4" fill="#3da44d" fill-rule="evenodd" fill-opacity="1" stroke="#000000" stroke-opacity="1" stroke-width="1.536"/>
<circle clip-path="url(#clip832)" cx="837.11" cy="64.6646" r="14.4" fill="#3da44d" fill-rule="evenodd" fill-opacity="1" stroke="#000000" stroke-opacity="1" stroke-width="1.536"/>
<circle clip-path="url(#clip832)" cx="766.07" cy="64.6646" r="14.4" fill="#3da44d" fill-rule="evenodd" fill-opacity="1" stroke="#000000" stroke-opacity="1" stroke-width="1.536"/>
<circle clip-path="url(#clip832)" cx="872.174" cy="64.6646" r="14.4" fill="#3da44d" fill-rule="evenodd" fill-opacity="1" stroke="#000000" stroke-opacity="1" stroke-width="1.536"/>
<circle clip-path="url(#clip832)" cx="864.464" cy="64.6646" r="14.4" fill="#3da44d" fill-rule="evenodd" fill-opacity="1" stroke="#000000" stroke-opacity="1" stroke-width="1.536"/>
<circle clip-path="url(#clip832)" cx="781.415" cy="64.6646" r="14.4" fill="#3da44d" fill-rule="evenodd" fill-opacity="1" stroke="#000000" stroke-opacity="1" stroke-width="1.536"/>
<circle clip-path="url(#clip832)" cx="846.828" cy="64.6646" r="14.4" fill="#3da44d" fill-rule="evenodd" fill-opacity="1" stroke="#000000" stroke-opacity="1" stroke-width="1.536"/>
<circle clip-path="url(#clip832)" cx="940.867" cy="64.6646" r="14.4" fill="#3da44d" fill-rule="evenodd" fill-opacity="1" stroke="#000000" stroke-opacity="1" stroke-width="1.536"/>
<circle clip-path="url(#clip832)" cx="833.876" cy="64.6646" r="14.4" fill="#3da44d" fill-rule="evenodd" fill-opacity="1" stroke="#000000" stroke-opacity="1" stroke-width="1.536"/>
<circle clip-path="url(#clip832)" cx="906.813" cy="64.6646" r="14.4" fill="#3da44d" fill-rule="evenodd" fill-opacity="1" stroke="#000000" stroke-opacity="1" stroke-width="1.536"/>
<circle clip-path="url(#clip832)" cx="781.884" cy="64.6646" r="14.4" fill="#3da44d" fill-rule="evenodd" fill-opacity="1" stroke="#000000" stroke-opacity="1" stroke-width="1.536"/>
<circle clip-path="url(#clip832)" cx="783.929" cy="64.6646" r="14.4" fill="#3da44d" fill-rule="evenodd" fill-opacity="1" stroke="#000000" stroke-opacity="1" stroke-width="1.536"/>
<circle clip-path="url(#clip832)" cx="762.086" cy="64.6646" r="14.4" fill="#3da44d" fill-rule="evenodd" fill-opacity="1" stroke="#000000" stroke-opacity="1" stroke-width="1.536"/>
<circle clip-path="url(#clip832)" cx="809.863" cy="64.6646" r="14.4" fill="#3da44d" fill-rule="evenodd" fill-opacity="1" stroke="#000000" stroke-opacity="1" stroke-width="1.536"/>
<circle clip-path="url(#clip832)" cx="783.904" cy="64.6646" r="14.4" fill="#3da44d" fill-rule="evenodd" fill-opacity="1" stroke="#000000" stroke-opacity="1" stroke-width="1.536"/>
<circle clip-path="url(#clip832)" cx="745.42" cy="64.6646" r="14.4" fill="#3da44d" fill-rule="evenodd" fill-opacity="1" stroke="#000000" stroke-opacity="1" stroke-width="1.536"/>
<circle clip-path="url(#clip832)" cx="839.391" cy="64.6646" r="14.4" fill="#3da44d" fill-rule="evenodd" fill-opacity="1" stroke="#000000" stroke-opacity="1" stroke-width="1.536"/>
<circle clip-path="url(#clip832)" cx="847.579" cy="64.6646" r="14.4" fill="#3da44d" fill-rule="evenodd" fill-opacity="1" stroke="#000000" stroke-opacity="1" stroke-width="1.536"/>
<circle clip-path="url(#clip832)" cx="880.554" cy="64.6646" r="14.4" fill="#3da44d" fill-rule="evenodd" fill-opacity="1" stroke="#000000" stroke-opacity="1" stroke-width="1.536"/>
<circle clip-path="url(#clip832)" cx="852.248" cy="64.6646" r="14.4" fill="#3da44d" fill-rule="evenodd" fill-opacity="1" stroke="#000000" stroke-opacity="1" stroke-width="1.536"/>
<circle clip-path="url(#clip832)" cx="804.098" cy="64.6646" r="14.4" fill="#3da44d" fill-rule="evenodd" fill-opacity="1" stroke="#000000" stroke-opacity="1" stroke-width="1.536"/>
<circle clip-path="url(#clip832)" cx="840.455" cy="64.6646" r="14.4" fill="#3da44d" fill-rule="evenodd" fill-opacity="1" stroke="#000000" stroke-opacity="1" stroke-width="1.536"/>
<circle clip-path="url(#clip832)" cx="937.745" cy="64.6646" r="14.4" fill="#3da44d" fill-rule="evenodd" fill-opacity="1" stroke="#000000" stroke-opacity="1" stroke-width="1.536"/>
<circle clip-path="url(#clip832)" cx="902.515" cy="64.6646" r="14.4" fill="#3da44d" fill-rule="evenodd" fill-opacity="1" stroke="#000000" stroke-opacity="1" stroke-width="1.536"/>
<circle clip-path="url(#clip832)" cx="890.271" cy="64.6646" r="14.4" fill="#3da44d" fill-rule="evenodd" fill-opacity="1" stroke="#000000" stroke-opacity="1" stroke-width="1.536"/>
<circle clip-path="url(#clip832)" cx="1005.94" cy="64.6646" r="14.4" fill="#3da44d" fill-rule="evenodd" fill-opacity="1" stroke="#000000" stroke-opacity="1" stroke-width="1.536"/>
<circle clip-path="url(#clip832)" cx="992.534" cy="64.6646" r="14.4" fill="#3da44d" fill-rule="evenodd" fill-opacity="1" stroke="#000000" stroke-opacity="1" stroke-width="1.536"/>
<circle clip-path="url(#clip832)" cx="799.208" cy="64.6646" r="14.4" fill="#3da44d" fill-rule="evenodd" fill-opacity="1" stroke="#000000" stroke-opacity="1" stroke-width="1.536"/>
<circle clip-path="url(#clip832)" cx="928.284" cy="64.6646" r="14.4" fill="#3da44d" fill-rule="evenodd" fill-opacity="1" stroke="#000000" stroke-opacity="1" stroke-width="1.536"/>
<circle clip-path="url(#clip832)" cx="852.975" cy="64.6646" r="14.4" fill="#3da44d" fill-rule="evenodd" fill-opacity="1" stroke="#000000" stroke-opacity="1" stroke-width="1.536"/>
<circle clip-path="url(#clip832)" cx="906.457" cy="64.6646" r="14.4" fill="#3da44d" fill-rule="evenodd" fill-opacity="1" stroke="#000000" stroke-opacity="1" stroke-width="1.536"/>
<circle clip-path="url(#clip832)" cx="1036.71" cy="64.6646" r="14.4" fill="#3da44d" fill-rule="evenodd" fill-opacity="1" stroke="#000000" stroke-opacity="1" stroke-width="1.536"/>
<circle clip-path="url(#clip832)" cx="972.268" cy="64.6646" r="14.4" fill="#3da44d" fill-rule="evenodd" fill-opacity="1" stroke="#000000" stroke-opacity="1" stroke-width="1.536"/>
<circle clip-path="url(#clip832)" cx="965.042" cy="64.6646" r="14.4" fill="#3da44d" fill-rule="evenodd" fill-opacity="1" stroke="#000000" stroke-opacity="1" stroke-width="1.536"/>
<circle clip-path="url(#clip832)" cx="1077.58" cy="64.6646" r="14.4" fill="#3da44d" fill-rule="evenodd" fill-opacity="1" stroke="#000000" stroke-opacity="1" stroke-width="1.536"/>
<circle clip-path="url(#clip832)" cx="1076.7" cy="64.6646" r="14.4" fill="#3da44d" fill-rule="evenodd" fill-opacity="1" stroke="#000000" stroke-opacity="1" stroke-width="1.536"/>
<path clip-path="url(#clip830)" d="
M746.808 642.25 L1072.75 642.25 L1072.75 434.89 L746.808 434.89  Z
  " fill="#ffffff" fill-rule="evenodd" fill-opacity="1"/>
<polyline clip-path="url(#clip830)" style="stroke:#000000; stroke-linecap:round; stroke-linejoin:round; stroke-width:4; stroke-opacity:1; fill:none" points="
  746.808,642.25 1072.75,642.25 1072.75,434.89 746.808,434.89 746.808,642.25 
  "/>
<circle clip-path="url(#clip830)" cx="789.489" cy="486.73" r="23.04" fill="#009af9" fill-rule="evenodd" fill-opacity="1" stroke="#000000" stroke-opacity="1" stroke-width="2.4576"/>
<path clip-path="url(#clip830)" d="M850.595 478.849 L850.595 482.876 Q848.789 481.95 846.845 481.487 Q844.901 481.024 842.817 481.024 Q839.646 481.024 838.049 481.997 Q836.475 482.969 836.475 484.913 Q836.475 486.395 837.609 487.251 Q838.743 488.085 842.169 488.848 L843.627 489.173 Q848.164 490.145 850.063 491.927 Q851.984 493.686 851.984 496.858 Q851.984 500.469 849.113 502.575 Q846.266 504.682 841.266 504.682 Q839.183 504.682 836.914 504.265 Q834.669 503.872 832.169 503.061 L832.169 498.663 Q834.53 499.89 836.822 500.515 Q839.114 501.117 841.359 501.117 Q844.368 501.117 845.988 500.098 Q847.609 499.057 847.609 497.182 Q847.609 495.446 846.428 494.52 Q845.271 493.594 841.313 492.737 L839.831 492.39 Q835.873 491.557 834.114 489.844 Q832.354 488.108 832.354 485.098 Q832.354 481.441 834.947 479.45 Q837.539 477.46 842.308 477.46 Q844.669 477.46 846.752 477.807 Q848.836 478.154 850.595 478.849 Z" fill="#000000" fill-rule="evenodd" fill-opacity="1" /><path clip-path="url(#clip830)" d="M880.942 489.983 L880.942 492.066 L861.359 492.066 Q861.637 496.464 863.998 498.779 Q866.382 501.071 870.618 501.071 Q873.072 501.071 875.363 500.469 Q877.678 499.867 879.947 498.663 L879.947 502.691 Q877.655 503.663 875.248 504.172 Q872.84 504.682 870.363 504.682 Q864.16 504.682 860.525 501.071 Q856.914 497.46 856.914 491.302 Q856.914 484.936 860.34 481.21 Q863.789 477.46 869.623 477.46 Q874.854 477.46 877.886 480.839 Q880.942 484.196 880.942 489.983 M876.683 488.733 Q876.636 485.237 874.715 483.154 Q872.817 481.071 869.669 481.071 Q866.104 481.071 863.951 483.085 Q861.822 485.098 861.498 488.756 L876.683 488.733 Z" fill="#000000" fill-rule="evenodd" fill-opacity="1" /><path clip-path="url(#clip830)" d="M892.146 470.724 L892.146 478.085 L900.919 478.085 L900.919 481.395 L892.146 481.395 L892.146 495.469 Q892.146 498.64 893.002 499.543 Q893.882 500.446 896.544 500.446 L900.919 500.446 L900.919 504.01 L896.544 504.01 Q891.613 504.01 889.738 502.182 Q887.863 500.33 887.863 495.469 L887.863 481.395 L884.738 481.395 L884.738 478.085 L887.863 478.085 L887.863 470.724 L892.146 470.724 Z" fill="#000000" fill-rule="evenodd" fill-opacity="1" /><path clip-path="url(#clip830)" d="M916.567 481.071 Q913.141 481.071 911.15 483.756 Q909.159 486.418 909.159 491.071 Q909.159 495.723 911.127 498.409 Q913.118 501.071 916.567 501.071 Q919.97 501.071 921.96 498.385 Q923.951 495.7 923.951 491.071 Q923.951 486.464 921.96 483.779 Q919.97 481.071 916.567 481.071 M916.567 477.46 Q922.122 477.46 925.294 481.071 Q928.465 484.682 928.465 491.071 Q928.465 497.436 925.294 501.071 Q922.122 504.682 916.567 504.682 Q910.988 504.682 907.817 501.071 Q904.669 497.436 904.669 491.071 Q904.669 484.682 907.817 481.071 Q910.988 477.46 916.567 477.46 Z" fill="#000000" fill-rule="evenodd" fill-opacity="1" /><path clip-path="url(#clip830)" d="M952.053 478.849 L952.053 482.876 Q950.247 481.95 948.303 481.487 Q946.358 481.024 944.275 481.024 Q941.104 481.024 939.507 481.997 Q937.932 482.969 937.932 484.913 Q937.932 486.395 939.067 487.251 Q940.201 488.085 943.627 488.848 L945.085 489.173 Q949.622 490.145 951.52 491.927 Q953.442 493.686 953.442 496.858 Q953.442 500.469 950.571 502.575 Q947.724 504.682 942.724 504.682 Q940.641 504.682 938.372 504.265 Q936.127 503.872 933.627 503.061 L933.627 498.663 Q935.988 499.89 938.28 500.515 Q940.571 501.117 942.817 501.117 Q945.826 501.117 947.446 500.098 Q949.067 499.057 949.067 497.182 Q949.067 495.446 947.886 494.52 Q946.729 493.594 942.77 492.737 L941.289 492.39 Q937.331 491.557 935.571 489.844 Q933.812 488.108 933.812 485.098 Q933.812 481.441 936.405 479.45 Q938.997 477.46 943.766 477.46 Q946.127 477.46 948.21 477.807 Q950.293 478.154 952.053 478.849 Z" fill="#000000" fill-rule="evenodd" fill-opacity="1" /><path clip-path="url(#clip830)" d="M972.006 490.978 Q966.844 490.978 964.854 492.159 Q962.863 493.339 962.863 496.186 Q962.863 498.455 964.344 499.797 Q965.849 501.117 968.418 501.117 Q971.96 501.117 974.09 498.617 Q976.242 496.094 976.242 491.927 L976.242 490.978 L972.006 490.978 M980.502 489.219 L980.502 504.01 L976.242 504.01 L976.242 500.075 Q974.784 502.436 972.608 503.571 Q970.432 504.682 967.284 504.682 Q963.303 504.682 960.942 502.459 Q958.604 500.214 958.604 496.464 Q958.604 492.089 961.52 489.867 Q964.46 487.645 970.27 487.645 L976.242 487.645 L976.242 487.228 Q976.242 484.288 974.298 482.691 Q972.377 481.071 968.881 481.071 Q966.659 481.071 964.553 481.603 Q962.446 482.136 960.502 483.2 L960.502 479.265 Q962.84 478.362 965.039 477.923 Q967.238 477.46 969.321 477.46 Q974.946 477.46 977.724 480.376 Q980.502 483.293 980.502 489.219 Z" fill="#000000" fill-rule="evenodd" fill-opacity="1" /><circle clip-path="url(#clip830)" cx="789.489" cy="538.57" r="23.04" fill="#e26f46" fill-rule="evenodd" fill-opacity="1" stroke="#000000" stroke-opacity="1" stroke-width="2.4576"/>
<path clip-path="url(#clip830)" d="M832.169 529.925 L836.683 529.925 L844.785 551.684 L852.887 529.925 L857.4 529.925 L847.678 555.85 L841.891 555.85 L832.169 529.925 Z" fill="#000000" fill-rule="evenodd" fill-opacity="1" /><path clip-path="url(#clip830)" d="M885.456 541.823 L885.456 543.906 L865.873 543.906 Q866.15 548.304 868.512 550.619 Q870.896 552.911 875.132 552.911 Q877.586 552.911 879.877 552.309 Q882.192 551.707 884.461 550.503 L884.461 554.531 Q882.169 555.503 879.761 556.012 Q877.354 556.522 874.877 556.522 Q868.674 556.522 865.039 552.911 Q861.428 549.3 861.428 543.142 Q861.428 536.776 864.854 533.05 Q868.303 529.3 874.136 529.3 Q879.368 529.3 882.4 532.679 Q885.456 536.036 885.456 541.823 M881.197 540.573 Q881.15 537.077 879.229 534.994 Q877.331 532.911 874.183 532.911 Q870.618 532.911 868.465 534.925 Q866.336 536.938 866.012 540.596 L881.197 540.573 Z" fill="#000000" fill-rule="evenodd" fill-opacity="1" /><path clip-path="url(#clip830)" d="M907.47 533.906 Q906.752 533.489 905.896 533.304 Q905.062 533.096 904.044 533.096 Q900.433 533.096 898.488 535.457 Q896.567 537.795 896.567 542.193 L896.567 555.85 L892.285 555.85 L892.285 529.925 L896.567 529.925 L896.567 533.952 Q897.91 531.591 900.062 530.457 Q902.215 529.3 905.294 529.3 Q905.734 529.3 906.266 529.369 Q906.798 529.415 907.447 529.531 L907.47 533.906 Z" fill="#000000" fill-rule="evenodd" fill-opacity="1" /><path clip-path="url(#clip830)" d="M928.465 530.689 L928.465 534.716 Q926.659 533.79 924.715 533.327 Q922.77 532.864 920.687 532.864 Q917.516 532.864 915.919 533.837 Q914.345 534.809 914.345 536.753 Q914.345 538.235 915.479 539.091 Q916.613 539.925 920.039 540.688 L921.497 541.013 Q926.034 541.985 927.933 543.767 Q929.854 545.526 929.854 548.698 Q929.854 552.309 926.983 554.415 Q924.136 556.522 919.136 556.522 Q917.053 556.522 914.784 556.105 Q912.539 555.712 910.039 554.901 L910.039 550.503 Q912.4 551.73 914.692 552.355 Q916.983 552.957 919.229 552.957 Q922.238 552.957 923.858 551.938 Q925.479 550.897 925.479 549.022 Q925.479 547.286 924.298 546.36 Q923.141 545.434 919.183 544.577 L917.701 544.23 Q913.743 543.397 911.984 541.684 Q910.224 539.948 910.224 536.938 Q910.224 533.281 912.817 531.29 Q915.409 529.3 920.178 529.3 Q922.539 529.3 924.622 529.647 Q926.706 529.994 928.465 530.689 Z" fill="#000000" fill-rule="evenodd" fill-opacity="1" /><path clip-path="url(#clip830)" d="M936.636 529.925 L940.895 529.925 L940.895 555.85 L936.636 555.85 L936.636 529.925 M936.636 519.832 L940.895 519.832 L940.895 525.226 L936.636 525.226 L936.636 519.832 Z" fill="#000000" fill-rule="evenodd" fill-opacity="1" /><path clip-path="url(#clip830)" d="M968.465 530.92 L968.465 534.901 Q966.659 533.906 964.83 533.42 Q963.025 532.911 961.173 532.911 Q957.03 532.911 954.738 535.55 Q952.446 538.165 952.446 542.911 Q952.446 547.656 954.738 550.295 Q957.03 552.911 961.173 552.911 Q963.025 552.911 964.83 552.425 Q966.659 551.915 968.465 550.92 L968.465 554.855 Q966.682 555.688 964.761 556.105 Q962.863 556.522 960.71 556.522 Q954.854 556.522 951.405 552.841 Q947.956 549.161 947.956 542.911 Q947.956 536.568 951.428 532.934 Q954.923 529.3 960.988 529.3 Q962.955 529.3 964.83 529.716 Q966.705 530.11 968.465 530.92 Z" fill="#000000" fill-rule="evenodd" fill-opacity="1" /><path clip-path="url(#clip830)" d="M985.918 532.911 Q982.492 532.911 980.502 535.596 Q978.511 538.258 978.511 542.911 Q978.511 547.563 980.479 550.249 Q982.469 552.911 985.918 552.911 Q989.321 552.911 991.312 550.225 Q993.303 547.54 993.303 542.911 Q993.303 538.304 991.312 535.619 Q989.321 532.911 985.918 532.911 M985.918 529.3 Q991.474 529.3 994.645 532.911 Q997.816 536.522 997.816 542.911 Q997.816 549.276 994.645 552.911 Q991.474 556.522 985.918 556.522 Q980.34 556.522 977.168 552.911 Q974.02 549.276 974.02 542.911 Q974.02 536.522 977.168 532.911 Q980.34 529.3 985.918 529.3 Z" fill="#000000" fill-rule="evenodd" fill-opacity="1" /><path clip-path="url(#clip830)" d="M1004.88 519.832 L1009.14 519.832 L1009.14 555.85 L1004.88 555.85 L1004.88 519.832 Z" fill="#000000" fill-rule="evenodd" fill-opacity="1" /><path clip-path="url(#clip830)" d="M1028.09 532.911 Q1024.67 532.911 1022.68 535.596 Q1020.69 538.258 1020.69 542.911 Q1020.69 547.563 1022.65 550.249 Q1024.64 552.911 1028.09 552.911 Q1031.5 552.911 1033.49 550.225 Q1035.48 547.54 1035.48 542.911 Q1035.48 538.304 1033.49 535.619 Q1031.5 532.911 1028.09 532.911 M1028.09 529.3 Q1033.65 529.3 1036.82 532.911 Q1039.99 536.522 1039.99 542.911 Q1039.99 549.276 1036.82 552.911 Q1033.65 556.522 1028.09 556.522 Q1022.52 556.522 1019.34 552.911 Q1016.2 549.276 1016.2 542.911 Q1016.2 536.522 1019.34 532.911 Q1022.52 529.3 1028.09 529.3 Z" fill="#000000" fill-rule="evenodd" fill-opacity="1" /><path clip-path="url(#clip830)" d="M1062.08 533.906 Q1061.36 533.489 1060.5 533.304 Q1059.67 533.096 1058.65 533.096 Q1055.04 533.096 1053.09 535.457 Q1051.17 537.795 1051.17 542.193 L1051.17 555.85 L1046.89 555.85 L1046.89 529.925 L1051.17 529.925 L1051.17 533.952 Q1052.52 531.591 1054.67 530.457 Q1056.82 529.3 1059.9 529.3 Q1060.34 529.3 1060.87 529.369 Q1061.4 529.415 1062.05 529.531 L1062.08 533.906 Z" fill="#000000" fill-rule="evenodd" fill-opacity="1" /><circle clip-path="url(#clip830)" cx="789.489" cy="590.41" r="23.04" fill="#3da44d" fill-rule="evenodd" fill-opacity="1" stroke="#000000" stroke-opacity="1" stroke-width="2.4576"/>
<path clip-path="url(#clip830)" d="M832.169 581.765 L836.683 581.765 L844.785 603.524 L852.887 581.765 L857.4 581.765 L847.678 607.69 L841.891 607.69 L832.169 581.765 Z" fill="#000000" fill-rule="evenodd" fill-opacity="1" /><path clip-path="url(#clip830)" d="M863.28 581.765 L867.539 581.765 L867.539 607.69 L863.28 607.69 L863.28 581.765 M863.28 571.672 L867.539 571.672 L867.539 577.066 L863.28 577.066 L863.28 571.672 Z" fill="#000000" fill-rule="evenodd" fill-opacity="1" /><path clip-path="url(#clip830)" d="M891.474 585.746 Q890.757 585.329 889.9 585.144 Q889.067 584.936 888.048 584.936 Q884.437 584.936 882.493 587.297 Q880.572 589.635 880.572 594.033 L880.572 607.69 L876.289 607.69 L876.289 581.765 L880.572 581.765 L880.572 585.792 Q881.914 583.431 884.067 582.297 Q886.22 581.14 889.298 581.14 Q889.738 581.14 890.271 581.209 Q890.803 581.255 891.451 581.371 L891.474 585.746 Z" fill="#000000" fill-rule="evenodd" fill-opacity="1" /><path clip-path="url(#clip830)" d="M912.169 594.427 Q912.169 589.797 910.247 587.251 Q908.349 584.704 904.9 584.704 Q901.474 584.704 899.553 587.251 Q897.655 589.797 897.655 594.427 Q897.655 599.033 899.553 601.579 Q901.474 604.126 904.9 604.126 Q908.349 604.126 910.247 601.579 Q912.169 599.033 912.169 594.427 M916.428 604.473 Q916.428 611.093 913.488 614.311 Q910.548 617.551 904.484 617.551 Q902.238 617.551 900.247 617.204 Q898.257 616.88 896.382 616.186 L896.382 612.042 Q898.257 613.061 900.085 613.547 Q901.914 614.033 903.812 614.033 Q908.002 614.033 910.085 611.834 Q912.169 609.658 912.169 605.237 L912.169 603.13 Q910.849 605.422 908.789 606.556 Q906.729 607.69 903.859 607.69 Q899.09 607.69 896.173 604.056 Q893.257 600.422 893.257 594.427 Q893.257 588.408 896.173 584.774 Q899.09 581.14 903.859 581.14 Q906.729 581.14 908.789 582.274 Q910.849 583.408 912.169 585.7 L912.169 581.765 L916.428 581.765 L916.428 604.473 Z" fill="#000000" fill-rule="evenodd" fill-opacity="1" /><path clip-path="url(#clip830)" d="M925.201 581.765 L929.46 581.765 L929.46 607.69 L925.201 607.69 L925.201 581.765 M925.201 571.672 L929.46 571.672 L929.46 577.066 L925.201 577.066 L925.201 571.672 Z" fill="#000000" fill-rule="evenodd" fill-opacity="1" /><path clip-path="url(#clip830)" d="M959.923 592.042 L959.923 607.69 L955.664 607.69 L955.664 592.181 Q955.664 588.501 954.229 586.672 Q952.793 584.843 949.923 584.843 Q946.474 584.843 944.483 587.042 Q942.493 589.241 942.493 593.038 L942.493 607.69 L938.21 607.69 L938.21 581.765 L942.493 581.765 L942.493 585.792 Q944.02 583.454 946.081 582.297 Q948.164 581.14 950.872 581.14 Q955.34 581.14 957.631 583.917 Q959.923 586.672 959.923 592.042 Z" fill="#000000" fill-rule="evenodd" fill-opacity="1" /><path clip-path="url(#clip830)" d="M968.418 581.765 L972.678 581.765 L972.678 607.69 L968.418 607.69 L968.418 581.765 M968.418 571.672 L972.678 571.672 L972.678 577.066 L968.418 577.066 L968.418 571.672 Z" fill="#000000" fill-rule="evenodd" fill-opacity="1" /><path clip-path="url(#clip830)" d="M1000.25 582.76 L1000.25 586.741 Q998.441 585.746 996.613 585.26 Q994.807 584.751 992.955 584.751 Q988.812 584.751 986.52 587.39 Q984.228 590.005 984.228 594.751 Q984.228 599.496 986.52 602.135 Q988.812 604.751 992.955 604.751 Q994.807 604.751 996.613 604.265 Q998.441 603.755 1000.25 602.76 L1000.25 606.695 Q998.465 607.528 996.543 607.945 Q994.645 608.362 992.492 608.362 Q986.636 608.362 983.187 604.681 Q979.738 601.001 979.738 594.751 Q979.738 588.408 983.21 584.774 Q986.705 581.14 992.77 581.14 Q994.738 581.14 996.613 581.556 Q998.488 581.95 1000.25 582.76 Z" fill="#000000" fill-rule="evenodd" fill-opacity="1" /><path clip-path="url(#clip830)" d="M1019.44 594.658 Q1014.27 594.658 1012.28 595.839 Q1010.29 597.019 1010.29 599.866 Q1010.29 602.135 1011.77 603.477 Q1013.28 604.797 1015.85 604.797 Q1019.39 604.797 1021.52 602.297 Q1023.67 599.774 1023.67 595.607 L1023.67 594.658 L1019.44 594.658 M1027.93 592.899 L1027.93 607.69 L1023.67 607.69 L1023.67 603.755 Q1022.21 606.116 1020.04 607.251 Q1017.86 608.362 1014.71 608.362 Q1010.73 608.362 1008.37 606.139 Q1006.03 603.894 1006.03 600.144 Q1006.03 595.769 1008.95 593.547 Q1011.89 591.325 1017.7 591.325 L1023.67 591.325 L1023.67 590.908 Q1023.67 587.968 1021.73 586.371 Q1019.81 584.751 1016.31 584.751 Q1014.09 584.751 1011.98 585.283 Q1009.88 585.816 1007.93 586.88 L1007.93 582.945 Q1010.27 582.042 1012.47 581.603 Q1014.67 581.14 1016.75 581.14 Q1022.38 581.14 1025.15 584.056 Q1027.93 586.973 1027.93 592.899 Z" fill="#000000" fill-rule="evenodd" fill-opacity="1" /></svg>
