<?xml version="1.0" encoding="utf-8"?>
<svg xmlns="http://www.w3.org/2000/svg" xmlns:xlink="http://www.w3.org/1999/xlink" width="576" height="384" viewBox="0 0 2304 1536">
<defs>
  <clipPath id="clip440">
    <rect x="0" y="0" width="2304" height="1536"/>
  </clipPath>
</defs>
<path clip-path="url(#clip440)" d="
M0 1536 L2304 1536 L2304 0 L0 0  Z
  " fill="#ffffff" fill-rule="evenodd" fill-opacity="1"/>
<defs>
  <clipPath id="clip441">
    <rect x="460" y="0" width="1614" height="1536"/>
  </clipPath>
</defs>
<path clip-path="url(#clip440)" d="
M201.267 1359.82 L2256.76 1359.82 L2256.76 123.472 L201.267 123.472  Z
  " fill="#ffffff" fill-rule="evenodd" fill-opacity="1"/>
<defs>
  <clipPath id="clip442">
    <rect x="201" y="123" width="2056" height="1237"/>
  </clipPath>
</defs>
<polyline clip-path="url(#clip442)" style="stroke:#000000; stroke-linecap:round; stroke-linejoin:round; stroke-width:2; stroke-opacity:0.1; fill:none" points="
  411.664,1359.82 411.664,123.472 
  "/>
<polyline clip-path="url(#clip442)" style="stroke:#000000; stroke-linecap:round; stroke-linejoin:round; stroke-width:2; stroke-opacity:0.1; fill:none" points="
  723.055,1359.82 723.055,123.472 
  "/>
<polyline clip-path="url(#clip442)" style="stroke:#000000; stroke-linecap:round; stroke-linejoin:round; stroke-width:2; stroke-opacity:0.1; fill:none" points="
  1034.45,1359.82 1034.45,123.472 
  "/>
<polyline clip-path="url(#clip442)" style="stroke:#000000; stroke-linecap:round; stroke-linejoin:round; stroke-width:2; stroke-opacity:0.1; fill:none" points="
  1345.84,1359.82 1345.84,123.472 
  "/>
<polyline clip-path="url(#clip442)" style="stroke:#000000; stroke-linecap:round; stroke-linejoin:round; stroke-width:2; stroke-opacity:0.1; fill:none" points="
  1657.23,1359.82 1657.23,123.472 
  "/>
<polyline clip-path="url(#clip442)" style="stroke:#000000; stroke-linecap:round; stroke-linejoin:round; stroke-width:2; stroke-opacity:0.1; fill:none" points="
  1968.62,1359.82 1968.62,123.472 
  "/>
<polyline clip-path="url(#clip440)" style="stroke:#000000; stroke-linecap:round; stroke-linejoin:round; stroke-width:4; stroke-opacity:1; fill:none" points="
  201.267,1359.82 2256.76,1359.82 
  "/>
<polyline clip-path="url(#clip440)" style="stroke:#000000; stroke-linecap:round; stroke-linejoin:round; stroke-width:4; stroke-opacity:1; fill:none" points="
  411.664,1359.82 411.664,1340.92 
  "/>
<polyline clip-path="url(#clip440)" style="stroke:#000000; stroke-linecap:round; stroke-linejoin:round; stroke-width:4; stroke-opacity:1; fill:none" points="
  723.055,1359.82 723.055,1340.92 
  "/>
<polyline clip-path="url(#clip440)" style="stroke:#000000; stroke-linecap:round; stroke-linejoin:round; stroke-width:4; stroke-opacity:1; fill:none" points="
  1034.45,1359.82 1034.45,1340.92 
  "/>
<polyline clip-path="url(#clip440)" style="stroke:#000000; stroke-linecap:round; stroke-linejoin:round; stroke-width:4; stroke-opacity:1; fill:none" points="
  1345.84,1359.82 1345.84,1340.92 
  "/>
<polyline clip-path="url(#clip440)" style="stroke:#000000; stroke-linecap:round; stroke-linejoin:round; stroke-width:4; stroke-opacity:1; fill:none" points="
  1657.23,1359.82 1657.23,1340.92 
  "/>
<polyline clip-path="url(#clip440)" style="stroke:#000000; stroke-linecap:round; stroke-linejoin:round; stroke-width:4; stroke-opacity:1; fill:none" points="
  1968.62,1359.82 1968.62,1340.92 
  "/>
<path clip-path="url(#clip440)" d="M358.69 1404.62 L388.365 1404.62 L388.365 1408.56 L358.69 1408.56 L358.69 1404.62 Z" fill="#000000" fill-rule="evenodd" fill-opacity="1" /><path clip-path="url(#clip440)" d="M402.486 1417.52 L418.805 1417.52 L418.805 1421.45 L396.861 1421.45 L396.861 1417.52 Q399.523 1414.76 404.106 1410.13 Q408.713 1405.48 409.893 1404.14 Q412.139 1401.61 413.018 1399.88 Q413.921 1398.12 413.921 1396.43 Q413.921 1393.67 411.976 1391.94 Q410.055 1390.2 406.953 1390.2 Q404.754 1390.2 402.301 1390.97 Q399.87 1391.73 397.092 1393.28 L397.092 1388.56 Q399.916 1387.42 402.37 1386.85 Q404.824 1386.27 406.861 1386.27 Q412.231 1386.27 415.426 1388.95 Q418.62 1391.64 418.62 1396.13 Q418.62 1398.26 417.81 1400.18 Q417.023 1402.08 414.916 1404.67 Q414.338 1405.34 411.236 1408.56 Q408.134 1411.75 402.486 1417.52 Z" fill="#000000" fill-rule="evenodd" fill-opacity="1" /><path clip-path="url(#clip440)" d="M428.62 1415.57 L433.504 1415.57 L433.504 1421.45 L428.62 1421.45 L428.62 1415.57 Z" fill="#000000" fill-rule="evenodd" fill-opacity="1" /><path clip-path="url(#clip440)" d="M443.736 1386.89 L462.092 1386.89 L462.092 1390.83 L448.018 1390.83 L448.018 1399.3 Q449.036 1398.95 450.055 1398.79 Q451.073 1398.6 452.092 1398.6 Q457.879 1398.6 461.259 1401.78 Q464.638 1404.95 464.638 1410.36 Q464.638 1415.94 461.166 1419.04 Q457.694 1422.12 451.374 1422.12 Q449.199 1422.12 446.93 1421.75 Q444.685 1421.38 442.277 1420.64 L442.277 1415.94 Q444.361 1417.08 446.583 1417.63 Q448.805 1418.19 451.282 1418.19 Q455.286 1418.19 457.624 1416.08 Q459.962 1413.98 459.962 1410.36 Q459.962 1406.75 457.624 1404.65 Q455.286 1402.54 451.282 1402.54 Q449.407 1402.54 447.532 1402.96 Q445.68 1403.37 443.736 1404.25 L443.736 1386.89 Z" fill="#000000" fill-rule="evenodd" fill-opacity="1" /><path clip-path="url(#clip440)" d="M700.439 1389.97 Q696.828 1389.97 694.999 1393.54 Q693.194 1397.08 693.194 1404.21 Q693.194 1411.31 694.999 1414.88 Q696.828 1418.42 700.439 1418.42 Q704.074 1418.42 705.879 1414.88 Q707.708 1411.31 707.708 1404.21 Q707.708 1397.08 705.879 1393.54 Q704.074 1389.97 700.439 1389.97 M700.439 1386.27 Q706.249 1386.27 709.305 1390.87 Q712.384 1395.46 712.384 1404.21 Q712.384 1412.93 709.305 1417.54 Q706.249 1422.12 700.439 1422.12 Q694.629 1422.12 691.55 1417.54 Q688.495 1412.93 688.495 1404.21 Q688.495 1395.46 691.55 1390.87 Q694.629 1386.27 700.439 1386.27 Z" fill="#000000" fill-rule="evenodd" fill-opacity="1" /><path clip-path="url(#clip440)" d="M720.601 1415.57 L725.485 1415.57 L725.485 1421.45 L720.601 1421.45 L720.601 1415.57 Z" fill="#000000" fill-rule="evenodd" fill-opacity="1" /><path clip-path="url(#clip440)" d="M745.671 1389.97 Q742.059 1389.97 740.231 1393.54 Q738.425 1397.08 738.425 1404.21 Q738.425 1411.31 740.231 1414.88 Q742.059 1418.42 745.671 1418.42 Q749.305 1418.42 751.11 1414.88 Q752.939 1411.31 752.939 1404.21 Q752.939 1397.08 751.11 1393.54 Q749.305 1389.97 745.671 1389.97 M745.671 1386.27 Q751.481 1386.27 754.536 1390.87 Q757.615 1395.46 757.615 1404.21 Q757.615 1412.93 754.536 1417.54 Q751.481 1422.12 745.671 1422.12 Q739.86 1422.12 736.782 1417.54 Q733.726 1412.93 733.726 1404.21 Q733.726 1395.46 736.782 1390.87 Q739.86 1386.27 745.671 1386.27 Z" fill="#000000" fill-rule="evenodd" fill-opacity="1" /><path clip-path="url(#clip440)" d="M1006.18 1417.52 L1022.5 1417.52 L1022.5 1421.45 L1000.56 1421.45 L1000.56 1417.52 Q1003.22 1414.76 1007.8 1410.13 Q1012.41 1405.48 1013.59 1404.14 Q1015.83 1401.61 1016.71 1399.88 Q1017.62 1398.12 1017.62 1396.43 Q1017.62 1393.67 1015.67 1391.94 Q1013.75 1390.2 1010.65 1390.2 Q1008.45 1390.2 1006 1390.97 Q1003.57 1391.73 1000.79 1393.28 L1000.79 1388.56 Q1003.61 1387.42 1006.07 1386.85 Q1008.52 1386.27 1010.56 1386.27 Q1015.93 1386.27 1019.12 1388.95 Q1022.32 1391.64 1022.32 1396.13 Q1022.32 1398.26 1021.51 1400.18 Q1020.72 1402.08 1018.61 1404.67 Q1018.03 1405.34 1014.93 1408.56 Q1011.83 1411.75 1006.18 1417.52 Z" fill="#000000" fill-rule="evenodd" fill-opacity="1" /><path clip-path="url(#clip440)" d="M1032.32 1415.57 L1037.2 1415.57 L1037.2 1421.45 L1032.32 1421.45 L1032.32 1415.57 Z" fill="#000000" fill-rule="evenodd" fill-opacity="1" /><path clip-path="url(#clip440)" d="M1047.43 1386.89 L1065.79 1386.89 L1065.79 1390.83 L1051.71 1390.83 L1051.71 1399.3 Q1052.73 1398.95 1053.75 1398.79 Q1054.77 1398.6 1055.79 1398.6 Q1061.58 1398.6 1064.95 1401.78 Q1068.33 1404.95 1068.33 1410.36 Q1068.33 1415.94 1064.86 1419.04 Q1061.39 1422.12 1055.07 1422.12 Q1052.89 1422.12 1050.63 1421.75 Q1048.38 1421.38 1045.97 1420.64 L1045.97 1415.94 Q1048.06 1417.08 1050.28 1417.63 Q1052.5 1418.19 1054.98 1418.19 Q1058.98 1418.19 1061.32 1416.08 Q1063.66 1413.98 1063.66 1410.36 Q1063.66 1406.75 1061.32 1404.65 Q1058.98 1402.54 1054.98 1402.54 Q1053.1 1402.54 1051.23 1402.96 Q1049.38 1403.37 1047.43 1404.25 L1047.43 1386.89 Z" fill="#000000" fill-rule="evenodd" fill-opacity="1" /><path clip-path="url(#clip440)" d="M1313 1386.89 L1331.36 1386.89 L1331.36 1390.83 L1317.28 1390.83 L1317.28 1399.3 Q1318.3 1398.95 1319.32 1398.79 Q1320.34 1398.6 1321.36 1398.6 Q1327.14 1398.6 1330.52 1401.78 Q1333.9 1404.95 1333.9 1410.36 Q1333.9 1415.94 1330.43 1419.04 Q1326.96 1422.12 1320.64 1422.12 Q1318.46 1422.12 1316.2 1421.75 Q1313.95 1421.38 1311.54 1420.64 L1311.54 1415.94 Q1313.63 1417.08 1315.85 1417.63 Q1318.07 1418.19 1320.55 1418.19 Q1324.55 1418.19 1326.89 1416.08 Q1329.23 1413.98 1329.23 1410.36 Q1329.23 1406.75 1326.89 1404.65 Q1324.55 1402.54 1320.55 1402.54 Q1318.67 1402.54 1316.8 1402.96 Q1314.95 1403.37 1313 1404.25 L1313 1386.89 Z" fill="#000000" fill-rule="evenodd" fill-opacity="1" /><path clip-path="url(#clip440)" d="M1343.12 1415.57 L1348 1415.57 L1348 1421.45 L1343.12 1421.45 L1343.12 1415.57 Z" fill="#000000" fill-rule="evenodd" fill-opacity="1" /><path clip-path="url(#clip440)" d="M1368.19 1389.97 Q1364.58 1389.97 1362.75 1393.54 Q1360.94 1397.08 1360.94 1404.21 Q1360.94 1411.31 1362.75 1414.88 Q1364.58 1418.42 1368.19 1418.42 Q1371.82 1418.42 1373.63 1414.88 Q1375.45 1411.31 1375.45 1404.21 Q1375.45 1397.08 1373.63 1393.54 Q1371.82 1389.97 1368.19 1389.97 M1368.19 1386.27 Q1374 1386.27 1377.05 1390.87 Q1380.13 1395.46 1380.13 1404.21 Q1380.13 1412.93 1377.05 1417.54 Q1374 1422.12 1368.19 1422.12 Q1362.38 1422.12 1359.3 1417.54 Q1356.24 1412.93 1356.24 1404.21 Q1356.24 1395.46 1359.3 1390.87 Q1362.38 1386.27 1368.19 1386.27 Z" fill="#000000" fill-rule="evenodd" fill-opacity="1" /><path clip-path="url(#clip440)" d="M1623.55 1386.89 L1645.77 1386.89 L1645.77 1388.88 L1633.22 1421.45 L1628.34 1421.45 L1640.14 1390.83 L1623.55 1390.83 L1623.55 1386.89 Z" fill="#000000" fill-rule="evenodd" fill-opacity="1" /><path clip-path="url(#clip440)" d="M1654.89 1415.57 L1659.77 1415.57 L1659.77 1421.45 L1654.89 1421.45 L1654.89 1415.57 Z" fill="#000000" fill-rule="evenodd" fill-opacity="1" /><path clip-path="url(#clip440)" d="M1670.01 1386.89 L1688.36 1386.89 L1688.36 1390.83 L1674.29 1390.83 L1674.29 1399.3 Q1675.31 1398.95 1676.32 1398.79 Q1677.34 1398.6 1678.36 1398.6 Q1684.15 1398.6 1687.53 1401.78 Q1690.91 1404.95 1690.91 1410.36 Q1690.91 1415.94 1687.44 1419.04 Q1683.96 1422.12 1677.64 1422.12 Q1675.47 1422.12 1673.2 1421.75 Q1670.95 1421.38 1668.55 1420.64 L1668.55 1415.94 Q1670.63 1417.08 1672.85 1417.63 Q1675.07 1418.19 1677.55 1418.19 Q1681.56 1418.19 1683.89 1416.08 Q1686.23 1413.98 1686.23 1410.36 Q1686.23 1406.75 1683.89 1404.65 Q1681.56 1402.54 1677.55 1402.54 Q1675.68 1402.54 1673.8 1402.96 Q1671.95 1403.37 1670.01 1404.25 L1670.01 1386.89 Z" fill="#000000" fill-rule="evenodd" fill-opacity="1" /><path clip-path="url(#clip440)" d="M1920.69 1417.52 L1928.33 1417.52 L1928.33 1391.15 L1920.02 1392.82 L1920.02 1388.56 L1928.28 1386.89 L1932.96 1386.89 L1932.96 1417.52 L1940.6 1417.52 L1940.6 1421.45 L1920.69 1421.45 L1920.69 1417.52 Z" fill="#000000" fill-rule="evenodd" fill-opacity="1" /><path clip-path="url(#clip440)" d="M1960.04 1389.97 Q1956.43 1389.97 1954.6 1393.54 Q1952.8 1397.08 1952.8 1404.21 Q1952.8 1411.31 1954.6 1414.88 Q1956.43 1418.42 1960.04 1418.42 Q1963.68 1418.42 1965.48 1414.88 Q1967.31 1411.31 1967.31 1404.21 Q1967.31 1397.08 1965.48 1393.54 Q1963.68 1389.97 1960.04 1389.97 M1960.04 1386.27 Q1965.85 1386.27 1968.91 1390.87 Q1971.99 1395.46 1971.99 1404.21 Q1971.99 1412.93 1968.91 1417.54 Q1965.85 1422.12 1960.04 1422.12 Q1954.23 1422.12 1951.15 1417.54 Q1948.1 1412.93 1948.1 1404.21 Q1948.1 1395.46 1951.15 1390.87 Q1954.23 1386.27 1960.04 1386.27 Z" fill="#000000" fill-rule="evenodd" fill-opacity="1" /><path clip-path="url(#clip440)" d="M1980.2 1415.57 L1985.09 1415.57 L1985.09 1421.45 L1980.2 1421.45 L1980.2 1415.57 Z" fill="#000000" fill-rule="evenodd" fill-opacity="1" /><path clip-path="url(#clip440)" d="M2005.27 1389.97 Q2001.66 1389.97 1999.83 1393.54 Q1998.03 1397.08 1998.03 1404.21 Q1998.03 1411.31 1999.83 1414.88 Q2001.66 1418.42 2005.27 1418.42 Q2008.91 1418.42 2010.71 1414.88 Q2012.54 1411.31 2012.54 1404.21 Q2012.54 1397.08 2010.71 1393.54 Q2008.91 1389.97 2005.27 1389.97 M2005.27 1386.27 Q2011.08 1386.27 2014.14 1390.87 Q2017.22 1395.46 2017.22 1404.21 Q2017.22 1412.93 2014.14 1417.54 Q2011.08 1422.12 2005.27 1422.12 Q1999.46 1422.12 1996.38 1417.54 Q1993.33 1412.93 1993.33 1404.21 Q1993.33 1395.46 1996.38 1390.87 Q1999.46 1386.27 2005.27 1386.27 Z" fill="#000000" fill-rule="evenodd" fill-opacity="1" /><path clip-path="url(#clip440)" d="M1039.3 1485.45 Q1039.3 1478.99 1036.62 1475.33 Q1033.98 1471.64 1029.34 1471.64 Q1024.69 1471.64 1022.01 1475.33 Q1019.37 1478.99 1019.37 1485.45 Q1019.37 1491.91 1022.01 1495.6 Q1024.69 1499.27 1029.34 1499.27 Q1033.98 1499.27 1036.62 1495.6 Q1039.3 1491.91 1039.3 1485.45 M1019.37 1473.01 Q1021.22 1469.82 1024.02 1468.3 Q1026.85 1466.74 1030.77 1466.74 Q1037.26 1466.74 1041.3 1471.89 Q1045.38 1477.05 1045.38 1485.45 Q1045.38 1493.85 1041.3 1499.01 Q1037.26 1504.17 1030.77 1504.17 Q1026.85 1504.17 1024.02 1502.64 Q1021.22 1501.08 1019.37 1497.9 L1019.37 1503.24 L1013.48 1503.24 L1013.48 1453.72 L1019.37 1453.72 L1019.37 1473.01 Z" fill="#000000" fill-rule="evenodd" fill-opacity="1" /><path clip-path="url(#clip440)" d="M1068.9 1471.7 Q1064.19 1471.7 1061.45 1475.39 Q1058.71 1479.05 1058.71 1485.45 Q1058.71 1491.85 1061.42 1495.54 Q1064.16 1499.2 1068.9 1499.2 Q1073.58 1499.2 1076.31 1495.51 Q1079.05 1491.82 1079.05 1485.45 Q1079.05 1479.12 1076.31 1475.43 Q1073.58 1471.7 1068.9 1471.7 M1068.9 1466.74 Q1076.54 1466.74 1080.9 1471.7 Q1085.26 1476.67 1085.26 1485.45 Q1085.26 1494.2 1080.9 1499.2 Q1076.54 1504.17 1068.9 1504.17 Q1061.23 1504.17 1056.87 1499.2 Q1052.54 1494.2 1052.54 1485.45 Q1052.54 1476.67 1056.87 1471.7 Q1061.23 1466.74 1068.9 1466.74 Z" fill="#000000" fill-rule="evenodd" fill-opacity="1" /><path clip-path="url(#clip440)" d="M1122.59 1467.6 L1109.7 1484.94 L1123.26 1503.24 L1116.35 1503.24 L1105.98 1489.24 L1095.6 1503.24 L1088.7 1503.24 L1102.54 1484.59 L1089.87 1467.6 L1096.78 1467.6 L1106.23 1480.3 L1115.69 1467.6 L1122.59 1467.6 Z" fill="#000000" fill-rule="evenodd" fill-opacity="1" /><path clip-path="url(#clip440)" d="M1128.58 1482.78 L1145.73 1482.78 L1145.73 1488 L1128.58 1488 L1128.58 1482.78 Z" fill="#000000" fill-rule="evenodd" fill-opacity="1" /><path clip-path="url(#clip440)" d="M1180.71 1468.96 L1180.71 1474.44 Q1178.23 1473.07 1175.71 1472.4 Q1173.23 1471.7 1170.69 1471.7 Q1164.99 1471.7 1161.84 1475.33 Q1158.69 1478.93 1158.69 1485.45 Q1158.69 1491.98 1161.84 1495.6 Q1164.99 1499.2 1170.69 1499.2 Q1173.23 1499.2 1175.71 1498.53 Q1178.23 1497.83 1180.71 1496.46 L1180.71 1501.88 Q1178.26 1503.02 1175.62 1503.59 Q1173.01 1504.17 1170.05 1504.17 Q1162 1504.17 1157.25 1499.11 Q1152.51 1494.05 1152.51 1485.45 Q1152.51 1476.73 1157.29 1471.73 Q1162.09 1466.74 1170.43 1466.74 Q1173.14 1466.74 1175.71 1467.31 Q1178.29 1467.85 1180.71 1468.96 Z" fill="#000000" fill-rule="evenodd" fill-opacity="1" /><path clip-path="url(#clip440)" d="M1204.71 1471.7 Q1200 1471.7 1197.26 1475.39 Q1194.53 1479.05 1194.53 1485.45 Q1194.53 1491.85 1197.23 1495.54 Q1199.97 1499.2 1204.71 1499.2 Q1209.39 1499.2 1212.13 1495.51 Q1214.86 1491.82 1214.86 1485.45 Q1214.86 1479.12 1212.13 1475.43 Q1209.39 1471.7 1204.71 1471.7 M1204.71 1466.74 Q1212.35 1466.74 1216.71 1471.7 Q1221.07 1476.67 1221.07 1485.45 Q1221.07 1494.2 1216.71 1499.2 Q1212.35 1504.17 1204.71 1504.17 Q1197.04 1504.17 1192.68 1499.2 Q1188.35 1494.2 1188.35 1485.45 Q1188.35 1476.67 1192.68 1471.7 Q1197.04 1466.74 1204.71 1466.74 Z" fill="#000000" fill-rule="evenodd" fill-opacity="1" /><path clip-path="url(#clip440)" d="M1258.41 1467.6 L1245.51 1484.94 L1259.07 1503.24 L1252.17 1503.24 L1241.79 1489.24 L1231.41 1503.24 L1224.51 1503.24 L1238.35 1484.59 L1225.69 1467.6 L1232.59 1467.6 L1242.05 1480.3 L1251.5 1467.6 L1258.41 1467.6 Z" fill="#000000" fill-rule="evenodd" fill-opacity="1" /><path clip-path="url(#clip440)" d="M1294.75 1480.55 L1294.75 1497.96 L1305.07 1497.96 Q1310.25 1497.96 1312.74 1495.83 Q1315.25 1493.66 1315.25 1489.24 Q1315.25 1484.78 1312.74 1482.68 Q1310.25 1480.55 1305.07 1480.55 L1294.75 1480.55 M1294.75 1461.01 L1294.75 1475.33 L1304.27 1475.33 Q1308.98 1475.33 1311.27 1473.58 Q1313.6 1471.8 1313.6 1468.17 Q1313.6 1464.57 1311.27 1462.79 Q1308.98 1461.01 1304.27 1461.01 L1294.75 1461.01 M1288.32 1455.72 L1304.75 1455.72 Q1312.1 1455.72 1316.08 1458.78 Q1320.06 1461.83 1320.06 1467.47 Q1320.06 1471.83 1318.02 1474.41 Q1315.98 1476.99 1312.04 1477.62 Q1316.78 1478.64 1319.39 1481.89 Q1322.03 1485.1 1322.03 1489.94 Q1322.03 1496.31 1317.7 1499.77 Q1313.37 1503.24 1305.38 1503.24 L1288.32 1503.24 L1288.32 1455.72 Z" fill="#000000" fill-rule="evenodd" fill-opacity="1" /><path clip-path="url(#clip440)" d="M1346.6 1471.7 Q1341.89 1471.7 1339.15 1475.39 Q1336.42 1479.05 1336.42 1485.45 Q1336.42 1491.85 1339.12 1495.54 Q1341.86 1499.2 1346.6 1499.2 Q1351.28 1499.2 1354.02 1495.51 Q1356.76 1491.82 1356.76 1485.45 Q1356.76 1479.12 1354.02 1475.43 Q1351.28 1471.7 1346.6 1471.7 M1346.6 1466.74 Q1354.24 1466.74 1358.6 1471.7 Q1362.96 1476.67 1362.96 1485.45 Q1362.96 1494.2 1358.6 1499.2 Q1354.24 1504.17 1346.6 1504.17 Q1338.93 1504.17 1334.57 1499.2 Q1330.24 1494.2 1330.24 1485.45 Q1330.24 1476.67 1334.57 1471.7 Q1338.93 1466.74 1346.6 1466.74 Z" fill="#000000" fill-rule="evenodd" fill-opacity="1" /><path clip-path="url(#clip440)" d="M1396.13 1473.01 L1396.13 1453.72 L1401.98 1453.72 L1401.98 1503.24 L1396.13 1503.24 L1396.13 1497.9 Q1394.28 1501.08 1391.45 1502.64 Q1388.65 1504.17 1384.7 1504.17 Q1378.24 1504.17 1374.17 1499.01 Q1370.12 1493.85 1370.12 1485.45 Q1370.12 1477.05 1374.17 1471.89 Q1378.24 1466.74 1384.7 1466.74 Q1388.65 1466.74 1391.45 1468.3 Q1394.28 1469.82 1396.13 1473.01 M1376.17 1485.45 Q1376.17 1491.91 1378.81 1495.6 Q1381.49 1499.27 1386.13 1499.27 Q1390.78 1499.27 1393.45 1495.6 Q1396.13 1491.91 1396.13 1485.45 Q1396.13 1478.99 1393.45 1475.33 Q1390.78 1471.64 1386.13 1471.64 Q1381.49 1471.64 1378.81 1475.33 Q1376.17 1478.99 1376.17 1485.45 Z" fill="#000000" fill-rule="evenodd" fill-opacity="1" /><path clip-path="url(#clip440)" d="M1428.88 1506.55 Q1426.4 1512.92 1424.04 1514.86 Q1421.69 1516.8 1417.74 1516.8 L1413.06 1516.8 L1413.06 1511.9 L1416.5 1511.9 Q1418.92 1511.9 1420.25 1510.76 Q1421.59 1509.61 1423.21 1505.34 L1424.26 1502.67 L1409.85 1467.6 L1416.05 1467.6 L1427.19 1495.48 L1438.33 1467.6 L1444.54 1467.6 L1428.88 1506.55 Z" fill="#000000" fill-rule="evenodd" fill-opacity="1" /><polyline clip-path="url(#clip442)" style="stroke:#000000; stroke-linecap:round; stroke-linejoin:round; stroke-width:2; stroke-opacity:0.1; fill:none" points="
  201.267,1248.63 2256.76,1248.63 
  "/>
<polyline clip-path="url(#clip442)" style="stroke:#000000; stroke-linecap:round; stroke-linejoin:round; stroke-width:2; stroke-opacity:0.1; fill:none" points="
  201.267,1075.95 2256.76,1075.95 
  "/>
<polyline clip-path="url(#clip442)" style="stroke:#000000; stroke-linecap:round; stroke-linejoin:round; stroke-width:2; stroke-opacity:0.1; fill:none" points="
  201.267,903.268 2256.76,903.268 
  "/>
<polyline clip-path="url(#clip442)" style="stroke:#000000; stroke-linecap:round; stroke-linejoin:round; stroke-width:2; stroke-opacity:0.1; fill:none" points="
  201.267,730.585 2256.76,730.585 
  "/>
<polyline clip-path="url(#clip442)" style="stroke:#000000; stroke-linecap:round; stroke-linejoin:round; stroke-width:2; stroke-opacity:0.1; fill:none" points="
  201.267,557.903 2256.76,557.903 
  "/>
<polyline clip-path="url(#clip442)" style="stroke:#000000; stroke-linecap:round; stroke-linejoin:round; stroke-width:2; stroke-opacity:0.1; fill:none" points="
  201.267,385.22 2256.76,385.22 
  "/>
<polyline clip-path="url(#clip442)" style="stroke:#000000; stroke-linecap:round; stroke-linejoin:round; stroke-width:2; stroke-opacity:0.1; fill:none" points="
  201.267,212.537 2256.76,212.537 
  "/>
<polyline clip-path="url(#clip440)" style="stroke:#000000; stroke-linecap:round; stroke-linejoin:round; stroke-width:4; stroke-opacity:1; fill:none" points="
  201.267,1359.82 201.267,123.472 
  "/>
<polyline clip-path="url(#clip440)" style="stroke:#000000; stroke-linecap:round; stroke-linejoin:round; stroke-width:4; stroke-opacity:1; fill:none" points="
  201.267,1248.63 220.165,1248.63 
  "/>
<polyline clip-path="url(#clip440)" style="stroke:#000000; stroke-linecap:round; stroke-linejoin:round; stroke-width:4; stroke-opacity:1; fill:none" points="
  201.267,1075.95 220.165,1075.95 
  "/>
<polyline clip-path="url(#clip440)" style="stroke:#000000; stroke-linecap:round; stroke-linejoin:round; stroke-width:4; stroke-opacity:1; fill:none" points="
  201.267,903.268 220.165,903.268 
  "/>
<polyline clip-path="url(#clip440)" style="stroke:#000000; stroke-linecap:round; stroke-linejoin:round; stroke-width:4; stroke-opacity:1; fill:none" points="
  201.267,730.585 220.165,730.585 
  "/>
<polyline clip-path="url(#clip440)" style="stroke:#000000; stroke-linecap:round; stroke-linejoin:round; stroke-width:4; stroke-opacity:1; fill:none" points="
  201.267,557.903 220.165,557.903 
  "/>
<polyline clip-path="url(#clip440)" style="stroke:#000000; stroke-linecap:round; stroke-linejoin:round; stroke-width:4; stroke-opacity:1; fill:none" points="
  201.267,385.22 220.165,385.22 
  "/>
<polyline clip-path="url(#clip440)" style="stroke:#000000; stroke-linecap:round; stroke-linejoin:round; stroke-width:4; stroke-opacity:1; fill:none" points="
  201.267,212.537 220.165,212.537 
  "/>
<path clip-path="url(#clip440)" d="M154.763 1234.43 Q151.152 1234.43 149.323 1238 Q147.518 1241.54 147.518 1248.67 Q147.518 1255.77 149.323 1259.34 Q151.152 1262.88 154.763 1262.88 Q158.397 1262.88 160.203 1259.34 Q162.032 1255.77 162.032 1248.67 Q162.032 1241.54 160.203 1238 Q158.397 1234.43 154.763 1234.43 M154.763 1230.73 Q160.573 1230.73 163.629 1235.33 Q166.707 1239.92 166.707 1248.67 Q166.707 1257.39 163.629 1262 Q160.573 1266.58 154.763 1266.58 Q148.953 1266.58 145.874 1262 Q142.819 1257.39 142.819 1248.67 Q142.819 1239.92 145.874 1235.33 Q148.953 1230.73 154.763 1230.73 Z" fill="#000000" fill-rule="evenodd" fill-opacity="1" /><path clip-path="url(#clip440)" d="M150.388 1089.3 L166.707 1089.3 L166.707 1093.23 L144.763 1093.23 L144.763 1089.3 Q147.425 1086.54 152.008 1081.91 Q156.615 1077.26 157.795 1075.92 Q160.041 1073.39 160.92 1071.66 Q161.823 1069.9 161.823 1068.21 Q161.823 1065.45 159.879 1063.72 Q157.958 1061.98 154.856 1061.98 Q152.657 1061.98 150.203 1062.74 Q147.772 1063.51 144.995 1065.06 L144.995 1060.34 Q147.819 1059.2 150.272 1058.62 Q152.726 1058.05 154.763 1058.05 Q160.133 1058.05 163.328 1060.73 Q166.522 1063.42 166.522 1067.91 Q166.522 1070.04 165.712 1071.96 Q164.925 1073.86 162.819 1076.45 Q162.24 1077.12 159.138 1080.34 Q156.036 1083.53 150.388 1089.3 Z" fill="#000000" fill-rule="evenodd" fill-opacity="1" /><path clip-path="url(#clip440)" d="M157.124 890.062 L145.319 908.511 L157.124 908.511 L157.124 890.062 M155.897 885.988 L161.777 885.988 L161.777 908.511 L166.707 908.511 L166.707 912.4 L161.777 912.4 L161.777 920.548 L157.124 920.548 L157.124 912.4 L141.522 912.4 L141.522 907.886 L155.897 885.988 Z" fill="#000000" fill-rule="evenodd" fill-opacity="1" /><path clip-path="url(#clip440)" d="M155.18 728.722 Q152.032 728.722 150.18 730.875 Q148.351 733.027 148.351 736.777 Q148.351 740.504 150.18 742.68 Q152.032 744.833 155.18 744.833 Q158.328 744.833 160.157 742.68 Q162.008 740.504 162.008 736.777 Q162.008 733.027 160.157 730.875 Q158.328 728.722 155.18 728.722 M164.462 714.069 L164.462 718.328 Q162.703 717.495 160.897 717.055 Q159.115 716.615 157.356 716.615 Q152.726 716.615 150.272 719.74 Q147.842 722.865 147.495 729.185 Q148.86 727.171 150.921 726.106 Q152.981 725.018 155.458 725.018 Q160.666 725.018 163.675 728.189 Q166.707 731.337 166.707 736.777 Q166.707 742.101 163.559 745.319 Q160.411 748.536 155.18 748.536 Q149.184 748.536 146.013 743.953 Q142.842 739.347 142.842 730.62 Q142.842 722.425 146.731 717.564 Q150.62 712.68 157.17 712.68 Q158.93 712.68 160.712 713.027 Q162.518 713.375 164.462 714.069 Z" fill="#000000" fill-rule="evenodd" fill-opacity="1" /><path clip-path="url(#clip440)" d="M154.856 558.771 Q151.522 558.771 149.601 560.553 Q147.703 562.335 147.703 565.46 Q147.703 568.585 149.601 570.368 Q151.522 572.15 154.856 572.15 Q158.189 572.15 160.11 570.368 Q162.032 568.562 162.032 565.46 Q162.032 562.335 160.11 560.553 Q158.212 558.771 154.856 558.771 M150.18 556.78 Q147.171 556.039 145.481 553.979 Q143.814 551.919 143.814 548.956 Q143.814 544.812 146.754 542.405 Q149.717 539.998 154.856 539.998 Q160.018 539.998 162.957 542.405 Q165.897 544.812 165.897 548.956 Q165.897 551.919 164.207 553.979 Q162.541 556.039 159.555 556.78 Q162.934 557.567 164.809 559.859 Q166.707 562.15 166.707 565.46 Q166.707 570.483 163.629 573.169 Q160.573 575.854 154.856 575.854 Q149.138 575.854 146.059 573.169 Q143.004 570.483 143.004 565.46 Q143.004 562.15 144.902 559.859 Q146.8 557.567 150.18 556.78 M148.467 549.396 Q148.467 552.081 150.133 553.585 Q151.823 555.09 154.856 555.09 Q157.865 555.09 159.555 553.585 Q161.268 552.081 161.268 549.396 Q161.268 546.71 159.555 545.206 Q157.865 543.701 154.856 543.701 Q151.823 543.701 150.133 545.206 Q148.467 546.71 148.467 549.396 Z" fill="#000000" fill-rule="evenodd" fill-opacity="1" /><path clip-path="url(#clip440)" d="M115.411 398.565 L123.05 398.565 L123.05 372.199 L114.74 373.866 L114.74 369.607 L123.004 367.94 L127.68 367.94 L127.68 398.565 L135.319 398.565 L135.319 402.5 L115.411 402.5 L115.411 398.565 Z" fill="#000000" fill-rule="evenodd" fill-opacity="1" /><path clip-path="url(#clip440)" d="M154.763 371.019 Q151.152 371.019 149.323 374.583 Q147.518 378.125 147.518 385.255 Q147.518 392.361 149.323 395.926 Q151.152 399.468 154.763 399.468 Q158.397 399.468 160.203 395.926 Q162.032 392.361 162.032 385.255 Q162.032 378.125 160.203 374.583 Q158.397 371.019 154.763 371.019 M154.763 367.315 Q160.573 367.315 163.629 371.921 Q166.707 376.505 166.707 385.255 Q166.707 393.981 163.629 398.588 Q160.573 403.171 154.763 403.171 Q148.953 403.171 145.874 398.588 Q142.819 393.981 142.819 385.255 Q142.819 376.505 145.874 371.921 Q148.953 367.315 154.763 367.315 Z" fill="#000000" fill-rule="evenodd" fill-opacity="1" /><path clip-path="url(#clip440)" d="M117.009 225.882 L124.648 225.882 L124.648 199.517 L116.337 201.183 L116.337 196.924 L124.601 195.257 L129.277 195.257 L129.277 225.882 L136.916 225.882 L136.916 229.817 L117.009 229.817 L117.009 225.882 Z" fill="#000000" fill-rule="evenodd" fill-opacity="1" /><path clip-path="url(#clip440)" d="M150.388 225.882 L166.707 225.882 L166.707 229.817 L144.763 229.817 L144.763 225.882 Q147.425 223.127 152.008 218.498 Q156.615 213.845 157.795 212.503 Q160.041 209.979 160.92 208.243 Q161.823 206.484 161.823 204.794 Q161.823 202.04 159.879 200.304 Q157.958 198.567 154.856 198.567 Q152.657 198.567 150.203 199.331 Q147.772 200.095 144.995 201.646 L144.995 196.924 Q147.819 195.79 150.272 195.211 Q152.726 194.632 154.763 194.632 Q160.133 194.632 163.328 197.317 Q166.522 200.003 166.522 204.493 Q166.522 206.623 165.712 208.544 Q164.925 210.442 162.819 213.035 Q162.24 213.706 159.138 216.924 Q156.036 220.118 150.388 225.882 Z" fill="#000000" fill-rule="evenodd" fill-opacity="1" /><path clip-path="url(#clip440)" d="M48.132 932.729 Q41.6708 932.729 38.0105 935.402 Q34.3184 938.044 34.3184 942.691 Q34.3184 947.338 38.0105 950.011 Q41.6708 952.653 48.132 952.653 Q54.5932 952.653 58.2853 950.011 Q61.9456 947.338 61.9456 942.691 Q61.9456 938.044 58.2853 935.402 Q54.5932 932.729 48.132 932.729 M35.6871 952.653 Q32.5042 950.807 30.9764 948.006 Q29.4168 945.174 29.4168 941.259 Q29.4168 934.766 34.5731 930.723 Q39.7293 926.649 48.132 926.649 Q56.5347 926.649 61.691 930.723 Q66.8472 934.766 66.8472 941.259 Q66.8472 945.174 65.3194 948.006 Q63.7598 950.807 60.577 952.653 L65.9242 952.653 L65.9242 958.542 L16.399 958.542 L16.399 952.653 L35.6871 952.653 Z" fill="#000000" fill-rule="evenodd" fill-opacity="1" /><path clip-path="url(#clip440)" d="M34.3821 903.128 Q34.3821 907.839 38.0742 910.576 Q41.7345 913.313 48.132 913.313 Q54.5295 913.313 58.2217 910.608 Q61.8819 907.87 61.8819 903.128 Q61.8819 898.449 58.1898 895.712 Q54.4977 892.975 48.132 892.975 Q41.7981 892.975 38.106 895.712 Q34.3821 898.449 34.3821 903.128 M29.4168 903.128 Q29.4168 895.489 34.3821 891.129 Q39.3473 886.768 48.132 886.768 Q56.8849 886.768 61.8819 891.129 Q66.8472 895.489 66.8472 903.128 Q66.8472 910.799 61.8819 915.159 Q56.8849 919.488 48.132 919.488 Q39.3473 919.488 34.3821 915.159 Q29.4168 910.799 29.4168 903.128 Z" fill="#000000" fill-rule="evenodd" fill-opacity="1" /><path clip-path="url(#clip440)" d="M30.2762 849.433 L47.6228 862.324 L65.9242 848.765 L65.9242 855.672 L51.9196 866.048 L65.9242 876.424 L65.9242 883.331 L47.2726 869.485 L30.2762 882.153 L30.2762 875.246 L42.9758 865.793 L30.2762 856.34 L30.2762 849.433 Z" fill="#000000" fill-rule="evenodd" fill-opacity="1" /><path clip-path="url(#clip440)" d="M45.4584 843.45 L45.4584 826.294 L50.6783 826.294 L50.6783 843.45 L45.4584 843.45 Z" fill="#000000" fill-rule="evenodd" fill-opacity="1" /><path clip-path="url(#clip440)" d="M31.6448 791.314 L37.1193 791.314 Q35.7507 793.797 35.0823 796.311 Q34.3821 798.794 34.3821 801.34 Q34.3821 807.038 38.0105 810.189 Q41.6072 813.34 48.132 813.34 Q54.6569 813.34 58.2853 810.189 Q61.8819 807.038 61.8819 801.34 Q61.8819 798.794 61.2135 796.311 Q60.5133 793.797 59.1447 791.314 L64.5555 791.314 Q65.7014 793.765 66.2743 796.407 Q66.8472 799.017 66.8472 801.977 Q66.8472 810.03 61.7864 814.772 Q56.7257 819.514 48.132 819.514 Q39.411 819.514 34.4139 814.74 Q29.4168 809.934 29.4168 801.595 Q29.4168 798.89 29.9897 796.311 Q30.5308 793.733 31.6448 791.314 Z" fill="#000000" fill-rule="evenodd" fill-opacity="1" /><path clip-path="url(#clip440)" d="M34.3821 767.316 Q34.3821 772.026 38.0742 774.764 Q41.7345 777.501 48.132 777.501 Q54.5295 777.501 58.2217 774.795 Q61.8819 772.058 61.8819 767.316 Q61.8819 762.637 58.1898 759.9 Q54.4977 757.162 48.132 757.162 Q41.7981 757.162 38.106 759.9 Q34.3821 762.637 34.3821 767.316 M29.4168 767.316 Q29.4168 759.677 34.3821 755.316 Q39.3473 750.956 48.132 750.956 Q56.8849 750.956 61.8819 755.316 Q66.8472 759.677 66.8472 767.316 Q66.8472 774.986 61.8819 779.347 Q56.8849 783.676 48.132 783.676 Q39.3473 783.676 34.3821 779.347 Q29.4168 774.986 29.4168 767.316 Z" fill="#000000" fill-rule="evenodd" fill-opacity="1" /><path clip-path="url(#clip440)" d="M30.2762 713.621 L47.6228 726.512 L65.9242 712.953 L65.9242 719.859 L51.9196 730.235 L65.9242 740.612 L65.9242 747.518 L47.2726 733.673 L30.2762 746.341 L30.2762 739.434 L42.9758 729.981 L30.2762 720.528 L30.2762 713.621 Z" fill="#000000" fill-rule="evenodd" fill-opacity="1" /><path clip-path="url(#clip440)" d="M43.2304 677.273 L60.6406 677.273 L60.6406 666.96 Q60.6406 661.772 58.5081 659.29 Q56.3438 656.775 51.9196 656.775 Q47.4636 656.775 45.3629 659.29 Q43.2304 661.772 43.2304 666.96 L43.2304 677.273 M23.6877 677.273 L38.0105 677.273 L38.0105 667.756 Q38.0105 663.045 36.26 660.754 Q34.4776 658.43 30.8491 658.43 Q27.2525 658.43 25.4701 660.754 Q23.6877 663.045 23.6877 667.756 L23.6877 677.273 M18.4042 683.702 L18.4042 667.279 Q18.4042 659.926 21.4597 655.948 Q24.5152 651.969 30.1489 651.969 Q34.5094 651.969 37.0875 654.006 Q39.6656 656.043 40.3022 659.99 Q41.3207 655.247 44.5672 652.637 Q47.7819 649.996 52.6198 649.996 Q58.9855 649.996 62.4548 654.324 Q65.9242 658.653 65.9242 666.642 L65.9242 683.702 L18.4042 683.702 Z" fill="#000000" fill-rule="evenodd" fill-opacity="1" /><path clip-path="url(#clip440)" d="M35.7507 618.581 Q35.1778 619.568 34.9232 620.745 Q34.6367 621.891 34.6367 623.292 Q34.6367 628.257 37.8832 630.93 Q41.0979 633.572 47.1453 633.572 L65.9242 633.572 L65.9242 639.46 L30.2762 639.46 L30.2762 633.572 L35.8144 633.572 Q32.5679 631.726 31.0083 628.766 Q29.4168 625.806 29.4168 621.573 Q29.4168 620.968 29.5123 620.236 Q29.576 619.504 29.7351 618.613 L35.7507 618.581 Z" fill="#000000" fill-rule="evenodd" fill-opacity="1" /><path clip-path="url(#clip440)" d="M48.0047 596.237 Q48.0047 603.335 49.6279 606.072 Q51.2512 608.81 55.1661 608.81 Q58.2853 608.81 60.1314 606.773 Q61.9456 604.704 61.9456 601.171 Q61.9456 596.301 58.5081 593.373 Q55.0388 590.413 49.3097 590.413 L48.0047 590.413 L48.0047 596.237 M45.5857 584.556 L65.9242 584.556 L65.9242 590.413 L60.5133 590.413 Q63.7598 592.418 65.3194 595.41 Q66.8472 598.402 66.8472 602.73 Q66.8472 608.205 63.7916 611.451 Q60.7043 614.666 55.5481 614.666 Q49.5325 614.666 46.4769 610.656 Q43.4214 606.613 43.4214 598.624 L43.4214 590.413 L42.8485 590.413 Q38.8062 590.413 36.6101 593.086 Q34.3821 595.728 34.3821 600.534 Q34.3821 603.59 35.1141 606.486 Q35.8462 609.383 37.3103 612.056 L31.8995 612.056 Q30.6581 608.841 30.0534 605.818 Q29.4168 602.794 29.4168 599.929 Q29.4168 592.195 33.4272 588.376 Q37.4376 584.556 45.5857 584.556 Z" fill="#000000" fill-rule="evenodd" fill-opacity="1" /><path clip-path="url(#clip440)" d="M30.2762 572.493 L30.2762 566.637 L65.9242 566.637 L65.9242 572.493 L30.2762 572.493 M16.399 572.493 L16.399 566.637 L23.815 566.637 L23.815 572.493 L16.399 572.493 Z" fill="#000000" fill-rule="evenodd" fill-opacity="1" /><path clip-path="url(#clip440)" d="M44.4081 524.75 L65.9242 524.75 L65.9242 530.607 L44.599 530.607 Q39.5383 530.607 37.0238 532.58 Q34.5094 534.554 34.5094 538.5 Q34.5094 543.243 37.5331 545.98 Q40.5568 548.717 45.7767 548.717 L65.9242 548.717 L65.9242 554.606 L30.2762 554.606 L30.2762 548.717 L35.8144 548.717 Q32.5997 546.617 31.0083 543.784 Q29.4168 540.919 29.4168 537.195 Q29.4168 531.052 33.2363 527.901 Q37.0238 524.75 44.4081 524.75 Z" fill="#000000" fill-rule="evenodd" fill-opacity="1" /><path clip-path="url(#clip440)" d="M631.199 20.1573 L620.1 50.2555 L642.339 50.2555 L631.199 20.1573 M626.581 12.096 L635.858 12.096 L658.908 72.576 L650.401 72.576 L644.892 57.061 L617.629 57.061 L612.12 72.576 L603.491 72.576 L626.581 12.096 Z" fill="#000000" fill-rule="evenodd" fill-opacity="1" /><path clip-path="url(#clip440)" d="M705.129 45.1919 L705.129 72.576 L697.675 72.576 L697.675 45.4349 Q697.675 38.994 695.163 35.7938 Q692.652 32.5936 687.629 32.5936 Q681.593 32.5936 678.109 36.4419 Q674.625 40.2903 674.625 46.9338 L674.625 72.576 L667.131 72.576 L667.131 27.2059 L674.625 27.2059 L674.625 34.2544 Q677.299 30.163 680.904 28.1376 Q684.55 26.1121 689.289 26.1121 Q697.108 26.1121 701.118 30.9732 Q705.129 35.7938 705.129 45.1919 Z" fill="#000000" fill-rule="evenodd" fill-opacity="1" /><path clip-path="url(#clip440)" d="M719.995 27.2059 L727.449 27.2059 L727.449 72.576 L719.995 72.576 L719.995 27.2059 M719.995 9.54393 L727.449 9.54393 L727.449 18.9825 L719.995 18.9825 L719.995 9.54393 Z" fill="#000000" fill-rule="evenodd" fill-opacity="1" /><path clip-path="url(#clip440)" d="M778.369 35.9153 Q781.164 30.8922 785.053 28.5022 Q788.942 26.1121 794.208 26.1121 Q801.297 26.1121 805.145 31.0947 Q808.994 36.0368 808.994 45.1919 L808.994 72.576 L801.5 72.576 L801.5 45.4349 Q801.5 38.913 799.19 35.7533 Q796.881 32.5936 792.142 32.5936 Q786.349 32.5936 782.987 36.4419 Q779.625 40.2903 779.625 46.9338 L779.625 72.576 L772.13 72.576 L772.13 45.4349 Q772.13 38.8725 769.821 35.7533 Q767.512 32.5936 762.692 32.5936 Q756.98 32.5936 753.618 36.4824 Q750.256 40.3308 750.256 46.9338 L750.256 72.576 L742.761 72.576 L742.761 27.2059 L750.256 27.2059 L750.256 34.2544 Q752.808 30.082 756.372 28.0971 Q759.937 26.1121 764.839 26.1121 Q769.781 26.1121 773.224 28.6237 Q776.708 31.1352 778.369 35.9153 Z" fill="#000000" fill-rule="evenodd" fill-opacity="1" /><path clip-path="url(#clip440)" d="M844.48 49.7694 Q835.446 49.7694 831.962 51.8354 Q828.479 53.9013 828.479 58.8839 Q828.479 62.8538 831.071 65.2034 Q833.704 67.5124 838.201 67.5124 Q844.399 67.5124 848.125 63.1374 Q851.893 58.7219 851.893 51.4303 L851.893 49.7694 L844.48 49.7694 M859.346 46.6907 L859.346 72.576 L851.893 72.576 L851.893 65.6895 Q849.341 69.8214 845.533 71.8063 Q841.725 73.7508 836.216 73.7508 Q829.248 73.7508 825.116 69.8619 Q821.025 65.9325 821.025 59.3701 Q821.025 51.7138 826.129 47.825 Q831.274 43.9361 841.441 43.9361 L851.893 43.9361 L851.893 43.2069 Q851.893 38.0623 848.49 35.2672 Q845.128 32.4315 839.011 32.4315 Q835.122 32.4315 831.436 33.3632 Q827.749 34.295 824.347 36.1584 L824.347 29.2718 Q828.438 27.692 832.286 26.9223 Q836.135 26.1121 839.781 26.1121 Q849.624 26.1121 854.485 31.2163 Q859.346 36.3204 859.346 46.6907 Z" fill="#000000" fill-rule="evenodd" fill-opacity="1" /><path clip-path="url(#clip440)" d="M874.699 9.54393 L882.153 9.54393 L882.153 72.576 L874.699 72.576 L874.699 9.54393 Z" fill="#000000" fill-rule="evenodd" fill-opacity="1" /><path clip-path="url(#clip440)" d="M926.672 28.5427 L926.672 35.5912 Q923.513 33.9709 920.11 33.1607 Q916.707 32.3505 913.061 32.3505 Q907.512 32.3505 904.717 34.0519 Q901.962 35.7533 901.962 39.156 Q901.962 41.7486 903.947 43.2475 Q905.932 44.7058 911.927 46.0426 L914.479 46.6097 Q922.419 48.3111 925.741 51.4303 Q929.103 54.509 929.103 60.0587 Q929.103 66.3781 924.08 70.0644 Q919.097 73.7508 910.347 73.7508 Q906.701 73.7508 902.732 73.0216 Q898.802 72.3329 894.427 70.9151 L894.427 63.2184 Q898.559 65.3654 902.57 66.4591 Q906.58 67.5124 910.509 67.5124 Q915.776 67.5124 918.611 65.73 Q921.447 63.9071 921.447 60.6258 Q921.447 57.5877 919.381 55.9673 Q917.355 54.3469 910.428 52.8481 L907.836 52.2405 Q900.909 50.7821 897.83 47.7845 Q894.751 44.7463 894.751 39.4801 Q894.751 33.0797 899.288 29.5959 Q903.825 26.1121 912.17 26.1121 Q916.302 26.1121 919.948 26.7198 Q923.594 27.3274 926.672 28.5427 Z" fill="#000000" fill-rule="evenodd" fill-opacity="1" /><path clip-path="url(#clip440)" d="M942.876 62.2867 L951.423 62.2867 L951.423 69.2543 L944.78 82.2172 L939.554 82.2172 L942.876 69.2543 L942.876 62.2867 Z" fill="#000000" fill-rule="evenodd" fill-opacity="1" /><path clip-path="url(#clip440)" d="M1002.22 43.6931 L1002.22 65.8515 L1015.35 65.8515 Q1021.95 65.8515 1025.11 63.1374 Q1028.31 60.3828 1028.31 54.752 Q1028.31 49.0808 1025.11 46.4072 Q1021.95 43.6931 1015.35 43.6931 L1002.22 43.6931 M1002.22 18.8205 L1002.22 37.0496 L1014.33 37.0496 Q1020.33 37.0496 1023.25 34.8216 Q1026.2 32.5531 1026.2 27.935 Q1026.2 23.3575 1023.25 21.089 Q1020.33 18.8205 1014.33 18.8205 L1002.22 18.8205 M994.039 12.096 L1014.94 12.096 Q1024.3 12.096 1029.36 15.9849 Q1034.43 19.8737 1034.43 27.0438 Q1034.43 32.5936 1031.83 35.8748 Q1029.24 39.156 1024.22 39.9662 Q1030.25 41.2625 1033.58 45.3944 Q1036.94 49.4858 1036.94 55.6432 Q1036.94 63.745 1031.43 68.1605 Q1025.92 72.576 1015.75 72.576 L994.039 72.576 L994.039 12.096 Z" fill="#000000" fill-rule="evenodd" fill-opacity="1" /><path clip-path="url(#clip440)" d="M1068.21 32.4315 Q1062.22 32.4315 1058.73 37.1306 Q1055.25 41.7891 1055.25 49.9314 Q1055.25 58.0738 1058.69 62.7728 Q1062.18 67.4314 1068.21 67.4314 Q1074.17 67.4314 1077.65 62.7323 Q1081.13 58.0333 1081.13 49.9314 Q1081.13 41.8701 1077.65 37.1711 Q1074.17 32.4315 1068.21 32.4315 M1068.21 26.1121 Q1077.93 26.1121 1083.48 32.4315 Q1089.03 38.7509 1089.03 49.9314 Q1089.03 61.0714 1083.48 67.4314 Q1077.93 73.7508 1068.21 73.7508 Q1058.45 73.7508 1052.9 67.4314 Q1047.39 61.0714 1047.39 49.9314 Q1047.39 38.7509 1052.9 32.4315 Q1058.45 26.1121 1068.21 26.1121 Z" fill="#000000" fill-rule="evenodd" fill-opacity="1" /><path clip-path="url(#clip440)" d="M1136.55 27.2059 L1120.14 49.2833 L1137.4 72.576 L1128.61 72.576 L1115.4 54.752 L1102.2 72.576 L1093.41 72.576 L1111.03 48.8377 L1094.91 27.2059 L1103.7 27.2059 L1115.73 43.369 L1127.76 27.2059 L1136.55 27.2059 Z" fill="#000000" fill-rule="evenodd" fill-opacity="1" /><path clip-path="url(#clip440)" d="M1144.17 46.5287 L1166 46.5287 L1166 53.1722 L1144.17 53.1722 L1144.17 46.5287 Z" fill="#000000" fill-rule="evenodd" fill-opacity="1" /><path clip-path="url(#clip440)" d="M1223.48 16.7545 L1223.48 25.383 Q1219.35 21.5346 1214.65 19.6307 Q1209.99 17.7268 1204.73 17.7268 Q1194.36 17.7268 1188.85 24.0867 Q1183.34 30.4061 1183.34 42.3968 Q1183.34 54.3469 1188.85 60.7069 Q1194.36 67.0263 1204.73 67.0263 Q1209.99 67.0263 1214.65 65.1223 Q1219.35 63.2184 1223.48 59.3701 L1223.48 67.9175 Q1219.19 70.8341 1214.37 72.2924 Q1209.59 73.7508 1204.24 73.7508 Q1190.51 73.7508 1182.61 65.3654 Q1174.71 56.9395 1174.71 42.3968 Q1174.71 27.8135 1182.61 19.4281 Q1190.51 11.0023 1204.24 11.0023 Q1209.67 11.0023 1214.45 12.4606 Q1219.27 13.8784 1223.48 16.7545 Z" fill="#000000" fill-rule="evenodd" fill-opacity="1" /><path clip-path="url(#clip440)" d="M1253.38 32.4315 Q1247.38 32.4315 1243.9 37.1306 Q1240.41 41.7891 1240.41 49.9314 Q1240.41 58.0738 1243.86 62.7728 Q1247.34 67.4314 1253.38 67.4314 Q1259.33 67.4314 1262.82 62.7323 Q1266.3 58.0333 1266.3 49.9314 Q1266.3 41.8701 1262.82 37.1711 Q1259.33 32.4315 1253.38 32.4315 M1253.38 26.1121 Q1263.1 26.1121 1268.65 32.4315 Q1274.2 38.7509 1274.2 49.9314 Q1274.2 61.0714 1268.65 67.4314 Q1263.1 73.7508 1253.38 73.7508 Q1243.62 73.7508 1238.07 67.4314 Q1232.56 61.0714 1232.56 49.9314 Q1232.56 38.7509 1238.07 32.4315 Q1243.62 26.1121 1253.38 26.1121 Z" fill="#000000" fill-rule="evenodd" fill-opacity="1" /><path clip-path="url(#clip440)" d="M1321.72 27.2059 L1305.31 49.2833 L1322.57 72.576 L1313.78 72.576 L1300.57 54.752 L1287.36 72.576 L1278.57 72.576 L1296.2 48.8377 L1280.07 27.2059 L1288.86 27.2059 L1300.89 43.369 L1312.93 27.2059 L1321.72 27.2059 Z" fill="#000000" fill-rule="evenodd" fill-opacity="1" /><path clip-path="url(#clip440)" d="M1366.84 14.324 L1366.84 27.2059 L1382.2 27.2059 L1382.2 32.9987 L1366.84 32.9987 L1366.84 57.6282 Q1366.84 63.1779 1368.34 64.7578 Q1369.88 66.3376 1374.54 66.3376 L1382.2 66.3376 L1382.2 72.576 L1374.54 72.576 Q1365.91 72.576 1362.63 69.3758 Q1359.35 66.1351 1359.35 57.6282 L1359.35 32.9987 L1353.88 32.9987 L1353.88 27.2059 L1359.35 27.2059 L1359.35 14.324 L1366.84 14.324 Z" fill="#000000" fill-rule="evenodd" fill-opacity="1" /><path clip-path="url(#clip440)" d="M1418.29 34.1734 Q1417.03 33.4443 1415.54 33.1202 Q1414.08 32.7556 1412.29 32.7556 Q1405.98 32.7556 1402.57 36.8875 Q1399.21 40.9789 1399.21 48.6757 L1399.21 72.576 L1391.72 72.576 L1391.72 27.2059 L1399.21 27.2059 L1399.21 34.2544 Q1401.56 30.1225 1405.33 28.1376 Q1409.09 26.1121 1414.48 26.1121 Q1415.25 26.1121 1416.18 26.2337 Q1417.12 26.3147 1418.25 26.5172 L1418.29 34.1734 Z" fill="#000000" fill-rule="evenodd" fill-opacity="1" /><path clip-path="url(#clip440)" d="M1446.73 49.7694 Q1437.69 49.7694 1434.21 51.8354 Q1430.73 53.9013 1430.73 58.8839 Q1430.73 62.8538 1433.32 65.2034 Q1435.95 67.5124 1440.45 67.5124 Q1446.65 67.5124 1450.37 63.1374 Q1454.14 58.7219 1454.14 51.4303 L1454.14 49.7694 L1446.73 49.7694 M1461.59 46.6907 L1461.59 72.576 L1454.14 72.576 L1454.14 65.6895 Q1451.59 69.8214 1447.78 71.8063 Q1443.97 73.7508 1438.46 73.7508 Q1431.5 73.7508 1427.36 69.8619 Q1423.27 65.9325 1423.27 59.3701 Q1423.27 51.7138 1428.38 47.825 Q1433.52 43.9361 1443.69 43.9361 L1454.14 43.9361 L1454.14 43.2069 Q1454.14 38.0623 1450.74 35.2672 Q1447.38 32.4315 1441.26 32.4315 Q1437.37 32.4315 1433.68 33.3632 Q1430 34.295 1426.59 36.1584 L1426.59 29.2718 Q1430.69 27.692 1434.53 26.9223 Q1438.38 26.1121 1442.03 26.1121 Q1451.87 26.1121 1456.73 31.2163 Q1461.59 36.3204 1461.59 46.6907 Z" fill="#000000" fill-rule="evenodd" fill-opacity="1" /><path clip-path="url(#clip440)" d="M1514.66 45.1919 L1514.66 72.576 L1507.21 72.576 L1507.21 45.4349 Q1507.21 38.994 1504.7 35.7938 Q1502.18 32.5936 1497.16 32.5936 Q1491.13 32.5936 1487.64 36.4419 Q1484.16 40.2903 1484.16 46.9338 L1484.16 72.576 L1476.66 72.576 L1476.66 27.2059 L1484.16 27.2059 L1484.16 34.2544 Q1486.83 30.163 1490.44 28.1376 Q1494.08 26.1121 1498.82 26.1121 Q1506.64 26.1121 1510.65 30.9732 Q1514.66 35.7938 1514.66 45.1919 Z" fill="#000000" fill-rule="evenodd" fill-opacity="1" /><path clip-path="url(#clip440)" d="M1558.45 28.5427 L1558.45 35.5912 Q1555.29 33.9709 1551.89 33.1607 Q1548.49 32.3505 1544.84 32.3505 Q1539.29 32.3505 1536.5 34.0519 Q1533.74 35.7533 1533.74 39.156 Q1533.74 41.7486 1535.73 43.2475 Q1537.71 44.7058 1543.71 46.0426 L1546.26 46.6097 Q1554.2 48.3111 1557.52 51.4303 Q1560.88 54.509 1560.88 60.0587 Q1560.88 66.3781 1555.86 70.0644 Q1550.88 73.7508 1542.13 73.7508 Q1538.48 73.7508 1534.51 73.0216 Q1530.58 72.3329 1526.21 70.9151 L1526.21 63.2184 Q1530.34 65.3654 1534.35 66.4591 Q1538.36 67.5124 1542.29 67.5124 Q1547.55 67.5124 1550.39 65.73 Q1553.23 63.9071 1553.23 60.6258 Q1553.23 57.5877 1551.16 55.9673 Q1549.13 54.3469 1542.21 52.8481 L1539.61 52.2405 Q1532.69 50.7821 1529.61 47.7845 Q1526.53 44.7463 1526.53 39.4801 Q1526.53 33.0797 1531.07 29.5959 Q1535.6 26.1121 1543.95 26.1121 Q1548.08 26.1121 1551.73 26.7198 Q1555.37 27.3274 1558.45 28.5427 Z" fill="#000000" fill-rule="evenodd" fill-opacity="1" /><path clip-path="url(#clip440)" d="M1595.72 9.54393 L1595.72 15.7418 L1588.59 15.7418 Q1584.58 15.7418 1583 17.3622 Q1581.46 18.9825 1581.46 23.1955 L1581.46 27.2059 L1593.73 27.2059 L1593.73 32.9987 L1581.46 32.9987 L1581.46 72.576 L1573.97 72.576 L1573.97 32.9987 L1566.84 32.9987 L1566.84 27.2059 L1573.97 27.2059 L1573.97 24.0462 Q1573.97 16.471 1577.49 13.0277 Q1581.02 9.54393 1588.67 9.54393 L1595.72 9.54393 Z" fill="#000000" fill-rule="evenodd" fill-opacity="1" /><path clip-path="url(#clip440)" d="M1619.54 32.4315 Q1613.54 32.4315 1610.06 37.1306 Q1606.58 41.7891 1606.58 49.9314 Q1606.58 58.0738 1610.02 62.7728 Q1613.5 67.4314 1619.54 67.4314 Q1625.49 67.4314 1628.98 62.7323 Q1632.46 58.0333 1632.46 49.9314 Q1632.46 41.8701 1628.98 37.1711 Q1625.49 32.4315 1619.54 32.4315 M1619.54 26.1121 Q1629.26 26.1121 1634.81 32.4315 Q1640.36 38.7509 1640.36 49.9314 Q1640.36 61.0714 1634.81 67.4314 Q1629.26 73.7508 1619.54 73.7508 Q1609.78 73.7508 1604.23 67.4314 Q1598.72 61.0714 1598.72 49.9314 Q1598.72 38.7509 1604.23 32.4315 Q1609.78 26.1121 1619.54 26.1121 Z" fill="#000000" fill-rule="evenodd" fill-opacity="1" /><path clip-path="url(#clip440)" d="M1679.01 34.1734 Q1677.75 33.4443 1676.25 33.1202 Q1674.79 32.7556 1673.01 32.7556 Q1666.69 32.7556 1663.29 36.8875 Q1659.93 40.9789 1659.93 48.6757 L1659.93 72.576 L1652.43 72.576 L1652.43 27.2059 L1659.93 27.2059 L1659.93 34.2544 Q1662.28 30.1225 1666.04 28.1376 Q1669.81 26.1121 1675.2 26.1121 Q1675.97 26.1121 1676.9 26.2337 Q1677.83 26.3147 1678.97 26.5172 L1679.01 34.1734 Z" fill="#000000" fill-rule="evenodd" fill-opacity="1" /><path clip-path="url(#clip440)" d="M1720.69 35.9153 Q1723.49 30.8922 1727.37 28.5022 Q1731.26 26.1121 1736.53 26.1121 Q1743.62 26.1121 1747.47 31.0947 Q1751.32 36.0368 1751.32 45.1919 L1751.32 72.576 L1743.82 72.576 L1743.82 45.4349 Q1743.82 38.913 1741.51 35.7533 Q1739.2 32.5936 1734.46 32.5936 Q1728.67 32.5936 1725.31 36.4419 Q1721.95 40.2903 1721.95 46.9338 L1721.95 72.576 L1714.45 72.576 L1714.45 45.4349 Q1714.45 38.8725 1712.14 35.7533 Q1709.83 32.5936 1705.01 32.5936 Q1699.3 32.5936 1695.94 36.4824 Q1692.58 40.3308 1692.58 46.9338 L1692.58 72.576 L1685.08 72.576 L1685.08 27.2059 L1692.58 27.2059 L1692.58 34.2544 Q1695.13 30.082 1698.69 28.0971 Q1702.26 26.1121 1707.16 26.1121 Q1712.1 26.1121 1715.55 28.6237 Q1719.03 31.1352 1720.69 35.9153 Z" fill="#000000" fill-rule="evenodd" fill-opacity="1" /><path clip-path="url(#clip440)" d="M1804.99 48.0275 L1804.99 51.6733 L1770.72 51.6733 Q1771.2 59.3701 1775.34 63.421 Q1779.51 67.4314 1786.92 67.4314 Q1791.22 67.4314 1795.23 66.3781 Q1799.28 65.3249 1803.25 63.2184 L1803.25 70.267 Q1799.24 71.9684 1795.02 72.8596 Q1790.81 73.7508 1786.48 73.7508 Q1775.62 73.7508 1769.26 67.4314 Q1762.94 61.1119 1762.94 50.3365 Q1762.94 39.1965 1768.94 32.6746 Q1774.97 26.1121 1785.18 26.1121 Q1794.34 26.1121 1799.64 32.0264 Q1804.99 37.9003 1804.99 48.0275 M1797.54 45.84 Q1797.45 39.7232 1794.09 36.0774 Q1790.77 32.4315 1785.26 32.4315 Q1779.02 32.4315 1775.26 35.9558 Q1771.53 39.4801 1770.96 45.8805 L1797.54 45.84 Z" fill="#000000" fill-rule="evenodd" fill-opacity="1" /><path clip-path="url(#clip440)" d="M1847.08 34.0924 L1847.08 9.54393 L1854.53 9.54393 L1854.53 72.576 L1847.08 72.576 L1847.08 65.7705 Q1844.73 69.8214 1841.12 71.8063 Q1837.56 73.7508 1832.54 73.7508 Q1824.31 73.7508 1819.13 67.1883 Q1813.98 60.6258 1813.98 49.9314 Q1813.98 39.2371 1819.13 32.6746 Q1824.31 26.1121 1832.54 26.1121 Q1837.56 26.1121 1841.12 28.0971 Q1844.73 30.0415 1847.08 34.0924 M1821.68 49.9314 Q1821.68 58.1548 1825.04 62.8538 Q1828.44 67.5124 1834.36 67.5124 Q1840.27 67.5124 1843.68 62.8538 Q1847.08 58.1548 1847.08 49.9314 Q1847.08 41.7081 1843.68 37.0496 Q1840.27 32.3505 1834.36 32.3505 Q1828.44 32.3505 1825.04 37.0496 Q1821.68 41.7081 1821.68 49.9314 Z" fill="#000000" fill-rule="evenodd" fill-opacity="1" /><circle clip-path="url(#clip442)" cx="760.475" cy="1051.49" r="14.4" fill="#009af9" fill-rule="evenodd" fill-opacity="1" stroke="#000000" stroke-opacity="1" stroke-width="3.072"/>
<circle clip-path="url(#clip442)" cx="1505.04" cy="571.485" r="14.4" fill="#009af9" fill-rule="evenodd" fill-opacity="1" stroke="#000000" stroke-opacity="1" stroke-width="3.072"/>
<circle clip-path="url(#clip442)" cx="1176.31" cy="742.219" r="14.4" fill="#009af9" fill-rule="evenodd" fill-opacity="1" stroke="#000000" stroke-opacity="1" stroke-width="3.072"/>
<circle clip-path="url(#clip442)" cx="1141.5" cy="747.13" r="14.4" fill="#009af9" fill-rule="evenodd" fill-opacity="1" stroke="#000000" stroke-opacity="1" stroke-width="3.072"/>
<circle clip-path="url(#clip442)" cx="727.941" cy="1090.58" r="14.4" fill="#009af9" fill-rule="evenodd" fill-opacity="1" stroke="#000000" stroke-opacity="1" stroke-width="3.072"/>
<circle clip-path="url(#clip442)" cx="1929.55" cy="849.95" r="14.4" fill="#009af9" fill-rule="evenodd" fill-opacity="1" stroke="#000000" stroke-opacity="1" stroke-width="3.072"/>
<circle clip-path="url(#clip442)" cx="1727.66" cy="196.189" r="14.4" fill="#009af9" fill-rule="evenodd" fill-opacity="1" stroke="#000000" stroke-opacity="1" stroke-width="3.072"/>
<circle clip-path="url(#clip442)" cx="1386.96" cy="572.836" r="14.4" fill="#009af9" fill-rule="evenodd" fill-opacity="1" stroke="#000000" stroke-opacity="1" stroke-width="3.072"/>
<circle clip-path="url(#clip442)" cx="1519.84" cy="508.154" r="14.4" fill="#009af9" fill-rule="evenodd" fill-opacity="1" stroke="#000000" stroke-opacity="1" stroke-width="3.072"/>
<circle clip-path="url(#clip442)" cx="1012.22" cy="747.13" r="14.4" fill="#009af9" fill-rule="evenodd" fill-opacity="1" stroke="#000000" stroke-opacity="1" stroke-width="3.072"/>
<circle clip-path="url(#clip442)" cx="872.399" cy="927.615" r="14.4" fill="#009af9" fill-rule="evenodd" fill-opacity="1" stroke="#000000" stroke-opacity="1" stroke-width="3.072"/>
<circle clip-path="url(#clip442)" cx="1521.82" cy="502.622" r="14.4" fill="#009af9" fill-rule="evenodd" fill-opacity="1" stroke="#000000" stroke-opacity="1" stroke-width="3.072"/>
<circle clip-path="url(#clip442)" cx="1400.03" cy="577.31" r="14.4" fill="#009af9" fill-rule="evenodd" fill-opacity="1" stroke="#000000" stroke-opacity="1" stroke-width="3.072"/>
<circle clip-path="url(#clip442)" cx="1244.73" cy="401.77" r="14.4" fill="#009af9" fill-rule="evenodd" fill-opacity="1" stroke="#000000" stroke-opacity="1" stroke-width="3.072"/>
<circle clip-path="url(#clip442)" cx="1854.57" cy="158.463" r="14.4" fill="#009af9" fill-rule="evenodd" fill-opacity="1" stroke="#000000" stroke-opacity="1" stroke-width="3.072"/>
<circle clip-path="url(#clip442)" cx="1900.44" cy="809.263" r="14.4" fill="#009af9" fill-rule="evenodd" fill-opacity="1" stroke="#000000" stroke-opacity="1" stroke-width="3.072"/>
<circle clip-path="url(#clip442)" cx="963.455" cy="689.567" r="14.4" fill="#009af9" fill-rule="evenodd" fill-opacity="1" stroke="#000000" stroke-opacity="1" stroke-width="3.072"/>
<circle clip-path="url(#clip442)" cx="1171.54" cy="836.372" r="14.4" fill="#009af9" fill-rule="evenodd" fill-opacity="1" stroke="#000000" stroke-opacity="1" stroke-width="3.072"/>
<circle clip-path="url(#clip442)" cx="460.943" cy="1248.63" r="14.4" fill="#009af9" fill-rule="evenodd" fill-opacity="1" stroke="#000000" stroke-opacity="1" stroke-width="3.072"/>
<circle clip-path="url(#clip442)" cx="259.442" cy="1324.83" r="14.4" fill="#009af9" fill-rule="evenodd" fill-opacity="1" stroke="#000000" stroke-opacity="1" stroke-width="3.072"/>
<circle clip-path="url(#clip442)" cx="837.557" cy="1009.61" r="14.4" fill="#009af9" fill-rule="evenodd" fill-opacity="1" stroke="#000000" stroke-opacity="1" stroke-width="3.072"/>
<circle clip-path="url(#clip442)" cx="1230.53" cy="692.559" r="14.4" fill="#009af9" fill-rule="evenodd" fill-opacity="1" stroke="#000000" stroke-opacity="1" stroke-width="3.072"/>
<circle clip-path="url(#clip442)" cx="1306.15" cy="706.848" r="14.4" fill="#009af9" fill-rule="evenodd" fill-opacity="1" stroke="#000000" stroke-opacity="1" stroke-width="3.072"/>
<circle clip-path="url(#clip442)" cx="1222.58" cy="565.872" r="14.4" fill="#009af9" fill-rule="evenodd" fill-opacity="1" stroke="#000000" stroke-opacity="1" stroke-width="3.072"/>
<circle clip-path="url(#clip442)" cx="565.214" cy="1191.72" r="14.4" fill="#009af9" fill-rule="evenodd" fill-opacity="1" stroke="#000000" stroke-opacity="1" stroke-width="3.072"/>
<circle clip-path="url(#clip442)" cx="2198.58" cy="708.951" r="14.4" fill="#009af9" fill-rule="evenodd" fill-opacity="1" stroke="#000000" stroke-opacity="1" stroke-width="3.072"/>
<circle clip-path="url(#clip442)" cx="462.972" cy="1149.34" r="14.4" fill="#009af9" fill-rule="evenodd" fill-opacity="1" stroke="#000000" stroke-opacity="1" stroke-width="3.072"/>
<circle clip-path="url(#clip442)" cx="1390.3" cy="688.829" r="14.4" fill="#009af9" fill-rule="evenodd" fill-opacity="1" stroke="#000000" stroke-opacity="1" stroke-width="3.072"/>
<polyline clip-path="url(#clip442)" style="stroke:#e26f46; stroke-linecap:round; stroke-linejoin:round; stroke-width:16; stroke-opacity:1; fill:none" points="
  259.442,1187.57 279.029,1178.71 298.616,1169.84 318.203,1160.98 337.791,1152.12 357.378,1143.25 376.965,1134.39 396.553,1125.53 416.14,1116.67 435.727,1107.8 
  455.314,1098.94 474.902,1090.08 494.489,1081.21 514.076,1072.35 533.663,1063.49 553.251,1054.63 572.838,1045.76 592.425,1036.9 612.013,1028.04 631.6,1019.17 
  651.187,1010.31 670.774,1001.45 690.362,992.586 709.949,983.723 729.536,974.86 749.123,965.997 768.711,957.134 788.298,948.272 807.885,939.409 827.473,930.546 
  847.06,921.683 866.647,912.82 886.234,903.957 905.822,895.094 925.409,886.231 944.996,877.369 964.584,868.506 984.171,859.643 1003.76,850.78 1023.35,841.917 
  1042.93,833.054 1062.52,824.191 1082.11,815.329 1101.69,806.466 1121.28,797.603 1140.87,788.74 1160.46,779.877 1180.04,771.014 1199.63,762.151 1219.22,753.289 
  1238.81,744.426 1258.39,735.563 1277.98,726.7 1297.57,717.837 1317.15,708.974 1336.74,700.111 1356.33,691.249 1375.92,682.386 1395.5,673.523 1415.09,664.66 
  1434.68,655.797 1454.27,646.934 1473.85,638.071 1493.44,629.209 1513.03,620.346 1532.61,611.483 1552.2,602.62 1571.79,593.757 1591.38,584.894 1610.96,576.031 
  1630.55,567.169 1650.14,558.306 1669.73,549.443 1689.31,540.58 1708.9,531.717 1728.49,522.854 1748.07,513.991 1767.66,505.129 1787.25,496.266 1806.84,487.403 
  1826.42,478.54 1846.01,469.677 1865.6,460.814 1885.19,451.951 1904.77,443.088 1924.36,434.226 1943.95,425.363 1963.53,416.5 1983.12,407.637 2002.71,398.774 
  2022.3,389.911 2041.88,381.048 2061.47,372.186 2081.06,363.323 2100.65,354.46 2120.23,345.597 2139.82,336.734 2159.41,327.871 2178.99,319.008 2198.58,310.146 
  
  "/>
<polyline clip-path="url(#clip442)" style="stroke:#3da44d; stroke-linecap:round; stroke-linejoin:round; stroke-width:16; stroke-opacity:1; fill:none" points="
  259.442,1218.23 279.029,1208.56 298.616,1198.88 318.203,1189.21 337.791,1179.53 357.378,1169.86 376.965,1160.18 396.553,1150.51 416.14,1140.83 435.727,1131.16 
  455.314,1121.48 474.902,1111.81 494.489,1102.13 514.076,1092.46 533.663,1082.78 553.251,1073.11 572.838,1063.43 592.425,1053.76 612.013,1044.08 631.6,1034.41 
  651.187,1024.73 670.774,1015.05 690.362,1005.38 709.949,995.705 729.536,986.03 749.123,976.355 768.711,966.68 788.298,957.005 807.885,947.33 827.473,937.655 
  847.06,927.98 866.647,918.305 886.234,908.63 905.822,898.955 925.409,889.28 944.996,879.605 964.584,869.93 984.171,860.255 1003.76,850.579 1023.35,840.904 
  1042.93,831.229 1062.52,821.554 1082.11,811.879 1101.69,802.204 1121.28,792.529 1140.87,782.854 1160.46,773.179 1180.04,763.504 1199.63,753.829 1219.22,744.154 
  1238.81,734.479 1258.39,724.804 1277.98,715.129 1297.57,705.454 1317.15,695.779 1336.74,686.104 1356.33,676.429 1375.92,666.754 1395.5,657.079 1415.09,647.404 
  1434.68,637.729 1454.27,628.054 1473.85,618.379 1493.44,608.704 1513.03,599.029 1532.61,589.354 1552.2,579.679 1571.79,570.004 1591.38,560.329 1610.96,550.654 
  1630.55,540.979 1650.14,531.304 1669.73,521.629 1689.31,511.953 1708.9,502.278 1728.49,492.603 1748.07,482.928 1767.66,473.253 1787.25,463.578 1806.84,453.903 
  1826.42,444.228 1846.01,434.553 1865.6,424.878 1885.19,415.203 1904.77,405.528 1924.36,395.853 1943.95,386.178 1963.53,376.503 1983.12,366.828 2002.71,357.153 
  2022.3,347.478 2041.88,337.803 2061.47,328.128 2081.06,318.453 2100.65,308.778 2120.23,299.103 2139.82,289.428 2159.41,279.753 2178.99,270.078 2198.58,260.403 
  
  "/>
<path clip-path="url(#clip440)" d="
M269.784 320.204 L545.841 320.204 L545.841 164.684 L269.784 164.684  Z
  " fill="#ffffff" fill-rule="evenodd" fill-opacity="1"/>
<polyline clip-path="url(#clip440)" style="stroke:#000000; stroke-linecap:round; stroke-linejoin:round; stroke-width:4; stroke-opacity:1; fill:none" points="
  269.784,320.204 545.841,320.204 545.841,164.684 269.784,164.684 269.784,320.204 
  "/>
<polyline clip-path="url(#clip440)" style="stroke:#e26f46; stroke-linecap:round; stroke-linejoin:round; stroke-width:16; stroke-opacity:1; fill:none" points="
  292.623,216.524 429.655,216.524 
  "/>
<path clip-path="url(#clip440)" d="M452.494 197.785 L456.753 197.785 L456.753 233.804 L452.494 233.804 L452.494 197.785 Z" fill="#000000" fill-rule="evenodd" fill-opacity="1" /><path clip-path="url(#clip440)" d="M485.85 212.855 Q487.447 209.984 489.67 208.619 Q491.892 207.253 494.901 207.253 Q498.952 207.253 501.151 210.1 Q503.35 212.924 503.35 218.156 L503.35 233.804 L499.068 233.804 L499.068 218.295 Q499.068 214.568 497.748 212.762 Q496.429 210.957 493.72 210.957 Q490.41 210.957 488.489 213.156 Q486.568 215.355 486.568 219.151 L486.568 233.804 L482.285 233.804 L482.285 218.295 Q482.285 214.545 480.966 212.762 Q479.646 210.957 476.892 210.957 Q473.628 210.957 471.707 213.179 Q469.785 215.378 469.785 219.151 L469.785 233.804 L465.503 233.804 L465.503 207.878 L469.785 207.878 L469.785 211.906 Q471.244 209.521 473.281 208.387 Q475.318 207.253 478.119 207.253 Q480.943 207.253 482.91 208.688 Q484.901 210.123 485.85 212.855 Z" fill="#000000" fill-rule="evenodd" fill-opacity="1" /><polyline clip-path="url(#clip440)" style="stroke:#3da44d; stroke-linecap:round; stroke-linejoin:round; stroke-width:16; stroke-opacity:1; fill:none" points="
  292.623,268.364 429.655,268.364 
  "/>
<path clip-path="url(#clip440)" d="M467.679 263.699 Q466.961 263.283 466.105 263.098 Q465.272 262.889 464.253 262.889 Q460.642 262.889 458.698 265.25 Q456.776 267.588 456.776 271.986 L456.776 285.644 L452.494 285.644 L452.494 259.718 L456.776 259.718 L456.776 263.746 Q458.119 261.385 460.272 260.25 Q462.424 259.093 465.503 259.093 Q465.943 259.093 466.475 259.162 Q467.008 259.209 467.656 259.324 L467.679 263.699 Z" fill="#000000" fill-rule="evenodd" fill-opacity="1" /><path clip-path="url(#clip440)" d="M472.147 249.625 L476.406 249.625 L476.406 285.644 L472.147 285.644 L472.147 249.625 Z" fill="#000000" fill-rule="evenodd" fill-opacity="1" /><path clip-path="url(#clip440)" d="M505.503 264.695 Q507.1 261.824 509.322 260.459 Q511.544 259.093 514.554 259.093 Q518.605 259.093 520.804 261.94 Q523.003 264.764 523.003 269.996 L523.003 285.644 L518.72 285.644 L518.72 270.135 Q518.72 266.408 517.401 264.602 Q516.081 262.797 513.373 262.797 Q510.063 262.797 508.142 264.996 Q506.22 267.195 506.22 270.991 L506.22 285.644 L501.938 285.644 L501.938 270.135 Q501.938 266.385 500.619 264.602 Q499.299 262.797 496.545 262.797 Q493.281 262.797 491.359 265.019 Q489.438 267.218 489.438 270.991 L489.438 285.644 L485.156 285.644 L485.156 259.718 L489.438 259.718 L489.438 263.746 Q490.896 261.361 492.933 260.227 Q494.97 259.093 497.771 259.093 Q500.595 259.093 502.563 260.528 Q504.554 261.963 505.503 264.695 Z" fill="#000000" fill-rule="evenodd" fill-opacity="1" /></svg>
