<?xml version="1.0" encoding="utf-8"?>
<svg xmlns="http://www.w3.org/2000/svg" xmlns:xlink="http://www.w3.org/1999/xlink" width="672" height="480" viewBox="0 0 2688 1920">
<defs>
  <clipPath id="clip230">
    <rect x="0" y="0" width="2688" height="1920"/>
  </clipPath>
</defs>
<path clip-path="url(#clip230)" d="
M0 1920 L2688 1920 L2688 0 L0 0  Z
  " fill="#ffffff" fill-rule="evenodd" fill-opacity="1"/>
<defs>
  <clipPath id="clip231">
    <rect x="537" y="0" width="1883" height="1883"/>
  </clipPath>
</defs>
<path clip-path="url(#clip230)" d="
M150.358 1800.78 L1296.76 1800.78 L1296.76 47.2441 L150.358 47.2441  Z
  " fill="#ffffff" fill-rule="evenodd" fill-opacity="1"/>
<defs>
  <clipPath id="clip232">
    <rect x="150" y="47" width="1147" height="1755"/>
  </clipPath>
</defs>
<polyline clip-path="url(#clip232)" style="stroke:#000000; stroke-linecap:round; stroke-linejoin:round; stroke-width:2; stroke-opacity:0.1; fill:none" points="
  219.648,1800.78 219.648,47.2441 
  "/>
<polyline clip-path="url(#clip232)" style="stroke:#000000; stroke-linecap:round; stroke-linejoin:round; stroke-width:2; stroke-opacity:0.1; fill:none" points="
  467.847,1800.78 467.847,47.2441 
  "/>
<polyline clip-path="url(#clip232)" style="stroke:#000000; stroke-linecap:round; stroke-linejoin:round; stroke-width:2; stroke-opacity:0.1; fill:none" points="
  716.045,1800.78 716.045,47.2441 
  "/>
<polyline clip-path="url(#clip232)" style="stroke:#000000; stroke-linecap:round; stroke-linejoin:round; stroke-width:2; stroke-opacity:0.1; fill:none" points="
  964.244,1800.78 964.244,47.2441 
  "/>
<polyline clip-path="url(#clip232)" style="stroke:#000000; stroke-linecap:round; stroke-linejoin:round; stroke-width:2; stroke-opacity:0.1; fill:none" points="
  1212.44,1800.78 1212.44,47.2441 
  "/>
<polyline clip-path="url(#clip230)" style="stroke:#000000; stroke-linecap:round; stroke-linejoin:round; stroke-width:4; stroke-opacity:1; fill:none" points="
  150.358,1800.78 1296.76,1800.78 
  "/>
<polyline clip-path="url(#clip230)" style="stroke:#000000; stroke-linecap:round; stroke-linejoin:round; stroke-width:4; stroke-opacity:1; fill:none" points="
  219.648,1800.78 219.648,1781.88 
  "/>
<polyline clip-path="url(#clip230)" style="stroke:#000000; stroke-linecap:round; stroke-linejoin:round; stroke-width:4; stroke-opacity:1; fill:none" points="
  467.847,1800.78 467.847,1781.88 
  "/>
<polyline clip-path="url(#clip230)" style="stroke:#000000; stroke-linecap:round; stroke-linejoin:round; stroke-width:4; stroke-opacity:1; fill:none" points="
  716.045,1800.78 716.045,1781.88 
  "/>
<polyline clip-path="url(#clip230)" style="stroke:#000000; stroke-linecap:round; stroke-linejoin:round; stroke-width:4; stroke-opacity:1; fill:none" points="
  964.244,1800.78 964.244,1781.88 
  "/>
<polyline clip-path="url(#clip230)" style="stroke:#000000; stroke-linecap:round; stroke-linejoin:round; stroke-width:4; stroke-opacity:1; fill:none" points="
  1212.44,1800.78 1212.44,1781.88 
  "/>
<path clip-path="url(#clip230)" d="M189.591 1848.65 L219.266 1848.65 L219.266 1852.59 L189.591 1852.59 L189.591 1848.65 Z" fill="#000000" fill-rule="evenodd" fill-opacity="1" /><path clip-path="url(#clip230)" d="M233.387 1861.55 L249.706 1861.55 L249.706 1865.48 L227.762 1865.48 L227.762 1861.55 Q230.424 1858.79 235.007 1854.16 Q239.613 1849.51 240.794 1848.17 Q243.039 1845.65 243.919 1843.91 Q244.822 1842.15 244.822 1840.46 Q244.822 1837.71 242.877 1835.97 Q240.956 1834.23 237.854 1834.23 Q235.655 1834.23 233.201 1835 Q230.771 1835.76 227.993 1837.31 L227.993 1832.59 Q230.817 1831.46 233.271 1830.88 Q235.725 1830.3 237.762 1830.3 Q243.132 1830.3 246.326 1832.98 Q249.521 1835.67 249.521 1840.16 Q249.521 1842.29 248.711 1844.21 Q247.924 1846.11 245.817 1848.7 Q245.238 1849.37 242.137 1852.59 Q239.035 1855.78 233.387 1861.55 Z" fill="#000000" fill-rule="evenodd" fill-opacity="1" /><path clip-path="url(#clip230)" d="M437.604 1848.65 L467.28 1848.65 L467.28 1852.59 L437.604 1852.59 L437.604 1848.65 Z" fill="#000000" fill-rule="evenodd" fill-opacity="1" /><path clip-path="url(#clip230)" d="M478.182 1861.55 L485.821 1861.55 L485.821 1835.18 L477.511 1836.85 L477.511 1832.59 L485.775 1830.92 L490.451 1830.92 L490.451 1861.55 L498.09 1861.55 L498.09 1865.48 L478.182 1865.48 L478.182 1861.55 Z" fill="#000000" fill-rule="evenodd" fill-opacity="1" /><path clip-path="url(#clip230)" d="M716.045 1834 Q712.434 1834 710.605 1837.57 Q708.8 1841.11 708.8 1848.24 Q708.8 1855.34 710.605 1858.91 Q712.434 1862.45 716.045 1862.45 Q719.679 1862.45 721.485 1858.91 Q723.314 1855.34 723.314 1848.24 Q723.314 1841.11 721.485 1837.57 Q719.679 1834 716.045 1834 M716.045 1830.3 Q721.855 1830.3 724.911 1834.9 Q727.989 1839.49 727.989 1848.24 Q727.989 1856.96 724.911 1861.57 Q721.855 1866.15 716.045 1866.15 Q710.235 1866.15 707.156 1861.57 Q704.101 1856.96 704.101 1848.24 Q704.101 1839.49 707.156 1834.9 Q710.235 1830.3 716.045 1830.3 Z" fill="#000000" fill-rule="evenodd" fill-opacity="1" /><path clip-path="url(#clip230)" d="M954.626 1861.55 L962.264 1861.55 L962.264 1835.18 L953.954 1836.85 L953.954 1832.59 L962.218 1830.92 L966.894 1830.92 L966.894 1861.55 L974.533 1861.55 L974.533 1865.48 L954.626 1865.48 L954.626 1861.55 Z" fill="#000000" fill-rule="evenodd" fill-opacity="1" /><path clip-path="url(#clip230)" d="M1207.09 1861.55 L1223.41 1861.55 L1223.41 1865.48 L1201.47 1865.48 L1201.47 1861.55 Q1204.13 1858.79 1208.72 1854.16 Q1213.32 1849.51 1214.5 1848.17 Q1216.75 1845.65 1217.63 1843.91 Q1218.53 1842.15 1218.53 1840.46 Q1218.53 1837.71 1216.59 1835.97 Q1214.66 1834.23 1211.56 1834.23 Q1209.36 1834.23 1206.91 1835 Q1204.48 1835.76 1201.7 1837.31 L1201.7 1832.59 Q1204.53 1831.46 1206.98 1830.88 Q1209.43 1830.3 1211.47 1830.3 Q1216.84 1830.3 1220.03 1832.98 Q1223.23 1835.67 1223.23 1840.16 Q1223.23 1842.29 1222.42 1844.21 Q1221.63 1846.11 1219.53 1848.7 Q1218.95 1849.37 1215.84 1852.59 Q1212.74 1855.78 1207.09 1861.55 Z" fill="#000000" fill-rule="evenodd" fill-opacity="1" /><polyline clip-path="url(#clip232)" style="stroke:#000000; stroke-linecap:round; stroke-linejoin:round; stroke-width:2; stroke-opacity:0.1; fill:none" points="
  150.358,1622.61 1296.76,1622.61 
  "/>
<polyline clip-path="url(#clip232)" style="stroke:#000000; stroke-linecap:round; stroke-linejoin:round; stroke-width:2; stroke-opacity:0.1; fill:none" points="
  150.358,1261.79 1296.76,1261.79 
  "/>
<polyline clip-path="url(#clip232)" style="stroke:#000000; stroke-linecap:round; stroke-linejoin:round; stroke-width:2; stroke-opacity:0.1; fill:none" points="
  150.358,900.97 1296.76,900.97 
  "/>
<polyline clip-path="url(#clip232)" style="stroke:#000000; stroke-linecap:round; stroke-linejoin:round; stroke-width:2; stroke-opacity:0.1; fill:none" points="
  150.358,540.152 1296.76,540.152 
  "/>
<polyline clip-path="url(#clip232)" style="stroke:#000000; stroke-linecap:round; stroke-linejoin:round; stroke-width:2; stroke-opacity:0.1; fill:none" points="
  150.358,179.334 1296.76,179.334 
  "/>
<polyline clip-path="url(#clip230)" style="stroke:#000000; stroke-linecap:round; stroke-linejoin:round; stroke-width:4; stroke-opacity:1; fill:none" points="
  150.358,1800.78 150.358,47.2441 
  "/>
<polyline clip-path="url(#clip230)" style="stroke:#000000; stroke-linecap:round; stroke-linejoin:round; stroke-width:4; stroke-opacity:1; fill:none" points="
  150.358,1622.61 169.256,1622.61 
  "/>
<polyline clip-path="url(#clip230)" style="stroke:#000000; stroke-linecap:round; stroke-linejoin:round; stroke-width:4; stroke-opacity:1; fill:none" points="
  150.358,1261.79 169.256,1261.79 
  "/>
<polyline clip-path="url(#clip230)" style="stroke:#000000; stroke-linecap:round; stroke-linejoin:round; stroke-width:4; stroke-opacity:1; fill:none" points="
  150.358,900.97 169.256,900.97 
  "/>
<polyline clip-path="url(#clip230)" style="stroke:#000000; stroke-linecap:round; stroke-linejoin:round; stroke-width:4; stroke-opacity:1; fill:none" points="
  150.358,540.152 169.256,540.152 
  "/>
<polyline clip-path="url(#clip230)" style="stroke:#000000; stroke-linecap:round; stroke-linejoin:round; stroke-width:4; stroke-opacity:1; fill:none" points="
  150.358,179.334 169.256,179.334 
  "/>
<path clip-path="url(#clip230)" d="M49.9225 1623.06 L79.5983 1623.06 L79.5983 1626.99 L49.9225 1626.99 L49.9225 1623.06 Z" fill="#000000" fill-rule="evenodd" fill-opacity="1" /><path clip-path="url(#clip230)" d="M93.7186 1635.95 L110.038 1635.95 L110.038 1639.89 L88.0936 1639.89 L88.0936 1635.95 Q90.7556 1633.2 95.3389 1628.57 Q99.9454 1623.91 101.126 1622.57 Q103.371 1620.05 104.251 1618.31 Q105.154 1616.55 105.154 1614.86 Q105.154 1612.11 103.209 1610.37 Q101.288 1608.64 98.1861 1608.64 Q95.9871 1608.64 93.5334 1609.4 Q91.1028 1610.16 88.3251 1611.72 L88.3251 1606.99 Q91.1491 1605.86 93.6028 1605.28 Q96.0565 1604.7 98.0935 1604.7 Q103.464 1604.7 106.658 1607.39 Q109.853 1610.07 109.853 1614.56 Q109.853 1616.69 109.043 1618.61 Q108.256 1620.51 106.149 1623.1 Q105.57 1623.78 102.469 1626.99 Q99.3667 1630.19 93.7186 1635.95 Z" fill="#000000" fill-rule="evenodd" fill-opacity="1" /><path clip-path="url(#clip230)" d="M49.5521 1262.24 L79.2279 1262.24 L79.2279 1266.18 L49.5521 1266.18 L49.5521 1262.24 Z" fill="#000000" fill-rule="evenodd" fill-opacity="1" /><path clip-path="url(#clip230)" d="M90.1306 1275.13 L97.7695 1275.13 L97.7695 1248.77 L89.4593 1250.43 L89.4593 1246.18 L97.7232 1244.51 L102.399 1244.51 L102.399 1275.13 L110.038 1275.13 L110.038 1279.07 L90.1306 1279.07 L90.1306 1275.13 Z" fill="#000000" fill-rule="evenodd" fill-opacity="1" /><path clip-path="url(#clip230)" d="M98.0935 886.769 Q94.4824 886.769 92.6537 890.334 Q90.8482 893.876 90.8482 901.005 Q90.8482 908.112 92.6537 911.676 Q94.4824 915.218 98.0935 915.218 Q101.728 915.218 103.533 911.676 Q105.362 908.112 105.362 901.005 Q105.362 893.876 103.533 890.334 Q101.728 886.769 98.0935 886.769 M98.0935 883.065 Q103.904 883.065 106.959 887.672 Q110.038 892.255 110.038 901.005 Q110.038 909.732 106.959 914.338 Q103.904 918.922 98.0935 918.922 Q92.2834 918.922 89.2047 914.338 Q86.1492 909.732 86.1492 901.005 Q86.1492 892.255 89.2047 887.672 Q92.2834 883.065 98.0935 883.065 Z" fill="#000000" fill-rule="evenodd" fill-opacity="1" /><path clip-path="url(#clip230)" d="M90.1306 553.497 L97.7695 553.497 L97.7695 527.132 L89.4593 528.798 L89.4593 524.539 L97.7232 522.872 L102.399 522.872 L102.399 553.497 L110.038 553.497 L110.038 557.432 L90.1306 557.432 L90.1306 553.497 Z" fill="#000000" fill-rule="evenodd" fill-opacity="1" /><path clip-path="url(#clip230)" d="M93.7186 192.679 L110.038 192.679 L110.038 196.614 L88.0936 196.614 L88.0936 192.679 Q90.7556 189.925 95.3389 185.295 Q99.9454 180.642 101.126 179.3 Q103.371 176.776 104.251 175.04 Q105.154 173.281 105.154 171.591 Q105.154 168.837 103.209 167.101 Q101.288 165.364 98.1861 165.364 Q95.9871 165.364 93.5334 166.128 Q91.1028 166.892 88.3251 168.443 L88.3251 163.721 Q91.1491 162.587 93.6028 162.008 Q96.0565 161.429 98.0935 161.429 Q103.464 161.429 106.658 164.114 Q109.853 166.8 109.853 171.29 Q109.853 173.42 109.043 175.341 Q108.256 177.239 106.149 179.832 Q105.57 180.503 102.469 183.721 Q99.3667 186.915 93.7186 192.679 Z" fill="#000000" fill-rule="evenodd" fill-opacity="1" /><polyline clip-path="url(#clip232)" style="stroke:#6b9e32; stroke-linecap:round; stroke-linejoin:round; stroke-width:4; stroke-opacity:1; fill:none" points="
  182.803,1676.17 1264.31,103.93 
  "/>
<circle clip-path="url(#clip232)" cx="182.803" cy="1751.15" r="14.4" fill="#009af9" fill-rule="evenodd" fill-opacity="1" stroke="#000000" stroke-opacity="1" stroke-width="3.84"/>
<circle clip-path="url(#clip232)" cx="285.882" cy="1689.23" r="14.4" fill="#009af9" fill-rule="evenodd" fill-opacity="1" stroke="#000000" stroke-opacity="1" stroke-width="3.84"/>
<circle clip-path="url(#clip232)" cx="317.632" cy="1633.35" r="14.4" fill="#009af9" fill-rule="evenodd" fill-opacity="1" stroke="#000000" stroke-opacity="1" stroke-width="3.84"/>
<circle clip-path="url(#clip232)" cx="382.159" cy="1450.23" r="14.4" fill="#009af9" fill-rule="evenodd" fill-opacity="1" stroke="#000000" stroke-opacity="1" stroke-width="3.84"/>
<circle clip-path="url(#clip232)" cx="390.512" cy="1333.42" r="14.4" fill="#009af9" fill-rule="evenodd" fill-opacity="1" stroke="#000000" stroke-opacity="1" stroke-width="3.84"/>
<circle clip-path="url(#clip232)" cx="400.983" cy="1300.55" r="14.4" fill="#009af9" fill-rule="evenodd" fill-opacity="1" stroke="#000000" stroke-opacity="1" stroke-width="3.84"/>
<circle clip-path="url(#clip232)" cx="415.628" cy="1255.59" r="14.4" fill="#009af9" fill-rule="evenodd" fill-opacity="1" stroke="#000000" stroke-opacity="1" stroke-width="3.84"/>
<circle clip-path="url(#clip232)" cx="436.217" cy="1248.07" r="14.4" fill="#009af9" fill-rule="evenodd" fill-opacity="1" stroke="#000000" stroke-opacity="1" stroke-width="3.84"/>
<circle clip-path="url(#clip232)" cx="456.211" cy="1213.96" r="14.4" fill="#009af9" fill-rule="evenodd" fill-opacity="1" stroke="#000000" stroke-opacity="1" stroke-width="3.84"/>
<circle clip-path="url(#clip232)" cx="476.255" cy="1198.7" r="14.4" fill="#009af9" fill-rule="evenodd" fill-opacity="1" stroke="#000000" stroke-opacity="1" stroke-width="3.84"/>
<circle clip-path="url(#clip232)" cx="499.09" cy="1191.86" r="14.4" fill="#009af9" fill-rule="evenodd" fill-opacity="1" stroke="#000000" stroke-opacity="1" stroke-width="3.84"/>
<circle clip-path="url(#clip232)" cx="502.643" cy="1118.82" r="14.4" fill="#009af9" fill-rule="evenodd" fill-opacity="1" stroke="#000000" stroke-opacity="1" stroke-width="3.84"/>
<circle clip-path="url(#clip232)" cx="552.689" cy="1110.24" r="14.4" fill="#009af9" fill-rule="evenodd" fill-opacity="1" stroke="#000000" stroke-opacity="1" stroke-width="3.84"/>
<circle clip-path="url(#clip232)" cx="553.238" cy="1090.49" r="14.4" fill="#009af9" fill-rule="evenodd" fill-opacity="1" stroke="#000000" stroke-opacity="1" stroke-width="3.84"/>
<circle clip-path="url(#clip232)" cx="582.204" cy="1089.44" r="14.4" fill="#009af9" fill-rule="evenodd" fill-opacity="1" stroke="#000000" stroke-opacity="1" stroke-width="3.84"/>
<circle clip-path="url(#clip232)" cx="603.677" cy="1085.65" r="14.4" fill="#009af9" fill-rule="evenodd" fill-opacity="1" stroke="#000000" stroke-opacity="1" stroke-width="3.84"/>
<circle clip-path="url(#clip232)" cx="625.459" cy="1055.93" r="14.4" fill="#009af9" fill-rule="evenodd" fill-opacity="1" stroke="#000000" stroke-opacity="1" stroke-width="3.84"/>
<circle clip-path="url(#clip232)" cx="628.239" cy="1037.74" r="14.4" fill="#009af9" fill-rule="evenodd" fill-opacity="1" stroke="#000000" stroke-opacity="1" stroke-width="3.84"/>
<circle clip-path="url(#clip232)" cx="664.033" cy="1023.9" r="14.4" fill="#009af9" fill-rule="evenodd" fill-opacity="1" stroke="#000000" stroke-opacity="1" stroke-width="3.84"/>
<circle clip-path="url(#clip232)" cx="665.399" cy="969.758" r="14.4" fill="#009af9" fill-rule="evenodd" fill-opacity="1" stroke="#000000" stroke-opacity="1" stroke-width="3.84"/>
<circle clip-path="url(#clip232)" cx="680.571" cy="951.759" r="14.4" fill="#009af9" fill-rule="evenodd" fill-opacity="1" stroke="#000000" stroke-opacity="1" stroke-width="3.84"/>
<circle clip-path="url(#clip232)" cx="691.741" cy="940.682" r="14.4" fill="#009af9" fill-rule="evenodd" fill-opacity="1" stroke="#000000" stroke-opacity="1" stroke-width="3.84"/>
<circle clip-path="url(#clip232)" cx="695.21" cy="940.368" r="14.4" fill="#009af9" fill-rule="evenodd" fill-opacity="1" stroke="#000000" stroke-opacity="1" stroke-width="3.84"/>
<circle clip-path="url(#clip232)" cx="710.616" cy="927.328" r="14.4" fill="#009af9" fill-rule="evenodd" fill-opacity="1" stroke="#000000" stroke-opacity="1" stroke-width="3.84"/>
<circle clip-path="url(#clip232)" cx="712.873" cy="923.527" r="14.4" fill="#009af9" fill-rule="evenodd" fill-opacity="1" stroke="#000000" stroke-opacity="1" stroke-width="3.84"/>
<circle clip-path="url(#clip232)" cx="715.884" cy="890.175" r="14.4" fill="#009af9" fill-rule="evenodd" fill-opacity="1" stroke="#000000" stroke-opacity="1" stroke-width="3.84"/>
<circle clip-path="url(#clip232)" cx="724.368" cy="884.766" r="14.4" fill="#009af9" fill-rule="evenodd" fill-opacity="1" stroke="#000000" stroke-opacity="1" stroke-width="3.84"/>
<circle clip-path="url(#clip232)" cx="742.764" cy="850.602" r="14.4" fill="#009af9" fill-rule="evenodd" fill-opacity="1" stroke="#000000" stroke-opacity="1" stroke-width="3.84"/>
<circle clip-path="url(#clip232)" cx="744.041" cy="843.679" r="14.4" fill="#009af9" fill-rule="evenodd" fill-opacity="1" stroke="#000000" stroke-opacity="1" stroke-width="3.84"/>
<circle clip-path="url(#clip232)" cx="754.59" cy="839.673" r="14.4" fill="#009af9" fill-rule="evenodd" fill-opacity="1" stroke="#000000" stroke-opacity="1" stroke-width="3.84"/>
<circle clip-path="url(#clip232)" cx="762.357" cy="834.8" r="14.4" fill="#009af9" fill-rule="evenodd" fill-opacity="1" stroke="#000000" stroke-opacity="1" stroke-width="3.84"/>
<circle clip-path="url(#clip232)" cx="778.507" cy="814.098" r="14.4" fill="#009af9" fill-rule="evenodd" fill-opacity="1" stroke="#000000" stroke-opacity="1" stroke-width="3.84"/>
<circle clip-path="url(#clip232)" cx="792.942" cy="811.757" r="14.4" fill="#009af9" fill-rule="evenodd" fill-opacity="1" stroke="#000000" stroke-opacity="1" stroke-width="3.84"/>
<circle clip-path="url(#clip232)" cx="803.669" cy="803.629" r="14.4" fill="#009af9" fill-rule="evenodd" fill-opacity="1" stroke="#000000" stroke-opacity="1" stroke-width="3.84"/>
<circle clip-path="url(#clip232)" cx="816.668" cy="756.477" r="14.4" fill="#009af9" fill-rule="evenodd" fill-opacity="1" stroke="#000000" stroke-opacity="1" stroke-width="3.84"/>
<circle clip-path="url(#clip232)" cx="824.688" cy="735.821" r="14.4" fill="#009af9" fill-rule="evenodd" fill-opacity="1" stroke="#000000" stroke-opacity="1" stroke-width="3.84"/>
<circle clip-path="url(#clip232)" cx="840.65" cy="622.319" r="14.4" fill="#009af9" fill-rule="evenodd" fill-opacity="1" stroke="#000000" stroke-opacity="1" stroke-width="3.84"/>
<circle clip-path="url(#clip232)" cx="843.021" cy="619.643" r="14.4" fill="#009af9" fill-rule="evenodd" fill-opacity="1" stroke="#000000" stroke-opacity="1" stroke-width="3.84"/>
<circle clip-path="url(#clip232)" cx="870.953" cy="592.484" r="14.4" fill="#009af9" fill-rule="evenodd" fill-opacity="1" stroke="#000000" stroke-opacity="1" stroke-width="3.84"/>
<circle clip-path="url(#clip232)" cx="899.902" cy="578.504" r="14.4" fill="#009af9" fill-rule="evenodd" fill-opacity="1" stroke="#000000" stroke-opacity="1" stroke-width="3.84"/>
<circle clip-path="url(#clip232)" cx="934.925" cy="529.74" r="14.4" fill="#009af9" fill-rule="evenodd" fill-opacity="1" stroke="#000000" stroke-opacity="1" stroke-width="3.84"/>
<circle clip-path="url(#clip232)" cx="960.304" cy="507.814" r="14.4" fill="#009af9" fill-rule="evenodd" fill-opacity="1" stroke="#000000" stroke-opacity="1" stroke-width="3.84"/>
<circle clip-path="url(#clip232)" cx="964.989" cy="493.538" r="14.4" fill="#009af9" fill-rule="evenodd" fill-opacity="1" stroke="#000000" stroke-opacity="1" stroke-width="3.84"/>
<circle clip-path="url(#clip232)" cx="977.488" cy="489.809" r="14.4" fill="#009af9" fill-rule="evenodd" fill-opacity="1" stroke="#000000" stroke-opacity="1" stroke-width="3.84"/>
<circle clip-path="url(#clip232)" cx="1012.25" cy="443.344" r="14.4" fill="#009af9" fill-rule="evenodd" fill-opacity="1" stroke="#000000" stroke-opacity="1" stroke-width="3.84"/>
<circle clip-path="url(#clip232)" cx="1095.37" cy="436.208" r="14.4" fill="#009af9" fill-rule="evenodd" fill-opacity="1" stroke="#000000" stroke-opacity="1" stroke-width="3.84"/>
<circle clip-path="url(#clip232)" cx="1124.09" cy="392.803" r="14.4" fill="#009af9" fill-rule="evenodd" fill-opacity="1" stroke="#000000" stroke-opacity="1" stroke-width="3.84"/>
<circle clip-path="url(#clip232)" cx="1214.94" cy="330.007" r="14.4" fill="#009af9" fill-rule="evenodd" fill-opacity="1" stroke="#000000" stroke-opacity="1" stroke-width="3.84"/>
<circle clip-path="url(#clip232)" cx="1226.62" cy="318.224" r="14.4" fill="#009af9" fill-rule="evenodd" fill-opacity="1" stroke="#000000" stroke-opacity="1" stroke-width="3.84"/>
<circle clip-path="url(#clip232)" cx="1264.31" cy="96.8724" r="14.4" fill="#009af9" fill-rule="evenodd" fill-opacity="1" stroke="#000000" stroke-opacity="1" stroke-width="3.84"/>
<path clip-path="url(#clip230)" d="
M1494.36 1800.78 L2640.76 1800.78 L2640.76 47.2441 L1494.36 47.2441  Z
  " fill="#ffffff" fill-rule="evenodd" fill-opacity="1"/>
<defs>
  <clipPath id="clip233">
    <rect x="1494" y="47" width="1147" height="1755"/>
  </clipPath>
</defs>
<polyline clip-path="url(#clip233)" style="stroke:#000000; stroke-linecap:round; stroke-linejoin:round; stroke-width:2; stroke-opacity:0.1; fill:none" points="
  1610.84,1800.78 1610.84,47.2441 
  "/>
<polyline clip-path="url(#clip233)" style="stroke:#000000; stroke-linecap:round; stroke-linejoin:round; stroke-width:2; stroke-opacity:0.1; fill:none" points="
  1846.73,1800.78 1846.73,47.2441 
  "/>
<polyline clip-path="url(#clip233)" style="stroke:#000000; stroke-linecap:round; stroke-linejoin:round; stroke-width:2; stroke-opacity:0.1; fill:none" points="
  2082.62,1800.78 2082.62,47.2441 
  "/>
<polyline clip-path="url(#clip233)" style="stroke:#000000; stroke-linecap:round; stroke-linejoin:round; stroke-width:2; stroke-opacity:0.1; fill:none" points="
  2318.51,1800.78 2318.51,47.2441 
  "/>
<polyline clip-path="url(#clip233)" style="stroke:#000000; stroke-linecap:round; stroke-linejoin:round; stroke-width:2; stroke-opacity:0.1; fill:none" points="
  2554.4,1800.78 2554.4,47.2441 
  "/>
<polyline clip-path="url(#clip230)" style="stroke:#000000; stroke-linecap:round; stroke-linejoin:round; stroke-width:4; stroke-opacity:1; fill:none" points="
  1494.36,1800.78 2640.76,1800.78 
  "/>
<polyline clip-path="url(#clip230)" style="stroke:#000000; stroke-linecap:round; stroke-linejoin:round; stroke-width:4; stroke-opacity:1; fill:none" points="
  1610.84,1800.78 1610.84,1781.88 
  "/>
<polyline clip-path="url(#clip230)" style="stroke:#000000; stroke-linecap:round; stroke-linejoin:round; stroke-width:4; stroke-opacity:1; fill:none" points="
  1846.73,1800.78 1846.73,1781.88 
  "/>
<polyline clip-path="url(#clip230)" style="stroke:#000000; stroke-linecap:round; stroke-linejoin:round; stroke-width:4; stroke-opacity:1; fill:none" points="
  2082.62,1800.78 2082.62,1781.88 
  "/>
<polyline clip-path="url(#clip230)" style="stroke:#000000; stroke-linecap:round; stroke-linejoin:round; stroke-width:4; stroke-opacity:1; fill:none" points="
  2318.51,1800.78 2318.51,1781.88 
  "/>
<polyline clip-path="url(#clip230)" style="stroke:#000000; stroke-linecap:round; stroke-linejoin:round; stroke-width:4; stroke-opacity:1; fill:none" points="
  2554.4,1800.78 2554.4,1781.88 
  "/>
<path clip-path="url(#clip230)" d="M1580.78 1848.65 L1610.46 1848.65 L1610.46 1852.59 L1580.78 1852.59 L1580.78 1848.65 Z" fill="#000000" fill-rule="evenodd" fill-opacity="1" /><path clip-path="url(#clip230)" d="M1624.58 1861.55 L1640.9 1861.55 L1640.9 1865.48 L1618.95 1865.48 L1618.95 1861.55 Q1621.62 1858.79 1626.2 1854.16 Q1630.81 1849.51 1631.99 1848.17 Q1634.23 1845.65 1635.11 1843.91 Q1636.01 1842.15 1636.01 1840.46 Q1636.01 1837.71 1634.07 1835.97 Q1632.15 1834.23 1629.05 1834.23 Q1626.85 1834.23 1624.39 1835 Q1621.96 1835.76 1619.19 1837.31 L1619.19 1832.59 Q1622.01 1831.46 1624.46 1830.88 Q1626.92 1830.3 1628.95 1830.3 Q1634.32 1830.3 1637.52 1832.98 Q1640.71 1835.67 1640.71 1840.16 Q1640.71 1842.29 1639.9 1844.21 Q1639.12 1846.11 1637.01 1848.7 Q1636.43 1849.37 1633.33 1852.59 Q1630.23 1855.78 1624.58 1861.55 Z" fill="#000000" fill-rule="evenodd" fill-opacity="1" /><path clip-path="url(#clip230)" d="M1816.49 1848.65 L1846.16 1848.65 L1846.16 1852.59 L1816.49 1852.59 L1816.49 1848.65 Z" fill="#000000" fill-rule="evenodd" fill-opacity="1" /><path clip-path="url(#clip230)" d="M1857.07 1861.55 L1864.71 1861.55 L1864.71 1835.18 L1856.39 1836.85 L1856.39 1832.59 L1864.66 1830.92 L1869.33 1830.92 L1869.33 1861.55 L1876.97 1861.55 L1876.97 1865.48 L1857.07 1865.48 L1857.07 1861.55 Z" fill="#000000" fill-rule="evenodd" fill-opacity="1" /><path clip-path="url(#clip230)" d="M2082.62 1834 Q2079.01 1834 2077.18 1837.57 Q2075.38 1841.11 2075.38 1848.24 Q2075.38 1855.34 2077.18 1858.91 Q2079.01 1862.45 2082.62 1862.45 Q2086.25 1862.45 2088.06 1858.91 Q2089.89 1855.34 2089.89 1848.24 Q2089.89 1841.11 2088.06 1837.57 Q2086.25 1834 2082.62 1834 M2082.62 1830.3 Q2088.43 1830.3 2091.49 1834.9 Q2094.56 1839.49 2094.56 1848.24 Q2094.56 1856.96 2091.49 1861.57 Q2088.43 1866.15 2082.62 1866.15 Q2076.81 1866.15 2073.73 1861.57 Q2070.68 1856.96 2070.68 1848.24 Q2070.68 1839.49 2073.73 1834.9 Q2076.81 1830.3 2082.62 1830.3 Z" fill="#000000" fill-rule="evenodd" fill-opacity="1" /><path clip-path="url(#clip230)" d="M2308.89 1861.55 L2316.53 1861.55 L2316.53 1835.18 L2308.22 1836.85 L2308.22 1832.59 L2316.48 1830.92 L2321.16 1830.92 L2321.16 1861.55 L2328.8 1861.55 L2328.8 1865.48 L2308.89 1865.48 L2308.89 1861.55 Z" fill="#000000" fill-rule="evenodd" fill-opacity="1" /><path clip-path="url(#clip230)" d="M2549.05 1861.55 L2565.37 1861.55 L2565.37 1865.48 L2543.43 1865.48 L2543.43 1861.55 Q2546.09 1858.79 2550.67 1854.16 Q2555.28 1849.51 2556.46 1848.17 Q2558.71 1845.65 2559.59 1843.91 Q2560.49 1842.15 2560.49 1840.46 Q2560.49 1837.71 2558.54 1835.97 Q2556.62 1834.23 2553.52 1834.23 Q2551.32 1834.23 2548.87 1835 Q2546.44 1835.76 2543.66 1837.31 L2543.66 1832.59 Q2546.48 1831.46 2548.94 1830.88 Q2551.39 1830.3 2553.43 1830.3 Q2558.8 1830.3 2561.99 1832.98 Q2565.19 1835.67 2565.19 1840.16 Q2565.19 1842.29 2564.38 1844.21 Q2563.59 1846.11 2561.48 1848.7 Q2560.9 1849.37 2557.8 1852.59 Q2554.7 1855.78 2549.05 1861.55 Z" fill="#000000" fill-rule="evenodd" fill-opacity="1" /><polyline clip-path="url(#clip233)" style="stroke:#000000; stroke-linecap:round; stroke-linejoin:round; stroke-width:2; stroke-opacity:0.1; fill:none" points="
  1494.36,1625.51 2640.76,1625.51 
  "/>
<polyline clip-path="url(#clip233)" style="stroke:#000000; stroke-linecap:round; stroke-linejoin:round; stroke-width:2; stroke-opacity:0.1; fill:none" points="
  1494.36,1272.86 2640.76,1272.86 
  "/>
<polyline clip-path="url(#clip233)" style="stroke:#000000; stroke-linecap:round; stroke-linejoin:round; stroke-width:2; stroke-opacity:0.1; fill:none" points="
  1494.36,920.201 2640.76,920.201 
  "/>
<polyline clip-path="url(#clip233)" style="stroke:#000000; stroke-linecap:round; stroke-linejoin:round; stroke-width:2; stroke-opacity:0.1; fill:none" points="
  1494.36,567.544 2640.76,567.544 
  "/>
<polyline clip-path="url(#clip233)" style="stroke:#000000; stroke-linecap:round; stroke-linejoin:round; stroke-width:2; stroke-opacity:0.1; fill:none" points="
  1494.36,214.887 2640.76,214.887 
  "/>
<polyline clip-path="url(#clip230)" style="stroke:#000000; stroke-linecap:round; stroke-linejoin:round; stroke-width:4; stroke-opacity:1; fill:none" points="
  1494.36,1800.78 1494.36,47.2441 
  "/>
<polyline clip-path="url(#clip230)" style="stroke:#000000; stroke-linecap:round; stroke-linejoin:round; stroke-width:4; stroke-opacity:1; fill:none" points="
  1494.36,1625.51 1513.26,1625.51 
  "/>
<polyline clip-path="url(#clip230)" style="stroke:#000000; stroke-linecap:round; stroke-linejoin:round; stroke-width:4; stroke-opacity:1; fill:none" points="
  1494.36,1272.86 1513.26,1272.86 
  "/>
<polyline clip-path="url(#clip230)" style="stroke:#000000; stroke-linecap:round; stroke-linejoin:round; stroke-width:4; stroke-opacity:1; fill:none" points="
  1494.36,920.201 1513.26,920.201 
  "/>
<polyline clip-path="url(#clip230)" style="stroke:#000000; stroke-linecap:round; stroke-linejoin:round; stroke-width:4; stroke-opacity:1; fill:none" points="
  1494.36,567.544 1513.26,567.544 
  "/>
<polyline clip-path="url(#clip230)" style="stroke:#000000; stroke-linecap:round; stroke-linejoin:round; stroke-width:4; stroke-opacity:1; fill:none" points="
  1494.36,214.887 1513.26,214.887 
  "/>
<path clip-path="url(#clip230)" d="M1393.92 1625.97 L1423.6 1625.97 L1423.6 1629.9 L1393.92 1629.9 L1393.92 1625.97 Z" fill="#000000" fill-rule="evenodd" fill-opacity="1" /><path clip-path="url(#clip230)" d="M1437.72 1638.86 L1454.04 1638.86 L1454.04 1642.79 L1432.09 1642.79 L1432.09 1638.86 Q1434.76 1636.1 1439.34 1631.47 Q1443.95 1626.82 1445.13 1625.48 Q1447.37 1622.96 1448.25 1621.22 Q1449.15 1619.46 1449.15 1617.77 Q1449.15 1615.02 1447.21 1613.28 Q1445.29 1611.54 1442.19 1611.54 Q1439.99 1611.54 1437.53 1612.31 Q1435.1 1613.07 1432.33 1614.62 L1432.33 1609.9 Q1435.15 1608.77 1437.6 1608.19 Q1440.06 1607.61 1442.09 1607.61 Q1447.46 1607.61 1450.66 1610.29 Q1453.85 1612.98 1453.85 1617.47 Q1453.85 1619.6 1453.04 1621.52 Q1452.26 1623.42 1450.15 1626.01 Q1449.57 1626.68 1446.47 1629.9 Q1443.37 1633.1 1437.72 1638.86 Z" fill="#000000" fill-rule="evenodd" fill-opacity="1" /><path clip-path="url(#clip230)" d="M1393.55 1273.31 L1423.23 1273.31 L1423.23 1277.24 L1393.55 1277.24 L1393.55 1273.31 Z" fill="#000000" fill-rule="evenodd" fill-opacity="1" /><path clip-path="url(#clip230)" d="M1434.13 1286.2 L1441.77 1286.2 L1441.77 1259.84 L1433.46 1261.5 L1433.46 1257.24 L1441.72 1255.58 L1446.4 1255.58 L1446.4 1286.2 L1454.04 1286.2 L1454.04 1290.14 L1434.13 1290.14 L1434.13 1286.2 Z" fill="#000000" fill-rule="evenodd" fill-opacity="1" /><path clip-path="url(#clip230)" d="M1442.09 905.999 Q1438.48 905.999 1436.65 909.564 Q1434.85 913.106 1434.85 920.235 Q1434.85 927.342 1436.65 930.907 Q1438.48 934.448 1442.09 934.448 Q1445.73 934.448 1447.53 930.907 Q1449.36 927.342 1449.36 920.235 Q1449.36 913.106 1447.53 909.564 Q1445.73 905.999 1442.09 905.999 M1442.09 902.296 Q1447.9 902.296 1450.96 906.902 Q1454.04 911.485 1454.04 920.235 Q1454.04 928.962 1450.96 933.569 Q1447.9 938.152 1442.09 938.152 Q1436.28 938.152 1433.2 933.569 Q1430.15 928.962 1430.15 920.235 Q1430.15 911.485 1433.2 906.902 Q1436.28 902.296 1442.09 902.296 Z" fill="#000000" fill-rule="evenodd" fill-opacity="1" /><path clip-path="url(#clip230)" d="M1434.13 580.889 L1441.77 580.889 L1441.77 554.523 L1433.46 556.19 L1433.46 551.931 L1441.72 550.264 L1446.4 550.264 L1446.4 580.889 L1454.04 580.889 L1454.04 584.824 L1434.13 584.824 L1434.13 580.889 Z" fill="#000000" fill-rule="evenodd" fill-opacity="1" /><path clip-path="url(#clip230)" d="M1437.72 228.232 L1454.04 228.232 L1454.04 232.167 L1432.09 232.167 L1432.09 228.232 Q1434.76 225.477 1439.34 220.848 Q1443.95 216.195 1445.13 214.852 Q1447.37 212.329 1448.25 210.593 Q1449.15 208.834 1449.15 207.144 Q1449.15 204.39 1447.21 202.653 Q1445.29 200.917 1442.19 200.917 Q1439.99 200.917 1437.53 201.681 Q1435.1 202.445 1432.33 203.996 L1432.33 199.274 Q1435.15 198.14 1437.6 197.561 Q1440.06 196.982 1442.09 196.982 Q1447.46 196.982 1450.66 199.667 Q1453.85 202.352 1453.85 206.843 Q1453.85 208.973 1453.04 210.894 Q1452.26 212.792 1450.15 215.385 Q1449.57 216.056 1446.47 219.274 Q1443.37 222.468 1437.72 228.232 Z" fill="#000000" fill-rule="evenodd" fill-opacity="1" /><polyline clip-path="url(#clip233)" style="stroke:#6b9e32; stroke-linecap:round; stroke-linejoin:round; stroke-width:4; stroke-opacity:1; fill:none" points="
  1526.8,1751.15 2608.31,134.29 
  "/>
<circle clip-path="url(#clip233)" cx="1526.8" cy="1644.59" r="14.4" fill="#009af9" fill-rule="evenodd" fill-opacity="1" stroke="#000000" stroke-opacity="1" stroke-width="3.84"/>
<circle clip-path="url(#clip233)" cx="1567.29" cy="1537.29" r="14.4" fill="#009af9" fill-rule="evenodd" fill-opacity="1" stroke="#000000" stroke-opacity="1" stroke-width="3.84"/>
<circle clip-path="url(#clip233)" cx="1603.82" cy="1459.31" r="14.4" fill="#009af9" fill-rule="evenodd" fill-opacity="1" stroke="#000000" stroke-opacity="1" stroke-width="3.84"/>
<circle clip-path="url(#clip233)" cx="1723.54" cy="1402.96" r="14.4" fill="#009af9" fill-rule="evenodd" fill-opacity="1" stroke="#000000" stroke-opacity="1" stroke-width="3.84"/>
<circle clip-path="url(#clip233)" cx="1799.9" cy="1339.48" r="14.4" fill="#009af9" fill-rule="evenodd" fill-opacity="1" stroke="#000000" stroke-opacity="1" stroke-width="3.84"/>
<circle clip-path="url(#clip233)" cx="1821.39" cy="1328.95" r="14.4" fill="#009af9" fill-rule="evenodd" fill-opacity="1" stroke="#000000" stroke-opacity="1" stroke-width="3.84"/>
<circle clip-path="url(#clip233)" cx="1850.78" cy="1319.69" r="14.4" fill="#009af9" fill-rule="evenodd" fill-opacity="1" stroke="#000000" stroke-opacity="1" stroke-width="3.84"/>
<circle clip-path="url(#clip233)" cx="1855.7" cy="1311.07" r="14.4" fill="#009af9" fill-rule="evenodd" fill-opacity="1" stroke="#000000" stroke-opacity="1" stroke-width="3.84"/>
<circle clip-path="url(#clip233)" cx="1878" cy="1304.28" r="14.4" fill="#009af9" fill-rule="evenodd" fill-opacity="1" stroke="#000000" stroke-opacity="1" stroke-width="3.84"/>
<circle clip-path="url(#clip233)" cx="1887.97" cy="1275.61" r="14.4" fill="#009af9" fill-rule="evenodd" fill-opacity="1" stroke="#000000" stroke-opacity="1" stroke-width="3.84"/>
<circle clip-path="url(#clip233)" cx="1892.45" cy="1261.14" r="14.4" fill="#009af9" fill-rule="evenodd" fill-opacity="1" stroke="#000000" stroke-opacity="1" stroke-width="3.84"/>
<circle clip-path="url(#clip233)" cx="1940.2" cy="1252.14" r="14.4" fill="#009af9" fill-rule="evenodd" fill-opacity="1" stroke="#000000" stroke-opacity="1" stroke-width="3.84"/>
<circle clip-path="url(#clip233)" cx="1945.81" cy="1252.03" r="14.4" fill="#009af9" fill-rule="evenodd" fill-opacity="1" stroke="#000000" stroke-opacity="1" stroke-width="3.84"/>
<circle clip-path="url(#clip233)" cx="1958.72" cy="1215.49" r="14.4" fill="#009af9" fill-rule="evenodd" fill-opacity="1" stroke="#000000" stroke-opacity="1" stroke-width="3.84"/>
<circle clip-path="url(#clip233)" cx="1959.41" cy="1178.94" r="14.4" fill="#009af9" fill-rule="evenodd" fill-opacity="1" stroke="#000000" stroke-opacity="1" stroke-width="3.84"/>
<circle clip-path="url(#clip233)" cx="1961.89" cy="1125.02" r="14.4" fill="#009af9" fill-rule="evenodd" fill-opacity="1" stroke="#000000" stroke-opacity="1" stroke-width="3.84"/>
<circle clip-path="url(#clip233)" cx="1981.31" cy="1097.35" r="14.4" fill="#009af9" fill-rule="evenodd" fill-opacity="1" stroke="#000000" stroke-opacity="1" stroke-width="3.84"/>
<circle clip-path="url(#clip233)" cx="1993.2" cy="1081.85" r="14.4" fill="#009af9" fill-rule="evenodd" fill-opacity="1" stroke="#000000" stroke-opacity="1" stroke-width="3.84"/>
<circle clip-path="url(#clip233)" cx="2002.25" cy="1067.67" r="14.4" fill="#009af9" fill-rule="evenodd" fill-opacity="1" stroke="#000000" stroke-opacity="1" stroke-width="3.84"/>
<circle clip-path="url(#clip233)" cx="2037.65" cy="1045.92" r="14.4" fill="#009af9" fill-rule="evenodd" fill-opacity="1" stroke="#000000" stroke-opacity="1" stroke-width="3.84"/>
<circle clip-path="url(#clip233)" cx="2049.42" cy="994.303" r="14.4" fill="#009af9" fill-rule="evenodd" fill-opacity="1" stroke="#000000" stroke-opacity="1" stroke-width="3.84"/>
<circle clip-path="url(#clip233)" cx="2056.66" cy="977.607" r="14.4" fill="#009af9" fill-rule="evenodd" fill-opacity="1" stroke="#000000" stroke-opacity="1" stroke-width="3.84"/>
<circle clip-path="url(#clip233)" cx="2056.86" cy="975.734" r="14.4" fill="#009af9" fill-rule="evenodd" fill-opacity="1" stroke="#000000" stroke-opacity="1" stroke-width="3.84"/>
<circle clip-path="url(#clip233)" cx="2065.39" cy="944.159" r="14.4" fill="#009af9" fill-rule="evenodd" fill-opacity="1" stroke="#000000" stroke-opacity="1" stroke-width="3.84"/>
<circle clip-path="url(#clip233)" cx="2067.87" cy="943.783" r="14.4" fill="#009af9" fill-rule="evenodd" fill-opacity="1" stroke="#000000" stroke-opacity="1" stroke-width="3.84"/>
<circle clip-path="url(#clip233)" cx="2089.68" cy="932.102" r="14.4" fill="#009af9" fill-rule="evenodd" fill-opacity="1" stroke="#000000" stroke-opacity="1" stroke-width="3.84"/>
<circle clip-path="url(#clip233)" cx="2093.21" cy="855.83" r="14.4" fill="#009af9" fill-rule="evenodd" fill-opacity="1" stroke="#000000" stroke-opacity="1" stroke-width="3.84"/>
<circle clip-path="url(#clip233)" cx="2115.55" cy="851.076" r="14.4" fill="#009af9" fill-rule="evenodd" fill-opacity="1" stroke="#000000" stroke-opacity="1" stroke-width="3.84"/>
<circle clip-path="url(#clip233)" cx="2120.08" cy="803.84" r="14.4" fill="#009af9" fill-rule="evenodd" fill-opacity="1" stroke="#000000" stroke-opacity="1" stroke-width="3.84"/>
<circle clip-path="url(#clip233)" cx="2122.69" cy="789.307" r="14.4" fill="#009af9" fill-rule="evenodd" fill-opacity="1" stroke="#000000" stroke-opacity="1" stroke-width="3.84"/>
<circle clip-path="url(#clip233)" cx="2125.88" cy="783.282" r="14.4" fill="#009af9" fill-rule="evenodd" fill-opacity="1" stroke="#000000" stroke-opacity="1" stroke-width="3.84"/>
<circle clip-path="url(#clip233)" cx="2139.41" cy="780.853" r="14.4" fill="#009af9" fill-rule="evenodd" fill-opacity="1" stroke="#000000" stroke-opacity="1" stroke-width="3.84"/>
<circle clip-path="url(#clip233)" cx="2140.94" cy="778.575" r="14.4" fill="#009af9" fill-rule="evenodd" fill-opacity="1" stroke="#000000" stroke-opacity="1" stroke-width="3.84"/>
<circle clip-path="url(#clip233)" cx="2146.26" cy="773.514" r="14.4" fill="#009af9" fill-rule="evenodd" fill-opacity="1" stroke="#000000" stroke-opacity="1" stroke-width="3.84"/>
<circle clip-path="url(#clip233)" cx="2177.08" cy="737.554" r="14.4" fill="#009af9" fill-rule="evenodd" fill-opacity="1" stroke="#000000" stroke-opacity="1" stroke-width="3.84"/>
<circle clip-path="url(#clip233)" cx="2190.59" cy="734.551" r="14.4" fill="#009af9" fill-rule="evenodd" fill-opacity="1" stroke="#000000" stroke-opacity="1" stroke-width="3.84"/>
<circle clip-path="url(#clip233)" cx="2264.79" cy="715.974" r="14.4" fill="#009af9" fill-rule="evenodd" fill-opacity="1" stroke="#000000" stroke-opacity="1" stroke-width="3.84"/>
<circle clip-path="url(#clip233)" cx="2266.54" cy="701.82" r="14.4" fill="#009af9" fill-rule="evenodd" fill-opacity="1" stroke="#000000" stroke-opacity="1" stroke-width="3.84"/>
<circle clip-path="url(#clip233)" cx="2284.3" cy="600.165" r="14.4" fill="#009af9" fill-rule="evenodd" fill-opacity="1" stroke="#000000" stroke-opacity="1" stroke-width="3.84"/>
<circle clip-path="url(#clip233)" cx="2293.44" cy="581.931" r="14.4" fill="#009af9" fill-rule="evenodd" fill-opacity="1" stroke="#000000" stroke-opacity="1" stroke-width="3.84"/>
<circle clip-path="url(#clip233)" cx="2325.32" cy="574.9" r="14.4" fill="#009af9" fill-rule="evenodd" fill-opacity="1" stroke="#000000" stroke-opacity="1" stroke-width="3.84"/>
<circle clip-path="url(#clip233)" cx="2339.65" cy="512.351" r="14.4" fill="#009af9" fill-rule="evenodd" fill-opacity="1" stroke="#000000" stroke-opacity="1" stroke-width="3.84"/>
<circle clip-path="url(#clip233)" cx="2348.99" cy="487.322" r="14.4" fill="#009af9" fill-rule="evenodd" fill-opacity="1" stroke="#000000" stroke-opacity="1" stroke-width="3.84"/>
<circle clip-path="url(#clip233)" cx="2351.42" cy="481.502" r="14.4" fill="#009af9" fill-rule="evenodd" fill-opacity="1" stroke="#000000" stroke-opacity="1" stroke-width="3.84"/>
<circle clip-path="url(#clip233)" cx="2381.8" cy="460.893" r="14.4" fill="#009af9" fill-rule="evenodd" fill-opacity="1" stroke="#000000" stroke-opacity="1" stroke-width="3.84"/>
<circle clip-path="url(#clip233)" cx="2386.47" cy="451.479" r="14.4" fill="#009af9" fill-rule="evenodd" fill-opacity="1" stroke="#000000" stroke-opacity="1" stroke-width="3.84"/>
<circle clip-path="url(#clip233)" cx="2414.84" cy="429.142" r="14.4" fill="#009af9" fill-rule="evenodd" fill-opacity="1" stroke="#000000" stroke-opacity="1" stroke-width="3.84"/>
<circle clip-path="url(#clip233)" cx="2455.9" cy="405.834" r="14.4" fill="#009af9" fill-rule="evenodd" fill-opacity="1" stroke="#000000" stroke-opacity="1" stroke-width="3.84"/>
<circle clip-path="url(#clip233)" cx="2463.6" cy="352.976" r="14.4" fill="#009af9" fill-rule="evenodd" fill-opacity="1" stroke="#000000" stroke-opacity="1" stroke-width="3.84"/>
<circle clip-path="url(#clip233)" cx="2608.31" cy="96.8724" r="14.4" fill="#009af9" fill-rule="evenodd" fill-opacity="1" stroke="#000000" stroke-opacity="1" stroke-width="3.84"/>
</svg>
