<?xml version="1.0" encoding="utf-8"?>
<svg xmlns="http://www.w3.org/2000/svg" xmlns:xlink="http://www.w3.org/1999/xlink" width="576" height="384" viewBox="0 0 2304 1536">
<defs>
  <clipPath id="clip200">
    <rect x="0" y="0" width="2304" height="1536"/>
  </clipPath>
</defs>
<path clip-path="url(#clip200)" d="
M0 1536 L2304 1536 L2304 0 L0 0  Z
  " fill="#ffffff" fill-rule="evenodd" fill-opacity="1"/>
<defs>
  <clipPath id="clip201">
    <rect x="460" y="0" width="1614" height="1536"/>
  </clipPath>
</defs>
<path clip-path="url(#clip200)" d="
M111.217 1423.09 L1104.76 1423.09 L1104.76 123.472 L111.217 123.472  Z
  " fill="#ffffff" fill-rule="evenodd" fill-opacity="1"/>
<defs>
  <clipPath id="clip202">
    <rect x="111" y="123" width="995" height="1301"/>
  </clipPath>
</defs>
<polyline clip-path="url(#clip202)" style="stroke:#000000; stroke-linecap:round; stroke-linejoin:round; stroke-width:2; stroke-opacity:0.1; fill:none" points="
  139.336,1423.09 139.336,123.472 
  "/>
<polyline clip-path="url(#clip202)" style="stroke:#000000; stroke-linecap:round; stroke-linejoin:round; stroke-width:2; stroke-opacity:0.1; fill:none" points="
  373.661,1423.09 373.661,123.472 
  "/>
<polyline clip-path="url(#clip202)" style="stroke:#000000; stroke-linecap:round; stroke-linejoin:round; stroke-width:2; stroke-opacity:0.1; fill:none" points="
  607.987,1423.09 607.987,123.472 
  "/>
<polyline clip-path="url(#clip202)" style="stroke:#000000; stroke-linecap:round; stroke-linejoin:round; stroke-width:2; stroke-opacity:0.1; fill:none" points="
  842.312,1423.09 842.312,123.472 
  "/>
<polyline clip-path="url(#clip202)" style="stroke:#000000; stroke-linecap:round; stroke-linejoin:round; stroke-width:2; stroke-opacity:0.1; fill:none" points="
  1076.64,1423.09 1076.64,123.472 
  "/>
<polyline clip-path="url(#clip200)" style="stroke:#000000; stroke-linecap:round; stroke-linejoin:round; stroke-width:4; stroke-opacity:1; fill:none" points="
  111.217,1423.09 1104.76,1423.09 
  "/>
<polyline clip-path="url(#clip200)" style="stroke:#000000; stroke-linecap:round; stroke-linejoin:round; stroke-width:4; stroke-opacity:1; fill:none" points="
  139.336,1423.09 139.336,1404.19 
  "/>
<polyline clip-path="url(#clip200)" style="stroke:#000000; stroke-linecap:round; stroke-linejoin:round; stroke-width:4; stroke-opacity:1; fill:none" points="
  373.661,1423.09 373.661,1404.19 
  "/>
<polyline clip-path="url(#clip200)" style="stroke:#000000; stroke-linecap:round; stroke-linejoin:round; stroke-width:4; stroke-opacity:1; fill:none" points="
  607.987,1423.09 607.987,1404.19 
  "/>
<polyline clip-path="url(#clip200)" style="stroke:#000000; stroke-linecap:round; stroke-linejoin:round; stroke-width:4; stroke-opacity:1; fill:none" points="
  842.312,1423.09 842.312,1404.19 
  "/>
<polyline clip-path="url(#clip200)" style="stroke:#000000; stroke-linecap:round; stroke-linejoin:round; stroke-width:4; stroke-opacity:1; fill:none" points="
  1076.64,1423.09 1076.64,1404.19 
  "/>
<path clip-path="url(#clip200)" d="M129.718 1480.78 L137.357 1480.78 L137.357 1454.42 L129.047 1456.09 L129.047 1451.83 L137.311 1450.16 L141.987 1450.16 L141.987 1480.78 L149.625 1480.78 L149.625 1484.72 L129.718 1484.72 L129.718 1480.78 Z" fill="#000000" fill-rule="evenodd" fill-opacity="1" /><path clip-path="url(#clip200)" d="M368.314 1480.78 L384.634 1480.78 L384.634 1484.72 L362.689 1484.72 L362.689 1480.78 Q365.351 1478.03 369.935 1473.4 Q374.541 1468.75 375.722 1467.41 Q377.967 1464.88 378.847 1463.15 Q379.749 1461.39 379.749 1459.7 Q379.749 1456.94 377.805 1455.21 Q375.884 1453.47 372.782 1453.47 Q370.583 1453.47 368.129 1454.23 Q365.698 1455 362.921 1456.55 L362.921 1451.83 Q365.745 1450.69 368.198 1450.11 Q370.652 1449.53 372.689 1449.53 Q378.059 1449.53 381.254 1452.22 Q384.448 1454.91 384.448 1459.4 Q384.448 1461.53 383.638 1463.45 Q382.851 1465.34 380.745 1467.94 Q380.166 1468.61 377.064 1471.83 Q373.962 1475.02 368.314 1480.78 Z" fill="#000000" fill-rule="evenodd" fill-opacity="1" /><path clip-path="url(#clip200)" d="M612.234 1466.09 Q615.591 1466.8 617.466 1469.07 Q619.364 1471.34 619.364 1474.67 Q619.364 1479.79 615.845 1482.59 Q612.327 1485.39 605.845 1485.39 Q603.669 1485.39 601.355 1484.95 Q599.063 1484.53 596.609 1483.68 L596.609 1479.16 Q598.554 1480.3 600.869 1480.88 Q603.183 1481.46 605.706 1481.46 Q610.105 1481.46 612.396 1479.72 Q614.711 1477.98 614.711 1474.67 Q614.711 1471.62 612.558 1469.91 Q610.429 1468.17 606.609 1468.17 L602.581 1468.17 L602.581 1464.33 L606.794 1464.33 Q610.243 1464.33 612.072 1462.96 Q613.901 1461.57 613.901 1458.98 Q613.901 1456.32 612.003 1454.91 Q610.128 1453.47 606.609 1453.47 Q604.688 1453.47 602.489 1453.89 Q600.29 1454.3 597.651 1455.18 L597.651 1451.02 Q600.313 1450.28 602.628 1449.91 Q604.966 1449.53 607.026 1449.53 Q612.35 1449.53 615.452 1451.97 Q618.554 1454.37 618.554 1458.49 Q618.554 1461.36 616.91 1463.35 Q615.267 1465.32 612.234 1466.09 Z" fill="#000000" fill-rule="evenodd" fill-opacity="1" /><path clip-path="url(#clip200)" d="M845.321 1454.23 L833.515 1472.68 L845.321 1472.68 L845.321 1454.23 M844.094 1450.16 L849.974 1450.16 L849.974 1472.68 L854.904 1472.68 L854.904 1476.57 L849.974 1476.57 L849.974 1484.72 L845.321 1484.72 L845.321 1476.57 L829.719 1476.57 L829.719 1472.06 L844.094 1450.16 Z" fill="#000000" fill-rule="evenodd" fill-opacity="1" /><path clip-path="url(#clip200)" d="M1066.91 1450.16 L1085.27 1450.16 L1085.27 1454.1 L1071.2 1454.1 L1071.2 1462.57 Q1072.22 1462.22 1073.23 1462.06 Q1074.25 1461.87 1075.27 1461.87 Q1081.06 1461.87 1084.44 1465.04 Q1087.82 1468.22 1087.82 1473.63 Q1087.82 1479.21 1084.35 1482.31 Q1080.87 1485.39 1074.55 1485.39 Q1072.38 1485.39 1070.11 1485.02 Q1067.86 1484.65 1065.46 1483.91 L1065.46 1479.21 Q1067.54 1480.34 1069.76 1480.9 Q1071.98 1481.46 1074.46 1481.46 Q1078.47 1481.46 1080.8 1479.35 Q1083.14 1477.24 1083.14 1473.63 Q1083.14 1470.02 1080.8 1467.91 Q1078.47 1465.81 1074.46 1465.81 Q1072.59 1465.81 1070.71 1466.22 Q1068.86 1466.64 1066.91 1467.52 L1066.91 1450.16 Z" fill="#000000" fill-rule="evenodd" fill-opacity="1" /><polyline clip-path="url(#clip202)" style="stroke:#000000; stroke-linecap:round; stroke-linejoin:round; stroke-width:2; stroke-opacity:0.1; fill:none" points="
  111.217,1386.31 1104.76,1386.31 
  "/>
<polyline clip-path="url(#clip202)" style="stroke:#000000; stroke-linecap:round; stroke-linejoin:round; stroke-width:2; stroke-opacity:0.1; fill:none" points="
  111.217,1079.79 1104.76,1079.79 
  "/>
<polyline clip-path="url(#clip202)" style="stroke:#000000; stroke-linecap:round; stroke-linejoin:round; stroke-width:2; stroke-opacity:0.1; fill:none" points="
  111.217,773.28 1104.76,773.28 
  "/>
<polyline clip-path="url(#clip202)" style="stroke:#000000; stroke-linecap:round; stroke-linejoin:round; stroke-width:2; stroke-opacity:0.1; fill:none" points="
  111.217,466.767 1104.76,466.767 
  "/>
<polyline clip-path="url(#clip202)" style="stroke:#000000; stroke-linecap:round; stroke-linejoin:round; stroke-width:2; stroke-opacity:0.1; fill:none" points="
  111.217,160.254 1104.76,160.254 
  "/>
<polyline clip-path="url(#clip200)" style="stroke:#000000; stroke-linecap:round; stroke-linejoin:round; stroke-width:4; stroke-opacity:1; fill:none" points="
  111.217,1423.09 111.217,123.472 
  "/>
<polyline clip-path="url(#clip200)" style="stroke:#000000; stroke-linecap:round; stroke-linejoin:round; stroke-width:4; stroke-opacity:1; fill:none" points="
  111.217,1386.31 130.115,1386.31 
  "/>
<polyline clip-path="url(#clip200)" style="stroke:#000000; stroke-linecap:round; stroke-linejoin:round; stroke-width:4; stroke-opacity:1; fill:none" points="
  111.217,1079.79 130.115,1079.79 
  "/>
<polyline clip-path="url(#clip200)" style="stroke:#000000; stroke-linecap:round; stroke-linejoin:round; stroke-width:4; stroke-opacity:1; fill:none" points="
  111.217,773.28 130.115,773.28 
  "/>
<polyline clip-path="url(#clip200)" style="stroke:#000000; stroke-linecap:round; stroke-linejoin:round; stroke-width:4; stroke-opacity:1; fill:none" points="
  111.217,466.767 130.115,466.767 
  "/>
<polyline clip-path="url(#clip200)" style="stroke:#000000; stroke-linecap:round; stroke-linejoin:round; stroke-width:4; stroke-opacity:1; fill:none" points="
  111.217,160.254 130.115,160.254 
  "/>
<path clip-path="url(#clip200)" d="M56.7499 1399.65 L64.3887 1399.65 L64.3887 1373.29 L56.0786 1374.95 L56.0786 1370.69 L64.3424 1369.03 L69.0183 1369.03 L69.0183 1399.65 L76.6572 1399.65 L76.6572 1403.59 L56.7499 1403.59 L56.7499 1399.65 Z" fill="#000000" fill-rule="evenodd" fill-opacity="1" /><path clip-path="url(#clip200)" d="M60.3378 1093.14 L76.6572 1093.14 L76.6572 1097.07 L54.7128 1097.07 L54.7128 1093.14 Q57.3749 1090.38 61.9582 1085.75 Q66.5646 1081.1 67.7452 1079.76 Q69.9905 1077.24 70.8702 1075.5 Q71.7729 1073.74 71.7729 1072.05 Q71.7729 1069.3 69.8285 1067.56 Q67.9072 1065.82 64.8054 1065.82 Q62.6063 1065.82 60.1526 1066.59 Q57.7221 1067.35 54.9443 1068.9 L54.9443 1064.18 Q57.7684 1063.05 60.2221 1062.47 Q62.6758 1061.89 64.7128 1061.89 Q70.0831 1061.89 73.2776 1064.57 Q76.472 1067.26 76.472 1071.75 Q76.472 1073.88 75.6618 1075.8 Q74.8748 1077.7 72.7683 1080.29 Q72.1896 1080.96 69.0878 1084.18 Q65.9859 1087.37 60.3378 1093.14 Z" fill="#000000" fill-rule="evenodd" fill-opacity="1" /><path clip-path="url(#clip200)" d="M69.5276 771.926 Q72.884 772.643 74.759 774.912 Q76.6572 777.18 76.6572 780.514 Q76.6572 785.629 73.1387 788.43 Q69.6202 791.231 63.1387 791.231 Q60.9628 791.231 58.648 790.791 Q56.3564 790.375 53.9027 789.518 L53.9027 785.004 Q55.8471 786.139 58.1619 786.717 Q60.4767 787.296 62.9998 787.296 Q67.398 787.296 69.6896 785.56 Q72.0044 783.824 72.0044 780.514 Q72.0044 777.458 69.8517 775.745 Q67.722 774.009 63.9026 774.009 L59.8749 774.009 L59.8749 770.167 L64.0878 770.167 Q67.5369 770.167 69.3655 768.801 Q71.1942 767.412 71.1942 764.819 Q71.1942 762.157 69.2961 760.745 Q67.4211 759.31 63.9026 759.31 Q61.9813 759.31 59.7823 759.727 Q57.5832 760.143 54.9443 761.023 L54.9443 756.856 Q57.6064 756.116 59.9212 755.745 Q62.2591 755.375 64.3193 755.375 Q69.6433 755.375 72.7452 757.806 Q75.847 760.213 75.847 764.333 Q75.847 767.204 74.2035 769.194 Q72.56 771.162 69.5276 771.926 Z" fill="#000000" fill-rule="evenodd" fill-opacity="1" /><path clip-path="url(#clip200)" d="M67.0739 453.561 L55.2684 472.01 L67.0739 472.01 L67.0739 453.561 M65.847 449.487 L71.7266 449.487 L71.7266 472.01 L76.6572 472.01 L76.6572 475.899 L71.7266 475.899 L71.7266 484.047 L67.0739 484.047 L67.0739 475.899 L51.4721 475.899 L51.4721 471.385 L65.847 449.487 Z" fill="#000000" fill-rule="evenodd" fill-opacity="1" /><path clip-path="url(#clip200)" d="M55.7545 142.974 L74.1109 142.974 L74.1109 146.909 L60.0369 146.909 L60.0369 155.381 Q61.0554 155.034 62.0739 154.872 Q63.0924 154.687 64.1109 154.687 Q69.898 154.687 73.2776 157.858 Q76.6572 161.029 76.6572 166.446 Q76.6572 172.024 73.185 175.126 Q69.7128 178.205 63.3934 178.205 Q61.2174 178.205 58.9489 177.835 Q56.7036 177.464 54.2962 176.724 L54.2962 172.024 Q56.3795 173.159 58.6017 173.714 Q60.8239 174.27 63.3008 174.27 Q67.3054 174.27 69.6433 172.163 Q71.9813 170.057 71.9813 166.446 Q71.9813 162.835 69.6433 160.728 Q67.3054 158.622 63.3008 158.622 Q61.4258 158.622 59.5508 159.038 Q57.6989 159.455 55.7545 160.335 L55.7545 142.974 Z" fill="#000000" fill-rule="evenodd" fill-opacity="1" /><path clip-path="url(#clip200)" d="M380.265 28.5427 L380.265 35.5912 Q377.105 33.9709 373.702 33.1607 Q370.3 32.3505 366.654 32.3505 Q361.104 32.3505 358.309 34.0519 Q355.554 35.7533 355.554 39.156 Q355.554 41.7486 357.539 43.2475 Q359.524 44.7058 365.52 46.0426 L368.072 46.6097 Q376.012 48.3111 379.333 51.4303 Q382.696 54.509 382.696 60.0587 Q382.696 66.3781 377.672 70.0644 Q372.69 73.7508 363.94 73.7508 Q360.294 73.7508 356.324 73.0216 Q352.395 72.3329 348.02 70.9151 L348.02 63.2184 Q352.152 65.3654 356.162 66.4591 Q360.172 67.5124 364.102 67.5124 Q369.368 67.5124 372.204 65.73 Q375.039 63.9071 375.039 60.6258 Q375.039 57.5877 372.973 55.9673 Q370.948 54.3469 364.021 52.8481 L361.428 52.2405 Q354.501 50.7821 351.423 47.7845 Q348.344 44.7463 348.344 39.4801 Q348.344 33.0797 352.881 29.5959 Q357.418 26.1121 365.763 26.1121 Q369.895 26.1121 373.54 26.7198 Q377.186 27.3274 380.265 28.5427 Z" fill="#000000" fill-rule="evenodd" fill-opacity="1" /><path clip-path="url(#clip200)" d="M393.795 54.671 L393.795 27.2059 L401.249 27.2059 L401.249 54.3874 Q401.249 60.8284 403.76 64.0691 Q406.272 67.2693 411.295 67.2693 Q417.331 67.2693 420.815 63.421 Q424.339 59.5726 424.339 52.9291 L424.339 27.2059 L431.792 27.2059 L431.792 72.576 L424.339 72.576 L424.339 65.6084 Q421.625 69.7404 418.019 71.7658 Q414.455 73.7508 409.715 73.7508 Q401.897 73.7508 397.846 68.8897 Q393.795 64.0286 393.795 54.671 M412.551 26.1121 L412.551 26.1121 Z" fill="#000000" fill-rule="evenodd" fill-opacity="1" /><path clip-path="url(#clip200)" d="M482.469 35.9153 Q485.264 30.8922 489.153 28.5022 Q493.042 26.1121 498.308 26.1121 Q505.397 26.1121 509.246 31.0947 Q513.094 36.0368 513.094 45.1919 L513.094 72.576 L505.6 72.576 L505.6 45.4349 Q505.6 38.913 503.291 35.7533 Q500.982 32.5936 496.242 32.5936 Q490.45 32.5936 487.087 36.4419 Q483.725 40.2903 483.725 46.9338 L483.725 72.576 L476.231 72.576 L476.231 45.4349 Q476.231 38.8725 473.922 35.7533 Q471.613 32.5936 466.792 32.5936 Q461.08 32.5936 457.718 36.4824 Q454.356 40.3308 454.356 46.9338 L454.356 72.576 L446.862 72.576 L446.862 27.2059 L454.356 27.2059 L454.356 34.2544 Q456.908 30.082 460.473 28.0971 Q464.038 26.1121 468.939 26.1121 Q473.881 26.1121 477.325 28.6237 Q480.808 31.1352 482.469 35.9153 Z" fill="#000000" fill-rule="evenodd" fill-opacity="1" /><path clip-path="url(#clip200)" d="M593.14 48.0275 L593.14 51.6733 L558.869 51.6733 Q559.355 59.3701 563.487 63.421 Q567.66 67.4314 575.073 67.4314 Q579.367 67.4314 583.377 66.3781 Q587.428 65.3249 591.398 63.2184 L591.398 70.267 Q587.388 71.9684 583.175 72.8596 Q578.962 73.7508 574.627 73.7508 Q563.771 73.7508 557.411 67.4314 Q551.092 61.1119 551.092 50.3365 Q551.092 39.1965 557.087 32.6746 Q563.123 26.1121 573.331 26.1121 Q582.486 26.1121 587.793 32.0264 Q593.14 37.9003 593.14 48.0275 M585.686 45.84 Q585.605 39.7232 582.243 36.0774 Q578.921 32.4315 573.412 32.4315 Q567.174 32.4315 563.406 35.9558 Q559.68 39.4801 559.112 45.8805 L585.686 45.84 Z" fill="#000000" fill-rule="evenodd" fill-opacity="1" /><path clip-path="url(#clip200)" d="M602.498 47.1768 L607.197 47.1768 L607.197 72.576 L602.498 72.576 L602.498 47.1768 M602.498 37.2926 L607.197 37.2926 L607.197 42.5588 L602.498 42.5588 L602.498 37.2926 Z" fill="#000000" fill-rule="evenodd" fill-opacity="1" /><path clip-path="url(#clip200)" d="M623.238 40.8979 L640.414 40.8979 L640.414 45.516 L616.19 45.516 L616.19 41.06 Q617.567 39.8042 620.119 37.5357 Q634.054 25.1804 634.054 21.3726 Q634.054 18.699 631.948 17.0786 Q629.841 15.4177 626.398 15.4177 Q624.291 15.4177 621.82 16.1469 Q619.349 16.8356 616.433 18.2534 L616.433 13.2708 Q619.552 12.1365 622.225 11.5694 Q624.94 11.0023 627.249 11.0023 Q633.122 11.0023 636.647 13.6759 Q640.171 16.3494 640.171 20.7244 Q640.171 26.3552 626.762 37.8598 Q624.494 39.8042 623.238 40.8979 Z" fill="#000000" fill-rule="evenodd" fill-opacity="1" /><path clip-path="url(#clip200)" d="M680.802 34.9026 L732.734 34.9026 L732.734 41.7081 L680.802 41.7081 L680.802 34.9026 M680.802 51.4303 L732.734 51.4303 L732.734 58.3168 L680.802 58.3168 L680.802 51.4303 Z" fill="#000000" fill-rule="evenodd" fill-opacity="1" /><path clip-path="url(#clip200)" d="M778.185 65.6895 L791.553 65.6895 L791.553 19.5497 L777.011 22.4663 L777.011 15.0127 L791.472 12.096 L799.655 12.096 L799.655 65.6895 L813.023 65.6895 L813.023 72.576 L778.185 72.576 L778.185 65.6895 Z" fill="#000000" fill-rule="evenodd" fill-opacity="1" /><path clip-path="url(#clip200)" d="M847.051 17.4837 Q840.731 17.4837 837.531 23.7221 Q834.371 29.92 834.371 42.3968 Q834.371 54.833 837.531 61.0714 Q840.731 67.2693 847.051 67.2693 Q853.411 67.2693 856.57 61.0714 Q859.77 54.833 859.77 42.3968 Q859.77 29.92 856.57 23.7221 Q853.411 17.4837 847.051 17.4837 M847.051 11.0023 Q857.218 11.0023 862.566 19.0636 Q867.953 27.0843 867.953 42.3968 Q867.953 57.6687 862.566 65.73 Q857.218 73.7508 847.051 73.7508 Q836.883 73.7508 831.495 65.73 Q826.148 57.6687 826.148 42.3968 Q826.148 27.0843 831.495 19.0636 Q836.883 11.0023 847.051 11.0023 Z" fill="#000000" fill-rule="evenodd" fill-opacity="1" /><circle clip-path="url(#clip202)" cx="139.336" cy="1079.79" r="14.4" fill="#009af9" fill-rule="evenodd" fill-opacity="1" stroke="#000000" stroke-opacity="1" stroke-width="3.072"/>
<circle clip-path="url(#clip202)" cx="373.661" cy="1386.31" r="14.4" fill="#009af9" fill-rule="evenodd" fill-opacity="1" stroke="#000000" stroke-opacity="1" stroke-width="3.072"/>
<circle clip-path="url(#clip202)" cx="607.987" cy="466.767" r="14.4" fill="#009af9" fill-rule="evenodd" fill-opacity="1" stroke="#000000" stroke-opacity="1" stroke-width="3.072"/>
<circle clip-path="url(#clip202)" cx="842.312" cy="773.28" r="14.4" fill="#009af9" fill-rule="evenodd" fill-opacity="1" stroke="#000000" stroke-opacity="1" stroke-width="3.072"/>
<circle clip-path="url(#clip202)" cx="1076.64" cy="160.254" r="14.4" fill="#009af9" fill-rule="evenodd" fill-opacity="1" stroke="#000000" stroke-opacity="1" stroke-width="3.072"/>
<polyline clip-path="url(#clip202)" style="stroke:#e26f46; stroke-linecap:round; stroke-linejoin:round; stroke-width:4; stroke-opacity:1; fill:none" points="
  -882.322,773.28 2098.29,773.28 
  "/>
<polyline clip-path="url(#clip202)" style="stroke:#3da44d; stroke-linecap:round; stroke-linejoin:round; stroke-width:4; stroke-opacity:1; fill:none" stroke-dasharray="16, 10" points="
  139.336,773.28 139.336,1079.79 
  "/>
<polyline clip-path="url(#clip202)" style="stroke:#c271d2; stroke-linecap:round; stroke-linejoin:round; stroke-width:4; stroke-opacity:1; fill:none" stroke-dasharray="16, 10" points="
  373.661,773.28 373.661,1386.31 
  "/>
<polyline clip-path="url(#clip202)" style="stroke:#ac8d18; stroke-linecap:round; stroke-linejoin:round; stroke-width:4; stroke-opacity:1; fill:none" stroke-dasharray="16, 10" points="
  607.987,773.28 607.987,466.767 
  "/>
<polyline clip-path="url(#clip202)" style="stroke:#00a9ad; stroke-linecap:round; stroke-linejoin:round; stroke-width:4; stroke-opacity:1; fill:none" stroke-dasharray="16, 10" points="
  842.312,773.28 842.312,773.28 
  "/>
<polyline clip-path="url(#clip202)" style="stroke:#ed5d92; stroke-linecap:round; stroke-linejoin:round; stroke-width:4; stroke-opacity:1; fill:none" stroke-dasharray="16, 10" points="
  1076.64,773.28 1076.64,160.254 
  "/>
<path clip-path="url(#clip200)" d="
M1263.22 1423.09 L2256.76 1423.09 L2256.76 123.472 L1263.22 123.472  Z
  " fill="#ffffff" fill-rule="evenodd" fill-opacity="1"/>
<defs>
  <clipPath id="clip203">
    <rect x="1263" y="123" width="995" height="1301"/>
  </clipPath>
</defs>
<polyline clip-path="url(#clip203)" style="stroke:#000000; stroke-linecap:round; stroke-linejoin:round; stroke-width:2; stroke-opacity:0.1; fill:none" points="
  1291.34,1423.09 1291.34,123.472 
  "/>
<polyline clip-path="url(#clip203)" style="stroke:#000000; stroke-linecap:round; stroke-linejoin:round; stroke-width:2; stroke-opacity:0.1; fill:none" points="
  1525.66,1423.09 1525.66,123.472 
  "/>
<polyline clip-path="url(#clip203)" style="stroke:#000000; stroke-linecap:round; stroke-linejoin:round; stroke-width:2; stroke-opacity:0.1; fill:none" points="
  1759.99,1423.09 1759.99,123.472 
  "/>
<polyline clip-path="url(#clip203)" style="stroke:#000000; stroke-linecap:round; stroke-linejoin:round; stroke-width:2; stroke-opacity:0.1; fill:none" points="
  1994.31,1423.09 1994.31,123.472 
  "/>
<polyline clip-path="url(#clip203)" style="stroke:#000000; stroke-linecap:round; stroke-linejoin:round; stroke-width:2; stroke-opacity:0.1; fill:none" points="
  2228.64,1423.09 2228.64,123.472 
  "/>
<polyline clip-path="url(#clip200)" style="stroke:#000000; stroke-linecap:round; stroke-linejoin:round; stroke-width:4; stroke-opacity:1; fill:none" points="
  1263.22,1423.09 2256.76,1423.09 
  "/>
<polyline clip-path="url(#clip200)" style="stroke:#000000; stroke-linecap:round; stroke-linejoin:round; stroke-width:4; stroke-opacity:1; fill:none" points="
  1291.34,1423.09 1291.34,1404.19 
  "/>
<polyline clip-path="url(#clip200)" style="stroke:#000000; stroke-linecap:round; stroke-linejoin:round; stroke-width:4; stroke-opacity:1; fill:none" points="
  1525.66,1423.09 1525.66,1404.19 
  "/>
<polyline clip-path="url(#clip200)" style="stroke:#000000; stroke-linecap:round; stroke-linejoin:round; stroke-width:4; stroke-opacity:1; fill:none" points="
  1759.99,1423.09 1759.99,1404.19 
  "/>
<polyline clip-path="url(#clip200)" style="stroke:#000000; stroke-linecap:round; stroke-linejoin:round; stroke-width:4; stroke-opacity:1; fill:none" points="
  1994.31,1423.09 1994.31,1404.19 
  "/>
<polyline clip-path="url(#clip200)" style="stroke:#000000; stroke-linecap:round; stroke-linejoin:round; stroke-width:4; stroke-opacity:1; fill:none" points="
  2228.64,1423.09 2228.64,1404.19 
  "/>
<path clip-path="url(#clip200)" d="M1281.72 1480.78 L1289.36 1480.78 L1289.36 1454.42 L1281.05 1456.09 L1281.05 1451.83 L1289.31 1450.16 L1293.99 1450.16 L1293.99 1480.78 L1301.63 1480.78 L1301.63 1484.72 L1281.72 1484.72 L1281.72 1480.78 Z" fill="#000000" fill-rule="evenodd" fill-opacity="1" /><path clip-path="url(#clip200)" d="M1520.31 1480.78 L1536.63 1480.78 L1536.63 1484.72 L1514.69 1484.72 L1514.69 1480.78 Q1517.35 1478.03 1521.93 1473.4 Q1526.54 1468.75 1527.72 1467.41 Q1529.97 1464.88 1530.85 1463.15 Q1531.75 1461.39 1531.75 1459.7 Q1531.75 1456.94 1529.8 1455.21 Q1527.88 1453.47 1524.78 1453.47 Q1522.58 1453.47 1520.13 1454.23 Q1517.7 1455 1514.92 1456.55 L1514.92 1451.83 Q1517.74 1450.69 1520.2 1450.11 Q1522.65 1449.53 1524.69 1449.53 Q1530.06 1449.53 1533.25 1452.22 Q1536.45 1454.91 1536.45 1459.4 Q1536.45 1461.53 1535.64 1463.45 Q1534.85 1465.34 1532.74 1467.94 Q1532.17 1468.61 1529.06 1471.83 Q1525.96 1475.02 1520.31 1480.78 Z" fill="#000000" fill-rule="evenodd" fill-opacity="1" /><path clip-path="url(#clip200)" d="M1764.23 1466.09 Q1767.59 1466.8 1769.47 1469.07 Q1771.36 1471.34 1771.36 1474.67 Q1771.36 1479.79 1767.85 1482.59 Q1764.33 1485.39 1757.85 1485.39 Q1755.67 1485.39 1753.35 1484.95 Q1751.06 1484.53 1748.61 1483.68 L1748.61 1479.16 Q1750.55 1480.3 1752.87 1480.88 Q1755.18 1481.46 1757.71 1481.46 Q1762.1 1481.46 1764.4 1479.72 Q1766.71 1477.98 1766.71 1474.67 Q1766.71 1471.62 1764.56 1469.91 Q1762.43 1468.17 1758.61 1468.17 L1754.58 1468.17 L1754.58 1464.33 L1758.79 1464.33 Q1762.24 1464.33 1764.07 1462.96 Q1765.9 1461.57 1765.9 1458.98 Q1765.9 1456.32 1764 1454.91 Q1762.13 1453.47 1758.61 1453.47 Q1756.69 1453.47 1754.49 1453.89 Q1752.29 1454.3 1749.65 1455.18 L1749.65 1451.02 Q1752.31 1450.28 1754.63 1449.91 Q1756.97 1449.53 1759.03 1449.53 Q1764.35 1449.53 1767.45 1451.97 Q1770.55 1454.37 1770.55 1458.49 Q1770.55 1461.36 1768.91 1463.35 Q1767.27 1465.32 1764.23 1466.09 Z" fill="#000000" fill-rule="evenodd" fill-opacity="1" /><path clip-path="url(#clip200)" d="M1997.32 1454.23 L1985.52 1472.68 L1997.32 1472.68 L1997.32 1454.23 M1996.09 1450.16 L2001.97 1450.16 L2001.97 1472.68 L2006.9 1472.68 L2006.9 1476.57 L2001.97 1476.57 L2001.97 1484.72 L1997.32 1484.72 L1997.32 1476.57 L1981.72 1476.57 L1981.72 1472.06 L1996.09 1450.16 Z" fill="#000000" fill-rule="evenodd" fill-opacity="1" /><path clip-path="url(#clip200)" d="M2218.91 1450.16 L2237.27 1450.16 L2237.27 1454.1 L2223.2 1454.1 L2223.2 1462.57 Q2224.22 1462.22 2225.23 1462.06 Q2226.25 1461.87 2227.27 1461.87 Q2233.06 1461.87 2236.44 1465.04 Q2239.82 1468.22 2239.82 1473.63 Q2239.82 1479.21 2236.35 1482.31 Q2232.87 1485.39 2226.55 1485.39 Q2224.38 1485.39 2222.11 1485.02 Q2219.86 1484.65 2217.46 1483.91 L2217.46 1479.21 Q2219.54 1480.34 2221.76 1480.9 Q2223.98 1481.46 2226.46 1481.46 Q2230.47 1481.46 2232.8 1479.35 Q2235.14 1477.24 2235.14 1473.63 Q2235.14 1470.02 2232.8 1467.91 Q2230.47 1465.81 2226.46 1465.81 Q2224.59 1465.81 2222.71 1466.22 Q2220.86 1466.64 2218.91 1467.52 L2218.91 1450.16 Z" fill="#000000" fill-rule="evenodd" fill-opacity="1" /><polyline clip-path="url(#clip203)" style="stroke:#000000; stroke-linecap:round; stroke-linejoin:round; stroke-width:2; stroke-opacity:0.1; fill:none" points="
  1263.22,1386.31 2256.76,1386.31 
  "/>
<polyline clip-path="url(#clip203)" style="stroke:#000000; stroke-linecap:round; stroke-linejoin:round; stroke-width:2; stroke-opacity:0.1; fill:none" points="
  1263.22,1079.79 2256.76,1079.79 
  "/>
<polyline clip-path="url(#clip203)" style="stroke:#000000; stroke-linecap:round; stroke-linejoin:round; stroke-width:2; stroke-opacity:0.1; fill:none" points="
  1263.22,773.28 2256.76,773.28 
  "/>
<polyline clip-path="url(#clip203)" style="stroke:#000000; stroke-linecap:round; stroke-linejoin:round; stroke-width:2; stroke-opacity:0.1; fill:none" points="
  1263.22,466.767 2256.76,466.767 
  "/>
<polyline clip-path="url(#clip203)" style="stroke:#000000; stroke-linecap:round; stroke-linejoin:round; stroke-width:2; stroke-opacity:0.1; fill:none" points="
  1263.22,160.254 2256.76,160.254 
  "/>
<polyline clip-path="url(#clip200)" style="stroke:#000000; stroke-linecap:round; stroke-linejoin:round; stroke-width:4; stroke-opacity:1; fill:none" points="
  1263.22,1423.09 1263.22,123.472 
  "/>
<polyline clip-path="url(#clip200)" style="stroke:#000000; stroke-linecap:round; stroke-linejoin:round; stroke-width:4; stroke-opacity:1; fill:none" points="
  1263.22,1386.31 1282.11,1386.31 
  "/>
<polyline clip-path="url(#clip200)" style="stroke:#000000; stroke-linecap:round; stroke-linejoin:round; stroke-width:4; stroke-opacity:1; fill:none" points="
  1263.22,1079.79 1282.11,1079.79 
  "/>
<polyline clip-path="url(#clip200)" style="stroke:#000000; stroke-linecap:round; stroke-linejoin:round; stroke-width:4; stroke-opacity:1; fill:none" points="
  1263.22,773.28 1282.11,773.28 
  "/>
<polyline clip-path="url(#clip200)" style="stroke:#000000; stroke-linecap:round; stroke-linejoin:round; stroke-width:4; stroke-opacity:1; fill:none" points="
  1263.22,466.767 1282.11,466.767 
  "/>
<polyline clip-path="url(#clip200)" style="stroke:#000000; stroke-linecap:round; stroke-linejoin:round; stroke-width:4; stroke-opacity:1; fill:none" points="
  1263.22,160.254 1282.11,160.254 
  "/>
<path clip-path="url(#clip200)" d="M1208.75 1399.65 L1216.39 1399.65 L1216.39 1373.29 L1208.08 1374.95 L1208.08 1370.69 L1216.34 1369.03 L1221.02 1369.03 L1221.02 1399.65 L1228.66 1399.65 L1228.66 1403.59 L1208.75 1403.59 L1208.75 1399.65 Z" fill="#000000" fill-rule="evenodd" fill-opacity="1" /><path clip-path="url(#clip200)" d="M1212.34 1093.14 L1228.66 1093.14 L1228.66 1097.07 L1206.71 1097.07 L1206.71 1093.14 Q1209.37 1090.38 1213.96 1085.75 Q1218.56 1081.1 1219.75 1079.76 Q1221.99 1077.24 1222.87 1075.5 Q1223.77 1073.74 1223.77 1072.05 Q1223.77 1069.3 1221.83 1067.56 Q1219.91 1065.82 1216.81 1065.82 Q1214.61 1065.82 1212.15 1066.59 Q1209.72 1067.35 1206.94 1068.9 L1206.94 1064.18 Q1209.77 1063.05 1212.22 1062.47 Q1214.68 1061.89 1216.71 1061.89 Q1222.08 1061.89 1225.28 1064.57 Q1228.47 1067.26 1228.47 1071.75 Q1228.47 1073.88 1227.66 1075.8 Q1226.87 1077.7 1224.77 1080.29 Q1224.19 1080.96 1221.09 1084.18 Q1217.99 1087.37 1212.34 1093.14 Z" fill="#000000" fill-rule="evenodd" fill-opacity="1" /><path clip-path="url(#clip200)" d="M1221.53 771.926 Q1224.88 772.643 1226.76 774.912 Q1228.66 777.18 1228.66 780.514 Q1228.66 785.629 1225.14 788.43 Q1221.62 791.231 1215.14 791.231 Q1212.96 791.231 1210.65 790.791 Q1208.36 790.375 1205.9 789.518 L1205.9 785.004 Q1207.85 786.139 1210.16 786.717 Q1212.48 787.296 1215 787.296 Q1219.4 787.296 1221.69 785.56 Q1224 783.824 1224 780.514 Q1224 777.458 1221.85 775.745 Q1219.72 774.009 1215.9 774.009 L1211.87 774.009 L1211.87 770.167 L1216.09 770.167 Q1219.54 770.167 1221.37 768.801 Q1223.19 767.412 1223.19 764.819 Q1223.19 762.157 1221.3 760.745 Q1219.42 759.31 1215.9 759.31 Q1213.98 759.31 1211.78 759.727 Q1209.58 760.143 1206.94 761.023 L1206.94 756.856 Q1209.61 756.116 1211.92 755.745 Q1214.26 755.375 1216.32 755.375 Q1221.64 755.375 1224.75 757.806 Q1227.85 760.213 1227.85 764.333 Q1227.85 767.204 1226.2 769.194 Q1224.56 771.162 1221.53 771.926 Z" fill="#000000" fill-rule="evenodd" fill-opacity="1" /><path clip-path="url(#clip200)" d="M1219.07 453.561 L1207.27 472.01 L1219.07 472.01 L1219.07 453.561 M1217.85 449.487 L1223.73 449.487 L1223.73 472.01 L1228.66 472.01 L1228.66 475.899 L1223.73 475.899 L1223.73 484.047 L1219.07 484.047 L1219.07 475.899 L1203.47 475.899 L1203.47 471.385 L1217.85 449.487 Z" fill="#000000" fill-rule="evenodd" fill-opacity="1" /><path clip-path="url(#clip200)" d="M1207.75 142.974 L1226.11 142.974 L1226.11 146.909 L1212.04 146.909 L1212.04 155.381 Q1213.06 155.034 1214.07 154.872 Q1215.09 154.687 1216.11 154.687 Q1221.9 154.687 1225.28 157.858 Q1228.66 161.029 1228.66 166.446 Q1228.66 172.024 1225.18 175.126 Q1221.71 178.205 1215.39 178.205 Q1213.22 178.205 1210.95 177.835 Q1208.7 177.464 1206.3 176.724 L1206.3 172.024 Q1208.38 173.159 1210.6 173.714 Q1212.82 174.27 1215.3 174.27 Q1219.31 174.27 1221.64 172.163 Q1223.98 170.057 1223.98 166.446 Q1223.98 162.835 1221.64 160.728 Q1219.31 158.622 1215.3 158.622 Q1213.43 158.622 1211.55 159.038 Q1209.7 159.455 1207.75 160.335 L1207.75 142.974 Z" fill="#000000" fill-rule="evenodd" fill-opacity="1" /><path clip-path="url(#clip200)" d="M1533.14 28.5427 L1533.14 35.5912 Q1529.98 33.9709 1526.57 33.1607 Q1523.17 32.3505 1519.52 32.3505 Q1513.98 32.3505 1511.18 34.0519 Q1508.43 35.7533 1508.43 39.156 Q1508.43 41.7486 1510.41 43.2475 Q1512.4 44.7058 1518.39 46.0426 L1520.94 46.6097 Q1528.88 48.3111 1532.2 51.4303 Q1535.57 54.509 1535.57 60.0587 Q1535.57 66.3781 1530.54 70.0644 Q1525.56 73.7508 1516.81 73.7508 Q1513.16 73.7508 1509.2 73.0216 Q1505.27 72.3329 1500.89 70.9151 L1500.89 63.2184 Q1505.02 65.3654 1509.03 66.4591 Q1513.04 67.5124 1516.97 67.5124 Q1522.24 67.5124 1525.07 65.73 Q1527.91 63.9071 1527.91 60.6258 Q1527.91 57.5877 1525.84 55.9673 Q1523.82 54.3469 1516.89 52.8481 L1514.3 52.2405 Q1507.37 50.7821 1504.29 47.7845 Q1501.21 44.7463 1501.21 39.4801 Q1501.21 33.0797 1505.75 29.5959 Q1510.29 26.1121 1518.63 26.1121 Q1522.77 26.1121 1526.41 26.7198 Q1530.06 27.3274 1533.14 28.5427 Z" fill="#000000" fill-rule="evenodd" fill-opacity="1" /><path clip-path="url(#clip200)" d="M1546.67 54.671 L1546.67 27.2059 L1554.12 27.2059 L1554.12 54.3874 Q1554.12 60.8284 1556.63 64.0691 Q1559.14 67.2693 1564.17 67.2693 Q1570.2 67.2693 1573.69 63.421 Q1577.21 59.5726 1577.21 52.9291 L1577.21 27.2059 L1584.66 27.2059 L1584.66 72.576 L1577.21 72.576 L1577.21 65.6084 Q1574.5 69.7404 1570.89 71.7658 Q1567.33 73.7508 1562.59 73.7508 Q1554.77 73.7508 1550.72 68.8897 Q1546.67 64.0286 1546.67 54.671 M1565.42 26.1121 L1565.42 26.1121 Z" fill="#000000" fill-rule="evenodd" fill-opacity="1" /><path clip-path="url(#clip200)" d="M1635.34 35.9153 Q1638.14 30.8922 1642.02 28.5022 Q1645.91 26.1121 1651.18 26.1121 Q1658.27 26.1121 1662.12 31.0947 Q1665.97 36.0368 1665.97 45.1919 L1665.97 72.576 L1658.47 72.576 L1658.47 45.4349 Q1658.47 38.913 1656.16 35.7533 Q1653.85 32.5936 1649.11 32.5936 Q1643.32 32.5936 1639.96 36.4419 Q1636.6 40.2903 1636.6 46.9338 L1636.6 72.576 L1629.1 72.576 L1629.1 45.4349 Q1629.1 38.8725 1626.79 35.7533 Q1624.48 32.5936 1619.66 32.5936 Q1613.95 32.5936 1610.59 36.4824 Q1607.23 40.3308 1607.23 46.9338 L1607.23 72.576 L1599.73 72.576 L1599.73 27.2059 L1607.23 27.2059 L1607.23 34.2544 Q1609.78 30.082 1613.34 28.0971 Q1616.91 26.1121 1621.81 26.1121 Q1626.75 26.1121 1630.2 28.6237 Q1633.68 31.1352 1635.34 35.9153 Z" fill="#000000" fill-rule="evenodd" fill-opacity="1" /><path clip-path="url(#clip200)" d="M1746.01 48.0275 L1746.01 51.6733 L1711.74 51.6733 Q1712.23 59.3701 1716.36 63.421 Q1720.53 67.4314 1727.94 67.4314 Q1732.24 67.4314 1736.25 66.3781 Q1740.3 65.3249 1744.27 63.2184 L1744.27 70.267 Q1740.26 71.9684 1736.05 72.8596 Q1731.83 73.7508 1727.5 73.7508 Q1716.64 73.7508 1710.28 67.4314 Q1703.96 61.1119 1703.96 50.3365 Q1703.96 39.1965 1709.96 32.6746 Q1715.99 26.1121 1726.2 26.1121 Q1735.36 26.1121 1740.66 32.0264 Q1746.01 37.9003 1746.01 48.0275 M1738.56 45.84 Q1738.48 39.7232 1735.11 36.0774 Q1731.79 32.4315 1726.28 32.4315 Q1720.04 32.4315 1716.28 35.9558 Q1712.55 39.4801 1711.98 45.8805 L1738.56 45.84 Z" fill="#000000" fill-rule="evenodd" fill-opacity="1" /><path clip-path="url(#clip200)" d="M1755.37 47.1768 L1760.07 47.1768 L1760.07 72.576 L1755.37 72.576 L1755.37 47.1768 M1755.37 37.2926 L1760.07 37.2926 L1760.07 42.5588 L1755.37 42.5588 L1755.37 37.2926 Z" fill="#000000" fill-rule="evenodd" fill-opacity="1" /><path clip-path="url(#clip200)" d="M1776.11 40.8979 L1793.28 40.8979 L1793.28 45.516 L1769.06 45.516 L1769.06 41.06 Q1770.44 39.8042 1772.99 37.5357 Q1786.93 25.1804 1786.93 21.3726 Q1786.93 18.699 1784.82 17.0786 Q1782.71 15.4177 1779.27 15.4177 Q1777.16 15.4177 1774.69 16.1469 Q1772.22 16.8356 1769.3 18.2534 L1769.3 13.2708 Q1772.42 12.1365 1775.1 11.5694 Q1777.81 11.0023 1780.12 11.0023 Q1785.99 11.0023 1789.52 13.6759 Q1793.04 16.3494 1793.04 20.7244 Q1793.04 26.3552 1779.63 37.8598 Q1777.36 39.8042 1776.11 40.8979 Z" fill="#000000" fill-rule="evenodd" fill-opacity="1" /><path clip-path="url(#clip200)" d="M1807.3 34.9026 L1859.23 34.9026 L1859.23 41.7081 L1807.3 41.7081 L1807.3 34.9026 M1807.3 51.4303 L1859.23 51.4303 L1859.23 58.3168 L1807.3 58.3168 L1807.3 51.4303 Z" fill="#000000" fill-rule="evenodd" fill-opacity="1" /><path clip-path="url(#clip200)" d="M1925.75 19.2256 L1905.09 51.5113 L1925.75 51.5113 L1925.75 19.2256 M1923.6 12.096 L1933.89 12.096 L1933.89 51.5113 L1942.52 51.5113 L1942.52 58.3168 L1933.89 58.3168 L1933.89 72.576 L1925.75 72.576 L1925.75 58.3168 L1898.45 58.3168 L1898.45 50.4176 L1923.6 12.096 Z" fill="#000000" fill-rule="evenodd" fill-opacity="1" /><path clip-path="url(#clip200)" d="M1956.05 62.2867 L1964.6 62.2867 L1964.6 72.576 L1956.05 72.576 L1956.05 62.2867 Z" fill="#000000" fill-rule="evenodd" fill-opacity="1" /><path clip-path="url(#clip200)" d="M1982.5 12.096 L2014.63 12.096 L2014.63 18.9825 L1990 18.9825 L1990 33.8088 Q1991.78 33.2012 1993.56 32.9176 Q1995.34 32.5936 1997.13 32.5936 Q2007.25 32.5936 2013.17 38.1433 Q2019.08 43.6931 2019.08 53.1722 Q2019.08 62.9348 2013.01 68.3631 Q2006.93 73.7508 1995.87 73.7508 Q1992.06 73.7508 1988.09 73.1026 Q1984.16 72.4545 1979.95 71.1582 L1979.95 62.9348 Q1983.6 64.9198 1987.49 65.892 Q1991.37 66.8642 1995.71 66.8642 Q2002.72 66.8642 2006.81 63.1779 Q2010.9 59.4916 2010.9 53.1722 Q2010.9 46.8528 2006.81 43.1664 Q2002.72 39.4801 1995.71 39.4801 Q1992.43 39.4801 1989.15 40.2093 Q1985.91 40.9384 1982.5 42.4778 L1982.5 12.096 Z" fill="#000000" fill-rule="evenodd" fill-opacity="1" /><circle clip-path="url(#clip203)" cx="1291.34" cy="1079.79" r="14.4" fill="#009af9" fill-rule="evenodd" fill-opacity="1" stroke="#000000" stroke-opacity="1" stroke-width="3.072"/>
<circle clip-path="url(#clip203)" cx="1525.66" cy="1386.31" r="14.4" fill="#009af9" fill-rule="evenodd" fill-opacity="1" stroke="#000000" stroke-opacity="1" stroke-width="3.072"/>
<circle clip-path="url(#clip203)" cx="1759.99" cy="466.767" r="14.4" fill="#009af9" fill-rule="evenodd" fill-opacity="1" stroke="#000000" stroke-opacity="1" stroke-width="3.072"/>
<circle clip-path="url(#clip203)" cx="1994.31" cy="773.28" r="14.4" fill="#009af9" fill-rule="evenodd" fill-opacity="1" stroke="#000000" stroke-opacity="1" stroke-width="3.072"/>
<circle clip-path="url(#clip203)" cx="2228.64" cy="160.254" r="14.4" fill="#009af9" fill-rule="evenodd" fill-opacity="1" stroke="#000000" stroke-opacity="1" stroke-width="3.072"/>
<polyline clip-path="url(#clip203)" style="stroke:#e26f46; stroke-linecap:round; stroke-linejoin:round; stroke-width:4; stroke-opacity:1; fill:none" points="
  1291.34,1079.79 1297.44,1075.8 1353.86,1038.9 1387.77,1016.72 1416.44,997.97 1447.59,977.601 1476.3,958.823 1507.08,938.69 1542.74,915.365 1574.44,894.637 
  1602.23,876.46 1632.53,856.642 1663.01,836.706 1696.71,814.664 1728.78,793.692 1762.12,771.886 1790.18,753.53 1824.45,731.12 1855.84,710.59 1884.83,691.63 
  1914.19,672.423 1947.1,650.898 1976.93,631.393 2011.07,609.061 2042.69,588.383 2073.86,567.998 2104.12,548.205 2135.14,527.915 2169.13,505.685 2218.51,473.392 
  2228.64,466.767 
  "/>
<polyline clip-path="url(#clip203)" style="stroke:#3da44d; stroke-linecap:round; stroke-linejoin:round; stroke-width:4; stroke-opacity:1; fill:none" stroke-dasharray="16, 10" points="
  1291.34,1079.79 1291.34,1079.79 
  "/>
<polyline clip-path="url(#clip203)" style="stroke:#c271d2; stroke-linecap:round; stroke-linejoin:round; stroke-width:4; stroke-opacity:1; fill:none" stroke-dasharray="16, 10" points="
  1525.66,926.537 1525.66,1386.31 
  "/>
<polyline clip-path="url(#clip203)" style="stroke:#ac8d18; stroke-linecap:round; stroke-linejoin:round; stroke-width:4; stroke-opacity:1; fill:none" stroke-dasharray="16, 10" points="
  1759.99,773.28 1759.99,466.767 
  "/>
<polyline clip-path="url(#clip203)" style="stroke:#00a9ad; stroke-linecap:round; stroke-linejoin:round; stroke-width:4; stroke-opacity:1; fill:none" stroke-dasharray="16, 10" points="
  1994.31,620.023 1994.31,773.28 
  "/>
<polyline clip-path="url(#clip203)" style="stroke:#ed5d92; stroke-linecap:round; stroke-linejoin:round; stroke-width:4; stroke-opacity:1; fill:none" stroke-dasharray="16, 10" points="
  2228.64,466.767 2228.64,160.254 
  "/>
</svg>
