<?xml version="1.0" encoding="utf-8"?>
<svg xmlns="http://www.w3.org/2000/svg" xmlns:xlink="http://www.w3.org/1999/xlink" width="672" height="480" viewBox="0 0 2688 1920">
<defs>
  <clipPath id="clip270">
    <rect x="0" y="0" width="2688" height="1920"/>
  </clipPath>
</defs>
<path clip-path="url(#clip270)" d="
M0 1920 L2688 1920 L2688 0 L0 0  Z
  " fill="#ffffff" fill-rule="evenodd" fill-opacity="1"/>
<defs>
  <clipPath id="clip271">
    <rect x="537" y="0" width="1883" height="1883"/>
  </clipPath>
</defs>
<path clip-path="url(#clip270)" d="
M208.502 1734.12 L2640.76 1734.12 L2640.76 127.792 L208.502 127.792  Z
  " fill="#ffffff" fill-rule="evenodd" fill-opacity="1"/>
<defs>
  <clipPath id="clip272">
    <rect x="208" y="127" width="2433" height="1607"/>
  </clipPath>
</defs>
<polyline clip-path="url(#clip272)" style="stroke:#000000; stroke-linecap:round; stroke-linejoin:round; stroke-width:2; stroke-opacity:0.1; fill:none" points="
  457.463,1734.12 457.463,127.792 
  "/>
<polyline clip-path="url(#clip272)" style="stroke:#000000; stroke-linecap:round; stroke-linejoin:round; stroke-width:2; stroke-opacity:0.1; fill:none" points="
  825.931,1734.12 825.931,127.792 
  "/>
<polyline clip-path="url(#clip272)" style="stroke:#000000; stroke-linecap:round; stroke-linejoin:round; stroke-width:2; stroke-opacity:0.1; fill:none" points="
  1194.4,1734.12 1194.4,127.792 
  "/>
<polyline clip-path="url(#clip272)" style="stroke:#000000; stroke-linecap:round; stroke-linejoin:round; stroke-width:2; stroke-opacity:0.1; fill:none" points="
  1562.87,1734.12 1562.87,127.792 
  "/>
<polyline clip-path="url(#clip272)" style="stroke:#000000; stroke-linecap:round; stroke-linejoin:round; stroke-width:2; stroke-opacity:0.1; fill:none" points="
  1931.34,1734.12 1931.34,127.792 
  "/>
<polyline clip-path="url(#clip272)" style="stroke:#000000; stroke-linecap:round; stroke-linejoin:round; stroke-width:2; stroke-opacity:0.1; fill:none" points="
  2299.8,1734.12 2299.8,127.792 
  "/>
<polyline clip-path="url(#clip270)" style="stroke:#000000; stroke-linecap:round; stroke-linejoin:round; stroke-width:4; stroke-opacity:1; fill:none" points="
  208.502,1734.12 2640.76,1734.12 
  "/>
<polyline clip-path="url(#clip270)" style="stroke:#000000; stroke-linecap:round; stroke-linejoin:round; stroke-width:4; stroke-opacity:1; fill:none" points="
  457.463,1734.12 457.463,1715.22 
  "/>
<polyline clip-path="url(#clip270)" style="stroke:#000000; stroke-linecap:round; stroke-linejoin:round; stroke-width:4; stroke-opacity:1; fill:none" points="
  825.931,1734.12 825.931,1715.22 
  "/>
<polyline clip-path="url(#clip270)" style="stroke:#000000; stroke-linecap:round; stroke-linejoin:round; stroke-width:4; stroke-opacity:1; fill:none" points="
  1194.4,1734.12 1194.4,1715.22 
  "/>
<polyline clip-path="url(#clip270)" style="stroke:#000000; stroke-linecap:round; stroke-linejoin:round; stroke-width:4; stroke-opacity:1; fill:none" points="
  1562.87,1734.12 1562.87,1715.22 
  "/>
<polyline clip-path="url(#clip270)" style="stroke:#000000; stroke-linecap:round; stroke-linejoin:round; stroke-width:4; stroke-opacity:1; fill:none" points="
  1931.34,1734.12 1931.34,1715.22 
  "/>
<polyline clip-path="url(#clip270)" style="stroke:#000000; stroke-linecap:round; stroke-linejoin:round; stroke-width:4; stroke-opacity:1; fill:none" points="
  2299.8,1734.12 2299.8,1715.22 
  "/>
<path clip-path="url(#clip270)" d="M404.489 1781.99 L434.165 1781.99 L434.165 1785.93 L404.489 1785.93 L404.489 1781.99 Z" fill="#000000" fill-rule="evenodd" fill-opacity="1" /><path clip-path="url(#clip270)" d="M448.285 1794.89 L464.605 1794.89 L464.605 1798.82 L442.66 1798.82 L442.66 1794.89 Q445.322 1792.13 449.906 1787.5 Q454.512 1782.85 455.693 1781.51 Q457.938 1778.98 458.818 1777.25 Q459.72 1775.49 459.72 1773.8 Q459.72 1771.04 457.776 1769.31 Q455.855 1767.57 452.753 1767.57 Q450.554 1767.57 448.1 1768.34 Q445.669 1769.1 442.892 1770.65 L442.892 1765.93 Q445.716 1764.79 448.169 1764.21 Q450.623 1763.64 452.66 1763.64 Q458.031 1763.64 461.225 1766.32 Q464.419 1769.01 464.419 1773.5 Q464.419 1775.63 463.609 1777.55 Q462.822 1779.45 460.716 1782.04 Q460.137 1782.71 457.035 1785.93 Q453.933 1789.12 448.285 1794.89 Z" fill="#000000" fill-rule="evenodd" fill-opacity="1" /><path clip-path="url(#clip270)" d="M474.419 1792.94 L479.304 1792.94 L479.304 1798.82 L474.419 1798.82 L474.419 1792.94 Z" fill="#000000" fill-rule="evenodd" fill-opacity="1" /><path clip-path="url(#clip270)" d="M489.535 1764.26 L507.891 1764.26 L507.891 1768.2 L493.817 1768.2 L493.817 1776.67 Q494.836 1776.32 495.854 1776.16 Q496.873 1775.97 497.891 1775.97 Q503.678 1775.97 507.058 1779.15 Q510.438 1782.32 510.438 1787.73 Q510.438 1793.31 506.965 1796.41 Q503.493 1799.49 497.174 1799.49 Q494.998 1799.49 492.729 1799.12 Q490.484 1798.75 488.077 1798.01 L488.077 1793.31 Q490.16 1794.45 492.382 1795 Q494.604 1795.56 497.081 1795.56 Q501.086 1795.56 503.424 1793.45 Q505.762 1791.34 505.762 1787.73 Q505.762 1784.12 503.424 1782.02 Q501.086 1779.91 497.081 1779.91 Q495.206 1779.91 493.331 1780.33 Q491.479 1780.74 489.535 1781.62 L489.535 1764.26 Z" fill="#000000" fill-rule="evenodd" fill-opacity="1" /><path clip-path="url(#clip270)" d="M803.316 1767.34 Q799.705 1767.34 797.876 1770.9 Q796.071 1774.45 796.071 1781.58 Q796.071 1788.68 797.876 1792.25 Q799.705 1795.79 803.316 1795.79 Q806.95 1795.79 808.756 1792.25 Q810.584 1788.68 810.584 1781.58 Q810.584 1774.45 808.756 1770.9 Q806.95 1767.34 803.316 1767.34 M803.316 1763.64 Q809.126 1763.64 812.182 1768.24 Q815.26 1772.83 815.26 1781.58 Q815.26 1790.3 812.182 1794.91 Q809.126 1799.49 803.316 1799.49 Q797.506 1799.49 794.427 1794.91 Q791.371 1790.3 791.371 1781.58 Q791.371 1772.83 794.427 1768.24 Q797.506 1763.64 803.316 1763.64 Z" fill="#000000" fill-rule="evenodd" fill-opacity="1" /><path clip-path="url(#clip270)" d="M823.478 1792.94 L828.362 1792.94 L828.362 1798.82 L823.478 1798.82 L823.478 1792.94 Z" fill="#000000" fill-rule="evenodd" fill-opacity="1" /><path clip-path="url(#clip270)" d="M848.547 1767.34 Q844.936 1767.34 843.107 1770.9 Q841.302 1774.45 841.302 1781.58 Q841.302 1788.68 843.107 1792.25 Q844.936 1795.79 848.547 1795.79 Q852.181 1795.79 853.987 1792.25 Q855.816 1788.68 855.816 1781.58 Q855.816 1774.45 853.987 1770.9 Q852.181 1767.34 848.547 1767.34 M848.547 1763.64 Q854.357 1763.64 857.413 1768.24 Q860.491 1772.83 860.491 1781.58 Q860.491 1790.3 857.413 1794.91 Q854.357 1799.49 848.547 1799.49 Q842.737 1799.49 839.658 1794.91 Q836.603 1790.3 836.603 1781.58 Q836.603 1772.83 839.658 1768.24 Q842.737 1763.64 848.547 1763.64 Z" fill="#000000" fill-rule="evenodd" fill-opacity="1" /><path clip-path="url(#clip270)" d="M1166.14 1794.89 L1182.46 1794.89 L1182.46 1798.82 L1160.51 1798.82 L1160.51 1794.89 Q1163.17 1792.13 1167.76 1787.5 Q1172.36 1782.85 1173.54 1781.51 Q1175.79 1778.98 1176.67 1777.25 Q1177.57 1775.49 1177.57 1773.8 Q1177.57 1771.04 1175.63 1769.31 Q1173.71 1767.57 1170.6 1767.57 Q1168.4 1767.57 1165.95 1768.34 Q1163.52 1769.1 1160.74 1770.65 L1160.74 1765.93 Q1163.57 1764.79 1166.02 1764.21 Q1168.47 1763.64 1170.51 1763.64 Q1175.88 1763.64 1179.08 1766.32 Q1182.27 1769.01 1182.27 1773.5 Q1182.27 1775.63 1181.46 1777.55 Q1180.67 1779.45 1178.57 1782.04 Q1177.99 1782.71 1174.89 1785.93 Q1171.78 1789.12 1166.14 1794.89 Z" fill="#000000" fill-rule="evenodd" fill-opacity="1" /><path clip-path="url(#clip270)" d="M1192.27 1792.94 L1197.15 1792.94 L1197.15 1798.82 L1192.27 1798.82 L1192.27 1792.94 Z" fill="#000000" fill-rule="evenodd" fill-opacity="1" /><path clip-path="url(#clip270)" d="M1207.39 1764.26 L1225.74 1764.26 L1225.74 1768.2 L1211.67 1768.2 L1211.67 1776.67 Q1212.69 1776.32 1213.7 1776.16 Q1214.72 1775.97 1215.74 1775.97 Q1221.53 1775.97 1224.91 1779.15 Q1228.29 1782.32 1228.29 1787.73 Q1228.29 1793.31 1224.82 1796.41 Q1221.34 1799.49 1215.02 1799.49 Q1212.85 1799.49 1210.58 1799.12 Q1208.33 1798.75 1205.93 1798.01 L1205.93 1793.31 Q1208.01 1794.45 1210.23 1795 Q1212.45 1795.56 1214.93 1795.56 Q1218.94 1795.56 1221.27 1793.45 Q1223.61 1791.34 1223.61 1787.73 Q1223.61 1784.12 1221.27 1782.02 Q1218.94 1779.91 1214.93 1779.91 Q1213.06 1779.91 1211.18 1780.33 Q1209.33 1780.74 1207.39 1781.62 L1207.39 1764.26 Z" fill="#000000" fill-rule="evenodd" fill-opacity="1" /><path clip-path="url(#clip270)" d="M1530.03 1764.26 L1548.39 1764.26 L1548.39 1768.2 L1534.31 1768.2 L1534.31 1776.67 Q1535.33 1776.32 1536.35 1776.16 Q1537.37 1775.97 1538.39 1775.97 Q1544.18 1775.97 1547.56 1779.15 Q1550.93 1782.32 1550.93 1787.73 Q1550.93 1793.31 1547.46 1796.41 Q1543.99 1799.49 1537.67 1799.49 Q1535.5 1799.49 1533.23 1799.12 Q1530.98 1798.75 1528.57 1798.01 L1528.57 1793.31 Q1530.66 1794.45 1532.88 1795 Q1535.1 1795.56 1537.58 1795.56 Q1541.58 1795.56 1543.92 1793.45 Q1546.26 1791.34 1546.26 1787.73 Q1546.26 1784.12 1543.92 1782.02 Q1541.58 1779.91 1537.58 1779.91 Q1535.7 1779.91 1533.83 1780.33 Q1531.98 1780.74 1530.03 1781.62 L1530.03 1764.26 Z" fill="#000000" fill-rule="evenodd" fill-opacity="1" /><path clip-path="url(#clip270)" d="M1560.15 1792.94 L1565.03 1792.94 L1565.03 1798.82 L1560.15 1798.82 L1560.15 1792.94 Z" fill="#000000" fill-rule="evenodd" fill-opacity="1" /><path clip-path="url(#clip270)" d="M1585.22 1767.34 Q1581.61 1767.34 1579.78 1770.9 Q1577.97 1774.45 1577.97 1781.58 Q1577.97 1788.68 1579.78 1792.25 Q1581.61 1795.79 1585.22 1795.79 Q1588.85 1795.79 1590.66 1792.25 Q1592.49 1788.68 1592.49 1781.58 Q1592.49 1774.45 1590.66 1770.9 Q1588.85 1767.34 1585.22 1767.34 M1585.22 1763.64 Q1591.03 1763.64 1594.08 1768.24 Q1597.16 1772.83 1597.16 1781.58 Q1597.16 1790.3 1594.08 1794.91 Q1591.03 1799.49 1585.22 1799.49 Q1579.41 1799.49 1576.33 1794.91 Q1573.27 1790.3 1573.27 1781.58 Q1573.27 1772.83 1576.33 1768.24 Q1579.41 1763.64 1585.22 1763.64 Z" fill="#000000" fill-rule="evenodd" fill-opacity="1" /><path clip-path="url(#clip270)" d="M1897.66 1764.26 L1919.88 1764.26 L1919.88 1766.25 L1907.33 1798.82 L1902.45 1798.82 L1914.25 1768.2 L1897.66 1768.2 L1897.66 1764.26 Z" fill="#000000" fill-rule="evenodd" fill-opacity="1" /><path clip-path="url(#clip270)" d="M1929 1792.94 L1933.88 1792.94 L1933.88 1798.82 L1929 1798.82 L1929 1792.94 Z" fill="#000000" fill-rule="evenodd" fill-opacity="1" /><path clip-path="url(#clip270)" d="M1944.11 1764.26 L1962.47 1764.26 L1962.47 1768.2 L1948.4 1768.2 L1948.4 1776.67 Q1949.41 1776.32 1950.43 1776.16 Q1951.45 1775.97 1952.47 1775.97 Q1958.26 1775.97 1961.64 1779.15 Q1965.02 1782.32 1965.02 1787.73 Q1965.02 1793.31 1961.54 1796.41 Q1958.07 1799.49 1951.75 1799.49 Q1949.58 1799.49 1947.31 1799.12 Q1945.06 1798.75 1942.66 1798.01 L1942.66 1793.31 Q1944.74 1794.45 1946.96 1795 Q1949.18 1795.56 1951.66 1795.56 Q1955.66 1795.56 1958 1793.45 Q1960.34 1791.34 1960.34 1787.73 Q1960.34 1784.12 1958 1782.02 Q1955.66 1779.91 1951.66 1779.91 Q1949.78 1779.91 1947.91 1780.33 Q1946.06 1780.74 1944.11 1781.62 L1944.11 1764.26 Z" fill="#000000" fill-rule="evenodd" fill-opacity="1" /><path clip-path="url(#clip270)" d="M2251.88 1794.89 L2259.51 1794.89 L2259.51 1768.52 L2251.2 1770.19 L2251.2 1765.93 L2259.47 1764.26 L2264.14 1764.26 L2264.14 1794.89 L2271.78 1794.89 L2271.78 1798.82 L2251.88 1798.82 L2251.88 1794.89 Z" fill="#000000" fill-rule="evenodd" fill-opacity="1" /><path clip-path="url(#clip270)" d="M2291.23 1767.34 Q2287.62 1767.34 2285.79 1770.9 Q2283.98 1774.45 2283.98 1781.58 Q2283.98 1788.68 2285.79 1792.25 Q2287.62 1795.79 2291.23 1795.79 Q2294.86 1795.79 2296.67 1792.25 Q2298.5 1788.68 2298.5 1781.58 Q2298.5 1774.45 2296.67 1770.9 Q2294.86 1767.34 2291.23 1767.34 M2291.23 1763.64 Q2297.04 1763.64 2300.09 1768.24 Q2303.17 1772.83 2303.17 1781.58 Q2303.17 1790.3 2300.09 1794.91 Q2297.04 1799.49 2291.23 1799.49 Q2285.42 1799.49 2282.34 1794.91 Q2279.28 1790.3 2279.28 1781.58 Q2279.28 1772.83 2282.34 1768.24 Q2285.42 1763.64 2291.23 1763.64 Z" fill="#000000" fill-rule="evenodd" fill-opacity="1" /><path clip-path="url(#clip270)" d="M2311.39 1792.94 L2316.27 1792.94 L2316.27 1798.82 L2311.39 1798.82 L2311.39 1792.94 Z" fill="#000000" fill-rule="evenodd" fill-opacity="1" /><path clip-path="url(#clip270)" d="M2336.46 1767.34 Q2332.85 1767.34 2331.02 1770.9 Q2329.21 1774.45 2329.21 1781.58 Q2329.21 1788.68 2331.02 1792.25 Q2332.85 1795.79 2336.46 1795.79 Q2340.09 1795.79 2341.9 1792.25 Q2343.73 1788.68 2343.73 1781.58 Q2343.73 1774.45 2341.9 1770.9 Q2340.09 1767.34 2336.46 1767.34 M2336.46 1763.64 Q2342.27 1763.64 2345.32 1768.24 Q2348.4 1772.83 2348.4 1781.58 Q2348.4 1790.3 2345.32 1794.91 Q2342.27 1799.49 2336.46 1799.49 Q2330.65 1799.49 2327.57 1794.91 Q2324.51 1790.3 2324.51 1781.58 Q2324.51 1772.83 2327.57 1768.24 Q2330.65 1763.64 2336.46 1763.64 Z" fill="#000000" fill-rule="evenodd" fill-opacity="1" /><path clip-path="url(#clip270)" d="M1234.91 1865.51 Q1234.91 1859.05 1232.24 1855.39 Q1229.6 1851.7 1224.95 1851.7 Q1220.31 1851.7 1217.63 1855.39 Q1214.99 1859.05 1214.99 1865.51 Q1214.99 1871.97 1217.63 1875.66 Q1220.31 1879.32 1224.95 1879.32 Q1229.6 1879.32 1232.24 1875.66 Q1234.91 1871.97 1234.91 1865.51 M1214.99 1853.06 Q1216.84 1849.88 1219.64 1848.35 Q1222.47 1846.79 1226.38 1846.79 Q1232.88 1846.79 1236.92 1851.95 Q1240.99 1857.11 1240.99 1865.51 Q1240.99 1873.91 1236.92 1879.07 Q1232.88 1884.22 1226.38 1884.22 Q1222.47 1884.22 1219.64 1882.7 Q1216.84 1881.14 1214.99 1877.95 L1214.99 1883.3 L1209.1 1883.3 L1209.1 1833.78 L1214.99 1833.78 L1214.99 1853.06 Z" fill="#000000" fill-rule="evenodd" fill-opacity="1" /><path clip-path="url(#clip270)" d="M1264.52 1851.76 Q1259.8 1851.76 1257.07 1855.45 Q1254.33 1859.11 1254.33 1865.51 Q1254.33 1871.91 1257.04 1875.6 Q1259.77 1879.26 1264.52 1879.26 Q1269.19 1879.26 1271.93 1875.57 Q1274.67 1871.87 1274.67 1865.51 Q1274.67 1859.17 1271.93 1855.48 Q1269.19 1851.76 1264.52 1851.76 M1264.52 1846.79 Q1272.15 1846.79 1276.51 1851.76 Q1280.88 1856.72 1280.88 1865.51 Q1280.88 1874.26 1276.51 1879.26 Q1272.15 1884.22 1264.52 1884.22 Q1256.84 1884.22 1252.48 1879.26 Q1248.16 1874.26 1248.16 1865.51 Q1248.16 1856.72 1252.48 1851.76 Q1256.84 1846.79 1264.52 1846.79 Z" fill="#000000" fill-rule="evenodd" fill-opacity="1" /><path clip-path="url(#clip270)" d="M1318.21 1847.65 L1305.32 1865 L1318.88 1883.3 L1311.97 1883.3 L1301.6 1869.3 L1291.22 1883.3 L1284.31 1883.3 L1298.16 1864.65 L1285.49 1847.65 L1292.4 1847.65 L1301.85 1860.35 L1311.3 1847.65 L1318.21 1847.65 Z" fill="#000000" fill-rule="evenodd" fill-opacity="1" /><path clip-path="url(#clip270)" d="M1324.19 1862.84 L1341.35 1862.84 L1341.35 1868.06 L1324.19 1868.06 L1324.19 1862.84 Z" fill="#000000" fill-rule="evenodd" fill-opacity="1" /><path clip-path="url(#clip270)" d="M1376.33 1849.02 L1376.33 1854.5 Q1373.85 1853.13 1371.33 1852.46 Q1368.85 1851.76 1366.3 1851.76 Q1360.61 1851.76 1357.45 1855.39 Q1354.3 1858.98 1354.3 1865.51 Q1354.3 1872.03 1357.45 1875.66 Q1360.61 1879.26 1366.3 1879.26 Q1368.85 1879.26 1371.33 1878.59 Q1373.85 1877.89 1376.33 1876.52 L1376.33 1881.93 Q1373.88 1883.08 1371.24 1883.65 Q1368.63 1884.22 1365.67 1884.22 Q1357.61 1884.22 1352.87 1879.16 Q1348.13 1874.1 1348.13 1865.51 Q1348.13 1856.79 1352.9 1851.79 Q1357.71 1846.79 1366.05 1846.79 Q1368.75 1846.79 1371.33 1847.37 Q1373.91 1847.91 1376.33 1849.02 Z" fill="#000000" fill-rule="evenodd" fill-opacity="1" /><path clip-path="url(#clip270)" d="M1400.33 1851.76 Q1395.62 1851.76 1392.88 1855.45 Q1390.14 1859.11 1390.14 1865.51 Q1390.14 1871.91 1392.85 1875.6 Q1395.59 1879.26 1400.33 1879.26 Q1405.01 1879.26 1407.74 1875.57 Q1410.48 1871.87 1410.48 1865.51 Q1410.48 1859.17 1407.74 1855.48 Q1405.01 1851.76 1400.33 1851.76 M1400.33 1846.79 Q1407.97 1846.79 1412.33 1851.76 Q1416.69 1856.72 1416.69 1865.51 Q1416.69 1874.26 1412.33 1879.26 Q1407.97 1884.22 1400.33 1884.22 Q1392.66 1884.22 1388.3 1879.26 Q1383.97 1874.26 1383.97 1865.51 Q1383.97 1856.72 1388.3 1851.76 Q1392.66 1846.79 1400.33 1846.79 Z" fill="#000000" fill-rule="evenodd" fill-opacity="1" /><path clip-path="url(#clip270)" d="M1454.02 1847.65 L1441.13 1865 L1454.69 1883.3 L1447.78 1883.3 L1437.41 1869.3 L1427.03 1883.3 L1420.13 1883.3 L1433.97 1864.65 L1421.3 1847.65 L1428.21 1847.65 L1437.66 1860.35 L1447.12 1847.65 L1454.02 1847.65 Z" fill="#000000" fill-rule="evenodd" fill-opacity="1" /><path clip-path="url(#clip270)" d="M1490.37 1860.61 L1490.37 1878.02 L1500.68 1878.02 Q1505.87 1878.02 1508.35 1875.88 Q1510.87 1873.72 1510.87 1869.3 Q1510.87 1864.84 1508.35 1862.74 Q1505.87 1860.61 1500.68 1860.61 L1490.37 1860.61 M1490.37 1841.06 L1490.37 1855.39 L1499.89 1855.39 Q1504.6 1855.39 1506.89 1853.64 Q1509.21 1851.85 1509.21 1848.23 Q1509.21 1844.63 1506.89 1842.85 Q1504.6 1841.06 1499.89 1841.06 L1490.37 1841.06 M1483.94 1835.78 L1500.36 1835.78 Q1507.72 1835.78 1511.7 1838.84 Q1515.67 1841.89 1515.67 1847.53 Q1515.67 1851.89 1513.64 1854.46 Q1511.6 1857.04 1507.65 1857.68 Q1512.4 1858.7 1515.01 1861.94 Q1517.65 1865.16 1517.65 1870 Q1517.65 1876.36 1513.32 1879.83 Q1508.99 1883.3 1501 1883.3 L1483.94 1883.3 L1483.94 1835.78 Z" fill="#000000" fill-rule="evenodd" fill-opacity="1" /><path clip-path="url(#clip270)" d="M1542.22 1851.76 Q1537.51 1851.76 1534.77 1855.45 Q1532.03 1859.11 1532.03 1865.51 Q1532.03 1871.91 1534.74 1875.6 Q1537.48 1879.26 1542.22 1879.26 Q1546.9 1879.26 1549.64 1875.57 Q1552.37 1871.87 1552.37 1865.51 Q1552.37 1859.17 1549.64 1855.48 Q1546.9 1851.76 1542.22 1851.76 M1542.22 1846.79 Q1549.86 1846.79 1554.22 1851.76 Q1558.58 1856.72 1558.58 1865.51 Q1558.58 1874.26 1554.22 1879.26 Q1549.86 1884.22 1542.22 1884.22 Q1534.55 1884.22 1530.19 1879.26 Q1525.86 1874.26 1525.86 1865.51 Q1525.86 1856.72 1530.19 1851.76 Q1534.55 1846.79 1542.22 1846.79 Z" fill="#000000" fill-rule="evenodd" fill-opacity="1" /><path clip-path="url(#clip270)" d="M1591.74 1853.06 L1591.74 1833.78 L1597.6 1833.78 L1597.6 1883.3 L1591.74 1883.3 L1591.74 1877.95 Q1589.9 1881.14 1587.07 1882.7 Q1584.26 1884.22 1580.32 1884.22 Q1573.86 1884.22 1569.78 1879.07 Q1565.74 1873.91 1565.74 1865.51 Q1565.74 1857.11 1569.78 1851.95 Q1573.86 1846.79 1580.32 1846.79 Q1584.26 1846.79 1587.07 1848.35 Q1589.9 1849.88 1591.74 1853.06 M1571.79 1865.51 Q1571.79 1871.97 1574.43 1875.66 Q1577.1 1879.32 1581.75 1879.32 Q1586.4 1879.32 1589.07 1875.66 Q1591.74 1871.97 1591.74 1865.51 Q1591.74 1859.05 1589.07 1855.39 Q1586.4 1851.7 1581.75 1851.7 Q1577.1 1851.7 1574.43 1855.39 Q1571.79 1859.05 1571.79 1865.51 Z" fill="#000000" fill-rule="evenodd" fill-opacity="1" /><path clip-path="url(#clip270)" d="M1624.5 1886.61 Q1622.01 1892.98 1619.66 1894.92 Q1617.3 1896.86 1613.36 1896.86 L1608.68 1896.86 L1608.68 1891.96 L1612.11 1891.96 Q1614.53 1891.96 1615.87 1890.81 Q1617.21 1889.67 1618.83 1885.4 L1619.88 1882.73 L1605.46 1847.65 L1611.67 1847.65 L1622.81 1875.53 L1633.95 1847.65 L1640.16 1847.65 L1624.5 1886.61 Z" fill="#000000" fill-rule="evenodd" fill-opacity="1" /><polyline clip-path="url(#clip272)" style="stroke:#000000; stroke-linecap:round; stroke-linejoin:round; stroke-width:2; stroke-opacity:0.1; fill:none" points="
  208.502,1589.66 2640.76,1589.66 
  "/>
<polyline clip-path="url(#clip272)" style="stroke:#000000; stroke-linecap:round; stroke-linejoin:round; stroke-width:2; stroke-opacity:0.1; fill:none" points="
  208.502,1365.3 2640.76,1365.3 
  "/>
<polyline clip-path="url(#clip272)" style="stroke:#000000; stroke-linecap:round; stroke-linejoin:round; stroke-width:2; stroke-opacity:0.1; fill:none" points="
  208.502,1140.94 2640.76,1140.94 
  "/>
<polyline clip-path="url(#clip272)" style="stroke:#000000; stroke-linecap:round; stroke-linejoin:round; stroke-width:2; stroke-opacity:0.1; fill:none" points="
  208.502,916.584 2640.76,916.584 
  "/>
<polyline clip-path="url(#clip272)" style="stroke:#000000; stroke-linecap:round; stroke-linejoin:round; stroke-width:2; stroke-opacity:0.1; fill:none" points="
  208.502,692.226 2640.76,692.226 
  "/>
<polyline clip-path="url(#clip272)" style="stroke:#000000; stroke-linecap:round; stroke-linejoin:round; stroke-width:2; stroke-opacity:0.1; fill:none" points="
  208.502,467.868 2640.76,467.868 
  "/>
<polyline clip-path="url(#clip272)" style="stroke:#000000; stroke-linecap:round; stroke-linejoin:round; stroke-width:2; stroke-opacity:0.1; fill:none" points="
  208.502,243.51 2640.76,243.51 
  "/>
<polyline clip-path="url(#clip270)" style="stroke:#000000; stroke-linecap:round; stroke-linejoin:round; stroke-width:4; stroke-opacity:1; fill:none" points="
  208.502,1734.12 208.502,127.792 
  "/>
<polyline clip-path="url(#clip270)" style="stroke:#000000; stroke-linecap:round; stroke-linejoin:round; stroke-width:4; stroke-opacity:1; fill:none" points="
  208.502,1589.66 227.399,1589.66 
  "/>
<polyline clip-path="url(#clip270)" style="stroke:#000000; stroke-linecap:round; stroke-linejoin:round; stroke-width:4; stroke-opacity:1; fill:none" points="
  208.502,1365.3 227.399,1365.3 
  "/>
<polyline clip-path="url(#clip270)" style="stroke:#000000; stroke-linecap:round; stroke-linejoin:round; stroke-width:4; stroke-opacity:1; fill:none" points="
  208.502,1140.94 227.399,1140.94 
  "/>
<polyline clip-path="url(#clip270)" style="stroke:#000000; stroke-linecap:round; stroke-linejoin:round; stroke-width:4; stroke-opacity:1; fill:none" points="
  208.502,916.584 227.399,916.584 
  "/>
<polyline clip-path="url(#clip270)" style="stroke:#000000; stroke-linecap:round; stroke-linejoin:round; stroke-width:4; stroke-opacity:1; fill:none" points="
  208.502,692.226 227.399,692.226 
  "/>
<polyline clip-path="url(#clip270)" style="stroke:#000000; stroke-linecap:round; stroke-linejoin:round; stroke-width:4; stroke-opacity:1; fill:none" points="
  208.502,467.868 227.399,467.868 
  "/>
<polyline clip-path="url(#clip270)" style="stroke:#000000; stroke-linecap:round; stroke-linejoin:round; stroke-width:4; stroke-opacity:1; fill:none" points="
  208.502,243.51 227.399,243.51 
  "/>
<path clip-path="url(#clip270)" d="M156.237 1575.46 Q152.626 1575.46 150.798 1579.02 Q148.992 1582.56 148.992 1589.69 Q148.992 1596.8 150.798 1600.36 Q152.626 1603.91 156.237 1603.91 Q159.872 1603.91 161.677 1600.36 Q163.506 1596.8 163.506 1589.69 Q163.506 1582.56 161.677 1579.02 Q159.872 1575.46 156.237 1575.46 M156.237 1571.75 Q162.048 1571.75 165.103 1576.36 Q168.182 1580.94 168.182 1589.69 Q168.182 1598.42 165.103 1603.03 Q162.048 1607.61 156.237 1607.61 Q150.427 1607.61 147.349 1603.03 Q144.293 1598.42 144.293 1589.69 Q144.293 1580.94 147.349 1576.36 Q150.427 1571.75 156.237 1571.75 Z" fill="#000000" fill-rule="evenodd" fill-opacity="1" /><path clip-path="url(#clip270)" d="M151.862 1378.64 L168.182 1378.64 L168.182 1382.58 L146.237 1382.58 L146.237 1378.64 Q148.899 1375.89 153.483 1371.26 Q158.089 1366.61 159.27 1365.26 Q161.515 1362.74 162.395 1361.01 Q163.298 1359.25 163.298 1357.56 Q163.298 1354.8 161.353 1353.07 Q159.432 1351.33 156.33 1351.33 Q154.131 1351.33 151.677 1352.09 Q149.247 1352.86 146.469 1354.41 L146.469 1349.69 Q149.293 1348.55 151.747 1347.97 Q154.2 1347.39 156.237 1347.39 Q161.608 1347.39 164.802 1350.08 Q167.997 1352.76 167.997 1357.26 Q167.997 1359.39 167.186 1361.31 Q166.399 1363.2 164.293 1365.8 Q163.714 1366.47 160.612 1369.69 Q157.511 1372.88 151.862 1378.64 Z" fill="#000000" fill-rule="evenodd" fill-opacity="1" /><path clip-path="url(#clip270)" d="M158.598 1127.74 L146.793 1146.18 L158.598 1146.18 L158.598 1127.74 M157.372 1123.66 L163.251 1123.66 L163.251 1146.18 L168.182 1146.18 L168.182 1150.07 L163.251 1150.07 L163.251 1158.22 L158.598 1158.22 L158.598 1150.07 L142.997 1150.07 L142.997 1145.56 L157.372 1123.66 Z" fill="#000000" fill-rule="evenodd" fill-opacity="1" /><path clip-path="url(#clip270)" d="M156.654 914.72 Q153.506 914.72 151.654 916.873 Q149.825 919.026 149.825 922.776 Q149.825 926.503 151.654 928.679 Q153.506 930.831 156.654 930.831 Q159.802 930.831 161.631 928.679 Q163.483 926.503 163.483 922.776 Q163.483 919.026 161.631 916.873 Q159.802 914.72 156.654 914.72 M165.936 900.068 L165.936 904.327 Q164.177 903.494 162.372 903.054 Q160.589 902.614 158.83 902.614 Q154.2 902.614 151.747 905.739 Q149.316 908.864 148.969 915.183 Q150.335 913.169 152.395 912.105 Q154.455 911.017 156.932 911.017 Q162.14 911.017 165.149 914.188 Q168.182 917.336 168.182 922.776 Q168.182 928.1 165.034 931.318 Q161.885 934.535 156.654 934.535 Q150.659 934.535 147.487 929.952 Q144.316 925.345 144.316 916.619 Q144.316 908.424 148.205 903.563 Q152.094 898.679 158.645 898.679 Q160.404 898.679 162.186 899.026 Q163.992 899.373 165.936 900.068 Z" fill="#000000" fill-rule="evenodd" fill-opacity="1" /><path clip-path="url(#clip270)" d="M156.33 693.094 Q152.997 693.094 151.075 694.876 Q149.177 696.659 149.177 699.784 Q149.177 702.909 151.075 704.691 Q152.997 706.473 156.33 706.473 Q159.663 706.473 161.585 704.691 Q163.506 702.886 163.506 699.784 Q163.506 696.659 161.585 694.876 Q159.686 693.094 156.33 693.094 M151.654 691.103 Q148.645 690.362 146.955 688.302 Q145.288 686.242 145.288 683.279 Q145.288 679.136 148.228 676.728 Q151.191 674.321 156.33 674.321 Q161.492 674.321 164.432 676.728 Q167.372 679.136 167.372 683.279 Q167.372 686.242 165.682 688.302 Q164.015 690.362 161.029 691.103 Q164.409 691.89 166.284 694.182 Q168.182 696.474 168.182 699.784 Q168.182 704.807 165.103 707.492 Q162.048 710.177 156.33 710.177 Q150.612 710.177 147.534 707.492 Q144.478 704.807 144.478 699.784 Q144.478 696.474 146.376 694.182 Q148.274 691.89 151.654 691.103 M149.941 683.719 Q149.941 686.404 151.608 687.909 Q153.298 689.413 156.33 689.413 Q159.339 689.413 161.029 687.909 Q162.742 686.404 162.742 683.719 Q162.742 681.034 161.029 679.529 Q159.339 678.025 156.33 678.025 Q153.298 678.025 151.608 679.529 Q149.941 681.034 149.941 683.719 Z" fill="#000000" fill-rule="evenodd" fill-opacity="1" /><path clip-path="url(#clip270)" d="M116.886 481.213 L124.525 481.213 L124.525 454.847 L116.214 456.514 L116.214 452.255 L124.478 450.588 L129.154 450.588 L129.154 481.213 L136.793 481.213 L136.793 485.148 L116.886 485.148 L116.886 481.213 Z" fill="#000000" fill-rule="evenodd" fill-opacity="1" /><path clip-path="url(#clip270)" d="M156.237 453.667 Q152.626 453.667 150.798 457.231 Q148.992 460.773 148.992 467.903 Q148.992 475.009 150.798 478.574 Q152.626 482.116 156.237 482.116 Q159.872 482.116 161.677 478.574 Q163.506 475.009 163.506 467.903 Q163.506 460.773 161.677 457.231 Q159.872 453.667 156.237 453.667 M156.237 449.963 Q162.048 449.963 165.103 454.569 Q168.182 459.153 168.182 467.903 Q168.182 476.629 165.103 481.236 Q162.048 485.819 156.237 485.819 Q150.427 485.819 147.349 481.236 Q144.293 476.629 144.293 467.903 Q144.293 459.153 147.349 454.569 Q150.427 449.963 156.237 449.963 Z" fill="#000000" fill-rule="evenodd" fill-opacity="1" /><path clip-path="url(#clip270)" d="M118.483 256.855 L126.122 256.855 L126.122 230.489 L117.812 232.156 L117.812 227.897 L126.076 226.23 L130.751 226.23 L130.751 256.855 L138.39 256.855 L138.39 260.79 L118.483 260.79 L118.483 256.855 Z" fill="#000000" fill-rule="evenodd" fill-opacity="1" /><path clip-path="url(#clip270)" d="M151.862 256.855 L168.182 256.855 L168.182 260.79 L146.237 260.79 L146.237 256.855 Q148.899 254.1 153.483 249.471 Q158.089 244.818 159.27 243.475 Q161.515 240.952 162.395 239.216 Q163.298 237.457 163.298 235.767 Q163.298 233.012 161.353 231.276 Q159.432 229.54 156.33 229.54 Q154.131 229.54 151.677 230.304 Q149.247 231.068 146.469 232.619 L146.469 227.897 Q149.293 226.762 151.747 226.184 Q154.2 225.605 156.237 225.605 Q161.608 225.605 164.802 228.29 Q167.997 230.975 167.997 235.466 Q167.997 237.596 167.186 239.517 Q166.399 241.415 164.293 244.008 Q163.714 244.679 160.612 247.897 Q157.511 251.091 151.862 256.855 Z" fill="#000000" fill-rule="evenodd" fill-opacity="1" /><path clip-path="url(#clip270)" d="M43.8463 1122.04 Q37.3851 1122.04 33.7248 1124.71 Q30.0327 1127.35 30.0327 1132 Q30.0327 1136.65 33.7248 1139.32 Q37.3851 1141.96 43.8463 1141.96 Q50.3075 1141.96 53.9996 1139.32 Q57.6599 1136.65 57.6599 1132 Q57.6599 1127.35 53.9996 1124.71 Q50.3075 1122.04 43.8463 1122.04 M31.4013 1141.96 Q28.2185 1140.12 26.6907 1137.31 Q25.1311 1134.48 25.1311 1130.57 Q25.1311 1124.07 30.2873 1120.03 Q35.4436 1115.96 43.8463 1115.96 Q52.249 1115.96 57.4052 1120.03 Q62.5615 1124.07 62.5615 1130.57 Q62.5615 1134.48 61.0337 1137.31 Q59.4741 1140.12 56.2912 1141.96 L61.6384 1141.96 L61.6384 1147.85 L12.1132 1147.85 L12.1132 1141.96 L31.4013 1141.96 Z" fill="#000000" fill-rule="evenodd" fill-opacity="1" /><path clip-path="url(#clip270)" d="M30.0964 1092.44 Q30.0964 1097.15 33.7885 1099.88 Q37.4488 1102.62 43.8463 1102.62 Q50.2438 1102.62 53.9359 1099.92 Q57.5962 1097.18 57.5962 1092.44 Q57.5962 1087.76 53.9041 1085.02 Q50.212 1082.28 43.8463 1082.28 Q37.5124 1082.28 33.8203 1085.02 Q30.0964 1087.76 30.0964 1092.44 M25.1311 1092.44 Q25.1311 1084.8 30.0964 1080.44 Q35.0616 1076.08 43.8463 1076.08 Q52.5991 1076.08 57.5962 1080.44 Q62.5615 1084.8 62.5615 1092.44 Q62.5615 1100.11 57.5962 1104.47 Q52.5991 1108.8 43.8463 1108.8 Q35.0616 1108.8 30.0964 1104.47 Q25.1311 1100.11 25.1311 1092.44 Z" fill="#000000" fill-rule="evenodd" fill-opacity="1" /><path clip-path="url(#clip270)" d="M25.9905 1038.74 L43.337 1051.63 L61.6384 1038.07 L61.6384 1044.98 L47.6339 1055.36 L61.6384 1065.73 L61.6384 1072.64 L42.9869 1058.79 L25.9905 1071.46 L25.9905 1064.55 L38.6901 1055.1 L25.9905 1045.65 L25.9905 1038.74 Z" fill="#000000" fill-rule="evenodd" fill-opacity="1" /><path clip-path="url(#clip270)" d="M41.1727 1032.76 L41.1727 1015.6 L46.3926 1015.6 L46.3926 1032.76 L41.1727 1032.76 Z" fill="#000000" fill-rule="evenodd" fill-opacity="1" /><path clip-path="url(#clip270)" d="M27.3591 980.623 L32.8336 980.623 Q31.465 983.106 30.7966 985.62 Q30.0964 988.103 30.0964 990.649 Q30.0964 996.346 33.7248 999.497 Q37.3214 1002.65 43.8463 1002.65 Q50.3711 1002.65 53.9996 999.497 Q57.5962 996.346 57.5962 990.649 Q57.5962 988.103 56.9278 985.62 Q56.2276 983.106 54.859 980.623 L60.2698 980.623 Q61.4156 983.074 61.9886 985.716 Q62.5615 988.325 62.5615 991.286 Q62.5615 999.338 57.5007 1004.08 Q52.44 1008.82 43.8463 1008.82 Q35.1253 1008.82 30.1282 1004.05 Q25.1311 999.243 25.1311 990.904 Q25.1311 988.198 25.704 985.62 Q26.2451 983.042 27.3591 980.623 Z" fill="#000000" fill-rule="evenodd" fill-opacity="1" /><path clip-path="url(#clip270)" d="M30.0964 956.624 Q30.0964 961.335 33.7885 964.072 Q37.4488 966.809 43.8463 966.809 Q50.2438 966.809 53.9359 964.104 Q57.5962 961.367 57.5962 956.624 Q57.5962 951.945 53.9041 949.208 Q50.212 946.471 43.8463 946.471 Q37.5124 946.471 33.8203 949.208 Q30.0964 951.945 30.0964 956.624 M25.1311 956.624 Q25.1311 948.985 30.0964 944.625 Q35.0616 940.264 43.8463 940.264 Q52.5991 940.264 57.5962 944.625 Q62.5615 948.985 62.5615 956.624 Q62.5615 964.295 57.5962 968.655 Q52.5991 972.984 43.8463 972.984 Q35.0616 972.984 30.0964 968.655 Q25.1311 964.295 25.1311 956.624 Z" fill="#000000" fill-rule="evenodd" fill-opacity="1" /><path clip-path="url(#clip270)" d="M25.9905 902.93 L43.337 915.82 L61.6384 902.261 L61.6384 909.168 L47.6339 919.544 L61.6384 929.92 L61.6384 936.827 L42.9869 922.982 L25.9905 935.649 L25.9905 928.742 L38.6901 919.289 L25.9905 909.836 L25.9905 902.93 Z" fill="#000000" fill-rule="evenodd" fill-opacity="1" /><path clip-path="url(#clip270)" d="M38.9447 866.581 L56.3549 866.581 L56.3549 856.269 Q56.3549 851.081 54.2224 848.598 Q52.0581 846.084 47.6339 846.084 Q43.1779 846.084 41.0772 848.598 Q38.9447 851.081 38.9447 856.269 L38.9447 866.581 M19.402 866.581 L33.7248 866.581 L33.7248 857.065 Q33.7248 852.354 31.9743 850.062 Q30.1919 847.739 26.5634 847.739 Q22.9668 847.739 21.1844 850.062 Q19.402 852.354 19.402 857.065 L19.402 866.581 M14.1184 873.011 L14.1184 856.587 Q14.1184 849.235 17.174 845.256 Q20.2295 841.278 25.8632 841.278 Q30.2237 841.278 32.8018 843.315 Q35.3799 845.352 36.0165 849.298 Q37.035 844.556 40.2815 841.946 Q43.4962 839.304 48.3341 839.304 Q54.6998 839.304 58.1691 843.633 Q61.6384 847.962 61.6384 855.951 L61.6384 873.011 L14.1184 873.011 Z" fill="#000000" fill-rule="evenodd" fill-opacity="1" /><path clip-path="url(#clip270)" d="M31.465 807.89 Q30.8921 808.876 30.6375 810.054 Q30.351 811.2 30.351 812.6 Q30.351 817.565 33.5975 820.239 Q36.8122 822.881 42.8596 822.881 L61.6384 822.881 L61.6384 828.769 L25.9905 828.769 L25.9905 822.881 L31.5287 822.881 Q28.2821 821.035 26.7225 818.075 Q25.1311 815.115 25.1311 810.881 Q25.1311 810.277 25.2266 809.545 Q25.2903 808.813 25.4494 807.921 L31.465 807.89 Z" fill="#000000" fill-rule="evenodd" fill-opacity="1" /><path clip-path="url(#clip270)" d="M43.719 785.546 Q43.719 792.644 45.3422 795.381 Q46.9655 798.118 50.8804 798.118 Q53.9996 798.118 55.8457 796.081 Q57.6599 794.012 57.6599 790.479 Q57.6599 785.61 54.2224 782.681 Q50.7531 779.721 45.0239 779.721 L43.719 779.721 L43.719 785.546 M41.3 773.865 L61.6384 773.865 L61.6384 779.721 L56.2276 779.721 Q59.4741 781.726 61.0337 784.718 Q62.5615 787.71 62.5615 792.039 Q62.5615 797.513 59.5059 800.76 Q56.4186 803.975 51.2623 803.975 Q45.2467 803.975 42.1912 799.964 Q39.1357 795.922 39.1357 787.933 L39.1357 779.721 L38.5628 779.721 Q34.5205 779.721 32.3244 782.395 Q30.0964 785.037 30.0964 789.843 Q30.0964 792.898 30.8284 795.795 Q31.5605 798.691 33.0246 801.365 L27.6137 801.365 Q26.3724 798.15 25.7677 795.126 Q25.1311 792.103 25.1311 789.238 Q25.1311 781.504 29.1415 777.684 Q33.1519 773.865 41.3 773.865 Z" fill="#000000" fill-rule="evenodd" fill-opacity="1" /><path clip-path="url(#clip270)" d="M25.9905 761.802 L25.9905 755.945 L61.6384 755.945 L61.6384 761.802 L25.9905 761.802 M12.1132 761.802 L12.1132 755.945 L19.5293 755.945 L19.5293 761.802 L12.1132 761.802 Z" fill="#000000" fill-rule="evenodd" fill-opacity="1" /><path clip-path="url(#clip270)" d="M40.1224 714.059 L61.6384 714.059 L61.6384 719.915 L40.3133 719.915 Q35.2526 719.915 32.7381 721.889 Q30.2237 723.862 30.2237 727.809 Q30.2237 732.551 33.2474 735.289 Q36.2711 738.026 41.491 738.026 L61.6384 738.026 L61.6384 743.914 L25.9905 743.914 L25.9905 738.026 L31.5287 738.026 Q28.314 735.925 26.7225 733.092 Q25.1311 730.228 25.1311 726.504 Q25.1311 720.361 28.9505 717.21 Q32.7381 714.059 40.1224 714.059 Z" fill="#000000" fill-rule="evenodd" fill-opacity="1" /><path clip-path="url(#clip270)" d="M826.817 20.1573 L815.717 50.2555 L837.957 50.2555 L826.817 20.1573 M822.199 12.096 L831.475 12.096 L854.525 72.576 L846.018 72.576 L840.509 57.061 L813.246 57.061 L807.737 72.576 L799.108 72.576 L822.199 12.096 Z" fill="#000000" fill-rule="evenodd" fill-opacity="1" /><path clip-path="url(#clip270)" d="M900.746 45.1919 L900.746 72.576 L893.292 72.576 L893.292 45.4349 Q893.292 38.994 890.78 35.7938 Q888.269 32.5936 883.246 32.5936 Q877.21 32.5936 873.726 36.4419 Q870.242 40.2903 870.242 46.9338 L870.242 72.576 L862.748 72.576 L862.748 27.2059 L870.242 27.2059 L870.242 34.2544 Q872.916 30.163 876.521 28.1376 Q880.167 26.1121 884.907 26.1121 Q892.725 26.1121 896.735 30.9732 Q900.746 35.7938 900.746 45.1919 Z" fill="#000000" fill-rule="evenodd" fill-opacity="1" /><path clip-path="url(#clip270)" d="M915.612 27.2059 L923.066 27.2059 L923.066 72.576 L915.612 72.576 L915.612 27.2059 M915.612 9.54393 L923.066 9.54393 L923.066 18.9825 L915.612 18.9825 L915.612 9.54393 Z" fill="#000000" fill-rule="evenodd" fill-opacity="1" /><path clip-path="url(#clip270)" d="M973.986 35.9153 Q976.781 30.8922 980.67 28.5022 Q984.559 26.1121 989.825 26.1121 Q996.914 26.1121 1000.76 31.0947 Q1004.61 36.0368 1004.61 45.1919 L1004.61 72.576 L997.117 72.576 L997.117 45.4349 Q997.117 38.913 994.808 35.7533 Q992.499 32.5936 987.759 32.5936 Q981.966 32.5936 978.604 36.4419 Q975.242 40.2903 975.242 46.9338 L975.242 72.576 L967.748 72.576 L967.748 45.4349 Q967.748 38.8725 965.439 35.7533 Q963.13 32.5936 958.309 32.5936 Q952.597 32.5936 949.235 36.4824 Q945.873 40.3308 945.873 46.9338 L945.873 72.576 L938.379 72.576 L938.379 27.2059 L945.873 27.2059 L945.873 34.2544 Q948.425 30.082 951.99 28.0971 Q955.554 26.1121 960.456 26.1121 Q965.398 26.1121 968.841 28.6237 Q972.325 31.1352 973.986 35.9153 Z" fill="#000000" fill-rule="evenodd" fill-opacity="1" /><path clip-path="url(#clip270)" d="M1040.1 49.7694 Q1031.06 49.7694 1027.58 51.8354 Q1024.1 53.9013 1024.1 58.8839 Q1024.1 62.8538 1026.69 65.2034 Q1029.32 67.5124 1033.82 67.5124 Q1040.02 67.5124 1043.74 63.1374 Q1047.51 58.7219 1047.51 51.4303 L1047.51 49.7694 L1040.1 49.7694 M1054.96 46.6907 L1054.96 72.576 L1047.51 72.576 L1047.51 65.6895 Q1044.96 69.8214 1041.15 71.8063 Q1037.34 73.7508 1031.83 73.7508 Q1024.87 73.7508 1020.73 69.8619 Q1016.64 65.9325 1016.64 59.3701 Q1016.64 51.7138 1021.75 47.825 Q1026.89 43.9361 1037.06 43.9361 L1047.51 43.9361 L1047.51 43.2069 Q1047.51 38.0623 1044.11 35.2672 Q1040.74 32.4315 1034.63 32.4315 Q1030.74 32.4315 1027.05 33.3632 Q1023.37 34.295 1019.96 36.1584 L1019.96 29.2718 Q1024.06 27.692 1027.9 26.9223 Q1031.75 26.1121 1035.4 26.1121 Q1045.24 26.1121 1050.1 31.2163 Q1054.96 36.3204 1054.96 46.6907 Z" fill="#000000" fill-rule="evenodd" fill-opacity="1" /><path clip-path="url(#clip270)" d="M1070.32 9.54393 L1077.77 9.54393 L1077.77 72.576 L1070.32 72.576 L1070.32 9.54393 Z" fill="#000000" fill-rule="evenodd" fill-opacity="1" /><path clip-path="url(#clip270)" d="M1122.29 28.5427 L1122.29 35.5912 Q1119.13 33.9709 1115.73 33.1607 Q1112.32 32.3505 1108.68 32.3505 Q1103.13 32.3505 1100.33 34.0519 Q1097.58 35.7533 1097.58 39.156 Q1097.58 41.7486 1099.56 43.2475 Q1101.55 44.7058 1107.54 46.0426 L1110.1 46.6097 Q1118.04 48.3111 1121.36 51.4303 Q1124.72 54.509 1124.72 60.0587 Q1124.72 66.3781 1119.7 70.0644 Q1114.71 73.7508 1105.96 73.7508 Q1102.32 73.7508 1098.35 73.0216 Q1094.42 72.3329 1090.04 70.9151 L1090.04 63.2184 Q1094.18 65.3654 1098.19 66.4591 Q1102.2 67.5124 1106.13 67.5124 Q1111.39 67.5124 1114.23 65.73 Q1117.06 63.9071 1117.06 60.6258 Q1117.06 57.5877 1115 55.9673 Q1112.97 54.3469 1106.05 52.8481 L1103.45 52.2405 Q1096.53 50.7821 1093.45 47.7845 Q1090.37 44.7463 1090.37 39.4801 Q1090.37 33.0797 1094.91 29.5959 Q1099.44 26.1121 1107.79 26.1121 Q1111.92 26.1121 1115.57 26.7198 Q1119.21 27.3274 1122.29 28.5427 Z" fill="#000000" fill-rule="evenodd" fill-opacity="1" /><path clip-path="url(#clip270)" d="M1138.49 62.2867 L1147.04 62.2867 L1147.04 69.2543 L1140.4 82.2172 L1135.17 82.2172 L1138.49 69.2543 L1138.49 62.2867 Z" fill="#000000" fill-rule="evenodd" fill-opacity="1" /><path clip-path="url(#clip270)" d="M1197.84 43.6931 L1197.84 65.8515 L1210.96 65.8515 Q1217.57 65.8515 1220.73 63.1374 Q1223.93 60.3828 1223.93 54.752 Q1223.93 49.0808 1220.73 46.4072 Q1217.57 43.6931 1210.96 43.6931 L1197.84 43.6931 M1197.84 18.8205 L1197.84 37.0496 L1209.95 37.0496 Q1215.95 37.0496 1218.86 34.8216 Q1221.82 32.5531 1221.82 27.935 Q1221.82 23.3575 1218.86 21.089 Q1215.95 18.8205 1209.95 18.8205 L1197.84 18.8205 M1189.66 12.096 L1210.56 12.096 Q1219.92 12.096 1224.98 15.9849 Q1230.04 19.8737 1230.04 27.0438 Q1230.04 32.5936 1227.45 35.8748 Q1224.86 39.156 1219.84 39.9662 Q1225.87 41.2625 1229.19 45.3944 Q1232.56 49.4858 1232.56 55.6432 Q1232.56 63.745 1227.05 68.1605 Q1221.54 72.576 1211.37 72.576 L1189.66 72.576 L1189.66 12.096 Z" fill="#000000" fill-rule="evenodd" fill-opacity="1" /><path clip-path="url(#clip270)" d="M1263.83 32.4315 Q1257.83 32.4315 1254.35 37.1306 Q1250.87 41.7891 1250.87 49.9314 Q1250.87 58.0738 1254.31 62.7728 Q1257.79 67.4314 1263.83 67.4314 Q1269.78 67.4314 1273.27 62.7323 Q1276.75 58.0333 1276.75 49.9314 Q1276.75 41.8701 1273.27 37.1711 Q1269.78 32.4315 1263.83 32.4315 M1263.83 26.1121 Q1273.55 26.1121 1279.1 32.4315 Q1284.65 38.7509 1284.65 49.9314 Q1284.65 61.0714 1279.1 67.4314 Q1273.55 73.7508 1263.83 73.7508 Q1254.07 73.7508 1248.52 67.4314 Q1243.01 61.0714 1243.01 49.9314 Q1243.01 38.7509 1248.52 32.4315 Q1254.07 26.1121 1263.83 26.1121 Z" fill="#000000" fill-rule="evenodd" fill-opacity="1" /><path clip-path="url(#clip270)" d="M1332.17 27.2059 L1315.76 49.2833 L1333.02 72.576 L1324.23 72.576 L1311.02 54.752 L1297.82 72.576 L1289.02 72.576 L1306.65 48.8377 L1290.52 27.2059 L1299.31 27.2059 L1311.35 43.369 L1323.38 27.2059 L1332.17 27.2059 Z" fill="#000000" fill-rule="evenodd" fill-opacity="1" /><path clip-path="url(#clip270)" d="M1339.78 46.5287 L1361.62 46.5287 L1361.62 53.1722 L1339.78 53.1722 L1339.78 46.5287 Z" fill="#000000" fill-rule="evenodd" fill-opacity="1" /><path clip-path="url(#clip270)" d="M1419.1 16.7545 L1419.1 25.383 Q1414.97 21.5346 1410.27 19.6307 Q1405.61 17.7268 1400.34 17.7268 Q1389.97 17.7268 1384.46 24.0867 Q1378.95 30.4061 1378.95 42.3968 Q1378.95 54.3469 1384.46 60.7069 Q1389.97 67.0263 1400.34 67.0263 Q1405.61 67.0263 1410.27 65.1223 Q1414.97 63.2184 1419.1 59.3701 L1419.1 67.9175 Q1414.81 70.8341 1409.98 72.2924 Q1405.2 73.7508 1399.86 73.7508 Q1386.12 73.7508 1378.23 65.3654 Q1370.33 56.9395 1370.33 42.3968 Q1370.33 27.8135 1378.23 19.4281 Q1386.12 11.0023 1399.86 11.0023 Q1405.29 11.0023 1410.07 12.4606 Q1414.89 13.8784 1419.1 16.7545 Z" fill="#000000" fill-rule="evenodd" fill-opacity="1" /><path clip-path="url(#clip270)" d="M1449 32.4315 Q1443 32.4315 1439.52 37.1306 Q1436.03 41.7891 1436.03 49.9314 Q1436.03 58.0738 1439.48 62.7728 Q1442.96 67.4314 1449 67.4314 Q1454.95 67.4314 1458.43 62.7323 Q1461.92 58.0333 1461.92 49.9314 Q1461.92 41.8701 1458.43 37.1711 Q1454.95 32.4315 1449 32.4315 M1449 26.1121 Q1458.72 26.1121 1464.27 32.4315 Q1469.82 38.7509 1469.82 49.9314 Q1469.82 61.0714 1464.27 67.4314 Q1458.72 73.7508 1449 73.7508 Q1439.23 73.7508 1433.68 67.4314 Q1428.17 61.0714 1428.17 49.9314 Q1428.17 38.7509 1433.68 32.4315 Q1439.23 26.1121 1449 26.1121 Z" fill="#000000" fill-rule="evenodd" fill-opacity="1" /><path clip-path="url(#clip270)" d="M1517.33 27.2059 L1500.93 49.2833 L1518.18 72.576 L1509.39 72.576 L1496.19 54.752 L1482.98 72.576 L1474.19 72.576 L1491.81 48.8377 L1475.69 27.2059 L1484.48 27.2059 L1496.51 43.369 L1508.54 27.2059 L1517.33 27.2059 Z" fill="#000000" fill-rule="evenodd" fill-opacity="1" /><path clip-path="url(#clip270)" d="M1562.46 14.324 L1562.46 27.2059 L1577.81 27.2059 L1577.81 32.9987 L1562.46 32.9987 L1562.46 57.6282 Q1562.46 63.1779 1563.96 64.7578 Q1565.5 66.3376 1570.16 66.3376 L1577.81 66.3376 L1577.81 72.576 L1570.16 72.576 Q1561.53 72.576 1558.25 69.3758 Q1554.97 66.1351 1554.97 57.6282 L1554.97 32.9987 L1549.5 32.9987 L1549.5 27.2059 L1554.97 27.2059 L1554.97 14.324 L1562.46 14.324 Z" fill="#000000" fill-rule="evenodd" fill-opacity="1" /><path clip-path="url(#clip270)" d="M1613.91 34.1734 Q1612.65 33.4443 1611.15 33.1202 Q1609.69 32.7556 1607.91 32.7556 Q1601.59 32.7556 1598.19 36.8875 Q1594.83 40.9789 1594.83 48.6757 L1594.83 72.576 L1587.33 72.576 L1587.33 27.2059 L1594.83 27.2059 L1594.83 34.2544 Q1597.18 30.1225 1600.94 28.1376 Q1604.71 26.1121 1610.1 26.1121 Q1610.87 26.1121 1611.8 26.2337 Q1612.73 26.3147 1613.87 26.5172 L1613.91 34.1734 Z" fill="#000000" fill-rule="evenodd" fill-opacity="1" /><path clip-path="url(#clip270)" d="M1642.34 49.7694 Q1633.31 49.7694 1629.83 51.8354 Q1626.34 53.9013 1626.34 58.8839 Q1626.34 62.8538 1628.94 65.2034 Q1631.57 67.5124 1636.07 67.5124 Q1642.26 67.5124 1645.99 63.1374 Q1649.76 58.7219 1649.76 51.4303 L1649.76 49.7694 L1642.34 49.7694 M1657.21 46.6907 L1657.21 72.576 L1649.76 72.576 L1649.76 65.6895 Q1647.21 69.8214 1643.4 71.8063 Q1639.59 73.7508 1634.08 73.7508 Q1627.11 73.7508 1622.98 69.8619 Q1618.89 65.9325 1618.89 59.3701 Q1618.89 51.7138 1623.99 47.825 Q1629.14 43.9361 1639.31 43.9361 L1649.76 43.9361 L1649.76 43.2069 Q1649.76 38.0623 1646.36 35.2672 Q1642.99 32.4315 1636.88 32.4315 Q1632.99 32.4315 1629.3 33.3632 Q1625.61 34.295 1622.21 36.1584 L1622.21 29.2718 Q1626.3 27.692 1630.15 26.9223 Q1634 26.1121 1637.65 26.1121 Q1647.49 26.1121 1652.35 31.2163 Q1657.21 36.3204 1657.21 46.6907 Z" fill="#000000" fill-rule="evenodd" fill-opacity="1" /><path clip-path="url(#clip270)" d="M1710.28 45.1919 L1710.28 72.576 L1702.82 72.576 L1702.82 45.4349 Q1702.82 38.994 1700.31 35.7938 Q1697.8 32.5936 1692.78 32.5936 Q1686.74 32.5936 1683.26 36.4419 Q1679.78 40.2903 1679.78 46.9338 L1679.78 72.576 L1672.28 72.576 L1672.28 27.2059 L1679.78 27.2059 L1679.78 34.2544 Q1682.45 30.163 1686.05 28.1376 Q1689.7 26.1121 1694.44 26.1121 Q1702.26 26.1121 1706.27 30.9732 Q1710.28 35.7938 1710.28 45.1919 Z" fill="#000000" fill-rule="evenodd" fill-opacity="1" /><path clip-path="url(#clip270)" d="M1754.07 28.5427 L1754.07 35.5912 Q1750.91 33.9709 1747.51 33.1607 Q1744.1 32.3505 1740.46 32.3505 Q1734.91 32.3505 1732.11 34.0519 Q1729.36 35.7533 1729.36 39.156 Q1729.36 41.7486 1731.34 43.2475 Q1733.33 44.7058 1739.32 46.0426 L1741.88 46.6097 Q1749.82 48.3111 1753.14 51.4303 Q1756.5 54.509 1756.5 60.0587 Q1756.5 66.3781 1751.48 70.0644 Q1746.49 73.7508 1737.74 73.7508 Q1734.1 73.7508 1730.13 73.0216 Q1726.2 72.3329 1721.82 70.9151 L1721.82 63.2184 Q1725.96 65.3654 1729.97 66.4591 Q1733.98 67.5124 1737.91 67.5124 Q1743.17 67.5124 1746.01 65.73 Q1748.84 63.9071 1748.84 60.6258 Q1748.84 57.5877 1746.78 55.9673 Q1744.75 54.3469 1737.82 52.8481 L1735.23 52.2405 Q1728.3 50.7821 1725.23 47.7845 Q1722.15 44.7463 1722.15 39.4801 Q1722.15 33.0797 1726.68 29.5959 Q1731.22 26.1121 1739.57 26.1121 Q1743.7 26.1121 1747.34 26.7198 Q1750.99 27.3274 1754.07 28.5427 Z" fill="#000000" fill-rule="evenodd" fill-opacity="1" /><path clip-path="url(#clip270)" d="M1791.34 9.54393 L1791.34 15.7418 L1784.21 15.7418 Q1780.2 15.7418 1778.62 17.3622 Q1777.08 18.9825 1777.08 23.1955 L1777.08 27.2059 L1789.35 27.2059 L1789.35 32.9987 L1777.08 32.9987 L1777.08 72.576 L1769.58 72.576 L1769.58 32.9987 L1762.45 32.9987 L1762.45 27.2059 L1769.58 27.2059 L1769.58 24.0462 Q1769.58 16.471 1773.11 13.0277 Q1776.63 9.54393 1784.29 9.54393 L1791.34 9.54393 Z" fill="#000000" fill-rule="evenodd" fill-opacity="1" /><path clip-path="url(#clip270)" d="M1815.16 32.4315 Q1809.16 32.4315 1805.68 37.1306 Q1802.19 41.7891 1802.19 49.9314 Q1802.19 58.0738 1805.64 62.7728 Q1809.12 67.4314 1815.16 67.4314 Q1821.11 67.4314 1824.59 62.7323 Q1828.08 58.0333 1828.08 49.9314 Q1828.08 41.8701 1824.59 37.1711 Q1821.11 32.4315 1815.16 32.4315 M1815.16 26.1121 Q1824.88 26.1121 1830.43 32.4315 Q1835.98 38.7509 1835.98 49.9314 Q1835.98 61.0714 1830.43 67.4314 Q1824.88 73.7508 1815.16 73.7508 Q1805.39 73.7508 1799.84 67.4314 Q1794.33 61.0714 1794.33 49.9314 Q1794.33 38.7509 1799.84 32.4315 Q1805.39 26.1121 1815.16 26.1121 Z" fill="#000000" fill-rule="evenodd" fill-opacity="1" /><path clip-path="url(#clip270)" d="M1874.62 34.1734 Q1873.37 33.4443 1871.87 33.1202 Q1870.41 32.7556 1868.63 32.7556 Q1862.31 32.7556 1858.91 36.8875 Q1855.54 40.9789 1855.54 48.6757 L1855.54 72.576 L1848.05 72.576 L1848.05 27.2059 L1855.54 27.2059 L1855.54 34.2544 Q1857.89 30.1225 1861.66 28.1376 Q1865.43 26.1121 1870.82 26.1121 Q1871.59 26.1121 1872.52 26.2337 Q1873.45 26.3147 1874.58 26.5172 L1874.62 34.1734 Z" fill="#000000" fill-rule="evenodd" fill-opacity="1" /><path clip-path="url(#clip270)" d="M1916.31 35.9153 Q1919.1 30.8922 1922.99 28.5022 Q1926.88 26.1121 1932.15 26.1121 Q1939.24 26.1121 1943.08 31.0947 Q1946.93 36.0368 1946.93 45.1919 L1946.93 72.576 L1939.44 72.576 L1939.44 45.4349 Q1939.44 38.913 1937.13 35.7533 Q1934.82 32.5936 1930.08 32.5936 Q1924.29 32.5936 1920.93 36.4419 Q1917.56 40.2903 1917.56 46.9338 L1917.56 72.576 L1910.07 72.576 L1910.07 45.4349 Q1910.07 38.8725 1907.76 35.7533 Q1905.45 32.5936 1900.63 32.5936 Q1894.92 32.5936 1891.56 36.4824 Q1888.19 40.3308 1888.19 46.9338 L1888.19 72.576 L1880.7 72.576 L1880.7 27.2059 L1888.19 27.2059 L1888.19 34.2544 Q1890.75 30.082 1894.31 28.0971 Q1897.88 26.1121 1902.78 26.1121 Q1907.72 26.1121 1911.16 28.6237 Q1914.65 31.1352 1916.31 35.9153 Z" fill="#000000" fill-rule="evenodd" fill-opacity="1" /><path clip-path="url(#clip270)" d="M2000.61 48.0275 L2000.61 51.6733 L1966.34 51.6733 Q1966.82 59.3701 1970.95 63.421 Q1975.13 67.4314 1982.54 67.4314 Q1986.83 67.4314 1990.84 66.3781 Q1994.89 65.3249 1998.86 63.2184 L1998.86 70.267 Q1994.85 71.9684 1990.64 72.8596 Q1986.43 73.7508 1982.09 73.7508 Q1971.24 73.7508 1964.88 67.4314 Q1958.56 61.1119 1958.56 50.3365 Q1958.56 39.1965 1964.55 32.6746 Q1970.59 26.1121 1980.8 26.1121 Q1989.95 26.1121 1995.26 32.0264 Q2000.61 37.9003 2000.61 48.0275 M1993.15 45.84 Q1993.07 39.7232 1989.71 36.0774 Q1986.39 32.4315 1980.88 32.4315 Q1974.64 32.4315 1970.87 35.9558 Q1967.15 39.4801 1966.58 45.8805 L1993.15 45.84 Z" fill="#000000" fill-rule="evenodd" fill-opacity="1" /><path clip-path="url(#clip270)" d="M2042.7 34.0924 L2042.7 9.54393 L2050.15 9.54393 L2050.15 72.576 L2042.7 72.576 L2042.7 65.7705 Q2040.35 69.8214 2036.74 71.8063 Q2033.18 73.7508 2028.15 73.7508 Q2019.93 73.7508 2014.74 67.1883 Q2009.6 60.6258 2009.6 49.9314 Q2009.6 39.2371 2014.74 32.6746 Q2019.93 26.1121 2028.15 26.1121 Q2033.18 26.1121 2036.74 28.0971 Q2040.35 30.0415 2042.7 34.0924 M2017.3 49.9314 Q2017.3 58.1548 2020.66 62.8538 Q2024.06 67.5124 2029.98 67.5124 Q2035.89 67.5124 2039.29 62.8538 Q2042.7 58.1548 2042.7 49.9314 Q2042.7 41.7081 2039.29 37.0496 Q2035.89 32.3505 2029.98 32.3505 Q2024.06 32.3505 2020.66 37.0496 Q2017.3 41.7081 2017.3 49.9314 Z" fill="#000000" fill-rule="evenodd" fill-opacity="1" /><circle clip-path="url(#clip272)" cx="870.21" cy="1333.52" r="14.4" fill="#009af9" fill-rule="evenodd" fill-opacity="1" stroke="#000000" stroke-opacity="1" stroke-width="3.84"/>
<circle clip-path="url(#clip272)" cx="1751.25" cy="709.873" r="14.4" fill="#009af9" fill-rule="evenodd" fill-opacity="1" stroke="#000000" stroke-opacity="1" stroke-width="3.84"/>
<circle clip-path="url(#clip272)" cx="1362.26" cy="931.7" r="14.4" fill="#009af9" fill-rule="evenodd" fill-opacity="1" stroke="#000000" stroke-opacity="1" stroke-width="3.84"/>
<circle clip-path="url(#clip272)" cx="1321.08" cy="938.08" r="14.4" fill="#009af9" fill-rule="evenodd" fill-opacity="1" stroke="#000000" stroke-opacity="1" stroke-width="3.84"/>
<circle clip-path="url(#clip272)" cx="831.713" cy="1384.31" r="14.4" fill="#009af9" fill-rule="evenodd" fill-opacity="1" stroke="#000000" stroke-opacity="1" stroke-width="3.84"/>
<circle clip-path="url(#clip272)" cx="2253.58" cy="1071.67" r="14.4" fill="#009af9" fill-rule="evenodd" fill-opacity="1" stroke="#000000" stroke-opacity="1" stroke-width="3.84"/>
<circle clip-path="url(#clip272)" cx="2014.68" cy="222.27" r="14.4" fill="#009af9" fill-rule="evenodd" fill-opacity="1" stroke="#000000" stroke-opacity="1" stroke-width="3.84"/>
<circle clip-path="url(#clip272)" cx="1611.53" cy="711.629" r="14.4" fill="#009af9" fill-rule="evenodd" fill-opacity="1" stroke="#000000" stroke-opacity="1" stroke-width="3.84"/>
<circle clip-path="url(#clip272)" cx="1768.76" cy="627.59" r="14.4" fill="#009af9" fill-rule="evenodd" fill-opacity="1" stroke="#000000" stroke-opacity="1" stroke-width="3.84"/>
<circle clip-path="url(#clip272)" cx="1168.1" cy="938.08" r="14.4" fill="#009af9" fill-rule="evenodd" fill-opacity="1" stroke="#000000" stroke-opacity="1" stroke-width="3.84"/>
<circle clip-path="url(#clip272)" cx="1002.65" cy="1172.57" r="14.4" fill="#009af9" fill-rule="evenodd" fill-opacity="1" stroke="#000000" stroke-opacity="1" stroke-width="3.84"/>
<circle clip-path="url(#clip272)" cx="1771.11" cy="620.402" r="14.4" fill="#009af9" fill-rule="evenodd" fill-opacity="1" stroke="#000000" stroke-opacity="1" stroke-width="3.84"/>
<circle clip-path="url(#clip272)" cx="1627" cy="717.441" r="14.4" fill="#009af9" fill-rule="evenodd" fill-opacity="1" stroke="#000000" stroke-opacity="1" stroke-width="3.84"/>
<circle clip-path="url(#clip272)" cx="1443.23" cy="489.371" r="14.4" fill="#009af9" fill-rule="evenodd" fill-opacity="1" stroke="#000000" stroke-opacity="1" stroke-width="3.84"/>
<circle clip-path="url(#clip272)" cx="2164.85" cy="173.254" r="14.4" fill="#009af9" fill-rule="evenodd" fill-opacity="1" stroke="#000000" stroke-opacity="1" stroke-width="3.84"/>
<circle clip-path="url(#clip272)" cx="2219.12" cy="1018.81" r="14.4" fill="#009af9" fill-rule="evenodd" fill-opacity="1" stroke="#000000" stroke-opacity="1" stroke-width="3.84"/>
<circle clip-path="url(#clip272)" cx="1110.4" cy="863.291" r="14.4" fill="#009af9" fill-rule="evenodd" fill-opacity="1" stroke="#000000" stroke-opacity="1" stroke-width="3.84"/>
<circle clip-path="url(#clip272)" cx="1356.62" cy="1054.03" r="14.4" fill="#009af9" fill-rule="evenodd" fill-opacity="1" stroke="#000000" stroke-opacity="1" stroke-width="3.84"/>
<circle clip-path="url(#clip272)" cx="515.776" cy="1589.66" r="14.4" fill="#009af9" fill-rule="evenodd" fill-opacity="1" stroke="#000000" stroke-opacity="1" stroke-width="3.84"/>
<circle clip-path="url(#clip272)" cx="277.339" cy="1688.65" r="14.4" fill="#009af9" fill-rule="evenodd" fill-opacity="1" stroke="#000000" stroke-opacity="1" stroke-width="3.84"/>
<circle clip-path="url(#clip272)" cx="961.422" cy="1279.11" r="14.4" fill="#009af9" fill-rule="evenodd" fill-opacity="1" stroke="#000000" stroke-opacity="1" stroke-width="3.84"/>
<circle clip-path="url(#clip272)" cx="1426.43" cy="867.178" r="14.4" fill="#009af9" fill-rule="evenodd" fill-opacity="1" stroke="#000000" stroke-opacity="1" stroke-width="3.84"/>
<circle clip-path="url(#clip272)" cx="1515.91" cy="885.743" r="14.4" fill="#009af9" fill-rule="evenodd" fill-opacity="1" stroke="#000000" stroke-opacity="1" stroke-width="3.84"/>
<circle clip-path="url(#clip272)" cx="1417.02" cy="702.58" r="14.4" fill="#009af9" fill-rule="evenodd" fill-opacity="1" stroke="#000000" stroke-opacity="1" stroke-width="3.84"/>
<circle clip-path="url(#clip272)" cx="639.159" cy="1515.71" r="14.4" fill="#009af9" fill-rule="evenodd" fill-opacity="1" stroke="#000000" stroke-opacity="1" stroke-width="3.84"/>
<circle clip-path="url(#clip272)" cx="2571.92" cy="888.475" r="14.4" fill="#009af9" fill-rule="evenodd" fill-opacity="1" stroke="#000000" stroke-opacity="1" stroke-width="3.84"/>
<circle clip-path="url(#clip272)" cx="518.176" cy="1460.66" r="14.4" fill="#009af9" fill-rule="evenodd" fill-opacity="1" stroke="#000000" stroke-opacity="1" stroke-width="3.84"/>
<circle clip-path="url(#clip272)" cx="1615.49" cy="862.332" r="14.4" fill="#009af9" fill-rule="evenodd" fill-opacity="1" stroke="#000000" stroke-opacity="1" stroke-width="3.84"/>
<polyline clip-path="url(#clip272)" style="stroke:#e26f46; stroke-linecap:round; stroke-linejoin:round; stroke-width:16; stroke-opacity:1; fill:none" points="
  277.339,1510.32 300.517,1498.8 323.694,1487.29 346.872,1475.77 370.049,1464.26 393.227,1452.74 416.405,1441.23 439.582,1429.71 462.76,1418.2 485.937,1406.68 
  509.115,1395.17 532.292,1383.65 555.47,1372.14 578.648,1360.62 601.825,1349.11 625.003,1337.59 648.18,1326.08 671.358,1314.56 694.535,1303.05 717.713,1291.53 
  740.891,1280.02 764.068,1268.5 787.246,1256.99 810.423,1245.47 833.601,1233.96 856.778,1222.44 879.956,1210.93 903.134,1199.41 926.311,1187.9 949.489,1176.38 
  972.666,1164.87 995.844,1153.35 1019.02,1141.84 1042.2,1130.32 1065.38,1118.81 1088.55,1107.29 1111.73,1095.78 1134.91,1084.26 1158.09,1072.75 1181.26,1061.23 
  1204.44,1049.72 1227.62,1038.2 1250.8,1026.69 1273.97,1015.17 1297.15,1003.66 1320.33,992.141 1343.51,980.626 1366.68,969.111 1389.86,957.596 1413.04,946.081 
  1436.22,934.566 1459.4,923.051 1482.57,911.536 1505.75,900.021 1528.93,888.506 1552.11,876.991 1575.28,865.476 1598.46,853.961 1621.64,842.446 1644.82,830.93 
  1667.99,819.415 1691.17,807.9 1714.35,796.385 1737.53,784.87 1760.7,773.355 1783.88,761.84 1807.06,750.325 1830.24,738.81 1853.41,727.295 1876.59,715.78 
  1899.77,704.265 1922.95,692.75 1946.12,681.235 1969.3,669.719 1992.48,658.204 2015.66,646.689 2038.83,635.174 2062.01,623.659 2085.19,612.144 2108.37,600.629 
  2131.54,589.114 2154.72,577.599 2177.9,566.084 2201.08,554.569 2224.25,543.054 2247.43,531.539 2270.61,520.024 2293.79,508.508 2316.97,496.993 2340.14,485.478 
  2363.32,473.963 2386.5,462.448 2409.68,450.933 2432.85,439.418 2456.03,427.903 2479.21,416.388 2502.39,404.873 2525.56,393.358 2548.74,381.843 2571.92,370.328 
  
  "/>
<polyline clip-path="url(#clip272)" style="stroke:#3da44d; stroke-linecap:round; stroke-linejoin:round; stroke-width:16; stroke-opacity:1; fill:none" points="
  277.339,1550.16 300.517,1537.59 323.694,1525.02 346.872,1512.45 370.049,1499.88 393.227,1487.31 416.405,1474.74 439.582,1462.17 462.76,1449.59 485.937,1437.02 
  509.115,1424.45 532.292,1411.88 555.47,1399.31 578.648,1386.74 601.825,1374.17 625.003,1361.6 648.18,1349.03 671.358,1336.46 694.535,1323.89 717.713,1311.32 
  740.891,1298.75 764.068,1286.18 787.246,1273.61 810.423,1261.04 833.601,1248.47 856.778,1235.9 879.956,1223.33 903.134,1210.76 926.311,1198.19 949.489,1185.62 
  972.666,1173.05 995.844,1160.48 1019.02,1147.91 1042.2,1135.34 1065.38,1122.77 1088.55,1110.2 1111.73,1097.63 1134.91,1085.06 1158.09,1072.49 1181.26,1059.92 
  1204.44,1047.35 1227.62,1034.78 1250.8,1022.21 1273.97,1009.63 1297.15,997.065 1320.33,984.494 1343.51,971.924 1366.68,959.354 1389.86,946.784 1413.04,934.213 
  1436.22,921.643 1459.4,909.073 1482.57,896.502 1505.75,883.932 1528.93,871.362 1552.11,858.792 1575.28,846.221 1598.46,833.651 1621.64,821.081 1644.82,808.51 
  1667.99,795.94 1691.17,783.37 1714.35,770.8 1737.53,758.229 1760.7,745.659 1783.88,733.089 1807.06,720.519 1830.24,707.948 1853.41,695.378 1876.59,682.808 
  1899.77,670.237 1922.95,657.667 1946.12,645.097 1969.3,632.527 1992.48,619.956 2015.66,607.386 2038.83,594.816 2062.01,582.245 2085.19,569.675 2108.37,557.105 
  2131.54,544.535 2154.72,531.964 2177.9,519.394 2201.08,506.824 2224.25,494.253 2247.43,481.683 2270.61,469.113 2293.79,456.543 2316.97,443.972 2340.14,431.402 
  2363.32,418.832 2386.5,406.261 2409.68,393.691 2432.85,381.121 2456.03,368.551 2479.21,355.98 2502.39,343.41 2525.56,330.84 2548.74,318.27 2571.92,305.699 
  
  "/>
<path clip-path="url(#clip270)" d="
M289.577 336.856 L603.311 336.856 L603.311 181.336 L289.577 181.336  Z
  " fill="#ffffff" fill-rule="evenodd" fill-opacity="1"/>
<polyline clip-path="url(#clip270)" style="stroke:#000000; stroke-linecap:round; stroke-linejoin:round; stroke-width:4; stroke-opacity:1; fill:none" points="
  289.577,336.856 603.311,336.856 603.311,181.336 289.577,181.336 289.577,336.856 
  "/>
<polyline clip-path="url(#clip270)" style="stroke:#e26f46; stroke-linecap:round; stroke-linejoin:round; stroke-width:16; stroke-opacity:1; fill:none" points="
  316.602,233.176 478.752,233.176 
  "/>
<path clip-path="url(#clip270)" d="M505.777 214.438 L510.037 214.438 L510.037 250.456 L505.777 250.456 L505.777 214.438 Z" fill="#000000" fill-rule="evenodd" fill-opacity="1" /><path clip-path="url(#clip270)" d="M539.134 229.507 Q540.731 226.637 542.953 225.271 Q545.175 223.906 548.184 223.906 Q552.235 223.906 554.434 226.753 Q556.633 229.577 556.633 234.808 L556.633 250.456 L552.351 250.456 L552.351 234.947 Q552.351 231.22 551.032 229.415 Q549.712 227.609 547.004 227.609 Q543.694 227.609 541.772 229.808 Q539.851 232.007 539.851 235.804 L539.851 250.456 L535.569 250.456 L535.569 234.947 Q535.569 231.197 534.249 229.415 Q532.93 227.609 530.175 227.609 Q526.911 227.609 524.99 229.831 Q523.069 232.03 523.069 235.804 L523.069 250.456 L518.786 250.456 L518.786 224.531 L523.069 224.531 L523.069 228.558 Q524.527 226.174 526.564 225.04 Q528.601 223.906 531.402 223.906 Q534.226 223.906 536.194 225.341 Q538.184 226.776 539.134 229.507 Z" fill="#000000" fill-rule="evenodd" fill-opacity="1" /><polyline clip-path="url(#clip270)" style="stroke:#3da44d; stroke-linecap:round; stroke-linejoin:round; stroke-width:16; stroke-opacity:1; fill:none" points="
  316.602,285.016 478.752,285.016 
  "/>
<path clip-path="url(#clip270)" d="M520.962 280.352 Q520.245 279.935 519.388 279.75 Q518.555 279.542 517.536 279.542 Q513.925 279.542 511.981 281.903 Q510.06 284.241 510.06 288.639 L510.06 302.296 L505.777 302.296 L505.777 276.371 L510.06 276.371 L510.06 280.398 Q511.402 278.037 513.555 276.903 Q515.708 275.746 518.786 275.746 Q519.226 275.746 519.759 275.815 Q520.291 275.861 520.939 275.977 L520.962 280.352 Z" fill="#000000" fill-rule="evenodd" fill-opacity="1" /><path clip-path="url(#clip270)" d="M525.43 266.278 L529.689 266.278 L529.689 302.296 L525.43 302.296 L525.43 266.278 Z" fill="#000000" fill-rule="evenodd" fill-opacity="1" /><path clip-path="url(#clip270)" d="M558.786 281.347 Q560.383 278.477 562.606 277.111 Q564.828 275.746 567.837 275.746 Q571.888 275.746 574.087 278.593 Q576.286 281.417 576.286 286.648 L576.286 302.296 L572.004 302.296 L572.004 286.787 Q572.004 283.06 570.684 281.255 Q569.365 279.449 566.657 279.449 Q563.346 279.449 561.425 281.648 Q559.504 283.847 559.504 287.644 L559.504 302.296 L555.221 302.296 L555.221 286.787 Q555.221 283.037 553.902 281.255 Q552.583 279.449 549.828 279.449 Q546.564 279.449 544.643 281.671 Q542.722 283.87 542.722 287.644 L542.722 302.296 L538.439 302.296 L538.439 276.371 L542.722 276.371 L542.722 280.398 Q544.18 278.014 546.217 276.88 Q548.254 275.746 551.055 275.746 Q553.879 275.746 555.846 277.181 Q557.837 278.616 558.786 281.347 Z" fill="#000000" fill-rule="evenodd" fill-opacity="1" /></svg>
