<?xml version="1.0" encoding="utf-8"?>
<svg xmlns="http://www.w3.org/2000/svg" xmlns:xlink="http://www.w3.org/1999/xlink" width="672" height="480" viewBox="0 0 2688 1920">
<defs>
  <clipPath id="clip070">
    <rect x="0" y="0" width="2688" height="1920"/>
  </clipPath>
</defs>
<path clip-path="url(#clip070)" d="
M0 1920 L2688 1920 L2688 0 L0 0  Z
  " fill="#ffffff" fill-rule="evenodd" fill-opacity="1"/>
<defs>
  <clipPath id="clip071">
    <rect x="537" y="0" width="1883" height="1883"/>
  </clipPath>
</defs>
<path clip-path="url(#clip070)" d="
M158.645 1800.78 L2640.76 1800.78 L2640.76 47.2441 L158.645 47.2441  Z
  " fill="#ffffff" fill-rule="evenodd" fill-opacity="1"/>
<defs>
  <clipPath id="clip072">
    <rect x="158" y="47" width="2483" height="1755"/>
  </clipPath>
</defs>
<polyline clip-path="url(#clip072)" style="stroke:#000000; stroke-linecap:round; stroke-linejoin:round; stroke-width:2; stroke-opacity:0.1; fill:none" points="
  550.244,1800.78 550.244,47.2441 
  "/>
<polyline clip-path="url(#clip072)" style="stroke:#000000; stroke-linecap:round; stroke-linejoin:round; stroke-width:2; stroke-opacity:0.1; fill:none" points="
  1407.02,1800.78 1407.02,47.2441 
  "/>
<polyline clip-path="url(#clip072)" style="stroke:#000000; stroke-linecap:round; stroke-linejoin:round; stroke-width:2; stroke-opacity:0.1; fill:none" points="
  2263.8,1800.78 2263.8,47.2441 
  "/>
<polyline clip-path="url(#clip070)" style="stroke:#000000; stroke-linecap:round; stroke-linejoin:round; stroke-width:4; stroke-opacity:1; fill:none" points="
  158.645,1800.78 2640.76,1800.78 
  "/>
<polyline clip-path="url(#clip070)" style="stroke:#000000; stroke-linecap:round; stroke-linejoin:round; stroke-width:4; stroke-opacity:1; fill:none" points="
  550.244,1800.78 550.244,1781.88 
  "/>
<polyline clip-path="url(#clip070)" style="stroke:#000000; stroke-linecap:round; stroke-linejoin:round; stroke-width:4; stroke-opacity:1; fill:none" points="
  1407.02,1800.78 1407.02,1781.88 
  "/>
<polyline clip-path="url(#clip070)" style="stroke:#000000; stroke-linecap:round; stroke-linejoin:round; stroke-width:4; stroke-opacity:1; fill:none" points="
  2263.8,1800.78 2263.8,1781.88 
  "/>
<path clip-path="url(#clip070)" d="M494.503 1840.32 L494.503 1844.35 Q492.698 1843.42 490.753 1842.96 Q488.809 1842.5 486.726 1842.5 Q483.554 1842.5 481.957 1843.47 Q480.383 1844.44 480.383 1846.39 Q480.383 1847.87 481.517 1848.72 Q482.651 1849.56 486.077 1850.32 L487.536 1850.65 Q492.073 1851.62 493.971 1853.4 Q495.892 1855.16 495.892 1858.33 Q495.892 1861.94 493.022 1864.05 Q490.175 1866.15 485.175 1866.15 Q483.091 1866.15 480.823 1865.74 Q478.577 1865.34 476.077 1864.53 L476.077 1860.14 Q478.439 1861.36 480.73 1861.99 Q483.022 1862.59 485.267 1862.59 Q488.276 1862.59 489.897 1861.57 Q491.517 1860.53 491.517 1858.65 Q491.517 1856.92 490.337 1855.99 Q489.179 1855.07 485.221 1854.21 L483.739 1853.86 Q479.781 1853.03 478.022 1851.32 Q476.263 1849.58 476.263 1846.57 Q476.263 1842.91 478.855 1840.92 Q481.448 1838.93 486.216 1838.93 Q488.577 1838.93 490.661 1839.28 Q492.744 1839.63 494.503 1840.32 Z" fill="#000000" fill-rule="evenodd" fill-opacity="1" /><path clip-path="url(#clip070)" d="M524.85 1851.46 L524.85 1853.54 L505.267 1853.54 Q505.545 1857.94 507.906 1860.25 Q510.29 1862.54 514.526 1862.54 Q516.98 1862.54 519.272 1861.94 Q521.586 1861.34 523.855 1860.14 L523.855 1864.16 Q521.563 1865.14 519.156 1865.65 Q516.748 1866.15 514.272 1866.15 Q508.068 1866.15 504.434 1862.54 Q500.823 1858.93 500.823 1852.78 Q500.823 1846.41 504.249 1842.68 Q507.698 1838.93 513.531 1838.93 Q518.762 1838.93 521.795 1842.31 Q524.85 1845.67 524.85 1851.46 M520.591 1850.21 Q520.545 1846.71 518.623 1844.63 Q516.725 1842.54 513.577 1842.54 Q510.012 1842.54 507.86 1844.56 Q505.73 1846.57 505.406 1850.23 L520.591 1850.21 Z" fill="#000000" fill-rule="evenodd" fill-opacity="1" /><path clip-path="url(#clip070)" d="M536.054 1832.2 L536.054 1839.56 L544.827 1839.56 L544.827 1842.87 L536.054 1842.87 L536.054 1856.94 Q536.054 1860.11 536.91 1861.02 Q537.79 1861.92 540.452 1861.92 L544.827 1861.92 L544.827 1865.48 L540.452 1865.48 Q535.522 1865.48 533.647 1863.65 Q531.772 1861.8 531.772 1856.94 L531.772 1842.87 L528.647 1842.87 L528.647 1839.56 L531.772 1839.56 L531.772 1832.2 L536.054 1832.2 Z" fill="#000000" fill-rule="evenodd" fill-opacity="1" /><path clip-path="url(#clip070)" d="M560.475 1842.54 Q557.049 1842.54 555.058 1845.23 Q553.068 1847.89 553.068 1852.54 Q553.068 1857.2 555.035 1859.88 Q557.026 1862.54 560.475 1862.54 Q563.878 1862.54 565.869 1859.86 Q567.859 1857.17 567.859 1852.54 Q567.859 1847.94 565.869 1845.25 Q563.878 1842.54 560.475 1842.54 M560.475 1838.93 Q566.031 1838.93 569.202 1842.54 Q572.373 1846.15 572.373 1852.54 Q572.373 1858.91 569.202 1862.54 Q566.031 1866.15 560.475 1866.15 Q554.896 1866.15 551.725 1862.54 Q548.577 1858.91 548.577 1852.54 Q548.577 1846.15 551.725 1842.54 Q554.896 1838.93 560.475 1838.93 Z" fill="#000000" fill-rule="evenodd" fill-opacity="1" /><path clip-path="url(#clip070)" d="M595.961 1840.32 L595.961 1844.35 Q594.155 1843.42 592.211 1842.96 Q590.267 1842.5 588.183 1842.5 Q585.012 1842.5 583.415 1843.47 Q581.841 1844.44 581.841 1846.39 Q581.841 1847.87 582.975 1848.72 Q584.109 1849.56 587.535 1850.32 L588.993 1850.65 Q593.53 1851.62 595.429 1853.4 Q597.35 1855.16 597.35 1858.33 Q597.35 1861.94 594.48 1864.05 Q591.632 1866.15 586.632 1866.15 Q584.549 1866.15 582.281 1865.74 Q580.035 1865.34 577.535 1864.53 L577.535 1860.14 Q579.896 1861.36 582.188 1861.99 Q584.48 1862.59 586.725 1862.59 Q589.734 1862.59 591.355 1861.57 Q592.975 1860.53 592.975 1858.65 Q592.975 1856.92 591.794 1855.99 Q590.637 1855.07 586.679 1854.21 L585.197 1853.86 Q581.239 1853.03 579.48 1851.32 Q577.72 1849.58 577.72 1846.57 Q577.72 1842.91 580.313 1840.92 Q582.906 1838.93 587.674 1838.93 Q590.035 1838.93 592.118 1839.28 Q594.202 1839.63 595.961 1840.32 Z" fill="#000000" fill-rule="evenodd" fill-opacity="1" /><path clip-path="url(#clip070)" d="M615.915 1852.45 Q610.753 1852.45 608.762 1853.63 Q606.771 1854.81 606.771 1857.66 Q606.771 1859.93 608.253 1861.27 Q609.757 1862.59 612.327 1862.59 Q615.868 1862.59 617.998 1860.09 Q620.151 1857.57 620.151 1853.4 L620.151 1852.45 L615.915 1852.45 M624.41 1850.69 L624.41 1865.48 L620.151 1865.48 L620.151 1861.55 Q618.692 1863.91 616.516 1865.04 Q614.341 1866.15 611.192 1866.15 Q607.211 1866.15 604.85 1863.93 Q602.512 1861.69 602.512 1857.94 Q602.512 1853.56 605.429 1851.34 Q608.368 1849.12 614.179 1849.12 L620.151 1849.12 L620.151 1848.7 Q620.151 1845.76 618.206 1844.16 Q616.285 1842.54 612.79 1842.54 Q610.567 1842.54 608.461 1843.08 Q606.354 1843.61 604.41 1844.67 L604.41 1840.74 Q606.748 1839.84 608.947 1839.4 Q611.146 1838.93 613.229 1838.93 Q618.854 1838.93 621.632 1841.85 Q624.41 1844.77 624.41 1850.69 Z" fill="#000000" fill-rule="evenodd" fill-opacity="1" /><path clip-path="url(#clip070)" d="M1292.07 1839.56 L1296.58 1839.56 L1304.69 1861.32 L1312.79 1839.56 L1317.3 1839.56 L1307.58 1865.48 L1301.79 1865.48 L1292.07 1839.56 Z" fill="#000000" fill-rule="evenodd" fill-opacity="1" /><path clip-path="url(#clip070)" d="M1345.36 1851.46 L1345.36 1853.54 L1325.77 1853.54 Q1326.05 1857.94 1328.41 1860.25 Q1330.8 1862.54 1335.03 1862.54 Q1337.49 1862.54 1339.78 1861.94 Q1342.09 1861.34 1344.36 1860.14 L1344.36 1864.16 Q1342.07 1865.14 1339.66 1865.65 Q1337.26 1866.15 1334.78 1866.15 Q1328.58 1866.15 1324.94 1862.54 Q1321.33 1858.93 1321.33 1852.78 Q1321.33 1846.41 1324.76 1842.68 Q1328.21 1838.93 1334.04 1838.93 Q1339.27 1838.93 1342.3 1842.31 Q1345.36 1845.67 1345.36 1851.46 M1341.1 1850.21 Q1341.05 1846.71 1339.13 1844.63 Q1337.23 1842.54 1334.08 1842.54 Q1330.52 1842.54 1328.37 1844.56 Q1326.24 1846.57 1325.91 1850.23 L1341.1 1850.21 Z" fill="#000000" fill-rule="evenodd" fill-opacity="1" /><path clip-path="url(#clip070)" d="M1367.37 1843.54 Q1366.65 1843.12 1365.8 1842.94 Q1364.96 1842.73 1363.95 1842.73 Q1360.33 1842.73 1358.39 1845.09 Q1356.47 1847.43 1356.47 1851.83 L1356.47 1865.48 L1352.19 1865.48 L1352.19 1839.56 L1356.47 1839.56 L1356.47 1843.59 Q1357.81 1841.22 1359.96 1840.09 Q1362.12 1838.93 1365.2 1838.93 Q1365.64 1838.93 1366.17 1839 Q1366.7 1839.05 1367.35 1839.16 L1367.37 1843.54 Z" fill="#000000" fill-rule="evenodd" fill-opacity="1" /><path clip-path="url(#clip070)" d="M1388.37 1840.32 L1388.37 1844.35 Q1386.56 1843.42 1384.62 1842.96 Q1382.67 1842.5 1380.59 1842.5 Q1377.42 1842.5 1375.82 1843.47 Q1374.25 1844.44 1374.25 1846.39 Q1374.25 1847.87 1375.38 1848.72 Q1376.52 1849.56 1379.94 1850.32 L1381.4 1850.65 Q1385.94 1851.62 1387.83 1853.4 Q1389.76 1855.16 1389.76 1858.33 Q1389.76 1861.94 1386.89 1864.05 Q1384.04 1866.15 1379.04 1866.15 Q1376.95 1866.15 1374.69 1865.74 Q1372.44 1865.34 1369.94 1864.53 L1369.94 1860.14 Q1372.3 1861.36 1374.59 1861.99 Q1376.89 1862.59 1379.13 1862.59 Q1382.14 1862.59 1383.76 1861.57 Q1385.38 1860.53 1385.38 1858.65 Q1385.38 1856.92 1384.2 1855.99 Q1383.04 1855.07 1379.08 1854.21 L1377.6 1853.86 Q1373.64 1853.03 1371.89 1851.32 Q1370.13 1849.58 1370.13 1846.57 Q1370.13 1842.91 1372.72 1840.92 Q1375.31 1838.93 1380.08 1838.93 Q1382.44 1838.93 1384.52 1839.28 Q1386.61 1839.63 1388.37 1840.32 Z" fill="#000000" fill-rule="evenodd" fill-opacity="1" /><path clip-path="url(#clip070)" d="M1396.54 1839.56 L1400.8 1839.56 L1400.8 1865.48 L1396.54 1865.48 L1396.54 1839.56 M1396.54 1829.46 L1400.8 1829.46 L1400.8 1834.86 L1396.54 1834.86 L1396.54 1829.46 Z" fill="#000000" fill-rule="evenodd" fill-opacity="1" /><path clip-path="url(#clip070)" d="M1428.37 1840.55 L1428.37 1844.53 Q1426.56 1843.54 1424.73 1843.05 Q1422.93 1842.54 1421.07 1842.54 Q1416.93 1842.54 1414.64 1845.18 Q1412.35 1847.8 1412.35 1852.54 Q1412.35 1857.29 1414.64 1859.93 Q1416.93 1862.54 1421.07 1862.54 Q1422.93 1862.54 1424.73 1862.06 Q1426.56 1861.55 1428.37 1860.55 L1428.37 1864.49 Q1426.58 1865.32 1424.66 1865.74 Q1422.76 1866.15 1420.61 1866.15 Q1414.76 1866.15 1411.31 1862.47 Q1407.86 1858.79 1407.86 1852.54 Q1407.86 1846.2 1411.33 1842.57 Q1414.83 1838.93 1420.89 1838.93 Q1422.86 1838.93 1424.73 1839.35 Q1426.61 1839.74 1428.37 1840.55 Z" fill="#000000" fill-rule="evenodd" fill-opacity="1" /><path clip-path="url(#clip070)" d="M1445.82 1842.54 Q1442.39 1842.54 1440.4 1845.23 Q1438.41 1847.89 1438.41 1852.54 Q1438.41 1857.2 1440.38 1859.88 Q1442.37 1862.54 1445.82 1862.54 Q1449.22 1862.54 1451.21 1859.86 Q1453.2 1857.17 1453.2 1852.54 Q1453.2 1847.94 1451.21 1845.25 Q1449.22 1842.54 1445.82 1842.54 M1445.82 1838.93 Q1451.38 1838.93 1454.55 1842.54 Q1457.72 1846.15 1457.72 1852.54 Q1457.72 1858.91 1454.55 1862.54 Q1451.38 1866.15 1445.82 1866.15 Q1440.24 1866.15 1437.07 1862.54 Q1433.92 1858.91 1433.92 1852.54 Q1433.92 1846.15 1437.07 1842.54 Q1440.24 1838.93 1445.82 1838.93 Z" fill="#000000" fill-rule="evenodd" fill-opacity="1" /><path clip-path="url(#clip070)" d="M1464.78 1829.46 L1469.04 1829.46 L1469.04 1865.48 L1464.78 1865.48 L1464.78 1829.46 Z" fill="#000000" fill-rule="evenodd" fill-opacity="1" /><path clip-path="url(#clip070)" d="M1488 1842.54 Q1484.57 1842.54 1482.58 1845.23 Q1480.59 1847.89 1480.59 1852.54 Q1480.59 1857.2 1482.56 1859.88 Q1484.55 1862.54 1488 1862.54 Q1491.4 1862.54 1493.39 1859.86 Q1495.38 1857.17 1495.38 1852.54 Q1495.38 1847.94 1493.39 1845.25 Q1491.4 1842.54 1488 1842.54 M1488 1838.93 Q1493.55 1838.93 1496.72 1842.54 Q1499.89 1846.15 1499.89 1852.54 Q1499.89 1858.91 1496.72 1862.54 Q1493.55 1866.15 1488 1866.15 Q1482.42 1866.15 1479.25 1862.54 Q1476.1 1858.91 1476.1 1852.54 Q1476.1 1846.15 1479.25 1842.54 Q1482.42 1838.93 1488 1838.93 Z" fill="#000000" fill-rule="evenodd" fill-opacity="1" /><path clip-path="url(#clip070)" d="M1521.98 1843.54 Q1521.26 1843.12 1520.4 1842.94 Q1519.57 1842.73 1518.55 1842.73 Q1514.94 1842.73 1513 1845.09 Q1511.07 1847.43 1511.07 1851.83 L1511.07 1865.48 L1506.79 1865.48 L1506.79 1839.56 L1511.07 1839.56 L1511.07 1843.59 Q1512.42 1841.22 1514.57 1840.09 Q1516.72 1838.93 1519.8 1838.93 Q1520.24 1838.93 1520.77 1839 Q1521.31 1839.05 1521.95 1839.16 L1521.98 1843.54 Z" fill="#000000" fill-rule="evenodd" fill-opacity="1" /><path clip-path="url(#clip070)" d="M2165.92 1839.56 L2170.44 1839.56 L2178.54 1861.32 L2186.64 1839.56 L2191.15 1839.56 L2181.43 1865.48 L2175.65 1865.48 L2165.92 1839.56 Z" fill="#000000" fill-rule="evenodd" fill-opacity="1" /><path clip-path="url(#clip070)" d="M2197.03 1839.56 L2201.29 1839.56 L2201.29 1865.48 L2197.03 1865.48 L2197.03 1839.56 M2197.03 1829.46 L2201.29 1829.46 L2201.29 1834.86 L2197.03 1834.86 L2197.03 1829.46 Z" fill="#000000" fill-rule="evenodd" fill-opacity="1" /><path clip-path="url(#clip070)" d="M2225.23 1843.54 Q2224.51 1843.12 2223.65 1842.94 Q2222.82 1842.73 2221.8 1842.73 Q2218.19 1842.73 2216.25 1845.09 Q2214.33 1847.43 2214.33 1851.83 L2214.33 1865.48 L2210.04 1865.48 L2210.04 1839.56 L2214.33 1839.56 L2214.33 1843.59 Q2215.67 1841.22 2217.82 1840.09 Q2219.97 1838.93 2223.05 1838.93 Q2223.49 1838.93 2224.02 1839 Q2224.56 1839.05 2225.21 1839.16 L2225.23 1843.54 Z" fill="#000000" fill-rule="evenodd" fill-opacity="1" /><path clip-path="url(#clip070)" d="M2245.92 1852.22 Q2245.92 1847.59 2244 1845.04 Q2242.1 1842.5 2238.65 1842.5 Q2235.23 1842.5 2233.31 1845.04 Q2231.41 1847.59 2231.41 1852.22 Q2231.41 1856.83 2233.31 1859.37 Q2235.23 1861.92 2238.65 1861.92 Q2242.1 1861.92 2244 1859.37 Q2245.92 1856.83 2245.92 1852.22 M2250.18 1862.27 Q2250.18 1868.89 2247.24 1872.1 Q2244.3 1875.34 2238.24 1875.34 Q2235.99 1875.34 2234 1875 Q2232.01 1874.67 2230.14 1873.98 L2230.14 1869.84 Q2232.01 1870.85 2233.84 1871.34 Q2235.67 1871.83 2237.57 1871.83 Q2241.76 1871.83 2243.84 1869.63 Q2245.92 1867.45 2245.92 1863.03 L2245.92 1860.92 Q2244.6 1863.21 2242.54 1864.35 Q2240.48 1865.48 2237.61 1865.48 Q2232.84 1865.48 2229.93 1861.85 Q2227.01 1858.21 2227.01 1852.22 Q2227.01 1846.2 2229.93 1842.57 Q2232.84 1838.93 2237.61 1838.93 Q2240.48 1838.93 2242.54 1840.07 Q2244.6 1841.2 2245.92 1843.49 L2245.92 1839.56 L2250.18 1839.56 L2250.18 1862.27 Z" fill="#000000" fill-rule="evenodd" fill-opacity="1" /><path clip-path="url(#clip070)" d="M2258.96 1839.56 L2263.21 1839.56 L2263.21 1865.48 L2258.96 1865.48 L2258.96 1839.56 M2258.96 1829.46 L2263.21 1829.46 L2263.21 1834.86 L2258.96 1834.86 L2258.96 1829.46 Z" fill="#000000" fill-rule="evenodd" fill-opacity="1" /><path clip-path="url(#clip070)" d="M2293.68 1849.84 L2293.68 1865.48 L2289.42 1865.48 L2289.42 1849.97 Q2289.42 1846.29 2287.98 1844.46 Q2286.55 1842.64 2283.68 1842.64 Q2280.23 1842.64 2278.24 1844.84 Q2276.25 1847.03 2276.25 1850.83 L2276.25 1865.48 L2271.96 1865.48 L2271.96 1839.56 L2276.25 1839.56 L2276.25 1843.59 Q2277.77 1841.25 2279.83 1840.09 Q2281.92 1838.93 2284.63 1838.93 Q2289.09 1838.93 2291.39 1841.71 Q2293.68 1844.46 2293.68 1849.84 Z" fill="#000000" fill-rule="evenodd" fill-opacity="1" /><path clip-path="url(#clip070)" d="M2302.17 1839.56 L2306.43 1839.56 L2306.43 1865.48 L2302.17 1865.48 L2302.17 1839.56 M2302.17 1829.46 L2306.43 1829.46 L2306.43 1834.86 L2302.17 1834.86 L2302.17 1829.46 Z" fill="#000000" fill-rule="evenodd" fill-opacity="1" /><path clip-path="url(#clip070)" d="M2334 1840.55 L2334 1844.53 Q2332.2 1843.54 2330.37 1843.05 Q2328.56 1842.54 2326.71 1842.54 Q2322.57 1842.54 2320.27 1845.18 Q2317.98 1847.8 2317.98 1852.54 Q2317.98 1857.29 2320.27 1859.93 Q2322.57 1862.54 2326.71 1862.54 Q2328.56 1862.54 2330.37 1862.06 Q2332.2 1861.55 2334 1860.55 L2334 1864.49 Q2332.22 1865.32 2330.3 1865.74 Q2328.4 1866.15 2326.25 1866.15 Q2320.39 1866.15 2316.94 1862.47 Q2313.49 1858.79 2313.49 1852.54 Q2313.49 1846.2 2316.96 1842.57 Q2320.46 1838.93 2326.52 1838.93 Q2328.49 1838.93 2330.37 1839.35 Q2332.24 1839.74 2334 1840.55 Z" fill="#000000" fill-rule="evenodd" fill-opacity="1" /><path clip-path="url(#clip070)" d="M2353.19 1852.45 Q2348.03 1852.45 2346.04 1853.63 Q2344.05 1854.81 2344.05 1857.66 Q2344.05 1859.93 2345.53 1861.27 Q2347.03 1862.59 2349.6 1862.59 Q2353.14 1862.59 2355.27 1860.09 Q2357.43 1857.57 2357.43 1853.4 L2357.43 1852.45 L2353.19 1852.45 M2361.69 1850.69 L2361.69 1865.48 L2357.43 1865.48 L2357.43 1861.55 Q2355.97 1863.91 2353.79 1865.04 Q2351.62 1866.15 2348.47 1866.15 Q2344.49 1866.15 2342.13 1863.93 Q2339.79 1861.69 2339.79 1857.94 Q2339.79 1853.56 2342.7 1851.34 Q2345.64 1849.12 2351.45 1849.12 L2357.43 1849.12 L2357.43 1848.7 Q2357.43 1845.76 2355.48 1844.16 Q2353.56 1842.54 2350.07 1842.54 Q2347.84 1842.54 2345.74 1843.08 Q2343.63 1843.61 2341.69 1844.67 L2341.69 1840.74 Q2344.02 1839.84 2346.22 1839.4 Q2348.42 1838.93 2350.51 1838.93 Q2356.13 1838.93 2358.91 1841.85 Q2361.69 1844.77 2361.69 1850.69 Z" fill="#000000" fill-rule="evenodd" fill-opacity="1" /><polyline clip-path="url(#clip072)" style="stroke:#000000; stroke-linecap:round; stroke-linejoin:round; stroke-width:2; stroke-opacity:0.1; fill:none" points="
  158.645,1475.44 2640.76,1475.44 
  "/>
<polyline clip-path="url(#clip072)" style="stroke:#000000; stroke-linecap:round; stroke-linejoin:round; stroke-width:2; stroke-opacity:0.1; fill:none" points="
  158.645,1130.8 2640.76,1130.8 
  "/>
<polyline clip-path="url(#clip072)" style="stroke:#000000; stroke-linecap:round; stroke-linejoin:round; stroke-width:2; stroke-opacity:0.1; fill:none" points="
  158.645,786.155 2640.76,786.155 
  "/>
<polyline clip-path="url(#clip072)" style="stroke:#000000; stroke-linecap:round; stroke-linejoin:round; stroke-width:2; stroke-opacity:0.1; fill:none" points="
  158.645,441.514 2640.76,441.514 
  "/>
<polyline clip-path="url(#clip072)" style="stroke:#000000; stroke-linecap:round; stroke-linejoin:round; stroke-width:2; stroke-opacity:0.1; fill:none" points="
  158.645,96.8724 2640.76,96.8724 
  "/>
<polyline clip-path="url(#clip070)" style="stroke:#000000; stroke-linecap:round; stroke-linejoin:round; stroke-width:4; stroke-opacity:1; fill:none" points="
  158.645,1800.78 158.645,47.2441 
  "/>
<polyline clip-path="url(#clip070)" style="stroke:#000000; stroke-linecap:round; stroke-linejoin:round; stroke-width:4; stroke-opacity:1; fill:none" points="
  158.645,1475.44 177.543,1475.44 
  "/>
<polyline clip-path="url(#clip070)" style="stroke:#000000; stroke-linecap:round; stroke-linejoin:round; stroke-width:4; stroke-opacity:1; fill:none" points="
  158.645,1130.8 177.543,1130.8 
  "/>
<polyline clip-path="url(#clip070)" style="stroke:#000000; stroke-linecap:round; stroke-linejoin:round; stroke-width:4; stroke-opacity:1; fill:none" points="
  158.645,786.155 177.543,786.155 
  "/>
<polyline clip-path="url(#clip070)" style="stroke:#000000; stroke-linecap:round; stroke-linejoin:round; stroke-width:4; stroke-opacity:1; fill:none" points="
  158.645,441.514 177.543,441.514 
  "/>
<polyline clip-path="url(#clip070)" style="stroke:#000000; stroke-linecap:round; stroke-linejoin:round; stroke-width:4; stroke-opacity:1; fill:none" points="
  158.645,96.8724 177.543,96.8724 
  "/>
<path clip-path="url(#clip070)" d="M62.1447 1461.24 Q58.5336 1461.24 56.7049 1464.8 Q54.8993 1468.34 54.8993 1475.47 Q54.8993 1482.58 56.7049 1486.14 Q58.5336 1489.69 62.1447 1489.69 Q65.7789 1489.69 67.5844 1486.14 Q69.4131 1482.58 69.4131 1475.47 Q69.4131 1468.34 67.5844 1464.8 Q65.7789 1461.24 62.1447 1461.24 M62.1447 1457.53 Q67.9548 1457.53 71.0103 1462.14 Q74.089 1466.72 74.089 1475.47 Q74.089 1484.2 71.0103 1488.81 Q67.9548 1493.39 62.1447 1493.39 Q56.3345 1493.39 53.2558 1488.81 Q50.2003 1484.2 50.2003 1475.47 Q50.2003 1466.72 53.2558 1462.14 Q56.3345 1457.53 62.1447 1457.53 Z" fill="#000000" fill-rule="evenodd" fill-opacity="1" /><path clip-path="url(#clip070)" d="M82.3066 1486.84 L87.1908 1486.84 L87.1908 1492.72 L82.3066 1492.72 L82.3066 1486.84 Z" fill="#000000" fill-rule="evenodd" fill-opacity="1" /><path clip-path="url(#clip070)" d="M97.4222 1458.16 L115.779 1458.16 L115.779 1462.09 L101.705 1462.09 L101.705 1470.57 Q102.723 1470.22 103.742 1470.06 Q104.76 1469.87 105.779 1469.87 Q111.566 1469.87 114.945 1473.04 Q118.325 1476.21 118.325 1481.63 Q118.325 1487.21 114.853 1490.31 Q111.38 1493.39 105.061 1493.39 Q102.885 1493.39 100.617 1493.02 Q98.3713 1492.65 95.9639 1491.91 L95.9639 1487.21 Q98.0472 1488.34 100.269 1488.9 Q102.492 1489.45 104.968 1489.45 Q108.973 1489.45 111.311 1487.35 Q113.649 1485.24 113.649 1481.63 Q113.649 1478.02 111.311 1475.91 Q108.973 1473.81 104.968 1473.81 Q103.094 1473.81 101.219 1474.22 Q99.3667 1474.64 97.4222 1475.52 L97.4222 1458.16 Z" fill="#000000" fill-rule="evenodd" fill-opacity="1" /><path clip-path="url(#clip070)" d="M51.9595 1144.14 L59.5984 1144.14 L59.5984 1117.78 L51.2882 1119.44 L51.2882 1115.18 L59.5521 1113.52 L64.228 1113.52 L64.228 1144.14 L71.8668 1144.14 L71.8668 1148.08 L51.9595 1148.08 L51.9595 1144.14 Z" fill="#000000" fill-rule="evenodd" fill-opacity="1" /><path clip-path="url(#clip070)" d="M81.3112 1142.2 L86.1954 1142.2 L86.1954 1148.08 L81.3112 1148.08 L81.3112 1142.2 Z" fill="#000000" fill-rule="evenodd" fill-opacity="1" /><path clip-path="url(#clip070)" d="M106.381 1116.6 Q102.769 1116.6 100.941 1120.16 Q99.1352 1123.7 99.1352 1130.83 Q99.1352 1137.94 100.941 1141.5 Q102.769 1145.04 106.381 1145.04 Q110.015 1145.04 111.82 1141.5 Q113.649 1137.94 113.649 1130.83 Q113.649 1123.7 111.82 1120.16 Q110.015 1116.6 106.381 1116.6 M106.381 1112.89 Q112.191 1112.89 115.246 1117.5 Q118.325 1122.08 118.325 1130.83 Q118.325 1139.56 115.246 1144.16 Q112.191 1148.75 106.381 1148.75 Q100.57 1148.75 97.4917 1144.16 Q94.4361 1139.56 94.4361 1130.83 Q94.4361 1122.08 97.4917 1117.5 Q100.57 1112.89 106.381 1112.89 Z" fill="#000000" fill-rule="evenodd" fill-opacity="1" /><path clip-path="url(#clip070)" d="M52.9549 799.5 L60.5937 799.5 L60.5937 773.134 L52.2836 774.801 L52.2836 770.542 L60.5474 768.875 L65.2233 768.875 L65.2233 799.5 L72.8622 799.5 L72.8622 803.435 L52.9549 803.435 L52.9549 799.5 Z" fill="#000000" fill-rule="evenodd" fill-opacity="1" /><path clip-path="url(#clip070)" d="M82.3066 797.556 L87.1908 797.556 L87.1908 803.435 L82.3066 803.435 L82.3066 797.556 Z" fill="#000000" fill-rule="evenodd" fill-opacity="1" /><path clip-path="url(#clip070)" d="M97.4222 768.875 L115.779 768.875 L115.779 772.81 L101.705 772.81 L101.705 781.282 Q102.723 780.935 103.742 780.773 Q104.76 780.588 105.779 780.588 Q111.566 780.588 114.945 783.759 Q118.325 786.931 118.325 792.347 Q118.325 797.926 114.853 801.028 Q111.38 804.106 105.061 804.106 Q102.885 804.106 100.617 803.736 Q98.3713 803.366 95.9639 802.625 L95.9639 797.926 Q98.0472 799.06 100.269 799.616 Q102.492 800.171 104.968 800.171 Q108.973 800.171 111.311 798.065 Q113.649 795.958 113.649 792.347 Q113.649 788.736 111.311 786.63 Q108.973 784.523 104.968 784.523 Q103.094 784.523 101.219 784.94 Q99.3667 785.357 97.4222 786.236 L97.4222 768.875 Z" fill="#000000" fill-rule="evenodd" fill-opacity="1" /><path clip-path="url(#clip070)" d="M55.1771 454.859 L71.4965 454.859 L71.4965 458.794 L49.5521 458.794 L49.5521 454.859 Q52.2141 452.104 56.7975 447.474 Q61.4039 442.822 62.5845 441.479 Q64.8298 438.956 65.7094 437.22 Q66.6122 435.461 66.6122 433.771 Q66.6122 431.016 64.6678 429.28 Q62.7465 427.544 59.6447 427.544 Q57.4456 427.544 54.9919 428.308 Q52.5614 429.072 49.7836 430.623 L49.7836 425.9 Q52.6077 424.766 55.0614 424.188 Q57.515 423.609 59.5521 423.609 Q64.9224 423.609 68.1168 426.294 Q71.3113 428.979 71.3113 433.47 Q71.3113 435.599 70.5011 437.521 Q69.7141 439.419 67.6076 442.011 Q67.0289 442.683 63.927 445.9 Q60.8252 449.095 55.1771 454.859 Z" fill="#000000" fill-rule="evenodd" fill-opacity="1" /><path clip-path="url(#clip070)" d="M81.3112 452.914 L86.1954 452.914 L86.1954 458.794 L81.3112 458.794 L81.3112 452.914 Z" fill="#000000" fill-rule="evenodd" fill-opacity="1" /><path clip-path="url(#clip070)" d="M106.381 427.312 Q102.769 427.312 100.941 430.877 Q99.1352 434.419 99.1352 441.549 Q99.1352 448.655 100.941 452.22 Q102.769 455.761 106.381 455.761 Q110.015 455.761 111.82 452.22 Q113.649 448.655 113.649 441.549 Q113.649 434.419 111.82 430.877 Q110.015 427.312 106.381 427.312 M106.381 423.609 Q112.191 423.609 115.246 428.215 Q118.325 432.799 118.325 441.549 Q118.325 450.275 115.246 454.882 Q112.191 459.465 106.381 459.465 Q100.57 459.465 97.4917 454.882 Q94.4361 450.275 94.4361 441.549 Q94.4361 432.799 97.4917 428.215 Q100.57 423.609 106.381 423.609 Z" fill="#000000" fill-rule="evenodd" fill-opacity="1" /><path clip-path="url(#clip070)" d="M56.1725 110.217 L72.4918 110.217 L72.4918 114.152 L50.5475 114.152 L50.5475 110.217 Q53.2095 107.463 57.7928 102.833 Q62.3993 98.1803 63.5798 96.8377 Q65.8252 94.3146 66.7048 92.5785 Q67.6076 90.8192 67.6076 89.1294 Q67.6076 86.3748 65.6632 84.6387 Q63.7419 82.9026 60.64 82.9026 Q58.441 82.9026 55.9873 83.6665 Q53.5567 84.4304 50.779 85.9813 L50.779 81.2591 Q53.603 80.1249 56.0567 79.5462 Q58.5104 78.9675 60.5474 78.9675 Q65.9178 78.9675 69.1122 81.6526 Q72.3066 84.3378 72.3066 88.8285 Q72.3066 90.9581 71.4965 92.8794 Q70.7094 94.7776 68.6029 97.3701 Q68.0242 98.0414 64.9224 101.259 Q61.8206 104.453 56.1725 110.217 Z" fill="#000000" fill-rule="evenodd" fill-opacity="1" /><path clip-path="url(#clip070)" d="M82.3066 108.273 L87.1908 108.273 L87.1908 114.152 L82.3066 114.152 L82.3066 108.273 Z" fill="#000000" fill-rule="evenodd" fill-opacity="1" /><path clip-path="url(#clip070)" d="M97.4222 79.5924 L115.779 79.5924 L115.779 83.5276 L101.705 83.5276 L101.705 91.9998 Q102.723 91.6526 103.742 91.4905 Q104.76 91.3053 105.779 91.3053 Q111.566 91.3053 114.945 94.4766 Q118.325 97.6479 118.325 103.065 Q118.325 108.643 114.853 111.745 Q111.38 114.824 105.061 114.824 Q102.885 114.824 100.617 114.453 Q98.3713 114.083 95.9639 113.342 L95.9639 108.643 Q98.0472 109.777 100.269 110.333 Q102.492 110.889 104.968 110.889 Q108.973 110.889 111.311 108.782 Q113.649 106.676 113.649 103.065 Q113.649 99.4535 111.311 97.347 Q108.973 95.2405 104.968 95.2405 Q103.094 95.2405 101.219 95.6572 Q99.3667 96.0738 97.4222 96.9535 L97.4222 79.5924 Z" fill="#000000" fill-rule="evenodd" fill-opacity="1" /><circle clip-path="url(#clip072)" cx="553.509" cy="1682.22" r="14.4" fill="#009af9" fill-rule="evenodd" fill-opacity="1" stroke="#000000" stroke-opacity="1" stroke-width="3.84"/>
<circle clip-path="url(#clip072)" cx="828.927" cy="1682.22" r="14.4" fill="#009af9" fill-rule="evenodd" fill-opacity="1" stroke="#000000" stroke-opacity="1" stroke-width="3.84"/>
<circle clip-path="url(#clip072)" cx="764.01" cy="1682.22" r="14.4" fill="#009af9" fill-rule="evenodd" fill-opacity="1" stroke="#000000" stroke-opacity="1" stroke-width="3.84"/>
<circle clip-path="url(#clip072)" cx="251.603" cy="1682.22" r="14.4" fill="#009af9" fill-rule="evenodd" fill-opacity="1" stroke="#000000" stroke-opacity="1" stroke-width="3.84"/>
<circle clip-path="url(#clip072)" cx="388.072" cy="1682.22" r="14.4" fill="#009af9" fill-rule="evenodd" fill-opacity="1" stroke="#000000" stroke-opacity="1" stroke-width="3.84"/>
<circle clip-path="url(#clip072)" cx="576.486" cy="1544.37" r="14.4" fill="#009af9" fill-rule="evenodd" fill-opacity="1" stroke="#000000" stroke-opacity="1" stroke-width="3.84"/>
<circle clip-path="url(#clip072)" cx="498.739" cy="1613.29" r="14.4" fill="#009af9" fill-rule="evenodd" fill-opacity="1" stroke="#000000" stroke-opacity="1" stroke-width="3.84"/>
<circle clip-path="url(#clip072)" cx="718.394" cy="1682.22" r="14.4" fill="#009af9" fill-rule="evenodd" fill-opacity="1" stroke="#000000" stroke-opacity="1" stroke-width="3.84"/>
<circle clip-path="url(#clip072)" cx="839.388" cy="1682.22" r="14.4" fill="#009af9" fill-rule="evenodd" fill-opacity="1" stroke="#000000" stroke-opacity="1" stroke-width="3.84"/>
<circle clip-path="url(#clip072)" cx="491.261" cy="1751.15" r="14.4" fill="#009af9" fill-rule="evenodd" fill-opacity="1" stroke="#000000" stroke-opacity="1" stroke-width="3.84"/>
<circle clip-path="url(#clip072)" cx="668.223" cy="1682.22" r="14.4" fill="#009af9" fill-rule="evenodd" fill-opacity="1" stroke="#000000" stroke-opacity="1" stroke-width="3.84"/>
<circle clip-path="url(#clip072)" cx="568.185" cy="1682.22" r="14.4" fill="#009af9" fill-rule="evenodd" fill-opacity="1" stroke="#000000" stroke-opacity="1" stroke-width="3.84"/>
<circle clip-path="url(#clip072)" cx="582.906" cy="1751.15" r="14.4" fill="#009af9" fill-rule="evenodd" fill-opacity="1" stroke="#000000" stroke-opacity="1" stroke-width="3.84"/>
<circle clip-path="url(#clip072)" cx="552.448" cy="1751.15" r="14.4" fill="#009af9" fill-rule="evenodd" fill-opacity="1" stroke="#000000" stroke-opacity="1" stroke-width="3.84"/>
<circle clip-path="url(#clip072)" cx="834.373" cy="1682.22" r="14.4" fill="#009af9" fill-rule="evenodd" fill-opacity="1" stroke="#000000" stroke-opacity="1" stroke-width="3.84"/>
<circle clip-path="url(#clip072)" cx="497.709" cy="1544.37" r="14.4" fill="#009af9" fill-rule="evenodd" fill-opacity="1" stroke="#000000" stroke-opacity="1" stroke-width="3.84"/>
<circle clip-path="url(#clip072)" cx="543.46" cy="1544.37" r="14.4" fill="#009af9" fill-rule="evenodd" fill-opacity="1" stroke="#000000" stroke-opacity="1" stroke-width="3.84"/>
<circle clip-path="url(#clip072)" cx="474.295" cy="1613.29" r="14.4" fill="#009af9" fill-rule="evenodd" fill-opacity="1" stroke="#000000" stroke-opacity="1" stroke-width="3.84"/>
<circle clip-path="url(#clip072)" cx="597.737" cy="1613.29" r="14.4" fill="#009af9" fill-rule="evenodd" fill-opacity="1" stroke="#000000" stroke-opacity="1" stroke-width="3.84"/>
<circle clip-path="url(#clip072)" cx="538.637" cy="1613.29" r="14.4" fill="#009af9" fill-rule="evenodd" fill-opacity="1" stroke="#000000" stroke-opacity="1" stroke-width="3.84"/>
<circle clip-path="url(#clip072)" cx="873.31" cy="1682.22" r="14.4" fill="#009af9" fill-rule="evenodd" fill-opacity="1" stroke="#000000" stroke-opacity="1" stroke-width="3.84"/>
<circle clip-path="url(#clip072)" cx="592.173" cy="1544.37" r="14.4" fill="#009af9" fill-rule="evenodd" fill-opacity="1" stroke="#000000" stroke-opacity="1" stroke-width="3.84"/>
<circle clip-path="url(#clip072)" cx="316.918" cy="1682.22" r="14.4" fill="#009af9" fill-rule="evenodd" fill-opacity="1" stroke="#000000" stroke-opacity="1" stroke-width="3.84"/>
<circle clip-path="url(#clip072)" cx="561.732" cy="1475.44" r="14.4" fill="#009af9" fill-rule="evenodd" fill-opacity="1" stroke="#000000" stroke-opacity="1" stroke-width="3.84"/>
<circle clip-path="url(#clip072)" cx="862.579" cy="1682.22" r="14.4" fill="#009af9" fill-rule="evenodd" fill-opacity="1" stroke="#000000" stroke-opacity="1" stroke-width="3.84"/>
<circle clip-path="url(#clip072)" cx="353.089" cy="1682.22" r="14.4" fill="#009af9" fill-rule="evenodd" fill-opacity="1" stroke="#000000" stroke-opacity="1" stroke-width="3.84"/>
<circle clip-path="url(#clip072)" cx="532.647" cy="1544.37" r="14.4" fill="#009af9" fill-rule="evenodd" fill-opacity="1" stroke="#000000" stroke-opacity="1" stroke-width="3.84"/>
<circle clip-path="url(#clip072)" cx="647.85" cy="1682.22" r="14.4" fill="#009af9" fill-rule="evenodd" fill-opacity="1" stroke="#000000" stroke-opacity="1" stroke-width="3.84"/>
<circle clip-path="url(#clip072)" cx="888.095" cy="1682.22" r="14.4" fill="#009af9" fill-rule="evenodd" fill-opacity="1" stroke="#000000" stroke-opacity="1" stroke-width="3.84"/>
<circle clip-path="url(#clip072)" cx="230.022" cy="1682.22" r="14.4" fill="#009af9" fill-rule="evenodd" fill-opacity="1" stroke="#000000" stroke-opacity="1" stroke-width="3.84"/>
<circle clip-path="url(#clip072)" cx="432.642" cy="1682.22" r="14.4" fill="#009af9" fill-rule="evenodd" fill-opacity="1" stroke="#000000" stroke-opacity="1" stroke-width="3.84"/>
<circle clip-path="url(#clip072)" cx="517.374" cy="1544.37" r="14.4" fill="#009af9" fill-rule="evenodd" fill-opacity="1" stroke="#000000" stroke-opacity="1" stroke-width="3.84"/>
<circle clip-path="url(#clip072)" cx="503.063" cy="1751.15" r="14.4" fill="#009af9" fill-rule="evenodd" fill-opacity="1" stroke="#000000" stroke-opacity="1" stroke-width="3.84"/>
<circle clip-path="url(#clip072)" cx="304.7" cy="1682.22" r="14.4" fill="#009af9" fill-rule="evenodd" fill-opacity="1" stroke="#000000" stroke-opacity="1" stroke-width="3.84"/>
<circle clip-path="url(#clip072)" cx="744.933" cy="1682.22" r="14.4" fill="#009af9" fill-rule="evenodd" fill-opacity="1" stroke="#000000" stroke-opacity="1" stroke-width="3.84"/>
<circle clip-path="url(#clip072)" cx="297.913" cy="1682.22" r="14.4" fill="#009af9" fill-rule="evenodd" fill-opacity="1" stroke="#000000" stroke-opacity="1" stroke-width="3.84"/>
<circle clip-path="url(#clip072)" cx="557.213" cy="1682.22" r="14.4" fill="#009af9" fill-rule="evenodd" fill-opacity="1" stroke="#000000" stroke-opacity="1" stroke-width="3.84"/>
<circle clip-path="url(#clip072)" cx="597.685" cy="1751.15" r="14.4" fill="#009af9" fill-rule="evenodd" fill-opacity="1" stroke="#000000" stroke-opacity="1" stroke-width="3.84"/>
<circle clip-path="url(#clip072)" cx="565.339" cy="1682.22" r="14.4" fill="#009af9" fill-rule="evenodd" fill-opacity="1" stroke="#000000" stroke-opacity="1" stroke-width="3.84"/>
<circle clip-path="url(#clip072)" cx="639.358" cy="1682.22" r="14.4" fill="#009af9" fill-rule="evenodd" fill-opacity="1" stroke="#000000" stroke-opacity="1" stroke-width="3.84"/>
<circle clip-path="url(#clip072)" cx="543.773" cy="1613.29" r="14.4" fill="#009af9" fill-rule="evenodd" fill-opacity="1" stroke="#000000" stroke-opacity="1" stroke-width="3.84"/>
<circle clip-path="url(#clip072)" cx="469.773" cy="1613.29" r="14.4" fill="#009af9" fill-rule="evenodd" fill-opacity="1" stroke="#000000" stroke-opacity="1" stroke-width="3.84"/>
<circle clip-path="url(#clip072)" cx="412.986" cy="1682.22" r="14.4" fill="#009af9" fill-rule="evenodd" fill-opacity="1" stroke="#000000" stroke-opacity="1" stroke-width="3.84"/>
<circle clip-path="url(#clip072)" cx="548.478" cy="1406.51" r="14.4" fill="#009af9" fill-rule="evenodd" fill-opacity="1" stroke="#000000" stroke-opacity="1" stroke-width="3.84"/>
<circle clip-path="url(#clip072)" cx="544.806" cy="1544.37" r="14.4" fill="#009af9" fill-rule="evenodd" fill-opacity="1" stroke="#000000" stroke-opacity="1" stroke-width="3.84"/>
<circle clip-path="url(#clip072)" cx="606.687" cy="1613.29" r="14.4" fill="#009af9" fill-rule="evenodd" fill-opacity="1" stroke="#000000" stroke-opacity="1" stroke-width="3.84"/>
<circle clip-path="url(#clip072)" cx="568.688" cy="1682.22" r="14.4" fill="#009af9" fill-rule="evenodd" fill-opacity="1" stroke="#000000" stroke-opacity="1" stroke-width="3.84"/>
<circle clip-path="url(#clip072)" cx="228.893" cy="1682.22" r="14.4" fill="#009af9" fill-rule="evenodd" fill-opacity="1" stroke="#000000" stroke-opacity="1" stroke-width="3.84"/>
<circle clip-path="url(#clip072)" cx="643.94" cy="1682.22" r="14.4" fill="#009af9" fill-rule="evenodd" fill-opacity="1" stroke="#000000" stroke-opacity="1" stroke-width="3.84"/>
<circle clip-path="url(#clip072)" cx="647.968" cy="1682.22" r="14.4" fill="#009af9" fill-rule="evenodd" fill-opacity="1" stroke="#000000" stroke-opacity="1" stroke-width="3.84"/>
<circle clip-path="url(#clip072)" cx="1282.15" cy="855.083" r="14.4" fill="#009af9" fill-rule="evenodd" fill-opacity="1" stroke="#000000" stroke-opacity="1" stroke-width="3.84"/>
<circle clip-path="url(#clip072)" cx="1385.32" cy="786.155" r="14.4" fill="#009af9" fill-rule="evenodd" fill-opacity="1" stroke="#000000" stroke-opacity="1" stroke-width="3.84"/>
<circle clip-path="url(#clip072)" cx="1345.61" cy="786.155" r="14.4" fill="#009af9" fill-rule="evenodd" fill-opacity="1" stroke="#000000" stroke-opacity="1" stroke-width="3.84"/>
<circle clip-path="url(#clip072)" cx="1550.91" cy="924.012" r="14.4" fill="#009af9" fill-rule="evenodd" fill-opacity="1" stroke="#000000" stroke-opacity="1" stroke-width="3.84"/>
<circle clip-path="url(#clip072)" cx="1228.94" cy="786.155" r="14.4" fill="#009af9" fill-rule="evenodd" fill-opacity="1" stroke="#000000" stroke-opacity="1" stroke-width="3.84"/>
<circle clip-path="url(#clip072)" cx="1422.92" cy="924.012" r="14.4" fill="#009af9" fill-rule="evenodd" fill-opacity="1" stroke="#000000" stroke-opacity="1" stroke-width="3.84"/>
<circle clip-path="url(#clip072)" cx="1271.03" cy="717.227" r="14.4" fill="#009af9" fill-rule="evenodd" fill-opacity="1" stroke="#000000" stroke-opacity="1" stroke-width="3.84"/>
<circle clip-path="url(#clip072)" cx="1460.23" cy="1130.8" r="14.4" fill="#009af9" fill-rule="evenodd" fill-opacity="1" stroke="#000000" stroke-opacity="1" stroke-width="3.84"/>
<circle clip-path="url(#clip072)" cx="1088.57" cy="924.012" r="14.4" fill="#009af9" fill-rule="evenodd" fill-opacity="1" stroke="#000000" stroke-opacity="1" stroke-width="3.84"/>
<circle clip-path="url(#clip072)" cx="1419.98" cy="855.083" r="14.4" fill="#009af9" fill-rule="evenodd" fill-opacity="1" stroke="#000000" stroke-opacity="1" stroke-width="3.84"/>
<circle clip-path="url(#clip072)" cx="1390.42" cy="1130.8" r="14.4" fill="#009af9" fill-rule="evenodd" fill-opacity="1" stroke="#000000" stroke-opacity="1" stroke-width="3.84"/>
<circle clip-path="url(#clip072)" cx="1256.6" cy="786.155" r="14.4" fill="#009af9" fill-rule="evenodd" fill-opacity="1" stroke="#000000" stroke-opacity="1" stroke-width="3.84"/>
<circle clip-path="url(#clip072)" cx="1419.09" cy="1130.8" r="14.4" fill="#009af9" fill-rule="evenodd" fill-opacity="1" stroke="#000000" stroke-opacity="1" stroke-width="3.84"/>
<circle clip-path="url(#clip072)" cx="1616.91" cy="855.083" r="14.4" fill="#009af9" fill-rule="evenodd" fill-opacity="1" stroke="#000000" stroke-opacity="1" stroke-width="3.84"/>
<circle clip-path="url(#clip072)" cx="1278.28" cy="924.012" r="14.4" fill="#009af9" fill-rule="evenodd" fill-opacity="1" stroke="#000000" stroke-opacity="1" stroke-width="3.84"/>
<circle clip-path="url(#clip072)" cx="1267.83" cy="855.083" r="14.4" fill="#009af9" fill-rule="evenodd" fill-opacity="1" stroke="#000000" stroke-opacity="1" stroke-width="3.84"/>
<circle clip-path="url(#clip072)" cx="1484.59" cy="786.155" r="14.4" fill="#009af9" fill-rule="evenodd" fill-opacity="1" stroke="#000000" stroke-opacity="1" stroke-width="3.84"/>
<circle clip-path="url(#clip072)" cx="1261.15" cy="1130.8" r="14.4" fill="#009af9" fill-rule="evenodd" fill-opacity="1" stroke="#000000" stroke-opacity="1" stroke-width="3.84"/>
<circle clip-path="url(#clip072)" cx="1318.95" cy="786.155" r="14.4" fill="#009af9" fill-rule="evenodd" fill-opacity="1" stroke="#000000" stroke-opacity="1" stroke-width="3.84"/>
<circle clip-path="url(#clip072)" cx="1461.09" cy="1061.87" r="14.4" fill="#009af9" fill-rule="evenodd" fill-opacity="1" stroke="#000000" stroke-opacity="1" stroke-width="3.84"/>
<circle clip-path="url(#clip072)" cx="1402.46" cy="579.37" r="14.4" fill="#009af9" fill-rule="evenodd" fill-opacity="1" stroke="#000000" stroke-opacity="1" stroke-width="3.84"/>
<circle clip-path="url(#clip072)" cx="1268.04" cy="924.012" r="14.4" fill="#009af9" fill-rule="evenodd" fill-opacity="1" stroke="#000000" stroke-opacity="1" stroke-width="3.84"/>
<circle clip-path="url(#clip072)" cx="1165.27" cy="786.155" r="14.4" fill="#009af9" fill-rule="evenodd" fill-opacity="1" stroke="#000000" stroke-opacity="1" stroke-width="3.84"/>
<circle clip-path="url(#clip072)" cx="1609.13" cy="992.94" r="14.4" fill="#009af9" fill-rule="evenodd" fill-opacity="1" stroke="#000000" stroke-opacity="1" stroke-width="3.84"/>
<circle clip-path="url(#clip072)" cx="1344.74" cy="924.012" r="14.4" fill="#009af9" fill-rule="evenodd" fill-opacity="1" stroke="#000000" stroke-opacity="1" stroke-width="3.84"/>
<circle clip-path="url(#clip072)" cx="1485.07" cy="855.083" r="14.4" fill="#009af9" fill-rule="evenodd" fill-opacity="1" stroke="#000000" stroke-opacity="1" stroke-width="3.84"/>
<circle clip-path="url(#clip072)" cx="1133.49" cy="855.083" r="14.4" fill="#009af9" fill-rule="evenodd" fill-opacity="1" stroke="#000000" stroke-opacity="1" stroke-width="3.84"/>
<circle clip-path="url(#clip072)" cx="1459.69" cy="648.299" r="14.4" fill="#009af9" fill-rule="evenodd" fill-opacity="1" stroke="#000000" stroke-opacity="1" stroke-width="3.84"/>
<circle clip-path="url(#clip072)" cx="1508.59" cy="786.155" r="14.4" fill="#009af9" fill-rule="evenodd" fill-opacity="1" stroke="#000000" stroke-opacity="1" stroke-width="3.84"/>
<circle clip-path="url(#clip072)" cx="1302.27" cy="1130.8" r="14.4" fill="#009af9" fill-rule="evenodd" fill-opacity="1" stroke="#000000" stroke-opacity="1" stroke-width="3.84"/>
<circle clip-path="url(#clip072)" cx="1481.96" cy="1061.87" r="14.4" fill="#009af9" fill-rule="evenodd" fill-opacity="1" stroke="#000000" stroke-opacity="1" stroke-width="3.84"/>
<circle clip-path="url(#clip072)" cx="1302.56" cy="1130.8" r="14.4" fill="#009af9" fill-rule="evenodd" fill-opacity="1" stroke="#000000" stroke-opacity="1" stroke-width="3.84"/>
<circle clip-path="url(#clip072)" cx="1533.04" cy="992.94" r="14.4" fill="#009af9" fill-rule="evenodd" fill-opacity="1" stroke="#000000" stroke-opacity="1" stroke-width="3.84"/>
<circle clip-path="url(#clip072)" cx="1421.16" cy="717.227" r="14.4" fill="#009af9" fill-rule="evenodd" fill-opacity="1" stroke="#000000" stroke-opacity="1" stroke-width="3.84"/>
<circle clip-path="url(#clip072)" cx="1560.4" cy="786.155" r="14.4" fill="#009af9" fill-rule="evenodd" fill-opacity="1" stroke="#000000" stroke-opacity="1" stroke-width="3.84"/>
<circle clip-path="url(#clip072)" cx="1335.89" cy="717.227" r="14.4" fill="#009af9" fill-rule="evenodd" fill-opacity="1" stroke="#000000" stroke-opacity="1" stroke-width="3.84"/>
<circle clip-path="url(#clip072)" cx="1645.3" cy="786.155" r="14.4" fill="#009af9" fill-rule="evenodd" fill-opacity="1" stroke="#000000" stroke-opacity="1" stroke-width="3.84"/>
<circle clip-path="url(#clip072)" cx="1211.89" cy="924.012" r="14.4" fill="#009af9" fill-rule="evenodd" fill-opacity="1" stroke="#000000" stroke-opacity="1" stroke-width="3.84"/>
<circle clip-path="url(#clip072)" cx="1221.61" cy="924.012" r="14.4" fill="#009af9" fill-rule="evenodd" fill-opacity="1" stroke="#000000" stroke-opacity="1" stroke-width="3.84"/>
<circle clip-path="url(#clip072)" cx="1301.79" cy="924.012" r="14.4" fill="#009af9" fill-rule="evenodd" fill-opacity="1" stroke="#000000" stroke-opacity="1" stroke-width="3.84"/>
<circle clip-path="url(#clip072)" cx="1527.59" cy="992.94" r="14.4" fill="#009af9" fill-rule="evenodd" fill-opacity="1" stroke="#000000" stroke-opacity="1" stroke-width="3.84"/>
<circle clip-path="url(#clip072)" cx="1140.17" cy="855.083" r="14.4" fill="#009af9" fill-rule="evenodd" fill-opacity="1" stroke="#000000" stroke-opacity="1" stroke-width="3.84"/>
<circle clip-path="url(#clip072)" cx="1422.27" cy="992.94" r="14.4" fill="#009af9" fill-rule="evenodd" fill-opacity="1" stroke="#000000" stroke-opacity="1" stroke-width="3.84"/>
<circle clip-path="url(#clip072)" cx="1343.02" cy="1130.8" r="14.4" fill="#009af9" fill-rule="evenodd" fill-opacity="1" stroke="#000000" stroke-opacity="1" stroke-width="3.84"/>
<circle clip-path="url(#clip072)" cx="1468.15" cy="924.012" r="14.4" fill="#009af9" fill-rule="evenodd" fill-opacity="1" stroke="#000000" stroke-opacity="1" stroke-width="3.84"/>
<circle clip-path="url(#clip072)" cx="1255.52" cy="992.94" r="14.4" fill="#009af9" fill-rule="evenodd" fill-opacity="1" stroke="#000000" stroke-opacity="1" stroke-width="3.84"/>
<circle clip-path="url(#clip072)" cx="1425.62" cy="924.012" r="14.4" fill="#009af9" fill-rule="evenodd" fill-opacity="1" stroke="#000000" stroke-opacity="1" stroke-width="3.84"/>
<circle clip-path="url(#clip072)" cx="1271.3" cy="924.012" r="14.4" fill="#009af9" fill-rule="evenodd" fill-opacity="1" stroke="#000000" stroke-opacity="1" stroke-width="3.84"/>
<circle clip-path="url(#clip072)" cx="1405.62" cy="1061.87" r="14.4" fill="#009af9" fill-rule="evenodd" fill-opacity="1" stroke="#000000" stroke-opacity="1" stroke-width="3.84"/>
<circle clip-path="url(#clip072)" cx="1714.98" cy="924.012" r="14.4" fill="#009af9" fill-rule="evenodd" fill-opacity="1" stroke="#000000" stroke-opacity="1" stroke-width="3.84"/>
<circle clip-path="url(#clip072)" cx="2287.33" cy="96.8724" r="14.4" fill="#009af9" fill-rule="evenodd" fill-opacity="1" stroke="#000000" stroke-opacity="1" stroke-width="3.84"/>
<circle clip-path="url(#clip072)" cx="2479.49" cy="510.442" r="14.4" fill="#009af9" fill-rule="evenodd" fill-opacity="1" stroke="#000000" stroke-opacity="1" stroke-width="3.84"/>
<circle clip-path="url(#clip072)" cx="2041.07" cy="372.586" r="14.4" fill="#009af9" fill-rule="evenodd" fill-opacity="1" stroke="#000000" stroke-opacity="1" stroke-width="3.84"/>
<circle clip-path="url(#clip072)" cx="2090.06" cy="579.37" r="14.4" fill="#009af9" fill-rule="evenodd" fill-opacity="1" stroke="#000000" stroke-opacity="1" stroke-width="3.84"/>
<circle clip-path="url(#clip072)" cx="2472.82" cy="303.657" r="14.4" fill="#009af9" fill-rule="evenodd" fill-opacity="1" stroke="#000000" stroke-opacity="1" stroke-width="3.84"/>
<circle clip-path="url(#clip072)" cx="2340.89" cy="372.586" r="14.4" fill="#009af9" fill-rule="evenodd" fill-opacity="1" stroke="#000000" stroke-opacity="1" stroke-width="3.84"/>
<circle clip-path="url(#clip072)" cx="2116.82" cy="648.299" r="14.4" fill="#009af9" fill-rule="evenodd" fill-opacity="1" stroke="#000000" stroke-opacity="1" stroke-width="3.84"/>
<circle clip-path="url(#clip072)" cx="2489.82" cy="579.37" r="14.4" fill="#009af9" fill-rule="evenodd" fill-opacity="1" stroke="#000000" stroke-opacity="1" stroke-width="3.84"/>
<circle clip-path="url(#clip072)" cx="2081.36" cy="579.37" r="14.4" fill="#009af9" fill-rule="evenodd" fill-opacity="1" stroke="#000000" stroke-opacity="1" stroke-width="3.84"/>
<circle clip-path="url(#clip072)" cx="2379.1" cy="96.8724" r="14.4" fill="#009af9" fill-rule="evenodd" fill-opacity="1" stroke="#000000" stroke-opacity="1" stroke-width="3.84"/>
<circle clip-path="url(#clip072)" cx="2453.55" cy="441.514" r="14.4" fill="#009af9" fill-rule="evenodd" fill-opacity="1" stroke="#000000" stroke-opacity="1" stroke-width="3.84"/>
<circle clip-path="url(#clip072)" cx="2140.59" cy="510.442" r="14.4" fill="#009af9" fill-rule="evenodd" fill-opacity="1" stroke="#000000" stroke-opacity="1" stroke-width="3.84"/>
<circle clip-path="url(#clip072)" cx="2172.02" cy="372.586" r="14.4" fill="#009af9" fill-rule="evenodd" fill-opacity="1" stroke="#000000" stroke-opacity="1" stroke-width="3.84"/>
<circle clip-path="url(#clip072)" cx="2177.9" cy="441.514" r="14.4" fill="#009af9" fill-rule="evenodd" fill-opacity="1" stroke="#000000" stroke-opacity="1" stroke-width="3.84"/>
<circle clip-path="url(#clip072)" cx="2354.45" cy="165.801" r="14.4" fill="#009af9" fill-rule="evenodd" fill-opacity="1" stroke="#000000" stroke-opacity="1" stroke-width="3.84"/>
<circle clip-path="url(#clip072)" cx="2310.79" cy="234.729" r="14.4" fill="#009af9" fill-rule="evenodd" fill-opacity="1" stroke="#000000" stroke-opacity="1" stroke-width="3.84"/>
<circle clip-path="url(#clip072)" cx="2137.56" cy="579.37" r="14.4" fill="#009af9" fill-rule="evenodd" fill-opacity="1" stroke="#000000" stroke-opacity="1" stroke-width="3.84"/>
<circle clip-path="url(#clip072)" cx="2100.04" cy="303.657" r="14.4" fill="#009af9" fill-rule="evenodd" fill-opacity="1" stroke="#000000" stroke-opacity="1" stroke-width="3.84"/>
<circle clip-path="url(#clip072)" cx="2506.73" cy="234.729" r="14.4" fill="#009af9" fill-rule="evenodd" fill-opacity="1" stroke="#000000" stroke-opacity="1" stroke-width="3.84"/>
<circle clip-path="url(#clip072)" cx="2293.53" cy="786.155" r="14.4" fill="#009af9" fill-rule="evenodd" fill-opacity="1" stroke="#000000" stroke-opacity="1" stroke-width="3.84"/>
<circle clip-path="url(#clip072)" cx="2273.49" cy="234.729" r="14.4" fill="#009af9" fill-rule="evenodd" fill-opacity="1" stroke="#000000" stroke-opacity="1" stroke-width="3.84"/>
<circle clip-path="url(#clip072)" cx="1964.19" cy="441.514" r="14.4" fill="#009af9" fill-rule="evenodd" fill-opacity="1" stroke="#000000" stroke-opacity="1" stroke-width="3.84"/>
<circle clip-path="url(#clip072)" cx="2218.51" cy="441.514" r="14.4" fill="#009af9" fill-rule="evenodd" fill-opacity="1" stroke="#000000" stroke-opacity="1" stroke-width="3.84"/>
<circle clip-path="url(#clip072)" cx="2523.79" cy="579.37" r="14.4" fill="#009af9" fill-rule="evenodd" fill-opacity="1" stroke="#000000" stroke-opacity="1" stroke-width="3.84"/>
<circle clip-path="url(#clip072)" cx="2408.14" cy="372.586" r="14.4" fill="#009af9" fill-rule="evenodd" fill-opacity="1" stroke="#000000" stroke-opacity="1" stroke-width="3.84"/>
<circle clip-path="url(#clip072)" cx="2140.44" cy="579.37" r="14.4" fill="#009af9" fill-rule="evenodd" fill-opacity="1" stroke="#000000" stroke-opacity="1" stroke-width="3.84"/>
<circle clip-path="url(#clip072)" cx="2162.75" cy="579.37" r="14.4" fill="#009af9" fill-rule="evenodd" fill-opacity="1" stroke="#000000" stroke-opacity="1" stroke-width="3.84"/>
<circle clip-path="url(#clip072)" cx="2355.46" cy="579.37" r="14.4" fill="#009af9" fill-rule="evenodd" fill-opacity="1" stroke="#000000" stroke-opacity="1" stroke-width="3.84"/>
<circle clip-path="url(#clip072)" cx="2103.92" cy="372.586" r="14.4" fill="#009af9" fill-rule="evenodd" fill-opacity="1" stroke="#000000" stroke-opacity="1" stroke-width="3.84"/>
<circle clip-path="url(#clip072)" cx="2333.58" cy="717.227" r="14.4" fill="#009af9" fill-rule="evenodd" fill-opacity="1" stroke="#000000" stroke-opacity="1" stroke-width="3.84"/>
<circle clip-path="url(#clip072)" cx="2427.16" cy="510.442" r="14.4" fill="#009af9" fill-rule="evenodd" fill-opacity="1" stroke="#000000" stroke-opacity="1" stroke-width="3.84"/>
<circle clip-path="url(#clip072)" cx="2486.85" cy="441.514" r="14.4" fill="#009af9" fill-rule="evenodd" fill-opacity="1" stroke="#000000" stroke-opacity="1" stroke-width="3.84"/>
<circle clip-path="url(#clip072)" cx="2135.77" cy="303.657" r="14.4" fill="#009af9" fill-rule="evenodd" fill-opacity="1" stroke="#000000" stroke-opacity="1" stroke-width="3.84"/>
<circle clip-path="url(#clip072)" cx="2238.47" cy="786.155" r="14.4" fill="#009af9" fill-rule="evenodd" fill-opacity="1" stroke="#000000" stroke-opacity="1" stroke-width="3.84"/>
<circle clip-path="url(#clip072)" cx="2294.13" cy="855.083" r="14.4" fill="#009af9" fill-rule="evenodd" fill-opacity="1" stroke="#000000" stroke-opacity="1" stroke-width="3.84"/>
<circle clip-path="url(#clip072)" cx="2438.43" cy="234.729" r="14.4" fill="#009af9" fill-rule="evenodd" fill-opacity="1" stroke="#000000" stroke-opacity="1" stroke-width="3.84"/>
<circle clip-path="url(#clip072)" cx="2298.86" cy="165.801" r="14.4" fill="#009af9" fill-rule="evenodd" fill-opacity="1" stroke="#000000" stroke-opacity="1" stroke-width="3.84"/>
<circle clip-path="url(#clip072)" cx="2215.34" cy="579.37" r="14.4" fill="#009af9" fill-rule="evenodd" fill-opacity="1" stroke="#000000" stroke-opacity="1" stroke-width="3.84"/>
<circle clip-path="url(#clip072)" cx="1952.69" cy="579.37" r="14.4" fill="#009af9" fill-rule="evenodd" fill-opacity="1" stroke="#000000" stroke-opacity="1" stroke-width="3.84"/>
<circle clip-path="url(#clip072)" cx="2168.72" cy="372.586" r="14.4" fill="#009af9" fill-rule="evenodd" fill-opacity="1" stroke="#000000" stroke-opacity="1" stroke-width="3.84"/>
<circle clip-path="url(#clip072)" cx="2063.11" cy="165.801" r="14.4" fill="#009af9" fill-rule="evenodd" fill-opacity="1" stroke="#000000" stroke-opacity="1" stroke-width="3.84"/>
<circle clip-path="url(#clip072)" cx="2393.26" cy="234.729" r="14.4" fill="#009af9" fill-rule="evenodd" fill-opacity="1" stroke="#000000" stroke-opacity="1" stroke-width="3.84"/>
<circle clip-path="url(#clip072)" cx="2543.87" cy="510.442" r="14.4" fill="#009af9" fill-rule="evenodd" fill-opacity="1" stroke="#000000" stroke-opacity="1" stroke-width="3.84"/>
<circle clip-path="url(#clip072)" cx="2480.86" cy="234.729" r="14.4" fill="#009af9" fill-rule="evenodd" fill-opacity="1" stroke="#000000" stroke-opacity="1" stroke-width="3.84"/>
<circle clip-path="url(#clip072)" cx="2253.39" cy="96.8724" r="14.4" fill="#009af9" fill-rule="evenodd" fill-opacity="1" stroke="#000000" stroke-opacity="1" stroke-width="3.84"/>
<circle clip-path="url(#clip072)" cx="2224.24" cy="234.729" r="14.4" fill="#009af9" fill-rule="evenodd" fill-opacity="1" stroke="#000000" stroke-opacity="1" stroke-width="3.84"/>
<circle clip-path="url(#clip072)" cx="2452.6" cy="510.442" r="14.4" fill="#009af9" fill-rule="evenodd" fill-opacity="1" stroke="#000000" stroke-opacity="1" stroke-width="3.84"/>
<circle clip-path="url(#clip072)" cx="2163.46" cy="441.514" r="14.4" fill="#009af9" fill-rule="evenodd" fill-opacity="1" stroke="#000000" stroke-opacity="1" stroke-width="3.84"/>
<circle clip-path="url(#clip072)" cx="2422.4" cy="234.729" r="14.4" fill="#009af9" fill-rule="evenodd" fill-opacity="1" stroke="#000000" stroke-opacity="1" stroke-width="3.84"/>
<circle clip-path="url(#clip072)" cx="2570.51" cy="579.37" r="14.4" fill="#009af9" fill-rule="evenodd" fill-opacity="1" stroke="#000000" stroke-opacity="1" stroke-width="3.84"/>
</svg>
