<?xml version="1.0" encoding="utf-8"?>
<svg xmlns="http://www.w3.org/2000/svg" xmlns:xlink="http://www.w3.org/1999/xlink" width="672" height="480" viewBox="0 0 2688 1920">
<defs>
  <clipPath id="clip430">
    <rect x="0" y="0" width="2688" height="1920"/>
  </clipPath>
</defs>
<path clip-path="url(#clip430)" d="
M0 1920 L2688 1920 L2688 0 L0 0  Z
  " fill="#ffffff" fill-rule="evenodd" fill-opacity="1"/>
<defs>
  <clipPath id="clip431">
    <rect x="537" y="0" width="1883" height="1883"/>
  </clipPath>
</defs>
<path clip-path="url(#clip430)" d="
M158.992 1800.78 L2640.76 1800.78 L2640.76 47.2441 L158.992 47.2441  Z
  " fill="#ffffff" fill-rule="evenodd" fill-opacity="1"/>
<defs>
  <clipPath id="clip432">
    <rect x="158" y="47" width="2483" height="1755"/>
  </clipPath>
</defs>
<polyline clip-path="url(#clip432)" style="stroke:#000000; stroke-linecap:round; stroke-linejoin:round; stroke-width:2; stroke-opacity:0.1; fill:none" points="
  357.486,1800.78 357.486,47.2441 
  "/>
<polyline clip-path="url(#clip432)" style="stroke:#000000; stroke-linecap:round; stroke-linejoin:round; stroke-width:2; stroke-opacity:0.1; fill:none" points="
  688.679,1800.78 688.679,47.2441 
  "/>
<polyline clip-path="url(#clip432)" style="stroke:#000000; stroke-linecap:round; stroke-linejoin:round; stroke-width:2; stroke-opacity:0.1; fill:none" points="
  1019.87,1800.78 1019.87,47.2441 
  "/>
<polyline clip-path="url(#clip432)" style="stroke:#000000; stroke-linecap:round; stroke-linejoin:round; stroke-width:2; stroke-opacity:0.1; fill:none" points="
  1351.06,1800.78 1351.06,47.2441 
  "/>
<polyline clip-path="url(#clip432)" style="stroke:#000000; stroke-linecap:round; stroke-linejoin:round; stroke-width:2; stroke-opacity:0.1; fill:none" points="
  1682.26,1800.78 1682.26,47.2441 
  "/>
<polyline clip-path="url(#clip432)" style="stroke:#000000; stroke-linecap:round; stroke-linejoin:round; stroke-width:2; stroke-opacity:0.1; fill:none" points="
  2013.45,1800.78 2013.45,47.2441 
  "/>
<polyline clip-path="url(#clip432)" style="stroke:#000000; stroke-linecap:round; stroke-linejoin:round; stroke-width:2; stroke-opacity:0.1; fill:none" points="
  2344.64,1800.78 2344.64,47.2441 
  "/>
<polyline clip-path="url(#clip430)" style="stroke:#000000; stroke-linecap:round; stroke-linejoin:round; stroke-width:4; stroke-opacity:1; fill:none" points="
  158.992,1800.78 2640.76,1800.78 
  "/>
<polyline clip-path="url(#clip430)" style="stroke:#000000; stroke-linecap:round; stroke-linejoin:round; stroke-width:4; stroke-opacity:1; fill:none" points="
  357.486,1800.78 357.486,1781.88 
  "/>
<polyline clip-path="url(#clip430)" style="stroke:#000000; stroke-linecap:round; stroke-linejoin:round; stroke-width:4; stroke-opacity:1; fill:none" points="
  688.679,1800.78 688.679,1781.88 
  "/>
<polyline clip-path="url(#clip430)" style="stroke:#000000; stroke-linecap:round; stroke-linejoin:round; stroke-width:4; stroke-opacity:1; fill:none" points="
  1019.87,1800.78 1019.87,1781.88 
  "/>
<polyline clip-path="url(#clip430)" style="stroke:#000000; stroke-linecap:round; stroke-linejoin:round; stroke-width:4; stroke-opacity:1; fill:none" points="
  1351.06,1800.78 1351.06,1781.88 
  "/>
<polyline clip-path="url(#clip430)" style="stroke:#000000; stroke-linecap:round; stroke-linejoin:round; stroke-width:4; stroke-opacity:1; fill:none" points="
  1682.26,1800.78 1682.26,1781.88 
  "/>
<polyline clip-path="url(#clip430)" style="stroke:#000000; stroke-linecap:round; stroke-linejoin:round; stroke-width:4; stroke-opacity:1; fill:none" points="
  2013.45,1800.78 2013.45,1781.88 
  "/>
<polyline clip-path="url(#clip430)" style="stroke:#000000; stroke-linecap:round; stroke-linejoin:round; stroke-width:4; stroke-opacity:1; fill:none" points="
  2344.64,1800.78 2344.64,1781.88 
  "/>
<path clip-path="url(#clip430)" d="M334.917 1834 Q331.305 1834 329.477 1837.57 Q327.671 1841.11 327.671 1848.24 Q327.671 1855.34 329.477 1858.91 Q331.305 1862.45 334.917 1862.45 Q338.551 1862.45 340.356 1858.91 Q342.185 1855.34 342.185 1848.24 Q342.185 1841.11 340.356 1837.57 Q338.551 1834 334.917 1834 M334.917 1830.3 Q340.727 1830.3 343.782 1834.9 Q346.861 1839.49 346.861 1848.24 Q346.861 1856.96 343.782 1861.57 Q340.727 1866.15 334.917 1866.15 Q329.106 1866.15 326.028 1861.57 Q322.972 1856.96 322.972 1848.24 Q322.972 1839.49 326.028 1834.9 Q329.106 1830.3 334.917 1830.3 Z" fill="#000000" fill-rule="evenodd" fill-opacity="1" /><path clip-path="url(#clip430)" d="M355.078 1859.6 L359.963 1859.6 L359.963 1865.48 L355.078 1865.48 L355.078 1859.6 Z" fill="#000000" fill-rule="evenodd" fill-opacity="1" /><path clip-path="url(#clip430)" d="M380.148 1849.07 Q376.814 1849.07 374.893 1850.85 Q372.995 1852.64 372.995 1855.76 Q372.995 1858.89 374.893 1860.67 Q376.814 1862.45 380.148 1862.45 Q383.481 1862.45 385.402 1860.67 Q387.324 1858.86 387.324 1855.76 Q387.324 1852.64 385.402 1850.85 Q383.504 1849.07 380.148 1849.07 M375.472 1847.08 Q372.463 1846.34 370.773 1844.28 Q369.106 1842.22 369.106 1839.26 Q369.106 1835.11 372.046 1832.71 Q375.009 1830.3 380.148 1830.3 Q385.31 1830.3 388.25 1832.71 Q391.189 1835.11 391.189 1839.26 Q391.189 1842.22 389.5 1844.28 Q387.833 1846.34 384.847 1847.08 Q388.226 1847.87 390.101 1850.16 Q392 1852.45 392 1855.76 Q392 1860.78 388.921 1863.47 Q385.865 1866.15 380.148 1866.15 Q374.43 1866.15 371.352 1863.47 Q368.296 1860.78 368.296 1855.76 Q368.296 1852.45 370.194 1850.16 Q372.092 1847.87 375.472 1847.08 M373.759 1839.7 Q373.759 1842.38 375.426 1843.89 Q377.115 1845.39 380.148 1845.39 Q383.157 1845.39 384.847 1843.89 Q386.56 1842.38 386.56 1839.7 Q386.56 1837.01 384.847 1835.51 Q383.157 1834 380.148 1834 Q377.115 1834 375.426 1835.51 Q373.759 1837.01 373.759 1839.7 Z" fill="#000000" fill-rule="evenodd" fill-opacity="1" /><path clip-path="url(#clip430)" d="M655.831 1861.55 L663.47 1861.55 L663.47 1835.18 L655.16 1836.85 L655.16 1832.59 L663.424 1830.92 L668.1 1830.92 L668.1 1861.55 L675.739 1861.55 L675.739 1865.48 L655.831 1865.48 L655.831 1861.55 Z" fill="#000000" fill-rule="evenodd" fill-opacity="1" /><path clip-path="url(#clip430)" d="M685.183 1859.6 L690.067 1859.6 L690.067 1865.48 L685.183 1865.48 L685.183 1859.6 Z" fill="#000000" fill-rule="evenodd" fill-opacity="1" /><path clip-path="url(#clip430)" d="M710.252 1834 Q706.641 1834 704.813 1837.57 Q703.007 1841.11 703.007 1848.24 Q703.007 1855.34 704.813 1858.91 Q706.641 1862.45 710.252 1862.45 Q713.887 1862.45 715.692 1858.91 Q717.521 1855.34 717.521 1848.24 Q717.521 1841.11 715.692 1837.57 Q713.887 1834 710.252 1834 M710.252 1830.3 Q716.063 1830.3 719.118 1834.9 Q722.197 1839.49 722.197 1848.24 Q722.197 1856.96 719.118 1861.57 Q716.063 1866.15 710.252 1866.15 Q704.442 1866.15 701.364 1861.57 Q698.308 1856.96 698.308 1848.24 Q698.308 1839.49 701.364 1834.9 Q704.442 1830.3 710.252 1830.3 Z" fill="#000000" fill-rule="evenodd" fill-opacity="1" /><path clip-path="url(#clip430)" d="M987.823 1861.55 L995.462 1861.55 L995.462 1835.18 L987.151 1836.85 L987.151 1832.59 L995.415 1830.92 L1000.09 1830.92 L1000.09 1861.55 L1007.73 1861.55 L1007.73 1865.48 L987.823 1865.48 L987.823 1861.55 Z" fill="#000000" fill-rule="evenodd" fill-opacity="1" /><path clip-path="url(#clip430)" d="M1017.17 1859.6 L1022.06 1859.6 L1022.06 1865.48 L1017.17 1865.48 L1017.17 1859.6 Z" fill="#000000" fill-rule="evenodd" fill-opacity="1" /><path clip-path="url(#clip430)" d="M1036.27 1861.55 L1052.59 1861.55 L1052.59 1865.48 L1030.65 1865.48 L1030.65 1861.55 Q1033.31 1858.79 1037.89 1854.16 Q1042.5 1849.51 1043.68 1848.17 Q1045.92 1845.65 1046.8 1843.91 Q1047.71 1842.15 1047.71 1840.46 Q1047.71 1837.71 1045.76 1835.97 Q1043.84 1834.23 1040.74 1834.23 Q1038.54 1834.23 1036.09 1835 Q1033.66 1835.76 1030.88 1837.31 L1030.88 1832.59 Q1033.7 1831.46 1036.16 1830.88 Q1038.61 1830.3 1040.65 1830.3 Q1046.02 1830.3 1049.21 1832.98 Q1052.41 1835.67 1052.41 1840.16 Q1052.41 1842.29 1051.6 1844.21 Q1050.81 1846.11 1048.7 1848.7 Q1048.12 1849.37 1045.02 1852.59 Q1041.92 1855.78 1036.27 1861.55 Z" fill="#000000" fill-rule="evenodd" fill-opacity="1" /><path clip-path="url(#clip430)" d="M1317.97 1861.55 L1325.61 1861.55 L1325.61 1835.18 L1317.3 1836.85 L1317.3 1832.59 L1325.57 1830.92 L1330.24 1830.92 L1330.24 1861.55 L1337.88 1861.55 L1337.88 1865.48 L1317.97 1865.48 L1317.97 1861.55 Z" fill="#000000" fill-rule="evenodd" fill-opacity="1" /><path clip-path="url(#clip430)" d="M1347.33 1859.6 L1352.21 1859.6 L1352.21 1865.48 L1347.33 1865.48 L1347.33 1859.6 Z" fill="#000000" fill-rule="evenodd" fill-opacity="1" /><path clip-path="url(#clip430)" d="M1375.24 1835 L1363.44 1853.45 L1375.24 1853.45 L1375.24 1835 M1374.02 1830.92 L1379.89 1830.92 L1379.89 1853.45 L1384.83 1853.45 L1384.83 1857.34 L1379.89 1857.34 L1379.89 1865.48 L1375.24 1865.48 L1375.24 1857.34 L1359.64 1857.34 L1359.64 1852.82 L1374.02 1830.92 Z" fill="#000000" fill-rule="evenodd" fill-opacity="1" /><path clip-path="url(#clip430)" d="M1649.33 1861.55 L1656.97 1861.55 L1656.97 1835.18 L1648.66 1836.85 L1648.66 1832.59 L1656.92 1830.92 L1661.6 1830.92 L1661.6 1861.55 L1669.24 1861.55 L1669.24 1865.48 L1649.33 1865.48 L1649.33 1861.55 Z" fill="#000000" fill-rule="evenodd" fill-opacity="1" /><path clip-path="url(#clip430)" d="M1678.68 1859.6 L1683.56 1859.6 L1683.56 1865.48 L1678.68 1865.48 L1678.68 1859.6 Z" fill="#000000" fill-rule="evenodd" fill-opacity="1" /><path clip-path="url(#clip430)" d="M1704.33 1846.34 Q1701.18 1846.34 1699.33 1848.49 Q1697.5 1850.65 1697.5 1854.4 Q1697.5 1858.12 1699.33 1860.3 Q1701.18 1862.45 1704.33 1862.45 Q1707.48 1862.45 1709.3 1860.3 Q1711.16 1858.12 1711.16 1854.4 Q1711.16 1850.65 1709.3 1848.49 Q1707.48 1846.34 1704.33 1846.34 M1713.61 1831.69 L1713.61 1835.95 Q1711.85 1835.11 1710.05 1834.67 Q1708.26 1834.23 1706.5 1834.23 Q1701.87 1834.23 1699.42 1837.36 Q1696.99 1840.48 1696.64 1846.8 Q1698.01 1844.79 1700.07 1843.72 Q1702.13 1842.64 1704.61 1842.64 Q1709.81 1842.64 1712.82 1845.81 Q1715.86 1848.96 1715.86 1854.4 Q1715.86 1859.72 1712.71 1862.94 Q1709.56 1866.15 1704.33 1866.15 Q1698.33 1866.15 1695.16 1861.57 Q1691.99 1856.96 1691.99 1848.24 Q1691.99 1840.04 1695.88 1835.18 Q1699.77 1830.3 1706.32 1830.3 Q1708.08 1830.3 1709.86 1830.65 Q1711.67 1830.99 1713.61 1831.69 Z" fill="#000000" fill-rule="evenodd" fill-opacity="1" /><path clip-path="url(#clip430)" d="M1980.65 1861.55 L1988.29 1861.55 L1988.29 1835.18 L1979.98 1836.85 L1979.98 1832.59 L1988.24 1830.92 L1992.92 1830.92 L1992.92 1861.55 L2000.56 1861.55 L2000.56 1865.48 L1980.65 1865.48 L1980.65 1861.55 Z" fill="#000000" fill-rule="evenodd" fill-opacity="1" /><path clip-path="url(#clip430)" d="M2010 1859.6 L2014.88 1859.6 L2014.88 1865.48 L2010 1865.48 L2010 1859.6 Z" fill="#000000" fill-rule="evenodd" fill-opacity="1" /><path clip-path="url(#clip430)" d="M2035.07 1849.07 Q2031.74 1849.07 2029.81 1850.85 Q2027.92 1852.64 2027.92 1855.76 Q2027.92 1858.89 2029.81 1860.67 Q2031.74 1862.45 2035.07 1862.45 Q2038.4 1862.45 2040.32 1860.67 Q2042.25 1858.86 2042.25 1855.76 Q2042.25 1852.64 2040.32 1850.85 Q2038.43 1849.07 2035.07 1849.07 M2030.39 1847.08 Q2027.38 1846.34 2025.69 1844.28 Q2024.03 1842.22 2024.03 1839.26 Q2024.03 1835.11 2026.97 1832.71 Q2029.93 1830.3 2035.07 1830.3 Q2040.23 1830.3 2043.17 1832.71 Q2046.11 1835.11 2046.11 1839.26 Q2046.11 1842.22 2044.42 1844.28 Q2042.75 1846.34 2039.77 1847.08 Q2043.15 1847.87 2045.02 1850.16 Q2046.92 1852.45 2046.92 1855.76 Q2046.92 1860.78 2043.84 1863.47 Q2040.79 1866.15 2035.07 1866.15 Q2029.35 1866.15 2026.27 1863.47 Q2023.22 1860.78 2023.22 1855.76 Q2023.22 1852.45 2025.12 1850.16 Q2027.01 1847.87 2030.39 1847.08 M2028.68 1839.7 Q2028.68 1842.38 2030.35 1843.89 Q2032.04 1845.39 2035.07 1845.39 Q2038.08 1845.39 2039.77 1843.89 Q2041.48 1842.38 2041.48 1839.7 Q2041.48 1837.01 2039.77 1835.51 Q2038.08 1834 2035.07 1834 Q2032.04 1834 2030.35 1835.51 Q2028.68 1837.01 2028.68 1839.7 Z" fill="#000000" fill-rule="evenodd" fill-opacity="1" /><path clip-path="url(#clip430)" d="M2315.88 1861.55 L2332.2 1861.55 L2332.2 1865.48 L2310.26 1865.48 L2310.26 1861.55 Q2312.92 1858.79 2317.5 1854.16 Q2322.11 1849.51 2323.29 1848.17 Q2325.53 1845.65 2326.41 1843.91 Q2327.32 1842.15 2327.32 1840.46 Q2327.32 1837.71 2325.37 1835.97 Q2323.45 1834.23 2320.35 1834.23 Q2318.15 1834.23 2315.7 1835 Q2313.26 1835.76 2310.49 1837.31 L2310.49 1832.59 Q2313.31 1831.46 2315.76 1830.88 Q2318.22 1830.3 2320.26 1830.3 Q2325.63 1830.3 2328.82 1832.98 Q2332.01 1835.67 2332.01 1840.16 Q2332.01 1842.29 2331.2 1844.21 Q2330.42 1846.11 2328.31 1848.7 Q2327.73 1849.37 2324.63 1852.59 Q2321.53 1855.78 2315.88 1861.55 Z" fill="#000000" fill-rule="evenodd" fill-opacity="1" /><path clip-path="url(#clip430)" d="M2342.01 1859.6 L2346.9 1859.6 L2346.9 1865.48 L2342.01 1865.48 L2342.01 1859.6 Z" fill="#000000" fill-rule="evenodd" fill-opacity="1" /><path clip-path="url(#clip430)" d="M2367.08 1834 Q2363.47 1834 2361.64 1837.57 Q2359.84 1841.11 2359.84 1848.24 Q2359.84 1855.34 2361.64 1858.91 Q2363.47 1862.45 2367.08 1862.45 Q2370.72 1862.45 2372.52 1858.91 Q2374.35 1855.34 2374.35 1848.24 Q2374.35 1841.11 2372.52 1837.57 Q2370.72 1834 2367.08 1834 M2367.08 1830.3 Q2372.89 1830.3 2375.95 1834.9 Q2379.03 1839.49 2379.03 1848.24 Q2379.03 1856.96 2375.95 1861.57 Q2372.89 1866.15 2367.08 1866.15 Q2361.27 1866.15 2358.2 1861.57 Q2355.14 1856.96 2355.14 1848.24 Q2355.14 1839.49 2358.2 1834.9 Q2361.27 1830.3 2367.08 1830.3 Z" fill="#000000" fill-rule="evenodd" fill-opacity="1" /><polyline clip-path="url(#clip432)" style="stroke:#000000; stroke-linecap:round; stroke-linejoin:round; stroke-width:2; stroke-opacity:0.1; fill:none" points="
  158.992,1607.34 2640.76,1607.34 
  "/>
<polyline clip-path="url(#clip432)" style="stroke:#000000; stroke-linecap:round; stroke-linejoin:round; stroke-width:2; stroke-opacity:0.1; fill:none" points="
  158.992,1234.59 2640.76,1234.59 
  "/>
<polyline clip-path="url(#clip432)" style="stroke:#000000; stroke-linecap:round; stroke-linejoin:round; stroke-width:2; stroke-opacity:0.1; fill:none" points="
  158.992,861.848 2640.76,861.848 
  "/>
<polyline clip-path="url(#clip432)" style="stroke:#000000; stroke-linecap:round; stroke-linejoin:round; stroke-width:2; stroke-opacity:0.1; fill:none" points="
  158.992,489.104 2640.76,489.104 
  "/>
<polyline clip-path="url(#clip432)" style="stroke:#000000; stroke-linecap:round; stroke-linejoin:round; stroke-width:2; stroke-opacity:0.1; fill:none" points="
  158.992,116.36 2640.76,116.36 
  "/>
<polyline clip-path="url(#clip430)" style="stroke:#000000; stroke-linecap:round; stroke-linejoin:round; stroke-width:4; stroke-opacity:1; fill:none" points="
  158.992,1800.78 158.992,47.2441 
  "/>
<polyline clip-path="url(#clip430)" style="stroke:#000000; stroke-linecap:round; stroke-linejoin:round; stroke-width:4; stroke-opacity:1; fill:none" points="
  158.992,1607.34 177.89,1607.34 
  "/>
<polyline clip-path="url(#clip430)" style="stroke:#000000; stroke-linecap:round; stroke-linejoin:round; stroke-width:4; stroke-opacity:1; fill:none" points="
  158.992,1234.59 177.89,1234.59 
  "/>
<polyline clip-path="url(#clip430)" style="stroke:#000000; stroke-linecap:round; stroke-linejoin:round; stroke-width:4; stroke-opacity:1; fill:none" points="
  158.992,861.848 177.89,861.848 
  "/>
<polyline clip-path="url(#clip430)" style="stroke:#000000; stroke-linecap:round; stroke-linejoin:round; stroke-width:4; stroke-opacity:1; fill:none" points="
  158.992,489.104 177.89,489.104 
  "/>
<polyline clip-path="url(#clip430)" style="stroke:#000000; stroke-linecap:round; stroke-linejoin:round; stroke-width:4; stroke-opacity:1; fill:none" points="
  158.992,116.36 177.89,116.36 
  "/>
<path clip-path="url(#clip430)" d="M61.4965 1593.13 Q57.8854 1593.13 56.0567 1596.7 Q54.2512 1600.24 54.2512 1607.37 Q54.2512 1614.48 56.0567 1618.04 Q57.8854 1621.58 61.4965 1621.58 Q65.1307 1621.58 66.9363 1618.04 Q68.765 1614.48 68.765 1607.37 Q68.765 1600.24 66.9363 1596.7 Q65.1307 1593.13 61.4965 1593.13 M61.4965 1589.43 Q67.3067 1589.43 70.3622 1594.04 Q73.4409 1598.62 73.4409 1607.37 Q73.4409 1616.1 70.3622 1620.7 Q67.3067 1625.29 61.4965 1625.29 Q55.6864 1625.29 52.6077 1620.7 Q49.5521 1616.1 49.5521 1607.37 Q49.5521 1598.62 52.6077 1594.04 Q55.6864 1589.43 61.4965 1589.43 Z" fill="#000000" fill-rule="evenodd" fill-opacity="1" /><path clip-path="url(#clip430)" d="M81.6584 1618.74 L86.5427 1618.74 L86.5427 1624.62 L81.6584 1624.62 L81.6584 1618.74 Z" fill="#000000" fill-rule="evenodd" fill-opacity="1" /><path clip-path="url(#clip430)" d="M106.728 1593.13 Q103.117 1593.13 101.288 1596.7 Q99.4824 1600.24 99.4824 1607.37 Q99.4824 1614.48 101.288 1618.04 Q103.117 1621.58 106.728 1621.58 Q110.362 1621.58 112.168 1618.04 Q113.996 1614.48 113.996 1607.37 Q113.996 1600.24 112.168 1596.7 Q110.362 1593.13 106.728 1593.13 M106.728 1589.43 Q112.538 1589.43 115.593 1594.04 Q118.672 1598.62 118.672 1607.37 Q118.672 1616.1 115.593 1620.7 Q112.538 1625.29 106.728 1625.29 Q100.918 1625.29 97.8389 1620.7 Q94.7834 1616.1 94.7834 1607.37 Q94.7834 1598.62 97.8389 1594.04 Q100.918 1589.43 106.728 1589.43 Z" fill="#000000" fill-rule="evenodd" fill-opacity="1" /><path clip-path="url(#clip430)" d="M62.4919 1220.39 Q58.8808 1220.39 57.0521 1223.96 Q55.2465 1227.5 55.2465 1234.63 Q55.2465 1241.73 57.0521 1245.3 Q58.8808 1248.84 62.4919 1248.84 Q66.1261 1248.84 67.9317 1245.3 Q69.7604 1241.73 69.7604 1234.63 Q69.7604 1227.5 67.9317 1223.96 Q66.1261 1220.39 62.4919 1220.39 M62.4919 1216.69 Q68.302 1216.69 71.3576 1221.29 Q74.4363 1225.88 74.4363 1234.63 Q74.4363 1243.35 71.3576 1247.96 Q68.302 1252.54 62.4919 1252.54 Q56.6817 1252.54 53.603 1247.96 Q50.5475 1243.35 50.5475 1234.63 Q50.5475 1225.88 53.603 1221.29 Q56.6817 1216.69 62.4919 1216.69 Z" fill="#000000" fill-rule="evenodd" fill-opacity="1" /><path clip-path="url(#clip430)" d="M82.6538 1245.99 L87.538 1245.99 L87.538 1251.87 L82.6538 1251.87 L82.6538 1245.99 Z" fill="#000000" fill-rule="evenodd" fill-opacity="1" /><path clip-path="url(#clip430)" d="M97.7695 1217.31 L116.126 1217.31 L116.126 1221.25 L102.052 1221.25 L102.052 1229.72 Q103.07 1229.37 104.089 1229.21 Q105.107 1229.02 106.126 1229.02 Q111.913 1229.02 115.293 1232.2 Q118.672 1235.37 118.672 1240.78 Q118.672 1246.36 115.2 1249.46 Q111.728 1252.54 105.408 1252.54 Q103.232 1252.54 100.964 1252.17 Q98.7185 1251.8 96.3111 1251.06 L96.3111 1246.36 Q98.3945 1247.5 100.617 1248.05 Q102.839 1248.61 105.316 1248.61 Q109.32 1248.61 111.658 1246.5 Q113.996 1244.4 113.996 1240.78 Q113.996 1237.17 111.658 1235.07 Q109.32 1232.96 105.316 1232.96 Q103.441 1232.96 101.566 1233.38 Q99.7139 1233.79 97.7695 1234.67 L97.7695 1217.31 Z" fill="#000000" fill-rule="evenodd" fill-opacity="1" /><path clip-path="url(#clip430)" d="M52.3067 875.193 L59.9456 875.193 L59.9456 848.827 L51.6354 850.494 L51.6354 846.235 L59.8993 844.568 L64.5752 844.568 L64.5752 875.193 L72.214 875.193 L72.214 879.128 L52.3067 879.128 L52.3067 875.193 Z" fill="#000000" fill-rule="evenodd" fill-opacity="1" /><path clip-path="url(#clip430)" d="M81.6584 873.249 L86.5427 873.249 L86.5427 879.128 L81.6584 879.128 L81.6584 873.249 Z" fill="#000000" fill-rule="evenodd" fill-opacity="1" /><path clip-path="url(#clip430)" d="M106.728 847.647 Q103.117 847.647 101.288 851.212 Q99.4824 854.753 99.4824 861.883 Q99.4824 868.989 101.288 872.554 Q103.117 876.096 106.728 876.096 Q110.362 876.096 112.168 872.554 Q113.996 868.989 113.996 861.883 Q113.996 854.753 112.168 851.212 Q110.362 847.647 106.728 847.647 M106.728 843.943 Q112.538 843.943 115.593 848.55 Q118.672 853.133 118.672 861.883 Q118.672 870.61 115.593 875.216 Q112.538 879.799 106.728 879.799 Q100.918 879.799 97.8389 875.216 Q94.7834 870.61 94.7834 861.883 Q94.7834 853.133 97.8389 848.55 Q100.918 843.943 106.728 843.943 Z" fill="#000000" fill-rule="evenodd" fill-opacity="1" /><path clip-path="url(#clip430)" d="M53.3021 502.449 L60.941 502.449 L60.941 476.084 L52.6308 477.75 L52.6308 473.491 L60.8947 471.824 L65.5706 471.824 L65.5706 502.449 L73.2094 502.449 L73.2094 506.384 L53.3021 506.384 L53.3021 502.449 Z" fill="#000000" fill-rule="evenodd" fill-opacity="1" /><path clip-path="url(#clip430)" d="M82.6538 500.505 L87.538 500.505 L87.538 506.384 L82.6538 506.384 L82.6538 500.505 Z" fill="#000000" fill-rule="evenodd" fill-opacity="1" /><path clip-path="url(#clip430)" d="M97.7695 471.824 L116.126 471.824 L116.126 475.759 L102.052 475.759 L102.052 484.232 Q103.07 483.884 104.089 483.722 Q105.107 483.537 106.126 483.537 Q111.913 483.537 115.293 486.708 Q118.672 489.88 118.672 495.296 Q118.672 500.875 115.2 503.977 Q111.728 507.056 105.408 507.056 Q103.232 507.056 100.964 506.685 Q98.7185 506.315 96.3111 505.574 L96.3111 500.875 Q98.3945 502.009 100.617 502.565 Q102.839 503.12 105.316 503.12 Q109.32 503.12 111.658 501.014 Q113.996 498.907 113.996 495.296 Q113.996 491.685 111.658 489.579 Q109.32 487.472 105.316 487.472 Q103.441 487.472 101.566 487.889 Q99.7139 488.306 97.7695 489.185 L97.7695 471.824 Z" fill="#000000" fill-rule="evenodd" fill-opacity="1" /><path clip-path="url(#clip430)" d="M55.5243 129.705 L71.8437 129.705 L71.8437 133.64 L49.8993 133.64 L49.8993 129.705 Q52.5614 126.951 57.1447 122.321 Q61.7511 117.668 62.9317 116.326 Q65.177 113.803 66.0567 112.066 Q66.9594 110.307 66.9594 108.617 Q66.9594 105.863 65.015 104.127 Q63.0937 102.391 59.9919 102.391 Q57.7928 102.391 55.3391 103.154 Q52.9086 103.918 50.1308 105.469 L50.1308 100.747 Q52.9549 99.6128 55.4086 99.0341 Q57.8623 98.4554 59.8993 98.4554 Q65.2696 98.4554 68.4641 101.141 Q71.6585 103.826 71.6585 108.316 Q71.6585 110.446 70.8483 112.367 Q70.0613 114.266 67.9548 116.858 Q67.3761 117.529 64.2743 120.747 Q61.1724 123.941 55.5243 129.705 Z" fill="#000000" fill-rule="evenodd" fill-opacity="1" /><path clip-path="url(#clip430)" d="M81.6584 127.761 L86.5427 127.761 L86.5427 133.64 L81.6584 133.64 L81.6584 127.761 Z" fill="#000000" fill-rule="evenodd" fill-opacity="1" /><path clip-path="url(#clip430)" d="M106.728 102.159 Q103.117 102.159 101.288 105.724 Q99.4824 109.266 99.4824 116.395 Q99.4824 123.502 101.288 127.066 Q103.117 130.608 106.728 130.608 Q110.362 130.608 112.168 127.066 Q113.996 123.502 113.996 116.395 Q113.996 109.266 112.168 105.724 Q110.362 102.159 106.728 102.159 M106.728 98.4554 Q112.538 98.4554 115.593 103.062 Q118.672 107.645 118.672 116.395 Q118.672 125.122 115.593 129.728 Q112.538 134.312 106.728 134.312 Q100.918 134.312 97.8389 129.728 Q94.7834 125.122 94.7834 116.395 Q94.7834 107.645 97.8389 103.062 Q100.918 98.4554 106.728 98.4554 Z" fill="#000000" fill-rule="evenodd" fill-opacity="1" /><circle clip-path="url(#clip432)" cx="229.231" cy="1618.07" r="14.4" fill="#0000ff" fill-rule="evenodd" fill-opacity="1" stroke="#000000" stroke-opacity="1" stroke-width="3.84"/>
<circle clip-path="url(#clip432)" cx="345.679" cy="1122.04" r="14.4" fill="#0000ff" fill-rule="evenodd" fill-opacity="1" stroke="#000000" stroke-opacity="1" stroke-width="3.84"/>
<circle clip-path="url(#clip432)" cx="495.844" cy="1279.59" r="14.4" fill="#0000ff" fill-rule="evenodd" fill-opacity="1" stroke="#000000" stroke-opacity="1" stroke-width="3.84"/>
<circle clip-path="url(#clip432)" cx="499.36" cy="1134.52" r="14.4" fill="#0000ff" fill-rule="evenodd" fill-opacity="1" stroke="#000000" stroke-opacity="1" stroke-width="3.84"/>
<circle clip-path="url(#clip432)" cx="589.456" cy="1661.14" r="14.4" fill="#0000ff" fill-rule="evenodd" fill-opacity="1" stroke="#000000" stroke-opacity="1" stroke-width="3.84"/>
<circle clip-path="url(#clip432)" cx="703.315" cy="1476.31" r="14.4" fill="#0000ff" fill-rule="evenodd" fill-opacity="1" stroke="#000000" stroke-opacity="1" stroke-width="3.84"/>
<circle clip-path="url(#clip432)" cx="708.51" cy="1511.54" r="14.4" fill="#0000ff" fill-rule="evenodd" fill-opacity="1" stroke="#000000" stroke-opacity="1" stroke-width="3.84"/>
<circle clip-path="url(#clip432)" cx="779.768" cy="1657.11" r="14.4" fill="#0000ff" fill-rule="evenodd" fill-opacity="1" stroke="#000000" stroke-opacity="1" stroke-width="3.84"/>
<circle clip-path="url(#clip432)" cx="832.593" cy="1751.15" r="14.4" fill="#0000ff" fill-rule="evenodd" fill-opacity="1" stroke="#000000" stroke-opacity="1" stroke-width="3.84"/>
<circle clip-path="url(#clip432)" cx="955.07" cy="1528.35" r="14.4" fill="#0000ff" fill-rule="evenodd" fill-opacity="1" stroke="#000000" stroke-opacity="1" stroke-width="3.84"/>
<circle clip-path="url(#clip432)" cx="1105.23" cy="1277.23" r="14.4" fill="#0000ff" fill-rule="evenodd" fill-opacity="1" stroke="#000000" stroke-opacity="1" stroke-width="3.84"/>
<circle clip-path="url(#clip432)" cx="1160.88" cy="1638.41" r="14.4" fill="#0000ff" fill-rule="evenodd" fill-opacity="1" stroke="#000000" stroke-opacity="1" stroke-width="3.84"/>
<circle clip-path="url(#clip432)" cx="1206.44" cy="1685.32" r="14.4" fill="#0000ff" fill-rule="evenodd" fill-opacity="1" stroke="#000000" stroke-opacity="1" stroke-width="3.84"/>
<circle clip-path="url(#clip432)" cx="1241.79" cy="1424.3" r="14.4" fill="#0000ff" fill-rule="evenodd" fill-opacity="1" stroke="#000000" stroke-opacity="1" stroke-width="3.84"/>
<circle clip-path="url(#clip432)" cx="1350.68" cy="1008.92" r="14.4" fill="#0000ff" fill-rule="evenodd" fill-opacity="1" stroke="#000000" stroke-opacity="1" stroke-width="3.84"/>
<circle clip-path="url(#clip432)" cx="1354.19" cy="1660.81" r="14.4" fill="#0000ff" fill-rule="evenodd" fill-opacity="1" stroke="#000000" stroke-opacity="1" stroke-width="3.84"/>
<circle clip-path="url(#clip432)" cx="1357.95" cy="1628.98" r="14.4" fill="#0000ff" fill-rule="evenodd" fill-opacity="1" stroke="#000000" stroke-opacity="1" stroke-width="3.84"/>
<circle clip-path="url(#clip432)" cx="1424.13" cy="1509.86" r="14.4" fill="#0000ff" fill-rule="evenodd" fill-opacity="1" stroke="#000000" stroke-opacity="1" stroke-width="3.84"/>
<circle clip-path="url(#clip432)" cx="1426.24" cy="1185.2" r="14.4" fill="#0000ff" fill-rule="evenodd" fill-opacity="1" stroke="#000000" stroke-opacity="1" stroke-width="3.84"/>
<circle clip-path="url(#clip432)" cx="1451.9" cy="1147.06" r="14.4" fill="#0000ff" fill-rule="evenodd" fill-opacity="1" stroke="#000000" stroke-opacity="1" stroke-width="3.84"/>
<circle clip-path="url(#clip432)" cx="1510.61" cy="1265.35" r="14.4" fill="#0000ff" fill-rule="evenodd" fill-opacity="1" stroke="#000000" stroke-opacity="1" stroke-width="3.84"/>
<circle clip-path="url(#clip432)" cx="1548.9" cy="1323.65" r="14.4" fill="#0000ff" fill-rule="evenodd" fill-opacity="1" stroke="#000000" stroke-opacity="1" stroke-width="3.84"/>
<circle clip-path="url(#clip432)" cx="1563.34" cy="1085.5" r="14.4" fill="#0000ff" fill-rule="evenodd" fill-opacity="1" stroke="#000000" stroke-opacity="1" stroke-width="3.84"/>
<circle clip-path="url(#clip432)" cx="1591.3" cy="1453.5" r="14.4" fill="#0000ff" fill-rule="evenodd" fill-opacity="1" stroke="#000000" stroke-opacity="1" stroke-width="3.84"/>
<circle clip-path="url(#clip432)" cx="1593.03" cy="1427.52" r="14.4" fill="#0000ff" fill-rule="evenodd" fill-opacity="1" stroke="#000000" stroke-opacity="1" stroke-width="3.84"/>
<circle clip-path="url(#clip432)" cx="1634.45" cy="1498.28" r="14.4" fill="#0000ff" fill-rule="evenodd" fill-opacity="1" stroke="#000000" stroke-opacity="1" stroke-width="3.84"/>
<circle clip-path="url(#clip432)" cx="1659.51" cy="1346.62" r="14.4" fill="#0000ff" fill-rule="evenodd" fill-opacity="1" stroke="#000000" stroke-opacity="1" stroke-width="3.84"/>
<circle clip-path="url(#clip432)" cx="1693.69" cy="1377.76" r="14.4" fill="#0000ff" fill-rule="evenodd" fill-opacity="1" stroke="#000000" stroke-opacity="1" stroke-width="3.84"/>
<circle clip-path="url(#clip432)" cx="1699.63" cy="1222.35" r="14.4" fill="#0000ff" fill-rule="evenodd" fill-opacity="1" stroke="#000000" stroke-opacity="1" stroke-width="3.84"/>
<circle clip-path="url(#clip432)" cx="1713.28" cy="1700.41" r="14.4" fill="#0000ff" fill-rule="evenodd" fill-opacity="1" stroke="#000000" stroke-opacity="1" stroke-width="3.84"/>
<circle clip-path="url(#clip432)" cx="1737.53" cy="1187.89" r="14.4" fill="#0000ff" fill-rule="evenodd" fill-opacity="1" stroke="#000000" stroke-opacity="1" stroke-width="3.84"/>
<circle clip-path="url(#clip432)" cx="1741.27" cy="1132.76" r="14.4" fill="#0000ff" fill-rule="evenodd" fill-opacity="1" stroke="#000000" stroke-opacity="1" stroke-width="3.84"/>
<circle clip-path="url(#clip432)" cx="1765.58" cy="1383.49" r="14.4" fill="#0000ff" fill-rule="evenodd" fill-opacity="1" stroke="#000000" stroke-opacity="1" stroke-width="3.84"/>
<circle clip-path="url(#clip432)" cx="1769.43" cy="1542.32" r="14.4" fill="#0000ff" fill-rule="evenodd" fill-opacity="1" stroke="#000000" stroke-opacity="1" stroke-width="3.84"/>
<circle clip-path="url(#clip432)" cx="1800.63" cy="1516.59" r="14.4" fill="#0000ff" fill-rule="evenodd" fill-opacity="1" stroke="#000000" stroke-opacity="1" stroke-width="3.84"/>
<circle clip-path="url(#clip432)" cx="1859.13" cy="1653.58" r="14.4" fill="#0000ff" fill-rule="evenodd" fill-opacity="1" stroke="#000000" stroke-opacity="1" stroke-width="3.84"/>
<circle clip-path="url(#clip432)" cx="1891.52" cy="1711.74" r="14.4" fill="#0000ff" fill-rule="evenodd" fill-opacity="1" stroke="#000000" stroke-opacity="1" stroke-width="3.84"/>
<circle clip-path="url(#clip432)" cx="1990.65" cy="1528.59" r="14.4" fill="#0000ff" fill-rule="evenodd" fill-opacity="1" stroke="#000000" stroke-opacity="1" stroke-width="3.84"/>
<circle clip-path="url(#clip432)" cx="1996.81" cy="1121.1" r="14.4" fill="#0000ff" fill-rule="evenodd" fill-opacity="1" stroke="#000000" stroke-opacity="1" stroke-width="3.84"/>
<circle clip-path="url(#clip432)" cx="2020.93" cy="1598.09" r="14.4" fill="#0000ff" fill-rule="evenodd" fill-opacity="1" stroke="#000000" stroke-opacity="1" stroke-width="3.84"/>
<circle clip-path="url(#clip432)" cx="2063.48" cy="1479.99" r="14.4" fill="#0000ff" fill-rule="evenodd" fill-opacity="1" stroke="#000000" stroke-opacity="1" stroke-width="3.84"/>
<circle clip-path="url(#clip432)" cx="2099.29" cy="1455.66" r="14.4" fill="#0000ff" fill-rule="evenodd" fill-opacity="1" stroke="#000000" stroke-opacity="1" stroke-width="3.84"/>
<circle clip-path="url(#clip432)" cx="2134.05" cy="1273.4" r="14.4" fill="#0000ff" fill-rule="evenodd" fill-opacity="1" stroke="#000000" stroke-opacity="1" stroke-width="3.84"/>
<circle clip-path="url(#clip432)" cx="2157.82" cy="1419.12" r="14.4" fill="#0000ff" fill-rule="evenodd" fill-opacity="1" stroke="#000000" stroke-opacity="1" stroke-width="3.84"/>
<circle clip-path="url(#clip432)" cx="2159.19" cy="96.8724" r="14.4" fill="#ff0000" fill-rule="evenodd" fill-opacity="1" stroke="#000000" stroke-opacity="1" stroke-width="3.84"/>
<circle clip-path="url(#clip432)" cx="2173.17" cy="1309.47" r="14.4" fill="#0000ff" fill-rule="evenodd" fill-opacity="1" stroke="#000000" stroke-opacity="1" stroke-width="3.84"/>
<circle clip-path="url(#clip432)" cx="2310.06" cy="1415.52" r="14.4" fill="#0000ff" fill-rule="evenodd" fill-opacity="1" stroke="#000000" stroke-opacity="1" stroke-width="3.84"/>
<circle clip-path="url(#clip432)" cx="2430.32" cy="245.97" r="14.4" fill="#ff0000" fill-rule="evenodd" fill-opacity="1" stroke="#000000" stroke-opacity="1" stroke-width="3.84"/>
<circle clip-path="url(#clip432)" cx="2543.66" cy="1625.83" r="14.4" fill="#0000ff" fill-rule="evenodd" fill-opacity="1" stroke="#000000" stroke-opacity="1" stroke-width="3.84"/>
<circle clip-path="url(#clip432)" cx="2570.52" cy="245.97" r="14.4" fill="#ff0000" fill-rule="evenodd" fill-opacity="1" stroke="#000000" stroke-opacity="1" stroke-width="3.84"/>
<polyline clip-path="url(#clip432)" style="stroke:#e26f46; stroke-linecap:round; stroke-linejoin:round; stroke-width:16; stroke-opacity:1; fill:none" points="
  229.231,1607.47 252.88,1602.82 276.529,1598.17 300.179,1593.51 323.828,1588.86 347.478,1584.21 371.127,1579.56 394.776,1574.9 418.426,1570.25 442.075,1565.6 
  465.724,1560.95 489.374,1556.29 513.023,1551.64 536.672,1546.99 560.322,1542.34 583.971,1537.68 607.62,1533.03 631.27,1528.38 654.919,1523.73 678.569,1519.07 
  702.218,1514.42 725.867,1509.77 749.517,1505.12 773.166,1500.46 796.815,1495.81 820.465,1491.16 844.114,1486.51 867.763,1481.85 891.413,1477.2 915.062,1472.55 
  938.712,1467.89 962.361,1463.24 986.01,1458.59 1009.66,1453.94 1033.31,1449.28 1056.96,1444.63 1080.61,1439.98 1104.26,1435.33 1127.91,1430.67 1151.56,1426.02 
  1175.21,1421.37 1198.85,1416.72 1222.5,1412.06 1246.15,1407.41 1269.8,1402.76 1293.45,1398.11 1317.1,1393.45 1340.75,1388.8 1364.4,1384.15 1388.05,1379.5 
  1411.7,1374.84 1435.35,1370.19 1459,1365.54 1482.65,1360.89 1506.3,1356.23 1529.95,1351.58 1553.59,1346.93 1577.24,1342.28 1600.89,1337.62 1624.54,1332.97 
  1648.19,1328.32 1671.84,1323.67 1695.49,1319.01 1719.14,1314.36 1742.79,1309.71 1766.44,1305.06 1790.09,1300.4 1813.74,1295.75 1837.39,1291.1 1861.04,1286.45 
  1884.69,1281.79 1908.34,1277.14 1931.98,1272.49 1955.63,1267.84 1979.28,1263.18 2002.93,1258.53 2026.58,1253.88 2050.23,1249.23 2073.88,1244.57 2097.53,1239.92 
  2121.18,1235.27 2144.83,1230.62 2168.48,1225.96 2192.13,1221.31 2215.78,1216.66 2239.43,1212.01 2263.08,1207.35 2286.72,1202.7 2310.37,1198.05 2334.02,1193.4 
  2357.67,1188.74 2381.32,1184.09 2404.97,1179.44 2428.62,1174.79 2452.27,1170.13 2475.92,1165.48 2499.57,1160.83 2523.22,1156.18 2546.87,1151.52 2570.52,1146.87 
  
  "/>
<polyline clip-path="url(#clip432)" style="stroke:#3da44d; stroke-linecap:round; stroke-linejoin:round; stroke-width:16; stroke-opacity:1; fill:none" points="
  229.231,1446.8 252.88,1446.42 276.529,1446.03 300.179,1445.65 323.828,1445.26 347.478,1444.88 371.127,1444.49 394.776,1444.11 418.426,1443.72 442.075,1443.34 
  465.724,1442.95 489.374,1442.57 513.023,1442.18 536.672,1441.8 560.322,1441.41 583.971,1441.03 607.62,1440.64 631.27,1440.26 654.919,1439.87 678.569,1439.49 
  702.218,1439.1 725.867,1438.72 749.517,1438.33 773.166,1437.95 796.815,1437.56 820.465,1437.18 844.114,1436.79 867.763,1436.41 891.413,1436.02 915.062,1435.64 
  938.712,1435.25 962.361,1434.87 986.01,1434.48 1009.66,1434.1 1033.31,1433.71 1056.96,1433.33 1080.61,1432.94 1104.26,1432.56 1127.91,1432.17 1151.56,1431.78 
  1175.21,1431.4 1198.85,1431.01 1222.5,1430.63 1246.15,1430.24 1269.8,1429.86 1293.45,1429.47 1317.1,1429.09 1340.75,1428.7 1364.4,1428.32 1388.05,1427.93 
  1411.7,1427.55 1435.35,1427.16 1459,1426.78 1482.65,1426.39 1506.3,1426.01 1529.95,1425.62 1553.59,1425.24 1577.24,1424.85 1600.89,1424.47 1624.54,1424.08 
  1648.19,1423.7 1671.84,1423.31 1695.49,1422.93 1719.14,1422.54 1742.79,1422.16 1766.44,1421.77 1790.09,1421.39 1813.74,1421 1837.39,1420.62 1861.04,1420.23 
  1884.69,1419.85 1908.34,1419.46 1931.98,1419.08 1955.63,1418.69 1979.28,1418.31 2002.93,1417.92 2026.58,1417.54 2050.23,1417.15 2073.88,1416.77 2097.53,1416.38 
  2121.18,1416 2144.83,1415.61 2168.48,1415.23 2192.13,1414.84 2215.78,1414.45 2239.43,1414.07 2263.08,1413.68 2286.72,1413.3 2310.37,1412.91 2334.02,1412.53 
  2357.67,1412.14 2381.32,1411.76 2404.97,1411.37 2428.62,1410.99 2452.27,1410.6 2475.92,1410.22 2499.57,1409.83 2523.22,1409.45 2546.87,1409.06 2570.52,1408.68 
  
  "/>
<path clip-path="url(#clip430)" d="
M241.718 313.055 L560.403 313.055 L560.403 105.695 L241.718 105.695  Z
  " fill="#ffffff" fill-rule="evenodd" fill-opacity="1"/>
<polyline clip-path="url(#clip430)" style="stroke:#000000; stroke-linecap:round; stroke-linejoin:round; stroke-width:4; stroke-opacity:1; fill:none" points="
  241.718,313.055 560.403,313.055 560.403,105.695 241.718,105.695 241.718,313.055 
  "/>
<circle clip-path="url(#clip430)" cx="352.018" cy="157.535" r="23.04" fill="#0000ff" fill-rule="evenodd" fill-opacity="1" stroke="#000000" stroke-opacity="1" stroke-width="6.144"/>
<path clip-path="url(#clip430)" d="M476.161 177.223 Q474.356 181.852 472.643 183.264 Q470.93 184.676 468.06 184.676 L464.657 184.676 L464.657 181.112 L467.157 181.112 Q468.916 181.112 469.888 180.278 Q470.86 179.445 472.041 176.343 L472.805 174.399 L462.319 148.889 L466.833 148.889 L474.934 169.167 L483.036 148.889 L487.55 148.889 L476.161 177.223 Z" fill="#000000" fill-rule="evenodd" fill-opacity="1" /><path clip-path="url(#clip430)" d="M494.842 170.88 L502.481 170.88 L502.481 144.515 L494.17 146.181 L494.17 141.922 L502.434 140.255 L507.11 140.255 L507.11 170.88 L514.749 170.88 L514.749 174.815 L494.842 174.815 L494.842 170.88 Z" fill="#000000" fill-rule="evenodd" fill-opacity="1" /><polyline clip-path="url(#clip430)" style="stroke:#e26f46; stroke-linecap:round; stroke-linejoin:round; stroke-width:16; stroke-opacity:1; fill:none" points="
  269.293,209.375 434.744,209.375 
  "/>
<path clip-path="url(#clip430)" d="M462.319 190.637 L466.578 190.637 L466.578 226.655 L462.319 226.655 L462.319 190.637 Z" fill="#000000" fill-rule="evenodd" fill-opacity="1" /><path clip-path="url(#clip430)" d="M495.675 205.706 Q497.272 202.836 499.495 201.47 Q501.717 200.104 504.726 200.104 Q508.777 200.104 510.976 202.952 Q513.175 205.776 513.175 211.007 L513.175 226.655 L508.893 226.655 L508.893 211.146 Q508.893 207.419 507.573 205.614 Q506.254 203.808 503.545 203.808 Q500.235 203.808 498.314 206.007 Q496.393 208.206 496.393 212.003 L496.393 226.655 L492.11 226.655 L492.11 211.146 Q492.11 207.396 490.791 205.614 Q489.471 203.808 486.717 203.808 Q483.453 203.808 481.532 206.03 Q479.61 208.229 479.61 212.003 L479.61 226.655 L475.328 226.655 L475.328 200.729 L479.61 200.729 L479.61 204.757 Q481.069 202.373 483.106 201.239 Q485.143 200.104 487.944 200.104 Q490.768 200.104 492.735 201.54 Q494.726 202.975 495.675 205.706 Z" fill="#000000" fill-rule="evenodd" fill-opacity="1" /><polyline clip-path="url(#clip430)" style="stroke:#3da44d; stroke-linecap:round; stroke-linejoin:round; stroke-width:16; stroke-opacity:1; fill:none" points="
  269.293,261.215 434.744,261.215 
  "/>
<path clip-path="url(#clip430)" d="M477.504 256.551 Q476.786 256.134 475.93 255.949 Q475.097 255.741 474.078 255.741 Q470.467 255.741 468.522 258.102 Q466.601 260.44 466.601 264.838 L466.601 278.495 L462.319 278.495 L462.319 252.569 L466.601 252.569 L466.601 256.597 Q467.944 254.236 470.097 253.102 Q472.249 251.944 475.328 251.944 Q475.768 251.944 476.3 252.014 Q476.833 252.06 477.481 252.176 L477.504 256.551 Z" fill="#000000" fill-rule="evenodd" fill-opacity="1" /><path clip-path="url(#clip430)" d="M481.971 242.477 L486.231 242.477 L486.231 278.495 L481.971 278.495 L481.971 242.477 Z" fill="#000000" fill-rule="evenodd" fill-opacity="1" /><path clip-path="url(#clip430)" d="M515.328 257.546 Q516.925 254.676 519.147 253.31 Q521.369 251.944 524.379 251.944 Q528.43 251.944 530.629 254.792 Q532.828 257.616 532.828 262.847 L532.828 278.495 L528.545 278.495 L528.545 262.986 Q528.545 259.259 527.226 257.454 Q525.906 255.648 523.198 255.648 Q519.888 255.648 517.967 257.847 Q516.045 260.046 516.045 263.843 L516.045 278.495 L511.763 278.495 L511.763 262.986 Q511.763 259.236 510.444 257.454 Q509.124 255.648 506.37 255.648 Q503.106 255.648 501.184 257.87 Q499.263 260.069 499.263 263.843 L499.263 278.495 L494.981 278.495 L494.981 252.569 L499.263 252.569 L499.263 256.597 Q500.721 254.213 502.758 253.079 Q504.795 251.944 507.596 251.944 Q510.42 251.944 512.388 253.38 Q514.379 254.815 515.328 257.546 Z" fill="#000000" fill-rule="evenodd" fill-opacity="1" /></svg>
