<?xml version="1.0" encoding="utf-8"?>
<svg xmlns="http://www.w3.org/2000/svg" xmlns:xlink="http://www.w3.org/1999/xlink" width="576" height="384" viewBox="0 0 2304 1536">
<defs>
  <clipPath id="clip400">
    <rect x="0" y="0" width="2304" height="1536"/>
  </clipPath>
</defs>
<path clip-path="url(#clip400)" d="
M0 1536 L2304 1536 L2304 0 L0 0  Z
  " fill="#ffffff" fill-rule="evenodd" fill-opacity="1"/>
<defs>
  <clipPath id="clip401">
    <rect x="460" y="0" width="1614" height="1536"/>
  </clipPath>
</defs>
<path clip-path="url(#clip400)" d="
M264.485 1347.54 L1149.76 1347.54 L1149.76 123.472 L264.485 123.472  Z
  " fill="#ffffff" fill-rule="evenodd" fill-opacity="1"/>
<defs>
  <clipPath id="clip402">
    <rect x="264" y="123" width="886" height="1225"/>
  </clipPath>
</defs>
<polyline clip-path="url(#clip402)" style="stroke:#000000; stroke-linecap:round; stroke-linejoin:round; stroke-width:2; stroke-opacity:0.1; fill:none" points="
  289.539,1347.54 289.539,123.472 
  "/>
<polyline clip-path="url(#clip402)" style="stroke:#000000; stroke-linecap:round; stroke-linejoin:round; stroke-width:2; stroke-opacity:0.1; fill:none" points="
  481.53,1347.54 481.53,123.472 
  "/>
<polyline clip-path="url(#clip402)" style="stroke:#000000; stroke-linecap:round; stroke-linejoin:round; stroke-width:2; stroke-opacity:0.1; fill:none" points="
  673.522,1347.54 673.522,123.472 
  "/>
<polyline clip-path="url(#clip402)" style="stroke:#000000; stroke-linecap:round; stroke-linejoin:round; stroke-width:2; stroke-opacity:0.1; fill:none" points="
  865.513,1347.54 865.513,123.472 
  "/>
<polyline clip-path="url(#clip402)" style="stroke:#000000; stroke-linecap:round; stroke-linejoin:round; stroke-width:2; stroke-opacity:0.1; fill:none" points="
  1057.5,1347.54 1057.5,123.472 
  "/>
<polyline clip-path="url(#clip400)" style="stroke:#000000; stroke-linecap:round; stroke-linejoin:round; stroke-width:4; stroke-opacity:1; fill:none" points="
  264.485,1347.54 1149.76,1347.54 
  "/>
<polyline clip-path="url(#clip400)" style="stroke:#000000; stroke-linecap:round; stroke-linejoin:round; stroke-width:4; stroke-opacity:1; fill:none" points="
  289.539,1347.54 289.539,1328.64 
  "/>
<polyline clip-path="url(#clip400)" style="stroke:#000000; stroke-linecap:round; stroke-linejoin:round; stroke-width:4; stroke-opacity:1; fill:none" points="
  481.53,1347.54 481.53,1328.64 
  "/>
<polyline clip-path="url(#clip400)" style="stroke:#000000; stroke-linecap:round; stroke-linejoin:round; stroke-width:4; stroke-opacity:1; fill:none" points="
  673.522,1347.54 673.522,1328.64 
  "/>
<polyline clip-path="url(#clip400)" style="stroke:#000000; stroke-linecap:round; stroke-linejoin:round; stroke-width:4; stroke-opacity:1; fill:none" points="
  865.513,1347.54 865.513,1328.64 
  "/>
<polyline clip-path="url(#clip400)" style="stroke:#000000; stroke-linecap:round; stroke-linejoin:round; stroke-width:4; stroke-opacity:1; fill:none" points="
  1057.5,1347.54 1057.5,1328.64 
  "/>
<path clip-path="url(#clip400)" d="M289.539 1377.69 Q285.928 1377.69 284.1 1381.25 Q282.294 1384.79 282.294 1391.92 Q282.294 1399.03 284.1 1402.59 Q285.928 1406.14 289.539 1406.14 Q293.174 1406.14 294.979 1402.59 Q296.808 1399.03 296.808 1391.92 Q296.808 1384.79 294.979 1381.25 Q293.174 1377.69 289.539 1377.69 M289.539 1373.98 Q295.349 1373.98 298.405 1378.59 Q301.484 1383.17 301.484 1391.92 Q301.484 1400.65 298.405 1405.26 Q295.349 1409.84 289.539 1409.84 Q283.729 1409.84 280.651 1405.26 Q277.595 1400.65 277.595 1391.92 Q277.595 1383.17 280.651 1378.59 Q283.729 1373.98 289.539 1373.98 Z" fill="#000000" fill-rule="evenodd" fill-opacity="1" /><path clip-path="url(#clip400)" d="M392.515 1420.89 L408.834 1420.89 L408.834 1424.83 L386.89 1424.83 L386.89 1420.89 Q389.552 1418.14 394.135 1413.51 Q398.742 1408.86 399.922 1407.51 Q402.167 1404.99 403.047 1403.25 Q403.95 1401.5 403.95 1399.81 Q403.95 1397.05 402.005 1395.31 Q400.084 1393.58 396.982 1393.58 Q394.783 1393.58 392.33 1394.34 Q389.899 1395.11 387.121 1396.66 L387.121 1391.94 Q389.945 1390.8 392.399 1390.22 Q394.853 1389.64 396.89 1389.64 Q402.26 1389.64 405.455 1392.33 Q408.649 1395.01 408.649 1399.5 Q408.649 1401.63 407.839 1403.56 Q407.052 1405.45 404.945 1408.05 Q404.367 1408.72 401.265 1411.94 Q398.163 1415.13 392.515 1420.89 Z" fill="#000000" fill-rule="evenodd" fill-opacity="1" /><path clip-path="url(#clip400)" d="M418.649 1418.95 L423.533 1418.95 L423.533 1424.83 L418.649 1424.83 L418.649 1418.95 Z" fill="#000000" fill-rule="evenodd" fill-opacity="1" /><path clip-path="url(#clip400)" d="M443.718 1393.35 Q440.107 1393.35 438.278 1396.91 Q436.473 1400.45 436.473 1407.58 Q436.473 1414.69 438.278 1418.25 Q440.107 1421.8 443.718 1421.8 Q447.352 1421.8 449.158 1418.25 Q450.987 1414.69 450.987 1407.58 Q450.987 1400.45 449.158 1396.91 Q447.352 1393.35 443.718 1393.35 M443.718 1389.64 Q449.528 1389.64 452.584 1394.25 Q455.663 1398.83 455.663 1407.58 Q455.663 1416.31 452.584 1420.92 Q449.528 1425.5 443.718 1425.5 Q437.908 1425.5 434.829 1420.92 Q431.774 1416.31 431.774 1407.58 Q431.774 1398.83 434.829 1394.25 Q437.908 1389.64 443.718 1389.64 Z" fill="#000000" fill-rule="evenodd" fill-opacity="1" /><path clip-path="url(#clip400)" d="M492.051 1399.37 L481.473 1409.99 L492.051 1420.57 L489.297 1423.37 L478.672 1412.75 L468.047 1423.37 L465.315 1420.57 L475.871 1409.99 L465.315 1399.37 L468.047 1396.56 L478.672 1407.19 L489.297 1396.56 L492.051 1399.37 Z" fill="#000000" fill-rule="evenodd" fill-opacity="1" /><path clip-path="url(#clip400)" d="M504.412 1420.89 L512.051 1420.89 L512.051 1394.53 L503.741 1396.19 L503.741 1391.94 L512.005 1390.27 L516.681 1390.27 L516.681 1420.89 L524.32 1420.89 L524.32 1424.83 L504.412 1424.83 L504.412 1420.89 Z" fill="#000000" fill-rule="evenodd" fill-opacity="1" /><path clip-path="url(#clip400)" d="M543.764 1393.35 Q540.153 1393.35 538.324 1396.91 Q536.519 1400.45 536.519 1407.58 Q536.519 1414.69 538.324 1418.25 Q540.153 1421.8 543.764 1421.8 Q547.398 1421.8 549.204 1418.25 Q551.032 1414.69 551.032 1407.58 Q551.032 1400.45 549.204 1396.91 Q547.398 1393.35 543.764 1393.35 M543.764 1389.64 Q549.574 1389.64 552.63 1394.25 Q555.708 1398.83 555.708 1407.58 Q555.708 1416.31 552.63 1420.92 Q549.574 1425.5 543.764 1425.5 Q537.954 1425.5 534.875 1420.92 Q531.82 1416.31 531.82 1407.58 Q531.82 1398.83 534.875 1394.25 Q537.954 1389.64 543.764 1389.64 Z" fill="#000000" fill-rule="evenodd" fill-opacity="1" /><path clip-path="url(#clip400)" d="M568.385 1372.65 L558.793 1387.64 L568.385 1387.64 L568.385 1372.65 M567.388 1369.34 L572.165 1369.34 L572.165 1387.64 L576.171 1387.64 L576.171 1390.8 L572.165 1390.8 L572.165 1397.42 L568.385 1397.42 L568.385 1390.8 L555.708 1390.8 L555.708 1387.13 L567.388 1369.34 Z" fill="#000000" fill-rule="evenodd" fill-opacity="1" /><path clip-path="url(#clip400)" d="M593.904 1394.34 L582.099 1412.79 L593.904 1412.79 L593.904 1394.34 M592.677 1390.27 L598.557 1390.27 L598.557 1412.79 L603.487 1412.79 L603.487 1416.68 L598.557 1416.68 L598.557 1424.83 L593.904 1424.83 L593.904 1416.68 L578.302 1416.68 L578.302 1412.17 L592.677 1390.27 Z" fill="#000000" fill-rule="evenodd" fill-opacity="1" /><path clip-path="url(#clip400)" d="M611.219 1418.95 L616.103 1418.95 L616.103 1424.83 L611.219 1424.83 L611.219 1418.95 Z" fill="#000000" fill-rule="evenodd" fill-opacity="1" /><path clip-path="url(#clip400)" d="M636.288 1393.35 Q632.677 1393.35 630.848 1396.91 Q629.043 1400.45 629.043 1407.58 Q629.043 1414.69 630.848 1418.25 Q632.677 1421.8 636.288 1421.8 Q639.922 1421.8 641.728 1418.25 Q643.557 1414.69 643.557 1407.58 Q643.557 1400.45 641.728 1396.91 Q639.922 1393.35 636.288 1393.35 M636.288 1389.64 Q642.098 1389.64 645.154 1394.25 Q648.232 1398.83 648.232 1407.58 Q648.232 1416.31 645.154 1420.92 Q642.098 1425.5 636.288 1425.5 Q630.478 1425.5 627.399 1420.92 Q624.344 1416.31 624.344 1407.58 Q624.344 1398.83 627.399 1394.25 Q630.478 1389.64 636.288 1389.64 Z" fill="#000000" fill-rule="evenodd" fill-opacity="1" /><path clip-path="url(#clip400)" d="M684.621 1399.37 L674.042 1409.99 L684.621 1420.57 L681.866 1423.37 L671.242 1412.75 L660.617 1423.37 L657.885 1420.57 L668.441 1409.99 L657.885 1399.37 L660.617 1396.56 L671.242 1407.19 L681.866 1396.56 L684.621 1399.37 Z" fill="#000000" fill-rule="evenodd" fill-opacity="1" /><path clip-path="url(#clip400)" d="M696.982 1420.89 L704.621 1420.89 L704.621 1394.53 L696.311 1396.19 L696.311 1391.94 L704.575 1390.27 L709.251 1390.27 L709.251 1420.89 L716.889 1420.89 L716.889 1424.83 L696.982 1424.83 L696.982 1420.89 Z" fill="#000000" fill-rule="evenodd" fill-opacity="1" /><path clip-path="url(#clip400)" d="M736.334 1393.35 Q732.723 1393.35 730.894 1396.91 Q729.088 1400.45 729.088 1407.58 Q729.088 1414.69 730.894 1418.25 Q732.723 1421.8 736.334 1421.8 Q739.968 1421.8 741.774 1418.25 Q743.602 1414.69 743.602 1407.58 Q743.602 1400.45 741.774 1396.91 Q739.968 1393.35 736.334 1393.35 M736.334 1389.64 Q742.144 1389.64 745.199 1394.25 Q748.278 1398.83 748.278 1407.58 Q748.278 1416.31 745.199 1420.92 Q742.144 1425.5 736.334 1425.5 Q730.524 1425.5 727.445 1420.92 Q724.389 1416.31 724.389 1407.58 Q724.389 1398.83 727.445 1394.25 Q730.524 1389.64 736.334 1389.64 Z" fill="#000000" fill-rule="evenodd" fill-opacity="1" /><path clip-path="url(#clip400)" d="M760.955 1372.65 L751.363 1387.64 L760.955 1387.64 L760.955 1372.65 M759.958 1369.34 L764.735 1369.34 L764.735 1387.64 L768.741 1387.64 L768.741 1390.8 L764.735 1390.8 L764.735 1397.42 L760.955 1397.42 L760.955 1390.8 L748.278 1390.8 L748.278 1387.13 L759.958 1369.34 Z" fill="#000000" fill-rule="evenodd" fill-opacity="1" /><path clip-path="url(#clip400)" d="M783.129 1405.69 Q779.981 1405.69 778.129 1407.84 Q776.3 1409.99 776.3 1413.74 Q776.3 1417.47 778.129 1419.64 Q779.981 1421.8 783.129 1421.8 Q786.277 1421.8 788.106 1419.64 Q789.958 1417.47 789.958 1413.74 Q789.958 1409.99 788.106 1407.84 Q786.277 1405.69 783.129 1405.69 M792.411 1391.03 L792.411 1395.29 Q790.652 1394.46 788.847 1394.02 Q787.064 1393.58 785.305 1393.58 Q780.675 1393.58 778.222 1396.7 Q775.791 1399.83 775.444 1406.15 Q776.81 1404.13 778.87 1403.07 Q780.93 1401.98 783.407 1401.98 Q788.615 1401.98 791.624 1405.15 Q794.657 1408.3 794.657 1413.74 Q794.657 1419.06 791.509 1422.28 Q788.36 1425.5 783.129 1425.5 Q777.134 1425.5 773.962 1420.92 Q770.791 1416.31 770.791 1407.58 Q770.791 1399.39 774.68 1394.53 Q778.569 1389.64 785.12 1389.64 Q786.879 1389.64 788.661 1389.99 Q790.467 1390.34 792.411 1391.03 Z" fill="#000000" fill-rule="evenodd" fill-opacity="1" /><path clip-path="url(#clip400)" d="M802.712 1418.95 L807.596 1418.95 L807.596 1424.83 L802.712 1424.83 L802.712 1418.95 Z" fill="#000000" fill-rule="evenodd" fill-opacity="1" /><path clip-path="url(#clip400)" d="M827.782 1393.35 Q824.17 1393.35 822.342 1396.91 Q820.536 1400.45 820.536 1407.58 Q820.536 1414.69 822.342 1418.25 Q824.17 1421.8 827.782 1421.8 Q831.416 1421.8 833.221 1418.25 Q835.05 1414.69 835.05 1407.58 Q835.05 1400.45 833.221 1396.91 Q831.416 1393.35 827.782 1393.35 M827.782 1389.64 Q833.592 1389.64 836.647 1394.25 Q839.726 1398.83 839.726 1407.58 Q839.726 1416.31 836.647 1420.92 Q833.592 1425.5 827.782 1425.5 Q821.971 1425.5 818.893 1420.92 Q815.837 1416.31 815.837 1407.58 Q815.837 1398.83 818.893 1394.25 Q821.971 1389.64 827.782 1389.64 Z" fill="#000000" fill-rule="evenodd" fill-opacity="1" /><path clip-path="url(#clip400)" d="M876.115 1399.37 L865.536 1409.99 L876.115 1420.57 L873.36 1423.37 L862.735 1412.75 L852.11 1423.37 L849.379 1420.57 L859.934 1409.99 L849.379 1399.37 L852.11 1396.56 L862.735 1407.19 L873.36 1396.56 L876.115 1399.37 Z" fill="#000000" fill-rule="evenodd" fill-opacity="1" /><path clip-path="url(#clip400)" d="M888.476 1420.89 L896.114 1420.89 L896.114 1394.53 L887.804 1396.19 L887.804 1391.94 L896.068 1390.27 L900.744 1390.27 L900.744 1420.89 L908.383 1420.89 L908.383 1424.83 L888.476 1424.83 L888.476 1420.89 Z" fill="#000000" fill-rule="evenodd" fill-opacity="1" /><path clip-path="url(#clip400)" d="M927.827 1393.35 Q924.216 1393.35 922.387 1396.91 Q920.582 1400.45 920.582 1407.58 Q920.582 1414.69 922.387 1418.25 Q924.216 1421.8 927.827 1421.8 Q931.462 1421.8 933.267 1418.25 Q935.096 1414.69 935.096 1407.58 Q935.096 1400.45 933.267 1396.91 Q931.462 1393.35 927.827 1393.35 M927.827 1389.64 Q933.637 1389.64 936.693 1394.25 Q939.772 1398.83 939.772 1407.58 Q939.772 1416.31 936.693 1420.92 Q933.637 1425.5 927.827 1425.5 Q922.017 1425.5 918.938 1420.92 Q915.883 1416.31 915.883 1407.58 Q915.883 1398.83 918.938 1394.25 Q922.017 1389.64 927.827 1389.64 Z" fill="#000000" fill-rule="evenodd" fill-opacity="1" /><path clip-path="url(#clip400)" d="M952.448 1372.65 L942.856 1387.64 L952.448 1387.64 L952.448 1372.65 M951.451 1369.34 L956.228 1369.34 L956.228 1387.64 L960.234 1387.64 L960.234 1390.8 L956.228 1390.8 L956.228 1397.42 L952.448 1397.42 L952.448 1390.8 L939.772 1390.8 L939.772 1387.13 L951.451 1369.34 Z" fill="#000000" fill-rule="evenodd" fill-opacity="1" /><path clip-path="url(#clip400)" d="M974.588 1408.42 Q971.254 1408.42 969.333 1410.2 Q967.435 1411.98 967.435 1415.11 Q967.435 1418.23 969.333 1420.01 Q971.254 1421.8 974.588 1421.8 Q977.921 1421.8 979.842 1420.01 Q981.764 1418.21 981.764 1415.11 Q981.764 1411.98 979.842 1410.2 Q977.944 1408.42 974.588 1408.42 M969.912 1406.43 Q966.903 1405.69 965.213 1403.63 Q963.546 1401.56 963.546 1398.6 Q963.546 1394.46 966.486 1392.05 Q969.449 1389.64 974.588 1389.64 Q979.75 1389.64 982.69 1392.05 Q985.629 1394.46 985.629 1398.6 Q985.629 1401.56 983.94 1403.63 Q982.273 1405.69 979.287 1406.43 Q982.666 1407.21 984.541 1409.5 Q986.439 1411.8 986.439 1415.11 Q986.439 1420.13 983.361 1422.81 Q980.305 1425.5 974.588 1425.5 Q968.87 1425.5 965.791 1422.81 Q962.736 1420.13 962.736 1415.11 Q962.736 1411.8 964.634 1409.5 Q966.532 1407.21 969.912 1406.43 M968.199 1399.04 Q968.199 1401.73 969.866 1403.23 Q971.555 1404.74 974.588 1404.74 Q977.597 1404.74 979.287 1403.23 Q981 1401.73 981 1399.04 Q981 1396.36 979.287 1394.85 Q977.597 1393.35 974.588 1393.35 Q971.555 1393.35 969.866 1394.85 Q968.199 1396.36 968.199 1399.04 Z" fill="#000000" fill-rule="evenodd" fill-opacity="1" /><path clip-path="url(#clip400)" d="M994.75 1418.95 L999.634 1418.95 L999.634 1424.83 L994.75 1424.83 L994.75 1418.95 Z" fill="#000000" fill-rule="evenodd" fill-opacity="1" /><path clip-path="url(#clip400)" d="M1019.82 1393.35 Q1016.21 1393.35 1014.38 1396.91 Q1012.57 1400.45 1012.57 1407.58 Q1012.57 1414.69 1014.38 1418.25 Q1016.21 1421.8 1019.82 1421.8 Q1023.45 1421.8 1025.26 1418.25 Q1027.09 1414.69 1027.09 1407.58 Q1027.09 1400.45 1025.26 1396.91 Q1023.45 1393.35 1019.82 1393.35 M1019.82 1389.64 Q1025.63 1389.64 1028.68 1394.25 Q1031.76 1398.83 1031.76 1407.58 Q1031.76 1416.31 1028.68 1420.92 Q1025.63 1425.5 1019.82 1425.5 Q1014.01 1425.5 1010.93 1420.92 Q1007.87 1416.31 1007.87 1407.58 Q1007.87 1398.83 1010.93 1394.25 Q1014.01 1389.64 1019.82 1389.64 Z" fill="#000000" fill-rule="evenodd" fill-opacity="1" /><path clip-path="url(#clip400)" d="M1068.15 1399.37 L1057.57 1409.99 L1068.15 1420.57 L1065.4 1423.37 L1054.77 1412.75 L1044.15 1423.37 L1041.42 1420.57 L1051.97 1409.99 L1041.42 1399.37 L1044.15 1396.56 L1054.77 1407.19 L1065.4 1396.56 L1068.15 1399.37 Z" fill="#000000" fill-rule="evenodd" fill-opacity="1" /><path clip-path="url(#clip400)" d="M1080.51 1420.89 L1088.15 1420.89 L1088.15 1394.53 L1079.84 1396.19 L1079.84 1391.94 L1088.11 1390.27 L1092.78 1390.27 L1092.78 1420.89 L1100.42 1420.89 L1100.42 1424.83 L1080.51 1424.83 L1080.51 1420.89 Z" fill="#000000" fill-rule="evenodd" fill-opacity="1" /><path clip-path="url(#clip400)" d="M1119.86 1393.35 Q1116.25 1393.35 1114.42 1396.91 Q1112.62 1400.45 1112.62 1407.58 Q1112.62 1414.69 1114.42 1418.25 Q1116.25 1421.8 1119.86 1421.8 Q1123.5 1421.8 1125.3 1418.25 Q1127.13 1414.69 1127.13 1407.58 Q1127.13 1400.45 1125.3 1396.91 Q1123.5 1393.35 1119.86 1393.35 M1119.86 1389.64 Q1125.67 1389.64 1128.73 1394.25 Q1131.81 1398.83 1131.81 1407.58 Q1131.81 1416.31 1128.73 1420.92 Q1125.67 1425.5 1119.86 1425.5 Q1114.05 1425.5 1110.98 1420.92 Q1107.92 1416.31 1107.92 1407.58 Q1107.92 1398.83 1110.98 1394.25 Q1114.05 1389.64 1119.86 1389.64 Z" fill="#000000" fill-rule="evenodd" fill-opacity="1" /><path clip-path="url(#clip400)" d="M1144.49 1372.65 L1134.89 1387.64 L1144.49 1387.64 L1144.49 1372.65 M1143.49 1369.34 L1148.27 1369.34 L1148.27 1387.64 L1152.27 1387.64 L1152.27 1390.8 L1148.27 1390.8 L1148.27 1397.42 L1144.49 1397.42 L1144.49 1390.8 L1131.81 1390.8 L1131.81 1387.13 L1143.49 1369.34 Z" fill="#000000" fill-rule="evenodd" fill-opacity="1" /><path clip-path="url(#clip400)" d="M635.442 1486.69 L635.442 1504.1 L645.755 1504.1 Q650.943 1504.1 653.425 1501.97 Q655.94 1499.81 655.94 1495.38 Q655.94 1490.92 653.425 1488.82 Q650.943 1486.69 645.755 1486.69 L635.442 1486.69 M635.442 1467.15 L635.442 1481.47 L644.959 1481.47 Q649.67 1481.47 651.961 1479.72 Q654.285 1477.94 654.285 1474.31 Q654.285 1470.71 651.961 1468.93 Q649.67 1467.15 644.959 1467.15 L635.442 1467.15 M629.013 1461.87 L645.436 1461.87 Q652.789 1461.87 656.767 1464.92 Q660.746 1467.98 660.746 1473.61 Q660.746 1477.97 658.709 1480.55 Q656.672 1483.13 652.725 1483.76 Q657.468 1484.78 660.078 1488.03 Q662.719 1491.24 662.719 1496.08 Q662.719 1502.45 658.391 1505.92 Q654.062 1509.39 646.073 1509.39 L629.013 1509.39 L629.013 1461.87 Z" fill="#000000" fill-rule="evenodd" fill-opacity="1" /><path clip-path="url(#clip400)" d="M687.291 1477.84 Q682.58 1477.84 679.843 1481.54 Q677.106 1485.2 677.106 1491.59 Q677.106 1497.99 679.811 1501.68 Q682.549 1505.34 687.291 1505.34 Q691.97 1505.34 694.707 1501.65 Q697.444 1497.96 697.444 1491.59 Q697.444 1485.26 694.707 1481.57 Q691.97 1477.84 687.291 1477.84 M687.291 1472.88 Q694.93 1472.88 699.29 1477.84 Q703.651 1482.81 703.651 1491.59 Q703.651 1500.35 699.29 1505.34 Q694.93 1510.31 687.291 1510.31 Q679.62 1510.31 675.26 1505.34 Q670.931 1500.35 670.931 1491.59 Q670.931 1482.81 675.26 1477.84 Q679.62 1472.88 687.291 1472.88 Z" fill="#000000" fill-rule="evenodd" fill-opacity="1" /><path clip-path="url(#clip400)" d="M736.816 1479.15 L736.816 1459.86 L742.673 1459.86 L742.673 1509.39 L736.816 1509.39 L736.816 1504.04 Q734.97 1507.22 732.137 1508.78 Q729.337 1510.31 725.39 1510.31 Q718.929 1510.31 714.855 1505.15 Q710.812 1500 710.812 1491.59 Q710.812 1483.19 714.855 1478.03 Q718.929 1472.88 725.39 1472.88 Q729.337 1472.88 732.137 1474.44 Q734.97 1475.97 736.816 1479.15 M716.86 1491.59 Q716.86 1498.05 719.501 1501.75 Q722.175 1505.41 726.822 1505.41 Q731.469 1505.41 734.143 1501.75 Q736.816 1498.05 736.816 1491.59 Q736.816 1485.13 734.143 1481.47 Q731.469 1477.78 726.822 1477.78 Q722.175 1477.78 719.501 1481.47 Q716.86 1485.13 716.86 1491.59 Z" fill="#000000" fill-rule="evenodd" fill-opacity="1" /><path clip-path="url(#clip400)" d="M769.568 1512.7 Q767.085 1519.06 764.73 1521 Q762.375 1522.94 758.428 1522.94 L753.749 1522.94 L753.749 1518.04 L757.186 1518.04 Q759.605 1518.04 760.942 1516.9 Q762.279 1515.75 763.902 1511.49 L764.953 1508.81 L750.534 1473.74 L756.741 1473.74 L767.881 1501.62 L779.021 1473.74 L785.227 1473.74 L769.568 1512.7 Z" fill="#000000" fill-rule="evenodd" fill-opacity="1" /><polyline clip-path="url(#clip402)" style="stroke:#000000; stroke-linecap:round; stroke-linejoin:round; stroke-width:2; stroke-opacity:0.1; fill:none" points="
  264.485,1312.97 1149.76,1312.97 
  "/>
<polyline clip-path="url(#clip402)" style="stroke:#000000; stroke-linecap:round; stroke-linejoin:round; stroke-width:2; stroke-opacity:0.1; fill:none" points="
  264.485,1110.79 1149.76,1110.79 
  "/>
<polyline clip-path="url(#clip402)" style="stroke:#000000; stroke-linecap:round; stroke-linejoin:round; stroke-width:2; stroke-opacity:0.1; fill:none" points="
  264.485,908.612 1149.76,908.612 
  "/>
<polyline clip-path="url(#clip402)" style="stroke:#000000; stroke-linecap:round; stroke-linejoin:round; stroke-width:2; stroke-opacity:0.1; fill:none" points="
  264.485,706.431 1149.76,706.431 
  "/>
<polyline clip-path="url(#clip402)" style="stroke:#000000; stroke-linecap:round; stroke-linejoin:round; stroke-width:2; stroke-opacity:0.1; fill:none" points="
  264.485,504.25 1149.76,504.25 
  "/>
<polyline clip-path="url(#clip402)" style="stroke:#000000; stroke-linecap:round; stroke-linejoin:round; stroke-width:2; stroke-opacity:0.1; fill:none" points="
  264.485,302.068 1149.76,302.068 
  "/>
<polyline clip-path="url(#clip400)" style="stroke:#000000; stroke-linecap:round; stroke-linejoin:round; stroke-width:4; stroke-opacity:1; fill:none" points="
  264.485,1347.54 264.485,123.472 
  "/>
<polyline clip-path="url(#clip400)" style="stroke:#000000; stroke-linecap:round; stroke-linejoin:round; stroke-width:4; stroke-opacity:1; fill:none" points="
  264.485,1312.97 283.382,1312.97 
  "/>
<polyline clip-path="url(#clip400)" style="stroke:#000000; stroke-linecap:round; stroke-linejoin:round; stroke-width:4; stroke-opacity:1; fill:none" points="
  264.485,1110.79 283.382,1110.79 
  "/>
<polyline clip-path="url(#clip400)" style="stroke:#000000; stroke-linecap:round; stroke-linejoin:round; stroke-width:4; stroke-opacity:1; fill:none" points="
  264.485,908.612 283.382,908.612 
  "/>
<polyline clip-path="url(#clip400)" style="stroke:#000000; stroke-linecap:round; stroke-linejoin:round; stroke-width:4; stroke-opacity:1; fill:none" points="
  264.485,706.431 283.382,706.431 
  "/>
<polyline clip-path="url(#clip400)" style="stroke:#000000; stroke-linecap:round; stroke-linejoin:round; stroke-width:4; stroke-opacity:1; fill:none" points="
  264.485,504.25 283.382,504.25 
  "/>
<polyline clip-path="url(#clip400)" style="stroke:#000000; stroke-linecap:round; stroke-linejoin:round; stroke-width:4; stroke-opacity:1; fill:none" points="
  264.485,302.068 283.382,302.068 
  "/>
<path clip-path="url(#clip400)" d="M217.98 1298.77 Q214.369 1298.77 212.541 1302.34 Q210.735 1305.88 210.735 1313.01 Q210.735 1320.12 212.541 1323.68 Q214.369 1327.22 217.98 1327.22 Q221.615 1327.22 223.42 1323.68 Q225.249 1320.12 225.249 1313.01 Q225.249 1305.88 223.42 1302.34 Q221.615 1298.77 217.98 1298.77 M217.98 1295.07 Q223.79 1295.07 226.846 1299.68 Q229.925 1304.26 229.925 1313.01 Q229.925 1321.74 226.846 1326.34 Q223.79 1330.93 217.98 1330.93 Q212.17 1330.93 209.092 1326.34 Q206.036 1321.74 206.036 1313.01 Q206.036 1304.26 209.092 1299.68 Q212.17 1295.07 217.98 1295.07 Z" fill="#000000" fill-rule="evenodd" fill-opacity="1" /><path clip-path="url(#clip400)" d="M118.305 1124.14 L125.944 1124.14 L125.944 1097.77 L117.634 1099.44 L117.634 1095.18 L125.898 1093.51 L130.573 1093.51 L130.573 1124.14 L138.212 1124.14 L138.212 1128.07 L118.305 1128.07 L118.305 1124.14 Z" fill="#000000" fill-rule="evenodd" fill-opacity="1" /><path clip-path="url(#clip400)" d="M157.657 1096.59 Q154.046 1096.59 152.217 1100.16 Q150.411 1103.7 150.411 1110.83 Q150.411 1117.93 152.217 1121.5 Q154.046 1125.04 157.657 1125.04 Q161.291 1125.04 163.096 1121.5 Q164.925 1117.93 164.925 1110.83 Q164.925 1103.7 163.096 1100.16 Q161.291 1096.59 157.657 1096.59 M157.657 1092.89 Q163.467 1092.89 166.522 1097.49 Q169.601 1102.08 169.601 1110.83 Q169.601 1119.55 166.522 1124.16 Q163.467 1128.74 157.657 1128.74 Q151.846 1128.74 148.768 1124.16 Q145.712 1119.55 145.712 1110.83 Q145.712 1102.08 148.768 1097.49 Q151.846 1092.89 157.657 1092.89 Z" fill="#000000" fill-rule="evenodd" fill-opacity="1" /><path clip-path="url(#clip400)" d="M187.818 1096.59 Q184.207 1096.59 182.379 1100.16 Q180.573 1103.7 180.573 1110.83 Q180.573 1117.93 182.379 1121.5 Q184.207 1125.04 187.818 1125.04 Q191.453 1125.04 193.258 1121.5 Q195.087 1117.93 195.087 1110.83 Q195.087 1103.7 193.258 1100.16 Q191.453 1096.59 187.818 1096.59 M187.818 1092.89 Q193.629 1092.89 196.684 1097.49 Q199.763 1102.08 199.763 1110.83 Q199.763 1119.55 196.684 1124.16 Q193.629 1128.74 187.818 1128.74 Q182.008 1128.74 178.93 1124.16 Q175.874 1119.55 175.874 1110.83 Q175.874 1102.08 178.93 1097.49 Q182.008 1092.89 187.818 1092.89 Z" fill="#000000" fill-rule="evenodd" fill-opacity="1" /><path clip-path="url(#clip400)" d="M217.98 1096.59 Q214.369 1096.59 212.541 1100.16 Q210.735 1103.7 210.735 1110.83 Q210.735 1117.93 212.541 1121.5 Q214.369 1125.04 217.98 1125.04 Q221.615 1125.04 223.42 1121.5 Q225.249 1117.93 225.249 1110.83 Q225.249 1103.7 223.42 1100.16 Q221.615 1096.59 217.98 1096.59 M217.98 1092.89 Q223.79 1092.89 226.846 1097.49 Q229.925 1102.08 229.925 1110.83 Q229.925 1119.55 226.846 1124.16 Q223.79 1128.74 217.98 1128.74 Q212.17 1128.74 209.092 1124.16 Q206.036 1119.55 206.036 1110.83 Q206.036 1102.08 209.092 1097.49 Q212.17 1092.89 217.98 1092.89 Z" fill="#000000" fill-rule="evenodd" fill-opacity="1" /><path clip-path="url(#clip400)" d="M121.523 921.957 L137.842 921.957 L137.842 925.892 L115.898 925.892 L115.898 921.957 Q118.56 919.202 123.143 914.572 Q127.749 909.92 128.93 908.577 Q131.175 906.054 132.055 904.318 Q132.958 902.559 132.958 900.869 Q132.958 898.114 131.013 896.378 Q129.092 894.642 125.99 894.642 Q123.791 894.642 121.337 895.406 Q118.907 896.17 116.129 897.721 L116.129 892.999 Q118.953 891.864 121.407 891.286 Q123.86 890.707 125.898 890.707 Q131.268 890.707 134.462 893.392 Q137.657 896.077 137.657 900.568 Q137.657 902.698 136.847 904.619 Q136.059 906.517 133.953 909.11 Q133.374 909.781 130.272 912.998 Q127.171 916.193 121.523 921.957 Z" fill="#000000" fill-rule="evenodd" fill-opacity="1" /><path clip-path="url(#clip400)" d="M157.657 894.411 Q154.046 894.411 152.217 897.975 Q150.411 901.517 150.411 908.647 Q150.411 915.753 152.217 919.318 Q154.046 922.859 157.657 922.859 Q161.291 922.859 163.096 919.318 Q164.925 915.753 164.925 908.647 Q164.925 901.517 163.096 897.975 Q161.291 894.411 157.657 894.411 M157.657 890.707 Q163.467 890.707 166.522 895.313 Q169.601 899.897 169.601 908.647 Q169.601 917.373 166.522 921.98 Q163.467 926.563 157.657 926.563 Q151.846 926.563 148.768 921.98 Q145.712 917.373 145.712 908.647 Q145.712 899.897 148.768 895.313 Q151.846 890.707 157.657 890.707 Z" fill="#000000" fill-rule="evenodd" fill-opacity="1" /><path clip-path="url(#clip400)" d="M187.818 894.411 Q184.207 894.411 182.379 897.975 Q180.573 901.517 180.573 908.647 Q180.573 915.753 182.379 919.318 Q184.207 922.859 187.818 922.859 Q191.453 922.859 193.258 919.318 Q195.087 915.753 195.087 908.647 Q195.087 901.517 193.258 897.975 Q191.453 894.411 187.818 894.411 M187.818 890.707 Q193.629 890.707 196.684 895.313 Q199.763 899.897 199.763 908.647 Q199.763 917.373 196.684 921.98 Q193.629 926.563 187.818 926.563 Q182.008 926.563 178.93 921.98 Q175.874 917.373 175.874 908.647 Q175.874 899.897 178.93 895.313 Q182.008 890.707 187.818 890.707 Z" fill="#000000" fill-rule="evenodd" fill-opacity="1" /><path clip-path="url(#clip400)" d="M217.98 894.411 Q214.369 894.411 212.541 897.975 Q210.735 901.517 210.735 908.647 Q210.735 915.753 212.541 919.318 Q214.369 922.859 217.98 922.859 Q221.615 922.859 223.42 919.318 Q225.249 915.753 225.249 908.647 Q225.249 901.517 223.42 897.975 Q221.615 894.411 217.98 894.411 M217.98 890.707 Q223.79 890.707 226.846 895.313 Q229.925 899.897 229.925 908.647 Q229.925 917.373 226.846 921.98 Q223.79 926.563 217.98 926.563 Q212.17 926.563 209.092 921.98 Q206.036 917.373 206.036 908.647 Q206.036 899.897 209.092 895.313 Q212.17 890.707 217.98 890.707 Z" fill="#000000" fill-rule="evenodd" fill-opacity="1" /><path clip-path="url(#clip400)" d="M131.661 705.077 Q135.018 705.794 136.893 708.063 Q138.791 710.331 138.791 713.664 Q138.791 718.78 135.272 721.581 Q131.754 724.382 125.273 724.382 Q123.097 724.382 120.782 723.942 Q118.49 723.526 116.036 722.669 L116.036 718.155 Q117.981 719.289 120.296 719.868 Q122.61 720.447 125.134 720.447 Q129.532 720.447 131.823 718.711 Q134.138 716.975 134.138 713.664 Q134.138 710.609 131.985 708.896 Q129.856 707.16 126.036 707.16 L122.009 707.16 L122.009 703.317 L126.222 703.317 Q129.671 703.317 131.499 701.952 Q133.328 700.563 133.328 697.97 Q133.328 695.308 131.43 693.896 Q129.555 692.461 126.036 692.461 Q124.115 692.461 121.916 692.878 Q119.717 693.294 117.078 694.174 L117.078 690.007 Q119.74 689.266 122.055 688.896 Q124.393 688.526 126.453 688.526 Q131.777 688.526 134.879 690.956 Q137.981 693.364 137.981 697.484 Q137.981 700.354 136.337 702.345 Q134.694 704.313 131.661 705.077 Z" fill="#000000" fill-rule="evenodd" fill-opacity="1" /><path clip-path="url(#clip400)" d="M157.657 692.229 Q154.046 692.229 152.217 695.794 Q150.411 699.336 150.411 706.465 Q150.411 713.572 152.217 717.137 Q154.046 720.678 157.657 720.678 Q161.291 720.678 163.096 717.137 Q164.925 713.572 164.925 706.465 Q164.925 699.336 163.096 695.794 Q161.291 692.229 157.657 692.229 M157.657 688.526 Q163.467 688.526 166.522 693.132 Q169.601 697.716 169.601 706.465 Q169.601 715.192 166.522 719.799 Q163.467 724.382 157.657 724.382 Q151.846 724.382 148.768 719.799 Q145.712 715.192 145.712 706.465 Q145.712 697.716 148.768 693.132 Q151.846 688.526 157.657 688.526 Z" fill="#000000" fill-rule="evenodd" fill-opacity="1" /><path clip-path="url(#clip400)" d="M187.818 692.229 Q184.207 692.229 182.379 695.794 Q180.573 699.336 180.573 706.465 Q180.573 713.572 182.379 717.137 Q184.207 720.678 187.818 720.678 Q191.453 720.678 193.258 717.137 Q195.087 713.572 195.087 706.465 Q195.087 699.336 193.258 695.794 Q191.453 692.229 187.818 692.229 M187.818 688.526 Q193.629 688.526 196.684 693.132 Q199.763 697.716 199.763 706.465 Q199.763 715.192 196.684 719.799 Q193.629 724.382 187.818 724.382 Q182.008 724.382 178.93 719.799 Q175.874 715.192 175.874 706.465 Q175.874 697.716 178.93 693.132 Q182.008 688.526 187.818 688.526 Z" fill="#000000" fill-rule="evenodd" fill-opacity="1" /><path clip-path="url(#clip400)" d="M217.98 692.229 Q214.369 692.229 212.541 695.794 Q210.735 699.336 210.735 706.465 Q210.735 713.572 212.541 717.137 Q214.369 720.678 217.98 720.678 Q221.615 720.678 223.42 717.137 Q225.249 713.572 225.249 706.465 Q225.249 699.336 223.42 695.794 Q221.615 692.229 217.98 692.229 M217.98 688.526 Q223.79 688.526 226.846 693.132 Q229.925 697.716 229.925 706.465 Q229.925 715.192 226.846 719.799 Q223.79 724.382 217.98 724.382 Q212.17 724.382 209.092 719.799 Q206.036 715.192 206.036 706.465 Q206.036 697.716 209.092 693.132 Q212.17 688.526 217.98 688.526 Z" fill="#000000" fill-rule="evenodd" fill-opacity="1" /><path clip-path="url(#clip400)" d="M130.342 491.044 L118.536 509.493 L130.342 509.493 L130.342 491.044 M129.115 486.97 L134.995 486.97 L134.995 509.493 L139.925 509.493 L139.925 513.381 L134.995 513.381 L134.995 521.53 L130.342 521.53 L130.342 513.381 L114.74 513.381 L114.74 508.868 L129.115 486.97 Z" fill="#000000" fill-rule="evenodd" fill-opacity="1" /><path clip-path="url(#clip400)" d="M157.657 490.048 Q154.046 490.048 152.217 493.613 Q150.411 497.155 150.411 504.284 Q150.411 511.391 152.217 514.956 Q154.046 518.497 157.657 518.497 Q161.291 518.497 163.096 514.956 Q164.925 511.391 164.925 504.284 Q164.925 497.155 163.096 493.613 Q161.291 490.048 157.657 490.048 M157.657 486.345 Q163.467 486.345 166.522 490.951 Q169.601 495.534 169.601 504.284 Q169.601 513.011 166.522 517.618 Q163.467 522.201 157.657 522.201 Q151.846 522.201 148.768 517.618 Q145.712 513.011 145.712 504.284 Q145.712 495.534 148.768 490.951 Q151.846 486.345 157.657 486.345 Z" fill="#000000" fill-rule="evenodd" fill-opacity="1" /><path clip-path="url(#clip400)" d="M187.818 490.048 Q184.207 490.048 182.379 493.613 Q180.573 497.155 180.573 504.284 Q180.573 511.391 182.379 514.956 Q184.207 518.497 187.818 518.497 Q191.453 518.497 193.258 514.956 Q195.087 511.391 195.087 504.284 Q195.087 497.155 193.258 493.613 Q191.453 490.048 187.818 490.048 M187.818 486.345 Q193.629 486.345 196.684 490.951 Q199.763 495.534 199.763 504.284 Q199.763 513.011 196.684 517.618 Q193.629 522.201 187.818 522.201 Q182.008 522.201 178.93 517.618 Q175.874 513.011 175.874 504.284 Q175.874 495.534 178.93 490.951 Q182.008 486.345 187.818 486.345 Z" fill="#000000" fill-rule="evenodd" fill-opacity="1" /><path clip-path="url(#clip400)" d="M217.98 490.048 Q214.369 490.048 212.541 493.613 Q210.735 497.155 210.735 504.284 Q210.735 511.391 212.541 514.956 Q214.369 518.497 217.98 518.497 Q221.615 518.497 223.42 514.956 Q225.249 511.391 225.249 504.284 Q225.249 497.155 223.42 493.613 Q221.615 490.048 217.98 490.048 M217.98 486.345 Q223.79 486.345 226.846 490.951 Q229.925 495.534 229.925 504.284 Q229.925 513.011 226.846 517.618 Q223.79 522.201 217.98 522.201 Q212.17 522.201 209.092 517.618 Q206.036 513.011 206.036 504.284 Q206.036 495.534 209.092 490.951 Q212.17 486.345 217.98 486.345 Z" fill="#000000" fill-rule="evenodd" fill-opacity="1" /><path clip-path="url(#clip400)" d="M117.541 284.788 L135.897 284.788 L135.897 288.724 L121.823 288.724 L121.823 297.196 Q122.842 296.849 123.86 296.687 Q124.879 296.501 125.898 296.501 Q131.685 296.501 135.064 299.673 Q138.444 302.844 138.444 308.261 Q138.444 313.839 134.972 316.941 Q131.499 320.02 125.18 320.02 Q123.004 320.02 120.735 319.649 Q118.49 319.279 116.083 318.538 L116.083 313.839 Q118.166 314.973 120.388 315.529 Q122.61 316.085 125.087 316.085 Q129.092 316.085 131.43 313.978 Q133.768 311.872 133.768 308.261 Q133.768 304.649 131.43 302.543 Q129.092 300.437 125.087 300.437 Q123.212 300.437 121.337 300.853 Q119.486 301.27 117.541 302.149 L117.541 284.788 Z" fill="#000000" fill-rule="evenodd" fill-opacity="1" /><path clip-path="url(#clip400)" d="M157.657 287.867 Q154.046 287.867 152.217 291.432 Q150.411 294.974 150.411 302.103 Q150.411 309.21 152.217 312.774 Q154.046 316.316 157.657 316.316 Q161.291 316.316 163.096 312.774 Q164.925 309.21 164.925 302.103 Q164.925 294.974 163.096 291.432 Q161.291 287.867 157.657 287.867 M157.657 284.163 Q163.467 284.163 166.522 288.77 Q169.601 293.353 169.601 302.103 Q169.601 310.83 166.522 315.436 Q163.467 320.02 157.657 320.02 Q151.846 320.02 148.768 315.436 Q145.712 310.83 145.712 302.103 Q145.712 293.353 148.768 288.77 Q151.846 284.163 157.657 284.163 Z" fill="#000000" fill-rule="evenodd" fill-opacity="1" /><path clip-path="url(#clip400)" d="M187.818 287.867 Q184.207 287.867 182.379 291.432 Q180.573 294.974 180.573 302.103 Q180.573 309.21 182.379 312.774 Q184.207 316.316 187.818 316.316 Q191.453 316.316 193.258 312.774 Q195.087 309.21 195.087 302.103 Q195.087 294.974 193.258 291.432 Q191.453 287.867 187.818 287.867 M187.818 284.163 Q193.629 284.163 196.684 288.77 Q199.763 293.353 199.763 302.103 Q199.763 310.83 196.684 315.436 Q193.629 320.02 187.818 320.02 Q182.008 320.02 178.93 315.436 Q175.874 310.83 175.874 302.103 Q175.874 293.353 178.93 288.77 Q182.008 284.163 187.818 284.163 Z" fill="#000000" fill-rule="evenodd" fill-opacity="1" /><path clip-path="url(#clip400)" d="M217.98 287.867 Q214.369 287.867 212.541 291.432 Q210.735 294.974 210.735 302.103 Q210.735 309.21 212.541 312.774 Q214.369 316.316 217.98 316.316 Q221.615 316.316 223.42 312.774 Q225.249 309.21 225.249 302.103 Q225.249 294.974 223.42 291.432 Q221.615 287.867 217.98 287.867 M217.98 284.163 Q223.79 284.163 226.846 288.77 Q229.925 293.353 229.925 302.103 Q229.925 310.83 226.846 315.436 Q223.79 320.02 217.98 320.02 Q212.17 320.02 209.092 315.436 Q206.036 310.83 206.036 302.103 Q206.036 293.353 209.092 288.77 Q212.17 284.163 217.98 284.163 Z" fill="#000000" fill-rule="evenodd" fill-opacity="1" /><path clip-path="url(#clip400)" d="M43.2304 808.551 L60.6406 808.551 L60.6406 798.238 Q60.6406 793.05 58.5081 790.568 Q56.3438 788.053 51.9196 788.053 Q47.4636 788.053 45.3629 790.568 Q43.2304 793.05 43.2304 798.238 L43.2304 808.551 M23.6877 808.551 L38.0105 808.551 L38.0105 799.034 Q38.0105 794.324 36.26 792.032 Q34.4776 789.708 30.8491 789.708 Q27.2525 789.708 25.4701 792.032 Q23.6877 794.324 23.6877 799.034 L23.6877 808.551 M18.4042 814.98 L18.4042 798.557 Q18.4042 791.204 21.4597 787.226 Q24.5152 783.247 30.1489 783.247 Q34.5094 783.247 37.0875 785.284 Q39.6656 787.321 40.3022 791.268 Q41.3207 786.526 44.5672 783.916 Q47.7819 781.274 52.6198 781.274 Q58.9855 781.274 62.4548 785.602 Q65.9242 789.931 65.9242 797.92 L65.9242 814.98 L18.4042 814.98 Z" fill="#000000" fill-rule="evenodd" fill-opacity="1" /><path clip-path="url(#clip400)" d="M35.7507 749.859 Q35.1778 750.846 34.9232 752.023 Q34.6367 753.169 34.6367 754.57 Q34.6367 759.535 37.8832 762.209 Q41.0979 764.85 47.1453 764.85 L65.9242 764.85 L65.9242 770.739 L30.2762 770.739 L30.2762 764.85 L35.8144 764.85 Q32.5679 763.004 31.0083 760.044 Q29.4168 757.084 29.4168 752.851 Q29.4168 752.246 29.5123 751.514 Q29.576 750.782 29.7351 749.891 L35.7507 749.859 Z" fill="#000000" fill-rule="evenodd" fill-opacity="1" /><path clip-path="url(#clip400)" d="M48.0047 727.515 Q48.0047 734.613 49.6279 737.35 Q51.2512 740.088 55.1661 740.088 Q58.2853 740.088 60.1314 738.051 Q61.9456 735.982 61.9456 732.449 Q61.9456 727.579 58.5081 724.651 Q55.0388 721.691 49.3097 721.691 L48.0047 721.691 L48.0047 727.515 M45.5857 715.834 L65.9242 715.834 L65.9242 721.691 L60.5133 721.691 Q63.7598 723.696 65.3194 726.688 Q66.8472 729.68 66.8472 734.008 Q66.8472 739.483 63.7916 742.729 Q60.7043 745.944 55.5481 745.944 Q49.5325 745.944 46.4769 741.934 Q43.4214 737.892 43.4214 729.903 L43.4214 721.691 L42.8485 721.691 Q38.8062 721.691 36.6101 724.364 Q34.3821 727.006 34.3821 731.812 Q34.3821 734.868 35.1141 737.764 Q35.8462 740.661 37.3103 743.334 L31.8995 743.334 Q30.6581 740.12 30.0534 737.096 Q29.4168 734.072 29.4168 731.208 Q29.4168 723.473 33.4272 719.654 Q37.4376 715.834 45.5857 715.834 Z" fill="#000000" fill-rule="evenodd" fill-opacity="1" /><path clip-path="url(#clip400)" d="M30.2762 703.771 L30.2762 697.915 L65.9242 697.915 L65.9242 703.771 L30.2762 703.771 M16.399 703.771 L16.399 697.915 L23.815 697.915 L23.815 703.771 L16.399 703.771 Z" fill="#000000" fill-rule="evenodd" fill-opacity="1" /><path clip-path="url(#clip400)" d="M44.4081 656.029 L65.9242 656.029 L65.9242 661.885 L44.599 661.885 Q39.5383 661.885 37.0238 663.858 Q34.5094 665.832 34.5094 669.778 Q34.5094 674.521 37.5331 677.258 Q40.5568 679.995 45.7767 679.995 L65.9242 679.995 L65.9242 685.884 L30.2762 685.884 L30.2762 679.995 L35.8144 679.995 Q32.5997 677.895 31.0083 675.062 Q29.4168 672.197 29.4168 668.473 Q29.4168 662.331 33.2363 659.18 Q37.0238 656.029 44.4081 656.029 Z" fill="#000000" fill-rule="evenodd" fill-opacity="1" /><path clip-path="url(#clip400)" d="M432.023 43.6931 L432.023 65.8515 L445.148 65.8515 Q451.751 65.8515 454.911 63.1374 Q458.111 60.3828 458.111 54.752 Q458.111 49.0808 454.911 46.4072 Q451.751 43.6931 445.148 43.6931 L432.023 43.6931 M432.023 18.8205 L432.023 37.0496 L444.135 37.0496 Q450.131 37.0496 453.047 34.8216 Q456.005 32.5531 456.005 27.935 Q456.005 23.3575 453.047 21.089 Q450.131 18.8205 444.135 18.8205 L432.023 18.8205 M423.84 12.096 L444.743 12.096 Q454.101 12.096 459.164 15.9849 Q464.228 19.8737 464.228 27.0438 Q464.228 32.5936 461.635 35.8748 Q459.043 39.156 454.02 39.9662 Q460.056 41.2625 463.377 45.3944 Q466.74 49.4858 466.74 55.6432 Q466.74 63.745 461.23 68.1605 Q455.721 72.576 445.553 72.576 L423.84 72.576 L423.84 12.096 Z" fill="#000000" fill-rule="evenodd" fill-opacity="1" /><path clip-path="url(#clip400)" d="M506.722 34.1734 Q505.466 33.4443 503.967 33.1202 Q502.509 32.7556 500.727 32.7556 Q494.407 32.7556 491.004 36.8875 Q487.642 40.9789 487.642 48.6757 L487.642 72.576 L480.148 72.576 L480.148 27.2059 L487.642 27.2059 L487.642 34.2544 Q489.992 30.1225 493.759 28.1376 Q497.526 26.1121 502.914 26.1121 Q503.684 26.1121 504.615 26.2337 Q505.547 26.3147 506.681 26.5172 L506.722 34.1734 Z" fill="#000000" fill-rule="evenodd" fill-opacity="1" /><path clip-path="url(#clip400)" d="M535.159 49.7694 Q526.126 49.7694 522.642 51.8354 Q519.158 53.9013 519.158 58.8839 Q519.158 62.8538 521.751 65.2034 Q524.384 67.5124 528.88 67.5124 Q535.078 67.5124 538.805 63.1374 Q542.572 58.7219 542.572 51.4303 L542.572 49.7694 L535.159 49.7694 M550.026 46.6907 L550.026 72.576 L542.572 72.576 L542.572 65.6895 Q540.02 69.8214 536.213 71.8063 Q532.405 73.7508 526.895 73.7508 Q519.928 73.7508 515.796 69.8619 Q511.705 65.9325 511.705 59.3701 Q511.705 51.7138 516.809 47.825 Q521.953 43.9361 532.121 43.9361 L542.572 43.9361 L542.572 43.2069 Q542.572 38.0623 539.17 35.2672 Q535.807 32.4315 529.691 32.4315 Q525.802 32.4315 522.115 33.3632 Q518.429 34.295 515.026 36.1584 L515.026 29.2718 Q519.118 27.692 522.966 26.9223 Q526.814 26.1121 530.46 26.1121 Q540.304 26.1121 545.165 31.2163 Q550.026 36.3204 550.026 46.6907 Z" fill="#000000" fill-rule="evenodd" fill-opacity="1" /><path clip-path="url(#clip400)" d="M565.379 27.2059 L572.833 27.2059 L572.833 72.576 L565.379 72.576 L565.379 27.2059 M565.379 9.54393 L572.833 9.54393 L572.833 18.9825 L565.379 18.9825 L565.379 9.54393 Z" fill="#000000" fill-rule="evenodd" fill-opacity="1" /><path clip-path="url(#clip400)" d="M626.143 45.1919 L626.143 72.576 L618.689 72.576 L618.689 45.4349 Q618.689 38.994 616.177 35.7938 Q613.666 32.5936 608.643 32.5936 Q602.607 32.5936 599.123 36.4419 Q595.639 40.2903 595.639 46.9338 L595.639 72.576 L588.145 72.576 L588.145 27.2059 L595.639 27.2059 L595.639 34.2544 Q598.313 30.163 601.918 28.1376 Q605.564 26.1121 610.304 26.1121 Q618.122 26.1121 622.132 30.9732 Q626.143 35.7938 626.143 45.1919 Z" fill="#000000" fill-rule="evenodd" fill-opacity="1" /><path clip-path="url(#clip400)" d="M699.95 49.9314 Q699.95 41.7081 696.547 37.0496 Q693.185 32.3505 687.271 32.3505 Q681.356 32.3505 677.954 37.0496 Q674.591 41.7081 674.591 49.9314 Q674.591 58.1548 677.954 62.8538 Q681.356 67.5124 687.271 67.5124 Q693.185 67.5124 696.547 62.8538 Q699.95 58.1548 699.95 49.9314 M674.591 34.0924 Q676.941 30.0415 680.506 28.0971 Q684.111 26.1121 689.094 26.1121 Q697.358 26.1121 702.502 32.6746 Q707.687 39.2371 707.687 49.9314 Q707.687 60.6258 702.502 67.1883 Q697.358 73.7508 689.094 73.7508 Q684.111 73.7508 680.506 71.8063 Q676.941 69.8214 674.591 65.7705 L674.591 72.576 L667.097 72.576 L667.097 9.54393 L674.591 9.54393 L674.591 34.0924 Z" fill="#000000" fill-rule="evenodd" fill-opacity="1" /><path clip-path="url(#clip400)" d="M738.92 76.7889 Q735.76 84.8907 732.762 87.3618 Q729.765 89.8329 724.742 89.8329 L718.787 89.8329 L718.787 83.5945 L723.162 83.5945 Q726.24 83.5945 727.942 82.1361 Q729.643 80.6778 731.709 75.2496 L733.046 71.8468 L714.695 27.2059 L722.595 27.2059 L736.773 62.6918 L750.951 27.2059 L758.85 27.2059 L738.92 76.7889 Z" fill="#000000" fill-rule="evenodd" fill-opacity="1" /><path clip-path="url(#clip400)" d="M828.08 49.9314 Q828.08 41.7081 824.677 37.0496 Q821.315 32.3505 815.401 32.3505 Q809.487 32.3505 806.084 37.0496 Q802.722 41.7081 802.722 49.9314 Q802.722 58.1548 806.084 62.8538 Q809.487 67.5124 815.401 67.5124 Q821.315 67.5124 824.677 62.8538 Q828.08 58.1548 828.08 49.9314 M802.722 34.0924 Q805.071 30.0415 808.636 28.0971 Q812.241 26.1121 817.224 26.1121 Q825.488 26.1121 830.632 32.6746 Q835.817 39.2371 835.817 49.9314 Q835.817 60.6258 830.632 67.1883 Q825.488 73.7508 817.224 73.7508 Q812.241 73.7508 808.636 71.8063 Q805.071 69.8214 802.722 65.7705 L802.722 72.576 L795.227 72.576 L795.227 9.54393 L802.722 9.54393 L802.722 34.0924 Z" fill="#000000" fill-rule="evenodd" fill-opacity="1" /><path clip-path="url(#clip400)" d="M865.754 32.4315 Q859.758 32.4315 856.274 37.1306 Q852.791 41.7891 852.791 49.9314 Q852.791 58.0738 856.234 62.7728 Q859.718 67.4314 865.754 67.4314 Q871.708 67.4314 875.192 62.7323 Q878.676 58.0333 878.676 49.9314 Q878.676 41.8701 875.192 37.1711 Q871.708 32.4315 865.754 32.4315 M865.754 26.1121 Q875.476 26.1121 881.026 32.4315 Q886.575 38.7509 886.575 49.9314 Q886.575 61.0714 881.026 67.4314 Q875.476 73.7508 865.754 73.7508 Q855.991 73.7508 850.441 67.4314 Q844.932 61.0714 844.932 49.9314 Q844.932 38.7509 850.441 32.4315 Q855.991 26.1121 865.754 26.1121 Z" fill="#000000" fill-rule="evenodd" fill-opacity="1" /><path clip-path="url(#clip400)" d="M928.786 34.0924 L928.786 9.54393 L936.239 9.54393 L936.239 72.576 L928.786 72.576 L928.786 65.7705 Q926.436 69.8214 922.831 71.8063 Q919.266 73.7508 914.243 73.7508 Q906.02 73.7508 900.834 67.1883 Q895.69 60.6258 895.69 49.9314 Q895.69 39.2371 900.834 32.6746 Q906.02 26.1121 914.243 26.1121 Q919.266 26.1121 922.831 28.0971 Q926.436 30.0415 928.786 34.0924 M903.387 49.9314 Q903.387 58.1548 906.749 62.8538 Q910.152 67.5124 916.066 67.5124 Q921.98 67.5124 925.383 62.8538 Q928.786 58.1548 928.786 49.9314 Q928.786 41.7081 925.383 37.0496 Q921.98 32.3505 916.066 32.3505 Q910.152 32.3505 906.749 37.0496 Q903.387 41.7081 903.387 49.9314 Z" fill="#000000" fill-rule="evenodd" fill-opacity="1" /><path clip-path="url(#clip400)" d="M970.469 76.7889 Q967.31 84.8907 964.312 87.3618 Q961.314 89.8329 956.291 89.8329 L950.336 89.8329 L950.336 83.5945 L954.711 83.5945 Q957.79 83.5945 959.492 82.1361 Q961.193 80.6778 963.259 75.2496 L964.596 71.8468 L946.245 27.2059 L954.144 27.2059 L968.322 62.6918 L982.501 27.2059 L990.4 27.2059 L970.469 76.7889 Z" fill="#000000" fill-rule="evenodd" fill-opacity="1" /><circle clip-path="url(#clip402)" cx="289.552" cy="1311.34" r="14.4" fill="#009af9" fill-rule="evenodd" fill-opacity="1" stroke="#000000" stroke-opacity="1" stroke-width="3.072"/>
<circle clip-path="url(#clip402)" cx="294.003" cy="1227.45" r="14.4" fill="#009af9" fill-rule="evenodd" fill-opacity="1" stroke="#000000" stroke-opacity="1" stroke-width="3.072"/>
<circle clip-path="url(#clip402)" cx="289.888" cy="1288.81" r="14.4" fill="#009af9" fill-rule="evenodd" fill-opacity="1" stroke="#000000" stroke-opacity="1" stroke-width="3.072"/>
<circle clip-path="url(#clip402)" cx="289.805" cy="1289.72" r="14.4" fill="#009af9" fill-rule="evenodd" fill-opacity="1" stroke="#000000" stroke-opacity="1" stroke-width="3.072"/>
<circle clip-path="url(#clip402)" cx="289.549" cy="1311.86" r="14.4" fill="#009af9" fill-rule="evenodd" fill-opacity="1" stroke="#000000" stroke-opacity="1" stroke-width="3.072"/>
<circle clip-path="url(#clip402)" cx="401.854" cy="1302.87" r="14.4" fill="#009af9" fill-rule="evenodd" fill-opacity="1" stroke="#000000" stroke-opacity="1" stroke-width="3.072"/>
<circle clip-path="url(#clip402)" cx="313.989" cy="382.334" r="14.4" fill="#009af9" fill-rule="evenodd" fill-opacity="1" stroke="#000000" stroke-opacity="1" stroke-width="3.072"/>
<circle clip-path="url(#clip402)" cx="291.335" cy="1228.26" r="14.4" fill="#009af9" fill-rule="evenodd" fill-opacity="1" stroke="#000000" stroke-opacity="1" stroke-width="3.072"/>
<circle clip-path="url(#clip402)" cx="294.541" cy="1180.55" r="14.4" fill="#009af9" fill-rule="evenodd" fill-opacity="1" stroke="#000000" stroke-opacity="1" stroke-width="3.072"/>
<circle clip-path="url(#clip402)" cx="289.635" cy="1289.72" r="14.4" fill="#009af9" fill-rule="evenodd" fill-opacity="1" stroke="#000000" stroke-opacity="1" stroke-width="3.072"/>
<circle clip-path="url(#clip402)" cx="289.571" cy="1307.8" r="14.4" fill="#009af9" fill-rule="evenodd" fill-opacity="1" stroke="#000000" stroke-opacity="1" stroke-width="3.072"/>
<circle clip-path="url(#clip402)" cx="294.618" cy="1175.49" r="14.4" fill="#009af9" fill-rule="evenodd" fill-opacity="1" stroke="#000000" stroke-opacity="1" stroke-width="3.072"/>
<circle clip-path="url(#clip402)" cx="291.526" cy="1230.89" r="14.4" fill="#009af9" fill-rule="evenodd" fill-opacity="1" stroke="#000000" stroke-opacity="1" stroke-width="3.072"/>
<circle clip-path="url(#clip402)" cx="290.135" cy="1046.1" r="14.4" fill="#009af9" fill-rule="evenodd" fill-opacity="1" stroke="#000000" stroke-opacity="1" stroke-width="3.072"/>
<circle clip-path="url(#clip402)" cx="353.415" cy="158.115" r="14.4" fill="#009af9" fill-rule="evenodd" fill-opacity="1" stroke="#000000" stroke-opacity="1" stroke-width="3.072"/>
<circle clip-path="url(#clip402)" cx="379.775" cy="1298.82" r="14.4" fill="#009af9" fill-rule="evenodd" fill-opacity="1" stroke="#000000" stroke-opacity="1" stroke-width="3.072"/>
<circle clip-path="url(#clip402)" cx="289.605" cy="1276.78" r="14.4" fill="#009af9" fill-rule="evenodd" fill-opacity="1" stroke="#000000" stroke-opacity="1" stroke-width="3.072"/>
<circle clip-path="url(#clip402)" cx="289.875" cy="1301.65" r="14.4" fill="#009af9" fill-rule="evenodd" fill-opacity="1" stroke="#000000" stroke-opacity="1" stroke-width="3.072"/>
<circle clip-path="url(#clip402)" cx="289.54" cy="1312.77" r="14.4" fill="#009af9" fill-rule="evenodd" fill-opacity="1" stroke="#000000" stroke-opacity="1" stroke-width="3.072"/>
<circle clip-path="url(#clip402)" cx="289.54" cy="1312.89" r="14.4" fill="#009af9" fill-rule="evenodd" fill-opacity="1" stroke="#000000" stroke-opacity="1" stroke-width="3.072"/>
<circle clip-path="url(#clip402)" cx="289.563" cy="1310.53" r="14.4" fill="#009af9" fill-rule="evenodd" fill-opacity="1" stroke="#000000" stroke-opacity="1" stroke-width="3.072"/>
<circle clip-path="url(#clip402)" cx="290.072" cy="1277.59" r="14.4" fill="#009af9" fill-rule="evenodd" fill-opacity="1" stroke="#000000" stroke-opacity="1" stroke-width="3.072"/>
<circle clip-path="url(#clip402)" cx="290.499" cy="1281.23" r="14.4" fill="#009af9" fill-rule="evenodd" fill-opacity="1" stroke="#000000" stroke-opacity="1" stroke-width="3.072"/>
<circle clip-path="url(#clip402)" cx="290.04" cy="1224.01" r="14.4" fill="#009af9" fill-rule="evenodd" fill-opacity="1" stroke="#000000" stroke-opacity="1" stroke-width="3.072"/>
<circle clip-path="url(#clip402)" cx="289.542" cy="1312.59" r="14.4" fill="#009af9" fill-rule="evenodd" fill-opacity="1" stroke="#000000" stroke-opacity="1" stroke-width="3.072"/>
<circle clip-path="url(#clip402)" cx="1124.7" cy="1281.74" r="14.4" fill="#009af9" fill-rule="evenodd" fill-opacity="1" stroke="#000000" stroke-opacity="1" stroke-width="3.072"/>
<circle clip-path="url(#clip402)" cx="289.541" cy="1312.37" r="14.4" fill="#009af9" fill-rule="evenodd" fill-opacity="1" stroke="#000000" stroke-opacity="1" stroke-width="3.072"/>
<circle clip-path="url(#clip402)" cx="291.382" cy="1276.58" r="14.4" fill="#009af9" fill-rule="evenodd" fill-opacity="1" stroke="#000000" stroke-opacity="1" stroke-width="3.072"/>
<path clip-path="url(#clip400)" d="
M1371.48 1347.54 L2256.76 1347.54 L2256.76 123.472 L1371.48 123.472  Z
  " fill="#ffffff" fill-rule="evenodd" fill-opacity="1"/>
<defs>
  <clipPath id="clip403">
    <rect x="1371" y="123" width="886" height="1225"/>
  </clipPath>
</defs>
<polyline clip-path="url(#clip403)" style="stroke:#000000; stroke-linecap:round; stroke-linejoin:round; stroke-width:2; stroke-opacity:0.1; fill:none" points="
  1439.12,1347.54 1439.12,123.472 
  "/>
<polyline clip-path="url(#clip403)" style="stroke:#000000; stroke-linecap:round; stroke-linejoin:round; stroke-width:2; stroke-opacity:0.1; fill:none" points="
  1604.55,1347.54 1604.55,123.472 
  "/>
<polyline clip-path="url(#clip403)" style="stroke:#000000; stroke-linecap:round; stroke-linejoin:round; stroke-width:2; stroke-opacity:0.1; fill:none" points="
  1769.97,1347.54 1769.97,123.472 
  "/>
<polyline clip-path="url(#clip403)" style="stroke:#000000; stroke-linecap:round; stroke-linejoin:round; stroke-width:2; stroke-opacity:0.1; fill:none" points="
  1935.39,1347.54 1935.39,123.472 
  "/>
<polyline clip-path="url(#clip403)" style="stroke:#000000; stroke-linecap:round; stroke-linejoin:round; stroke-width:2; stroke-opacity:0.1; fill:none" points="
  2100.81,1347.54 2100.81,123.472 
  "/>
<polyline clip-path="url(#clip400)" style="stroke:#000000; stroke-linecap:round; stroke-linejoin:round; stroke-width:4; stroke-opacity:1; fill:none" points="
  1371.48,1347.54 2256.76,1347.54 
  "/>
<polyline clip-path="url(#clip400)" style="stroke:#000000; stroke-linecap:round; stroke-linejoin:round; stroke-width:4; stroke-opacity:1; fill:none" points="
  1439.12,1347.54 1439.12,1328.64 
  "/>
<polyline clip-path="url(#clip400)" style="stroke:#000000; stroke-linecap:round; stroke-linejoin:round; stroke-width:4; stroke-opacity:1; fill:none" points="
  1604.55,1347.54 1604.55,1328.64 
  "/>
<polyline clip-path="url(#clip400)" style="stroke:#000000; stroke-linecap:round; stroke-linejoin:round; stroke-width:4; stroke-opacity:1; fill:none" points="
  1769.97,1347.54 1769.97,1328.64 
  "/>
<polyline clip-path="url(#clip400)" style="stroke:#000000; stroke-linecap:round; stroke-linejoin:round; stroke-width:4; stroke-opacity:1; fill:none" points="
  1935.39,1347.54 1935.39,1328.64 
  "/>
<polyline clip-path="url(#clip400)" style="stroke:#000000; stroke-linecap:round; stroke-linejoin:round; stroke-width:4; stroke-opacity:1; fill:none" points="
  2100.81,1347.54 2100.81,1328.64 
  "/>
<path clip-path="url(#clip400)" d="M1408.59 1392.34 L1438.27 1392.34 L1438.27 1396.28 L1408.59 1396.28 L1408.59 1392.34 Z" fill="#000000" fill-rule="evenodd" fill-opacity="1" /><path clip-path="url(#clip400)" d="M1462.53 1390.53 Q1465.88 1391.25 1467.76 1393.52 Q1469.66 1395.79 1469.66 1399.12 Q1469.66 1404.24 1466.14 1407.04 Q1462.62 1409.84 1456.14 1409.84 Q1453.96 1409.84 1451.65 1409.4 Q1449.35 1408.98 1446.9 1408.13 L1446.9 1403.61 Q1448.85 1404.75 1451.16 1405.33 Q1453.47 1405.9 1456 1405.9 Q1460.4 1405.9 1462.69 1404.17 Q1465 1402.43 1465 1399.12 Q1465 1396.07 1462.85 1394.35 Q1460.72 1392.62 1456.9 1392.62 L1452.87 1392.62 L1452.87 1388.78 L1457.09 1388.78 Q1460.53 1388.78 1462.36 1387.41 Q1464.19 1386.02 1464.19 1383.43 Q1464.19 1380.77 1462.29 1379.35 Q1460.42 1377.92 1456.9 1377.92 Q1454.98 1377.92 1452.78 1378.34 Q1450.58 1378.75 1447.94 1379.63 L1447.94 1375.47 Q1450.6 1374.72 1452.92 1374.35 Q1455.26 1373.98 1457.32 1373.98 Q1462.64 1373.98 1465.74 1376.41 Q1468.85 1378.82 1468.85 1382.94 Q1468.85 1385.81 1467.2 1387.8 Q1465.56 1389.77 1462.53 1390.53 Z" fill="#000000" fill-rule="evenodd" fill-opacity="1" /><path clip-path="url(#clip400)" d="M1604.55 1377.69 Q1600.93 1377.69 1599.11 1381.25 Q1597.3 1384.79 1597.3 1391.92 Q1597.3 1399.03 1599.11 1402.59 Q1600.93 1406.14 1604.55 1406.14 Q1608.18 1406.14 1609.99 1402.59 Q1611.81 1399.03 1611.81 1391.92 Q1611.81 1384.79 1609.99 1381.25 Q1608.18 1377.69 1604.55 1377.69 M1604.55 1373.98 Q1610.36 1373.98 1613.41 1378.59 Q1616.49 1383.17 1616.49 1391.92 Q1616.49 1400.65 1613.41 1405.26 Q1610.36 1409.84 1604.55 1409.84 Q1598.74 1409.84 1595.66 1405.26 Q1592.6 1400.65 1592.6 1391.92 Q1592.6 1383.17 1595.66 1378.59 Q1598.74 1373.98 1604.55 1373.98 Z" fill="#000000" fill-rule="evenodd" fill-opacity="1" /><path clip-path="url(#clip400)" d="M1774.22 1390.53 Q1777.57 1391.25 1779.45 1393.52 Q1781.35 1395.79 1781.35 1399.12 Q1781.35 1404.24 1777.83 1407.04 Q1774.31 1409.84 1767.83 1409.84 Q1765.65 1409.84 1763.34 1409.4 Q1761.05 1408.98 1758.59 1408.13 L1758.59 1403.61 Q1760.54 1404.75 1762.85 1405.33 Q1765.17 1405.9 1767.69 1405.9 Q1772.09 1405.9 1774.38 1404.17 Q1776.69 1402.43 1776.69 1399.12 Q1776.69 1396.07 1774.54 1394.35 Q1772.41 1392.62 1768.59 1392.62 L1764.56 1392.62 L1764.56 1388.78 L1768.78 1388.78 Q1772.23 1388.78 1774.05 1387.41 Q1775.88 1386.02 1775.88 1383.43 Q1775.88 1380.77 1773.99 1379.35 Q1772.11 1377.92 1768.59 1377.92 Q1766.67 1377.92 1764.47 1378.34 Q1762.27 1378.75 1759.63 1379.63 L1759.63 1375.47 Q1762.3 1374.72 1764.61 1374.35 Q1766.95 1373.98 1769.01 1373.98 Q1774.33 1373.98 1777.43 1376.41 Q1780.54 1378.82 1780.54 1382.94 Q1780.54 1385.81 1778.89 1387.8 Q1777.25 1389.77 1774.22 1390.53 Z" fill="#000000" fill-rule="evenodd" fill-opacity="1" /><path clip-path="url(#clip400)" d="M1935.8 1390.03 Q1932.65 1390.03 1930.8 1392.18 Q1928.97 1394.33 1928.97 1398.08 Q1928.97 1401.81 1930.8 1403.98 Q1932.65 1406.14 1935.8 1406.14 Q1938.95 1406.14 1940.77 1403.98 Q1942.63 1401.81 1942.63 1398.08 Q1942.63 1394.33 1940.77 1392.18 Q1938.95 1390.03 1935.8 1390.03 M1945.08 1375.37 L1945.08 1379.63 Q1943.32 1378.8 1941.51 1378.36 Q1939.73 1377.92 1937.97 1377.92 Q1933.34 1377.92 1930.89 1381.04 Q1928.46 1384.17 1928.11 1390.49 Q1929.48 1388.47 1931.54 1387.41 Q1933.6 1386.32 1936.07 1386.32 Q1941.28 1386.32 1944.29 1389.49 Q1947.32 1392.64 1947.32 1398.08 Q1947.32 1403.4 1944.18 1406.62 Q1941.03 1409.84 1935.8 1409.84 Q1929.8 1409.84 1926.63 1405.26 Q1923.46 1400.65 1923.46 1391.92 Q1923.46 1383.73 1927.35 1378.87 Q1931.24 1373.98 1937.79 1373.98 Q1939.55 1373.98 1941.33 1374.33 Q1943.13 1374.68 1945.08 1375.37 Z" fill="#000000" fill-rule="evenodd" fill-opacity="1" /><path clip-path="url(#clip400)" d="M2091.12 1408.45 L2091.12 1404.19 Q2092.88 1405.03 2094.68 1405.46 Q2096.49 1405.9 2098.22 1405.9 Q2102.85 1405.9 2105.28 1402.8 Q2107.74 1399.68 2108.08 1393.34 Q2106.74 1395.33 2104.68 1396.39 Q2102.62 1397.46 2100.12 1397.46 Q2094.94 1397.46 2091.9 1394.33 Q2088.89 1391.18 2088.89 1385.74 Q2088.89 1380.42 2092.04 1377.2 Q2095.19 1373.98 2100.42 1373.98 Q2106.42 1373.98 2109.56 1378.59 Q2112.74 1383.17 2112.74 1391.92 Q2112.74 1400.09 2108.85 1404.98 Q2104.98 1409.84 2098.43 1409.84 Q2096.67 1409.84 2094.87 1409.49 Q2093.06 1409.15 2091.12 1408.45 M2100.42 1393.8 Q2103.57 1393.8 2105.4 1391.65 Q2107.25 1389.49 2107.25 1385.74 Q2107.25 1382.02 2105.4 1379.86 Q2103.57 1377.69 2100.42 1377.69 Q2097.27 1377.69 2095.42 1379.86 Q2093.59 1382.02 2093.59 1385.74 Q2093.59 1389.49 2095.42 1391.65 Q2097.27 1393.8 2100.42 1393.8 Z" fill="#000000" fill-rule="evenodd" fill-opacity="1" /><path clip-path="url(#clip400)" d="M1662.6 1441.44 L1668.46 1441.44 L1668.46 1490.96 L1662.6 1490.96 L1662.6 1441.44 Z" fill="#000000" fill-rule="evenodd" fill-opacity="1" /><path clip-path="url(#clip400)" d="M1694.52 1459.42 Q1689.81 1459.42 1687.08 1463.11 Q1684.34 1466.77 1684.34 1473.17 Q1684.34 1479.57 1687.05 1483.26 Q1689.78 1486.92 1694.52 1486.92 Q1699.2 1486.92 1701.94 1483.23 Q1704.68 1479.53 1704.68 1473.17 Q1704.68 1466.83 1701.94 1463.14 Q1699.2 1459.42 1694.52 1459.42 M1694.52 1454.45 Q1702.16 1454.45 1706.52 1459.42 Q1710.88 1464.38 1710.88 1473.17 Q1710.88 1481.92 1706.52 1486.92 Q1702.16 1491.88 1694.52 1491.88 Q1686.85 1491.88 1682.49 1486.92 Q1678.16 1481.92 1678.16 1473.17 Q1678.16 1464.38 1682.49 1459.42 Q1686.85 1454.45 1694.52 1454.45 Z" fill="#000000" fill-rule="evenodd" fill-opacity="1" /><path clip-path="url(#clip400)" d="M1744.05 1472.72 Q1744.05 1466.36 1741.41 1462.86 Q1738.8 1459.35 1734.06 1459.35 Q1729.35 1459.35 1726.7 1462.86 Q1724.09 1466.36 1724.09 1472.72 Q1724.09 1479.06 1726.7 1482.56 Q1729.35 1486.06 1734.06 1486.06 Q1738.8 1486.06 1741.41 1482.56 Q1744.05 1479.06 1744.05 1472.72 M1749.91 1486.54 Q1749.91 1495.64 1745.86 1500.06 Q1741.82 1504.52 1733.48 1504.52 Q1730.4 1504.52 1727.66 1504.04 Q1724.92 1503.6 1722.34 1502.64 L1722.34 1496.94 Q1724.92 1498.34 1727.44 1499.01 Q1729.95 1499.68 1732.56 1499.68 Q1738.32 1499.68 1741.19 1496.66 Q1744.05 1493.67 1744.05 1487.59 L1744.05 1484.69 Q1742.24 1487.84 1739.4 1489.4 Q1736.57 1490.96 1732.62 1490.96 Q1726.07 1490.96 1722.06 1485.96 Q1718.05 1480.97 1718.05 1472.72 Q1718.05 1464.45 1722.06 1459.45 Q1726.07 1454.45 1732.62 1454.45 Q1736.57 1454.45 1739.4 1456.01 Q1742.24 1457.57 1744.05 1460.72 L1744.05 1455.31 L1749.91 1455.31 L1749.91 1486.54 Z" fill="#000000" fill-rule="evenodd" fill-opacity="1" /><path clip-path="url(#clip400)" d="M1776.04 1441.5 Q1771.77 1448.82 1769.7 1455.98 Q1767.63 1463.14 1767.63 1470.49 Q1767.63 1477.85 1769.7 1485.07 Q1771.8 1492.27 1776.04 1499.55 L1770.95 1499.55 Q1766.17 1492.07 1763.78 1484.85 Q1761.43 1477.62 1761.43 1470.49 Q1761.43 1463.4 1763.78 1456.2 Q1766.14 1449.01 1770.95 1441.5 L1776.04 1441.5 Z" fill="#000000" fill-rule="evenodd" fill-opacity="1" /><path clip-path="url(#clip400)" d="M1794.08 1468.27 L1794.08 1485.68 L1804.4 1485.68 Q1809.58 1485.68 1812.07 1483.54 Q1814.58 1481.38 1814.58 1476.96 Q1814.58 1472.5 1812.07 1470.4 Q1809.58 1468.27 1804.4 1468.27 L1794.08 1468.27 M1794.08 1448.72 L1794.08 1463.05 L1803.6 1463.05 Q1808.31 1463.05 1810.6 1461.3 Q1812.93 1459.51 1812.93 1455.89 Q1812.93 1452.29 1810.6 1450.51 Q1808.31 1448.72 1803.6 1448.72 L1794.08 1448.72 M1787.66 1443.44 L1804.08 1443.44 Q1811.43 1443.44 1815.41 1446.5 Q1819.39 1449.55 1819.39 1455.19 Q1819.39 1459.55 1817.35 1462.12 Q1815.31 1464.7 1811.37 1465.34 Q1816.11 1466.36 1818.72 1469.6 Q1821.36 1472.82 1821.36 1477.66 Q1821.36 1484.02 1817.03 1487.49 Q1812.7 1490.96 1804.72 1490.96 L1787.66 1490.96 L1787.66 1443.44 Z" fill="#000000" fill-rule="evenodd" fill-opacity="1" /><path clip-path="url(#clip400)" d="M1845.93 1459.42 Q1841.22 1459.42 1838.49 1463.11 Q1835.75 1466.77 1835.75 1473.17 Q1835.75 1479.57 1838.45 1483.26 Q1841.19 1486.92 1845.93 1486.92 Q1850.61 1486.92 1853.35 1483.23 Q1856.09 1479.53 1856.09 1473.17 Q1856.09 1466.83 1853.35 1463.14 Q1850.61 1459.42 1845.93 1459.42 M1845.93 1454.45 Q1853.57 1454.45 1857.93 1459.42 Q1862.29 1464.38 1862.29 1473.17 Q1862.29 1481.92 1857.93 1486.92 Q1853.57 1491.88 1845.93 1491.88 Q1838.26 1491.88 1833.9 1486.92 Q1829.57 1481.92 1829.57 1473.17 Q1829.57 1464.38 1833.9 1459.42 Q1838.26 1454.45 1845.93 1454.45 Z" fill="#000000" fill-rule="evenodd" fill-opacity="1" /><path clip-path="url(#clip400)" d="M1895.46 1460.72 L1895.46 1441.44 L1901.31 1441.44 L1901.31 1490.96 L1895.46 1490.96 L1895.46 1485.61 Q1893.61 1488.8 1890.78 1490.36 Q1887.98 1491.88 1884.03 1491.88 Q1877.57 1491.88 1873.5 1486.73 Q1869.45 1481.57 1869.45 1473.17 Q1869.45 1464.77 1873.5 1459.61 Q1877.57 1454.45 1884.03 1454.45 Q1887.98 1454.45 1890.78 1456.01 Q1893.61 1457.54 1895.46 1460.72 M1875.5 1473.17 Q1875.5 1479.63 1878.14 1483.32 Q1880.82 1486.98 1885.46 1486.98 Q1890.11 1486.98 1892.78 1483.32 Q1895.46 1479.63 1895.46 1473.17 Q1895.46 1466.71 1892.78 1463.05 Q1890.11 1459.35 1885.46 1459.35 Q1880.82 1459.35 1878.14 1463.05 Q1875.5 1466.71 1875.5 1473.17 Z" fill="#000000" fill-rule="evenodd" fill-opacity="1" /><path clip-path="url(#clip400)" d="M1928.21 1494.27 Q1925.73 1500.64 1923.37 1502.58 Q1921.02 1504.52 1917.07 1504.52 L1912.39 1504.52 L1912.39 1499.62 L1915.83 1499.62 Q1918.25 1499.62 1919.58 1498.47 Q1920.92 1497.33 1922.54 1493.06 L1923.59 1490.39 L1909.18 1455.31 L1915.38 1455.31 L1926.52 1483.19 L1937.66 1455.31 L1943.87 1455.31 L1928.21 1494.27 Z" fill="#000000" fill-rule="evenodd" fill-opacity="1" /><path clip-path="url(#clip400)" d="M1951.03 1441.5 L1956.12 1441.5 Q1960.9 1449.01 1963.25 1456.2 Q1965.64 1463.4 1965.64 1470.49 Q1965.64 1477.62 1963.25 1484.85 Q1960.9 1492.07 1956.12 1499.55 L1951.03 1499.55 Q1955.26 1492.27 1957.33 1485.07 Q1959.43 1477.85 1959.43 1470.49 Q1959.43 1463.14 1957.33 1455.98 Q1955.26 1448.82 1951.03 1441.5 Z" fill="#000000" fill-rule="evenodd" fill-opacity="1" /><polyline clip-path="url(#clip403)" style="stroke:#000000; stroke-linecap:round; stroke-linejoin:round; stroke-width:2; stroke-opacity:0.1; fill:none" points="
  1371.48,1202.29 2256.76,1202.29 
  "/>
<polyline clip-path="url(#clip403)" style="stroke:#000000; stroke-linecap:round; stroke-linejoin:round; stroke-width:2; stroke-opacity:0.1; fill:none" points="
  1371.48,960.87 2256.76,960.87 
  "/>
<polyline clip-path="url(#clip403)" style="stroke:#000000; stroke-linecap:round; stroke-linejoin:round; stroke-width:2; stroke-opacity:0.1; fill:none" points="
  1371.48,719.452 2256.76,719.452 
  "/>
<polyline clip-path="url(#clip403)" style="stroke:#000000; stroke-linecap:round; stroke-linejoin:round; stroke-width:2; stroke-opacity:0.1; fill:none" points="
  1371.48,478.034 2256.76,478.034 
  "/>
<polyline clip-path="url(#clip403)" style="stroke:#000000; stroke-linecap:round; stroke-linejoin:round; stroke-width:2; stroke-opacity:0.1; fill:none" points="
  1371.48,236.616 2256.76,236.616 
  "/>
<polyline clip-path="url(#clip400)" style="stroke:#000000; stroke-linecap:round; stroke-linejoin:round; stroke-width:4; stroke-opacity:1; fill:none" points="
  1371.48,1347.54 1371.48,123.472 
  "/>
<polyline clip-path="url(#clip400)" style="stroke:#000000; stroke-linecap:round; stroke-linejoin:round; stroke-width:4; stroke-opacity:1; fill:none" points="
  1371.48,1202.29 1390.38,1202.29 
  "/>
<polyline clip-path="url(#clip400)" style="stroke:#000000; stroke-linecap:round; stroke-linejoin:round; stroke-width:4; stroke-opacity:1; fill:none" points="
  1371.48,960.87 1390.38,960.87 
  "/>
<polyline clip-path="url(#clip400)" style="stroke:#000000; stroke-linecap:round; stroke-linejoin:round; stroke-width:4; stroke-opacity:1; fill:none" points="
  1371.48,719.452 1390.38,719.452 
  "/>
<polyline clip-path="url(#clip400)" style="stroke:#000000; stroke-linecap:round; stroke-linejoin:round; stroke-width:4; stroke-opacity:1; fill:none" points="
  1371.48,478.034 1390.38,478.034 
  "/>
<polyline clip-path="url(#clip400)" style="stroke:#000000; stroke-linecap:round; stroke-linejoin:round; stroke-width:4; stroke-opacity:1; fill:none" points="
  1371.48,236.616 1390.38,236.616 
  "/>
<path clip-path="url(#clip400)" d="M1324.98 1188.09 Q1321.37 1188.09 1319.54 1191.65 Q1317.74 1195.19 1317.74 1202.32 Q1317.74 1209.43 1319.54 1212.99 Q1321.37 1216.54 1324.98 1216.54 Q1328.61 1216.54 1330.42 1212.99 Q1332.25 1209.43 1332.25 1202.32 Q1332.25 1195.19 1330.42 1191.65 Q1328.61 1188.09 1324.98 1188.09 M1324.98 1184.38 Q1330.79 1184.38 1333.85 1188.99 Q1336.92 1193.57 1336.92 1202.32 Q1336.92 1211.05 1333.85 1215.66 Q1330.79 1220.24 1324.98 1220.24 Q1319.17 1220.24 1316.09 1215.66 Q1313.04 1211.05 1313.04 1202.32 Q1313.04 1193.57 1316.09 1188.99 Q1319.17 1184.38 1324.98 1184.38 Z" fill="#000000" fill-rule="evenodd" fill-opacity="1" /><path clip-path="url(#clip400)" d="M1320.61 974.215 L1336.92 974.215 L1336.92 978.15 L1314.98 978.15 L1314.98 974.215 Q1317.64 971.461 1322.23 966.831 Q1326.83 962.178 1328.01 960.836 Q1330.26 958.313 1331.14 956.576 Q1332.04 954.817 1332.04 953.127 Q1332.04 950.373 1330.1 948.637 Q1328.18 946.901 1325.07 946.901 Q1322.87 946.901 1320.42 947.664 Q1317.99 948.428 1315.21 949.979 L1315.21 945.257 Q1318.04 944.123 1320.49 943.544 Q1322.94 942.965 1324.98 942.965 Q1330.35 942.965 1333.55 945.651 Q1336.74 948.336 1336.74 952.826 Q1336.74 954.956 1335.93 956.877 Q1335.14 958.775 1333.04 961.368 Q1332.46 962.039 1329.36 965.257 Q1326.25 968.451 1320.61 974.215 Z" fill="#000000" fill-rule="evenodd" fill-opacity="1" /><path clip-path="url(#clip400)" d="M1327.34 706.246 L1315.54 724.695 L1327.34 724.695 L1327.34 706.246 M1326.11 702.172 L1331.99 702.172 L1331.99 724.695 L1336.92 724.695 L1336.92 728.584 L1331.99 728.584 L1331.99 736.732 L1327.34 736.732 L1327.34 728.584 L1311.74 728.584 L1311.74 724.07 L1326.11 702.172 Z" fill="#000000" fill-rule="evenodd" fill-opacity="1" /><path clip-path="url(#clip400)" d="M1325.4 476.17 Q1322.25 476.17 1320.4 478.323 Q1318.57 480.476 1318.57 484.226 Q1318.57 487.953 1320.4 490.129 Q1322.25 492.281 1325.4 492.281 Q1328.55 492.281 1330.37 490.129 Q1332.23 487.953 1332.23 484.226 Q1332.23 480.476 1330.37 478.323 Q1328.55 476.17 1325.4 476.17 M1334.68 461.518 L1334.68 465.777 Q1332.92 464.944 1331.11 464.504 Q1329.33 464.064 1327.57 464.064 Q1322.94 464.064 1320.49 467.189 Q1318.06 470.314 1317.71 476.633 Q1319.08 474.62 1321.14 473.555 Q1323.2 472.467 1325.68 472.467 Q1330.88 472.467 1333.89 475.638 Q1336.92 478.786 1336.92 484.226 Q1336.92 489.55 1333.78 492.768 Q1330.63 495.985 1325.4 495.985 Q1319.4 495.985 1316.23 491.402 Q1313.06 486.795 1313.06 478.069 Q1313.06 469.874 1316.95 465.013 Q1320.84 460.129 1327.39 460.129 Q1329.15 460.129 1330.93 460.476 Q1332.74 460.823 1334.68 461.518 Z" fill="#000000" fill-rule="evenodd" fill-opacity="1" /><path clip-path="url(#clip400)" d="M1325.07 237.484 Q1321.74 237.484 1319.82 239.266 Q1317.92 241.048 1317.92 244.173 Q1317.92 247.298 1319.82 249.081 Q1321.74 250.863 1325.07 250.863 Q1328.41 250.863 1330.33 249.081 Q1332.25 247.275 1332.25 244.173 Q1332.25 241.048 1330.33 239.266 Q1328.43 237.484 1325.07 237.484 M1320.4 235.493 Q1317.39 234.752 1315.7 232.692 Q1314.03 230.632 1314.03 227.669 Q1314.03 223.525 1316.97 221.118 Q1319.93 218.711 1325.07 218.711 Q1330.24 218.711 1333.17 221.118 Q1336.11 223.525 1336.11 227.669 Q1336.11 230.632 1334.42 232.692 Q1332.76 234.752 1329.77 235.493 Q1333.15 236.28 1335.03 238.572 Q1336.92 240.863 1336.92 244.173 Q1336.92 249.197 1333.85 251.882 Q1330.79 254.567 1325.07 254.567 Q1319.36 254.567 1316.28 251.882 Q1313.22 249.197 1313.22 244.173 Q1313.22 240.863 1315.12 238.572 Q1317.02 236.28 1320.4 235.493 M1318.68 228.109 Q1318.68 230.794 1320.35 232.298 Q1322.04 233.803 1325.07 233.803 Q1328.08 233.803 1329.77 232.298 Q1331.49 230.794 1331.49 228.109 Q1331.49 225.423 1329.77 223.919 Q1328.08 222.414 1325.07 222.414 Q1322.04 222.414 1320.35 223.919 Q1318.68 225.423 1318.68 228.109 Z" fill="#000000" fill-rule="evenodd" fill-opacity="1" /><path clip-path="url(#clip400)" d="M1213.4 890.191 L1213.4 884.335 L1262.92 884.335 L1262.92 890.191 L1213.4 890.191 Z" fill="#000000" fill-rule="evenodd" fill-opacity="1" /><path clip-path="url(#clip400)" d="M1231.38 858.267 Q1231.38 862.978 1235.07 865.715 Q1238.73 868.452 1245.13 868.452 Q1251.53 868.452 1255.22 865.747 Q1258.88 863.009 1258.88 858.267 Q1258.88 853.588 1255.19 850.851 Q1251.5 848.114 1245.13 848.114 Q1238.8 848.114 1235.11 850.851 Q1231.38 853.588 1231.38 858.267 M1226.42 858.267 Q1226.42 850.628 1231.38 846.268 Q1236.35 841.907 1245.13 841.907 Q1253.88 841.907 1258.88 846.268 Q1263.85 850.628 1263.85 858.267 Q1263.85 865.938 1258.88 870.298 Q1253.88 874.627 1245.13 874.627 Q1236.35 874.627 1231.38 870.298 Q1226.42 865.938 1226.42 858.267 Z" fill="#000000" fill-rule="evenodd" fill-opacity="1" /><path clip-path="url(#clip400)" d="M1244.69 808.742 Q1238.32 808.742 1234.82 811.384 Q1231.32 813.994 1231.32 818.736 Q1231.32 823.447 1234.82 826.088 Q1238.32 828.698 1244.69 828.698 Q1251.02 828.698 1254.52 826.088 Q1258.02 823.447 1258.02 818.736 Q1258.02 813.994 1254.52 811.384 Q1251.02 808.742 1244.69 808.742 M1258.5 802.885 Q1267.6 802.885 1272.03 806.928 Q1276.48 810.97 1276.48 819.309 Q1276.48 822.396 1276.01 825.134 Q1275.56 827.871 1274.6 830.449 L1268.91 830.449 Q1270.31 827.871 1270.98 825.356 Q1271.64 822.842 1271.64 820.232 Q1271.64 814.471 1268.62 811.606 Q1265.63 808.742 1259.55 808.742 L1256.65 808.742 Q1259.8 810.556 1261.36 813.389 Q1262.92 816.222 1262.92 820.168 Q1262.92 826.725 1257.93 830.735 Q1252.93 834.746 1244.69 834.746 Q1236.41 834.746 1231.41 830.735 Q1226.42 826.725 1226.42 820.168 Q1226.42 816.222 1227.98 813.389 Q1229.54 810.556 1232.69 808.742 L1227.28 808.742 L1227.28 802.885 L1258.5 802.885 Z" fill="#000000" fill-rule="evenodd" fill-opacity="1" /><path clip-path="url(#clip400)" d="M1213.46 776.754 Q1220.78 781.019 1227.94 783.088 Q1235.11 785.157 1242.46 785.157 Q1249.81 785.157 1257.04 783.088 Q1264.23 780.987 1271.52 776.754 L1271.52 781.847 Q1264.04 786.621 1256.81 789.008 Q1249.59 791.363 1242.46 791.363 Q1235.36 791.363 1228.17 789.008 Q1220.97 786.653 1213.46 781.847 L1213.46 776.754 Z" fill="#000000" fill-rule="evenodd" fill-opacity="1" /><path clip-path="url(#clip400)" d="M1240.23 758.707 L1257.64 758.707 L1257.64 748.395 Q1257.64 743.207 1255.51 740.724 Q1253.34 738.21 1248.92 738.21 Q1244.46 738.21 1242.36 740.724 Q1240.23 743.207 1240.23 748.395 L1240.23 758.707 M1220.69 758.707 L1235.01 758.707 L1235.01 749.191 Q1235.01 744.48 1233.26 742.188 Q1231.48 739.865 1227.85 739.865 Q1224.25 739.865 1222.47 742.188 Q1220.69 744.48 1220.69 749.191 L1220.69 758.707 M1215.4 765.137 L1215.4 748.713 Q1215.4 741.361 1218.46 737.382 Q1221.51 733.404 1227.15 733.404 Q1231.51 733.404 1234.09 735.441 Q1236.67 737.478 1237.3 741.424 Q1238.32 736.682 1241.57 734.072 Q1244.78 731.43 1249.62 731.43 Q1255.99 731.43 1259.45 735.759 Q1262.92 740.088 1262.92 748.077 L1262.92 765.137 L1215.4 765.137 Z" fill="#000000" fill-rule="evenodd" fill-opacity="1" /><path clip-path="url(#clip400)" d="M1232.75 700.016 Q1232.18 701.002 1231.92 702.18 Q1231.64 703.326 1231.64 704.726 Q1231.64 709.691 1234.88 712.365 Q1238.1 715.007 1244.15 715.007 L1262.92 715.007 L1262.92 720.895 L1227.28 720.895 L1227.28 715.007 L1232.81 715.007 Q1229.57 713.161 1228.01 710.201 Q1226.42 707.241 1226.42 703.007 Q1226.42 702.403 1226.51 701.671 Q1226.58 700.939 1226.73 700.047 L1232.75 700.016 Z" fill="#000000" fill-rule="evenodd" fill-opacity="1" /><path clip-path="url(#clip400)" d="M1245 677.672 Q1245 684.77 1246.63 687.507 Q1248.25 690.244 1252.17 690.244 Q1255.29 690.244 1257.13 688.207 Q1258.95 686.138 1258.95 682.605 Q1258.95 677.736 1255.51 674.807 Q1252.04 671.847 1246.31 671.847 L1245 671.847 L1245 677.672 M1242.59 665.991 L1262.92 665.991 L1262.92 671.847 L1257.51 671.847 Q1260.76 673.853 1262.32 676.844 Q1263.85 679.836 1263.85 684.165 Q1263.85 689.639 1260.79 692.886 Q1257.7 696.101 1252.55 696.101 Q1246.53 696.101 1243.48 692.09 Q1240.42 688.048 1240.42 680.059 L1240.42 671.847 L1239.85 671.847 Q1235.81 671.847 1233.61 674.521 Q1231.38 677.163 1231.38 681.969 Q1231.38 685.024 1232.11 687.921 Q1232.85 690.817 1234.31 693.491 L1228.9 693.491 Q1227.66 690.276 1227.05 687.252 Q1226.42 684.229 1226.42 681.364 Q1226.42 673.63 1230.43 669.81 Q1234.44 665.991 1242.59 665.991 Z" fill="#000000" fill-rule="evenodd" fill-opacity="1" /><path clip-path="url(#clip400)" d="M1227.28 653.928 L1227.28 648.071 L1262.92 648.071 L1262.92 653.928 L1227.28 653.928 M1213.4 653.928 L1213.4 648.071 L1220.81 648.071 L1220.81 653.928 L1213.4 653.928 Z" fill="#000000" fill-rule="evenodd" fill-opacity="1" /><path clip-path="url(#clip400)" d="M1241.41 606.185 L1262.92 606.185 L1262.92 612.042 L1241.6 612.042 Q1236.54 612.042 1234.02 614.015 Q1231.51 615.988 1231.51 619.935 Q1231.51 624.677 1234.53 627.415 Q1237.56 630.152 1242.78 630.152 L1262.92 630.152 L1262.92 636.04 L1227.28 636.04 L1227.28 630.152 L1232.81 630.152 Q1229.6 628.051 1228.01 625.219 Q1226.42 622.354 1226.42 618.63 Q1226.42 612.487 1230.24 609.336 Q1234.02 606.185 1241.41 606.185 Z" fill="#000000" fill-rule="evenodd" fill-opacity="1" /><path clip-path="url(#clip400)" d="M1213.46 595.427 L1213.46 590.334 Q1220.97 585.56 1228.17 583.205 Q1235.36 580.818 1242.46 580.818 Q1249.59 580.818 1256.81 583.205 Q1264.04 585.56 1271.52 590.334 L1271.52 595.427 Q1264.23 591.194 1257.04 589.125 Q1249.81 587.024 1242.46 587.024 Q1235.11 587.024 1227.94 589.125 Q1220.78 591.194 1213.46 595.427 Z" fill="#000000" fill-rule="evenodd" fill-opacity="1" /><path clip-path="url(#clip400)" d="M1341.81 9.54393 L1349.26 9.54393 L1349.26 72.576 L1341.81 72.576 L1341.81 9.54393 Z" fill="#000000" fill-rule="evenodd" fill-opacity="1" /><path clip-path="url(#clip400)" d="M1382.44 32.4315 Q1376.44 32.4315 1372.96 37.1306 Q1369.47 41.7891 1369.47 49.9314 Q1369.47 58.0738 1372.92 62.7728 Q1376.4 67.4314 1382.44 67.4314 Q1388.39 67.4314 1391.87 62.7323 Q1395.36 58.0333 1395.36 49.9314 Q1395.36 41.8701 1391.87 37.1711 Q1388.39 32.4315 1382.44 32.4315 M1382.44 26.1121 Q1392.16 26.1121 1397.71 32.4315 Q1403.26 38.7509 1403.26 49.9314 Q1403.26 61.0714 1397.71 67.4314 Q1392.16 73.7508 1382.44 73.7508 Q1372.67 73.7508 1367.12 67.4314 Q1361.61 61.0714 1361.61 49.9314 Q1361.61 38.7509 1367.12 32.4315 Q1372.67 26.1121 1382.44 26.1121 Z" fill="#000000" fill-rule="evenodd" fill-opacity="1" /><path clip-path="url(#clip400)" d="M1445.47 49.3643 Q1445.47 41.2625 1442.11 36.8065 Q1438.78 32.3505 1432.75 32.3505 Q1426.75 32.3505 1423.39 36.8065 Q1420.07 41.2625 1420.07 49.3643 Q1420.07 57.4256 1423.39 61.8816 Q1426.75 66.3376 1432.75 66.3376 Q1438.78 66.3376 1442.11 61.8816 Q1445.47 57.4256 1445.47 49.3643 M1452.92 66.9452 Q1452.92 78.5308 1447.78 84.1616 Q1442.63 89.8329 1432.02 89.8329 Q1428.09 89.8329 1424.61 89.2252 Q1421.12 88.6581 1417.84 87.4428 L1417.84 80.1917 Q1421.12 81.9741 1424.32 82.8248 Q1427.52 83.6755 1430.84 83.6755 Q1438.18 83.6755 1441.82 79.8271 Q1445.47 76.0193 1445.47 68.282 L1445.47 64.5957 Q1443.16 68.6061 1439.55 70.5911 Q1435.95 72.576 1430.93 72.576 Q1422.58 72.576 1417.48 66.2161 Q1412.37 59.8562 1412.37 49.3643 Q1412.37 38.832 1417.48 32.472 Q1422.58 26.1121 1430.93 26.1121 Q1435.95 26.1121 1439.55 28.0971 Q1443.16 30.082 1445.47 34.0924 L1445.47 27.2059 L1452.92 27.2059 L1452.92 66.9452 Z" fill="#000000" fill-rule="evenodd" fill-opacity="1" /><path clip-path="url(#clip400)" d="M1486.18 9.62495 Q1480.75 18.942 1478.12 28.0566 Q1475.49 37.1711 1475.49 46.5287 Q1475.49 55.8863 1478.12 65.0818 Q1480.79 74.2369 1486.18 83.5134 L1479.7 83.5134 Q1473.62 73.9938 1470.58 64.7983 Q1467.59 55.6027 1467.59 46.5287 Q1467.59 37.4952 1470.58 28.3401 Q1473.58 19.1851 1479.7 9.62495 L1486.18 9.62495 Z" fill="#000000" fill-rule="evenodd" fill-opacity="1" /><path clip-path="url(#clip400)" d="M1509.15 43.6931 L1509.15 65.8515 L1522.27 65.8515 Q1528.88 65.8515 1532.04 63.1374 Q1535.24 60.3828 1535.24 54.752 Q1535.24 49.0808 1532.04 46.4072 Q1528.88 43.6931 1522.27 43.6931 L1509.15 43.6931 M1509.15 18.8205 L1509.15 37.0496 L1521.26 37.0496 Q1527.26 37.0496 1530.17 34.8216 Q1533.13 32.5531 1533.13 27.935 Q1533.13 23.3575 1530.17 21.089 Q1527.26 18.8205 1521.26 18.8205 L1509.15 18.8205 M1500.97 12.096 L1521.87 12.096 Q1531.23 12.096 1536.29 15.9849 Q1541.35 19.8737 1541.35 27.0438 Q1541.35 32.5936 1538.76 35.8748 Q1536.17 39.156 1531.14 39.9662 Q1537.18 41.2625 1540.5 45.3944 Q1543.86 49.4858 1543.86 55.6432 Q1543.86 63.745 1538.36 68.1605 Q1532.85 72.576 1522.68 72.576 L1500.97 72.576 L1500.97 12.096 Z" fill="#000000" fill-rule="evenodd" fill-opacity="1" /><path clip-path="url(#clip400)" d="M1583.85 34.1734 Q1582.59 33.4443 1581.09 33.1202 Q1579.63 32.7556 1577.85 32.7556 Q1571.53 32.7556 1568.13 36.8875 Q1564.77 40.9789 1564.77 48.6757 L1564.77 72.576 L1557.27 72.576 L1557.27 27.2059 L1564.77 27.2059 L1564.77 34.2544 Q1567.12 30.1225 1570.88 28.1376 Q1574.65 26.1121 1580.04 26.1121 Q1580.81 26.1121 1581.74 26.2337 Q1582.67 26.3147 1583.81 26.5172 L1583.85 34.1734 Z" fill="#000000" fill-rule="evenodd" fill-opacity="1" /><path clip-path="url(#clip400)" d="M1612.28 49.7694 Q1603.25 49.7694 1599.77 51.8354 Q1596.28 53.9013 1596.28 58.8839 Q1596.28 62.8538 1598.88 65.2034 Q1601.51 67.5124 1606.01 67.5124 Q1612.2 67.5124 1615.93 63.1374 Q1619.7 58.7219 1619.7 51.4303 L1619.7 49.7694 L1612.28 49.7694 M1627.15 46.6907 L1627.15 72.576 L1619.7 72.576 L1619.7 65.6895 Q1617.15 69.8214 1613.34 71.8063 Q1609.53 73.7508 1604.02 73.7508 Q1597.05 73.7508 1592.92 69.8619 Q1588.83 65.9325 1588.83 59.3701 Q1588.83 51.7138 1593.93 47.825 Q1599.08 43.9361 1609.25 43.9361 L1619.7 43.9361 L1619.7 43.2069 Q1619.7 38.0623 1616.29 35.2672 Q1612.93 32.4315 1606.82 32.4315 Q1602.93 32.4315 1599.24 33.3632 Q1595.55 34.295 1592.15 36.1584 L1592.15 29.2718 Q1596.24 27.692 1600.09 26.9223 Q1603.94 26.1121 1607.59 26.1121 Q1617.43 26.1121 1622.29 31.2163 Q1627.15 36.3204 1627.15 46.6907 Z" fill="#000000" fill-rule="evenodd" fill-opacity="1" /><path clip-path="url(#clip400)" d="M1642.5 27.2059 L1649.96 27.2059 L1649.96 72.576 L1642.5 72.576 L1642.5 27.2059 M1642.5 9.54393 L1649.96 9.54393 L1649.96 18.9825 L1642.5 18.9825 L1642.5 9.54393 Z" fill="#000000" fill-rule="evenodd" fill-opacity="1" /><path clip-path="url(#clip400)" d="M1703.27 45.1919 L1703.27 72.576 L1695.81 72.576 L1695.81 45.4349 Q1695.81 38.994 1693.3 35.7938 Q1690.79 32.5936 1685.77 32.5936 Q1679.73 32.5936 1676.25 36.4419 Q1672.76 40.2903 1672.76 46.9338 L1672.76 72.576 L1665.27 72.576 L1665.27 27.2059 L1672.76 27.2059 L1672.76 34.2544 Q1675.44 30.163 1679.04 28.1376 Q1682.69 26.1121 1687.43 26.1121 Q1695.25 26.1121 1699.26 30.9732 Q1703.27 35.7938 1703.27 45.1919 Z" fill="#000000" fill-rule="evenodd" fill-opacity="1" /><path clip-path="url(#clip400)" d="M1716.96 9.62495 L1723.44 9.62495 Q1729.52 19.1851 1732.51 28.3401 Q1735.55 37.4952 1735.55 46.5287 Q1735.55 55.6027 1732.51 64.7983 Q1729.52 73.9938 1723.44 83.5134 L1716.96 83.5134 Q1722.35 74.2369 1724.98 65.0818 Q1727.65 55.8863 1727.65 46.5287 Q1727.65 37.1711 1724.98 28.0566 Q1722.35 18.942 1716.96 9.62495 Z" fill="#000000" fill-rule="evenodd" fill-opacity="1" /><path clip-path="url(#clip400)" d="M1809.44 49.9314 Q1809.44 41.7081 1806.04 37.0496 Q1802.68 32.3505 1796.76 32.3505 Q1790.85 32.3505 1787.45 37.0496 Q1784.08 41.7081 1784.08 49.9314 Q1784.08 58.1548 1787.45 62.8538 Q1790.85 67.5124 1796.76 67.5124 Q1802.68 67.5124 1806.04 62.8538 Q1809.44 58.1548 1809.44 49.9314 M1784.08 34.0924 Q1786.43 30.0415 1790 28.0971 Q1793.6 26.1121 1798.59 26.1121 Q1806.85 26.1121 1811.99 32.6746 Q1817.18 39.2371 1817.18 49.9314 Q1817.18 60.6258 1811.99 67.1883 Q1806.85 73.7508 1798.59 73.7508 Q1793.6 73.7508 1790 71.8063 Q1786.43 69.8214 1784.08 65.7705 L1784.08 72.576 L1776.59 72.576 L1776.59 9.54393 L1784.08 9.54393 L1784.08 34.0924 Z" fill="#000000" fill-rule="evenodd" fill-opacity="1" /><path clip-path="url(#clip400)" d="M1848.41 76.7889 Q1845.25 84.8907 1842.25 87.3618 Q1839.26 89.8329 1834.23 89.8329 L1828.28 89.8329 L1828.28 83.5945 L1832.65 83.5945 Q1835.73 83.5945 1837.43 82.1361 Q1839.13 80.6778 1841.2 75.2496 L1842.54 71.8468 L1824.19 27.2059 L1832.09 27.2059 L1846.26 62.6918 L1860.44 27.2059 L1868.34 27.2059 L1848.41 76.7889 Z" fill="#000000" fill-rule="evenodd" fill-opacity="1" /><path clip-path="url(#clip400)" d="M1905 9.54393 L1912.46 9.54393 L1912.46 72.576 L1905 72.576 L1905 9.54393 Z" fill="#000000" fill-rule="evenodd" fill-opacity="1" /><path clip-path="url(#clip400)" d="M1945.63 32.4315 Q1939.64 32.4315 1936.15 37.1306 Q1932.67 41.7891 1932.67 49.9314 Q1932.67 58.0738 1936.11 62.7728 Q1939.6 67.4314 1945.63 67.4314 Q1951.59 67.4314 1955.07 62.7323 Q1958.56 58.0333 1958.56 49.9314 Q1958.56 41.8701 1955.07 37.1711 Q1951.59 32.4315 1945.63 32.4315 M1945.63 26.1121 Q1955.36 26.1121 1960.9 32.4315 Q1966.45 38.7509 1966.45 49.9314 Q1966.45 61.0714 1960.9 67.4314 Q1955.36 73.7508 1945.63 73.7508 Q1935.87 73.7508 1930.32 67.4314 Q1924.81 61.0714 1924.81 49.9314 Q1924.81 38.7509 1930.32 32.4315 Q1935.87 26.1121 1945.63 26.1121 Z" fill="#000000" fill-rule="evenodd" fill-opacity="1" /><path clip-path="url(#clip400)" d="M2008.67 49.3643 Q2008.67 41.2625 2005.3 36.8065 Q2001.98 32.3505 1995.95 32.3505 Q1989.95 32.3505 1986.59 36.8065 Q1983.27 41.2625 1983.27 49.3643 Q1983.27 57.4256 1986.59 61.8816 Q1989.95 66.3376 1995.95 66.3376 Q2001.98 66.3376 2005.3 61.8816 Q2008.67 57.4256 2008.67 49.3643 M2016.12 66.9452 Q2016.12 78.5308 2010.97 84.1616 Q2005.83 89.8329 1995.22 89.8329 Q1991.29 89.8329 1987.8 89.2252 Q1984.32 88.6581 1981.04 87.4428 L1981.04 80.1917 Q1984.32 81.9741 1987.52 82.8248 Q1990.72 83.6755 1994.04 83.6755 Q2001.37 83.6755 2005.02 79.8271 Q2008.67 76.0193 2008.67 68.282 L2008.67 64.5957 Q2006.36 68.6061 2002.75 70.5911 Q1999.15 72.576 1994.12 72.576 Q1985.78 72.576 1980.67 66.2161 Q1975.57 59.8562 1975.57 49.3643 Q1975.57 38.832 1980.67 32.472 Q1985.78 26.1121 1994.12 26.1121 Q1999.15 26.1121 2002.75 28.0971 Q2006.36 30.082 2008.67 34.0924 L2008.67 27.2059 L2016.12 27.2059 L2016.12 66.9452 Z" fill="#000000" fill-rule="evenodd" fill-opacity="1" /><path clip-path="url(#clip400)" d="M2049.38 9.62495 Q2043.95 18.942 2041.32 28.0566 Q2038.68 37.1711 2038.68 46.5287 Q2038.68 55.8863 2041.32 65.0818 Q2043.99 74.2369 2049.38 83.5134 L2042.9 83.5134 Q2036.82 73.9938 2033.78 64.7983 Q2030.78 55.6027 2030.78 46.5287 Q2030.78 37.4952 2033.78 28.3401 Q2036.78 19.1851 2042.9 9.62495 L2049.38 9.62495 Z" fill="#000000" fill-rule="evenodd" fill-opacity="1" /><path clip-path="url(#clip400)" d="M2096.41 49.9314 Q2096.41 41.7081 2093 37.0496 Q2089.64 32.3505 2083.73 32.3505 Q2077.81 32.3505 2074.41 37.0496 Q2071.05 41.7081 2071.05 49.9314 Q2071.05 58.1548 2074.41 62.8538 Q2077.81 67.5124 2083.73 67.5124 Q2089.64 67.5124 2093 62.8538 Q2096.41 58.1548 2096.41 49.9314 M2071.05 34.0924 Q2073.4 30.0415 2076.96 28.0971 Q2080.57 26.1121 2085.55 26.1121 Q2093.82 26.1121 2098.96 32.6746 Q2104.14 39.2371 2104.14 49.9314 Q2104.14 60.6258 2098.96 67.1883 Q2093.82 73.7508 2085.55 73.7508 Q2080.57 73.7508 2076.96 71.8063 Q2073.4 69.8214 2071.05 65.7705 L2071.05 72.576 L2063.55 72.576 L2063.55 9.54393 L2071.05 9.54393 L2071.05 34.0924 Z" fill="#000000" fill-rule="evenodd" fill-opacity="1" /><path clip-path="url(#clip400)" d="M2134.08 32.4315 Q2128.09 32.4315 2124.6 37.1306 Q2121.12 41.7891 2121.12 49.9314 Q2121.12 58.0738 2124.56 62.7728 Q2128.05 67.4314 2134.08 67.4314 Q2140.04 67.4314 2143.52 62.7323 Q2147 58.0333 2147 49.9314 Q2147 41.8701 2143.52 37.1711 Q2140.04 32.4315 2134.08 32.4315 M2134.08 26.1121 Q2143.8 26.1121 2149.35 32.4315 Q2154.9 38.7509 2154.9 49.9314 Q2154.9 61.0714 2149.35 67.4314 Q2143.8 73.7508 2134.08 73.7508 Q2124.32 73.7508 2118.77 67.4314 Q2113.26 61.0714 2113.26 49.9314 Q2113.26 38.7509 2118.77 32.4315 Q2124.32 26.1121 2134.08 26.1121 Z" fill="#000000" fill-rule="evenodd" fill-opacity="1" /><path clip-path="url(#clip400)" d="M2197.11 34.0924 L2197.11 9.54393 L2204.57 9.54393 L2204.57 72.576 L2197.11 72.576 L2197.11 65.7705 Q2194.76 69.8214 2191.16 71.8063 Q2187.59 73.7508 2182.57 73.7508 Q2174.35 73.7508 2169.16 67.1883 Q2164.02 60.6258 2164.02 49.9314 Q2164.02 39.2371 2169.16 32.6746 Q2174.35 26.1121 2182.57 26.1121 Q2187.59 26.1121 2191.16 28.0971 Q2194.76 30.0415 2197.11 34.0924 M2171.71 49.9314 Q2171.71 58.1548 2175.08 62.8538 Q2178.48 67.5124 2184.39 67.5124 Q2190.31 67.5124 2193.71 62.8538 Q2197.11 58.1548 2197.11 49.9314 Q2197.11 41.7081 2193.71 37.0496 Q2190.31 32.3505 2184.39 32.3505 Q2178.48 32.3505 2175.08 37.0496 Q2171.71 41.7081 2171.71 49.9314 Z" fill="#000000" fill-rule="evenodd" fill-opacity="1" /><path clip-path="url(#clip400)" d="M2238.8 76.7889 Q2235.64 84.8907 2232.64 87.3618 Q2229.64 89.8329 2224.62 89.8329 L2218.66 89.8329 L2218.66 83.5945 L2223.04 83.5945 Q2226.12 83.5945 2227.82 82.1361 Q2229.52 80.6778 2231.59 75.2496 L2232.92 71.8468 L2214.57 27.2059 L2222.47 27.2059 L2236.65 62.6918 L2250.83 27.2059 L2258.73 27.2059 L2238.8 76.7889 Z" fill="#000000" fill-rule="evenodd" fill-opacity="1" /><path clip-path="url(#clip400)" d="M2267.84 9.62495 L2274.32 9.62495 Q2280.4 19.1851 2283.4 28.3401 Q2286.44 37.4952 2286.44 46.5287 Q2286.44 55.6027 2283.4 64.7983 Q2280.4 73.9938 2274.32 83.5134 L2267.84 83.5134 Q2273.23 74.2369 2275.86 65.0818 Q2278.54 55.8863 2278.54 46.5287 Q2278.54 37.1711 2275.86 28.0566 Q2273.23 18.942 2267.84 9.62495 Z" fill="#000000" fill-rule="evenodd" fill-opacity="1" /><circle clip-path="url(#clip403)" cx="1621.09" cy="949.782" r="14.4" fill="#009af9" fill-rule="evenodd" fill-opacity="1" stroke="#000000" stroke-opacity="1" stroke-width="3.072"/>
<circle clip-path="url(#clip403)" cx="1943.22" cy="472.316" r="14.4" fill="#009af9" fill-rule="evenodd" fill-opacity="1" stroke="#000000" stroke-opacity="1" stroke-width="3.072"/>
<circle clip-path="url(#clip403)" cx="1802.65" cy="624.899" r="14.4" fill="#009af9" fill-rule="evenodd" fill-opacity="1" stroke="#000000" stroke-opacity="1" stroke-width="3.072"/>
<circle clip-path="url(#clip403)" cx="1787.61" cy="629.532" r="14.4" fill="#009af9" fill-rule="evenodd" fill-opacity="1" stroke="#000000" stroke-opacity="1" stroke-width="3.072"/>
<circle clip-path="url(#clip403)" cx="1606.71" cy="996.51" r="14.4" fill="#009af9" fill-rule="evenodd" fill-opacity="1" stroke="#000000" stroke-opacity="1" stroke-width="3.072"/>
<circle clip-path="url(#clip403)" cx="2121.07" cy="730.072" r="14.4" fill="#009af9" fill-rule="evenodd" fill-opacity="1" stroke="#000000" stroke-opacity="1" stroke-width="3.072"/>
<circle clip-path="url(#clip403)" cx="2037" cy="184.172" r="14.4" fill="#009af9" fill-rule="evenodd" fill-opacity="1" stroke="#000000" stroke-opacity="1" stroke-width="3.072"/>
<circle clip-path="url(#clip403)" cx="1893.02" cy="473.462" r="14.4" fill="#009af9" fill-rule="evenodd" fill-opacity="1" stroke="#000000" stroke-opacity="1" stroke-width="3.072"/>
<circle clip-path="url(#clip403)" cx="1949.49" cy="419.534" r="14.4" fill="#009af9" fill-rule="evenodd" fill-opacity="1" stroke="#000000" stroke-opacity="1" stroke-width="3.072"/>
<circle clip-path="url(#clip403)" cx="1731.51" cy="629.532" r="14.4" fill="#009af9" fill-rule="evenodd" fill-opacity="1" stroke="#000000" stroke-opacity="1" stroke-width="3.072"/>
<circle clip-path="url(#clip403)" cx="1670.38" cy="810.878" r="14.4" fill="#009af9" fill-rule="evenodd" fill-opacity="1" stroke="#000000" stroke-opacity="1" stroke-width="3.072"/>
<circle clip-path="url(#clip403)" cx="1950.33" cy="415.012" r="14.4" fill="#009af9" fill-rule="evenodd" fill-opacity="1" stroke="#000000" stroke-opacity="1" stroke-width="3.072"/>
<circle clip-path="url(#clip403)" cx="1898.6" cy="477.267" r="14.4" fill="#009af9" fill-rule="evenodd" fill-opacity="1" stroke="#000000" stroke-opacity="1" stroke-width="3.072"/>
<circle clip-path="url(#clip403)" cx="1832.12" cy="334.947" r="14.4" fill="#009af9" fill-rule="evenodd" fill-opacity="1" stroke="#000000" stroke-opacity="1" stroke-width="3.072"/>
<circle clip-path="url(#clip403)" cx="2089.95" cy="158.115" r="14.4" fill="#009af9" fill-rule="evenodd" fill-opacity="1" stroke="#000000" stroke-opacity="1" stroke-width="3.072"/>
<circle clip-path="url(#clip403)" cx="2109" cy="689.456" r="14.4" fill="#009af9" fill-rule="evenodd" fill-opacity="1" stroke="#000000" stroke-opacity="1" stroke-width="3.072"/>
<circle clip-path="url(#clip403)" cx="1710.25" cy="576.124" r="14.4" fill="#009af9" fill-rule="evenodd" fill-opacity="1" stroke="#000000" stroke-opacity="1" stroke-width="3.072"/>
<circle clip-path="url(#clip403)" cx="1800.59" cy="716.392" r="14.4" fill="#009af9" fill-rule="evenodd" fill-opacity="1" stroke="#000000" stroke-opacity="1" stroke-width="3.072"/>
<circle clip-path="url(#clip403)" cx="1487.63" cy="1202.29" r="14.4" fill="#009af9" fill-rule="evenodd" fill-opacity="1" stroke="#000000" stroke-opacity="1" stroke-width="3.072"/>
<circle clip-path="url(#clip403)" cx="1396.54" cy="1312.89" r="14.4" fill="#009af9" fill-rule="evenodd" fill-opacity="1" stroke="#000000" stroke-opacity="1" stroke-width="3.072"/>
<circle clip-path="url(#clip403)" cx="1655.07" cy="901.336" r="14.4" fill="#009af9" fill-rule="evenodd" fill-opacity="1" stroke="#000000" stroke-opacity="1" stroke-width="3.072"/>
<circle clip-path="url(#clip403)" cx="1826.01" cy="578.852" r="14.4" fill="#009af9" fill-rule="evenodd" fill-opacity="1" stroke="#000000" stroke-opacity="1" stroke-width="3.072"/>
<circle clip-path="url(#clip403)" cx="1858.48" cy="591.954" r="14.4" fill="#009af9" fill-rule="evenodd" fill-opacity="1" stroke="#000000" stroke-opacity="1" stroke-width="3.072"/>
<circle clip-path="url(#clip403)" cx="1822.59" cy="467.559" r="14.4" fill="#009af9" fill-rule="evenodd" fill-opacity="1" stroke="#000000" stroke-opacity="1" stroke-width="3.072"/>
<circle clip-path="url(#clip403)" cx="1534.35" cy="1124.81" r="14.4" fill="#009af9" fill-rule="evenodd" fill-opacity="1" stroke="#000000" stroke-opacity="1" stroke-width="3.072"/>
<circle clip-path="url(#clip403)" cx="2231.7" cy="593.891" r="14.4" fill="#009af9" fill-rule="evenodd" fill-opacity="1" stroke="#000000" stroke-opacity="1" stroke-width="3.072"/>
<circle clip-path="url(#clip403)" cx="1488.54" cy="1069.68" r="14.4" fill="#009af9" fill-rule="evenodd" fill-opacity="1" stroke="#000000" stroke-opacity="1" stroke-width="3.072"/>
<circle clip-path="url(#clip403)" cx="1894.45" cy="575.451" r="14.4" fill="#009af9" fill-rule="evenodd" fill-opacity="1" stroke="#000000" stroke-opacity="1" stroke-width="3.072"/>
</svg>
