<?xml version="1.0" encoding="utf-8"?>
<svg xmlns="http://www.w3.org/2000/svg" xmlns:xlink="http://www.w3.org/1999/xlink" width="672" height="480" viewBox="0 0 2688 1920">
<defs>
  <clipPath id="clip790">
    <rect x="0" y="0" width="2688" height="1920"/>
  </clipPath>
</defs>
<path clip-path="url(#clip790)" d="
M0 1920 L2688 1920 L2688 0 L0 0  Z
  " fill="#ffffff" fill-rule="evenodd" fill-opacity="1"/>
<defs>
  <clipPath id="clip791">
    <rect x="537" y="0" width="1883" height="1883"/>
  </clipPath>
</defs>
<path clip-path="url(#clip790)" d="
M158.645 1800.78 L2640.76 1800.78 L2640.76 47.2441 L158.645 47.2441  Z
  " fill="#ffffff" fill-rule="evenodd" fill-opacity="1"/>
<defs>
  <clipPath id="clip792">
    <rect x="158" y="47" width="2483" height="1755"/>
  </clipPath>
</defs>
<polyline clip-path="url(#clip792)" style="stroke:#000000; stroke-linecap:round; stroke-linejoin:round; stroke-width:2; stroke-opacity:0.1; fill:none" points="
  512.538,1800.78 512.538,47.2441 
  "/>
<polyline clip-path="url(#clip792)" style="stroke:#000000; stroke-linecap:round; stroke-linejoin:round; stroke-width:2; stroke-opacity:0.1; fill:none" points="
  1372.29,1800.78 1372.29,47.2441 
  "/>
<polyline clip-path="url(#clip792)" style="stroke:#000000; stroke-linecap:round; stroke-linejoin:round; stroke-width:2; stroke-opacity:0.1; fill:none" points="
  2232.04,1800.78 2232.04,47.2441 
  "/>
<polyline clip-path="url(#clip790)" style="stroke:#000000; stroke-linecap:round; stroke-linejoin:round; stroke-width:4; stroke-opacity:1; fill:none" points="
  158.645,1800.78 2640.76,1800.78 
  "/>
<polyline clip-path="url(#clip790)" style="stroke:#000000; stroke-linecap:round; stroke-linejoin:round; stroke-width:4; stroke-opacity:1; fill:none" points="
  512.538,1800.78 512.538,1781.88 
  "/>
<polyline clip-path="url(#clip790)" style="stroke:#000000; stroke-linecap:round; stroke-linejoin:round; stroke-width:4; stroke-opacity:1; fill:none" points="
  1372.29,1800.78 1372.29,1781.88 
  "/>
<polyline clip-path="url(#clip790)" style="stroke:#000000; stroke-linecap:round; stroke-linejoin:round; stroke-width:4; stroke-opacity:1; fill:none" points="
  2232.04,1800.78 2232.04,1781.88 
  "/>
<path clip-path="url(#clip790)" d="M456.798 1840.32 L456.798 1844.35 Q454.992 1843.42 453.048 1842.96 Q451.103 1842.5 449.02 1842.5 Q445.849 1842.5 444.251 1843.47 Q442.677 1844.44 442.677 1846.39 Q442.677 1847.87 443.812 1848.72 Q444.946 1849.56 448.372 1850.32 L449.83 1850.65 Q454.367 1851.62 456.265 1853.4 Q458.187 1855.16 458.187 1858.33 Q458.187 1861.94 455.316 1864.05 Q452.469 1866.15 447.469 1866.15 Q445.386 1866.15 443.117 1865.74 Q440.872 1865.34 438.372 1864.53 L438.372 1860.14 Q440.733 1861.36 443.025 1861.99 Q445.316 1862.59 447.562 1862.59 Q450.571 1862.59 452.191 1861.57 Q453.812 1860.53 453.812 1858.65 Q453.812 1856.92 452.631 1855.99 Q451.474 1855.07 447.515 1854.21 L446.034 1853.86 Q442.075 1853.03 440.316 1851.32 Q438.557 1849.58 438.557 1846.57 Q438.557 1842.91 441.15 1840.92 Q443.742 1838.93 448.511 1838.93 Q450.872 1838.93 452.955 1839.28 Q455.038 1839.63 456.798 1840.32 Z" fill="#000000" fill-rule="evenodd" fill-opacity="1" /><path clip-path="url(#clip790)" d="M487.145 1851.46 L487.145 1853.54 L467.561 1853.54 Q467.839 1857.94 470.2 1860.25 Q472.585 1862.54 476.821 1862.54 Q479.274 1862.54 481.566 1861.94 Q483.881 1861.34 486.149 1860.14 L486.149 1864.16 Q483.858 1865.14 481.45 1865.65 Q479.043 1866.15 476.566 1866.15 Q470.362 1866.15 466.728 1862.54 Q463.117 1858.93 463.117 1852.78 Q463.117 1846.41 466.543 1842.68 Q469.992 1838.93 475.825 1838.93 Q481.057 1838.93 484.089 1842.31 Q487.145 1845.67 487.145 1851.46 M482.885 1850.21 Q482.839 1846.71 480.918 1844.63 Q479.02 1842.54 475.872 1842.54 Q472.307 1842.54 470.154 1844.56 Q468.024 1846.57 467.7 1850.23 L482.885 1850.21 Z" fill="#000000" fill-rule="evenodd" fill-opacity="1" /><path clip-path="url(#clip790)" d="M498.348 1832.2 L498.348 1839.56 L507.121 1839.56 L507.121 1842.87 L498.348 1842.87 L498.348 1856.94 Q498.348 1860.11 499.205 1861.02 Q500.084 1861.92 502.746 1861.92 L507.121 1861.92 L507.121 1865.48 L502.746 1865.48 Q497.816 1865.48 495.941 1863.65 Q494.066 1861.8 494.066 1856.94 L494.066 1842.87 L490.941 1842.87 L490.941 1839.56 L494.066 1839.56 L494.066 1832.2 L498.348 1832.2 Z" fill="#000000" fill-rule="evenodd" fill-opacity="1" /><path clip-path="url(#clip790)" d="M522.769 1842.54 Q519.344 1842.54 517.353 1845.23 Q515.362 1847.89 515.362 1852.54 Q515.362 1857.2 517.33 1859.88 Q519.32 1862.54 522.769 1862.54 Q526.172 1862.54 528.163 1859.86 Q530.154 1857.17 530.154 1852.54 Q530.154 1847.94 528.163 1845.25 Q526.172 1842.54 522.769 1842.54 M522.769 1838.93 Q528.325 1838.93 531.496 1842.54 Q534.668 1846.15 534.668 1852.54 Q534.668 1858.91 531.496 1862.54 Q528.325 1866.15 522.769 1866.15 Q517.191 1866.15 514.02 1862.54 Q510.871 1858.91 510.871 1852.54 Q510.871 1846.15 514.02 1842.54 Q517.191 1838.93 522.769 1838.93 Z" fill="#000000" fill-rule="evenodd" fill-opacity="1" /><path clip-path="url(#clip790)" d="M558.255 1840.32 L558.255 1844.35 Q556.45 1843.42 554.505 1842.96 Q552.561 1842.5 550.478 1842.5 Q547.306 1842.5 545.709 1843.47 Q544.135 1844.44 544.135 1846.39 Q544.135 1847.87 545.269 1848.72 Q546.404 1849.56 549.83 1850.32 L551.288 1850.65 Q555.825 1851.62 557.723 1853.4 Q559.644 1855.16 559.644 1858.33 Q559.644 1861.94 556.774 1864.05 Q553.927 1866.15 548.927 1866.15 Q546.843 1866.15 544.575 1865.74 Q542.33 1865.34 539.83 1864.53 L539.83 1860.14 Q542.191 1861.36 544.482 1861.99 Q546.774 1862.59 549.019 1862.59 Q552.029 1862.59 553.649 1861.57 Q555.269 1860.53 555.269 1858.65 Q555.269 1856.92 554.089 1855.99 Q552.931 1855.07 548.973 1854.21 L547.492 1853.86 Q543.533 1853.03 541.774 1851.32 Q540.015 1849.58 540.015 1846.57 Q540.015 1842.91 542.607 1840.92 Q545.2 1838.93 549.968 1838.93 Q552.33 1838.93 554.413 1839.28 Q556.496 1839.63 558.255 1840.32 Z" fill="#000000" fill-rule="evenodd" fill-opacity="1" /><path clip-path="url(#clip790)" d="M578.209 1852.45 Q573.047 1852.45 571.056 1853.63 Q569.066 1854.81 569.066 1857.66 Q569.066 1859.93 570.547 1861.27 Q572.052 1862.59 574.621 1862.59 Q578.163 1862.59 580.292 1860.09 Q582.445 1857.57 582.445 1853.4 L582.445 1852.45 L578.209 1852.45 M586.704 1850.69 L586.704 1865.48 L582.445 1865.48 L582.445 1861.55 Q580.987 1863.91 578.811 1865.04 Q576.635 1866.15 573.487 1866.15 Q569.505 1866.15 567.144 1863.93 Q564.806 1861.69 564.806 1857.94 Q564.806 1853.56 567.723 1851.34 Q570.663 1849.12 576.473 1849.12 L582.445 1849.12 L582.445 1848.7 Q582.445 1845.76 580.501 1844.16 Q578.579 1842.54 575.084 1842.54 Q572.862 1842.54 570.755 1843.08 Q568.649 1843.61 566.704 1844.67 L566.704 1840.74 Q569.042 1839.84 571.241 1839.4 Q573.441 1838.93 575.524 1838.93 Q581.149 1838.93 583.927 1841.85 Q586.704 1844.77 586.704 1850.69 Z" fill="#000000" fill-rule="evenodd" fill-opacity="1" /><path clip-path="url(#clip790)" d="M1257.34 1839.56 L1261.85 1839.56 L1269.95 1861.32 L1278.05 1839.56 L1282.57 1839.56 L1272.85 1865.48 L1267.06 1865.48 L1257.34 1839.56 Z" fill="#000000" fill-rule="evenodd" fill-opacity="1" /><path clip-path="url(#clip790)" d="M1310.62 1851.46 L1310.62 1853.54 L1291.04 1853.54 Q1291.32 1857.94 1293.68 1860.25 Q1296.06 1862.54 1300.3 1862.54 Q1302.75 1862.54 1305.05 1861.94 Q1307.36 1861.34 1309.63 1860.14 L1309.63 1864.16 Q1307.34 1865.14 1304.93 1865.65 Q1302.52 1866.15 1300.05 1866.15 Q1293.84 1866.15 1290.21 1862.54 Q1286.6 1858.93 1286.6 1852.78 Q1286.6 1846.41 1290.02 1842.68 Q1293.47 1838.93 1299.3 1838.93 Q1304.54 1838.93 1307.57 1842.31 Q1310.62 1845.67 1310.62 1851.46 M1306.36 1850.21 Q1306.32 1846.71 1304.4 1844.63 Q1302.5 1842.54 1299.35 1842.54 Q1295.79 1842.54 1293.63 1844.56 Q1291.5 1846.57 1291.18 1850.23 L1306.36 1850.21 Z" fill="#000000" fill-rule="evenodd" fill-opacity="1" /><path clip-path="url(#clip790)" d="M1332.64 1843.54 Q1331.92 1843.12 1331.06 1842.94 Q1330.23 1842.73 1329.21 1842.73 Q1325.6 1842.73 1323.66 1845.09 Q1321.73 1847.43 1321.73 1851.83 L1321.73 1865.48 L1317.45 1865.48 L1317.45 1839.56 L1321.73 1839.56 L1321.73 1843.59 Q1323.08 1841.22 1325.23 1840.09 Q1327.38 1838.93 1330.46 1838.93 Q1330.9 1838.93 1331.43 1839 Q1331.97 1839.05 1332.61 1839.16 L1332.64 1843.54 Z" fill="#000000" fill-rule="evenodd" fill-opacity="1" /><path clip-path="url(#clip790)" d="M1353.63 1840.32 L1353.63 1844.35 Q1351.83 1843.42 1349.88 1842.96 Q1347.94 1842.5 1345.86 1842.5 Q1342.68 1842.5 1341.09 1843.47 Q1339.51 1844.44 1339.51 1846.39 Q1339.51 1847.87 1340.65 1848.72 Q1341.78 1849.56 1345.21 1850.32 L1346.67 1850.65 Q1351.2 1851.62 1353.1 1853.4 Q1355.02 1855.16 1355.02 1858.33 Q1355.02 1861.94 1352.15 1864.05 Q1349.3 1866.15 1344.3 1866.15 Q1342.22 1866.15 1339.95 1865.74 Q1337.71 1865.34 1335.21 1864.53 L1335.21 1860.14 Q1337.57 1861.36 1339.86 1861.99 Q1342.15 1862.59 1344.4 1862.59 Q1347.41 1862.59 1349.03 1861.57 Q1350.65 1860.53 1350.65 1858.65 Q1350.65 1856.92 1349.47 1855.99 Q1348.31 1855.07 1344.35 1854.21 L1342.87 1853.86 Q1338.91 1853.03 1337.15 1851.32 Q1335.39 1849.58 1335.39 1846.57 Q1335.39 1842.91 1337.98 1840.92 Q1340.58 1838.93 1345.35 1838.93 Q1347.71 1838.93 1349.79 1839.28 Q1351.87 1839.63 1353.63 1840.32 Z" fill="#000000" fill-rule="evenodd" fill-opacity="1" /><path clip-path="url(#clip790)" d="M1361.8 1839.56 L1366.06 1839.56 L1366.06 1865.48 L1361.8 1865.48 L1361.8 1839.56 M1361.8 1829.46 L1366.06 1829.46 L1366.06 1834.86 L1361.8 1834.86 L1361.8 1829.46 Z" fill="#000000" fill-rule="evenodd" fill-opacity="1" /><path clip-path="url(#clip790)" d="M1393.63 1840.55 L1393.63 1844.53 Q1391.83 1843.54 1390 1843.05 Q1388.19 1842.54 1386.34 1842.54 Q1382.2 1842.54 1379.91 1845.18 Q1377.61 1847.8 1377.61 1852.54 Q1377.61 1857.29 1379.91 1859.93 Q1382.2 1862.54 1386.34 1862.54 Q1388.19 1862.54 1390 1862.06 Q1391.83 1861.55 1393.63 1860.55 L1393.63 1864.49 Q1391.85 1865.32 1389.93 1865.74 Q1388.03 1866.15 1385.88 1866.15 Q1380.02 1866.15 1376.57 1862.47 Q1373.12 1858.79 1373.12 1852.54 Q1373.12 1846.2 1376.6 1842.57 Q1380.09 1838.93 1386.16 1838.93 Q1388.12 1838.93 1390 1839.35 Q1391.87 1839.74 1393.63 1840.55 Z" fill="#000000" fill-rule="evenodd" fill-opacity="1" /><path clip-path="url(#clip790)" d="M1411.09 1842.54 Q1407.66 1842.54 1405.67 1845.23 Q1403.68 1847.89 1403.68 1852.54 Q1403.68 1857.2 1405.65 1859.88 Q1407.64 1862.54 1411.09 1862.54 Q1414.49 1862.54 1416.48 1859.86 Q1418.47 1857.17 1418.47 1852.54 Q1418.47 1847.94 1416.48 1845.25 Q1414.49 1842.54 1411.09 1842.54 M1411.09 1838.93 Q1416.64 1838.93 1419.81 1842.54 Q1422.98 1846.15 1422.98 1852.54 Q1422.98 1858.91 1419.81 1862.54 Q1416.64 1866.15 1411.09 1866.15 Q1405.51 1866.15 1402.34 1862.54 Q1399.19 1858.91 1399.19 1852.54 Q1399.19 1846.15 1402.34 1842.54 Q1405.51 1838.93 1411.09 1838.93 Z" fill="#000000" fill-rule="evenodd" fill-opacity="1" /><path clip-path="url(#clip790)" d="M1430.04 1829.46 L1434.3 1829.46 L1434.3 1865.48 L1430.04 1865.48 L1430.04 1829.46 Z" fill="#000000" fill-rule="evenodd" fill-opacity="1" /><path clip-path="url(#clip790)" d="M1453.26 1842.54 Q1449.84 1842.54 1447.85 1845.23 Q1445.85 1847.89 1445.85 1852.54 Q1445.85 1857.2 1447.82 1859.88 Q1449.81 1862.54 1453.26 1862.54 Q1456.66 1862.54 1458.66 1859.86 Q1460.65 1857.17 1460.65 1852.54 Q1460.65 1847.94 1458.66 1845.25 Q1456.66 1842.54 1453.26 1842.54 M1453.26 1838.93 Q1458.82 1838.93 1461.99 1842.54 Q1465.16 1846.15 1465.16 1852.54 Q1465.16 1858.91 1461.99 1862.54 Q1458.82 1866.15 1453.26 1866.15 Q1447.68 1866.15 1444.51 1862.54 Q1441.36 1858.91 1441.36 1852.54 Q1441.36 1846.15 1444.51 1842.54 Q1447.68 1838.93 1453.26 1838.93 Z" fill="#000000" fill-rule="evenodd" fill-opacity="1" /><path clip-path="url(#clip790)" d="M1487.24 1843.54 Q1486.53 1843.12 1485.67 1842.94 Q1484.84 1842.73 1483.82 1842.73 Q1480.21 1842.73 1478.26 1845.09 Q1476.34 1847.43 1476.34 1851.83 L1476.34 1865.48 L1472.06 1865.48 L1472.06 1839.56 L1476.34 1839.56 L1476.34 1843.59 Q1477.68 1841.22 1479.84 1840.09 Q1481.99 1838.93 1485.07 1838.93 Q1485.51 1838.93 1486.04 1839 Q1486.57 1839.05 1487.22 1839.16 L1487.24 1843.54 Z" fill="#000000" fill-rule="evenodd" fill-opacity="1" /><path clip-path="url(#clip790)" d="M2134.16 1839.56 L2138.67 1839.56 L2146.78 1861.32 L2154.88 1839.56 L2159.39 1839.56 L2149.67 1865.48 L2143.88 1865.48 L2134.16 1839.56 Z" fill="#000000" fill-rule="evenodd" fill-opacity="1" /><path clip-path="url(#clip790)" d="M2165.27 1839.56 L2169.53 1839.56 L2169.53 1865.48 L2165.27 1865.48 L2165.27 1839.56 M2165.27 1829.46 L2169.53 1829.46 L2169.53 1834.86 L2165.27 1834.86 L2165.27 1829.46 Z" fill="#000000" fill-rule="evenodd" fill-opacity="1" /><path clip-path="url(#clip790)" d="M2193.47 1843.54 Q2192.75 1843.12 2191.89 1842.94 Q2191.06 1842.73 2190.04 1842.73 Q2186.43 1842.73 2184.48 1845.09 Q2182.56 1847.43 2182.56 1851.83 L2182.56 1865.48 L2178.28 1865.48 L2178.28 1839.56 L2182.56 1839.56 L2182.56 1843.59 Q2183.91 1841.22 2186.06 1840.09 Q2188.21 1838.93 2191.29 1838.93 Q2191.73 1838.93 2192.26 1839 Q2192.79 1839.05 2193.44 1839.16 L2193.47 1843.54 Z" fill="#000000" fill-rule="evenodd" fill-opacity="1" /><path clip-path="url(#clip790)" d="M2214.16 1852.22 Q2214.16 1847.59 2212.24 1845.04 Q2210.34 1842.5 2206.89 1842.5 Q2203.47 1842.5 2201.54 1845.04 Q2199.65 1847.59 2199.65 1852.22 Q2199.65 1856.83 2201.54 1859.37 Q2203.47 1861.92 2206.89 1861.92 Q2210.34 1861.92 2212.24 1859.37 Q2214.16 1856.83 2214.16 1852.22 M2218.42 1862.27 Q2218.42 1868.89 2215.48 1872.1 Q2212.54 1875.34 2206.48 1875.34 Q2204.23 1875.34 2202.24 1875 Q2200.25 1874.67 2198.37 1873.98 L2198.37 1869.84 Q2200.25 1870.85 2202.08 1871.34 Q2203.91 1871.83 2205.8 1871.83 Q2209.99 1871.83 2212.08 1869.63 Q2214.16 1867.45 2214.16 1863.03 L2214.16 1860.92 Q2212.84 1863.21 2210.78 1864.35 Q2208.72 1865.48 2205.85 1865.48 Q2201.08 1865.48 2198.16 1861.85 Q2195.25 1858.21 2195.25 1852.22 Q2195.25 1846.2 2198.16 1842.57 Q2201.08 1838.93 2205.85 1838.93 Q2208.72 1838.93 2210.78 1840.07 Q2212.84 1841.2 2214.16 1843.49 L2214.16 1839.56 L2218.42 1839.56 L2218.42 1862.27 Z" fill="#000000" fill-rule="evenodd" fill-opacity="1" /><path clip-path="url(#clip790)" d="M2227.19 1839.56 L2231.45 1839.56 L2231.45 1865.48 L2227.19 1865.48 L2227.19 1839.56 M2227.19 1829.46 L2231.45 1829.46 L2231.45 1834.86 L2227.19 1834.86 L2227.19 1829.46 Z" fill="#000000" fill-rule="evenodd" fill-opacity="1" /><path clip-path="url(#clip790)" d="M2261.91 1849.84 L2261.91 1865.48 L2257.66 1865.48 L2257.66 1849.97 Q2257.66 1846.29 2256.22 1844.46 Q2254.79 1842.64 2251.91 1842.64 Q2248.47 1842.64 2246.47 1844.84 Q2244.48 1847.03 2244.48 1850.83 L2244.48 1865.48 L2240.2 1865.48 L2240.2 1839.56 L2244.48 1839.56 L2244.48 1843.59 Q2246.01 1841.25 2248.07 1840.09 Q2250.16 1838.93 2252.86 1838.93 Q2257.33 1838.93 2259.62 1841.71 Q2261.91 1844.46 2261.91 1849.84 Z" fill="#000000" fill-rule="evenodd" fill-opacity="1" /><path clip-path="url(#clip790)" d="M2270.41 1839.56 L2274.67 1839.56 L2274.67 1865.48 L2270.41 1865.48 L2270.41 1839.56 M2270.41 1829.46 L2274.67 1829.46 L2274.67 1834.86 L2270.41 1834.86 L2270.41 1829.46 Z" fill="#000000" fill-rule="evenodd" fill-opacity="1" /><path clip-path="url(#clip790)" d="M2302.24 1840.55 L2302.24 1844.53 Q2300.43 1843.54 2298.6 1843.05 Q2296.8 1842.54 2294.95 1842.54 Q2290.8 1842.54 2288.51 1845.18 Q2286.22 1847.8 2286.22 1852.54 Q2286.22 1857.29 2288.51 1859.93 Q2290.8 1862.54 2294.95 1862.54 Q2296.8 1862.54 2298.6 1862.06 Q2300.43 1861.55 2302.24 1860.55 L2302.24 1864.49 Q2300.46 1865.32 2298.53 1865.74 Q2296.64 1866.15 2294.48 1866.15 Q2288.63 1866.15 2285.18 1862.47 Q2281.73 1858.79 2281.73 1852.54 Q2281.73 1846.2 2285.2 1842.57 Q2288.7 1838.93 2294.76 1838.93 Q2296.73 1838.93 2298.6 1839.35 Q2300.48 1839.74 2302.24 1840.55 Z" fill="#000000" fill-rule="evenodd" fill-opacity="1" /><path clip-path="url(#clip790)" d="M2321.43 1852.45 Q2316.27 1852.45 2314.28 1853.63 Q2312.28 1854.81 2312.28 1857.66 Q2312.28 1859.93 2313.77 1861.27 Q2315.27 1862.59 2317.84 1862.59 Q2321.38 1862.59 2323.51 1860.09 Q2325.66 1857.57 2325.66 1853.4 L2325.66 1852.45 L2321.43 1852.45 M2329.92 1850.69 L2329.92 1865.48 L2325.66 1865.48 L2325.66 1861.55 Q2324.21 1863.91 2322.03 1865.04 Q2319.85 1866.15 2316.71 1866.15 Q2312.72 1866.15 2310.36 1863.93 Q2308.03 1861.69 2308.03 1857.94 Q2308.03 1853.56 2310.94 1851.34 Q2313.88 1849.12 2319.69 1849.12 L2325.66 1849.12 L2325.66 1848.7 Q2325.66 1845.76 2323.72 1844.16 Q2321.8 1842.54 2318.3 1842.54 Q2316.08 1842.54 2313.97 1843.08 Q2311.87 1843.61 2309.92 1844.67 L2309.92 1840.74 Q2312.26 1839.84 2314.46 1839.4 Q2316.66 1838.93 2318.74 1838.93 Q2324.37 1838.93 2327.15 1841.85 Q2329.92 1844.77 2329.92 1850.69 Z" fill="#000000" fill-rule="evenodd" fill-opacity="1" /><polyline clip-path="url(#clip792)" style="stroke:#000000; stroke-linecap:round; stroke-linejoin:round; stroke-width:2; stroke-opacity:0.1; fill:none" points="
  158.645,1475.44 2640.76,1475.44 
  "/>
<polyline clip-path="url(#clip792)" style="stroke:#000000; stroke-linecap:round; stroke-linejoin:round; stroke-width:2; stroke-opacity:0.1; fill:none" points="
  158.645,1130.8 2640.76,1130.8 
  "/>
<polyline clip-path="url(#clip792)" style="stroke:#000000; stroke-linecap:round; stroke-linejoin:round; stroke-width:2; stroke-opacity:0.1; fill:none" points="
  158.645,786.155 2640.76,786.155 
  "/>
<polyline clip-path="url(#clip792)" style="stroke:#000000; stroke-linecap:round; stroke-linejoin:round; stroke-width:2; stroke-opacity:0.1; fill:none" points="
  158.645,441.514 2640.76,441.514 
  "/>
<polyline clip-path="url(#clip792)" style="stroke:#000000; stroke-linecap:round; stroke-linejoin:round; stroke-width:2; stroke-opacity:0.1; fill:none" points="
  158.645,96.8724 2640.76,96.8724 
  "/>
<polyline clip-path="url(#clip790)" style="stroke:#000000; stroke-linecap:round; stroke-linejoin:round; stroke-width:4; stroke-opacity:1; fill:none" points="
  158.645,1800.78 158.645,47.2441 
  "/>
<polyline clip-path="url(#clip790)" style="stroke:#000000; stroke-linecap:round; stroke-linejoin:round; stroke-width:4; stroke-opacity:1; fill:none" points="
  158.645,1475.44 177.543,1475.44 
  "/>
<polyline clip-path="url(#clip790)" style="stroke:#000000; stroke-linecap:round; stroke-linejoin:round; stroke-width:4; stroke-opacity:1; fill:none" points="
  158.645,1130.8 177.543,1130.8 
  "/>
<polyline clip-path="url(#clip790)" style="stroke:#000000; stroke-linecap:round; stroke-linejoin:round; stroke-width:4; stroke-opacity:1; fill:none" points="
  158.645,786.155 177.543,786.155 
  "/>
<polyline clip-path="url(#clip790)" style="stroke:#000000; stroke-linecap:round; stroke-linejoin:round; stroke-width:4; stroke-opacity:1; fill:none" points="
  158.645,441.514 177.543,441.514 
  "/>
<polyline clip-path="url(#clip790)" style="stroke:#000000; stroke-linecap:round; stroke-linejoin:round; stroke-width:4; stroke-opacity:1; fill:none" points="
  158.645,96.8724 177.543,96.8724 
  "/>
<path clip-path="url(#clip790)" d="M62.1447 1461.24 Q58.5336 1461.24 56.7049 1464.8 Q54.8993 1468.34 54.8993 1475.47 Q54.8993 1482.58 56.7049 1486.14 Q58.5336 1489.69 62.1447 1489.69 Q65.7789 1489.69 67.5844 1486.14 Q69.4131 1482.58 69.4131 1475.47 Q69.4131 1468.34 67.5844 1464.8 Q65.7789 1461.24 62.1447 1461.24 M62.1447 1457.53 Q67.9548 1457.53 71.0103 1462.14 Q74.089 1466.72 74.089 1475.47 Q74.089 1484.2 71.0103 1488.81 Q67.9548 1493.39 62.1447 1493.39 Q56.3345 1493.39 53.2558 1488.81 Q50.2003 1484.2 50.2003 1475.47 Q50.2003 1466.72 53.2558 1462.14 Q56.3345 1457.53 62.1447 1457.53 Z" fill="#000000" fill-rule="evenodd" fill-opacity="1" /><path clip-path="url(#clip790)" d="M82.3066 1486.84 L87.1908 1486.84 L87.1908 1492.72 L82.3066 1492.72 L82.3066 1486.84 Z" fill="#000000" fill-rule="evenodd" fill-opacity="1" /><path clip-path="url(#clip790)" d="M97.4222 1458.16 L115.779 1458.16 L115.779 1462.09 L101.705 1462.09 L101.705 1470.57 Q102.723 1470.22 103.742 1470.06 Q104.76 1469.87 105.779 1469.87 Q111.566 1469.87 114.945 1473.04 Q118.325 1476.21 118.325 1481.63 Q118.325 1487.21 114.853 1490.31 Q111.38 1493.39 105.061 1493.39 Q102.885 1493.39 100.617 1493.02 Q98.3713 1492.65 95.9639 1491.91 L95.9639 1487.21 Q98.0472 1488.34 100.269 1488.9 Q102.492 1489.45 104.968 1489.45 Q108.973 1489.45 111.311 1487.35 Q113.649 1485.24 113.649 1481.63 Q113.649 1478.02 111.311 1475.91 Q108.973 1473.81 104.968 1473.81 Q103.094 1473.81 101.219 1474.22 Q99.3667 1474.64 97.4222 1475.52 L97.4222 1458.16 Z" fill="#000000" fill-rule="evenodd" fill-opacity="1" /><path clip-path="url(#clip790)" d="M51.9595 1144.14 L59.5984 1144.14 L59.5984 1117.78 L51.2882 1119.44 L51.2882 1115.18 L59.5521 1113.52 L64.228 1113.52 L64.228 1144.14 L71.8668 1144.14 L71.8668 1148.08 L51.9595 1148.08 L51.9595 1144.14 Z" fill="#000000" fill-rule="evenodd" fill-opacity="1" /><path clip-path="url(#clip790)" d="M81.3112 1142.2 L86.1954 1142.2 L86.1954 1148.08 L81.3112 1148.08 L81.3112 1142.2 Z" fill="#000000" fill-rule="evenodd" fill-opacity="1" /><path clip-path="url(#clip790)" d="M106.381 1116.6 Q102.769 1116.6 100.941 1120.16 Q99.1352 1123.7 99.1352 1130.83 Q99.1352 1137.94 100.941 1141.5 Q102.769 1145.04 106.381 1145.04 Q110.015 1145.04 111.82 1141.5 Q113.649 1137.94 113.649 1130.83 Q113.649 1123.7 111.82 1120.16 Q110.015 1116.6 106.381 1116.6 M106.381 1112.89 Q112.191 1112.89 115.246 1117.5 Q118.325 1122.08 118.325 1130.83 Q118.325 1139.56 115.246 1144.16 Q112.191 1148.75 106.381 1148.75 Q100.57 1148.75 97.4917 1144.16 Q94.4361 1139.56 94.4361 1130.83 Q94.4361 1122.08 97.4917 1117.5 Q100.57 1112.89 106.381 1112.89 Z" fill="#000000" fill-rule="evenodd" fill-opacity="1" /><path clip-path="url(#clip790)" d="M52.9549 799.5 L60.5937 799.5 L60.5937 773.134 L52.2836 774.801 L52.2836 770.542 L60.5474 768.875 L65.2233 768.875 L65.2233 799.5 L72.8622 799.5 L72.8622 803.435 L52.9549 803.435 L52.9549 799.5 Z" fill="#000000" fill-rule="evenodd" fill-opacity="1" /><path clip-path="url(#clip790)" d="M82.3066 797.556 L87.1908 797.556 L87.1908 803.435 L82.3066 803.435 L82.3066 797.556 Z" fill="#000000" fill-rule="evenodd" fill-opacity="1" /><path clip-path="url(#clip790)" d="M97.4222 768.875 L115.779 768.875 L115.779 772.81 L101.705 772.81 L101.705 781.282 Q102.723 780.935 103.742 780.773 Q104.76 780.588 105.779 780.588 Q111.566 780.588 114.945 783.759 Q118.325 786.931 118.325 792.347 Q118.325 797.926 114.853 801.028 Q111.38 804.106 105.061 804.106 Q102.885 804.106 100.617 803.736 Q98.3713 803.366 95.9639 802.625 L95.9639 797.926 Q98.0472 799.06 100.269 799.616 Q102.492 800.171 104.968 800.171 Q108.973 800.171 111.311 798.065 Q113.649 795.958 113.649 792.347 Q113.649 788.736 111.311 786.63 Q108.973 784.523 104.968 784.523 Q103.094 784.523 101.219 784.94 Q99.3667 785.357 97.4222 786.236 L97.4222 768.875 Z" fill="#000000" fill-rule="evenodd" fill-opacity="1" /><path clip-path="url(#clip790)" d="M55.1771 454.859 L71.4965 454.859 L71.4965 458.794 L49.5521 458.794 L49.5521 454.859 Q52.2141 452.104 56.7975 447.474 Q61.4039 442.822 62.5845 441.479 Q64.8298 438.956 65.7094 437.22 Q66.6122 435.461 66.6122 433.771 Q66.6122 431.016 64.6678 429.28 Q62.7465 427.544 59.6447 427.544 Q57.4456 427.544 54.9919 428.308 Q52.5614 429.072 49.7836 430.623 L49.7836 425.9 Q52.6077 424.766 55.0614 424.188 Q57.515 423.609 59.5521 423.609 Q64.9224 423.609 68.1168 426.294 Q71.3113 428.979 71.3113 433.47 Q71.3113 435.599 70.5011 437.521 Q69.7141 439.419 67.6076 442.011 Q67.0289 442.683 63.927 445.9 Q60.8252 449.095 55.1771 454.859 Z" fill="#000000" fill-rule="evenodd" fill-opacity="1" /><path clip-path="url(#clip790)" d="M81.3112 452.914 L86.1954 452.914 L86.1954 458.794 L81.3112 458.794 L81.3112 452.914 Z" fill="#000000" fill-rule="evenodd" fill-opacity="1" /><path clip-path="url(#clip790)" d="M106.381 427.312 Q102.769 427.312 100.941 430.877 Q99.1352 434.419 99.1352 441.549 Q99.1352 448.655 100.941 452.22 Q102.769 455.761 106.381 455.761 Q110.015 455.761 111.82 452.22 Q113.649 448.655 113.649 441.549 Q113.649 434.419 111.82 430.877 Q110.015 427.312 106.381 427.312 M106.381 423.609 Q112.191 423.609 115.246 428.215 Q118.325 432.799 118.325 441.549 Q118.325 450.275 115.246 454.882 Q112.191 459.465 106.381 459.465 Q100.57 459.465 97.4917 454.882 Q94.4361 450.275 94.4361 441.549 Q94.4361 432.799 97.4917 428.215 Q100.57 423.609 106.381 423.609 Z" fill="#000000" fill-rule="evenodd" fill-opacity="1" /><path clip-path="url(#clip790)" d="M56.1725 110.217 L72.4918 110.217 L72.4918 114.152 L50.5475 114.152 L50.5475 110.217 Q53.2095 107.463 57.7928 102.833 Q62.3993 98.1803 63.5798 96.8377 Q65.8252 94.3146 66.7048 92.5785 Q67.6076 90.8192 67.6076 89.1294 Q67.6076 86.3748 65.6632 84.6387 Q63.7419 82.9026 60.64 82.9026 Q58.441 82.9026 55.9873 83.6665 Q53.5567 84.4304 50.779 85.9813 L50.779 81.2591 Q53.603 80.1249 56.0567 79.5462 Q58.5104 78.9675 60.5474 78.9675 Q65.9178 78.9675 69.1122 81.6526 Q72.3066 84.3378 72.3066 88.8285 Q72.3066 90.9581 71.4965 92.8794 Q70.7094 94.7776 68.6029 97.3701 Q68.0242 98.0414 64.9224 101.259 Q61.8206 104.453 56.1725 110.217 Z" fill="#000000" fill-rule="evenodd" fill-opacity="1" /><path clip-path="url(#clip790)" d="M82.3066 108.273 L87.1908 108.273 L87.1908 114.152 L82.3066 114.152 L82.3066 108.273 Z" fill="#000000" fill-rule="evenodd" fill-opacity="1" /><path clip-path="url(#clip790)" d="M97.4222 79.5924 L115.779 79.5924 L115.779 83.5276 L101.705 83.5276 L101.705 91.9998 Q102.723 91.6526 103.742 91.4905 Q104.76 91.3053 105.779 91.3053 Q111.566 91.3053 114.945 94.4766 Q118.325 97.6479 118.325 103.065 Q118.325 108.643 114.853 111.745 Q111.38 114.824 105.061 114.824 Q102.885 114.824 100.617 114.453 Q98.3713 114.083 95.9639 113.342 L95.9639 108.643 Q98.0472 109.777 100.269 110.333 Q102.492 110.889 104.968 110.889 Q108.973 110.889 111.311 108.782 Q113.649 106.676 113.649 103.065 Q113.649 99.4535 111.311 97.347 Q108.973 95.2405 104.968 95.2405 Q103.094 95.2405 101.219 95.6572 Q99.3667 96.0738 97.4222 96.9535 L97.4222 79.5924 Z" fill="#000000" fill-rule="evenodd" fill-opacity="1" /><circle clip-path="url(#clip792)" cx="546.681" cy="1682.22" r="14.4" fill="#009af9" fill-rule="evenodd" fill-opacity="1" stroke="#000000" stroke-opacity="1" stroke-width="3.84"/>
<circle clip-path="url(#clip792)" cx="546.452" cy="1682.22" r="14.4" fill="#009af9" fill-rule="evenodd" fill-opacity="1" stroke="#000000" stroke-opacity="1" stroke-width="3.84"/>
<circle clip-path="url(#clip792)" cx="587.644" cy="1682.22" r="14.4" fill="#009af9" fill-rule="evenodd" fill-opacity="1" stroke="#000000" stroke-opacity="1" stroke-width="3.84"/>
<circle clip-path="url(#clip792)" cx="352.694" cy="1682.22" r="14.4" fill="#009af9" fill-rule="evenodd" fill-opacity="1" stroke="#000000" stroke-opacity="1" stroke-width="3.84"/>
<circle clip-path="url(#clip792)" cx="640.184" cy="1682.22" r="14.4" fill="#009af9" fill-rule="evenodd" fill-opacity="1" stroke="#000000" stroke-opacity="1" stroke-width="3.84"/>
<circle clip-path="url(#clip792)" cx="509.75" cy="1544.37" r="14.4" fill="#009af9" fill-rule="evenodd" fill-opacity="1" stroke="#000000" stroke-opacity="1" stroke-width="3.84"/>
<circle clip-path="url(#clip792)" cx="504.442" cy="1613.29" r="14.4" fill="#009af9" fill-rule="evenodd" fill-opacity="1" stroke="#000000" stroke-opacity="1" stroke-width="3.84"/>
<circle clip-path="url(#clip792)" cx="463.897" cy="1682.22" r="14.4" fill="#009af9" fill-rule="evenodd" fill-opacity="1" stroke="#000000" stroke-opacity="1" stroke-width="3.84"/>
<circle clip-path="url(#clip792)" cx="776.293" cy="1682.22" r="14.4" fill="#009af9" fill-rule="evenodd" fill-opacity="1" stroke="#000000" stroke-opacity="1" stroke-width="3.84"/>
<circle clip-path="url(#clip792)" cx="515.251" cy="1751.15" r="14.4" fill="#009af9" fill-rule="evenodd" fill-opacity="1" stroke="#000000" stroke-opacity="1" stroke-width="3.84"/>
<circle clip-path="url(#clip792)" cx="730.637" cy="1682.22" r="14.4" fill="#009af9" fill-rule="evenodd" fill-opacity="1" stroke="#000000" stroke-opacity="1" stroke-width="3.84"/>
<circle clip-path="url(#clip792)" cx="852.197" cy="1682.22" r="14.4" fill="#009af9" fill-rule="evenodd" fill-opacity="1" stroke="#000000" stroke-opacity="1" stroke-width="3.84"/>
<circle clip-path="url(#clip792)" cx="527.413" cy="1751.15" r="14.4" fill="#009af9" fill-rule="evenodd" fill-opacity="1" stroke="#000000" stroke-opacity="1" stroke-width="3.84"/>
<circle clip-path="url(#clip792)" cx="554.376" cy="1751.15" r="14.4" fill="#009af9" fill-rule="evenodd" fill-opacity="1" stroke="#000000" stroke-opacity="1" stroke-width="3.84"/>
<circle clip-path="url(#clip792)" cx="339.772" cy="1682.22" r="14.4" fill="#009af9" fill-rule="evenodd" fill-opacity="1" stroke="#000000" stroke-opacity="1" stroke-width="3.84"/>
<circle clip-path="url(#clip792)" cx="585.644" cy="1544.37" r="14.4" fill="#009af9" fill-rule="evenodd" fill-opacity="1" stroke="#000000" stroke-opacity="1" stroke-width="3.84"/>
<circle clip-path="url(#clip792)" cx="576.568" cy="1544.37" r="14.4" fill="#009af9" fill-rule="evenodd" fill-opacity="1" stroke="#000000" stroke-opacity="1" stroke-width="3.84"/>
<circle clip-path="url(#clip792)" cx="514.873" cy="1613.29" r="14.4" fill="#009af9" fill-rule="evenodd" fill-opacity="1" stroke="#000000" stroke-opacity="1" stroke-width="3.84"/>
<circle clip-path="url(#clip792)" cx="486.698" cy="1613.29" r="14.4" fill="#009af9" fill-rule="evenodd" fill-opacity="1" stroke="#000000" stroke-opacity="1" stroke-width="3.84"/>
<circle clip-path="url(#clip792)" cx="569.334" cy="1613.29" r="14.4" fill="#009af9" fill-rule="evenodd" fill-opacity="1" stroke="#000000" stroke-opacity="1" stroke-width="3.84"/>
<circle clip-path="url(#clip792)" cx="580.51" cy="1682.22" r="14.4" fill="#009af9" fill-rule="evenodd" fill-opacity="1" stroke="#000000" stroke-opacity="1" stroke-width="3.84"/>
<circle clip-path="url(#clip792)" cx="444.262" cy="1544.37" r="14.4" fill="#009af9" fill-rule="evenodd" fill-opacity="1" stroke="#000000" stroke-opacity="1" stroke-width="3.84"/>
<circle clip-path="url(#clip792)" cx="408.904" cy="1682.22" r="14.4" fill="#009af9" fill-rule="evenodd" fill-opacity="1" stroke="#000000" stroke-opacity="1" stroke-width="3.84"/>
<circle clip-path="url(#clip792)" cx="522.372" cy="1475.44" r="14.4" fill="#009af9" fill-rule="evenodd" fill-opacity="1" stroke="#000000" stroke-opacity="1" stroke-width="3.84"/>
<circle clip-path="url(#clip792)" cx="774.636" cy="1682.22" r="14.4" fill="#009af9" fill-rule="evenodd" fill-opacity="1" stroke="#000000" stroke-opacity="1" stroke-width="3.84"/>
<circle clip-path="url(#clip792)" cx="670.511" cy="1682.22" r="14.4" fill="#009af9" fill-rule="evenodd" fill-opacity="1" stroke="#000000" stroke-opacity="1" stroke-width="3.84"/>
<circle clip-path="url(#clip792)" cx="481.611" cy="1544.37" r="14.4" fill="#009af9" fill-rule="evenodd" fill-opacity="1" stroke="#000000" stroke-opacity="1" stroke-width="3.84"/>
<circle clip-path="url(#clip792)" cx="435.908" cy="1682.22" r="14.4" fill="#009af9" fill-rule="evenodd" fill-opacity="1" stroke="#000000" stroke-opacity="1" stroke-width="3.84"/>
<circle clip-path="url(#clip792)" cx="253.512" cy="1682.22" r="14.4" fill="#009af9" fill-rule="evenodd" fill-opacity="1" stroke="#000000" stroke-opacity="1" stroke-width="3.84"/>
<circle clip-path="url(#clip792)" cx="569.415" cy="1682.22" r="14.4" fill="#009af9" fill-rule="evenodd" fill-opacity="1" stroke="#000000" stroke-opacity="1" stroke-width="3.84"/>
<circle clip-path="url(#clip792)" cx="400.979" cy="1682.22" r="14.4" fill="#009af9" fill-rule="evenodd" fill-opacity="1" stroke="#000000" stroke-opacity="1" stroke-width="3.84"/>
<circle clip-path="url(#clip792)" cx="582.502" cy="1544.37" r="14.4" fill="#009af9" fill-rule="evenodd" fill-opacity="1" stroke="#000000" stroke-opacity="1" stroke-width="3.84"/>
<circle clip-path="url(#clip792)" cx="459.341" cy="1751.15" r="14.4" fill="#009af9" fill-rule="evenodd" fill-opacity="1" stroke="#000000" stroke-opacity="1" stroke-width="3.84"/>
<circle clip-path="url(#clip792)" cx="855.922" cy="1682.22" r="14.4" fill="#009af9" fill-rule="evenodd" fill-opacity="1" stroke="#000000" stroke-opacity="1" stroke-width="3.84"/>
<circle clip-path="url(#clip792)" cx="563.624" cy="1682.22" r="14.4" fill="#009af9" fill-rule="evenodd" fill-opacity="1" stroke="#000000" stroke-opacity="1" stroke-width="3.84"/>
<circle clip-path="url(#clip792)" cx="277.173" cy="1682.22" r="14.4" fill="#009af9" fill-rule="evenodd" fill-opacity="1" stroke="#000000" stroke-opacity="1" stroke-width="3.84"/>
<circle clip-path="url(#clip792)" cx="438.551" cy="1682.22" r="14.4" fill="#009af9" fill-rule="evenodd" fill-opacity="1" stroke="#000000" stroke-opacity="1" stroke-width="3.84"/>
<circle clip-path="url(#clip792)" cx="480.429" cy="1751.15" r="14.4" fill="#009af9" fill-rule="evenodd" fill-opacity="1" stroke="#000000" stroke-opacity="1" stroke-width="3.84"/>
<circle clip-path="url(#clip792)" cx="292.365" cy="1682.22" r="14.4" fill="#009af9" fill-rule="evenodd" fill-opacity="1" stroke="#000000" stroke-opacity="1" stroke-width="3.84"/>
<circle clip-path="url(#clip792)" cx="345.707" cy="1682.22" r="14.4" fill="#009af9" fill-rule="evenodd" fill-opacity="1" stroke="#000000" stroke-opacity="1" stroke-width="3.84"/>
<circle clip-path="url(#clip792)" cx="565.487" cy="1613.29" r="14.4" fill="#009af9" fill-rule="evenodd" fill-opacity="1" stroke="#000000" stroke-opacity="1" stroke-width="3.84"/>
<circle clip-path="url(#clip792)" cx="557.373" cy="1613.29" r="14.4" fill="#009af9" fill-rule="evenodd" fill-opacity="1" stroke="#000000" stroke-opacity="1" stroke-width="3.84"/>
<circle clip-path="url(#clip792)" cx="686.759" cy="1682.22" r="14.4" fill="#009af9" fill-rule="evenodd" fill-opacity="1" stroke="#000000" stroke-opacity="1" stroke-width="3.84"/>
<circle clip-path="url(#clip792)" cx="501.165" cy="1406.51" r="14.4" fill="#009af9" fill-rule="evenodd" fill-opacity="1" stroke="#000000" stroke-opacity="1" stroke-width="3.84"/>
<circle clip-path="url(#clip792)" cx="476.627" cy="1544.37" r="14.4" fill="#009af9" fill-rule="evenodd" fill-opacity="1" stroke="#000000" stroke-opacity="1" stroke-width="3.84"/>
<circle clip-path="url(#clip792)" cx="458.898" cy="1613.29" r="14.4" fill="#009af9" fill-rule="evenodd" fill-opacity="1" stroke="#000000" stroke-opacity="1" stroke-width="3.84"/>
<circle clip-path="url(#clip792)" cx="312.616" cy="1682.22" r="14.4" fill="#009af9" fill-rule="evenodd" fill-opacity="1" stroke="#000000" stroke-opacity="1" stroke-width="3.84"/>
<circle clip-path="url(#clip792)" cx="373.854" cy="1682.22" r="14.4" fill="#009af9" fill-rule="evenodd" fill-opacity="1" stroke="#000000" stroke-opacity="1" stroke-width="3.84"/>
<circle clip-path="url(#clip792)" cx="274.046" cy="1682.22" r="14.4" fill="#009af9" fill-rule="evenodd" fill-opacity="1" stroke="#000000" stroke-opacity="1" stroke-width="3.84"/>
<circle clip-path="url(#clip792)" cx="228.893" cy="1682.22" r="14.4" fill="#009af9" fill-rule="evenodd" fill-opacity="1" stroke="#000000" stroke-opacity="1" stroke-width="3.84"/>
<circle clip-path="url(#clip792)" cx="1239.06" cy="855.083" r="14.4" fill="#009af9" fill-rule="evenodd" fill-opacity="1" stroke="#000000" stroke-opacity="1" stroke-width="3.84"/>
<circle clip-path="url(#clip792)" cx="1595.27" cy="786.155" r="14.4" fill="#009af9" fill-rule="evenodd" fill-opacity="1" stroke="#000000" stroke-opacity="1" stroke-width="3.84"/>
<circle clip-path="url(#clip792)" cx="1105.31" cy="786.155" r="14.4" fill="#009af9" fill-rule="evenodd" fill-opacity="1" stroke="#000000" stroke-opacity="1" stroke-width="3.84"/>
<circle clip-path="url(#clip792)" cx="1284.14" cy="924.012" r="14.4" fill="#009af9" fill-rule="evenodd" fill-opacity="1" stroke="#000000" stroke-opacity="1" stroke-width="3.84"/>
<circle clip-path="url(#clip792)" cx="1446.23" cy="786.155" r="14.4" fill="#009af9" fill-rule="evenodd" fill-opacity="1" stroke="#000000" stroke-opacity="1" stroke-width="3.84"/>
<circle clip-path="url(#clip792)" cx="1370.12" cy="924.012" r="14.4" fill="#009af9" fill-rule="evenodd" fill-opacity="1" stroke="#000000" stroke-opacity="1" stroke-width="3.84"/>
<circle clip-path="url(#clip792)" cx="1461.52" cy="717.227" r="14.4" fill="#009af9" fill-rule="evenodd" fill-opacity="1" stroke="#000000" stroke-opacity="1" stroke-width="3.84"/>
<circle clip-path="url(#clip792)" cx="1222.46" cy="1130.8" r="14.4" fill="#009af9" fill-rule="evenodd" fill-opacity="1" stroke="#000000" stroke-opacity="1" stroke-width="3.84"/>
<circle clip-path="url(#clip792)" cx="1598.66" cy="924.012" r="14.4" fill="#009af9" fill-rule="evenodd" fill-opacity="1" stroke="#000000" stroke-opacity="1" stroke-width="3.84"/>
<circle clip-path="url(#clip792)" cx="1418.74" cy="855.083" r="14.4" fill="#009af9" fill-rule="evenodd" fill-opacity="1" stroke="#000000" stroke-opacity="1" stroke-width="3.84"/>
<circle clip-path="url(#clip792)" cx="1446.02" cy="1130.8" r="14.4" fill="#009af9" fill-rule="evenodd" fill-opacity="1" stroke="#000000" stroke-opacity="1" stroke-width="3.84"/>
<circle clip-path="url(#clip792)" cx="1461.84" cy="786.155" r="14.4" fill="#009af9" fill-rule="evenodd" fill-opacity="1" stroke="#000000" stroke-opacity="1" stroke-width="3.84"/>
<circle clip-path="url(#clip792)" cx="1262.42" cy="1130.8" r="14.4" fill="#009af9" fill-rule="evenodd" fill-opacity="1" stroke="#000000" stroke-opacity="1" stroke-width="3.84"/>
<circle clip-path="url(#clip792)" cx="1680.4" cy="855.083" r="14.4" fill="#009af9" fill-rule="evenodd" fill-opacity="1" stroke="#000000" stroke-opacity="1" stroke-width="3.84"/>
<circle clip-path="url(#clip792)" cx="1494.06" cy="924.012" r="14.4" fill="#009af9" fill-rule="evenodd" fill-opacity="1" stroke="#000000" stroke-opacity="1" stroke-width="3.84"/>
<circle clip-path="url(#clip792)" cx="1253.96" cy="855.083" r="14.4" fill="#009af9" fill-rule="evenodd" fill-opacity="1" stroke="#000000" stroke-opacity="1" stroke-width="3.84"/>
<circle clip-path="url(#clip792)" cx="1140.87" cy="786.155" r="14.4" fill="#009af9" fill-rule="evenodd" fill-opacity="1" stroke="#000000" stroke-opacity="1" stroke-width="3.84"/>
<circle clip-path="url(#clip792)" cx="1409.81" cy="1130.8" r="14.4" fill="#009af9" fill-rule="evenodd" fill-opacity="1" stroke="#000000" stroke-opacity="1" stroke-width="3.84"/>
<circle clip-path="url(#clip792)" cx="1592.84" cy="786.155" r="14.4" fill="#009af9" fill-rule="evenodd" fill-opacity="1" stroke="#000000" stroke-opacity="1" stroke-width="3.84"/>
<circle clip-path="url(#clip792)" cx="1430.48" cy="1061.87" r="14.4" fill="#009af9" fill-rule="evenodd" fill-opacity="1" stroke="#000000" stroke-opacity="1" stroke-width="3.84"/>
<circle clip-path="url(#clip792)" cx="1373.51" cy="579.37" r="14.4" fill="#009af9" fill-rule="evenodd" fill-opacity="1" stroke="#000000" stroke-opacity="1" stroke-width="3.84"/>
<circle clip-path="url(#clip792)" cx="1512.84" cy="924.012" r="14.4" fill="#009af9" fill-rule="evenodd" fill-opacity="1" stroke="#000000" stroke-opacity="1" stroke-width="3.84"/>
<circle clip-path="url(#clip792)" cx="1599.65" cy="786.155" r="14.4" fill="#009af9" fill-rule="evenodd" fill-opacity="1" stroke="#000000" stroke-opacity="1" stroke-width="3.84"/>
<circle clip-path="url(#clip792)" cx="1468.33" cy="992.94" r="14.4" fill="#009af9" fill-rule="evenodd" fill-opacity="1" stroke="#000000" stroke-opacity="1" stroke-width="3.84"/>
<circle clip-path="url(#clip792)" cx="1230.76" cy="924.012" r="14.4" fill="#009af9" fill-rule="evenodd" fill-opacity="1" stroke="#000000" stroke-opacity="1" stroke-width="3.84"/>
<circle clip-path="url(#clip792)" cx="1377.5" cy="855.083" r="14.4" fill="#009af9" fill-rule="evenodd" fill-opacity="1" stroke="#000000" stroke-opacity="1" stroke-width="3.84"/>
<circle clip-path="url(#clip792)" cx="1473.17" cy="855.083" r="14.4" fill="#009af9" fill-rule="evenodd" fill-opacity="1" stroke="#000000" stroke-opacity="1" stroke-width="3.84"/>
<circle clip-path="url(#clip792)" cx="1354.44" cy="648.299" r="14.4" fill="#009af9" fill-rule="evenodd" fill-opacity="1" stroke="#000000" stroke-opacity="1" stroke-width="3.84"/>
<circle clip-path="url(#clip792)" cx="1355.02" cy="786.155" r="14.4" fill="#009af9" fill-rule="evenodd" fill-opacity="1" stroke="#000000" stroke-opacity="1" stroke-width="3.84"/>
<circle clip-path="url(#clip792)" cx="1240.01" cy="1130.8" r="14.4" fill="#009af9" fill-rule="evenodd" fill-opacity="1" stroke="#000000" stroke-opacity="1" stroke-width="3.84"/>
<circle clip-path="url(#clip792)" cx="1477.25" cy="1061.87" r="14.4" fill="#009af9" fill-rule="evenodd" fill-opacity="1" stroke="#000000" stroke-opacity="1" stroke-width="3.84"/>
<circle clip-path="url(#clip792)" cx="1347.23" cy="1130.8" r="14.4" fill="#009af9" fill-rule="evenodd" fill-opacity="1" stroke="#000000" stroke-opacity="1" stroke-width="3.84"/>
<circle clip-path="url(#clip792)" cx="1256.05" cy="992.94" r="14.4" fill="#009af9" fill-rule="evenodd" fill-opacity="1" stroke="#000000" stroke-opacity="1" stroke-width="3.84"/>
<circle clip-path="url(#clip792)" cx="1460.77" cy="717.227" r="14.4" fill="#009af9" fill-rule="evenodd" fill-opacity="1" stroke="#000000" stroke-opacity="1" stroke-width="3.84"/>
<circle clip-path="url(#clip792)" cx="1361.35" cy="786.155" r="14.4" fill="#009af9" fill-rule="evenodd" fill-opacity="1" stroke="#000000" stroke-opacity="1" stroke-width="3.84"/>
<circle clip-path="url(#clip792)" cx="1270.65" cy="717.227" r="14.4" fill="#009af9" fill-rule="evenodd" fill-opacity="1" stroke="#000000" stroke-opacity="1" stroke-width="3.84"/>
<circle clip-path="url(#clip792)" cx="1486.58" cy="786.155" r="14.4" fill="#009af9" fill-rule="evenodd" fill-opacity="1" stroke="#000000" stroke-opacity="1" stroke-width="3.84"/>
<circle clip-path="url(#clip792)" cx="1556.03" cy="924.012" r="14.4" fill="#009af9" fill-rule="evenodd" fill-opacity="1" stroke="#000000" stroke-opacity="1" stroke-width="3.84"/>
<circle clip-path="url(#clip792)" cx="1067.96" cy="924.012" r="14.4" fill="#009af9" fill-rule="evenodd" fill-opacity="1" stroke="#000000" stroke-opacity="1" stroke-width="3.84"/>
<circle clip-path="url(#clip792)" cx="1286.87" cy="924.012" r="14.4" fill="#009af9" fill-rule="evenodd" fill-opacity="1" stroke="#000000" stroke-opacity="1" stroke-width="3.84"/>
<circle clip-path="url(#clip792)" cx="1273.82" cy="992.94" r="14.4" fill="#009af9" fill-rule="evenodd" fill-opacity="1" stroke="#000000" stroke-opacity="1" stroke-width="3.84"/>
<circle clip-path="url(#clip792)" cx="1633.8" cy="855.083" r="14.4" fill="#009af9" fill-rule="evenodd" fill-opacity="1" stroke="#000000" stroke-opacity="1" stroke-width="3.84"/>
<circle clip-path="url(#clip792)" cx="1305.09" cy="992.94" r="14.4" fill="#009af9" fill-rule="evenodd" fill-opacity="1" stroke="#000000" stroke-opacity="1" stroke-width="3.84"/>
<circle clip-path="url(#clip792)" cx="1469.69" cy="1130.8" r="14.4" fill="#009af9" fill-rule="evenodd" fill-opacity="1" stroke="#000000" stroke-opacity="1" stroke-width="3.84"/>
<circle clip-path="url(#clip792)" cx="1655.79" cy="924.012" r="14.4" fill="#009af9" fill-rule="evenodd" fill-opacity="1" stroke="#000000" stroke-opacity="1" stroke-width="3.84"/>
<circle clip-path="url(#clip792)" cx="1590.83" cy="992.94" r="14.4" fill="#009af9" fill-rule="evenodd" fill-opacity="1" stroke="#000000" stroke-opacity="1" stroke-width="3.84"/>
<circle clip-path="url(#clip792)" cx="1495.41" cy="924.012" r="14.4" fill="#009af9" fill-rule="evenodd" fill-opacity="1" stroke="#000000" stroke-opacity="1" stroke-width="3.84"/>
<circle clip-path="url(#clip792)" cx="1399.47" cy="924.012" r="14.4" fill="#009af9" fill-rule="evenodd" fill-opacity="1" stroke="#000000" stroke-opacity="1" stroke-width="3.84"/>
<circle clip-path="url(#clip792)" cx="1439.29" cy="1061.87" r="14.4" fill="#009af9" fill-rule="evenodd" fill-opacity="1" stroke="#000000" stroke-opacity="1" stroke-width="3.84"/>
<circle clip-path="url(#clip792)" cx="1655.8" cy="924.012" r="14.4" fill="#009af9" fill-rule="evenodd" fill-opacity="1" stroke="#000000" stroke-opacity="1" stroke-width="3.84"/>
<circle clip-path="url(#clip792)" cx="2231.72" cy="96.8724" r="14.4" fill="#009af9" fill-rule="evenodd" fill-opacity="1" stroke="#000000" stroke-opacity="1" stroke-width="3.84"/>
<circle clip-path="url(#clip792)" cx="2427.79" cy="510.442" r="14.4" fill="#009af9" fill-rule="evenodd" fill-opacity="1" stroke="#000000" stroke-opacity="1" stroke-width="3.84"/>
<circle clip-path="url(#clip792)" cx="2515.5" cy="372.586" r="14.4" fill="#009af9" fill-rule="evenodd" fill-opacity="1" stroke="#000000" stroke-opacity="1" stroke-width="3.84"/>
<circle clip-path="url(#clip792)" cx="2324.08" cy="579.37" r="14.4" fill="#009af9" fill-rule="evenodd" fill-opacity="1" stroke="#000000" stroke-opacity="1" stroke-width="3.84"/>
<circle clip-path="url(#clip792)" cx="2403.55" cy="303.657" r="14.4" fill="#009af9" fill-rule="evenodd" fill-opacity="1" stroke="#000000" stroke-opacity="1" stroke-width="3.84"/>
<circle clip-path="url(#clip792)" cx="2093.63" cy="372.586" r="14.4" fill="#009af9" fill-rule="evenodd" fill-opacity="1" stroke="#000000" stroke-opacity="1" stroke-width="3.84"/>
<circle clip-path="url(#clip792)" cx="2391.95" cy="648.299" r="14.4" fill="#009af9" fill-rule="evenodd" fill-opacity="1" stroke="#000000" stroke-opacity="1" stroke-width="3.84"/>
<circle clip-path="url(#clip792)" cx="2320.26" cy="579.37" r="14.4" fill="#009af9" fill-rule="evenodd" fill-opacity="1" stroke="#000000" stroke-opacity="1" stroke-width="3.84"/>
<circle clip-path="url(#clip792)" cx="2114.31" cy="579.37" r="14.4" fill="#009af9" fill-rule="evenodd" fill-opacity="1" stroke="#000000" stroke-opacity="1" stroke-width="3.84"/>
<circle clip-path="url(#clip792)" cx="2134.77" cy="96.8724" r="14.4" fill="#009af9" fill-rule="evenodd" fill-opacity="1" stroke="#000000" stroke-opacity="1" stroke-width="3.84"/>
<circle clip-path="url(#clip792)" cx="2432" cy="441.514" r="14.4" fill="#009af9" fill-rule="evenodd" fill-opacity="1" stroke="#000000" stroke-opacity="1" stroke-width="3.84"/>
<circle clip-path="url(#clip792)" cx="2059.02" cy="510.442" r="14.4" fill="#009af9" fill-rule="evenodd" fill-opacity="1" stroke="#000000" stroke-opacity="1" stroke-width="3.84"/>
<circle clip-path="url(#clip792)" cx="2019.39" cy="372.586" r="14.4" fill="#009af9" fill-rule="evenodd" fill-opacity="1" stroke="#000000" stroke-opacity="1" stroke-width="3.84"/>
<circle clip-path="url(#clip792)" cx="2054.8" cy="441.514" r="14.4" fill="#009af9" fill-rule="evenodd" fill-opacity="1" stroke="#000000" stroke-opacity="1" stroke-width="3.84"/>
<circle clip-path="url(#clip792)" cx="2074.83" cy="165.801" r="14.4" fill="#009af9" fill-rule="evenodd" fill-opacity="1" stroke="#000000" stroke-opacity="1" stroke-width="3.84"/>
<circle clip-path="url(#clip792)" cx="1987.86" cy="234.729" r="14.4" fill="#009af9" fill-rule="evenodd" fill-opacity="1" stroke="#000000" stroke-opacity="1" stroke-width="3.84"/>
<circle clip-path="url(#clip792)" cx="2391.76" cy="579.37" r="14.4" fill="#009af9" fill-rule="evenodd" fill-opacity="1" stroke="#000000" stroke-opacity="1" stroke-width="3.84"/>
<circle clip-path="url(#clip792)" cx="2275.53" cy="303.657" r="14.4" fill="#009af9" fill-rule="evenodd" fill-opacity="1" stroke="#000000" stroke-opacity="1" stroke-width="3.84"/>
<circle clip-path="url(#clip792)" cx="2342.49" cy="234.729" r="14.4" fill="#009af9" fill-rule="evenodd" fill-opacity="1" stroke="#000000" stroke-opacity="1" stroke-width="3.84"/>
<circle clip-path="url(#clip792)" cx="2217.85" cy="786.155" r="14.4" fill="#009af9" fill-rule="evenodd" fill-opacity="1" stroke="#000000" stroke-opacity="1" stroke-width="3.84"/>
<circle clip-path="url(#clip792)" cx="2307.03" cy="234.729" r="14.4" fill="#009af9" fill-rule="evenodd" fill-opacity="1" stroke="#000000" stroke-opacity="1" stroke-width="3.84"/>
<circle clip-path="url(#clip792)" cx="1934.54" cy="441.514" r="14.4" fill="#009af9" fill-rule="evenodd" fill-opacity="1" stroke="#000000" stroke-opacity="1" stroke-width="3.84"/>
<circle clip-path="url(#clip792)" cx="2229.24" cy="441.514" r="14.4" fill="#009af9" fill-rule="evenodd" fill-opacity="1" stroke="#000000" stroke-opacity="1" stroke-width="3.84"/>
<circle clip-path="url(#clip792)" cx="2111.69" cy="579.37" r="14.4" fill="#009af9" fill-rule="evenodd" fill-opacity="1" stroke="#000000" stroke-opacity="1" stroke-width="3.84"/>
<circle clip-path="url(#clip792)" cx="2294.85" cy="372.586" r="14.4" fill="#009af9" fill-rule="evenodd" fill-opacity="1" stroke="#000000" stroke-opacity="1" stroke-width="3.84"/>
<circle clip-path="url(#clip792)" cx="2266.09" cy="579.37" r="14.4" fill="#009af9" fill-rule="evenodd" fill-opacity="1" stroke="#000000" stroke-opacity="1" stroke-width="3.84"/>
<circle clip-path="url(#clip792)" cx="2468.7" cy="579.37" r="14.4" fill="#009af9" fill-rule="evenodd" fill-opacity="1" stroke="#000000" stroke-opacity="1" stroke-width="3.84"/>
<circle clip-path="url(#clip792)" cx="2159.31" cy="579.37" r="14.4" fill="#009af9" fill-rule="evenodd" fill-opacity="1" stroke="#000000" stroke-opacity="1" stroke-width="3.84"/>
<circle clip-path="url(#clip792)" cx="2457.24" cy="372.586" r="14.4" fill="#009af9" fill-rule="evenodd" fill-opacity="1" stroke="#000000" stroke-opacity="1" stroke-width="3.84"/>
<circle clip-path="url(#clip792)" cx="2229.31" cy="717.227" r="14.4" fill="#009af9" fill-rule="evenodd" fill-opacity="1" stroke="#000000" stroke-opacity="1" stroke-width="3.84"/>
<circle clip-path="url(#clip792)" cx="2154.52" cy="510.442" r="14.4" fill="#009af9" fill-rule="evenodd" fill-opacity="1" stroke="#000000" stroke-opacity="1" stroke-width="3.84"/>
<circle clip-path="url(#clip792)" cx="2325.7" cy="441.514" r="14.4" fill="#009af9" fill-rule="evenodd" fill-opacity="1" stroke="#000000" stroke-opacity="1" stroke-width="3.84"/>
<circle clip-path="url(#clip792)" cx="2317.77" cy="303.657" r="14.4" fill="#009af9" fill-rule="evenodd" fill-opacity="1" stroke="#000000" stroke-opacity="1" stroke-width="3.84"/>
<circle clip-path="url(#clip792)" cx="2228.92" cy="786.155" r="14.4" fill="#009af9" fill-rule="evenodd" fill-opacity="1" stroke="#000000" stroke-opacity="1" stroke-width="3.84"/>
<circle clip-path="url(#clip792)" cx="2255.72" cy="855.083" r="14.4" fill="#009af9" fill-rule="evenodd" fill-opacity="1" stroke="#000000" stroke-opacity="1" stroke-width="3.84"/>
<circle clip-path="url(#clip792)" cx="2275.57" cy="234.729" r="14.4" fill="#009af9" fill-rule="evenodd" fill-opacity="1" stroke="#000000" stroke-opacity="1" stroke-width="3.84"/>
<circle clip-path="url(#clip792)" cx="2388.73" cy="165.801" r="14.4" fill="#009af9" fill-rule="evenodd" fill-opacity="1" stroke="#000000" stroke-opacity="1" stroke-width="3.84"/>
<circle clip-path="url(#clip792)" cx="2087.13" cy="579.37" r="14.4" fill="#009af9" fill-rule="evenodd" fill-opacity="1" stroke="#000000" stroke-opacity="1" stroke-width="3.84"/>
<circle clip-path="url(#clip792)" cx="2340.76" cy="579.37" r="14.4" fill="#009af9" fill-rule="evenodd" fill-opacity="1" stroke="#000000" stroke-opacity="1" stroke-width="3.84"/>
<circle clip-path="url(#clip792)" cx="2045.47" cy="372.586" r="14.4" fill="#009af9" fill-rule="evenodd" fill-opacity="1" stroke="#000000" stroke-opacity="1" stroke-width="3.84"/>
<circle clip-path="url(#clip792)" cx="2115.01" cy="165.801" r="14.4" fill="#009af9" fill-rule="evenodd" fill-opacity="1" stroke="#000000" stroke-opacity="1" stroke-width="3.84"/>
<circle clip-path="url(#clip792)" cx="1982.63" cy="234.729" r="14.4" fill="#009af9" fill-rule="evenodd" fill-opacity="1" stroke="#000000" stroke-opacity="1" stroke-width="3.84"/>
<circle clip-path="url(#clip792)" cx="2448.52" cy="510.442" r="14.4" fill="#009af9" fill-rule="evenodd" fill-opacity="1" stroke="#000000" stroke-opacity="1" stroke-width="3.84"/>
<circle clip-path="url(#clip792)" cx="2399.73" cy="234.729" r="14.4" fill="#009af9" fill-rule="evenodd" fill-opacity="1" stroke="#000000" stroke-opacity="1" stroke-width="3.84"/>
<circle clip-path="url(#clip792)" cx="2257.34" cy="96.8724" r="14.4" fill="#009af9" fill-rule="evenodd" fill-opacity="1" stroke="#000000" stroke-opacity="1" stroke-width="3.84"/>
<circle clip-path="url(#clip792)" cx="2497.95" cy="234.729" r="14.4" fill="#009af9" fill-rule="evenodd" fill-opacity="1" stroke="#000000" stroke-opacity="1" stroke-width="3.84"/>
<circle clip-path="url(#clip792)" cx="2570.51" cy="510.442" r="14.4" fill="#009af9" fill-rule="evenodd" fill-opacity="1" stroke="#000000" stroke-opacity="1" stroke-width="3.84"/>
<circle clip-path="url(#clip792)" cx="2201.29" cy="441.514" r="14.4" fill="#009af9" fill-rule="evenodd" fill-opacity="1" stroke="#000000" stroke-opacity="1" stroke-width="3.84"/>
<circle clip-path="url(#clip792)" cx="2301.62" cy="234.729" r="14.4" fill="#009af9" fill-rule="evenodd" fill-opacity="1" stroke="#000000" stroke-opacity="1" stroke-width="3.84"/>
<circle clip-path="url(#clip792)" cx="2091.59" cy="579.37" r="14.4" fill="#009af9" fill-rule="evenodd" fill-opacity="1" stroke="#000000" stroke-opacity="1" stroke-width="3.84"/>
</svg>
