<?xml version="1.0" encoding="utf-8"?>
<svg xmlns="http://www.w3.org/2000/svg" xmlns:xlink="http://www.w3.org/1999/xlink" width="672" height="480" viewBox="0 0 2688 1920">
<defs>
  <clipPath id="clip990">
    <rect x="0" y="0" width="2688" height="1920"/>
  </clipPath>
</defs>
<path clip-path="url(#clip990)" d="
M0 1920 L2688 1920 L2688 0 L0 0  Z
  " fill="#ffffff" fill-rule="evenodd" fill-opacity="1"/>
<defs>
  <clipPath id="clip991">
    <rect x="537" y="0" width="1883" height="1883"/>
  </clipPath>
</defs>
<path clip-path="url(#clip990)" d="
M226.141 1734.12 L2640.76 1734.12 L2640.76 47.2441 L226.141 47.2441  Z
  " fill="#ffffff" fill-rule="evenodd" fill-opacity="1"/>
<defs>
  <clipPath id="clip992">
    <rect x="226" y="47" width="2416" height="1688"/>
  </clipPath>
</defs>
<polyline clip-path="url(#clip992)" style="stroke:#000000; stroke-linecap:round; stroke-linejoin:round; stroke-width:2; stroke-opacity:0.1; fill:none" points="
  294.479,1734.12 294.479,47.2441 
  "/>
<polyline clip-path="url(#clip992)" style="stroke:#000000; stroke-linecap:round; stroke-linejoin:round; stroke-width:2; stroke-opacity:0.1; fill:none" points="
  800.687,1734.12 800.687,47.2441 
  "/>
<polyline clip-path="url(#clip992)" style="stroke:#000000; stroke-linecap:round; stroke-linejoin:round; stroke-width:2; stroke-opacity:0.1; fill:none" points="
  1306.9,1734.12 1306.9,47.2441 
  "/>
<polyline clip-path="url(#clip992)" style="stroke:#000000; stroke-linecap:round; stroke-linejoin:round; stroke-width:2; stroke-opacity:0.1; fill:none" points="
  1813.1,1734.12 1813.1,47.2441 
  "/>
<polyline clip-path="url(#clip992)" style="stroke:#000000; stroke-linecap:round; stroke-linejoin:round; stroke-width:2; stroke-opacity:0.1; fill:none" points="
  2319.31,1734.12 2319.31,47.2441 
  "/>
<polyline clip-path="url(#clip990)" style="stroke:#000000; stroke-linecap:round; stroke-linejoin:round; stroke-width:4; stroke-opacity:1; fill:none" points="
  226.141,1734.12 2640.76,1734.12 
  "/>
<polyline clip-path="url(#clip990)" style="stroke:#000000; stroke-linecap:round; stroke-linejoin:round; stroke-width:4; stroke-opacity:1; fill:none" points="
  294.479,1734.12 294.479,1715.22 
  "/>
<polyline clip-path="url(#clip990)" style="stroke:#000000; stroke-linecap:round; stroke-linejoin:round; stroke-width:4; stroke-opacity:1; fill:none" points="
  800.687,1734.12 800.687,1715.22 
  "/>
<polyline clip-path="url(#clip990)" style="stroke:#000000; stroke-linecap:round; stroke-linejoin:round; stroke-width:4; stroke-opacity:1; fill:none" points="
  1306.9,1734.12 1306.9,1715.22 
  "/>
<polyline clip-path="url(#clip990)" style="stroke:#000000; stroke-linecap:round; stroke-linejoin:round; stroke-width:4; stroke-opacity:1; fill:none" points="
  1813.1,1734.12 1813.1,1715.22 
  "/>
<polyline clip-path="url(#clip990)" style="stroke:#000000; stroke-linecap:round; stroke-linejoin:round; stroke-width:4; stroke-opacity:1; fill:none" points="
  2319.31,1734.12 2319.31,1715.22 
  "/>
<path clip-path="url(#clip990)" d="M261.632 1794.89 L269.271 1794.89 L269.271 1768.52 L260.96 1770.19 L260.96 1765.93 L269.224 1764.26 L273.9 1764.26 L273.9 1794.89 L281.539 1794.89 L281.539 1798.82 L261.632 1798.82 L261.632 1794.89 Z" fill="#000000" fill-rule="evenodd" fill-opacity="1" /><path clip-path="url(#clip990)" d="M290.983 1792.94 L295.868 1792.94 L295.868 1798.82 L290.983 1798.82 L290.983 1792.94 Z" fill="#000000" fill-rule="evenodd" fill-opacity="1" /><path clip-path="url(#clip990)" d="M316.053 1767.34 Q312.442 1767.34 310.613 1770.9 Q308.807 1774.45 308.807 1781.58 Q308.807 1788.68 310.613 1792.25 Q312.442 1795.79 316.053 1795.79 Q319.687 1795.79 321.492 1792.25 Q323.321 1788.68 323.321 1781.58 Q323.321 1774.45 321.492 1770.9 Q319.687 1767.34 316.053 1767.34 M316.053 1763.64 Q321.863 1763.64 324.918 1768.24 Q327.997 1772.83 327.997 1781.58 Q327.997 1790.3 324.918 1794.91 Q321.863 1799.49 316.053 1799.49 Q310.243 1799.49 307.164 1794.91 Q304.108 1790.3 304.108 1781.58 Q304.108 1772.83 307.164 1768.24 Q310.243 1763.64 316.053 1763.64 Z" fill="#000000" fill-rule="evenodd" fill-opacity="1" /><path clip-path="url(#clip990)" d="M768.639 1794.89 L776.278 1794.89 L776.278 1768.52 L767.968 1770.19 L767.968 1765.93 L776.232 1764.26 L780.907 1764.26 L780.907 1794.89 L788.546 1794.89 L788.546 1798.82 L768.639 1798.82 L768.639 1794.89 Z" fill="#000000" fill-rule="evenodd" fill-opacity="1" /><path clip-path="url(#clip990)" d="M797.991 1792.94 L802.875 1792.94 L802.875 1798.82 L797.991 1798.82 L797.991 1792.94 Z" fill="#000000" fill-rule="evenodd" fill-opacity="1" /><path clip-path="url(#clip990)" d="M817.088 1794.89 L833.407 1794.89 L833.407 1798.82 L811.463 1798.82 L811.463 1794.89 Q814.125 1792.13 818.708 1787.5 Q823.315 1782.85 824.495 1781.51 Q826.74 1778.98 827.62 1777.25 Q828.523 1775.49 828.523 1773.8 Q828.523 1771.04 826.578 1769.31 Q824.657 1767.57 821.555 1767.57 Q819.356 1767.57 816.903 1768.34 Q814.472 1769.1 811.694 1770.65 L811.694 1765.93 Q814.518 1764.79 816.972 1764.21 Q819.426 1763.64 821.463 1763.64 Q826.833 1763.64 830.028 1766.32 Q833.222 1769.01 833.222 1773.5 Q833.222 1775.63 832.412 1777.55 Q831.625 1779.45 829.518 1782.04 Q828.94 1782.71 825.838 1785.93 Q822.736 1789.12 817.088 1794.89 Z" fill="#000000" fill-rule="evenodd" fill-opacity="1" /><path clip-path="url(#clip990)" d="M1273.81 1794.89 L1281.44 1794.89 L1281.44 1768.52 L1273.13 1770.19 L1273.13 1765.93 L1281.4 1764.26 L1286.07 1764.26 L1286.07 1794.89 L1293.71 1794.89 L1293.71 1798.82 L1273.81 1798.82 L1273.81 1794.89 Z" fill="#000000" fill-rule="evenodd" fill-opacity="1" /><path clip-path="url(#clip990)" d="M1303.16 1792.94 L1308.04 1792.94 L1308.04 1798.82 L1303.16 1798.82 L1303.16 1792.94 Z" fill="#000000" fill-rule="evenodd" fill-opacity="1" /><path clip-path="url(#clip990)" d="M1331.07 1768.34 L1319.27 1786.78 L1331.07 1786.78 L1331.07 1768.34 M1329.85 1764.26 L1335.73 1764.26 L1335.73 1786.78 L1340.66 1786.78 L1340.66 1790.67 L1335.73 1790.67 L1335.73 1798.82 L1331.07 1798.82 L1331.07 1790.67 L1315.47 1790.67 L1315.47 1786.16 L1329.85 1764.26 Z" fill="#000000" fill-rule="evenodd" fill-opacity="1" /><path clip-path="url(#clip990)" d="M1780.18 1794.89 L1787.82 1794.89 L1787.82 1768.52 L1779.51 1770.19 L1779.51 1765.93 L1787.77 1764.26 L1792.45 1764.26 L1792.45 1794.89 L1800.08 1794.89 L1800.08 1798.82 L1780.18 1798.82 L1780.18 1794.89 Z" fill="#000000" fill-rule="evenodd" fill-opacity="1" /><path clip-path="url(#clip990)" d="M1809.53 1792.94 L1814.41 1792.94 L1814.41 1798.82 L1809.53 1798.82 L1809.53 1792.94 Z" fill="#000000" fill-rule="evenodd" fill-opacity="1" /><path clip-path="url(#clip990)" d="M1835.18 1779.68 Q1832.03 1779.68 1830.18 1781.83 Q1828.35 1783.98 1828.35 1787.73 Q1828.35 1791.46 1830.18 1793.64 Q1832.03 1795.79 1835.18 1795.79 Q1838.32 1795.79 1840.15 1793.64 Q1842.01 1791.46 1842.01 1787.73 Q1842.01 1783.98 1840.15 1781.83 Q1838.32 1779.68 1835.18 1779.68 M1844.46 1765.02 L1844.46 1769.28 Q1842.7 1768.45 1840.89 1768.01 Q1839.11 1767.57 1837.35 1767.57 Q1832.72 1767.57 1830.27 1770.7 Q1827.84 1773.82 1827.49 1780.14 Q1828.86 1778.13 1830.92 1777.06 Q1832.98 1775.97 1835.45 1775.97 Q1840.66 1775.97 1843.67 1779.15 Q1846.7 1782.29 1846.7 1787.73 Q1846.7 1793.06 1843.56 1796.27 Q1840.41 1799.49 1835.18 1799.49 Q1829.18 1799.49 1826.01 1794.91 Q1822.84 1790.3 1822.84 1781.58 Q1822.84 1773.38 1826.73 1768.52 Q1830.62 1763.64 1837.17 1763.64 Q1838.93 1763.64 1840.71 1763.98 Q1842.51 1764.33 1844.46 1765.02 Z" fill="#000000" fill-rule="evenodd" fill-opacity="1" /><path clip-path="url(#clip990)" d="M2286.51 1794.89 L2294.15 1794.89 L2294.15 1768.52 L2285.84 1770.19 L2285.84 1765.93 L2294.11 1764.26 L2298.78 1764.26 L2298.78 1794.89 L2306.42 1794.89 L2306.42 1798.82 L2286.51 1798.82 L2286.51 1794.89 Z" fill="#000000" fill-rule="evenodd" fill-opacity="1" /><path clip-path="url(#clip990)" d="M2315.86 1792.94 L2320.75 1792.94 L2320.75 1798.82 L2315.86 1798.82 L2315.86 1792.94 Z" fill="#000000" fill-rule="evenodd" fill-opacity="1" /><path clip-path="url(#clip990)" d="M2340.93 1782.41 Q2337.6 1782.41 2335.68 1784.19 Q2333.78 1785.97 2333.78 1789.1 Q2333.78 1792.22 2335.68 1794.01 Q2337.6 1795.79 2340.93 1795.79 Q2344.27 1795.79 2346.19 1794.01 Q2348.11 1792.2 2348.11 1789.1 Q2348.11 1785.97 2346.19 1784.19 Q2344.29 1782.41 2340.93 1782.41 M2336.26 1780.42 Q2333.25 1779.68 2331.56 1777.62 Q2329.89 1775.56 2329.89 1772.59 Q2329.89 1768.45 2332.83 1766.04 Q2335.79 1763.64 2340.93 1763.64 Q2346.1 1763.64 2349.04 1766.04 Q2351.98 1768.45 2351.98 1772.59 Q2351.98 1775.56 2350.29 1777.62 Q2348.62 1779.68 2345.63 1780.42 Q2349.01 1781.21 2350.89 1783.5 Q2352.79 1785.79 2352.79 1789.1 Q2352.79 1794.12 2349.71 1796.81 Q2346.65 1799.49 2340.93 1799.49 Q2335.22 1799.49 2332.14 1796.81 Q2329.08 1794.12 2329.08 1789.1 Q2329.08 1785.79 2330.98 1783.5 Q2332.88 1781.21 2336.26 1780.42 M2334.54 1773.03 Q2334.54 1775.72 2336.21 1777.22 Q2337.9 1778.73 2340.93 1778.73 Q2343.94 1778.73 2345.63 1777.22 Q2347.35 1775.72 2347.35 1773.03 Q2347.35 1770.35 2345.63 1768.84 Q2343.94 1767.34 2340.93 1767.34 Q2337.9 1767.34 2336.21 1768.84 Q2334.54 1770.35 2334.54 1773.03 Z" fill="#000000" fill-rule="evenodd" fill-opacity="1" /><path clip-path="url(#clip990)" d="M1253.08 1841.06 L1253.08 1858.92 L1261.16 1858.92 Q1265.65 1858.92 1268.1 1856.6 Q1270.55 1854.27 1270.55 1849.98 Q1270.55 1845.71 1268.1 1843.39 Q1265.65 1841.06 1261.16 1841.06 L1253.08 1841.06 M1246.65 1835.78 L1261.16 1835.78 Q1269.15 1835.78 1273.22 1839.41 Q1277.33 1843.01 1277.33 1849.98 Q1277.33 1857.01 1273.22 1860.61 Q1269.15 1864.2 1261.16 1864.2 L1253.08 1864.2 L1253.08 1883.3 L1246.65 1883.3 L1246.65 1835.78 Z" fill="#000000" fill-rule="evenodd" fill-opacity="1" /><path clip-path="url(#clip990)" d="M1313.87 1864.01 L1313.87 1866.88 L1286.94 1866.88 Q1287.32 1872.92 1290.57 1876.11 Q1293.85 1879.26 1299.67 1879.26 Q1303.05 1879.26 1306.2 1878.43 Q1309.38 1877.6 1312.5 1875.95 L1312.5 1881.49 Q1309.35 1882.82 1306.04 1883.52 Q1302.73 1884.22 1299.32 1884.22 Q1290.79 1884.22 1285.8 1879.26 Q1280.83 1874.29 1280.83 1865.83 Q1280.83 1857.07 1285.54 1851.95 Q1290.28 1846.79 1298.3 1846.79 Q1305.5 1846.79 1309.67 1851.44 Q1313.87 1856.06 1313.87 1864.01 M1308.01 1862.29 Q1307.95 1857.49 1305.31 1854.62 Q1302.7 1851.76 1298.37 1851.76 Q1293.47 1851.76 1290.51 1854.53 Q1287.58 1857.3 1287.13 1862.33 L1308.01 1862.29 Z" fill="#000000" fill-rule="evenodd" fill-opacity="1" /><path clip-path="url(#clip990)" d="M1329.27 1837.53 L1329.27 1847.65 L1341.34 1847.65 L1341.34 1852.2 L1329.27 1852.2 L1329.27 1871.56 Q1329.27 1875.92 1330.45 1877.16 Q1331.66 1878.4 1335.32 1878.4 L1341.34 1878.4 L1341.34 1883.3 L1335.32 1883.3 Q1328.54 1883.3 1325.96 1880.79 Q1323.39 1878.24 1323.39 1871.56 L1323.39 1852.2 L1319.09 1852.2 L1319.09 1847.65 L1323.39 1847.65 L1323.39 1837.53 L1329.27 1837.53 Z" fill="#000000" fill-rule="evenodd" fill-opacity="1" /><path clip-path="url(#clip990)" d="M1365.24 1865.38 Q1358.14 1865.38 1355.4 1867 Q1352.67 1868.63 1352.67 1872.54 Q1352.67 1875.66 1354.7 1877.51 Q1356.77 1879.32 1360.31 1879.32 Q1365.18 1879.32 1368.1 1875.88 Q1371.06 1872.42 1371.06 1866.69 L1371.06 1865.38 L1365.24 1865.38 M1376.92 1862.96 L1376.92 1883.3 L1371.06 1883.3 L1371.06 1877.89 Q1369.06 1881.14 1366.07 1882.7 Q1363.08 1884.22 1358.75 1884.22 Q1353.27 1884.22 1350.03 1881.17 Q1346.81 1878.08 1346.81 1872.92 Q1346.81 1866.91 1350.82 1863.85 Q1354.86 1860.8 1362.85 1860.8 L1371.06 1860.8 L1371.06 1860.23 Q1371.06 1856.18 1368.39 1853.99 Q1365.75 1851.76 1360.94 1851.76 Q1357.89 1851.76 1354.99 1852.49 Q1352.09 1853.22 1349.42 1854.69 L1349.42 1849.28 Q1352.64 1848.03 1355.66 1847.43 Q1358.68 1846.79 1361.55 1846.79 Q1369.28 1846.79 1373.1 1850.8 Q1376.92 1854.81 1376.92 1862.96 Z" fill="#000000" fill-rule="evenodd" fill-opacity="1" /><path clip-path="url(#clip990)" d="M1388.98 1833.78 L1394.84 1833.78 L1394.84 1883.3 L1388.98 1883.3 L1388.98 1833.78 Z" fill="#000000" fill-rule="evenodd" fill-opacity="1" /><path clip-path="url(#clip990)" d="M1407.35 1835.78 L1413.78 1835.78 L1413.78 1877.89 L1436.92 1877.89 L1436.92 1883.3 L1407.35 1883.3 L1407.35 1835.78 Z" fill="#000000" fill-rule="evenodd" fill-opacity="1" /><path clip-path="url(#clip990)" d="M1472.76 1864.01 L1472.76 1866.88 L1445.83 1866.88 Q1446.21 1872.92 1449.46 1876.11 Q1452.74 1879.26 1458.56 1879.26 Q1461.93 1879.26 1465.09 1878.43 Q1468.27 1877.6 1471.39 1875.95 L1471.39 1881.49 Q1468.24 1882.82 1464.93 1883.52 Q1461.62 1884.22 1458.21 1884.22 Q1449.68 1884.22 1444.68 1879.26 Q1439.72 1874.29 1439.72 1865.83 Q1439.72 1857.07 1444.43 1851.95 Q1449.17 1846.79 1457.19 1846.79 Q1464.39 1846.79 1468.56 1851.44 Q1472.76 1856.06 1472.76 1864.01 M1466.9 1862.29 Q1466.84 1857.49 1464.19 1854.62 Q1461.58 1851.76 1457.26 1851.76 Q1452.35 1851.76 1449.39 1854.53 Q1446.47 1857.3 1446.02 1862.33 L1466.9 1862.29 Z" fill="#000000" fill-rule="evenodd" fill-opacity="1" /><path clip-path="url(#clip990)" d="M1512 1861.78 L1512 1883.3 L1506.14 1883.3 L1506.14 1861.98 Q1506.14 1856.92 1504.17 1854.4 Q1502.2 1851.89 1498.25 1851.89 Q1493.51 1851.89 1490.77 1854.91 Q1488.03 1857.93 1488.03 1863.15 L1488.03 1883.3 L1482.15 1883.3 L1482.15 1847.65 L1488.03 1847.65 L1488.03 1853.19 Q1490.13 1849.98 1492.97 1848.39 Q1495.83 1846.79 1499.56 1846.79 Q1505.7 1846.79 1508.85 1850.61 Q1512 1854.4 1512 1861.78 Z" fill="#000000" fill-rule="evenodd" fill-opacity="1" /><path clip-path="url(#clip990)" d="M1547.14 1865.06 Q1547.14 1858.7 1544.5 1855.2 Q1541.89 1851.7 1537.15 1851.7 Q1532.43 1851.7 1529.79 1855.2 Q1527.18 1858.7 1527.18 1865.06 Q1527.18 1871.4 1529.79 1874.9 Q1532.43 1878.4 1537.15 1878.4 Q1541.89 1878.4 1544.5 1874.9 Q1547.14 1871.4 1547.14 1865.06 M1553 1878.88 Q1553 1887.98 1548.95 1892.4 Q1544.91 1896.86 1536.57 1896.86 Q1533.49 1896.86 1530.75 1896.38 Q1528.01 1895.94 1525.43 1894.98 L1525.43 1889.28 Q1528.01 1890.69 1530.53 1891.35 Q1533.04 1892.02 1535.65 1892.02 Q1541.41 1892.02 1544.28 1889 Q1547.14 1886.01 1547.14 1879.93 L1547.14 1877.03 Q1545.33 1880.18 1542.49 1881.74 Q1539.66 1883.3 1535.71 1883.3 Q1529.16 1883.3 1525.15 1878.3 Q1521.14 1873.31 1521.14 1865.06 Q1521.14 1856.79 1525.15 1851.79 Q1529.16 1846.79 1535.71 1846.79 Q1539.66 1846.79 1542.49 1848.35 Q1545.33 1849.91 1547.14 1853.06 L1547.14 1847.65 L1553 1847.65 L1553 1878.88 Z" fill="#000000" fill-rule="evenodd" fill-opacity="1" /><path clip-path="url(#clip990)" d="M1570.85 1837.53 L1570.85 1847.65 L1582.92 1847.65 L1582.92 1852.2 L1570.85 1852.2 L1570.85 1871.56 Q1570.85 1875.92 1572.03 1877.16 Q1573.24 1878.4 1576.9 1878.4 L1582.92 1878.4 L1582.92 1883.3 L1576.9 1883.3 Q1570.12 1883.3 1567.54 1880.79 Q1564.96 1878.24 1564.96 1871.56 L1564.96 1852.2 L1560.67 1852.2 L1560.67 1847.65 L1564.96 1847.65 L1564.96 1837.53 L1570.85 1837.53 Z" fill="#000000" fill-rule="evenodd" fill-opacity="1" /><path clip-path="url(#clip990)" d="M1620.25 1861.78 L1620.25 1883.3 L1614.39 1883.3 L1614.39 1861.98 Q1614.39 1856.92 1612.42 1854.4 Q1610.45 1851.89 1606.5 1851.89 Q1601.76 1851.89 1599.02 1854.91 Q1596.28 1857.93 1596.28 1863.15 L1596.28 1883.3 L1590.39 1883.3 L1590.39 1833.78 L1596.28 1833.78 L1596.28 1853.19 Q1598.38 1849.98 1601.22 1848.39 Q1604.08 1846.79 1607.8 1846.79 Q1613.95 1846.79 1617.1 1850.61 Q1620.25 1854.4 1620.25 1861.78 Z" fill="#000000" fill-rule="evenodd" fill-opacity="1" /><polyline clip-path="url(#clip992)" style="stroke:#000000; stroke-linecap:round; stroke-linejoin:round; stroke-width:2; stroke-opacity:0.1; fill:none" points="
  226.141,1686.38 2640.76,1686.38 
  "/>
<polyline clip-path="url(#clip992)" style="stroke:#000000; stroke-linecap:round; stroke-linejoin:round; stroke-width:2; stroke-opacity:0.1; fill:none" points="
  226.141,1368.1 2640.76,1368.1 
  "/>
<polyline clip-path="url(#clip992)" style="stroke:#000000; stroke-linecap:round; stroke-linejoin:round; stroke-width:2; stroke-opacity:0.1; fill:none" points="
  226.141,1049.82 2640.76,1049.82 
  "/>
<polyline clip-path="url(#clip992)" style="stroke:#000000; stroke-linecap:round; stroke-linejoin:round; stroke-width:2; stroke-opacity:0.1; fill:none" points="
  226.141,731.542 2640.76,731.542 
  "/>
<polyline clip-path="url(#clip992)" style="stroke:#000000; stroke-linecap:round; stroke-linejoin:round; stroke-width:2; stroke-opacity:0.1; fill:none" points="
  226.141,413.264 2640.76,413.264 
  "/>
<polyline clip-path="url(#clip992)" style="stroke:#000000; stroke-linecap:round; stroke-linejoin:round; stroke-width:2; stroke-opacity:0.1; fill:none" points="
  226.141,94.9858 2640.76,94.9858 
  "/>
<polyline clip-path="url(#clip990)" style="stroke:#000000; stroke-linecap:round; stroke-linejoin:round; stroke-width:4; stroke-opacity:1; fill:none" points="
  226.141,1734.12 226.141,47.2441 
  "/>
<polyline clip-path="url(#clip990)" style="stroke:#000000; stroke-linecap:round; stroke-linejoin:round; stroke-width:4; stroke-opacity:1; fill:none" points="
  226.141,1686.38 245.038,1686.38 
  "/>
<polyline clip-path="url(#clip990)" style="stroke:#000000; stroke-linecap:round; stroke-linejoin:round; stroke-width:4; stroke-opacity:1; fill:none" points="
  226.141,1368.1 245.038,1368.1 
  "/>
<polyline clip-path="url(#clip990)" style="stroke:#000000; stroke-linecap:round; stroke-linejoin:round; stroke-width:4; stroke-opacity:1; fill:none" points="
  226.141,1049.82 245.038,1049.82 
  "/>
<polyline clip-path="url(#clip990)" style="stroke:#000000; stroke-linecap:round; stroke-linejoin:round; stroke-width:4; stroke-opacity:1; fill:none" points="
  226.141,731.542 245.038,731.542 
  "/>
<polyline clip-path="url(#clip990)" style="stroke:#000000; stroke-linecap:round; stroke-linejoin:round; stroke-width:4; stroke-opacity:1; fill:none" points="
  226.141,413.264 245.038,413.264 
  "/>
<polyline clip-path="url(#clip990)" style="stroke:#000000; stroke-linecap:round; stroke-linejoin:round; stroke-width:4; stroke-opacity:1; fill:none" points="
  226.141,94.9858 245.038,94.9858 
  "/>
<path clip-path="url(#clip990)" d="M129.872 1672.17 Q126.261 1672.17 124.432 1675.74 Q122.626 1679.28 122.626 1686.41 Q122.626 1693.52 124.432 1697.08 Q126.261 1700.62 129.872 1700.62 Q133.506 1700.62 135.312 1697.08 Q137.14 1693.52 137.14 1686.41 Q137.14 1679.28 135.312 1675.74 Q133.506 1672.17 129.872 1672.17 M129.872 1668.47 Q135.682 1668.47 138.737 1673.08 Q141.816 1677.66 141.816 1686.41 Q141.816 1695.14 138.737 1699.74 Q135.682 1704.33 129.872 1704.33 Q124.062 1704.33 120.983 1699.74 Q117.927 1695.14 117.927 1686.41 Q117.927 1677.66 120.983 1673.08 Q124.062 1668.47 129.872 1668.47 Z" fill="#000000" fill-rule="evenodd" fill-opacity="1" /><path clip-path="url(#clip990)" d="M150.034 1697.78 L154.918 1697.78 L154.918 1703.66 L150.034 1703.66 L150.034 1697.78 Z" fill="#000000" fill-rule="evenodd" fill-opacity="1" /><path clip-path="url(#clip990)" d="M165.913 1699.72 L173.552 1699.72 L173.552 1673.35 L165.242 1675.02 L165.242 1670.76 L173.506 1669.1 L178.182 1669.1 L178.182 1699.72 L185.821 1699.72 L185.821 1703.66 L165.913 1703.66 L165.913 1699.72 Z" fill="#000000" fill-rule="evenodd" fill-opacity="1" /><path clip-path="url(#clip990)" d="M130.242 1353.9 Q126.631 1353.9 124.802 1357.46 Q122.997 1361 122.997 1368.13 Q122.997 1375.24 124.802 1378.8 Q126.631 1382.35 130.242 1382.35 Q133.876 1382.35 135.682 1378.8 Q137.511 1375.24 137.511 1368.13 Q137.511 1361 135.682 1357.46 Q133.876 1353.9 130.242 1353.9 M130.242 1350.19 Q136.052 1350.19 139.108 1354.8 Q142.187 1359.38 142.187 1368.13 Q142.187 1376.86 139.108 1381.47 Q136.052 1386.05 130.242 1386.05 Q124.432 1386.05 121.353 1381.47 Q118.298 1376.86 118.298 1368.13 Q118.298 1359.38 121.353 1354.8 Q124.432 1350.19 130.242 1350.19 Z" fill="#000000" fill-rule="evenodd" fill-opacity="1" /><path clip-path="url(#clip990)" d="M150.404 1379.5 L155.288 1379.5 L155.288 1385.38 L150.404 1385.38 L150.404 1379.5 Z" fill="#000000" fill-rule="evenodd" fill-opacity="1" /><path clip-path="url(#clip990)" d="M169.501 1381.44 L185.821 1381.44 L185.821 1385.38 L163.876 1385.38 L163.876 1381.44 Q166.538 1378.69 171.122 1374.06 Q175.728 1369.41 176.909 1368.06 Q179.154 1365.54 180.034 1363.8 Q180.936 1362.04 180.936 1360.35 Q180.936 1357.6 178.992 1355.86 Q177.071 1354.13 173.969 1354.13 Q171.77 1354.13 169.316 1354.89 Q166.885 1355.66 164.108 1357.21 L164.108 1352.48 Q166.932 1351.35 169.385 1350.77 Q171.839 1350.19 173.876 1350.19 Q179.247 1350.19 182.441 1352.88 Q185.635 1355.56 185.635 1360.05 Q185.635 1362.18 184.825 1364.1 Q184.038 1366 181.932 1368.6 Q181.353 1369.27 178.251 1372.48 Q175.149 1375.68 169.501 1381.44 Z" fill="#000000" fill-rule="evenodd" fill-opacity="1" /><path clip-path="url(#clip990)" d="M129.293 1035.62 Q125.682 1035.62 123.853 1039.18 Q122.048 1042.72 122.048 1049.85 Q122.048 1056.96 123.853 1060.53 Q125.682 1064.07 129.293 1064.07 Q132.927 1064.07 134.733 1060.53 Q136.562 1056.96 136.562 1049.85 Q136.562 1042.72 134.733 1039.18 Q132.927 1035.62 129.293 1035.62 M129.293 1031.91 Q135.103 1031.91 138.159 1036.52 Q141.237 1041.1 141.237 1049.85 Q141.237 1058.58 138.159 1063.19 Q135.103 1067.77 129.293 1067.77 Q123.483 1067.77 120.404 1063.19 Q117.349 1058.58 117.349 1049.85 Q117.349 1041.1 120.404 1036.52 Q123.483 1031.91 129.293 1031.91 Z" fill="#000000" fill-rule="evenodd" fill-opacity="1" /><path clip-path="url(#clip990)" d="M149.455 1061.22 L154.339 1061.22 L154.339 1067.1 L149.455 1067.1 L149.455 1061.22 Z" fill="#000000" fill-rule="evenodd" fill-opacity="1" /><path clip-path="url(#clip990)" d="M178.691 1048.47 Q182.047 1049.18 183.922 1051.45 Q185.821 1053.72 185.821 1057.05 Q185.821 1062.17 182.302 1064.97 Q178.784 1067.77 172.302 1067.77 Q170.126 1067.77 167.811 1067.33 Q165.52 1066.91 163.066 1066.06 L163.066 1061.54 Q165.01 1062.68 167.325 1063.26 Q169.64 1063.84 172.163 1063.84 Q176.561 1063.84 178.853 1062.1 Q181.168 1060.36 181.168 1057.05 Q181.168 1054 179.015 1052.28 Q176.885 1050.55 173.066 1050.55 L169.038 1050.55 L169.038 1046.71 L173.251 1046.71 Q176.7 1046.71 178.529 1045.34 Q180.358 1043.95 180.358 1041.36 Q180.358 1038.7 178.459 1037.28 Q176.584 1035.85 173.066 1035.85 Q171.145 1035.85 168.946 1036.27 Q166.747 1036.68 164.108 1037.56 L164.108 1033.4 Q166.77 1032.66 169.085 1032.28 Q171.422 1031.91 173.483 1031.91 Q178.807 1031.91 181.909 1034.35 Q185.01 1036.75 185.01 1040.87 Q185.01 1043.74 183.367 1045.73 Q181.723 1047.7 178.691 1048.47 Z" fill="#000000" fill-rule="evenodd" fill-opacity="1" /><path clip-path="url(#clip990)" d="M128.159 717.34 Q124.548 717.34 122.719 720.905 Q120.913 724.447 120.913 731.576 Q120.913 738.683 122.719 742.248 Q124.548 745.789 128.159 745.789 Q131.793 745.789 133.599 742.248 Q135.427 738.683 135.427 731.576 Q135.427 724.447 133.599 720.905 Q131.793 717.34 128.159 717.34 M128.159 713.637 Q133.969 713.637 137.025 718.243 Q140.103 722.826 140.103 731.576 Q140.103 740.303 137.025 744.91 Q133.969 749.493 128.159 749.493 Q122.349 749.493 119.27 744.91 Q116.214 740.303 116.214 731.576 Q116.214 722.826 119.27 718.243 Q122.349 713.637 128.159 713.637 Z" fill="#000000" fill-rule="evenodd" fill-opacity="1" /><path clip-path="url(#clip990)" d="M148.321 742.942 L153.205 742.942 L153.205 748.822 L148.321 748.822 L148.321 742.942 Z" fill="#000000" fill-rule="evenodd" fill-opacity="1" /><path clip-path="url(#clip990)" d="M176.237 718.336 L164.432 736.785 L176.237 736.785 L176.237 718.336 M175.01 714.262 L180.89 714.262 L180.89 736.785 L185.821 736.785 L185.821 740.673 L180.89 740.673 L180.89 748.822 L176.237 748.822 L176.237 740.673 L160.636 740.673 L160.636 736.16 L175.01 714.262 Z" fill="#000000" fill-rule="evenodd" fill-opacity="1" /><path clip-path="url(#clip990)" d="M129.64 399.062 Q126.029 399.062 124.201 402.627 Q122.395 406.169 122.395 413.298 Q122.395 420.405 124.201 423.97 Q126.029 427.511 129.64 427.511 Q133.275 427.511 135.08 423.97 Q136.909 420.405 136.909 413.298 Q136.909 406.169 135.08 402.627 Q133.275 399.062 129.64 399.062 M129.64 395.359 Q135.45 395.359 138.506 399.965 Q141.585 404.548 141.585 413.298 Q141.585 422.025 138.506 426.632 Q135.45 431.215 129.64 431.215 Q123.83 431.215 120.751 426.632 Q117.696 422.025 117.696 413.298 Q117.696 404.548 120.751 399.965 Q123.83 395.359 129.64 395.359 Z" fill="#000000" fill-rule="evenodd" fill-opacity="1" /><path clip-path="url(#clip990)" d="M149.802 424.664 L154.686 424.664 L154.686 430.544 L149.802 430.544 L149.802 424.664 Z" fill="#000000" fill-rule="evenodd" fill-opacity="1" /><path clip-path="url(#clip990)" d="M164.918 395.984 L183.274 395.984 L183.274 399.919 L169.2 399.919 L169.2 408.391 Q170.219 408.044 171.237 407.882 Q172.256 407.697 173.274 407.697 Q179.061 407.697 182.441 410.868 Q185.821 414.039 185.821 419.456 Q185.821 425.034 182.348 428.136 Q178.876 431.215 172.557 431.215 Q170.381 431.215 168.112 430.845 Q165.867 430.474 163.46 429.734 L163.46 425.034 Q165.543 426.169 167.765 426.724 Q169.987 427.28 172.464 427.28 Q176.469 427.28 178.807 425.173 Q181.145 423.067 181.145 419.456 Q181.145 415.845 178.807 413.738 Q176.469 411.632 172.464 411.632 Q170.589 411.632 168.714 412.048 Q166.862 412.465 164.918 413.345 L164.918 395.984 Z" fill="#000000" fill-rule="evenodd" fill-opacity="1" /><path clip-path="url(#clip990)" d="M128.483 80.7845 Q124.872 80.7845 123.043 84.3493 Q121.238 87.8909 121.238 95.0205 Q121.238 102.127 123.043 105.692 Q124.872 109.233 128.483 109.233 Q132.117 109.233 133.923 105.692 Q135.751 102.127 135.751 95.0205 Q135.751 87.8909 133.923 84.3493 Q132.117 80.7845 128.483 80.7845 M128.483 77.0808 Q134.293 77.0808 137.349 81.6872 Q140.427 86.2705 140.427 95.0205 Q140.427 103.747 137.349 108.354 Q134.293 112.937 128.483 112.937 Q122.673 112.937 119.594 108.354 Q116.539 103.747 116.539 95.0205 Q116.539 86.2705 119.594 81.6872 Q122.673 77.0808 128.483 77.0808 Z" fill="#000000" fill-rule="evenodd" fill-opacity="1" /><path clip-path="url(#clip990)" d="M148.645 106.386 L153.529 106.386 L153.529 112.266 L148.645 112.266 L148.645 106.386 Z" fill="#000000" fill-rule="evenodd" fill-opacity="1" /><path clip-path="url(#clip990)" d="M174.293 93.1224 Q171.145 93.1224 169.293 95.2751 Q167.464 97.4279 167.464 101.178 Q167.464 104.905 169.293 107.081 Q171.145 109.233 174.293 109.233 Q177.441 109.233 179.27 107.081 Q181.122 104.905 181.122 101.178 Q181.122 97.4279 179.27 95.2751 Q177.441 93.1224 174.293 93.1224 M183.575 78.4697 L183.575 82.7289 Q181.816 81.8956 180.01 81.4558 Q178.228 81.0159 176.469 81.0159 Q171.839 81.0159 169.385 84.1409 Q166.955 87.2659 166.608 93.5853 Q167.973 91.5714 170.034 90.5066 Q172.094 89.4187 174.571 89.4187 Q179.779 89.4187 182.788 92.59 Q185.821 95.7381 185.821 101.178 Q185.821 106.502 182.672 109.719 Q179.524 112.937 174.293 112.937 Q168.297 112.937 165.126 108.354 Q161.955 103.747 161.955 95.0205 Q161.955 86.8261 165.844 81.965 Q169.733 77.0808 176.284 77.0808 Q178.043 77.0808 179.825 77.428 Q181.631 77.7752 183.575 78.4697 Z" fill="#000000" fill-rule="evenodd" fill-opacity="1" /><path clip-path="url(#clip990)" d="M19.402 1053.32 L37.2578 1053.32 L37.2578 1045.24 Q37.2578 1040.75 34.9343 1038.3 Q32.6108 1035.85 28.314 1035.85 Q24.0489 1035.85 21.7255 1038.3 Q19.402 1040.75 19.402 1045.24 L19.402 1053.32 M14.1184 1059.75 L14.1184 1045.24 Q14.1184 1037.25 17.7469 1033.18 Q21.3435 1029.07 28.314 1029.07 Q35.3481 1029.07 38.9447 1033.18 Q42.5413 1037.25 42.5413 1045.24 L42.5413 1053.32 L61.6384 1053.32 L61.6384 1059.75 L14.1184 1059.75 Z" fill="#000000" fill-rule="evenodd" fill-opacity="1" /><path clip-path="url(#clip990)" d="M42.3504 992.532 L45.2149 992.532 L45.2149 1019.46 Q51.2623 1019.08 54.4452 1015.83 Q57.5962 1012.55 57.5962 1006.73 Q57.5962 1003.35 56.7687 1000.2 Q55.9411 997.02 54.2861 993.9 L59.8242 993.9 Q61.161 997.051 61.8612 1000.36 Q62.5615 1003.67 62.5615 1007.08 Q62.5615 1015.61 57.5962 1020.6 Q52.631 1025.57 44.1646 1025.57 Q35.4117 1025.57 30.2873 1020.86 Q25.1311 1016.12 25.1311 1008.1 Q25.1311 1000.9 29.7781 996.733 Q34.3932 992.532 42.3504 992.532 M40.6316 998.388 Q35.8255 998.452 32.9609 1001.09 Q30.0964 1003.7 30.0964 1008.03 Q30.0964 1012.93 32.8654 1015.89 Q35.6345 1018.82 40.6634 1019.27 L40.6316 998.388 Z" fill="#000000" fill-rule="evenodd" fill-opacity="1" /><path clip-path="url(#clip990)" d="M15.869 977.127 L25.9905 977.127 L25.9905 965.064 L30.542 965.064 L30.542 977.127 L49.8937 977.127 Q54.2542 977.127 55.4955 975.949 Q56.7368 974.74 56.7368 971.079 L56.7368 965.064 L61.6384 965.064 L61.6384 971.079 Q61.6384 977.859 59.124 980.437 Q56.5777 983.015 49.8937 983.015 L30.542 983.015 L30.542 987.312 L25.9905 987.312 L25.9905 983.015 L15.869 983.015 L15.869 977.127 Z" fill="#000000" fill-rule="evenodd" fill-opacity="1" /><path clip-path="url(#clip990)" d="M43.719 941.161 Q43.719 948.258 45.3422 950.996 Q46.9655 953.733 50.8804 953.733 Q53.9996 953.733 55.8457 951.696 Q57.6599 949.627 57.6599 946.094 Q57.6599 941.224 54.2224 938.296 Q50.7531 935.336 45.0239 935.336 L43.719 935.336 L43.719 941.161 M41.3 929.48 L61.6384 929.48 L61.6384 935.336 L56.2276 935.336 Q59.4741 937.341 61.0337 940.333 Q62.5615 943.325 62.5615 947.654 Q62.5615 953.128 59.5059 956.375 Q56.4186 959.589 51.2623 959.589 Q45.2467 959.589 42.1912 955.579 Q39.1357 951.537 39.1357 943.548 L39.1357 935.336 L38.5628 935.336 Q34.5205 935.336 32.3244 938.01 Q30.0964 940.651 30.0964 945.457 Q30.0964 948.513 30.8284 951.409 Q31.5605 954.306 33.0246 956.979 L27.6137 956.979 Q26.3724 953.765 25.7677 950.741 Q25.1311 947.717 25.1311 944.853 Q25.1311 937.118 29.1415 933.299 Q33.1519 929.48 41.3 929.48 Z" fill="#000000" fill-rule="evenodd" fill-opacity="1" /><path clip-path="url(#clip990)" d="M12.1132 917.417 L12.1132 911.56 L61.6384 911.56 L61.6384 917.417 L12.1132 917.417 Z" fill="#000000" fill-rule="evenodd" fill-opacity="1" /><path clip-path="url(#clip990)" d="M14.1184 903.285 L14.1184 896.792 L54.2861 886.797 L14.1184 876.835 L14.1184 869.61 L54.2861 859.616 L14.1184 849.654 L14.1184 843.129 L61.6384 855.064 L61.6384 863.149 L20.3887 873.175 L61.6384 883.296 L61.6384 891.381 L14.1184 903.285 Z" fill="#000000" fill-rule="evenodd" fill-opacity="1" /><path clip-path="url(#clip990)" d="M25.9905 836.286 L25.9905 830.429 L61.6384 830.429 L61.6384 836.286 L25.9905 836.286 M12.1132 836.286 L12.1132 830.429 L19.5293 830.429 L19.5293 836.286 L12.1132 836.286 Z" fill="#000000" fill-rule="evenodd" fill-opacity="1" /><path clip-path="url(#clip990)" d="M31.4013 794.718 L12.1132 794.718 L12.1132 788.861 L61.6384 788.861 L61.6384 794.718 L56.2912 794.718 Q59.4741 796.564 61.0337 799.396 Q62.5615 802.197 62.5615 806.144 Q62.5615 812.605 57.4052 816.679 Q52.249 820.721 43.8463 820.721 Q35.4436 820.721 30.2873 816.679 Q25.1311 812.605 25.1311 806.144 Q25.1311 802.197 26.6907 799.396 Q28.2185 796.564 31.4013 794.718 M43.8463 814.674 Q50.3075 814.674 53.9996 812.032 Q57.6599 809.359 57.6599 804.712 Q57.6599 800.065 53.9996 797.391 Q50.3075 794.718 43.8463 794.718 Q37.3851 794.718 33.7248 797.391 Q30.0327 800.065 30.0327 804.712 Q30.0327 809.359 33.7248 812.032 Q37.3851 814.674 43.8463 814.674 Z" fill="#000000" fill-rule="evenodd" fill-opacity="1" /><path clip-path="url(#clip990)" d="M15.869 771.005 L25.9905 771.005 L25.9905 758.942 L30.542 758.942 L30.542 771.005 L49.8937 771.005 Q54.2542 771.005 55.4955 769.828 Q56.7368 768.618 56.7368 764.958 L56.7368 758.942 L61.6384 758.942 L61.6384 764.958 Q61.6384 771.737 59.124 774.315 Q56.5777 776.894 49.8937 776.894 L30.542 776.894 L30.542 781.19 L25.9905 781.19 L25.9905 776.894 L15.869 776.894 L15.869 771.005 Z" fill="#000000" fill-rule="evenodd" fill-opacity="1" /><path clip-path="url(#clip990)" d="M40.1224 721.607 L61.6384 721.607 L61.6384 727.464 L40.3133 727.464 Q35.2526 727.464 32.7381 729.437 Q30.2237 731.411 30.2237 735.357 Q30.2237 740.1 33.2474 742.837 Q36.2711 745.574 41.491 745.574 L61.6384 745.574 L61.6384 751.463 L12.1132 751.463 L12.1132 745.574 L31.5287 745.574 Q28.314 743.474 26.7225 740.641 Q25.1311 737.776 25.1311 734.052 Q25.1311 727.909 28.9505 724.758 Q32.7381 721.607 40.1224 721.607 Z" fill="#000000" fill-rule="evenodd" fill-opacity="1" /><circle clip-path="url(#clip992)" cx="1306.9" cy="1368.1" r="14.4" fill="#009af9" fill-rule="evenodd" fill-opacity="1" stroke="#000000" stroke-opacity="1" stroke-width="3.84"/>
<circle clip-path="url(#clip992)" cx="1306.9" cy="1368.1" r="14.4" fill="#009af9" fill-rule="evenodd" fill-opacity="1" stroke="#000000" stroke-opacity="1" stroke-width="3.84"/>
<circle clip-path="url(#clip992)" cx="1053.79" cy="1368.1" r="14.4" fill="#009af9" fill-rule="evenodd" fill-opacity="1" stroke="#000000" stroke-opacity="1" stroke-width="3.84"/>
<circle clip-path="url(#clip992)" cx="1560" cy="1368.1" r="14.4" fill="#009af9" fill-rule="evenodd" fill-opacity="1" stroke="#000000" stroke-opacity="1" stroke-width="3.84"/>
<circle clip-path="url(#clip992)" cx="1306.9" cy="1368.1" r="14.4" fill="#009af9" fill-rule="evenodd" fill-opacity="1" stroke="#000000" stroke-opacity="1" stroke-width="3.84"/>
<circle clip-path="url(#clip992)" cx="2066.21" cy="731.542" r="14.4" fill="#009af9" fill-rule="evenodd" fill-opacity="1" stroke="#000000" stroke-opacity="1" stroke-width="3.84"/>
<circle clip-path="url(#clip992)" cx="1306.9" cy="1049.82" r="14.4" fill="#009af9" fill-rule="evenodd" fill-opacity="1" stroke="#000000" stroke-opacity="1" stroke-width="3.84"/>
<circle clip-path="url(#clip992)" cx="1560" cy="1368.1" r="14.4" fill="#009af9" fill-rule="evenodd" fill-opacity="1" stroke="#000000" stroke-opacity="1" stroke-width="3.84"/>
<circle clip-path="url(#clip992)" cx="1306.9" cy="1368.1" r="14.4" fill="#009af9" fill-rule="evenodd" fill-opacity="1" stroke="#000000" stroke-opacity="1" stroke-width="3.84"/>
<circle clip-path="url(#clip992)" cx="1560" cy="1686.38" r="14.4" fill="#009af9" fill-rule="evenodd" fill-opacity="1" stroke="#000000" stroke-opacity="1" stroke-width="3.84"/>
<circle clip-path="url(#clip992)" cx="1560" cy="1368.1" r="14.4" fill="#009af9" fill-rule="evenodd" fill-opacity="1" stroke="#000000" stroke-opacity="1" stroke-width="3.84"/>
<circle clip-path="url(#clip992)" cx="1813.1" cy="1368.1" r="14.4" fill="#009af9" fill-rule="evenodd" fill-opacity="1" stroke="#000000" stroke-opacity="1" stroke-width="3.84"/>
<circle clip-path="url(#clip992)" cx="1306.9" cy="1686.38" r="14.4" fill="#009af9" fill-rule="evenodd" fill-opacity="1" stroke="#000000" stroke-opacity="1" stroke-width="3.84"/>
<circle clip-path="url(#clip992)" cx="547.583" cy="1686.38" r="14.4" fill="#009af9" fill-rule="evenodd" fill-opacity="1" stroke="#000000" stroke-opacity="1" stroke-width="3.84"/>
<circle clip-path="url(#clip992)" cx="800.687" cy="1368.1" r="14.4" fill="#009af9" fill-rule="evenodd" fill-opacity="1" stroke="#000000" stroke-opacity="1" stroke-width="3.84"/>
<circle clip-path="url(#clip992)" cx="1560" cy="731.542" r="14.4" fill="#009af9" fill-rule="evenodd" fill-opacity="1" stroke="#000000" stroke-opacity="1" stroke-width="3.84"/>
<circle clip-path="url(#clip992)" cx="1053.79" cy="731.542" r="14.4" fill="#009af9" fill-rule="evenodd" fill-opacity="1" stroke="#000000" stroke-opacity="1" stroke-width="3.84"/>
<circle clip-path="url(#clip992)" cx="1306.9" cy="1049.82" r="14.4" fill="#009af9" fill-rule="evenodd" fill-opacity="1" stroke="#000000" stroke-opacity="1" stroke-width="3.84"/>
<circle clip-path="url(#clip992)" cx="2066.21" cy="1049.82" r="14.4" fill="#009af9" fill-rule="evenodd" fill-opacity="1" stroke="#000000" stroke-opacity="1" stroke-width="3.84"/>
<circle clip-path="url(#clip992)" cx="1560" cy="1049.82" r="14.4" fill="#009af9" fill-rule="evenodd" fill-opacity="1" stroke="#000000" stroke-opacity="1" stroke-width="3.84"/>
<circle clip-path="url(#clip992)" cx="2066.21" cy="1368.1" r="14.4" fill="#009af9" fill-rule="evenodd" fill-opacity="1" stroke="#000000" stroke-opacity="1" stroke-width="3.84"/>
<circle clip-path="url(#clip992)" cx="1560" cy="731.542" r="14.4" fill="#009af9" fill-rule="evenodd" fill-opacity="1" stroke="#000000" stroke-opacity="1" stroke-width="3.84"/>
<circle clip-path="url(#clip992)" cx="294.479" cy="1368.1" r="14.4" fill="#009af9" fill-rule="evenodd" fill-opacity="1" stroke="#000000" stroke-opacity="1" stroke-width="3.84"/>
<circle clip-path="url(#clip992)" cx="2066.21" cy="413.264" r="14.4" fill="#009af9" fill-rule="evenodd" fill-opacity="1" stroke="#000000" stroke-opacity="1" stroke-width="3.84"/>
<circle clip-path="url(#clip992)" cx="2572.42" cy="1368.1" r="14.4" fill="#009af9" fill-rule="evenodd" fill-opacity="1" stroke="#000000" stroke-opacity="1" stroke-width="3.84"/>
<circle clip-path="url(#clip992)" cx="1813.1" cy="1368.1" r="14.4" fill="#009af9" fill-rule="evenodd" fill-opacity="1" stroke="#000000" stroke-opacity="1" stroke-width="3.84"/>
<circle clip-path="url(#clip992)" cx="1813.1" cy="731.542" r="14.4" fill="#009af9" fill-rule="evenodd" fill-opacity="1" stroke="#000000" stroke-opacity="1" stroke-width="3.84"/>
<circle clip-path="url(#clip992)" cx="1560" cy="1368.1" r="14.4" fill="#009af9" fill-rule="evenodd" fill-opacity="1" stroke="#000000" stroke-opacity="1" stroke-width="3.84"/>
<circle clip-path="url(#clip992)" cx="1306.9" cy="1368.1" r="14.4" fill="#009af9" fill-rule="evenodd" fill-opacity="1" stroke="#000000" stroke-opacity="1" stroke-width="3.84"/>
<circle clip-path="url(#clip992)" cx="1813.1" cy="1368.1" r="14.4" fill="#009af9" fill-rule="evenodd" fill-opacity="1" stroke="#000000" stroke-opacity="1" stroke-width="3.84"/>
<circle clip-path="url(#clip992)" cx="1813.1" cy="1368.1" r="14.4" fill="#009af9" fill-rule="evenodd" fill-opacity="1" stroke="#000000" stroke-opacity="1" stroke-width="3.84"/>
<circle clip-path="url(#clip992)" cx="1560" cy="731.542" r="14.4" fill="#009af9" fill-rule="evenodd" fill-opacity="1" stroke="#000000" stroke-opacity="1" stroke-width="3.84"/>
<circle clip-path="url(#clip992)" cx="1560" cy="1686.38" r="14.4" fill="#009af9" fill-rule="evenodd" fill-opacity="1" stroke="#000000" stroke-opacity="1" stroke-width="3.84"/>
<circle clip-path="url(#clip992)" cx="1306.9" cy="1368.1" r="14.4" fill="#009af9" fill-rule="evenodd" fill-opacity="1" stroke="#000000" stroke-opacity="1" stroke-width="3.84"/>
<circle clip-path="url(#clip992)" cx="1560" cy="1368.1" r="14.4" fill="#009af9" fill-rule="evenodd" fill-opacity="1" stroke="#000000" stroke-opacity="1" stroke-width="3.84"/>
<circle clip-path="url(#clip992)" cx="800.687" cy="1368.1" r="14.4" fill="#009af9" fill-rule="evenodd" fill-opacity="1" stroke="#000000" stroke-opacity="1" stroke-width="3.84"/>
<circle clip-path="url(#clip992)" cx="1053.79" cy="1368.1" r="14.4" fill="#009af9" fill-rule="evenodd" fill-opacity="1" stroke="#000000" stroke-opacity="1" stroke-width="3.84"/>
<circle clip-path="url(#clip992)" cx="1306.9" cy="1686.38" r="14.4" fill="#009af9" fill-rule="evenodd" fill-opacity="1" stroke="#000000" stroke-opacity="1" stroke-width="3.84"/>
<circle clip-path="url(#clip992)" cx="1053.79" cy="1368.1" r="14.4" fill="#009af9" fill-rule="evenodd" fill-opacity="1" stroke="#000000" stroke-opacity="1" stroke-width="3.84"/>
<circle clip-path="url(#clip992)" cx="1560" cy="1368.1" r="14.4" fill="#009af9" fill-rule="evenodd" fill-opacity="1" stroke="#000000" stroke-opacity="1" stroke-width="3.84"/>
<circle clip-path="url(#clip992)" cx="1053.79" cy="1049.82" r="14.4" fill="#009af9" fill-rule="evenodd" fill-opacity="1" stroke="#000000" stroke-opacity="1" stroke-width="3.84"/>
<circle clip-path="url(#clip992)" cx="1053.79" cy="1049.82" r="14.4" fill="#009af9" fill-rule="evenodd" fill-opacity="1" stroke="#000000" stroke-opacity="1" stroke-width="3.84"/>
<circle clip-path="url(#clip992)" cx="1053.79" cy="1368.1" r="14.4" fill="#009af9" fill-rule="evenodd" fill-opacity="1" stroke="#000000" stroke-opacity="1" stroke-width="3.84"/>
<circle clip-path="url(#clip992)" cx="1813.1" cy="94.9858" r="14.4" fill="#009af9" fill-rule="evenodd" fill-opacity="1" stroke="#000000" stroke-opacity="1" stroke-width="3.84"/>
<circle clip-path="url(#clip992)" cx="2572.42" cy="731.542" r="14.4" fill="#009af9" fill-rule="evenodd" fill-opacity="1" stroke="#000000" stroke-opacity="1" stroke-width="3.84"/>
<circle clip-path="url(#clip992)" cx="1306.9" cy="1049.82" r="14.4" fill="#009af9" fill-rule="evenodd" fill-opacity="1" stroke="#000000" stroke-opacity="1" stroke-width="3.84"/>
<circle clip-path="url(#clip992)" cx="1813.1" cy="1368.1" r="14.4" fill="#009af9" fill-rule="evenodd" fill-opacity="1" stroke="#000000" stroke-opacity="1" stroke-width="3.84"/>
<circle clip-path="url(#clip992)" cx="1306.9" cy="1368.1" r="14.4" fill="#009af9" fill-rule="evenodd" fill-opacity="1" stroke="#000000" stroke-opacity="1" stroke-width="3.84"/>
<circle clip-path="url(#clip992)" cx="1560" cy="1368.1" r="14.4" fill="#009af9" fill-rule="evenodd" fill-opacity="1" stroke="#000000" stroke-opacity="1" stroke-width="3.84"/>
<circle clip-path="url(#clip992)" cx="1306.9" cy="1368.1" r="14.4" fill="#009af9" fill-rule="evenodd" fill-opacity="1" stroke="#000000" stroke-opacity="1" stroke-width="3.84"/>
<polyline clip-path="url(#clip992)" style="stroke:#e26f46; stroke-linecap:round; stroke-linejoin:round; stroke-width:4; stroke-opacity:1; fill:none" stroke-dasharray="16, 10" points="
  1463.82,3420.99 1463.82,-1639.63 
  "/>
<polyline clip-path="url(#clip992)" style="stroke:#3da44d; stroke-linecap:round; stroke-linejoin:round; stroke-width:4; stroke-opacity:1; fill:none" stroke-dasharray="16, 10" points="
  -2188.47,1221.69 5055.37,1221.69 
  "/>
</svg>
