<?xml version="1.0" encoding="utf-8"?>
<svg xmlns="http://www.w3.org/2000/svg" xmlns:xlink="http://www.w3.org/1999/xlink" width="576" height="384" viewBox="0 0 2304 1536">
<defs>
  <clipPath id="clip280">
    <rect x="0" y="0" width="2304" height="1536"/>
  </clipPath>
</defs>
<path clip-path="url(#clip280)" d="
M0 1536 L2304 1536 L2304 0 L0 0  Z
  " fill="#ffffff" fill-rule="evenodd" fill-opacity="1"/>
<defs>
  <clipPath id="clip281">
    <rect x="460" y="0" width="1614" height="1536"/>
  </clipPath>
</defs>
<path clip-path="url(#clip280)" d="
M222.143 1423.09 L1104.76 1423.09 L1104.76 47.2441 L222.143 47.2441  Z
  " fill="#ffffff" fill-rule="evenodd" fill-opacity="1"/>
<defs>
  <clipPath id="clip282">
    <rect x="222" y="47" width="884" height="1377"/>
  </clipPath>
</defs>
<polyline clip-path="url(#clip282)" style="stroke:#000000; stroke-linecap:round; stroke-linejoin:round; stroke-width:2; stroke-opacity:0.1; fill:none" points="
  229.696,1423.09 229.696,47.2441 
  "/>
<polyline clip-path="url(#clip282)" style="stroke:#000000; stroke-linecap:round; stroke-linejoin:round; stroke-width:2; stroke-opacity:0.1; fill:none" points="
  376.843,1423.09 376.843,47.2441 
  "/>
<polyline clip-path="url(#clip282)" style="stroke:#000000; stroke-linecap:round; stroke-linejoin:round; stroke-width:2; stroke-opacity:0.1; fill:none" points="
  523.991,1423.09 523.991,47.2441 
  "/>
<polyline clip-path="url(#clip282)" style="stroke:#000000; stroke-linecap:round; stroke-linejoin:round; stroke-width:2; stroke-opacity:0.1; fill:none" points="
  671.138,1423.09 671.138,47.2441 
  "/>
<polyline clip-path="url(#clip282)" style="stroke:#000000; stroke-linecap:round; stroke-linejoin:round; stroke-width:2; stroke-opacity:0.1; fill:none" points="
  818.286,1423.09 818.286,47.2441 
  "/>
<polyline clip-path="url(#clip282)" style="stroke:#000000; stroke-linecap:round; stroke-linejoin:round; stroke-width:2; stroke-opacity:0.1; fill:none" points="
  965.434,1423.09 965.434,47.2441 
  "/>
<polyline clip-path="url(#clip280)" style="stroke:#000000; stroke-linecap:round; stroke-linejoin:round; stroke-width:4; stroke-opacity:1; fill:none" points="
  222.143,1423.09 1104.76,1423.09 
  "/>
<polyline clip-path="url(#clip280)" style="stroke:#000000; stroke-linecap:round; stroke-linejoin:round; stroke-width:4; stroke-opacity:1; fill:none" points="
  229.696,1423.09 229.696,1404.19 
  "/>
<polyline clip-path="url(#clip280)" style="stroke:#000000; stroke-linecap:round; stroke-linejoin:round; stroke-width:4; stroke-opacity:1; fill:none" points="
  376.843,1423.09 376.843,1404.19 
  "/>
<polyline clip-path="url(#clip280)" style="stroke:#000000; stroke-linecap:round; stroke-linejoin:round; stroke-width:4; stroke-opacity:1; fill:none" points="
  523.991,1423.09 523.991,1404.19 
  "/>
<polyline clip-path="url(#clip280)" style="stroke:#000000; stroke-linecap:round; stroke-linejoin:round; stroke-width:4; stroke-opacity:1; fill:none" points="
  671.138,1423.09 671.138,1404.19 
  "/>
<polyline clip-path="url(#clip280)" style="stroke:#000000; stroke-linecap:round; stroke-linejoin:round; stroke-width:4; stroke-opacity:1; fill:none" points="
  818.286,1423.09 818.286,1404.19 
  "/>
<polyline clip-path="url(#clip280)" style="stroke:#000000; stroke-linecap:round; stroke-linejoin:round; stroke-width:4; stroke-opacity:1; fill:none" points="
  965.434,1423.09 965.434,1404.19 
  "/>
<path clip-path="url(#clip280)" d="M192.497 1453.24 Q188.886 1453.24 187.057 1456.8 Q185.252 1460.35 185.252 1467.47 Q185.252 1474.58 187.057 1478.15 Q188.886 1481.69 192.497 1481.69 Q196.131 1481.69 197.937 1478.15 Q199.766 1474.58 199.766 1467.47 Q199.766 1460.35 197.937 1456.8 Q196.131 1453.24 192.497 1453.24 M192.497 1449.53 Q198.307 1449.53 201.363 1454.14 Q204.441 1458.72 204.441 1467.47 Q204.441 1476.2 201.363 1480.81 Q198.307 1485.39 192.497 1485.39 Q186.687 1485.39 183.608 1480.81 Q180.553 1476.2 180.553 1467.47 Q180.553 1458.72 183.608 1454.14 Q186.687 1449.53 192.497 1449.53 Z" fill="#000000" fill-rule="evenodd" fill-opacity="1" /><path clip-path="url(#clip280)" d="M212.659 1478.84 L217.543 1478.84 L217.543 1484.72 L212.659 1484.72 L212.659 1478.84 Z" fill="#000000" fill-rule="evenodd" fill-opacity="1" /><path clip-path="url(#clip280)" d="M226.548 1450.16 L248.77 1450.16 L248.77 1452.15 L236.224 1484.72 L231.339 1484.72 L243.145 1454.1 L226.548 1454.1 L226.548 1450.16 Z" fill="#000000" fill-rule="evenodd" fill-opacity="1" /><path clip-path="url(#clip280)" d="M257.936 1450.16 L276.293 1450.16 L276.293 1454.1 L262.219 1454.1 L262.219 1462.57 Q263.237 1462.22 264.256 1462.06 Q265.274 1461.87 266.293 1461.87 Q272.08 1461.87 275.46 1465.04 Q278.839 1468.22 278.839 1473.63 Q278.839 1479.21 275.367 1482.31 Q271.895 1485.39 265.575 1485.39 Q263.399 1485.39 261.131 1485.02 Q258.886 1484.65 256.478 1483.91 L256.478 1479.21 Q258.561 1480.34 260.784 1480.9 Q263.006 1481.46 265.483 1481.46 Q269.487 1481.46 271.825 1479.35 Q274.163 1477.24 274.163 1473.63 Q274.163 1470.02 271.825 1467.91 Q269.487 1465.81 265.483 1465.81 Q263.608 1465.81 261.733 1466.22 Q259.881 1466.64 257.936 1467.52 L257.936 1450.16 Z" fill="#000000" fill-rule="evenodd" fill-opacity="1" /><path clip-path="url(#clip280)" d="M328.915 1480.78 L336.554 1480.78 L336.554 1454.42 L328.244 1456.09 L328.244 1451.83 L336.508 1450.16 L341.184 1450.16 L341.184 1480.78 L348.823 1480.78 L348.823 1484.72 L328.915 1484.72 L328.915 1480.78 Z" fill="#000000" fill-rule="evenodd" fill-opacity="1" /><path clip-path="url(#clip280)" d="M358.267 1478.84 L363.151 1478.84 L363.151 1484.72 L358.267 1484.72 L358.267 1478.84 Z" fill="#000000" fill-rule="evenodd" fill-opacity="1" /><path clip-path="url(#clip280)" d="M383.336 1453.24 Q379.725 1453.24 377.897 1456.8 Q376.091 1460.35 376.091 1467.47 Q376.091 1474.58 377.897 1478.15 Q379.725 1481.69 383.336 1481.69 Q386.971 1481.69 388.776 1478.15 Q390.605 1474.58 390.605 1467.47 Q390.605 1460.35 388.776 1456.8 Q386.971 1453.24 383.336 1453.24 M383.336 1449.53 Q389.147 1449.53 392.202 1454.14 Q395.281 1458.72 395.281 1467.47 Q395.281 1476.2 392.202 1480.81 Q389.147 1485.39 383.336 1485.39 Q377.526 1485.39 374.448 1480.81 Q371.392 1476.2 371.392 1467.47 Q371.392 1458.72 374.448 1454.14 Q377.526 1449.53 383.336 1449.53 Z" fill="#000000" fill-rule="evenodd" fill-opacity="1" /><path clip-path="url(#clip280)" d="M413.498 1453.24 Q409.887 1453.24 408.059 1456.8 Q406.253 1460.35 406.253 1467.47 Q406.253 1474.58 408.059 1478.15 Q409.887 1481.69 413.498 1481.69 Q417.133 1481.69 418.938 1478.15 Q420.767 1474.58 420.767 1467.47 Q420.767 1460.35 418.938 1456.8 Q417.133 1453.24 413.498 1453.24 M413.498 1449.53 Q419.308 1449.53 422.364 1454.14 Q425.443 1458.72 425.443 1467.47 Q425.443 1476.2 422.364 1480.81 Q419.308 1485.39 413.498 1485.39 Q407.688 1485.39 404.609 1480.81 Q401.554 1476.2 401.554 1467.47 Q401.554 1458.72 404.609 1454.14 Q407.688 1449.53 413.498 1449.53 Z" fill="#000000" fill-rule="evenodd" fill-opacity="1" /><path clip-path="url(#clip280)" d="M476.561 1480.78 L484.199 1480.78 L484.199 1454.42 L475.889 1456.09 L475.889 1451.83 L484.153 1450.16 L488.829 1450.16 L488.829 1480.78 L496.468 1480.78 L496.468 1484.72 L476.561 1484.72 L476.561 1480.78 Z" fill="#000000" fill-rule="evenodd" fill-opacity="1" /><path clip-path="url(#clip280)" d="M505.912 1478.84 L510.797 1478.84 L510.797 1484.72 L505.912 1484.72 L505.912 1478.84 Z" fill="#000000" fill-rule="evenodd" fill-opacity="1" /><path clip-path="url(#clip280)" d="M525.009 1480.78 L541.329 1480.78 L541.329 1484.72 L519.384 1484.72 L519.384 1480.78 Q522.047 1478.03 526.63 1473.4 Q531.236 1468.75 532.417 1467.41 Q534.662 1464.88 535.542 1463.15 Q536.445 1461.39 536.445 1459.7 Q536.445 1456.94 534.5 1455.21 Q532.579 1453.47 529.477 1453.47 Q527.278 1453.47 524.824 1454.23 Q522.394 1455 519.616 1456.55 L519.616 1451.83 Q522.44 1450.69 524.894 1450.11 Q527.347 1449.53 529.384 1449.53 Q534.755 1449.53 537.949 1452.22 Q541.144 1454.91 541.144 1459.4 Q541.144 1461.53 540.333 1463.45 Q539.546 1465.34 537.44 1467.94 Q536.861 1468.61 533.759 1471.83 Q530.658 1475.02 525.009 1480.78 Z" fill="#000000" fill-rule="evenodd" fill-opacity="1" /><path clip-path="url(#clip280)" d="M551.19 1450.16 L569.546 1450.16 L569.546 1454.1 L555.472 1454.1 L555.472 1462.57 Q556.491 1462.22 557.509 1462.06 Q558.528 1461.87 559.546 1461.87 Q565.333 1461.87 568.713 1465.04 Q572.093 1468.22 572.093 1473.63 Q572.093 1479.21 568.62 1482.31 Q565.148 1485.39 558.829 1485.39 Q556.653 1485.39 554.384 1485.02 Q552.139 1484.65 549.732 1483.91 L549.732 1479.21 Q551.815 1480.34 554.037 1480.9 Q556.259 1481.46 558.736 1481.46 Q562.741 1481.46 565.079 1479.35 Q567.417 1477.24 567.417 1473.63 Q567.417 1470.02 565.079 1467.91 Q562.741 1465.81 558.736 1465.81 Q556.861 1465.81 554.986 1466.22 Q553.134 1466.64 551.19 1467.52 L551.19 1450.16 Z" fill="#000000" fill-rule="evenodd" fill-opacity="1" /><path clip-path="url(#clip280)" d="M623.21 1480.78 L630.849 1480.78 L630.849 1454.42 L622.539 1456.09 L622.539 1451.83 L630.803 1450.16 L635.479 1450.16 L635.479 1480.78 L643.118 1480.78 L643.118 1484.72 L623.21 1484.72 L623.21 1480.78 Z" fill="#000000" fill-rule="evenodd" fill-opacity="1" /><path clip-path="url(#clip280)" d="M652.562 1478.84 L657.446 1478.84 L657.446 1484.72 L652.562 1484.72 L652.562 1478.84 Z" fill="#000000" fill-rule="evenodd" fill-opacity="1" /><path clip-path="url(#clip280)" d="M667.678 1450.16 L686.034 1450.16 L686.034 1454.1 L671.96 1454.1 L671.96 1462.57 Q672.979 1462.22 673.997 1462.06 Q675.016 1461.87 676.034 1461.87 Q681.821 1461.87 685.201 1465.04 Q688.581 1468.22 688.581 1473.63 Q688.581 1479.21 685.108 1482.31 Q681.636 1485.39 675.317 1485.39 Q673.141 1485.39 670.872 1485.02 Q668.627 1484.65 666.22 1483.91 L666.22 1479.21 Q668.303 1480.34 670.525 1480.9 Q672.747 1481.46 675.224 1481.46 Q679.229 1481.46 681.567 1479.35 Q683.905 1477.24 683.905 1473.63 Q683.905 1470.02 681.567 1467.91 Q679.229 1465.81 675.224 1465.81 Q673.349 1465.81 671.474 1466.22 Q669.622 1466.64 667.678 1467.52 L667.678 1450.16 Z" fill="#000000" fill-rule="evenodd" fill-opacity="1" /><path clip-path="url(#clip280)" d="M707.793 1453.24 Q704.182 1453.24 702.354 1456.8 Q700.548 1460.35 700.548 1467.47 Q700.548 1474.58 702.354 1478.15 Q704.182 1481.69 707.793 1481.69 Q711.428 1481.69 713.233 1478.15 Q715.062 1474.58 715.062 1467.47 Q715.062 1460.35 713.233 1456.8 Q711.428 1453.24 707.793 1453.24 M707.793 1449.53 Q713.604 1449.53 716.659 1454.14 Q719.738 1458.72 719.738 1467.47 Q719.738 1476.2 716.659 1480.81 Q713.604 1485.39 707.793 1485.39 Q701.983 1485.39 698.905 1480.81 Q695.849 1476.2 695.849 1467.47 Q695.849 1458.72 698.905 1454.14 Q701.983 1449.53 707.793 1449.53 Z" fill="#000000" fill-rule="evenodd" fill-opacity="1" /><path clip-path="url(#clip280)" d="M770.856 1480.78 L778.495 1480.78 L778.495 1454.42 L770.184 1456.09 L770.184 1451.83 L778.448 1450.16 L783.124 1450.16 L783.124 1480.78 L790.763 1480.78 L790.763 1484.72 L770.856 1484.72 L770.856 1480.78 Z" fill="#000000" fill-rule="evenodd" fill-opacity="1" /><path clip-path="url(#clip280)" d="M800.207 1478.84 L805.092 1478.84 L805.092 1484.72 L800.207 1484.72 L800.207 1478.84 Z" fill="#000000" fill-rule="evenodd" fill-opacity="1" /><path clip-path="url(#clip280)" d="M814.096 1450.16 L836.318 1450.16 L836.318 1452.15 L823.772 1484.72 L818.888 1484.72 L830.693 1454.1 L814.096 1454.1 L814.096 1450.16 Z" fill="#000000" fill-rule="evenodd" fill-opacity="1" /><path clip-path="url(#clip280)" d="M845.485 1450.16 L863.841 1450.16 L863.841 1454.1 L849.767 1454.1 L849.767 1462.57 Q850.786 1462.22 851.804 1462.06 Q852.823 1461.87 853.841 1461.87 Q859.628 1461.87 863.008 1465.04 Q866.388 1468.22 866.388 1473.63 Q866.388 1479.21 862.915 1482.31 Q859.443 1485.39 853.124 1485.39 Q850.948 1485.39 848.679 1485.02 Q846.434 1484.65 844.027 1483.91 L844.027 1479.21 Q846.11 1480.34 848.332 1480.9 Q850.554 1481.46 853.031 1481.46 Q857.036 1481.46 859.374 1479.35 Q861.712 1477.24 861.712 1473.63 Q861.712 1470.02 859.374 1467.91 Q857.036 1465.81 853.031 1465.81 Q851.156 1465.81 849.281 1466.22 Q847.429 1466.64 845.485 1467.52 L845.485 1450.16 Z" fill="#000000" fill-rule="evenodd" fill-opacity="1" /><path clip-path="url(#clip280)" d="M921.591 1480.78 L937.911 1480.78 L937.911 1484.72 L915.966 1484.72 L915.966 1480.78 Q918.628 1478.03 923.212 1473.4 Q927.818 1468.75 928.999 1467.41 Q931.244 1464.88 932.124 1463.15 Q933.026 1461.39 933.026 1459.7 Q933.026 1456.94 931.082 1455.21 Q929.161 1453.47 926.059 1453.47 Q923.86 1453.47 921.406 1454.23 Q918.975 1455 916.198 1456.55 L916.198 1451.83 Q919.022 1450.69 921.475 1450.11 Q923.929 1449.53 925.966 1449.53 Q931.336 1449.53 934.531 1452.22 Q937.725 1454.91 937.725 1459.4 Q937.725 1461.53 936.915 1463.45 Q936.128 1465.34 934.022 1467.94 Q933.443 1468.61 930.341 1471.83 Q927.239 1475.02 921.591 1480.78 Z" fill="#000000" fill-rule="evenodd" fill-opacity="1" /><path clip-path="url(#clip280)" d="M947.725 1478.84 L952.61 1478.84 L952.61 1484.72 L947.725 1484.72 L947.725 1478.84 Z" fill="#000000" fill-rule="evenodd" fill-opacity="1" /><path clip-path="url(#clip280)" d="M972.795 1453.24 Q969.184 1453.24 967.355 1456.8 Q965.549 1460.35 965.549 1467.47 Q965.549 1474.58 967.355 1478.15 Q969.184 1481.69 972.795 1481.69 Q976.429 1481.69 978.234 1478.15 Q980.063 1474.58 980.063 1467.47 Q980.063 1460.35 978.234 1456.8 Q976.429 1453.24 972.795 1453.24 M972.795 1449.53 Q978.605 1449.53 981.66 1454.14 Q984.739 1458.72 984.739 1467.47 Q984.739 1476.2 981.66 1480.81 Q978.605 1485.39 972.795 1485.39 Q966.984 1485.39 963.906 1480.81 Q960.85 1476.2 960.85 1467.47 Q960.85 1458.72 963.906 1454.14 Q966.984 1449.53 972.795 1449.53 Z" fill="#000000" fill-rule="evenodd" fill-opacity="1" /><path clip-path="url(#clip280)" d="M1002.96 1453.24 Q999.345 1453.24 997.517 1456.8 Q995.711 1460.35 995.711 1467.47 Q995.711 1474.58 997.517 1478.15 Q999.345 1481.69 1002.96 1481.69 Q1006.59 1481.69 1008.4 1478.15 Q1010.22 1474.58 1010.22 1467.47 Q1010.22 1460.35 1008.4 1456.8 Q1006.59 1453.24 1002.96 1453.24 M1002.96 1449.53 Q1008.77 1449.53 1011.82 1454.14 Q1014.9 1458.72 1014.9 1467.47 Q1014.9 1476.2 1011.82 1480.81 Q1008.77 1485.39 1002.96 1485.39 Q997.146 1485.39 994.068 1480.81 Q991.012 1476.2 991.012 1467.47 Q991.012 1458.72 994.068 1454.14 Q997.146 1449.53 1002.96 1449.53 Z" fill="#000000" fill-rule="evenodd" fill-opacity="1" /><polyline clip-path="url(#clip282)" style="stroke:#000000; stroke-linecap:round; stroke-linejoin:round; stroke-width:2; stroke-opacity:0.1; fill:none" points="
  222.143,1128.79 1104.76,1128.79 
  "/>
<polyline clip-path="url(#clip282)" style="stroke:#000000; stroke-linecap:round; stroke-linejoin:round; stroke-width:2; stroke-opacity:0.1; fill:none" points="
  222.143,834.234 1104.76,834.234 
  "/>
<polyline clip-path="url(#clip282)" style="stroke:#000000; stroke-linecap:round; stroke-linejoin:round; stroke-width:2; stroke-opacity:0.1; fill:none" points="
  222.143,539.674 1104.76,539.674 
  "/>
<polyline clip-path="url(#clip282)" style="stroke:#000000; stroke-linecap:round; stroke-linejoin:round; stroke-width:2; stroke-opacity:0.1; fill:none" points="
  222.143,245.114 1104.76,245.114 
  "/>
<polyline clip-path="url(#clip280)" style="stroke:#000000; stroke-linecap:round; stroke-linejoin:round; stroke-width:4; stroke-opacity:1; fill:none" points="
  222.143,1423.09 222.143,47.2441 
  "/>
<polyline clip-path="url(#clip280)" style="stroke:#000000; stroke-linecap:round; stroke-linejoin:round; stroke-width:4; stroke-opacity:1; fill:none" points="
  222.143,1128.79 241.04,1128.79 
  "/>
<polyline clip-path="url(#clip280)" style="stroke:#000000; stroke-linecap:round; stroke-linejoin:round; stroke-width:4; stroke-opacity:1; fill:none" points="
  222.143,834.234 241.04,834.234 
  "/>
<polyline clip-path="url(#clip280)" style="stroke:#000000; stroke-linecap:round; stroke-linejoin:round; stroke-width:4; stroke-opacity:1; fill:none" points="
  222.143,539.674 241.04,539.674 
  "/>
<polyline clip-path="url(#clip280)" style="stroke:#000000; stroke-linecap:round; stroke-linejoin:round; stroke-width:4; stroke-opacity:1; fill:none" points="
  222.143,245.114 241.04,245.114 
  "/>
<path clip-path="url(#clip280)" d="M51.4721 1129.24 L81.1479 1129.24 L81.1479 1133.18 L51.4721 1133.18 L51.4721 1129.24 Z" fill="#000000" fill-rule="evenodd" fill-opacity="1" /><path clip-path="url(#clip280)" d="M101.24 1114.59 Q97.6293 1114.59 95.8006 1118.16 Q93.995 1121.7 93.995 1128.83 Q93.995 1135.93 95.8006 1139.5 Q97.6293 1143.04 101.24 1143.04 Q104.875 1143.04 106.68 1139.5 Q108.509 1135.93 108.509 1128.83 Q108.509 1121.7 106.68 1118.16 Q104.875 1114.59 101.24 1114.59 M101.24 1110.89 Q107.051 1110.89 110.106 1115.5 Q113.185 1120.08 113.185 1128.83 Q113.185 1137.56 110.106 1142.16 Q107.051 1146.74 101.24 1146.74 Q95.4302 1146.74 92.3515 1142.16 Q89.296 1137.56 89.296 1128.83 Q89.296 1120.08 92.3515 1115.5 Q95.4302 1110.89 101.24 1110.89 Z" fill="#000000" fill-rule="evenodd" fill-opacity="1" /><path clip-path="url(#clip280)" d="M121.402 1140.19 L126.287 1140.19 L126.287 1146.07 L121.402 1146.07 L121.402 1140.19 Z" fill="#000000" fill-rule="evenodd" fill-opacity="1" /><path clip-path="url(#clip280)" d="M140.499 1142.14 L156.819 1142.14 L156.819 1146.07 L134.874 1146.07 L134.874 1142.14 Q137.536 1139.38 142.12 1134.75 Q146.726 1130.1 147.907 1128.76 Q150.152 1126.24 151.032 1124.5 Q151.935 1122.74 151.935 1121.05 Q151.935 1118.3 149.99 1116.56 Q148.069 1114.82 144.967 1114.82 Q142.768 1114.82 140.314 1115.59 Q137.884 1116.35 135.106 1117.9 L135.106 1113.18 Q137.93 1112.05 140.384 1111.47 Q142.837 1110.89 144.874 1110.89 Q150.245 1110.89 153.439 1113.57 Q156.634 1116.26 156.634 1120.75 Q156.634 1122.88 155.823 1124.8 Q155.036 1126.7 152.93 1129.29 Q152.351 1129.96 149.249 1133.18 Q146.148 1136.37 140.499 1142.14 Z" fill="#000000" fill-rule="evenodd" fill-opacity="1" /><path clip-path="url(#clip280)" d="M166.68 1111.51 L185.036 1111.51 L185.036 1115.45 L170.962 1115.45 L170.962 1123.92 Q171.981 1123.57 172.999 1123.41 Q174.018 1123.23 175.036 1123.23 Q180.823 1123.23 184.203 1126.4 Q187.583 1129.57 187.583 1134.99 Q187.583 1140.56 184.11 1143.67 Q180.638 1146.74 174.319 1146.74 Q172.143 1146.74 169.874 1146.37 Q167.629 1146 165.222 1145.26 L165.222 1140.56 Q167.305 1141.7 169.527 1142.25 Q171.749 1142.81 174.226 1142.81 Q178.231 1142.81 180.569 1140.7 Q182.907 1138.6 182.907 1134.99 Q182.907 1131.37 180.569 1129.27 Q178.231 1127.16 174.226 1127.16 Q172.351 1127.16 170.476 1127.58 Q168.624 1127.99 166.68 1128.87 L166.68 1111.51 Z" fill="#000000" fill-rule="evenodd" fill-opacity="1" /><path clip-path="url(#clip280)" d="M100.245 820.033 Q96.6339 820.033 94.8052 823.597 Q92.9997 827.139 92.9997 834.269 Q92.9997 841.375 94.8052 844.94 Q96.6339 848.481 100.245 848.481 Q103.879 848.481 105.685 844.94 Q107.513 841.375 107.513 834.269 Q107.513 827.139 105.685 823.597 Q103.879 820.033 100.245 820.033 M100.245 816.329 Q106.055 816.329 109.111 820.935 Q112.189 825.519 112.189 834.269 Q112.189 842.995 109.111 847.602 Q106.055 852.185 100.245 852.185 Q94.4349 852.185 91.3562 847.602 Q88.3006 842.995 88.3006 834.269 Q88.3006 825.519 91.3562 820.935 Q94.4349 816.329 100.245 816.329 Z" fill="#000000" fill-rule="evenodd" fill-opacity="1" /><path clip-path="url(#clip280)" d="M120.407 845.634 L125.291 845.634 L125.291 851.514 L120.407 851.514 L120.407 845.634 Z" fill="#000000" fill-rule="evenodd" fill-opacity="1" /><path clip-path="url(#clip280)" d="M145.476 820.033 Q141.865 820.033 140.036 823.597 Q138.231 827.139 138.231 834.269 Q138.231 841.375 140.036 844.94 Q141.865 848.481 145.476 848.481 Q149.11 848.481 150.916 844.94 Q152.745 841.375 152.745 834.269 Q152.745 827.139 150.916 823.597 Q149.11 820.033 145.476 820.033 M145.476 816.329 Q151.286 816.329 154.342 820.935 Q157.421 825.519 157.421 834.269 Q157.421 842.995 154.342 847.602 Q151.286 852.185 145.476 852.185 Q139.666 852.185 136.587 847.602 Q133.532 842.995 133.532 834.269 Q133.532 825.519 136.587 820.935 Q139.666 816.329 145.476 816.329 Z" fill="#000000" fill-rule="evenodd" fill-opacity="1" /><path clip-path="url(#clip280)" d="M175.638 820.033 Q172.027 820.033 170.198 823.597 Q168.393 827.139 168.393 834.269 Q168.393 841.375 170.198 844.94 Q172.027 848.481 175.638 848.481 Q179.272 848.481 181.078 844.94 Q182.907 841.375 182.907 834.269 Q182.907 827.139 181.078 823.597 Q179.272 820.033 175.638 820.033 M175.638 816.329 Q181.448 816.329 184.504 820.935 Q187.583 825.519 187.583 834.269 Q187.583 842.995 184.504 847.602 Q181.448 852.185 175.638 852.185 Q169.828 852.185 166.749 847.602 Q163.694 842.995 163.694 834.269 Q163.694 825.519 166.749 820.935 Q169.828 816.329 175.638 816.329 Z" fill="#000000" fill-rule="evenodd" fill-opacity="1" /><path clip-path="url(#clip280)" d="M101.24 525.473 Q97.6293 525.473 95.8006 529.038 Q93.995 532.579 93.995 539.709 Q93.995 546.815 95.8006 550.38 Q97.6293 553.922 101.24 553.922 Q104.875 553.922 106.68 550.38 Q108.509 546.815 108.509 539.709 Q108.509 532.579 106.68 529.038 Q104.875 525.473 101.24 525.473 M101.24 521.769 Q107.051 521.769 110.106 526.376 Q113.185 530.959 113.185 539.709 Q113.185 548.436 110.106 553.042 Q107.051 557.625 101.24 557.625 Q95.4302 557.625 92.3515 553.042 Q89.296 548.436 89.296 539.709 Q89.296 530.959 92.3515 526.376 Q95.4302 521.769 101.24 521.769 Z" fill="#000000" fill-rule="evenodd" fill-opacity="1" /><path clip-path="url(#clip280)" d="M121.402 551.074 L126.287 551.074 L126.287 556.954 L121.402 556.954 L121.402 551.074 Z" fill="#000000" fill-rule="evenodd" fill-opacity="1" /><path clip-path="url(#clip280)" d="M140.499 553.019 L156.819 553.019 L156.819 556.954 L134.874 556.954 L134.874 553.019 Q137.536 550.264 142.12 545.635 Q146.726 540.982 147.907 539.639 Q150.152 537.116 151.032 535.38 Q151.935 533.621 151.935 531.931 Q151.935 529.176 149.99 527.44 Q148.069 525.704 144.967 525.704 Q142.768 525.704 140.314 526.468 Q137.884 527.232 135.106 528.783 L135.106 524.061 Q137.93 522.926 140.384 522.348 Q142.837 521.769 144.874 521.769 Q150.245 521.769 153.439 524.454 Q156.634 527.139 156.634 531.63 Q156.634 533.76 155.823 535.681 Q155.036 537.579 152.93 540.172 Q152.351 540.843 149.249 544.061 Q146.148 547.255 140.499 553.019 Z" fill="#000000" fill-rule="evenodd" fill-opacity="1" /><path clip-path="url(#clip280)" d="M166.68 522.394 L185.036 522.394 L185.036 526.329 L170.962 526.329 L170.962 534.801 Q171.981 534.454 172.999 534.292 Q174.018 534.107 175.036 534.107 Q180.823 534.107 184.203 537.278 Q187.583 540.45 187.583 545.866 Q187.583 551.445 184.11 554.547 Q180.638 557.625 174.319 557.625 Q172.143 557.625 169.874 557.255 Q167.629 556.885 165.222 556.144 L165.222 551.445 Q167.305 552.579 169.527 553.135 Q171.749 553.69 174.226 553.69 Q178.231 553.69 180.569 551.584 Q182.907 549.477 182.907 545.866 Q182.907 542.255 180.569 540.149 Q178.231 538.042 174.226 538.042 Q172.351 538.042 170.476 538.459 Q168.624 538.875 166.68 539.755 L166.68 522.394 Z" fill="#000000" fill-rule="evenodd" fill-opacity="1" /><path clip-path="url(#clip280)" d="M100.245 230.913 Q96.6339 230.913 94.8052 234.478 Q92.9997 238.019 92.9997 245.149 Q92.9997 252.255 94.8052 255.82 Q96.6339 259.362 100.245 259.362 Q103.879 259.362 105.685 255.82 Q107.513 252.255 107.513 245.149 Q107.513 238.019 105.685 234.478 Q103.879 230.913 100.245 230.913 M100.245 227.209 Q106.055 227.209 109.111 231.816 Q112.189 236.399 112.189 245.149 Q112.189 253.876 109.111 258.482 Q106.055 263.066 100.245 263.066 Q94.4349 263.066 91.3562 258.482 Q88.3006 253.876 88.3006 245.149 Q88.3006 236.399 91.3562 231.816 Q94.4349 227.209 100.245 227.209 Z" fill="#000000" fill-rule="evenodd" fill-opacity="1" /><path clip-path="url(#clip280)" d="M120.407 256.515 L125.291 256.515 L125.291 262.394 L120.407 262.394 L120.407 256.515 Z" fill="#000000" fill-rule="evenodd" fill-opacity="1" /><path clip-path="url(#clip280)" d="M135.523 227.834 L153.879 227.834 L153.879 231.769 L139.805 231.769 L139.805 240.242 Q140.823 239.894 141.842 239.732 Q142.861 239.547 143.879 239.547 Q149.666 239.547 153.046 242.718 Q156.425 245.89 156.425 251.306 Q156.425 256.885 152.953 259.987 Q149.481 263.066 143.161 263.066 Q140.986 263.066 138.717 262.695 Q136.472 262.325 134.064 261.584 L134.064 256.885 Q136.148 258.019 138.37 258.575 Q140.592 259.13 143.069 259.13 Q147.073 259.13 149.411 257.024 Q151.749 254.917 151.749 251.306 Q151.749 247.695 149.411 245.589 Q147.073 243.482 143.069 243.482 Q141.194 243.482 139.319 243.899 Q137.467 244.316 135.523 245.195 L135.523 227.834 Z" fill="#000000" fill-rule="evenodd" fill-opacity="1" /><path clip-path="url(#clip280)" d="M175.638 230.913 Q172.027 230.913 170.198 234.478 Q168.393 238.019 168.393 245.149 Q168.393 252.255 170.198 255.82 Q172.027 259.362 175.638 259.362 Q179.272 259.362 181.078 255.82 Q182.907 252.255 182.907 245.149 Q182.907 238.019 181.078 234.478 Q179.272 230.913 175.638 230.913 M175.638 227.209 Q181.448 227.209 184.504 231.816 Q187.583 236.399 187.583 245.149 Q187.583 253.876 184.504 258.482 Q181.448 263.066 175.638 263.066 Q169.828 263.066 166.749 258.482 Q163.694 253.876 163.694 245.149 Q163.694 236.399 166.749 231.816 Q169.828 227.209 175.638 227.209 Z" fill="#000000" fill-rule="evenodd" fill-opacity="1" /><circle clip-path="url(#clip282)" cx="247.122" cy="678.129" r="14.4" fill="#009af9" fill-rule="evenodd" fill-opacity="1" stroke="#000000" stroke-opacity="1" stroke-width="3.072"/>
<circle clip-path="url(#clip282)" cx="326.225" cy="331.592" r="14.4" fill="#009af9" fill-rule="evenodd" fill-opacity="1" stroke="#000000" stroke-opacity="1" stroke-width="3.072"/>
<circle clip-path="url(#clip282)" cx="450.642" cy="826.78" r="14.4" fill="#009af9" fill-rule="evenodd" fill-opacity="1" stroke="#000000" stroke-opacity="1" stroke-width="3.072"/>
<circle clip-path="url(#clip282)" cx="461.135" cy="620.717" r="14.4" fill="#009af9" fill-rule="evenodd" fill-opacity="1" stroke="#000000" stroke-opacity="1" stroke-width="3.072"/>
<circle clip-path="url(#clip282)" cx="490.538" cy="680.685" r="14.4" fill="#009af9" fill-rule="evenodd" fill-opacity="1" stroke="#000000" stroke-opacity="1" stroke-width="3.072"/>
<circle clip-path="url(#clip282)" cx="494.3" cy="630.875" r="14.4" fill="#009af9" fill-rule="evenodd" fill-opacity="1" stroke="#000000" stroke-opacity="1" stroke-width="3.072"/>
<circle clip-path="url(#clip282)" cx="519.472" cy="467.806" r="14.4" fill="#009af9" fill-rule="evenodd" fill-opacity="1" stroke="#000000" stroke-opacity="1" stroke-width="3.072"/>
<circle clip-path="url(#clip282)" cx="534.723" cy="496.415" r="14.4" fill="#009af9" fill-rule="evenodd" fill-opacity="1" stroke="#000000" stroke-opacity="1" stroke-width="3.072"/>
<circle clip-path="url(#clip282)" cx="540.579" cy="507.976" r="14.4" fill="#009af9" fill-rule="evenodd" fill-opacity="1" stroke="#000000" stroke-opacity="1" stroke-width="3.072"/>
<circle clip-path="url(#clip282)" cx="541.374" cy="463.645" r="14.4" fill="#009af9" fill-rule="evenodd" fill-opacity="1" stroke="#000000" stroke-opacity="1" stroke-width="3.072"/>
<circle clip-path="url(#clip282)" cx="543.638" cy="828.102" r="14.4" fill="#009af9" fill-rule="evenodd" fill-opacity="1" stroke="#000000" stroke-opacity="1" stroke-width="3.072"/>
<circle clip-path="url(#clip282)" cx="546.608" cy="188.126" r="14.4" fill="#009af9" fill-rule="evenodd" fill-opacity="1" stroke="#000000" stroke-opacity="1" stroke-width="3.072"/>
<circle clip-path="url(#clip282)" cx="555.853" cy="303.763" r="14.4" fill="#009af9" fill-rule="evenodd" fill-opacity="1" stroke="#000000" stroke-opacity="1" stroke-width="3.072"/>
<circle clip-path="url(#clip282)" cx="569.413" cy="229.172" r="14.4" fill="#009af9" fill-rule="evenodd" fill-opacity="1" stroke="#000000" stroke-opacity="1" stroke-width="3.072"/>
<circle clip-path="url(#clip282)" cx="570.801" cy="624.088" r="14.4" fill="#009af9" fill-rule="evenodd" fill-opacity="1" stroke="#000000" stroke-opacity="1" stroke-width="3.072"/>
<circle clip-path="url(#clip282)" cx="583.78" cy="830.696" r="14.4" fill="#009af9" fill-rule="evenodd" fill-opacity="1" stroke="#000000" stroke-opacity="1" stroke-width="3.072"/>
<circle clip-path="url(#clip282)" cx="592.23" cy="846.073" r="14.4" fill="#009af9" fill-rule="evenodd" fill-opacity="1" stroke="#000000" stroke-opacity="1" stroke-width="3.072"/>
<circle clip-path="url(#clip282)" cx="603.473" cy="353.285" r="14.4" fill="#009af9" fill-rule="evenodd" fill-opacity="1" stroke="#000000" stroke-opacity="1" stroke-width="3.072"/>
<circle clip-path="url(#clip282)" cx="608.458" cy="558.2" r="14.4" fill="#009af9" fill-rule="evenodd" fill-opacity="1" stroke="#000000" stroke-opacity="1" stroke-width="3.072"/>
<circle clip-path="url(#clip282)" cx="610.209" cy="1307.21" r="14.4" fill="#009af9" fill-rule="evenodd" fill-opacity="1" stroke="#000000" stroke-opacity="1" stroke-width="3.072"/>
<circle clip-path="url(#clip282)" cx="612.051" cy="574.812" r="14.4" fill="#009af9" fill-rule="evenodd" fill-opacity="1" stroke="#000000" stroke-opacity="1" stroke-width="3.072"/>
<circle clip-path="url(#clip282)" cx="618.773" cy="358.363" r="14.4" fill="#009af9" fill-rule="evenodd" fill-opacity="1" stroke="#000000" stroke-opacity="1" stroke-width="3.072"/>
<circle clip-path="url(#clip282)" cx="624.087" cy="1076.22" r="14.4" fill="#009af9" fill-rule="evenodd" fill-opacity="1" stroke="#000000" stroke-opacity="1" stroke-width="3.072"/>
<circle clip-path="url(#clip282)" cx="639.536" cy="341.005" r="14.4" fill="#009af9" fill-rule="evenodd" fill-opacity="1" stroke="#000000" stroke-opacity="1" stroke-width="3.072"/>
<circle clip-path="url(#clip282)" cx="668.66" cy="457.515" r="14.4" fill="#009af9" fill-rule="evenodd" fill-opacity="1" stroke="#000000" stroke-opacity="1" stroke-width="3.072"/>
<circle clip-path="url(#clip282)" cx="671.848" cy="381.595" r="14.4" fill="#009af9" fill-rule="evenodd" fill-opacity="1" stroke="#000000" stroke-opacity="1" stroke-width="3.072"/>
<circle clip-path="url(#clip282)" cx="686.118" cy="1067.45" r="14.4" fill="#009af9" fill-rule="evenodd" fill-opacity="1" stroke="#000000" stroke-opacity="1" stroke-width="3.072"/>
<circle clip-path="url(#clip282)" cx="689.407" cy="288.909" r="14.4" fill="#009af9" fill-rule="evenodd" fill-opacity="1" stroke="#000000" stroke-opacity="1" stroke-width="3.072"/>
<circle clip-path="url(#clip282)" cx="696.229" cy="818.254" r="14.4" fill="#009af9" fill-rule="evenodd" fill-opacity="1" stroke="#000000" stroke-opacity="1" stroke-width="3.072"/>
<circle clip-path="url(#clip282)" cx="708.227" cy="234.663" r="14.4" fill="#009af9" fill-rule="evenodd" fill-opacity="1" stroke="#000000" stroke-opacity="1" stroke-width="3.072"/>
<circle clip-path="url(#clip282)" cx="710.603" cy="823.782" r="14.4" fill="#009af9" fill-rule="evenodd" fill-opacity="1" stroke="#000000" stroke-opacity="1" stroke-width="3.072"/>
<circle clip-path="url(#clip282)" cx="710.843" cy="452.519" r="14.4" fill="#009af9" fill-rule="evenodd" fill-opacity="1" stroke="#000000" stroke-opacity="1" stroke-width="3.072"/>
<circle clip-path="url(#clip282)" cx="735.977" cy="668.689" r="14.4" fill="#009af9" fill-rule="evenodd" fill-opacity="1" stroke="#000000" stroke-opacity="1" stroke-width="3.072"/>
<circle clip-path="url(#clip282)" cx="741.166" cy="675.164" r="14.4" fill="#009af9" fill-rule="evenodd" fill-opacity="1" stroke="#000000" stroke-opacity="1" stroke-width="3.072"/>
<circle clip-path="url(#clip282)" cx="747.147" cy="704.556" r="14.4" fill="#009af9" fill-rule="evenodd" fill-opacity="1" stroke="#000000" stroke-opacity="1" stroke-width="3.072"/>
<circle clip-path="url(#clip282)" cx="758.795" cy="757.152" r="14.4" fill="#009af9" fill-rule="evenodd" fill-opacity="1" stroke="#000000" stroke-opacity="1" stroke-width="3.072"/>
<circle clip-path="url(#clip282)" cx="791.959" cy="681.638" r="14.4" fill="#009af9" fill-rule="evenodd" fill-opacity="1" stroke="#000000" stroke-opacity="1" stroke-width="3.072"/>
<circle clip-path="url(#clip282)" cx="804.617" cy="134.999" r="14.4" fill="#009af9" fill-rule="evenodd" fill-opacity="1" stroke="#000000" stroke-opacity="1" stroke-width="3.072"/>
<circle clip-path="url(#clip282)" cx="812.27" cy="519.292" r="14.4" fill="#009af9" fill-rule="evenodd" fill-opacity="1" stroke="#000000" stroke-opacity="1" stroke-width="3.072"/>
<circle clip-path="url(#clip282)" cx="816.184" cy="399.157" r="14.4" fill="#009af9" fill-rule="evenodd" fill-opacity="1" stroke="#000000" stroke-opacity="1" stroke-width="3.072"/>
<circle clip-path="url(#clip282)" cx="863.775" cy="757.073" r="14.4" fill="#009af9" fill-rule="evenodd" fill-opacity="1" stroke="#000000" stroke-opacity="1" stroke-width="3.072"/>
<circle clip-path="url(#clip282)" cx="881.58" cy="819.664" r="14.4" fill="#009af9" fill-rule="evenodd" fill-opacity="1" stroke="#000000" stroke-opacity="1" stroke-width="3.072"/>
<circle clip-path="url(#clip282)" cx="882.271" cy="341.842" r="14.4" fill="#009af9" fill-rule="evenodd" fill-opacity="1" stroke="#000000" stroke-opacity="1" stroke-width="3.072"/>
<circle clip-path="url(#clip282)" cx="883.487" cy="1384.15" r="14.4" fill="#009af9" fill-rule="evenodd" fill-opacity="1" stroke="#000000" stroke-opacity="1" stroke-width="3.072"/>
<circle clip-path="url(#clip282)" cx="883.905" cy="819.128" r="14.4" fill="#009af9" fill-rule="evenodd" fill-opacity="1" stroke="#000000" stroke-opacity="1" stroke-width="3.072"/>
<circle clip-path="url(#clip282)" cx="905.759" cy="372.608" r="14.4" fill="#009af9" fill-rule="evenodd" fill-opacity="1" stroke="#000000" stroke-opacity="1" stroke-width="3.072"/>
<circle clip-path="url(#clip282)" cx="914.105" cy="699.343" r="14.4" fill="#009af9" fill-rule="evenodd" fill-opacity="1" stroke="#000000" stroke-opacity="1" stroke-width="3.072"/>
<circle clip-path="url(#clip282)" cx="946.967" cy="440.275" r="14.4" fill="#009af9" fill-rule="evenodd" fill-opacity="1" stroke="#000000" stroke-opacity="1" stroke-width="3.072"/>
<circle clip-path="url(#clip282)" cx="985.123" cy="86.1831" r="14.4" fill="#009af9" fill-rule="evenodd" fill-opacity="1" stroke="#000000" stroke-opacity="1" stroke-width="3.072"/>
<circle clip-path="url(#clip282)" cx="1079.78" cy="432.33" r="14.4" fill="#009af9" fill-rule="evenodd" fill-opacity="1" stroke="#000000" stroke-opacity="1" stroke-width="3.072"/>
<polyline clip-path="url(#clip282)" style="stroke:#0000ff; stroke-linecap:round; stroke-linejoin:round; stroke-width:20; stroke-opacity:1; fill:none" points="
  247.122,602.699 249.038,602.41 266.752,599.735 277.397,598.127 286.397,596.768 296.174,595.292 305.188,593.931 314.851,592.472 326.047,590.781 335.997,589.279 
  344.722,587.961 354.235,586.525 363.804,585.08 374.384,583.482 384.45,581.962 394.917,580.382 403.728,579.051 414.485,577.427 424.339,575.939 433.44,574.565 
  442.659,573.173 452.991,571.612 462.354,570.199 473.073,568.58 482.998,567.081 492.783,565.604 502.284,564.169 512.023,562.699 522.694,561.087 538.194,558.747 
  541.374,558.266 
  "/>
<polyline clip-path="url(#clip282)" style="stroke:#0000ff; stroke-linecap:round; stroke-linejoin:round; stroke-width:20; stroke-opacity:1; fill:none" points="
  494.3,607.239 494.798,605.838 499.404,592.886 502.171,585.102 504.511,578.521 507.053,571.372 509.396,564.781 511.909,557.715 514.82,549.529 517.406,542.254 
  519.675,535.874 522.148,528.919 524.636,521.922 527.386,514.186 530.004,506.825 532.725,499.172 535.015,492.729 537.812,484.864 540.374,477.659 542.74,471.004 
  545.137,464.263 547.823,456.708 550.257,449.862 553.044,442.025 555.625,434.767 558.169,427.612 560.639,420.666 563.171,413.544 565.945,405.742 569.975,394.408 
  570.801,392.083 
  "/>
<polyline clip-path="url(#clip282)" style="stroke:#0000ff; stroke-linecap:round; stroke-linejoin:round; stroke-width:20; stroke-opacity:1; fill:none" points="
  543.638,392.411 544.071,395.081 548.079,419.772 550.487,434.611 552.523,447.156 554.735,460.784 556.774,473.348 558.961,486.818 561.494,502.424 563.745,516.292 
  565.719,528.454 567.871,541.714 570.036,555.052 572.429,569.799 574.707,583.831 577.075,598.42 579.068,610.701 581.502,625.695 583.731,639.431 585.79,652.117 
  587.876,664.967 590.213,679.369 592.332,692.419 594.757,707.361 597.002,721.195 599.216,734.834 601.365,748.077 603.569,761.652 605.983,776.526 609.49,798.132 
  610.209,802.564 
  "/>
<polyline clip-path="url(#clip282)" style="stroke:#0000ff; stroke-linecap:round; stroke-linejoin:round; stroke-width:20; stroke-opacity:1; fill:none" points="
  583.78,820.079 584.333,817.521 589.443,793.865 592.513,779.65 595.11,767.63 597.93,754.574 600.53,742.537 603.317,729.633 606.547,714.681 609.417,701.395 
  611.934,689.743 614.678,677.04 617.438,664.261 620.49,650.133 623.394,636.69 626.413,622.712 628.955,610.946 632.058,596.581 634.9,583.422 637.526,571.268 
  640.185,558.957 643.165,545.159 645.866,532.657 648.958,518.342 651.821,505.088 654.644,492.021 657.384,479.334 660.194,466.328 663.272,452.078 667.743,431.379 
  668.66,427.132 
  "/>
<polyline clip-path="url(#clip282)" style="stroke:#0000ff; stroke-linecap:round; stroke-linejoin:round; stroke-width:20; stroke-opacity:1; fill:none" points="
  612.051,606.739 612.677,606.145 618.467,600.658 621.946,597.36 624.888,594.572 628.084,591.543 631.03,588.751 634.188,585.757 637.848,582.289 641.1,579.207 
  643.951,576.504 647.061,573.557 650.188,570.593 653.646,567.315 656.937,564.197 660.358,560.955 663.238,558.225 666.753,554.893 669.974,551.84 672.949,549.021 
  675.962,546.165 679.339,542.964 682.399,540.064 685.903,536.743 689.147,533.669 692.345,530.637 695.451,527.694 698.634,524.677 702.121,521.372 707.188,516.57 
  708.227,515.585 
  "/>
<polyline clip-path="url(#clip282)" style="stroke:#0000ff; stroke-linecap:round; stroke-linejoin:round; stroke-width:20; stroke-opacity:1; fill:none" points="
  671.848,549.593 672.338,550.394 676.871,557.804 679.595,562.256 681.898,566.021 684.4,570.111 686.707,573.881 689.18,577.923 692.045,582.606 694.591,586.768 
  696.823,590.418 699.258,594.397 701.706,598.4 704.414,602.825 706.99,607.036 709.668,611.414 711.923,615.099 714.676,619.599 717.197,623.721 719.526,627.528 
  721.886,631.384 724.529,635.706 726.925,639.622 729.668,644.106 732.208,648.257 734.712,652.35 737.143,656.324 739.636,660.398 742.366,664.862 746.333,671.345 
  747.147,672.675 
  "/>
<polyline clip-path="url(#clip282)" style="stroke:#0000ff; stroke-linecap:round; stroke-linejoin:round; stroke-width:20; stroke-opacity:1; fill:none" points="
  710.603,728.819 711.291,726.887 717.646,709.026 721.466,698.292 724.695,689.216 728.204,679.358 731.438,670.269 734.905,660.525 738.922,649.235 742.492,639.203 
  745.623,630.405 749.036,620.813 752.47,611.164 756.266,600.496 759.878,590.345 763.633,579.791 766.795,570.907 770.655,560.06 774.19,550.124 777.456,540.947 
  780.764,531.651 784.471,521.233 787.83,511.792 791.676,500.983 795.238,490.975 798.749,481.109 802.158,471.529 805.652,461.709 809.481,450.949 815.043,435.319 
  816.184,432.113 
  "/>
<polyline clip-path="url(#clip282)" style="stroke:#0000ff; stroke-linecap:round; stroke-linejoin:round; stroke-width:20; stroke-opacity:1; fill:none" points="
  758.795,441.594 759.61,443.858 767.141,464.79 771.667,477.37 775.494,488.006 779.651,499.559 783.483,510.211 787.592,521.63 792.352,534.861 796.583,546.619 
  800.292,556.929 804.337,568.17 808.406,579.478 812.904,591.981 817.184,603.877 821.634,616.245 825.381,626.657 829.954,639.369 834.144,651.014 838.014,661.769 
  841.933,672.663 846.326,684.873 850.307,695.936 854.865,708.604 859.085,720.332 863.245,731.896 867.284,743.123 871.425,754.632 875.962,767.241 882.553,785.558 
  883.905,789.316 
  "/>
<polyline clip-path="url(#clip282)" style="stroke:#0000ff; stroke-linecap:round; stroke-linejoin:round; stroke-width:20; stroke-opacity:1; fill:none" points="
  863.775,774.46 865.182,770.659 878.185,735.512 885.999,714.391 892.606,696.533 899.783,677.134 906.4,659.25 913.493,640.077 921.712,617.862 929.016,598.121 
  935.42,580.809 942.403,561.935 949.428,542.949 957.194,521.957 964.583,501.984 972.267,481.216 978.735,463.735 986.631,442.391 993.865,422.839 1000.55,404.782 
  1007.31,386.49 1014.9,365.99 1021.77,347.414 1029.64,326.145 1036.92,306.452 1044.11,287.038 1051.08,268.187 1058.23,248.863 1066.06,227.692 1077.44,196.937 
  1079.78,190.627 
  "/>
<path clip-path="url(#clip280)" d="
M1374.14 1423.09 L2256.76 1423.09 L2256.76 47.2441 L1374.14 47.2441  Z
  " fill="#ffffff" fill-rule="evenodd" fill-opacity="1"/>
<defs>
  <clipPath id="clip283">
    <rect x="1374" y="47" width="884" height="1377"/>
  </clipPath>
</defs>
<polyline clip-path="url(#clip283)" style="stroke:#000000; stroke-linecap:round; stroke-linejoin:round; stroke-width:2; stroke-opacity:0.1; fill:none" points="
  1381.7,1423.09 1381.7,47.2441 
  "/>
<polyline clip-path="url(#clip283)" style="stroke:#000000; stroke-linecap:round; stroke-linejoin:round; stroke-width:2; stroke-opacity:0.1; fill:none" points="
  1528.84,1423.09 1528.84,47.2441 
  "/>
<polyline clip-path="url(#clip283)" style="stroke:#000000; stroke-linecap:round; stroke-linejoin:round; stroke-width:2; stroke-opacity:0.1; fill:none" points="
  1675.99,1423.09 1675.99,47.2441 
  "/>
<polyline clip-path="url(#clip283)" style="stroke:#000000; stroke-linecap:round; stroke-linejoin:round; stroke-width:2; stroke-opacity:0.1; fill:none" points="
  1823.14,1423.09 1823.14,47.2441 
  "/>
<polyline clip-path="url(#clip283)" style="stroke:#000000; stroke-linecap:round; stroke-linejoin:round; stroke-width:2; stroke-opacity:0.1; fill:none" points="
  1970.29,1423.09 1970.29,47.2441 
  "/>
<polyline clip-path="url(#clip283)" style="stroke:#000000; stroke-linecap:round; stroke-linejoin:round; stroke-width:2; stroke-opacity:0.1; fill:none" points="
  2117.43,1423.09 2117.43,47.2441 
  "/>
<polyline clip-path="url(#clip280)" style="stroke:#000000; stroke-linecap:round; stroke-linejoin:round; stroke-width:4; stroke-opacity:1; fill:none" points="
  1374.14,1423.09 2256.76,1423.09 
  "/>
<polyline clip-path="url(#clip280)" style="stroke:#000000; stroke-linecap:round; stroke-linejoin:round; stroke-width:4; stroke-opacity:1; fill:none" points="
  1381.7,1423.09 1381.7,1404.19 
  "/>
<polyline clip-path="url(#clip280)" style="stroke:#000000; stroke-linecap:round; stroke-linejoin:round; stroke-width:4; stroke-opacity:1; fill:none" points="
  1528.84,1423.09 1528.84,1404.19 
  "/>
<polyline clip-path="url(#clip280)" style="stroke:#000000; stroke-linecap:round; stroke-linejoin:round; stroke-width:4; stroke-opacity:1; fill:none" points="
  1675.99,1423.09 1675.99,1404.19 
  "/>
<polyline clip-path="url(#clip280)" style="stroke:#000000; stroke-linecap:round; stroke-linejoin:round; stroke-width:4; stroke-opacity:1; fill:none" points="
  1823.14,1423.09 1823.14,1404.19 
  "/>
<polyline clip-path="url(#clip280)" style="stroke:#000000; stroke-linecap:round; stroke-linejoin:round; stroke-width:4; stroke-opacity:1; fill:none" points="
  1970.29,1423.09 1970.29,1404.19 
  "/>
<polyline clip-path="url(#clip280)" style="stroke:#000000; stroke-linecap:round; stroke-linejoin:round; stroke-width:4; stroke-opacity:1; fill:none" points="
  2117.43,1423.09 2117.43,1404.19 
  "/>
<path clip-path="url(#clip280)" d="M1344.5 1453.24 Q1340.89 1453.24 1339.06 1456.8 Q1337.25 1460.35 1337.25 1467.47 Q1337.25 1474.58 1339.06 1478.15 Q1340.89 1481.69 1344.5 1481.69 Q1348.13 1481.69 1349.94 1478.15 Q1351.77 1474.58 1351.77 1467.47 Q1351.77 1460.35 1349.94 1456.8 Q1348.13 1453.24 1344.5 1453.24 M1344.5 1449.53 Q1350.31 1449.53 1353.36 1454.14 Q1356.44 1458.72 1356.44 1467.47 Q1356.44 1476.2 1353.36 1480.81 Q1350.31 1485.39 1344.5 1485.39 Q1338.69 1485.39 1335.61 1480.81 Q1332.55 1476.2 1332.55 1467.47 Q1332.55 1458.72 1335.61 1454.14 Q1338.69 1449.53 1344.5 1449.53 Z" fill="#000000" fill-rule="evenodd" fill-opacity="1" /><path clip-path="url(#clip280)" d="M1364.66 1478.84 L1369.54 1478.84 L1369.54 1484.72 L1364.66 1484.72 L1364.66 1478.84 Z" fill="#000000" fill-rule="evenodd" fill-opacity="1" /><path clip-path="url(#clip280)" d="M1378.55 1450.16 L1400.77 1450.16 L1400.77 1452.15 L1388.22 1484.72 L1383.34 1484.72 L1395.14 1454.1 L1378.55 1454.1 L1378.55 1450.16 Z" fill="#000000" fill-rule="evenodd" fill-opacity="1" /><path clip-path="url(#clip280)" d="M1409.94 1450.16 L1428.29 1450.16 L1428.29 1454.1 L1414.22 1454.1 L1414.22 1462.57 Q1415.24 1462.22 1416.26 1462.06 Q1417.27 1461.87 1418.29 1461.87 Q1424.08 1461.87 1427.46 1465.04 Q1430.84 1468.22 1430.84 1473.63 Q1430.84 1479.21 1427.37 1482.31 Q1423.89 1485.39 1417.58 1485.39 Q1415.4 1485.39 1413.13 1485.02 Q1410.89 1484.65 1408.48 1483.91 L1408.48 1479.21 Q1410.56 1480.34 1412.78 1480.9 Q1415.01 1481.46 1417.48 1481.46 Q1421.49 1481.46 1423.83 1479.35 Q1426.16 1477.24 1426.16 1473.63 Q1426.16 1470.02 1423.83 1467.91 Q1421.49 1465.81 1417.48 1465.81 Q1415.61 1465.81 1413.73 1466.22 Q1411.88 1466.64 1409.94 1467.52 L1409.94 1450.16 Z" fill="#000000" fill-rule="evenodd" fill-opacity="1" /><path clip-path="url(#clip280)" d="M1480.92 1480.78 L1488.55 1480.78 L1488.55 1454.42 L1480.24 1456.09 L1480.24 1451.83 L1488.51 1450.16 L1493.18 1450.16 L1493.18 1480.78 L1500.82 1480.78 L1500.82 1484.72 L1480.92 1484.72 L1480.92 1480.78 Z" fill="#000000" fill-rule="evenodd" fill-opacity="1" /><path clip-path="url(#clip280)" d="M1510.27 1478.84 L1515.15 1478.84 L1515.15 1484.72 L1510.27 1484.72 L1510.27 1478.84 Z" fill="#000000" fill-rule="evenodd" fill-opacity="1" /><path clip-path="url(#clip280)" d="M1535.34 1453.24 Q1531.73 1453.24 1529.9 1456.8 Q1528.09 1460.35 1528.09 1467.47 Q1528.09 1474.58 1529.9 1478.15 Q1531.73 1481.69 1535.34 1481.69 Q1538.97 1481.69 1540.78 1478.15 Q1542.6 1474.58 1542.6 1467.47 Q1542.6 1460.35 1540.78 1456.8 Q1538.97 1453.24 1535.34 1453.24 M1535.34 1449.53 Q1541.15 1449.53 1544.2 1454.14 Q1547.28 1458.72 1547.28 1467.47 Q1547.28 1476.2 1544.2 1480.81 Q1541.15 1485.39 1535.34 1485.39 Q1529.53 1485.39 1526.45 1480.81 Q1523.39 1476.2 1523.39 1467.47 Q1523.39 1458.72 1526.45 1454.14 Q1529.53 1449.53 1535.34 1449.53 Z" fill="#000000" fill-rule="evenodd" fill-opacity="1" /><path clip-path="url(#clip280)" d="M1565.5 1453.24 Q1561.89 1453.24 1560.06 1456.8 Q1558.25 1460.35 1558.25 1467.47 Q1558.25 1474.58 1560.06 1478.15 Q1561.89 1481.69 1565.5 1481.69 Q1569.13 1481.69 1570.94 1478.15 Q1572.77 1474.58 1572.77 1467.47 Q1572.77 1460.35 1570.94 1456.8 Q1569.13 1453.24 1565.5 1453.24 M1565.5 1449.53 Q1571.31 1449.53 1574.36 1454.14 Q1577.44 1458.72 1577.44 1467.47 Q1577.44 1476.2 1574.36 1480.81 Q1571.31 1485.39 1565.5 1485.39 Q1559.69 1485.39 1556.61 1480.81 Q1553.55 1476.2 1553.55 1467.47 Q1553.55 1458.72 1556.61 1454.14 Q1559.69 1449.53 1565.5 1449.53 Z" fill="#000000" fill-rule="evenodd" fill-opacity="1" /><path clip-path="url(#clip280)" d="M1628.56 1480.78 L1636.2 1480.78 L1636.2 1454.42 L1627.89 1456.09 L1627.89 1451.83 L1636.15 1450.16 L1640.83 1450.16 L1640.83 1480.78 L1648.47 1480.78 L1648.47 1484.72 L1628.56 1484.72 L1628.56 1480.78 Z" fill="#000000" fill-rule="evenodd" fill-opacity="1" /><path clip-path="url(#clip280)" d="M1657.91 1478.84 L1662.8 1478.84 L1662.8 1484.72 L1657.91 1484.72 L1657.91 1478.84 Z" fill="#000000" fill-rule="evenodd" fill-opacity="1" /><path clip-path="url(#clip280)" d="M1677.01 1480.78 L1693.33 1480.78 L1693.33 1484.72 L1671.38 1484.72 L1671.38 1480.78 Q1674.05 1478.03 1678.63 1473.4 Q1683.24 1468.75 1684.42 1467.41 Q1686.66 1464.88 1687.54 1463.15 Q1688.44 1461.39 1688.44 1459.7 Q1688.44 1456.94 1686.5 1455.21 Q1684.58 1453.47 1681.48 1453.47 Q1679.28 1453.47 1676.82 1454.23 Q1674.39 1455 1671.62 1456.55 L1671.62 1451.83 Q1674.44 1450.69 1676.89 1450.11 Q1679.35 1449.53 1681.38 1449.53 Q1686.75 1449.53 1689.95 1452.22 Q1693.14 1454.91 1693.14 1459.4 Q1693.14 1461.53 1692.33 1463.45 Q1691.55 1465.34 1689.44 1467.94 Q1688.86 1468.61 1685.76 1471.83 Q1682.66 1475.02 1677.01 1480.78 Z" fill="#000000" fill-rule="evenodd" fill-opacity="1" /><path clip-path="url(#clip280)" d="M1703.19 1450.16 L1721.55 1450.16 L1721.55 1454.1 L1707.47 1454.1 L1707.47 1462.57 Q1708.49 1462.22 1709.51 1462.06 Q1710.53 1461.87 1711.55 1461.87 Q1717.33 1461.87 1720.71 1465.04 Q1724.09 1468.22 1724.09 1473.63 Q1724.09 1479.21 1720.62 1482.31 Q1717.15 1485.39 1710.83 1485.39 Q1708.65 1485.39 1706.38 1485.02 Q1704.14 1484.65 1701.73 1483.91 L1701.73 1479.21 Q1703.81 1480.34 1706.04 1480.9 Q1708.26 1481.46 1710.74 1481.46 Q1714.74 1481.46 1717.08 1479.35 Q1719.42 1477.24 1719.42 1473.63 Q1719.42 1470.02 1717.08 1467.91 Q1714.74 1465.81 1710.74 1465.81 Q1708.86 1465.81 1706.99 1466.22 Q1705.13 1466.64 1703.19 1467.52 L1703.19 1450.16 Z" fill="#000000" fill-rule="evenodd" fill-opacity="1" /><path clip-path="url(#clip280)" d="M1775.21 1480.78 L1782.85 1480.78 L1782.85 1454.42 L1774.54 1456.09 L1774.54 1451.83 L1782.8 1450.16 L1787.48 1450.16 L1787.48 1480.78 L1795.12 1480.78 L1795.12 1484.72 L1775.21 1484.72 L1775.21 1480.78 Z" fill="#000000" fill-rule="evenodd" fill-opacity="1" /><path clip-path="url(#clip280)" d="M1804.56 1478.84 L1809.45 1478.84 L1809.45 1484.72 L1804.56 1484.72 L1804.56 1478.84 Z" fill="#000000" fill-rule="evenodd" fill-opacity="1" /><path clip-path="url(#clip280)" d="M1819.68 1450.16 L1838.03 1450.16 L1838.03 1454.1 L1823.96 1454.1 L1823.96 1462.57 Q1824.98 1462.22 1826 1462.06 Q1827.02 1461.87 1828.03 1461.87 Q1833.82 1461.87 1837.2 1465.04 Q1840.58 1468.22 1840.58 1473.63 Q1840.58 1479.21 1837.11 1482.31 Q1833.64 1485.39 1827.32 1485.39 Q1825.14 1485.39 1822.87 1485.02 Q1820.63 1484.65 1818.22 1483.91 L1818.22 1479.21 Q1820.3 1480.34 1822.53 1480.9 Q1824.75 1481.46 1827.22 1481.46 Q1831.23 1481.46 1833.57 1479.35 Q1835.9 1477.24 1835.9 1473.63 Q1835.9 1470.02 1833.57 1467.91 Q1831.23 1465.81 1827.22 1465.81 Q1825.35 1465.81 1823.47 1466.22 Q1821.62 1466.64 1819.68 1467.52 L1819.68 1450.16 Z" fill="#000000" fill-rule="evenodd" fill-opacity="1" /><path clip-path="url(#clip280)" d="M1859.79 1453.24 Q1856.18 1453.24 1854.35 1456.8 Q1852.55 1460.35 1852.55 1467.47 Q1852.55 1474.58 1854.35 1478.15 Q1856.18 1481.69 1859.79 1481.69 Q1863.43 1481.69 1865.23 1478.15 Q1867.06 1474.58 1867.06 1467.47 Q1867.06 1460.35 1865.23 1456.8 Q1863.43 1453.24 1859.79 1453.24 M1859.79 1449.53 Q1865.6 1449.53 1868.66 1454.14 Q1871.74 1458.72 1871.74 1467.47 Q1871.74 1476.2 1868.66 1480.81 Q1865.6 1485.39 1859.79 1485.39 Q1853.98 1485.39 1850.9 1480.81 Q1847.85 1476.2 1847.85 1467.47 Q1847.85 1458.72 1850.9 1454.14 Q1853.98 1449.53 1859.79 1449.53 Z" fill="#000000" fill-rule="evenodd" fill-opacity="1" /><path clip-path="url(#clip280)" d="M1922.86 1480.78 L1930.49 1480.78 L1930.49 1454.42 L1922.18 1456.09 L1922.18 1451.83 L1930.45 1450.16 L1935.12 1450.16 L1935.12 1480.78 L1942.76 1480.78 L1942.76 1484.72 L1922.86 1484.72 L1922.86 1480.78 Z" fill="#000000" fill-rule="evenodd" fill-opacity="1" /><path clip-path="url(#clip280)" d="M1952.21 1478.84 L1957.09 1478.84 L1957.09 1484.72 L1952.21 1484.72 L1952.21 1478.84 Z" fill="#000000" fill-rule="evenodd" fill-opacity="1" /><path clip-path="url(#clip280)" d="M1966.1 1450.16 L1988.32 1450.16 L1988.32 1452.15 L1975.77 1484.72 L1970.89 1484.72 L1982.69 1454.1 L1966.1 1454.1 L1966.1 1450.16 Z" fill="#000000" fill-rule="evenodd" fill-opacity="1" /><path clip-path="url(#clip280)" d="M1997.48 1450.16 L2015.84 1450.16 L2015.84 1454.1 L2001.77 1454.1 L2001.77 1462.57 Q2002.79 1462.22 2003.8 1462.06 Q2004.82 1461.87 2005.84 1461.87 Q2011.63 1461.87 2015.01 1465.04 Q2018.39 1468.22 2018.39 1473.63 Q2018.39 1479.21 2014.92 1482.31 Q2011.44 1485.39 2005.12 1485.39 Q2002.95 1485.39 2000.68 1485.02 Q1998.43 1484.65 1996.03 1483.91 L1996.03 1479.21 Q1998.11 1480.34 2000.33 1480.9 Q2002.55 1481.46 2005.03 1481.46 Q2009.04 1481.46 2011.37 1479.35 Q2013.71 1477.24 2013.71 1473.63 Q2013.71 1470.02 2011.37 1467.91 Q2009.04 1465.81 2005.03 1465.81 Q2003.16 1465.81 2001.28 1466.22 Q1999.43 1466.64 1997.48 1467.52 L1997.48 1450.16 Z" fill="#000000" fill-rule="evenodd" fill-opacity="1" /><path clip-path="url(#clip280)" d="M2073.59 1480.78 L2089.91 1480.78 L2089.91 1484.72 L2067.97 1484.72 L2067.97 1480.78 Q2070.63 1478.03 2075.21 1473.4 Q2079.82 1468.75 2081 1467.41 Q2083.24 1464.88 2084.12 1463.15 Q2085.03 1461.39 2085.03 1459.7 Q2085.03 1456.94 2083.08 1455.21 Q2081.16 1453.47 2078.06 1453.47 Q2075.86 1453.47 2073.41 1454.23 Q2070.98 1455 2068.2 1456.55 L2068.2 1451.83 Q2071.02 1450.69 2073.48 1450.11 Q2075.93 1449.53 2077.97 1449.53 Q2083.34 1449.53 2086.53 1452.22 Q2089.73 1454.91 2089.73 1459.4 Q2089.73 1461.53 2088.92 1463.45 Q2088.13 1465.34 2086.02 1467.94 Q2085.44 1468.61 2082.34 1471.83 Q2079.24 1475.02 2073.59 1480.78 Z" fill="#000000" fill-rule="evenodd" fill-opacity="1" /><path clip-path="url(#clip280)" d="M2099.73 1478.84 L2104.61 1478.84 L2104.61 1484.72 L2099.73 1484.72 L2099.73 1478.84 Z" fill="#000000" fill-rule="evenodd" fill-opacity="1" /><path clip-path="url(#clip280)" d="M2124.79 1453.24 Q2121.18 1453.24 2119.35 1456.8 Q2117.55 1460.35 2117.55 1467.47 Q2117.55 1474.58 2119.35 1478.15 Q2121.18 1481.69 2124.79 1481.69 Q2128.43 1481.69 2130.23 1478.15 Q2132.06 1474.58 2132.06 1467.47 Q2132.06 1460.35 2130.23 1456.8 Q2128.43 1453.24 2124.79 1453.24 M2124.79 1449.53 Q2130.6 1449.53 2133.66 1454.14 Q2136.74 1458.72 2136.74 1467.47 Q2136.74 1476.2 2133.66 1480.81 Q2130.6 1485.39 2124.79 1485.39 Q2118.98 1485.39 2115.91 1480.81 Q2112.85 1476.2 2112.85 1467.47 Q2112.85 1458.72 2115.91 1454.14 Q2118.98 1449.53 2124.79 1449.53 Z" fill="#000000" fill-rule="evenodd" fill-opacity="1" /><path clip-path="url(#clip280)" d="M2154.96 1453.24 Q2151.35 1453.24 2149.52 1456.8 Q2147.71 1460.35 2147.71 1467.47 Q2147.71 1474.58 2149.52 1478.15 Q2151.35 1481.69 2154.96 1481.69 Q2158.59 1481.69 2160.4 1478.15 Q2162.22 1474.58 2162.22 1467.47 Q2162.22 1460.35 2160.4 1456.8 Q2158.59 1453.24 2154.96 1453.24 M2154.96 1449.53 Q2160.77 1449.53 2163.82 1454.14 Q2166.9 1458.72 2166.9 1467.47 Q2166.9 1476.2 2163.82 1480.81 Q2160.77 1485.39 2154.96 1485.39 Q2149.15 1485.39 2146.07 1480.81 Q2143.01 1476.2 2143.01 1467.47 Q2143.01 1458.72 2146.07 1454.14 Q2149.15 1449.53 2154.96 1449.53 Z" fill="#000000" fill-rule="evenodd" fill-opacity="1" /><polyline clip-path="url(#clip283)" style="stroke:#000000; stroke-linecap:round; stroke-linejoin:round; stroke-width:2; stroke-opacity:0.1; fill:none" points="
  1374.14,1128.79 2256.76,1128.79 
  "/>
<polyline clip-path="url(#clip283)" style="stroke:#000000; stroke-linecap:round; stroke-linejoin:round; stroke-width:2; stroke-opacity:0.1; fill:none" points="
  1374.14,834.234 2256.76,834.234 
  "/>
<polyline clip-path="url(#clip283)" style="stroke:#000000; stroke-linecap:round; stroke-linejoin:round; stroke-width:2; stroke-opacity:0.1; fill:none" points="
  1374.14,539.674 2256.76,539.674 
  "/>
<polyline clip-path="url(#clip283)" style="stroke:#000000; stroke-linecap:round; stroke-linejoin:round; stroke-width:2; stroke-opacity:0.1; fill:none" points="
  1374.14,245.114 2256.76,245.114 
  "/>
<polyline clip-path="url(#clip280)" style="stroke:#000000; stroke-linecap:round; stroke-linejoin:round; stroke-width:4; stroke-opacity:1; fill:none" points="
  1374.14,1423.09 1374.14,47.2441 
  "/>
<polyline clip-path="url(#clip280)" style="stroke:#000000; stroke-linecap:round; stroke-linejoin:round; stroke-width:4; stroke-opacity:1; fill:none" points="
  1374.14,1128.79 1393.04,1128.79 
  "/>
<polyline clip-path="url(#clip280)" style="stroke:#000000; stroke-linecap:round; stroke-linejoin:round; stroke-width:4; stroke-opacity:1; fill:none" points="
  1374.14,834.234 1393.04,834.234 
  "/>
<polyline clip-path="url(#clip280)" style="stroke:#000000; stroke-linecap:round; stroke-linejoin:round; stroke-width:4; stroke-opacity:1; fill:none" points="
  1374.14,539.674 1393.04,539.674 
  "/>
<polyline clip-path="url(#clip280)" style="stroke:#000000; stroke-linecap:round; stroke-linejoin:round; stroke-width:4; stroke-opacity:1; fill:none" points="
  1374.14,245.114 1393.04,245.114 
  "/>
<path clip-path="url(#clip280)" d="M1203.47 1129.24 L1233.15 1129.24 L1233.15 1133.18 L1203.47 1133.18 L1203.47 1129.24 Z" fill="#000000" fill-rule="evenodd" fill-opacity="1" /><path clip-path="url(#clip280)" d="M1253.24 1114.59 Q1249.63 1114.59 1247.8 1118.16 Q1246 1121.7 1246 1128.83 Q1246 1135.93 1247.8 1139.5 Q1249.63 1143.04 1253.24 1143.04 Q1256.87 1143.04 1258.68 1139.5 Q1260.51 1135.93 1260.51 1128.83 Q1260.51 1121.7 1258.68 1118.16 Q1256.87 1114.59 1253.24 1114.59 M1253.24 1110.89 Q1259.05 1110.89 1262.11 1115.5 Q1265.18 1120.08 1265.18 1128.83 Q1265.18 1137.56 1262.11 1142.16 Q1259.05 1146.74 1253.24 1146.74 Q1247.43 1146.74 1244.35 1142.16 Q1241.3 1137.56 1241.3 1128.83 Q1241.3 1120.08 1244.35 1115.5 Q1247.43 1110.89 1253.24 1110.89 Z" fill="#000000" fill-rule="evenodd" fill-opacity="1" /><path clip-path="url(#clip280)" d="M1273.4 1140.19 L1278.29 1140.19 L1278.29 1146.07 L1273.4 1146.07 L1273.4 1140.19 Z" fill="#000000" fill-rule="evenodd" fill-opacity="1" /><path clip-path="url(#clip280)" d="M1292.5 1142.14 L1308.82 1142.14 L1308.82 1146.07 L1286.87 1146.07 L1286.87 1142.14 Q1289.54 1139.38 1294.12 1134.75 Q1298.73 1130.1 1299.91 1128.76 Q1302.15 1126.24 1303.03 1124.5 Q1303.93 1122.74 1303.93 1121.05 Q1303.93 1118.3 1301.99 1116.56 Q1300.07 1114.82 1296.97 1114.82 Q1294.77 1114.82 1292.31 1115.59 Q1289.88 1116.35 1287.11 1117.9 L1287.11 1113.18 Q1289.93 1112.05 1292.38 1111.47 Q1294.84 1110.89 1296.87 1110.89 Q1302.24 1110.89 1305.44 1113.57 Q1308.63 1116.26 1308.63 1120.75 Q1308.63 1122.88 1307.82 1124.8 Q1307.04 1126.7 1304.93 1129.29 Q1304.35 1129.96 1301.25 1133.18 Q1298.15 1136.37 1292.5 1142.14 Z" fill="#000000" fill-rule="evenodd" fill-opacity="1" /><path clip-path="url(#clip280)" d="M1318.68 1111.51 L1337.04 1111.51 L1337.04 1115.45 L1322.96 1115.45 L1322.96 1123.92 Q1323.98 1123.57 1325 1123.41 Q1326.02 1123.23 1327.04 1123.23 Q1332.82 1123.23 1336.2 1126.4 Q1339.58 1129.57 1339.58 1134.99 Q1339.58 1140.56 1336.11 1143.67 Q1332.64 1146.74 1326.32 1146.74 Q1324.14 1146.74 1321.87 1146.37 Q1319.63 1146 1317.22 1145.26 L1317.22 1140.56 Q1319.3 1141.7 1321.53 1142.25 Q1323.75 1142.81 1326.23 1142.81 Q1330.23 1142.81 1332.57 1140.7 Q1334.91 1138.6 1334.91 1134.99 Q1334.91 1131.37 1332.57 1129.27 Q1330.23 1127.16 1326.23 1127.16 Q1324.35 1127.16 1322.48 1127.58 Q1320.62 1127.99 1318.68 1128.87 L1318.68 1111.51 Z" fill="#000000" fill-rule="evenodd" fill-opacity="1" /><path clip-path="url(#clip280)" d="M1252.25 820.033 Q1248.63 820.033 1246.81 823.597 Q1245 827.139 1245 834.269 Q1245 841.375 1246.81 844.94 Q1248.63 848.481 1252.25 848.481 Q1255.88 848.481 1257.68 844.94 Q1259.51 841.375 1259.51 834.269 Q1259.51 827.139 1257.68 823.597 Q1255.88 820.033 1252.25 820.033 M1252.25 816.329 Q1258.06 816.329 1261.11 820.935 Q1264.19 825.519 1264.19 834.269 Q1264.19 842.995 1261.11 847.602 Q1258.06 852.185 1252.25 852.185 Q1246.43 852.185 1243.36 847.602 Q1240.3 842.995 1240.3 834.269 Q1240.3 825.519 1243.36 820.935 Q1246.43 816.329 1252.25 816.329 Z" fill="#000000" fill-rule="evenodd" fill-opacity="1" /><path clip-path="url(#clip280)" d="M1272.41 845.634 L1277.29 845.634 L1277.29 851.514 L1272.41 851.514 L1272.41 845.634 Z" fill="#000000" fill-rule="evenodd" fill-opacity="1" /><path clip-path="url(#clip280)" d="M1297.48 820.033 Q1293.87 820.033 1292.04 823.597 Q1290.23 827.139 1290.23 834.269 Q1290.23 841.375 1292.04 844.94 Q1293.87 848.481 1297.48 848.481 Q1301.11 848.481 1302.92 844.94 Q1304.74 841.375 1304.74 834.269 Q1304.74 827.139 1302.92 823.597 Q1301.11 820.033 1297.48 820.033 M1297.48 816.329 Q1303.29 816.329 1306.34 820.935 Q1309.42 825.519 1309.42 834.269 Q1309.42 842.995 1306.34 847.602 Q1303.29 852.185 1297.48 852.185 Q1291.67 852.185 1288.59 847.602 Q1285.53 842.995 1285.53 834.269 Q1285.53 825.519 1288.59 820.935 Q1291.67 816.329 1297.48 816.329 Z" fill="#000000" fill-rule="evenodd" fill-opacity="1" /><path clip-path="url(#clip280)" d="M1327.64 820.033 Q1324.03 820.033 1322.2 823.597 Q1320.39 827.139 1320.39 834.269 Q1320.39 841.375 1322.2 844.94 Q1324.03 848.481 1327.64 848.481 Q1331.27 848.481 1333.08 844.94 Q1334.91 841.375 1334.91 834.269 Q1334.91 827.139 1333.08 823.597 Q1331.27 820.033 1327.64 820.033 M1327.64 816.329 Q1333.45 816.329 1336.5 820.935 Q1339.58 825.519 1339.58 834.269 Q1339.58 842.995 1336.5 847.602 Q1333.45 852.185 1327.64 852.185 Q1321.83 852.185 1318.75 847.602 Q1315.69 842.995 1315.69 834.269 Q1315.69 825.519 1318.75 820.935 Q1321.83 816.329 1327.64 816.329 Z" fill="#000000" fill-rule="evenodd" fill-opacity="1" /><path clip-path="url(#clip280)" d="M1253.24 525.473 Q1249.63 525.473 1247.8 529.038 Q1246 532.579 1246 539.709 Q1246 546.815 1247.8 550.38 Q1249.63 553.922 1253.24 553.922 Q1256.87 553.922 1258.68 550.38 Q1260.51 546.815 1260.51 539.709 Q1260.51 532.579 1258.68 529.038 Q1256.87 525.473 1253.24 525.473 M1253.24 521.769 Q1259.05 521.769 1262.11 526.376 Q1265.18 530.959 1265.18 539.709 Q1265.18 548.436 1262.11 553.042 Q1259.05 557.625 1253.24 557.625 Q1247.43 557.625 1244.35 553.042 Q1241.3 548.436 1241.3 539.709 Q1241.3 530.959 1244.35 526.376 Q1247.43 521.769 1253.24 521.769 Z" fill="#000000" fill-rule="evenodd" fill-opacity="1" /><path clip-path="url(#clip280)" d="M1273.4 551.074 L1278.29 551.074 L1278.29 556.954 L1273.4 556.954 L1273.4 551.074 Z" fill="#000000" fill-rule="evenodd" fill-opacity="1" /><path clip-path="url(#clip280)" d="M1292.5 553.019 L1308.82 553.019 L1308.82 556.954 L1286.87 556.954 L1286.87 553.019 Q1289.54 550.264 1294.12 545.635 Q1298.73 540.982 1299.91 539.639 Q1302.15 537.116 1303.03 535.38 Q1303.93 533.621 1303.93 531.931 Q1303.93 529.176 1301.99 527.44 Q1300.07 525.704 1296.97 525.704 Q1294.77 525.704 1292.31 526.468 Q1289.88 527.232 1287.11 528.783 L1287.11 524.061 Q1289.93 522.926 1292.38 522.348 Q1294.84 521.769 1296.87 521.769 Q1302.24 521.769 1305.44 524.454 Q1308.63 527.139 1308.63 531.63 Q1308.63 533.76 1307.82 535.681 Q1307.04 537.579 1304.93 540.172 Q1304.35 540.843 1301.25 544.061 Q1298.15 547.255 1292.5 553.019 Z" fill="#000000" fill-rule="evenodd" fill-opacity="1" /><path clip-path="url(#clip280)" d="M1318.68 522.394 L1337.04 522.394 L1337.04 526.329 L1322.96 526.329 L1322.96 534.801 Q1323.98 534.454 1325 534.292 Q1326.02 534.107 1327.04 534.107 Q1332.82 534.107 1336.2 537.278 Q1339.58 540.45 1339.58 545.866 Q1339.58 551.445 1336.11 554.547 Q1332.64 557.625 1326.32 557.625 Q1324.14 557.625 1321.87 557.255 Q1319.63 556.885 1317.22 556.144 L1317.22 551.445 Q1319.3 552.579 1321.53 553.135 Q1323.75 553.69 1326.23 553.69 Q1330.23 553.69 1332.57 551.584 Q1334.91 549.477 1334.91 545.866 Q1334.91 542.255 1332.57 540.149 Q1330.23 538.042 1326.23 538.042 Q1324.35 538.042 1322.48 538.459 Q1320.62 538.875 1318.68 539.755 L1318.68 522.394 Z" fill="#000000" fill-rule="evenodd" fill-opacity="1" /><path clip-path="url(#clip280)" d="M1252.25 230.913 Q1248.63 230.913 1246.81 234.478 Q1245 238.019 1245 245.149 Q1245 252.255 1246.81 255.82 Q1248.63 259.362 1252.25 259.362 Q1255.88 259.362 1257.68 255.82 Q1259.51 252.255 1259.51 245.149 Q1259.51 238.019 1257.68 234.478 Q1255.88 230.913 1252.25 230.913 M1252.25 227.209 Q1258.06 227.209 1261.11 231.816 Q1264.19 236.399 1264.19 245.149 Q1264.19 253.876 1261.11 258.482 Q1258.06 263.066 1252.25 263.066 Q1246.43 263.066 1243.36 258.482 Q1240.3 253.876 1240.3 245.149 Q1240.3 236.399 1243.36 231.816 Q1246.43 227.209 1252.25 227.209 Z" fill="#000000" fill-rule="evenodd" fill-opacity="1" /><path clip-path="url(#clip280)" d="M1272.41 256.515 L1277.29 256.515 L1277.29 262.394 L1272.41 262.394 L1272.41 256.515 Z" fill="#000000" fill-rule="evenodd" fill-opacity="1" /><path clip-path="url(#clip280)" d="M1287.52 227.834 L1305.88 227.834 L1305.88 231.769 L1291.8 231.769 L1291.8 240.242 Q1292.82 239.894 1293.84 239.732 Q1294.86 239.547 1295.88 239.547 Q1301.67 239.547 1305.05 242.718 Q1308.43 245.89 1308.43 251.306 Q1308.43 256.885 1304.95 259.987 Q1301.48 263.066 1295.16 263.066 Q1292.99 263.066 1290.72 262.695 Q1288.47 262.325 1286.06 261.584 L1286.06 256.885 Q1288.15 258.019 1290.37 258.575 Q1292.59 259.13 1295.07 259.13 Q1299.07 259.13 1301.41 257.024 Q1303.75 254.917 1303.75 251.306 Q1303.75 247.695 1301.41 245.589 Q1299.07 243.482 1295.07 243.482 Q1293.19 243.482 1291.32 243.899 Q1289.47 244.316 1287.52 245.195 L1287.52 227.834 Z" fill="#000000" fill-rule="evenodd" fill-opacity="1" /><path clip-path="url(#clip280)" d="M1327.64 230.913 Q1324.03 230.913 1322.2 234.478 Q1320.39 238.019 1320.39 245.149 Q1320.39 252.255 1322.2 255.82 Q1324.03 259.362 1327.64 259.362 Q1331.27 259.362 1333.08 255.82 Q1334.91 252.255 1334.91 245.149 Q1334.91 238.019 1333.08 234.478 Q1331.27 230.913 1327.64 230.913 M1327.64 227.209 Q1333.45 227.209 1336.5 231.816 Q1339.58 236.399 1339.58 245.149 Q1339.58 253.876 1336.5 258.482 Q1333.45 263.066 1327.64 263.066 Q1321.83 263.066 1318.75 258.482 Q1315.69 253.876 1315.69 245.149 Q1315.69 236.399 1318.75 231.816 Q1321.83 227.209 1327.64 227.209 Z" fill="#000000" fill-rule="evenodd" fill-opacity="1" /><circle clip-path="url(#clip283)" cx="1399.12" cy="678.129" r="14.4" fill="#009af9" fill-rule="evenodd" fill-opacity="1" stroke="#000000" stroke-opacity="1" stroke-width="3.072"/>
<circle clip-path="url(#clip283)" cx="1478.23" cy="331.592" r="14.4" fill="#009af9" fill-rule="evenodd" fill-opacity="1" stroke="#000000" stroke-opacity="1" stroke-width="3.072"/>
<circle clip-path="url(#clip283)" cx="1602.64" cy="826.78" r="14.4" fill="#009af9" fill-rule="evenodd" fill-opacity="1" stroke="#000000" stroke-opacity="1" stroke-width="3.072"/>
<circle clip-path="url(#clip283)" cx="1613.13" cy="620.717" r="14.4" fill="#009af9" fill-rule="evenodd" fill-opacity="1" stroke="#000000" stroke-opacity="1" stroke-width="3.072"/>
<circle clip-path="url(#clip283)" cx="1642.54" cy="680.685" r="14.4" fill="#009af9" fill-rule="evenodd" fill-opacity="1" stroke="#000000" stroke-opacity="1" stroke-width="3.072"/>
<circle clip-path="url(#clip283)" cx="1646.3" cy="630.875" r="14.4" fill="#009af9" fill-rule="evenodd" fill-opacity="1" stroke="#000000" stroke-opacity="1" stroke-width="3.072"/>
<circle clip-path="url(#clip283)" cx="1671.47" cy="467.806" r="14.4" fill="#009af9" fill-rule="evenodd" fill-opacity="1" stroke="#000000" stroke-opacity="1" stroke-width="3.072"/>
<circle clip-path="url(#clip283)" cx="1686.72" cy="496.415" r="14.4" fill="#009af9" fill-rule="evenodd" fill-opacity="1" stroke="#000000" stroke-opacity="1" stroke-width="3.072"/>
<circle clip-path="url(#clip283)" cx="1692.58" cy="507.976" r="14.4" fill="#009af9" fill-rule="evenodd" fill-opacity="1" stroke="#000000" stroke-opacity="1" stroke-width="3.072"/>
<circle clip-path="url(#clip283)" cx="1693.37" cy="463.645" r="14.4" fill="#009af9" fill-rule="evenodd" fill-opacity="1" stroke="#000000" stroke-opacity="1" stroke-width="3.072"/>
<circle clip-path="url(#clip283)" cx="1695.64" cy="828.102" r="14.4" fill="#009af9" fill-rule="evenodd" fill-opacity="1" stroke="#000000" stroke-opacity="1" stroke-width="3.072"/>
<circle clip-path="url(#clip283)" cx="1698.61" cy="188.126" r="14.4" fill="#009af9" fill-rule="evenodd" fill-opacity="1" stroke="#000000" stroke-opacity="1" stroke-width="3.072"/>
<circle clip-path="url(#clip283)" cx="1707.85" cy="303.763" r="14.4" fill="#009af9" fill-rule="evenodd" fill-opacity="1" stroke="#000000" stroke-opacity="1" stroke-width="3.072"/>
<circle clip-path="url(#clip283)" cx="1721.41" cy="229.172" r="14.4" fill="#009af9" fill-rule="evenodd" fill-opacity="1" stroke="#000000" stroke-opacity="1" stroke-width="3.072"/>
<circle clip-path="url(#clip283)" cx="1722.8" cy="624.088" r="14.4" fill="#009af9" fill-rule="evenodd" fill-opacity="1" stroke="#000000" stroke-opacity="1" stroke-width="3.072"/>
<circle clip-path="url(#clip283)" cx="1735.78" cy="830.696" r="14.4" fill="#009af9" fill-rule="evenodd" fill-opacity="1" stroke="#000000" stroke-opacity="1" stroke-width="3.072"/>
<circle clip-path="url(#clip283)" cx="1744.23" cy="846.073" r="14.4" fill="#009af9" fill-rule="evenodd" fill-opacity="1" stroke="#000000" stroke-opacity="1" stroke-width="3.072"/>
<circle clip-path="url(#clip283)" cx="1755.47" cy="353.285" r="14.4" fill="#009af9" fill-rule="evenodd" fill-opacity="1" stroke="#000000" stroke-opacity="1" stroke-width="3.072"/>
<circle clip-path="url(#clip283)" cx="1760.46" cy="558.2" r="14.4" fill="#009af9" fill-rule="evenodd" fill-opacity="1" stroke="#000000" stroke-opacity="1" stroke-width="3.072"/>
<circle clip-path="url(#clip283)" cx="1762.21" cy="1307.21" r="14.4" fill="#009af9" fill-rule="evenodd" fill-opacity="1" stroke="#000000" stroke-opacity="1" stroke-width="3.072"/>
<circle clip-path="url(#clip283)" cx="1764.05" cy="574.812" r="14.4" fill="#009af9" fill-rule="evenodd" fill-opacity="1" stroke="#000000" stroke-opacity="1" stroke-width="3.072"/>
<circle clip-path="url(#clip283)" cx="1770.77" cy="358.363" r="14.4" fill="#009af9" fill-rule="evenodd" fill-opacity="1" stroke="#000000" stroke-opacity="1" stroke-width="3.072"/>
<circle clip-path="url(#clip283)" cx="1776.09" cy="1076.22" r="14.4" fill="#009af9" fill-rule="evenodd" fill-opacity="1" stroke="#000000" stroke-opacity="1" stroke-width="3.072"/>
<circle clip-path="url(#clip283)" cx="1791.54" cy="341.005" r="14.4" fill="#009af9" fill-rule="evenodd" fill-opacity="1" stroke="#000000" stroke-opacity="1" stroke-width="3.072"/>
<circle clip-path="url(#clip283)" cx="1820.66" cy="457.515" r="14.4" fill="#009af9" fill-rule="evenodd" fill-opacity="1" stroke="#000000" stroke-opacity="1" stroke-width="3.072"/>
<circle clip-path="url(#clip283)" cx="1823.85" cy="381.595" r="14.4" fill="#009af9" fill-rule="evenodd" fill-opacity="1" stroke="#000000" stroke-opacity="1" stroke-width="3.072"/>
<circle clip-path="url(#clip283)" cx="1838.12" cy="1067.45" r="14.4" fill="#009af9" fill-rule="evenodd" fill-opacity="1" stroke="#000000" stroke-opacity="1" stroke-width="3.072"/>
<circle clip-path="url(#clip283)" cx="1841.41" cy="288.909" r="14.4" fill="#009af9" fill-rule="evenodd" fill-opacity="1" stroke="#000000" stroke-opacity="1" stroke-width="3.072"/>
<circle clip-path="url(#clip283)" cx="1848.23" cy="818.254" r="14.4" fill="#009af9" fill-rule="evenodd" fill-opacity="1" stroke="#000000" stroke-opacity="1" stroke-width="3.072"/>
<circle clip-path="url(#clip283)" cx="1860.23" cy="234.663" r="14.4" fill="#009af9" fill-rule="evenodd" fill-opacity="1" stroke="#000000" stroke-opacity="1" stroke-width="3.072"/>
<circle clip-path="url(#clip283)" cx="1862.6" cy="823.782" r="14.4" fill="#009af9" fill-rule="evenodd" fill-opacity="1" stroke="#000000" stroke-opacity="1" stroke-width="3.072"/>
<circle clip-path="url(#clip283)" cx="1862.84" cy="452.519" r="14.4" fill="#009af9" fill-rule="evenodd" fill-opacity="1" stroke="#000000" stroke-opacity="1" stroke-width="3.072"/>
<circle clip-path="url(#clip283)" cx="1887.98" cy="668.689" r="14.4" fill="#009af9" fill-rule="evenodd" fill-opacity="1" stroke="#000000" stroke-opacity="1" stroke-width="3.072"/>
<circle clip-path="url(#clip283)" cx="1893.17" cy="675.164" r="14.4" fill="#009af9" fill-rule="evenodd" fill-opacity="1" stroke="#000000" stroke-opacity="1" stroke-width="3.072"/>
<circle clip-path="url(#clip283)" cx="1899.15" cy="704.556" r="14.4" fill="#009af9" fill-rule="evenodd" fill-opacity="1" stroke="#000000" stroke-opacity="1" stroke-width="3.072"/>
<circle clip-path="url(#clip283)" cx="1910.79" cy="757.152" r="14.4" fill="#009af9" fill-rule="evenodd" fill-opacity="1" stroke="#000000" stroke-opacity="1" stroke-width="3.072"/>
<circle clip-path="url(#clip283)" cx="1943.96" cy="681.638" r="14.4" fill="#009af9" fill-rule="evenodd" fill-opacity="1" stroke="#000000" stroke-opacity="1" stroke-width="3.072"/>
<circle clip-path="url(#clip283)" cx="1956.62" cy="134.999" r="14.4" fill="#009af9" fill-rule="evenodd" fill-opacity="1" stroke="#000000" stroke-opacity="1" stroke-width="3.072"/>
<circle clip-path="url(#clip283)" cx="1964.27" cy="519.292" r="14.4" fill="#009af9" fill-rule="evenodd" fill-opacity="1" stroke="#000000" stroke-opacity="1" stroke-width="3.072"/>
<circle clip-path="url(#clip283)" cx="1968.18" cy="399.157" r="14.4" fill="#009af9" fill-rule="evenodd" fill-opacity="1" stroke="#000000" stroke-opacity="1" stroke-width="3.072"/>
<circle clip-path="url(#clip283)" cx="2015.78" cy="757.073" r="14.4" fill="#009af9" fill-rule="evenodd" fill-opacity="1" stroke="#000000" stroke-opacity="1" stroke-width="3.072"/>
<circle clip-path="url(#clip283)" cx="2033.58" cy="819.664" r="14.4" fill="#009af9" fill-rule="evenodd" fill-opacity="1" stroke="#000000" stroke-opacity="1" stroke-width="3.072"/>
<circle clip-path="url(#clip283)" cx="2034.27" cy="341.842" r="14.4" fill="#009af9" fill-rule="evenodd" fill-opacity="1" stroke="#000000" stroke-opacity="1" stroke-width="3.072"/>
<circle clip-path="url(#clip283)" cx="2035.49" cy="1384.15" r="14.4" fill="#009af9" fill-rule="evenodd" fill-opacity="1" stroke="#000000" stroke-opacity="1" stroke-width="3.072"/>
<circle clip-path="url(#clip283)" cx="2035.9" cy="819.128" r="14.4" fill="#009af9" fill-rule="evenodd" fill-opacity="1" stroke="#000000" stroke-opacity="1" stroke-width="3.072"/>
<circle clip-path="url(#clip283)" cx="2057.76" cy="372.608" r="14.4" fill="#009af9" fill-rule="evenodd" fill-opacity="1" stroke="#000000" stroke-opacity="1" stroke-width="3.072"/>
<circle clip-path="url(#clip283)" cx="2066.11" cy="699.343" r="14.4" fill="#009af9" fill-rule="evenodd" fill-opacity="1" stroke="#000000" stroke-opacity="1" stroke-width="3.072"/>
<circle clip-path="url(#clip283)" cx="2098.97" cy="440.275" r="14.4" fill="#009af9" fill-rule="evenodd" fill-opacity="1" stroke="#000000" stroke-opacity="1" stroke-width="3.072"/>
<circle clip-path="url(#clip283)" cx="2137.12" cy="86.1831" r="14.4" fill="#009af9" fill-rule="evenodd" fill-opacity="1" stroke="#000000" stroke-opacity="1" stroke-width="3.072"/>
<circle clip-path="url(#clip283)" cx="2231.78" cy="432.33" r="14.4" fill="#009af9" fill-rule="evenodd" fill-opacity="1" stroke="#000000" stroke-opacity="1" stroke-width="3.072"/>
<polyline clip-path="url(#clip283)" style="stroke:#0000ff; stroke-linecap:round; stroke-linejoin:round; stroke-width:20; stroke-opacity:1; fill:none" points="
  1399.12,602.699 1401.04,602.41 1418.75,599.735 1429.4,598.127 1438.4,596.768 1448.17,595.292 1457.19,593.931 1466.85,592.472 1478.05,590.781 1488,589.279 
  1496.72,587.961 1506.23,586.525 1515.8,585.08 1526.38,583.482 1536.45,581.962 1546.92,580.382 1555.73,579.051 1566.48,577.427 1576.34,575.939 1585.44,574.565 
  1594.66,573.173 1604.99,571.612 1614.35,570.199 1625.07,568.58 1635,567.081 1644.78,565.604 1654.28,564.169 1664.02,562.699 1674.69,561.087 1690.19,558.747 
  1693.37,558.266 
  "/>
<polyline clip-path="url(#clip283)" style="stroke:#0000ff; stroke-linecap:round; stroke-linejoin:round; stroke-width:20; stroke-opacity:1; fill:none" points="
  1646.3,607.239 1646.8,605.838 1651.4,592.886 1654.17,585.102 1656.51,578.521 1659.05,571.372 1661.4,564.781 1663.91,557.715 1666.82,549.529 1669.41,542.254 
  1671.67,535.874 1674.15,528.919 1676.64,521.922 1679.39,514.186 1682,506.825 1684.72,499.172 1687.02,492.729 1689.81,484.864 1692.37,477.659 1694.74,471.004 
  1697.14,464.263 1699.82,456.708 1702.26,449.862 1705.04,442.025 1707.62,434.767 1710.17,427.612 1712.64,420.666 1715.17,413.544 1717.94,405.742 1721.97,394.408 
  1722.8,392.083 
  "/>
<polyline clip-path="url(#clip283)" style="stroke:#0000ff; stroke-linecap:round; stroke-linejoin:round; stroke-width:20; stroke-opacity:1; fill:none" points="
  1695.64,392.411 1696.07,395.081 1700.08,419.772 1702.49,434.611 1704.52,447.156 1706.74,460.784 1708.77,473.348 1710.96,486.818 1713.49,502.424 1715.74,516.292 
  1717.72,528.454 1719.87,541.714 1722.04,555.052 1724.43,569.799 1726.71,583.831 1729.07,598.42 1731.07,610.701 1733.5,625.695 1735.73,639.431 1737.79,652.117 
  1739.88,664.967 1742.21,679.369 1744.33,692.419 1746.76,707.361 1749,721.195 1751.22,734.834 1753.37,748.077 1755.57,761.652 1757.98,776.526 1761.49,798.132 
  1762.21,802.564 
  "/>
<polyline clip-path="url(#clip283)" style="stroke:#0000ff; stroke-linecap:round; stroke-linejoin:round; stroke-width:20; stroke-opacity:1; fill:none" points="
  1735.78,820.079 1736.33,817.521 1741.44,793.865 1744.51,779.65 1747.11,767.63 1749.93,754.574 1752.53,742.537 1755.32,729.633 1758.55,714.681 1761.42,701.395 
  1763.93,689.743 1766.68,677.04 1769.44,664.261 1772.49,650.133 1775.39,636.69 1778.41,622.712 1780.95,610.946 1784.06,596.581 1786.9,583.422 1789.53,571.268 
  1792.18,558.957 1795.17,545.159 1797.87,532.657 1800.96,518.342 1803.82,505.088 1806.64,492.021 1809.38,479.334 1812.19,466.328 1815.27,452.078 1819.74,431.379 
  1820.66,427.132 
  "/>
<polyline clip-path="url(#clip283)" style="stroke:#0000ff; stroke-linecap:round; stroke-linejoin:round; stroke-width:20; stroke-opacity:1; fill:none" points="
  1764.05,606.739 1764.68,606.145 1770.47,600.658 1773.95,597.36 1776.89,594.572 1780.08,591.543 1783.03,588.751 1786.19,585.757 1789.85,582.289 1793.1,579.207 
  1795.95,576.504 1799.06,573.557 1802.19,570.593 1805.65,567.315 1808.94,564.197 1812.36,560.955 1815.24,558.225 1818.75,554.893 1821.97,551.84 1824.95,549.021 
  1827.96,546.165 1831.34,542.964 1834.4,540.064 1837.9,536.743 1841.15,533.669 1844.35,530.637 1847.45,527.694 1850.63,524.677 1854.12,521.372 1859.19,516.57 
  1860.23,515.585 
  "/>
<polyline clip-path="url(#clip283)" style="stroke:#0000ff; stroke-linecap:round; stroke-linejoin:round; stroke-width:20; stroke-opacity:1; fill:none" points="
  1823.85,549.593 1824.34,550.394 1828.87,557.804 1831.6,562.256 1833.9,566.021 1836.4,570.111 1838.71,573.881 1841.18,577.923 1844.04,582.606 1846.59,586.768 
  1848.82,590.418 1851.26,594.397 1853.71,598.4 1856.41,602.825 1858.99,607.036 1861.67,611.414 1863.92,615.099 1866.68,619.599 1869.2,623.721 1871.53,627.528 
  1873.89,631.384 1876.53,635.706 1878.93,639.622 1881.67,644.106 1884.21,648.257 1886.71,652.35 1889.14,656.324 1891.64,660.398 1894.37,664.862 1898.33,671.345 
  1899.15,672.675 
  "/>
<polyline clip-path="url(#clip283)" style="stroke:#0000ff; stroke-linecap:round; stroke-linejoin:round; stroke-width:20; stroke-opacity:1; fill:none" points="
  1862.6,728.819 1863.29,726.887 1869.65,709.026 1873.47,698.292 1876.7,689.216 1880.2,679.358 1883.44,670.269 1886.91,660.525 1890.92,649.235 1894.49,639.203 
  1897.62,630.405 1901.04,620.813 1904.47,611.164 1908.27,600.496 1911.88,590.345 1915.63,579.791 1918.79,570.907 1922.65,560.06 1926.19,550.124 1929.46,540.947 
  1932.76,531.651 1936.47,521.233 1939.83,511.792 1943.68,500.983 1947.24,490.975 1950.75,481.109 1954.16,471.529 1957.65,461.709 1961.48,450.949 1967.04,435.319 
  1968.18,432.113 
  "/>
<polyline clip-path="url(#clip283)" style="stroke:#0000ff; stroke-linecap:round; stroke-linejoin:round; stroke-width:20; stroke-opacity:1; fill:none" points="
  1910.79,441.594 1911.61,443.858 1919.14,464.79 1923.67,477.37 1927.49,488.006 1931.65,499.559 1935.48,510.211 1939.59,521.63 1944.35,534.861 1948.58,546.619 
  1952.29,556.929 1956.34,568.17 1960.41,579.478 1964.9,591.981 1969.18,603.877 1973.63,616.245 1977.38,626.657 1981.95,639.369 1986.14,651.014 1990.01,661.769 
  1993.93,672.663 1998.33,684.873 2002.31,695.936 2006.86,708.604 2011.08,720.332 2015.25,731.896 2019.28,743.123 2023.43,754.632 2027.96,767.241 2034.55,785.558 
  2035.9,789.316 
  "/>
<polyline clip-path="url(#clip283)" style="stroke:#0000ff; stroke-linecap:round; stroke-linejoin:round; stroke-width:20; stroke-opacity:1; fill:none" points="
  2015.78,774.46 2017.18,770.659 2030.18,735.512 2038,714.391 2044.61,696.533 2051.78,677.134 2058.4,659.25 2065.49,640.077 2073.71,617.862 2081.02,598.121 
  2087.42,580.809 2094.4,561.935 2101.43,542.949 2109.19,521.957 2116.58,501.984 2124.27,481.216 2130.73,463.735 2138.63,442.391 2145.86,422.839 2152.55,404.782 
  2159.31,386.49 2166.9,365.99 2173.77,347.414 2181.64,326.145 2188.92,306.452 2196.11,287.038 2203.08,268.187 2210.23,248.863 2218.06,227.692 2229.44,196.937 
  2231.78,190.627 
  "/>
<polyline clip-path="url(#clip283)" style="stroke:#ff0000; stroke-linecap:round; stroke-linejoin:round; stroke-width:20; stroke-opacity:1; fill:none" points="
  1399.12,582.65 1407.53,579.988 1415.94,577.475 1424.35,575.111 1432.76,572.894 1441.18,570.824 1449.59,568.9 1458,567.119 1466.41,565.482 1474.82,563.987 
  1483.23,562.632 1491.64,561.418 1500.05,560.342 1508.46,559.404 1516.87,558.603 1525.28,557.937 1533.69,557.406 1542.1,556.737 1550.51,555.338 1558.92,554.428 
  1567.34,553.978 1575.75,553.953 1584.16,554.323 1592.57,555.055 1600.98,556.118 1609.39,557.478 1617.8,560.115 1626.21,563.369 1634.62,566.326 1643.03,569.01 
  1651.44,572.866 1659.85,575.686 1668.26,576.484 1676.67,576.209 1685.08,575.01 1693.49,572.824 1701.91,571.015 1710.32,570.539 1718.73,571.592 1727.14,574.002 
  1735.55,578.176 1743.96,584.689 1752.37,594.119 1760.78,606.068 1769.19,619.33 1777.6,628.463 1786.01,632.825 1794.42,635.458 1802.83,634.942 1811.24,633.798 
  1819.65,632.481 1828.07,627.707 1836.48,620.004 1844.89,611.758 1853.3,607.42 1861.71,605.763 1870.12,599.502 1878.53,592.477 1886.94,585.824 1895.35,579.088 
  1903.76,572.379 1912.17,574.627 1920.58,579.088 1928.99,584.613 1937.4,591.128 1945.81,600.06 1954.22,613.903 1962.64,626.482 1971.05,635.646 1979.46,639.99 
  1987.87,642.894 1996.28,644.004 2004.69,642.96 2013.1,639.408 2021.51,632.989 2029.92,624.006 2038.33,614.952 2046.74,606.198 2055.15,597.549 2063.56,588.945 
  2071.97,580.169 2080.38,571.309 2088.8,561.443 2097.21,550.793 2105.62,539.656 2114.03,528.057 2122.44,516.019 2130.85,503.567 2139.26,490.191 2147.67,474.695 
  2156.08,458.559 2164.49,441.796 2172.9,424.424 2181.31,406.458 2189.72,387.915 2198.13,368.809 2206.54,349.157 2214.95,328.975 2223.37,308.278 2231.78,287.083 
  
  "/>
</svg>
