<?xml version="1.0" encoding="utf-8"?>
<svg xmlns="http://www.w3.org/2000/svg" xmlns:xlink="http://www.w3.org/1999/xlink" width="672" height="480" viewBox="0 0 2688 1920">
<defs>
  <clipPath id="clip300">
    <rect x="0" y="0" width="2688" height="1920"/>
  </clipPath>
</defs>
<path clip-path="url(#clip300)" d="
M0 1920 L2688 1920 L2688 0 L0 0  Z
  " fill="#ffffff" fill-rule="evenodd" fill-opacity="1"/>
<defs>
  <clipPath id="clip301">
    <rect x="537" y="0" width="1883" height="1883"/>
  </clipPath>
</defs>
<path clip-path="url(#clip300)" d="
M158.992 1800.78 L2640.76 1800.78 L2640.76 47.2441 L158.992 47.2441  Z
  " fill="#ffffff" fill-rule="evenodd" fill-opacity="1"/>
<defs>
  <clipPath id="clip302">
    <rect x="158" y="47" width="2483" height="1755"/>
  </clipPath>
</defs>
<polyline clip-path="url(#clip302)" style="stroke:#000000; stroke-linecap:round; stroke-linejoin:round; stroke-width:2; stroke-opacity:0.1; fill:none" points="
  439.395,1800.78 439.395,47.2441 
  "/>
<polyline clip-path="url(#clip302)" style="stroke:#000000; stroke-linecap:round; stroke-linejoin:round; stroke-width:2; stroke-opacity:0.1; fill:none" points="
  911.917,1800.78 911.917,47.2441 
  "/>
<polyline clip-path="url(#clip302)" style="stroke:#000000; stroke-linecap:round; stroke-linejoin:round; stroke-width:2; stroke-opacity:0.1; fill:none" points="
  1384.44,1800.78 1384.44,47.2441 
  "/>
<polyline clip-path="url(#clip302)" style="stroke:#000000; stroke-linecap:round; stroke-linejoin:round; stroke-width:2; stroke-opacity:0.1; fill:none" points="
  1856.96,1800.78 1856.96,47.2441 
  "/>
<polyline clip-path="url(#clip302)" style="stroke:#000000; stroke-linecap:round; stroke-linejoin:round; stroke-width:2; stroke-opacity:0.1; fill:none" points="
  2329.49,1800.78 2329.49,47.2441 
  "/>
<polyline clip-path="url(#clip300)" style="stroke:#000000; stroke-linecap:round; stroke-linejoin:round; stroke-width:4; stroke-opacity:1; fill:none" points="
  158.992,1800.78 2640.76,1800.78 
  "/>
<polyline clip-path="url(#clip300)" style="stroke:#000000; stroke-linecap:round; stroke-linejoin:round; stroke-width:4; stroke-opacity:1; fill:none" points="
  439.395,1800.78 439.395,1781.88 
  "/>
<polyline clip-path="url(#clip300)" style="stroke:#000000; stroke-linecap:round; stroke-linejoin:round; stroke-width:4; stroke-opacity:1; fill:none" points="
  911.917,1800.78 911.917,1781.88 
  "/>
<polyline clip-path="url(#clip300)" style="stroke:#000000; stroke-linecap:round; stroke-linejoin:round; stroke-width:4; stroke-opacity:1; fill:none" points="
  1384.44,1800.78 1384.44,1781.88 
  "/>
<polyline clip-path="url(#clip300)" style="stroke:#000000; stroke-linecap:round; stroke-linejoin:round; stroke-width:4; stroke-opacity:1; fill:none" points="
  1856.96,1800.78 1856.96,1781.88 
  "/>
<polyline clip-path="url(#clip300)" style="stroke:#000000; stroke-linecap:round; stroke-linejoin:round; stroke-width:4; stroke-opacity:1; fill:none" points="
  2329.49,1800.78 2329.49,1781.88 
  "/>
<path clip-path="url(#clip300)" d="M391.467 1861.55 L399.106 1861.55 L399.106 1835.18 L390.796 1836.85 L390.796 1832.59 L399.059 1830.92 L403.735 1830.92 L403.735 1861.55 L411.374 1861.55 L411.374 1865.48 L391.467 1865.48 L391.467 1861.55 Z" fill="#000000" fill-rule="evenodd" fill-opacity="1" /><path clip-path="url(#clip300)" d="M420.819 1859.6 L425.703 1859.6 L425.703 1865.48 L420.819 1865.48 L420.819 1859.6 Z" fill="#000000" fill-rule="evenodd" fill-opacity="1" /><path clip-path="url(#clip300)" d="M445.888 1834 Q442.277 1834 440.448 1837.57 Q438.642 1841.11 438.642 1848.24 Q438.642 1855.34 440.448 1858.91 Q442.277 1862.45 445.888 1862.45 Q449.522 1862.45 451.328 1858.91 Q453.156 1855.34 453.156 1848.24 Q453.156 1841.11 451.328 1837.57 Q449.522 1834 445.888 1834 M445.888 1830.3 Q451.698 1830.3 454.754 1834.9 Q457.832 1839.49 457.832 1848.24 Q457.832 1856.96 454.754 1861.57 Q451.698 1866.15 445.888 1866.15 Q440.078 1866.15 436.999 1861.57 Q433.943 1856.96 433.943 1848.24 Q433.943 1839.49 436.999 1834.9 Q440.078 1830.3 445.888 1830.3 Z" fill="#000000" fill-rule="evenodd" fill-opacity="1" /><path clip-path="url(#clip300)" d="M476.05 1834 Q472.439 1834 470.61 1837.57 Q468.804 1841.11 468.804 1848.24 Q468.804 1855.34 470.61 1858.91 Q472.439 1862.45 476.05 1862.45 Q479.684 1862.45 481.489 1858.91 Q483.318 1855.34 483.318 1848.24 Q483.318 1841.11 481.489 1837.57 Q479.684 1834 476.05 1834 M476.05 1830.3 Q481.86 1830.3 484.915 1834.9 Q487.994 1839.49 487.994 1848.24 Q487.994 1856.96 484.915 1861.57 Q481.86 1866.15 476.05 1866.15 Q470.24 1866.15 467.161 1861.57 Q464.105 1856.96 464.105 1848.24 Q464.105 1839.49 467.161 1834.9 Q470.24 1830.3 476.05 1830.3 Z" fill="#000000" fill-rule="evenodd" fill-opacity="1" /><path clip-path="url(#clip300)" d="M864.487 1861.55 L872.126 1861.55 L872.126 1835.18 L863.816 1836.85 L863.816 1832.59 L872.08 1830.92 L876.756 1830.92 L876.756 1861.55 L884.394 1861.55 L884.394 1865.48 L864.487 1865.48 L864.487 1861.55 Z" fill="#000000" fill-rule="evenodd" fill-opacity="1" /><path clip-path="url(#clip300)" d="M893.839 1859.6 L898.723 1859.6 L898.723 1865.48 L893.839 1865.48 L893.839 1859.6 Z" fill="#000000" fill-rule="evenodd" fill-opacity="1" /><path clip-path="url(#clip300)" d="M912.936 1861.55 L929.255 1861.55 L929.255 1865.48 L907.311 1865.48 L907.311 1861.55 Q909.973 1858.79 914.556 1854.16 Q919.163 1849.51 920.343 1848.17 Q922.589 1845.65 923.468 1843.91 Q924.371 1842.15 924.371 1840.46 Q924.371 1837.71 922.427 1835.97 Q920.505 1834.23 917.404 1834.23 Q915.204 1834.23 912.751 1835 Q910.32 1835.76 907.542 1837.31 L907.542 1832.59 Q910.367 1831.46 912.82 1830.88 Q915.274 1830.3 917.311 1830.3 Q922.681 1830.3 925.876 1832.98 Q929.07 1835.67 929.07 1840.16 Q929.07 1842.29 928.26 1844.21 Q927.473 1846.11 925.366 1848.7 Q924.788 1849.37 921.686 1852.59 Q918.584 1855.78 912.936 1861.55 Z" fill="#000000" fill-rule="evenodd" fill-opacity="1" /><path clip-path="url(#clip300)" d="M939.116 1830.92 L957.473 1830.92 L957.473 1834.86 L943.399 1834.86 L943.399 1843.33 Q944.417 1842.98 945.436 1842.82 Q946.454 1842.64 947.473 1842.64 Q953.26 1842.64 956.639 1845.81 Q960.019 1848.98 960.019 1854.4 Q960.019 1859.97 956.547 1863.08 Q953.075 1866.15 946.755 1866.15 Q944.579 1866.15 942.311 1865.78 Q940.065 1865.41 937.658 1864.67 L937.658 1859.97 Q939.741 1861.11 941.964 1861.66 Q944.186 1862.22 946.663 1862.22 Q950.667 1862.22 953.005 1860.11 Q955.343 1858.01 955.343 1854.4 Q955.343 1850.78 953.005 1848.68 Q950.667 1846.57 946.663 1846.57 Q944.788 1846.57 942.913 1846.99 Q941.061 1847.4 939.116 1848.28 L939.116 1830.92 Z" fill="#000000" fill-rule="evenodd" fill-opacity="1" /><path clip-path="url(#clip300)" d="M1336.51 1861.55 L1344.15 1861.55 L1344.15 1835.18 L1335.84 1836.85 L1335.84 1832.59 L1344.1 1830.92 L1348.78 1830.92 L1348.78 1861.55 L1356.42 1861.55 L1356.42 1865.48 L1336.51 1865.48 L1336.51 1861.55 Z" fill="#000000" fill-rule="evenodd" fill-opacity="1" /><path clip-path="url(#clip300)" d="M1365.86 1859.6 L1370.75 1859.6 L1370.75 1865.48 L1365.86 1865.48 L1365.86 1859.6 Z" fill="#000000" fill-rule="evenodd" fill-opacity="1" /><path clip-path="url(#clip300)" d="M1380.98 1830.92 L1399.34 1830.92 L1399.34 1834.86 L1385.26 1834.86 L1385.26 1843.33 Q1386.28 1842.98 1387.3 1842.82 Q1388.32 1842.64 1389.34 1842.64 Q1395.12 1842.64 1398.5 1845.81 Q1401.88 1848.98 1401.88 1854.4 Q1401.88 1859.97 1398.41 1863.08 Q1394.94 1866.15 1388.62 1866.15 Q1386.44 1866.15 1384.17 1865.78 Q1381.93 1865.41 1379.52 1864.67 L1379.52 1859.97 Q1381.6 1861.11 1383.83 1861.66 Q1386.05 1862.22 1388.53 1862.22 Q1392.53 1862.22 1394.87 1860.11 Q1397.21 1858.01 1397.21 1854.4 Q1397.21 1850.78 1394.87 1848.68 Q1392.53 1846.57 1388.53 1846.57 Q1386.65 1846.57 1384.78 1846.99 Q1382.92 1847.4 1380.98 1848.28 L1380.98 1830.92 Z" fill="#000000" fill-rule="evenodd" fill-opacity="1" /><path clip-path="url(#clip300)" d="M1421.09 1834 Q1417.48 1834 1415.66 1837.57 Q1413.85 1841.11 1413.85 1848.24 Q1413.85 1855.34 1415.66 1858.91 Q1417.48 1862.45 1421.09 1862.45 Q1424.73 1862.45 1426.53 1858.91 Q1428.36 1855.34 1428.36 1848.24 Q1428.36 1841.11 1426.53 1837.57 Q1424.73 1834 1421.09 1834 M1421.09 1830.3 Q1426.91 1830.3 1429.96 1834.9 Q1433.04 1839.49 1433.04 1848.24 Q1433.04 1856.96 1429.96 1861.57 Q1426.91 1866.15 1421.09 1866.15 Q1415.28 1866.15 1412.21 1861.57 Q1409.15 1856.96 1409.15 1848.24 Q1409.15 1839.49 1412.21 1834.9 Q1415.28 1830.3 1421.09 1830.3 Z" fill="#000000" fill-rule="evenodd" fill-opacity="1" /><path clip-path="url(#clip300)" d="M1809.53 1861.55 L1817.17 1861.55 L1817.17 1835.18 L1808.86 1836.85 L1808.86 1832.59 L1817.12 1830.92 L1821.8 1830.92 L1821.8 1861.55 L1829.44 1861.55 L1829.44 1865.48 L1809.53 1865.48 L1809.53 1861.55 Z" fill="#000000" fill-rule="evenodd" fill-opacity="1" /><path clip-path="url(#clip300)" d="M1838.88 1859.6 L1843.77 1859.6 L1843.77 1865.48 L1838.88 1865.48 L1838.88 1859.6 Z" fill="#000000" fill-rule="evenodd" fill-opacity="1" /><path clip-path="url(#clip300)" d="M1852.77 1830.92 L1874.99 1830.92 L1874.99 1832.91 L1862.45 1865.48 L1857.56 1865.48 L1869.37 1834.86 L1852.77 1834.86 L1852.77 1830.92 Z" fill="#000000" fill-rule="evenodd" fill-opacity="1" /><path clip-path="url(#clip300)" d="M1884.16 1830.92 L1902.52 1830.92 L1902.52 1834.86 L1888.44 1834.86 L1888.44 1843.33 Q1889.46 1842.98 1890.48 1842.82 Q1891.5 1842.64 1892.52 1842.64 Q1898.31 1842.64 1901.68 1845.81 Q1905.06 1848.98 1905.06 1854.4 Q1905.06 1859.97 1901.59 1863.08 Q1898.12 1866.15 1891.8 1866.15 Q1889.62 1866.15 1887.36 1865.78 Q1885.11 1865.41 1882.7 1864.67 L1882.7 1859.97 Q1884.79 1861.11 1887.01 1861.66 Q1889.23 1862.22 1891.71 1862.22 Q1895.71 1862.22 1898.05 1860.11 Q1900.39 1858.01 1900.39 1854.4 Q1900.39 1850.78 1898.05 1848.68 Q1895.71 1846.57 1891.71 1846.57 Q1889.83 1846.57 1887.96 1846.99 Q1886.11 1847.4 1884.16 1848.28 L1884.16 1830.92 Z" fill="#000000" fill-rule="evenodd" fill-opacity="1" /><path clip-path="url(#clip300)" d="M2285.64 1861.55 L2301.96 1861.55 L2301.96 1865.48 L2280.02 1865.48 L2280.02 1861.55 Q2282.68 1858.79 2287.26 1854.16 Q2291.87 1849.51 2293.05 1848.17 Q2295.3 1845.65 2296.18 1843.91 Q2297.08 1842.15 2297.08 1840.46 Q2297.08 1837.71 2295.13 1835.97 Q2293.21 1834.23 2290.11 1834.23 Q2287.91 1834.23 2285.46 1835 Q2283.03 1835.76 2280.25 1837.31 L2280.25 1832.59 Q2283.07 1831.46 2285.53 1830.88 Q2287.98 1830.3 2290.02 1830.3 Q2295.39 1830.3 2298.58 1832.98 Q2301.78 1835.67 2301.78 1840.16 Q2301.78 1842.29 2300.97 1844.21 Q2300.18 1846.11 2298.07 1848.7 Q2297.49 1849.37 2294.39 1852.59 Q2291.29 1855.78 2285.64 1861.55 Z" fill="#000000" fill-rule="evenodd" fill-opacity="1" /><path clip-path="url(#clip300)" d="M2311.78 1859.6 L2316.66 1859.6 L2316.66 1865.48 L2311.78 1865.48 L2311.78 1859.6 Z" fill="#000000" fill-rule="evenodd" fill-opacity="1" /><path clip-path="url(#clip300)" d="M2336.85 1834 Q2333.24 1834 2331.41 1837.57 Q2329.6 1841.11 2329.6 1848.24 Q2329.6 1855.34 2331.41 1858.91 Q2333.24 1862.45 2336.85 1862.45 Q2340.48 1862.45 2342.29 1858.91 Q2344.11 1855.34 2344.11 1848.24 Q2344.11 1841.11 2342.29 1837.57 Q2340.48 1834 2336.85 1834 M2336.85 1830.3 Q2342.66 1830.3 2345.71 1834.9 Q2348.79 1839.49 2348.79 1848.24 Q2348.79 1856.96 2345.71 1861.57 Q2342.66 1866.15 2336.85 1866.15 Q2331.04 1866.15 2327.96 1861.57 Q2324.9 1856.96 2324.9 1848.24 Q2324.9 1839.49 2327.96 1834.9 Q2331.04 1830.3 2336.85 1830.3 Z" fill="#000000" fill-rule="evenodd" fill-opacity="1" /><path clip-path="url(#clip300)" d="M2367.01 1834 Q2363.4 1834 2361.57 1837.57 Q2359.76 1841.11 2359.76 1848.24 Q2359.76 1855.34 2361.57 1858.91 Q2363.4 1862.45 2367.01 1862.45 Q2370.64 1862.45 2372.45 1858.91 Q2374.28 1855.34 2374.28 1848.24 Q2374.28 1841.11 2372.45 1837.57 Q2370.64 1834 2367.01 1834 M2367.01 1830.3 Q2372.82 1830.3 2375.87 1834.9 Q2378.95 1839.49 2378.95 1848.24 Q2378.95 1856.96 2375.87 1861.57 Q2372.82 1866.15 2367.01 1866.15 Q2361.2 1866.15 2358.12 1861.57 Q2355.06 1856.96 2355.06 1848.24 Q2355.06 1839.49 2358.12 1834.9 Q2361.2 1830.3 2367.01 1830.3 Z" fill="#000000" fill-rule="evenodd" fill-opacity="1" /><polyline clip-path="url(#clip302)" style="stroke:#000000; stroke-linecap:round; stroke-linejoin:round; stroke-width:2; stroke-opacity:0.1; fill:none" points="
  158.992,1518.6 2640.76,1518.6 
  "/>
<polyline clip-path="url(#clip302)" style="stroke:#000000; stroke-linecap:round; stroke-linejoin:round; stroke-width:2; stroke-opacity:0.1; fill:none" points="
  158.992,1189.65 2640.76,1189.65 
  "/>
<polyline clip-path="url(#clip302)" style="stroke:#000000; stroke-linecap:round; stroke-linejoin:round; stroke-width:2; stroke-opacity:0.1; fill:none" points="
  158.992,860.703 2640.76,860.703 
  "/>
<polyline clip-path="url(#clip302)" style="stroke:#000000; stroke-linecap:round; stroke-linejoin:round; stroke-width:2; stroke-opacity:0.1; fill:none" points="
  158.992,531.753 2640.76,531.753 
  "/>
<polyline clip-path="url(#clip302)" style="stroke:#000000; stroke-linecap:round; stroke-linejoin:round; stroke-width:2; stroke-opacity:0.1; fill:none" points="
  158.992,202.804 2640.76,202.804 
  "/>
<polyline clip-path="url(#clip300)" style="stroke:#000000; stroke-linecap:round; stroke-linejoin:round; stroke-width:4; stroke-opacity:1; fill:none" points="
  158.992,1800.78 158.992,47.2441 
  "/>
<polyline clip-path="url(#clip300)" style="stroke:#000000; stroke-linecap:round; stroke-linejoin:round; stroke-width:4; stroke-opacity:1; fill:none" points="
  158.992,1518.6 177.89,1518.6 
  "/>
<polyline clip-path="url(#clip300)" style="stroke:#000000; stroke-linecap:round; stroke-linejoin:round; stroke-width:4; stroke-opacity:1; fill:none" points="
  158.992,1189.65 177.89,1189.65 
  "/>
<polyline clip-path="url(#clip300)" style="stroke:#000000; stroke-linecap:round; stroke-linejoin:round; stroke-width:4; stroke-opacity:1; fill:none" points="
  158.992,860.703 177.89,860.703 
  "/>
<polyline clip-path="url(#clip300)" style="stroke:#000000; stroke-linecap:round; stroke-linejoin:round; stroke-width:4; stroke-opacity:1; fill:none" points="
  158.992,531.753 177.89,531.753 
  "/>
<polyline clip-path="url(#clip300)" style="stroke:#000000; stroke-linecap:round; stroke-linejoin:round; stroke-width:4; stroke-opacity:1; fill:none" points="
  158.992,202.804 177.89,202.804 
  "/>
<path clip-path="url(#clip300)" d="M61.4965 1504.4 Q57.8854 1504.4 56.0567 1507.97 Q54.2512 1511.51 54.2512 1518.64 Q54.2512 1525.74 56.0567 1529.31 Q57.8854 1532.85 61.4965 1532.85 Q65.1307 1532.85 66.9363 1529.31 Q68.765 1525.74 68.765 1518.64 Q68.765 1511.51 66.9363 1507.97 Q65.1307 1504.4 61.4965 1504.4 M61.4965 1500.7 Q67.3067 1500.7 70.3622 1505.3 Q73.4409 1509.89 73.4409 1518.64 Q73.4409 1527.36 70.3622 1531.97 Q67.3067 1536.55 61.4965 1536.55 Q55.6864 1536.55 52.6077 1531.97 Q49.5521 1527.36 49.5521 1518.64 Q49.5521 1509.89 52.6077 1505.3 Q55.6864 1500.7 61.4965 1500.7 Z" fill="#000000" fill-rule="evenodd" fill-opacity="1" /><path clip-path="url(#clip300)" d="M81.6584 1530 L86.5427 1530 L86.5427 1535.88 L81.6584 1535.88 L81.6584 1530 Z" fill="#000000" fill-rule="evenodd" fill-opacity="1" /><path clip-path="url(#clip300)" d="M106.728 1504.4 Q103.117 1504.4 101.288 1507.97 Q99.4824 1511.51 99.4824 1518.64 Q99.4824 1525.74 101.288 1529.31 Q103.117 1532.85 106.728 1532.85 Q110.362 1532.85 112.168 1529.31 Q113.996 1525.74 113.996 1518.64 Q113.996 1511.51 112.168 1507.97 Q110.362 1504.4 106.728 1504.4 M106.728 1500.7 Q112.538 1500.7 115.593 1505.3 Q118.672 1509.89 118.672 1518.64 Q118.672 1527.36 115.593 1531.97 Q112.538 1536.55 106.728 1536.55 Q100.918 1536.55 97.8389 1531.97 Q94.7834 1527.36 94.7834 1518.64 Q94.7834 1509.89 97.8389 1505.3 Q100.918 1500.7 106.728 1500.7 Z" fill="#000000" fill-rule="evenodd" fill-opacity="1" /><path clip-path="url(#clip300)" d="M62.4919 1175.45 Q58.8808 1175.45 57.0521 1179.02 Q55.2465 1182.56 55.2465 1189.69 Q55.2465 1196.79 57.0521 1200.36 Q58.8808 1203.9 62.4919 1203.9 Q66.1261 1203.9 67.9317 1200.36 Q69.7604 1196.79 69.7604 1189.69 Q69.7604 1182.56 67.9317 1179.02 Q66.1261 1175.45 62.4919 1175.45 M62.4919 1171.75 Q68.302 1171.75 71.3576 1176.35 Q74.4363 1180.94 74.4363 1189.69 Q74.4363 1198.41 71.3576 1203.02 Q68.302 1207.6 62.4919 1207.6 Q56.6817 1207.6 53.603 1203.02 Q50.5475 1198.41 50.5475 1189.69 Q50.5475 1180.94 53.603 1176.35 Q56.6817 1171.75 62.4919 1171.75 Z" fill="#000000" fill-rule="evenodd" fill-opacity="1" /><path clip-path="url(#clip300)" d="M82.6538 1201.05 L87.538 1201.05 L87.538 1206.93 L82.6538 1206.93 L82.6538 1201.05 Z" fill="#000000" fill-rule="evenodd" fill-opacity="1" /><path clip-path="url(#clip300)" d="M97.7695 1172.37 L116.126 1172.37 L116.126 1176.31 L102.052 1176.31 L102.052 1184.78 Q103.07 1184.43 104.089 1184.27 Q105.107 1184.09 106.126 1184.09 Q111.913 1184.09 115.293 1187.26 Q118.672 1190.43 118.672 1195.84 Q118.672 1201.42 115.2 1204.52 Q111.728 1207.6 105.408 1207.6 Q103.232 1207.6 100.964 1207.23 Q98.7185 1206.86 96.3111 1206.12 L96.3111 1201.42 Q98.3945 1202.56 100.617 1203.11 Q102.839 1203.67 105.316 1203.67 Q109.32 1203.67 111.658 1201.56 Q113.996 1199.46 113.996 1195.84 Q113.996 1192.23 111.658 1190.13 Q109.32 1188.02 105.316 1188.02 Q103.441 1188.02 101.566 1188.44 Q99.7139 1188.85 97.7695 1189.73 L97.7695 1172.37 Z" fill="#000000" fill-rule="evenodd" fill-opacity="1" /><path clip-path="url(#clip300)" d="M52.3067 874.048 L59.9456 874.048 L59.9456 847.682 L51.6354 849.349 L51.6354 845.089 L59.8993 843.423 L64.5752 843.423 L64.5752 874.048 L72.214 874.048 L72.214 877.983 L52.3067 877.983 L52.3067 874.048 Z" fill="#000000" fill-rule="evenodd" fill-opacity="1" /><path clip-path="url(#clip300)" d="M81.6584 872.103 L86.5427 872.103 L86.5427 877.983 L81.6584 877.983 L81.6584 872.103 Z" fill="#000000" fill-rule="evenodd" fill-opacity="1" /><path clip-path="url(#clip300)" d="M106.728 846.501 Q103.117 846.501 101.288 850.066 Q99.4824 853.608 99.4824 860.738 Q99.4824 867.844 101.288 871.409 Q103.117 874.95 106.728 874.95 Q110.362 874.95 112.168 871.409 Q113.996 867.844 113.996 860.738 Q113.996 853.608 112.168 850.066 Q110.362 846.501 106.728 846.501 M106.728 842.798 Q112.538 842.798 115.593 847.404 Q118.672 851.988 118.672 860.738 Q118.672 869.464 115.593 874.071 Q112.538 878.654 106.728 878.654 Q100.918 878.654 97.8389 874.071 Q94.7834 869.464 94.7834 860.738 Q94.7834 851.988 97.8389 847.404 Q100.918 842.798 106.728 842.798 Z" fill="#000000" fill-rule="evenodd" fill-opacity="1" /><path clip-path="url(#clip300)" d="M53.3021 545.098 L60.941 545.098 L60.941 518.732 L52.6308 520.399 L52.6308 516.14 L60.8947 514.473 L65.5706 514.473 L65.5706 545.098 L73.2094 545.098 L73.2094 549.033 L53.3021 549.033 L53.3021 545.098 Z" fill="#000000" fill-rule="evenodd" fill-opacity="1" /><path clip-path="url(#clip300)" d="M82.6538 543.154 L87.538 543.154 L87.538 549.033 L82.6538 549.033 L82.6538 543.154 Z" fill="#000000" fill-rule="evenodd" fill-opacity="1" /><path clip-path="url(#clip300)" d="M97.7695 514.473 L116.126 514.473 L116.126 518.408 L102.052 518.408 L102.052 526.881 Q103.07 526.533 104.089 526.371 Q105.107 526.186 106.126 526.186 Q111.913 526.186 115.293 529.357 Q118.672 532.529 118.672 537.945 Q118.672 543.524 115.2 546.626 Q111.728 549.705 105.408 549.705 Q103.232 549.705 100.964 549.334 Q98.7185 548.964 96.3111 548.223 L96.3111 543.524 Q98.3945 544.658 100.617 545.214 Q102.839 545.769 105.316 545.769 Q109.32 545.769 111.658 543.663 Q113.996 541.556 113.996 537.945 Q113.996 534.334 111.658 532.228 Q109.32 530.121 105.316 530.121 Q103.441 530.121 101.566 530.538 Q99.7139 530.955 97.7695 531.834 L97.7695 514.473 Z" fill="#000000" fill-rule="evenodd" fill-opacity="1" /><path clip-path="url(#clip300)" d="M55.5243 216.149 L71.8437 216.149 L71.8437 220.084 L49.8993 220.084 L49.8993 216.149 Q52.5614 213.394 57.1447 208.764 Q61.7511 204.112 62.9317 202.769 Q65.177 200.246 66.0567 198.51 Q66.9594 196.751 66.9594 195.061 Q66.9594 192.306 65.015 190.57 Q63.0937 188.834 59.9919 188.834 Q57.7928 188.834 55.3391 189.598 Q52.9086 190.362 50.1308 191.913 L50.1308 187.19 Q52.9549 186.056 55.4086 185.477 Q57.8623 184.899 59.8993 184.899 Q65.2696 184.899 68.4641 187.584 Q71.6585 190.269 71.6585 194.76 Q71.6585 196.889 70.8483 198.811 Q70.0613 200.709 67.9548 203.301 Q67.3761 203.973 64.2743 207.19 Q61.1724 210.385 55.5243 216.149 Z" fill="#000000" fill-rule="evenodd" fill-opacity="1" /><path clip-path="url(#clip300)" d="M81.6584 214.204 L86.5427 214.204 L86.5427 220.084 L81.6584 220.084 L81.6584 214.204 Z" fill="#000000" fill-rule="evenodd" fill-opacity="1" /><path clip-path="url(#clip300)" d="M106.728 188.602 Q103.117 188.602 101.288 192.167 Q99.4824 195.709 99.4824 202.838 Q99.4824 209.945 101.288 213.51 Q103.117 217.051 106.728 217.051 Q110.362 217.051 112.168 213.51 Q113.996 209.945 113.996 202.838 Q113.996 195.709 112.168 192.167 Q110.362 188.602 106.728 188.602 M106.728 184.899 Q112.538 184.899 115.593 189.505 Q118.672 194.088 118.672 202.838 Q118.672 211.565 115.593 216.172 Q112.538 220.755 106.728 220.755 Q100.918 220.755 97.8389 216.172 Q94.7834 211.565 94.7834 202.838 Q94.7834 194.088 97.8389 189.505 Q100.918 184.899 106.728 184.899 Z" fill="#000000" fill-rule="evenodd" fill-opacity="1" /><circle clip-path="url(#clip302)" cx="229.231" cy="1351.18" r="14.4" fill="#0000ff" fill-rule="evenodd" fill-opacity="1" stroke="#000000" stroke-opacity="1" stroke-width="3.84"/>
<circle clip-path="url(#clip302)" cx="325.416" cy="1385.35" r="14.4" fill="#0000ff" fill-rule="evenodd" fill-opacity="1" stroke="#000000" stroke-opacity="1" stroke-width="3.84"/>
<circle clip-path="url(#clip302)" cx="390.603" cy="1331.48" r="14.4" fill="#0000ff" fill-rule="evenodd" fill-opacity="1" stroke="#000000" stroke-opacity="1" stroke-width="3.84"/>
<circle clip-path="url(#clip302)" cx="471.426" cy="1414.17" r="14.4" fill="#0000ff" fill-rule="evenodd" fill-opacity="1" stroke="#000000" stroke-opacity="1" stroke-width="3.84"/>
<circle clip-path="url(#clip302)" cx="475.537" cy="1198.54" r="14.4" fill="#0000ff" fill-rule="evenodd" fill-opacity="1" stroke="#000000" stroke-opacity="1" stroke-width="3.84"/>
<circle clip-path="url(#clip302)" cx="517.649" cy="1596.05" r="14.4" fill="#0000ff" fill-rule="evenodd" fill-opacity="1" stroke="#000000" stroke-opacity="1" stroke-width="3.84"/>
<circle clip-path="url(#clip302)" cx="707.121" cy="1473.44" r="14.4" fill="#0000ff" fill-rule="evenodd" fill-opacity="1" stroke="#000000" stroke-opacity="1" stroke-width="3.84"/>
<circle clip-path="url(#clip302)" cx="727.76" cy="1243.21" r="14.4" fill="#0000ff" fill-rule="evenodd" fill-opacity="1" stroke="#000000" stroke-opacity="1" stroke-width="3.84"/>
<circle clip-path="url(#clip302)" cx="742.917" cy="1604.36" r="14.4" fill="#0000ff" fill-rule="evenodd" fill-opacity="1" stroke="#000000" stroke-opacity="1" stroke-width="3.84"/>
<circle clip-path="url(#clip302)" cx="827.858" cy="1253.83" r="14.4" fill="#0000ff" fill-rule="evenodd" fill-opacity="1" stroke="#000000" stroke-opacity="1" stroke-width="3.84"/>
<circle clip-path="url(#clip302)" cx="837.131" cy="1386.66" r="14.4" fill="#0000ff" fill-rule="evenodd" fill-opacity="1" stroke="#000000" stroke-opacity="1" stroke-width="3.84"/>
<circle clip-path="url(#clip302)" cx="866.707" cy="1400.33" r="14.4" fill="#0000ff" fill-rule="evenodd" fill-opacity="1" stroke="#000000" stroke-opacity="1" stroke-width="3.84"/>
<circle clip-path="url(#clip302)" cx="875.95" cy="1121.33" r="14.4" fill="#0000ff" fill-rule="evenodd" fill-opacity="1" stroke="#000000" stroke-opacity="1" stroke-width="3.84"/>
<circle clip-path="url(#clip302)" cx="911.257" cy="1142.7" r="14.4" fill="#0000ff" fill-rule="evenodd" fill-opacity="1" stroke="#000000" stroke-opacity="1" stroke-width="3.84"/>
<circle clip-path="url(#clip302)" cx="955.323" cy="1278.61" r="14.4" fill="#0000ff" fill-rule="evenodd" fill-opacity="1" stroke="#000000" stroke-opacity="1" stroke-width="3.84"/>
<circle clip-path="url(#clip302)" cx="965.288" cy="1644.53" r="14.4" fill="#0000ff" fill-rule="evenodd" fill-opacity="1" stroke="#000000" stroke-opacity="1" stroke-width="3.84"/>
<circle clip-path="url(#clip302)" cx="975.229" cy="1367.21" r="14.4" fill="#0000ff" fill-rule="evenodd" fill-opacity="1" stroke="#000000" stroke-opacity="1" stroke-width="3.84"/>
<circle clip-path="url(#clip302)" cx="1041.59" cy="1506.44" r="14.4" fill="#0000ff" fill-rule="evenodd" fill-opacity="1" stroke="#000000" stroke-opacity="1" stroke-width="3.84"/>
<circle clip-path="url(#clip302)" cx="1115.83" cy="1300.94" r="14.4" fill="#0000ff" fill-rule="evenodd" fill-opacity="1" stroke="#000000" stroke-opacity="1" stroke-width="3.84"/>
<circle clip-path="url(#clip302)" cx="1116.93" cy="1429.86" r="14.4" fill="#0000ff" fill-rule="evenodd" fill-opacity="1" stroke="#000000" stroke-opacity="1" stroke-width="3.84"/>
<circle clip-path="url(#clip302)" cx="1168.24" cy="1308.74" r="14.4" fill="#0000ff" fill-rule="evenodd" fill-opacity="1" stroke="#000000" stroke-opacity="1" stroke-width="3.84"/>
<circle clip-path="url(#clip302)" cx="1172.46" cy="1303.32" r="14.4" fill="#0000ff" fill-rule="evenodd" fill-opacity="1" stroke="#000000" stroke-opacity="1" stroke-width="3.84"/>
<circle clip-path="url(#clip302)" cx="1172.52" cy="1518.46" r="14.4" fill="#0000ff" fill-rule="evenodd" fill-opacity="1" stroke="#000000" stroke-opacity="1" stroke-width="3.84"/>
<circle clip-path="url(#clip302)" cx="1228.96" cy="1400.18" r="14.4" fill="#0000ff" fill-rule="evenodd" fill-opacity="1" stroke="#000000" stroke-opacity="1" stroke-width="3.84"/>
<circle clip-path="url(#clip302)" cx="1307.36" cy="839.332" r="14.4" fill="#0000ff" fill-rule="evenodd" fill-opacity="1" stroke="#000000" stroke-opacity="1" stroke-width="3.84"/>
<circle clip-path="url(#clip302)" cx="1312.25" cy="1058.26" r="14.4" fill="#0000ff" fill-rule="evenodd" fill-opacity="1" stroke="#000000" stroke-opacity="1" stroke-width="3.84"/>
<circle clip-path="url(#clip302)" cx="1330.53" cy="1427.9" r="14.4" fill="#0000ff" fill-rule="evenodd" fill-opacity="1" stroke="#000000" stroke-opacity="1" stroke-width="3.84"/>
<circle clip-path="url(#clip302)" cx="1351.15" cy="1004.07" r="14.4" fill="#0000ff" fill-rule="evenodd" fill-opacity="1" stroke="#000000" stroke-opacity="1" stroke-width="3.84"/>
<circle clip-path="url(#clip302)" cx="1400.02" cy="1306.19" r="14.4" fill="#0000ff" fill-rule="evenodd" fill-opacity="1" stroke="#000000" stroke-opacity="1" stroke-width="3.84"/>
<circle clip-path="url(#clip302)" cx="1445.42" cy="1443.74" r="14.4" fill="#0000ff" fill-rule="evenodd" fill-opacity="1" stroke="#000000" stroke-opacity="1" stroke-width="3.84"/>
<circle clip-path="url(#clip302)" cx="1462.19" cy="1179.59" r="14.4" fill="#0000ff" fill-rule="evenodd" fill-opacity="1" stroke="#000000" stroke-opacity="1" stroke-width="3.84"/>
<circle clip-path="url(#clip302)" cx="1475.88" cy="1260.97" r="14.4" fill="#0000ff" fill-rule="evenodd" fill-opacity="1" stroke="#000000" stroke-opacity="1" stroke-width="3.84"/>
<circle clip-path="url(#clip302)" cx="1514.87" cy="1153.94" r="14.4" fill="#0000ff" fill-rule="evenodd" fill-opacity="1" stroke="#000000" stroke-opacity="1" stroke-width="3.84"/>
<circle clip-path="url(#clip302)" cx="1596.41" cy="1499.71" r="14.4" fill="#0000ff" fill-rule="evenodd" fill-opacity="1" stroke="#000000" stroke-opacity="1" stroke-width="3.84"/>
<circle clip-path="url(#clip302)" cx="1706.01" cy="1048.15" r="14.4" fill="#0000ff" fill-rule="evenodd" fill-opacity="1" stroke="#000000" stroke-opacity="1" stroke-width="3.84"/>
<circle clip-path="url(#clip302)" cx="1760.81" cy="1463.57" r="14.4" fill="#0000ff" fill-rule="evenodd" fill-opacity="1" stroke="#000000" stroke-opacity="1" stroke-width="3.84"/>
<circle clip-path="url(#clip302)" cx="1761.19" cy="1295.69" r="14.4" fill="#0000ff" fill-rule="evenodd" fill-opacity="1" stroke="#000000" stroke-opacity="1" stroke-width="3.84"/>
<circle clip-path="url(#clip302)" cx="1763.37" cy="1281.15" r="14.4" fill="#0000ff" fill-rule="evenodd" fill-opacity="1" stroke="#000000" stroke-opacity="1" stroke-width="3.84"/>
<circle clip-path="url(#clip302)" cx="1800.22" cy="1380.82" r="14.4" fill="#0000ff" fill-rule="evenodd" fill-opacity="1" stroke="#000000" stroke-opacity="1" stroke-width="3.84"/>
<circle clip-path="url(#clip302)" cx="1876.71" cy="1518.31" r="14.4" fill="#0000ff" fill-rule="evenodd" fill-opacity="1" stroke="#000000" stroke-opacity="1" stroke-width="3.84"/>
<circle clip-path="url(#clip302)" cx="1932.86" cy="1751.15" r="14.4" fill="#0000ff" fill-rule="evenodd" fill-opacity="1" stroke="#000000" stroke-opacity="1" stroke-width="3.84"/>
<circle clip-path="url(#clip302)" cx="2040.56" cy="1261.09" r="14.4" fill="#0000ff" fill-rule="evenodd" fill-opacity="1" stroke="#000000" stroke-opacity="1" stroke-width="3.84"/>
<circle clip-path="url(#clip302)" cx="2042.24" cy="1294.02" r="14.4" fill="#0000ff" fill-rule="evenodd" fill-opacity="1" stroke="#000000" stroke-opacity="1" stroke-width="3.84"/>
<circle clip-path="url(#clip302)" cx="2074.22" cy="1445.47" r="14.4" fill="#0000ff" fill-rule="evenodd" fill-opacity="1" stroke="#000000" stroke-opacity="1" stroke-width="3.84"/>
<circle clip-path="url(#clip302)" cx="2130.09" cy="96.8724" r="14.4" fill="#ff0000" fill-rule="evenodd" fill-opacity="1" stroke="#000000" stroke-opacity="1" stroke-width="3.84"/>
<circle clip-path="url(#clip302)" cx="2131.38" cy="1564.54" r="14.4" fill="#0000ff" fill-rule="evenodd" fill-opacity="1" stroke="#000000" stroke-opacity="1" stroke-width="3.84"/>
<circle clip-path="url(#clip302)" cx="2164.73" cy="1557.55" r="14.4" fill="#0000ff" fill-rule="evenodd" fill-opacity="1" stroke="#000000" stroke-opacity="1" stroke-width="3.84"/>
<circle clip-path="url(#clip302)" cx="2430.56" cy="228.452" r="14.4" fill="#ff0000" fill-rule="evenodd" fill-opacity="1" stroke="#000000" stroke-opacity="1" stroke-width="3.84"/>
<circle clip-path="url(#clip302)" cx="2511.29" cy="1086.42" r="14.4" fill="#0000ff" fill-rule="evenodd" fill-opacity="1" stroke="#000000" stroke-opacity="1" stroke-width="3.84"/>
<circle clip-path="url(#clip302)" cx="2570.52" cy="228.452" r="14.4" fill="#ff0000" fill-rule="evenodd" fill-opacity="1" stroke="#000000" stroke-opacity="1" stroke-width="3.84"/>
<polyline clip-path="url(#clip302)" style="stroke:#e26f46; stroke-linecap:round; stroke-linejoin:round; stroke-width:16; stroke-opacity:1; fill:none" points="
  229.231,1503.61 252.88,1498.67 276.529,1493.73 300.179,1488.79 323.828,1483.85 347.478,1478.91 371.127,1473.97 394.776,1469.02 418.426,1464.08 442.075,1459.14 
  465.724,1454.2 489.374,1449.26 513.023,1444.32 536.672,1439.37 560.322,1434.43 583.971,1429.49 607.62,1424.55 631.27,1419.61 654.919,1414.67 678.569,1409.73 
  702.218,1404.78 725.867,1399.84 749.517,1394.9 773.166,1389.96 796.815,1385.02 820.465,1380.08 844.114,1375.14 867.763,1370.19 891.413,1365.25 915.062,1360.31 
  938.712,1355.37 962.361,1350.43 986.01,1345.49 1009.66,1340.55 1033.31,1335.6 1056.96,1330.66 1080.61,1325.72 1104.26,1320.78 1127.91,1315.84 1151.56,1310.9 
  1175.21,1305.96 1198.85,1301.01 1222.5,1296.07 1246.15,1291.13 1269.8,1286.19 1293.45,1281.25 1317.1,1276.31 1340.75,1271.37 1364.4,1266.42 1388.05,1261.48 
  1411.7,1256.54 1435.35,1251.6 1459,1246.66 1482.65,1241.72 1506.3,1236.78 1529.95,1231.83 1553.59,1226.89 1577.24,1221.95 1600.89,1217.01 1624.54,1212.07 
  1648.19,1207.13 1671.84,1202.19 1695.49,1197.24 1719.14,1192.3 1742.79,1187.36 1766.44,1182.42 1790.09,1177.48 1813.74,1172.54 1837.39,1167.59 1861.04,1162.65 
  1884.69,1157.71 1908.34,1152.77 1931.98,1147.83 1955.63,1142.89 1979.28,1137.95 2002.93,1133 2026.58,1128.06 2050.23,1123.12 2073.88,1118.18 2097.53,1113.24 
  2121.18,1108.3 2144.83,1103.36 2168.48,1098.41 2192.13,1093.47 2215.78,1088.53 2239.43,1083.59 2263.08,1078.65 2286.72,1073.71 2310.37,1068.77 2334.02,1063.82 
  2357.67,1058.88 2381.32,1053.94 2404.97,1049 2428.62,1044.06 2452.27,1039.12 2475.92,1034.18 2499.57,1029.23 2523.22,1024.29 2546.87,1019.35 2570.52,1014.41 
  
  "/>
<polyline clip-path="url(#clip302)" style="stroke:#3da44d; stroke-linecap:round; stroke-linejoin:round; stroke-width:16; stroke-opacity:1; fill:none" points="
  229.231,1353.51 252.88,1353.37 276.529,1353.22 300.179,1353.08 323.828,1352.93 347.478,1352.79 371.127,1352.64 394.776,1352.5 418.426,1352.35 442.075,1352.21 
  465.724,1352.06 489.374,1351.92 513.023,1351.77 536.672,1351.63 560.322,1351.48 583.971,1351.34 607.62,1351.19 631.27,1351.05 654.919,1350.9 678.569,1350.76 
  702.218,1350.61 725.867,1350.47 749.517,1350.32 773.166,1350.18 796.815,1350.03 820.465,1349.89 844.114,1349.74 867.763,1349.6 891.413,1349.45 915.062,1349.31 
  938.712,1349.16 962.361,1349.02 986.01,1348.87 1009.66,1348.73 1033.31,1348.58 1056.96,1348.44 1080.61,1348.29 1104.26,1348.15 1127.91,1348 1151.56,1347.86 
  1175.21,1347.71 1198.85,1347.57 1222.5,1347.43 1246.15,1347.28 1269.8,1347.14 1293.45,1346.99 1317.1,1346.85 1340.75,1346.7 1364.4,1346.56 1388.05,1346.41 
  1411.7,1346.27 1435.35,1346.12 1459,1345.98 1482.65,1345.83 1506.3,1345.69 1529.95,1345.54 1553.59,1345.4 1577.24,1345.25 1600.89,1345.11 1624.54,1344.96 
  1648.19,1344.82 1671.84,1344.67 1695.49,1344.53 1719.14,1344.38 1742.79,1344.24 1766.44,1344.09 1790.09,1343.95 1813.74,1343.8 1837.39,1343.66 1861.04,1343.51 
  1884.69,1343.37 1908.34,1343.22 1931.98,1343.08 1955.63,1342.93 1979.28,1342.79 2002.93,1342.64 2026.58,1342.5 2050.23,1342.35 2073.88,1342.21 2097.53,1342.06 
  2121.18,1341.92 2144.83,1341.77 2168.48,1341.63 2192.13,1341.48 2215.78,1341.34 2239.43,1341.19 2263.08,1341.05 2286.72,1340.9 2310.37,1340.76 2334.02,1340.61 
  2357.67,1340.47 2381.32,1340.32 2404.97,1340.18 2428.62,1340.03 2452.27,1339.89 2475.92,1339.74 2499.57,1339.6 2523.22,1339.45 2546.87,1339.31 2570.52,1339.16 
  
  "/>
<path clip-path="url(#clip300)" d="
M241.718 313.055 L560.403 313.055 L560.403 105.695 L241.718 105.695  Z
  " fill="#ffffff" fill-rule="evenodd" fill-opacity="1"/>
<polyline clip-path="url(#clip300)" style="stroke:#000000; stroke-linecap:round; stroke-linejoin:round; stroke-width:4; stroke-opacity:1; fill:none" points="
  241.718,313.055 560.403,313.055 560.403,105.695 241.718,105.695 241.718,313.055 
  "/>
<circle clip-path="url(#clip300)" cx="352.018" cy="157.535" r="23.04" fill="#0000ff" fill-rule="evenodd" fill-opacity="1" stroke="#000000" stroke-opacity="1" stroke-width="6.144"/>
<path clip-path="url(#clip300)" d="M476.161 177.223 Q474.356 181.852 472.643 183.264 Q470.93 184.676 468.06 184.676 L464.657 184.676 L464.657 181.112 L467.157 181.112 Q468.916 181.112 469.888 180.278 Q470.86 179.445 472.041 176.343 L472.805 174.399 L462.319 148.889 L466.833 148.889 L474.934 169.167 L483.036 148.889 L487.55 148.889 L476.161 177.223 Z" fill="#000000" fill-rule="evenodd" fill-opacity="1" /><path clip-path="url(#clip300)" d="M494.842 170.88 L502.481 170.88 L502.481 144.515 L494.17 146.181 L494.17 141.922 L502.434 140.255 L507.11 140.255 L507.11 170.88 L514.749 170.88 L514.749 174.815 L494.842 174.815 L494.842 170.88 Z" fill="#000000" fill-rule="evenodd" fill-opacity="1" /><polyline clip-path="url(#clip300)" style="stroke:#e26f46; stroke-linecap:round; stroke-linejoin:round; stroke-width:16; stroke-opacity:1; fill:none" points="
  269.293,209.375 434.744,209.375 
  "/>
<path clip-path="url(#clip300)" d="M462.319 190.637 L466.578 190.637 L466.578 226.655 L462.319 226.655 L462.319 190.637 Z" fill="#000000" fill-rule="evenodd" fill-opacity="1" /><path clip-path="url(#clip300)" d="M495.675 205.706 Q497.272 202.836 499.495 201.47 Q501.717 200.104 504.726 200.104 Q508.777 200.104 510.976 202.952 Q513.175 205.776 513.175 211.007 L513.175 226.655 L508.893 226.655 L508.893 211.146 Q508.893 207.419 507.573 205.614 Q506.254 203.808 503.545 203.808 Q500.235 203.808 498.314 206.007 Q496.393 208.206 496.393 212.003 L496.393 226.655 L492.11 226.655 L492.11 211.146 Q492.11 207.396 490.791 205.614 Q489.471 203.808 486.717 203.808 Q483.453 203.808 481.532 206.03 Q479.61 208.229 479.61 212.003 L479.61 226.655 L475.328 226.655 L475.328 200.729 L479.61 200.729 L479.61 204.757 Q481.069 202.373 483.106 201.239 Q485.143 200.104 487.944 200.104 Q490.768 200.104 492.735 201.54 Q494.726 202.975 495.675 205.706 Z" fill="#000000" fill-rule="evenodd" fill-opacity="1" /><polyline clip-path="url(#clip300)" style="stroke:#3da44d; stroke-linecap:round; stroke-linejoin:round; stroke-width:16; stroke-opacity:1; fill:none" points="
  269.293,261.215 434.744,261.215 
  "/>
<path clip-path="url(#clip300)" d="M477.504 256.551 Q476.786 256.134 475.93 255.949 Q475.097 255.741 474.078 255.741 Q470.467 255.741 468.522 258.102 Q466.601 260.44 466.601 264.838 L466.601 278.495 L462.319 278.495 L462.319 252.569 L466.601 252.569 L466.601 256.597 Q467.944 254.236 470.097 253.102 Q472.249 251.944 475.328 251.944 Q475.768 251.944 476.3 252.014 Q476.833 252.06 477.481 252.176 L477.504 256.551 Z" fill="#000000" fill-rule="evenodd" fill-opacity="1" /><path clip-path="url(#clip300)" d="M481.971 242.477 L486.231 242.477 L486.231 278.495 L481.971 278.495 L481.971 242.477 Z" fill="#000000" fill-rule="evenodd" fill-opacity="1" /><path clip-path="url(#clip300)" d="M515.328 257.546 Q516.925 254.676 519.147 253.31 Q521.369 251.944 524.379 251.944 Q528.43 251.944 530.629 254.792 Q532.828 257.616 532.828 262.847 L532.828 278.495 L528.545 278.495 L528.545 262.986 Q528.545 259.259 527.226 257.454 Q525.906 255.648 523.198 255.648 Q519.888 255.648 517.967 257.847 Q516.045 260.046 516.045 263.843 L516.045 278.495 L511.763 278.495 L511.763 262.986 Q511.763 259.236 510.444 257.454 Q509.124 255.648 506.37 255.648 Q503.106 255.648 501.184 257.87 Q499.263 260.069 499.263 263.843 L499.263 278.495 L494.981 278.495 L494.981 252.569 L499.263 252.569 L499.263 256.597 Q500.721 254.213 502.758 253.079 Q504.795 251.944 507.596 251.944 Q510.42 251.944 512.388 253.38 Q514.379 254.815 515.328 257.546 Z" fill="#000000" fill-rule="evenodd" fill-opacity="1" /></svg>
