<?xml version="1.0" encoding="utf-8"?>
<svg xmlns="http://www.w3.org/2000/svg" xmlns:xlink="http://www.w3.org/1999/xlink" width="672" height="480" viewBox="0 0 2688 1920">
<defs>
  <clipPath id="clip940">
    <rect x="0" y="0" width="2688" height="1920"/>
  </clipPath>
</defs>
<path clip-path="url(#clip940)" d="
M0 1920 L2688 1920 L2688 0 L0 0  Z
  " fill="#ffffff" fill-rule="evenodd" fill-opacity="1"/>
<defs>
  <clipPath id="clip941">
    <rect x="537" y="0" width="1883" height="1883"/>
  </clipPath>
</defs>
<path clip-path="url(#clip940)" d="
M158.645 1800.78 L2640.76 1800.78 L2640.76 47.2441 L158.645 47.2441  Z
  " fill="#ffffff" fill-rule="evenodd" fill-opacity="1"/>
<defs>
  <clipPath id="clip942">
    <rect x="158" y="47" width="2483" height="1755"/>
  </clipPath>
</defs>
<polyline clip-path="url(#clip942)" style="stroke:#000000; stroke-linecap:round; stroke-linejoin:round; stroke-width:2; stroke-opacity:0.1; fill:none" points="
  546.348,1800.78 546.348,47.2441 
  "/>
<polyline clip-path="url(#clip942)" style="stroke:#000000; stroke-linecap:round; stroke-linejoin:round; stroke-width:2; stroke-opacity:0.1; fill:none" points="
  1402.56,1800.78 1402.56,47.2441 
  "/>
<polyline clip-path="url(#clip942)" style="stroke:#000000; stroke-linecap:round; stroke-linejoin:round; stroke-width:2; stroke-opacity:0.1; fill:none" points="
  2258.77,1800.78 2258.77,47.2441 
  "/>
<polyline clip-path="url(#clip940)" style="stroke:#000000; stroke-linecap:round; stroke-linejoin:round; stroke-width:4; stroke-opacity:1; fill:none" points="
  158.645,1800.78 2640.76,1800.78 
  "/>
<polyline clip-path="url(#clip940)" style="stroke:#000000; stroke-linecap:round; stroke-linejoin:round; stroke-width:4; stroke-opacity:1; fill:none" points="
  546.348,1800.78 546.348,1781.88 
  "/>
<polyline clip-path="url(#clip940)" style="stroke:#000000; stroke-linecap:round; stroke-linejoin:round; stroke-width:4; stroke-opacity:1; fill:none" points="
  1402.56,1800.78 1402.56,1781.88 
  "/>
<polyline clip-path="url(#clip940)" style="stroke:#000000; stroke-linecap:round; stroke-linejoin:round; stroke-width:4; stroke-opacity:1; fill:none" points="
  2258.77,1800.78 2258.77,1781.88 
  "/>
<path clip-path="url(#clip940)" d="M490.607 1840.32 L490.607 1844.35 Q488.802 1843.42 486.857 1842.96 Q484.913 1842.5 482.83 1842.5 Q479.658 1842.5 478.061 1843.47 Q476.487 1844.44 476.487 1846.39 Q476.487 1847.87 477.621 1848.72 Q478.756 1849.56 482.181 1850.32 L483.64 1850.65 Q488.177 1851.62 490.075 1853.4 Q491.996 1855.16 491.996 1858.33 Q491.996 1861.94 489.126 1864.05 Q486.279 1866.15 481.279 1866.15 Q479.195 1866.15 476.927 1865.74 Q474.682 1865.34 472.182 1864.53 L472.182 1860.14 Q474.543 1861.36 476.834 1861.99 Q479.126 1862.59 481.371 1862.59 Q484.381 1862.59 486.001 1861.57 Q487.621 1860.53 487.621 1858.65 Q487.621 1856.92 486.441 1855.99 Q485.283 1855.07 481.325 1854.21 L479.844 1853.86 Q475.885 1853.03 474.126 1851.32 Q472.367 1849.58 472.367 1846.57 Q472.367 1842.91 474.959 1840.92 Q477.552 1838.93 482.32 1838.93 Q484.681 1838.93 486.765 1839.28 Q488.848 1839.63 490.607 1840.32 Z" fill="#000000" fill-rule="evenodd" fill-opacity="1" /><path clip-path="url(#clip940)" d="M520.954 1851.46 L520.954 1853.54 L501.371 1853.54 Q501.649 1857.94 504.01 1860.25 Q506.394 1862.54 510.63 1862.54 Q513.084 1862.54 515.376 1861.94 Q517.691 1861.34 519.959 1860.14 L519.959 1864.16 Q517.667 1865.14 515.26 1865.65 Q512.853 1866.15 510.376 1866.15 Q504.172 1866.15 500.538 1862.54 Q496.927 1858.93 496.927 1852.78 Q496.927 1846.41 500.353 1842.68 Q503.802 1838.93 509.635 1838.93 Q514.866 1838.93 517.899 1842.31 Q520.954 1845.67 520.954 1851.46 M516.695 1850.21 Q516.649 1846.71 514.728 1844.63 Q512.829 1842.54 509.681 1842.54 Q506.117 1842.54 503.964 1844.56 Q501.834 1846.57 501.51 1850.23 L516.695 1850.21 Z" fill="#000000" fill-rule="evenodd" fill-opacity="1" /><path clip-path="url(#clip940)" d="M532.158 1832.2 L532.158 1839.56 L540.931 1839.56 L540.931 1842.87 L532.158 1842.87 L532.158 1856.94 Q532.158 1860.11 533.015 1861.02 Q533.894 1861.92 536.556 1861.92 L540.931 1861.92 L540.931 1865.48 L536.556 1865.48 Q531.626 1865.48 529.751 1863.65 Q527.876 1861.8 527.876 1856.94 L527.876 1842.87 L524.751 1842.87 L524.751 1839.56 L527.876 1839.56 L527.876 1832.2 L532.158 1832.2 Z" fill="#000000" fill-rule="evenodd" fill-opacity="1" /><path clip-path="url(#clip940)" d="M556.579 1842.54 Q553.153 1842.54 551.163 1845.23 Q549.172 1847.89 549.172 1852.54 Q549.172 1857.2 551.139 1859.88 Q553.13 1862.54 556.579 1862.54 Q559.982 1862.54 561.973 1859.86 Q563.963 1857.17 563.963 1852.54 Q563.963 1847.94 561.973 1845.25 Q559.982 1842.54 556.579 1842.54 M556.579 1838.93 Q562.135 1838.93 565.306 1842.54 Q568.477 1846.15 568.477 1852.54 Q568.477 1858.91 565.306 1862.54 Q562.135 1866.15 556.579 1866.15 Q551.001 1866.15 547.829 1862.54 Q544.681 1858.91 544.681 1852.54 Q544.681 1846.15 547.829 1842.54 Q551.001 1838.93 556.579 1838.93 Z" fill="#000000" fill-rule="evenodd" fill-opacity="1" /><path clip-path="url(#clip940)" d="M592.065 1840.32 L592.065 1844.35 Q590.26 1843.42 588.315 1842.96 Q586.371 1842.5 584.287 1842.5 Q581.116 1842.5 579.519 1843.47 Q577.945 1844.44 577.945 1846.39 Q577.945 1847.87 579.079 1848.72 Q580.213 1849.56 583.639 1850.32 L585.098 1850.65 Q589.635 1851.62 591.533 1853.4 Q593.454 1855.16 593.454 1858.33 Q593.454 1861.94 590.584 1864.05 Q587.736 1866.15 582.736 1866.15 Q580.653 1866.15 578.385 1865.74 Q576.139 1865.34 573.639 1864.53 L573.639 1860.14 Q576 1861.36 578.292 1861.99 Q580.584 1862.59 582.829 1862.59 Q585.838 1862.59 587.459 1861.57 Q589.079 1860.53 589.079 1858.65 Q589.079 1856.92 587.899 1855.99 Q586.741 1855.07 582.783 1854.21 L581.301 1853.86 Q577.343 1853.03 575.584 1851.32 Q573.825 1849.58 573.825 1846.57 Q573.825 1842.91 576.417 1840.92 Q579.01 1838.93 583.778 1838.93 Q586.139 1838.93 588.223 1839.28 Q590.306 1839.63 592.065 1840.32 Z" fill="#000000" fill-rule="evenodd" fill-opacity="1" /><path clip-path="url(#clip940)" d="M612.019 1852.45 Q606.857 1852.45 604.866 1853.63 Q602.875 1854.81 602.875 1857.66 Q602.875 1859.93 604.357 1861.27 Q605.861 1862.59 608.431 1862.59 Q611.972 1862.59 614.102 1860.09 Q616.255 1857.57 616.255 1853.4 L616.255 1852.45 L612.019 1852.45 M620.514 1850.69 L620.514 1865.48 L616.255 1865.48 L616.255 1861.55 Q614.797 1863.91 612.621 1865.04 Q610.445 1866.15 607.297 1866.15 Q603.315 1866.15 600.954 1863.93 Q598.616 1861.69 598.616 1857.94 Q598.616 1853.56 601.533 1851.34 Q604.472 1849.12 610.283 1849.12 L616.255 1849.12 L616.255 1848.7 Q616.255 1845.76 614.31 1844.16 Q612.389 1842.54 608.894 1842.54 Q606.672 1842.54 604.565 1843.08 Q602.459 1843.61 600.514 1844.67 L600.514 1840.74 Q602.852 1839.84 605.051 1839.4 Q607.25 1838.93 609.334 1838.93 Q614.959 1838.93 617.736 1841.85 Q620.514 1844.77 620.514 1850.69 Z" fill="#000000" fill-rule="evenodd" fill-opacity="1" /><path clip-path="url(#clip940)" d="M1287.6 1839.56 L1292.12 1839.56 L1300.22 1861.32 L1308.32 1839.56 L1312.83 1839.56 L1303.11 1865.48 L1297.33 1865.48 L1287.6 1839.56 Z" fill="#000000" fill-rule="evenodd" fill-opacity="1" /><path clip-path="url(#clip940)" d="M1340.89 1851.46 L1340.89 1853.54 L1321.31 1853.54 Q1321.58 1857.94 1323.95 1860.25 Q1326.33 1862.54 1330.57 1862.54 Q1333.02 1862.54 1335.31 1861.94 Q1337.63 1861.34 1339.89 1860.14 L1339.89 1864.16 Q1337.6 1865.14 1335.2 1865.65 Q1332.79 1866.15 1330.31 1866.15 Q1324.11 1866.15 1320.47 1862.54 Q1316.86 1858.93 1316.86 1852.78 Q1316.86 1846.41 1320.29 1842.68 Q1323.74 1838.93 1329.57 1838.93 Q1334.8 1838.93 1337.83 1842.31 Q1340.89 1845.67 1340.89 1851.46 M1336.63 1850.21 Q1336.58 1846.71 1334.66 1844.63 Q1332.77 1842.54 1329.62 1842.54 Q1326.05 1842.54 1323.9 1844.56 Q1321.77 1846.57 1321.45 1850.23 L1336.63 1850.21 Z" fill="#000000" fill-rule="evenodd" fill-opacity="1" /><path clip-path="url(#clip940)" d="M1362.9 1843.54 Q1362.19 1843.12 1361.33 1842.94 Q1360.5 1842.73 1359.48 1842.73 Q1355.87 1842.73 1353.92 1845.09 Q1352 1847.43 1352 1851.83 L1352 1865.48 L1347.72 1865.48 L1347.72 1839.56 L1352 1839.56 L1352 1843.59 Q1353.34 1841.22 1355.5 1840.09 Q1357.65 1838.93 1360.73 1838.93 Q1361.17 1838.93 1361.7 1839 Q1362.23 1839.05 1362.88 1839.16 L1362.9 1843.54 Z" fill="#000000" fill-rule="evenodd" fill-opacity="1" /><path clip-path="url(#clip940)" d="M1383.9 1840.32 L1383.9 1844.35 Q1382.09 1843.42 1380.15 1842.96 Q1378.2 1842.5 1376.12 1842.5 Q1372.95 1842.5 1371.35 1843.47 Q1369.78 1844.44 1369.78 1846.39 Q1369.78 1847.87 1370.91 1848.72 Q1372.05 1849.56 1375.47 1850.32 L1376.93 1850.65 Q1381.47 1851.62 1383.37 1853.4 Q1385.29 1855.16 1385.29 1858.33 Q1385.29 1861.94 1382.42 1864.05 Q1379.57 1866.15 1374.57 1866.15 Q1372.49 1866.15 1370.22 1865.74 Q1367.97 1865.34 1365.47 1864.53 L1365.47 1860.14 Q1367.83 1861.36 1370.13 1861.99 Q1372.42 1862.59 1374.66 1862.59 Q1377.67 1862.59 1379.29 1861.57 Q1380.91 1860.53 1380.91 1858.65 Q1380.91 1856.92 1379.73 1855.99 Q1378.58 1855.07 1374.62 1854.21 L1373.14 1853.86 Q1369.18 1853.03 1367.42 1851.32 Q1365.66 1849.58 1365.66 1846.57 Q1365.66 1842.91 1368.25 1840.92 Q1370.84 1838.93 1375.61 1838.93 Q1377.97 1838.93 1380.06 1839.28 Q1382.14 1839.63 1383.9 1840.32 Z" fill="#000000" fill-rule="evenodd" fill-opacity="1" /><path clip-path="url(#clip940)" d="M1392.07 1839.56 L1396.33 1839.56 L1396.33 1865.48 L1392.07 1865.48 L1392.07 1839.56 M1392.07 1829.46 L1396.33 1829.46 L1396.33 1834.86 L1392.07 1834.86 L1392.07 1829.46 Z" fill="#000000" fill-rule="evenodd" fill-opacity="1" /><path clip-path="url(#clip940)" d="M1423.9 1840.55 L1423.9 1844.53 Q1422.09 1843.54 1420.26 1843.05 Q1418.46 1842.54 1416.61 1842.54 Q1412.46 1842.54 1410.17 1845.18 Q1407.88 1847.8 1407.88 1852.54 Q1407.88 1857.29 1410.17 1859.93 Q1412.46 1862.54 1416.61 1862.54 Q1418.46 1862.54 1420.26 1862.06 Q1422.09 1861.55 1423.9 1860.55 L1423.9 1864.49 Q1422.12 1865.32 1420.2 1865.74 Q1418.3 1866.15 1416.14 1866.15 Q1410.29 1866.15 1406.84 1862.47 Q1403.39 1858.79 1403.39 1852.54 Q1403.39 1846.2 1406.86 1842.57 Q1410.36 1838.93 1416.42 1838.93 Q1418.39 1838.93 1420.26 1839.35 Q1422.14 1839.74 1423.9 1840.55 Z" fill="#000000" fill-rule="evenodd" fill-opacity="1" /><path clip-path="url(#clip940)" d="M1441.35 1842.54 Q1437.93 1842.54 1435.94 1845.23 Q1433.95 1847.89 1433.95 1852.54 Q1433.95 1857.2 1435.91 1859.88 Q1437.9 1862.54 1441.35 1862.54 Q1444.76 1862.54 1446.75 1859.86 Q1448.74 1857.17 1448.74 1852.54 Q1448.74 1847.94 1446.75 1845.25 Q1444.76 1842.54 1441.35 1842.54 M1441.35 1838.93 Q1446.91 1838.93 1450.08 1842.54 Q1453.25 1846.15 1453.25 1852.54 Q1453.25 1858.91 1450.08 1862.54 Q1446.91 1866.15 1441.35 1866.15 Q1435.77 1866.15 1432.6 1862.54 Q1429.45 1858.91 1429.45 1852.54 Q1429.45 1846.15 1432.6 1842.54 Q1435.77 1838.93 1441.35 1838.93 Z" fill="#000000" fill-rule="evenodd" fill-opacity="1" /><path clip-path="url(#clip940)" d="M1460.31 1829.46 L1464.57 1829.46 L1464.57 1865.48 L1460.31 1865.48 L1460.31 1829.46 Z" fill="#000000" fill-rule="evenodd" fill-opacity="1" /><path clip-path="url(#clip940)" d="M1483.53 1842.54 Q1480.1 1842.54 1478.11 1845.23 Q1476.12 1847.89 1476.12 1852.54 Q1476.12 1857.2 1478.09 1859.88 Q1480.08 1862.54 1483.53 1862.54 Q1486.93 1862.54 1488.92 1859.86 Q1490.91 1857.17 1490.91 1852.54 Q1490.91 1847.94 1488.92 1845.25 Q1486.93 1842.54 1483.53 1842.54 M1483.53 1838.93 Q1489.08 1838.93 1492.26 1842.54 Q1495.43 1846.15 1495.43 1852.54 Q1495.43 1858.91 1492.26 1862.54 Q1489.08 1866.15 1483.53 1866.15 Q1477.95 1866.15 1474.78 1862.54 Q1471.63 1858.91 1471.63 1852.54 Q1471.63 1846.15 1474.78 1842.54 Q1477.95 1838.93 1483.53 1838.93 Z" fill="#000000" fill-rule="evenodd" fill-opacity="1" /><path clip-path="url(#clip940)" d="M1517.51 1843.54 Q1516.79 1843.12 1515.94 1842.94 Q1515.1 1842.73 1514.08 1842.73 Q1510.47 1842.73 1508.53 1845.09 Q1506.61 1847.43 1506.61 1851.83 L1506.61 1865.48 L1502.32 1865.48 L1502.32 1839.56 L1506.61 1839.56 L1506.61 1843.59 Q1507.95 1841.22 1510.1 1840.09 Q1512.25 1838.93 1515.33 1838.93 Q1515.77 1838.93 1516.31 1839 Q1516.84 1839.05 1517.49 1839.16 L1517.51 1843.54 Z" fill="#000000" fill-rule="evenodd" fill-opacity="1" /><path clip-path="url(#clip940)" d="M2160.88 1839.56 L2165.4 1839.56 L2173.5 1861.32 L2181.6 1839.56 L2186.11 1839.56 L2176.39 1865.48 L2170.61 1865.48 L2160.88 1839.56 Z" fill="#000000" fill-rule="evenodd" fill-opacity="1" /><path clip-path="url(#clip940)" d="M2191.99 1839.56 L2196.25 1839.56 L2196.25 1865.48 L2191.99 1865.48 L2191.99 1839.56 M2191.99 1829.46 L2196.25 1829.46 L2196.25 1834.86 L2191.99 1834.86 L2191.99 1829.46 Z" fill="#000000" fill-rule="evenodd" fill-opacity="1" /><path clip-path="url(#clip940)" d="M2220.19 1843.54 Q2219.47 1843.12 2218.61 1842.94 Q2217.78 1842.73 2216.76 1842.73 Q2213.15 1842.73 2211.21 1845.09 Q2209.29 1847.43 2209.29 1851.83 L2209.29 1865.48 L2205 1865.48 L2205 1839.56 L2209.29 1839.56 L2209.29 1843.59 Q2210.63 1841.22 2212.78 1840.09 Q2214.93 1838.93 2218.01 1838.93 Q2218.45 1838.93 2218.99 1839 Q2219.52 1839.05 2220.17 1839.16 L2220.19 1843.54 Z" fill="#000000" fill-rule="evenodd" fill-opacity="1" /><path clip-path="url(#clip940)" d="M2240.88 1852.22 Q2240.88 1847.59 2238.96 1845.04 Q2237.06 1842.5 2233.61 1842.5 Q2230.19 1842.5 2228.27 1845.04 Q2226.37 1847.59 2226.37 1852.22 Q2226.37 1856.83 2228.27 1859.37 Q2230.19 1861.92 2233.61 1861.92 Q2237.06 1861.92 2238.96 1859.37 Q2240.88 1856.83 2240.88 1852.22 M2245.14 1862.27 Q2245.14 1868.89 2242.2 1872.1 Q2239.26 1875.34 2233.2 1875.34 Q2230.95 1875.34 2228.96 1875 Q2226.97 1874.67 2225.1 1873.98 L2225.1 1869.84 Q2226.97 1870.85 2228.8 1871.34 Q2230.63 1871.83 2232.53 1871.83 Q2236.72 1871.83 2238.8 1869.63 Q2240.88 1867.45 2240.88 1863.03 L2240.88 1860.92 Q2239.56 1863.21 2237.5 1864.35 Q2235.44 1865.48 2232.57 1865.48 Q2227.8 1865.48 2224.89 1861.85 Q2221.97 1858.21 2221.97 1852.22 Q2221.97 1846.2 2224.89 1842.57 Q2227.8 1838.93 2232.57 1838.93 Q2235.44 1838.93 2237.5 1840.07 Q2239.56 1841.2 2240.88 1843.49 L2240.88 1839.56 L2245.14 1839.56 L2245.14 1862.27 Z" fill="#000000" fill-rule="evenodd" fill-opacity="1" /><path clip-path="url(#clip940)" d="M2253.92 1839.56 L2258.17 1839.56 L2258.17 1865.48 L2253.92 1865.48 L2253.92 1839.56 M2253.92 1829.46 L2258.17 1829.46 L2258.17 1834.86 L2253.92 1834.86 L2253.92 1829.46 Z" fill="#000000" fill-rule="evenodd" fill-opacity="1" /><path clip-path="url(#clip940)" d="M2288.64 1849.84 L2288.64 1865.48 L2284.38 1865.48 L2284.38 1849.97 Q2284.38 1846.29 2282.94 1844.46 Q2281.51 1842.64 2278.64 1842.64 Q2275.19 1842.64 2273.2 1844.84 Q2271.21 1847.03 2271.21 1850.83 L2271.21 1865.48 L2266.92 1865.48 L2266.92 1839.56 L2271.21 1839.56 L2271.21 1843.59 Q2272.73 1841.25 2274.8 1840.09 Q2276.88 1838.93 2279.59 1838.93 Q2284.05 1838.93 2286.35 1841.71 Q2288.64 1844.46 2288.64 1849.84 Z" fill="#000000" fill-rule="evenodd" fill-opacity="1" /><path clip-path="url(#clip940)" d="M2297.13 1839.56 L2301.39 1839.56 L2301.39 1865.48 L2297.13 1865.48 L2297.13 1839.56 M2297.13 1829.46 L2301.39 1829.46 L2301.39 1834.86 L2297.13 1834.86 L2297.13 1829.46 Z" fill="#000000" fill-rule="evenodd" fill-opacity="1" /><path clip-path="url(#clip940)" d="M2328.96 1840.55 L2328.96 1844.53 Q2327.16 1843.54 2325.33 1843.05 Q2323.52 1842.54 2321.67 1842.54 Q2317.53 1842.54 2315.23 1845.18 Q2312.94 1847.8 2312.94 1852.54 Q2312.94 1857.29 2315.23 1859.93 Q2317.53 1862.54 2321.67 1862.54 Q2323.52 1862.54 2325.33 1862.06 Q2327.16 1861.55 2328.96 1860.55 L2328.96 1864.49 Q2327.18 1865.32 2325.26 1865.74 Q2323.36 1866.15 2321.21 1866.15 Q2315.35 1866.15 2311.9 1862.47 Q2308.45 1858.79 2308.45 1852.54 Q2308.45 1846.2 2311.92 1842.57 Q2315.42 1838.93 2321.48 1838.93 Q2323.45 1838.93 2325.33 1839.35 Q2327.2 1839.74 2328.96 1840.55 Z" fill="#000000" fill-rule="evenodd" fill-opacity="1" /><path clip-path="url(#clip940)" d="M2348.15 1852.45 Q2342.99 1852.45 2341 1853.63 Q2339.01 1854.81 2339.01 1857.66 Q2339.01 1859.93 2340.49 1861.27 Q2341.99 1862.59 2344.56 1862.59 Q2348.1 1862.59 2350.23 1860.09 Q2352.39 1857.57 2352.39 1853.4 L2352.39 1852.45 L2348.15 1852.45 M2356.65 1850.69 L2356.65 1865.48 L2352.39 1865.48 L2352.39 1861.55 Q2350.93 1863.91 2348.75 1865.04 Q2346.58 1866.15 2343.43 1866.15 Q2339.45 1866.15 2337.09 1863.93 Q2334.75 1861.69 2334.75 1857.94 Q2334.75 1853.56 2337.67 1851.34 Q2340.6 1849.12 2346.42 1849.12 L2352.39 1849.12 L2352.39 1848.7 Q2352.39 1845.76 2350.44 1844.16 Q2348.52 1842.54 2345.03 1842.54 Q2342.8 1842.54 2340.7 1843.08 Q2338.59 1843.61 2336.65 1844.67 L2336.65 1840.74 Q2338.98 1839.84 2341.18 1839.4 Q2343.38 1838.93 2345.47 1838.93 Q2351.09 1838.93 2353.87 1841.85 Q2356.65 1844.77 2356.65 1850.69 Z" fill="#000000" fill-rule="evenodd" fill-opacity="1" /><polyline clip-path="url(#clip942)" style="stroke:#000000; stroke-linecap:round; stroke-linejoin:round; stroke-width:2; stroke-opacity:0.1; fill:none" points="
  158.645,1475.44 2640.76,1475.44 
  "/>
<polyline clip-path="url(#clip942)" style="stroke:#000000; stroke-linecap:round; stroke-linejoin:round; stroke-width:2; stroke-opacity:0.1; fill:none" points="
  158.645,1130.8 2640.76,1130.8 
  "/>
<polyline clip-path="url(#clip942)" style="stroke:#000000; stroke-linecap:round; stroke-linejoin:round; stroke-width:2; stroke-opacity:0.1; fill:none" points="
  158.645,786.155 2640.76,786.155 
  "/>
<polyline clip-path="url(#clip942)" style="stroke:#000000; stroke-linecap:round; stroke-linejoin:round; stroke-width:2; stroke-opacity:0.1; fill:none" points="
  158.645,441.514 2640.76,441.514 
  "/>
<polyline clip-path="url(#clip942)" style="stroke:#000000; stroke-linecap:round; stroke-linejoin:round; stroke-width:2; stroke-opacity:0.1; fill:none" points="
  158.645,96.8724 2640.76,96.8724 
  "/>
<polyline clip-path="url(#clip940)" style="stroke:#000000; stroke-linecap:round; stroke-linejoin:round; stroke-width:4; stroke-opacity:1; fill:none" points="
  158.645,1800.78 158.645,47.2441 
  "/>
<polyline clip-path="url(#clip940)" style="stroke:#000000; stroke-linecap:round; stroke-linejoin:round; stroke-width:4; stroke-opacity:1; fill:none" points="
  158.645,1475.44 177.543,1475.44 
  "/>
<polyline clip-path="url(#clip940)" style="stroke:#000000; stroke-linecap:round; stroke-linejoin:round; stroke-width:4; stroke-opacity:1; fill:none" points="
  158.645,1130.8 177.543,1130.8 
  "/>
<polyline clip-path="url(#clip940)" style="stroke:#000000; stroke-linecap:round; stroke-linejoin:round; stroke-width:4; stroke-opacity:1; fill:none" points="
  158.645,786.155 177.543,786.155 
  "/>
<polyline clip-path="url(#clip940)" style="stroke:#000000; stroke-linecap:round; stroke-linejoin:round; stroke-width:4; stroke-opacity:1; fill:none" points="
  158.645,441.514 177.543,441.514 
  "/>
<polyline clip-path="url(#clip940)" style="stroke:#000000; stroke-linecap:round; stroke-linejoin:round; stroke-width:4; stroke-opacity:1; fill:none" points="
  158.645,96.8724 177.543,96.8724 
  "/>
<path clip-path="url(#clip940)" d="M62.1447 1461.24 Q58.5336 1461.24 56.7049 1464.8 Q54.8993 1468.34 54.8993 1475.47 Q54.8993 1482.58 56.7049 1486.14 Q58.5336 1489.69 62.1447 1489.69 Q65.7789 1489.69 67.5844 1486.14 Q69.4131 1482.58 69.4131 1475.47 Q69.4131 1468.34 67.5844 1464.8 Q65.7789 1461.24 62.1447 1461.24 M62.1447 1457.53 Q67.9548 1457.53 71.0103 1462.14 Q74.089 1466.72 74.089 1475.47 Q74.089 1484.2 71.0103 1488.81 Q67.9548 1493.39 62.1447 1493.39 Q56.3345 1493.39 53.2558 1488.81 Q50.2003 1484.2 50.2003 1475.47 Q50.2003 1466.72 53.2558 1462.14 Q56.3345 1457.53 62.1447 1457.53 Z" fill="#000000" fill-rule="evenodd" fill-opacity="1" /><path clip-path="url(#clip940)" d="M82.3066 1486.84 L87.1908 1486.84 L87.1908 1492.72 L82.3066 1492.72 L82.3066 1486.84 Z" fill="#000000" fill-rule="evenodd" fill-opacity="1" /><path clip-path="url(#clip940)" d="M97.4222 1458.16 L115.779 1458.16 L115.779 1462.09 L101.705 1462.09 L101.705 1470.57 Q102.723 1470.22 103.742 1470.06 Q104.76 1469.87 105.779 1469.87 Q111.566 1469.87 114.945 1473.04 Q118.325 1476.21 118.325 1481.63 Q118.325 1487.21 114.853 1490.31 Q111.38 1493.39 105.061 1493.39 Q102.885 1493.39 100.617 1493.02 Q98.3713 1492.65 95.9639 1491.91 L95.9639 1487.21 Q98.0472 1488.34 100.269 1488.9 Q102.492 1489.45 104.968 1489.45 Q108.973 1489.45 111.311 1487.35 Q113.649 1485.24 113.649 1481.63 Q113.649 1478.02 111.311 1475.91 Q108.973 1473.81 104.968 1473.81 Q103.094 1473.81 101.219 1474.22 Q99.3667 1474.64 97.4222 1475.52 L97.4222 1458.16 Z" fill="#000000" fill-rule="evenodd" fill-opacity="1" /><path clip-path="url(#clip940)" d="M51.9595 1144.14 L59.5984 1144.14 L59.5984 1117.78 L51.2882 1119.44 L51.2882 1115.18 L59.5521 1113.52 L64.228 1113.52 L64.228 1144.14 L71.8668 1144.14 L71.8668 1148.08 L51.9595 1148.08 L51.9595 1144.14 Z" fill="#000000" fill-rule="evenodd" fill-opacity="1" /><path clip-path="url(#clip940)" d="M81.3112 1142.2 L86.1954 1142.2 L86.1954 1148.08 L81.3112 1148.08 L81.3112 1142.2 Z" fill="#000000" fill-rule="evenodd" fill-opacity="1" /><path clip-path="url(#clip940)" d="M106.381 1116.6 Q102.769 1116.6 100.941 1120.16 Q99.1352 1123.7 99.1352 1130.83 Q99.1352 1137.94 100.941 1141.5 Q102.769 1145.04 106.381 1145.04 Q110.015 1145.04 111.82 1141.5 Q113.649 1137.94 113.649 1130.83 Q113.649 1123.7 111.82 1120.16 Q110.015 1116.6 106.381 1116.6 M106.381 1112.89 Q112.191 1112.89 115.246 1117.5 Q118.325 1122.08 118.325 1130.83 Q118.325 1139.56 115.246 1144.16 Q112.191 1148.75 106.381 1148.75 Q100.57 1148.75 97.4917 1144.16 Q94.4361 1139.56 94.4361 1130.83 Q94.4361 1122.08 97.4917 1117.5 Q100.57 1112.89 106.381 1112.89 Z" fill="#000000" fill-rule="evenodd" fill-opacity="1" /><path clip-path="url(#clip940)" d="M52.9549 799.5 L60.5937 799.5 L60.5937 773.134 L52.2836 774.801 L52.2836 770.542 L60.5474 768.875 L65.2233 768.875 L65.2233 799.5 L72.8622 799.5 L72.8622 803.435 L52.9549 803.435 L52.9549 799.5 Z" fill="#000000" fill-rule="evenodd" fill-opacity="1" /><path clip-path="url(#clip940)" d="M82.3066 797.556 L87.1908 797.556 L87.1908 803.435 L82.3066 803.435 L82.3066 797.556 Z" fill="#000000" fill-rule="evenodd" fill-opacity="1" /><path clip-path="url(#clip940)" d="M97.4222 768.875 L115.779 768.875 L115.779 772.81 L101.705 772.81 L101.705 781.282 Q102.723 780.935 103.742 780.773 Q104.76 780.588 105.779 780.588 Q111.566 780.588 114.945 783.759 Q118.325 786.931 118.325 792.347 Q118.325 797.926 114.853 801.028 Q111.38 804.106 105.061 804.106 Q102.885 804.106 100.617 803.736 Q98.3713 803.366 95.9639 802.625 L95.9639 797.926 Q98.0472 799.06 100.269 799.616 Q102.492 800.171 104.968 800.171 Q108.973 800.171 111.311 798.065 Q113.649 795.958 113.649 792.347 Q113.649 788.736 111.311 786.63 Q108.973 784.523 104.968 784.523 Q103.094 784.523 101.219 784.94 Q99.3667 785.357 97.4222 786.236 L97.4222 768.875 Z" fill="#000000" fill-rule="evenodd" fill-opacity="1" /><path clip-path="url(#clip940)" d="M55.1771 454.859 L71.4965 454.859 L71.4965 458.794 L49.5521 458.794 L49.5521 454.859 Q52.2141 452.104 56.7975 447.474 Q61.4039 442.822 62.5845 441.479 Q64.8298 438.956 65.7094 437.22 Q66.6122 435.461 66.6122 433.771 Q66.6122 431.016 64.6678 429.28 Q62.7465 427.544 59.6447 427.544 Q57.4456 427.544 54.9919 428.308 Q52.5614 429.072 49.7836 430.623 L49.7836 425.9 Q52.6077 424.766 55.0614 424.188 Q57.515 423.609 59.5521 423.609 Q64.9224 423.609 68.1168 426.294 Q71.3113 428.979 71.3113 433.47 Q71.3113 435.599 70.5011 437.521 Q69.7141 439.419 67.6076 442.011 Q67.0289 442.683 63.927 445.9 Q60.8252 449.095 55.1771 454.859 Z" fill="#000000" fill-rule="evenodd" fill-opacity="1" /><path clip-path="url(#clip940)" d="M81.3112 452.914 L86.1954 452.914 L86.1954 458.794 L81.3112 458.794 L81.3112 452.914 Z" fill="#000000" fill-rule="evenodd" fill-opacity="1" /><path clip-path="url(#clip940)" d="M106.381 427.312 Q102.769 427.312 100.941 430.877 Q99.1352 434.419 99.1352 441.549 Q99.1352 448.655 100.941 452.22 Q102.769 455.761 106.381 455.761 Q110.015 455.761 111.82 452.22 Q113.649 448.655 113.649 441.549 Q113.649 434.419 111.82 430.877 Q110.015 427.312 106.381 427.312 M106.381 423.609 Q112.191 423.609 115.246 428.215 Q118.325 432.799 118.325 441.549 Q118.325 450.275 115.246 454.882 Q112.191 459.465 106.381 459.465 Q100.57 459.465 97.4917 454.882 Q94.4361 450.275 94.4361 441.549 Q94.4361 432.799 97.4917 428.215 Q100.57 423.609 106.381 423.609 Z" fill="#000000" fill-rule="evenodd" fill-opacity="1" /><path clip-path="url(#clip940)" d="M56.1725 110.217 L72.4918 110.217 L72.4918 114.152 L50.5475 114.152 L50.5475 110.217 Q53.2095 107.463 57.7928 102.833 Q62.3993 98.1803 63.5798 96.8377 Q65.8252 94.3146 66.7048 92.5785 Q67.6076 90.8192 67.6076 89.1294 Q67.6076 86.3748 65.6632 84.6387 Q63.7419 82.9026 60.64 82.9026 Q58.441 82.9026 55.9873 83.6665 Q53.5567 84.4304 50.779 85.9813 L50.779 81.2591 Q53.603 80.1249 56.0567 79.5462 Q58.5104 78.9675 60.5474 78.9675 Q65.9178 78.9675 69.1122 81.6526 Q72.3066 84.3378 72.3066 88.8285 Q72.3066 90.9581 71.4965 92.8794 Q70.7094 94.7776 68.6029 97.3701 Q68.0242 98.0414 64.9224 101.259 Q61.8206 104.453 56.1725 110.217 Z" fill="#000000" fill-rule="evenodd" fill-opacity="1" /><path clip-path="url(#clip940)" d="M82.3066 108.273 L87.1908 108.273 L87.1908 114.152 L82.3066 114.152 L82.3066 108.273 Z" fill="#000000" fill-rule="evenodd" fill-opacity="1" /><path clip-path="url(#clip940)" d="M97.4222 79.5924 L115.779 79.5924 L115.779 83.5276 L101.705 83.5276 L101.705 91.9998 Q102.723 91.6526 103.742 91.4905 Q104.76 91.3053 105.779 91.3053 Q111.566 91.3053 114.945 94.4766 Q118.325 97.6479 118.325 103.065 Q118.325 108.643 114.853 111.745 Q111.38 114.824 105.061 114.824 Q102.885 114.824 100.617 114.453 Q98.3713 114.083 95.9639 113.342 L95.9639 108.643 Q98.0472 109.777 100.269 110.333 Q102.492 110.889 104.968 110.889 Q108.973 110.889 111.311 108.782 Q113.649 106.676 113.649 103.065 Q113.649 99.4535 111.311 97.347 Q108.973 95.2405 104.968 95.2405 Q103.094 95.2405 101.219 95.6572 Q99.3667 96.0738 97.4222 96.9535 L97.4222 79.5924 Z" fill="#000000" fill-rule="evenodd" fill-opacity="1" /><circle clip-path="url(#clip942)" cx="748.703" cy="1682.22" r="14.4" fill="#009af9" fill-rule="evenodd" fill-opacity="1" stroke="#000000" stroke-opacity="1" stroke-width="3.84"/>
<circle clip-path="url(#clip942)" cx="279.813" cy="1682.22" r="14.4" fill="#009af9" fill-rule="evenodd" fill-opacity="1" stroke="#000000" stroke-opacity="1" stroke-width="3.84"/>
<circle clip-path="url(#clip942)" cx="511.451" cy="1682.22" r="14.4" fill="#009af9" fill-rule="evenodd" fill-opacity="1" stroke="#000000" stroke-opacity="1" stroke-width="3.84"/>
<circle clip-path="url(#clip942)" cx="473.43" cy="1682.22" r="14.4" fill="#009af9" fill-rule="evenodd" fill-opacity="1" stroke="#000000" stroke-opacity="1" stroke-width="3.84"/>
<circle clip-path="url(#clip942)" cx="515.539" cy="1682.22" r="14.4" fill="#009af9" fill-rule="evenodd" fill-opacity="1" stroke="#000000" stroke-opacity="1" stroke-width="3.84"/>
<circle clip-path="url(#clip942)" cx="583.902" cy="1544.37" r="14.4" fill="#009af9" fill-rule="evenodd" fill-opacity="1" stroke="#000000" stroke-opacity="1" stroke-width="3.84"/>
<circle clip-path="url(#clip942)" cx="520.564" cy="1613.29" r="14.4" fill="#009af9" fill-rule="evenodd" fill-opacity="1" stroke="#000000" stroke-opacity="1" stroke-width="3.84"/>
<circle clip-path="url(#clip942)" cx="839.092" cy="1682.22" r="14.4" fill="#009af9" fill-rule="evenodd" fill-opacity="1" stroke="#000000" stroke-opacity="1" stroke-width="3.84"/>
<circle clip-path="url(#clip942)" cx="510.522" cy="1682.22" r="14.4" fill="#009af9" fill-rule="evenodd" fill-opacity="1" stroke="#000000" stroke-opacity="1" stroke-width="3.84"/>
<circle clip-path="url(#clip942)" cx="510.136" cy="1751.15" r="14.4" fill="#009af9" fill-rule="evenodd" fill-opacity="1" stroke="#000000" stroke-opacity="1" stroke-width="3.84"/>
<circle clip-path="url(#clip942)" cx="437.274" cy="1682.22" r="14.4" fill="#009af9" fill-rule="evenodd" fill-opacity="1" stroke="#000000" stroke-opacity="1" stroke-width="3.84"/>
<circle clip-path="url(#clip942)" cx="637.607" cy="1682.22" r="14.4" fill="#009af9" fill-rule="evenodd" fill-opacity="1" stroke="#000000" stroke-opacity="1" stroke-width="3.84"/>
<circle clip-path="url(#clip942)" cx="493.349" cy="1751.15" r="14.4" fill="#009af9" fill-rule="evenodd" fill-opacity="1" stroke="#000000" stroke-opacity="1" stroke-width="3.84"/>
<circle clip-path="url(#clip942)" cx="601.391" cy="1751.15" r="14.4" fill="#009af9" fill-rule="evenodd" fill-opacity="1" stroke="#000000" stroke-opacity="1" stroke-width="3.84"/>
<circle clip-path="url(#clip942)" cx="261.23" cy="1682.22" r="14.4" fill="#009af9" fill-rule="evenodd" fill-opacity="1" stroke="#000000" stroke-opacity="1" stroke-width="3.84"/>
<circle clip-path="url(#clip942)" cx="488.845" cy="1544.37" r="14.4" fill="#009af9" fill-rule="evenodd" fill-opacity="1" stroke="#000000" stroke-opacity="1" stroke-width="3.84"/>
<circle clip-path="url(#clip942)" cx="499.84" cy="1544.37" r="14.4" fill="#009af9" fill-rule="evenodd" fill-opacity="1" stroke="#000000" stroke-opacity="1" stroke-width="3.84"/>
<circle clip-path="url(#clip942)" cx="570.075" cy="1613.29" r="14.4" fill="#009af9" fill-rule="evenodd" fill-opacity="1" stroke="#000000" stroke-opacity="1" stroke-width="3.84"/>
<circle clip-path="url(#clip942)" cx="624.179" cy="1613.29" r="14.4" fill="#009af9" fill-rule="evenodd" fill-opacity="1" stroke="#000000" stroke-opacity="1" stroke-width="3.84"/>
<circle clip-path="url(#clip942)" cx="466.101" cy="1613.29" r="14.4" fill="#009af9" fill-rule="evenodd" fill-opacity="1" stroke="#000000" stroke-opacity="1" stroke-width="3.84"/>
<circle clip-path="url(#clip942)" cx="492.154" cy="1682.22" r="14.4" fill="#009af9" fill-rule="evenodd" fill-opacity="1" stroke="#000000" stroke-opacity="1" stroke-width="3.84"/>
<circle clip-path="url(#clip942)" cx="495.703" cy="1544.37" r="14.4" fill="#009af9" fill-rule="evenodd" fill-opacity="1" stroke="#000000" stroke-opacity="1" stroke-width="3.84"/>
<circle clip-path="url(#clip942)" cx="627.728" cy="1682.22" r="14.4" fill="#009af9" fill-rule="evenodd" fill-opacity="1" stroke="#000000" stroke-opacity="1" stroke-width="3.84"/>
<circle clip-path="url(#clip942)" cx="550.823" cy="1475.44" r="14.4" fill="#009af9" fill-rule="evenodd" fill-opacity="1" stroke="#000000" stroke-opacity="1" stroke-width="3.84"/>
<circle clip-path="url(#clip942)" cx="884.979" cy="1682.22" r="14.4" fill="#009af9" fill-rule="evenodd" fill-opacity="1" stroke="#000000" stroke-opacity="1" stroke-width="3.84"/>
<circle clip-path="url(#clip942)" cx="860.121" cy="1682.22" r="14.4" fill="#009af9" fill-rule="evenodd" fill-opacity="1" stroke="#000000" stroke-opacity="1" stroke-width="3.84"/>
<circle clip-path="url(#clip942)" cx="477.045" cy="1544.37" r="14.4" fill="#009af9" fill-rule="evenodd" fill-opacity="1" stroke="#000000" stroke-opacity="1" stroke-width="3.84"/>
<circle clip-path="url(#clip942)" cx="585.085" cy="1682.22" r="14.4" fill="#009af9" fill-rule="evenodd" fill-opacity="1" stroke="#000000" stroke-opacity="1" stroke-width="3.84"/>
<circle clip-path="url(#clip942)" cx="730.236" cy="1682.22" r="14.4" fill="#009af9" fill-rule="evenodd" fill-opacity="1" stroke="#000000" stroke-opacity="1" stroke-width="3.84"/>
<circle clip-path="url(#clip942)" cx="841.321" cy="1682.22" r="14.4" fill="#009af9" fill-rule="evenodd" fill-opacity="1" stroke="#000000" stroke-opacity="1" stroke-width="3.84"/>
<circle clip-path="url(#clip942)" cx="233.092" cy="1682.22" r="14.4" fill="#009af9" fill-rule="evenodd" fill-opacity="1" stroke="#000000" stroke-opacity="1" stroke-width="3.84"/>
<circle clip-path="url(#clip942)" cx="480.435" cy="1544.37" r="14.4" fill="#009af9" fill-rule="evenodd" fill-opacity="1" stroke="#000000" stroke-opacity="1" stroke-width="3.84"/>
<circle clip-path="url(#clip942)" cx="591.272" cy="1751.15" r="14.4" fill="#009af9" fill-rule="evenodd" fill-opacity="1" stroke="#000000" stroke-opacity="1" stroke-width="3.84"/>
<circle clip-path="url(#clip942)" cx="510.708" cy="1682.22" r="14.4" fill="#009af9" fill-rule="evenodd" fill-opacity="1" stroke="#000000" stroke-opacity="1" stroke-width="3.84"/>
<circle clip-path="url(#clip942)" cx="450.587" cy="1682.22" r="14.4" fill="#009af9" fill-rule="evenodd" fill-opacity="1" stroke="#000000" stroke-opacity="1" stroke-width="3.84"/>
<circle clip-path="url(#clip942)" cx="369.832" cy="1682.22" r="14.4" fill="#009af9" fill-rule="evenodd" fill-opacity="1" stroke="#000000" stroke-opacity="1" stroke-width="3.84"/>
<circle clip-path="url(#clip942)" cx="624.809" cy="1682.22" r="14.4" fill="#009af9" fill-rule="evenodd" fill-opacity="1" stroke="#000000" stroke-opacity="1" stroke-width="3.84"/>
<circle clip-path="url(#clip942)" cx="502.36" cy="1751.15" r="14.4" fill="#009af9" fill-rule="evenodd" fill-opacity="1" stroke="#000000" stroke-opacity="1" stroke-width="3.84"/>
<circle clip-path="url(#clip942)" cx="796.045" cy="1682.22" r="14.4" fill="#009af9" fill-rule="evenodd" fill-opacity="1" stroke="#000000" stroke-opacity="1" stroke-width="3.84"/>
<circle clip-path="url(#clip942)" cx="655.559" cy="1682.22" r="14.4" fill="#009af9" fill-rule="evenodd" fill-opacity="1" stroke="#000000" stroke-opacity="1" stroke-width="3.84"/>
<circle clip-path="url(#clip942)" cx="575.889" cy="1613.29" r="14.4" fill="#009af9" fill-rule="evenodd" fill-opacity="1" stroke="#000000" stroke-opacity="1" stroke-width="3.84"/>
<circle clip-path="url(#clip942)" cx="605.507" cy="1613.29" r="14.4" fill="#009af9" fill-rule="evenodd" fill-opacity="1" stroke="#000000" stroke-opacity="1" stroke-width="3.84"/>
<circle clip-path="url(#clip942)" cx="228.893" cy="1682.22" r="14.4" fill="#009af9" fill-rule="evenodd" fill-opacity="1" stroke="#000000" stroke-opacity="1" stroke-width="3.84"/>
<circle clip-path="url(#clip942)" cx="555.622" cy="1406.51" r="14.4" fill="#009af9" fill-rule="evenodd" fill-opacity="1" stroke="#000000" stroke-opacity="1" stroke-width="3.84"/>
<circle clip-path="url(#clip942)" cx="488.933" cy="1544.37" r="14.4" fill="#009af9" fill-rule="evenodd" fill-opacity="1" stroke="#000000" stroke-opacity="1" stroke-width="3.84"/>
<circle clip-path="url(#clip942)" cx="576.207" cy="1613.29" r="14.4" fill="#009af9" fill-rule="evenodd" fill-opacity="1" stroke="#000000" stroke-opacity="1" stroke-width="3.84"/>
<circle clip-path="url(#clip942)" cx="442.625" cy="1682.22" r="14.4" fill="#009af9" fill-rule="evenodd" fill-opacity="1" stroke="#000000" stroke-opacity="1" stroke-width="3.84"/>
<circle clip-path="url(#clip942)" cx="428.167" cy="1682.22" r="14.4" fill="#009af9" fill-rule="evenodd" fill-opacity="1" stroke="#000000" stroke-opacity="1" stroke-width="3.84"/>
<circle clip-path="url(#clip942)" cx="565.279" cy="1682.22" r="14.4" fill="#009af9" fill-rule="evenodd" fill-opacity="1" stroke="#000000" stroke-opacity="1" stroke-width="3.84"/>
<circle clip-path="url(#clip942)" cx="287.853" cy="1682.22" r="14.4" fill="#009af9" fill-rule="evenodd" fill-opacity="1" stroke="#000000" stroke-opacity="1" stroke-width="3.84"/>
<circle clip-path="url(#clip942)" cx="1225.21" cy="855.083" r="14.4" fill="#009af9" fill-rule="evenodd" fill-opacity="1" stroke="#000000" stroke-opacity="1" stroke-width="3.84"/>
<circle clip-path="url(#clip942)" cx="1309.42" cy="786.155" r="14.4" fill="#009af9" fill-rule="evenodd" fill-opacity="1" stroke="#000000" stroke-opacity="1" stroke-width="3.84"/>
<circle clip-path="url(#clip942)" cx="1409.79" cy="786.155" r="14.4" fill="#009af9" fill-rule="evenodd" fill-opacity="1" stroke="#000000" stroke-opacity="1" stroke-width="3.84"/>
<circle clip-path="url(#clip942)" cx="1130.86" cy="924.012" r="14.4" fill="#009af9" fill-rule="evenodd" fill-opacity="1" stroke="#000000" stroke-opacity="1" stroke-width="3.84"/>
<circle clip-path="url(#clip942)" cx="1299.61" cy="786.155" r="14.4" fill="#009af9" fill-rule="evenodd" fill-opacity="1" stroke="#000000" stroke-opacity="1" stroke-width="3.84"/>
<circle clip-path="url(#clip942)" cx="1322.67" cy="924.012" r="14.4" fill="#009af9" fill-rule="evenodd" fill-opacity="1" stroke="#000000" stroke-opacity="1" stroke-width="3.84"/>
<circle clip-path="url(#clip942)" cx="1390.47" cy="717.227" r="14.4" fill="#009af9" fill-rule="evenodd" fill-opacity="1" stroke="#000000" stroke-opacity="1" stroke-width="3.84"/>
<circle clip-path="url(#clip942)" cx="1367.3" cy="1130.8" r="14.4" fill="#009af9" fill-rule="evenodd" fill-opacity="1" stroke="#000000" stroke-opacity="1" stroke-width="3.84"/>
<circle clip-path="url(#clip942)" cx="1543.85" cy="924.012" r="14.4" fill="#009af9" fill-rule="evenodd" fill-opacity="1" stroke="#000000" stroke-opacity="1" stroke-width="3.84"/>
<circle clip-path="url(#clip942)" cx="1707.9" cy="855.083" r="14.4" fill="#009af9" fill-rule="evenodd" fill-opacity="1" stroke="#000000" stroke-opacity="1" stroke-width="3.84"/>
<circle clip-path="url(#clip942)" cx="1490.25" cy="1130.8" r="14.4" fill="#009af9" fill-rule="evenodd" fill-opacity="1" stroke="#000000" stroke-opacity="1" stroke-width="3.84"/>
<circle clip-path="url(#clip942)" cx="1515.92" cy="786.155" r="14.4" fill="#009af9" fill-rule="evenodd" fill-opacity="1" stroke="#000000" stroke-opacity="1" stroke-width="3.84"/>
<circle clip-path="url(#clip942)" cx="1276.45" cy="1130.8" r="14.4" fill="#009af9" fill-rule="evenodd" fill-opacity="1" stroke="#000000" stroke-opacity="1" stroke-width="3.84"/>
<circle clip-path="url(#clip942)" cx="1641.8" cy="855.083" r="14.4" fill="#009af9" fill-rule="evenodd" fill-opacity="1" stroke="#000000" stroke-opacity="1" stroke-width="3.84"/>
<circle clip-path="url(#clip942)" cx="1167.6" cy="924.012" r="14.4" fill="#009af9" fill-rule="evenodd" fill-opacity="1" stroke="#000000" stroke-opacity="1" stroke-width="3.84"/>
<circle clip-path="url(#clip942)" cx="1228.64" cy="855.083" r="14.4" fill="#009af9" fill-rule="evenodd" fill-opacity="1" stroke="#000000" stroke-opacity="1" stroke-width="3.84"/>
<circle clip-path="url(#clip942)" cx="1366.7" cy="786.155" r="14.4" fill="#009af9" fill-rule="evenodd" fill-opacity="1" stroke="#000000" stroke-opacity="1" stroke-width="3.84"/>
<circle clip-path="url(#clip942)" cx="1418.42" cy="1130.8" r="14.4" fill="#009af9" fill-rule="evenodd" fill-opacity="1" stroke="#000000" stroke-opacity="1" stroke-width="3.84"/>
<circle clip-path="url(#clip942)" cx="1328.98" cy="786.155" r="14.4" fill="#009af9" fill-rule="evenodd" fill-opacity="1" stroke="#000000" stroke-opacity="1" stroke-width="3.84"/>
<circle clip-path="url(#clip942)" cx="1320.51" cy="1061.87" r="14.4" fill="#009af9" fill-rule="evenodd" fill-opacity="1" stroke="#000000" stroke-opacity="1" stroke-width="3.84"/>
<circle clip-path="url(#clip942)" cx="1421.11" cy="579.37" r="14.4" fill="#009af9" fill-rule="evenodd" fill-opacity="1" stroke="#000000" stroke-opacity="1" stroke-width="3.84"/>
<circle clip-path="url(#clip942)" cx="1068.03" cy="924.012" r="14.4" fill="#009af9" fill-rule="evenodd" fill-opacity="1" stroke="#000000" stroke-opacity="1" stroke-width="3.84"/>
<circle clip-path="url(#clip942)" cx="1432.74" cy="786.155" r="14.4" fill="#009af9" fill-rule="evenodd" fill-opacity="1" stroke="#000000" stroke-opacity="1" stroke-width="3.84"/>
<circle clip-path="url(#clip942)" cx="1551.52" cy="992.94" r="14.4" fill="#009af9" fill-rule="evenodd" fill-opacity="1" stroke="#000000" stroke-opacity="1" stroke-width="3.84"/>
<circle clip-path="url(#clip942)" cx="1420.98" cy="924.012" r="14.4" fill="#009af9" fill-rule="evenodd" fill-opacity="1" stroke="#000000" stroke-opacity="1" stroke-width="3.84"/>
<circle clip-path="url(#clip942)" cx="1605.77" cy="855.083" r="14.4" fill="#009af9" fill-rule="evenodd" fill-opacity="1" stroke="#000000" stroke-opacity="1" stroke-width="3.84"/>
<circle clip-path="url(#clip942)" cx="1549.78" cy="855.083" r="14.4" fill="#009af9" fill-rule="evenodd" fill-opacity="1" stroke="#000000" stroke-opacity="1" stroke-width="3.84"/>
<circle clip-path="url(#clip942)" cx="1458.86" cy="648.299" r="14.4" fill="#009af9" fill-rule="evenodd" fill-opacity="1" stroke="#000000" stroke-opacity="1" stroke-width="3.84"/>
<circle clip-path="url(#clip942)" cx="1299.21" cy="786.155" r="14.4" fill="#009af9" fill-rule="evenodd" fill-opacity="1" stroke="#000000" stroke-opacity="1" stroke-width="3.84"/>
<circle clip-path="url(#clip942)" cx="1490.61" cy="1130.8" r="14.4" fill="#009af9" fill-rule="evenodd" fill-opacity="1" stroke="#000000" stroke-opacity="1" stroke-width="3.84"/>
<circle clip-path="url(#clip942)" cx="1271.41" cy="1061.87" r="14.4" fill="#009af9" fill-rule="evenodd" fill-opacity="1" stroke="#000000" stroke-opacity="1" stroke-width="3.84"/>
<circle clip-path="url(#clip942)" cx="1359.02" cy="1130.8" r="14.4" fill="#009af9" fill-rule="evenodd" fill-opacity="1" stroke="#000000" stroke-opacity="1" stroke-width="3.84"/>
<circle clip-path="url(#clip942)" cx="1208.58" cy="992.94" r="14.4" fill="#009af9" fill-rule="evenodd" fill-opacity="1" stroke="#000000" stroke-opacity="1" stroke-width="3.84"/>
<circle clip-path="url(#clip942)" cx="1317.3" cy="717.227" r="14.4" fill="#009af9" fill-rule="evenodd" fill-opacity="1" stroke="#000000" stroke-opacity="1" stroke-width="3.84"/>
<circle clip-path="url(#clip942)" cx="1301.43" cy="786.155" r="14.4" fill="#009af9" fill-rule="evenodd" fill-opacity="1" stroke="#000000" stroke-opacity="1" stroke-width="3.84"/>
<circle clip-path="url(#clip942)" cx="1506.79" cy="717.227" r="14.4" fill="#009af9" fill-rule="evenodd" fill-opacity="1" stroke="#000000" stroke-opacity="1" stroke-width="3.84"/>
<circle clip-path="url(#clip942)" cx="1584.78" cy="786.155" r="14.4" fill="#009af9" fill-rule="evenodd" fill-opacity="1" stroke="#000000" stroke-opacity="1" stroke-width="3.84"/>
<circle clip-path="url(#clip942)" cx="1515.94" cy="924.012" r="14.4" fill="#009af9" fill-rule="evenodd" fill-opacity="1" stroke="#000000" stroke-opacity="1" stroke-width="3.84"/>
<circle clip-path="url(#clip942)" cx="1200.13" cy="924.012" r="14.4" fill="#009af9" fill-rule="evenodd" fill-opacity="1" stroke="#000000" stroke-opacity="1" stroke-width="3.84"/>
<circle clip-path="url(#clip942)" cx="1578.57" cy="924.012" r="14.4" fill="#009af9" fill-rule="evenodd" fill-opacity="1" stroke="#000000" stroke-opacity="1" stroke-width="3.84"/>
<circle clip-path="url(#clip942)" cx="1171.83" cy="992.94" r="14.4" fill="#009af9" fill-rule="evenodd" fill-opacity="1" stroke="#000000" stroke-opacity="1" stroke-width="3.84"/>
<circle clip-path="url(#clip942)" cx="1415.7" cy="855.083" r="14.4" fill="#009af9" fill-rule="evenodd" fill-opacity="1" stroke="#000000" stroke-opacity="1" stroke-width="3.84"/>
<circle clip-path="url(#clip942)" cx="1480.94" cy="992.94" r="14.4" fill="#009af9" fill-rule="evenodd" fill-opacity="1" stroke="#000000" stroke-opacity="1" stroke-width="3.84"/>
<circle clip-path="url(#clip942)" cx="1332.18" cy="1130.8" r="14.4" fill="#009af9" fill-rule="evenodd" fill-opacity="1" stroke="#000000" stroke-opacity="1" stroke-width="3.84"/>
<circle clip-path="url(#clip942)" cx="1336.2" cy="924.012" r="14.4" fill="#009af9" fill-rule="evenodd" fill-opacity="1" stroke="#000000" stroke-opacity="1" stroke-width="3.84"/>
<circle clip-path="url(#clip942)" cx="1390.77" cy="992.94" r="14.4" fill="#009af9" fill-rule="evenodd" fill-opacity="1" stroke="#000000" stroke-opacity="1" stroke-width="3.84"/>
<circle clip-path="url(#clip942)" cx="1543.54" cy="924.012" r="14.4" fill="#009af9" fill-rule="evenodd" fill-opacity="1" stroke="#000000" stroke-opacity="1" stroke-width="3.84"/>
<circle clip-path="url(#clip942)" cx="1607.64" cy="924.012" r="14.4" fill="#009af9" fill-rule="evenodd" fill-opacity="1" stroke="#000000" stroke-opacity="1" stroke-width="3.84"/>
<circle clip-path="url(#clip942)" cx="1544.06" cy="1061.87" r="14.4" fill="#009af9" fill-rule="evenodd" fill-opacity="1" stroke="#000000" stroke-opacity="1" stroke-width="3.84"/>
<circle clip-path="url(#clip942)" cx="1537.16" cy="924.012" r="14.4" fill="#009af9" fill-rule="evenodd" fill-opacity="1" stroke="#000000" stroke-opacity="1" stroke-width="3.84"/>
<circle clip-path="url(#clip942)" cx="2322.38" cy="96.8724" r="14.4" fill="#009af9" fill-rule="evenodd" fill-opacity="1" stroke="#000000" stroke-opacity="1" stroke-width="3.84"/>
<circle clip-path="url(#clip942)" cx="2417.2" cy="510.442" r="14.4" fill="#009af9" fill-rule="evenodd" fill-opacity="1" stroke="#000000" stroke-opacity="1" stroke-width="3.84"/>
<circle clip-path="url(#clip942)" cx="2094.05" cy="372.586" r="14.4" fill="#009af9" fill-rule="evenodd" fill-opacity="1" stroke="#000000" stroke-opacity="1" stroke-width="3.84"/>
<circle clip-path="url(#clip942)" cx="1954.24" cy="579.37" r="14.4" fill="#009af9" fill-rule="evenodd" fill-opacity="1" stroke="#000000" stroke-opacity="1" stroke-width="3.84"/>
<circle clip-path="url(#clip942)" cx="1991.34" cy="303.657" r="14.4" fill="#009af9" fill-rule="evenodd" fill-opacity="1" stroke="#000000" stroke-opacity="1" stroke-width="3.84"/>
<circle clip-path="url(#clip942)" cx="2296.16" cy="372.586" r="14.4" fill="#009af9" fill-rule="evenodd" fill-opacity="1" stroke="#000000" stroke-opacity="1" stroke-width="3.84"/>
<circle clip-path="url(#clip942)" cx="2399.61" cy="648.299" r="14.4" fill="#009af9" fill-rule="evenodd" fill-opacity="1" stroke="#000000" stroke-opacity="1" stroke-width="3.84"/>
<circle clip-path="url(#clip942)" cx="2506.46" cy="579.37" r="14.4" fill="#009af9" fill-rule="evenodd" fill-opacity="1" stroke="#000000" stroke-opacity="1" stroke-width="3.84"/>
<circle clip-path="url(#clip942)" cx="2570.51" cy="579.37" r="14.4" fill="#009af9" fill-rule="evenodd" fill-opacity="1" stroke="#000000" stroke-opacity="1" stroke-width="3.84"/>
<circle clip-path="url(#clip942)" cx="2374.5" cy="96.8724" r="14.4" fill="#009af9" fill-rule="evenodd" fill-opacity="1" stroke="#000000" stroke-opacity="1" stroke-width="3.84"/>
<circle clip-path="url(#clip942)" cx="2346.78" cy="441.514" r="14.4" fill="#009af9" fill-rule="evenodd" fill-opacity="1" stroke="#000000" stroke-opacity="1" stroke-width="3.84"/>
<circle clip-path="url(#clip942)" cx="2039.11" cy="510.442" r="14.4" fill="#009af9" fill-rule="evenodd" fill-opacity="1" stroke="#000000" stroke-opacity="1" stroke-width="3.84"/>
<circle clip-path="url(#clip942)" cx="1988.77" cy="372.586" r="14.4" fill="#009af9" fill-rule="evenodd" fill-opacity="1" stroke="#000000" stroke-opacity="1" stroke-width="3.84"/>
<circle clip-path="url(#clip942)" cx="2477.41" cy="441.514" r="14.4" fill="#009af9" fill-rule="evenodd" fill-opacity="1" stroke="#000000" stroke-opacity="1" stroke-width="3.84"/>
<circle clip-path="url(#clip942)" cx="2176.15" cy="165.801" r="14.4" fill="#009af9" fill-rule="evenodd" fill-opacity="1" stroke="#000000" stroke-opacity="1" stroke-width="3.84"/>
<circle clip-path="url(#clip942)" cx="2355.25" cy="234.729" r="14.4" fill="#009af9" fill-rule="evenodd" fill-opacity="1" stroke="#000000" stroke-opacity="1" stroke-width="3.84"/>
<circle clip-path="url(#clip942)" cx="2403.11" cy="579.37" r="14.4" fill="#009af9" fill-rule="evenodd" fill-opacity="1" stroke="#000000" stroke-opacity="1" stroke-width="3.84"/>
<circle clip-path="url(#clip942)" cx="2427.26" cy="303.657" r="14.4" fill="#009af9" fill-rule="evenodd" fill-opacity="1" stroke="#000000" stroke-opacity="1" stroke-width="3.84"/>
<circle clip-path="url(#clip942)" cx="2087.13" cy="234.729" r="14.4" fill="#009af9" fill-rule="evenodd" fill-opacity="1" stroke="#000000" stroke-opacity="1" stroke-width="3.84"/>
<circle clip-path="url(#clip942)" cx="2286.34" cy="786.155" r="14.4" fill="#009af9" fill-rule="evenodd" fill-opacity="1" stroke="#000000" stroke-opacity="1" stroke-width="3.84"/>
<circle clip-path="url(#clip942)" cx="2138.79" cy="234.729" r="14.4" fill="#009af9" fill-rule="evenodd" fill-opacity="1" stroke="#000000" stroke-opacity="1" stroke-width="3.84"/>
<circle clip-path="url(#clip942)" cx="2519.37" cy="441.514" r="14.4" fill="#009af9" fill-rule="evenodd" fill-opacity="1" stroke="#000000" stroke-opacity="1" stroke-width="3.84"/>
<circle clip-path="url(#clip942)" cx="2184.83" cy="441.514" r="14.4" fill="#009af9" fill-rule="evenodd" fill-opacity="1" stroke="#000000" stroke-opacity="1" stroke-width="3.84"/>
<circle clip-path="url(#clip942)" cx="2265.84" cy="579.37" r="14.4" fill="#009af9" fill-rule="evenodd" fill-opacity="1" stroke="#000000" stroke-opacity="1" stroke-width="3.84"/>
<circle clip-path="url(#clip942)" cx="2474.12" cy="372.586" r="14.4" fill="#009af9" fill-rule="evenodd" fill-opacity="1" stroke="#000000" stroke-opacity="1" stroke-width="3.84"/>
<circle clip-path="url(#clip942)" cx="2047.52" cy="579.37" r="14.4" fill="#009af9" fill-rule="evenodd" fill-opacity="1" stroke="#000000" stroke-opacity="1" stroke-width="3.84"/>
<circle clip-path="url(#clip942)" cx="2191.45" cy="579.37" r="14.4" fill="#009af9" fill-rule="evenodd" fill-opacity="1" stroke="#000000" stroke-opacity="1" stroke-width="3.84"/>
<circle clip-path="url(#clip942)" cx="2098.75" cy="579.37" r="14.4" fill="#009af9" fill-rule="evenodd" fill-opacity="1" stroke="#000000" stroke-opacity="1" stroke-width="3.84"/>
<circle clip-path="url(#clip942)" cx="2106.33" cy="372.586" r="14.4" fill="#009af9" fill-rule="evenodd" fill-opacity="1" stroke="#000000" stroke-opacity="1" stroke-width="3.84"/>
<circle clip-path="url(#clip942)" cx="2318.27" cy="717.227" r="14.4" fill="#009af9" fill-rule="evenodd" fill-opacity="1" stroke="#000000" stroke-opacity="1" stroke-width="3.84"/>
<circle clip-path="url(#clip942)" cx="2079.44" cy="510.442" r="14.4" fill="#009af9" fill-rule="evenodd" fill-opacity="1" stroke="#000000" stroke-opacity="1" stroke-width="3.84"/>
<circle clip-path="url(#clip942)" cx="2442.82" cy="441.514" r="14.4" fill="#009af9" fill-rule="evenodd" fill-opacity="1" stroke="#000000" stroke-opacity="1" stroke-width="3.84"/>
<circle clip-path="url(#clip942)" cx="2426.9" cy="303.657" r="14.4" fill="#009af9" fill-rule="evenodd" fill-opacity="1" stroke="#000000" stroke-opacity="1" stroke-width="3.84"/>
<circle clip-path="url(#clip942)" cx="2327.32" cy="786.155" r="14.4" fill="#009af9" fill-rule="evenodd" fill-opacity="1" stroke="#000000" stroke-opacity="1" stroke-width="3.84"/>
<circle clip-path="url(#clip942)" cx="2210.66" cy="855.083" r="14.4" fill="#009af9" fill-rule="evenodd" fill-opacity="1" stroke="#000000" stroke-opacity="1" stroke-width="3.84"/>
<circle clip-path="url(#clip942)" cx="2062.7" cy="234.729" r="14.4" fill="#009af9" fill-rule="evenodd" fill-opacity="1" stroke="#000000" stroke-opacity="1" stroke-width="3.84"/>
<circle clip-path="url(#clip942)" cx="2369.11" cy="165.801" r="14.4" fill="#009af9" fill-rule="evenodd" fill-opacity="1" stroke="#000000" stroke-opacity="1" stroke-width="3.84"/>
<circle clip-path="url(#clip942)" cx="2310.6" cy="579.37" r="14.4" fill="#009af9" fill-rule="evenodd" fill-opacity="1" stroke="#000000" stroke-opacity="1" stroke-width="3.84"/>
<circle clip-path="url(#clip942)" cx="2460.42" cy="579.37" r="14.4" fill="#009af9" fill-rule="evenodd" fill-opacity="1" stroke="#000000" stroke-opacity="1" stroke-width="3.84"/>
<circle clip-path="url(#clip942)" cx="2295.45" cy="372.586" r="14.4" fill="#009af9" fill-rule="evenodd" fill-opacity="1" stroke="#000000" stroke-opacity="1" stroke-width="3.84"/>
<circle clip-path="url(#clip942)" cx="2158.47" cy="165.801" r="14.4" fill="#009af9" fill-rule="evenodd" fill-opacity="1" stroke="#000000" stroke-opacity="1" stroke-width="3.84"/>
<circle clip-path="url(#clip942)" cx="2100.73" cy="234.729" r="14.4" fill="#009af9" fill-rule="evenodd" fill-opacity="1" stroke="#000000" stroke-opacity="1" stroke-width="3.84"/>
<circle clip-path="url(#clip942)" cx="2239.77" cy="510.442" r="14.4" fill="#009af9" fill-rule="evenodd" fill-opacity="1" stroke="#000000" stroke-opacity="1" stroke-width="3.84"/>
<circle clip-path="url(#clip942)" cx="2196.51" cy="234.729" r="14.4" fill="#009af9" fill-rule="evenodd" fill-opacity="1" stroke="#000000" stroke-opacity="1" stroke-width="3.84"/>
<circle clip-path="url(#clip942)" cx="2346.24" cy="96.8724" r="14.4" fill="#009af9" fill-rule="evenodd" fill-opacity="1" stroke="#000000" stroke-opacity="1" stroke-width="3.84"/>
<circle clip-path="url(#clip942)" cx="2354.66" cy="234.729" r="14.4" fill="#009af9" fill-rule="evenodd" fill-opacity="1" stroke="#000000" stroke-opacity="1" stroke-width="3.84"/>
<circle clip-path="url(#clip942)" cx="2055.98" cy="510.442" r="14.4" fill="#009af9" fill-rule="evenodd" fill-opacity="1" stroke="#000000" stroke-opacity="1" stroke-width="3.84"/>
<circle clip-path="url(#clip942)" cx="2395.52" cy="441.514" r="14.4" fill="#009af9" fill-rule="evenodd" fill-opacity="1" stroke="#000000" stroke-opacity="1" stroke-width="3.84"/>
<circle clip-path="url(#clip942)" cx="2071.17" cy="234.729" r="14.4" fill="#009af9" fill-rule="evenodd" fill-opacity="1" stroke="#000000" stroke-opacity="1" stroke-width="3.84"/>
<circle clip-path="url(#clip942)" cx="1954.02" cy="579.37" r="14.4" fill="#009af9" fill-rule="evenodd" fill-opacity="1" stroke="#000000" stroke-opacity="1" stroke-width="3.84"/>
</svg>
