<?xml version="1.0" encoding="utf-8"?>
<svg xmlns="http://www.w3.org/2000/svg" xmlns:xlink="http://www.w3.org/1999/xlink" width="576" height="384" viewBox="0 0 2304 1536">
<defs>
  <clipPath id="clip960">
    <rect x="0" y="0" width="2304" height="1536"/>
  </clipPath>
</defs>
<path clip-path="url(#clip960)" d="
M0 1536 L2304 1536 L2304 0 L0 0  Z
  " fill="#ffffff" fill-rule="evenodd" fill-opacity="1"/>
<defs>
  <clipPath id="clip961">
    <rect x="460" y="0" width="1614" height="1536"/>
  </clipPath>
</defs>
<path clip-path="url(#clip960)" d="
M154.805 1423.09 L2256.76 1423.09 L2256.76 47.2441 L154.805 47.2441  Z
  " fill="#ffffff" fill-rule="evenodd" fill-opacity="1"/>
<defs>
  <clipPath id="clip962">
    <rect x="154" y="47" width="2103" height="1377"/>
  </clipPath>
</defs>
<polyline clip-path="url(#clip962)" style="stroke:#000000; stroke-linecap:round; stroke-linejoin:round; stroke-width:2; stroke-opacity:0.1; fill:none" points="
  492.24,1423.09 492.24,47.2441 
  "/>
<polyline clip-path="url(#clip962)" style="stroke:#000000; stroke-linecap:round; stroke-linejoin:round; stroke-width:2; stroke-opacity:0.1; fill:none" points="
  1215.49,1423.09 1215.49,47.2441 
  "/>
<polyline clip-path="url(#clip962)" style="stroke:#000000; stroke-linecap:round; stroke-linejoin:round; stroke-width:2; stroke-opacity:0.1; fill:none" points="
  1938.75,1423.09 1938.75,47.2441 
  "/>
<polyline clip-path="url(#clip960)" style="stroke:#000000; stroke-linecap:round; stroke-linejoin:round; stroke-width:4; stroke-opacity:1; fill:none" points="
  154.805,1423.09 2256.76,1423.09 
  "/>
<polyline clip-path="url(#clip960)" style="stroke:#000000; stroke-linecap:round; stroke-linejoin:round; stroke-width:4; stroke-opacity:1; fill:none" points="
  492.24,1423.09 492.24,1404.19 
  "/>
<polyline clip-path="url(#clip960)" style="stroke:#000000; stroke-linecap:round; stroke-linejoin:round; stroke-width:4; stroke-opacity:1; fill:none" points="
  1215.49,1423.09 1215.49,1404.19 
  "/>
<polyline clip-path="url(#clip960)" style="stroke:#000000; stroke-linecap:round; stroke-linejoin:round; stroke-width:4; stroke-opacity:1; fill:none" points="
  1938.75,1423.09 1938.75,1404.19 
  "/>
<path clip-path="url(#clip960)" d="M436.5 1459.56 L436.5 1463.59 Q434.694 1462.66 432.75 1462.2 Q430.805 1461.73 428.722 1461.73 Q425.551 1461.73 423.953 1462.71 Q422.379 1463.68 422.379 1465.62 Q422.379 1467.1 423.514 1467.96 Q424.648 1468.79 428.074 1469.56 L429.532 1469.88 Q434.069 1470.85 435.967 1472.64 Q437.889 1474.4 437.889 1477.57 Q437.889 1481.18 435.018 1483.28 Q432.171 1485.39 427.171 1485.39 Q425.088 1485.39 422.819 1484.97 Q420.574 1484.58 418.074 1483.77 L418.074 1479.37 Q420.435 1480.6 422.727 1481.22 Q425.018 1481.83 427.264 1481.83 Q430.273 1481.83 431.893 1480.81 Q433.514 1479.77 433.514 1477.89 Q433.514 1476.16 432.333 1475.23 Q431.176 1474.3 427.217 1473.45 L425.736 1473.1 Q421.778 1472.27 420.018 1470.55 Q418.259 1468.82 418.259 1465.81 Q418.259 1462.15 420.852 1460.16 Q423.444 1458.17 428.213 1458.17 Q430.574 1458.17 432.657 1458.52 Q434.74 1458.86 436.5 1459.56 Z" fill="#000000" fill-rule="evenodd" fill-opacity="1" /><path clip-path="url(#clip960)" d="M466.847 1470.69 L466.847 1472.78 L447.264 1472.78 Q447.541 1477.17 449.902 1479.49 Q452.287 1481.78 456.523 1481.78 Q458.976 1481.78 461.268 1481.18 Q463.583 1480.58 465.851 1479.37 L465.851 1483.4 Q463.56 1484.37 461.152 1484.88 Q458.745 1485.39 456.268 1485.39 Q450.064 1485.39 446.43 1481.78 Q442.819 1478.17 442.819 1472.01 Q442.819 1465.65 446.245 1461.92 Q449.694 1458.17 455.527 1458.17 Q460.759 1458.17 463.791 1461.55 Q466.847 1464.91 466.847 1470.69 M462.588 1469.44 Q462.541 1465.95 460.62 1463.86 Q458.722 1461.78 455.574 1461.78 Q452.009 1461.78 449.856 1463.79 Q447.726 1465.81 447.402 1469.47 L462.588 1469.44 Z" fill="#000000" fill-rule="evenodd" fill-opacity="1" /><path clip-path="url(#clip960)" d="M478.05 1451.43 L478.05 1458.79 L486.823 1458.79 L486.823 1462.1 L478.05 1462.1 L478.05 1476.18 Q478.05 1479.35 478.907 1480.25 Q479.786 1481.16 482.449 1481.16 L486.823 1481.16 L486.823 1484.72 L482.449 1484.72 Q477.518 1484.72 475.643 1482.89 Q473.768 1481.04 473.768 1476.18 L473.768 1462.1 L470.643 1462.1 L470.643 1458.79 L473.768 1458.79 L473.768 1451.43 L478.05 1451.43 Z" fill="#000000" fill-rule="evenodd" fill-opacity="1" /><path clip-path="url(#clip960)" d="M502.472 1461.78 Q499.046 1461.78 497.055 1464.47 Q495.064 1467.13 495.064 1471.78 Q495.064 1476.43 497.032 1479.12 Q499.023 1481.78 502.472 1481.78 Q505.874 1481.78 507.865 1479.09 Q509.856 1476.41 509.856 1471.78 Q509.856 1467.17 507.865 1464.49 Q505.874 1461.78 502.472 1461.78 M502.472 1458.17 Q508.027 1458.17 511.198 1461.78 Q514.37 1465.39 514.37 1471.78 Q514.37 1478.15 511.198 1481.78 Q508.027 1485.39 502.472 1485.39 Q496.893 1485.39 493.722 1481.78 Q490.573 1478.15 490.573 1471.78 Q490.573 1465.39 493.722 1461.78 Q496.893 1458.17 502.472 1458.17 Z" fill="#000000" fill-rule="evenodd" fill-opacity="1" /><path clip-path="url(#clip960)" d="M537.957 1459.56 L537.957 1463.59 Q536.152 1462.66 534.207 1462.2 Q532.263 1461.73 530.18 1461.73 Q527.008 1461.73 525.411 1462.71 Q523.837 1463.68 523.837 1465.62 Q523.837 1467.1 524.971 1467.96 Q526.106 1468.79 529.532 1469.56 L530.99 1469.88 Q535.527 1470.85 537.425 1472.64 Q539.346 1474.4 539.346 1477.57 Q539.346 1481.18 536.476 1483.28 Q533.629 1485.39 528.629 1485.39 Q526.546 1485.39 524.277 1484.97 Q522.032 1484.58 519.532 1483.77 L519.532 1479.37 Q521.893 1480.6 524.184 1481.22 Q526.476 1481.83 528.721 1481.83 Q531.731 1481.83 533.351 1480.81 Q534.971 1479.77 534.971 1477.89 Q534.971 1476.16 533.791 1475.23 Q532.633 1474.3 528.675 1473.45 L527.194 1473.1 Q523.235 1472.27 521.476 1470.55 Q519.717 1468.82 519.717 1465.81 Q519.717 1462.15 522.309 1460.16 Q524.902 1458.17 529.67 1458.17 Q532.032 1458.17 534.115 1458.52 Q536.198 1458.86 537.957 1459.56 Z" fill="#000000" fill-rule="evenodd" fill-opacity="1" /><path clip-path="url(#clip960)" d="M557.911 1471.69 Q552.749 1471.69 550.758 1472.87 Q548.768 1474.05 548.768 1476.9 Q548.768 1479.16 550.249 1480.51 Q551.754 1481.83 554.323 1481.83 Q557.865 1481.83 559.994 1479.33 Q562.147 1476.8 562.147 1472.64 L562.147 1471.69 L557.911 1471.69 M566.406 1469.93 L566.406 1484.72 L562.147 1484.72 L562.147 1480.78 Q560.689 1483.15 558.513 1484.28 Q556.337 1485.39 553.189 1485.39 Q549.207 1485.39 546.846 1483.17 Q544.508 1480.92 544.508 1477.17 Q544.508 1472.8 547.425 1470.58 Q550.365 1468.35 556.175 1468.35 L562.147 1468.35 L562.147 1467.94 Q562.147 1465 560.203 1463.4 Q558.281 1461.78 554.786 1461.78 Q552.564 1461.78 550.457 1462.31 Q548.351 1462.84 546.407 1463.91 L546.407 1459.97 Q548.744 1459.07 550.944 1458.63 Q553.143 1458.17 555.226 1458.17 Q560.851 1458.17 563.629 1461.09 Q566.406 1464 566.406 1469.93 Z" fill="#000000" fill-rule="evenodd" fill-opacity="1" /><path clip-path="url(#clip960)" d="M1100.54 1458.79 L1105.05 1458.79 L1113.16 1480.55 L1121.26 1458.79 L1125.77 1458.79 L1116.05 1484.72 L1110.26 1484.72 L1100.54 1458.79 Z" fill="#000000" fill-rule="evenodd" fill-opacity="1" /><path clip-path="url(#clip960)" d="M1153.83 1470.69 L1153.83 1472.78 L1134.24 1472.78 Q1134.52 1477.17 1136.88 1479.49 Q1139.27 1481.78 1143.5 1481.78 Q1145.96 1481.78 1148.25 1481.18 Q1150.56 1480.58 1152.83 1479.37 L1152.83 1483.4 Q1150.54 1484.37 1148.13 1484.88 Q1145.72 1485.39 1143.25 1485.39 Q1137.04 1485.39 1133.41 1481.78 Q1129.8 1478.17 1129.8 1472.01 Q1129.8 1465.65 1133.22 1461.92 Q1136.67 1458.17 1142.51 1458.17 Q1147.74 1458.17 1150.77 1461.55 Q1153.83 1464.91 1153.83 1470.69 M1149.57 1469.44 Q1149.52 1465.95 1147.6 1463.86 Q1145.7 1461.78 1142.55 1461.78 Q1138.99 1461.78 1136.84 1463.79 Q1134.71 1465.81 1134.38 1469.47 L1149.57 1469.44 Z" fill="#000000" fill-rule="evenodd" fill-opacity="1" /><path clip-path="url(#clip960)" d="M1175.84 1462.78 Q1175.12 1462.36 1174.27 1462.17 Q1173.43 1461.97 1172.41 1461.97 Q1168.8 1461.97 1166.86 1464.33 Q1164.94 1466.66 1164.94 1471.06 L1164.94 1484.72 L1160.66 1484.72 L1160.66 1458.79 L1164.94 1458.79 L1164.94 1462.82 Q1166.28 1460.46 1168.43 1459.33 Q1170.59 1458.17 1173.66 1458.17 Q1174.1 1458.17 1174.64 1458.24 Q1175.17 1458.28 1175.82 1458.4 L1175.84 1462.78 Z" fill="#000000" fill-rule="evenodd" fill-opacity="1" /><path clip-path="url(#clip960)" d="M1196.84 1459.56 L1196.84 1463.59 Q1195.03 1462.66 1193.09 1462.2 Q1191.14 1461.73 1189.06 1461.73 Q1185.89 1461.73 1184.29 1462.71 Q1182.72 1463.68 1182.72 1465.62 Q1182.72 1467.1 1183.85 1467.96 Q1184.98 1468.79 1188.41 1469.56 L1189.87 1469.88 Q1194.4 1470.85 1196.3 1472.64 Q1198.22 1474.4 1198.22 1477.57 Q1198.22 1481.18 1195.35 1483.28 Q1192.51 1485.39 1187.51 1485.39 Q1185.42 1485.39 1183.16 1484.97 Q1180.91 1484.58 1178.41 1483.77 L1178.41 1479.37 Q1180.77 1480.6 1183.06 1481.22 Q1185.35 1481.83 1187.6 1481.83 Q1190.61 1481.83 1192.23 1480.81 Q1193.85 1479.77 1193.85 1477.89 Q1193.85 1476.16 1192.67 1475.23 Q1191.51 1474.3 1187.55 1473.45 L1186.07 1473.1 Q1182.11 1472.27 1180.35 1470.55 Q1178.59 1468.82 1178.59 1465.81 Q1178.59 1462.15 1181.19 1460.16 Q1183.78 1458.17 1188.55 1458.17 Q1190.91 1458.17 1192.99 1458.52 Q1195.08 1458.86 1196.84 1459.56 Z" fill="#000000" fill-rule="evenodd" fill-opacity="1" /><path clip-path="url(#clip960)" d="M1205.01 1458.79 L1209.27 1458.79 L1209.27 1484.72 L1205.01 1484.72 L1205.01 1458.79 M1205.01 1448.7 L1209.27 1448.7 L1209.27 1454.1 L1205.01 1454.1 L1205.01 1448.7 Z" fill="#000000" fill-rule="evenodd" fill-opacity="1" /><path clip-path="url(#clip960)" d="M1236.84 1459.79 L1236.84 1463.77 Q1235.03 1462.78 1233.2 1462.29 Q1231.4 1461.78 1229.54 1461.78 Q1225.4 1461.78 1223.11 1464.42 Q1220.82 1467.03 1220.82 1471.78 Q1220.82 1476.53 1223.11 1479.16 Q1225.4 1481.78 1229.54 1481.78 Q1231.4 1481.78 1233.2 1481.29 Q1235.03 1480.78 1236.84 1479.79 L1236.84 1483.72 Q1235.05 1484.56 1233.13 1484.97 Q1231.23 1485.39 1229.08 1485.39 Q1223.22 1485.39 1219.78 1481.71 Q1216.33 1478.03 1216.33 1471.78 Q1216.33 1465.44 1219.8 1461.8 Q1223.29 1458.17 1229.36 1458.17 Q1231.33 1458.17 1233.2 1458.59 Q1235.08 1458.98 1236.84 1459.79 Z" fill="#000000" fill-rule="evenodd" fill-opacity="1" /><path clip-path="url(#clip960)" d="M1254.29 1461.78 Q1250.86 1461.78 1248.87 1464.47 Q1246.88 1467.13 1246.88 1471.78 Q1246.88 1476.43 1248.85 1479.12 Q1250.84 1481.78 1254.29 1481.78 Q1257.69 1481.78 1259.68 1479.09 Q1261.67 1476.41 1261.67 1471.78 Q1261.67 1467.17 1259.68 1464.49 Q1257.69 1461.78 1254.29 1461.78 M1254.29 1458.17 Q1259.84 1458.17 1263.02 1461.78 Q1266.19 1465.39 1266.19 1471.78 Q1266.19 1478.15 1263.02 1481.78 Q1259.84 1485.39 1254.29 1485.39 Q1248.71 1485.39 1245.54 1481.78 Q1242.39 1478.15 1242.39 1471.78 Q1242.39 1465.39 1245.54 1461.78 Q1248.71 1458.17 1254.29 1458.17 Z" fill="#000000" fill-rule="evenodd" fill-opacity="1" /><path clip-path="url(#clip960)" d="M1273.25 1448.7 L1277.51 1448.7 L1277.51 1484.72 L1273.25 1484.72 L1273.25 1448.7 Z" fill="#000000" fill-rule="evenodd" fill-opacity="1" /><path clip-path="url(#clip960)" d="M1296.46 1461.78 Q1293.04 1461.78 1291.05 1464.47 Q1289.06 1467.13 1289.06 1471.78 Q1289.06 1476.43 1291.02 1479.12 Q1293.02 1481.78 1296.46 1481.78 Q1299.87 1481.78 1301.86 1479.09 Q1303.85 1476.41 1303.85 1471.78 Q1303.85 1467.17 1301.86 1464.49 Q1299.87 1461.78 1296.46 1461.78 M1296.46 1458.17 Q1302.02 1458.17 1305.19 1461.78 Q1308.36 1465.39 1308.36 1471.78 Q1308.36 1478.15 1305.19 1481.78 Q1302.02 1485.39 1296.46 1485.39 Q1290.89 1485.39 1287.71 1481.78 Q1284.57 1478.15 1284.57 1471.78 Q1284.57 1465.39 1287.71 1461.78 Q1290.89 1458.17 1296.46 1458.17 Z" fill="#000000" fill-rule="evenodd" fill-opacity="1" /><path clip-path="url(#clip960)" d="M1330.45 1462.78 Q1329.73 1462.36 1328.87 1462.17 Q1328.04 1461.97 1327.02 1461.97 Q1323.41 1461.97 1321.46 1464.33 Q1319.54 1466.66 1319.54 1471.06 L1319.54 1484.72 L1315.26 1484.72 L1315.26 1458.79 L1319.54 1458.79 L1319.54 1462.82 Q1320.89 1460.46 1323.04 1459.33 Q1325.19 1458.17 1328.27 1458.17 Q1328.71 1458.17 1329.24 1458.24 Q1329.77 1458.28 1330.42 1458.4 L1330.45 1462.78 Z" fill="#000000" fill-rule="evenodd" fill-opacity="1" /><path clip-path="url(#clip960)" d="M1840.86 1458.79 L1845.38 1458.79 L1853.48 1480.55 L1861.58 1458.79 L1866.1 1458.79 L1856.37 1484.72 L1850.59 1484.72 L1840.86 1458.79 Z" fill="#000000" fill-rule="evenodd" fill-opacity="1" /><path clip-path="url(#clip960)" d="M1871.98 1458.79 L1876.23 1458.79 L1876.23 1484.72 L1871.98 1484.72 L1871.98 1458.79 M1871.98 1448.7 L1876.23 1448.7 L1876.23 1454.1 L1871.98 1454.1 L1871.98 1448.7 Z" fill="#000000" fill-rule="evenodd" fill-opacity="1" /><path clip-path="url(#clip960)" d="M1900.17 1462.78 Q1899.45 1462.36 1898.6 1462.17 Q1897.76 1461.97 1896.74 1461.97 Q1893.13 1461.97 1891.19 1464.33 Q1889.27 1466.66 1889.27 1471.06 L1889.27 1484.72 L1884.98 1484.72 L1884.98 1458.79 L1889.27 1458.79 L1889.27 1462.82 Q1890.61 1460.46 1892.76 1459.33 Q1894.91 1458.17 1897.99 1458.17 Q1898.43 1458.17 1898.97 1458.24 Q1899.5 1458.28 1900.15 1458.4 L1900.17 1462.78 Z" fill="#000000" fill-rule="evenodd" fill-opacity="1" /><path clip-path="url(#clip960)" d="M1920.86 1471.46 Q1920.86 1466.83 1918.94 1464.28 Q1917.04 1461.73 1913.6 1461.73 Q1910.17 1461.73 1908.25 1464.28 Q1906.35 1466.83 1906.35 1471.46 Q1906.35 1476.06 1908.25 1478.61 Q1910.17 1481.16 1913.6 1481.16 Q1917.04 1481.16 1918.94 1478.61 Q1920.86 1476.06 1920.86 1471.46 M1925.12 1481.5 Q1925.12 1488.12 1922.18 1491.34 Q1919.24 1494.58 1913.18 1494.58 Q1910.93 1494.58 1908.94 1494.23 Q1906.95 1493.91 1905.08 1493.22 L1905.08 1489.07 Q1906.95 1490.09 1908.78 1490.58 Q1910.61 1491.06 1912.51 1491.06 Q1916.7 1491.06 1918.78 1488.86 Q1920.86 1486.69 1920.86 1482.27 L1920.86 1480.16 Q1919.54 1482.45 1917.48 1483.59 Q1915.42 1484.72 1912.55 1484.72 Q1907.79 1484.72 1904.87 1481.09 Q1901.95 1477.45 1901.95 1471.46 Q1901.95 1465.44 1904.87 1461.8 Q1907.79 1458.17 1912.55 1458.17 Q1915.42 1458.17 1917.48 1459.3 Q1919.54 1460.44 1920.86 1462.73 L1920.86 1458.79 L1925.12 1458.79 L1925.12 1481.5 Z" fill="#000000" fill-rule="evenodd" fill-opacity="1" /><path clip-path="url(#clip960)" d="M1933.9 1458.79 L1938.16 1458.79 L1938.16 1484.72 L1933.9 1484.72 L1933.9 1458.79 M1933.9 1448.7 L1938.16 1448.7 L1938.16 1454.1 L1933.9 1454.1 L1933.9 1448.7 Z" fill="#000000" fill-rule="evenodd" fill-opacity="1" /><path clip-path="url(#clip960)" d="M1968.62 1469.07 L1968.62 1484.72 L1964.36 1484.72 L1964.36 1469.21 Q1964.36 1465.53 1962.92 1463.7 Q1961.49 1461.87 1958.62 1461.87 Q1955.17 1461.87 1953.18 1464.07 Q1951.19 1466.27 1951.19 1470.07 L1951.19 1484.72 L1946.91 1484.72 L1946.91 1458.79 L1951.19 1458.79 L1951.19 1462.82 Q1952.72 1460.48 1954.78 1459.33 Q1956.86 1458.17 1959.57 1458.17 Q1964.03 1458.17 1966.33 1460.95 Q1968.62 1463.7 1968.62 1469.07 Z" fill="#000000" fill-rule="evenodd" fill-opacity="1" /><path clip-path="url(#clip960)" d="M1977.11 1458.79 L1981.37 1458.79 L1981.37 1484.72 L1977.11 1484.72 L1977.11 1458.79 M1977.11 1448.7 L1981.37 1448.7 L1981.37 1454.1 L1977.11 1454.1 L1977.11 1448.7 Z" fill="#000000" fill-rule="evenodd" fill-opacity="1" /><path clip-path="url(#clip960)" d="M2008.94 1459.79 L2008.94 1463.77 Q2007.14 1462.78 2005.31 1462.29 Q2003.5 1461.78 2001.65 1461.78 Q1997.51 1461.78 1995.22 1464.42 Q1992.92 1467.03 1992.92 1471.78 Q1992.92 1476.53 1995.22 1479.16 Q1997.51 1481.78 2001.65 1481.78 Q2003.5 1481.78 2005.31 1481.29 Q2007.14 1480.78 2008.94 1479.79 L2008.94 1483.72 Q2007.16 1484.56 2005.24 1484.97 Q2003.34 1485.39 2001.19 1485.39 Q1995.33 1485.39 1991.88 1481.71 Q1988.43 1478.03 1988.43 1471.78 Q1988.43 1465.44 1991.9 1461.8 Q1995.4 1458.17 2001.47 1458.17 Q2003.43 1458.17 2005.31 1458.59 Q2007.18 1458.98 2008.94 1459.79 Z" fill="#000000" fill-rule="evenodd" fill-opacity="1" /><path clip-path="url(#clip960)" d="M2028.13 1471.69 Q2022.97 1471.69 2020.98 1472.87 Q2018.99 1474.05 2018.99 1476.9 Q2018.99 1479.16 2020.47 1480.51 Q2021.97 1481.83 2024.54 1481.83 Q2028.09 1481.83 2030.21 1479.33 Q2032.37 1476.8 2032.37 1472.64 L2032.37 1471.69 L2028.13 1471.69 M2036.63 1469.93 L2036.63 1484.72 L2032.37 1484.72 L2032.37 1480.78 Q2030.91 1483.15 2028.73 1484.28 Q2026.56 1485.39 2023.41 1485.39 Q2019.43 1485.39 2017.07 1483.17 Q2014.73 1480.92 2014.73 1477.17 Q2014.73 1472.8 2017.65 1470.58 Q2020.59 1468.35 2026.4 1468.35 L2032.37 1468.35 L2032.37 1467.94 Q2032.37 1465 2030.42 1463.4 Q2028.5 1461.78 2025.01 1461.78 Q2022.78 1461.78 2020.68 1462.31 Q2018.57 1462.84 2016.63 1463.91 L2016.63 1459.97 Q2018.97 1459.07 2021.16 1458.63 Q2023.36 1458.17 2025.45 1458.17 Q2031.07 1458.17 2033.85 1461.09 Q2036.63 1464 2036.63 1469.93 Z" fill="#000000" fill-rule="evenodd" fill-opacity="1" /><polyline clip-path="url(#clip962)" style="stroke:#000000; stroke-linecap:round; stroke-linejoin:round; stroke-width:2; stroke-opacity:0.1; fill:none" points="
  154.805,1167.82 2256.76,1167.82 
  "/>
<polyline clip-path="url(#clip962)" style="stroke:#000000; stroke-linecap:round; stroke-linejoin:round; stroke-width:2; stroke-opacity:0.1; fill:none" points="
  154.805,897.412 2256.76,897.412 
  "/>
<polyline clip-path="url(#clip962)" style="stroke:#000000; stroke-linecap:round; stroke-linejoin:round; stroke-width:2; stroke-opacity:0.1; fill:none" points="
  154.805,627.002 2256.76,627.002 
  "/>
<polyline clip-path="url(#clip962)" style="stroke:#000000; stroke-linecap:round; stroke-linejoin:round; stroke-width:2; stroke-opacity:0.1; fill:none" points="
  154.805,356.593 2256.76,356.593 
  "/>
<polyline clip-path="url(#clip962)" style="stroke:#000000; stroke-linecap:round; stroke-linejoin:round; stroke-width:2; stroke-opacity:0.1; fill:none" points="
  154.805,86.1831 2256.76,86.1831 
  "/>
<polyline clip-path="url(#clip960)" style="stroke:#000000; stroke-linecap:round; stroke-linejoin:round; stroke-width:4; stroke-opacity:1; fill:none" points="
  154.805,1423.09 154.805,47.2441 
  "/>
<polyline clip-path="url(#clip960)" style="stroke:#000000; stroke-linecap:round; stroke-linejoin:round; stroke-width:4; stroke-opacity:1; fill:none" points="
  154.805,1167.82 173.703,1167.82 
  "/>
<polyline clip-path="url(#clip960)" style="stroke:#000000; stroke-linecap:round; stroke-linejoin:round; stroke-width:4; stroke-opacity:1; fill:none" points="
  154.805,897.412 173.703,897.412 
  "/>
<polyline clip-path="url(#clip960)" style="stroke:#000000; stroke-linecap:round; stroke-linejoin:round; stroke-width:4; stroke-opacity:1; fill:none" points="
  154.805,627.002 173.703,627.002 
  "/>
<polyline clip-path="url(#clip960)" style="stroke:#000000; stroke-linecap:round; stroke-linejoin:round; stroke-width:4; stroke-opacity:1; fill:none" points="
  154.805,356.593 173.703,356.593 
  "/>
<polyline clip-path="url(#clip960)" style="stroke:#000000; stroke-linecap:round; stroke-linejoin:round; stroke-width:4; stroke-opacity:1; fill:none" points="
  154.805,86.1831 173.703,86.1831 
  "/>
<path clip-path="url(#clip960)" d="M64.0647 1153.62 Q60.4536 1153.62 58.6249 1157.18 Q56.8193 1160.73 56.8193 1167.86 Q56.8193 1174.96 58.6249 1178.53 Q60.4536 1182.07 64.0647 1182.07 Q67.6989 1182.07 69.5044 1178.53 Q71.3331 1174.96 71.3331 1167.86 Q71.3331 1160.73 69.5044 1157.18 Q67.6989 1153.62 64.0647 1153.62 M64.0647 1149.92 Q69.8748 1149.92 72.9303 1154.52 Q76.009 1159.11 76.009 1167.86 Q76.009 1176.58 72.9303 1181.19 Q69.8748 1185.77 64.0647 1185.77 Q58.2545 1185.77 55.1758 1181.19 Q52.1203 1176.58 52.1203 1167.86 Q52.1203 1159.11 55.1758 1154.52 Q58.2545 1149.92 64.0647 1149.92 Z" fill="#000000" fill-rule="evenodd" fill-opacity="1" /><path clip-path="url(#clip960)" d="M84.2266 1179.22 L89.1108 1179.22 L89.1108 1185.1 L84.2266 1185.1 L84.2266 1179.22 Z" fill="#000000" fill-rule="evenodd" fill-opacity="1" /><path clip-path="url(#clip960)" d="M99.3422 1150.54 L117.699 1150.54 L117.699 1154.48 L103.625 1154.48 L103.625 1162.95 Q104.643 1162.6 105.662 1162.44 Q106.68 1162.25 107.699 1162.25 Q113.486 1162.25 116.865 1165.43 Q120.245 1168.6 120.245 1174.01 Q120.245 1179.59 116.773 1182.69 Q113.3 1185.77 106.981 1185.77 Q104.805 1185.77 102.537 1185.4 Q100.291 1185.03 97.8839 1184.29 L97.8839 1179.59 Q99.9672 1180.73 102.189 1181.28 Q104.412 1181.84 106.888 1181.84 Q110.893 1181.84 113.231 1179.73 Q115.569 1177.62 115.569 1174.01 Q115.569 1170.4 113.231 1168.3 Q110.893 1166.19 106.888 1166.19 Q105.014 1166.19 103.139 1166.61 Q101.287 1167.02 99.3422 1167.9 L99.3422 1150.54 Z" fill="#000000" fill-rule="evenodd" fill-opacity="1" /><path clip-path="url(#clip960)" d="M53.8795 910.757 L61.5184 910.757 L61.5184 884.391 L53.2082 886.058 L53.2082 881.798 L61.4721 880.132 L66.148 880.132 L66.148 910.757 L73.7868 910.757 L73.7868 914.692 L53.8795 914.692 L53.8795 910.757 Z" fill="#000000" fill-rule="evenodd" fill-opacity="1" /><path clip-path="url(#clip960)" d="M83.2312 908.812 L88.1154 908.812 L88.1154 914.692 L83.2312 914.692 L83.2312 908.812 Z" fill="#000000" fill-rule="evenodd" fill-opacity="1" /><path clip-path="url(#clip960)" d="M108.301 883.21 Q104.689 883.21 102.861 886.775 Q101.055 890.317 101.055 897.446 Q101.055 904.553 102.861 908.118 Q104.689 911.659 108.301 911.659 Q111.935 911.659 113.74 908.118 Q115.569 904.553 115.569 897.446 Q115.569 890.317 113.74 886.775 Q111.935 883.21 108.301 883.21 M108.301 879.507 Q114.111 879.507 117.166 884.113 Q120.245 888.696 120.245 897.446 Q120.245 906.173 117.166 910.78 Q114.111 915.363 108.301 915.363 Q102.49 915.363 99.4117 910.78 Q96.3561 906.173 96.3561 897.446 Q96.3561 888.696 99.4117 884.113 Q102.49 879.507 108.301 879.507 Z" fill="#000000" fill-rule="evenodd" fill-opacity="1" /><path clip-path="url(#clip960)" d="M54.8749 640.347 L62.5137 640.347 L62.5137 613.981 L54.2036 615.648 L54.2036 611.389 L62.4674 609.722 L67.1433 609.722 L67.1433 640.347 L74.7822 640.347 L74.7822 644.282 L54.8749 644.282 L54.8749 640.347 Z" fill="#000000" fill-rule="evenodd" fill-opacity="1" /><path clip-path="url(#clip960)" d="M84.2266 638.403 L89.1108 638.403 L89.1108 644.282 L84.2266 644.282 L84.2266 638.403 Z" fill="#000000" fill-rule="evenodd" fill-opacity="1" /><path clip-path="url(#clip960)" d="M99.3422 609.722 L117.699 609.722 L117.699 613.657 L103.625 613.657 L103.625 622.13 Q104.643 621.782 105.662 621.62 Q106.68 621.435 107.699 621.435 Q113.486 621.435 116.865 624.606 Q120.245 627.778 120.245 633.194 Q120.245 638.773 116.773 641.875 Q113.3 644.953 106.981 644.953 Q104.805 644.953 102.537 644.583 Q100.291 644.213 97.8839 643.472 L97.8839 638.773 Q99.9672 639.907 102.189 640.463 Q104.412 641.018 106.888 641.018 Q110.893 641.018 113.231 638.912 Q115.569 636.805 115.569 633.194 Q115.569 629.583 113.231 627.477 Q110.893 625.37 106.888 625.37 Q105.014 625.37 103.139 625.787 Q101.287 626.204 99.3422 627.083 L99.3422 609.722 Z" fill="#000000" fill-rule="evenodd" fill-opacity="1" /><path clip-path="url(#clip960)" d="M57.0971 369.937 L73.4165 369.937 L73.4165 373.873 L51.4721 373.873 L51.4721 369.937 Q54.1341 367.183 58.7175 362.553 Q63.3239 357.9 64.5045 356.558 Q66.7498 354.035 67.6294 352.299 Q68.5322 350.539 68.5322 348.85 Q68.5322 346.095 66.5878 344.359 Q64.6665 342.623 61.5647 342.623 Q59.3656 342.623 56.9119 343.387 Q54.4814 344.151 51.7036 345.701 L51.7036 340.979 Q54.5277 339.845 56.9814 339.266 Q59.435 338.688 61.4721 338.688 Q66.8424 338.688 70.0368 341.373 Q73.2313 344.058 73.2313 348.549 Q73.2313 350.678 72.4211 352.6 Q71.6341 354.498 69.5276 357.09 Q68.9489 357.762 65.847 360.979 Q62.7452 364.174 57.0971 369.937 Z" fill="#000000" fill-rule="evenodd" fill-opacity="1" /><path clip-path="url(#clip960)" d="M83.2312 367.993 L88.1154 367.993 L88.1154 373.873 L83.2312 373.873 L83.2312 367.993 Z" fill="#000000" fill-rule="evenodd" fill-opacity="1" /><path clip-path="url(#clip960)" d="M108.301 342.391 Q104.689 342.391 102.861 345.956 Q101.055 349.498 101.055 356.627 Q101.055 363.734 102.861 367.299 Q104.689 370.84 108.301 370.84 Q111.935 370.84 113.74 367.299 Q115.569 363.734 115.569 356.627 Q115.569 349.498 113.74 345.956 Q111.935 342.391 108.301 342.391 M108.301 338.688 Q114.111 338.688 117.166 343.294 Q120.245 347.877 120.245 356.627 Q120.245 365.354 117.166 369.961 Q114.111 374.544 108.301 374.544 Q102.49 374.544 99.4117 369.961 Q96.3561 365.354 96.3561 356.627 Q96.3561 347.877 99.4117 343.294 Q102.49 338.688 108.301 338.688 Z" fill="#000000" fill-rule="evenodd" fill-opacity="1" /><path clip-path="url(#clip960)" d="M58.0925 99.5279 L74.4118 99.5279 L74.4118 103.463 L52.4675 103.463 L52.4675 99.5279 Q55.1295 96.7733 59.7128 92.1437 Q64.3193 87.4909 65.4998 86.1483 Q67.7452 83.6252 68.6248 81.8891 Q69.5276 80.1299 69.5276 78.4401 Q69.5276 75.6854 67.5832 73.9493 Q65.6619 72.2132 62.56 72.2132 Q60.361 72.2132 57.9073 72.9771 Q55.4767 73.741 52.699 75.2919 L52.699 70.5697 Q55.523 69.4355 57.9767 68.8568 Q60.4304 68.2781 62.4674 68.2781 Q67.8378 68.2781 71.0322 70.9632 Q74.2266 73.6484 74.2266 78.1391 Q74.2266 80.2687 73.4165 82.19 Q72.6294 84.0882 70.5229 86.6808 Q69.9442 87.352 66.8424 90.5696 Q63.7406 93.764 58.0925 99.5279 Z" fill="#000000" fill-rule="evenodd" fill-opacity="1" /><path clip-path="url(#clip960)" d="M84.2266 97.5835 L89.1108 97.5835 L89.1108 103.463 L84.2266 103.463 L84.2266 97.5835 Z" fill="#000000" fill-rule="evenodd" fill-opacity="1" /><path clip-path="url(#clip960)" d="M99.3422 68.9031 L117.699 68.9031 L117.699 72.8382 L103.625 72.8382 L103.625 81.3104 Q104.643 80.9632 105.662 80.8012 Q106.68 80.616 107.699 80.616 Q113.486 80.616 116.865 83.7872 Q120.245 86.9585 120.245 92.3752 Q120.245 97.9538 116.773 101.056 Q113.3 104.134 106.981 104.134 Q104.805 104.134 102.537 103.764 Q100.291 103.394 97.8839 102.653 L97.8839 97.9538 Q99.9672 99.0881 102.189 99.6436 Q104.412 100.199 106.888 100.199 Q110.893 100.199 113.231 98.0927 Q115.569 95.9863 115.569 92.3752 Q115.569 88.7641 113.231 86.6576 Q110.893 84.5511 106.888 84.5511 Q105.014 84.5511 103.139 84.9678 Q101.287 85.3845 99.3422 86.2641 L99.3422 68.9031 Z" fill="#000000" fill-rule="evenodd" fill-opacity="1" /><circle clip-path="url(#clip962)" cx="479.665" cy="1330.07" r="14.4" fill="#009af9" fill-rule="evenodd" fill-opacity="1" stroke="#000000" stroke-opacity="1" stroke-width="3.072"/>
<circle clip-path="url(#clip962)" cx="576.285" cy="1330.07" r="14.4" fill="#009af9" fill-rule="evenodd" fill-opacity="1" stroke="#000000" stroke-opacity="1" stroke-width="3.072"/>
<circle clip-path="url(#clip962)" cx="715.83" cy="1330.07" r="14.4" fill="#009af9" fill-rule="evenodd" fill-opacity="1" stroke="#000000" stroke-opacity="1" stroke-width="3.072"/>
<circle clip-path="url(#clip962)" cx="723.997" cy="1330.07" r="14.4" fill="#009af9" fill-rule="evenodd" fill-opacity="1" stroke="#000000" stroke-opacity="1" stroke-width="3.072"/>
<circle clip-path="url(#clip962)" cx="248.187" cy="1330.07" r="14.4" fill="#009af9" fill-rule="evenodd" fill-opacity="1" stroke="#000000" stroke-opacity="1" stroke-width="3.072"/>
<circle clip-path="url(#clip962)" cx="539.232" cy="1221.9" r="14.4" fill="#009af9" fill-rule="evenodd" fill-opacity="1" stroke="#000000" stroke-opacity="1" stroke-width="3.072"/>
<circle clip-path="url(#clip962)" cx="498.663" cy="1275.99" r="14.4" fill="#009af9" fill-rule="evenodd" fill-opacity="1" stroke="#000000" stroke-opacity="1" stroke-width="3.072"/>
<circle clip-path="url(#clip962)" cx="326.05" cy="1330.07" r="14.4" fill="#009af9" fill-rule="evenodd" fill-opacity="1" stroke="#000000" stroke-opacity="1" stroke-width="3.072"/>
<circle clip-path="url(#clip962)" cx="315.915" cy="1330.07" r="14.4" fill="#009af9" fill-rule="evenodd" fill-opacity="1" stroke="#000000" stroke-opacity="1" stroke-width="3.072"/>
<circle clip-path="url(#clip962)" cx="503.846" cy="1384.15" r="14.4" fill="#009af9" fill-rule="evenodd" fill-opacity="1" stroke="#000000" stroke-opacity="1" stroke-width="3.072"/>
<circle clip-path="url(#clip962)" cx="278.423" cy="1330.07" r="14.4" fill="#009af9" fill-rule="evenodd" fill-opacity="1" stroke="#000000" stroke-opacity="1" stroke-width="3.072"/>
<circle clip-path="url(#clip962)" cx="611.283" cy="1330.07" r="14.4" fill="#009af9" fill-rule="evenodd" fill-opacity="1" stroke="#000000" stroke-opacity="1" stroke-width="3.072"/>
<circle clip-path="url(#clip962)" cx="515.583" cy="1384.15" r="14.4" fill="#009af9" fill-rule="evenodd" fill-opacity="1" stroke="#000000" stroke-opacity="1" stroke-width="3.072"/>
<circle clip-path="url(#clip962)" cx="464.668" cy="1384.15" r="14.4" fill="#009af9" fill-rule="evenodd" fill-opacity="1" stroke="#000000" stroke-opacity="1" stroke-width="3.072"/>
<circle clip-path="url(#clip962)" cx="649.856" cy="1330.07" r="14.4" fill="#009af9" fill-rule="evenodd" fill-opacity="1" stroke="#000000" stroke-opacity="1" stroke-width="3.072"/>
<circle clip-path="url(#clip962)" cx="537.789" cy="1221.9" r="14.4" fill="#009af9" fill-rule="evenodd" fill-opacity="1" stroke="#000000" stroke-opacity="1" stroke-width="3.072"/>
<circle clip-path="url(#clip962)" cx="531.289" cy="1221.9" r="14.4" fill="#009af9" fill-rule="evenodd" fill-opacity="1" stroke="#000000" stroke-opacity="1" stroke-width="3.072"/>
<circle clip-path="url(#clip962)" cx="470.163" cy="1275.99" r="14.4" fill="#009af9" fill-rule="evenodd" fill-opacity="1" stroke="#000000" stroke-opacity="1" stroke-width="3.072"/>
<circle clip-path="url(#clip962)" cx="475.915" cy="1275.99" r="14.4" fill="#009af9" fill-rule="evenodd" fill-opacity="1" stroke="#000000" stroke-opacity="1" stroke-width="3.072"/>
<circle clip-path="url(#clip962)" cx="512.585" cy="1275.99" r="14.4" fill="#009af9" fill-rule="evenodd" fill-opacity="1" stroke="#000000" stroke-opacity="1" stroke-width="3.072"/>
<circle clip-path="url(#clip962)" cx="678.357" cy="1330.07" r="14.4" fill="#009af9" fill-rule="evenodd" fill-opacity="1" stroke="#000000" stroke-opacity="1" stroke-width="3.072"/>
<circle clip-path="url(#clip962)" cx="525.591" cy="1221.9" r="14.4" fill="#009af9" fill-rule="evenodd" fill-opacity="1" stroke="#000000" stroke-opacity="1" stroke-width="3.072"/>
<circle clip-path="url(#clip962)" cx="712.453" cy="1330.07" r="14.4" fill="#009af9" fill-rule="evenodd" fill-opacity="1" stroke="#000000" stroke-opacity="1" stroke-width="3.072"/>
<circle clip-path="url(#clip962)" cx="485.529" cy="1167.82" r="14.4" fill="#009af9" fill-rule="evenodd" fill-opacity="1" stroke="#000000" stroke-opacity="1" stroke-width="3.072"/>
<circle clip-path="url(#clip962)" cx="605.803" cy="1330.07" r="14.4" fill="#009af9" fill-rule="evenodd" fill-opacity="1" stroke="#000000" stroke-opacity="1" stroke-width="3.072"/>
<circle clip-path="url(#clip962)" cx="623.391" cy="1330.07" r="14.4" fill="#009af9" fill-rule="evenodd" fill-opacity="1" stroke="#000000" stroke-opacity="1" stroke-width="3.072"/>
<circle clip-path="url(#clip962)" cx="520.407" cy="1221.9" r="14.4" fill="#009af9" fill-rule="evenodd" fill-opacity="1" stroke="#000000" stroke-opacity="1" stroke-width="3.072"/>
<circle clip-path="url(#clip962)" cx="434.675" cy="1330.07" r="14.4" fill="#009af9" fill-rule="evenodd" fill-opacity="1" stroke="#000000" stroke-opacity="1" stroke-width="3.072"/>
<circle clip-path="url(#clip962)" cx="692.511" cy="1330.07" r="14.4" fill="#009af9" fill-rule="evenodd" fill-opacity="1" stroke="#000000" stroke-opacity="1" stroke-width="3.072"/>
<circle clip-path="url(#clip962)" cx="257.516" cy="1330.07" r="14.4" fill="#009af9" fill-rule="evenodd" fill-opacity="1" stroke="#000000" stroke-opacity="1" stroke-width="3.072"/>
<circle clip-path="url(#clip962)" cx="585.128" cy="1330.07" r="14.4" fill="#009af9" fill-rule="evenodd" fill-opacity="1" stroke="#000000" stroke-opacity="1" stroke-width="3.072"/>
<circle clip-path="url(#clip962)" cx="433.817" cy="1221.9" r="14.4" fill="#009af9" fill-rule="evenodd" fill-opacity="1" stroke="#000000" stroke-opacity="1" stroke-width="3.072"/>
<circle clip-path="url(#clip962)" cx="541.091" cy="1384.15" r="14.4" fill="#009af9" fill-rule="evenodd" fill-opacity="1" stroke="#000000" stroke-opacity="1" stroke-width="3.072"/>
<circle clip-path="url(#clip962)" cx="614.53" cy="1330.07" r="14.4" fill="#009af9" fill-rule="evenodd" fill-opacity="1" stroke="#000000" stroke-opacity="1" stroke-width="3.072"/>
<circle clip-path="url(#clip962)" cx="587.01" cy="1330.07" r="14.4" fill="#009af9" fill-rule="evenodd" fill-opacity="1" stroke="#000000" stroke-opacity="1" stroke-width="3.072"/>
<circle clip-path="url(#clip962)" cx="214.294" cy="1330.07" r="14.4" fill="#009af9" fill-rule="evenodd" fill-opacity="1" stroke="#000000" stroke-opacity="1" stroke-width="3.072"/>
<circle clip-path="url(#clip962)" cx="652.544" cy="1330.07" r="14.4" fill="#009af9" fill-rule="evenodd" fill-opacity="1" stroke="#000000" stroke-opacity="1" stroke-width="3.072"/>
<circle clip-path="url(#clip962)" cx="446.452" cy="1384.15" r="14.4" fill="#009af9" fill-rule="evenodd" fill-opacity="1" stroke="#000000" stroke-opacity="1" stroke-width="3.072"/>
<circle clip-path="url(#clip962)" cx="523.715" cy="1330.07" r="14.4" fill="#009af9" fill-rule="evenodd" fill-opacity="1" stroke="#000000" stroke-opacity="1" stroke-width="3.072"/>
<circle clip-path="url(#clip962)" cx="573.6" cy="1330.07" r="14.4" fill="#009af9" fill-rule="evenodd" fill-opacity="1" stroke="#000000" stroke-opacity="1" stroke-width="3.072"/>
<circle clip-path="url(#clip962)" cx="524.763" cy="1275.99" r="14.4" fill="#009af9" fill-rule="evenodd" fill-opacity="1" stroke="#000000" stroke-opacity="1" stroke-width="3.072"/>
<circle clip-path="url(#clip962)" cx="436.615" cy="1275.99" r="14.4" fill="#009af9" fill-rule="evenodd" fill-opacity="1" stroke="#000000" stroke-opacity="1" stroke-width="3.072"/>
<circle clip-path="url(#clip962)" cx="244.827" cy="1330.07" r="14.4" fill="#009af9" fill-rule="evenodd" fill-opacity="1" stroke="#000000" stroke-opacity="1" stroke-width="3.072"/>
<circle clip-path="url(#clip962)" cx="489.057" cy="1113.74" r="14.4" fill="#009af9" fill-rule="evenodd" fill-opacity="1" stroke="#000000" stroke-opacity="1" stroke-width="3.072"/>
<circle clip-path="url(#clip962)" cx="556.36" cy="1221.9" r="14.4" fill="#009af9" fill-rule="evenodd" fill-opacity="1" stroke="#000000" stroke-opacity="1" stroke-width="3.072"/>
<circle clip-path="url(#clip962)" cx="470.026" cy="1275.99" r="14.4" fill="#009af9" fill-rule="evenodd" fill-opacity="1" stroke="#000000" stroke-opacity="1" stroke-width="3.072"/>
<circle clip-path="url(#clip962)" cx="290.304" cy="1330.07" r="14.4" fill="#009af9" fill-rule="evenodd" fill-opacity="1" stroke="#000000" stroke-opacity="1" stroke-width="3.072"/>
<circle clip-path="url(#clip962)" cx="779.477" cy="1330.07" r="14.4" fill="#009af9" fill-rule="evenodd" fill-opacity="1" stroke="#000000" stroke-opacity="1" stroke-width="3.072"/>
<circle clip-path="url(#clip962)" cx="435.139" cy="1330.07" r="14.4" fill="#009af9" fill-rule="evenodd" fill-opacity="1" stroke="#000000" stroke-opacity="1" stroke-width="3.072"/>
<circle clip-path="url(#clip962)" cx="385.33" cy="1330.07" r="14.4" fill="#009af9" fill-rule="evenodd" fill-opacity="1" stroke="#000000" stroke-opacity="1" stroke-width="3.072"/>
<circle clip-path="url(#clip962)" cx="987.171" cy="681.084" r="14.4" fill="#009af9" fill-rule="evenodd" fill-opacity="1" stroke="#000000" stroke-opacity="1" stroke-width="3.072"/>
<circle clip-path="url(#clip962)" cx="1298.58" cy="627.002" r="14.4" fill="#009af9" fill-rule="evenodd" fill-opacity="1" stroke="#000000" stroke-opacity="1" stroke-width="3.072"/>
<circle clip-path="url(#clip962)" cx="1051.62" cy="627.002" r="14.4" fill="#009af9" fill-rule="evenodd" fill-opacity="1" stroke="#000000" stroke-opacity="1" stroke-width="3.072"/>
<circle clip-path="url(#clip962)" cx="1409.73" cy="735.166" r="14.4" fill="#009af9" fill-rule="evenodd" fill-opacity="1" stroke="#000000" stroke-opacity="1" stroke-width="3.072"/>
<circle clip-path="url(#clip962)" cx="1109.36" cy="627.002" r="14.4" fill="#009af9" fill-rule="evenodd" fill-opacity="1" stroke="#000000" stroke-opacity="1" stroke-width="3.072"/>
<circle clip-path="url(#clip962)" cx="961.338" cy="735.166" r="14.4" fill="#009af9" fill-rule="evenodd" fill-opacity="1" stroke="#000000" stroke-opacity="1" stroke-width="3.072"/>
<circle clip-path="url(#clip962)" cx="1213.19" cy="572.92" r="14.4" fill="#009af9" fill-rule="evenodd" fill-opacity="1" stroke="#000000" stroke-opacity="1" stroke-width="3.072"/>
<circle clip-path="url(#clip962)" cx="1295.35" cy="897.412" r="14.4" fill="#009af9" fill-rule="evenodd" fill-opacity="1" stroke="#000000" stroke-opacity="1" stroke-width="3.072"/>
<circle clip-path="url(#clip962)" cx="1024.83" cy="735.166" r="14.4" fill="#009af9" fill-rule="evenodd" fill-opacity="1" stroke="#000000" stroke-opacity="1" stroke-width="3.072"/>
<circle clip-path="url(#clip962)" cx="986.411" cy="681.084" r="14.4" fill="#009af9" fill-rule="evenodd" fill-opacity="1" stroke="#000000" stroke-opacity="1" stroke-width="3.072"/>
<circle clip-path="url(#clip962)" cx="1185.35" cy="897.412" r="14.4" fill="#009af9" fill-rule="evenodd" fill-opacity="1" stroke="#000000" stroke-opacity="1" stroke-width="3.072"/>
<circle clip-path="url(#clip962)" cx="1129.61" cy="627.002" r="14.4" fill="#009af9" fill-rule="evenodd" fill-opacity="1" stroke="#000000" stroke-opacity="1" stroke-width="3.072"/>
<circle clip-path="url(#clip962)" cx="1269.17" cy="897.412" r="14.4" fill="#009af9" fill-rule="evenodd" fill-opacity="1" stroke="#000000" stroke-opacity="1" stroke-width="3.072"/>
<circle clip-path="url(#clip962)" cx="1439.02" cy="681.084" r="14.4" fill="#009af9" fill-rule="evenodd" fill-opacity="1" stroke="#000000" stroke-opacity="1" stroke-width="3.072"/>
<circle clip-path="url(#clip962)" cx="1235.32" cy="735.166" r="14.4" fill="#009af9" fill-rule="evenodd" fill-opacity="1" stroke="#000000" stroke-opacity="1" stroke-width="3.072"/>
<circle clip-path="url(#clip962)" cx="1368.88" cy="681.084" r="14.4" fill="#009af9" fill-rule="evenodd" fill-opacity="1" stroke="#000000" stroke-opacity="1" stroke-width="3.072"/>
<circle clip-path="url(#clip962)" cx="1063.46" cy="627.002" r="14.4" fill="#009af9" fill-rule="evenodd" fill-opacity="1" stroke="#000000" stroke-opacity="1" stroke-width="3.072"/>
<circle clip-path="url(#clip962)" cx="1272.42" cy="897.412" r="14.4" fill="#009af9" fill-rule="evenodd" fill-opacity="1" stroke="#000000" stroke-opacity="1" stroke-width="3.072"/>
<circle clip-path="url(#clip962)" cx="998.225" cy="627.002" r="14.4" fill="#009af9" fill-rule="evenodd" fill-opacity="1" stroke="#000000" stroke-opacity="1" stroke-width="3.072"/>
<circle clip-path="url(#clip962)" cx="1213.64" cy="843.33" r="14.4" fill="#009af9" fill-rule="evenodd" fill-opacity="1" stroke="#000000" stroke-opacity="1" stroke-width="3.072"/>
<circle clip-path="url(#clip962)" cx="1197.6" cy="464.756" r="14.4" fill="#009af9" fill-rule="evenodd" fill-opacity="1" stroke="#000000" stroke-opacity="1" stroke-width="3.072"/>
<circle clip-path="url(#clip962)" cx="1452.9" cy="735.166" r="14.4" fill="#009af9" fill-rule="evenodd" fill-opacity="1" stroke="#000000" stroke-opacity="1" stroke-width="3.072"/>
<circle clip-path="url(#clip962)" cx="1154.48" cy="627.002" r="14.4" fill="#009af9" fill-rule="evenodd" fill-opacity="1" stroke="#000000" stroke-opacity="1" stroke-width="3.072"/>
<circle clip-path="url(#clip962)" cx="1283.08" cy="789.248" r="14.4" fill="#009af9" fill-rule="evenodd" fill-opacity="1" stroke="#000000" stroke-opacity="1" stroke-width="3.072"/>
<circle clip-path="url(#clip962)" cx="1144.62" cy="735.166" r="14.4" fill="#009af9" fill-rule="evenodd" fill-opacity="1" stroke="#000000" stroke-opacity="1" stroke-width="3.072"/>
<circle clip-path="url(#clip962)" cx="1354.81" cy="681.084" r="14.4" fill="#009af9" fill-rule="evenodd" fill-opacity="1" stroke="#000000" stroke-opacity="1" stroke-width="3.072"/>
<circle clip-path="url(#clip962)" cx="1314.73" cy="681.084" r="14.4" fill="#009af9" fill-rule="evenodd" fill-opacity="1" stroke="#000000" stroke-opacity="1" stroke-width="3.072"/>
<circle clip-path="url(#clip962)" cx="1204.04" cy="518.838" r="14.4" fill="#009af9" fill-rule="evenodd" fill-opacity="1" stroke="#000000" stroke-opacity="1" stroke-width="3.072"/>
<circle clip-path="url(#clip962)" cx="1341.07" cy="627.002" r="14.4" fill="#009af9" fill-rule="evenodd" fill-opacity="1" stroke="#000000" stroke-opacity="1" stroke-width="3.072"/>
<circle clip-path="url(#clip962)" cx="1192.65" cy="897.412" r="14.4" fill="#009af9" fill-rule="evenodd" fill-opacity="1" stroke="#000000" stroke-opacity="1" stroke-width="3.072"/>
<circle clip-path="url(#clip962)" cx="1341.25" cy="843.33" r="14.4" fill="#009af9" fill-rule="evenodd" fill-opacity="1" stroke="#000000" stroke-opacity="1" stroke-width="3.072"/>
<circle clip-path="url(#clip962)" cx="1090.66" cy="897.412" r="14.4" fill="#009af9" fill-rule="evenodd" fill-opacity="1" stroke="#000000" stroke-opacity="1" stroke-width="3.072"/>
<circle clip-path="url(#clip962)" cx="1306.6" cy="789.248" r="14.4" fill="#009af9" fill-rule="evenodd" fill-opacity="1" stroke="#000000" stroke-opacity="1" stroke-width="3.072"/>
<circle clip-path="url(#clip962)" cx="1196.42" cy="572.92" r="14.4" fill="#009af9" fill-rule="evenodd" fill-opacity="1" stroke="#000000" stroke-opacity="1" stroke-width="3.072"/>
<circle clip-path="url(#clip962)" cx="1245.61" cy="627.002" r="14.4" fill="#009af9" fill-rule="evenodd" fill-opacity="1" stroke="#000000" stroke-opacity="1" stroke-width="3.072"/>
<circle clip-path="url(#clip962)" cx="1102" cy="572.92" r="14.4" fill="#009af9" fill-rule="evenodd" fill-opacity="1" stroke="#000000" stroke-opacity="1" stroke-width="3.072"/>
<circle clip-path="url(#clip962)" cx="1124.94" cy="627.002" r="14.4" fill="#009af9" fill-rule="evenodd" fill-opacity="1" stroke="#000000" stroke-opacity="1" stroke-width="3.072"/>
<circle clip-path="url(#clip962)" cx="1118.6" cy="735.166" r="14.4" fill="#009af9" fill-rule="evenodd" fill-opacity="1" stroke="#000000" stroke-opacity="1" stroke-width="3.072"/>
<circle clip-path="url(#clip962)" cx="949.038" cy="735.166" r="14.4" fill="#009af9" fill-rule="evenodd" fill-opacity="1" stroke="#000000" stroke-opacity="1" stroke-width="3.072"/>
<circle clip-path="url(#clip962)" cx="1450.2" cy="735.166" r="14.4" fill="#009af9" fill-rule="evenodd" fill-opacity="1" stroke="#000000" stroke-opacity="1" stroke-width="3.072"/>
<circle clip-path="url(#clip962)" cx="1263.98" cy="789.248" r="14.4" fill="#009af9" fill-rule="evenodd" fill-opacity="1" stroke="#000000" stroke-opacity="1" stroke-width="3.072"/>
<circle clip-path="url(#clip962)" cx="1464.77" cy="681.084" r="14.4" fill="#009af9" fill-rule="evenodd" fill-opacity="1" stroke="#000000" stroke-opacity="1" stroke-width="3.072"/>
<circle clip-path="url(#clip962)" cx="1320.96" cy="789.248" r="14.4" fill="#009af9" fill-rule="evenodd" fill-opacity="1" stroke="#000000" stroke-opacity="1" stroke-width="3.072"/>
<circle clip-path="url(#clip962)" cx="1189.96" cy="897.412" r="14.4" fill="#009af9" fill-rule="evenodd" fill-opacity="1" stroke="#000000" stroke-opacity="1" stroke-width="3.072"/>
<circle clip-path="url(#clip962)" cx="1316.54" cy="735.166" r="14.4" fill="#009af9" fill-rule="evenodd" fill-opacity="1" stroke="#000000" stroke-opacity="1" stroke-width="3.072"/>
<circle clip-path="url(#clip962)" cx="1100.87" cy="789.248" r="14.4" fill="#009af9" fill-rule="evenodd" fill-opacity="1" stroke="#000000" stroke-opacity="1" stroke-width="3.072"/>
<circle clip-path="url(#clip962)" cx="976.446" cy="735.166" r="14.4" fill="#009af9" fill-rule="evenodd" fill-opacity="1" stroke="#000000" stroke-opacity="1" stroke-width="3.072"/>
<circle clip-path="url(#clip962)" cx="968.681" cy="735.166" r="14.4" fill="#009af9" fill-rule="evenodd" fill-opacity="1" stroke="#000000" stroke-opacity="1" stroke-width="3.072"/>
<circle clip-path="url(#clip962)" cx="1152.87" cy="843.33" r="14.4" fill="#009af9" fill-rule="evenodd" fill-opacity="1" stroke="#000000" stroke-opacity="1" stroke-width="3.072"/>
<circle clip-path="url(#clip962)" cx="1121.87" cy="735.166" r="14.4" fill="#009af9" fill-rule="evenodd" fill-opacity="1" stroke="#000000" stroke-opacity="1" stroke-width="3.072"/>
<circle clip-path="url(#clip962)" cx="2006.18" cy="86.1831" r="14.4" fill="#009af9" fill-rule="evenodd" fill-opacity="1" stroke="#000000" stroke-opacity="1" stroke-width="3.072"/>
<circle clip-path="url(#clip962)" cx="1798.48" cy="410.675" r="14.4" fill="#009af9" fill-rule="evenodd" fill-opacity="1" stroke="#000000" stroke-opacity="1" stroke-width="3.072"/>
<circle clip-path="url(#clip962)" cx="2071.9" cy="302.511" r="14.4" fill="#009af9" fill-rule="evenodd" fill-opacity="1" stroke="#000000" stroke-opacity="1" stroke-width="3.072"/>
<circle clip-path="url(#clip962)" cx="2067.19" cy="464.756" r="14.4" fill="#009af9" fill-rule="evenodd" fill-opacity="1" stroke="#000000" stroke-opacity="1" stroke-width="3.072"/>
<circle clip-path="url(#clip962)" cx="1998.47" cy="248.429" r="14.4" fill="#009af9" fill-rule="evenodd" fill-opacity="1" stroke="#000000" stroke-opacity="1" stroke-width="3.072"/>
<circle clip-path="url(#clip962)" cx="2090.73" cy="302.511" r="14.4" fill="#009af9" fill-rule="evenodd" fill-opacity="1" stroke="#000000" stroke-opacity="1" stroke-width="3.072"/>
<circle clip-path="url(#clip962)" cx="2016.06" cy="518.838" r="14.4" fill="#009af9" fill-rule="evenodd" fill-opacity="1" stroke="#000000" stroke-opacity="1" stroke-width="3.072"/>
<circle clip-path="url(#clip962)" cx="1878.89" cy="464.756" r="14.4" fill="#009af9" fill-rule="evenodd" fill-opacity="1" stroke="#000000" stroke-opacity="1" stroke-width="3.072"/>
<circle clip-path="url(#clip962)" cx="2035.47" cy="464.756" r="14.4" fill="#009af9" fill-rule="evenodd" fill-opacity="1" stroke="#000000" stroke-opacity="1" stroke-width="3.072"/>
<circle clip-path="url(#clip962)" cx="1899.48" cy="86.1831" r="14.4" fill="#009af9" fill-rule="evenodd" fill-opacity="1" stroke="#000000" stroke-opacity="1" stroke-width="3.072"/>
<circle clip-path="url(#clip962)" cx="1902.85" cy="356.593" r="14.4" fill="#009af9" fill-rule="evenodd" fill-opacity="1" stroke="#000000" stroke-opacity="1" stroke-width="3.072"/>
<circle clip-path="url(#clip962)" cx="1804.56" cy="410.675" r="14.4" fill="#009af9" fill-rule="evenodd" fill-opacity="1" stroke="#000000" stroke-opacity="1" stroke-width="3.072"/>
<circle clip-path="url(#clip962)" cx="1869.34" cy="302.511" r="14.4" fill="#009af9" fill-rule="evenodd" fill-opacity="1" stroke="#000000" stroke-opacity="1" stroke-width="3.072"/>
<circle clip-path="url(#clip962)" cx="1871.91" cy="356.593" r="14.4" fill="#009af9" fill-rule="evenodd" fill-opacity="1" stroke="#000000" stroke-opacity="1" stroke-width="3.072"/>
<circle clip-path="url(#clip962)" cx="1982.04" cy="140.265" r="14.4" fill="#009af9" fill-rule="evenodd" fill-opacity="1" stroke="#000000" stroke-opacity="1" stroke-width="3.072"/>
<circle clip-path="url(#clip962)" cx="1995.66" cy="194.347" r="14.4" fill="#009af9" fill-rule="evenodd" fill-opacity="1" stroke="#000000" stroke-opacity="1" stroke-width="3.072"/>
<circle clip-path="url(#clip962)" cx="1738.85" cy="464.756" r="14.4" fill="#009af9" fill-rule="evenodd" fill-opacity="1" stroke="#000000" stroke-opacity="1" stroke-width="3.072"/>
<circle clip-path="url(#clip962)" cx="1762.07" cy="248.429" r="14.4" fill="#009af9" fill-rule="evenodd" fill-opacity="1" stroke="#000000" stroke-opacity="1" stroke-width="3.072"/>
<circle clip-path="url(#clip962)" cx="1966.85" cy="194.347" r="14.4" fill="#009af9" fill-rule="evenodd" fill-opacity="1" stroke="#000000" stroke-opacity="1" stroke-width="3.072"/>
<circle clip-path="url(#clip962)" cx="1977.73" cy="627.002" r="14.4" fill="#009af9" fill-rule="evenodd" fill-opacity="1" stroke="#000000" stroke-opacity="1" stroke-width="3.072"/>
<circle clip-path="url(#clip962)" cx="2079.27" cy="194.347" r="14.4" fill="#009af9" fill-rule="evenodd" fill-opacity="1" stroke="#000000" stroke-opacity="1" stroke-width="3.072"/>
<circle clip-path="url(#clip962)" cx="1746.82" cy="356.593" r="14.4" fill="#009af9" fill-rule="evenodd" fill-opacity="1" stroke="#000000" stroke-opacity="1" stroke-width="3.072"/>
<circle clip-path="url(#clip962)" cx="1693.55" cy="356.593" r="14.4" fill="#009af9" fill-rule="evenodd" fill-opacity="1" stroke="#000000" stroke-opacity="1" stroke-width="3.072"/>
<circle clip-path="url(#clip962)" cx="1965.57" cy="464.756" r="14.4" fill="#009af9" fill-rule="evenodd" fill-opacity="1" stroke="#000000" stroke-opacity="1" stroke-width="3.072"/>
<circle clip-path="url(#clip962)" cx="1873.78" cy="302.511" r="14.4" fill="#009af9" fill-rule="evenodd" fill-opacity="1" stroke="#000000" stroke-opacity="1" stroke-width="3.072"/>
<circle clip-path="url(#clip962)" cx="1836.04" cy="464.756" r="14.4" fill="#009af9" fill-rule="evenodd" fill-opacity="1" stroke="#000000" stroke-opacity="1" stroke-width="3.072"/>
<circle clip-path="url(#clip962)" cx="1689.69" cy="464.756" r="14.4" fill="#009af9" fill-rule="evenodd" fill-opacity="1" stroke="#000000" stroke-opacity="1" stroke-width="3.072"/>
<circle clip-path="url(#clip962)" cx="2016.45" cy="464.756" r="14.4" fill="#009af9" fill-rule="evenodd" fill-opacity="1" stroke="#000000" stroke-opacity="1" stroke-width="3.072"/>
<circle clip-path="url(#clip962)" cx="2174.53" cy="302.511" r="14.4" fill="#009af9" fill-rule="evenodd" fill-opacity="1" stroke="#000000" stroke-opacity="1" stroke-width="3.072"/>
<circle clip-path="url(#clip962)" cx="1929.74" cy="572.92" r="14.4" fill="#009af9" fill-rule="evenodd" fill-opacity="1" stroke="#000000" stroke-opacity="1" stroke-width="3.072"/>
<circle clip-path="url(#clip962)" cx="2108.73" cy="410.675" r="14.4" fill="#009af9" fill-rule="evenodd" fill-opacity="1" stroke="#000000" stroke-opacity="1" stroke-width="3.072"/>
<circle clip-path="url(#clip962)" cx="1843.25" cy="356.593" r="14.4" fill="#009af9" fill-rule="evenodd" fill-opacity="1" stroke="#000000" stroke-opacity="1" stroke-width="3.072"/>
<circle clip-path="url(#clip962)" cx="1990.84" cy="248.429" r="14.4" fill="#009af9" fill-rule="evenodd" fill-opacity="1" stroke="#000000" stroke-opacity="1" stroke-width="3.072"/>
<circle clip-path="url(#clip962)" cx="1983.21" cy="627.002" r="14.4" fill="#009af9" fill-rule="evenodd" fill-opacity="1" stroke="#000000" stroke-opacity="1" stroke-width="3.072"/>
<circle clip-path="url(#clip962)" cx="1919.94" cy="681.084" r="14.4" fill="#009af9" fill-rule="evenodd" fill-opacity="1" stroke="#000000" stroke-opacity="1" stroke-width="3.072"/>
<circle clip-path="url(#clip962)" cx="1987.5" cy="194.347" r="14.4" fill="#009af9" fill-rule="evenodd" fill-opacity="1" stroke="#000000" stroke-opacity="1" stroke-width="3.072"/>
<circle clip-path="url(#clip962)" cx="2082.7" cy="140.265" r="14.4" fill="#009af9" fill-rule="evenodd" fill-opacity="1" stroke="#000000" stroke-opacity="1" stroke-width="3.072"/>
<circle clip-path="url(#clip962)" cx="1749.19" cy="464.756" r="14.4" fill="#009af9" fill-rule="evenodd" fill-opacity="1" stroke="#000000" stroke-opacity="1" stroke-width="3.072"/>
<circle clip-path="url(#clip962)" cx="2110.96" cy="464.756" r="14.4" fill="#009af9" fill-rule="evenodd" fill-opacity="1" stroke="#000000" stroke-opacity="1" stroke-width="3.072"/>
<circle clip-path="url(#clip962)" cx="2146.52" cy="302.511" r="14.4" fill="#009af9" fill-rule="evenodd" fill-opacity="1" stroke="#000000" stroke-opacity="1" stroke-width="3.072"/>
<circle clip-path="url(#clip962)" cx="2086.79" cy="140.265" r="14.4" fill="#009af9" fill-rule="evenodd" fill-opacity="1" stroke="#000000" stroke-opacity="1" stroke-width="3.072"/>
<circle clip-path="url(#clip962)" cx="2076.62" cy="194.347" r="14.4" fill="#009af9" fill-rule="evenodd" fill-opacity="1" stroke="#000000" stroke-opacity="1" stroke-width="3.072"/>
<circle clip-path="url(#clip962)" cx="2197.27" cy="410.675" r="14.4" fill="#009af9" fill-rule="evenodd" fill-opacity="1" stroke="#000000" stroke-opacity="1" stroke-width="3.072"/>
<circle clip-path="url(#clip962)" cx="1842.92" cy="194.347" r="14.4" fill="#009af9" fill-rule="evenodd" fill-opacity="1" stroke="#000000" stroke-opacity="1" stroke-width="3.072"/>
<circle clip-path="url(#clip962)" cx="1993.2" cy="86.1831" r="14.4" fill="#009af9" fill-rule="evenodd" fill-opacity="1" stroke="#000000" stroke-opacity="1" stroke-width="3.072"/>
<circle clip-path="url(#clip962)" cx="1799.35" cy="194.347" r="14.4" fill="#009af9" fill-rule="evenodd" fill-opacity="1" stroke="#000000" stroke-opacity="1" stroke-width="3.072"/>
<circle clip-path="url(#clip962)" cx="2048.16" cy="410.675" r="14.4" fill="#009af9" fill-rule="evenodd" fill-opacity="1" stroke="#000000" stroke-opacity="1" stroke-width="3.072"/>
<circle clip-path="url(#clip962)" cx="1993.52" cy="356.593" r="14.4" fill="#009af9" fill-rule="evenodd" fill-opacity="1" stroke="#000000" stroke-opacity="1" stroke-width="3.072"/>
<circle clip-path="url(#clip962)" cx="2068.35" cy="194.347" r="14.4" fill="#009af9" fill-rule="evenodd" fill-opacity="1" stroke="#000000" stroke-opacity="1" stroke-width="3.072"/>
<circle clip-path="url(#clip962)" cx="1678.91" cy="464.756" r="14.4" fill="#009af9" fill-rule="evenodd" fill-opacity="1" stroke="#000000" stroke-opacity="1" stroke-width="3.072"/>
</svg>
