<?xml version="1.0" encoding="utf-8"?>
<svg xmlns="http://www.w3.org/2000/svg" xmlns:xlink="http://www.w3.org/1999/xlink" width="672" height="480" viewBox="0 0 2688 1920">
<defs>
  <clipPath id="clip380">
    <rect x="0" y="0" width="2688" height="1920"/>
  </clipPath>
</defs>
<path clip-path="url(#clip380)" d="
M0 1920 L2688 1920 L2688 0 L0 0  Z
  " fill="#ffffff" fill-rule="evenodd" fill-opacity="1"/>
<defs>
  <clipPath id="clip381">
    <rect x="537" y="0" width="1883" height="1883"/>
  </clipPath>
</defs>
<path clip-path="url(#clip380)" d="
M271.719 1720.96 L1341.76 1720.96 L1341.76 127.792 L271.719 127.792  Z
  " fill="#ffffff" fill-rule="evenodd" fill-opacity="1"/>
<defs>
  <clipPath id="clip382">
    <rect x="271" y="127" width="1071" height="1594"/>
  </clipPath>
</defs>
<polyline clip-path="url(#clip382)" style="stroke:#000000; stroke-linecap:round; stroke-linejoin:round; stroke-width:2; stroke-opacity:0.1; fill:none" points="
  302.003,1720.96 302.003,127.792 
  "/>
<polyline clip-path="url(#clip382)" style="stroke:#000000; stroke-linecap:round; stroke-linejoin:round; stroke-width:2; stroke-opacity:0.1; fill:none" points="
  534.065,1720.96 534.065,127.792 
  "/>
<polyline clip-path="url(#clip382)" style="stroke:#000000; stroke-linecap:round; stroke-linejoin:round; stroke-width:2; stroke-opacity:0.1; fill:none" points="
  766.126,1720.96 766.126,127.792 
  "/>
<polyline clip-path="url(#clip382)" style="stroke:#000000; stroke-linecap:round; stroke-linejoin:round; stroke-width:2; stroke-opacity:0.1; fill:none" points="
  998.188,1720.96 998.188,127.792 
  "/>
<polyline clip-path="url(#clip382)" style="stroke:#000000; stroke-linecap:round; stroke-linejoin:round; stroke-width:2; stroke-opacity:0.1; fill:none" points="
  1230.25,1720.96 1230.25,127.792 
  "/>
<polyline clip-path="url(#clip380)" style="stroke:#000000; stroke-linecap:round; stroke-linejoin:round; stroke-width:4; stroke-opacity:1; fill:none" points="
  271.719,1720.96 1341.76,1720.96 
  "/>
<polyline clip-path="url(#clip380)" style="stroke:#000000; stroke-linecap:round; stroke-linejoin:round; stroke-width:4; stroke-opacity:1; fill:none" points="
  302.003,1720.96 302.003,1702.06 
  "/>
<polyline clip-path="url(#clip380)" style="stroke:#000000; stroke-linecap:round; stroke-linejoin:round; stroke-width:4; stroke-opacity:1; fill:none" points="
  534.065,1720.96 534.065,1702.06 
  "/>
<polyline clip-path="url(#clip380)" style="stroke:#000000; stroke-linecap:round; stroke-linejoin:round; stroke-width:4; stroke-opacity:1; fill:none" points="
  766.126,1720.96 766.126,1702.06 
  "/>
<polyline clip-path="url(#clip380)" style="stroke:#000000; stroke-linecap:round; stroke-linejoin:round; stroke-width:4; stroke-opacity:1; fill:none" points="
  998.188,1720.96 998.188,1702.06 
  "/>
<polyline clip-path="url(#clip380)" style="stroke:#000000; stroke-linecap:round; stroke-linejoin:round; stroke-width:4; stroke-opacity:1; fill:none" points="
  1230.25,1720.96 1230.25,1702.06 
  "/>
<path clip-path="url(#clip380)" d="M302.003 1754.18 Q298.392 1754.18 296.563 1757.74 Q294.757 1761.29 294.757 1768.42 Q294.757 1775.52 296.563 1779.09 Q298.392 1782.63 302.003 1782.63 Q305.637 1782.63 307.443 1779.09 Q309.271 1775.52 309.271 1768.42 Q309.271 1761.29 307.443 1757.74 Q305.637 1754.18 302.003 1754.18 M302.003 1750.48 Q307.813 1750.48 310.868 1755.08 Q313.947 1759.67 313.947 1768.42 Q313.947 1777.14 310.868 1781.75 Q307.813 1786.33 302.003 1786.33 Q296.193 1786.33 293.114 1781.75 Q290.058 1777.14 290.058 1768.42 Q290.058 1759.67 293.114 1755.08 Q296.193 1750.48 302.003 1750.48 Z" fill="#000000" fill-rule="evenodd" fill-opacity="1" /><path clip-path="url(#clip380)" d="M445.049 1797.39 L461.368 1797.39 L461.368 1801.32 L439.424 1801.32 L439.424 1797.39 Q442.086 1794.63 446.669 1790 Q451.276 1785.35 452.456 1784.01 Q454.702 1781.48 455.581 1779.75 Q456.484 1777.99 456.484 1776.3 Q456.484 1773.54 454.54 1771.81 Q452.618 1770.07 449.516 1770.07 Q447.317 1770.07 444.864 1770.83 Q442.433 1771.6 439.655 1773.15 L439.655 1768.43 Q442.479 1767.29 444.933 1766.71 Q447.387 1766.14 449.424 1766.14 Q454.794 1766.14 457.989 1768.82 Q461.183 1771.51 461.183 1776 Q461.183 1778.13 460.373 1780.05 Q459.586 1781.95 457.479 1784.54 Q456.901 1785.21 453.799 1788.43 Q450.697 1791.62 445.049 1797.39 Z" fill="#000000" fill-rule="evenodd" fill-opacity="1" /><path clip-path="url(#clip380)" d="M471.183 1795.44 L476.067 1795.44 L476.067 1801.32 L471.183 1801.32 L471.183 1795.44 Z" fill="#000000" fill-rule="evenodd" fill-opacity="1" /><path clip-path="url(#clip380)" d="M496.252 1769.84 Q492.641 1769.84 490.813 1773.4 Q489.007 1776.95 489.007 1784.08 Q489.007 1791.18 490.813 1794.75 Q492.641 1798.29 496.252 1798.29 Q499.887 1798.29 501.692 1794.75 Q503.521 1791.18 503.521 1784.08 Q503.521 1776.95 501.692 1773.4 Q499.887 1769.84 496.252 1769.84 M496.252 1766.14 Q502.062 1766.14 505.118 1770.74 Q508.197 1775.33 508.197 1784.08 Q508.197 1792.8 505.118 1797.41 Q502.062 1801.99 496.252 1801.99 Q490.442 1801.99 487.363 1797.41 Q484.308 1792.8 484.308 1784.08 Q484.308 1775.33 487.363 1770.74 Q490.442 1766.14 496.252 1766.14 Z" fill="#000000" fill-rule="evenodd" fill-opacity="1" /><path clip-path="url(#clip380)" d="M544.585 1775.86 L534.007 1786.48 L544.585 1797.06 L541.831 1799.86 L531.206 1789.24 L520.581 1799.86 L517.849 1797.06 L528.405 1786.48 L517.849 1775.86 L520.581 1773.06 L531.206 1783.68 L541.831 1773.06 L544.585 1775.86 Z" fill="#000000" fill-rule="evenodd" fill-opacity="1" /><path clip-path="url(#clip380)" d="M556.946 1797.39 L564.585 1797.39 L564.585 1771.02 L556.275 1772.69 L556.275 1768.43 L564.539 1766.76 L569.215 1766.76 L569.215 1797.39 L576.854 1797.39 L576.854 1801.32 L556.946 1801.32 L556.946 1797.39 Z" fill="#000000" fill-rule="evenodd" fill-opacity="1" /><path clip-path="url(#clip380)" d="M596.298 1769.84 Q592.687 1769.84 590.858 1773.4 Q589.053 1776.95 589.053 1784.08 Q589.053 1791.18 590.858 1794.75 Q592.687 1798.29 596.298 1798.29 Q599.932 1798.29 601.738 1794.75 Q603.567 1791.18 603.567 1784.08 Q603.567 1776.95 601.738 1773.4 Q599.932 1769.84 596.298 1769.84 M596.298 1766.14 Q602.108 1766.14 605.164 1770.74 Q608.242 1775.33 608.242 1784.08 Q608.242 1792.8 605.164 1797.41 Q602.108 1801.99 596.298 1801.99 Q590.488 1801.99 587.409 1797.41 Q584.354 1792.8 584.354 1784.08 Q584.354 1775.33 587.409 1770.74 Q590.488 1766.14 596.298 1766.14 Z" fill="#000000" fill-rule="evenodd" fill-opacity="1" /><path clip-path="url(#clip380)" d="M620.919 1749.14 L611.327 1764.13 L620.919 1764.13 L620.919 1749.14 M619.922 1745.83 L624.699 1745.83 L624.699 1764.13 L628.705 1764.13 L628.705 1767.29 L624.699 1767.29 L624.699 1773.91 L620.919 1773.91 L620.919 1767.29 L608.242 1767.29 L608.242 1763.62 L619.922 1745.83 Z" fill="#000000" fill-rule="evenodd" fill-opacity="1" /><path clip-path="url(#clip380)" d="M686.509 1770.83 L674.703 1789.28 L686.509 1789.28 L686.509 1770.83 M685.282 1766.76 L691.162 1766.76 L691.162 1789.28 L696.092 1789.28 L696.092 1793.17 L691.162 1793.17 L691.162 1801.32 L686.509 1801.32 L686.509 1793.17 L670.907 1793.17 L670.907 1788.66 L685.282 1766.76 Z" fill="#000000" fill-rule="evenodd" fill-opacity="1" /><path clip-path="url(#clip380)" d="M703.823 1795.44 L708.708 1795.44 L708.708 1801.32 L703.823 1801.32 L703.823 1795.44 Z" fill="#000000" fill-rule="evenodd" fill-opacity="1" /><path clip-path="url(#clip380)" d="M728.893 1769.84 Q725.282 1769.84 723.453 1773.4 Q721.647 1776.95 721.647 1784.08 Q721.647 1791.18 723.453 1794.75 Q725.282 1798.29 728.893 1798.29 Q732.527 1798.29 734.333 1794.75 Q736.161 1791.18 736.161 1784.08 Q736.161 1776.95 734.333 1773.4 Q732.527 1769.84 728.893 1769.84 M728.893 1766.14 Q734.703 1766.14 737.758 1770.74 Q740.837 1775.33 740.837 1784.08 Q740.837 1792.8 737.758 1797.41 Q734.703 1801.99 728.893 1801.99 Q723.083 1801.99 720.004 1797.41 Q716.948 1792.8 716.948 1784.08 Q716.948 1775.33 720.004 1770.74 Q723.083 1766.14 728.893 1766.14 Z" fill="#000000" fill-rule="evenodd" fill-opacity="1" /><path clip-path="url(#clip380)" d="M777.226 1775.86 L766.647 1786.48 L777.226 1797.06 L774.471 1799.86 L763.846 1789.24 L753.221 1799.86 L750.49 1797.06 L761.045 1786.48 L750.49 1775.86 L753.221 1773.06 L763.846 1783.68 L774.471 1773.06 L777.226 1775.86 Z" fill="#000000" fill-rule="evenodd" fill-opacity="1" /><path clip-path="url(#clip380)" d="M789.587 1797.39 L797.226 1797.39 L797.226 1771.02 L788.916 1772.69 L788.916 1768.43 L797.179 1766.76 L801.855 1766.76 L801.855 1797.39 L809.494 1797.39 L809.494 1801.32 L789.587 1801.32 L789.587 1797.39 Z" fill="#000000" fill-rule="evenodd" fill-opacity="1" /><path clip-path="url(#clip380)" d="M828.939 1769.84 Q825.327 1769.84 823.499 1773.4 Q821.693 1776.95 821.693 1784.08 Q821.693 1791.18 823.499 1794.75 Q825.327 1798.29 828.939 1798.29 Q832.573 1798.29 834.378 1794.75 Q836.207 1791.18 836.207 1784.08 Q836.207 1776.95 834.378 1773.4 Q832.573 1769.84 828.939 1769.84 M828.939 1766.14 Q834.749 1766.14 837.804 1770.74 Q840.883 1775.33 840.883 1784.08 Q840.883 1792.8 837.804 1797.41 Q834.749 1801.99 828.939 1801.99 Q823.128 1801.99 820.05 1797.41 Q816.994 1792.8 816.994 1784.08 Q816.994 1775.33 820.05 1770.74 Q823.128 1766.14 828.939 1766.14 Z" fill="#000000" fill-rule="evenodd" fill-opacity="1" /><path clip-path="url(#clip380)" d="M853.559 1749.14 L843.967 1764.13 L853.559 1764.13 L853.559 1749.14 M852.563 1745.83 L857.34 1745.83 L857.34 1764.13 L861.346 1764.13 L861.346 1767.29 L857.34 1767.29 L857.34 1773.91 L853.559 1773.91 L853.559 1767.29 L840.883 1767.29 L840.883 1763.62 L852.563 1745.83 Z" fill="#000000" fill-rule="evenodd" fill-opacity="1" /><path clip-path="url(#clip380)" d="M915.804 1782.18 Q912.656 1782.18 910.804 1784.33 Q908.976 1786.48 908.976 1790.23 Q908.976 1793.96 910.804 1796.14 Q912.656 1798.29 915.804 1798.29 Q918.952 1798.29 920.781 1796.14 Q922.633 1793.96 922.633 1790.23 Q922.633 1786.48 920.781 1784.33 Q918.952 1782.18 915.804 1782.18 M925.087 1767.52 L925.087 1771.78 Q923.327 1770.95 921.522 1770.51 Q919.74 1770.07 917.98 1770.07 Q913.351 1770.07 910.897 1773.2 Q908.466 1776.32 908.119 1782.64 Q909.485 1780.63 911.545 1779.56 Q913.605 1778.47 916.082 1778.47 Q921.29 1778.47 924.3 1781.64 Q927.332 1784.79 927.332 1790.23 Q927.332 1795.56 924.184 1798.77 Q921.036 1801.99 915.804 1801.99 Q909.809 1801.99 906.638 1797.41 Q903.466 1792.8 903.466 1784.08 Q903.466 1775.88 907.355 1771.02 Q911.244 1766.14 917.795 1766.14 Q919.554 1766.14 921.337 1766.48 Q923.142 1766.83 925.087 1767.52 Z" fill="#000000" fill-rule="evenodd" fill-opacity="1" /><path clip-path="url(#clip380)" d="M935.388 1795.44 L940.272 1795.44 L940.272 1801.32 L935.388 1801.32 L935.388 1795.44 Z" fill="#000000" fill-rule="evenodd" fill-opacity="1" /><path clip-path="url(#clip380)" d="M960.457 1769.84 Q956.846 1769.84 955.017 1773.4 Q953.212 1776.95 953.212 1784.08 Q953.212 1791.18 955.017 1794.75 Q956.846 1798.29 960.457 1798.29 Q964.091 1798.29 965.897 1794.75 Q967.725 1791.18 967.725 1784.08 Q967.725 1776.95 965.897 1773.4 Q964.091 1769.84 960.457 1769.84 M960.457 1766.14 Q966.267 1766.14 969.323 1770.74 Q972.401 1775.33 972.401 1784.08 Q972.401 1792.8 969.323 1797.41 Q966.267 1801.99 960.457 1801.99 Q954.647 1801.99 951.568 1797.41 Q948.513 1792.8 948.513 1784.08 Q948.513 1775.33 951.568 1770.74 Q954.647 1766.14 960.457 1766.14 Z" fill="#000000" fill-rule="evenodd" fill-opacity="1" /><path clip-path="url(#clip380)" d="M1008.79 1775.86 L998.211 1786.48 L1008.79 1797.06 L1006.04 1799.86 L995.41 1789.24 L984.785 1799.86 L982.054 1797.06 L992.61 1786.48 L982.054 1775.86 L984.785 1773.06 L995.41 1783.68 L1006.04 1773.06 L1008.79 1775.86 Z" fill="#000000" fill-rule="evenodd" fill-opacity="1" /><path clip-path="url(#clip380)" d="M1021.15 1797.39 L1028.79 1797.39 L1028.79 1771.02 L1020.48 1772.69 L1020.48 1768.43 L1028.74 1766.76 L1033.42 1766.76 L1033.42 1797.39 L1041.06 1797.39 L1041.06 1801.32 L1021.15 1801.32 L1021.15 1797.39 Z" fill="#000000" fill-rule="evenodd" fill-opacity="1" /><path clip-path="url(#clip380)" d="M1060.5 1769.84 Q1056.89 1769.84 1055.06 1773.4 Q1053.26 1776.95 1053.26 1784.08 Q1053.26 1791.18 1055.06 1794.75 Q1056.89 1798.29 1060.5 1798.29 Q1064.14 1798.29 1065.94 1794.75 Q1067.77 1791.18 1067.77 1784.08 Q1067.77 1776.95 1065.94 1773.4 Q1064.14 1769.84 1060.5 1769.84 M1060.5 1766.14 Q1066.31 1766.14 1069.37 1770.74 Q1072.45 1775.33 1072.45 1784.08 Q1072.45 1792.8 1069.37 1797.41 Q1066.31 1801.99 1060.5 1801.99 Q1054.69 1801.99 1051.61 1797.41 Q1048.56 1792.8 1048.56 1784.08 Q1048.56 1775.33 1051.61 1770.74 Q1054.69 1766.14 1060.5 1766.14 Z" fill="#000000" fill-rule="evenodd" fill-opacity="1" /><path clip-path="url(#clip380)" d="M1085.12 1749.14 L1075.53 1764.13 L1085.12 1764.13 L1085.12 1749.14 M1084.13 1745.83 L1088.9 1745.83 L1088.9 1764.13 L1092.91 1764.13 L1092.91 1767.29 L1088.9 1767.29 L1088.9 1773.91 L1085.12 1773.91 L1085.12 1767.29 L1072.45 1767.29 L1072.45 1763.62 L1084.13 1745.83 Z" fill="#000000" fill-rule="evenodd" fill-opacity="1" /><path clip-path="url(#clip380)" d="M1147.33 1784.91 Q1144 1784.91 1142.08 1786.69 Q1140.18 1788.47 1140.18 1791.6 Q1140.18 1794.72 1142.08 1796.51 Q1144 1798.29 1147.33 1798.29 Q1150.67 1798.29 1152.59 1796.51 Q1154.51 1794.7 1154.51 1791.6 Q1154.51 1788.47 1152.59 1786.69 Q1150.69 1784.91 1147.33 1784.91 M1142.66 1782.92 Q1139.65 1782.18 1137.96 1780.12 Q1136.29 1778.06 1136.29 1775.09 Q1136.29 1770.95 1139.23 1768.54 Q1142.19 1766.14 1147.33 1766.14 Q1152.5 1766.14 1155.44 1768.54 Q1158.38 1770.95 1158.38 1775.09 Q1158.38 1778.06 1156.69 1780.12 Q1155.02 1782.18 1152.03 1782.92 Q1155.41 1783.7 1157.29 1786 Q1159.19 1788.29 1159.19 1791.6 Q1159.19 1796.62 1156.11 1799.31 Q1153.05 1801.99 1147.33 1801.99 Q1141.62 1801.99 1138.54 1799.31 Q1135.48 1796.62 1135.48 1791.6 Q1135.48 1788.29 1137.38 1786 Q1139.28 1783.7 1142.66 1782.92 M1140.94 1775.53 Q1140.94 1778.22 1142.61 1779.72 Q1144.3 1781.23 1147.33 1781.23 Q1150.34 1781.23 1152.03 1779.72 Q1153.75 1778.22 1153.75 1775.53 Q1153.75 1772.85 1152.03 1771.34 Q1150.34 1769.84 1147.33 1769.84 Q1144.3 1769.84 1142.61 1771.34 Q1140.94 1772.85 1140.94 1775.53 Z" fill="#000000" fill-rule="evenodd" fill-opacity="1" /><path clip-path="url(#clip380)" d="M1167.5 1795.44 L1172.38 1795.44 L1172.38 1801.32 L1167.5 1801.32 L1167.5 1795.44 Z" fill="#000000" fill-rule="evenodd" fill-opacity="1" /><path clip-path="url(#clip380)" d="M1192.56 1769.84 Q1188.95 1769.84 1187.13 1773.4 Q1185.32 1776.95 1185.32 1784.08 Q1185.32 1791.18 1187.13 1794.75 Q1188.95 1798.29 1192.56 1798.29 Q1196.2 1798.29 1198 1794.75 Q1199.83 1791.18 1199.83 1784.08 Q1199.83 1776.95 1198 1773.4 Q1196.2 1769.84 1192.56 1769.84 M1192.56 1766.14 Q1198.38 1766.14 1201.43 1770.74 Q1204.51 1775.33 1204.51 1784.08 Q1204.51 1792.8 1201.43 1797.41 Q1198.38 1801.99 1192.56 1801.99 Q1186.75 1801.99 1183.68 1797.41 Q1180.62 1792.8 1180.62 1784.08 Q1180.62 1775.33 1183.68 1770.74 Q1186.75 1766.14 1192.56 1766.14 Z" fill="#000000" fill-rule="evenodd" fill-opacity="1" /><path clip-path="url(#clip380)" d="M1240.9 1775.86 L1230.32 1786.48 L1240.9 1797.06 L1238.14 1799.86 L1227.52 1789.24 L1216.89 1799.86 L1214.16 1797.06 L1224.72 1786.48 L1214.16 1775.86 L1216.89 1773.06 L1227.52 1783.68 L1238.14 1773.06 L1240.9 1775.86 Z" fill="#000000" fill-rule="evenodd" fill-opacity="1" /><path clip-path="url(#clip380)" d="M1253.26 1797.39 L1260.9 1797.39 L1260.9 1771.02 L1252.59 1772.69 L1252.59 1768.43 L1260.85 1766.76 L1265.53 1766.76 L1265.53 1797.39 L1273.17 1797.39 L1273.17 1801.32 L1253.26 1801.32 L1253.26 1797.39 Z" fill="#000000" fill-rule="evenodd" fill-opacity="1" /><path clip-path="url(#clip380)" d="M1292.61 1769.84 Q1289 1769.84 1287.17 1773.4 Q1285.37 1776.95 1285.37 1784.08 Q1285.37 1791.18 1287.17 1794.75 Q1289 1798.29 1292.61 1798.29 Q1296.24 1798.29 1298.05 1794.75 Q1299.88 1791.18 1299.88 1784.08 Q1299.88 1776.95 1298.05 1773.4 Q1296.24 1769.84 1292.61 1769.84 M1292.61 1766.14 Q1298.42 1766.14 1301.48 1770.74 Q1304.56 1775.33 1304.56 1784.08 Q1304.56 1792.8 1301.48 1797.41 Q1298.42 1801.99 1292.61 1801.99 Q1286.8 1801.99 1283.72 1797.41 Q1280.67 1792.8 1280.67 1784.08 Q1280.67 1775.33 1283.72 1770.74 Q1286.8 1766.14 1292.61 1766.14 Z" fill="#000000" fill-rule="evenodd" fill-opacity="1" /><path clip-path="url(#clip380)" d="M1317.23 1749.14 L1307.64 1764.13 L1317.23 1764.13 L1317.23 1749.14 M1316.23 1745.83 L1321.01 1745.83 L1321.01 1764.13 L1325.02 1764.13 L1325.02 1767.29 L1321.01 1767.29 L1321.01 1773.91 L1317.23 1773.91 L1317.23 1767.29 L1304.56 1767.29 L1304.56 1763.62 L1316.23 1745.83 Z" fill="#000000" fill-rule="evenodd" fill-opacity="1" /><path clip-path="url(#clip380)" d="M735.059 1865.87 L735.059 1883.28 L745.372 1883.28 Q750.56 1883.28 753.043 1881.15 Q755.557 1878.98 755.557 1874.56 Q755.557 1870.1 753.043 1868 Q750.56 1865.87 745.372 1865.87 L735.059 1865.87 M735.059 1846.33 L735.059 1860.65 L744.576 1860.65 Q749.287 1860.65 751.578 1858.9 Q753.902 1857.12 753.902 1853.49 Q753.902 1849.89 751.578 1848.11 Q749.287 1846.33 744.576 1846.33 L735.059 1846.33 M728.63 1841.05 L745.054 1841.05 Q752.406 1841.05 756.385 1844.1 Q760.363 1847.16 760.363 1852.79 Q760.363 1857.15 758.326 1859.73 Q756.289 1862.31 752.342 1862.94 Q757.085 1863.96 759.695 1867.21 Q762.337 1870.42 762.337 1875.26 Q762.337 1881.63 758.008 1885.1 Q753.679 1888.57 745.69 1888.57 L728.63 1888.57 L728.63 1841.05 Z" fill="#000000" fill-rule="evenodd" fill-opacity="1" /><path clip-path="url(#clip380)" d="M786.908 1857.02 Q782.198 1857.02 779.46 1860.72 Q776.723 1864.38 776.723 1870.77 Q776.723 1877.17 779.428 1880.86 Q782.166 1884.52 786.908 1884.52 Q791.587 1884.52 794.324 1880.83 Q797.061 1877.14 797.061 1870.77 Q797.061 1864.44 794.324 1860.75 Q791.587 1857.02 786.908 1857.02 M786.908 1852.06 Q794.547 1852.06 798.908 1857.02 Q803.268 1861.99 803.268 1870.77 Q803.268 1879.53 798.908 1884.52 Q794.547 1889.49 786.908 1889.49 Q779.237 1889.49 774.877 1884.52 Q770.548 1879.53 770.548 1870.77 Q770.548 1861.99 774.877 1857.02 Q779.237 1852.06 786.908 1852.06 Z" fill="#000000" fill-rule="evenodd" fill-opacity="1" /><path clip-path="url(#clip380)" d="M836.433 1858.33 L836.433 1839.04 L842.29 1839.04 L842.29 1888.57 L836.433 1888.57 L836.433 1883.22 Q834.587 1886.4 831.755 1887.96 Q828.954 1889.49 825.007 1889.49 Q818.546 1889.49 814.472 1884.33 Q810.429 1879.18 810.429 1870.77 Q810.429 1862.37 814.472 1857.21 Q818.546 1852.06 825.007 1852.06 Q828.954 1852.06 831.755 1853.62 Q834.587 1855.15 836.433 1858.33 M816.477 1870.77 Q816.477 1877.23 819.119 1880.93 Q821.792 1884.59 826.439 1884.59 Q831.086 1884.59 833.76 1880.93 Q836.433 1877.23 836.433 1870.77 Q836.433 1864.31 833.76 1860.65 Q831.086 1856.96 826.439 1856.96 Q821.792 1856.96 819.119 1860.65 Q816.477 1864.31 816.477 1870.77 Z" fill="#000000" fill-rule="evenodd" fill-opacity="1" /><path clip-path="url(#clip380)" d="M869.185 1891.88 Q866.702 1898.24 864.347 1900.18 Q861.992 1902.12 858.045 1902.12 L853.366 1902.12 L853.366 1897.22 L856.804 1897.22 Q859.223 1897.22 860.559 1896.08 Q861.896 1894.93 863.519 1890.67 L864.57 1887.99 L850.151 1852.92 L856.358 1852.92 L867.498 1880.8 L878.638 1852.92 L884.845 1852.92 L869.185 1891.88 Z" fill="#000000" fill-rule="evenodd" fill-opacity="1" /><polyline clip-path="url(#clip382)" style="stroke:#000000; stroke-linecap:round; stroke-linejoin:round; stroke-width:2; stroke-opacity:0.1; fill:none" points="
  271.719,1675.97 1341.76,1675.97 
  "/>
<polyline clip-path="url(#clip382)" style="stroke:#000000; stroke-linecap:round; stroke-linejoin:round; stroke-width:2; stroke-opacity:0.1; fill:none" points="
  271.719,1412.83 1341.76,1412.83 
  "/>
<polyline clip-path="url(#clip382)" style="stroke:#000000; stroke-linecap:round; stroke-linejoin:round; stroke-width:2; stroke-opacity:0.1; fill:none" points="
  271.719,1149.68 1341.76,1149.68 
  "/>
<polyline clip-path="url(#clip382)" style="stroke:#000000; stroke-linecap:round; stroke-linejoin:round; stroke-width:2; stroke-opacity:0.1; fill:none" points="
  271.719,886.534 1341.76,886.534 
  "/>
<polyline clip-path="url(#clip382)" style="stroke:#000000; stroke-linecap:round; stroke-linejoin:round; stroke-width:2; stroke-opacity:0.1; fill:none" points="
  271.719,623.388 1341.76,623.388 
  "/>
<polyline clip-path="url(#clip382)" style="stroke:#000000; stroke-linecap:round; stroke-linejoin:round; stroke-width:2; stroke-opacity:0.1; fill:none" points="
  271.719,360.242 1341.76,360.242 
  "/>
<polyline clip-path="url(#clip380)" style="stroke:#000000; stroke-linecap:round; stroke-linejoin:round; stroke-width:4; stroke-opacity:1; fill:none" points="
  271.719,1720.96 271.719,127.792 
  "/>
<polyline clip-path="url(#clip380)" style="stroke:#000000; stroke-linecap:round; stroke-linejoin:round; stroke-width:4; stroke-opacity:1; fill:none" points="
  271.719,1675.97 290.617,1675.97 
  "/>
<polyline clip-path="url(#clip380)" style="stroke:#000000; stroke-linecap:round; stroke-linejoin:round; stroke-width:4; stroke-opacity:1; fill:none" points="
  271.719,1412.83 290.617,1412.83 
  "/>
<polyline clip-path="url(#clip380)" style="stroke:#000000; stroke-linecap:round; stroke-linejoin:round; stroke-width:4; stroke-opacity:1; fill:none" points="
  271.719,1149.68 290.617,1149.68 
  "/>
<polyline clip-path="url(#clip380)" style="stroke:#000000; stroke-linecap:round; stroke-linejoin:round; stroke-width:4; stroke-opacity:1; fill:none" points="
  271.719,886.534 290.617,886.534 
  "/>
<polyline clip-path="url(#clip380)" style="stroke:#000000; stroke-linecap:round; stroke-linejoin:round; stroke-width:4; stroke-opacity:1; fill:none" points="
  271.719,623.388 290.617,623.388 
  "/>
<polyline clip-path="url(#clip380)" style="stroke:#000000; stroke-linecap:round; stroke-linejoin:round; stroke-width:4; stroke-opacity:1; fill:none" points="
  271.719,360.242 290.617,360.242 
  "/>
<path clip-path="url(#clip380)" d="M219.455 1661.77 Q215.844 1661.77 214.015 1665.34 Q212.209 1668.88 212.209 1676.01 Q212.209 1683.11 214.015 1686.68 Q215.844 1690.22 219.455 1690.22 Q223.089 1690.22 224.894 1686.68 Q226.723 1683.11 226.723 1676.01 Q226.723 1668.88 224.894 1665.34 Q223.089 1661.77 219.455 1661.77 M219.455 1658.07 Q225.265 1658.07 228.32 1662.67 Q231.399 1667.26 231.399 1676.01 Q231.399 1684.73 228.32 1689.34 Q225.265 1693.92 219.455 1693.92 Q213.644 1693.92 210.566 1689.34 Q207.51 1684.73 207.51 1676.01 Q207.51 1667.26 210.566 1662.67 Q213.644 1658.07 219.455 1658.07 Z" fill="#000000" fill-rule="evenodd" fill-opacity="1" /><path clip-path="url(#clip380)" d="M119.779 1426.17 L127.418 1426.17 L127.418 1399.81 L119.108 1401.47 L119.108 1397.21 L127.372 1395.55 L132.048 1395.55 L132.048 1426.17 L139.687 1426.17 L139.687 1430.11 L119.779 1430.11 L119.779 1426.17 Z" fill="#000000" fill-rule="evenodd" fill-opacity="1" /><path clip-path="url(#clip380)" d="M159.131 1398.62 Q155.52 1398.62 153.691 1402.19 Q151.886 1405.73 151.886 1412.86 Q151.886 1419.97 153.691 1423.53 Q155.52 1427.07 159.131 1427.07 Q162.765 1427.07 164.571 1423.53 Q166.399 1419.97 166.399 1412.86 Q166.399 1405.73 164.571 1402.19 Q162.765 1398.62 159.131 1398.62 M159.131 1394.92 Q164.941 1394.92 167.997 1399.53 Q171.075 1404.11 171.075 1412.86 Q171.075 1421.59 167.997 1426.19 Q164.941 1430.78 159.131 1430.78 Q153.321 1430.78 150.242 1426.19 Q147.186 1421.59 147.186 1412.86 Q147.186 1404.11 150.242 1399.53 Q153.321 1394.92 159.131 1394.92 Z" fill="#000000" fill-rule="evenodd" fill-opacity="1" /><path clip-path="url(#clip380)" d="M189.293 1398.62 Q185.682 1398.62 183.853 1402.19 Q182.047 1405.73 182.047 1412.86 Q182.047 1419.97 183.853 1423.53 Q185.682 1427.07 189.293 1427.07 Q192.927 1427.07 194.733 1423.53 Q196.561 1419.97 196.561 1412.86 Q196.561 1405.73 194.733 1402.19 Q192.927 1398.62 189.293 1398.62 M189.293 1394.92 Q195.103 1394.92 198.158 1399.53 Q201.237 1404.11 201.237 1412.86 Q201.237 1421.59 198.158 1426.19 Q195.103 1430.78 189.293 1430.78 Q183.483 1430.78 180.404 1426.19 Q177.348 1421.59 177.348 1412.86 Q177.348 1404.11 180.404 1399.53 Q183.483 1394.92 189.293 1394.92 Z" fill="#000000" fill-rule="evenodd" fill-opacity="1" /><path clip-path="url(#clip380)" d="M219.455 1398.62 Q215.844 1398.62 214.015 1402.19 Q212.209 1405.73 212.209 1412.86 Q212.209 1419.97 214.015 1423.53 Q215.844 1427.07 219.455 1427.07 Q223.089 1427.07 224.894 1423.53 Q226.723 1419.97 226.723 1412.86 Q226.723 1405.73 224.894 1402.19 Q223.089 1398.62 219.455 1398.62 M219.455 1394.92 Q225.265 1394.92 228.32 1399.53 Q231.399 1404.11 231.399 1412.86 Q231.399 1421.59 228.32 1426.19 Q225.265 1430.78 219.455 1430.78 Q213.644 1430.78 210.566 1426.19 Q207.51 1421.59 207.51 1412.86 Q207.51 1404.11 210.566 1399.53 Q213.644 1394.92 219.455 1394.92 Z" fill="#000000" fill-rule="evenodd" fill-opacity="1" /><path clip-path="url(#clip380)" d="M122.997 1163.02 L139.316 1163.02 L139.316 1166.96 L117.372 1166.96 L117.372 1163.02 Q120.034 1160.27 124.617 1155.64 Q129.224 1150.99 130.404 1149.65 Q132.65 1147.12 133.529 1145.39 Q134.432 1143.63 134.432 1141.94 Q134.432 1139.18 132.488 1137.45 Q130.566 1135.71 127.464 1135.71 Q125.265 1135.71 122.812 1136.47 Q120.381 1137.24 117.603 1138.79 L117.603 1134.07 Q120.427 1132.93 122.881 1132.35 Q125.335 1131.77 127.372 1131.77 Q132.742 1131.77 135.937 1134.46 Q139.131 1137.15 139.131 1141.64 Q139.131 1143.77 138.321 1145.69 Q137.534 1147.59 135.427 1150.18 Q134.849 1150.85 131.747 1154.07 Q128.645 1157.26 122.997 1163.02 Z" fill="#000000" fill-rule="evenodd" fill-opacity="1" /><path clip-path="url(#clip380)" d="M159.131 1135.48 Q155.52 1135.48 153.691 1139.04 Q151.886 1142.59 151.886 1149.71 Q151.886 1156.82 153.691 1160.39 Q155.52 1163.93 159.131 1163.93 Q162.765 1163.93 164.571 1160.39 Q166.399 1156.82 166.399 1149.71 Q166.399 1142.59 164.571 1139.04 Q162.765 1135.48 159.131 1135.48 M159.131 1131.77 Q164.941 1131.77 167.997 1136.38 Q171.075 1140.96 171.075 1149.71 Q171.075 1158.44 167.997 1163.05 Q164.941 1167.63 159.131 1167.63 Q153.321 1167.63 150.242 1163.05 Q147.186 1158.44 147.186 1149.71 Q147.186 1140.96 150.242 1136.38 Q153.321 1131.77 159.131 1131.77 Z" fill="#000000" fill-rule="evenodd" fill-opacity="1" /><path clip-path="url(#clip380)" d="M189.293 1135.48 Q185.682 1135.48 183.853 1139.04 Q182.047 1142.59 182.047 1149.71 Q182.047 1156.82 183.853 1160.39 Q185.682 1163.93 189.293 1163.93 Q192.927 1163.93 194.733 1160.39 Q196.561 1156.82 196.561 1149.71 Q196.561 1142.59 194.733 1139.04 Q192.927 1135.48 189.293 1135.48 M189.293 1131.77 Q195.103 1131.77 198.158 1136.38 Q201.237 1140.96 201.237 1149.71 Q201.237 1158.44 198.158 1163.05 Q195.103 1167.63 189.293 1167.63 Q183.483 1167.63 180.404 1163.05 Q177.348 1158.44 177.348 1149.71 Q177.348 1140.96 180.404 1136.38 Q183.483 1131.77 189.293 1131.77 Z" fill="#000000" fill-rule="evenodd" fill-opacity="1" /><path clip-path="url(#clip380)" d="M219.455 1135.48 Q215.844 1135.48 214.015 1139.04 Q212.209 1142.59 212.209 1149.71 Q212.209 1156.82 214.015 1160.39 Q215.844 1163.93 219.455 1163.93 Q223.089 1163.93 224.894 1160.39 Q226.723 1156.82 226.723 1149.71 Q226.723 1142.59 224.894 1139.04 Q223.089 1135.48 219.455 1135.48 M219.455 1131.77 Q225.265 1131.77 228.32 1136.38 Q231.399 1140.96 231.399 1149.71 Q231.399 1158.44 228.32 1163.05 Q225.265 1167.63 219.455 1167.63 Q213.644 1167.63 210.566 1163.05 Q207.51 1158.44 207.51 1149.71 Q207.51 1140.96 210.566 1136.38 Q213.644 1131.77 219.455 1131.77 Z" fill="#000000" fill-rule="evenodd" fill-opacity="1" /><path clip-path="url(#clip380)" d="M133.136 885.18 Q136.492 885.897 138.367 888.166 Q140.265 890.434 140.265 893.768 Q140.265 898.883 136.747 901.684 Q133.228 904.485 126.747 904.485 Q124.571 904.485 122.256 904.045 Q119.964 903.629 117.511 902.772 L117.511 898.258 Q119.455 899.393 121.77 899.971 Q124.085 900.55 126.608 900.55 Q131.006 900.55 133.298 898.814 Q135.612 897.078 135.612 893.768 Q135.612 890.712 133.46 888.999 Q131.33 887.263 127.511 887.263 L123.483 887.263 L123.483 883.42 L127.696 883.42 Q131.145 883.42 132.974 882.055 Q134.802 880.666 134.802 878.073 Q134.802 875.411 132.904 873.999 Q131.029 872.564 127.511 872.564 Q125.589 872.564 123.39 872.981 Q121.191 873.397 118.552 874.277 L118.552 870.11 Q121.214 869.37 123.529 868.999 Q125.867 868.629 127.927 868.629 Q133.251 868.629 136.353 871.059 Q139.455 873.467 139.455 877.587 Q139.455 880.458 137.812 882.448 Q136.168 884.416 133.136 885.18 Z" fill="#000000" fill-rule="evenodd" fill-opacity="1" /><path clip-path="url(#clip380)" d="M159.131 872.333 Q155.52 872.333 153.691 875.897 Q151.886 879.439 151.886 886.569 Q151.886 893.675 153.691 897.24 Q155.52 900.781 159.131 900.781 Q162.765 900.781 164.571 897.24 Q166.399 893.675 166.399 886.569 Q166.399 879.439 164.571 875.897 Q162.765 872.333 159.131 872.333 M159.131 868.629 Q164.941 868.629 167.997 873.235 Q171.075 877.819 171.075 886.569 Q171.075 895.295 167.997 899.902 Q164.941 904.485 159.131 904.485 Q153.321 904.485 150.242 899.902 Q147.186 895.295 147.186 886.569 Q147.186 877.819 150.242 873.235 Q153.321 868.629 159.131 868.629 Z" fill="#000000" fill-rule="evenodd" fill-opacity="1" /><path clip-path="url(#clip380)" d="M189.293 872.333 Q185.682 872.333 183.853 875.897 Q182.047 879.439 182.047 886.569 Q182.047 893.675 183.853 897.24 Q185.682 900.781 189.293 900.781 Q192.927 900.781 194.733 897.24 Q196.561 893.675 196.561 886.569 Q196.561 879.439 194.733 875.897 Q192.927 872.333 189.293 872.333 M189.293 868.629 Q195.103 868.629 198.158 873.235 Q201.237 877.819 201.237 886.569 Q201.237 895.295 198.158 899.902 Q195.103 904.485 189.293 904.485 Q183.483 904.485 180.404 899.902 Q177.348 895.295 177.348 886.569 Q177.348 877.819 180.404 873.235 Q183.483 868.629 189.293 868.629 Z" fill="#000000" fill-rule="evenodd" fill-opacity="1" /><path clip-path="url(#clip380)" d="M219.455 872.333 Q215.844 872.333 214.015 875.897 Q212.209 879.439 212.209 886.569 Q212.209 893.675 214.015 897.24 Q215.844 900.781 219.455 900.781 Q223.089 900.781 224.894 897.24 Q226.723 893.675 226.723 886.569 Q226.723 879.439 224.894 875.897 Q223.089 872.333 219.455 872.333 M219.455 868.629 Q225.265 868.629 228.32 873.235 Q231.399 877.819 231.399 886.569 Q231.399 895.295 228.32 899.902 Q225.265 904.485 219.455 904.485 Q213.644 904.485 210.566 899.902 Q207.51 895.295 207.51 886.569 Q207.51 877.819 210.566 873.235 Q213.644 868.629 219.455 868.629 Z" fill="#000000" fill-rule="evenodd" fill-opacity="1" /><path clip-path="url(#clip380)" d="M131.816 610.182 L120.011 628.631 L131.816 628.631 L131.816 610.182 M130.589 606.108 L136.469 606.108 L136.469 628.631 L141.399 628.631 L141.399 632.52 L136.469 632.52 L136.469 640.668 L131.816 640.668 L131.816 632.52 L116.214 632.52 L116.214 628.006 L130.589 606.108 Z" fill="#000000" fill-rule="evenodd" fill-opacity="1" /><path clip-path="url(#clip380)" d="M159.131 609.186 Q155.52 609.186 153.691 612.751 Q151.886 616.293 151.886 623.423 Q151.886 630.529 153.691 634.094 Q155.52 637.635 159.131 637.635 Q162.765 637.635 164.571 634.094 Q166.399 630.529 166.399 623.423 Q166.399 616.293 164.571 612.751 Q162.765 609.186 159.131 609.186 M159.131 605.483 Q164.941 605.483 167.997 610.089 Q171.075 614.673 171.075 623.423 Q171.075 632.149 167.997 636.756 Q164.941 641.339 159.131 641.339 Q153.321 641.339 150.242 636.756 Q147.186 632.149 147.186 623.423 Q147.186 614.673 150.242 610.089 Q153.321 605.483 159.131 605.483 Z" fill="#000000" fill-rule="evenodd" fill-opacity="1" /><path clip-path="url(#clip380)" d="M189.293 609.186 Q185.682 609.186 183.853 612.751 Q182.047 616.293 182.047 623.423 Q182.047 630.529 183.853 634.094 Q185.682 637.635 189.293 637.635 Q192.927 637.635 194.733 634.094 Q196.561 630.529 196.561 623.423 Q196.561 616.293 194.733 612.751 Q192.927 609.186 189.293 609.186 M189.293 605.483 Q195.103 605.483 198.158 610.089 Q201.237 614.673 201.237 623.423 Q201.237 632.149 198.158 636.756 Q195.103 641.339 189.293 641.339 Q183.483 641.339 180.404 636.756 Q177.348 632.149 177.348 623.423 Q177.348 614.673 180.404 610.089 Q183.483 605.483 189.293 605.483 Z" fill="#000000" fill-rule="evenodd" fill-opacity="1" /><path clip-path="url(#clip380)" d="M219.455 609.186 Q215.844 609.186 214.015 612.751 Q212.209 616.293 212.209 623.423 Q212.209 630.529 214.015 634.094 Q215.844 637.635 219.455 637.635 Q223.089 637.635 224.894 634.094 Q226.723 630.529 226.723 623.423 Q226.723 616.293 224.894 612.751 Q223.089 609.186 219.455 609.186 M219.455 605.483 Q225.265 605.483 228.32 610.089 Q231.399 614.673 231.399 623.423 Q231.399 632.149 228.32 636.756 Q225.265 641.339 219.455 641.339 Q213.644 641.339 210.566 636.756 Q207.51 632.149 207.51 623.423 Q207.51 614.673 210.566 610.089 Q213.644 605.483 219.455 605.483 Z" fill="#000000" fill-rule="evenodd" fill-opacity="1" /><path clip-path="url(#clip380)" d="M119.015 342.962 L137.372 342.962 L137.372 346.897 L123.298 346.897 L123.298 355.369 Q124.316 355.022 125.335 354.86 Q126.353 354.675 127.372 354.675 Q133.159 354.675 136.538 357.846 Q139.918 361.017 139.918 366.434 Q139.918 372.012 136.446 375.114 Q132.974 378.193 126.654 378.193 Q124.478 378.193 122.21 377.823 Q119.964 377.452 117.557 376.712 L117.557 372.012 Q119.64 373.147 121.863 373.702 Q124.085 374.258 126.562 374.258 Q130.566 374.258 132.904 372.151 Q135.242 370.045 135.242 366.434 Q135.242 362.823 132.904 360.716 Q130.566 358.61 126.562 358.61 Q124.687 358.61 122.812 359.026 Q120.96 359.443 119.015 360.323 L119.015 342.962 Z" fill="#000000" fill-rule="evenodd" fill-opacity="1" /><path clip-path="url(#clip380)" d="M159.131 346.04 Q155.52 346.04 153.691 349.605 Q151.886 353.147 151.886 360.276 Q151.886 367.383 153.691 370.948 Q155.52 374.489 159.131 374.489 Q162.765 374.489 164.571 370.948 Q166.399 367.383 166.399 360.276 Q166.399 353.147 164.571 349.605 Q162.765 346.04 159.131 346.04 M159.131 342.337 Q164.941 342.337 167.997 346.943 Q171.075 351.526 171.075 360.276 Q171.075 369.003 167.997 373.61 Q164.941 378.193 159.131 378.193 Q153.321 378.193 150.242 373.61 Q147.186 369.003 147.186 360.276 Q147.186 351.526 150.242 346.943 Q153.321 342.337 159.131 342.337 Z" fill="#000000" fill-rule="evenodd" fill-opacity="1" /><path clip-path="url(#clip380)" d="M189.293 346.04 Q185.682 346.04 183.853 349.605 Q182.047 353.147 182.047 360.276 Q182.047 367.383 183.853 370.948 Q185.682 374.489 189.293 374.489 Q192.927 374.489 194.733 370.948 Q196.561 367.383 196.561 360.276 Q196.561 353.147 194.733 349.605 Q192.927 346.04 189.293 346.04 M189.293 342.337 Q195.103 342.337 198.158 346.943 Q201.237 351.526 201.237 360.276 Q201.237 369.003 198.158 373.61 Q195.103 378.193 189.293 378.193 Q183.483 378.193 180.404 373.61 Q177.348 369.003 177.348 360.276 Q177.348 351.526 180.404 346.943 Q183.483 342.337 189.293 342.337 Z" fill="#000000" fill-rule="evenodd" fill-opacity="1" /><path clip-path="url(#clip380)" d="M219.455 346.04 Q215.844 346.04 214.015 349.605 Q212.209 353.147 212.209 360.276 Q212.209 367.383 214.015 370.948 Q215.844 374.489 219.455 374.489 Q223.089 374.489 224.894 370.948 Q226.723 367.383 226.723 360.276 Q226.723 353.147 224.894 349.605 Q223.089 346.04 219.455 346.04 M219.455 342.337 Q225.265 342.337 228.32 346.943 Q231.399 351.526 231.399 360.276 Q231.399 369.003 228.32 373.61 Q225.265 378.193 219.455 378.193 Q213.644 378.193 210.566 373.61 Q207.51 369.003 207.51 360.276 Q207.51 351.526 210.566 346.943 Q213.644 342.337 219.455 342.337 Z" fill="#000000" fill-rule="evenodd" fill-opacity="1" /><path clip-path="url(#clip380)" d="M38.9447 997.421 L56.3549 997.421 L56.3549 987.108 Q56.3549 981.92 54.2224 979.438 Q52.0581 976.923 47.6339 976.923 Q43.1779 976.923 41.0772 979.438 Q38.9447 981.92 38.9447 987.108 L38.9447 997.421 M19.402 997.421 L33.7248 997.421 L33.7248 987.904 Q33.7248 983.193 31.9743 980.902 Q30.1919 978.578 26.5634 978.578 Q22.9668 978.578 21.1844 980.902 Q19.402 983.193 19.402 987.904 L19.402 997.421 M14.1184 1003.85 L14.1184 987.427 Q14.1184 980.074 17.174 976.096 Q20.2295 972.117 25.8632 972.117 Q30.2237 972.117 32.8018 974.154 Q35.3799 976.191 36.0165 980.138 Q37.035 975.395 40.2815 972.785 Q43.4962 970.144 48.3341 970.144 Q54.6998 970.144 58.1691 974.472 Q61.6384 978.801 61.6384 986.79 L61.6384 1003.85 L14.1184 1003.85 Z" fill="#000000" fill-rule="evenodd" fill-opacity="1" /><path clip-path="url(#clip380)" d="M31.465 938.729 Q30.8921 939.716 30.6375 940.893 Q30.351 942.039 30.351 943.44 Q30.351 948.405 33.5975 951.078 Q36.8122 953.72 42.8596 953.72 L61.6384 953.72 L61.6384 959.608 L25.9905 959.608 L25.9905 953.72 L31.5287 953.72 Q28.2821 951.874 26.7225 948.914 Q25.1311 945.954 25.1311 941.721 Q25.1311 941.116 25.2266 940.384 Q25.2903 939.652 25.4494 938.761 L31.465 938.729 Z" fill="#000000" fill-rule="evenodd" fill-opacity="1" /><path clip-path="url(#clip380)" d="M43.719 916.385 Q43.719 923.483 45.3422 926.22 Q46.9655 928.958 50.8804 928.958 Q53.9996 928.958 55.8457 926.921 Q57.6599 924.852 57.6599 921.319 Q57.6599 916.449 54.2224 913.521 Q50.7531 910.561 45.0239 910.561 L43.719 910.561 L43.719 916.385 M41.3 904.704 L61.6384 904.704 L61.6384 910.561 L56.2276 910.561 Q59.4741 912.566 61.0337 915.558 Q62.5615 918.55 62.5615 922.878 Q62.5615 928.353 59.5059 931.599 Q56.4186 934.814 51.2623 934.814 Q45.2467 934.814 42.1912 930.804 Q39.1357 926.761 39.1357 918.772 L39.1357 910.561 L38.5628 910.561 Q34.5205 910.561 32.3244 913.234 Q30.0964 915.876 30.0964 920.682 Q30.0964 923.738 30.8284 926.634 Q31.5605 929.53 33.0246 932.204 L27.6137 932.204 Q26.3724 928.989 25.7677 925.966 Q25.1311 922.942 25.1311 920.077 Q25.1311 912.343 29.1415 908.524 Q33.1519 904.704 41.3 904.704 Z" fill="#000000" fill-rule="evenodd" fill-opacity="1" /><path clip-path="url(#clip380)" d="M25.9905 892.641 L25.9905 886.785 L61.6384 886.785 L61.6384 892.641 L25.9905 892.641 M12.1132 892.641 L12.1132 886.785 L19.5293 886.785 L19.5293 892.641 L12.1132 892.641 Z" fill="#000000" fill-rule="evenodd" fill-opacity="1" /><path clip-path="url(#clip380)" d="M40.1224 844.898 L61.6384 844.898 L61.6384 850.755 L40.3133 850.755 Q35.2526 850.755 32.7381 852.728 Q30.2237 854.702 30.2237 858.648 Q30.2237 863.391 33.2474 866.128 Q36.2711 868.865 41.491 868.865 L61.6384 868.865 L61.6384 874.754 L25.9905 874.754 L25.9905 868.865 L31.5287 868.865 Q28.314 866.765 26.7225 863.932 Q25.1311 861.067 25.1311 857.343 Q25.1311 851.2 28.9505 848.049 Q32.7381 844.898 40.1224 844.898 Z" fill="#000000" fill-rule="evenodd" fill-opacity="1" /><path clip-path="url(#clip380)" d="M531.64 43.6931 L531.64 65.8515 L544.765 65.8515 Q551.368 65.8515 554.528 63.1374 Q557.728 60.3828 557.728 54.752 Q557.728 49.0808 554.528 46.4072 Q551.368 43.6931 544.765 43.6931 L531.64 43.6931 M531.64 18.8205 L531.64 37.0496 L543.753 37.0496 Q549.748 37.0496 552.665 34.8216 Q555.622 32.5531 555.622 27.935 Q555.622 23.3575 552.665 21.089 Q549.748 18.8205 543.753 18.8205 L531.64 18.8205 M523.458 12.096 L544.36 12.096 Q553.718 12.096 558.781 15.9849 Q563.845 19.8737 563.845 27.0438 Q563.845 32.5936 561.253 35.8748 Q558.66 39.156 553.637 39.9662 Q559.673 41.2625 562.994 45.3944 Q566.357 49.4858 566.357 55.6432 Q566.357 63.745 560.847 68.1605 Q555.338 72.576 545.17 72.576 L523.458 72.576 L523.458 12.096 Z" fill="#000000" fill-rule="evenodd" fill-opacity="1" /><path clip-path="url(#clip380)" d="M606.339 34.1734 Q605.083 33.4443 603.584 33.1202 Q602.126 32.7556 600.344 32.7556 Q594.024 32.7556 590.622 36.8875 Q587.259 40.9789 587.259 48.6757 L587.259 72.576 L579.765 72.576 L579.765 27.2059 L587.259 27.2059 L587.259 34.2544 Q589.609 30.1225 593.376 28.1376 Q597.144 26.1121 602.531 26.1121 Q603.301 26.1121 604.233 26.2337 Q605.164 26.3147 606.299 26.5172 L606.339 34.1734 Z" fill="#000000" fill-rule="evenodd" fill-opacity="1" /><path clip-path="url(#clip380)" d="M634.776 49.7694 Q625.743 49.7694 622.259 51.8354 Q618.775 53.9013 618.775 58.8839 Q618.775 62.8538 621.368 65.2034 Q624.001 67.5124 628.498 67.5124 Q634.695 67.5124 638.422 63.1374 Q642.19 58.7219 642.19 51.4303 L642.19 49.7694 L634.776 49.7694 M649.643 46.6907 L649.643 72.576 L642.19 72.576 L642.19 65.6895 Q639.638 69.8214 635.83 71.8063 Q632.022 73.7508 626.513 73.7508 Q619.545 73.7508 615.413 69.8619 Q611.322 65.9325 611.322 59.3701 Q611.322 51.7138 616.426 47.825 Q621.571 43.9361 631.738 43.9361 L642.19 43.9361 L642.19 43.2069 Q642.19 38.0623 638.787 35.2672 Q635.425 32.4315 629.308 32.4315 Q625.419 32.4315 621.733 33.3632 Q618.046 34.295 614.643 36.1584 L614.643 29.2718 Q618.735 27.692 622.583 26.9223 Q626.432 26.1121 630.077 26.1121 Q639.921 26.1121 644.782 31.2163 Q649.643 36.3204 649.643 46.6907 Z" fill="#000000" fill-rule="evenodd" fill-opacity="1" /><path clip-path="url(#clip380)" d="M664.996 27.2059 L672.45 27.2059 L672.45 72.576 L664.996 72.576 L664.996 27.2059 M664.996 9.54393 L672.45 9.54393 L672.45 18.9825 L664.996 18.9825 L664.996 9.54393 Z" fill="#000000" fill-rule="evenodd" fill-opacity="1" /><path clip-path="url(#clip380)" d="M725.76 45.1919 L725.76 72.576 L718.306 72.576 L718.306 45.4349 Q718.306 38.994 715.795 35.7938 Q713.283 32.5936 708.26 32.5936 Q702.224 32.5936 698.74 36.4419 Q695.256 40.2903 695.256 46.9338 L695.256 72.576 L687.762 72.576 L687.762 27.2059 L695.256 27.2059 L695.256 34.2544 Q697.93 30.163 701.535 28.1376 Q705.181 26.1121 709.921 26.1121 Q717.739 26.1121 721.749 30.9732 Q725.76 35.7938 725.76 45.1919 Z" fill="#000000" fill-rule="evenodd" fill-opacity="1" /><path clip-path="url(#clip380)" d="M799.567 49.9314 Q799.567 41.7081 796.164 37.0496 Q792.802 32.3505 786.888 32.3505 Q780.974 32.3505 777.571 37.0496 Q774.209 41.7081 774.209 49.9314 Q774.209 58.1548 777.571 62.8538 Q780.974 67.5124 786.888 67.5124 Q792.802 67.5124 796.164 62.8538 Q799.567 58.1548 799.567 49.9314 M774.209 34.0924 Q776.558 30.0415 780.123 28.0971 Q783.728 26.1121 788.711 26.1121 Q796.975 26.1121 802.119 32.6746 Q807.304 39.2371 807.304 49.9314 Q807.304 60.6258 802.119 67.1883 Q796.975 73.7508 788.711 73.7508 Q783.728 73.7508 780.123 71.8063 Q776.558 69.8214 774.209 65.7705 L774.209 72.576 L766.714 72.576 L766.714 9.54393 L774.209 9.54393 L774.209 34.0924 Z" fill="#000000" fill-rule="evenodd" fill-opacity="1" /><path clip-path="url(#clip380)" d="M838.537 76.7889 Q835.377 84.8907 832.38 87.3618 Q829.382 89.8329 824.359 89.8329 L818.404 89.8329 L818.404 83.5945 L822.779 83.5945 Q825.858 83.5945 827.559 82.1361 Q829.26 80.6778 831.326 75.2496 L832.663 71.8468 L814.313 27.2059 L822.212 27.2059 L836.39 62.6918 L850.568 27.2059 L858.467 27.2059 L838.537 76.7889 Z" fill="#000000" fill-rule="evenodd" fill-opacity="1" /><path clip-path="url(#clip380)" d="M927.697 49.9314 Q927.697 41.7081 924.295 37.0496 Q920.932 32.3505 915.018 32.3505 Q909.104 32.3505 905.701 37.0496 Q902.339 41.7081 902.339 49.9314 Q902.339 58.1548 905.701 62.8538 Q909.104 67.5124 915.018 67.5124 Q920.932 67.5124 924.295 62.8538 Q927.697 58.1548 927.697 49.9314 M902.339 34.0924 Q904.688 30.0415 908.253 28.0971 Q911.858 26.1121 916.841 26.1121 Q925.105 26.1121 930.249 32.6746 Q935.435 39.2371 935.435 49.9314 Q935.435 60.6258 930.249 67.1883 Q925.105 73.7508 916.841 73.7508 Q911.858 73.7508 908.253 71.8063 Q904.688 69.8214 902.339 65.7705 L902.339 72.576 L894.845 72.576 L894.845 9.54393 L902.339 9.54393 L902.339 34.0924 Z" fill="#000000" fill-rule="evenodd" fill-opacity="1" /><path clip-path="url(#clip380)" d="M965.371 32.4315 Q959.375 32.4315 955.892 37.1306 Q952.408 41.7891 952.408 49.9314 Q952.408 58.0738 955.851 62.7728 Q959.335 67.4314 965.371 67.4314 Q971.326 67.4314 974.809 62.7323 Q978.293 58.0333 978.293 49.9314 Q978.293 41.8701 974.809 37.1711 Q971.326 32.4315 965.371 32.4315 M965.371 26.1121 Q975.093 26.1121 980.643 32.4315 Q986.192 38.7509 986.192 49.9314 Q986.192 61.0714 980.643 67.4314 Q975.093 73.7508 965.371 73.7508 Q955.608 73.7508 950.058 67.4314 Q944.549 61.0714 944.549 49.9314 Q944.549 38.7509 950.058 32.4315 Q955.608 26.1121 965.371 26.1121 Z" fill="#000000" fill-rule="evenodd" fill-opacity="1" /><path clip-path="url(#clip380)" d="M1028.4 34.0924 L1028.4 9.54393 L1035.86 9.54393 L1035.86 72.576 L1028.4 72.576 L1028.4 65.7705 Q1026.05 69.8214 1022.45 71.8063 Q1018.88 73.7508 1013.86 73.7508 Q1005.64 73.7508 1000.45 67.1883 Q995.307 60.6258 995.307 49.9314 Q995.307 39.2371 1000.45 32.6746 Q1005.64 26.1121 1013.86 26.1121 Q1018.88 26.1121 1022.45 28.0971 Q1026.05 30.0415 1028.4 34.0924 M1003 49.9314 Q1003 58.1548 1006.37 62.8538 Q1009.77 67.5124 1015.68 67.5124 Q1021.6 67.5124 1025 62.8538 Q1028.4 58.1548 1028.4 49.9314 Q1028.4 41.7081 1025 37.0496 Q1021.6 32.3505 1015.68 32.3505 Q1009.77 32.3505 1006.37 37.0496 Q1003 41.7081 1003 49.9314 Z" fill="#000000" fill-rule="evenodd" fill-opacity="1" /><path clip-path="url(#clip380)" d="M1070.09 76.7889 Q1066.93 84.8907 1063.93 87.3618 Q1060.93 89.8329 1055.91 89.8329 L1049.95 89.8329 L1049.95 83.5945 L1054.33 83.5945 Q1057.41 83.5945 1059.11 82.1361 Q1060.81 80.6778 1062.88 75.2496 L1064.21 71.8468 L1045.86 27.2059 L1053.76 27.2059 L1067.94 62.6918 L1082.12 27.2059 L1090.02 27.2059 L1070.09 76.7889 Z" fill="#000000" fill-rule="evenodd" fill-opacity="1" /><circle clip-path="url(#clip382)" cx="302.018" cy="1673.84" r="14.4" fill="#009af9" fill-rule="evenodd" fill-opacity="1" stroke="#000000" stroke-opacity="1" stroke-width="3.84"/>
<circle clip-path="url(#clip382)" cx="307.398" cy="1564.66" r="14.4" fill="#009af9" fill-rule="evenodd" fill-opacity="1" stroke="#000000" stroke-opacity="1" stroke-width="3.84"/>
<circle clip-path="url(#clip382)" cx="302.424" cy="1644.53" r="14.4" fill="#009af9" fill-rule="evenodd" fill-opacity="1" stroke="#000000" stroke-opacity="1" stroke-width="3.84"/>
<circle clip-path="url(#clip382)" cx="302.324" cy="1645.71" r="14.4" fill="#009af9" fill-rule="evenodd" fill-opacity="1" stroke="#000000" stroke-opacity="1" stroke-width="3.84"/>
<circle clip-path="url(#clip382)" cx="302.015" cy="1674.52" r="14.4" fill="#009af9" fill-rule="evenodd" fill-opacity="1" stroke="#000000" stroke-opacity="1" stroke-width="3.84"/>
<circle clip-path="url(#clip382)" cx="437.759" cy="1662.81" r="14.4" fill="#009af9" fill-rule="evenodd" fill-opacity="1" stroke="#000000" stroke-opacity="1" stroke-width="3.84"/>
<circle clip-path="url(#clip382)" cx="331.556" cy="464.711" r="14.4" fill="#009af9" fill-rule="evenodd" fill-opacity="1" stroke="#000000" stroke-opacity="1" stroke-width="3.84"/>
<circle clip-path="url(#clip382)" cx="304.174" cy="1565.71" r="14.4" fill="#009af9" fill-rule="evenodd" fill-opacity="1" stroke="#000000" stroke-opacity="1" stroke-width="3.84"/>
<circle clip-path="url(#clip382)" cx="308.048" cy="1503.61" r="14.4" fill="#009af9" fill-rule="evenodd" fill-opacity="1" stroke="#000000" stroke-opacity="1" stroke-width="3.84"/>
<circle clip-path="url(#clip382)" cx="302.119" cy="1645.71" r="14.4" fill="#009af9" fill-rule="evenodd" fill-opacity="1" stroke="#000000" stroke-opacity="1" stroke-width="3.84"/>
<circle clip-path="url(#clip382)" cx="302.041" cy="1669.24" r="14.4" fill="#009af9" fill-rule="evenodd" fill-opacity="1" stroke="#000000" stroke-opacity="1" stroke-width="3.84"/>
<circle clip-path="url(#clip382)" cx="308.141" cy="1497.03" r="14.4" fill="#009af9" fill-rule="evenodd" fill-opacity="1" stroke="#000000" stroke-opacity="1" stroke-width="3.84"/>
<circle clip-path="url(#clip382)" cx="304.405" cy="1569.13" r="14.4" fill="#009af9" fill-rule="evenodd" fill-opacity="1" stroke="#000000" stroke-opacity="1" stroke-width="3.84"/>
<circle clip-path="url(#clip382)" cx="302.722" cy="1328.62" r="14.4" fill="#009af9" fill-rule="evenodd" fill-opacity="1" stroke="#000000" stroke-opacity="1" stroke-width="3.84"/>
<circle clip-path="url(#clip382)" cx="379.21" cy="172.882" r="14.4" fill="#009af9" fill-rule="evenodd" fill-opacity="1" stroke="#000000" stroke-opacity="1" stroke-width="3.84"/>
<circle clip-path="url(#clip382)" cx="411.072" cy="1657.55" r="14.4" fill="#009af9" fill-rule="evenodd" fill-opacity="1" stroke="#000000" stroke-opacity="1" stroke-width="3.84"/>
<circle clip-path="url(#clip382)" cx="302.082" cy="1628.87" r="14.4" fill="#009af9" fill-rule="evenodd" fill-opacity="1" stroke="#000000" stroke-opacity="1" stroke-width="3.84"/>
<circle clip-path="url(#clip382)" cx="302.409" cy="1661.24" r="14.4" fill="#009af9" fill-rule="evenodd" fill-opacity="1" stroke="#000000" stroke-opacity="1" stroke-width="3.84"/>
<circle clip-path="url(#clip382)" cx="302.004" cy="1675.71" r="14.4" fill="#009af9" fill-rule="evenodd" fill-opacity="1" stroke="#000000" stroke-opacity="1" stroke-width="3.84"/>
<circle clip-path="url(#clip382)" cx="302.003" cy="1675.87" r="14.4" fill="#009af9" fill-rule="evenodd" fill-opacity="1" stroke="#000000" stroke-opacity="1" stroke-width="3.84"/>
<circle clip-path="url(#clip382)" cx="302.032" cy="1672.79" r="14.4" fill="#009af9" fill-rule="evenodd" fill-opacity="1" stroke="#000000" stroke-opacity="1" stroke-width="3.84"/>
<circle clip-path="url(#clip382)" cx="302.647" cy="1629.92" r="14.4" fill="#009af9" fill-rule="evenodd" fill-opacity="1" stroke="#000000" stroke-opacity="1" stroke-width="3.84"/>
<circle clip-path="url(#clip382)" cx="303.163" cy="1634.66" r="14.4" fill="#009af9" fill-rule="evenodd" fill-opacity="1" stroke="#000000" stroke-opacity="1" stroke-width="3.84"/>
<circle clip-path="url(#clip382)" cx="302.608" cy="1560.19" r="14.4" fill="#009af9" fill-rule="evenodd" fill-opacity="1" stroke="#000000" stroke-opacity="1" stroke-width="3.84"/>
<circle clip-path="url(#clip382)" cx="302.006" cy="1675.47" r="14.4" fill="#009af9" fill-rule="evenodd" fill-opacity="1" stroke="#000000" stroke-opacity="1" stroke-width="3.84"/>
<circle clip-path="url(#clip382)" cx="1311.47" cy="1635.32" r="14.4" fill="#009af9" fill-rule="evenodd" fill-opacity="1" stroke="#000000" stroke-opacity="1" stroke-width="3.84"/>
<circle clip-path="url(#clip382)" cx="302.004" cy="1675.18" r="14.4" fill="#009af9" fill-rule="evenodd" fill-opacity="1" stroke="#000000" stroke-opacity="1" stroke-width="3.84"/>
<circle clip-path="url(#clip382)" cx="304.231" cy="1628.61" r="14.4" fill="#009af9" fill-rule="evenodd" fill-opacity="1" stroke="#000000" stroke-opacity="1" stroke-width="3.84"/>
<path clip-path="url(#clip380)" d="
M1570.72 1720.96 L2640.76 1720.96 L2640.76 127.792 L1570.72 127.792  Z
  " fill="#ffffff" fill-rule="evenodd" fill-opacity="1"/>
<defs>
  <clipPath id="clip383">
    <rect x="1570" y="127" width="1071" height="1594"/>
  </clipPath>
</defs>
<polyline clip-path="url(#clip383)" style="stroke:#000000; stroke-linecap:round; stroke-linejoin:round; stroke-width:2; stroke-opacity:0.1; fill:none" points="
  1652.47,1720.96 1652.47,127.792 
  "/>
<polyline clip-path="url(#clip383)" style="stroke:#000000; stroke-linecap:round; stroke-linejoin:round; stroke-width:2; stroke-opacity:0.1; fill:none" points="
  1852.42,1720.96 1852.42,127.792 
  "/>
<polyline clip-path="url(#clip383)" style="stroke:#000000; stroke-linecap:round; stroke-linejoin:round; stroke-width:2; stroke-opacity:0.1; fill:none" points="
  2052.37,1720.96 2052.37,127.792 
  "/>
<polyline clip-path="url(#clip383)" style="stroke:#000000; stroke-linecap:round; stroke-linejoin:round; stroke-width:2; stroke-opacity:0.1; fill:none" points="
  2252.32,1720.96 2252.32,127.792 
  "/>
<polyline clip-path="url(#clip383)" style="stroke:#000000; stroke-linecap:round; stroke-linejoin:round; stroke-width:2; stroke-opacity:0.1; fill:none" points="
  2452.27,1720.96 2452.27,127.792 
  "/>
<polyline clip-path="url(#clip380)" style="stroke:#000000; stroke-linecap:round; stroke-linejoin:round; stroke-width:4; stroke-opacity:1; fill:none" points="
  1570.72,1720.96 2640.76,1720.96 
  "/>
<polyline clip-path="url(#clip380)" style="stroke:#000000; stroke-linecap:round; stroke-linejoin:round; stroke-width:4; stroke-opacity:1; fill:none" points="
  1652.47,1720.96 1652.47,1702.06 
  "/>
<polyline clip-path="url(#clip380)" style="stroke:#000000; stroke-linecap:round; stroke-linejoin:round; stroke-width:4; stroke-opacity:1; fill:none" points="
  1852.42,1720.96 1852.42,1702.06 
  "/>
<polyline clip-path="url(#clip380)" style="stroke:#000000; stroke-linecap:round; stroke-linejoin:round; stroke-width:4; stroke-opacity:1; fill:none" points="
  2052.37,1720.96 2052.37,1702.06 
  "/>
<polyline clip-path="url(#clip380)" style="stroke:#000000; stroke-linecap:round; stroke-linejoin:round; stroke-width:4; stroke-opacity:1; fill:none" points="
  2252.32,1720.96 2252.32,1702.06 
  "/>
<polyline clip-path="url(#clip380)" style="stroke:#000000; stroke-linecap:round; stroke-linejoin:round; stroke-width:4; stroke-opacity:1; fill:none" points="
  2452.27,1720.96 2452.27,1702.06 
  "/>
<path clip-path="url(#clip380)" d="M1621.94 1768.83 L1651.62 1768.83 L1651.62 1772.77 L1621.94 1772.77 L1621.94 1768.83 Z" fill="#000000" fill-rule="evenodd" fill-opacity="1" /><path clip-path="url(#clip380)" d="M1675.88 1767.03 Q1679.23 1767.74 1681.11 1770.01 Q1683.01 1772.28 1683.01 1775.61 Q1683.01 1780.73 1679.49 1783.53 Q1675.97 1786.33 1669.49 1786.33 Q1667.31 1786.33 1665 1785.89 Q1662.71 1785.48 1660.25 1784.62 L1660.25 1780.1 Q1662.2 1781.24 1664.51 1781.82 Q1666.83 1782.4 1669.35 1782.4 Q1673.75 1782.4 1676.04 1780.66 Q1678.35 1778.92 1678.35 1775.61 Q1678.35 1772.56 1676.2 1770.85 Q1674.07 1769.11 1670.25 1769.11 L1666.22 1769.11 L1666.22 1765.27 L1670.44 1765.27 Q1673.89 1765.27 1675.71 1763.9 Q1677.54 1762.51 1677.54 1759.92 Q1677.54 1757.26 1675.65 1755.85 Q1673.77 1754.41 1670.25 1754.41 Q1668.33 1754.41 1666.13 1754.83 Q1663.93 1755.24 1661.29 1756.12 L1661.29 1751.96 Q1663.96 1751.22 1666.27 1750.85 Q1668.61 1750.48 1670.67 1750.48 Q1675.99 1750.48 1679.09 1752.91 Q1682.2 1755.31 1682.2 1759.43 Q1682.2 1762.3 1680.55 1764.29 Q1678.91 1766.26 1675.88 1767.03 Z" fill="#000000" fill-rule="evenodd" fill-opacity="1" /><path clip-path="url(#clip380)" d="M1852.42 1754.18 Q1848.81 1754.18 1846.98 1757.74 Q1845.18 1761.29 1845.18 1768.42 Q1845.18 1775.52 1846.98 1779.09 Q1848.81 1782.63 1852.42 1782.63 Q1856.06 1782.63 1857.86 1779.09 Q1859.69 1775.52 1859.69 1768.42 Q1859.69 1761.29 1857.86 1757.74 Q1856.06 1754.18 1852.42 1754.18 M1852.42 1750.48 Q1858.23 1750.48 1861.29 1755.08 Q1864.37 1759.67 1864.37 1768.42 Q1864.37 1777.14 1861.29 1781.75 Q1858.23 1786.33 1852.42 1786.33 Q1846.61 1786.33 1843.53 1781.75 Q1840.48 1777.14 1840.48 1768.42 Q1840.48 1759.67 1843.53 1755.08 Q1846.61 1750.48 1852.42 1750.48 Z" fill="#000000" fill-rule="evenodd" fill-opacity="1" /><path clip-path="url(#clip380)" d="M2056.62 1767.03 Q2059.98 1767.74 2061.85 1770.01 Q2063.75 1772.28 2063.75 1775.61 Q2063.75 1780.73 2060.23 1783.53 Q2056.71 1786.33 2050.23 1786.33 Q2048.05 1786.33 2045.74 1785.89 Q2043.45 1785.48 2040.99 1784.62 L2040.99 1780.1 Q2042.94 1781.24 2045.25 1781.82 Q2047.57 1782.4 2050.09 1782.4 Q2054.49 1782.4 2056.78 1780.66 Q2059.1 1778.92 2059.1 1775.61 Q2059.1 1772.56 2056.94 1770.85 Q2054.81 1769.11 2050.99 1769.11 L2046.97 1769.11 L2046.97 1765.27 L2051.18 1765.27 Q2054.63 1765.27 2056.46 1763.9 Q2058.29 1762.51 2058.29 1759.92 Q2058.29 1757.26 2056.39 1755.85 Q2054.51 1754.41 2050.99 1754.41 Q2049.07 1754.41 2046.87 1754.83 Q2044.67 1755.24 2042.04 1756.12 L2042.04 1751.96 Q2044.7 1751.22 2047.01 1750.85 Q2049.35 1750.48 2051.41 1750.48 Q2056.73 1750.48 2059.84 1752.91 Q2062.94 1755.31 2062.94 1759.43 Q2062.94 1762.3 2061.29 1764.29 Q2059.65 1766.26 2056.62 1767.03 Z" fill="#000000" fill-rule="evenodd" fill-opacity="1" /><path clip-path="url(#clip380)" d="M2252.72 1766.52 Q2249.58 1766.52 2247.72 1768.67 Q2245.9 1770.82 2245.9 1774.57 Q2245.9 1778.3 2247.72 1780.48 Q2249.58 1782.63 2252.72 1782.63 Q2255.87 1782.63 2257.7 1780.48 Q2259.55 1778.3 2259.55 1774.57 Q2259.55 1770.82 2257.7 1768.67 Q2255.87 1766.52 2252.72 1766.52 M2262.01 1751.86 L2262.01 1756.12 Q2260.25 1755.29 2258.44 1754.85 Q2256.66 1754.41 2254.9 1754.41 Q2250.27 1754.41 2247.82 1757.54 Q2245.39 1760.66 2245.04 1766.98 Q2246.41 1764.97 2248.47 1763.9 Q2250.53 1762.81 2253 1762.81 Q2258.21 1762.81 2261.22 1765.98 Q2264.25 1769.13 2264.25 1774.57 Q2264.25 1779.9 2261.1 1783.11 Q2257.96 1786.33 2252.72 1786.33 Q2246.73 1786.33 2243.56 1781.75 Q2240.39 1777.14 2240.39 1768.42 Q2240.39 1760.22 2244.28 1755.36 Q2248.16 1750.48 2254.72 1750.48 Q2256.47 1750.48 2258.26 1750.82 Q2260.06 1751.17 2262.01 1751.86 Z" fill="#000000" fill-rule="evenodd" fill-opacity="1" /><path clip-path="url(#clip380)" d="M2442.57 1784.94 L2442.57 1780.68 Q2444.33 1781.52 2446.13 1781.96 Q2447.94 1782.4 2449.68 1782.4 Q2454.31 1782.4 2456.74 1779.29 Q2459.19 1776.17 2459.54 1769.83 Q2458.19 1771.82 2456.13 1772.88 Q2454.07 1773.95 2451.57 1773.95 Q2446.39 1773.95 2443.36 1770.82 Q2440.35 1767.67 2440.35 1762.23 Q2440.35 1756.91 2443.5 1753.69 Q2446.64 1750.48 2451.87 1750.48 Q2457.87 1750.48 2461.02 1755.08 Q2464.19 1759.67 2464.19 1768.42 Q2464.19 1776.59 2460.3 1781.47 Q2456.43 1786.33 2449.88 1786.33 Q2448.12 1786.33 2446.32 1785.98 Q2444.51 1785.64 2442.57 1784.94 M2451.87 1770.29 Q2455.02 1770.29 2456.85 1768.14 Q2458.7 1765.98 2458.7 1762.23 Q2458.7 1758.51 2456.85 1756.36 Q2455.02 1754.18 2451.87 1754.18 Q2448.73 1754.18 2446.87 1756.36 Q2445.05 1758.51 2445.05 1762.23 Q2445.05 1765.98 2446.87 1768.14 Q2448.73 1770.29 2451.87 1770.29 Z" fill="#000000" fill-rule="evenodd" fill-opacity="1" /><path clip-path="url(#clip380)" d="M1954.22 1820.62 L1960.07 1820.62 L1960.07 1870.14 L1954.22 1870.14 L1954.22 1820.62 Z" fill="#000000" fill-rule="evenodd" fill-opacity="1" /><path clip-path="url(#clip380)" d="M1986.14 1838.6 Q1981.43 1838.6 1978.69 1842.29 Q1975.96 1845.95 1975.96 1852.35 Q1975.96 1858.75 1978.66 1862.44 Q1981.4 1866.1 1986.14 1866.1 Q1990.82 1866.1 1993.56 1862.41 Q1996.3 1858.71 1996.3 1852.35 Q1996.3 1846.01 1993.56 1842.32 Q1990.82 1838.6 1986.14 1838.6 M1986.14 1833.63 Q1993.78 1833.63 1998.14 1838.6 Q2002.5 1843.56 2002.5 1852.35 Q2002.5 1861.1 1998.14 1866.1 Q1993.78 1871.06 1986.14 1871.06 Q1978.47 1871.06 1974.11 1866.1 Q1969.78 1861.1 1969.78 1852.35 Q1969.78 1843.56 1974.11 1838.6 Q1978.47 1833.63 1986.14 1833.63 Z" fill="#000000" fill-rule="evenodd" fill-opacity="1" /><path clip-path="url(#clip380)" d="M2035.67 1851.9 Q2035.67 1845.54 2033.03 1842.04 Q2030.42 1838.53 2025.67 1838.53 Q2020.96 1838.53 2018.32 1842.04 Q2015.71 1845.54 2015.71 1851.9 Q2015.71 1858.24 2018.32 1861.74 Q2020.96 1865.24 2025.67 1865.24 Q2030.42 1865.24 2033.03 1861.74 Q2035.67 1858.24 2035.67 1851.9 M2041.52 1865.72 Q2041.52 1874.82 2037.48 1879.24 Q2033.44 1883.7 2025.1 1883.7 Q2022.01 1883.7 2019.28 1883.22 Q2016.54 1882.78 2013.96 1881.82 L2013.96 1876.12 Q2016.54 1877.52 2019.05 1878.19 Q2021.57 1878.86 2024.18 1878.86 Q2029.94 1878.86 2032.8 1875.84 Q2035.67 1872.85 2035.67 1866.77 L2035.67 1863.87 Q2033.85 1867.02 2031.02 1868.58 Q2028.19 1870.14 2024.24 1870.14 Q2017.68 1870.14 2013.67 1865.14 Q2009.66 1860.15 2009.66 1851.9 Q2009.66 1843.63 2013.67 1838.63 Q2017.68 1833.63 2024.24 1833.63 Q2028.19 1833.63 2031.02 1835.19 Q2033.85 1836.75 2035.67 1839.9 L2035.67 1834.49 L2041.52 1834.49 L2041.52 1865.72 Z" fill="#000000" fill-rule="evenodd" fill-opacity="1" /><path clip-path="url(#clip380)" d="M2067.65 1820.68 Q2063.39 1828 2061.32 1835.16 Q2059.25 1842.32 2059.25 1849.67 Q2059.25 1857.03 2061.32 1864.25 Q2063.42 1871.45 2067.65 1878.73 L2062.56 1878.73 Q2057.79 1871.25 2055.4 1864.03 Q2053.05 1856.8 2053.05 1849.67 Q2053.05 1842.58 2055.4 1835.38 Q2057.76 1828.19 2062.56 1820.68 L2067.65 1820.68 Z" fill="#000000" fill-rule="evenodd" fill-opacity="1" /><path clip-path="url(#clip380)" d="M2085.7 1847.45 L2085.7 1864.86 L2096.01 1864.86 Q2101.2 1864.86 2103.68 1862.72 Q2106.2 1860.56 2106.2 1856.14 Q2106.2 1851.68 2103.68 1849.58 Q2101.2 1847.45 2096.01 1847.45 L2085.7 1847.45 M2085.7 1827.9 L2085.7 1842.23 L2095.22 1842.23 Q2099.93 1842.23 2102.22 1840.48 Q2104.54 1838.69 2104.54 1835.07 Q2104.54 1831.47 2102.22 1829.69 Q2099.93 1827.9 2095.22 1827.9 L2085.7 1827.9 M2079.27 1822.62 L2095.7 1822.62 Q2103.05 1822.62 2107.03 1825.68 Q2111.01 1828.73 2111.01 1834.37 Q2111.01 1838.73 2108.97 1841.3 Q2106.93 1843.88 2102.98 1844.52 Q2107.73 1845.54 2110.34 1848.78 Q2112.98 1852 2112.98 1856.84 Q2112.98 1863.2 2108.65 1866.67 Q2104.32 1870.14 2096.33 1870.14 L2079.27 1870.14 L2079.27 1822.62 Z" fill="#000000" fill-rule="evenodd" fill-opacity="1" /><path clip-path="url(#clip380)" d="M2137.55 1838.6 Q2132.84 1838.6 2130.1 1842.29 Q2127.37 1845.95 2127.37 1852.35 Q2127.37 1858.75 2130.07 1862.44 Q2132.81 1866.1 2137.55 1866.1 Q2142.23 1866.1 2144.97 1862.41 Q2147.7 1858.71 2147.7 1852.35 Q2147.7 1846.01 2144.97 1842.32 Q2142.23 1838.6 2137.55 1838.6 M2137.55 1833.63 Q2145.19 1833.63 2149.55 1838.6 Q2153.91 1843.56 2153.91 1852.35 Q2153.91 1861.1 2149.55 1866.1 Q2145.19 1871.06 2137.55 1871.06 Q2129.88 1871.06 2125.52 1866.1 Q2121.19 1861.1 2121.19 1852.35 Q2121.19 1843.56 2125.52 1838.6 Q2129.88 1833.63 2137.55 1833.63 Z" fill="#000000" fill-rule="evenodd" fill-opacity="1" /><path clip-path="url(#clip380)" d="M2187.08 1839.9 L2187.08 1820.62 L2192.93 1820.62 L2192.93 1870.14 L2187.08 1870.14 L2187.08 1864.79 Q2185.23 1867.98 2182.4 1869.54 Q2179.6 1871.06 2175.65 1871.06 Q2169.19 1871.06 2165.11 1865.91 Q2161.07 1860.75 2161.07 1852.35 Q2161.07 1843.95 2165.11 1838.79 Q2169.19 1833.63 2175.65 1833.63 Q2179.6 1833.63 2182.4 1835.19 Q2185.23 1836.72 2187.08 1839.9 M2167.12 1852.35 Q2167.12 1858.81 2169.76 1862.5 Q2172.43 1866.16 2177.08 1866.16 Q2181.73 1866.16 2184.4 1862.5 Q2187.08 1858.81 2187.08 1852.35 Q2187.08 1845.89 2184.4 1842.23 Q2181.73 1838.53 2177.08 1838.53 Q2172.43 1838.53 2169.76 1842.23 Q2167.12 1845.89 2167.12 1852.35 Z" fill="#000000" fill-rule="evenodd" fill-opacity="1" /><path clip-path="url(#clip380)" d="M2219.83 1873.45 Q2217.34 1879.82 2214.99 1881.76 Q2212.63 1883.7 2208.69 1883.7 L2204.01 1883.7 L2204.01 1878.8 L2207.45 1878.8 Q2209.86 1878.8 2211.2 1877.65 Q2212.54 1876.51 2214.16 1872.24 L2215.21 1869.57 L2200.79 1834.49 L2207 1834.49 L2218.14 1862.37 L2229.28 1834.49 L2235.49 1834.49 L2219.83 1873.45 Z" fill="#000000" fill-rule="evenodd" fill-opacity="1" /><path clip-path="url(#clip380)" d="M2242.65 1820.68 L2247.74 1820.68 Q2252.51 1828.19 2254.87 1835.38 Q2257.26 1842.58 2257.26 1849.67 Q2257.26 1856.8 2254.87 1864.03 Q2252.51 1871.25 2247.74 1878.73 L2242.65 1878.73 Q2246.88 1871.45 2248.95 1864.25 Q2251.05 1857.03 2251.05 1849.67 Q2251.05 1842.32 2248.95 1835.16 Q2246.88 1828 2242.65 1820.68 Z" fill="#000000" fill-rule="evenodd" fill-opacity="1" /><polyline clip-path="url(#clip383)" style="stroke:#000000; stroke-linecap:round; stroke-linejoin:round; stroke-width:2; stroke-opacity:0.1; fill:none" points="
  1570.72,1531.91 2640.76,1531.91 
  "/>
<polyline clip-path="url(#clip383)" style="stroke:#000000; stroke-linecap:round; stroke-linejoin:round; stroke-width:2; stroke-opacity:0.1; fill:none" points="
  1570.72,1217.7 2640.76,1217.7 
  "/>
<polyline clip-path="url(#clip383)" style="stroke:#000000; stroke-linecap:round; stroke-linejoin:round; stroke-width:2; stroke-opacity:0.1; fill:none" points="
  1570.72,903.482 2640.76,903.482 
  "/>
<polyline clip-path="url(#clip383)" style="stroke:#000000; stroke-linecap:round; stroke-linejoin:round; stroke-width:2; stroke-opacity:0.1; fill:none" points="
  1570.72,589.267 2640.76,589.267 
  "/>
<polyline clip-path="url(#clip383)" style="stroke:#000000; stroke-linecap:round; stroke-linejoin:round; stroke-width:2; stroke-opacity:0.1; fill:none" points="
  1570.72,275.052 2640.76,275.052 
  "/>
<polyline clip-path="url(#clip380)" style="stroke:#000000; stroke-linecap:round; stroke-linejoin:round; stroke-width:4; stroke-opacity:1; fill:none" points="
  1570.72,1720.96 1570.72,127.792 
  "/>
<polyline clip-path="url(#clip380)" style="stroke:#000000; stroke-linecap:round; stroke-linejoin:round; stroke-width:4; stroke-opacity:1; fill:none" points="
  1570.72,1531.91 1589.62,1531.91 
  "/>
<polyline clip-path="url(#clip380)" style="stroke:#000000; stroke-linecap:round; stroke-linejoin:round; stroke-width:4; stroke-opacity:1; fill:none" points="
  1570.72,1217.7 1589.62,1217.7 
  "/>
<polyline clip-path="url(#clip380)" style="stroke:#000000; stroke-linecap:round; stroke-linejoin:round; stroke-width:4; stroke-opacity:1; fill:none" points="
  1570.72,903.482 1589.62,903.482 
  "/>
<polyline clip-path="url(#clip380)" style="stroke:#000000; stroke-linecap:round; stroke-linejoin:round; stroke-width:4; stroke-opacity:1; fill:none" points="
  1570.72,589.267 1589.62,589.267 
  "/>
<polyline clip-path="url(#clip380)" style="stroke:#000000; stroke-linecap:round; stroke-linejoin:round; stroke-width:4; stroke-opacity:1; fill:none" points="
  1570.72,275.052 1589.62,275.052 
  "/>
<path clip-path="url(#clip380)" d="M1518.45 1517.71 Q1514.84 1517.71 1513.02 1521.27 Q1511.21 1524.82 1511.21 1531.95 Q1511.21 1539.05 1513.02 1542.62 Q1514.84 1546.16 1518.45 1546.16 Q1522.09 1546.16 1523.89 1542.62 Q1525.72 1539.05 1525.72 1531.95 Q1525.72 1524.82 1523.89 1521.27 Q1522.09 1517.71 1518.45 1517.71 M1518.45 1514.01 Q1524.27 1514.01 1527.32 1518.61 Q1530.4 1523.2 1530.4 1531.95 Q1530.4 1540.67 1527.32 1545.28 Q1524.27 1549.86 1518.45 1549.86 Q1512.64 1549.86 1509.57 1545.28 Q1506.51 1540.67 1506.51 1531.95 Q1506.51 1523.2 1509.57 1518.61 Q1512.64 1514.01 1518.45 1514.01 Z" fill="#000000" fill-rule="evenodd" fill-opacity="1" /><path clip-path="url(#clip380)" d="M1514.08 1231.04 L1530.4 1231.04 L1530.4 1234.98 L1508.45 1234.98 L1508.45 1231.04 Q1511.12 1228.29 1515.7 1223.66 Q1520.31 1219 1521.49 1217.66 Q1523.73 1215.14 1524.61 1213.4 Q1525.52 1211.64 1525.52 1209.95 Q1525.52 1207.2 1523.57 1205.46 Q1521.65 1203.73 1518.55 1203.73 Q1516.35 1203.73 1513.89 1204.49 Q1511.46 1205.25 1508.69 1206.81 L1508.69 1202.08 Q1511.51 1200.95 1513.96 1200.37 Q1516.42 1199.79 1518.45 1199.79 Q1523.83 1199.79 1527.02 1202.48 Q1530.21 1205.16 1530.21 1209.65 Q1530.21 1211.78 1529.4 1213.7 Q1528.62 1215.6 1526.51 1218.19 Q1525.93 1218.87 1522.83 1222.08 Q1519.73 1225.28 1514.08 1231.04 Z" fill="#000000" fill-rule="evenodd" fill-opacity="1" /><path clip-path="url(#clip380)" d="M1520.82 890.276 L1509.01 908.725 L1520.82 908.725 L1520.82 890.276 M1519.59 886.202 L1525.47 886.202 L1525.47 908.725 L1530.4 908.725 L1530.4 912.614 L1525.47 912.614 L1525.47 920.762 L1520.82 920.762 L1520.82 912.614 L1505.21 912.614 L1505.21 908.1 L1519.59 886.202 Z" fill="#000000" fill-rule="evenodd" fill-opacity="1" /><path clip-path="url(#clip380)" d="M1518.87 587.404 Q1515.72 587.404 1513.87 589.556 Q1512.04 591.709 1512.04 595.459 Q1512.04 599.186 1513.87 601.362 Q1515.72 603.515 1518.87 603.515 Q1522.02 603.515 1523.85 601.362 Q1525.7 599.186 1525.7 595.459 Q1525.7 591.709 1523.85 589.556 Q1522.02 587.404 1518.87 587.404 M1528.15 572.751 L1528.15 577.01 Q1526.39 576.177 1524.59 575.737 Q1522.81 575.297 1521.05 575.297 Q1516.42 575.297 1513.96 578.422 Q1511.53 581.547 1511.19 587.867 Q1512.55 585.853 1514.61 584.788 Q1516.67 583.7 1519.15 583.7 Q1524.36 583.7 1527.37 586.871 Q1530.4 590.019 1530.4 595.459 Q1530.4 600.783 1527.25 604.001 Q1524.1 607.218 1518.87 607.218 Q1512.88 607.218 1509.7 602.635 Q1506.53 598.029 1506.53 589.302 Q1506.53 581.107 1510.42 576.246 Q1514.31 571.362 1520.86 571.362 Q1522.62 571.362 1524.4 571.709 Q1526.21 572.056 1528.15 572.751 Z" fill="#000000" fill-rule="evenodd" fill-opacity="1" /><path clip-path="url(#clip380)" d="M1518.55 275.92 Q1515.21 275.92 1513.29 277.703 Q1511.39 279.485 1511.39 282.61 Q1511.39 285.735 1513.29 287.518 Q1515.21 289.3 1518.55 289.3 Q1521.88 289.3 1523.8 287.518 Q1525.72 285.712 1525.72 282.61 Q1525.72 279.485 1523.8 277.703 Q1521.9 275.92 1518.55 275.92 M1513.87 273.93 Q1510.86 273.189 1509.17 271.129 Q1507.51 269.069 1507.51 266.106 Q1507.51 261.962 1510.45 259.555 Q1513.41 257.147 1518.55 257.147 Q1523.71 257.147 1526.65 259.555 Q1529.59 261.962 1529.59 266.106 Q1529.59 269.069 1527.9 271.129 Q1526.23 273.189 1523.25 273.93 Q1526.63 274.717 1528.5 277.008 Q1530.4 279.3 1530.4 282.61 Q1530.4 287.633 1527.32 290.319 Q1524.27 293.004 1518.55 293.004 Q1512.83 293.004 1509.75 290.319 Q1506.7 287.633 1506.7 282.61 Q1506.7 279.3 1508.59 277.008 Q1510.49 274.717 1513.87 273.93 M1512.16 266.546 Q1512.16 269.231 1513.83 270.735 Q1515.52 272.24 1518.55 272.24 Q1521.56 272.24 1523.25 270.735 Q1524.96 269.231 1524.96 266.546 Q1524.96 263.86 1523.25 262.356 Q1521.56 260.851 1518.55 260.851 Q1515.52 260.851 1513.83 262.356 Q1512.16 263.86 1512.16 266.546 Z" fill="#000000" fill-rule="evenodd" fill-opacity="1" /><path clip-path="url(#clip380)" d="M1401.11 1079.06 L1401.11 1073.2 L1450.64 1073.2 L1450.64 1079.06 L1401.11 1079.06 Z" fill="#000000" fill-rule="evenodd" fill-opacity="1" /><path clip-path="url(#clip380)" d="M1419.1 1047.14 Q1419.1 1051.85 1422.79 1054.58 Q1426.45 1057.32 1432.85 1057.32 Q1439.24 1057.32 1442.94 1054.62 Q1446.6 1051.88 1446.6 1047.14 Q1446.6 1042.46 1442.9 1039.72 Q1439.21 1036.98 1432.85 1036.98 Q1426.51 1036.98 1422.82 1039.72 Q1419.1 1042.46 1419.1 1047.14 M1414.13 1047.14 Q1414.13 1039.5 1419.1 1035.14 Q1424.06 1030.78 1432.85 1030.78 Q1441.6 1030.78 1446.6 1035.14 Q1451.56 1039.5 1451.56 1047.14 Q1451.56 1054.81 1446.6 1059.17 Q1441.6 1063.5 1432.85 1063.5 Q1424.06 1063.5 1419.1 1059.17 Q1414.13 1054.81 1414.13 1047.14 Z" fill="#000000" fill-rule="evenodd" fill-opacity="1" /><path clip-path="url(#clip380)" d="M1432.4 997.612 Q1426.03 997.612 1422.53 1000.25 Q1419.03 1002.86 1419.03 1007.61 Q1419.03 1012.32 1422.53 1014.96 Q1426.03 1017.57 1432.4 1017.57 Q1438.73 1017.57 1442.24 1014.96 Q1445.74 1012.32 1445.74 1007.61 Q1445.74 1002.86 1442.24 1000.25 Q1438.73 997.612 1432.4 997.612 M1446.21 991.755 Q1455.32 991.755 1459.74 995.797 Q1464.2 999.84 1464.2 1008.18 Q1464.2 1011.27 1463.72 1014 Q1463.27 1016.74 1462.32 1019.32 L1456.62 1019.32 Q1458.02 1016.74 1458.69 1014.23 Q1459.36 1011.71 1459.36 1009.1 Q1459.36 1003.34 1456.34 1000.48 Q1453.34 997.612 1447.26 997.612 L1444.37 997.612 Q1447.52 999.426 1449.08 1002.26 Q1450.64 1005.09 1450.64 1009.04 Q1450.64 1015.59 1445.64 1019.61 Q1440.64 1023.62 1432.4 1023.62 Q1424.13 1023.62 1419.13 1019.61 Q1414.13 1015.59 1414.13 1009.04 Q1414.13 1005.09 1415.69 1002.26 Q1417.25 999.426 1420.4 997.612 L1414.99 997.612 L1414.99 991.755 L1446.21 991.755 Z" fill="#000000" fill-rule="evenodd" fill-opacity="1" /><path clip-path="url(#clip380)" d="M1401.18 965.624 Q1408.5 969.889 1415.66 971.958 Q1422.82 974.027 1430.17 974.027 Q1437.52 974.027 1444.75 971.958 Q1451.94 969.857 1459.23 965.624 L1459.23 970.717 Q1451.75 975.491 1444.53 977.878 Q1437.3 980.233 1430.17 980.233 Q1423.07 980.233 1415.88 977.878 Q1408.69 975.523 1401.18 970.717 L1401.18 965.624 Z" fill="#000000" fill-rule="evenodd" fill-opacity="1" /><path clip-path="url(#clip380)" d="M1427.94 947.577 L1445.35 947.577 L1445.35 937.265 Q1445.35 932.077 1443.22 929.594 Q1441.06 927.08 1436.63 927.08 Q1432.18 927.08 1430.08 929.594 Q1427.94 932.077 1427.94 937.265 L1427.94 947.577 M1408.4 947.577 L1422.72 947.577 L1422.72 938.061 Q1422.72 933.35 1420.97 931.058 Q1419.19 928.735 1415.56 928.735 Q1411.97 928.735 1410.18 931.058 Q1408.4 933.35 1408.4 938.061 L1408.4 947.577 M1403.12 954.007 L1403.12 937.583 Q1403.12 930.231 1406.17 926.252 Q1409.23 922.274 1414.86 922.274 Q1419.22 922.274 1421.8 924.311 Q1424.38 926.348 1425.02 930.294 Q1426.03 925.552 1429.28 922.942 Q1432.5 920.3 1437.33 920.3 Q1443.7 920.3 1447.17 924.629 Q1450.64 928.958 1450.64 936.947 L1450.64 954.007 L1403.12 954.007 Z" fill="#000000" fill-rule="evenodd" fill-opacity="1" /><path clip-path="url(#clip380)" d="M1420.46 888.885 Q1419.89 889.872 1419.64 891.05 Q1419.35 892.196 1419.35 893.596 Q1419.35 898.561 1422.6 901.235 Q1425.81 903.877 1431.86 903.877 L1450.64 903.877 L1450.64 909.765 L1414.99 909.765 L1414.99 903.877 L1420.53 903.877 Q1417.28 902.031 1415.72 899.071 Q1414.13 896.111 1414.13 891.877 Q1414.13 891.273 1414.23 890.541 Q1414.29 889.808 1414.45 888.917 L1420.46 888.885 Z" fill="#000000" fill-rule="evenodd" fill-opacity="1" /><path clip-path="url(#clip380)" d="M1432.72 866.542 Q1432.72 873.64 1434.34 876.377 Q1435.97 879.114 1439.88 879.114 Q1443 879.114 1444.85 877.077 Q1446.66 875.008 1446.66 871.475 Q1446.66 866.605 1443.22 863.677 Q1439.75 860.717 1434.02 860.717 L1432.72 860.717 L1432.72 866.542 M1430.3 854.861 L1450.64 854.861 L1450.64 860.717 L1445.23 860.717 Q1448.47 862.722 1450.03 865.714 Q1451.56 868.706 1451.56 873.035 Q1451.56 878.509 1448.51 881.756 Q1445.42 884.971 1440.26 884.971 Q1434.25 884.971 1431.19 880.96 Q1428.14 876.918 1428.14 868.929 L1428.14 860.717 L1427.56 860.717 Q1423.52 860.717 1421.32 863.391 Q1419.1 866.033 1419.1 870.839 Q1419.1 873.894 1419.83 876.791 Q1420.56 879.687 1422.02 882.361 L1416.61 882.361 Q1415.37 879.146 1414.77 876.122 Q1414.13 873.099 1414.13 870.234 Q1414.13 862.5 1418.14 858.68 Q1422.15 854.861 1430.3 854.861 Z" fill="#000000" fill-rule="evenodd" fill-opacity="1" /><path clip-path="url(#clip380)" d="M1414.99 842.798 L1414.99 836.941 L1450.64 836.941 L1450.64 842.798 L1414.99 842.798 M1401.11 842.798 L1401.11 836.941 L1408.53 836.941 L1408.53 842.798 L1401.11 842.798 Z" fill="#000000" fill-rule="evenodd" fill-opacity="1" /><path clip-path="url(#clip380)" d="M1429.12 795.055 L1450.64 795.055 L1450.64 800.911 L1429.31 800.911 Q1424.25 800.911 1421.74 802.885 Q1419.22 804.858 1419.22 808.805 Q1419.22 813.547 1422.25 816.285 Q1425.27 819.022 1430.49 819.022 L1450.64 819.022 L1450.64 824.91 L1414.99 824.91 L1414.99 819.022 L1420.53 819.022 Q1417.31 816.921 1415.72 814.088 Q1414.13 811.224 1414.13 807.5 Q1414.13 801.357 1417.95 798.206 Q1421.74 795.055 1429.12 795.055 Z" fill="#000000" fill-rule="evenodd" fill-opacity="1" /><path clip-path="url(#clip380)" d="M1401.18 784.297 L1401.18 779.204 Q1408.69 774.43 1415.88 772.075 Q1423.07 769.688 1430.17 769.688 Q1437.3 769.688 1444.53 772.075 Q1451.75 774.43 1459.23 779.204 L1459.23 784.297 Q1451.94 780.064 1444.75 777.995 Q1437.52 775.894 1430.17 775.894 Q1422.82 775.894 1415.66 777.995 Q1408.5 780.064 1401.18 784.297 Z" fill="#000000" fill-rule="evenodd" fill-opacity="1" /><path clip-path="url(#clip380)" d="M1633.42 9.54393 L1640.88 9.54393 L1640.88 72.576 L1633.42 72.576 L1633.42 9.54393 Z" fill="#000000" fill-rule="evenodd" fill-opacity="1" /><path clip-path="url(#clip380)" d="M1674.05 32.4315 Q1668.06 32.4315 1664.57 37.1306 Q1661.09 41.7891 1661.09 49.9314 Q1661.09 58.0738 1664.53 62.7728 Q1668.02 67.4314 1674.05 67.4314 Q1680.01 67.4314 1683.49 62.7323 Q1686.98 58.0333 1686.98 49.9314 Q1686.98 41.8701 1683.49 37.1711 Q1680.01 32.4315 1674.05 32.4315 M1674.05 26.1121 Q1683.78 26.1121 1689.32 32.4315 Q1694.87 38.7509 1694.87 49.9314 Q1694.87 61.0714 1689.32 67.4314 Q1683.78 73.7508 1674.05 73.7508 Q1664.29 73.7508 1658.74 67.4314 Q1653.23 61.0714 1653.23 49.9314 Q1653.23 38.7509 1658.74 32.4315 Q1664.29 26.1121 1674.05 26.1121 Z" fill="#000000" fill-rule="evenodd" fill-opacity="1" /><path clip-path="url(#clip380)" d="M1737.09 49.3643 Q1737.09 41.2625 1733.72 36.8065 Q1730.4 32.3505 1724.37 32.3505 Q1718.37 32.3505 1715.01 36.8065 Q1711.69 41.2625 1711.69 49.3643 Q1711.69 57.4256 1715.01 61.8816 Q1718.37 66.3376 1724.37 66.3376 Q1730.4 66.3376 1733.72 61.8816 Q1737.09 57.4256 1737.09 49.3643 M1744.54 66.9452 Q1744.54 78.5308 1739.39 84.1616 Q1734.25 89.8329 1723.64 89.8329 Q1719.71 89.8329 1716.22 89.2252 Q1712.74 88.6581 1709.46 87.4428 L1709.46 80.1917 Q1712.74 81.9741 1715.94 82.8248 Q1719.14 83.6755 1722.46 83.6755 Q1729.79 83.6755 1733.44 79.8271 Q1737.09 76.0193 1737.09 68.282 L1737.09 64.5957 Q1734.78 68.6061 1731.17 70.5911 Q1727.57 72.576 1722.54 72.576 Q1714.2 72.576 1709.09 66.2161 Q1703.99 59.8562 1703.99 49.3643 Q1703.99 38.832 1709.09 32.472 Q1714.2 26.1121 1722.54 26.1121 Q1727.57 26.1121 1731.17 28.0971 Q1734.78 30.082 1737.09 34.0924 L1737.09 27.2059 L1744.54 27.2059 L1744.54 66.9452 Z" fill="#000000" fill-rule="evenodd" fill-opacity="1" /><path clip-path="url(#clip380)" d="M1777.8 9.62495 Q1772.37 18.942 1769.74 28.0566 Q1767.1 37.1711 1767.1 46.5287 Q1767.1 55.8863 1769.74 65.0818 Q1772.41 74.2369 1777.8 83.5134 L1771.32 83.5134 Q1765.24 73.9938 1762.2 64.7983 Q1759.2 55.6027 1759.2 46.5287 Q1759.2 37.4952 1762.2 28.3401 Q1765.2 19.1851 1771.32 9.62495 L1777.8 9.62495 Z" fill="#000000" fill-rule="evenodd" fill-opacity="1" /><path clip-path="url(#clip380)" d="M1800.77 43.6931 L1800.77 65.8515 L1813.89 65.8515 Q1820.49 65.8515 1823.65 63.1374 Q1826.85 60.3828 1826.85 54.752 Q1826.85 49.0808 1823.65 46.4072 Q1820.49 43.6931 1813.89 43.6931 L1800.77 43.6931 M1800.77 18.8205 L1800.77 37.0496 L1812.88 37.0496 Q1818.87 37.0496 1821.79 34.8216 Q1824.75 32.5531 1824.75 27.935 Q1824.75 23.3575 1821.79 21.089 Q1818.87 18.8205 1812.88 18.8205 L1800.77 18.8205 M1792.58 12.096 L1813.49 12.096 Q1822.84 12.096 1827.91 15.9849 Q1832.97 19.8737 1832.97 27.0438 Q1832.97 32.5936 1830.38 35.8748 Q1827.78 39.156 1822.76 39.9662 Q1828.8 41.2625 1832.12 45.3944 Q1835.48 49.4858 1835.48 55.6432 Q1835.48 63.745 1829.97 68.1605 Q1824.46 72.576 1814.3 72.576 L1792.58 72.576 L1792.58 12.096 Z" fill="#000000" fill-rule="evenodd" fill-opacity="1" /><path clip-path="url(#clip380)" d="M1875.46 34.1734 Q1874.21 33.4443 1872.71 33.1202 Q1871.25 32.7556 1869.47 32.7556 Q1863.15 32.7556 1859.75 36.8875 Q1856.38 40.9789 1856.38 48.6757 L1856.38 72.576 L1848.89 72.576 L1848.89 27.2059 L1856.38 27.2059 L1856.38 34.2544 Q1858.73 30.1225 1862.5 28.1376 Q1866.27 26.1121 1871.66 26.1121 Q1872.43 26.1121 1873.36 26.2337 Q1874.29 26.3147 1875.42 26.5172 L1875.46 34.1734 Z" fill="#000000" fill-rule="evenodd" fill-opacity="1" /><path clip-path="url(#clip380)" d="M1903.9 49.7694 Q1894.87 49.7694 1891.38 51.8354 Q1887.9 53.9013 1887.9 58.8839 Q1887.9 62.8538 1890.49 65.2034 Q1893.13 67.5124 1897.62 67.5124 Q1903.82 67.5124 1907.55 63.1374 Q1911.31 58.7219 1911.31 51.4303 L1911.31 49.7694 L1903.9 49.7694 M1918.77 46.6907 L1918.77 72.576 L1911.31 72.576 L1911.31 65.6895 Q1908.76 69.8214 1904.95 71.8063 Q1901.15 73.7508 1895.64 73.7508 Q1888.67 73.7508 1884.54 69.8619 Q1880.45 65.9325 1880.45 59.3701 Q1880.45 51.7138 1885.55 47.825 Q1890.7 43.9361 1900.86 43.9361 L1911.31 43.9361 L1911.31 43.2069 Q1911.31 38.0623 1907.91 35.2672 Q1904.55 32.4315 1898.43 32.4315 Q1894.54 32.4315 1890.86 33.3632 Q1887.17 34.295 1883.77 36.1584 L1883.77 29.2718 Q1887.86 27.692 1891.71 26.9223 Q1895.56 26.1121 1899.2 26.1121 Q1909.05 26.1121 1913.91 31.2163 Q1918.77 36.3204 1918.77 46.6907 Z" fill="#000000" fill-rule="evenodd" fill-opacity="1" /><path clip-path="url(#clip380)" d="M1934.12 27.2059 L1941.57 27.2059 L1941.57 72.576 L1934.12 72.576 L1934.12 27.2059 M1934.12 9.54393 L1941.57 9.54393 L1941.57 18.9825 L1934.12 18.9825 L1934.12 9.54393 Z" fill="#000000" fill-rule="evenodd" fill-opacity="1" /><path clip-path="url(#clip380)" d="M1994.88 45.1919 L1994.88 72.576 L1987.43 72.576 L1987.43 45.4349 Q1987.43 38.994 1984.92 35.7938 Q1982.41 32.5936 1977.38 32.5936 Q1971.35 32.5936 1967.87 36.4419 Q1964.38 40.2903 1964.38 46.9338 L1964.38 72.576 L1956.89 72.576 L1956.89 27.2059 L1964.38 27.2059 L1964.38 34.2544 Q1967.05 30.163 1970.66 28.1376 Q1974.31 26.1121 1979.05 26.1121 Q1986.86 26.1121 1990.87 30.9732 Q1994.88 35.7938 1994.88 45.1919 Z" fill="#000000" fill-rule="evenodd" fill-opacity="1" /><path clip-path="url(#clip380)" d="M2008.58 9.62495 L2015.06 9.62495 Q2021.13 19.1851 2024.13 28.3401 Q2027.17 37.4952 2027.17 46.5287 Q2027.17 55.6027 2024.13 64.7983 Q2021.13 73.9938 2015.06 83.5134 L2008.58 83.5134 Q2013.96 74.2369 2016.6 65.0818 Q2019.27 55.8863 2019.27 46.5287 Q2019.27 37.1711 2016.6 28.0566 Q2013.96 18.942 2008.58 9.62495 Z" fill="#000000" fill-rule="evenodd" fill-opacity="1" /><path clip-path="url(#clip380)" d="M2101.06 49.9314 Q2101.06 41.7081 2097.66 37.0496 Q2094.29 32.3505 2088.38 32.3505 Q2082.47 32.3505 2079.06 37.0496 Q2075.7 41.7081 2075.7 49.9314 Q2075.7 58.1548 2079.06 62.8538 Q2082.47 67.5124 2088.38 67.5124 Q2094.29 67.5124 2097.66 62.8538 Q2101.06 58.1548 2101.06 49.9314 M2075.7 34.0924 Q2078.05 30.0415 2081.61 28.0971 Q2085.22 26.1121 2090.2 26.1121 Q2098.47 26.1121 2103.61 32.6746 Q2108.8 39.2371 2108.8 49.9314 Q2108.8 60.6258 2103.61 67.1883 Q2098.47 73.7508 2090.2 73.7508 Q2085.22 73.7508 2081.61 71.8063 Q2078.05 69.8214 2075.7 65.7705 L2075.7 72.576 L2068.21 72.576 L2068.21 9.54393 L2075.7 9.54393 L2075.7 34.0924 Z" fill="#000000" fill-rule="evenodd" fill-opacity="1" /><path clip-path="url(#clip380)" d="M2140.03 76.7889 Q2136.87 84.8907 2133.87 87.3618 Q2130.87 89.8329 2125.85 89.8329 L2119.9 89.8329 L2119.9 83.5945 L2124.27 83.5945 Q2127.35 83.5945 2129.05 82.1361 Q2130.75 80.6778 2132.82 75.2496 L2134.15 71.8468 L2115.8 27.2059 L2123.7 27.2059 L2137.88 62.6918 L2152.06 27.2059 L2159.96 27.2059 L2140.03 76.7889 Z" fill="#000000" fill-rule="evenodd" fill-opacity="1" /><path clip-path="url(#clip380)" d="M2196.62 9.54393 L2204.07 9.54393 L2204.07 72.576 L2196.62 72.576 L2196.62 9.54393 Z" fill="#000000" fill-rule="evenodd" fill-opacity="1" /><path clip-path="url(#clip380)" d="M2237.25 32.4315 Q2231.25 32.4315 2227.77 37.1306 Q2224.29 41.7891 2224.29 49.9314 Q2224.29 58.0738 2227.73 62.7728 Q2231.21 67.4314 2237.25 67.4314 Q2243.21 67.4314 2246.69 62.7323 Q2250.17 58.0333 2250.17 49.9314 Q2250.17 41.8701 2246.69 37.1711 Q2243.21 32.4315 2237.25 32.4315 M2237.25 26.1121 Q2246.97 26.1121 2252.52 32.4315 Q2258.07 38.7509 2258.07 49.9314 Q2258.07 61.0714 2252.52 67.4314 Q2246.97 73.7508 2237.25 73.7508 Q2227.49 73.7508 2221.94 67.4314 Q2216.43 61.0714 2216.43 49.9314 Q2216.43 38.7509 2221.94 32.4315 Q2227.49 26.1121 2237.25 26.1121 Z" fill="#000000" fill-rule="evenodd" fill-opacity="1" /><path clip-path="url(#clip380)" d="M2300.28 49.3643 Q2300.28 41.2625 2296.92 36.8065 Q2293.6 32.3505 2287.56 32.3505 Q2281.57 32.3505 2278.2 36.8065 Q2274.88 41.2625 2274.88 49.3643 Q2274.88 57.4256 2278.2 61.8816 Q2281.57 66.3376 2287.56 66.3376 Q2293.6 66.3376 2296.92 61.8816 Q2300.28 57.4256 2300.28 49.3643 M2307.74 66.9452 Q2307.74 78.5308 2302.59 84.1616 Q2297.45 89.8329 2286.83 89.8329 Q2282.9 89.8329 2279.42 89.2252 Q2275.94 88.6581 2272.66 87.4428 L2272.66 80.1917 Q2275.94 81.9741 2279.14 82.8248 Q2282.34 83.6755 2285.66 83.6755 Q2292.99 83.6755 2296.64 79.8271 Q2300.28 76.0193 2300.28 68.282 L2300.28 64.5957 Q2297.97 68.6061 2294.37 70.5911 Q2290.76 72.576 2285.74 72.576 Q2277.39 72.576 2272.29 66.2161 Q2267.19 59.8562 2267.19 49.3643 Q2267.19 38.832 2272.29 32.472 Q2277.39 26.1121 2285.74 26.1121 Q2290.76 26.1121 2294.37 28.0971 Q2297.97 30.082 2300.28 34.0924 L2300.28 27.2059 L2307.74 27.2059 L2307.74 66.9452 Z" fill="#000000" fill-rule="evenodd" fill-opacity="1" /><path clip-path="url(#clip380)" d="M2340.99 9.62495 Q2335.57 18.942 2332.93 28.0566 Q2330.3 37.1711 2330.3 46.5287 Q2330.3 55.8863 2332.93 65.0818 Q2335.61 74.2369 2340.99 83.5134 L2334.51 83.5134 Q2328.44 73.9938 2325.4 64.7983 Q2322.4 55.6027 2322.4 46.5287 Q2322.4 37.4952 2325.4 28.3401 Q2328.4 19.1851 2334.51 9.62495 L2340.99 9.62495 Z" fill="#000000" fill-rule="evenodd" fill-opacity="1" /><path clip-path="url(#clip380)" d="M2388.02 49.9314 Q2388.02 41.7081 2384.62 37.0496 Q2381.26 32.3505 2375.35 32.3505 Q2369.43 32.3505 2366.03 37.0496 Q2362.67 41.7081 2362.67 49.9314 Q2362.67 58.1548 2366.03 62.8538 Q2369.43 67.5124 2375.35 67.5124 Q2381.26 67.5124 2384.62 62.8538 Q2388.02 58.1548 2388.02 49.9314 M2362.67 34.0924 Q2365.02 30.0415 2368.58 28.0971 Q2372.19 26.1121 2377.17 26.1121 Q2385.43 26.1121 2390.58 32.6746 Q2395.76 39.2371 2395.76 49.9314 Q2395.76 60.6258 2390.58 67.1883 Q2385.43 73.7508 2377.17 73.7508 Q2372.19 73.7508 2368.58 71.8063 Q2365.02 69.8214 2362.67 65.7705 L2362.67 72.576 L2355.17 72.576 L2355.17 9.54393 L2362.67 9.54393 L2362.67 34.0924 Z" fill="#000000" fill-rule="evenodd" fill-opacity="1" /><path clip-path="url(#clip380)" d="M2425.7 32.4315 Q2419.7 32.4315 2416.22 37.1306 Q2412.74 41.7891 2412.74 49.9314 Q2412.74 58.0738 2416.18 62.7728 Q2419.66 67.4314 2425.7 67.4314 Q2431.65 67.4314 2435.14 62.7323 Q2438.62 58.0333 2438.62 49.9314 Q2438.62 41.8701 2435.14 37.1711 Q2431.65 32.4315 2425.7 32.4315 M2425.7 26.1121 Q2435.42 26.1121 2440.97 32.4315 Q2446.52 38.7509 2446.52 49.9314 Q2446.52 61.0714 2440.97 67.4314 Q2435.42 73.7508 2425.7 73.7508 Q2415.94 73.7508 2410.39 67.4314 Q2404.88 61.0714 2404.88 49.9314 Q2404.88 38.7509 2410.39 32.4315 Q2415.94 26.1121 2425.7 26.1121 Z" fill="#000000" fill-rule="evenodd" fill-opacity="1" /><path clip-path="url(#clip380)" d="M2488.73 34.0924 L2488.73 9.54393 L2496.18 9.54393 L2496.18 72.576 L2488.73 72.576 L2488.73 65.7705 Q2486.38 69.8214 2482.78 71.8063 Q2479.21 73.7508 2474.19 73.7508 Q2465.96 73.7508 2460.78 67.1883 Q2455.63 60.6258 2455.63 49.9314 Q2455.63 39.2371 2460.78 32.6746 Q2465.96 26.1121 2474.19 26.1121 Q2479.21 26.1121 2482.78 28.0971 Q2486.38 30.0415 2488.73 34.0924 M2463.33 49.9314 Q2463.33 58.1548 2466.69 62.8538 Q2470.1 67.5124 2476.01 67.5124 Q2481.92 67.5124 2485.33 62.8538 Q2488.73 58.1548 2488.73 49.9314 Q2488.73 41.7081 2485.33 37.0496 Q2481.92 32.3505 2476.01 32.3505 Q2470.1 32.3505 2466.69 37.0496 Q2463.33 41.7081 2463.33 49.9314 Z" fill="#000000" fill-rule="evenodd" fill-opacity="1" /><path clip-path="url(#clip380)" d="M2530.41 76.7889 Q2527.25 84.8907 2524.26 87.3618 Q2521.26 89.8329 2516.24 89.8329 L2510.28 89.8329 L2510.28 83.5945 L2514.66 83.5945 Q2517.73 83.5945 2519.44 82.1361 Q2521.14 80.6778 2523.2 75.2496 L2524.54 71.8468 L2506.19 27.2059 L2514.09 27.2059 L2528.27 62.6918 L2542.45 27.2059 L2550.34 27.2059 L2530.41 76.7889 Z" fill="#000000" fill-rule="evenodd" fill-opacity="1" /><path clip-path="url(#clip380)" d="M2559.46 9.62495 L2565.94 9.62495 Q2572.02 19.1851 2575.01 28.3401 Q2578.05 37.4952 2578.05 46.5287 Q2578.05 55.6027 2575.01 64.7983 Q2572.02 73.9938 2565.94 83.5134 L2559.46 83.5134 Q2564.85 74.2369 2567.48 65.0818 Q2570.15 55.8863 2570.15 46.5287 Q2570.15 37.1711 2567.48 28.0566 Q2564.85 18.942 2559.46 9.62495 Z" fill="#000000" fill-rule="evenodd" fill-opacity="1" /><circle clip-path="url(#clip383)" cx="1872.42" cy="1203.26" r="14.4" fill="#009af9" fill-rule="evenodd" fill-opacity="1" stroke="#000000" stroke-opacity="1" stroke-width="3.84"/>
<circle clip-path="url(#clip383)" cx="2261.79" cy="581.825" r="14.4" fill="#009af9" fill-rule="evenodd" fill-opacity="1" stroke="#000000" stroke-opacity="1" stroke-width="3.84"/>
<circle clip-path="url(#clip383)" cx="2091.87" cy="780.417" r="14.4" fill="#009af9" fill-rule="evenodd" fill-opacity="1" stroke="#000000" stroke-opacity="1" stroke-width="3.84"/>
<circle clip-path="url(#clip383)" cx="2073.7" cy="786.447" r="14.4" fill="#009af9" fill-rule="evenodd" fill-opacity="1" stroke="#000000" stroke-opacity="1" stroke-width="3.84"/>
<circle clip-path="url(#clip383)" cx="1855.04" cy="1264.08" r="14.4" fill="#009af9" fill-rule="evenodd" fill-opacity="1" stroke="#000000" stroke-opacity="1" stroke-width="3.84"/>
<circle clip-path="url(#clip383)" cx="2476.75" cy="917.303" r="14.4" fill="#009af9" fill-rule="evenodd" fill-opacity="1" stroke="#000000" stroke-opacity="1" stroke-width="3.84"/>
<circle clip-path="url(#clip383)" cx="2375.13" cy="206.795" r="14.4" fill="#009af9" fill-rule="evenodd" fill-opacity="1" stroke="#000000" stroke-opacity="1" stroke-width="3.84"/>
<circle clip-path="url(#clip383)" cx="2201.11" cy="583.317" r="14.4" fill="#009af9" fill-rule="evenodd" fill-opacity="1" stroke="#000000" stroke-opacity="1" stroke-width="3.84"/>
<circle clip-path="url(#clip383)" cx="2269.37" cy="513.127" r="14.4" fill="#009af9" fill-rule="evenodd" fill-opacity="1" stroke="#000000" stroke-opacity="1" stroke-width="3.84"/>
<circle clip-path="url(#clip383)" cx="2005.89" cy="786.447" r="14.4" fill="#009af9" fill-rule="evenodd" fill-opacity="1" stroke="#000000" stroke-opacity="1" stroke-width="3.84"/>
<circle clip-path="url(#clip383)" cx="1932" cy="1022.48" r="14.4" fill="#009af9" fill-rule="evenodd" fill-opacity="1" stroke="#000000" stroke-opacity="1" stroke-width="3.84"/>
<circle clip-path="url(#clip383)" cx="2270.38" cy="507.242" r="14.4" fill="#009af9" fill-rule="evenodd" fill-opacity="1" stroke="#000000" stroke-opacity="1" stroke-width="3.84"/>
<circle clip-path="url(#clip383)" cx="2207.85" cy="588.269" r="14.4" fill="#009af9" fill-rule="evenodd" fill-opacity="1" stroke="#000000" stroke-opacity="1" stroke-width="3.84"/>
<circle clip-path="url(#clip383)" cx="2127.49" cy="403.034" r="14.4" fill="#009af9" fill-rule="evenodd" fill-opacity="1" stroke="#000000" stroke-opacity="1" stroke-width="3.84"/>
<circle clip-path="url(#clip383)" cx="2439.14" cy="172.882" r="14.4" fill="#009af9" fill-rule="evenodd" fill-opacity="1" stroke="#000000" stroke-opacity="1" stroke-width="3.84"/>
<circle clip-path="url(#clip383)" cx="2462.16" cy="864.441" r="14.4" fill="#009af9" fill-rule="evenodd" fill-opacity="1" stroke="#000000" stroke-opacity="1" stroke-width="3.84"/>
<circle clip-path="url(#clip383)" cx="1980.18" cy="716.935" r="14.4" fill="#009af9" fill-rule="evenodd" fill-opacity="1" stroke="#000000" stroke-opacity="1" stroke-width="3.84"/>
<circle clip-path="url(#clip383)" cx="2089.38" cy="899.499" r="14.4" fill="#009af9" fill-rule="evenodd" fill-opacity="1" stroke="#000000" stroke-opacity="1" stroke-width="3.84"/>
<circle clip-path="url(#clip383)" cx="1711.11" cy="1531.91" r="14.4" fill="#009af9" fill-rule="evenodd" fill-opacity="1" stroke="#000000" stroke-opacity="1" stroke-width="3.84"/>
<circle clip-path="url(#clip383)" cx="1601" cy="1675.87" r="14.4" fill="#009af9" fill-rule="evenodd" fill-opacity="1" stroke="#000000" stroke-opacity="1" stroke-width="3.84"/>
<circle clip-path="url(#clip383)" cx="1913.49" cy="1140.21" r="14.4" fill="#009af9" fill-rule="evenodd" fill-opacity="1" stroke="#000000" stroke-opacity="1" stroke-width="3.84"/>
<circle clip-path="url(#clip383)" cx="2120.11" cy="720.485" r="14.4" fill="#009af9" fill-rule="evenodd" fill-opacity="1" stroke="#000000" stroke-opacity="1" stroke-width="3.84"/>
<circle clip-path="url(#clip383)" cx="2159.36" cy="737.538" r="14.4" fill="#009af9" fill-rule="evenodd" fill-opacity="1" stroke="#000000" stroke-opacity="1" stroke-width="3.84"/>
<circle clip-path="url(#clip383)" cx="2115.98" cy="575.634" r="14.4" fill="#009af9" fill-rule="evenodd" fill-opacity="1" stroke="#000000" stroke-opacity="1" stroke-width="3.84"/>
<circle clip-path="url(#clip383)" cx="1767.58" cy="1431.07" r="14.4" fill="#009af9" fill-rule="evenodd" fill-opacity="1" stroke="#000000" stroke-opacity="1" stroke-width="3.84"/>
<circle clip-path="url(#clip383)" cx="2610.47" cy="740.06" r="14.4" fill="#009af9" fill-rule="evenodd" fill-opacity="1" stroke="#000000" stroke-opacity="1" stroke-width="3.84"/>
<circle clip-path="url(#clip383)" cx="1712.21" cy="1359.31" r="14.4" fill="#009af9" fill-rule="evenodd" fill-opacity="1" stroke="#000000" stroke-opacity="1" stroke-width="3.84"/>
<circle clip-path="url(#clip383)" cx="2202.83" cy="716.059" r="14.4" fill="#009af9" fill-rule="evenodd" fill-opacity="1" stroke="#000000" stroke-opacity="1" stroke-width="3.84"/>
</svg>
