<?xml version="1.0" encoding="utf-8"?>
<svg xmlns="http://www.w3.org/2000/svg" xmlns:xlink="http://www.w3.org/1999/xlink" width="672" height="480" viewBox="0 0 2688 1920">
<defs>
  <clipPath id="clip870">
    <rect x="0" y="0" width="2688" height="1920"/>
  </clipPath>
</defs>
<path clip-path="url(#clip870)" d="
M0 1920 L2688 1920 L2688 0 L0 0  Z
  " fill="#ffffff" fill-rule="evenodd" fill-opacity="1"/>
<defs>
  <clipPath id="clip871">
    <rect x="537" y="0" width="1883" height="1883"/>
  </clipPath>
</defs>
<path clip-path="url(#clip870)" d="
M158.645 1800.78 L2640.76 1800.78 L2640.76 47.2441 L158.645 47.2441  Z
  " fill="#ffffff" fill-rule="evenodd" fill-opacity="1"/>
<defs>
  <clipPath id="clip872">
    <rect x="158" y="47" width="2483" height="1755"/>
  </clipPath>
</defs>
<polyline clip-path="url(#clip872)" style="stroke:#000000; stroke-linecap:round; stroke-linejoin:round; stroke-width:2; stroke-opacity:0.1; fill:none" points="
  563.41,1800.78 563.41,47.2441 
  "/>
<polyline clip-path="url(#clip872)" style="stroke:#000000; stroke-linecap:round; stroke-linejoin:round; stroke-width:2; stroke-opacity:0.1; fill:none" points="
  1399.7,1800.78 1399.7,47.2441 
  "/>
<polyline clip-path="url(#clip872)" style="stroke:#000000; stroke-linecap:round; stroke-linejoin:round; stroke-width:2; stroke-opacity:0.1; fill:none" points="
  2235.99,1800.78 2235.99,47.2441 
  "/>
<polyline clip-path="url(#clip870)" style="stroke:#000000; stroke-linecap:round; stroke-linejoin:round; stroke-width:4; stroke-opacity:1; fill:none" points="
  158.645,1800.78 2640.76,1800.78 
  "/>
<polyline clip-path="url(#clip870)" style="stroke:#000000; stroke-linecap:round; stroke-linejoin:round; stroke-width:4; stroke-opacity:1; fill:none" points="
  563.41,1800.78 563.41,1781.88 
  "/>
<polyline clip-path="url(#clip870)" style="stroke:#000000; stroke-linecap:round; stroke-linejoin:round; stroke-width:4; stroke-opacity:1; fill:none" points="
  1399.7,1800.78 1399.7,1781.88 
  "/>
<polyline clip-path="url(#clip870)" style="stroke:#000000; stroke-linecap:round; stroke-linejoin:round; stroke-width:4; stroke-opacity:1; fill:none" points="
  2235.99,1800.78 2235.99,1781.88 
  "/>
<path clip-path="url(#clip870)" d="M507.669 1840.32 L507.669 1844.35 Q505.864 1843.42 503.919 1842.96 Q501.975 1842.5 499.891 1842.5 Q496.72 1842.5 495.123 1843.47 Q493.549 1844.44 493.549 1846.39 Q493.549 1847.87 494.683 1848.72 Q495.817 1849.56 499.243 1850.32 L500.702 1850.65 Q505.239 1851.62 507.137 1853.4 Q509.058 1855.16 509.058 1858.33 Q509.058 1861.94 506.188 1864.05 Q503.341 1866.15 498.341 1866.15 Q496.257 1866.15 493.989 1865.74 Q491.743 1865.34 489.243 1864.53 L489.243 1860.14 Q491.604 1861.36 493.896 1861.99 Q496.188 1862.59 498.433 1862.59 Q501.442 1862.59 503.063 1861.57 Q504.683 1860.53 504.683 1858.65 Q504.683 1856.92 503.503 1855.99 Q502.345 1855.07 498.387 1854.21 L496.905 1853.86 Q492.947 1853.03 491.188 1851.32 Q489.429 1849.58 489.429 1846.57 Q489.429 1842.91 492.021 1840.92 Q494.614 1838.93 499.382 1838.93 Q501.743 1838.93 503.827 1839.28 Q505.91 1839.63 507.669 1840.32 Z" fill="#000000" fill-rule="evenodd" fill-opacity="1" /><path clip-path="url(#clip870)" d="M538.016 1851.46 L538.016 1853.54 L518.433 1853.54 Q518.711 1857.94 521.072 1860.25 Q523.456 1862.54 527.692 1862.54 Q530.146 1862.54 532.438 1861.94 Q534.752 1861.34 537.021 1860.14 L537.021 1864.16 Q534.729 1865.14 532.322 1865.65 Q529.914 1866.15 527.438 1866.15 Q521.234 1866.15 517.6 1862.54 Q513.989 1858.93 513.989 1852.78 Q513.989 1846.41 517.415 1842.68 Q520.864 1838.93 526.697 1838.93 Q531.928 1838.93 534.961 1842.31 Q538.016 1845.67 538.016 1851.46 M533.757 1850.21 Q533.711 1846.71 531.789 1844.63 Q529.891 1842.54 526.743 1842.54 Q523.178 1842.54 521.026 1844.56 Q518.896 1846.57 518.572 1850.23 L533.757 1850.21 Z" fill="#000000" fill-rule="evenodd" fill-opacity="1" /><path clip-path="url(#clip870)" d="M549.22 1832.2 L549.22 1839.56 L557.993 1839.56 L557.993 1842.87 L549.22 1842.87 L549.22 1856.94 Q549.22 1860.11 550.076 1861.02 Q550.956 1861.92 553.618 1861.92 L557.993 1861.92 L557.993 1865.48 L553.618 1865.48 Q548.687 1865.48 546.813 1863.65 Q544.938 1861.8 544.938 1856.94 L544.938 1842.87 L541.813 1842.87 L541.813 1839.56 L544.938 1839.56 L544.938 1832.2 L549.22 1832.2 Z" fill="#000000" fill-rule="evenodd" fill-opacity="1" /><path clip-path="url(#clip870)" d="M573.641 1842.54 Q570.215 1842.54 568.224 1845.23 Q566.234 1847.89 566.234 1852.54 Q566.234 1857.2 568.201 1859.88 Q570.192 1862.54 573.641 1862.54 Q577.044 1862.54 579.035 1859.86 Q581.025 1857.17 581.025 1852.54 Q581.025 1847.94 579.035 1845.25 Q577.044 1842.54 573.641 1842.54 M573.641 1838.93 Q579.197 1838.93 582.368 1842.54 Q585.539 1846.15 585.539 1852.54 Q585.539 1858.91 582.368 1862.54 Q579.197 1866.15 573.641 1866.15 Q568.062 1866.15 564.891 1862.54 Q561.743 1858.91 561.743 1852.54 Q561.743 1846.15 564.891 1842.54 Q568.062 1838.93 573.641 1838.93 Z" fill="#000000" fill-rule="evenodd" fill-opacity="1" /><path clip-path="url(#clip870)" d="M609.127 1840.32 L609.127 1844.35 Q607.321 1843.42 605.377 1842.96 Q603.433 1842.5 601.349 1842.5 Q598.178 1842.5 596.581 1843.47 Q595.007 1844.44 595.007 1846.39 Q595.007 1847.87 596.141 1848.72 Q597.275 1849.56 600.701 1850.32 L602.159 1850.65 Q606.696 1851.62 608.595 1853.4 Q610.516 1855.16 610.516 1858.33 Q610.516 1861.94 607.646 1864.05 Q604.798 1866.15 599.798 1866.15 Q597.715 1866.15 595.447 1865.74 Q593.201 1865.34 590.701 1864.53 L590.701 1860.14 Q593.062 1861.36 595.354 1861.99 Q597.646 1862.59 599.891 1862.59 Q602.9 1862.59 604.521 1861.57 Q606.141 1860.53 606.141 1858.65 Q606.141 1856.92 604.96 1855.99 Q603.803 1855.07 599.845 1854.21 L598.363 1853.86 Q594.405 1853.03 592.646 1851.32 Q590.886 1849.58 590.886 1846.57 Q590.886 1842.91 593.479 1840.92 Q596.071 1838.93 600.84 1838.93 Q603.201 1838.93 605.284 1839.28 Q607.368 1839.63 609.127 1840.32 Z" fill="#000000" fill-rule="evenodd" fill-opacity="1" /><path clip-path="url(#clip870)" d="M629.081 1852.45 Q623.919 1852.45 621.928 1853.63 Q619.937 1854.81 619.937 1857.66 Q619.937 1859.93 621.419 1861.27 Q622.923 1862.59 625.493 1862.59 Q629.034 1862.59 631.164 1860.09 Q633.317 1857.57 633.317 1853.4 L633.317 1852.45 L629.081 1852.45 M637.576 1850.69 L637.576 1865.48 L633.317 1865.48 L633.317 1861.55 Q631.858 1863.91 629.682 1865.04 Q627.507 1866.15 624.358 1866.15 Q620.377 1866.15 618.016 1863.93 Q615.678 1861.69 615.678 1857.94 Q615.678 1853.56 618.595 1851.34 Q621.534 1849.12 627.344 1849.12 L633.317 1849.12 L633.317 1848.7 Q633.317 1845.76 631.372 1844.16 Q629.451 1842.54 625.956 1842.54 Q623.733 1842.54 621.627 1843.08 Q619.52 1843.61 617.576 1844.67 L617.576 1840.74 Q619.914 1839.84 622.113 1839.4 Q624.312 1838.93 626.395 1838.93 Q632.02 1838.93 634.798 1841.85 Q637.576 1844.77 637.576 1850.69 Z" fill="#000000" fill-rule="evenodd" fill-opacity="1" /><path clip-path="url(#clip870)" d="M1284.75 1839.56 L1289.26 1839.56 L1297.36 1861.32 L1305.46 1839.56 L1309.98 1839.56 L1300.26 1865.48 L1294.47 1865.48 L1284.75 1839.56 Z" fill="#000000" fill-rule="evenodd" fill-opacity="1" /><path clip-path="url(#clip870)" d="M1338.03 1851.46 L1338.03 1853.54 L1318.45 1853.54 Q1318.73 1857.94 1321.09 1860.25 Q1323.47 1862.54 1327.71 1862.54 Q1330.16 1862.54 1332.46 1861.94 Q1334.77 1861.34 1337.04 1860.14 L1337.04 1864.16 Q1334.75 1865.14 1332.34 1865.65 Q1329.93 1866.15 1327.46 1866.15 Q1321.25 1866.15 1317.62 1862.54 Q1314.01 1858.93 1314.01 1852.78 Q1314.01 1846.41 1317.43 1842.68 Q1320.88 1838.93 1326.71 1838.93 Q1331.95 1838.93 1334.98 1842.31 Q1338.03 1845.67 1338.03 1851.46 M1333.77 1850.21 Q1333.73 1846.71 1331.81 1844.63 Q1329.91 1842.54 1326.76 1842.54 Q1323.2 1842.54 1321.04 1844.56 Q1318.91 1846.57 1318.59 1850.23 L1333.77 1850.21 Z" fill="#000000" fill-rule="evenodd" fill-opacity="1" /><path clip-path="url(#clip870)" d="M1360.05 1843.54 Q1359.33 1843.12 1358.47 1842.94 Q1357.64 1842.73 1356.62 1842.73 Q1353.01 1842.73 1351.07 1845.09 Q1349.15 1847.43 1349.15 1851.83 L1349.15 1865.48 L1344.86 1865.48 L1344.86 1839.56 L1349.15 1839.56 L1349.15 1843.59 Q1350.49 1841.22 1352.64 1840.09 Q1354.79 1838.93 1357.87 1838.93 Q1358.31 1838.93 1358.84 1839 Q1359.38 1839.05 1360.02 1839.16 L1360.05 1843.54 Z" fill="#000000" fill-rule="evenodd" fill-opacity="1" /><path clip-path="url(#clip870)" d="M1381.04 1840.32 L1381.04 1844.35 Q1379.24 1843.42 1377.29 1842.96 Q1375.35 1842.5 1373.27 1842.5 Q1370.09 1842.5 1368.5 1843.47 Q1366.92 1844.44 1366.92 1846.39 Q1366.92 1847.87 1368.06 1848.72 Q1369.19 1849.56 1372.62 1850.32 L1374.08 1850.65 Q1378.61 1851.62 1380.51 1853.4 Q1382.43 1855.16 1382.43 1858.33 Q1382.43 1861.94 1379.56 1864.05 Q1376.71 1866.15 1371.71 1866.15 Q1369.63 1866.15 1367.36 1865.74 Q1365.12 1865.34 1362.62 1864.53 L1362.62 1860.14 Q1364.98 1861.36 1367.27 1861.99 Q1369.56 1862.59 1371.81 1862.59 Q1374.82 1862.59 1376.44 1861.57 Q1378.06 1860.53 1378.06 1858.65 Q1378.06 1856.92 1376.88 1855.99 Q1375.72 1855.07 1371.76 1854.21 L1370.28 1853.86 Q1366.32 1853.03 1364.56 1851.32 Q1362.8 1849.58 1362.8 1846.57 Q1362.8 1842.91 1365.4 1840.92 Q1367.99 1838.93 1372.76 1838.93 Q1375.12 1838.93 1377.2 1839.28 Q1379.28 1839.63 1381.04 1840.32 Z" fill="#000000" fill-rule="evenodd" fill-opacity="1" /><path clip-path="url(#clip870)" d="M1389.21 1839.56 L1393.47 1839.56 L1393.47 1865.48 L1389.21 1865.48 L1389.21 1839.56 M1389.21 1829.46 L1393.47 1829.46 L1393.47 1834.86 L1389.21 1834.86 L1389.21 1829.46 Z" fill="#000000" fill-rule="evenodd" fill-opacity="1" /><path clip-path="url(#clip870)" d="M1421.04 1840.55 L1421.04 1844.53 Q1419.24 1843.54 1417.41 1843.05 Q1415.6 1842.54 1413.75 1842.54 Q1409.61 1842.54 1407.32 1845.18 Q1405.02 1847.8 1405.02 1852.54 Q1405.02 1857.29 1407.32 1859.93 Q1409.61 1862.54 1413.75 1862.54 Q1415.6 1862.54 1417.41 1862.06 Q1419.24 1861.55 1421.04 1860.55 L1421.04 1864.49 Q1419.26 1865.32 1417.34 1865.74 Q1415.44 1866.15 1413.29 1866.15 Q1407.43 1866.15 1403.98 1862.47 Q1400.53 1858.79 1400.53 1852.54 Q1400.53 1846.2 1404.01 1842.57 Q1407.5 1838.93 1413.57 1838.93 Q1415.53 1838.93 1417.41 1839.35 Q1419.28 1839.74 1421.04 1840.55 Z" fill="#000000" fill-rule="evenodd" fill-opacity="1" /><path clip-path="url(#clip870)" d="M1438.5 1842.54 Q1435.07 1842.54 1433.08 1845.23 Q1431.09 1847.89 1431.09 1852.54 Q1431.09 1857.2 1433.06 1859.88 Q1435.05 1862.54 1438.5 1862.54 Q1441.9 1862.54 1443.89 1859.86 Q1445.88 1857.17 1445.88 1852.54 Q1445.88 1847.94 1443.89 1845.25 Q1441.9 1842.54 1438.5 1842.54 M1438.5 1838.93 Q1444.05 1838.93 1447.22 1842.54 Q1450.39 1846.15 1450.39 1852.54 Q1450.39 1858.91 1447.22 1862.54 Q1444.05 1866.15 1438.5 1866.15 Q1432.92 1866.15 1429.75 1862.54 Q1426.6 1858.91 1426.6 1852.54 Q1426.6 1846.15 1429.75 1842.54 Q1432.92 1838.93 1438.5 1838.93 Z" fill="#000000" fill-rule="evenodd" fill-opacity="1" /><path clip-path="url(#clip870)" d="M1457.45 1829.46 L1461.71 1829.46 L1461.71 1865.48 L1457.45 1865.48 L1457.45 1829.46 Z" fill="#000000" fill-rule="evenodd" fill-opacity="1" /><path clip-path="url(#clip870)" d="M1480.67 1842.54 Q1477.25 1842.54 1475.26 1845.23 Q1473.26 1847.89 1473.26 1852.54 Q1473.26 1857.2 1475.23 1859.88 Q1477.22 1862.54 1480.67 1862.54 Q1484.07 1862.54 1486.07 1859.86 Q1488.06 1857.17 1488.06 1852.54 Q1488.06 1847.94 1486.07 1845.25 Q1484.07 1842.54 1480.67 1842.54 M1480.67 1838.93 Q1486.23 1838.93 1489.4 1842.54 Q1492.57 1846.15 1492.57 1852.54 Q1492.57 1858.91 1489.4 1862.54 Q1486.23 1866.15 1480.67 1866.15 Q1475.09 1866.15 1471.92 1862.54 Q1468.77 1858.91 1468.77 1852.54 Q1468.77 1846.15 1471.92 1842.54 Q1475.09 1838.93 1480.67 1838.93 Z" fill="#000000" fill-rule="evenodd" fill-opacity="1" /><path clip-path="url(#clip870)" d="M1514.65 1843.54 Q1513.94 1843.12 1513.08 1842.94 Q1512.25 1842.73 1511.23 1842.73 Q1507.62 1842.73 1505.67 1845.09 Q1503.75 1847.43 1503.75 1851.83 L1503.75 1865.48 L1499.47 1865.48 L1499.47 1839.56 L1503.75 1839.56 L1503.75 1843.59 Q1505.09 1841.22 1507.25 1840.09 Q1509.4 1838.93 1512.48 1838.93 Q1512.92 1838.93 1513.45 1839 Q1513.98 1839.05 1514.63 1839.16 L1514.65 1843.54 Z" fill="#000000" fill-rule="evenodd" fill-opacity="1" /><path clip-path="url(#clip870)" d="M2138.11 1839.56 L2142.62 1839.56 L2150.73 1861.32 L2158.83 1839.56 L2163.34 1839.56 L2153.62 1865.48 L2147.83 1865.48 L2138.11 1839.56 Z" fill="#000000" fill-rule="evenodd" fill-opacity="1" /><path clip-path="url(#clip870)" d="M2169.22 1839.56 L2173.48 1839.56 L2173.48 1865.48 L2169.22 1865.48 L2169.22 1839.56 M2169.22 1829.46 L2173.48 1829.46 L2173.48 1834.86 L2169.22 1834.86 L2169.22 1829.46 Z" fill="#000000" fill-rule="evenodd" fill-opacity="1" /><path clip-path="url(#clip870)" d="M2197.41 1843.54 Q2196.7 1843.12 2195.84 1842.94 Q2195.01 1842.73 2193.99 1842.73 Q2190.38 1842.73 2188.43 1845.09 Q2186.51 1847.43 2186.51 1851.83 L2186.51 1865.48 L2182.23 1865.48 L2182.23 1839.56 L2186.51 1839.56 L2186.51 1843.59 Q2187.85 1841.22 2190.01 1840.09 Q2192.16 1838.93 2195.24 1838.93 Q2195.68 1838.93 2196.21 1839 Q2196.74 1839.05 2197.39 1839.16 L2197.41 1843.54 Z" fill="#000000" fill-rule="evenodd" fill-opacity="1" /><path clip-path="url(#clip870)" d="M2218.11 1852.22 Q2218.11 1847.59 2216.19 1845.04 Q2214.29 1842.5 2210.84 1842.5 Q2207.41 1842.5 2205.49 1845.04 Q2203.6 1847.59 2203.6 1852.22 Q2203.6 1856.83 2205.49 1859.37 Q2207.41 1861.92 2210.84 1861.92 Q2214.29 1861.92 2216.19 1859.37 Q2218.11 1856.83 2218.11 1852.22 M2222.37 1862.27 Q2222.37 1868.89 2219.43 1872.1 Q2216.49 1875.34 2210.42 1875.34 Q2208.18 1875.34 2206.19 1875 Q2204.2 1874.67 2202.32 1873.98 L2202.32 1869.84 Q2204.2 1870.85 2206.03 1871.34 Q2207.85 1871.83 2209.75 1871.83 Q2213.94 1871.83 2216.03 1869.63 Q2218.11 1867.45 2218.11 1863.03 L2218.11 1860.92 Q2216.79 1863.21 2214.73 1864.35 Q2212.67 1865.48 2209.8 1865.48 Q2205.03 1865.48 2202.11 1861.85 Q2199.2 1858.21 2199.2 1852.22 Q2199.2 1846.2 2202.11 1842.57 Q2205.03 1838.93 2209.8 1838.93 Q2212.67 1838.93 2214.73 1840.07 Q2216.79 1841.2 2218.11 1843.49 L2218.11 1839.56 L2222.37 1839.56 L2222.37 1862.27 Z" fill="#000000" fill-rule="evenodd" fill-opacity="1" /><path clip-path="url(#clip870)" d="M2231.14 1839.56 L2235.4 1839.56 L2235.4 1865.48 L2231.14 1865.48 L2231.14 1839.56 M2231.14 1829.46 L2235.4 1829.46 L2235.4 1834.86 L2231.14 1834.86 L2231.14 1829.46 Z" fill="#000000" fill-rule="evenodd" fill-opacity="1" /><path clip-path="url(#clip870)" d="M2265.86 1849.84 L2265.86 1865.48 L2261.6 1865.48 L2261.6 1849.97 Q2261.6 1846.29 2260.17 1844.46 Q2258.73 1842.64 2255.86 1842.64 Q2252.41 1842.64 2250.42 1844.84 Q2248.43 1847.03 2248.43 1850.83 L2248.43 1865.48 L2244.15 1865.48 L2244.15 1839.56 L2248.43 1839.56 L2248.43 1843.59 Q2249.96 1841.25 2252.02 1840.09 Q2254.1 1838.93 2256.81 1838.93 Q2261.28 1838.93 2263.57 1841.71 Q2265.86 1844.46 2265.86 1849.84 Z" fill="#000000" fill-rule="evenodd" fill-opacity="1" /><path clip-path="url(#clip870)" d="M2274.36 1839.56 L2278.62 1839.56 L2278.62 1865.48 L2274.36 1865.48 L2274.36 1839.56 M2274.36 1829.46 L2278.62 1829.46 L2278.62 1834.86 L2274.36 1834.86 L2274.36 1829.46 Z" fill="#000000" fill-rule="evenodd" fill-opacity="1" /><path clip-path="url(#clip870)" d="M2306.19 1840.55 L2306.19 1844.53 Q2304.38 1843.54 2302.55 1843.05 Q2300.75 1842.54 2298.9 1842.54 Q2294.75 1842.54 2292.46 1845.18 Q2290.17 1847.8 2290.17 1852.54 Q2290.17 1857.29 2292.46 1859.93 Q2294.75 1862.54 2298.9 1862.54 Q2300.75 1862.54 2302.55 1862.06 Q2304.38 1861.55 2306.19 1860.55 L2306.19 1864.49 Q2304.41 1865.32 2302.48 1865.74 Q2300.59 1866.15 2298.43 1866.15 Q2292.58 1866.15 2289.13 1862.47 Q2285.68 1858.79 2285.68 1852.54 Q2285.68 1846.2 2289.15 1842.57 Q2292.65 1838.93 2298.71 1838.93 Q2300.68 1838.93 2302.55 1839.35 Q2304.43 1839.74 2306.19 1840.55 Z" fill="#000000" fill-rule="evenodd" fill-opacity="1" /><path clip-path="url(#clip870)" d="M2325.38 1852.45 Q2320.22 1852.45 2318.22 1853.63 Q2316.23 1854.81 2316.23 1857.66 Q2316.23 1859.93 2317.72 1861.27 Q2319.22 1862.59 2321.79 1862.59 Q2325.33 1862.59 2327.46 1860.09 Q2329.61 1857.57 2329.61 1853.4 L2329.61 1852.45 L2325.38 1852.45 M2333.87 1850.69 L2333.87 1865.48 L2329.61 1865.48 L2329.61 1861.55 Q2328.16 1863.91 2325.98 1865.04 Q2323.8 1866.15 2320.66 1866.15 Q2316.67 1866.15 2314.31 1863.93 Q2311.97 1861.69 2311.97 1857.94 Q2311.97 1853.56 2314.89 1851.34 Q2317.83 1849.12 2323.64 1849.12 L2329.61 1849.12 L2329.61 1848.7 Q2329.61 1845.76 2327.67 1844.16 Q2325.75 1842.54 2322.25 1842.54 Q2320.03 1842.54 2317.92 1843.08 Q2315.82 1843.61 2313.87 1844.67 L2313.87 1840.74 Q2316.21 1839.84 2318.41 1839.4 Q2320.61 1838.93 2322.69 1838.93 Q2328.32 1838.93 2331.09 1841.85 Q2333.87 1844.77 2333.87 1850.69 Z" fill="#000000" fill-rule="evenodd" fill-opacity="1" /><polyline clip-path="url(#clip872)" style="stroke:#000000; stroke-linecap:round; stroke-linejoin:round; stroke-width:2; stroke-opacity:0.1; fill:none" points="
  158.645,1475.44 2640.76,1475.44 
  "/>
<polyline clip-path="url(#clip872)" style="stroke:#000000; stroke-linecap:round; stroke-linejoin:round; stroke-width:2; stroke-opacity:0.1; fill:none" points="
  158.645,1130.8 2640.76,1130.8 
  "/>
<polyline clip-path="url(#clip872)" style="stroke:#000000; stroke-linecap:round; stroke-linejoin:round; stroke-width:2; stroke-opacity:0.1; fill:none" points="
  158.645,786.155 2640.76,786.155 
  "/>
<polyline clip-path="url(#clip872)" style="stroke:#000000; stroke-linecap:round; stroke-linejoin:round; stroke-width:2; stroke-opacity:0.1; fill:none" points="
  158.645,441.514 2640.76,441.514 
  "/>
<polyline clip-path="url(#clip872)" style="stroke:#000000; stroke-linecap:round; stroke-linejoin:round; stroke-width:2; stroke-opacity:0.1; fill:none" points="
  158.645,96.8724 2640.76,96.8724 
  "/>
<polyline clip-path="url(#clip870)" style="stroke:#000000; stroke-linecap:round; stroke-linejoin:round; stroke-width:4; stroke-opacity:1; fill:none" points="
  158.645,1800.78 158.645,47.2441 
  "/>
<polyline clip-path="url(#clip870)" style="stroke:#000000; stroke-linecap:round; stroke-linejoin:round; stroke-width:4; stroke-opacity:1; fill:none" points="
  158.645,1475.44 177.543,1475.44 
  "/>
<polyline clip-path="url(#clip870)" style="stroke:#000000; stroke-linecap:round; stroke-linejoin:round; stroke-width:4; stroke-opacity:1; fill:none" points="
  158.645,1130.8 177.543,1130.8 
  "/>
<polyline clip-path="url(#clip870)" style="stroke:#000000; stroke-linecap:round; stroke-linejoin:round; stroke-width:4; stroke-opacity:1; fill:none" points="
  158.645,786.155 177.543,786.155 
  "/>
<polyline clip-path="url(#clip870)" style="stroke:#000000; stroke-linecap:round; stroke-linejoin:round; stroke-width:4; stroke-opacity:1; fill:none" points="
  158.645,441.514 177.543,441.514 
  "/>
<polyline clip-path="url(#clip870)" style="stroke:#000000; stroke-linecap:round; stroke-linejoin:round; stroke-width:4; stroke-opacity:1; fill:none" points="
  158.645,96.8724 177.543,96.8724 
  "/>
<path clip-path="url(#clip870)" d="M62.1447 1461.24 Q58.5336 1461.24 56.7049 1464.8 Q54.8993 1468.34 54.8993 1475.47 Q54.8993 1482.58 56.7049 1486.14 Q58.5336 1489.69 62.1447 1489.69 Q65.7789 1489.69 67.5844 1486.14 Q69.4131 1482.58 69.4131 1475.47 Q69.4131 1468.34 67.5844 1464.8 Q65.7789 1461.24 62.1447 1461.24 M62.1447 1457.53 Q67.9548 1457.53 71.0103 1462.14 Q74.089 1466.72 74.089 1475.47 Q74.089 1484.2 71.0103 1488.81 Q67.9548 1493.39 62.1447 1493.39 Q56.3345 1493.39 53.2558 1488.81 Q50.2003 1484.2 50.2003 1475.47 Q50.2003 1466.72 53.2558 1462.14 Q56.3345 1457.53 62.1447 1457.53 Z" fill="#000000" fill-rule="evenodd" fill-opacity="1" /><path clip-path="url(#clip870)" d="M82.3066 1486.84 L87.1908 1486.84 L87.1908 1492.72 L82.3066 1492.72 L82.3066 1486.84 Z" fill="#000000" fill-rule="evenodd" fill-opacity="1" /><path clip-path="url(#clip870)" d="M97.4222 1458.16 L115.779 1458.16 L115.779 1462.09 L101.705 1462.09 L101.705 1470.57 Q102.723 1470.22 103.742 1470.06 Q104.76 1469.87 105.779 1469.87 Q111.566 1469.87 114.945 1473.04 Q118.325 1476.21 118.325 1481.63 Q118.325 1487.21 114.853 1490.31 Q111.38 1493.39 105.061 1493.39 Q102.885 1493.39 100.617 1493.02 Q98.3713 1492.65 95.9639 1491.91 L95.9639 1487.21 Q98.0472 1488.34 100.269 1488.9 Q102.492 1489.45 104.968 1489.45 Q108.973 1489.45 111.311 1487.35 Q113.649 1485.24 113.649 1481.63 Q113.649 1478.02 111.311 1475.91 Q108.973 1473.81 104.968 1473.81 Q103.094 1473.81 101.219 1474.22 Q99.3667 1474.64 97.4222 1475.52 L97.4222 1458.16 Z" fill="#000000" fill-rule="evenodd" fill-opacity="1" /><path clip-path="url(#clip870)" d="M51.9595 1144.14 L59.5984 1144.14 L59.5984 1117.78 L51.2882 1119.44 L51.2882 1115.18 L59.5521 1113.52 L64.228 1113.52 L64.228 1144.14 L71.8668 1144.14 L71.8668 1148.08 L51.9595 1148.08 L51.9595 1144.14 Z" fill="#000000" fill-rule="evenodd" fill-opacity="1" /><path clip-path="url(#clip870)" d="M81.3112 1142.2 L86.1954 1142.2 L86.1954 1148.08 L81.3112 1148.08 L81.3112 1142.2 Z" fill="#000000" fill-rule="evenodd" fill-opacity="1" /><path clip-path="url(#clip870)" d="M106.381 1116.6 Q102.769 1116.6 100.941 1120.16 Q99.1352 1123.7 99.1352 1130.83 Q99.1352 1137.94 100.941 1141.5 Q102.769 1145.04 106.381 1145.04 Q110.015 1145.04 111.82 1141.5 Q113.649 1137.94 113.649 1130.83 Q113.649 1123.7 111.82 1120.16 Q110.015 1116.6 106.381 1116.6 M106.381 1112.89 Q112.191 1112.89 115.246 1117.5 Q118.325 1122.08 118.325 1130.83 Q118.325 1139.56 115.246 1144.16 Q112.191 1148.75 106.381 1148.75 Q100.57 1148.75 97.4917 1144.16 Q94.4361 1139.56 94.4361 1130.83 Q94.4361 1122.08 97.4917 1117.5 Q100.57 1112.89 106.381 1112.89 Z" fill="#000000" fill-rule="evenodd" fill-opacity="1" /><path clip-path="url(#clip870)" d="M52.9549 799.5 L60.5937 799.5 L60.5937 773.134 L52.2836 774.801 L52.2836 770.542 L60.5474 768.875 L65.2233 768.875 L65.2233 799.5 L72.8622 799.5 L72.8622 803.435 L52.9549 803.435 L52.9549 799.5 Z" fill="#000000" fill-rule="evenodd" fill-opacity="1" /><path clip-path="url(#clip870)" d="M82.3066 797.556 L87.1908 797.556 L87.1908 803.435 L82.3066 803.435 L82.3066 797.556 Z" fill="#000000" fill-rule="evenodd" fill-opacity="1" /><path clip-path="url(#clip870)" d="M97.4222 768.875 L115.779 768.875 L115.779 772.81 L101.705 772.81 L101.705 781.282 Q102.723 780.935 103.742 780.773 Q104.76 780.588 105.779 780.588 Q111.566 780.588 114.945 783.759 Q118.325 786.931 118.325 792.347 Q118.325 797.926 114.853 801.028 Q111.38 804.106 105.061 804.106 Q102.885 804.106 100.617 803.736 Q98.3713 803.366 95.9639 802.625 L95.9639 797.926 Q98.0472 799.06 100.269 799.616 Q102.492 800.171 104.968 800.171 Q108.973 800.171 111.311 798.065 Q113.649 795.958 113.649 792.347 Q113.649 788.736 111.311 786.63 Q108.973 784.523 104.968 784.523 Q103.094 784.523 101.219 784.94 Q99.3667 785.357 97.4222 786.236 L97.4222 768.875 Z" fill="#000000" fill-rule="evenodd" fill-opacity="1" /><path clip-path="url(#clip870)" d="M55.1771 454.859 L71.4965 454.859 L71.4965 458.794 L49.5521 458.794 L49.5521 454.859 Q52.2141 452.104 56.7975 447.474 Q61.4039 442.822 62.5845 441.479 Q64.8298 438.956 65.7094 437.22 Q66.6122 435.461 66.6122 433.771 Q66.6122 431.016 64.6678 429.28 Q62.7465 427.544 59.6447 427.544 Q57.4456 427.544 54.9919 428.308 Q52.5614 429.072 49.7836 430.623 L49.7836 425.9 Q52.6077 424.766 55.0614 424.188 Q57.515 423.609 59.5521 423.609 Q64.9224 423.609 68.1168 426.294 Q71.3113 428.979 71.3113 433.47 Q71.3113 435.599 70.5011 437.521 Q69.7141 439.419 67.6076 442.011 Q67.0289 442.683 63.927 445.9 Q60.8252 449.095 55.1771 454.859 Z" fill="#000000" fill-rule="evenodd" fill-opacity="1" /><path clip-path="url(#clip870)" d="M81.3112 452.914 L86.1954 452.914 L86.1954 458.794 L81.3112 458.794 L81.3112 452.914 Z" fill="#000000" fill-rule="evenodd" fill-opacity="1" /><path clip-path="url(#clip870)" d="M106.381 427.312 Q102.769 427.312 100.941 430.877 Q99.1352 434.419 99.1352 441.549 Q99.1352 448.655 100.941 452.22 Q102.769 455.761 106.381 455.761 Q110.015 455.761 111.82 452.22 Q113.649 448.655 113.649 441.549 Q113.649 434.419 111.82 430.877 Q110.015 427.312 106.381 427.312 M106.381 423.609 Q112.191 423.609 115.246 428.215 Q118.325 432.799 118.325 441.549 Q118.325 450.275 115.246 454.882 Q112.191 459.465 106.381 459.465 Q100.57 459.465 97.4917 454.882 Q94.4361 450.275 94.4361 441.549 Q94.4361 432.799 97.4917 428.215 Q100.57 423.609 106.381 423.609 Z" fill="#000000" fill-rule="evenodd" fill-opacity="1" /><path clip-path="url(#clip870)" d="M56.1725 110.217 L72.4918 110.217 L72.4918 114.152 L50.5475 114.152 L50.5475 110.217 Q53.2095 107.463 57.7928 102.833 Q62.3993 98.1803 63.5798 96.8377 Q65.8252 94.3146 66.7048 92.5785 Q67.6076 90.8192 67.6076 89.1294 Q67.6076 86.3748 65.6632 84.6387 Q63.7419 82.9026 60.64 82.9026 Q58.441 82.9026 55.9873 83.6665 Q53.5567 84.4304 50.779 85.9813 L50.779 81.2591 Q53.603 80.1249 56.0567 79.5462 Q58.5104 78.9675 60.5474 78.9675 Q65.9178 78.9675 69.1122 81.6526 Q72.3066 84.3378 72.3066 88.8285 Q72.3066 90.9581 71.4965 92.8794 Q70.7094 94.7776 68.6029 97.3701 Q68.0242 98.0414 64.9224 101.259 Q61.8206 104.453 56.1725 110.217 Z" fill="#000000" fill-rule="evenodd" fill-opacity="1" /><path clip-path="url(#clip870)" d="M82.3066 108.273 L87.1908 108.273 L87.1908 114.152 L82.3066 114.152 L82.3066 108.273 Z" fill="#000000" fill-rule="evenodd" fill-opacity="1" /><path clip-path="url(#clip870)" d="M97.4222 79.5924 L115.779 79.5924 L115.779 83.5276 L101.705 83.5276 L101.705 91.9998 Q102.723 91.6526 103.742 91.4905 Q104.76 91.3053 105.779 91.3053 Q111.566 91.3053 114.945 94.4766 Q118.325 97.6479 118.325 103.065 Q118.325 108.643 114.853 111.745 Q111.38 114.824 105.061 114.824 Q102.885 114.824 100.617 114.453 Q98.3713 114.083 95.9639 113.342 L95.9639 108.643 Q98.0472 109.777 100.269 110.333 Q102.492 110.889 104.968 110.889 Q108.973 110.889 111.311 108.782 Q113.649 106.676 113.649 103.065 Q113.649 99.4535 111.311 97.347 Q108.973 95.2405 104.968 95.2405 Q103.094 95.2405 101.219 95.6572 Q99.3667 96.0738 97.4222 96.9535 L97.4222 79.5924 Z" fill="#000000" fill-rule="evenodd" fill-opacity="1" /><path clip-path="url(#clip872)" d="
M859.467 1748.68 L866.129 1739.97 L872.246 1731.26 L877.78 1722.55 L882.699 1713.84 L886.973 1705.13 L890.575 1696.42 L893.485 1687.71 L895.685 1679 L897.162 1670.29 
  L897.91 1661.58 L897.926 1652.87 L897.212 1644.16 L895.775 1635.45 L893.627 1626.74 L890.784 1618.03 L887.267 1609.32 L883.101 1600.61 L878.315 1591.9 L872.941 1583.19 
  L867.013 1574.48 L860.57 1565.77 L853.653 1557.05 L846.303 1548.34 L838.565 1539.63 L830.483 1530.92 L822.103 1522.21 L813.471 1513.5 L804.632 1504.79 L795.631 1496.08 
  L786.513 1487.37 L777.32 1478.66 L768.095 1469.95 L758.876 1461.24 L749.701 1452.53 L740.606 1443.82 L731.623 1435.11 L722.782 1426.4 L714.113 1417.69 L705.638 1408.98 
  L421.181 1408.98 L412.707 1417.69 L404.037 1426.4 L395.197 1435.11 L386.214 1443.82 L377.118 1452.53 L367.943 1461.24 L358.724 1469.95 L349.499 1478.66 L340.306 1487.37 
  L331.188 1496.08 L322.188 1504.79 L313.349 1513.5 L304.716 1522.21 L296.336 1530.92 L288.255 1539.63 L280.516 1548.34 L273.167 1557.05 L266.249 1565.77 L259.806 1574.48 
  L253.879 1583.19 L248.504 1591.9 L243.718 1600.61 L239.552 1609.32 L236.035 1618.03 L233.193 1626.74 L231.044 1635.45 L229.607 1644.16 L228.893 1652.87 L228.909 1661.58 
  L229.657 1670.29 L231.135 1679 L233.334 1687.71 L236.244 1696.42 L239.846 1705.13 L244.12 1713.84 L249.039 1722.55 L254.574 1731.26 L260.69 1739.97 L267.352 1748.68 
  L859.467 1748.68  Z
  " fill="#009af9" fill-rule="evenodd" fill-opacity="1"/>
<polyline clip-path="url(#clip872)" style="stroke:#000000; stroke-linecap:round; stroke-linejoin:round; stroke-width:4; stroke-opacity:1; fill:none" points="
  859.467,1748.68 866.129,1739.97 872.246,1731.26 877.78,1722.55 882.699,1713.84 886.973,1705.13 890.575,1696.42 893.485,1687.71 895.685,1679 897.162,1670.29 
  897.91,1661.58 897.926,1652.87 897.212,1644.16 895.775,1635.45 893.627,1626.74 890.784,1618.03 887.267,1609.32 883.101,1600.61 878.315,1591.9 872.941,1583.19 
  867.013,1574.48 860.57,1565.77 853.653,1557.05 846.303,1548.34 838.565,1539.63 830.483,1530.92 822.103,1522.21 813.471,1513.5 804.632,1504.79 795.631,1496.08 
  786.513,1487.37 777.32,1478.66 768.095,1469.95 758.876,1461.24 749.701,1452.53 740.606,1443.82 731.623,1435.11 722.782,1426.4 714.113,1417.69 705.638,1408.98 
  421.181,1408.98 412.707,1417.69 404.037,1426.4 395.197,1435.11 386.214,1443.82 377.118,1452.53 367.943,1461.24 358.724,1469.95 349.499,1478.66 340.306,1487.37 
  331.188,1496.08 322.188,1504.79 313.349,1513.5 304.716,1522.21 296.336,1530.92 288.255,1539.63 280.516,1548.34 273.167,1557.05 266.249,1565.77 259.806,1574.48 
  253.879,1583.19 248.504,1591.9 243.718,1600.61 239.552,1609.32 236.035,1618.03 233.193,1626.74 231.044,1635.45 229.607,1644.16 228.893,1652.87 228.909,1661.58 
  229.657,1670.29 231.135,1679 233.334,1687.71 236.244,1696.42 239.846,1705.13 244.12,1713.84 249.039,1722.55 254.574,1731.26 260.69,1739.97 267.352,1748.68 
  859.467,1748.68 
  "/>
<path clip-path="url(#clip872)" d="
M1606.49 1123.19 L1615.12 1113.44 L1623.71 1103.69 L1632.21 1093.94 L1640.59 1084.19 L1648.82 1074.44 L1656.88 1064.69 L1664.71 1054.94 L1672.29 1045.19 L1679.59 1035.45 
  L1686.56 1025.7 L1693.17 1015.95 L1699.4 1006.2 L1705.21 996.448 L1710.56 986.699 L1715.43 976.949 L1719.79 967.2 L1723.62 957.451 L1726.89 947.702 L1729.58 937.952 
  L1731.67 928.203 L1733.14 918.454 L1734 908.704 L1734.22 898.955 L1733.8 889.206 L1732.74 879.457 L1731.05 869.707 L1728.73 859.958 L1725.79 850.209 L1722.24 840.46 
  L1718.1 830.71 L1713.39 820.961 L1708.14 811.212 L1702.37 801.462 L1696.12 791.713 L1689.41 781.964 L1682.28 772.215 L1674.76 762.465 L1666.9 752.716 L1658.74 742.967 
  L1650.31 733.217 L1641.66 723.468 L1632.83 713.719 L1623.86 703.97 L1614.79 694.22 L1605.66 684.471 L1596.51 674.722 L1587.37 664.973 L1578.29 655.223 L1569.3 645.474 
  L1560.43 635.725 L1551.7 625.975 L1543.16 616.226 L1534.81 606.477 L1526.68 596.728 L1518.8 586.978 L1280.6 586.978 L1272.72 596.728 L1264.59 606.477 L1256.24 616.226 
  L1247.7 625.975 L1238.97 635.725 L1230.1 645.474 L1221.11 655.223 L1212.03 664.973 L1202.9 674.722 L1193.75 684.471 L1184.62 694.22 L1175.54 703.97 L1166.57 713.719 
  L1157.74 723.468 L1149.09 733.217 L1140.66 742.967 L1132.5 752.716 L1124.64 762.465 L1117.12 772.215 L1109.99 781.964 L1103.28 791.713 L1097.03 801.462 L1091.26 811.212 
  L1086.01 820.961 L1081.3 830.71 L1077.16 840.46 L1073.61 850.209 L1070.67 859.958 L1068.35 869.707 L1066.66 879.457 L1065.6 889.206 L1065.18 898.955 L1065.4 908.704 
  L1066.26 918.454 L1067.74 928.203 L1069.83 937.952 L1072.51 947.702 L1075.78 957.451 L1079.61 967.2 L1083.97 976.949 L1088.84 986.699 L1094.19 996.448 L1100 1006.2 
  L1106.23 1015.95 L1112.84 1025.7 L1119.82 1035.45 L1127.11 1045.19 L1134.69 1054.94 L1142.52 1064.69 L1150.58 1074.44 L1158.81 1084.19 L1167.19 1093.94 L1175.69 1103.69 
  L1184.28 1113.44 L1192.91 1123.19 L1606.49 1123.19  Z
  " fill="#009af9" fill-rule="evenodd" fill-opacity="1"/>
<polyline clip-path="url(#clip872)" style="stroke:#000000; stroke-linecap:round; stroke-linejoin:round; stroke-width:4; stroke-opacity:1; fill:none" points="
  1606.49,1123.19 1615.12,1113.44 1623.71,1103.69 1632.21,1093.94 1640.59,1084.19 1648.82,1074.44 1656.88,1064.69 1664.71,1054.94 1672.29,1045.19 1679.59,1035.45 
  1686.56,1025.7 1693.17,1015.95 1699.4,1006.2 1705.21,996.448 1710.56,986.699 1715.43,976.949 1719.79,967.2 1723.62,957.451 1726.89,947.702 1729.58,937.952 
  1731.67,928.203 1733.14,918.454 1734,908.704 1734.22,898.955 1733.8,889.206 1732.74,879.457 1731.05,869.707 1728.73,859.958 1725.79,850.209 1722.24,840.46 
  1718.1,830.71 1713.39,820.961 1708.14,811.212 1702.37,801.462 1696.12,791.713 1689.41,781.964 1682.28,772.215 1674.76,762.465 1666.9,752.716 1658.74,742.967 
  1650.31,733.217 1641.66,723.468 1632.83,713.719 1623.86,703.97 1614.79,694.22 1605.66,684.471 1596.51,674.722 1587.37,664.973 1578.29,655.223 1569.3,645.474 
  1560.43,635.725 1551.7,625.975 1543.16,616.226 1534.81,606.477 1526.68,596.728 1518.8,586.978 1280.6,586.978 1272.72,596.728 1264.59,606.477 1256.24,616.226 
  1247.7,625.975 1238.97,635.725 1230.1,645.474 1221.11,655.223 1212.03,664.973 1202.9,674.722 1193.75,684.471 1184.62,694.22 1175.54,703.97 1166.57,713.719 
  1157.74,723.468 1149.09,733.217 1140.66,742.967 1132.5,752.716 1124.64,762.465 1117.12,772.215 1109.99,781.964 1103.28,791.713 1097.03,801.462 1091.26,811.212 
  1086.01,820.961 1081.3,830.71 1077.16,840.46 1073.61,850.209 1070.67,859.958 1068.35,869.707 1066.66,879.457 1065.6,889.206 1065.18,898.955 1065.4,908.704 
  1066.26,918.454 1067.74,928.203 1069.83,937.952 1072.51,947.702 1075.78,957.451 1079.61,967.2 1083.97,976.949 1088.84,986.699 1094.19,996.448 1100,1006.2 
  1106.23,1015.95 1112.84,1025.7 1119.82,1035.45 1127.11,1045.19 1134.69,1054.94 1142.52,1064.69 1150.58,1074.44 1158.81,1084.19 1167.19,1093.94 1175.69,1103.69 
  1184.28,1113.44 1192.91,1123.19 1606.49,1123.19 
  "/>
<path clip-path="url(#clip872)" d="
M2325.75 848.178 L2332.12 837.389 L2338.77 826.601 L2345.68 815.812 L2352.84 805.024 L2360.26 794.236 L2367.91 783.447 L2375.78 772.659 L2383.85 761.87 L2392.1 751.082 
  L2400.51 740.294 L2409.05 729.505 L2417.69 718.717 L2426.4 707.928 L2435.15 697.14 L2443.91 686.352 L2452.63 675.563 L2461.28 664.775 L2469.82 653.986 L2478.22 643.198 
  L2486.44 632.41 L2494.44 621.621 L2502.18 610.833 L2509.63 600.044 L2516.75 589.256 L2523.52 578.468 L2529.91 567.679 L2535.89 556.891 L2541.43 546.103 L2546.53 535.314 
  L2551.15 524.526 L2555.3 513.737 L2558.95 502.949 L2562.11 492.161 L2564.76 481.372 L2566.91 470.584 L2568.55 459.795 L2569.7 449.007 L2570.35 438.219 L2570.51 427.43 
  L2570.19 416.642 L2569.4 405.853 L2568.15 395.065 L2566.45 384.277 L2564.31 373.488 L2561.74 362.7 L2558.76 351.911 L2555.37 341.123 L2551.59 330.335 L2547.43 319.546 
  L2542.9 308.758 L2538.01 297.969 L2532.78 287.181 L2527.22 276.393 L2521.33 265.604 L2515.14 254.816 L2508.66 244.027 L2501.9 233.239 L2494.88 222.451 L2487.62 211.662 
  L2480.14 200.874 L2472.45 190.085 L2464.58 179.297 L2456.56 168.509 L2448.4 157.72 L2440.13 146.932 L2431.78 136.144 L2423.37 125.355 L2414.94 114.567 L2406.51 103.778 
  L2065.48 103.778 L2057.04 114.567 L2048.61 125.355 L2040.2 136.144 L2031.85 146.932 L2023.58 157.72 L2015.42 168.509 L2007.4 179.297 L1999.53 190.085 L1991.84 200.874 
  L1984.36 211.662 L1977.1 222.451 L1970.08 233.239 L1963.32 244.027 L1956.84 254.816 L1950.65 265.604 L1944.77 276.393 L1939.2 287.181 L1933.97 297.969 L1929.08 308.758 
  L1924.55 319.546 L1920.39 330.335 L1916.61 341.123 L1913.23 351.911 L1910.24 362.7 L1907.68 373.488 L1905.54 384.277 L1903.84 395.065 L1902.58 405.853 L1901.79 416.642 
  L1901.47 427.43 L1901.64 438.219 L1902.28 449.007 L1903.43 459.795 L1905.07 470.584 L1907.22 481.372 L1909.87 492.161 L1913.03 502.949 L1916.68 513.737 L1920.83 524.526 
  L1925.45 535.314 L1930.55 546.103 L1936.1 556.891 L1942.07 567.679 L1948.46 578.468 L1955.23 589.256 L1962.36 600.044 L1969.8 610.833 L1977.54 621.621 L1985.54 632.41 
  L1993.76 643.198 L2002.16 653.986 L2010.7 664.775 L2019.35 675.563 L2028.08 686.352 L2036.83 697.14 L2045.58 707.928 L2054.29 718.717 L2062.93 729.505 L2071.47 740.294 
  L2079.88 751.082 L2088.13 761.87 L2096.2 772.659 L2104.07 783.447 L2111.72 794.236 L2119.14 805.024 L2126.31 815.812 L2133.22 826.601 L2139.86 837.389 L2146.23 848.178 
  L2325.75 848.178  Z
  " fill="#009af9" fill-rule="evenodd" fill-opacity="1"/>
<polyline clip-path="url(#clip872)" style="stroke:#000000; stroke-linecap:round; stroke-linejoin:round; stroke-width:4; stroke-opacity:1; fill:none" points="
  2325.75,848.178 2332.12,837.389 2338.77,826.601 2345.68,815.812 2352.84,805.024 2360.26,794.236 2367.91,783.447 2375.78,772.659 2383.85,761.87 2392.1,751.082 
  2400.51,740.294 2409.05,729.505 2417.69,718.717 2426.4,707.928 2435.15,697.14 2443.91,686.352 2452.63,675.563 2461.28,664.775 2469.82,653.986 2478.22,643.198 
  2486.44,632.41 2494.44,621.621 2502.18,610.833 2509.63,600.044 2516.75,589.256 2523.52,578.468 2529.91,567.679 2535.89,556.891 2541.43,546.103 2546.53,535.314 
  2551.15,524.526 2555.3,513.737 2558.95,502.949 2562.11,492.161 2564.76,481.372 2566.91,470.584 2568.55,459.795 2569.7,449.007 2570.35,438.219 2570.51,427.43 
  2570.19,416.642 2569.4,405.853 2568.15,395.065 2566.45,384.277 2564.31,373.488 2561.74,362.7 2558.76,351.911 2555.37,341.123 2551.59,330.335 2547.43,319.546 
  2542.9,308.758 2538.01,297.969 2532.78,287.181 2527.22,276.393 2521.33,265.604 2515.14,254.816 2508.66,244.027 2501.9,233.239 2494.88,222.451 2487.62,211.662 
  2480.14,200.874 2472.45,190.085 2464.58,179.297 2456.56,168.509 2448.4,157.72 2440.13,146.932 2431.78,136.144 2423.37,125.355 2414.94,114.567 2406.51,103.778 
  2065.48,103.778 2057.04,114.567 2048.61,125.355 2040.2,136.144 2031.85,146.932 2023.58,157.72 2015.42,168.509 2007.4,179.297 1999.53,190.085 1991.84,200.874 
  1984.36,211.662 1977.1,222.451 1970.08,233.239 1963.32,244.027 1956.84,254.816 1950.65,265.604 1944.77,276.393 1939.2,287.181 1933.97,297.969 1929.08,308.758 
  1924.55,319.546 1920.39,330.335 1916.61,341.123 1913.23,351.911 1910.24,362.7 1907.68,373.488 1905.54,384.277 1903.84,395.065 1902.58,405.853 1901.79,416.642 
  1901.47,427.43 1901.64,438.219 1902.28,449.007 1903.43,459.795 1905.07,470.584 1907.22,481.372 1909.87,492.161 1913.03,502.949 1916.68,513.737 1920.83,524.526 
  1925.45,535.314 1930.55,546.103 1936.1,556.891 1942.07,567.679 1948.46,578.468 1955.23,589.256 1962.36,600.044 1969.8,610.833 1977.54,621.621 1985.54,632.41 
  1993.76,643.198 2002.16,653.986 2010.7,664.775 2019.35,675.563 2028.08,686.352 2036.83,697.14 2045.58,707.928 2054.29,718.717 2062.93,729.505 2071.47,740.294 
  2079.88,751.082 2088.13,761.87 2096.2,772.659 2104.07,783.447 2111.72,794.236 2119.14,805.024 2126.31,815.812 2133.22,826.601 2139.86,837.389 2146.23,848.178 
  2325.75,848.178 
  "/>
<circle clip-path="url(#clip872)" cx="310.793" cy="1682.22" r="14.4" fill="#e26f46" fill-rule="evenodd" fill-opacity="1" stroke="#000000" stroke-opacity="1" stroke-width="3.84"/>
<circle clip-path="url(#clip872)" cx="810.664" cy="1682.22" r="14.4" fill="#e26f46" fill-rule="evenodd" fill-opacity="1" stroke="#000000" stroke-opacity="1" stroke-width="3.84"/>
<circle clip-path="url(#clip872)" cx="843.283" cy="1682.22" r="14.4" fill="#e26f46" fill-rule="evenodd" fill-opacity="1" stroke="#000000" stroke-opacity="1" stroke-width="3.84"/>
<circle clip-path="url(#clip872)" cx="579.824" cy="1682.22" r="14.4" fill="#e26f46" fill-rule="evenodd" fill-opacity="1" stroke="#000000" stroke-opacity="1" stroke-width="3.84"/>
<circle clip-path="url(#clip872)" cx="334.725" cy="1682.22" r="14.4" fill="#e26f46" fill-rule="evenodd" fill-opacity="1" stroke="#000000" stroke-opacity="1" stroke-width="3.84"/>
<circle clip-path="url(#clip872)" cx="492.623" cy="1544.37" r="14.4" fill="#e26f46" fill-rule="evenodd" fill-opacity="1" stroke="#000000" stroke-opacity="1" stroke-width="3.84"/>
<circle clip-path="url(#clip872)" cx="596.009" cy="1613.29" r="14.4" fill="#e26f46" fill-rule="evenodd" fill-opacity="1" stroke="#000000" stroke-opacity="1" stroke-width="3.84"/>
<circle clip-path="url(#clip872)" cx="427.332" cy="1682.22" r="14.4" fill="#e26f46" fill-rule="evenodd" fill-opacity="1" stroke="#000000" stroke-opacity="1" stroke-width="3.84"/>
<circle clip-path="url(#clip872)" cx="299.697" cy="1682.22" r="14.4" fill="#e26f46" fill-rule="evenodd" fill-opacity="1" stroke="#000000" stroke-opacity="1" stroke-width="3.84"/>
<circle clip-path="url(#clip872)" cx="590.615" cy="1751.15" r="14.4" fill="#e26f46" fill-rule="evenodd" fill-opacity="1" stroke="#000000" stroke-opacity="1" stroke-width="3.84"/>
<circle clip-path="url(#clip872)" cx="554.377" cy="1682.22" r="14.4" fill="#e26f46" fill-rule="evenodd" fill-opacity="1" stroke="#000000" stroke-opacity="1" stroke-width="3.84"/>
<circle clip-path="url(#clip872)" cx="816.386" cy="1682.22" r="14.4" fill="#e26f46" fill-rule="evenodd" fill-opacity="1" stroke="#000000" stroke-opacity="1" stroke-width="3.84"/>
<circle clip-path="url(#clip872)" cx="504.63" cy="1751.15" r="14.4" fill="#e26f46" fill-rule="evenodd" fill-opacity="1" stroke="#000000" stroke-opacity="1" stroke-width="3.84"/>
<circle clip-path="url(#clip872)" cx="566.816" cy="1751.15" r="14.4" fill="#e26f46" fill-rule="evenodd" fill-opacity="1" stroke="#000000" stroke-opacity="1" stroke-width="3.84"/>
<circle clip-path="url(#clip872)" cx="299.757" cy="1682.22" r="14.4" fill="#e26f46" fill-rule="evenodd" fill-opacity="1" stroke="#000000" stroke-opacity="1" stroke-width="3.84"/>
<circle clip-path="url(#clip872)" cx="613.1" cy="1544.37" r="14.4" fill="#e26f46" fill-rule="evenodd" fill-opacity="1" stroke="#000000" stroke-opacity="1" stroke-width="3.84"/>
<circle clip-path="url(#clip872)" cx="600.385" cy="1544.37" r="14.4" fill="#e26f46" fill-rule="evenodd" fill-opacity="1" stroke="#000000" stroke-opacity="1" stroke-width="3.84"/>
<circle clip-path="url(#clip872)" cx="507.322" cy="1613.29" r="14.4" fill="#e26f46" fill-rule="evenodd" fill-opacity="1" stroke="#000000" stroke-opacity="1" stroke-width="3.84"/>
<circle clip-path="url(#clip872)" cx="519.6" cy="1613.29" r="14.4" fill="#e26f46" fill-rule="evenodd" fill-opacity="1" stroke="#000000" stroke-opacity="1" stroke-width="3.84"/>
<circle clip-path="url(#clip872)" cx="531.413" cy="1613.29" r="14.4" fill="#e26f46" fill-rule="evenodd" fill-opacity="1" stroke="#000000" stroke-opacity="1" stroke-width="3.84"/>
<circle clip-path="url(#clip872)" cx="719.012" cy="1682.22" r="14.4" fill="#e26f46" fill-rule="evenodd" fill-opacity="1" stroke="#000000" stroke-opacity="1" stroke-width="3.84"/>
<circle clip-path="url(#clip872)" cx="598.529" cy="1544.37" r="14.4" fill="#e26f46" fill-rule="evenodd" fill-opacity="1" stroke="#000000" stroke-opacity="1" stroke-width="3.84"/>
<circle clip-path="url(#clip872)" cx="554.763" cy="1682.22" r="14.4" fill="#e26f46" fill-rule="evenodd" fill-opacity="1" stroke="#000000" stroke-opacity="1" stroke-width="3.84"/>
<circle clip-path="url(#clip872)" cx="573.543" cy="1475.44" r="14.4" fill="#e26f46" fill-rule="evenodd" fill-opacity="1" stroke="#000000" stroke-opacity="1" stroke-width="3.84"/>
<circle clip-path="url(#clip872)" cx="562.075" cy="1682.22" r="14.4" fill="#e26f46" fill-rule="evenodd" fill-opacity="1" stroke="#000000" stroke-opacity="1" stroke-width="3.84"/>
<circle clip-path="url(#clip872)" cx="591.205" cy="1682.22" r="14.4" fill="#e26f46" fill-rule="evenodd" fill-opacity="1" stroke="#000000" stroke-opacity="1" stroke-width="3.84"/>
<circle clip-path="url(#clip872)" cx="604.797" cy="1544.37" r="14.4" fill="#e26f46" fill-rule="evenodd" fill-opacity="1" stroke="#000000" stroke-opacity="1" stroke-width="3.84"/>
<circle clip-path="url(#clip872)" cx="604.512" cy="1682.22" r="14.4" fill="#e26f46" fill-rule="evenodd" fill-opacity="1" stroke="#000000" stroke-opacity="1" stroke-width="3.84"/>
<circle clip-path="url(#clip872)" cx="432.984" cy="1682.22" r="14.4" fill="#e26f46" fill-rule="evenodd" fill-opacity="1" stroke="#000000" stroke-opacity="1" stroke-width="3.84"/>
<circle clip-path="url(#clip872)" cx="730.236" cy="1682.22" r="14.4" fill="#e26f46" fill-rule="evenodd" fill-opacity="1" stroke="#000000" stroke-opacity="1" stroke-width="3.84"/>
<circle clip-path="url(#clip872)" cx="434.089" cy="1682.22" r="14.4" fill="#e26f46" fill-rule="evenodd" fill-opacity="1" stroke="#000000" stroke-opacity="1" stroke-width="3.84"/>
<circle clip-path="url(#clip872)" cx="527.945" cy="1544.37" r="14.4" fill="#e26f46" fill-rule="evenodd" fill-opacity="1" stroke="#000000" stroke-opacity="1" stroke-width="3.84"/>
<circle clip-path="url(#clip872)" cx="532.231" cy="1751.15" r="14.4" fill="#e26f46" fill-rule="evenodd" fill-opacity="1" stroke="#000000" stroke-opacity="1" stroke-width="3.84"/>
<circle clip-path="url(#clip872)" cx="416.291" cy="1682.22" r="14.4" fill="#e26f46" fill-rule="evenodd" fill-opacity="1" stroke="#000000" stroke-opacity="1" stroke-width="3.84"/>
<circle clip-path="url(#clip872)" cx="452.812" cy="1682.22" r="14.4" fill="#e26f46" fill-rule="evenodd" fill-opacity="1" stroke="#000000" stroke-opacity="1" stroke-width="3.84"/>
<circle clip-path="url(#clip872)" cx="478.612" cy="1682.22" r="14.4" fill="#e26f46" fill-rule="evenodd" fill-opacity="1" stroke="#000000" stroke-opacity="1" stroke-width="3.84"/>
<circle clip-path="url(#clip872)" cx="629.497" cy="1682.22" r="14.4" fill="#e26f46" fill-rule="evenodd" fill-opacity="1" stroke="#000000" stroke-opacity="1" stroke-width="3.84"/>
<circle clip-path="url(#clip872)" cx="526.205" cy="1751.15" r="14.4" fill="#e26f46" fill-rule="evenodd" fill-opacity="1" stroke="#000000" stroke-opacity="1" stroke-width="3.84"/>
<circle clip-path="url(#clip872)" cx="708.68" cy="1682.22" r="14.4" fill="#e26f46" fill-rule="evenodd" fill-opacity="1" stroke="#000000" stroke-opacity="1" stroke-width="3.84"/>
<circle clip-path="url(#clip872)" cx="551.358" cy="1682.22" r="14.4" fill="#e26f46" fill-rule="evenodd" fill-opacity="1" stroke="#000000" stroke-opacity="1" stroke-width="3.84"/>
<circle clip-path="url(#clip872)" cx="638.245" cy="1613.29" r="14.4" fill="#e26f46" fill-rule="evenodd" fill-opacity="1" stroke="#000000" stroke-opacity="1" stroke-width="3.84"/>
<circle clip-path="url(#clip872)" cx="611.383" cy="1613.29" r="14.4" fill="#e26f46" fill-rule="evenodd" fill-opacity="1" stroke="#000000" stroke-opacity="1" stroke-width="3.84"/>
<circle clip-path="url(#clip872)" cx="551.913" cy="1682.22" r="14.4" fill="#e26f46" fill-rule="evenodd" fill-opacity="1" stroke="#000000" stroke-opacity="1" stroke-width="3.84"/>
<circle clip-path="url(#clip872)" cx="568.771" cy="1406.51" r="14.4" fill="#e26f46" fill-rule="evenodd" fill-opacity="1" stroke="#000000" stroke-opacity="1" stroke-width="3.84"/>
<circle clip-path="url(#clip872)" cx="590.437" cy="1544.37" r="14.4" fill="#e26f46" fill-rule="evenodd" fill-opacity="1" stroke="#000000" stroke-opacity="1" stroke-width="3.84"/>
<circle clip-path="url(#clip872)" cx="553.15" cy="1613.29" r="14.4" fill="#e26f46" fill-rule="evenodd" fill-opacity="1" stroke="#000000" stroke-opacity="1" stroke-width="3.84"/>
<circle clip-path="url(#clip872)" cx="763.435" cy="1682.22" r="14.4" fill="#e26f46" fill-rule="evenodd" fill-opacity="1" stroke="#000000" stroke-opacity="1" stroke-width="3.84"/>
<circle clip-path="url(#clip872)" cx="689.336" cy="1682.22" r="14.4" fill="#e26f46" fill-rule="evenodd" fill-opacity="1" stroke="#000000" stroke-opacity="1" stroke-width="3.84"/>
<circle clip-path="url(#clip872)" cx="875.391" cy="1682.22" r="14.4" fill="#e26f46" fill-rule="evenodd" fill-opacity="1" stroke="#000000" stroke-opacity="1" stroke-width="3.84"/>
<circle clip-path="url(#clip872)" cx="897.545" cy="1682.22" r="14.4" fill="#e26f46" fill-rule="evenodd" fill-opacity="1" stroke="#000000" stroke-opacity="1" stroke-width="3.84"/>
<circle clip-path="url(#clip872)" cx="1240.13" cy="855.083" r="14.4" fill="#e26f46" fill-rule="evenodd" fill-opacity="1" stroke="#000000" stroke-opacity="1" stroke-width="3.84"/>
<circle clip-path="url(#clip872)" cx="1655.51" cy="786.155" r="14.4" fill="#e26f46" fill-rule="evenodd" fill-opacity="1" stroke="#000000" stroke-opacity="1" stroke-width="3.84"/>
<circle clip-path="url(#clip872)" cx="1608.97" cy="786.155" r="14.4" fill="#e26f46" fill-rule="evenodd" fill-opacity="1" stroke="#000000" stroke-opacity="1" stroke-width="3.84"/>
<circle clip-path="url(#clip872)" cx="1699.22" cy="924.012" r="14.4" fill="#e26f46" fill-rule="evenodd" fill-opacity="1" stroke="#000000" stroke-opacity="1" stroke-width="3.84"/>
<circle clip-path="url(#clip872)" cx="1372.5" cy="786.155" r="14.4" fill="#e26f46" fill-rule="evenodd" fill-opacity="1" stroke="#000000" stroke-opacity="1" stroke-width="3.84"/>
<circle clip-path="url(#clip872)" cx="1640.62" cy="924.012" r="14.4" fill="#e26f46" fill-rule="evenodd" fill-opacity="1" stroke="#000000" stroke-opacity="1" stroke-width="3.84"/>
<circle clip-path="url(#clip872)" cx="1514.46" cy="717.227" r="14.4" fill="#e26f46" fill-rule="evenodd" fill-opacity="1" stroke="#000000" stroke-opacity="1" stroke-width="3.84"/>
<circle clip-path="url(#clip872)" cx="1343.73" cy="1130.8" r="14.4" fill="#e26f46" fill-rule="evenodd" fill-opacity="1" stroke="#000000" stroke-opacity="1" stroke-width="3.84"/>
<circle clip-path="url(#clip872)" cx="1551.84" cy="924.012" r="14.4" fill="#e26f46" fill-rule="evenodd" fill-opacity="1" stroke="#000000" stroke-opacity="1" stroke-width="3.84"/>
<circle clip-path="url(#clip872)" cx="1409.13" cy="855.083" r="14.4" fill="#e26f46" fill-rule="evenodd" fill-opacity="1" stroke="#000000" stroke-opacity="1" stroke-width="3.84"/>
<circle clip-path="url(#clip872)" cx="1329.09" cy="1130.8" r="14.4" fill="#e26f46" fill-rule="evenodd" fill-opacity="1" stroke="#000000" stroke-opacity="1" stroke-width="3.84"/>
<circle clip-path="url(#clip872)" cx="1314.34" cy="786.155" r="14.4" fill="#e26f46" fill-rule="evenodd" fill-opacity="1" stroke="#000000" stroke-opacity="1" stroke-width="3.84"/>
<circle clip-path="url(#clip872)" cx="1252.42" cy="1130.8" r="14.4" fill="#e26f46" fill-rule="evenodd" fill-opacity="1" stroke="#000000" stroke-opacity="1" stroke-width="3.84"/>
<circle clip-path="url(#clip872)" cx="1098.97" cy="855.083" r="14.4" fill="#e26f46" fill-rule="evenodd" fill-opacity="1" stroke="#000000" stroke-opacity="1" stroke-width="3.84"/>
<circle clip-path="url(#clip872)" cx="1648.4" cy="924.012" r="14.4" fill="#e26f46" fill-rule="evenodd" fill-opacity="1" stroke="#000000" stroke-opacity="1" stroke-width="3.84"/>
<circle clip-path="url(#clip872)" cx="1091.42" cy="855.083" r="14.4" fill="#e26f46" fill-rule="evenodd" fill-opacity="1" stroke="#000000" stroke-opacity="1" stroke-width="3.84"/>
<circle clip-path="url(#clip872)" cx="1202.99" cy="786.155" r="14.4" fill="#e26f46" fill-rule="evenodd" fill-opacity="1" stroke="#000000" stroke-opacity="1" stroke-width="3.84"/>
<circle clip-path="url(#clip872)" cx="1265.43" cy="1130.8" r="14.4" fill="#e26f46" fill-rule="evenodd" fill-opacity="1" stroke="#000000" stroke-opacity="1" stroke-width="3.84"/>
<circle clip-path="url(#clip872)" cx="1146.71" cy="786.155" r="14.4" fill="#e26f46" fill-rule="evenodd" fill-opacity="1" stroke="#000000" stroke-opacity="1" stroke-width="3.84"/>
<circle clip-path="url(#clip872)" cx="1518.78" cy="1061.87" r="14.4" fill="#e26f46" fill-rule="evenodd" fill-opacity="1" stroke="#000000" stroke-opacity="1" stroke-width="3.84"/>
<circle clip-path="url(#clip872)" cx="1409.19" cy="579.37" r="14.4" fill="#e26f46" fill-rule="evenodd" fill-opacity="1" stroke="#000000" stroke-opacity="1" stroke-width="3.84"/>
<circle clip-path="url(#clip872)" cx="1156.1" cy="924.012" r="14.4" fill="#e26f46" fill-rule="evenodd" fill-opacity="1" stroke="#000000" stroke-opacity="1" stroke-width="3.84"/>
<circle clip-path="url(#clip872)" cx="1547.02" cy="786.155" r="14.4" fill="#e26f46" fill-rule="evenodd" fill-opacity="1" stroke="#000000" stroke-opacity="1" stroke-width="3.84"/>
<circle clip-path="url(#clip872)" cx="1463.94" cy="992.94" r="14.4" fill="#e26f46" fill-rule="evenodd" fill-opacity="1" stroke="#000000" stroke-opacity="1" stroke-width="3.84"/>
<circle clip-path="url(#clip872)" cx="1653.67" cy="924.012" r="14.4" fill="#e26f46" fill-rule="evenodd" fill-opacity="1" stroke="#000000" stroke-opacity="1" stroke-width="3.84"/>
<circle clip-path="url(#clip872)" cx="1183.45" cy="855.083" r="14.4" fill="#e26f46" fill-rule="evenodd" fill-opacity="1" stroke="#000000" stroke-opacity="1" stroke-width="3.84"/>
<circle clip-path="url(#clip872)" cx="1414.79" cy="855.083" r="14.4" fill="#e26f46" fill-rule="evenodd" fill-opacity="1" stroke="#000000" stroke-opacity="1" stroke-width="3.84"/>
<circle clip-path="url(#clip872)" cx="1404.57" cy="648.299" r="14.4" fill="#e26f46" fill-rule="evenodd" fill-opacity="1" stroke="#000000" stroke-opacity="1" stroke-width="3.84"/>
<circle clip-path="url(#clip872)" cx="1579.89" cy="786.155" r="14.4" fill="#e26f46" fill-rule="evenodd" fill-opacity="1" stroke="#000000" stroke-opacity="1" stroke-width="3.84"/>
<circle clip-path="url(#clip872)" cx="1397.94" cy="1130.8" r="14.4" fill="#e26f46" fill-rule="evenodd" fill-opacity="1" stroke="#000000" stroke-opacity="1" stroke-width="3.84"/>
<circle clip-path="url(#clip872)" cx="1417.59" cy="1061.87" r="14.4" fill="#e26f46" fill-rule="evenodd" fill-opacity="1" stroke="#000000" stroke-opacity="1" stroke-width="3.84"/>
<circle clip-path="url(#clip872)" cx="1308.55" cy="1130.8" r="14.4" fill="#e26f46" fill-rule="evenodd" fill-opacity="1" stroke="#000000" stroke-opacity="1" stroke-width="3.84"/>
<circle clip-path="url(#clip872)" cx="1538.92" cy="992.94" r="14.4" fill="#e26f46" fill-rule="evenodd" fill-opacity="1" stroke="#000000" stroke-opacity="1" stroke-width="3.84"/>
<circle clip-path="url(#clip872)" cx="1514.57" cy="717.227" r="14.4" fill="#e26f46" fill-rule="evenodd" fill-opacity="1" stroke="#000000" stroke-opacity="1" stroke-width="3.84"/>
<circle clip-path="url(#clip872)" cx="1297.06" cy="786.155" r="14.4" fill="#e26f46" fill-rule="evenodd" fill-opacity="1" stroke="#000000" stroke-opacity="1" stroke-width="3.84"/>
<circle clip-path="url(#clip872)" cx="1255.74" cy="717.227" r="14.4" fill="#e26f46" fill-rule="evenodd" fill-opacity="1" stroke="#000000" stroke-opacity="1" stroke-width="3.84"/>
<circle clip-path="url(#clip872)" cx="1288.82" cy="786.155" r="14.4" fill="#e26f46" fill-rule="evenodd" fill-opacity="1" stroke="#000000" stroke-opacity="1" stroke-width="3.84"/>
<circle clip-path="url(#clip872)" cx="1427.4" cy="924.012" r="14.4" fill="#e26f46" fill-rule="evenodd" fill-opacity="1" stroke="#000000" stroke-opacity="1" stroke-width="3.84"/>
<circle clip-path="url(#clip872)" cx="1643.65" cy="924.012" r="14.4" fill="#e26f46" fill-rule="evenodd" fill-opacity="1" stroke="#000000" stroke-opacity="1" stroke-width="3.84"/>
<circle clip-path="url(#clip872)" cx="1540.01" cy="924.012" r="14.4" fill="#e26f46" fill-rule="evenodd" fill-opacity="1" stroke="#000000" stroke-opacity="1" stroke-width="3.84"/>
<circle clip-path="url(#clip872)" cx="1188.67" cy="992.94" r="14.4" fill="#e26f46" fill-rule="evenodd" fill-opacity="1" stroke="#000000" stroke-opacity="1" stroke-width="3.84"/>
<circle clip-path="url(#clip872)" cx="1545.18" cy="855.083" r="14.4" fill="#e26f46" fill-rule="evenodd" fill-opacity="1" stroke="#000000" stroke-opacity="1" stroke-width="3.84"/>
<circle clip-path="url(#clip872)" cx="1263.5" cy="992.94" r="14.4" fill="#e26f46" fill-rule="evenodd" fill-opacity="1" stroke="#000000" stroke-opacity="1" stroke-width="3.84"/>
<circle clip-path="url(#clip872)" cx="1281.5" cy="1130.8" r="14.4" fill="#e26f46" fill-rule="evenodd" fill-opacity="1" stroke="#000000" stroke-opacity="1" stroke-width="3.84"/>
<circle clip-path="url(#clip872)" cx="1201.3" cy="924.012" r="14.4" fill="#e26f46" fill-rule="evenodd" fill-opacity="1" stroke="#000000" stroke-opacity="1" stroke-width="3.84"/>
<circle clip-path="url(#clip872)" cx="1377.58" cy="992.94" r="14.4" fill="#e26f46" fill-rule="evenodd" fill-opacity="1" stroke="#000000" stroke-opacity="1" stroke-width="3.84"/>
<circle clip-path="url(#clip872)" cx="1706.12" cy="924.012" r="14.4" fill="#e26f46" fill-rule="evenodd" fill-opacity="1" stroke="#000000" stroke-opacity="1" stroke-width="3.84"/>
<circle clip-path="url(#clip872)" cx="1300.35" cy="924.012" r="14.4" fill="#e26f46" fill-rule="evenodd" fill-opacity="1" stroke="#000000" stroke-opacity="1" stroke-width="3.84"/>
<circle clip-path="url(#clip872)" cx="1434.19" cy="1061.87" r="14.4" fill="#e26f46" fill-rule="evenodd" fill-opacity="1" stroke="#000000" stroke-opacity="1" stroke-width="3.84"/>
<circle clip-path="url(#clip872)" cx="1148.72" cy="924.012" r="14.4" fill="#e26f46" fill-rule="evenodd" fill-opacity="1" stroke="#000000" stroke-opacity="1" stroke-width="3.84"/>
<circle clip-path="url(#clip872)" cx="2180.14" cy="96.8724" r="14.4" fill="#e26f46" fill-rule="evenodd" fill-opacity="1" stroke="#000000" stroke-opacity="1" stroke-width="3.84"/>
<circle clip-path="url(#clip872)" cx="2397.68" cy="510.442" r="14.4" fill="#e26f46" fill-rule="evenodd" fill-opacity="1" stroke="#000000" stroke-opacity="1" stroke-width="3.84"/>
<circle clip-path="url(#clip872)" cx="2488.38" cy="372.586" r="14.4" fill="#e26f46" fill-rule="evenodd" fill-opacity="1" stroke="#000000" stroke-opacity="1" stroke-width="3.84"/>
<circle clip-path="url(#clip872)" cx="2044.58" cy="579.37" r="14.4" fill="#e26f46" fill-rule="evenodd" fill-opacity="1" stroke="#000000" stroke-opacity="1" stroke-width="3.84"/>
<circle clip-path="url(#clip872)" cx="2434.81" cy="303.657" r="14.4" fill="#e26f46" fill-rule="evenodd" fill-opacity="1" stroke="#000000" stroke-opacity="1" stroke-width="3.84"/>
<circle clip-path="url(#clip872)" cx="2182.49" cy="372.586" r="14.4" fill="#e26f46" fill-rule="evenodd" fill-opacity="1" stroke="#000000" stroke-opacity="1" stroke-width="3.84"/>
<circle clip-path="url(#clip872)" cx="2269.13" cy="648.299" r="14.4" fill="#e26f46" fill-rule="evenodd" fill-opacity="1" stroke="#000000" stroke-opacity="1" stroke-width="3.84"/>
<circle clip-path="url(#clip872)" cx="2235.97" cy="579.37" r="14.4" fill="#e26f46" fill-rule="evenodd" fill-opacity="1" stroke="#000000" stroke-opacity="1" stroke-width="3.84"/>
<circle clip-path="url(#clip872)" cx="2039.57" cy="579.37" r="14.4" fill="#e26f46" fill-rule="evenodd" fill-opacity="1" stroke="#000000" stroke-opacity="1" stroke-width="3.84"/>
<circle clip-path="url(#clip872)" cx="2313.5" cy="96.8724" r="14.4" fill="#e26f46" fill-rule="evenodd" fill-opacity="1" stroke="#000000" stroke-opacity="1" stroke-width="3.84"/>
<circle clip-path="url(#clip872)" cx="2426.58" cy="441.514" r="14.4" fill="#e26f46" fill-rule="evenodd" fill-opacity="1" stroke="#000000" stroke-opacity="1" stroke-width="3.84"/>
<circle clip-path="url(#clip872)" cx="2185.39" cy="510.442" r="14.4" fill="#e26f46" fill-rule="evenodd" fill-opacity="1" stroke="#000000" stroke-opacity="1" stroke-width="3.84"/>
<circle clip-path="url(#clip872)" cx="2240.47" cy="372.586" r="14.4" fill="#e26f46" fill-rule="evenodd" fill-opacity="1" stroke="#000000" stroke-opacity="1" stroke-width="3.84"/>
<circle clip-path="url(#clip872)" cx="1940.04" cy="441.514" r="14.4" fill="#e26f46" fill-rule="evenodd" fill-opacity="1" stroke="#000000" stroke-opacity="1" stroke-width="3.84"/>
<circle clip-path="url(#clip872)" cx="2212.36" cy="165.801" r="14.4" fill="#e26f46" fill-rule="evenodd" fill-opacity="1" stroke="#000000" stroke-opacity="1" stroke-width="3.84"/>
<circle clip-path="url(#clip872)" cx="2049.47" cy="234.729" r="14.4" fill="#e26f46" fill-rule="evenodd" fill-opacity="1" stroke="#000000" stroke-opacity="1" stroke-width="3.84"/>
<circle clip-path="url(#clip872)" cx="2324.61" cy="579.37" r="14.4" fill="#e26f46" fill-rule="evenodd" fill-opacity="1" stroke="#000000" stroke-opacity="1" stroke-width="3.84"/>
<circle clip-path="url(#clip872)" cx="2104.22" cy="303.657" r="14.4" fill="#e26f46" fill-rule="evenodd" fill-opacity="1" stroke="#000000" stroke-opacity="1" stroke-width="3.84"/>
<circle clip-path="url(#clip872)" cx="2116.04" cy="234.729" r="14.4" fill="#e26f46" fill-rule="evenodd" fill-opacity="1" stroke="#000000" stroke-opacity="1" stroke-width="3.84"/>
<circle clip-path="url(#clip872)" cx="2275.26" cy="786.155" r="14.4" fill="#e26f46" fill-rule="evenodd" fill-opacity="1" stroke="#000000" stroke-opacity="1" stroke-width="3.84"/>
<circle clip-path="url(#clip872)" cx="2084.38" cy="234.729" r="14.4" fill="#e26f46" fill-rule="evenodd" fill-opacity="1" stroke="#000000" stroke-opacity="1" stroke-width="3.84"/>
<circle clip-path="url(#clip872)" cx="1970.7" cy="441.514" r="14.4" fill="#e26f46" fill-rule="evenodd" fill-opacity="1" stroke="#000000" stroke-opacity="1" stroke-width="3.84"/>
<circle clip-path="url(#clip872)" cx="2508.96" cy="441.514" r="14.4" fill="#e26f46" fill-rule="evenodd" fill-opacity="1" stroke="#000000" stroke-opacity="1" stroke-width="3.84"/>
<circle clip-path="url(#clip872)" cx="2214.29" cy="579.37" r="14.4" fill="#e26f46" fill-rule="evenodd" fill-opacity="1" stroke="#000000" stroke-opacity="1" stroke-width="3.84"/>
<circle clip-path="url(#clip872)" cx="2106.29" cy="372.586" r="14.4" fill="#e26f46" fill-rule="evenodd" fill-opacity="1" stroke="#000000" stroke-opacity="1" stroke-width="3.84"/>
<circle clip-path="url(#clip872)" cx="1970.88" cy="579.37" r="14.4" fill="#e26f46" fill-rule="evenodd" fill-opacity="1" stroke="#000000" stroke-opacity="1" stroke-width="3.84"/>
<circle clip-path="url(#clip872)" cx="2368.55" cy="579.37" r="14.4" fill="#e26f46" fill-rule="evenodd" fill-opacity="1" stroke="#000000" stroke-opacity="1" stroke-width="3.84"/>
<circle clip-path="url(#clip872)" cx="2172.04" cy="579.37" r="14.4" fill="#e26f46" fill-rule="evenodd" fill-opacity="1" stroke="#000000" stroke-opacity="1" stroke-width="3.84"/>
<circle clip-path="url(#clip872)" cx="2238.48" cy="372.586" r="14.4" fill="#e26f46" fill-rule="evenodd" fill-opacity="1" stroke="#000000" stroke-opacity="1" stroke-width="3.84"/>
<circle clip-path="url(#clip872)" cx="2260.55" cy="717.227" r="14.4" fill="#e26f46" fill-rule="evenodd" fill-opacity="1" stroke="#000000" stroke-opacity="1" stroke-width="3.84"/>
<circle clip-path="url(#clip872)" cx="1914.91" cy="510.442" r="14.4" fill="#e26f46" fill-rule="evenodd" fill-opacity="1" stroke="#000000" stroke-opacity="1" stroke-width="3.84"/>
<circle clip-path="url(#clip872)" cx="2483.85" cy="441.514" r="14.4" fill="#e26f46" fill-rule="evenodd" fill-opacity="1" stroke="#000000" stroke-opacity="1" stroke-width="3.84"/>
<circle clip-path="url(#clip872)" cx="2064.33" cy="303.657" r="14.4" fill="#e26f46" fill-rule="evenodd" fill-opacity="1" stroke="#000000" stroke-opacity="1" stroke-width="3.84"/>
<circle clip-path="url(#clip872)" cx="2300.1" cy="786.155" r="14.4" fill="#e26f46" fill-rule="evenodd" fill-opacity="1" stroke="#000000" stroke-opacity="1" stroke-width="3.84"/>
<circle clip-path="url(#clip872)" cx="2210.95" cy="855.083" r="14.4" fill="#e26f46" fill-rule="evenodd" fill-opacity="1" stroke="#000000" stroke-opacity="1" stroke-width="3.84"/>
<circle clip-path="url(#clip872)" cx="2059.46" cy="234.729" r="14.4" fill="#e26f46" fill-rule="evenodd" fill-opacity="1" stroke="#000000" stroke-opacity="1" stroke-width="3.84"/>
<circle clip-path="url(#clip872)" cx="2233.84" cy="165.801" r="14.4" fill="#e26f46" fill-rule="evenodd" fill-opacity="1" stroke="#000000" stroke-opacity="1" stroke-width="3.84"/>
<circle clip-path="url(#clip872)" cx="2361.5" cy="579.37" r="14.4" fill="#e26f46" fill-rule="evenodd" fill-opacity="1" stroke="#000000" stroke-opacity="1" stroke-width="3.84"/>
<circle clip-path="url(#clip872)" cx="1929.46" cy="579.37" r="14.4" fill="#e26f46" fill-rule="evenodd" fill-opacity="1" stroke="#000000" stroke-opacity="1" stroke-width="3.84"/>
<circle clip-path="url(#clip872)" cx="2298.46" cy="372.586" r="14.4" fill="#e26f46" fill-rule="evenodd" fill-opacity="1" stroke="#000000" stroke-opacity="1" stroke-width="3.84"/>
<circle clip-path="url(#clip872)" cx="2221.11" cy="165.801" r="14.4" fill="#e26f46" fill-rule="evenodd" fill-opacity="1" stroke="#000000" stroke-opacity="1" stroke-width="3.84"/>
<circle clip-path="url(#clip872)" cx="2452.71" cy="234.729" r="14.4" fill="#e26f46" fill-rule="evenodd" fill-opacity="1" stroke="#000000" stroke-opacity="1" stroke-width="3.84"/>
<circle clip-path="url(#clip872)" cx="2495.93" cy="510.442" r="14.4" fill="#e26f46" fill-rule="evenodd" fill-opacity="1" stroke="#000000" stroke-opacity="1" stroke-width="3.84"/>
<circle clip-path="url(#clip872)" cx="2468.56" cy="234.729" r="14.4" fill="#e26f46" fill-rule="evenodd" fill-opacity="1" stroke="#000000" stroke-opacity="1" stroke-width="3.84"/>
<circle clip-path="url(#clip872)" cx="2133.66" cy="96.8724" r="14.4" fill="#e26f46" fill-rule="evenodd" fill-opacity="1" stroke="#000000" stroke-opacity="1" stroke-width="3.84"/>
<circle clip-path="url(#clip872)" cx="2281.87" cy="234.729" r="14.4" fill="#e26f46" fill-rule="evenodd" fill-opacity="1" stroke="#000000" stroke-opacity="1" stroke-width="3.84"/>
<circle clip-path="url(#clip872)" cx="2022.8" cy="510.442" r="14.4" fill="#e26f46" fill-rule="evenodd" fill-opacity="1" stroke="#000000" stroke-opacity="1" stroke-width="3.84"/>
<circle clip-path="url(#clip872)" cx="2139.75" cy="441.514" r="14.4" fill="#e26f46" fill-rule="evenodd" fill-opacity="1" stroke="#000000" stroke-opacity="1" stroke-width="3.84"/>
<circle clip-path="url(#clip872)" cx="2331.39" cy="234.729" r="14.4" fill="#e26f46" fill-rule="evenodd" fill-opacity="1" stroke="#000000" stroke-opacity="1" stroke-width="3.84"/>
<circle clip-path="url(#clip872)" cx="2300.52" cy="579.37" r="14.4" fill="#e26f46" fill-rule="evenodd" fill-opacity="1" stroke="#000000" stroke-opacity="1" stroke-width="3.84"/>
</svg>
