<?xml version="1.0" encoding="utf-8"?>
<svg xmlns="http://www.w3.org/2000/svg" xmlns:xlink="http://www.w3.org/1999/xlink" width="576" height="384" viewBox="0 0 2304 1536">
<defs>
  <clipPath id="clip670">
    <rect x="0" y="0" width="2304" height="1536"/>
  </clipPath>
</defs>
<path clip-path="url(#clip670)" d="
M0 1536 L2304 1536 L2304 0 L0 0  Z
  " fill="#ffffff" fill-rule="evenodd" fill-opacity="1"/>
<defs>
  <clipPath id="clip671">
    <rect x="460" y="0" width="1614" height="1536"/>
  </clipPath>
</defs>
<path clip-path="url(#clip670)" d="
M155.152 1423.09 L2256.76 1423.09 L2256.76 47.2441 L155.152 47.2441  Z
  " fill="#ffffff" fill-rule="evenodd" fill-opacity="1"/>
<defs>
  <clipPath id="clip672">
    <rect x="155" y="47" width="2103" height="1377"/>
  </clipPath>
</defs>
<polyline clip-path="url(#clip672)" style="stroke:#000000; stroke-linecap:round; stroke-linejoin:round; stroke-width:2; stroke-opacity:0.1; fill:none" points="
  310.401,1423.09 310.401,47.2441 
  "/>
<polyline clip-path="url(#clip672)" style="stroke:#000000; stroke-linecap:round; stroke-linejoin:round; stroke-width:2; stroke-opacity:0.1; fill:none" points="
  718.986,1423.09 718.986,47.2441 
  "/>
<polyline clip-path="url(#clip672)" style="stroke:#000000; stroke-linecap:round; stroke-linejoin:round; stroke-width:2; stroke-opacity:0.1; fill:none" points="
  1127.57,1423.09 1127.57,47.2441 
  "/>
<polyline clip-path="url(#clip672)" style="stroke:#000000; stroke-linecap:round; stroke-linejoin:round; stroke-width:2; stroke-opacity:0.1; fill:none" points="
  1536.16,1423.09 1536.16,47.2441 
  "/>
<polyline clip-path="url(#clip672)" style="stroke:#000000; stroke-linecap:round; stroke-linejoin:round; stroke-width:2; stroke-opacity:0.1; fill:none" points="
  1944.74,1423.09 1944.74,47.2441 
  "/>
<polyline clip-path="url(#clip670)" style="stroke:#000000; stroke-linecap:round; stroke-linejoin:round; stroke-width:4; stroke-opacity:1; fill:none" points="
  155.152,1423.09 2256.76,1423.09 
  "/>
<polyline clip-path="url(#clip670)" style="stroke:#000000; stroke-linecap:round; stroke-linejoin:round; stroke-width:4; stroke-opacity:1; fill:none" points="
  310.401,1423.09 310.401,1404.19 
  "/>
<polyline clip-path="url(#clip670)" style="stroke:#000000; stroke-linecap:round; stroke-linejoin:round; stroke-width:4; stroke-opacity:1; fill:none" points="
  718.986,1423.09 718.986,1404.19 
  "/>
<polyline clip-path="url(#clip670)" style="stroke:#000000; stroke-linecap:round; stroke-linejoin:round; stroke-width:4; stroke-opacity:1; fill:none" points="
  1127.57,1423.09 1127.57,1404.19 
  "/>
<polyline clip-path="url(#clip670)" style="stroke:#000000; stroke-linecap:round; stroke-linejoin:round; stroke-width:4; stroke-opacity:1; fill:none" points="
  1536.16,1423.09 1536.16,1404.19 
  "/>
<polyline clip-path="url(#clip670)" style="stroke:#000000; stroke-linecap:round; stroke-linejoin:round; stroke-width:4; stroke-opacity:1; fill:none" points="
  1944.74,1423.09 1944.74,1404.19 
  "/>
<path clip-path="url(#clip670)" d="M262.473 1480.78 L270.112 1480.78 L270.112 1454.42 L261.802 1456.09 L261.802 1451.83 L270.065 1450.16 L274.741 1450.16 L274.741 1480.78 L282.38 1480.78 L282.38 1484.72 L262.473 1484.72 L262.473 1480.78 Z" fill="#000000" fill-rule="evenodd" fill-opacity="1" /><path clip-path="url(#clip670)" d="M291.825 1478.84 L296.709 1478.84 L296.709 1484.72 L291.825 1484.72 L291.825 1478.84 Z" fill="#000000" fill-rule="evenodd" fill-opacity="1" /><path clip-path="url(#clip670)" d="M316.894 1453.24 Q313.283 1453.24 311.454 1456.8 Q309.648 1460.35 309.648 1467.47 Q309.648 1474.58 311.454 1478.15 Q313.283 1481.69 316.894 1481.69 Q320.528 1481.69 322.334 1478.15 Q324.162 1474.58 324.162 1467.47 Q324.162 1460.35 322.334 1456.8 Q320.528 1453.24 316.894 1453.24 M316.894 1449.53 Q322.704 1449.53 325.76 1454.14 Q328.838 1458.72 328.838 1467.47 Q328.838 1476.2 325.76 1480.81 Q322.704 1485.39 316.894 1485.39 Q311.084 1485.39 308.005 1480.81 Q304.949 1476.2 304.949 1467.47 Q304.949 1458.72 308.005 1454.14 Q311.084 1449.53 316.894 1449.53 Z" fill="#000000" fill-rule="evenodd" fill-opacity="1" /><path clip-path="url(#clip670)" d="M347.056 1453.24 Q343.445 1453.24 341.616 1456.8 Q339.81 1460.35 339.81 1467.47 Q339.81 1474.58 341.616 1478.15 Q343.445 1481.69 347.056 1481.69 Q350.69 1481.69 352.495 1478.15 Q354.324 1474.58 354.324 1467.47 Q354.324 1460.35 352.495 1456.8 Q350.69 1453.24 347.056 1453.24 M347.056 1449.53 Q352.866 1449.53 355.921 1454.14 Q359 1458.72 359 1467.47 Q359 1476.2 355.921 1480.81 Q352.866 1485.39 347.056 1485.39 Q341.246 1485.39 338.167 1480.81 Q335.111 1476.2 335.111 1467.47 Q335.111 1458.72 338.167 1454.14 Q341.246 1449.53 347.056 1449.53 Z" fill="#000000" fill-rule="evenodd" fill-opacity="1" /><path clip-path="url(#clip670)" d="M671.555 1480.78 L679.194 1480.78 L679.194 1454.42 L670.884 1456.09 L670.884 1451.83 L679.148 1450.16 L683.824 1450.16 L683.824 1480.78 L691.463 1480.78 L691.463 1484.72 L671.555 1484.72 L671.555 1480.78 Z" fill="#000000" fill-rule="evenodd" fill-opacity="1" /><path clip-path="url(#clip670)" d="M700.907 1478.84 L705.791 1478.84 L705.791 1484.72 L700.907 1484.72 L700.907 1478.84 Z" fill="#000000" fill-rule="evenodd" fill-opacity="1" /><path clip-path="url(#clip670)" d="M720.004 1480.78 L736.324 1480.78 L736.324 1484.72 L714.379 1484.72 L714.379 1480.78 Q717.041 1478.03 721.625 1473.4 Q726.231 1468.75 727.412 1467.41 Q729.657 1464.88 730.537 1463.15 Q731.439 1461.39 731.439 1459.7 Q731.439 1456.94 729.495 1455.21 Q727.574 1453.47 724.472 1453.47 Q722.273 1453.47 719.819 1454.23 Q717.389 1455 714.611 1456.55 L714.611 1451.83 Q717.435 1450.69 719.889 1450.11 Q722.342 1449.53 724.379 1449.53 Q729.75 1449.53 732.944 1452.22 Q736.138 1454.91 736.138 1459.4 Q736.138 1461.53 735.328 1463.45 Q734.541 1465.34 732.435 1467.94 Q731.856 1468.61 728.754 1471.83 Q725.652 1475.02 720.004 1480.78 Z" fill="#000000" fill-rule="evenodd" fill-opacity="1" /><path clip-path="url(#clip670)" d="M746.185 1450.16 L764.541 1450.16 L764.541 1454.1 L750.467 1454.1 L750.467 1462.57 Q751.486 1462.22 752.504 1462.06 Q753.523 1461.87 754.541 1461.87 Q760.328 1461.87 763.708 1465.04 Q767.087 1468.22 767.087 1473.63 Q767.087 1479.21 763.615 1482.31 Q760.143 1485.39 753.824 1485.39 Q751.648 1485.39 749.379 1485.02 Q747.134 1484.65 744.726 1483.91 L744.726 1479.21 Q746.81 1480.34 749.032 1480.9 Q751.254 1481.46 753.731 1481.46 Q757.736 1481.46 760.073 1479.35 Q762.411 1477.24 762.411 1473.63 Q762.411 1470.02 760.073 1467.91 Q757.736 1465.81 753.731 1465.81 Q751.856 1465.81 749.981 1466.22 Q748.129 1466.64 746.185 1467.52 L746.185 1450.16 Z" fill="#000000" fill-rule="evenodd" fill-opacity="1" /><path clip-path="url(#clip670)" d="M1079.64 1480.78 L1087.28 1480.78 L1087.28 1454.42 L1078.97 1456.09 L1078.97 1451.83 L1087.24 1450.16 L1091.91 1450.16 L1091.91 1480.78 L1099.55 1480.78 L1099.55 1484.72 L1079.64 1484.72 L1079.64 1480.78 Z" fill="#000000" fill-rule="evenodd" fill-opacity="1" /><path clip-path="url(#clip670)" d="M1108.99 1478.84 L1113.88 1478.84 L1113.88 1484.72 L1108.99 1484.72 L1108.99 1478.84 Z" fill="#000000" fill-rule="evenodd" fill-opacity="1" /><path clip-path="url(#clip670)" d="M1124.11 1450.16 L1142.47 1450.16 L1142.47 1454.1 L1128.39 1454.1 L1128.39 1462.57 Q1129.41 1462.22 1130.43 1462.06 Q1131.45 1461.87 1132.47 1461.87 Q1138.25 1461.87 1141.63 1465.04 Q1145.01 1468.22 1145.01 1473.63 Q1145.01 1479.21 1141.54 1482.31 Q1138.07 1485.39 1131.75 1485.39 Q1129.57 1485.39 1127.3 1485.02 Q1125.06 1484.65 1122.65 1483.91 L1122.65 1479.21 Q1124.74 1480.34 1126.96 1480.9 Q1129.18 1481.46 1131.66 1481.46 Q1135.66 1481.46 1138 1479.35 Q1140.34 1477.24 1140.34 1473.63 Q1140.34 1470.02 1138 1467.91 Q1135.66 1465.81 1131.66 1465.81 Q1129.78 1465.81 1127.91 1466.22 Q1126.05 1466.64 1124.11 1467.52 L1124.11 1450.16 Z" fill="#000000" fill-rule="evenodd" fill-opacity="1" /><path clip-path="url(#clip670)" d="M1164.23 1453.24 Q1160.61 1453.24 1158.79 1456.8 Q1156.98 1460.35 1156.98 1467.47 Q1156.98 1474.58 1158.79 1478.15 Q1160.61 1481.69 1164.23 1481.69 Q1167.86 1481.69 1169.67 1478.15 Q1171.49 1474.58 1171.49 1467.47 Q1171.49 1460.35 1169.67 1456.8 Q1167.86 1453.24 1164.23 1453.24 M1164.23 1449.53 Q1170.04 1449.53 1173.09 1454.14 Q1176.17 1458.72 1176.17 1467.47 Q1176.17 1476.2 1173.09 1480.81 Q1170.04 1485.39 1164.23 1485.39 Q1158.42 1485.39 1155.34 1480.81 Q1152.28 1476.2 1152.28 1467.47 Q1152.28 1458.72 1155.34 1454.14 Q1158.42 1449.53 1164.23 1449.53 Z" fill="#000000" fill-rule="evenodd" fill-opacity="1" /><path clip-path="url(#clip670)" d="M1488.73 1480.78 L1496.36 1480.78 L1496.36 1454.42 L1488.05 1456.09 L1488.05 1451.83 L1496.32 1450.16 L1500.99 1450.16 L1500.99 1480.78 L1508.63 1480.78 L1508.63 1484.72 L1488.73 1484.72 L1488.73 1480.78 Z" fill="#000000" fill-rule="evenodd" fill-opacity="1" /><path clip-path="url(#clip670)" d="M1518.08 1478.84 L1522.96 1478.84 L1522.96 1484.72 L1518.08 1484.72 L1518.08 1478.84 Z" fill="#000000" fill-rule="evenodd" fill-opacity="1" /><path clip-path="url(#clip670)" d="M1531.97 1450.16 L1554.19 1450.16 L1554.19 1452.15 L1541.64 1484.72 L1536.76 1484.72 L1548.56 1454.1 L1531.97 1454.1 L1531.97 1450.16 Z" fill="#000000" fill-rule="evenodd" fill-opacity="1" /><path clip-path="url(#clip670)" d="M1563.35 1450.16 L1581.71 1450.16 L1581.71 1454.1 L1567.64 1454.1 L1567.64 1462.57 Q1568.66 1462.22 1569.67 1462.06 Q1570.69 1461.87 1571.71 1461.87 Q1577.5 1461.87 1580.88 1465.04 Q1584.26 1468.22 1584.26 1473.63 Q1584.26 1479.21 1580.79 1482.31 Q1577.31 1485.39 1570.99 1485.39 Q1568.82 1485.39 1566.55 1485.02 Q1564.3 1484.65 1561.9 1483.91 L1561.9 1479.21 Q1563.98 1480.34 1566.2 1480.9 Q1568.42 1481.46 1570.9 1481.46 Q1574.91 1481.46 1577.24 1479.35 Q1579.58 1477.24 1579.58 1473.63 Q1579.58 1470.02 1577.24 1467.91 Q1574.91 1465.81 1570.9 1465.81 Q1569.03 1465.81 1567.15 1466.22 Q1565.3 1466.64 1563.35 1467.52 L1563.35 1450.16 Z" fill="#000000" fill-rule="evenodd" fill-opacity="1" /><path clip-path="url(#clip670)" d="M1900.9 1480.78 L1917.22 1480.78 L1917.22 1484.72 L1895.27 1484.72 L1895.27 1480.78 Q1897.94 1478.03 1902.52 1473.4 Q1907.13 1468.75 1908.31 1467.41 Q1910.55 1464.88 1911.43 1463.15 Q1912.33 1461.39 1912.33 1459.7 Q1912.33 1456.94 1910.39 1455.21 Q1908.47 1453.47 1905.37 1453.47 Q1903.17 1453.47 1900.71 1454.23 Q1898.28 1455 1895.5 1456.55 L1895.5 1451.83 Q1898.33 1450.69 1900.78 1450.11 Q1903.24 1449.53 1905.27 1449.53 Q1910.64 1449.53 1913.84 1452.22 Q1917.03 1454.91 1917.03 1459.4 Q1917.03 1461.53 1916.22 1463.45 Q1915.44 1465.34 1913.33 1467.94 Q1912.75 1468.61 1909.65 1471.83 Q1906.55 1475.02 1900.9 1480.78 Z" fill="#000000" fill-rule="evenodd" fill-opacity="1" /><path clip-path="url(#clip670)" d="M1927.03 1478.84 L1931.92 1478.84 L1931.92 1484.72 L1927.03 1484.72 L1927.03 1478.84 Z" fill="#000000" fill-rule="evenodd" fill-opacity="1" /><path clip-path="url(#clip670)" d="M1952.1 1453.24 Q1948.49 1453.24 1946.66 1456.8 Q1944.86 1460.35 1944.86 1467.47 Q1944.86 1474.58 1946.66 1478.15 Q1948.49 1481.69 1952.1 1481.69 Q1955.74 1481.69 1957.54 1478.15 Q1959.37 1474.58 1959.37 1467.47 Q1959.37 1460.35 1957.54 1456.8 Q1955.74 1453.24 1952.1 1453.24 M1952.1 1449.53 Q1957.91 1449.53 1960.97 1454.14 Q1964.05 1458.72 1964.05 1467.47 Q1964.05 1476.2 1960.97 1480.81 Q1957.91 1485.39 1952.1 1485.39 Q1946.29 1485.39 1943.21 1480.81 Q1940.16 1476.2 1940.16 1467.47 Q1940.16 1458.72 1943.21 1454.14 Q1946.29 1449.53 1952.1 1449.53 Z" fill="#000000" fill-rule="evenodd" fill-opacity="1" /><path clip-path="url(#clip670)" d="M1982.26 1453.24 Q1978.65 1453.24 1976.82 1456.8 Q1975.02 1460.35 1975.02 1467.47 Q1975.02 1474.58 1976.82 1478.15 Q1978.65 1481.69 1982.26 1481.69 Q1985.9 1481.69 1987.7 1478.15 Q1989.53 1474.58 1989.53 1467.47 Q1989.53 1460.35 1987.7 1456.8 Q1985.9 1453.24 1982.26 1453.24 M1982.26 1449.53 Q1988.07 1449.53 1991.13 1454.14 Q1994.21 1458.72 1994.21 1467.47 Q1994.21 1476.2 1991.13 1480.81 Q1988.07 1485.39 1982.26 1485.39 Q1976.45 1485.39 1973.37 1480.81 Q1970.32 1476.2 1970.32 1467.47 Q1970.32 1458.72 1973.37 1454.14 Q1976.45 1449.53 1982.26 1449.53 Z" fill="#000000" fill-rule="evenodd" fill-opacity="1" /><polyline clip-path="url(#clip672)" style="stroke:#000000; stroke-linecap:round; stroke-linejoin:round; stroke-width:2; stroke-opacity:0.1; fill:none" points="
  155.152,1291.68 2256.76,1291.68 
  "/>
<polyline clip-path="url(#clip672)" style="stroke:#000000; stroke-linecap:round; stroke-linejoin:round; stroke-width:2; stroke-opacity:0.1; fill:none" points="
  155.152,1072.52 2256.76,1072.52 
  "/>
<polyline clip-path="url(#clip672)" style="stroke:#000000; stroke-linecap:round; stroke-linejoin:round; stroke-width:2; stroke-opacity:0.1; fill:none" points="
  155.152,853.351 2256.76,853.351 
  "/>
<polyline clip-path="url(#clip672)" style="stroke:#000000; stroke-linecap:round; stroke-linejoin:round; stroke-width:2; stroke-opacity:0.1; fill:none" points="
  155.152,634.184 2256.76,634.184 
  "/>
<polyline clip-path="url(#clip672)" style="stroke:#000000; stroke-linecap:round; stroke-linejoin:round; stroke-width:2; stroke-opacity:0.1; fill:none" points="
  155.152,415.017 2256.76,415.017 
  "/>
<polyline clip-path="url(#clip672)" style="stroke:#000000; stroke-linecap:round; stroke-linejoin:round; stroke-width:2; stroke-opacity:0.1; fill:none" points="
  155.152,195.851 2256.76,195.851 
  "/>
<polyline clip-path="url(#clip670)" style="stroke:#000000; stroke-linecap:round; stroke-linejoin:round; stroke-width:4; stroke-opacity:1; fill:none" points="
  155.152,1423.09 155.152,47.2441 
  "/>
<polyline clip-path="url(#clip670)" style="stroke:#000000; stroke-linecap:round; stroke-linejoin:round; stroke-width:4; stroke-opacity:1; fill:none" points="
  155.152,1291.68 174.05,1291.68 
  "/>
<polyline clip-path="url(#clip670)" style="stroke:#000000; stroke-linecap:round; stroke-linejoin:round; stroke-width:4; stroke-opacity:1; fill:none" points="
  155.152,1072.52 174.05,1072.52 
  "/>
<polyline clip-path="url(#clip670)" style="stroke:#000000; stroke-linecap:round; stroke-linejoin:round; stroke-width:4; stroke-opacity:1; fill:none" points="
  155.152,853.351 174.05,853.351 
  "/>
<polyline clip-path="url(#clip670)" style="stroke:#000000; stroke-linecap:round; stroke-linejoin:round; stroke-width:4; stroke-opacity:1; fill:none" points="
  155.152,634.184 174.05,634.184 
  "/>
<polyline clip-path="url(#clip670)" style="stroke:#000000; stroke-linecap:round; stroke-linejoin:round; stroke-width:4; stroke-opacity:1; fill:none" points="
  155.152,415.017 174.05,415.017 
  "/>
<polyline clip-path="url(#clip670)" style="stroke:#000000; stroke-linecap:round; stroke-linejoin:round; stroke-width:4; stroke-opacity:1; fill:none" points="
  155.152,195.851 174.05,195.851 
  "/>
<path clip-path="url(#clip670)" d="M63.4165 1277.48 Q59.8054 1277.48 57.9767 1281.05 Q56.1712 1284.59 56.1712 1291.72 Q56.1712 1298.83 57.9767 1302.39 Q59.8054 1305.93 63.4165 1305.93 Q67.0507 1305.93 68.8563 1302.39 Q70.685 1298.83 70.685 1291.72 Q70.685 1284.59 68.8563 1281.05 Q67.0507 1277.48 63.4165 1277.48 M63.4165 1273.78 Q69.2267 1273.78 72.2822 1278.39 Q75.3609 1282.97 75.3609 1291.72 Q75.3609 1300.45 72.2822 1305.05 Q69.2267 1309.64 63.4165 1309.64 Q57.6064 1309.64 54.5277 1305.05 Q51.4721 1300.45 51.4721 1291.72 Q51.4721 1282.97 54.5277 1278.39 Q57.6064 1273.78 63.4165 1273.78 Z" fill="#000000" fill-rule="evenodd" fill-opacity="1" /><path clip-path="url(#clip670)" d="M83.5784 1303.08 L88.4627 1303.08 L88.4627 1308.96 L83.5784 1308.96 L83.5784 1303.08 Z" fill="#000000" fill-rule="evenodd" fill-opacity="1" /><path clip-path="url(#clip670)" d="M108.648 1277.48 Q105.037 1277.48 103.208 1281.05 Q101.402 1284.59 101.402 1291.72 Q101.402 1298.83 103.208 1302.39 Q105.037 1305.93 108.648 1305.93 Q112.282 1305.93 114.088 1302.39 Q115.916 1298.83 115.916 1291.72 Q115.916 1284.59 114.088 1281.05 Q112.282 1277.48 108.648 1277.48 M108.648 1273.78 Q114.458 1273.78 117.513 1278.39 Q120.592 1282.97 120.592 1291.72 Q120.592 1300.45 117.513 1305.05 Q114.458 1309.64 108.648 1309.64 Q102.838 1309.64 99.7589 1305.05 Q96.7034 1300.45 96.7034 1291.72 Q96.7034 1282.97 99.7589 1278.39 Q102.838 1273.78 108.648 1273.78 Z" fill="#000000" fill-rule="evenodd" fill-opacity="1" /><path clip-path="url(#clip670)" d="M64.4119 1058.32 Q60.8008 1058.32 58.9721 1061.88 Q57.1665 1065.42 57.1665 1072.55 Q57.1665 1079.66 58.9721 1083.22 Q60.8008 1086.76 64.4119 1086.76 Q68.0461 1086.76 69.8517 1083.22 Q71.6804 1079.66 71.6804 1072.55 Q71.6804 1065.42 69.8517 1061.88 Q68.0461 1058.32 64.4119 1058.32 M64.4119 1054.61 Q70.222 1054.61 73.2776 1059.22 Q76.3563 1063.8 76.3563 1072.55 Q76.3563 1081.28 73.2776 1085.89 Q70.222 1090.47 64.4119 1090.47 Q58.6017 1090.47 55.523 1085.89 Q52.4675 1081.28 52.4675 1072.55 Q52.4675 1063.8 55.523 1059.22 Q58.6017 1054.61 64.4119 1054.61 Z" fill="#000000" fill-rule="evenodd" fill-opacity="1" /><path clip-path="url(#clip670)" d="M84.5738 1083.92 L89.458 1083.92 L89.458 1089.8 L84.5738 1089.8 L84.5738 1083.92 Z" fill="#000000" fill-rule="evenodd" fill-opacity="1" /><path clip-path="url(#clip670)" d="M99.6895 1055.24 L118.046 1055.24 L118.046 1059.17 L103.972 1059.17 L103.972 1067.64 Q104.99 1067.3 106.009 1067.14 Q107.027 1066.95 108.046 1066.95 Q113.833 1066.95 117.213 1070.12 Q120.592 1073.29 120.592 1078.71 Q120.592 1084.29 117.12 1087.39 Q113.648 1090.47 107.328 1090.47 Q105.152 1090.47 102.884 1090.1 Q100.639 1089.73 98.2311 1088.99 L98.2311 1084.29 Q100.314 1085.42 102.537 1085.98 Q104.759 1086.53 107.236 1086.53 Q111.24 1086.53 113.578 1084.43 Q115.916 1082.32 115.916 1078.71 Q115.916 1075.1 113.578 1072.99 Q111.24 1070.89 107.236 1070.89 Q105.361 1070.89 103.486 1071.3 Q101.634 1071.72 99.6895 1072.6 L99.6895 1055.24 Z" fill="#000000" fill-rule="evenodd" fill-opacity="1" /><path clip-path="url(#clip670)" d="M54.2267 866.696 L61.8656 866.696 L61.8656 840.33 L53.5554 841.997 L53.5554 837.737 L61.8193 836.071 L66.4952 836.071 L66.4952 866.696 L74.134 866.696 L74.134 870.631 L54.2267 870.631 L54.2267 866.696 Z" fill="#000000" fill-rule="evenodd" fill-opacity="1" /><path clip-path="url(#clip670)" d="M83.5784 864.751 L88.4627 864.751 L88.4627 870.631 L83.5784 870.631 L83.5784 864.751 Z" fill="#000000" fill-rule="evenodd" fill-opacity="1" /><path clip-path="url(#clip670)" d="M108.648 839.149 Q105.037 839.149 103.208 842.714 Q101.402 846.256 101.402 853.385 Q101.402 860.492 103.208 864.057 Q105.037 867.598 108.648 867.598 Q112.282 867.598 114.088 864.057 Q115.916 860.492 115.916 853.385 Q115.916 846.256 114.088 842.714 Q112.282 839.149 108.648 839.149 M108.648 835.446 Q114.458 835.446 117.513 840.052 Q120.592 844.635 120.592 853.385 Q120.592 862.112 117.513 866.719 Q114.458 871.302 108.648 871.302 Q102.838 871.302 99.7589 866.719 Q96.7034 862.112 96.7034 853.385 Q96.7034 844.635 99.7589 840.052 Q102.838 835.446 108.648 835.446 Z" fill="#000000" fill-rule="evenodd" fill-opacity="1" /><path clip-path="url(#clip670)" d="M55.2221 647.529 L62.861 647.529 L62.861 621.163 L54.5508 622.83 L54.5508 618.571 L62.8147 616.904 L67.4906 616.904 L67.4906 647.529 L75.1294 647.529 L75.1294 651.464 L55.2221 651.464 L55.2221 647.529 Z" fill="#000000" fill-rule="evenodd" fill-opacity="1" /><path clip-path="url(#clip670)" d="M84.5738 645.585 L89.458 645.585 L89.458 651.464 L84.5738 651.464 L84.5738 645.585 Z" fill="#000000" fill-rule="evenodd" fill-opacity="1" /><path clip-path="url(#clip670)" d="M99.6895 616.904 L118.046 616.904 L118.046 620.839 L103.972 620.839 L103.972 629.311 Q104.99 628.964 106.009 628.802 Q107.027 628.617 108.046 628.617 Q113.833 628.617 117.213 631.788 Q120.592 634.96 120.592 640.376 Q120.592 645.955 117.12 649.057 Q113.648 652.135 107.328 652.135 Q105.152 652.135 102.884 651.765 Q100.639 651.395 98.2311 650.654 L98.2311 645.955 Q100.314 647.089 102.537 647.645 Q104.759 648.2 107.236 648.2 Q111.24 648.2 113.578 646.094 Q115.916 643.987 115.916 640.376 Q115.916 636.765 113.578 634.659 Q111.24 632.552 107.236 632.552 Q105.361 632.552 103.486 632.969 Q101.634 633.385 99.6895 634.265 L99.6895 616.904 Z" fill="#000000" fill-rule="evenodd" fill-opacity="1" /><path clip-path="url(#clip670)" d="M57.4443 428.362 L73.7637 428.362 L73.7637 432.297 L51.8193 432.297 L51.8193 428.362 Q54.4814 425.608 59.0647 420.978 Q63.6711 416.325 64.8517 414.983 Q67.097 412.46 67.9767 410.724 Q68.8794 408.964 68.8794 407.274 Q68.8794 404.52 66.935 402.784 Q65.0137 401.048 61.9119 401.048 Q59.7128 401.048 57.2591 401.812 Q54.8286 402.575 52.0508 404.126 L52.0508 399.404 Q54.8749 398.27 57.3286 397.691 Q59.7823 397.112 61.8193 397.112 Q67.1896 397.112 70.3841 399.798 Q73.5785 402.483 73.5785 406.974 Q73.5785 409.103 72.7683 411.024 Q71.9813 412.923 69.8748 415.515 Q69.2961 416.186 66.1943 419.404 Q63.0924 422.598 57.4443 428.362 Z" fill="#000000" fill-rule="evenodd" fill-opacity="1" /><path clip-path="url(#clip670)" d="M83.5784 426.418 L88.4627 426.418 L88.4627 432.297 L83.5784 432.297 L83.5784 426.418 Z" fill="#000000" fill-rule="evenodd" fill-opacity="1" /><path clip-path="url(#clip670)" d="M108.648 400.816 Q105.037 400.816 103.208 404.381 Q101.402 407.923 101.402 415.052 Q101.402 422.159 103.208 425.723 Q105.037 429.265 108.648 429.265 Q112.282 429.265 114.088 425.723 Q115.916 422.159 115.916 415.052 Q115.916 407.923 114.088 404.381 Q112.282 400.816 108.648 400.816 M108.648 397.112 Q114.458 397.112 117.513 401.719 Q120.592 406.302 120.592 415.052 Q120.592 423.779 117.513 428.385 Q114.458 432.969 108.648 432.969 Q102.838 432.969 99.7589 428.385 Q96.7034 423.779 96.7034 415.052 Q96.7034 406.302 99.7589 401.719 Q102.838 397.112 108.648 397.112 Z" fill="#000000" fill-rule="evenodd" fill-opacity="1" /><path clip-path="url(#clip670)" d="M58.4397 209.196 L74.759 209.196 L74.759 213.131 L52.8147 213.131 L52.8147 209.196 Q55.4767 206.441 60.06 201.811 Q64.6665 197.159 65.847 195.816 Q68.0924 193.293 68.972 191.557 Q69.8748 189.798 69.8748 188.108 Q69.8748 185.353 67.9304 183.617 Q66.0091 181.881 62.9072 181.881 Q60.7082 181.881 58.2545 182.645 Q55.824 183.409 53.0462 184.96 L53.0462 180.238 Q55.8703 179.103 58.3239 178.525 Q60.7776 177.946 62.8147 177.946 Q68.185 177.946 71.3794 180.631 Q74.5739 183.316 74.5739 187.807 Q74.5739 189.937 73.7637 191.858 Q72.9766 193.756 70.8702 196.349 Q70.2915 197.02 67.1896 200.237 Q64.0878 203.432 58.4397 209.196 Z" fill="#000000" fill-rule="evenodd" fill-opacity="1" /><path clip-path="url(#clip670)" d="M84.5738 207.251 L89.458 207.251 L89.458 213.131 L84.5738 213.131 L84.5738 207.251 Z" fill="#000000" fill-rule="evenodd" fill-opacity="1" /><path clip-path="url(#clip670)" d="M99.6895 178.571 L118.046 178.571 L118.046 182.506 L103.972 182.506 L103.972 190.978 Q104.99 190.631 106.009 190.469 Q107.027 190.284 108.046 190.284 Q113.833 190.284 117.213 193.455 Q120.592 196.626 120.592 202.043 Q120.592 207.622 117.12 210.723 Q113.648 213.802 107.328 213.802 Q105.152 213.802 102.884 213.432 Q100.639 213.061 98.2311 212.321 L98.2311 207.622 Q100.314 208.756 102.537 209.311 Q104.759 209.867 107.236 209.867 Q111.24 209.867 113.578 207.761 Q115.916 205.654 115.916 202.043 Q115.916 198.432 113.578 196.325 Q111.24 194.219 107.236 194.219 Q105.361 194.219 103.486 194.636 Q101.634 195.052 99.6895 195.932 L99.6895 178.571 Z" fill="#000000" fill-rule="evenodd" fill-opacity="1" /><circle clip-path="url(#clip672)" cx="214.631" cy="991.299" r="14.4" fill="#009af9" fill-rule="evenodd" fill-opacity="1" stroke="#000000" stroke-opacity="1" stroke-width="3.072"/>
<circle clip-path="url(#clip672)" cx="229.127" cy="1289.6" r="14.4" fill="#009af9" fill-rule="evenodd" fill-opacity="1" stroke="#000000" stroke-opacity="1" stroke-width="3.072"/>
<circle clip-path="url(#clip672)" cx="491.041" cy="1334.8" r="14.4" fill="#009af9" fill-rule="evenodd" fill-opacity="1" stroke="#000000" stroke-opacity="1" stroke-width="3.072"/>
<circle clip-path="url(#clip672)" cx="528.183" cy="1230.42" r="14.4" fill="#009af9" fill-rule="evenodd" fill-opacity="1" stroke="#000000" stroke-opacity="1" stroke-width="3.072"/>
<circle clip-path="url(#clip672)" cx="584.916" cy="1210.51" r="14.4" fill="#009af9" fill-rule="evenodd" fill-opacity="1" stroke="#000000" stroke-opacity="1" stroke-width="3.072"/>
<circle clip-path="url(#clip672)" cx="637.066" cy="1213.34" r="14.4" fill="#009af9" fill-rule="evenodd" fill-opacity="1" stroke="#000000" stroke-opacity="1" stroke-width="3.072"/>
<circle clip-path="url(#clip672)" cx="672.715" cy="1201.83" r="14.4" fill="#009af9" fill-rule="evenodd" fill-opacity="1" stroke="#000000" stroke-opacity="1" stroke-width="3.072"/>
<circle clip-path="url(#clip672)" cx="677.281" cy="1250.83" r="14.4" fill="#009af9" fill-rule="evenodd" fill-opacity="1" stroke="#000000" stroke-opacity="1" stroke-width="3.072"/>
<circle clip-path="url(#clip672)" cx="762.857" cy="1287.77" r="14.4" fill="#009af9" fill-rule="evenodd" fill-opacity="1" stroke="#000000" stroke-opacity="1" stroke-width="3.072"/>
<circle clip-path="url(#clip672)" cx="785.247" cy="1224.5" r="14.4" fill="#009af9" fill-rule="evenodd" fill-opacity="1" stroke="#000000" stroke-opacity="1" stroke-width="3.072"/>
<circle clip-path="url(#clip672)" cx="790.831" cy="1288.31" r="14.4" fill="#009af9" fill-rule="evenodd" fill-opacity="1" stroke="#000000" stroke-opacity="1" stroke-width="3.072"/>
<circle clip-path="url(#clip672)" cx="829.087" cy="1266.75" r="14.4" fill="#009af9" fill-rule="evenodd" fill-opacity="1" stroke="#000000" stroke-opacity="1" stroke-width="3.072"/>
<circle clip-path="url(#clip672)" cx="868.887" cy="1291.78" r="14.4" fill="#009af9" fill-rule="evenodd" fill-opacity="1" stroke="#000000" stroke-opacity="1" stroke-width="3.072"/>
<circle clip-path="url(#clip672)" cx="873.567" cy="1224.49" r="14.4" fill="#009af9" fill-rule="evenodd" fill-opacity="1" stroke="#000000" stroke-opacity="1" stroke-width="3.072"/>
<circle clip-path="url(#clip672)" cx="881.322" cy="1270.13" r="14.4" fill="#009af9" fill-rule="evenodd" fill-opacity="1" stroke="#000000" stroke-opacity="1" stroke-width="3.072"/>
<circle clip-path="url(#clip672)" cx="894.563" cy="1362.85" r="14.4" fill="#009af9" fill-rule="evenodd" fill-opacity="1" stroke="#000000" stroke-opacity="1" stroke-width="3.072"/>
<circle clip-path="url(#clip672)" cx="939.134" cy="1315.45" r="14.4" fill="#009af9" fill-rule="evenodd" fill-opacity="1" stroke="#000000" stroke-opacity="1" stroke-width="3.072"/>
<circle clip-path="url(#clip672)" cx="951.562" cy="939.911" r="14.4" fill="#009af9" fill-rule="evenodd" fill-opacity="1" stroke="#000000" stroke-opacity="1" stroke-width="3.072"/>
<circle clip-path="url(#clip672)" cx="953.551" cy="1199.35" r="14.4" fill="#009af9" fill-rule="evenodd" fill-opacity="1" stroke="#000000" stroke-opacity="1" stroke-width="3.072"/>
<circle clip-path="url(#clip672)" cx="1007.91" cy="1130.1" r="14.4" fill="#009af9" fill-rule="evenodd" fill-opacity="1" stroke="#000000" stroke-opacity="1" stroke-width="3.072"/>
<circle clip-path="url(#clip672)" cx="1010.98" cy="1229.56" r="14.4" fill="#009af9" fill-rule="evenodd" fill-opacity="1" stroke="#000000" stroke-opacity="1" stroke-width="3.072"/>
<circle clip-path="url(#clip672)" cx="1104.71" cy="1362.97" r="14.4" fill="#009af9" fill-rule="evenodd" fill-opacity="1" stroke="#000000" stroke-opacity="1" stroke-width="3.072"/>
<circle clip-path="url(#clip672)" cx="1127.33" cy="1235.07" r="14.4" fill="#009af9" fill-rule="evenodd" fill-opacity="1" stroke="#000000" stroke-opacity="1" stroke-width="3.072"/>
<circle clip-path="url(#clip672)" cx="1133.08" cy="1171.75" r="14.4" fill="#009af9" fill-rule="evenodd" fill-opacity="1" stroke="#000000" stroke-opacity="1" stroke-width="3.072"/>
<circle clip-path="url(#clip672)" cx="1177.3" cy="1229.51" r="14.4" fill="#009af9" fill-rule="evenodd" fill-opacity="1" stroke="#000000" stroke-opacity="1" stroke-width="3.072"/>
<circle clip-path="url(#clip672)" cx="1201.72" cy="1164.09" r="14.4" fill="#009af9" fill-rule="evenodd" fill-opacity="1" stroke="#000000" stroke-opacity="1" stroke-width="3.072"/>
<circle clip-path="url(#clip672)" cx="1233.55" cy="1165.28" r="14.4" fill="#009af9" fill-rule="evenodd" fill-opacity="1" stroke="#000000" stroke-opacity="1" stroke-width="3.072"/>
<circle clip-path="url(#clip672)" cx="1250.42" cy="1100.23" r="14.4" fill="#009af9" fill-rule="evenodd" fill-opacity="1" stroke="#000000" stroke-opacity="1" stroke-width="3.072"/>
<circle clip-path="url(#clip672)" cx="1276.25" cy="1072.95" r="14.4" fill="#009af9" fill-rule="evenodd" fill-opacity="1" stroke="#000000" stroke-opacity="1" stroke-width="3.072"/>
<circle clip-path="url(#clip672)" cx="1278.92" cy="1166.16" r="14.4" fill="#009af9" fill-rule="evenodd" fill-opacity="1" stroke="#000000" stroke-opacity="1" stroke-width="3.072"/>
<circle clip-path="url(#clip672)" cx="1299.89" cy="1225.5" r="14.4" fill="#009af9" fill-rule="evenodd" fill-opacity="1" stroke="#000000" stroke-opacity="1" stroke-width="3.072"/>
<circle clip-path="url(#clip672)" cx="1332.58" cy="947.587" r="14.4" fill="#009af9" fill-rule="evenodd" fill-opacity="1" stroke="#000000" stroke-opacity="1" stroke-width="3.072"/>
<circle clip-path="url(#clip672)" cx="1394.91" cy="999.68" r="14.4" fill="#009af9" fill-rule="evenodd" fill-opacity="1" stroke="#000000" stroke-opacity="1" stroke-width="3.072"/>
<circle clip-path="url(#clip672)" cx="1412.06" cy="1375.08" r="14.4" fill="#009af9" fill-rule="evenodd" fill-opacity="1" stroke="#000000" stroke-opacity="1" stroke-width="3.072"/>
<circle clip-path="url(#clip672)" cx="1419.75" cy="1143.05" r="14.4" fill="#009af9" fill-rule="evenodd" fill-opacity="1" stroke="#000000" stroke-opacity="1" stroke-width="3.072"/>
<circle clip-path="url(#clip672)" cx="1426.32" cy="1138.05" r="14.4" fill="#009af9" fill-rule="evenodd" fill-opacity="1" stroke="#000000" stroke-opacity="1" stroke-width="3.072"/>
<circle clip-path="url(#clip672)" cx="1435.05" cy="1199.02" r="14.4" fill="#009af9" fill-rule="evenodd" fill-opacity="1" stroke="#000000" stroke-opacity="1" stroke-width="3.072"/>
<circle clip-path="url(#clip672)" cx="1495.24" cy="1216.6" r="14.4" fill="#009af9" fill-rule="evenodd" fill-opacity="1" stroke="#000000" stroke-opacity="1" stroke-width="3.072"/>
<circle clip-path="url(#clip672)" cx="1590.58" cy="1341.72" r="14.4" fill="#009af9" fill-rule="evenodd" fill-opacity="1" stroke="#000000" stroke-opacity="1" stroke-width="3.072"/>
<circle clip-path="url(#clip672)" cx="1593.89" cy="1238.07" r="14.4" fill="#009af9" fill-rule="evenodd" fill-opacity="1" stroke="#000000" stroke-opacity="1" stroke-width="3.072"/>
<circle clip-path="url(#clip672)" cx="1612" cy="1118.4" r="14.4" fill="#009af9" fill-rule="evenodd" fill-opacity="1" stroke="#000000" stroke-opacity="1" stroke-width="3.072"/>
<circle clip-path="url(#clip672)" cx="1625.15" cy="1264.72" r="14.4" fill="#009af9" fill-rule="evenodd" fill-opacity="1" stroke="#000000" stroke-opacity="1" stroke-width="3.072"/>
<circle clip-path="url(#clip672)" cx="1633.77" cy="960.49" r="14.4" fill="#009af9" fill-rule="evenodd" fill-opacity="1" stroke="#000000" stroke-opacity="1" stroke-width="3.072"/>
<circle clip-path="url(#clip672)" cx="1798.01" cy="1113.73" r="14.4" fill="#009af9" fill-rule="evenodd" fill-opacity="1" stroke="#000000" stroke-opacity="1" stroke-width="3.072"/>
<circle clip-path="url(#clip672)" cx="1799.46" cy="86.1831" r="14.4" fill="#009af9" fill-rule="evenodd" fill-opacity="1" stroke="#000000" stroke-opacity="1" stroke-width="3.072"/>
<circle clip-path="url(#clip672)" cx="1852.28" cy="1282.59" r="14.4" fill="#009af9" fill-rule="evenodd" fill-opacity="1" stroke="#000000" stroke-opacity="1" stroke-width="3.072"/>
<circle clip-path="url(#clip672)" cx="1854.86" cy="1249.88" r="14.4" fill="#009af9" fill-rule="evenodd" fill-opacity="1" stroke="#000000" stroke-opacity="1" stroke-width="3.072"/>
<circle clip-path="url(#clip672)" cx="1929.73" cy="173.85" r="14.4" fill="#009af9" fill-rule="evenodd" fill-opacity="1" stroke="#000000" stroke-opacity="1" stroke-width="3.072"/>
<circle clip-path="url(#clip672)" cx="2190.28" cy="1279.37" r="14.4" fill="#009af9" fill-rule="evenodd" fill-opacity="1" stroke="#000000" stroke-opacity="1" stroke-width="3.072"/>
<circle clip-path="url(#clip672)" cx="2197.28" cy="173.85" r="14.4" fill="#009af9" fill-rule="evenodd" fill-opacity="1" stroke="#000000" stroke-opacity="1" stroke-width="3.072"/>
<polyline clip-path="url(#clip672)" style="stroke:#e26f46; stroke-linecap:round; stroke-linejoin:round; stroke-width:16; stroke-opacity:1; fill:none" points="
  214.631,1384.15 234.658,1379.09 254.685,1374.03 274.712,1368.97 294.738,1363.91 314.765,1358.86 334.792,1353.8 354.819,1348.74 374.845,1343.68 394.872,1338.62 
  414.899,1333.56 434.925,1328.5 454.952,1323.44 474.979,1318.39 495.006,1313.33 515.032,1308.27 535.059,1303.21 555.086,1298.15 575.112,1293.09 595.139,1288.03 
  615.166,1282.97 635.193,1277.92 655.219,1272.86 675.246,1267.8 695.273,1262.74 715.299,1257.68 735.326,1252.62 755.353,1247.56 775.38,1242.5 795.406,1237.45 
  815.433,1232.39 835.46,1227.33 855.486,1222.27 875.513,1217.21 895.54,1212.15 915.567,1207.09 935.593,1202.03 955.62,1196.98 975.647,1191.92 995.673,1186.86 
  1015.7,1181.8 1035.73,1176.74 1055.75,1171.68 1075.78,1166.62 1095.81,1161.57 1115.83,1156.51 1135.86,1151.45 1155.89,1146.39 1175.91,1141.33 1195.94,1136.27 
  1215.97,1131.21 1235.99,1126.15 1256.02,1121.1 1276.05,1116.04 1296.07,1110.98 1316.1,1105.92 1336.13,1100.86 1356.15,1095.8 1376.18,1090.74 1396.21,1085.68 
  1416.23,1080.63 1436.26,1075.57 1456.29,1070.51 1476.31,1065.45 1496.34,1060.39 1516.37,1055.33 1536.39,1050.27 1556.42,1045.21 1576.45,1040.16 1596.48,1035.1 
  1616.5,1030.04 1636.53,1024.98 1656.56,1019.92 1676.58,1014.86 1696.61,1009.8 1716.64,1004.74 1736.66,999.686 1756.69,994.627 1776.72,989.569 1796.74,984.51 
  1816.77,979.451 1836.8,974.393 1856.82,969.334 1876.85,964.275 1896.88,959.216 1916.9,954.158 1936.93,949.099 1956.96,944.04 1976.98,938.982 1997.01,933.923 
  2017.04,928.864 2037.06,923.805 2057.09,918.747 2077.12,913.688 2097.14,908.629 2117.17,903.57 2137.2,898.512 2157.22,893.453 2177.25,888.394 2197.28,883.336 
  
  "/>
<polyline clip-path="url(#clip672)" style="stroke:#3da44d; stroke-linecap:round; stroke-linejoin:round; stroke-width:16; stroke-opacity:1; fill:none" points="
  214.631,1244.58 234.658,1243.9 254.685,1243.23 274.712,1242.55 294.738,1241.88 314.765,1241.2 334.792,1240.52 354.819,1239.85 374.845,1239.17 394.872,1238.5 
  414.899,1237.82 434.925,1237.14 454.952,1236.47 474.979,1235.79 495.006,1235.12 515.032,1234.44 535.059,1233.77 555.086,1233.09 575.112,1232.41 595.139,1231.74 
  615.166,1231.06 635.193,1230.39 655.219,1229.71 675.246,1229.03 695.273,1228.36 715.299,1227.68 735.326,1227.01 755.353,1226.33 775.38,1225.65 795.406,1224.98 
  815.433,1224.3 835.46,1223.63 855.486,1222.95 875.513,1222.28 895.54,1221.6 915.567,1220.92 935.593,1220.25 955.62,1219.57 975.647,1218.9 995.673,1218.22 
  1015.7,1217.54 1035.73,1216.87 1055.75,1216.19 1075.78,1215.52 1095.81,1214.84 1115.83,1214.17 1135.86,1213.49 1155.89,1212.81 1175.91,1212.14 1195.94,1211.46 
  1215.97,1210.79 1235.99,1210.11 1256.02,1209.43 1276.05,1208.76 1296.07,1208.08 1316.1,1207.41 1336.13,1206.73 1356.15,1206.05 1376.18,1205.38 1396.21,1204.7 
  1416.23,1204.03 1436.26,1203.35 1456.29,1202.68 1476.31,1202 1496.34,1201.32 1516.37,1200.65 1536.39,1199.97 1556.42,1199.3 1576.45,1198.62 1596.48,1197.94 
  1616.5,1197.27 1636.53,1196.59 1656.56,1195.92 1676.58,1195.24 1696.61,1194.57 1716.64,1193.89 1736.66,1193.21 1756.69,1192.54 1776.72,1191.86 1796.74,1191.19 
  1816.77,1190.51 1836.8,1189.83 1856.82,1189.16 1876.85,1188.48 1896.88,1187.81 1916.9,1187.13 1936.93,1186.46 1956.96,1185.78 1976.98,1185.1 1997.01,1184.43 
  2017.04,1183.75 2037.06,1183.08 2057.09,1182.4 2077.12,1181.72 2097.14,1181.05 2117.17,1180.37 2137.2,1179.7 2157.22,1179.02 2177.25,1178.34 2197.28,1177.67 
  
  "/>
<path clip-path="url(#clip670)" d="
M225.206 300.466 L505.875 300.466 L505.875 93.1056 L225.206 93.1056  Z
  " fill="#ffffff" fill-rule="evenodd" fill-opacity="1"/>
<polyline clip-path="url(#clip670)" style="stroke:#000000; stroke-linecap:round; stroke-linejoin:round; stroke-width:4; stroke-opacity:1; fill:none" points="
  225.206,300.466 505.875,300.466 505.875,93.1056 225.206,93.1056 225.206,300.466 
  "/>
<circle clip-path="url(#clip670)" cx="318.61" cy="144.946" r="23.04" fill="#009af9" fill-rule="evenodd" fill-opacity="1" stroke="#000000" stroke-opacity="1" stroke-width="4.9152"/>
<path clip-path="url(#clip670)" d="M425.857 164.633 Q424.052 169.263 422.339 170.675 Q420.626 172.087 417.756 172.087 L414.353 172.087 L414.353 168.522 L416.853 168.522 Q418.612 168.522 419.584 167.688 Q420.556 166.855 421.737 163.753 L422.501 161.809 L412.015 136.3 L416.529 136.3 L424.63 156.577 L432.732 136.3 L437.246 136.3 L425.857 164.633 Z" fill="#000000" fill-rule="evenodd" fill-opacity="1" /><path clip-path="url(#clip670)" d="M444.538 158.29 L452.177 158.29 L452.177 131.925 L443.866 133.591 L443.866 129.332 L452.13 127.666 L456.806 127.666 L456.806 158.29 L464.445 158.29 L464.445 162.226 L444.538 162.226 L444.538 158.29 Z" fill="#000000" fill-rule="evenodd" fill-opacity="1" /><polyline clip-path="url(#clip670)" style="stroke:#e26f46; stroke-linecap:round; stroke-linejoin:round; stroke-width:16; stroke-opacity:1; fill:none" points="
  248.557,196.786 388.664,196.786 
  "/>
<path clip-path="url(#clip670)" d="M412.015 178.047 L416.274 178.047 L416.274 214.066 L412.015 214.066 L412.015 178.047 Z" fill="#000000" fill-rule="evenodd" fill-opacity="1" /><path clip-path="url(#clip670)" d="M445.371 193.117 Q446.968 190.246 449.191 188.881 Q451.413 187.515 454.422 187.515 Q458.473 187.515 460.672 190.362 Q462.871 193.186 462.871 198.417 L462.871 214.066 L458.589 214.066 L458.589 198.556 Q458.589 194.83 457.269 193.024 Q455.95 191.218 453.241 191.218 Q449.931 191.218 448.01 193.418 Q446.089 195.617 446.089 199.413 L446.089 214.066 L441.806 214.066 L441.806 198.556 Q441.806 194.806 440.487 193.024 Q439.167 191.218 436.413 191.218 Q433.149 191.218 431.228 193.441 Q429.306 195.64 429.306 199.413 L429.306 214.066 L425.024 214.066 L425.024 188.14 L429.306 188.14 L429.306 192.168 Q430.765 189.783 432.802 188.649 Q434.839 187.515 437.64 187.515 Q440.464 187.515 442.431 188.95 Q444.422 190.385 445.371 193.117 Z" fill="#000000" fill-rule="evenodd" fill-opacity="1" /><polyline clip-path="url(#clip670)" style="stroke:#3da44d; stroke-linecap:round; stroke-linejoin:round; stroke-width:16; stroke-opacity:1; fill:none" points="
  248.557,248.626 388.664,248.626 
  "/>
<path clip-path="url(#clip670)" d="M427.2 243.961 Q426.482 243.545 425.626 243.359 Q424.793 243.151 423.774 243.151 Q420.163 243.151 418.218 245.512 Q416.297 247.85 416.297 252.248 L416.297 265.906 L412.015 265.906 L412.015 239.98 L416.297 239.98 L416.297 244.008 Q417.64 241.646 419.793 240.512 Q421.945 239.355 425.024 239.355 Q425.464 239.355 425.996 239.424 Q426.529 239.471 427.177 239.586 L427.2 243.961 Z" fill="#000000" fill-rule="evenodd" fill-opacity="1" /><path clip-path="url(#clip670)" d="M431.667 229.887 L435.927 229.887 L435.927 265.906 L431.667 265.906 L431.667 229.887 Z" fill="#000000" fill-rule="evenodd" fill-opacity="1" /><path clip-path="url(#clip670)" d="M465.024 244.957 Q466.621 242.086 468.843 240.721 Q471.065 239.355 474.075 239.355 Q478.126 239.355 480.325 242.202 Q482.524 245.026 482.524 250.257 L482.524 265.906 L478.241 265.906 L478.241 250.396 Q478.241 246.67 476.922 244.864 Q475.602 243.058 472.894 243.058 Q469.584 243.058 467.663 245.258 Q465.741 247.457 465.741 251.253 L465.741 265.906 L461.459 265.906 L461.459 250.396 Q461.459 246.646 460.14 244.864 Q458.82 243.058 456.066 243.058 Q452.802 243.058 450.88 245.281 Q448.959 247.48 448.959 251.253 L448.959 265.906 L444.677 265.906 L444.677 239.98 L448.959 239.98 L448.959 244.008 Q450.417 241.623 452.454 240.489 Q454.491 239.355 457.292 239.355 Q460.116 239.355 462.084 240.79 Q464.075 242.225 465.024 244.957 Z" fill="#000000" fill-rule="evenodd" fill-opacity="1" /></svg>
