<?xml version="1.0" encoding="utf-8"?>
<svg xmlns="http://www.w3.org/2000/svg" xmlns:xlink="http://www.w3.org/1999/xlink" width="672" height="480" viewBox="0 0 2688 1920">
<defs>
  <clipPath id="clip190">
    <rect x="0" y="0" width="2688" height="1920"/>
  </clipPath>
</defs>
<path clip-path="url(#clip190)" d="
M0 1920 L2688 1920 L2688 0 L0 0  Z
  " fill="#ffffff" fill-rule="evenodd" fill-opacity="1"/>
<defs>
  <clipPath id="clip191">
    <rect x="537" y="0" width="1883" height="1883"/>
  </clipPath>
</defs>
<path clip-path="url(#clip190)" d="
M159.478 1800.78 L1318.97 1800.78 L1318.97 47.2441 L159.478 47.2441  Z
  " fill="#ffffff" fill-rule="evenodd" fill-opacity="1"/>
<defs>
  <clipPath id="clip192">
    <rect x="159" y="47" width="1160" height="1755"/>
  </clipPath>
</defs>
<polyline clip-path="url(#clip192)" style="stroke:#000000; stroke-linecap:round; stroke-linejoin:round; stroke-width:2; stroke-opacity:0.1; fill:none" points="
  169.334,1800.78 169.334,47.2441 
  "/>
<polyline clip-path="url(#clip192)" style="stroke:#000000; stroke-linecap:round; stroke-linejoin:round; stroke-width:2; stroke-opacity:0.1; fill:none" points="
  417.112,1800.78 417.112,47.2441 
  "/>
<polyline clip-path="url(#clip192)" style="stroke:#000000; stroke-linecap:round; stroke-linejoin:round; stroke-width:2; stroke-opacity:0.1; fill:none" points="
  664.889,1800.78 664.889,47.2441 
  "/>
<polyline clip-path="url(#clip192)" style="stroke:#000000; stroke-linecap:round; stroke-linejoin:round; stroke-width:2; stroke-opacity:0.1; fill:none" points="
  912.667,1800.78 912.667,47.2441 
  "/>
<polyline clip-path="url(#clip192)" style="stroke:#000000; stroke-linecap:round; stroke-linejoin:round; stroke-width:2; stroke-opacity:0.1; fill:none" points="
  1160.44,1800.78 1160.44,47.2441 
  "/>
<polyline clip-path="url(#clip190)" style="stroke:#000000; stroke-linecap:round; stroke-linejoin:round; stroke-width:4; stroke-opacity:1; fill:none" points="
  159.478,1800.78 1318.97,1800.78 
  "/>
<polyline clip-path="url(#clip190)" style="stroke:#000000; stroke-linecap:round; stroke-linejoin:round; stroke-width:4; stroke-opacity:1; fill:none" points="
  169.334,1800.78 169.334,1781.88 
  "/>
<polyline clip-path="url(#clip190)" style="stroke:#000000; stroke-linecap:round; stroke-linejoin:round; stroke-width:4; stroke-opacity:1; fill:none" points="
  417.112,1800.78 417.112,1781.88 
  "/>
<polyline clip-path="url(#clip190)" style="stroke:#000000; stroke-linecap:round; stroke-linejoin:round; stroke-width:4; stroke-opacity:1; fill:none" points="
  664.889,1800.78 664.889,1781.88 
  "/>
<polyline clip-path="url(#clip190)" style="stroke:#000000; stroke-linecap:round; stroke-linejoin:round; stroke-width:4; stroke-opacity:1; fill:none" points="
  912.667,1800.78 912.667,1781.88 
  "/>
<polyline clip-path="url(#clip190)" style="stroke:#000000; stroke-linecap:round; stroke-linejoin:round; stroke-width:4; stroke-opacity:1; fill:none" points="
  1160.44,1800.78 1160.44,1781.88 
  "/>
<path clip-path="url(#clip190)" d="M139.091 1848.65 L168.767 1848.65 L168.767 1852.59 L139.091 1852.59 L139.091 1848.65 Z" fill="#000000" fill-rule="evenodd" fill-opacity="1" /><path clip-path="url(#clip190)" d="M179.67 1861.55 L187.308 1861.55 L187.308 1835.18 L178.998 1836.85 L178.998 1832.59 L187.262 1830.92 L191.938 1830.92 L191.938 1861.55 L199.577 1861.55 L199.577 1865.48 L179.67 1865.48 L179.67 1861.55 Z" fill="#000000" fill-rule="evenodd" fill-opacity="1" /><path clip-path="url(#clip190)" d="M417.112 1834 Q413.5 1834 411.672 1837.57 Q409.866 1841.11 409.866 1848.24 Q409.866 1855.34 411.672 1858.91 Q413.5 1862.45 417.112 1862.45 Q420.746 1862.45 422.551 1858.91 Q424.38 1855.34 424.38 1848.24 Q424.38 1841.11 422.551 1837.57 Q420.746 1834 417.112 1834 M417.112 1830.3 Q422.922 1830.3 425.977 1834.9 Q429.056 1839.49 429.056 1848.24 Q429.056 1856.96 425.977 1861.57 Q422.922 1866.15 417.112 1866.15 Q411.301 1866.15 408.223 1861.57 Q405.167 1856.96 405.167 1848.24 Q405.167 1839.49 408.223 1834.9 Q411.301 1830.3 417.112 1830.3 Z" fill="#000000" fill-rule="evenodd" fill-opacity="1" /><path clip-path="url(#clip190)" d="M655.271 1861.55 L662.91 1861.55 L662.91 1835.18 L654.6 1836.85 L654.6 1832.59 L662.864 1830.92 L667.54 1830.92 L667.54 1861.55 L675.178 1861.55 L675.178 1865.48 L655.271 1865.48 L655.271 1861.55 Z" fill="#000000" fill-rule="evenodd" fill-opacity="1" /><path clip-path="url(#clip190)" d="M907.319 1861.55 L923.639 1861.55 L923.639 1865.48 L901.694 1865.48 L901.694 1861.55 Q904.356 1858.79 908.94 1854.16 Q913.546 1849.51 914.727 1848.17 Q916.972 1845.65 917.852 1843.91 Q918.755 1842.15 918.755 1840.46 Q918.755 1837.71 916.81 1835.97 Q914.889 1834.23 911.787 1834.23 Q909.588 1834.23 907.134 1835 Q904.704 1835.76 901.926 1837.31 L901.926 1832.59 Q904.75 1831.46 907.204 1830.88 Q909.657 1830.3 911.694 1830.3 Q917.065 1830.3 920.259 1832.98 Q923.454 1835.67 923.454 1840.16 Q923.454 1842.29 922.643 1844.21 Q921.856 1846.11 919.75 1848.7 Q919.171 1849.37 916.069 1852.59 Q912.968 1855.78 907.319 1861.55 Z" fill="#000000" fill-rule="evenodd" fill-opacity="1" /><path clip-path="url(#clip190)" d="M1164.69 1846.85 Q1168.05 1847.57 1169.92 1849.84 Q1171.82 1852.1 1171.82 1855.44 Q1171.82 1860.55 1168.3 1863.35 Q1164.78 1866.15 1158.3 1866.15 Q1156.13 1866.15 1153.81 1865.71 Q1151.52 1865.3 1149.07 1864.44 L1149.07 1859.93 Q1151.01 1861.06 1153.33 1861.64 Q1155.64 1862.22 1158.16 1862.22 Q1162.56 1862.22 1164.85 1860.48 Q1167.17 1858.75 1167.17 1855.44 Q1167.17 1852.38 1165.02 1850.67 Q1162.89 1848.93 1159.07 1848.93 L1155.04 1848.93 L1155.04 1845.09 L1159.25 1845.09 Q1162.7 1845.09 1164.53 1843.72 Q1166.36 1842.34 1166.36 1839.74 Q1166.36 1837.08 1164.46 1835.67 Q1162.59 1834.23 1159.07 1834.23 Q1157.15 1834.23 1154.95 1834.65 Q1152.75 1835.07 1150.11 1835.95 L1150.11 1831.78 Q1152.77 1831.04 1155.09 1830.67 Q1157.42 1830.3 1159.48 1830.3 Q1164.81 1830.3 1167.91 1832.73 Q1171.01 1835.14 1171.01 1839.26 Q1171.01 1842.13 1169.37 1844.12 Q1167.72 1846.09 1164.69 1846.85 Z" fill="#000000" fill-rule="evenodd" fill-opacity="1" /><polyline clip-path="url(#clip192)" style="stroke:#000000; stroke-linecap:round; stroke-linejoin:round; stroke-width:2; stroke-opacity:0.1; fill:none" points="
  159.478,1751.28 1318.97,1751.28 
  "/>
<polyline clip-path="url(#clip192)" style="stroke:#000000; stroke-linecap:round; stroke-linejoin:round; stroke-width:2; stroke-opacity:0.1; fill:none" points="
  159.478,1418.63 1318.97,1418.63 
  "/>
<polyline clip-path="url(#clip192)" style="stroke:#000000; stroke-linecap:round; stroke-linejoin:round; stroke-width:2; stroke-opacity:0.1; fill:none" points="
  159.478,1085.99 1318.97,1085.99 
  "/>
<polyline clip-path="url(#clip192)" style="stroke:#000000; stroke-linecap:round; stroke-linejoin:round; stroke-width:2; stroke-opacity:0.1; fill:none" points="
  159.478,753.347 1318.97,753.347 
  "/>
<polyline clip-path="url(#clip192)" style="stroke:#000000; stroke-linecap:round; stroke-linejoin:round; stroke-width:2; stroke-opacity:0.1; fill:none" points="
  159.478,420.704 1318.97,420.704 
  "/>
<polyline clip-path="url(#clip192)" style="stroke:#000000; stroke-linecap:round; stroke-linejoin:round; stroke-width:2; stroke-opacity:0.1; fill:none" points="
  159.478,88.0607 1318.97,88.0607 
  "/>
<polyline clip-path="url(#clip190)" style="stroke:#000000; stroke-linecap:round; stroke-linejoin:round; stroke-width:4; stroke-opacity:1; fill:none" points="
  159.478,1800.78 159.478,47.2441 
  "/>
<polyline clip-path="url(#clip190)" style="stroke:#000000; stroke-linecap:round; stroke-linejoin:round; stroke-width:4; stroke-opacity:1; fill:none" points="
  159.478,1751.28 178.376,1751.28 
  "/>
<polyline clip-path="url(#clip190)" style="stroke:#000000; stroke-linecap:round; stroke-linejoin:round; stroke-width:4; stroke-opacity:1; fill:none" points="
  159.478,1418.63 178.376,1418.63 
  "/>
<polyline clip-path="url(#clip190)" style="stroke:#000000; stroke-linecap:round; stroke-linejoin:round; stroke-width:4; stroke-opacity:1; fill:none" points="
  159.478,1085.99 178.376,1085.99 
  "/>
<polyline clip-path="url(#clip190)" style="stroke:#000000; stroke-linecap:round; stroke-linejoin:round; stroke-width:4; stroke-opacity:1; fill:none" points="
  159.478,753.347 178.376,753.347 
  "/>
<polyline clip-path="url(#clip190)" style="stroke:#000000; stroke-linecap:round; stroke-linejoin:round; stroke-width:4; stroke-opacity:1; fill:none" points="
  159.478,420.704 178.376,420.704 
  "/>
<polyline clip-path="url(#clip190)" style="stroke:#000000; stroke-linecap:round; stroke-linejoin:round; stroke-width:4; stroke-opacity:1; fill:none" points="
  159.478,88.0607 178.376,88.0607 
  "/>
<path clip-path="url(#clip190)" d="M61.9826 1737.07 Q58.3715 1737.07 56.5428 1740.64 Q54.7373 1744.18 54.7373 1751.31 Q54.7373 1758.42 56.5428 1761.98 Q58.3715 1765.52 61.9826 1765.52 Q65.6169 1765.52 67.4224 1761.98 Q69.2511 1758.42 69.2511 1751.31 Q69.2511 1744.18 67.4224 1740.64 Q65.6169 1737.07 61.9826 1737.07 M61.9826 1733.37 Q67.7928 1733.37 70.8483 1737.98 Q73.927 1742.56 73.927 1751.31 Q73.927 1760.04 70.8483 1764.64 Q67.7928 1769.23 61.9826 1769.23 Q56.1725 1769.23 53.0938 1764.64 Q50.0382 1760.04 50.0382 1751.31 Q50.0382 1742.56 53.0938 1737.98 Q56.1725 1733.37 61.9826 1733.37 Z" fill="#000000" fill-rule="evenodd" fill-opacity="1" /><path clip-path="url(#clip190)" d="M82.1445 1762.68 L87.0288 1762.68 L87.0288 1768.56 L82.1445 1768.56 L82.1445 1762.68 Z" fill="#000000" fill-rule="evenodd" fill-opacity="1" /><path clip-path="url(#clip190)" d="M107.214 1737.07 Q103.603 1737.07 101.774 1740.64 Q99.9685 1744.18 99.9685 1751.31 Q99.9685 1758.42 101.774 1761.98 Q103.603 1765.52 107.214 1765.52 Q110.848 1765.52 112.654 1761.98 Q114.482 1758.42 114.482 1751.31 Q114.482 1744.18 112.654 1740.64 Q110.848 1737.07 107.214 1737.07 M107.214 1733.37 Q113.024 1733.37 116.08 1737.98 Q119.158 1742.56 119.158 1751.31 Q119.158 1760.04 116.08 1764.64 Q113.024 1769.23 107.214 1769.23 Q101.404 1769.23 98.325 1764.64 Q95.2695 1760.04 95.2695 1751.31 Q95.2695 1742.56 98.325 1737.98 Q101.404 1733.37 107.214 1733.37 Z" fill="#000000" fill-rule="evenodd" fill-opacity="1" /><path clip-path="url(#clip190)" d="M63.2095 1404.43 Q59.5984 1404.43 57.7697 1408 Q55.9641 1411.54 55.9641 1418.67 Q55.9641 1425.77 57.7697 1429.34 Q59.5984 1432.88 63.2095 1432.88 Q66.8437 1432.88 68.6492 1429.34 Q70.4779 1425.77 70.4779 1418.67 Q70.4779 1411.54 68.6492 1408 Q66.8437 1404.43 63.2095 1404.43 M63.2095 1400.73 Q69.0196 1400.73 72.0752 1405.33 Q75.1538 1409.92 75.1538 1418.67 Q75.1538 1427.39 72.0752 1432 Q69.0196 1436.58 63.2095 1436.58 Q57.3993 1436.58 54.3206 1432 Q51.2651 1427.39 51.2651 1418.67 Q51.2651 1409.92 54.3206 1405.33 Q57.3993 1400.73 63.2095 1400.73 Z" fill="#000000" fill-rule="evenodd" fill-opacity="1" /><path clip-path="url(#clip190)" d="M83.3714 1430.03 L88.2556 1430.03 L88.2556 1435.91 L83.3714 1435.91 L83.3714 1430.03 Z" fill="#000000" fill-rule="evenodd" fill-opacity="1" /><path clip-path="url(#clip190)" d="M99.2509 1431.98 L106.89 1431.98 L106.89 1405.61 L98.5796 1407.28 L98.5796 1403.02 L106.843 1401.35 L111.519 1401.35 L111.519 1431.98 L119.158 1431.98 L119.158 1435.91 L99.2509 1435.91 L99.2509 1431.98 Z" fill="#000000" fill-rule="evenodd" fill-opacity="1" /><path clip-path="url(#clip190)" d="M63.5798 1071.79 Q59.9687 1071.79 58.14 1075.35 Q56.3345 1078.9 56.3345 1086.02 Q56.3345 1093.13 58.14 1096.7 Q59.9687 1100.24 63.5798 1100.24 Q67.2141 1100.24 69.0196 1096.7 Q70.8483 1093.13 70.8483 1086.02 Q70.8483 1078.9 69.0196 1075.35 Q67.2141 1071.79 63.5798 1071.79 M63.5798 1068.08 Q69.39 1068.08 72.4455 1072.69 Q75.5242 1077.27 75.5242 1086.02 Q75.5242 1094.75 72.4455 1099.36 Q69.39 1103.94 63.5798 1103.94 Q57.7697 1103.94 54.691 1099.36 Q51.6354 1094.75 51.6354 1086.02 Q51.6354 1077.27 54.691 1072.69 Q57.7697 1068.08 63.5798 1068.08 Z" fill="#000000" fill-rule="evenodd" fill-opacity="1" /><path clip-path="url(#clip190)" d="M83.7418 1097.39 L88.626 1097.39 L88.626 1103.27 L83.7418 1103.27 L83.7418 1097.39 Z" fill="#000000" fill-rule="evenodd" fill-opacity="1" /><path clip-path="url(#clip190)" d="M102.839 1099.33 L119.158 1099.33 L119.158 1103.27 L97.2139 1103.27 L97.2139 1099.33 Q99.8759 1096.58 104.459 1091.95 Q109.066 1087.3 110.246 1085.96 Q112.492 1083.43 113.371 1081.7 Q114.274 1079.94 114.274 1078.25 Q114.274 1075.49 112.33 1073.76 Q110.408 1072.02 107.306 1072.02 Q105.107 1072.02 102.654 1072.78 Q100.223 1073.55 97.4454 1075.1 L97.4454 1070.38 Q100.269 1069.24 102.723 1068.66 Q105.177 1068.08 107.214 1068.08 Q112.584 1068.08 115.779 1070.77 Q118.973 1073.46 118.973 1077.95 Q118.973 1080.08 118.163 1082 Q117.376 1083.9 115.269 1086.49 Q114.691 1087.16 111.589 1090.38 Q108.487 1093.57 102.839 1099.33 Z" fill="#000000" fill-rule="evenodd" fill-opacity="1" /><path clip-path="url(#clip190)" d="M62.6308 739.146 Q59.0197 739.146 57.191 742.71 Q55.3854 746.252 55.3854 753.382 Q55.3854 760.488 57.191 764.053 Q59.0197 767.594 62.6308 767.594 Q66.265 767.594 68.0705 764.053 Q69.8992 760.488 69.8992 753.382 Q69.8992 746.252 68.0705 742.71 Q66.265 739.146 62.6308 739.146 M62.6308 735.442 Q68.4409 735.442 71.4965 740.048 Q74.5751 744.632 74.5751 753.382 Q74.5751 762.108 71.4965 766.715 Q68.4409 771.298 62.6308 771.298 Q56.8206 771.298 53.7419 766.715 Q50.6864 762.108 50.6864 753.382 Q50.6864 744.632 53.7419 740.048 Q56.8206 735.442 62.6308 735.442 Z" fill="#000000" fill-rule="evenodd" fill-opacity="1" /><path clip-path="url(#clip190)" d="M82.7927 764.747 L87.6769 764.747 L87.6769 770.627 L82.7927 770.627 L82.7927 764.747 Z" fill="#000000" fill-rule="evenodd" fill-opacity="1" /><path clip-path="url(#clip190)" d="M112.029 751.993 Q115.385 752.71 117.26 754.979 Q119.158 757.247 119.158 760.581 Q119.158 765.696 115.64 768.497 Q112.121 771.298 105.64 771.298 Q103.464 771.298 101.149 770.858 Q98.8574 770.442 96.4037 769.585 L96.4037 765.071 Q98.3482 766.206 100.663 766.784 Q102.978 767.363 105.501 767.363 Q109.899 767.363 112.191 765.627 Q114.505 763.891 114.505 760.581 Q114.505 757.525 112.353 755.812 Q110.223 754.076 106.404 754.076 L102.376 754.076 L102.376 750.233 L106.589 750.233 Q110.038 750.233 111.867 748.868 Q113.695 747.479 113.695 744.886 Q113.695 742.224 111.797 740.812 Q109.922 739.377 106.404 739.377 Q104.482 739.377 102.283 739.794 Q100.084 740.21 97.4454 741.09 L97.4454 736.923 Q100.107 736.183 102.422 735.812 Q104.76 735.442 106.82 735.442 Q112.144 735.442 115.246 737.872 Q118.348 740.28 118.348 744.4 Q118.348 747.271 116.705 749.261 Q115.061 751.229 112.029 751.993 Z" fill="#000000" fill-rule="evenodd" fill-opacity="1" /><path clip-path="url(#clip190)" d="M61.4965 406.503 Q57.8854 406.503 56.0567 410.067 Q54.2512 413.609 54.2512 420.739 Q54.2512 427.845 56.0567 431.41 Q57.8854 434.951 61.4965 434.951 Q65.1307 434.951 66.9363 431.41 Q68.765 427.845 68.765 420.739 Q68.765 413.609 66.9363 410.067 Q65.1307 406.503 61.4965 406.503 M61.4965 402.799 Q67.3067 402.799 70.3622 407.405 Q73.4409 411.989 73.4409 420.739 Q73.4409 429.465 70.3622 434.072 Q67.3067 438.655 61.4965 438.655 Q55.6864 438.655 52.6077 434.072 Q49.5521 429.465 49.5521 420.739 Q49.5521 411.989 52.6077 407.405 Q55.6864 402.799 61.4965 402.799 Z" fill="#000000" fill-rule="evenodd" fill-opacity="1" /><path clip-path="url(#clip190)" d="M81.6584 432.104 L86.5427 432.104 L86.5427 437.984 L81.6584 437.984 L81.6584 432.104 Z" fill="#000000" fill-rule="evenodd" fill-opacity="1" /><path clip-path="url(#clip190)" d="M109.575 407.498 L97.7695 425.947 L109.575 425.947 L109.575 407.498 M108.348 403.424 L114.228 403.424 L114.228 425.947 L119.158 425.947 L119.158 429.836 L114.228 429.836 L114.228 437.984 L109.575 437.984 L109.575 429.836 L93.9732 429.836 L93.9732 425.322 L108.348 403.424 Z" fill="#000000" fill-rule="evenodd" fill-opacity="1" /><path clip-path="url(#clip190)" d="M62.978 73.8594 Q59.3669 73.8594 57.5382 77.4242 Q55.7326 80.9659 55.7326 88.0955 Q55.7326 95.2019 57.5382 98.7667 Q59.3669 102.308 62.978 102.308 Q66.6122 102.308 68.4178 98.7667 Q70.2465 95.2019 70.2465 88.0955 Q70.2465 80.9659 68.4178 77.4242 Q66.6122 73.8594 62.978 73.8594 M62.978 70.1557 Q68.7881 70.1557 71.8437 74.7622 Q74.9224 79.3455 74.9224 88.0955 Q74.9224 96.8223 71.8437 101.429 Q68.7881 106.012 62.978 106.012 Q57.1678 106.012 54.0891 101.429 Q51.0336 96.8223 51.0336 88.0955 Q51.0336 79.3455 54.0891 74.7622 Q57.1678 70.1557 62.978 70.1557 Z" fill="#000000" fill-rule="evenodd" fill-opacity="1" /><path clip-path="url(#clip190)" d="M83.1399 99.4611 L88.0241 99.4611 L88.0241 105.341 L83.1399 105.341 L83.1399 99.4611 Z" fill="#000000" fill-rule="evenodd" fill-opacity="1" /><path clip-path="url(#clip190)" d="M98.2556 70.7807 L116.612 70.7807 L116.612 74.7159 L102.538 74.7159 L102.538 83.1881 Q103.556 82.8409 104.575 82.6788 Q105.593 82.4936 106.612 82.4936 Q112.399 82.4936 115.779 85.6649 Q119.158 88.8362 119.158 94.2528 Q119.158 99.8315 115.686 102.933 Q112.214 106.012 105.894 106.012 Q103.719 106.012 101.45 105.642 Q99.2046 105.271 96.7972 104.531 L96.7972 99.8315 Q98.8806 100.966 101.103 101.521 Q103.325 102.077 105.802 102.077 Q109.806 102.077 112.144 99.9704 Q114.482 97.8639 114.482 94.2528 Q114.482 90.6417 112.144 88.5353 Q109.806 86.4288 105.802 86.4288 Q103.927 86.4288 102.052 86.8455 Q100.2 87.2621 98.2556 88.1418 L98.2556 70.7807 Z" fill="#000000" fill-rule="evenodd" fill-opacity="1" /><polyline clip-path="url(#clip192)" style="stroke:#009af9; stroke-linecap:round; stroke-linejoin:round; stroke-width:4; stroke-opacity:1; fill:none" points="
  192.294,1751.12 197.791,1751.07 203.287,1751 208.784,1750.89 214.281,1750.74 219.778,1750.53 225.275,1750.24 230.771,1749.84 236.268,1749.31 241.765,1748.6 
  247.262,1747.65 252.758,1746.42 258.255,1744.8 263.752,1742.72 269.249,1740.04 274.745,1736.63 280.242,1732.33 285.739,1726.95 291.236,1720.26 296.733,1712.03 
  302.229,1701.97 307.726,1689.79 313.223,1675.15 318.72,1657.71 324.216,1637.11 329.713,1612.99 335.21,1584.99 340.707,1552.77 346.203,1516.02 351.7,1474.48 
  357.197,1427.96 362.694,1376.33 368.191,1319.6 373.687,1257.85 379.184,1191.31 384.681,1120.34 390.178,1045.46 395.674,967.315 401.171,886.71 406.668,804.577 
  412.165,721.971 417.661,640.045 423.158,560.026 428.655,483.183 434.152,410.797 439.648,344.117 445.145,284.328 450.642,232.512 456.139,189.615 461.636,156.412 
  467.132,133.484 472.629,121.199 478.126,119.697 483.623,128.886 489.119,148.443 494.616,177.83 500.113,216.302 505.61,262.939 511.106,316.669 516.603,376.3 
  522.1,440.558 527.597,508.114 533.094,577.628 538.59,647.771 544.087,717.263 549.584,784.895 555.081,849.55 560.577,910.223 566.074,966.031 571.571,1016.23 
  577.068,1060.19 582.564,1097.45 588.061,1127.65 593.558,1150.57 599.055,1166.13 604.552,1174.32 610.048,1175.27 615.545,1169.16 621.042,1156.28 626.539,1136.97 
  632.035,1111.65 637.532,1080.77 643.029,1044.82 648.526,1004.33 654.022,959.861 659.519,911.993 665.016,861.321 670.513,808.452 676.01,754 681.506,698.582 
  687.003,642.813 692.5,587.3 697.997,532.636 703.493,479.397 708.99,428.128 714.487,379.344 719.984,333.515 725.48,291.062 730.977,252.35 736.474,217.675 
  741.971,187.267 747.467,161.277 752.964,139.779 758.461,122.769 763.958,110.162 769.455,101.803 774.951,97.467 780.448,96.8724 785.945,99.6878 791.442,105.545 
  796.938,114.054 802.435,124.813 807.932,137.423 813.429,151.501 818.925,166.692 824.422,182.674 829.919,199.17 835.416,215.951 840.913,232.837 846.409,249.701 
  851.906,266.463 857.403,283.088 862.9,299.582 868.396,315.983 873.893,332.357 879.39,348.79 884.887,365.382 890.383,382.241 895.88,399.479 901.377,417.208 
  906.874,435.535 912.371,454.565 917.867,474.396 923.364,495.12 928.861,516.823 934.358,539.587 939.854,563.486 945.351,588.589 950.848,614.957 956.345,642.643 
  961.841,671.69 967.338,702.129 972.835,733.972 978.332,767.215 983.829,801.833 989.325,837.774 994.822,874.962 1000.32,913.293 1005.82,952.634 1011.31,992.825 
  1016.81,1033.68 1022.31,1074.99 1027.8,1116.54 1033.3,1158.07 1038.8,1199.34 1044.29,1240.09 1049.79,1280.07 1055.29,1319.05 1060.78,1356.79 1066.28,1393.08 
  1071.78,1427.74 1077.27,1460.62 1082.77,1491.59 1088.27,1520.56 1093.76,1547.45 1099.26,1572.25 1104.76,1594.95 1110.25,1615.58 1115.75,1634.2 1121.25,1650.87 
  1126.74,1665.7 1132.24,1678.79 1137.74,1690.26 1143.23,1700.25 1148.73,1708.87 1154.23,1716.26 1159.73,1722.55 1165.22,1727.86 1170.72,1732.32 1176.22,1736.03 
  1181.71,1739.1 1187.21,1741.61 1192.71,1743.66 1198.2,1745.31 1203.7,1746.64 1209.2,1747.7 1214.69,1748.53 1220.19,1749.19 1225.69,1749.69 1231.18,1750.09 
  1236.68,1750.39 1242.18,1750.62 1247.67,1750.79 1253.17,1750.92 1258.67,1751.01 1264.16,1751.07 1269.66,1751.12 1275.16,1751.14 1280.65,1751.15 1286.15,1751.14 
  
  "/>
<path clip-path="url(#clip190)" d="
M1481.27 1800.78 L2640.76 1800.78 L2640.76 47.2441 L1481.27 47.2441  Z
  " fill="#ffffff" fill-rule="evenodd" fill-opacity="1"/>
<defs>
  <clipPath id="clip193">
    <rect x="1481" y="47" width="1160" height="1755"/>
  </clipPath>
</defs>
<polyline clip-path="url(#clip193)" style="stroke:#000000; stroke-linecap:round; stroke-linejoin:round; stroke-width:2; stroke-opacity:0.1; fill:none" points="
  1522.49,1800.78 1522.49,47.2441 
  "/>
<polyline clip-path="url(#clip193)" style="stroke:#000000; stroke-linecap:round; stroke-linejoin:round; stroke-width:2; stroke-opacity:0.1; fill:none" points="
  1890.17,1800.78 1890.17,47.2441 
  "/>
<polyline clip-path="url(#clip193)" style="stroke:#000000; stroke-linecap:round; stroke-linejoin:round; stroke-width:2; stroke-opacity:0.1; fill:none" points="
  2257.85,1800.78 2257.85,47.2441 
  "/>
<polyline clip-path="url(#clip193)" style="stroke:#000000; stroke-linecap:round; stroke-linejoin:round; stroke-width:2; stroke-opacity:0.1; fill:none" points="
  2625.53,1800.78 2625.53,47.2441 
  "/>
<polyline clip-path="url(#clip190)" style="stroke:#000000; stroke-linecap:round; stroke-linejoin:round; stroke-width:4; stroke-opacity:1; fill:none" points="
  1481.27,1800.78 2640.76,1800.78 
  "/>
<polyline clip-path="url(#clip190)" style="stroke:#000000; stroke-linecap:round; stroke-linejoin:round; stroke-width:4; stroke-opacity:1; fill:none" points="
  1522.49,1800.78 1522.49,1781.88 
  "/>
<polyline clip-path="url(#clip190)" style="stroke:#000000; stroke-linecap:round; stroke-linejoin:round; stroke-width:4; stroke-opacity:1; fill:none" points="
  1890.17,1800.78 1890.17,1781.88 
  "/>
<polyline clip-path="url(#clip190)" style="stroke:#000000; stroke-linecap:round; stroke-linejoin:round; stroke-width:4; stroke-opacity:1; fill:none" points="
  2257.85,1800.78 2257.85,1781.88 
  "/>
<polyline clip-path="url(#clip190)" style="stroke:#000000; stroke-linecap:round; stroke-linejoin:round; stroke-width:4; stroke-opacity:1; fill:none" points="
  2625.53,1800.78 2625.53,1781.88 
  "/>
<path clip-path="url(#clip190)" d="M1522.49 1834 Q1518.88 1834 1517.05 1837.57 Q1515.24 1841.11 1515.24 1848.24 Q1515.24 1855.34 1517.05 1858.91 Q1518.88 1862.45 1522.49 1862.45 Q1526.12 1862.45 1527.93 1858.91 Q1529.76 1855.34 1529.76 1848.24 Q1529.76 1841.11 1527.93 1837.57 Q1526.12 1834 1522.49 1834 M1522.49 1830.3 Q1528.3 1830.3 1531.35 1834.9 Q1534.43 1839.49 1534.43 1848.24 Q1534.43 1856.96 1531.35 1861.57 Q1528.3 1866.15 1522.49 1866.15 Q1516.68 1866.15 1513.6 1861.57 Q1510.54 1856.96 1510.54 1848.24 Q1510.54 1839.49 1513.6 1834.9 Q1516.68 1830.3 1522.49 1830.3 Z" fill="#000000" fill-rule="evenodd" fill-opacity="1" /><path clip-path="url(#clip190)" d="M1880.55 1861.55 L1888.19 1861.55 L1888.19 1835.18 L1879.88 1836.85 L1879.88 1832.59 L1888.14 1830.92 L1892.82 1830.92 L1892.82 1861.55 L1900.46 1861.55 L1900.46 1865.48 L1880.55 1865.48 L1880.55 1861.55 Z" fill="#000000" fill-rule="evenodd" fill-opacity="1" /><path clip-path="url(#clip190)" d="M2252.5 1861.55 L2268.82 1861.55 L2268.82 1865.48 L2246.88 1865.48 L2246.88 1861.55 Q2249.54 1858.79 2254.12 1854.16 Q2258.73 1849.51 2259.91 1848.17 Q2262.16 1845.65 2263.04 1843.91 Q2263.94 1842.15 2263.94 1840.46 Q2263.94 1837.71 2261.99 1835.97 Q2260.07 1834.23 2256.97 1834.23 Q2254.77 1834.23 2252.32 1835 Q2249.89 1835.76 2247.11 1837.31 L2247.11 1832.59 Q2249.93 1831.46 2252.39 1830.88 Q2254.84 1830.3 2256.88 1830.3 Q2262.25 1830.3 2265.44 1832.98 Q2268.64 1835.67 2268.64 1840.16 Q2268.64 1842.29 2267.83 1844.21 Q2267.04 1846.11 2264.93 1848.7 Q2264.35 1849.37 2261.25 1852.59 Q2258.15 1855.78 2252.5 1861.55 Z" fill="#000000" fill-rule="evenodd" fill-opacity="1" /><path clip-path="url(#clip190)" d="M2629.78 1846.85 Q2633.14 1847.57 2635.01 1849.84 Q2636.91 1852.1 2636.91 1855.44 Q2636.91 1860.55 2633.39 1863.35 Q2629.87 1866.15 2623.39 1866.15 Q2621.21 1866.15 2618.9 1865.71 Q2616.61 1865.3 2614.15 1864.44 L2614.15 1859.93 Q2616.1 1861.06 2618.41 1861.64 Q2620.73 1862.22 2623.25 1862.22 Q2627.65 1862.22 2629.94 1860.48 Q2632.26 1858.75 2632.26 1855.44 Q2632.26 1852.38 2630.1 1850.67 Q2627.97 1848.93 2624.15 1848.93 L2620.13 1848.93 L2620.13 1845.09 L2624.34 1845.09 Q2627.79 1845.09 2629.62 1843.72 Q2631.45 1842.34 2631.45 1839.74 Q2631.45 1837.08 2629.55 1835.67 Q2627.67 1834.23 2624.15 1834.23 Q2622.23 1834.23 2620.03 1834.65 Q2617.83 1835.07 2615.2 1835.95 L2615.2 1831.78 Q2617.86 1831.04 2620.17 1830.67 Q2622.51 1830.3 2624.57 1830.3 Q2629.89 1830.3 2633 1832.73 Q2636.1 1835.14 2636.1 1839.26 Q2636.1 1842.13 2634.46 1844.12 Q2632.81 1846.09 2629.78 1846.85 Z" fill="#000000" fill-rule="evenodd" fill-opacity="1" /><polyline clip-path="url(#clip193)" style="stroke:#000000; stroke-linecap:round; stroke-linejoin:round; stroke-width:2; stroke-opacity:0.1; fill:none" points="
  1481.27,1751.17 2640.76,1751.17 
  "/>
<polyline clip-path="url(#clip193)" style="stroke:#000000; stroke-linecap:round; stroke-linejoin:round; stroke-width:2; stroke-opacity:0.1; fill:none" points="
  1481.27,1311.35 2640.76,1311.35 
  "/>
<polyline clip-path="url(#clip193)" style="stroke:#000000; stroke-linecap:round; stroke-linejoin:round; stroke-width:2; stroke-opacity:0.1; fill:none" points="
  1481.27,871.527 2640.76,871.527 
  "/>
<polyline clip-path="url(#clip193)" style="stroke:#000000; stroke-linecap:round; stroke-linejoin:round; stroke-width:2; stroke-opacity:0.1; fill:none" points="
  1481.27,431.707 2640.76,431.707 
  "/>
<polyline clip-path="url(#clip190)" style="stroke:#000000; stroke-linecap:round; stroke-linejoin:round; stroke-width:4; stroke-opacity:1; fill:none" points="
  1481.27,1800.78 1481.27,47.2441 
  "/>
<polyline clip-path="url(#clip190)" style="stroke:#000000; stroke-linecap:round; stroke-linejoin:round; stroke-width:4; stroke-opacity:1; fill:none" points="
  1481.27,1751.17 1500.17,1751.17 
  "/>
<polyline clip-path="url(#clip190)" style="stroke:#000000; stroke-linecap:round; stroke-linejoin:round; stroke-width:4; stroke-opacity:1; fill:none" points="
  1481.27,1311.35 1500.17,1311.35 
  "/>
<polyline clip-path="url(#clip190)" style="stroke:#000000; stroke-linecap:round; stroke-linejoin:round; stroke-width:4; stroke-opacity:1; fill:none" points="
  1481.27,871.527 1500.17,871.527 
  "/>
<polyline clip-path="url(#clip190)" style="stroke:#000000; stroke-linecap:round; stroke-linejoin:round; stroke-width:4; stroke-opacity:1; fill:none" points="
  1481.27,431.707 1500.17,431.707 
  "/>
<path clip-path="url(#clip190)" d="M1429 1736.97 Q1425.39 1736.97 1423.56 1740.53 Q1421.76 1744.07 1421.76 1751.2 Q1421.76 1758.31 1423.56 1761.87 Q1425.39 1765.41 1429 1765.41 Q1432.64 1765.41 1434.44 1761.87 Q1436.27 1758.31 1436.27 1751.2 Q1436.27 1744.07 1434.44 1740.53 Q1432.64 1736.97 1429 1736.97 M1429 1733.26 Q1434.81 1733.26 1437.87 1737.87 Q1440.95 1742.45 1440.95 1751.2 Q1440.95 1759.93 1437.87 1764.53 Q1434.81 1769.12 1429 1769.12 Q1423.19 1769.12 1420.11 1764.53 Q1417.06 1759.93 1417.06 1751.2 Q1417.06 1742.45 1420.11 1737.87 Q1423.19 1733.26 1429 1733.26 Z" fill="#000000" fill-rule="evenodd" fill-opacity="1" /><path clip-path="url(#clip190)" d="M1424.63 1324.69 L1440.95 1324.69 L1440.95 1328.63 L1419 1328.63 L1419 1324.69 Q1421.67 1321.94 1426.25 1317.31 Q1430.86 1312.65 1432.04 1311.31 Q1434.28 1308.79 1435.16 1307.05 Q1436.06 1305.29 1436.06 1303.6 Q1436.06 1300.85 1434.12 1299.11 Q1432.2 1297.38 1429.1 1297.38 Q1426.9 1297.38 1424.44 1298.14 Q1422.01 1298.9 1419.23 1300.46 L1419.23 1295.73 Q1422.06 1294.6 1424.51 1294.02 Q1426.97 1293.44 1429 1293.44 Q1434.37 1293.44 1437.57 1296.13 Q1440.76 1298.81 1440.76 1303.3 Q1440.76 1305.43 1439.95 1307.35 Q1439.17 1309.25 1437.06 1311.84 Q1436.48 1312.52 1433.38 1315.73 Q1430.28 1318.93 1424.63 1324.69 Z" fill="#000000" fill-rule="evenodd" fill-opacity="1" /><path clip-path="url(#clip190)" d="M1431.36 858.321 L1419.56 876.77 L1431.36 876.77 L1431.36 858.321 M1430.14 854.247 L1436.02 854.247 L1436.02 876.77 L1440.95 876.77 L1440.95 880.659 L1436.02 880.659 L1436.02 888.807 L1431.36 888.807 L1431.36 880.659 L1415.76 880.659 L1415.76 876.145 L1430.14 854.247 Z" fill="#000000" fill-rule="evenodd" fill-opacity="1" /><path clip-path="url(#clip190)" d="M1429.42 429.844 Q1426.27 429.844 1424.42 431.997 Q1422.59 434.149 1422.59 437.899 Q1422.59 441.626 1424.42 443.802 Q1426.27 445.955 1429.42 445.955 Q1432.57 445.955 1434.4 443.802 Q1436.25 441.626 1436.25 437.899 Q1436.25 434.149 1434.4 431.997 Q1432.57 429.844 1429.42 429.844 M1438.7 415.191 L1438.7 419.45 Q1436.94 418.617 1435.14 418.177 Q1433.36 417.737 1431.6 417.737 Q1426.97 417.737 1424.51 420.862 Q1422.08 423.987 1421.73 430.307 Q1423.1 428.293 1425.16 427.228 Q1427.22 426.14 1429.7 426.14 Q1434.91 426.14 1437.92 429.311 Q1440.95 432.46 1440.95 437.899 Q1440.95 443.223 1437.8 446.441 Q1434.65 449.658 1429.42 449.658 Q1423.42 449.658 1420.25 445.075 Q1417.08 440.469 1417.08 431.742 Q1417.08 423.548 1420.97 418.686 Q1424.86 413.802 1431.41 413.802 Q1433.17 413.802 1434.95 414.149 Q1436.76 414.497 1438.7 415.191 Z" fill="#000000" fill-rule="evenodd" fill-opacity="1" /><polyline clip-path="url(#clip193)" style="stroke:#009af9; stroke-linecap:round; stroke-linejoin:round; stroke-width:4; stroke-opacity:1; fill:none" points="
  1514.08,1751.06 1515.46,1751 1516.84,1750.91 1518.22,1750.77 1519.59,1750.56 1520.97,1750.24 1522.35,1749.78 1523.73,1749.12 1525.11,1748.18 1526.48,1746.89 
  1527.86,1745.12 1529.24,1742.75 1530.62,1739.62 1532,1735.56 1533.37,1730.39 1534.75,1723.91 1536.13,1715.94 1537.51,1706.3 1538.88,1694.87 1540.26,1681.57 
  1541.64,1666.39 1543.02,1649.42 1544.4,1630.84 1545.77,1610.96 1547.15,1590.19 1548.53,1569.03 1549.91,1548.09 1551.28,1528.01 1552.66,1509.44 1554.04,1493 
  1555.42,1479.23 1556.8,1468.51 1558.17,1461.06 1559.55,1456.83 1560.93,1455.53 1562.31,1456.59 1563.68,1459.13 1565.06,1462.01 1566.44,1463.85 1567.82,1463.05 
  1569.2,1457.89 1570.57,1446.56 1571.95,1427.31 1573.33,1398.5 1574.71,1358.72 1576.09,1306.95 1577.46,1242.58 1578.84,1165.63 1580.22,1076.74 1581.6,977.253 
  1582.97,869.268 1584.35,755.567 1585.73,639.554 1587.11,525.117 1588.49,416.439 1589.86,317.778 1591.24,233.21 1592.62,166.375 1594,120.236 1595.37,96.8724 
  1596.75,97.3338 1598.13,121.562 1599.51,168.393 1600.89,235.635 1602.26,320.222 1603.64,418.414 1605.02,526.045 1606.4,638.781 1607.78,752.369 1609.15,862.868 
  1610.53,966.832 1611.91,1061.46 1613.29,1144.65 1614.66,1215.1 1616.04,1272.19 1617.42,1316.05 1618.8,1347.38 1620.18,1367.4 1621.55,1377.72 1622.93,1380.21 
  1624.31,1376.9 1625.69,1369.86 1627.06,1361.07 1628.44,1352.36 1629.82,1345.31 1631.2,1341.18 1632.58,1340.89 1633.95,1344.98 1635.33,1353.59 1636.71,1366.53 
  1638.09,1383.25 1639.46,1402.97 1640.84,1424.66 1642.22,1447.2 1643.6,1469.37 1644.98,1490 1646.35,1507.99 1647.73,1522.39 1649.11,1532.42 1650.49,1537.58 
  1651.87,1537.59 1653.24,1532.45 1654.62,1522.43 1656,1508.07 1657.38,1490.14 1658.75,1469.6 1660.13,1447.58 1661.51,1425.29 1662.89,1403.97 1664.27,1384.84 
  1665.64,1369.01 1667.02,1357.41 1668.4,1350.77 1669.78,1349.54 1671.15,1353.9 1672.53,1363.75 1673.91,1378.69 1675.29,1398.12 1676.67,1421.22 1678.04,1447.06 
  1679.42,1474.63 1680.8,1502.93 1682.18,1530.99 1683.56,1557.97 1684.93,1583.14 1686.31,1605.97 1687.69,1626.06 1689.07,1643.21 1690.44,1657.37 1691.82,1668.64 
  1693.2,1677.22 1694.58,1683.4 1695.96,1687.55 1697.33,1690.05 1698.71,1691.32 1700.09,1691.73 1701.47,1691.67 1702.84,1691.45 1704.22,1691.34 1705.6,1691.55 
  1706.98,1692.22 1708.36,1693.44 1709.73,1695.21 1711.11,1697.51 1712.49,1700.24 1713.87,1703.29 1715.24,1706.51 1716.62,1709.72 1718,1712.77 1719.38,1715.5 
  1720.76,1717.76 1722.13,1719.43 1723.51,1720.44 1724.89,1720.71 1726.27,1720.25 1727.65,1719.07 1729.02,1717.24 1730.4,1714.86 1731.78,1712.05 1733.16,1708.97 
  1734.53,1705.78 1735.91,1702.67 1737.29,1699.81 1738.67,1697.36 1740.05,1695.48 1741.42,1694.27 1742.8,1693.81 1744.18,1694.16 1745.56,1695.31 1746.93,1697.22 
  1748.31,1699.81 1749.69,1703 1751.07,1706.64 1752.45,1710.62 1753.82,1714.78 1755.2,1718.99 1756.58,1723.14 1757.96,1727.11 1759.34,1730.82 1760.71,1734.21 
  1762.09,1737.25 1763.47,1739.91 1764.85,1742.19 1766.22,1744.12 1767.6,1745.72 1768.98,1747.01 1770.36,1748.05 1771.74,1748.86 1773.11,1749.48 1774.49,1749.96 
  1775.87,1750.31 1777.25,1750.57 1778.62,1750.76 1780,1750.89 1781.38,1750.98 1782.76,1751.04 1784.14,1751.08 1785.51,1751.09 1786.89,1751.1 1788.27,1751.09 
  
  "/>
<polyline clip-path="url(#clip193)" style="stroke:#e26f46; stroke-linecap:round; stroke-linejoin:round; stroke-width:4; stroke-opacity:1; fill:none" points="
  1770.47,1751.11 1773.15,1751.09 1775.83,1751.06 1778.51,1751.02 1781.19,1750.96 1783.87,1750.89 1786.55,1750.78 1789.23,1750.65 1791.92,1750.47 1794.6,1750.23 
  1797.28,1749.93 1799.96,1749.54 1802.64,1749.05 1805.32,1748.42 1808,1747.64 1810.68,1746.67 1813.37,1745.49 1816.05,1744.04 1818.73,1742.3 1821.41,1740.22 
  1824.09,1737.76 1826.77,1734.87 1829.45,1731.52 1832.13,1727.65 1834.81,1723.25 1837.5,1718.28 1840.18,1712.72 1842.86,1706.57 1845.54,1699.83 1848.22,1692.51 
  1850.9,1684.66 1853.58,1676.32 1856.26,1667.55 1858.94,1658.45 1861.63,1649.1 1864.31,1639.61 1866.99,1630.1 1869.67,1620.69 1872.35,1611.52 1875.03,1602.69 
  1877.71,1594.34 1880.39,1586.56 1883.08,1579.46 1885.76,1573.1 1888.44,1567.54 1891.12,1562.81 1893.8,1558.92 1896.48,1555.84 1899.16,1553.54 1901.84,1551.95 
  1904.52,1550.99 1907.21,1550.55 1909.89,1550.51 1912.57,1550.74 1915.25,1551.11 1917.93,1551.48 1920.61,1551.72 1923.29,1551.68 1925.97,1551.26 1928.65,1550.32 
  1931.34,1548.77 1934.02,1546.52 1936.7,1543.5 1939.38,1539.65 1942.06,1534.92 1944.74,1529.31 1947.42,1522.8 1950.1,1515.4 1952.79,1507.16 1955.47,1498.11 
  1958.15,1488.34 1960.83,1477.92 1963.51,1466.95 1966.19,1455.57 1968.87,1443.89 1971.55,1432.06 1974.23,1420.23 1976.92,1408.57 1979.6,1397.23 1982.28,1386.37 
  1984.96,1376.15 1987.64,1366.7 1990.32,1358.15 1993,1350.6 1995.68,1344.14 1998.36,1338.82 2001.05,1334.67 2003.73,1331.68 2006.41,1329.83 2009.09,1329.06 
  2011.77,1329.29 2014.45,1330.41 2017.13,1332.31 2019.81,1334.86 2022.5,1337.93 2025.18,1341.38 2027.86,1345.09 2030.54,1348.96 2033.22,1352.87 2035.9,1356.77 
  2038.58,1360.59 2041.26,1364.32 2043.94,1367.94 2046.63,1371.48 2049.31,1374.98 2051.99,1378.5 2054.67,1382.13 2057.35,1385.95 2060.03,1390.05 2062.71,1394.53 
  2065.39,1399.48 2068.07,1404.98 2070.76,1411.09 2073.44,1417.87 2076.12,1425.34 2078.8,1433.53 2081.48,1442.41 2084.16,1451.96 2086.84,1462.13 2089.52,1472.84 
  2092.21,1484.03 2094.89,1495.59 2097.57,1507.42 2100.25,1519.43 2102.93,1531.49 2105.61,1543.51 2108.29,1555.4 2110.97,1567.05 2113.65,1578.39 2116.34,1589.34 
  2119.02,1599.85 2121.7,1609.87 2124.38,1619.37 2127.06,1628.31 2129.74,1636.69 2132.42,1644.49 2135.1,1651.73 2137.78,1658.4 2140.47,1664.54 2143.15,1670.16 
  2145.83,1675.3 2148.51,1679.97 2151.19,1684.22 2153.87,1688.09 2156.55,1691.6 2159.23,1694.8 2161.92,1697.73 2164.6,1700.43 2167.28,1702.92 2169.96,1705.25 
  2172.64,1707.44 2175.32,1709.53 2178,1711.54 2180.68,1713.5 2183.36,1715.41 2186.05,1717.3 2188.73,1719.17 2191.41,1721.03 2194.09,1722.89 2196.77,1724.74 
  2199.45,1726.57 2202.13,1728.39 2204.81,1730.18 2207.49,1731.94 2210.18,1733.64 2212.86,1735.29 2215.54,1736.87 2218.22,1738.38 2220.9,1739.8 2223.58,1741.13 
  2226.26,1742.37 2228.94,1743.51 2231.63,1744.54 2234.31,1745.48 2236.99,1746.32 2239.67,1747.07 2242.35,1747.72 2245.03,1748.3 2247.71,1748.79 2250.39,1749.22 
  2253.07,1749.58 2255.76,1749.88 2258.44,1750.14 2261.12,1750.35 2263.8,1750.52 2266.48,1750.66 2269.16,1750.77 2271.84,1750.86 2274.52,1750.93 2277.2,1750.99 
  2279.89,1751.03 2282.57,1751.06 2285.25,1751.09 2287.93,1751.11 2290.61,1751.12 2293.29,1751.13 2295.97,1751.13 2298.65,1751.13 2301.34,1751.13 2304.02,1751.12 
  
  "/>
<polyline clip-path="url(#clip193)" style="stroke:#3da44d; stroke-linecap:round; stroke-linejoin:round; stroke-width:4; stroke-opacity:1; fill:none" points="
  1870.99,1751.15 1874.7,1751.15 1878.4,1751.15 1882.1,1751.15 1885.81,1751.14 1889.51,1751.13 1893.21,1751.12 1896.92,1751.11 1900.62,1751.09 1904.32,1751.06 
  1908.02,1751.03 1911.73,1750.99 1915.43,1750.93 1919.13,1750.86 1922.84,1750.77 1926.54,1750.66 1930.24,1750.52 1933.95,1750.35 1937.65,1750.14 1941.35,1749.88 
  1945.06,1749.58 1948.76,1749.21 1952.46,1748.78 1956.17,1748.27 1959.87,1747.68 1963.57,1746.99 1967.28,1746.21 1970.98,1745.31 1974.68,1744.3 1978.39,1743.16 
  1982.09,1741.9 1985.79,1740.5 1989.5,1738.97 1993.2,1737.31 1996.9,1735.52 2000.61,1733.6 2004.31,1731.57 2008.01,1729.43 2011.72,1727.19 2015.42,1724.88 
  2019.12,1722.5 2022.83,1720.08 2026.53,1717.64 2030.23,1715.19 2033.94,1712.76 2037.64,1710.36 2041.34,1708.02 2045.05,1705.74 2048.75,1703.55 2052.45,1701.44 
  2056.16,1699.43 2059.86,1697.5 2063.56,1695.65 2067.26,1693.86 2070.97,1692.11 2074.67,1690.36 2078.37,1688.57 2082.08,1686.69 2085.78,1684.68 2089.48,1682.46 
  2093.19,1679.99 2096.89,1677.19 2100.59,1673.99 2104.3,1670.34 2108,1666.17 2111.7,1661.43 2115.41,1656.07 2119.11,1650.06 2122.81,1643.38 2126.52,1636.04 
  2130.22,1628.05 2133.92,1619.45 2137.63,1610.28 2141.33,1600.62 2145.03,1590.56 2148.74,1580.22 2152.44,1569.7 2156.14,1559.13 2159.85,1548.66 2163.55,1538.42 
  2167.25,1528.54 2170.96,1519.16 2174.66,1510.38 2178.36,1502.31 2182.07,1495.04 2185.77,1488.63 2189.47,1483.12 2193.18,1478.54 2196.88,1474.87 2200.58,1472.09 
  2204.29,1470.17 2207.99,1469.05 2211.69,1468.65 2215.4,1468.9 2219.1,1469.7 2222.8,1470.98 2226.5,1472.64 2230.21,1474.61 2233.91,1476.8 2237.61,1479.16 
  2241.32,1481.62 2245.02,1484.14 2248.72,1486.69 2252.43,1489.23 2256.13,1491.75 2259.83,1494.23 2263.54,1496.68 2267.24,1499.07 2270.94,1501.42 2274.65,1503.71 
  2278.35,1505.95 2282.05,1508.12 2285.76,1510.22 2289.46,1512.23 2293.16,1514.13 2296.87,1515.91 2300.57,1517.55 2304.27,1519.03 2307.98,1520.33 2311.68,1521.45 
  2315.38,1522.38 2319.09,1523.12 2322.79,1523.69 2326.49,1524.1 2330.2,1524.38 2333.9,1524.57 2337.6,1524.72 2341.31,1524.88 2345.01,1525.12 2348.71,1525.48 
  2352.42,1526.04 2356.12,1526.85 2359.82,1527.99 2363.53,1529.48 2367.23,1531.39 2370.93,1533.74 2374.64,1536.56 2378.34,1539.87 2382.04,1543.65 2385.74,1547.91 
  2389.45,1552.62 2393.15,1557.75 2396.85,1563.28 2400.56,1569.16 2404.26,1575.35 2407.96,1581.8 2411.67,1588.47 2415.37,1595.32 2419.07,1602.29 2422.78,1609.35 
  2426.48,1616.47 2430.18,1623.61 2433.89,1630.73 2437.59,1637.81 2441.29,1644.82 2445,1651.73 2448.7,1658.53 2452.4,1665.18 2456.11,1671.67 2459.81,1677.98 
  2463.51,1684.07 2467.22,1689.94 2470.92,1695.55 2474.62,1700.91 2478.33,1705.98 2482.03,1710.75 2485.73,1715.23 2489.44,1719.39 2493.14,1723.23 2496.84,1726.76 
  2500.55,1729.97 2504.25,1732.88 2507.95,1735.49 2511.66,1737.81 2515.36,1739.87 2519.06,1741.67 2522.77,1743.25 2526.47,1744.6 2530.17,1745.77 2533.88,1746.76 
  2537.58,1747.59 2541.28,1748.29 2544.98,1748.86 2548.69,1749.34 2552.39,1749.73 2556.09,1750.04 2559.8,1750.29 2563.5,1750.49 2567.2,1750.65 2570.91,1750.78 
  2574.61,1750.87 2578.31,1750.95 2582.02,1751 2585.72,1751.05 2589.42,1751.08 2593.13,1751.1 2596.83,1751.12 2600.53,1751.13 2604.24,1751.14 2607.94,1751.15 
  
  "/>
<path clip-path="url(#clip190)" d="
M2256.25 313.055 L2602.11 313.055 L2602.11 105.695 L2256.25 105.695  Z
  " fill="#ffffff" fill-rule="evenodd" fill-opacity="1"/>
<polyline clip-path="url(#clip190)" style="stroke:#000000; stroke-linecap:round; stroke-linejoin:round; stroke-width:4; stroke-opacity:1; fill:none" points="
  2256.25,313.055 2602.11,313.055 2602.11,105.695 2256.25,105.695 2256.25,313.055 
  "/>
<polyline clip-path="url(#clip190)" style="stroke:#009af9; stroke-linecap:round; stroke-linejoin:round; stroke-width:4; stroke-opacity:1; fill:none" points="
  2269.13,157.535 2346.43,157.535 
  "/>
<path clip-path="url(#clip190)" d="M2377.74 149.653 L2377.74 153.681 Q2375.94 152.755 2373.99 152.292 Q2372.05 151.829 2369.97 151.829 Q2366.79 151.829 2365.2 152.801 Q2363.62 153.774 2363.62 155.718 Q2363.62 157.2 2364.76 158.056 Q2365.89 158.889 2369.32 159.653 L2370.78 159.977 Q2375.31 160.95 2377.21 162.732 Q2379.13 164.491 2379.13 167.663 Q2379.13 171.274 2376.26 173.38 Q2373.41 175.487 2368.41 175.487 Q2366.33 175.487 2364.06 175.07 Q2361.82 174.676 2359.32 173.866 L2359.32 169.468 Q2361.68 170.695 2363.97 171.32 Q2366.26 171.922 2368.51 171.922 Q2371.52 171.922 2373.14 170.903 Q2374.76 169.862 2374.76 167.987 Q2374.76 166.25 2373.58 165.325 Q2372.42 164.399 2368.46 163.542 L2366.98 163.195 Q2363.02 162.362 2361.26 160.649 Q2359.5 158.913 2359.5 155.903 Q2359.5 152.246 2362.09 150.255 Q2364.69 148.264 2369.46 148.264 Q2371.82 148.264 2373.9 148.612 Q2375.98 148.959 2377.74 149.653 Z" fill="#000000" fill-rule="evenodd" fill-opacity="1" /><path clip-path="url(#clip190)" d="M2408.09 160.788 L2408.09 162.871 L2388.51 162.871 Q2388.78 167.269 2391.15 169.584 Q2393.53 171.875 2397.77 171.875 Q2400.22 171.875 2402.51 171.274 Q2404.83 170.672 2407.09 169.468 L2407.09 173.496 Q2404.8 174.468 2402.4 174.977 Q2399.99 175.487 2397.51 175.487 Q2391.31 175.487 2387.67 171.875 Q2384.06 168.264 2384.06 162.107 Q2384.06 155.741 2387.49 152.014 Q2390.94 148.264 2396.77 148.264 Q2402 148.264 2405.03 151.644 Q2408.09 155.001 2408.09 160.788 M2403.83 159.538 Q2403.78 156.042 2401.86 153.959 Q2399.96 151.876 2396.82 151.876 Q2393.25 151.876 2391.1 153.889 Q2388.97 155.903 2388.65 159.561 L2403.83 159.538 Z" fill="#000000" fill-rule="evenodd" fill-opacity="1" /><path clip-path="url(#clip190)" d="M2419.29 141.528 L2419.29 148.889 L2428.07 148.889 L2428.07 152.2 L2419.29 152.2 L2419.29 166.274 Q2419.29 169.445 2420.15 170.348 Q2421.03 171.25 2423.69 171.25 L2428.07 171.25 L2428.07 174.815 L2423.69 174.815 Q2418.76 174.815 2416.89 172.987 Q2415.01 171.135 2415.01 166.274 L2415.01 152.2 L2411.89 152.2 L2411.89 148.889 L2415.01 148.889 L2415.01 141.528 L2419.29 141.528 Z" fill="#000000" fill-rule="evenodd" fill-opacity="1" /><path clip-path="url(#clip190)" d="M2443.71 151.876 Q2440.29 151.876 2438.3 154.561 Q2436.31 157.223 2436.31 161.876 Q2436.31 166.528 2438.27 169.213 Q2440.27 171.875 2443.71 171.875 Q2447.12 171.875 2449.11 169.19 Q2451.1 166.505 2451.1 161.876 Q2451.1 157.269 2449.11 154.584 Q2447.12 151.876 2443.71 151.876 M2443.71 148.264 Q2449.27 148.264 2452.44 151.876 Q2455.61 155.487 2455.61 161.876 Q2455.61 168.241 2452.44 171.875 Q2449.27 175.487 2443.71 175.487 Q2438.14 175.487 2434.96 171.875 Q2431.82 168.241 2431.82 161.876 Q2431.82 155.487 2434.96 151.876 Q2438.14 148.264 2443.71 148.264 Z" fill="#000000" fill-rule="evenodd" fill-opacity="1" /><path clip-path="url(#clip190)" d="M2479.2 149.653 L2479.2 153.681 Q2477.39 152.755 2475.45 152.292 Q2473.51 151.829 2471.42 151.829 Q2468.25 151.829 2466.65 152.801 Q2465.08 153.774 2465.08 155.718 Q2465.08 157.2 2466.21 158.056 Q2467.35 158.889 2470.77 159.653 L2472.23 159.977 Q2476.77 160.95 2478.67 162.732 Q2480.59 164.491 2480.59 167.663 Q2480.59 171.274 2477.72 173.38 Q2474.87 175.487 2469.87 175.487 Q2467.79 175.487 2465.52 175.07 Q2463.27 174.676 2460.77 173.866 L2460.77 169.468 Q2463.14 170.695 2465.43 171.32 Q2467.72 171.922 2469.96 171.922 Q2472.97 171.922 2474.59 170.903 Q2476.21 169.862 2476.21 167.987 Q2476.21 166.25 2475.03 165.325 Q2473.88 164.399 2469.92 163.542 L2468.44 163.195 Q2464.48 162.362 2462.72 160.649 Q2460.96 158.913 2460.96 155.903 Q2460.96 152.246 2463.55 150.255 Q2466.15 148.264 2470.91 148.264 Q2473.27 148.264 2475.36 148.612 Q2477.44 148.959 2479.2 149.653 Z" fill="#000000" fill-rule="evenodd" fill-opacity="1" /><path clip-path="url(#clip190)" d="M2499.15 161.783 Q2493.99 161.783 2492 162.963 Q2490.01 164.144 2490.01 166.991 Q2490.01 169.26 2491.49 170.602 Q2493 171.922 2495.57 171.922 Q2499.11 171.922 2501.24 169.422 Q2503.39 166.899 2503.39 162.732 L2503.39 161.783 L2499.15 161.783 M2507.65 160.024 L2507.65 174.815 L2503.39 174.815 L2503.39 170.88 Q2501.93 173.241 2499.76 174.375 Q2497.58 175.487 2494.43 175.487 Q2490.45 175.487 2488.09 173.264 Q2485.75 171.019 2485.75 167.269 Q2485.75 162.894 2488.67 160.672 Q2491.61 158.45 2497.42 158.45 L2503.39 158.45 L2503.39 158.033 Q2503.39 155.093 2501.45 153.496 Q2499.52 151.876 2496.03 151.876 Q2493.81 151.876 2491.7 152.408 Q2489.59 152.94 2487.65 154.005 L2487.65 150.07 Q2489.99 149.167 2492.19 148.727 Q2494.39 148.264 2496.47 148.264 Q2502.09 148.264 2504.87 151.181 Q2507.65 154.098 2507.65 160.024 Z" fill="#000000" fill-rule="evenodd" fill-opacity="1" /><polyline clip-path="url(#clip190)" style="stroke:#e26f46; stroke-linecap:round; stroke-linejoin:round; stroke-width:4; stroke-opacity:1; fill:none" points="
  2269.13,209.375 2346.43,209.375 
  "/>
<path clip-path="url(#clip190)" d="M2359.32 200.729 L2363.83 200.729 L2371.93 222.489 L2380.03 200.729 L2384.55 200.729 L2374.83 226.655 L2369.04 226.655 L2359.32 200.729 Z" fill="#000000" fill-rule="evenodd" fill-opacity="1" /><path clip-path="url(#clip190)" d="M2412.6 212.628 L2412.6 214.711 L2393.02 214.711 Q2393.3 219.109 2395.66 221.424 Q2398.04 223.715 2402.28 223.715 Q2404.73 223.715 2407.02 223.114 Q2409.34 222.512 2411.61 221.308 L2411.61 225.336 Q2409.32 226.308 2406.91 226.817 Q2404.5 227.327 2402.03 227.327 Q2395.82 227.327 2392.19 223.715 Q2388.58 220.104 2388.58 213.947 Q2388.58 207.581 2392 203.854 Q2395.45 200.104 2401.28 200.104 Q2406.52 200.104 2409.55 203.484 Q2412.6 206.841 2412.6 212.628 M2408.34 211.378 Q2408.3 207.882 2406.38 205.799 Q2404.48 203.716 2401.33 203.716 Q2397.77 203.716 2395.61 205.729 Q2393.48 207.743 2393.16 211.401 L2408.34 211.378 Z" fill="#000000" fill-rule="evenodd" fill-opacity="1" /><path clip-path="url(#clip190)" d="M2434.62 204.711 Q2433.9 204.294 2433.04 204.109 Q2432.21 203.901 2431.19 203.901 Q2427.58 203.901 2425.64 206.262 Q2423.71 208.6 2423.71 212.998 L2423.71 226.655 L2419.43 226.655 L2419.43 200.729 L2423.71 200.729 L2423.71 204.757 Q2425.06 202.396 2427.21 201.262 Q2429.36 200.104 2432.44 200.104 Q2432.88 200.104 2433.41 200.174 Q2433.95 200.22 2434.59 200.336 L2434.62 204.711 Z" fill="#000000" fill-rule="evenodd" fill-opacity="1" /><path clip-path="url(#clip190)" d="M2455.61 201.493 L2455.61 205.521 Q2453.81 204.595 2451.86 204.132 Q2449.92 203.669 2447.83 203.669 Q2444.66 203.669 2443.07 204.641 Q2441.49 205.614 2441.49 207.558 Q2441.49 209.04 2442.63 209.896 Q2443.76 210.729 2447.19 211.493 L2448.65 211.817 Q2453.18 212.79 2455.08 214.572 Q2457 216.331 2457 219.503 Q2457 223.114 2454.13 225.22 Q2451.28 227.327 2446.28 227.327 Q2444.2 227.327 2441.93 226.91 Q2439.69 226.516 2437.19 225.706 L2437.19 221.308 Q2439.55 222.535 2441.84 223.16 Q2444.13 223.762 2446.38 223.762 Q2449.39 223.762 2451.01 222.743 Q2452.63 221.702 2452.63 219.827 Q2452.63 218.09 2451.45 217.165 Q2450.29 216.239 2446.33 215.382 L2444.85 215.035 Q2440.89 214.202 2439.13 212.489 Q2437.37 210.753 2437.37 207.743 Q2437.37 204.086 2439.96 202.095 Q2442.56 200.104 2447.33 200.104 Q2449.69 200.104 2451.77 200.452 Q2453.85 200.799 2455.61 201.493 Z" fill="#000000" fill-rule="evenodd" fill-opacity="1" /><path clip-path="url(#clip190)" d="M2463.78 200.729 L2468.04 200.729 L2468.04 226.655 L2463.78 226.655 L2463.78 200.729 M2463.78 190.637 L2468.04 190.637 L2468.04 196.03 L2463.78 196.03 L2463.78 190.637 Z" fill="#000000" fill-rule="evenodd" fill-opacity="1" /><path clip-path="url(#clip190)" d="M2495.61 201.725 L2495.61 205.706 Q2493.81 204.711 2491.98 204.225 Q2490.17 203.716 2488.32 203.716 Q2484.18 203.716 2481.89 206.354 Q2479.59 208.97 2479.59 213.716 Q2479.59 218.461 2481.89 221.1 Q2484.18 223.715 2488.32 223.715 Q2490.17 223.715 2491.98 223.229 Q2493.81 222.72 2495.61 221.725 L2495.61 225.66 Q2493.83 226.493 2491.91 226.91 Q2490.01 227.327 2487.86 227.327 Q2482 227.327 2478.55 223.646 Q2475.1 219.965 2475.1 213.716 Q2475.1 207.373 2478.58 203.739 Q2482.07 200.104 2488.14 200.104 Q2490.1 200.104 2491.98 200.521 Q2493.85 200.915 2495.61 201.725 Z" fill="#000000" fill-rule="evenodd" fill-opacity="1" /><path clip-path="url(#clip190)" d="M2513.07 203.716 Q2509.64 203.716 2507.65 206.401 Q2505.66 209.063 2505.66 213.716 Q2505.66 218.368 2507.63 221.053 Q2509.62 223.715 2513.07 223.715 Q2516.47 223.715 2518.46 221.03 Q2520.45 218.345 2520.45 213.716 Q2520.45 209.109 2518.46 206.424 Q2516.47 203.716 2513.07 203.716 M2513.07 200.104 Q2518.62 200.104 2521.79 203.716 Q2524.96 207.327 2524.96 213.716 Q2524.96 220.081 2521.79 223.715 Q2518.62 227.327 2513.07 227.327 Q2507.49 227.327 2504.32 223.715 Q2501.17 220.081 2501.17 213.716 Q2501.17 207.327 2504.32 203.716 Q2507.49 200.104 2513.07 200.104 Z" fill="#000000" fill-rule="evenodd" fill-opacity="1" /><path clip-path="url(#clip190)" d="M2532.02 190.637 L2536.28 190.637 L2536.28 226.655 L2532.02 226.655 L2532.02 190.637 Z" fill="#000000" fill-rule="evenodd" fill-opacity="1" /><path clip-path="url(#clip190)" d="M2555.24 203.716 Q2551.82 203.716 2549.83 206.401 Q2547.83 209.063 2547.83 213.716 Q2547.83 218.368 2549.8 221.053 Q2551.79 223.715 2555.24 223.715 Q2558.64 223.715 2560.64 221.03 Q2562.63 218.345 2562.63 213.716 Q2562.63 209.109 2560.64 206.424 Q2558.64 203.716 2555.24 203.716 M2555.24 200.104 Q2560.8 200.104 2563.97 203.716 Q2567.14 207.327 2567.14 213.716 Q2567.14 220.081 2563.97 223.715 Q2560.8 227.327 2555.24 227.327 Q2549.66 227.327 2546.49 223.715 Q2543.34 220.081 2543.34 213.716 Q2543.34 207.327 2546.49 203.716 Q2549.66 200.104 2555.24 200.104 Z" fill="#000000" fill-rule="evenodd" fill-opacity="1" /><path clip-path="url(#clip190)" d="M2589.22 204.711 Q2588.51 204.294 2587.65 204.109 Q2586.82 203.901 2585.8 203.901 Q2582.19 203.901 2580.24 206.262 Q2578.32 208.6 2578.32 212.998 L2578.32 226.655 L2574.04 226.655 L2574.04 200.729 L2578.32 200.729 L2578.32 204.757 Q2579.66 202.396 2581.82 201.262 Q2583.97 200.104 2587.05 200.104 Q2587.49 200.104 2588.02 200.174 Q2588.55 200.22 2589.2 200.336 L2589.22 204.711 Z" fill="#000000" fill-rule="evenodd" fill-opacity="1" /><polyline clip-path="url(#clip190)" style="stroke:#3da44d; stroke-linecap:round; stroke-linejoin:round; stroke-width:4; stroke-opacity:1; fill:none" points="
  2269.13,261.215 2346.43,261.215 
  "/>
<path clip-path="url(#clip190)" d="M2359.32 252.569 L2363.83 252.569 L2371.93 274.329 L2380.03 252.569 L2384.55 252.569 L2374.83 278.495 L2369.04 278.495 L2359.32 252.569 Z" fill="#000000" fill-rule="evenodd" fill-opacity="1" /><path clip-path="url(#clip190)" d="M2390.43 252.569 L2394.69 252.569 L2394.69 278.495 L2390.43 278.495 L2390.43 252.569 M2390.43 242.477 L2394.69 242.477 L2394.69 247.87 L2390.43 247.87 L2390.43 242.477 Z" fill="#000000" fill-rule="evenodd" fill-opacity="1" /><path clip-path="url(#clip190)" d="M2418.62 256.551 Q2417.9 256.134 2417.05 255.949 Q2416.21 255.741 2415.2 255.741 Q2411.59 255.741 2409.64 258.102 Q2407.72 260.44 2407.72 264.838 L2407.72 278.495 L2403.44 278.495 L2403.44 252.569 L2407.72 252.569 L2407.72 256.597 Q2409.06 254.236 2411.21 253.102 Q2413.37 251.944 2416.45 251.944 Q2416.89 251.944 2417.42 252.014 Q2417.95 252.06 2418.6 252.176 L2418.62 256.551 Z" fill="#000000" fill-rule="evenodd" fill-opacity="1" /><path clip-path="url(#clip190)" d="M2439.32 265.231 Q2439.32 260.602 2437.4 258.056 Q2435.5 255.509 2432.05 255.509 Q2428.62 255.509 2426.7 258.056 Q2424.8 260.602 2424.8 265.231 Q2424.8 269.838 2426.7 272.384 Q2428.62 274.93 2432.05 274.93 Q2435.5 274.93 2437.4 272.384 Q2439.32 269.838 2439.32 265.231 M2443.58 275.278 Q2443.58 281.898 2440.64 285.116 Q2437.7 288.356 2431.63 288.356 Q2429.39 288.356 2427.4 288.009 Q2425.4 287.685 2423.53 286.991 L2423.53 282.847 Q2425.4 283.866 2427.23 284.352 Q2429.06 284.838 2430.96 284.838 Q2435.15 284.838 2437.23 282.639 Q2439.32 280.463 2439.32 276.042 L2439.32 273.935 Q2438 276.227 2435.94 277.361 Q2433.88 278.495 2431.01 278.495 Q2426.24 278.495 2423.32 274.861 Q2420.4 271.227 2420.4 265.231 Q2420.4 259.213 2423.32 255.579 Q2426.24 251.944 2431.01 251.944 Q2433.88 251.944 2435.94 253.079 Q2438 254.213 2439.32 256.505 L2439.32 252.569 L2443.58 252.569 L2443.58 275.278 Z" fill="#000000" fill-rule="evenodd" fill-opacity="1" /><path clip-path="url(#clip190)" d="M2452.35 252.569 L2456.61 252.569 L2456.61 278.495 L2452.35 278.495 L2452.35 252.569 M2452.35 242.477 L2456.61 242.477 L2456.61 247.87 L2452.35 247.87 L2452.35 242.477 Z" fill="#000000" fill-rule="evenodd" fill-opacity="1" /><path clip-path="url(#clip190)" d="M2487.07 262.847 L2487.07 278.495 L2482.81 278.495 L2482.81 262.986 Q2482.81 259.306 2481.38 257.477 Q2479.94 255.648 2477.07 255.648 Q2473.62 255.648 2471.63 257.847 Q2469.64 260.046 2469.64 263.843 L2469.64 278.495 L2465.36 278.495 L2465.36 252.569 L2469.64 252.569 L2469.64 256.597 Q2471.17 254.259 2473.23 253.102 Q2475.31 251.944 2478.02 251.944 Q2482.49 251.944 2484.78 254.722 Q2487.07 257.477 2487.07 262.847 Z" fill="#000000" fill-rule="evenodd" fill-opacity="1" /><path clip-path="url(#clip190)" d="M2495.57 252.569 L2499.83 252.569 L2499.83 278.495 L2495.57 278.495 L2495.57 252.569 M2495.57 242.477 L2499.83 242.477 L2499.83 247.87 L2495.57 247.87 L2495.57 242.477 Z" fill="#000000" fill-rule="evenodd" fill-opacity="1" /><path clip-path="url(#clip190)" d="M2527.39 253.565 L2527.39 257.546 Q2525.59 256.551 2523.76 256.065 Q2521.95 255.556 2520.1 255.556 Q2515.96 255.556 2513.67 258.194 Q2511.38 260.81 2511.38 265.556 Q2511.38 270.301 2513.67 272.94 Q2515.96 275.555 2520.1 275.555 Q2521.95 275.555 2523.76 275.069 Q2525.59 274.56 2527.39 273.565 L2527.39 277.5 Q2525.61 278.333 2523.69 278.75 Q2521.79 279.167 2519.64 279.167 Q2513.78 279.167 2510.33 275.486 Q2506.89 271.805 2506.89 265.556 Q2506.89 259.213 2510.36 255.579 Q2513.85 251.944 2519.92 251.944 Q2521.89 251.944 2523.76 252.361 Q2525.64 252.755 2527.39 253.565 Z" fill="#000000" fill-rule="evenodd" fill-opacity="1" /><path clip-path="url(#clip190)" d="M2546.58 265.463 Q2541.42 265.463 2539.43 266.643 Q2537.44 267.824 2537.44 270.671 Q2537.44 272.94 2538.92 274.282 Q2540.43 275.602 2543 275.602 Q2546.54 275.602 2548.67 273.102 Q2550.82 270.579 2550.82 266.412 L2550.82 265.463 L2546.58 265.463 M2555.08 263.704 L2555.08 278.495 L2550.82 278.495 L2550.82 274.56 Q2549.36 276.921 2547.19 278.055 Q2545.01 279.167 2541.86 279.167 Q2537.88 279.167 2535.52 276.944 Q2533.18 274.699 2533.18 270.949 Q2533.18 266.574 2536.1 264.352 Q2539.04 262.13 2544.85 262.13 L2550.82 262.13 L2550.82 261.713 Q2550.82 258.773 2548.88 257.176 Q2546.95 255.556 2543.46 255.556 Q2541.24 255.556 2539.13 256.088 Q2537.02 256.62 2535.08 257.685 L2535.08 253.75 Q2537.42 252.847 2539.62 252.407 Q2541.82 251.944 2543.9 251.944 Q2549.52 251.944 2552.3 254.861 Q2555.08 257.778 2555.08 263.704 Z" fill="#000000" fill-rule="evenodd" fill-opacity="1" /></svg>
