<?xml version="1.0" encoding="utf-8"?>
<svg xmlns="http://www.w3.org/2000/svg" xmlns:xlink="http://www.w3.org/1999/xlink" width="672" height="480" viewBox="0 0 2688 1920">
<defs>
  <clipPath id="clip110">
    <rect x="0" y="0" width="2688" height="1920"/>
  </clipPath>
</defs>
<path clip-path="url(#clip110)" d="
M0 1920 L2688 1920 L2688 0 L0 0  Z
  " fill="#ffffff" fill-rule="evenodd" fill-opacity="1"/>
<defs>
  <clipPath id="clip111">
    <rect x="537" y="0" width="1883" height="1883"/>
  </clipPath>
</defs>
<path clip-path="url(#clip110)" d="
M225.983 1800.78 L1296.76 1800.78 L1296.76 47.2441 L225.983 47.2441  Z
  " fill="#ffffff" fill-rule="evenodd" fill-opacity="1"/>
<defs>
  <clipPath id="clip112">
    <rect x="225" y="47" width="1072" height="1755"/>
  </clipPath>
</defs>
<polyline clip-path="url(#clip112)" style="stroke:#000000; stroke-linecap:round; stroke-linejoin:round; stroke-width:2; stroke-opacity:0.1; fill:none" points="
  381.179,1800.78 381.179,47.2441 
  "/>
<polyline clip-path="url(#clip112)" style="stroke:#000000; stroke-linecap:round; stroke-linejoin:round; stroke-width:2; stroke-opacity:0.1; fill:none" points="
  570.525,1800.78 570.525,47.2441 
  "/>
<polyline clip-path="url(#clip112)" style="stroke:#000000; stroke-linecap:round; stroke-linejoin:round; stroke-width:2; stroke-opacity:0.1; fill:none" points="
  759.871,1800.78 759.871,47.2441 
  "/>
<polyline clip-path="url(#clip112)" style="stroke:#000000; stroke-linecap:round; stroke-linejoin:round; stroke-width:2; stroke-opacity:0.1; fill:none" points="
  949.218,1800.78 949.218,47.2441 
  "/>
<polyline clip-path="url(#clip112)" style="stroke:#000000; stroke-linecap:round; stroke-linejoin:round; stroke-width:2; stroke-opacity:0.1; fill:none" points="
  1138.56,1800.78 1138.56,47.2441 
  "/>
<polyline clip-path="url(#clip110)" style="stroke:#000000; stroke-linecap:round; stroke-linejoin:round; stroke-width:4; stroke-opacity:1; fill:none" points="
  225.983,1800.78 1296.76,1800.78 
  "/>
<polyline clip-path="url(#clip110)" style="stroke:#000000; stroke-linecap:round; stroke-linejoin:round; stroke-width:4; stroke-opacity:1; fill:none" points="
  381.179,1800.78 381.179,1781.88 
  "/>
<polyline clip-path="url(#clip110)" style="stroke:#000000; stroke-linecap:round; stroke-linejoin:round; stroke-width:4; stroke-opacity:1; fill:none" points="
  570.525,1800.78 570.525,1781.88 
  "/>
<polyline clip-path="url(#clip110)" style="stroke:#000000; stroke-linecap:round; stroke-linejoin:round; stroke-width:4; stroke-opacity:1; fill:none" points="
  759.871,1800.78 759.871,1781.88 
  "/>
<polyline clip-path="url(#clip110)" style="stroke:#000000; stroke-linecap:round; stroke-linejoin:round; stroke-width:4; stroke-opacity:1; fill:none" points="
  949.218,1800.78 949.218,1781.88 
  "/>
<polyline clip-path="url(#clip110)" style="stroke:#000000; stroke-linecap:round; stroke-linejoin:round; stroke-width:4; stroke-opacity:1; fill:none" points="
  1138.56,1800.78 1138.56,1781.88 
  "/>
<path clip-path="url(#clip110)" d="M333.251 1861.55 L340.89 1861.55 L340.89 1835.18 L332.58 1836.85 L332.58 1832.59 L340.844 1830.92 L345.52 1830.92 L345.52 1861.55 L353.158 1861.55 L353.158 1865.48 L333.251 1865.48 L333.251 1861.55 Z" fill="#000000" fill-rule="evenodd" fill-opacity="1" /><path clip-path="url(#clip110)" d="M362.603 1859.6 L367.487 1859.6 L367.487 1865.48 L362.603 1865.48 L362.603 1859.6 Z" fill="#000000" fill-rule="evenodd" fill-opacity="1" /><path clip-path="url(#clip110)" d="M387.672 1834 Q384.061 1834 382.232 1837.57 Q380.427 1841.11 380.427 1848.24 Q380.427 1855.34 382.232 1858.91 Q384.061 1862.45 387.672 1862.45 Q391.306 1862.45 393.112 1858.91 Q394.941 1855.34 394.941 1848.24 Q394.941 1841.11 393.112 1837.57 Q391.306 1834 387.672 1834 M387.672 1830.3 Q393.482 1830.3 396.538 1834.9 Q399.616 1839.49 399.616 1848.24 Q399.616 1856.96 396.538 1861.57 Q393.482 1866.15 387.672 1866.15 Q381.862 1866.15 378.783 1861.57 Q375.728 1856.96 375.728 1848.24 Q375.728 1839.49 378.783 1834.9 Q381.862 1830.3 387.672 1830.3 Z" fill="#000000" fill-rule="evenodd" fill-opacity="1" /><path clip-path="url(#clip110)" d="M417.834 1834 Q414.223 1834 412.394 1837.57 Q410.589 1841.11 410.589 1848.24 Q410.589 1855.34 412.394 1858.91 Q414.223 1862.45 417.834 1862.45 Q421.468 1862.45 423.274 1858.91 Q425.102 1855.34 425.102 1848.24 Q425.102 1841.11 423.274 1837.57 Q421.468 1834 417.834 1834 M417.834 1830.3 Q423.644 1830.3 426.7 1834.9 Q429.778 1839.49 429.778 1848.24 Q429.778 1856.96 426.7 1861.57 Q423.644 1866.15 417.834 1866.15 Q412.024 1866.15 408.945 1861.57 Q405.89 1856.96 405.89 1848.24 Q405.89 1839.49 408.945 1834.9 Q412.024 1830.3 417.834 1830.3 Z" fill="#000000" fill-rule="evenodd" fill-opacity="1" /><path clip-path="url(#clip110)" d="M523.095 1861.55 L530.734 1861.55 L530.734 1835.18 L522.424 1836.85 L522.424 1832.59 L530.687 1830.92 L535.363 1830.92 L535.363 1861.55 L543.002 1861.55 L543.002 1865.48 L523.095 1865.48 L523.095 1861.55 Z" fill="#000000" fill-rule="evenodd" fill-opacity="1" /><path clip-path="url(#clip110)" d="M552.447 1859.6 L557.331 1859.6 L557.331 1865.48 L552.447 1865.48 L552.447 1859.6 Z" fill="#000000" fill-rule="evenodd" fill-opacity="1" /><path clip-path="url(#clip110)" d="M571.544 1861.55 L587.863 1861.55 L587.863 1865.48 L565.919 1865.48 L565.919 1861.55 Q568.581 1858.79 573.164 1854.16 Q577.771 1849.51 578.951 1848.17 Q581.196 1845.65 582.076 1843.91 Q582.979 1842.15 582.979 1840.46 Q582.979 1837.71 581.034 1835.97 Q579.113 1834.23 576.011 1834.23 Q573.812 1834.23 571.359 1835 Q568.928 1835.76 566.15 1837.31 L566.15 1832.59 Q568.974 1831.46 571.428 1830.88 Q573.882 1830.3 575.919 1830.3 Q581.289 1830.3 584.483 1832.98 Q587.678 1835.67 587.678 1840.16 Q587.678 1842.29 586.868 1844.21 Q586.081 1846.11 583.974 1848.7 Q583.396 1849.37 580.294 1852.59 Q577.192 1855.78 571.544 1861.55 Z" fill="#000000" fill-rule="evenodd" fill-opacity="1" /><path clip-path="url(#clip110)" d="M597.724 1830.92 L616.081 1830.92 L616.081 1834.86 L602.007 1834.86 L602.007 1843.33 Q603.025 1842.98 604.044 1842.82 Q605.062 1842.64 606.081 1842.64 Q611.868 1842.64 615.247 1845.81 Q618.627 1848.98 618.627 1854.4 Q618.627 1859.97 615.155 1863.08 Q611.682 1866.15 605.363 1866.15 Q603.187 1866.15 600.919 1865.78 Q598.673 1865.41 596.266 1864.67 L596.266 1859.97 Q598.349 1861.11 600.571 1861.66 Q602.794 1862.22 605.27 1862.22 Q609.275 1862.22 611.613 1860.11 Q613.951 1858.01 613.951 1854.4 Q613.951 1850.78 611.613 1848.68 Q609.275 1846.57 605.27 1846.57 Q603.395 1846.57 601.52 1846.99 Q599.669 1847.4 597.724 1848.28 L597.724 1830.92 Z" fill="#000000" fill-rule="evenodd" fill-opacity="1" /><path clip-path="url(#clip110)" d="M711.943 1861.55 L719.582 1861.55 L719.582 1835.18 L711.272 1836.85 L711.272 1832.59 L719.536 1830.92 L724.212 1830.92 L724.212 1861.55 L731.851 1861.55 L731.851 1865.48 L711.943 1865.48 L711.943 1861.55 Z" fill="#000000" fill-rule="evenodd" fill-opacity="1" /><path clip-path="url(#clip110)" d="M741.295 1859.6 L746.179 1859.6 L746.179 1865.48 L741.295 1865.48 L741.295 1859.6 Z" fill="#000000" fill-rule="evenodd" fill-opacity="1" /><path clip-path="url(#clip110)" d="M756.411 1830.92 L774.767 1830.92 L774.767 1834.86 L760.693 1834.86 L760.693 1843.33 Q761.712 1842.98 762.73 1842.82 Q763.749 1842.64 764.767 1842.64 Q770.554 1842.64 773.934 1845.81 Q777.313 1848.98 777.313 1854.4 Q777.313 1859.97 773.841 1863.08 Q770.369 1866.15 764.05 1866.15 Q761.874 1866.15 759.605 1865.78 Q757.36 1865.41 754.952 1864.67 L754.952 1859.97 Q757.036 1861.11 759.258 1861.66 Q761.48 1862.22 763.957 1862.22 Q767.962 1862.22 770.3 1860.11 Q772.637 1858.01 772.637 1854.4 Q772.637 1850.78 770.3 1848.68 Q767.962 1846.57 763.957 1846.57 Q762.082 1846.57 760.207 1846.99 Q758.355 1847.4 756.411 1848.28 L756.411 1830.92 Z" fill="#000000" fill-rule="evenodd" fill-opacity="1" /><path clip-path="url(#clip110)" d="M796.526 1834 Q792.915 1834 791.086 1837.57 Q789.281 1841.11 789.281 1848.24 Q789.281 1855.34 791.086 1858.91 Q792.915 1862.45 796.526 1862.45 Q800.16 1862.45 801.966 1858.91 Q803.795 1855.34 803.795 1848.24 Q803.795 1841.11 801.966 1837.57 Q800.16 1834 796.526 1834 M796.526 1830.3 Q802.336 1830.3 805.392 1834.9 Q808.471 1839.49 808.471 1848.24 Q808.471 1856.96 805.392 1861.57 Q802.336 1866.15 796.526 1866.15 Q790.716 1866.15 787.637 1861.57 Q784.582 1856.96 784.582 1848.24 Q784.582 1839.49 787.637 1834.9 Q790.716 1830.3 796.526 1830.3 Z" fill="#000000" fill-rule="evenodd" fill-opacity="1" /><path clip-path="url(#clip110)" d="M901.787 1861.55 L909.426 1861.55 L909.426 1835.18 L901.116 1836.85 L901.116 1832.59 L909.38 1830.92 L914.056 1830.92 L914.056 1861.55 L921.695 1861.55 L921.695 1865.48 L901.787 1865.48 L901.787 1861.55 Z" fill="#000000" fill-rule="evenodd" fill-opacity="1" /><path clip-path="url(#clip110)" d="M931.139 1859.6 L936.023 1859.6 L936.023 1865.48 L931.139 1865.48 L931.139 1859.6 Z" fill="#000000" fill-rule="evenodd" fill-opacity="1" /><path clip-path="url(#clip110)" d="M945.028 1830.92 L967.25 1830.92 L967.25 1832.91 L954.704 1865.48 L949.819 1865.48 L961.625 1834.86 L945.028 1834.86 L945.028 1830.92 Z" fill="#000000" fill-rule="evenodd" fill-opacity="1" /><path clip-path="url(#clip110)" d="M976.416 1830.92 L994.773 1830.92 L994.773 1834.86 L980.699 1834.86 L980.699 1843.33 Q981.717 1842.98 982.736 1842.82 Q983.754 1842.64 984.773 1842.64 Q990.56 1842.64 993.94 1845.81 Q997.319 1848.98 997.319 1854.4 Q997.319 1859.97 993.847 1863.08 Q990.375 1866.15 984.055 1866.15 Q981.879 1866.15 979.611 1865.78 Q977.366 1865.41 974.958 1864.67 L974.958 1859.97 Q977.041 1861.11 979.264 1861.66 Q981.486 1862.22 983.963 1862.22 Q987.967 1862.22 990.305 1860.11 Q992.643 1858.01 992.643 1854.4 Q992.643 1850.78 990.305 1848.68 Q987.967 1846.57 983.963 1846.57 Q982.088 1846.57 980.213 1846.99 Q978.361 1847.4 976.416 1848.28 L976.416 1830.92 Z" fill="#000000" fill-rule="evenodd" fill-opacity="1" /><path clip-path="url(#clip110)" d="M1094.72 1861.55 L1111.04 1861.55 L1111.04 1865.48 L1089.1 1865.48 L1089.1 1861.55 Q1091.76 1858.79 1096.34 1854.16 Q1100.95 1849.51 1102.13 1848.17 Q1104.37 1845.65 1105.25 1843.91 Q1106.16 1842.15 1106.16 1840.46 Q1106.16 1837.71 1104.21 1835.97 Q1102.29 1834.23 1099.19 1834.23 Q1096.99 1834.23 1094.54 1835 Q1092.11 1835.76 1089.33 1837.31 L1089.33 1832.59 Q1092.15 1831.46 1094.61 1830.88 Q1097.06 1830.3 1099.1 1830.3 Q1104.47 1830.3 1107.66 1832.98 Q1110.86 1835.67 1110.86 1840.16 Q1110.86 1842.29 1110.05 1844.21 Q1109.26 1846.11 1107.15 1848.7 Q1106.57 1849.37 1103.47 1852.59 Q1100.37 1855.78 1094.72 1861.55 Z" fill="#000000" fill-rule="evenodd" fill-opacity="1" /><path clip-path="url(#clip110)" d="M1120.86 1859.6 L1125.74 1859.6 L1125.74 1865.48 L1120.86 1865.48 L1120.86 1859.6 Z" fill="#000000" fill-rule="evenodd" fill-opacity="1" /><path clip-path="url(#clip110)" d="M1145.92 1834 Q1142.31 1834 1140.48 1837.57 Q1138.68 1841.11 1138.68 1848.24 Q1138.68 1855.34 1140.48 1858.91 Q1142.31 1862.45 1145.92 1862.45 Q1149.56 1862.45 1151.36 1858.91 Q1153.19 1855.34 1153.19 1848.24 Q1153.19 1841.11 1151.36 1837.57 Q1149.56 1834 1145.92 1834 M1145.92 1830.3 Q1151.73 1830.3 1154.79 1834.9 Q1157.87 1839.49 1157.87 1848.24 Q1157.87 1856.96 1154.79 1861.57 Q1151.73 1866.15 1145.92 1866.15 Q1140.11 1866.15 1137.04 1861.57 Q1133.98 1856.96 1133.98 1848.24 Q1133.98 1839.49 1137.04 1834.9 Q1140.11 1830.3 1145.92 1830.3 Z" fill="#000000" fill-rule="evenodd" fill-opacity="1" /><path clip-path="url(#clip110)" d="M1176.09 1834 Q1172.48 1834 1170.65 1837.57 Q1168.84 1841.11 1168.84 1848.24 Q1168.84 1855.34 1170.65 1858.91 Q1172.48 1862.45 1176.09 1862.45 Q1179.72 1862.45 1181.53 1858.91 Q1183.36 1855.34 1183.36 1848.24 Q1183.36 1841.11 1181.53 1837.57 Q1179.72 1834 1176.09 1834 M1176.09 1830.3 Q1181.9 1830.3 1184.95 1834.9 Q1188.03 1839.49 1188.03 1848.24 Q1188.03 1856.96 1184.95 1861.57 Q1181.9 1866.15 1176.09 1866.15 Q1170.28 1866.15 1167.2 1861.57 Q1164.14 1856.96 1164.14 1848.24 Q1164.14 1839.49 1167.2 1834.9 Q1170.28 1830.3 1176.09 1830.3 Z" fill="#000000" fill-rule="evenodd" fill-opacity="1" /><polyline clip-path="url(#clip112)" style="stroke:#000000; stroke-linecap:round; stroke-linejoin:round; stroke-width:2; stroke-opacity:0.1; fill:none" points="
  225.983,1766.76 1296.76,1766.76 
  "/>
<polyline clip-path="url(#clip112)" style="stroke:#000000; stroke-linecap:round; stroke-linejoin:round; stroke-width:2; stroke-opacity:0.1; fill:none" points="
  225.983,1406.47 1296.76,1406.47 
  "/>
<polyline clip-path="url(#clip112)" style="stroke:#000000; stroke-linecap:round; stroke-linejoin:round; stroke-width:2; stroke-opacity:0.1; fill:none" points="
  225.983,1046.18 1296.76,1046.18 
  "/>
<polyline clip-path="url(#clip112)" style="stroke:#000000; stroke-linecap:round; stroke-linejoin:round; stroke-width:2; stroke-opacity:0.1; fill:none" points="
  225.983,685.888 1296.76,685.888 
  "/>
<polyline clip-path="url(#clip112)" style="stroke:#000000; stroke-linecap:round; stroke-linejoin:round; stroke-width:2; stroke-opacity:0.1; fill:none" points="
  225.983,325.597 1296.76,325.597 
  "/>
<polyline clip-path="url(#clip110)" style="stroke:#000000; stroke-linecap:round; stroke-linejoin:round; stroke-width:4; stroke-opacity:1; fill:none" points="
  225.983,1800.78 225.983,47.2441 
  "/>
<polyline clip-path="url(#clip110)" style="stroke:#000000; stroke-linecap:round; stroke-linejoin:round; stroke-width:4; stroke-opacity:1; fill:none" points="
  225.983,1766.76 244.88,1766.76 
  "/>
<polyline clip-path="url(#clip110)" style="stroke:#000000; stroke-linecap:round; stroke-linejoin:round; stroke-width:4; stroke-opacity:1; fill:none" points="
  225.983,1406.47 244.88,1406.47 
  "/>
<polyline clip-path="url(#clip110)" style="stroke:#000000; stroke-linecap:round; stroke-linejoin:round; stroke-width:4; stroke-opacity:1; fill:none" points="
  225.983,1046.18 244.88,1046.18 
  "/>
<polyline clip-path="url(#clip110)" style="stroke:#000000; stroke-linecap:round; stroke-linejoin:round; stroke-width:4; stroke-opacity:1; fill:none" points="
  225.983,685.888 244.88,685.888 
  "/>
<polyline clip-path="url(#clip110)" style="stroke:#000000; stroke-linecap:round; stroke-linejoin:round; stroke-width:4; stroke-opacity:1; fill:none" points="
  225.983,325.597 244.88,325.597 
  "/>
<path clip-path="url(#clip110)" d="M49.5521 1767.21 L79.2279 1767.21 L79.2279 1771.15 L49.5521 1771.15 L49.5521 1767.21 Z" fill="#000000" fill-rule="evenodd" fill-opacity="1" /><path clip-path="url(#clip110)" d="M99.3204 1752.56 Q95.7093 1752.56 93.8806 1756.12 Q92.075 1759.67 92.075 1766.8 Q92.075 1773.9 93.8806 1777.47 Q95.7093 1781.01 99.3204 1781.01 Q102.955 1781.01 104.76 1777.47 Q106.589 1773.9 106.589 1766.8 Q106.589 1759.67 104.76 1756.12 Q102.955 1752.56 99.3204 1752.56 M99.3204 1748.86 Q105.131 1748.86 108.186 1753.46 Q111.265 1758.05 111.265 1766.8 Q111.265 1775.52 108.186 1780.13 Q105.131 1784.71 99.3204 1784.71 Q93.5102 1784.71 90.4315 1780.13 Q87.376 1775.52 87.376 1766.8 Q87.376 1758.05 90.4315 1753.46 Q93.5102 1748.86 99.3204 1748.86 Z" fill="#000000" fill-rule="evenodd" fill-opacity="1" /><path clip-path="url(#clip110)" d="M119.482 1778.16 L124.367 1778.16 L124.367 1784.04 L119.482 1784.04 L119.482 1778.16 Z" fill="#000000" fill-rule="evenodd" fill-opacity="1" /><path clip-path="url(#clip110)" d="M138.579 1780.11 L154.899 1780.11 L154.899 1784.04 L132.954 1784.04 L132.954 1780.11 Q135.616 1777.35 140.2 1772.72 Q144.806 1768.07 145.987 1766.73 Q148.232 1764.2 149.112 1762.47 Q150.015 1760.71 150.015 1759.02 Q150.015 1756.26 148.07 1754.53 Q146.149 1752.79 143.047 1752.79 Q140.848 1752.79 138.394 1753.55 Q135.964 1754.32 133.186 1755.87 L133.186 1751.15 Q136.01 1750.01 138.464 1749.43 Q140.917 1748.86 142.954 1748.86 Q148.325 1748.86 151.519 1751.54 Q154.714 1754.23 154.714 1758.72 Q154.714 1760.85 153.903 1762.77 Q153.116 1764.67 151.01 1767.26 Q150.431 1767.93 147.329 1771.15 Q144.228 1774.34 138.579 1780.11 Z" fill="#000000" fill-rule="evenodd" fill-opacity="1" /><path clip-path="url(#clip110)" d="M164.76 1749.48 L183.116 1749.48 L183.116 1753.42 L169.042 1753.42 L169.042 1761.89 Q170.061 1761.54 171.079 1761.38 Q172.098 1761.19 173.116 1761.19 Q178.903 1761.19 182.283 1764.36 Q185.663 1767.54 185.663 1772.95 Q185.663 1778.53 182.19 1781.63 Q178.718 1784.71 172.399 1784.71 Q170.223 1784.71 167.954 1784.34 Q165.709 1783.97 163.302 1783.23 L163.302 1778.53 Q165.385 1779.67 167.607 1780.22 Q169.829 1780.78 172.306 1780.78 Q176.311 1780.78 178.649 1778.67 Q180.987 1776.56 180.987 1772.95 Q180.987 1769.34 178.649 1767.24 Q176.311 1765.13 172.306 1765.13 Q170.431 1765.13 168.556 1765.55 Q166.704 1765.96 164.76 1766.84 L164.76 1749.48 Z" fill="#000000" fill-rule="evenodd" fill-opacity="1" /><path clip-path="url(#clip110)" d="M98.325 1392.27 Q94.7139 1392.27 92.8852 1395.83 Q91.0797 1399.37 91.0797 1406.5 Q91.0797 1413.61 92.8852 1417.18 Q94.7139 1420.72 98.325 1420.72 Q101.959 1420.72 103.765 1417.18 Q105.593 1413.61 105.593 1406.5 Q105.593 1399.37 103.765 1395.83 Q101.959 1392.27 98.325 1392.27 M98.325 1388.56 Q104.135 1388.56 107.191 1393.17 Q110.269 1397.75 110.269 1406.5 Q110.269 1415.23 107.191 1419.84 Q104.135 1424.42 98.325 1424.42 Q92.5149 1424.42 89.4362 1419.84 Q86.3806 1415.23 86.3806 1406.5 Q86.3806 1397.75 89.4362 1393.17 Q92.5149 1388.56 98.325 1388.56 Z" fill="#000000" fill-rule="evenodd" fill-opacity="1" /><path clip-path="url(#clip110)" d="M118.487 1417.87 L123.371 1417.87 L123.371 1423.75 L118.487 1423.75 L118.487 1417.87 Z" fill="#000000" fill-rule="evenodd" fill-opacity="1" /><path clip-path="url(#clip110)" d="M143.556 1392.27 Q139.945 1392.27 138.116 1395.83 Q136.311 1399.37 136.311 1406.5 Q136.311 1413.61 138.116 1417.18 Q139.945 1420.72 143.556 1420.72 Q147.19 1420.72 148.996 1417.18 Q150.825 1413.61 150.825 1406.5 Q150.825 1399.37 148.996 1395.83 Q147.19 1392.27 143.556 1392.27 M143.556 1388.56 Q149.366 1388.56 152.422 1393.17 Q155.501 1397.75 155.501 1406.5 Q155.501 1415.23 152.422 1419.84 Q149.366 1424.42 143.556 1424.42 Q137.746 1424.42 134.667 1419.84 Q131.612 1415.23 131.612 1406.5 Q131.612 1397.75 134.667 1393.17 Q137.746 1388.56 143.556 1388.56 Z" fill="#000000" fill-rule="evenodd" fill-opacity="1" /><path clip-path="url(#clip110)" d="M173.718 1392.27 Q170.107 1392.27 168.278 1395.83 Q166.473 1399.37 166.473 1406.5 Q166.473 1413.61 168.278 1417.18 Q170.107 1420.72 173.718 1420.72 Q177.352 1420.72 179.158 1417.18 Q180.987 1413.61 180.987 1406.5 Q180.987 1399.37 179.158 1395.83 Q177.352 1392.27 173.718 1392.27 M173.718 1388.56 Q179.528 1388.56 182.584 1393.17 Q185.663 1397.75 185.663 1406.5 Q185.663 1415.23 182.584 1419.84 Q179.528 1424.42 173.718 1424.42 Q167.908 1424.42 164.829 1419.84 Q161.774 1415.23 161.774 1406.5 Q161.774 1397.75 164.829 1393.17 Q167.908 1388.56 173.718 1388.56 Z" fill="#000000" fill-rule="evenodd" fill-opacity="1" /><path clip-path="url(#clip110)" d="M99.3204 1031.98 Q95.7093 1031.98 93.8806 1035.54 Q92.075 1039.08 92.075 1046.21 Q92.075 1053.32 93.8806 1056.88 Q95.7093 1060.43 99.3204 1060.43 Q102.955 1060.43 104.76 1056.88 Q106.589 1053.32 106.589 1046.21 Q106.589 1039.08 104.76 1035.54 Q102.955 1031.98 99.3204 1031.98 M99.3204 1028.27 Q105.131 1028.27 108.186 1032.88 Q111.265 1037.46 111.265 1046.21 Q111.265 1054.94 108.186 1059.55 Q105.131 1064.13 99.3204 1064.13 Q93.5102 1064.13 90.4315 1059.55 Q87.376 1054.94 87.376 1046.21 Q87.376 1037.46 90.4315 1032.88 Q93.5102 1028.27 99.3204 1028.27 Z" fill="#000000" fill-rule="evenodd" fill-opacity="1" /><path clip-path="url(#clip110)" d="M119.482 1057.58 L124.367 1057.58 L124.367 1063.46 L119.482 1063.46 L119.482 1057.58 Z" fill="#000000" fill-rule="evenodd" fill-opacity="1" /><path clip-path="url(#clip110)" d="M138.579 1059.52 L154.899 1059.52 L154.899 1063.46 L132.954 1063.46 L132.954 1059.52 Q135.616 1056.77 140.2 1052.14 Q144.806 1047.49 145.987 1046.14 Q148.232 1043.62 149.112 1041.88 Q150.015 1040.13 150.015 1038.44 Q150.015 1035.68 148.07 1033.94 Q146.149 1032.21 143.047 1032.21 Q140.848 1032.21 138.394 1032.97 Q135.964 1033.74 133.186 1035.29 L133.186 1030.57 Q136.01 1029.43 138.464 1028.85 Q140.917 1028.27 142.954 1028.27 Q148.325 1028.27 151.519 1030.96 Q154.714 1033.64 154.714 1038.13 Q154.714 1040.26 153.903 1042.19 Q153.116 1044.08 151.01 1046.68 Q150.431 1047.35 147.329 1050.57 Q144.228 1053.76 138.579 1059.52 Z" fill="#000000" fill-rule="evenodd" fill-opacity="1" /><path clip-path="url(#clip110)" d="M164.76 1028.9 L183.116 1028.9 L183.116 1032.83 L169.042 1032.83 L169.042 1041.31 Q170.061 1040.96 171.079 1040.8 Q172.098 1040.61 173.116 1040.61 Q178.903 1040.61 182.283 1043.78 Q185.663 1046.95 185.663 1052.37 Q185.663 1057.95 182.19 1061.05 Q178.718 1064.13 172.399 1064.13 Q170.223 1064.13 167.954 1063.76 Q165.709 1063.39 163.302 1062.65 L163.302 1057.95 Q165.385 1059.08 167.607 1059.64 Q169.829 1060.19 172.306 1060.19 Q176.311 1060.19 178.649 1058.09 Q180.987 1055.98 180.987 1052.37 Q180.987 1048.76 178.649 1046.65 Q176.311 1044.55 172.306 1044.55 Q170.431 1044.55 168.556 1044.96 Q166.704 1045.38 164.76 1046.26 L164.76 1028.9 Z" fill="#000000" fill-rule="evenodd" fill-opacity="1" /><path clip-path="url(#clip110)" d="M98.325 671.686 Q94.7139 671.686 92.8852 675.251 Q91.0797 678.793 91.0797 685.922 Q91.0797 693.029 92.8852 696.594 Q94.7139 700.135 98.325 700.135 Q101.959 700.135 103.765 696.594 Q105.593 693.029 105.593 685.922 Q105.593 678.793 103.765 675.251 Q101.959 671.686 98.325 671.686 M98.325 667.983 Q104.135 667.983 107.191 672.589 Q110.269 677.172 110.269 685.922 Q110.269 694.649 107.191 699.256 Q104.135 703.839 98.325 703.839 Q92.5149 703.839 89.4362 699.256 Q86.3806 694.649 86.3806 685.922 Q86.3806 677.172 89.4362 672.589 Q92.5149 667.983 98.325 667.983 Z" fill="#000000" fill-rule="evenodd" fill-opacity="1" /><path clip-path="url(#clip110)" d="M118.487 697.288 L123.371 697.288 L123.371 703.168 L118.487 703.168 L118.487 697.288 Z" fill="#000000" fill-rule="evenodd" fill-opacity="1" /><path clip-path="url(#clip110)" d="M133.603 668.608 L151.959 668.608 L151.959 672.543 L137.885 672.543 L137.885 681.015 Q138.903 680.668 139.922 680.506 Q140.941 680.321 141.959 680.321 Q147.746 680.321 151.126 683.492 Q154.505 686.663 154.505 692.08 Q154.505 697.658 151.033 700.76 Q147.561 703.839 141.241 703.839 Q139.066 703.839 136.797 703.469 Q134.552 703.098 132.144 702.358 L132.144 697.658 Q134.228 698.793 136.45 699.348 Q138.672 699.904 141.149 699.904 Q145.153 699.904 147.491 697.797 Q149.829 695.691 149.829 692.08 Q149.829 688.469 147.491 686.362 Q145.153 684.256 141.149 684.256 Q139.274 684.256 137.399 684.672 Q135.547 685.089 133.603 685.969 L133.603 668.608 Z" fill="#000000" fill-rule="evenodd" fill-opacity="1" /><path clip-path="url(#clip110)" d="M173.718 671.686 Q170.107 671.686 168.278 675.251 Q166.473 678.793 166.473 685.922 Q166.473 693.029 168.278 696.594 Q170.107 700.135 173.718 700.135 Q177.352 700.135 179.158 696.594 Q180.987 693.029 180.987 685.922 Q180.987 678.793 179.158 675.251 Q177.352 671.686 173.718 671.686 M173.718 667.983 Q179.528 667.983 182.584 672.589 Q185.663 677.172 185.663 685.922 Q185.663 694.649 182.584 699.256 Q179.528 703.839 173.718 703.839 Q167.908 703.839 164.829 699.256 Q161.774 694.649 161.774 685.922 Q161.774 677.172 164.829 672.589 Q167.908 667.983 173.718 667.983 Z" fill="#000000" fill-rule="evenodd" fill-opacity="1" /><path clip-path="url(#clip110)" d="M99.3204 311.395 Q95.7093 311.395 93.8806 314.96 Q92.075 318.502 92.075 325.631 Q92.075 332.738 93.8806 336.303 Q95.7093 339.844 99.3204 339.844 Q102.955 339.844 104.76 336.303 Q106.589 332.738 106.589 325.631 Q106.589 318.502 104.76 314.96 Q102.955 311.395 99.3204 311.395 M99.3204 307.692 Q105.131 307.692 108.186 312.298 Q111.265 316.881 111.265 325.631 Q111.265 334.358 108.186 338.965 Q105.131 343.548 99.3204 343.548 Q93.5102 343.548 90.4315 338.965 Q87.376 334.358 87.376 325.631 Q87.376 316.881 90.4315 312.298 Q93.5102 307.692 99.3204 307.692 Z" fill="#000000" fill-rule="evenodd" fill-opacity="1" /><path clip-path="url(#clip110)" d="M119.482 336.997 L124.367 336.997 L124.367 342.877 L119.482 342.877 L119.482 336.997 Z" fill="#000000" fill-rule="evenodd" fill-opacity="1" /><path clip-path="url(#clip110)" d="M133.371 308.317 L155.593 308.317 L155.593 310.307 L143.047 342.877 L138.163 342.877 L149.968 312.252 L133.371 312.252 L133.371 308.317 Z" fill="#000000" fill-rule="evenodd" fill-opacity="1" /><path clip-path="url(#clip110)" d="M164.76 308.317 L183.116 308.317 L183.116 312.252 L169.042 312.252 L169.042 320.724 Q170.061 320.377 171.079 320.215 Q172.098 320.03 173.116 320.03 Q178.903 320.03 182.283 323.201 Q185.663 326.372 185.663 331.789 Q185.663 337.367 182.19 340.469 Q178.718 343.548 172.399 343.548 Q170.223 343.548 167.954 343.178 Q165.709 342.807 163.302 342.067 L163.302 337.367 Q165.385 338.502 167.607 339.057 Q169.829 339.613 172.306 339.613 Q176.311 339.613 178.649 337.506 Q180.987 335.4 180.987 331.789 Q180.987 328.178 178.649 326.071 Q176.311 323.965 172.306 323.965 Q170.431 323.965 168.556 324.381 Q166.704 324.798 164.76 325.678 L164.76 308.317 Z" fill="#000000" fill-rule="evenodd" fill-opacity="1" /><circle clip-path="url(#clip112)" cx="256.287" cy="915.928" r="14.4" fill="#009af9" fill-rule="evenodd" fill-opacity="1" stroke="#000000" stroke-opacity="1" stroke-width="3.84"/>
<circle clip-path="url(#clip112)" cx="385.368" cy="749.092" r="14.4" fill="#009af9" fill-rule="evenodd" fill-opacity="1" stroke="#000000" stroke-opacity="1" stroke-width="3.84"/>
<circle clip-path="url(#clip112)" cx="398.74" cy="1723.55" r="14.4" fill="#009af9" fill-rule="evenodd" fill-opacity="1" stroke="#000000" stroke-opacity="1" stroke-width="3.84"/>
<circle clip-path="url(#clip112)" cx="480.291" cy="1167.99" r="14.4" fill="#009af9" fill-rule="evenodd" fill-opacity="1" stroke="#000000" stroke-opacity="1" stroke-width="3.84"/>
<circle clip-path="url(#clip112)" cx="491.78" cy="862.52" r="14.4" fill="#009af9" fill-rule="evenodd" fill-opacity="1" stroke="#000000" stroke-opacity="1" stroke-width="3.84"/>
<circle clip-path="url(#clip112)" cx="491.878" cy="1070.87" r="14.4" fill="#009af9" fill-rule="evenodd" fill-opacity="1" stroke="#000000" stroke-opacity="1" stroke-width="3.84"/>
<circle clip-path="url(#clip112)" cx="570.861" cy="755.604" r="14.4" fill="#009af9" fill-rule="evenodd" fill-opacity="1" stroke="#000000" stroke-opacity="1" stroke-width="3.84"/>
<circle clip-path="url(#clip112)" cx="599.261" cy="673.194" r="14.4" fill="#009af9" fill-rule="evenodd" fill-opacity="1" stroke="#000000" stroke-opacity="1" stroke-width="3.84"/>
<circle clip-path="url(#clip112)" cx="626.149" cy="570.886" r="14.4" fill="#009af9" fill-rule="evenodd" fill-opacity="1" stroke="#000000" stroke-opacity="1" stroke-width="3.84"/>
<circle clip-path="url(#clip112)" cx="655.236" cy="708.996" r="14.4" fill="#009af9" fill-rule="evenodd" fill-opacity="1" stroke="#000000" stroke-opacity="1" stroke-width="3.84"/>
<circle clip-path="url(#clip112)" cx="656.847" cy="1406.86" r="14.4" fill="#009af9" fill-rule="evenodd" fill-opacity="1" stroke="#000000" stroke-opacity="1" stroke-width="3.84"/>
<circle clip-path="url(#clip112)" cx="664.948" cy="1613.92" r="14.4" fill="#009af9" fill-rule="evenodd" fill-opacity="1" stroke="#000000" stroke-opacity="1" stroke-width="3.84"/>
<circle clip-path="url(#clip112)" cx="665.803" cy="942.079" r="14.4" fill="#009af9" fill-rule="evenodd" fill-opacity="1" stroke="#000000" stroke-opacity="1" stroke-width="3.84"/>
<circle clip-path="url(#clip112)" cx="671.728" cy="1024.58" r="14.4" fill="#009af9" fill-rule="evenodd" fill-opacity="1" stroke="#000000" stroke-opacity="1" stroke-width="3.84"/>
<circle clip-path="url(#clip112)" cx="675.473" cy="716.768" r="14.4" fill="#009af9" fill-rule="evenodd" fill-opacity="1" stroke="#000000" stroke-opacity="1" stroke-width="3.84"/>
<circle clip-path="url(#clip112)" cx="696.707" cy="369.74" r="14.4" fill="#009af9" fill-rule="evenodd" fill-opacity="1" stroke="#000000" stroke-opacity="1" stroke-width="3.84"/>
<circle clip-path="url(#clip112)" cx="698.334" cy="659.564" r="14.4" fill="#009af9" fill-rule="evenodd" fill-opacity="1" stroke="#000000" stroke-opacity="1" stroke-width="3.84"/>
<circle clip-path="url(#clip112)" cx="705.465" cy="919.224" r="14.4" fill="#009af9" fill-rule="evenodd" fill-opacity="1" stroke="#000000" stroke-opacity="1" stroke-width="3.84"/>
<circle clip-path="url(#clip112)" cx="719.889" cy="379.921" r="14.4" fill="#009af9" fill-rule="evenodd" fill-opacity="1" stroke="#000000" stroke-opacity="1" stroke-width="3.84"/>
<circle clip-path="url(#clip112)" cx="726.329" cy="1111.51" r="14.4" fill="#009af9" fill-rule="evenodd" fill-opacity="1" stroke="#000000" stroke-opacity="1" stroke-width="3.84"/>
<circle clip-path="url(#clip112)" cx="737.836" cy="958.039" r="14.4" fill="#009af9" fill-rule="evenodd" fill-opacity="1" stroke="#000000" stroke-opacity="1" stroke-width="3.84"/>
<circle clip-path="url(#clip112)" cx="746.354" cy="883.282" r="14.4" fill="#009af9" fill-rule="evenodd" fill-opacity="1" stroke="#000000" stroke-opacity="1" stroke-width="3.84"/>
<circle clip-path="url(#clip112)" cx="776.18" cy="1200.3" r="14.4" fill="#009af9" fill-rule="evenodd" fill-opacity="1" stroke="#000000" stroke-opacity="1" stroke-width="3.84"/>
<circle clip-path="url(#clip112)" cx="776.892" cy="1403.15" r="14.4" fill="#009af9" fill-rule="evenodd" fill-opacity="1" stroke="#000000" stroke-opacity="1" stroke-width="3.84"/>
<circle clip-path="url(#clip112)" cx="782.346" cy="1292.19" r="14.4" fill="#009af9" fill-rule="evenodd" fill-opacity="1" stroke="#000000" stroke-opacity="1" stroke-width="3.84"/>
<circle clip-path="url(#clip112)" cx="783.761" cy="1751.15" r="14.4" fill="#009af9" fill-rule="evenodd" fill-opacity="1" stroke="#000000" stroke-opacity="1" stroke-width="3.84"/>
<circle clip-path="url(#clip112)" cx="786.183" cy="96.8724" r="14.4" fill="#009af9" fill-rule="evenodd" fill-opacity="1" stroke="#000000" stroke-opacity="1" stroke-width="3.84"/>
<circle clip-path="url(#clip112)" cx="802.451" cy="1655.08" r="14.4" fill="#009af9" fill-rule="evenodd" fill-opacity="1" stroke="#000000" stroke-opacity="1" stroke-width="3.84"/>
<circle clip-path="url(#clip112)" cx="809.096" cy="1250.84" r="14.4" fill="#009af9" fill-rule="evenodd" fill-opacity="1" stroke="#000000" stroke-opacity="1" stroke-width="3.84"/>
<circle clip-path="url(#clip112)" cx="844.924" cy="1441.38" r="14.4" fill="#009af9" fill-rule="evenodd" fill-opacity="1" stroke="#000000" stroke-opacity="1" stroke-width="3.84"/>
<circle clip-path="url(#clip112)" cx="860.493" cy="830.724" r="14.4" fill="#009af9" fill-rule="evenodd" fill-opacity="1" stroke="#000000" stroke-opacity="1" stroke-width="3.84"/>
<circle clip-path="url(#clip112)" cx="863.488" cy="702.131" r="14.4" fill="#009af9" fill-rule="evenodd" fill-opacity="1" stroke="#000000" stroke-opacity="1" stroke-width="3.84"/>
<circle clip-path="url(#clip112)" cx="864.336" cy="1622.32" r="14.4" fill="#009af9" fill-rule="evenodd" fill-opacity="1" stroke="#000000" stroke-opacity="1" stroke-width="3.84"/>
<circle clip-path="url(#clip112)" cx="888.662" cy="1142.64" r="14.4" fill="#009af9" fill-rule="evenodd" fill-opacity="1" stroke="#000000" stroke-opacity="1" stroke-width="3.84"/>
<circle clip-path="url(#clip112)" cx="899.322" cy="1408.2" r="14.4" fill="#009af9" fill-rule="evenodd" fill-opacity="1" stroke="#000000" stroke-opacity="1" stroke-width="3.84"/>
<circle clip-path="url(#clip112)" cx="902.531" cy="724.946" r="14.4" fill="#009af9" fill-rule="evenodd" fill-opacity="1" stroke="#000000" stroke-opacity="1" stroke-width="3.84"/>
<circle clip-path="url(#clip112)" cx="905.295" cy="1381.57" r="14.4" fill="#009af9" fill-rule="evenodd" fill-opacity="1" stroke="#000000" stroke-opacity="1" stroke-width="3.84"/>
<circle clip-path="url(#clip112)" cx="905.699" cy="1017.08" r="14.4" fill="#009af9" fill-rule="evenodd" fill-opacity="1" stroke="#000000" stroke-opacity="1" stroke-width="3.84"/>
<circle clip-path="url(#clip112)" cx="912.113" cy="830.335" r="14.4" fill="#009af9" fill-rule="evenodd" fill-opacity="1" stroke="#000000" stroke-opacity="1" stroke-width="3.84"/>
<circle clip-path="url(#clip112)" cx="914.124" cy="183.871" r="14.4" fill="#009af9" fill-rule="evenodd" fill-opacity="1" stroke="#000000" stroke-opacity="1" stroke-width="3.84"/>
<circle clip-path="url(#clip112)" cx="931.814" cy="1391.97" r="14.4" fill="#009af9" fill-rule="evenodd" fill-opacity="1" stroke="#000000" stroke-opacity="1" stroke-width="3.84"/>
<circle clip-path="url(#clip112)" cx="945.956" cy="725.427" r="14.4" fill="#009af9" fill-rule="evenodd" fill-opacity="1" stroke="#000000" stroke-opacity="1" stroke-width="3.84"/>
<circle clip-path="url(#clip112)" cx="947.282" cy="1246.24" r="14.4" fill="#009af9" fill-rule="evenodd" fill-opacity="1" stroke="#000000" stroke-opacity="1" stroke-width="3.84"/>
<circle clip-path="url(#clip112)" cx="985.011" cy="1340.06" r="14.4" fill="#009af9" fill-rule="evenodd" fill-opacity="1" stroke="#000000" stroke-opacity="1" stroke-width="3.84"/>
<circle clip-path="url(#clip112)" cx="986.474" cy="1416.47" r="14.4" fill="#009af9" fill-rule="evenodd" fill-opacity="1" stroke="#000000" stroke-opacity="1" stroke-width="3.84"/>
<circle clip-path="url(#clip112)" cx="1016.71" cy="196.516" r="14.4" fill="#009af9" fill-rule="evenodd" fill-opacity="1" stroke="#000000" stroke-opacity="1" stroke-width="3.84"/>
<circle clip-path="url(#clip112)" cx="1133.05" cy="1194.8" r="14.4" fill="#009af9" fill-rule="evenodd" fill-opacity="1" stroke="#000000" stroke-opacity="1" stroke-width="3.84"/>
<circle clip-path="url(#clip112)" cx="1196.05" cy="810.285" r="14.4" fill="#009af9" fill-rule="evenodd" fill-opacity="1" stroke="#000000" stroke-opacity="1" stroke-width="3.84"/>
<circle clip-path="url(#clip112)" cx="1238.08" cy="1276.35" r="14.4" fill="#009af9" fill-rule="evenodd" fill-opacity="1" stroke="#000000" stroke-opacity="1" stroke-width="3.84"/>
<circle clip-path="url(#clip112)" cx="1266.45" cy="675.023" r="14.4" fill="#009af9" fill-rule="evenodd" fill-opacity="1" stroke="#000000" stroke-opacity="1" stroke-width="3.84"/>
<polyline clip-path="url(#clip112)" style="stroke:#0000ff; stroke-linecap:round; stroke-linejoin:round; stroke-width:20; stroke-opacity:1; fill:none" points="
  256.287,1230.9 258.885,1227.52 282.901,1196.3 297.334,1177.55 309.537,1161.68 322.793,1144.45 335.013,1128.57 348.115,1111.54 363.295,1091.81 376.784,1074.28 
  388.614,1058.9 401.511,1042.14 414.485,1025.28 428.829,1006.63 442.477,988.891 456.668,970.446 468.614,954.919 483.199,935.962 496.559,918.597 508.898,902.559 
  521.398,886.312 535.406,868.105 548.099,851.606 562.633,832.716 576.089,815.225 589.356,797.981 602.237,781.239 615.441,764.076 629.908,745.272 650.924,717.956 
  655.236,712.352 
  "/>
<polyline clip-path="url(#clip112)" style="stroke:#0000ff; stroke-linecap:round; stroke-linejoin:round; stroke-width:20; stroke-opacity:1; fill:none" points="
  491.878,833.433 493.074,834.444 504.126,843.789 510.768,849.405 516.384,854.153 522.484,859.311 528.108,864.066 534.137,869.165 541.123,875.071 547.331,880.32 
  552.774,884.923 558.71,889.942 564.68,894.99 571.281,900.572 577.562,905.883 584.093,911.404 589.59,916.053 596.302,921.728 602.45,926.927 608.129,931.728 
  613.881,936.592 620.327,942.042 626.169,946.982 632.857,952.637 639.05,957.873 645.155,963.035 651.083,968.047 657.159,973.186 663.817,978.815 673.489,986.992 
  675.473,988.67 
  "/>
<polyline clip-path="url(#clip112)" style="stroke:#0000ff; stroke-linecap:round; stroke-linejoin:round; stroke-width:20; stroke-opacity:1; fill:none" points="
  656.847,1194.26 657.299,1190.21 661.482,1152.82 663.996,1130.35 666.121,1111.36 668.43,1090.72 670.558,1071.69 672.84,1051.3 675.483,1027.66 677.833,1006.66 
  679.893,988.244 682.139,968.165 684.399,947.967 686.897,925.635 689.274,904.387 691.746,882.293 693.826,863.696 696.366,840.99 698.693,820.19 700.842,800.98 
  703.019,781.52 705.459,759.711 707.67,739.949 710.201,717.323 712.544,696.373 714.855,675.719 717.098,655.665 719.398,635.108 721.918,612.585 725.578,579.866 
  726.329,573.154 
  "/>
<polyline clip-path="url(#clip112)" style="stroke:#0000ff; stroke-linecap:round; stroke-linejoin:round; stroke-width:20; stroke-opacity:1; fill:none" points="
  696.707,565.804 697.264,570.718 702.42,616.155 705.518,643.46 708.137,666.547 710.983,691.625 713.606,714.745 716.419,739.533 719.677,768.251 722.573,793.773 
  725.112,816.153 727.881,840.553 730.666,865.099 733.745,892.237 736.675,918.058 739.721,944.906 742.285,967.506 745.416,995.099 748.284,1020.38 750.933,1043.72 
  753.616,1067.37 756.623,1093.87 759.348,1117.88 762.467,1145.38 765.356,1170.84 768.204,1195.94 770.969,1220.31 773.803,1245.29 776.909,1272.66 781.42,1312.42 
  782.346,1320.58 
  "/>
<polyline clip-path="url(#clip112)" style="stroke:#0000ff; stroke-linecap:round; stroke-linejoin:round; stroke-width:20; stroke-opacity:1; fill:none" points="
  737.836,950.185 738.533,953.808 744.98,987.311 748.854,1007.45 752.129,1024.47 755.688,1042.96 758.968,1060.01 762.485,1078.28 766.559,1099.46 770.18,1118.28 
  773.356,1134.78 776.818,1152.77 780.3,1170.87 784.151,1190.88 787.814,1209.92 791.623,1229.72 794.83,1246.38 798.745,1266.73 802.331,1285.37 805.643,1302.58 
  808.998,1320.01 812.758,1339.56 816.166,1357.26 820.067,1377.54 823.679,1396.31 827.24,1414.82 830.698,1432.79 834.242,1451.21 838.126,1471.39 843.767,1500.71 
  844.924,1506.72 
  "/>
<polyline clip-path="url(#clip112)" style="stroke:#0000ff; stroke-linecap:round; stroke-linejoin:round; stroke-width:20; stroke-opacity:1; fill:none" points="
  783.761,1149.25 784.513,1149.79 791.47,1154.82 795.651,1157.85 799.185,1160.41 803.025,1163.18 806.565,1165.75 810.36,1168.49 814.757,1171.67 818.665,1174.5 
  822.091,1176.98 825.827,1179.68 829.585,1182.4 833.74,1185.41 837.693,1188.27 841.804,1191.24 845.264,1193.75 849.489,1196.8 853.359,1199.6 856.933,1202.19 
  860.554,1204.81 864.611,1207.74 868.288,1210.41 872.498,1213.45 876.396,1216.27 880.239,1219.05 883.97,1221.75 887.795,1224.52 891.985,1227.55 898.073,1231.96 
  899.322,1232.86 
  "/>
<polyline clip-path="url(#clip112)" style="stroke:#0000ff; stroke-linecap:round; stroke-linejoin:round; stroke-width:20; stroke-opacity:1; fill:none" points="
  860.493,1139.78 860.842,1138.04 864.071,1121.92 866.011,1112.22 867.651,1104.03 869.433,1095.13 871.076,1086.92 872.837,1078.13 874.878,1067.94 876.692,1058.88 
  878.282,1050.93 880.016,1042.27 881.76,1033.56 883.688,1023.93 885.523,1014.77 887.43,1005.24 889.036,997.219 890.997,987.426 892.793,978.455 894.452,970.17 
  896.132,961.777 898.015,952.372 899.721,943.848 901.675,934.09 903.484,925.055 905.267,916.147 906.999,907.498 908.774,898.632 910.719,888.918 913.544,874.807 
  914.124,871.912 
  "/>
<polyline clip-path="url(#clip112)" style="stroke:#0000ff; stroke-linecap:round; stroke-linejoin:round; stroke-width:20; stroke-opacity:1; fill:none" points="
  902.531,837.254 903.078,840.568 908.131,871.205 911.168,889.616 913.736,905.183 916.525,922.093 919.096,937.683 921.853,954.396 925.047,973.76 927.885,990.969 
  930.374,1006.06 933.088,1022.51 935.818,1039.06 938.836,1057.36 941.708,1074.77 944.694,1092.88 947.207,1108.11 950.276,1126.72 953.087,1143.76 955.684,1159.5 
  958.314,1175.45 961.261,1193.32 963.932,1209.51 966.99,1228.05 969.821,1245.22 972.613,1262.14 975.323,1278.57 978.101,1295.42 981.145,1313.87 985.567,1340.68 
  986.474,1346.18 
  "/>
<polyline clip-path="url(#clip112)" style="stroke:#0000ff; stroke-linecap:round; stroke-linejoin:round; stroke-width:20; stroke-opacity:1; fill:none" points="
  931.814,1113.08 933.993,1111.68 954.138,1098.67 966.244,1090.86 976.48,1084.25 987.598,1077.08 997.849,1070.46 1008.84,1063.36 1021.57,1055.15 1032.89,1047.84 
  1042.81,1041.44 1053.63,1034.45 1064.51,1027.43 1076.54,1019.66 1087.99,1012.27 1099.89,1004.59 1109.91,998.121 1122.15,990.225 1133.35,982.991 1143.7,976.31 
  1154.19,969.542 1165.94,961.958 1176.59,955.085 1188.78,947.216 1200.06,939.93 1211.19,932.747 1222,925.772 1233.07,918.623 1245.21,910.79 1262.83,899.411 
  1266.45,897.077 
  "/>
<path clip-path="url(#clip110)" d="
M1569.98 1800.78 L2640.76 1800.78 L2640.76 47.2441 L1569.98 47.2441  Z
  " fill="#ffffff" fill-rule="evenodd" fill-opacity="1"/>
<defs>
  <clipPath id="clip113">
    <rect x="1569" y="47" width="1072" height="1755"/>
  </clipPath>
</defs>
<polyline clip-path="url(#clip113)" style="stroke:#000000; stroke-linecap:round; stroke-linejoin:round; stroke-width:2; stroke-opacity:0.1; fill:none" points="
  1725.18,1800.78 1725.18,47.2441 
  "/>
<polyline clip-path="url(#clip113)" style="stroke:#000000; stroke-linecap:round; stroke-linejoin:round; stroke-width:2; stroke-opacity:0.1; fill:none" points="
  1914.53,1800.78 1914.53,47.2441 
  "/>
<polyline clip-path="url(#clip113)" style="stroke:#000000; stroke-linecap:round; stroke-linejoin:round; stroke-width:2; stroke-opacity:0.1; fill:none" points="
  2103.87,1800.78 2103.87,47.2441 
  "/>
<polyline clip-path="url(#clip113)" style="stroke:#000000; stroke-linecap:round; stroke-linejoin:round; stroke-width:2; stroke-opacity:0.1; fill:none" points="
  2293.22,1800.78 2293.22,47.2441 
  "/>
<polyline clip-path="url(#clip113)" style="stroke:#000000; stroke-linecap:round; stroke-linejoin:round; stroke-width:2; stroke-opacity:0.1; fill:none" points="
  2482.56,1800.78 2482.56,47.2441 
  "/>
<polyline clip-path="url(#clip110)" style="stroke:#000000; stroke-linecap:round; stroke-linejoin:round; stroke-width:4; stroke-opacity:1; fill:none" points="
  1569.98,1800.78 2640.76,1800.78 
  "/>
<polyline clip-path="url(#clip110)" style="stroke:#000000; stroke-linecap:round; stroke-linejoin:round; stroke-width:4; stroke-opacity:1; fill:none" points="
  1725.18,1800.78 1725.18,1781.88 
  "/>
<polyline clip-path="url(#clip110)" style="stroke:#000000; stroke-linecap:round; stroke-linejoin:round; stroke-width:4; stroke-opacity:1; fill:none" points="
  1914.53,1800.78 1914.53,1781.88 
  "/>
<polyline clip-path="url(#clip110)" style="stroke:#000000; stroke-linecap:round; stroke-linejoin:round; stroke-width:4; stroke-opacity:1; fill:none" points="
  2103.87,1800.78 2103.87,1781.88 
  "/>
<polyline clip-path="url(#clip110)" style="stroke:#000000; stroke-linecap:round; stroke-linejoin:round; stroke-width:4; stroke-opacity:1; fill:none" points="
  2293.22,1800.78 2293.22,1781.88 
  "/>
<polyline clip-path="url(#clip110)" style="stroke:#000000; stroke-linecap:round; stroke-linejoin:round; stroke-width:4; stroke-opacity:1; fill:none" points="
  2482.56,1800.78 2482.56,1781.88 
  "/>
<path clip-path="url(#clip110)" d="M1677.25 1861.55 L1684.89 1861.55 L1684.89 1835.18 L1676.58 1836.85 L1676.58 1832.59 L1684.84 1830.92 L1689.52 1830.92 L1689.52 1861.55 L1697.16 1861.55 L1697.16 1865.48 L1677.25 1865.48 L1677.25 1861.55 Z" fill="#000000" fill-rule="evenodd" fill-opacity="1" /><path clip-path="url(#clip110)" d="M1706.6 1859.6 L1711.49 1859.6 L1711.49 1865.48 L1706.6 1865.48 L1706.6 1859.6 Z" fill="#000000" fill-rule="evenodd" fill-opacity="1" /><path clip-path="url(#clip110)" d="M1731.67 1834 Q1728.06 1834 1726.23 1837.57 Q1724.43 1841.11 1724.43 1848.24 Q1724.43 1855.34 1726.23 1858.91 Q1728.06 1862.45 1731.67 1862.45 Q1735.31 1862.45 1737.11 1858.91 Q1738.94 1855.34 1738.94 1848.24 Q1738.94 1841.11 1737.11 1837.57 Q1735.31 1834 1731.67 1834 M1731.67 1830.3 Q1737.48 1830.3 1740.54 1834.9 Q1743.62 1839.49 1743.62 1848.24 Q1743.62 1856.96 1740.54 1861.57 Q1737.48 1866.15 1731.67 1866.15 Q1725.86 1866.15 1722.78 1861.57 Q1719.73 1856.96 1719.73 1848.24 Q1719.73 1839.49 1722.78 1834.9 Q1725.86 1830.3 1731.67 1830.3 Z" fill="#000000" fill-rule="evenodd" fill-opacity="1" /><path clip-path="url(#clip110)" d="M1761.83 1834 Q1758.22 1834 1756.39 1837.57 Q1754.59 1841.11 1754.59 1848.24 Q1754.59 1855.34 1756.39 1858.91 Q1758.22 1862.45 1761.83 1862.45 Q1765.47 1862.45 1767.27 1858.91 Q1769.1 1855.34 1769.1 1848.24 Q1769.1 1841.11 1767.27 1837.57 Q1765.47 1834 1761.83 1834 M1761.83 1830.3 Q1767.64 1830.3 1770.7 1834.9 Q1773.78 1839.49 1773.78 1848.24 Q1773.78 1856.96 1770.7 1861.57 Q1767.64 1866.15 1761.83 1866.15 Q1756.02 1866.15 1752.95 1861.57 Q1749.89 1856.96 1749.89 1848.24 Q1749.89 1839.49 1752.95 1834.9 Q1756.02 1830.3 1761.83 1830.3 Z" fill="#000000" fill-rule="evenodd" fill-opacity="1" /><path clip-path="url(#clip110)" d="M1867.09 1861.55 L1874.73 1861.55 L1874.73 1835.18 L1866.42 1836.85 L1866.42 1832.59 L1874.69 1830.92 L1879.36 1830.92 L1879.36 1861.55 L1887 1861.55 L1887 1865.48 L1867.09 1865.48 L1867.09 1861.55 Z" fill="#000000" fill-rule="evenodd" fill-opacity="1" /><path clip-path="url(#clip110)" d="M1896.45 1859.6 L1901.33 1859.6 L1901.33 1865.48 L1896.45 1865.48 L1896.45 1859.6 Z" fill="#000000" fill-rule="evenodd" fill-opacity="1" /><path clip-path="url(#clip110)" d="M1915.54 1861.55 L1931.86 1861.55 L1931.86 1865.48 L1909.92 1865.48 L1909.92 1861.55 Q1912.58 1858.79 1917.16 1854.16 Q1921.77 1849.51 1922.95 1848.17 Q1925.2 1845.65 1926.08 1843.91 Q1926.98 1842.15 1926.98 1840.46 Q1926.98 1837.71 1925.03 1835.97 Q1923.11 1834.23 1920.01 1834.23 Q1917.81 1834.23 1915.36 1835 Q1912.93 1835.76 1910.15 1837.31 L1910.15 1832.59 Q1912.97 1831.46 1915.43 1830.88 Q1917.88 1830.3 1919.92 1830.3 Q1925.29 1830.3 1928.48 1832.98 Q1931.68 1835.67 1931.68 1840.16 Q1931.68 1842.29 1930.87 1844.21 Q1930.08 1846.11 1927.97 1848.7 Q1927.4 1849.37 1924.29 1852.59 Q1921.19 1855.78 1915.54 1861.55 Z" fill="#000000" fill-rule="evenodd" fill-opacity="1" /><path clip-path="url(#clip110)" d="M1941.72 1830.92 L1960.08 1830.92 L1960.08 1834.86 L1946.01 1834.86 L1946.01 1843.33 Q1947.03 1842.98 1948.04 1842.82 Q1949.06 1842.64 1950.08 1842.64 Q1955.87 1842.64 1959.25 1845.81 Q1962.63 1848.98 1962.63 1854.4 Q1962.63 1859.97 1959.15 1863.08 Q1955.68 1866.15 1949.36 1866.15 Q1947.19 1866.15 1944.92 1865.78 Q1942.67 1865.41 1940.27 1864.67 L1940.27 1859.97 Q1942.35 1861.11 1944.57 1861.66 Q1946.79 1862.22 1949.27 1862.22 Q1953.27 1862.22 1955.61 1860.11 Q1957.95 1858.01 1957.95 1854.4 Q1957.95 1850.78 1955.61 1848.68 Q1953.27 1846.57 1949.27 1846.57 Q1947.4 1846.57 1945.52 1846.99 Q1943.67 1847.4 1941.72 1848.28 L1941.72 1830.92 Z" fill="#000000" fill-rule="evenodd" fill-opacity="1" /><path clip-path="url(#clip110)" d="M2055.94 1861.55 L2063.58 1861.55 L2063.58 1835.18 L2055.27 1836.85 L2055.27 1832.59 L2063.54 1830.92 L2068.21 1830.92 L2068.21 1861.55 L2075.85 1861.55 L2075.85 1865.48 L2055.94 1865.48 L2055.94 1861.55 Z" fill="#000000" fill-rule="evenodd" fill-opacity="1" /><path clip-path="url(#clip110)" d="M2085.3 1859.6 L2090.18 1859.6 L2090.18 1865.48 L2085.3 1865.48 L2085.3 1859.6 Z" fill="#000000" fill-rule="evenodd" fill-opacity="1" /><path clip-path="url(#clip110)" d="M2100.41 1830.92 L2118.77 1830.92 L2118.77 1834.86 L2104.69 1834.86 L2104.69 1843.33 Q2105.71 1842.98 2106.73 1842.82 Q2107.75 1842.64 2108.77 1842.64 Q2114.55 1842.64 2117.93 1845.81 Q2121.31 1848.98 2121.31 1854.4 Q2121.31 1859.97 2117.84 1863.08 Q2114.37 1866.15 2108.05 1866.15 Q2105.87 1866.15 2103.61 1865.78 Q2101.36 1865.41 2098.95 1864.67 L2098.95 1859.97 Q2101.04 1861.11 2103.26 1861.66 Q2105.48 1862.22 2107.96 1862.22 Q2111.96 1862.22 2114.3 1860.11 Q2116.64 1858.01 2116.64 1854.4 Q2116.64 1850.78 2114.3 1848.68 Q2111.96 1846.57 2107.96 1846.57 Q2106.08 1846.57 2104.21 1846.99 Q2102.36 1847.4 2100.41 1848.28 L2100.41 1830.92 Z" fill="#000000" fill-rule="evenodd" fill-opacity="1" /><path clip-path="url(#clip110)" d="M2140.53 1834 Q2136.92 1834 2135.09 1837.57 Q2133.28 1841.11 2133.28 1848.24 Q2133.28 1855.34 2135.09 1858.91 Q2136.92 1862.45 2140.53 1862.45 Q2144.16 1862.45 2145.97 1858.91 Q2147.79 1855.34 2147.79 1848.24 Q2147.79 1841.11 2145.97 1837.57 Q2144.16 1834 2140.53 1834 M2140.53 1830.3 Q2146.34 1830.3 2149.39 1834.9 Q2152.47 1839.49 2152.47 1848.24 Q2152.47 1856.96 2149.39 1861.57 Q2146.34 1866.15 2140.53 1866.15 Q2134.72 1866.15 2131.64 1861.57 Q2128.58 1856.96 2128.58 1848.24 Q2128.58 1839.49 2131.64 1834.9 Q2134.72 1830.3 2140.53 1830.3 Z" fill="#000000" fill-rule="evenodd" fill-opacity="1" /><path clip-path="url(#clip110)" d="M2245.79 1861.55 L2253.43 1861.55 L2253.43 1835.18 L2245.12 1836.85 L2245.12 1832.59 L2253.38 1830.92 L2258.06 1830.92 L2258.06 1861.55 L2265.69 1861.55 L2265.69 1865.48 L2245.79 1865.48 L2245.79 1861.55 Z" fill="#000000" fill-rule="evenodd" fill-opacity="1" /><path clip-path="url(#clip110)" d="M2275.14 1859.6 L2280.02 1859.6 L2280.02 1865.48 L2275.14 1865.48 L2275.14 1859.6 Z" fill="#000000" fill-rule="evenodd" fill-opacity="1" /><path clip-path="url(#clip110)" d="M2289.03 1830.92 L2311.25 1830.92 L2311.25 1832.91 L2298.7 1865.48 L2293.82 1865.48 L2305.62 1834.86 L2289.03 1834.86 L2289.03 1830.92 Z" fill="#000000" fill-rule="evenodd" fill-opacity="1" /><path clip-path="url(#clip110)" d="M2320.42 1830.92 L2338.77 1830.92 L2338.77 1834.86 L2324.7 1834.86 L2324.7 1843.33 Q2325.72 1842.98 2326.74 1842.82 Q2327.75 1842.64 2328.77 1842.64 Q2334.56 1842.64 2337.94 1845.81 Q2341.32 1848.98 2341.32 1854.4 Q2341.32 1859.97 2337.85 1863.08 Q2334.37 1866.15 2328.06 1866.15 Q2325.88 1866.15 2323.61 1865.78 Q2321.37 1865.41 2318.96 1864.67 L2318.96 1859.97 Q2321.04 1861.11 2323.26 1861.66 Q2325.49 1862.22 2327.96 1862.22 Q2331.97 1862.22 2334.31 1860.11 Q2336.64 1858.01 2336.64 1854.4 Q2336.64 1850.78 2334.31 1848.68 Q2331.97 1846.57 2327.96 1846.57 Q2326.09 1846.57 2324.21 1846.99 Q2322.36 1847.4 2320.42 1848.28 L2320.42 1830.92 Z" fill="#000000" fill-rule="evenodd" fill-opacity="1" /><path clip-path="url(#clip110)" d="M2438.72 1861.55 L2455.04 1861.55 L2455.04 1865.48 L2433.1 1865.48 L2433.1 1861.55 Q2435.76 1858.79 2440.34 1854.16 Q2444.95 1849.51 2446.13 1848.17 Q2448.37 1845.65 2449.25 1843.91 Q2450.16 1842.15 2450.16 1840.46 Q2450.16 1837.71 2448.21 1835.97 Q2446.29 1834.23 2443.19 1834.23 Q2440.99 1834.23 2438.54 1835 Q2436.11 1835.76 2433.33 1837.31 L2433.33 1832.59 Q2436.15 1831.46 2438.61 1830.88 Q2441.06 1830.3 2443.1 1830.3 Q2448.47 1830.3 2451.66 1832.98 Q2454.86 1835.67 2454.86 1840.16 Q2454.86 1842.29 2454.05 1844.21 Q2453.26 1846.11 2451.15 1848.7 Q2450.57 1849.37 2447.47 1852.59 Q2444.37 1855.78 2438.72 1861.55 Z" fill="#000000" fill-rule="evenodd" fill-opacity="1" /><path clip-path="url(#clip110)" d="M2464.86 1859.6 L2469.74 1859.6 L2469.74 1865.48 L2464.86 1865.48 L2464.86 1859.6 Z" fill="#000000" fill-rule="evenodd" fill-opacity="1" /><path clip-path="url(#clip110)" d="M2489.92 1834 Q2486.31 1834 2484.48 1837.57 Q2482.68 1841.11 2482.68 1848.24 Q2482.68 1855.34 2484.48 1858.91 Q2486.31 1862.45 2489.92 1862.45 Q2493.56 1862.45 2495.36 1858.91 Q2497.19 1855.34 2497.19 1848.24 Q2497.19 1841.11 2495.36 1837.57 Q2493.56 1834 2489.92 1834 M2489.92 1830.3 Q2495.73 1830.3 2498.79 1834.9 Q2501.87 1839.49 2501.87 1848.24 Q2501.87 1856.96 2498.79 1861.57 Q2495.73 1866.15 2489.92 1866.15 Q2484.11 1866.15 2481.04 1861.57 Q2477.98 1856.96 2477.98 1848.24 Q2477.98 1839.49 2481.04 1834.9 Q2484.11 1830.3 2489.92 1830.3 Z" fill="#000000" fill-rule="evenodd" fill-opacity="1" /><path clip-path="url(#clip110)" d="M2520.09 1834 Q2516.48 1834 2514.65 1837.57 Q2512.84 1841.11 2512.84 1848.24 Q2512.84 1855.34 2514.65 1858.91 Q2516.48 1862.45 2520.09 1862.45 Q2523.72 1862.45 2525.53 1858.91 Q2527.36 1855.34 2527.36 1848.24 Q2527.36 1841.11 2525.53 1837.57 Q2523.72 1834 2520.09 1834 M2520.09 1830.3 Q2525.9 1830.3 2528.95 1834.9 Q2532.03 1839.49 2532.03 1848.24 Q2532.03 1856.96 2528.95 1861.57 Q2525.9 1866.15 2520.09 1866.15 Q2514.28 1866.15 2511.2 1861.57 Q2508.14 1856.96 2508.14 1848.24 Q2508.14 1839.49 2511.2 1834.9 Q2514.28 1830.3 2520.09 1830.3 Z" fill="#000000" fill-rule="evenodd" fill-opacity="1" /><polyline clip-path="url(#clip113)" style="stroke:#000000; stroke-linecap:round; stroke-linejoin:round; stroke-width:2; stroke-opacity:0.1; fill:none" points="
  1569.98,1766.76 2640.76,1766.76 
  "/>
<polyline clip-path="url(#clip113)" style="stroke:#000000; stroke-linecap:round; stroke-linejoin:round; stroke-width:2; stroke-opacity:0.1; fill:none" points="
  1569.98,1406.47 2640.76,1406.47 
  "/>
<polyline clip-path="url(#clip113)" style="stroke:#000000; stroke-linecap:round; stroke-linejoin:round; stroke-width:2; stroke-opacity:0.1; fill:none" points="
  1569.98,1046.18 2640.76,1046.18 
  "/>
<polyline clip-path="url(#clip113)" style="stroke:#000000; stroke-linecap:round; stroke-linejoin:round; stroke-width:2; stroke-opacity:0.1; fill:none" points="
  1569.98,685.888 2640.76,685.888 
  "/>
<polyline clip-path="url(#clip113)" style="stroke:#000000; stroke-linecap:round; stroke-linejoin:round; stroke-width:2; stroke-opacity:0.1; fill:none" points="
  1569.98,325.597 2640.76,325.597 
  "/>
<polyline clip-path="url(#clip110)" style="stroke:#000000; stroke-linecap:round; stroke-linejoin:round; stroke-width:4; stroke-opacity:1; fill:none" points="
  1569.98,1800.78 1569.98,47.2441 
  "/>
<polyline clip-path="url(#clip110)" style="stroke:#000000; stroke-linecap:round; stroke-linejoin:round; stroke-width:4; stroke-opacity:1; fill:none" points="
  1569.98,1766.76 1588.88,1766.76 
  "/>
<polyline clip-path="url(#clip110)" style="stroke:#000000; stroke-linecap:round; stroke-linejoin:round; stroke-width:4; stroke-opacity:1; fill:none" points="
  1569.98,1406.47 1588.88,1406.47 
  "/>
<polyline clip-path="url(#clip110)" style="stroke:#000000; stroke-linecap:round; stroke-linejoin:round; stroke-width:4; stroke-opacity:1; fill:none" points="
  1569.98,1046.18 1588.88,1046.18 
  "/>
<polyline clip-path="url(#clip110)" style="stroke:#000000; stroke-linecap:round; stroke-linejoin:round; stroke-width:4; stroke-opacity:1; fill:none" points="
  1569.98,685.888 1588.88,685.888 
  "/>
<polyline clip-path="url(#clip110)" style="stroke:#000000; stroke-linecap:round; stroke-linejoin:round; stroke-width:4; stroke-opacity:1; fill:none" points="
  1569.98,325.597 1588.88,325.597 
  "/>
<path clip-path="url(#clip110)" d="M1393.55 1767.21 L1423.23 1767.21 L1423.23 1771.15 L1393.55 1771.15 L1393.55 1767.21 Z" fill="#000000" fill-rule="evenodd" fill-opacity="1" /><path clip-path="url(#clip110)" d="M1443.32 1752.56 Q1439.71 1752.56 1437.88 1756.12 Q1436.08 1759.67 1436.08 1766.8 Q1436.08 1773.9 1437.88 1777.47 Q1439.71 1781.01 1443.32 1781.01 Q1446.95 1781.01 1448.76 1777.47 Q1450.59 1773.9 1450.59 1766.8 Q1450.59 1759.67 1448.76 1756.12 Q1446.95 1752.56 1443.32 1752.56 M1443.32 1748.86 Q1449.13 1748.86 1452.19 1753.46 Q1455.26 1758.05 1455.26 1766.8 Q1455.26 1775.52 1452.19 1780.13 Q1449.13 1784.71 1443.32 1784.71 Q1437.51 1784.71 1434.43 1780.13 Q1431.38 1775.52 1431.38 1766.8 Q1431.38 1758.05 1434.43 1753.46 Q1437.51 1748.86 1443.32 1748.86 Z" fill="#000000" fill-rule="evenodd" fill-opacity="1" /><path clip-path="url(#clip110)" d="M1463.48 1778.16 L1468.37 1778.16 L1468.37 1784.04 L1463.48 1784.04 L1463.48 1778.16 Z" fill="#000000" fill-rule="evenodd" fill-opacity="1" /><path clip-path="url(#clip110)" d="M1482.58 1780.11 L1498.9 1780.11 L1498.9 1784.04 L1476.95 1784.04 L1476.95 1780.11 Q1479.62 1777.35 1484.2 1772.72 Q1488.81 1768.07 1489.99 1766.73 Q1492.23 1764.2 1493.11 1762.47 Q1494.01 1760.71 1494.01 1759.02 Q1494.01 1756.26 1492.07 1754.53 Q1490.15 1752.79 1487.05 1752.79 Q1484.85 1752.79 1482.39 1753.55 Q1479.96 1754.32 1477.19 1755.87 L1477.19 1751.15 Q1480.01 1750.01 1482.46 1749.43 Q1484.92 1748.86 1486.95 1748.86 Q1492.32 1748.86 1495.52 1751.54 Q1498.71 1754.23 1498.71 1758.72 Q1498.71 1760.85 1497.9 1762.77 Q1497.12 1764.67 1495.01 1767.26 Q1494.43 1767.93 1491.33 1771.15 Q1488.23 1774.34 1482.58 1780.11 Z" fill="#000000" fill-rule="evenodd" fill-opacity="1" /><path clip-path="url(#clip110)" d="M1508.76 1749.48 L1527.12 1749.48 L1527.12 1753.42 L1513.04 1753.42 L1513.04 1761.89 Q1514.06 1761.54 1515.08 1761.38 Q1516.1 1761.19 1517.12 1761.19 Q1522.9 1761.19 1526.28 1764.36 Q1529.66 1767.54 1529.66 1772.95 Q1529.66 1778.53 1526.19 1781.63 Q1522.72 1784.71 1516.4 1784.71 Q1514.22 1784.71 1511.95 1784.34 Q1509.71 1783.97 1507.3 1783.23 L1507.3 1778.53 Q1509.38 1779.67 1511.61 1780.22 Q1513.83 1780.78 1516.31 1780.78 Q1520.31 1780.78 1522.65 1778.67 Q1524.99 1776.56 1524.99 1772.95 Q1524.99 1769.34 1522.65 1767.24 Q1520.31 1765.13 1516.31 1765.13 Q1514.43 1765.13 1512.56 1765.55 Q1510.7 1765.96 1508.76 1766.84 L1508.76 1749.48 Z" fill="#000000" fill-rule="evenodd" fill-opacity="1" /><path clip-path="url(#clip110)" d="M1442.33 1392.27 Q1438.71 1392.27 1436.89 1395.83 Q1435.08 1399.37 1435.08 1406.5 Q1435.08 1413.61 1436.89 1417.18 Q1438.71 1420.72 1442.33 1420.72 Q1445.96 1420.72 1447.76 1417.18 Q1449.59 1413.61 1449.59 1406.5 Q1449.59 1399.37 1447.76 1395.83 Q1445.96 1392.27 1442.33 1392.27 M1442.33 1388.56 Q1448.14 1388.56 1451.19 1393.17 Q1454.27 1397.75 1454.27 1406.5 Q1454.27 1415.23 1451.19 1419.84 Q1448.14 1424.42 1442.33 1424.42 Q1436.51 1424.42 1433.44 1419.84 Q1430.38 1415.23 1430.38 1406.5 Q1430.38 1397.75 1433.44 1393.17 Q1436.51 1388.56 1442.33 1388.56 Z" fill="#000000" fill-rule="evenodd" fill-opacity="1" /><path clip-path="url(#clip110)" d="M1462.49 1417.87 L1467.37 1417.87 L1467.37 1423.75 L1462.49 1423.75 L1462.49 1417.87 Z" fill="#000000" fill-rule="evenodd" fill-opacity="1" /><path clip-path="url(#clip110)" d="M1487.56 1392.27 Q1483.95 1392.27 1482.12 1395.83 Q1480.31 1399.37 1480.31 1406.5 Q1480.31 1413.61 1482.12 1417.18 Q1483.95 1420.72 1487.56 1420.72 Q1491.19 1420.72 1493 1417.18 Q1494.82 1413.61 1494.82 1406.5 Q1494.82 1399.37 1493 1395.83 Q1491.19 1392.27 1487.56 1392.27 M1487.56 1388.56 Q1493.37 1388.56 1496.42 1393.17 Q1499.5 1397.75 1499.5 1406.5 Q1499.5 1415.23 1496.42 1419.84 Q1493.37 1424.42 1487.56 1424.42 Q1481.75 1424.42 1478.67 1419.84 Q1475.61 1415.23 1475.61 1406.5 Q1475.61 1397.75 1478.67 1393.17 Q1481.75 1388.56 1487.56 1388.56 Z" fill="#000000" fill-rule="evenodd" fill-opacity="1" /><path clip-path="url(#clip110)" d="M1517.72 1392.27 Q1514.11 1392.27 1512.28 1395.83 Q1510.47 1399.37 1510.47 1406.5 Q1510.47 1413.61 1512.28 1417.18 Q1514.11 1420.72 1517.72 1420.72 Q1521.35 1420.72 1523.16 1417.18 Q1524.99 1413.61 1524.99 1406.5 Q1524.99 1399.37 1523.16 1395.83 Q1521.35 1392.27 1517.72 1392.27 M1517.72 1388.56 Q1523.53 1388.56 1526.58 1393.17 Q1529.66 1397.75 1529.66 1406.5 Q1529.66 1415.23 1526.58 1419.84 Q1523.53 1424.42 1517.72 1424.42 Q1511.91 1424.42 1508.83 1419.84 Q1505.77 1415.23 1505.77 1406.5 Q1505.77 1397.75 1508.83 1393.17 Q1511.91 1388.56 1517.72 1388.56 Z" fill="#000000" fill-rule="evenodd" fill-opacity="1" /><path clip-path="url(#clip110)" d="M1443.32 1031.98 Q1439.71 1031.98 1437.88 1035.54 Q1436.08 1039.08 1436.08 1046.21 Q1436.08 1053.32 1437.88 1056.88 Q1439.71 1060.43 1443.32 1060.43 Q1446.95 1060.43 1448.76 1056.88 Q1450.59 1053.32 1450.59 1046.21 Q1450.59 1039.08 1448.76 1035.54 Q1446.95 1031.98 1443.32 1031.98 M1443.32 1028.27 Q1449.13 1028.27 1452.19 1032.88 Q1455.26 1037.46 1455.26 1046.21 Q1455.26 1054.94 1452.19 1059.55 Q1449.13 1064.13 1443.32 1064.13 Q1437.51 1064.13 1434.43 1059.55 Q1431.38 1054.94 1431.38 1046.21 Q1431.38 1037.46 1434.43 1032.88 Q1437.51 1028.27 1443.32 1028.27 Z" fill="#000000" fill-rule="evenodd" fill-opacity="1" /><path clip-path="url(#clip110)" d="M1463.48 1057.58 L1468.37 1057.58 L1468.37 1063.46 L1463.48 1063.46 L1463.48 1057.58 Z" fill="#000000" fill-rule="evenodd" fill-opacity="1" /><path clip-path="url(#clip110)" d="M1482.58 1059.52 L1498.9 1059.52 L1498.9 1063.46 L1476.95 1063.46 L1476.95 1059.52 Q1479.62 1056.77 1484.2 1052.14 Q1488.81 1047.49 1489.99 1046.14 Q1492.23 1043.62 1493.11 1041.88 Q1494.01 1040.13 1494.01 1038.44 Q1494.01 1035.68 1492.07 1033.94 Q1490.15 1032.21 1487.05 1032.21 Q1484.85 1032.21 1482.39 1032.97 Q1479.96 1033.74 1477.19 1035.29 L1477.19 1030.57 Q1480.01 1029.43 1482.46 1028.85 Q1484.92 1028.27 1486.95 1028.27 Q1492.32 1028.27 1495.52 1030.96 Q1498.71 1033.64 1498.71 1038.13 Q1498.71 1040.26 1497.9 1042.19 Q1497.12 1044.08 1495.01 1046.68 Q1494.43 1047.35 1491.33 1050.57 Q1488.23 1053.76 1482.58 1059.52 Z" fill="#000000" fill-rule="evenodd" fill-opacity="1" /><path clip-path="url(#clip110)" d="M1508.76 1028.9 L1527.12 1028.9 L1527.12 1032.83 L1513.04 1032.83 L1513.04 1041.31 Q1514.06 1040.96 1515.08 1040.8 Q1516.1 1040.61 1517.12 1040.61 Q1522.9 1040.61 1526.28 1043.78 Q1529.66 1046.95 1529.66 1052.37 Q1529.66 1057.95 1526.19 1061.05 Q1522.72 1064.13 1516.4 1064.13 Q1514.22 1064.13 1511.95 1063.76 Q1509.71 1063.39 1507.3 1062.65 L1507.3 1057.95 Q1509.38 1059.08 1511.61 1059.64 Q1513.83 1060.19 1516.31 1060.19 Q1520.31 1060.19 1522.65 1058.09 Q1524.99 1055.98 1524.99 1052.37 Q1524.99 1048.76 1522.65 1046.65 Q1520.31 1044.55 1516.31 1044.55 Q1514.43 1044.55 1512.56 1044.96 Q1510.7 1045.38 1508.76 1046.26 L1508.76 1028.9 Z" fill="#000000" fill-rule="evenodd" fill-opacity="1" /><path clip-path="url(#clip110)" d="M1442.33 671.686 Q1438.71 671.686 1436.89 675.251 Q1435.08 678.793 1435.08 685.922 Q1435.08 693.029 1436.89 696.594 Q1438.71 700.135 1442.33 700.135 Q1445.96 700.135 1447.76 696.594 Q1449.59 693.029 1449.59 685.922 Q1449.59 678.793 1447.76 675.251 Q1445.96 671.686 1442.33 671.686 M1442.33 667.983 Q1448.14 667.983 1451.19 672.589 Q1454.27 677.172 1454.27 685.922 Q1454.27 694.649 1451.19 699.256 Q1448.14 703.839 1442.33 703.839 Q1436.51 703.839 1433.44 699.256 Q1430.38 694.649 1430.38 685.922 Q1430.38 677.172 1433.44 672.589 Q1436.51 667.983 1442.33 667.983 Z" fill="#000000" fill-rule="evenodd" fill-opacity="1" /><path clip-path="url(#clip110)" d="M1462.49 697.288 L1467.37 697.288 L1467.37 703.168 L1462.49 703.168 L1462.49 697.288 Z" fill="#000000" fill-rule="evenodd" fill-opacity="1" /><path clip-path="url(#clip110)" d="M1477.6 668.608 L1495.96 668.608 L1495.96 672.543 L1481.88 672.543 L1481.88 681.015 Q1482.9 680.668 1483.92 680.506 Q1484.94 680.321 1485.96 680.321 Q1491.75 680.321 1495.13 683.492 Q1498.51 686.663 1498.51 692.08 Q1498.51 697.658 1495.03 700.76 Q1491.56 703.839 1485.24 703.839 Q1483.07 703.839 1480.8 703.469 Q1478.55 703.098 1476.14 702.358 L1476.14 697.658 Q1478.23 698.793 1480.45 699.348 Q1482.67 699.904 1485.15 699.904 Q1489.15 699.904 1491.49 697.797 Q1493.83 695.691 1493.83 692.08 Q1493.83 688.469 1491.49 686.362 Q1489.15 684.256 1485.15 684.256 Q1483.27 684.256 1481.4 684.672 Q1479.55 685.089 1477.6 685.969 L1477.6 668.608 Z" fill="#000000" fill-rule="evenodd" fill-opacity="1" /><path clip-path="url(#clip110)" d="M1517.72 671.686 Q1514.11 671.686 1512.28 675.251 Q1510.47 678.793 1510.47 685.922 Q1510.47 693.029 1512.28 696.594 Q1514.11 700.135 1517.72 700.135 Q1521.35 700.135 1523.16 696.594 Q1524.99 693.029 1524.99 685.922 Q1524.99 678.793 1523.16 675.251 Q1521.35 671.686 1517.72 671.686 M1517.72 667.983 Q1523.53 667.983 1526.58 672.589 Q1529.66 677.172 1529.66 685.922 Q1529.66 694.649 1526.58 699.256 Q1523.53 703.839 1517.72 703.839 Q1511.91 703.839 1508.83 699.256 Q1505.77 694.649 1505.77 685.922 Q1505.77 677.172 1508.83 672.589 Q1511.91 667.983 1517.72 667.983 Z" fill="#000000" fill-rule="evenodd" fill-opacity="1" /><path clip-path="url(#clip110)" d="M1443.32 311.395 Q1439.71 311.395 1437.88 314.96 Q1436.08 318.502 1436.08 325.631 Q1436.08 332.738 1437.88 336.303 Q1439.71 339.844 1443.32 339.844 Q1446.95 339.844 1448.76 336.303 Q1450.59 332.738 1450.59 325.631 Q1450.59 318.502 1448.76 314.96 Q1446.95 311.395 1443.32 311.395 M1443.32 307.692 Q1449.13 307.692 1452.19 312.298 Q1455.26 316.881 1455.26 325.631 Q1455.26 334.358 1452.19 338.965 Q1449.13 343.548 1443.32 343.548 Q1437.51 343.548 1434.43 338.965 Q1431.38 334.358 1431.38 325.631 Q1431.38 316.881 1434.43 312.298 Q1437.51 307.692 1443.32 307.692 Z" fill="#000000" fill-rule="evenodd" fill-opacity="1" /><path clip-path="url(#clip110)" d="M1463.48 336.997 L1468.37 336.997 L1468.37 342.877 L1463.48 342.877 L1463.48 336.997 Z" fill="#000000" fill-rule="evenodd" fill-opacity="1" /><path clip-path="url(#clip110)" d="M1477.37 308.317 L1499.59 308.317 L1499.59 310.307 L1487.05 342.877 L1482.16 342.877 L1493.97 312.252 L1477.37 312.252 L1477.37 308.317 Z" fill="#000000" fill-rule="evenodd" fill-opacity="1" /><path clip-path="url(#clip110)" d="M1508.76 308.317 L1527.12 308.317 L1527.12 312.252 L1513.04 312.252 L1513.04 320.724 Q1514.06 320.377 1515.08 320.215 Q1516.1 320.03 1517.12 320.03 Q1522.9 320.03 1526.28 323.201 Q1529.66 326.372 1529.66 331.789 Q1529.66 337.367 1526.19 340.469 Q1522.72 343.548 1516.4 343.548 Q1514.22 343.548 1511.95 343.178 Q1509.71 342.807 1507.3 342.067 L1507.3 337.367 Q1509.38 338.502 1511.61 339.057 Q1513.83 339.613 1516.31 339.613 Q1520.31 339.613 1522.65 337.506 Q1524.99 335.4 1524.99 331.789 Q1524.99 328.178 1522.65 326.071 Q1520.31 323.965 1516.31 323.965 Q1514.43 323.965 1512.56 324.381 Q1510.7 324.798 1508.76 325.678 L1508.76 308.317 Z" fill="#000000" fill-rule="evenodd" fill-opacity="1" /><circle clip-path="url(#clip113)" cx="1600.29" cy="915.928" r="14.4" fill="#009af9" fill-rule="evenodd" fill-opacity="1" stroke="#000000" stroke-opacity="1" stroke-width="3.84"/>
<circle clip-path="url(#clip113)" cx="1729.37" cy="749.092" r="14.4" fill="#009af9" fill-rule="evenodd" fill-opacity="1" stroke="#000000" stroke-opacity="1" stroke-width="3.84"/>
<circle clip-path="url(#clip113)" cx="1742.74" cy="1723.55" r="14.4" fill="#009af9" fill-rule="evenodd" fill-opacity="1" stroke="#000000" stroke-opacity="1" stroke-width="3.84"/>
<circle clip-path="url(#clip113)" cx="1824.29" cy="1167.99" r="14.4" fill="#009af9" fill-rule="evenodd" fill-opacity="1" stroke="#000000" stroke-opacity="1" stroke-width="3.84"/>
<circle clip-path="url(#clip113)" cx="1835.78" cy="862.52" r="14.4" fill="#009af9" fill-rule="evenodd" fill-opacity="1" stroke="#000000" stroke-opacity="1" stroke-width="3.84"/>
<circle clip-path="url(#clip113)" cx="1835.88" cy="1070.87" r="14.4" fill="#009af9" fill-rule="evenodd" fill-opacity="1" stroke="#000000" stroke-opacity="1" stroke-width="3.84"/>
<circle clip-path="url(#clip113)" cx="1914.86" cy="755.604" r="14.4" fill="#009af9" fill-rule="evenodd" fill-opacity="1" stroke="#000000" stroke-opacity="1" stroke-width="3.84"/>
<circle clip-path="url(#clip113)" cx="1943.26" cy="673.194" r="14.4" fill="#009af9" fill-rule="evenodd" fill-opacity="1" stroke="#000000" stroke-opacity="1" stroke-width="3.84"/>
<circle clip-path="url(#clip113)" cx="1970.15" cy="570.886" r="14.4" fill="#009af9" fill-rule="evenodd" fill-opacity="1" stroke="#000000" stroke-opacity="1" stroke-width="3.84"/>
<circle clip-path="url(#clip113)" cx="1999.24" cy="708.996" r="14.4" fill="#009af9" fill-rule="evenodd" fill-opacity="1" stroke="#000000" stroke-opacity="1" stroke-width="3.84"/>
<circle clip-path="url(#clip113)" cx="2000.85" cy="1406.86" r="14.4" fill="#009af9" fill-rule="evenodd" fill-opacity="1" stroke="#000000" stroke-opacity="1" stroke-width="3.84"/>
<circle clip-path="url(#clip113)" cx="2008.95" cy="1613.92" r="14.4" fill="#009af9" fill-rule="evenodd" fill-opacity="1" stroke="#000000" stroke-opacity="1" stroke-width="3.84"/>
<circle clip-path="url(#clip113)" cx="2009.8" cy="942.079" r="14.4" fill="#009af9" fill-rule="evenodd" fill-opacity="1" stroke="#000000" stroke-opacity="1" stroke-width="3.84"/>
<circle clip-path="url(#clip113)" cx="2015.73" cy="1024.58" r="14.4" fill="#009af9" fill-rule="evenodd" fill-opacity="1" stroke="#000000" stroke-opacity="1" stroke-width="3.84"/>
<circle clip-path="url(#clip113)" cx="2019.47" cy="716.768" r="14.4" fill="#009af9" fill-rule="evenodd" fill-opacity="1" stroke="#000000" stroke-opacity="1" stroke-width="3.84"/>
<circle clip-path="url(#clip113)" cx="2040.71" cy="369.74" r="14.4" fill="#009af9" fill-rule="evenodd" fill-opacity="1" stroke="#000000" stroke-opacity="1" stroke-width="3.84"/>
<circle clip-path="url(#clip113)" cx="2042.33" cy="659.564" r="14.4" fill="#009af9" fill-rule="evenodd" fill-opacity="1" stroke="#000000" stroke-opacity="1" stroke-width="3.84"/>
<circle clip-path="url(#clip113)" cx="2049.46" cy="919.224" r="14.4" fill="#009af9" fill-rule="evenodd" fill-opacity="1" stroke="#000000" stroke-opacity="1" stroke-width="3.84"/>
<circle clip-path="url(#clip113)" cx="2063.89" cy="379.921" r="14.4" fill="#009af9" fill-rule="evenodd" fill-opacity="1" stroke="#000000" stroke-opacity="1" stroke-width="3.84"/>
<circle clip-path="url(#clip113)" cx="2070.33" cy="1111.51" r="14.4" fill="#009af9" fill-rule="evenodd" fill-opacity="1" stroke="#000000" stroke-opacity="1" stroke-width="3.84"/>
<circle clip-path="url(#clip113)" cx="2081.84" cy="958.039" r="14.4" fill="#009af9" fill-rule="evenodd" fill-opacity="1" stroke="#000000" stroke-opacity="1" stroke-width="3.84"/>
<circle clip-path="url(#clip113)" cx="2090.35" cy="883.282" r="14.4" fill="#009af9" fill-rule="evenodd" fill-opacity="1" stroke="#000000" stroke-opacity="1" stroke-width="3.84"/>
<circle clip-path="url(#clip113)" cx="2120.18" cy="1200.3" r="14.4" fill="#009af9" fill-rule="evenodd" fill-opacity="1" stroke="#000000" stroke-opacity="1" stroke-width="3.84"/>
<circle clip-path="url(#clip113)" cx="2120.89" cy="1403.15" r="14.4" fill="#009af9" fill-rule="evenodd" fill-opacity="1" stroke="#000000" stroke-opacity="1" stroke-width="3.84"/>
<circle clip-path="url(#clip113)" cx="2126.35" cy="1292.19" r="14.4" fill="#009af9" fill-rule="evenodd" fill-opacity="1" stroke="#000000" stroke-opacity="1" stroke-width="3.84"/>
<circle clip-path="url(#clip113)" cx="2127.76" cy="1751.15" r="14.4" fill="#009af9" fill-rule="evenodd" fill-opacity="1" stroke="#000000" stroke-opacity="1" stroke-width="3.84"/>
<circle clip-path="url(#clip113)" cx="2130.18" cy="96.8724" r="14.4" fill="#009af9" fill-rule="evenodd" fill-opacity="1" stroke="#000000" stroke-opacity="1" stroke-width="3.84"/>
<circle clip-path="url(#clip113)" cx="2146.45" cy="1655.08" r="14.4" fill="#009af9" fill-rule="evenodd" fill-opacity="1" stroke="#000000" stroke-opacity="1" stroke-width="3.84"/>
<circle clip-path="url(#clip113)" cx="2153.1" cy="1250.84" r="14.4" fill="#009af9" fill-rule="evenodd" fill-opacity="1" stroke="#000000" stroke-opacity="1" stroke-width="3.84"/>
<circle clip-path="url(#clip113)" cx="2188.92" cy="1441.38" r="14.4" fill="#009af9" fill-rule="evenodd" fill-opacity="1" stroke="#000000" stroke-opacity="1" stroke-width="3.84"/>
<circle clip-path="url(#clip113)" cx="2204.49" cy="830.724" r="14.4" fill="#009af9" fill-rule="evenodd" fill-opacity="1" stroke="#000000" stroke-opacity="1" stroke-width="3.84"/>
<circle clip-path="url(#clip113)" cx="2207.49" cy="702.131" r="14.4" fill="#009af9" fill-rule="evenodd" fill-opacity="1" stroke="#000000" stroke-opacity="1" stroke-width="3.84"/>
<circle clip-path="url(#clip113)" cx="2208.34" cy="1622.32" r="14.4" fill="#009af9" fill-rule="evenodd" fill-opacity="1" stroke="#000000" stroke-opacity="1" stroke-width="3.84"/>
<circle clip-path="url(#clip113)" cx="2232.66" cy="1142.64" r="14.4" fill="#009af9" fill-rule="evenodd" fill-opacity="1" stroke="#000000" stroke-opacity="1" stroke-width="3.84"/>
<circle clip-path="url(#clip113)" cx="2243.32" cy="1408.2" r="14.4" fill="#009af9" fill-rule="evenodd" fill-opacity="1" stroke="#000000" stroke-opacity="1" stroke-width="3.84"/>
<circle clip-path="url(#clip113)" cx="2246.53" cy="724.946" r="14.4" fill="#009af9" fill-rule="evenodd" fill-opacity="1" stroke="#000000" stroke-opacity="1" stroke-width="3.84"/>
<circle clip-path="url(#clip113)" cx="2249.3" cy="1381.57" r="14.4" fill="#009af9" fill-rule="evenodd" fill-opacity="1" stroke="#000000" stroke-opacity="1" stroke-width="3.84"/>
<circle clip-path="url(#clip113)" cx="2249.7" cy="1017.08" r="14.4" fill="#009af9" fill-rule="evenodd" fill-opacity="1" stroke="#000000" stroke-opacity="1" stroke-width="3.84"/>
<circle clip-path="url(#clip113)" cx="2256.11" cy="830.335" r="14.4" fill="#009af9" fill-rule="evenodd" fill-opacity="1" stroke="#000000" stroke-opacity="1" stroke-width="3.84"/>
<circle clip-path="url(#clip113)" cx="2258.12" cy="183.871" r="14.4" fill="#009af9" fill-rule="evenodd" fill-opacity="1" stroke="#000000" stroke-opacity="1" stroke-width="3.84"/>
<circle clip-path="url(#clip113)" cx="2275.81" cy="1391.97" r="14.4" fill="#009af9" fill-rule="evenodd" fill-opacity="1" stroke="#000000" stroke-opacity="1" stroke-width="3.84"/>
<circle clip-path="url(#clip113)" cx="2289.96" cy="725.427" r="14.4" fill="#009af9" fill-rule="evenodd" fill-opacity="1" stroke="#000000" stroke-opacity="1" stroke-width="3.84"/>
<circle clip-path="url(#clip113)" cx="2291.28" cy="1246.24" r="14.4" fill="#009af9" fill-rule="evenodd" fill-opacity="1" stroke="#000000" stroke-opacity="1" stroke-width="3.84"/>
<circle clip-path="url(#clip113)" cx="2329.01" cy="1340.06" r="14.4" fill="#009af9" fill-rule="evenodd" fill-opacity="1" stroke="#000000" stroke-opacity="1" stroke-width="3.84"/>
<circle clip-path="url(#clip113)" cx="2330.47" cy="1416.47" r="14.4" fill="#009af9" fill-rule="evenodd" fill-opacity="1" stroke="#000000" stroke-opacity="1" stroke-width="3.84"/>
<circle clip-path="url(#clip113)" cx="2360.71" cy="196.516" r="14.4" fill="#009af9" fill-rule="evenodd" fill-opacity="1" stroke="#000000" stroke-opacity="1" stroke-width="3.84"/>
<circle clip-path="url(#clip113)" cx="2477.05" cy="1194.8" r="14.4" fill="#009af9" fill-rule="evenodd" fill-opacity="1" stroke="#000000" stroke-opacity="1" stroke-width="3.84"/>
<circle clip-path="url(#clip113)" cx="2540.05" cy="810.285" r="14.4" fill="#009af9" fill-rule="evenodd" fill-opacity="1" stroke="#000000" stroke-opacity="1" stroke-width="3.84"/>
<circle clip-path="url(#clip113)" cx="2582.08" cy="1276.35" r="14.4" fill="#009af9" fill-rule="evenodd" fill-opacity="1" stroke="#000000" stroke-opacity="1" stroke-width="3.84"/>
<circle clip-path="url(#clip113)" cx="2610.45" cy="675.023" r="14.4" fill="#009af9" fill-rule="evenodd" fill-opacity="1" stroke="#000000" stroke-opacity="1" stroke-width="3.84"/>
<polyline clip-path="url(#clip113)" style="stroke:#0000ff; stroke-linecap:round; stroke-linejoin:round; stroke-width:20; stroke-opacity:1; fill:none" points="
  1600.29,1230.9 1602.88,1227.52 1626.9,1196.3 1641.33,1177.55 1653.54,1161.68 1666.79,1144.45 1679.01,1128.57 1692.11,1111.54 1707.29,1091.81 1720.78,1074.28 
  1732.61,1058.9 1745.51,1042.14 1758.48,1025.28 1772.83,1006.63 1786.48,988.891 1800.67,970.446 1812.61,954.919 1827.2,935.962 1840.56,918.597 1852.9,902.559 
  1865.4,886.312 1879.41,868.105 1892.1,851.606 1906.63,832.716 1920.09,815.225 1933.36,797.981 1946.24,781.239 1959.44,764.076 1973.91,745.272 1994.92,717.956 
  1999.24,712.352 
  "/>
<polyline clip-path="url(#clip113)" style="stroke:#0000ff; stroke-linecap:round; stroke-linejoin:round; stroke-width:20; stroke-opacity:1; fill:none" points="
  1835.88,833.433 1837.07,834.444 1848.13,843.789 1854.77,849.405 1860.38,854.153 1866.48,859.311 1872.11,864.066 1878.14,869.165 1885.12,875.071 1891.33,880.32 
  1896.77,884.923 1902.71,889.942 1908.68,894.99 1915.28,900.572 1921.56,905.883 1928.09,911.404 1933.59,916.053 1940.3,921.728 1946.45,926.927 1952.13,931.728 
  1957.88,936.592 1964.33,942.042 1970.17,946.982 1976.86,952.637 1983.05,957.873 1989.16,963.035 1995.08,968.047 2001.16,973.186 2007.82,978.815 2017.49,986.992 
  2019.47,988.67 
  "/>
<polyline clip-path="url(#clip113)" style="stroke:#0000ff; stroke-linecap:round; stroke-linejoin:round; stroke-width:20; stroke-opacity:1; fill:none" points="
  2000.85,1194.26 2001.3,1190.21 2005.48,1152.82 2008,1130.35 2010.12,1111.36 2012.43,1090.72 2014.56,1071.69 2016.84,1051.3 2019.48,1027.66 2021.83,1006.66 
  2023.89,988.244 2026.14,968.165 2028.4,947.967 2030.9,925.635 2033.27,904.387 2035.75,882.293 2037.83,863.696 2040.37,840.99 2042.69,820.19 2044.84,800.98 
  2047.02,781.52 2049.46,759.711 2051.67,739.949 2054.2,717.323 2056.54,696.373 2058.86,675.719 2061.1,655.665 2063.4,635.108 2065.92,612.585 2069.58,579.866 
  2070.33,573.154 
  "/>
<polyline clip-path="url(#clip113)" style="stroke:#0000ff; stroke-linecap:round; stroke-linejoin:round; stroke-width:20; stroke-opacity:1; fill:none" points="
  2040.71,565.804 2041.26,570.718 2046.42,616.155 2049.52,643.46 2052.14,666.547 2054.98,691.625 2057.61,714.745 2060.42,739.533 2063.68,768.251 2066.57,793.773 
  2069.11,816.153 2071.88,840.553 2074.67,865.099 2077.74,892.237 2080.67,918.058 2083.72,944.906 2086.29,967.506 2089.42,995.099 2092.28,1020.38 2094.93,1043.72 
  2097.62,1067.37 2100.62,1093.87 2103.35,1117.88 2106.47,1145.38 2109.36,1170.84 2112.2,1195.94 2114.97,1220.31 2117.8,1245.29 2120.91,1272.66 2125.42,1312.42 
  2126.35,1320.58 
  "/>
<polyline clip-path="url(#clip113)" style="stroke:#0000ff; stroke-linecap:round; stroke-linejoin:round; stroke-width:20; stroke-opacity:1; fill:none" points="
  2081.84,950.185 2082.53,953.808 2088.98,987.311 2092.85,1007.45 2096.13,1024.47 2099.69,1042.96 2102.97,1060.01 2106.48,1078.28 2110.56,1099.46 2114.18,1118.28 
  2117.36,1134.78 2120.82,1152.77 2124.3,1170.87 2128.15,1190.88 2131.81,1209.92 2135.62,1229.72 2138.83,1246.38 2142.74,1266.73 2146.33,1285.37 2149.64,1302.58 
  2153,1320.01 2156.76,1339.56 2160.17,1357.26 2164.07,1377.54 2167.68,1396.31 2171.24,1414.82 2174.7,1432.79 2178.24,1451.21 2182.13,1471.39 2187.77,1500.71 
  2188.92,1506.72 
  "/>
<polyline clip-path="url(#clip113)" style="stroke:#0000ff; stroke-linecap:round; stroke-linejoin:round; stroke-width:20; stroke-opacity:1; fill:none" points="
  2127.76,1149.25 2128.51,1149.79 2135.47,1154.82 2139.65,1157.85 2143.19,1160.41 2147.03,1163.18 2150.56,1165.75 2154.36,1168.49 2158.76,1171.67 2162.66,1174.5 
  2166.09,1176.98 2169.83,1179.68 2173.59,1182.4 2177.74,1185.41 2181.69,1188.27 2185.8,1191.24 2189.26,1193.75 2193.49,1196.8 2197.36,1199.6 2200.93,1202.19 
  2204.55,1204.81 2208.61,1207.74 2212.29,1210.41 2216.5,1213.45 2220.4,1216.27 2224.24,1219.05 2227.97,1221.75 2231.79,1224.52 2235.99,1227.55 2242.07,1231.96 
  2243.32,1232.86 
  "/>
<polyline clip-path="url(#clip113)" style="stroke:#0000ff; stroke-linecap:round; stroke-linejoin:round; stroke-width:20; stroke-opacity:1; fill:none" points="
  2204.49,1139.78 2204.84,1138.04 2208.07,1121.92 2210.01,1112.22 2211.65,1104.03 2213.43,1095.13 2215.08,1086.92 2216.84,1078.13 2218.88,1067.94 2220.69,1058.88 
  2222.28,1050.93 2224.02,1042.27 2225.76,1033.56 2227.69,1023.93 2229.52,1014.77 2231.43,1005.24 2233.04,997.219 2235,987.426 2236.79,978.455 2238.45,970.17 
  2240.13,961.777 2242.01,952.372 2243.72,943.848 2245.68,934.09 2247.48,925.055 2249.27,916.147 2251,907.498 2252.77,898.632 2254.72,888.918 2257.54,874.807 
  2258.12,871.912 
  "/>
<polyline clip-path="url(#clip113)" style="stroke:#0000ff; stroke-linecap:round; stroke-linejoin:round; stroke-width:20; stroke-opacity:1; fill:none" points="
  2246.53,837.254 2247.08,840.568 2252.13,871.205 2255.17,889.616 2257.74,905.183 2260.52,922.093 2263.1,937.683 2265.85,954.396 2269.05,973.76 2271.89,990.969 
  2274.37,1006.06 2277.09,1022.51 2279.82,1039.06 2282.84,1057.36 2285.71,1074.77 2288.69,1092.88 2291.21,1108.11 2294.28,1126.72 2297.09,1143.76 2299.68,1159.5 
  2302.31,1175.45 2305.26,1193.32 2307.93,1209.51 2310.99,1228.05 2313.82,1245.22 2316.61,1262.14 2319.32,1278.57 2322.1,1295.42 2325.15,1313.87 2329.57,1340.68 
  2330.47,1346.18 
  "/>
<polyline clip-path="url(#clip113)" style="stroke:#0000ff; stroke-linecap:round; stroke-linejoin:round; stroke-width:20; stroke-opacity:1; fill:none" points="
  2275.81,1113.08 2277.99,1111.68 2298.14,1098.67 2310.24,1090.86 2320.48,1084.25 2331.6,1077.08 2341.85,1070.46 2352.84,1063.36 2365.57,1055.15 2376.89,1047.84 
  2386.81,1041.44 2397.63,1034.45 2408.51,1027.43 2420.54,1019.66 2431.99,1012.27 2443.89,1004.59 2453.91,998.121 2466.15,990.225 2477.35,982.991 2487.7,976.31 
  2498.19,969.542 2509.94,961.958 2520.59,955.085 2532.78,947.216 2544.06,939.93 2555.19,932.747 2566,925.772 2577.07,918.623 2589.21,910.79 2606.83,899.411 
  2610.45,897.077 
  "/>
<polyline clip-path="url(#clip113)" style="stroke:#ff0000; stroke-linecap:round; stroke-linejoin:round; stroke-width:20; stroke-opacity:1; fill:none" points="
  1600.29,1010.31 1610.49,1023.02 1620.69,1033.97 1630.9,1043.25 1641.1,1050.93 1651.31,1057.09 1661.51,1061.82 1671.71,1065.18 1681.92,1067.27 1692.12,1068.16 
  1702.32,1067.92 1712.53,1066.65 1722.73,1064.42 1732.94,1061.31 1743.14,1059.99 1753.34,1057.97 1763.55,1054.09 1773.75,1048.55 1783.95,1041.53 1794.16,1033.23 
  1804.36,1023.83 1814.56,1013.54 1824.77,1002.56 1834.97,990.615 1845.18,979.759 1855.38,966.486 1865.58,951.001 1875.79,933.86 1885.99,915.617 1896.19,896.826 
  1906.4,878.04 1916.6,860.911 1926.8,850.238 1937.01,841.01 1947.21,833.44 1957.42,827.746 1967.62,824.142 1977.82,824.161 1988.03,827.433 1998.23,833.552 
  2008.43,845.877 2018.64,860.155 2028.84,876.556 2039.05,894.26 2049.25,911.599 2059.45,942.185 2069.66,974.493 2079.86,1010.82 2090.06,1034.93 2100.27,1057.11 
  2110.47,1082.36 2120.67,1112.05 2130.88,1149.7 2141.08,1184.7 2151.29,1199.55 2161.49,1197.5 2171.69,1188.25 2181.9,1176.07 2192.1,1162.68 2202.3,1149.79 
  2212.51,1136.83 2222.71,1121.42 2232.92,1104.48 2243.12,1086.5 2253.32,1071.75 2263.53,1052.78 2273.73,1032.43 2283.93,1014.36 2294.14,999.799 2304.34,987.24 
  2314.54,977.25 2324.75,970.452 2334.95,966.003 2345.16,961.619 2355.36,957.781 2365.56,954.834 2375.77,952.899 2385.97,951.473 2396.17,950.466 2406.38,949.785 
  2416.58,949.336 2426.78,949.029 2436.99,948.77 2447.19,948.467 2457.4,948.028 2467.6,947.359 2477.8,946.37 2488.01,944.967 2498.21,943.058 2508.41,940.551 
  2518.62,940.998 2528.82,941.391 2539.03,941.629 2549.23,941.658 2559.43,941.424 2569.64,940.873 2579.84,939.95 2590.04,938.876 2600.25,937.422 2610.45,935.46 
  
  "/>
</svg>
