<?xml version="1.0" encoding="utf-8"?>
<svg xmlns="http://www.w3.org/2000/svg" xmlns:xlink="http://www.w3.org/1999/xlink" width="672" height="480" viewBox="0 0 2688 1920">
<defs>
  <clipPath id="clip150">
    <rect x="0" y="0" width="2688" height="1920"/>
  </clipPath>
</defs>
<path clip-path="url(#clip150)" d="
M0 1920 L2688 1920 L2688 0 L0 0  Z
  " fill="#ffffff" fill-rule="evenodd" fill-opacity="1"/>
<defs>
  <clipPath id="clip151">
    <rect x="537" y="0" width="1883" height="1883"/>
  </clipPath>
</defs>
<path clip-path="url(#clip150)" d="
M195.821 1800.78 L2640.76 1800.78 L2640.76 47.2441 L195.821 47.2441  Z
  " fill="#ffffff" fill-rule="evenodd" fill-opacity="1"/>
<defs>
  <clipPath id="clip152">
    <rect x="195" y="47" width="2446" height="1755"/>
  </clipPath>
</defs>
<polyline clip-path="url(#clip152)" style="stroke:#000000; stroke-linecap:round; stroke-linejoin:round; stroke-width:2; stroke-opacity:0.1; fill:none" points="
  319.164,1800.78 319.164,47.2441 
  "/>
<polyline clip-path="url(#clip152)" style="stroke:#000000; stroke-linecap:round; stroke-linejoin:round; stroke-width:2; stroke-opacity:0.1; fill:none" points="
  661.502,1800.78 661.502,47.2441 
  "/>
<polyline clip-path="url(#clip152)" style="stroke:#000000; stroke-linecap:round; stroke-linejoin:round; stroke-width:2; stroke-opacity:0.1; fill:none" points="
  1003.84,1800.78 1003.84,47.2441 
  "/>
<polyline clip-path="url(#clip152)" style="stroke:#000000; stroke-linecap:round; stroke-linejoin:round; stroke-width:2; stroke-opacity:0.1; fill:none" points="
  1346.18,1800.78 1346.18,47.2441 
  "/>
<polyline clip-path="url(#clip152)" style="stroke:#000000; stroke-linecap:round; stroke-linejoin:round; stroke-width:2; stroke-opacity:0.1; fill:none" points="
  1688.52,1800.78 1688.52,47.2441 
  "/>
<polyline clip-path="url(#clip152)" style="stroke:#000000; stroke-linecap:round; stroke-linejoin:round; stroke-width:2; stroke-opacity:0.1; fill:none" points="
  2030.85,1800.78 2030.85,47.2441 
  "/>
<polyline clip-path="url(#clip152)" style="stroke:#000000; stroke-linecap:round; stroke-linejoin:round; stroke-width:2; stroke-opacity:0.1; fill:none" points="
  2373.19,1800.78 2373.19,47.2441 
  "/>
<polyline clip-path="url(#clip150)" style="stroke:#000000; stroke-linecap:round; stroke-linejoin:round; stroke-width:4; stroke-opacity:1; fill:none" points="
  195.821,1800.78 2640.76,1800.78 
  "/>
<polyline clip-path="url(#clip150)" style="stroke:#000000; stroke-linecap:round; stroke-linejoin:round; stroke-width:4; stroke-opacity:1; fill:none" points="
  319.164,1800.78 319.164,1781.88 
  "/>
<polyline clip-path="url(#clip150)" style="stroke:#000000; stroke-linecap:round; stroke-linejoin:round; stroke-width:4; stroke-opacity:1; fill:none" points="
  661.502,1800.78 661.502,1781.88 
  "/>
<polyline clip-path="url(#clip150)" style="stroke:#000000; stroke-linecap:round; stroke-linejoin:round; stroke-width:4; stroke-opacity:1; fill:none" points="
  1003.84,1800.78 1003.84,1781.88 
  "/>
<polyline clip-path="url(#clip150)" style="stroke:#000000; stroke-linecap:round; stroke-linejoin:round; stroke-width:4; stroke-opacity:1; fill:none" points="
  1346.18,1800.78 1346.18,1781.88 
  "/>
<polyline clip-path="url(#clip150)" style="stroke:#000000; stroke-linecap:round; stroke-linejoin:round; stroke-width:4; stroke-opacity:1; fill:none" points="
  1688.52,1800.78 1688.52,1781.88 
  "/>
<polyline clip-path="url(#clip150)" style="stroke:#000000; stroke-linecap:round; stroke-linejoin:round; stroke-width:4; stroke-opacity:1; fill:none" points="
  2030.85,1800.78 2030.85,1781.88 
  "/>
<polyline clip-path="url(#clip150)" style="stroke:#000000; stroke-linecap:round; stroke-linejoin:round; stroke-width:4; stroke-opacity:1; fill:none" points="
  2373.19,1800.78 2373.19,1781.88 
  "/>
<path clip-path="url(#clip150)" d="M296.594 1834 Q292.983 1834 291.155 1837.57 Q289.349 1841.11 289.349 1848.24 Q289.349 1855.34 291.155 1858.91 Q292.983 1862.45 296.594 1862.45 Q300.229 1862.45 302.034 1858.91 Q303.863 1855.34 303.863 1848.24 Q303.863 1841.11 302.034 1837.57 Q300.229 1834 296.594 1834 M296.594 1830.3 Q302.405 1830.3 305.46 1834.9 Q308.539 1839.49 308.539 1848.24 Q308.539 1856.96 305.46 1861.57 Q302.405 1866.15 296.594 1866.15 Q290.784 1866.15 287.706 1861.57 Q284.65 1856.96 284.65 1848.24 Q284.65 1839.49 287.706 1834.9 Q290.784 1830.3 296.594 1830.3 Z" fill="#000000" fill-rule="evenodd" fill-opacity="1" /><path clip-path="url(#clip150)" d="M316.756 1859.6 L321.641 1859.6 L321.641 1865.48 L316.756 1865.48 L316.756 1859.6 Z" fill="#000000" fill-rule="evenodd" fill-opacity="1" /><path clip-path="url(#clip150)" d="M341.826 1849.07 Q338.492 1849.07 336.571 1850.85 Q334.673 1852.64 334.673 1855.76 Q334.673 1858.89 336.571 1860.67 Q338.492 1862.45 341.826 1862.45 Q345.159 1862.45 347.08 1860.67 Q349.001 1858.86 349.001 1855.76 Q349.001 1852.64 347.08 1850.85 Q345.182 1849.07 341.826 1849.07 M337.15 1847.08 Q334.14 1846.34 332.451 1844.28 Q330.784 1842.22 330.784 1839.26 Q330.784 1835.11 333.724 1832.71 Q336.687 1830.3 341.826 1830.3 Q346.988 1830.3 349.927 1832.71 Q352.867 1835.11 352.867 1839.26 Q352.867 1842.22 351.177 1844.28 Q349.511 1846.34 346.525 1847.08 Q349.904 1847.87 351.779 1850.16 Q353.677 1852.45 353.677 1855.76 Q353.677 1860.78 350.599 1863.47 Q347.543 1866.15 341.826 1866.15 Q336.108 1866.15 333.029 1863.47 Q329.974 1860.78 329.974 1855.76 Q329.974 1852.45 331.872 1850.16 Q333.77 1847.87 337.15 1847.08 M335.437 1839.7 Q335.437 1842.38 337.103 1843.89 Q338.793 1845.39 341.826 1845.39 Q344.835 1845.39 346.525 1843.89 Q348.238 1842.38 348.238 1839.7 Q348.238 1837.01 346.525 1835.51 Q344.835 1834 341.826 1834 Q338.793 1834 337.103 1835.51 Q335.437 1837.01 335.437 1839.7 Z" fill="#000000" fill-rule="evenodd" fill-opacity="1" /><path clip-path="url(#clip150)" d="M628.655 1861.55 L636.293 1861.55 L636.293 1835.18 L627.983 1836.85 L627.983 1832.59 L636.247 1830.92 L640.923 1830.92 L640.923 1861.55 L648.562 1861.55 L648.562 1865.48 L628.655 1865.48 L628.655 1861.55 Z" fill="#000000" fill-rule="evenodd" fill-opacity="1" /><path clip-path="url(#clip150)" d="M658.006 1859.6 L662.89 1859.6 L662.89 1865.48 L658.006 1865.48 L658.006 1859.6 Z" fill="#000000" fill-rule="evenodd" fill-opacity="1" /><path clip-path="url(#clip150)" d="M683.076 1834 Q679.464 1834 677.636 1837.57 Q675.83 1841.11 675.83 1848.24 Q675.83 1855.34 677.636 1858.91 Q679.464 1862.45 683.076 1862.45 Q686.71 1862.45 688.515 1858.91 Q690.344 1855.34 690.344 1848.24 Q690.344 1841.11 688.515 1837.57 Q686.71 1834 683.076 1834 M683.076 1830.3 Q688.886 1830.3 691.941 1834.9 Q695.02 1839.49 695.02 1848.24 Q695.02 1856.96 691.941 1861.57 Q688.886 1866.15 683.076 1866.15 Q677.265 1866.15 674.187 1861.57 Q671.131 1856.96 671.131 1848.24 Q671.131 1839.49 674.187 1834.9 Q677.265 1830.3 683.076 1830.3 Z" fill="#000000" fill-rule="evenodd" fill-opacity="1" /><path clip-path="url(#clip150)" d="M971.791 1861.55 L979.43 1861.55 L979.43 1835.18 L971.12 1836.85 L971.12 1832.59 L979.384 1830.92 L984.059 1830.92 L984.059 1861.55 L991.698 1861.55 L991.698 1865.48 L971.791 1865.48 L971.791 1861.55 Z" fill="#000000" fill-rule="evenodd" fill-opacity="1" /><path clip-path="url(#clip150)" d="M1001.14 1859.6 L1006.03 1859.6 L1006.03 1865.48 L1001.14 1865.48 L1001.14 1859.6 Z" fill="#000000" fill-rule="evenodd" fill-opacity="1" /><path clip-path="url(#clip150)" d="M1020.24 1861.55 L1036.56 1861.55 L1036.56 1865.48 L1014.61 1865.48 L1014.61 1861.55 Q1017.28 1858.79 1021.86 1854.16 Q1026.47 1849.51 1027.65 1848.17 Q1029.89 1845.65 1030.77 1843.91 Q1031.67 1842.15 1031.67 1840.46 Q1031.67 1837.71 1029.73 1835.97 Q1027.81 1834.23 1024.71 1834.23 Q1022.51 1834.23 1020.05 1835 Q1017.62 1835.76 1014.85 1837.31 L1014.85 1832.59 Q1017.67 1831.46 1020.12 1830.88 Q1022.58 1830.3 1024.61 1830.3 Q1029.99 1830.3 1033.18 1832.98 Q1036.37 1835.67 1036.37 1840.16 Q1036.37 1842.29 1035.56 1844.21 Q1034.78 1846.11 1032.67 1848.7 Q1032.09 1849.37 1028.99 1852.59 Q1025.89 1855.78 1020.24 1861.55 Z" fill="#000000" fill-rule="evenodd" fill-opacity="1" /><path clip-path="url(#clip150)" d="M1313.09 1861.55 L1320.73 1861.55 L1320.73 1835.18 L1312.42 1836.85 L1312.42 1832.59 L1320.68 1830.92 L1325.36 1830.92 L1325.36 1861.55 L1332.99 1861.55 L1332.99 1865.48 L1313.09 1865.48 L1313.09 1861.55 Z" fill="#000000" fill-rule="evenodd" fill-opacity="1" /><path clip-path="url(#clip150)" d="M1342.44 1859.6 L1347.32 1859.6 L1347.32 1865.48 L1342.44 1865.48 L1342.44 1859.6 Z" fill="#000000" fill-rule="evenodd" fill-opacity="1" /><path clip-path="url(#clip150)" d="M1370.36 1835 L1358.55 1853.45 L1370.36 1853.45 L1370.36 1835 M1369.13 1830.92 L1375.01 1830.92 L1375.01 1853.45 L1379.94 1853.45 L1379.94 1857.34 L1375.01 1857.34 L1375.01 1865.48 L1370.36 1865.48 L1370.36 1857.34 L1354.75 1857.34 L1354.75 1852.82 L1369.13 1830.92 Z" fill="#000000" fill-rule="evenodd" fill-opacity="1" /><path clip-path="url(#clip150)" d="M1655.59 1861.55 L1663.23 1861.55 L1663.23 1835.18 L1654.92 1836.85 L1654.92 1832.59 L1663.18 1830.92 L1667.86 1830.92 L1667.86 1861.55 L1675.49 1861.55 L1675.49 1865.48 L1655.59 1865.48 L1655.59 1861.55 Z" fill="#000000" fill-rule="evenodd" fill-opacity="1" /><path clip-path="url(#clip150)" d="M1684.94 1859.6 L1689.82 1859.6 L1689.82 1865.48 L1684.94 1865.48 L1684.94 1859.6 Z" fill="#000000" fill-rule="evenodd" fill-opacity="1" /><path clip-path="url(#clip150)" d="M1710.59 1846.34 Q1707.44 1846.34 1705.59 1848.49 Q1703.76 1850.65 1703.76 1854.4 Q1703.76 1858.12 1705.59 1860.3 Q1707.44 1862.45 1710.59 1862.45 Q1713.74 1862.45 1715.56 1860.3 Q1717.42 1858.12 1717.42 1854.4 Q1717.42 1850.65 1715.56 1848.49 Q1713.74 1846.34 1710.59 1846.34 M1719.87 1831.69 L1719.87 1835.95 Q1718.11 1835.11 1716.3 1834.67 Q1714.52 1834.23 1712.76 1834.23 Q1708.13 1834.23 1705.68 1837.36 Q1703.25 1840.48 1702.9 1846.8 Q1704.27 1844.79 1706.33 1843.72 Q1708.39 1842.64 1710.86 1842.64 Q1716.07 1842.64 1719.08 1845.81 Q1722.11 1848.96 1722.11 1854.4 Q1722.11 1859.72 1718.97 1862.94 Q1715.82 1866.15 1710.59 1866.15 Q1704.59 1866.15 1701.42 1861.57 Q1698.25 1856.96 1698.25 1848.24 Q1698.25 1840.04 1702.14 1835.18 Q1706.03 1830.3 1712.58 1830.3 Q1714.34 1830.3 1716.12 1830.65 Q1717.92 1830.99 1719.87 1831.69 Z" fill="#000000" fill-rule="evenodd" fill-opacity="1" /><path clip-path="url(#clip150)" d="M1998.05 1861.55 L2005.69 1861.55 L2005.69 1835.18 L1997.38 1836.85 L1997.38 1832.59 L2005.64 1830.92 L2010.32 1830.92 L2010.32 1861.55 L2017.96 1861.55 L2017.96 1865.48 L1998.05 1865.48 L1998.05 1861.55 Z" fill="#000000" fill-rule="evenodd" fill-opacity="1" /><path clip-path="url(#clip150)" d="M2027.4 1859.6 L2032.29 1859.6 L2032.29 1865.48 L2027.4 1865.48 L2027.4 1859.6 Z" fill="#000000" fill-rule="evenodd" fill-opacity="1" /><path clip-path="url(#clip150)" d="M2052.47 1849.07 Q2049.14 1849.07 2047.22 1850.85 Q2045.32 1852.64 2045.32 1855.76 Q2045.32 1858.89 2047.22 1860.67 Q2049.14 1862.45 2052.47 1862.45 Q2055.81 1862.45 2057.73 1860.67 Q2059.65 1858.86 2059.65 1855.76 Q2059.65 1852.64 2057.73 1850.85 Q2055.83 1849.07 2052.47 1849.07 M2047.8 1847.08 Q2044.79 1846.34 2043.1 1844.28 Q2041.43 1842.22 2041.43 1839.26 Q2041.43 1835.11 2044.37 1832.71 Q2047.33 1830.3 2052.47 1830.3 Q2057.64 1830.3 2060.58 1832.71 Q2063.52 1835.11 2063.52 1839.26 Q2063.52 1842.22 2061.83 1844.28 Q2060.16 1846.34 2057.17 1847.08 Q2060.55 1847.87 2062.43 1850.16 Q2064.33 1852.45 2064.33 1855.76 Q2064.33 1860.78 2061.25 1863.47 Q2058.19 1866.15 2052.47 1866.15 Q2046.76 1866.15 2043.68 1863.47 Q2040.62 1860.78 2040.62 1855.76 Q2040.62 1852.45 2042.52 1850.16 Q2044.42 1847.87 2047.8 1847.08 M2046.08 1839.7 Q2046.08 1842.38 2047.75 1843.89 Q2049.44 1845.39 2052.47 1845.39 Q2055.48 1845.39 2057.17 1843.89 Q2058.89 1842.38 2058.89 1839.7 Q2058.89 1837.01 2057.17 1835.51 Q2055.48 1834 2052.47 1834 Q2049.44 1834 2047.75 1835.51 Q2046.08 1837.01 2046.08 1839.7 Z" fill="#000000" fill-rule="evenodd" fill-opacity="1" /><path clip-path="url(#clip150)" d="M2344.43 1861.55 L2360.75 1861.55 L2360.75 1865.48 L2338.8 1865.48 L2338.8 1861.55 Q2341.47 1858.79 2346.05 1854.16 Q2350.66 1849.51 2351.84 1848.17 Q2354.08 1845.65 2354.96 1843.91 Q2355.86 1842.15 2355.86 1840.46 Q2355.86 1837.71 2353.92 1835.97 Q2352 1834.23 2348.9 1834.23 Q2346.7 1834.23 2344.24 1835 Q2341.81 1835.76 2339.04 1837.31 L2339.04 1832.59 Q2341.86 1831.46 2344.31 1830.88 Q2346.77 1830.3 2348.8 1830.3 Q2354.17 1830.3 2357.37 1832.98 Q2360.56 1835.67 2360.56 1840.16 Q2360.56 1842.29 2359.75 1844.21 Q2358.97 1846.11 2356.86 1848.7 Q2356.28 1849.37 2353.18 1852.59 Q2350.08 1855.78 2344.43 1861.55 Z" fill="#000000" fill-rule="evenodd" fill-opacity="1" /><path clip-path="url(#clip150)" d="M2370.56 1859.6 L2375.45 1859.6 L2375.45 1865.48 L2370.56 1865.48 L2370.56 1859.6 Z" fill="#000000" fill-rule="evenodd" fill-opacity="1" /><path clip-path="url(#clip150)" d="M2395.63 1834 Q2392.02 1834 2390.19 1837.57 Q2388.39 1841.11 2388.39 1848.24 Q2388.39 1855.34 2390.19 1858.91 Q2392.02 1862.45 2395.63 1862.45 Q2399.27 1862.45 2401.07 1858.91 Q2402.9 1855.34 2402.9 1848.24 Q2402.9 1841.11 2401.07 1837.57 Q2399.27 1834 2395.63 1834 M2395.63 1830.3 Q2401.44 1830.3 2404.5 1834.9 Q2407.58 1839.49 2407.58 1848.24 Q2407.58 1856.96 2404.5 1861.57 Q2401.44 1866.15 2395.63 1866.15 Q2389.82 1866.15 2386.74 1861.57 Q2383.69 1856.96 2383.69 1848.24 Q2383.69 1839.49 2386.74 1834.9 Q2389.82 1830.3 2395.63 1830.3 Z" fill="#000000" fill-rule="evenodd" fill-opacity="1" /><polyline clip-path="url(#clip152)" style="stroke:#000000; stroke-linecap:round; stroke-linejoin:round; stroke-width:2; stroke-opacity:0.1; fill:none" points="
  195.821,1774.13 2640.76,1774.13 
  "/>
<polyline clip-path="url(#clip152)" style="stroke:#000000; stroke-linecap:round; stroke-linejoin:round; stroke-width:2; stroke-opacity:0.1; fill:none" points="
  195.821,1418.18 2640.76,1418.18 
  "/>
<polyline clip-path="url(#clip152)" style="stroke:#000000; stroke-linecap:round; stroke-linejoin:round; stroke-width:2; stroke-opacity:0.1; fill:none" points="
  195.821,1062.23 2640.76,1062.23 
  "/>
<polyline clip-path="url(#clip152)" style="stroke:#000000; stroke-linecap:round; stroke-linejoin:round; stroke-width:2; stroke-opacity:0.1; fill:none" points="
  195.821,706.285 2640.76,706.285 
  "/>
<polyline clip-path="url(#clip152)" style="stroke:#000000; stroke-linecap:round; stroke-linejoin:round; stroke-width:2; stroke-opacity:0.1; fill:none" points="
  195.821,350.338 2640.76,350.338 
  "/>
<polyline clip-path="url(#clip150)" style="stroke:#000000; stroke-linecap:round; stroke-linejoin:round; stroke-width:4; stroke-opacity:1; fill:none" points="
  195.821,1800.78 195.821,47.2441 
  "/>
<polyline clip-path="url(#clip150)" style="stroke:#000000; stroke-linecap:round; stroke-linejoin:round; stroke-width:4; stroke-opacity:1; fill:none" points="
  195.821,1774.13 214.718,1774.13 
  "/>
<polyline clip-path="url(#clip150)" style="stroke:#000000; stroke-linecap:round; stroke-linejoin:round; stroke-width:4; stroke-opacity:1; fill:none" points="
  195.821,1418.18 214.718,1418.18 
  "/>
<polyline clip-path="url(#clip150)" style="stroke:#000000; stroke-linecap:round; stroke-linejoin:round; stroke-width:4; stroke-opacity:1; fill:none" points="
  195.821,1062.23 214.718,1062.23 
  "/>
<polyline clip-path="url(#clip150)" style="stroke:#000000; stroke-linecap:round; stroke-linejoin:round; stroke-width:4; stroke-opacity:1; fill:none" points="
  195.821,706.285 214.718,706.285 
  "/>
<polyline clip-path="url(#clip150)" style="stroke:#000000; stroke-linecap:round; stroke-linejoin:round; stroke-width:4; stroke-opacity:1; fill:none" points="
  195.821,350.338 214.718,350.338 
  "/>
<path clip-path="url(#clip150)" d="M49.5521 1774.58 L79.2279 1774.58 L79.2279 1778.51 L49.5521 1778.51 L49.5521 1774.58 Z" fill="#000000" fill-rule="evenodd" fill-opacity="1" /><path clip-path="url(#clip150)" d="M99.3204 1759.93 Q95.7093 1759.93 93.8806 1763.49 Q92.075 1767.03 92.075 1774.16 Q92.075 1781.27 93.8806 1784.83 Q95.7093 1788.37 99.3204 1788.37 Q102.955 1788.37 104.76 1784.83 Q106.589 1781.27 106.589 1774.16 Q106.589 1767.03 104.76 1763.49 Q102.955 1759.93 99.3204 1759.93 M99.3204 1756.22 Q105.131 1756.22 108.186 1760.83 Q111.265 1765.41 111.265 1774.16 Q111.265 1782.89 108.186 1787.49 Q105.131 1792.08 99.3204 1792.08 Q93.5102 1792.08 90.4315 1787.49 Q87.376 1782.89 87.376 1774.16 Q87.376 1765.41 90.4315 1760.83 Q93.5102 1756.22 99.3204 1756.22 Z" fill="#000000" fill-rule="evenodd" fill-opacity="1" /><path clip-path="url(#clip150)" d="M119.482 1785.53 L124.367 1785.53 L124.367 1791.41 L119.482 1791.41 L119.482 1785.53 Z" fill="#000000" fill-rule="evenodd" fill-opacity="1" /><path clip-path="url(#clip150)" d="M134.598 1756.85 L152.954 1756.85 L152.954 1760.78 L138.88 1760.78 L138.88 1769.25 Q139.899 1768.91 140.917 1768.74 Q141.936 1768.56 142.954 1768.56 Q148.741 1768.56 152.121 1771.73 Q155.501 1774.9 155.501 1780.32 Q155.501 1785.9 152.028 1789 Q148.556 1792.08 142.237 1792.08 Q140.061 1792.08 137.792 1791.71 Q135.547 1791.34 133.14 1790.6 L133.14 1785.9 Q135.223 1787.03 137.445 1787.59 Q139.667 1788.14 142.144 1788.14 Q146.149 1788.14 148.487 1786.04 Q150.825 1783.93 150.825 1780.32 Q150.825 1776.71 148.487 1774.6 Q146.149 1772.49 142.144 1772.49 Q140.269 1772.49 138.394 1772.91 Q136.542 1773.33 134.598 1774.21 L134.598 1756.85 Z" fill="#000000" fill-rule="evenodd" fill-opacity="1" /><path clip-path="url(#clip150)" d="M98.325 1403.98 Q94.7139 1403.98 92.8852 1407.54 Q91.0797 1411.08 91.0797 1418.21 Q91.0797 1425.32 92.8852 1428.89 Q94.7139 1432.43 98.325 1432.43 Q101.959 1432.43 103.765 1428.89 Q105.593 1425.32 105.593 1418.21 Q105.593 1411.08 103.765 1407.54 Q101.959 1403.98 98.325 1403.98 M98.325 1400.27 Q104.135 1400.27 107.191 1404.88 Q110.269 1409.46 110.269 1418.21 Q110.269 1426.94 107.191 1431.55 Q104.135 1436.13 98.325 1436.13 Q92.5149 1436.13 89.4362 1431.55 Q86.3806 1426.94 86.3806 1418.21 Q86.3806 1409.46 89.4362 1404.88 Q92.5149 1400.27 98.325 1400.27 Z" fill="#000000" fill-rule="evenodd" fill-opacity="1" /><path clip-path="url(#clip150)" d="M118.487 1429.58 L123.371 1429.58 L123.371 1435.46 L118.487 1435.46 L118.487 1429.58 Z" fill="#000000" fill-rule="evenodd" fill-opacity="1" /><path clip-path="url(#clip150)" d="M143.556 1403.98 Q139.945 1403.98 138.116 1407.54 Q136.311 1411.08 136.311 1418.21 Q136.311 1425.32 138.116 1428.89 Q139.945 1432.43 143.556 1432.43 Q147.19 1432.43 148.996 1428.89 Q150.825 1425.32 150.825 1418.21 Q150.825 1411.08 148.996 1407.54 Q147.19 1403.98 143.556 1403.98 M143.556 1400.27 Q149.366 1400.27 152.422 1404.88 Q155.501 1409.46 155.501 1418.21 Q155.501 1426.94 152.422 1431.55 Q149.366 1436.13 143.556 1436.13 Q137.746 1436.13 134.667 1431.55 Q131.612 1426.94 131.612 1418.21 Q131.612 1409.46 134.667 1404.88 Q137.746 1400.27 143.556 1400.27 Z" fill="#000000" fill-rule="evenodd" fill-opacity="1" /><path clip-path="url(#clip150)" d="M99.3204 1048.03 Q95.7093 1048.03 93.8806 1051.6 Q92.075 1055.14 92.075 1062.27 Q92.075 1069.37 93.8806 1072.94 Q95.7093 1076.48 99.3204 1076.48 Q102.955 1076.48 104.76 1072.94 Q106.589 1069.37 106.589 1062.27 Q106.589 1055.14 104.76 1051.6 Q102.955 1048.03 99.3204 1048.03 M99.3204 1044.33 Q105.131 1044.33 108.186 1048.93 Q111.265 1053.52 111.265 1062.27 Q111.265 1070.99 108.186 1075.6 Q105.131 1080.18 99.3204 1080.18 Q93.5102 1080.18 90.4315 1075.6 Q87.376 1070.99 87.376 1062.27 Q87.376 1053.52 90.4315 1048.93 Q93.5102 1044.33 99.3204 1044.33 Z" fill="#000000" fill-rule="evenodd" fill-opacity="1" /><path clip-path="url(#clip150)" d="M119.482 1073.63 L124.367 1073.63 L124.367 1079.51 L119.482 1079.51 L119.482 1073.63 Z" fill="#000000" fill-rule="evenodd" fill-opacity="1" /><path clip-path="url(#clip150)" d="M134.598 1044.95 L152.954 1044.95 L152.954 1048.89 L138.88 1048.89 L138.88 1057.36 Q139.899 1057.01 140.917 1056.85 Q141.936 1056.67 142.954 1056.67 Q148.741 1056.67 152.121 1059.84 Q155.501 1063.01 155.501 1068.42 Q155.501 1074 152.028 1077.1 Q148.556 1080.18 142.237 1080.18 Q140.061 1080.18 137.792 1079.81 Q135.547 1079.44 133.14 1078.7 L133.14 1074 Q135.223 1075.14 137.445 1075.69 Q139.667 1076.25 142.144 1076.25 Q146.149 1076.25 148.487 1074.14 Q150.825 1072.04 150.825 1068.42 Q150.825 1064.81 148.487 1062.71 Q146.149 1060.6 142.144 1060.6 Q140.269 1060.6 138.394 1061.02 Q136.542 1061.43 134.598 1062.31 L134.598 1044.95 Z" fill="#000000" fill-rule="evenodd" fill-opacity="1" /><path clip-path="url(#clip150)" d="M89.1352 719.63 L96.7741 719.63 L96.7741 693.264 L88.464 694.931 L88.464 690.672 L96.7278 689.005 L101.404 689.005 L101.404 719.63 L109.043 719.63 L109.043 723.565 L89.1352 723.565 L89.1352 719.63 Z" fill="#000000" fill-rule="evenodd" fill-opacity="1" /><path clip-path="url(#clip150)" d="M118.487 717.685 L123.371 717.685 L123.371 723.565 L118.487 723.565 L118.487 717.685 Z" fill="#000000" fill-rule="evenodd" fill-opacity="1" /><path clip-path="url(#clip150)" d="M143.556 692.084 Q139.945 692.084 138.116 695.648 Q136.311 699.19 136.311 706.32 Q136.311 713.426 138.116 716.991 Q139.945 720.533 143.556 720.533 Q147.19 720.533 148.996 716.991 Q150.825 713.426 150.825 706.32 Q150.825 699.19 148.996 695.648 Q147.19 692.084 143.556 692.084 M143.556 688.38 Q149.366 688.38 152.422 692.986 Q155.501 697.57 155.501 706.32 Q155.501 715.046 152.422 719.653 Q149.366 724.236 143.556 724.236 Q137.746 724.236 134.667 719.653 Q131.612 715.046 131.612 706.32 Q131.612 697.57 134.667 692.986 Q137.746 688.38 143.556 688.38 Z" fill="#000000" fill-rule="evenodd" fill-opacity="1" /><path clip-path="url(#clip150)" d="M90.1306 363.682 L97.7695 363.682 L97.7695 337.317 L89.4593 338.984 L89.4593 334.724 L97.7232 333.058 L102.399 333.058 L102.399 363.682 L110.038 363.682 L110.038 367.618 L90.1306 367.618 L90.1306 363.682 Z" fill="#000000" fill-rule="evenodd" fill-opacity="1" /><path clip-path="url(#clip150)" d="M119.482 361.738 L124.367 361.738 L124.367 367.618 L119.482 367.618 L119.482 361.738 Z" fill="#000000" fill-rule="evenodd" fill-opacity="1" /><path clip-path="url(#clip150)" d="M134.598 333.058 L152.954 333.058 L152.954 336.993 L138.88 336.993 L138.88 345.465 Q139.899 345.118 140.917 344.956 Q141.936 344.771 142.954 344.771 Q148.741 344.771 152.121 347.942 Q155.501 351.113 155.501 356.53 Q155.501 362.108 152.028 365.21 Q148.556 368.289 142.237 368.289 Q140.061 368.289 137.792 367.919 Q135.547 367.548 133.14 366.807 L133.14 362.108 Q135.223 363.243 137.445 363.798 Q139.667 364.354 142.144 364.354 Q146.149 364.354 148.487 362.247 Q150.825 360.141 150.825 356.53 Q150.825 352.919 148.487 350.812 Q146.149 348.706 142.144 348.706 Q140.269 348.706 138.394 349.122 Q136.542 349.539 134.598 350.419 L134.598 333.058 Z" fill="#000000" fill-rule="evenodd" fill-opacity="1" /><circle clip-path="url(#clip152)" cx="265.017" cy="1165.26" r="14.4" fill="#0000ff" fill-rule="evenodd" fill-opacity="1" stroke="#000000" stroke-opacity="1" stroke-width="3.84"/>
<circle clip-path="url(#clip152)" cx="411.991" cy="1429.55" r="14.4" fill="#0000ff" fill-rule="evenodd" fill-opacity="1" stroke="#000000" stroke-opacity="1" stroke-width="3.84"/>
<circle clip-path="url(#clip152)" cx="482.346" cy="1413.3" r="14.4" fill="#0000ff" fill-rule="evenodd" fill-opacity="1" stroke="#000000" stroke-opacity="1" stroke-width="3.84"/>
<circle clip-path="url(#clip152)" cx="718.797" cy="1085.71" r="14.4" fill="#0000ff" fill-rule="evenodd" fill-opacity="1" stroke="#000000" stroke-opacity="1" stroke-width="3.84"/>
<circle clip-path="url(#clip152)" cx="756.121" cy="882.183" r="14.4" fill="#0000ff" fill-rule="evenodd" fill-opacity="1" stroke="#000000" stroke-opacity="1" stroke-width="3.84"/>
<circle clip-path="url(#clip152)" cx="804.314" cy="1164.09" r="14.4" fill="#0000ff" fill-rule="evenodd" fill-opacity="1" stroke="#000000" stroke-opacity="1" stroke-width="3.84"/>
<circle clip-path="url(#clip152)" cx="880.62" cy="1326.3" r="14.4" fill="#0000ff" fill-rule="evenodd" fill-opacity="1" stroke="#000000" stroke-opacity="1" stroke-width="3.84"/>
<circle clip-path="url(#clip152)" cx="926.517" cy="1698.39" r="14.4" fill="#0000ff" fill-rule="evenodd" fill-opacity="1" stroke="#000000" stroke-opacity="1" stroke-width="3.84"/>
<circle clip-path="url(#clip152)" cx="954.963" cy="1438.81" r="14.4" fill="#0000ff" fill-rule="evenodd" fill-opacity="1" stroke="#000000" stroke-opacity="1" stroke-width="3.84"/>
<circle clip-path="url(#clip152)" cx="966.406" cy="1751.15" r="14.4" fill="#0000ff" fill-rule="evenodd" fill-opacity="1" stroke="#000000" stroke-opacity="1" stroke-width="3.84"/>
<circle clip-path="url(#clip152)" cx="1028.13" cy="1412.33" r="14.4" fill="#0000ff" fill-rule="evenodd" fill-opacity="1" stroke="#000000" stroke-opacity="1" stroke-width="3.84"/>
<circle clip-path="url(#clip152)" cx="1106.98" cy="1094.85" r="14.4" fill="#0000ff" fill-rule="evenodd" fill-opacity="1" stroke="#000000" stroke-opacity="1" stroke-width="3.84"/>
<circle clip-path="url(#clip152)" cx="1146.41" cy="1260.89" r="14.4" fill="#0000ff" fill-rule="evenodd" fill-opacity="1" stroke="#000000" stroke-opacity="1" stroke-width="3.84"/>
<circle clip-path="url(#clip152)" cx="1195.22" cy="1393.21" r="14.4" fill="#0000ff" fill-rule="evenodd" fill-opacity="1" stroke="#000000" stroke-opacity="1" stroke-width="3.84"/>
<circle clip-path="url(#clip152)" cx="1196.51" cy="1093.76" r="14.4" fill="#0000ff" fill-rule="evenodd" fill-opacity="1" stroke="#000000" stroke-opacity="1" stroke-width="3.84"/>
<circle clip-path="url(#clip152)" cx="1247.62" cy="1275.68" r="14.4" fill="#0000ff" fill-rule="evenodd" fill-opacity="1" stroke="#000000" stroke-opacity="1" stroke-width="3.84"/>
<circle clip-path="url(#clip152)" cx="1260.87" cy="1504.27" r="14.4" fill="#0000ff" fill-rule="evenodd" fill-opacity="1" stroke="#000000" stroke-opacity="1" stroke-width="3.84"/>
<circle clip-path="url(#clip152)" cx="1275.08" cy="1277.79" r="14.4" fill="#0000ff" fill-rule="evenodd" fill-opacity="1" stroke="#000000" stroke-opacity="1" stroke-width="3.84"/>
<circle clip-path="url(#clip152)" cx="1284.28" cy="1328.48" r="14.4" fill="#0000ff" fill-rule="evenodd" fill-opacity="1" stroke="#000000" stroke-opacity="1" stroke-width="3.84"/>
<circle clip-path="url(#clip152)" cx="1296.4" cy="995.21" r="14.4" fill="#0000ff" fill-rule="evenodd" fill-opacity="1" stroke="#000000" stroke-opacity="1" stroke-width="3.84"/>
<circle clip-path="url(#clip152)" cx="1314.39" cy="1599.15" r="14.4" fill="#0000ff" fill-rule="evenodd" fill-opacity="1" stroke="#000000" stroke-opacity="1" stroke-width="3.84"/>
<circle clip-path="url(#clip152)" cx="1347.46" cy="1183.16" r="14.4" fill="#0000ff" fill-rule="evenodd" fill-opacity="1" stroke="#000000" stroke-opacity="1" stroke-width="3.84"/>
<circle clip-path="url(#clip152)" cx="1380.36" cy="1462.78" r="14.4" fill="#0000ff" fill-rule="evenodd" fill-opacity="1" stroke="#000000" stroke-opacity="1" stroke-width="3.84"/>
<circle clip-path="url(#clip152)" cx="1391.26" cy="1028.37" r="14.4" fill="#0000ff" fill-rule="evenodd" fill-opacity="1" stroke="#000000" stroke-opacity="1" stroke-width="3.84"/>
<circle clip-path="url(#clip152)" cx="1427.63" cy="1376.64" r="14.4" fill="#0000ff" fill-rule="evenodd" fill-opacity="1" stroke="#000000" stroke-opacity="1" stroke-width="3.84"/>
<circle clip-path="url(#clip152)" cx="1464.66" cy="1133.05" r="14.4" fill="#0000ff" fill-rule="evenodd" fill-opacity="1" stroke="#000000" stroke-opacity="1" stroke-width="3.84"/>
<circle clip-path="url(#clip152)" cx="1475.62" cy="1283.77" r="14.4" fill="#0000ff" fill-rule="evenodd" fill-opacity="1" stroke="#000000" stroke-opacity="1" stroke-width="3.84"/>
<circle clip-path="url(#clip152)" cx="1498.93" cy="1243.24" r="14.4" fill="#0000ff" fill-rule="evenodd" fill-opacity="1" stroke="#000000" stroke-opacity="1" stroke-width="3.84"/>
<circle clip-path="url(#clip152)" cx="1506.74" cy="1230.83" r="14.4" fill="#0000ff" fill-rule="evenodd" fill-opacity="1" stroke="#000000" stroke-opacity="1" stroke-width="3.84"/>
<circle clip-path="url(#clip152)" cx="1518.61" cy="1454.51" r="14.4" fill="#0000ff" fill-rule="evenodd" fill-opacity="1" stroke="#000000" stroke-opacity="1" stroke-width="3.84"/>
<circle clip-path="url(#clip152)" cx="1588.78" cy="1619.66" r="14.4" fill="#0000ff" fill-rule="evenodd" fill-opacity="1" stroke="#000000" stroke-opacity="1" stroke-width="3.84"/>
<circle clip-path="url(#clip152)" cx="1662.66" cy="1340.08" r="14.4" fill="#0000ff" fill-rule="evenodd" fill-opacity="1" stroke="#000000" stroke-opacity="1" stroke-width="3.84"/>
<circle clip-path="url(#clip152)" cx="1690.46" cy="1164.01" r="14.4" fill="#0000ff" fill-rule="evenodd" fill-opacity="1" stroke="#000000" stroke-opacity="1" stroke-width="3.84"/>
<circle clip-path="url(#clip152)" cx="1768.98" cy="1113.03" r="14.4" fill="#0000ff" fill-rule="evenodd" fill-opacity="1" stroke="#000000" stroke-opacity="1" stroke-width="3.84"/>
<circle clip-path="url(#clip152)" cx="1773.63" cy="1525.43" r="14.4" fill="#0000ff" fill-rule="evenodd" fill-opacity="1" stroke="#000000" stroke-opacity="1" stroke-width="3.84"/>
<circle clip-path="url(#clip152)" cx="1791.71" cy="1131.55" r="14.4" fill="#0000ff" fill-rule="evenodd" fill-opacity="1" stroke="#000000" stroke-opacity="1" stroke-width="3.84"/>
<circle clip-path="url(#clip152)" cx="1841.29" cy="934.472" r="14.4" fill="#0000ff" fill-rule="evenodd" fill-opacity="1" stroke="#000000" stroke-opacity="1" stroke-width="3.84"/>
<circle clip-path="url(#clip152)" cx="1877.91" cy="1375.83" r="14.4" fill="#0000ff" fill-rule="evenodd" fill-opacity="1" stroke="#000000" stroke-opacity="1" stroke-width="3.84"/>
<circle clip-path="url(#clip152)" cx="1901.67" cy="1126.24" r="14.4" fill="#0000ff" fill-rule="evenodd" fill-opacity="1" stroke="#000000" stroke-opacity="1" stroke-width="3.84"/>
<circle clip-path="url(#clip152)" cx="1939.81" cy="1162.76" r="14.4" fill="#0000ff" fill-rule="evenodd" fill-opacity="1" stroke="#000000" stroke-opacity="1" stroke-width="3.84"/>
<circle clip-path="url(#clip152)" cx="1979.91" cy="1232.66" r="14.4" fill="#0000ff" fill-rule="evenodd" fill-opacity="1" stroke="#000000" stroke-opacity="1" stroke-width="3.84"/>
<circle clip-path="url(#clip152)" cx="1996.15" cy="1276.03" r="14.4" fill="#0000ff" fill-rule="evenodd" fill-opacity="1" stroke="#000000" stroke-opacity="1" stroke-width="3.84"/>
<circle clip-path="url(#clip152)" cx="2071.9" cy="1064.84" r="14.4" fill="#0000ff" fill-rule="evenodd" fill-opacity="1" stroke="#000000" stroke-opacity="1" stroke-width="3.84"/>
<circle clip-path="url(#clip152)" cx="2082.55" cy="1200.17" r="14.4" fill="#0000ff" fill-rule="evenodd" fill-opacity="1" stroke="#000000" stroke-opacity="1" stroke-width="3.84"/>
<circle clip-path="url(#clip152)" cx="2197.02" cy="96.8724" r="14.4" fill="#ff0000" fill-rule="evenodd" fill-opacity="1" stroke="#000000" stroke-opacity="1" stroke-width="3.84"/>
<circle clip-path="url(#clip152)" cx="2245.43" cy="1053.68" r="14.4" fill="#0000ff" fill-rule="evenodd" fill-opacity="1" stroke="#000000" stroke-opacity="1" stroke-width="3.84"/>
<circle clip-path="url(#clip152)" cx="2408.78" cy="1165.31" r="14.4" fill="#0000ff" fill-rule="evenodd" fill-opacity="1" stroke="#000000" stroke-opacity="1" stroke-width="3.84"/>
<circle clip-path="url(#clip152)" cx="2498.22" cy="239.251" r="14.4" fill="#ff0000" fill-rule="evenodd" fill-opacity="1" stroke="#000000" stroke-opacity="1" stroke-width="3.84"/>
<circle clip-path="url(#clip152)" cx="2505.84" cy="1232.78" r="14.4" fill="#0000ff" fill-rule="evenodd" fill-opacity="1" stroke="#000000" stroke-opacity="1" stroke-width="3.84"/>
<circle clip-path="url(#clip152)" cx="2571.56" cy="239.251" r="14.4" fill="#ff0000" fill-rule="evenodd" fill-opacity="1" stroke="#000000" stroke-opacity="1" stroke-width="3.84"/>
<polyline clip-path="url(#clip152)" style="stroke:#e26f46; stroke-linecap:round; stroke-linejoin:round; stroke-width:16; stroke-opacity:1; fill:none" points="
  265.017,1534.73 288.315,1528.41 311.614,1522.09 334.912,1515.77 358.211,1509.45 381.509,1503.13 404.807,1496.81 428.106,1490.49 451.404,1484.18 474.703,1477.86 
  498.001,1471.54 521.299,1465.22 544.598,1458.9 567.896,1452.58 591.195,1446.26 614.493,1439.94 637.791,1433.62 661.09,1427.31 684.388,1420.99 707.687,1414.67 
  730.985,1408.35 754.284,1402.03 777.582,1395.71 800.88,1389.39 824.179,1383.07 847.477,1376.75 870.776,1370.44 894.074,1364.12 917.372,1357.8 940.671,1351.48 
  963.969,1345.16 987.268,1338.84 1010.57,1332.52 1033.86,1326.2 1057.16,1319.88 1080.46,1313.56 1103.76,1307.25 1127.06,1300.93 1150.36,1294.61 1173.65,1288.29 
  1196.95,1281.97 1220.25,1275.65 1243.55,1269.33 1266.85,1263.01 1290.15,1256.69 1313.45,1250.38 1336.74,1244.06 1360.04,1237.74 1383.34,1231.42 1406.64,1225.1 
  1429.94,1218.78 1453.24,1212.46 1476.53,1206.14 1499.83,1199.82 1523.13,1193.51 1546.43,1187.19 1569.73,1180.87 1593.03,1174.55 1616.32,1168.23 1639.62,1161.91 
  1662.92,1155.59 1686.22,1149.27 1709.52,1142.95 1732.82,1136.64 1756.12,1130.32 1779.41,1124 1802.71,1117.68 1826.01,1111.36 1849.31,1105.04 1872.61,1098.72 
  1895.91,1092.4 1919.2,1086.08 1942.5,1079.76 1965.8,1073.45 1989.1,1067.13 2012.4,1060.81 2035.7,1054.49 2058.99,1048.17 2082.29,1041.85 2105.59,1035.53 
  2128.89,1029.21 2152.19,1022.89 2175.49,1016.58 2198.79,1010.26 2222.08,1003.94 2245.38,997.619 2268.68,991.3 2291.98,984.981 2315.28,978.662 2338.58,972.343 
  2361.87,966.024 2385.17,959.705 2408.47,953.386 2431.77,947.068 2455.07,940.749 2478.37,934.43 2501.66,928.111 2524.96,921.792 2548.26,915.473 2571.56,909.154 
  
  "/>
<polyline clip-path="url(#clip152)" style="stroke:#3da44d; stroke-linecap:round; stroke-linejoin:round; stroke-width:16; stroke-opacity:1; fill:none" points="
  265.017,1366.8 288.315,1364.77 311.614,1362.74 334.912,1360.71 358.211,1358.68 381.509,1356.65 404.807,1354.62 428.106,1352.58 451.404,1350.55 474.703,1348.52 
  498.001,1346.49 521.299,1344.46 544.598,1342.43 567.896,1340.4 591.195,1338.37 614.493,1336.34 637.791,1334.3 661.09,1332.27 684.388,1330.24 707.687,1328.21 
  730.985,1326.18 754.284,1324.15 777.582,1322.12 800.88,1320.09 824.179,1318.05 847.477,1316.02 870.776,1313.99 894.074,1311.96 917.372,1309.93 940.671,1307.9 
  963.969,1305.87 987.268,1303.84 1010.57,1301.8 1033.86,1299.77 1057.16,1297.74 1080.46,1295.71 1103.76,1293.68 1127.06,1291.65 1150.36,1289.62 1173.65,1287.59 
  1196.95,1285.55 1220.25,1283.52 1243.55,1281.49 1266.85,1279.46 1290.15,1277.43 1313.45,1275.4 1336.74,1273.37 1360.04,1271.34 1383.34,1269.3 1406.64,1267.27 
  1429.94,1265.24 1453.24,1263.21 1476.53,1261.18 1499.83,1259.15 1523.13,1257.12 1546.43,1255.09 1569.73,1253.06 1593.03,1251.02 1616.32,1248.99 1639.62,1246.96 
  1662.92,1244.93 1686.22,1242.9 1709.52,1240.87 1732.82,1238.84 1756.12,1236.81 1779.41,1234.77 1802.71,1232.74 1826.01,1230.71 1849.31,1228.68 1872.61,1226.65 
  1895.91,1224.62 1919.2,1222.59 1942.5,1220.56 1965.8,1218.52 1989.1,1216.49 2012.4,1214.46 2035.7,1212.43 2058.99,1210.4 2082.29,1208.37 2105.59,1206.34 
  2128.89,1204.31 2152.19,1202.27 2175.49,1200.24 2198.79,1198.21 2222.08,1196.18 2245.38,1194.15 2268.68,1192.12 2291.98,1190.09 2315.28,1188.06 2338.58,1186.03 
  2361.87,1183.99 2385.17,1181.96 2408.47,1179.93 2431.77,1177.9 2455.07,1175.87 2478.37,1173.84 2501.66,1171.81 2524.96,1169.78 2548.26,1167.74 2571.56,1165.71 
  
  "/>
<path clip-path="url(#clip150)" d="
M277.318 313.055 L592.321 313.055 L592.321 105.695 L277.318 105.695  Z
  " fill="#ffffff" fill-rule="evenodd" fill-opacity="1"/>
<polyline clip-path="url(#clip150)" style="stroke:#000000; stroke-linecap:round; stroke-linejoin:round; stroke-width:4; stroke-opacity:1; fill:none" points="
  277.318,313.055 592.321,313.055 592.321,105.695 277.318,105.695 277.318,313.055 
  "/>
<circle clip-path="url(#clip150)" cx="385.982" cy="157.535" r="23.04" fill="#0000ff" fill-rule="evenodd" fill-opacity="1" stroke="#000000" stroke-opacity="1" stroke-width="6.144"/>
<path clip-path="url(#clip150)" d="M508.489 177.223 Q506.683 181.852 504.97 183.264 Q503.257 184.676 500.387 184.676 L496.984 184.676 L496.984 181.112 L499.484 181.112 Q501.243 181.112 502.215 180.278 Q503.188 179.445 504.368 176.343 L505.132 174.399 L494.646 148.889 L499.16 148.889 L507.262 169.167 L515.364 148.889 L519.877 148.889 L508.489 177.223 Z" fill="#000000" fill-rule="evenodd" fill-opacity="1" /><path clip-path="url(#clip150)" d="M527.169 170.88 L534.808 170.88 L534.808 144.515 L526.498 146.181 L526.498 141.922 L534.762 140.255 L539.437 140.255 L539.437 170.88 L547.076 170.88 L547.076 174.815 L527.169 174.815 L527.169 170.88 Z" fill="#000000" fill-rule="evenodd" fill-opacity="1" /><polyline clip-path="url(#clip150)" style="stroke:#e26f46; stroke-linecap:round; stroke-linejoin:round; stroke-width:16; stroke-opacity:1; fill:none" points="
  304.484,209.375 467.48,209.375 
  "/>
<path clip-path="url(#clip150)" d="M494.646 190.637 L498.905 190.637 L498.905 226.655 L494.646 226.655 L494.646 190.637 Z" fill="#000000" fill-rule="evenodd" fill-opacity="1" /><path clip-path="url(#clip150)" d="M528.002 205.706 Q529.6 202.836 531.822 201.47 Q534.044 200.104 537.053 200.104 Q541.104 200.104 543.303 202.952 Q545.502 205.776 545.502 211.007 L545.502 226.655 L541.22 226.655 L541.22 211.146 Q541.22 207.419 539.9 205.614 Q538.581 203.808 535.873 203.808 Q532.563 203.808 530.641 206.007 Q528.72 208.206 528.72 212.003 L528.72 226.655 L524.438 226.655 L524.438 211.146 Q524.438 207.396 523.118 205.614 Q521.799 203.808 519.044 203.808 Q515.78 203.808 513.859 206.03 Q511.938 208.229 511.938 212.003 L511.938 226.655 L507.655 226.655 L507.655 200.729 L511.938 200.729 L511.938 204.757 Q513.396 202.373 515.433 201.239 Q517.47 200.104 520.271 200.104 Q523.095 200.104 525.063 201.54 Q527.053 202.975 528.002 205.706 Z" fill="#000000" fill-rule="evenodd" fill-opacity="1" /><polyline clip-path="url(#clip150)" style="stroke:#3da44d; stroke-linecap:round; stroke-linejoin:round; stroke-width:16; stroke-opacity:1; fill:none" points="
  304.484,261.215 467.48,261.215 
  "/>
<path clip-path="url(#clip150)" d="M509.831 256.551 Q509.114 256.134 508.257 255.949 Q507.424 255.741 506.405 255.741 Q502.794 255.741 500.85 258.102 Q498.928 260.44 498.928 264.838 L498.928 278.495 L494.646 278.495 L494.646 252.569 L498.928 252.569 L498.928 256.597 Q500.271 254.236 502.424 253.102 Q504.577 251.944 507.655 251.944 Q508.095 251.944 508.627 252.014 Q509.16 252.06 509.808 252.176 L509.831 256.551 Z" fill="#000000" fill-rule="evenodd" fill-opacity="1" /><path clip-path="url(#clip150)" d="M514.299 242.477 L518.558 242.477 L518.558 278.495 L514.299 278.495 L514.299 242.477 Z" fill="#000000" fill-rule="evenodd" fill-opacity="1" /><path clip-path="url(#clip150)" d="M547.655 257.546 Q549.252 254.676 551.474 253.31 Q553.697 251.944 556.706 251.944 Q560.757 251.944 562.956 254.792 Q565.155 257.616 565.155 262.847 L565.155 278.495 L560.873 278.495 L560.873 262.986 Q560.873 259.259 559.553 257.454 Q558.234 255.648 555.525 255.648 Q552.215 255.648 550.294 257.847 Q548.373 260.046 548.373 263.843 L548.373 278.495 L544.09 278.495 L544.09 262.986 Q544.09 259.236 542.771 257.454 Q541.451 255.648 538.697 255.648 Q535.433 255.648 533.512 257.87 Q531.59 260.069 531.59 263.843 L531.59 278.495 L527.308 278.495 L527.308 252.569 L531.59 252.569 L531.59 256.597 Q533.049 254.213 535.086 253.079 Q537.123 251.944 539.924 251.944 Q542.748 251.944 544.715 253.38 Q546.706 254.815 547.655 257.546 Z" fill="#000000" fill-rule="evenodd" fill-opacity="1" /></svg>
